%TF.GenerationSoftware,KiCad,Pcbnew,10.99.0-unknown*%
%TF.CreationDate,2026-08-12T15:24:14+08:00*%
%TF.ProjectId,____-__HiFi__,1f6ba112-2d4c-4624-9869-46699f3e2e6b,rev?*%
%TF.SameCoordinates,Original*%
%TF.FileFunction,Soldermask,Top*%
%TF.FilePolarity,Negative*%
%FSLAX46Y46*%
G04 Gerber Fmt 4.6, Leading zero omitted, Abs format (unit mm)*
G04 Created by KiCad (PCBNEW 10.99.0-unknown) date 2026-08-12 15:24:14*
%MOMM*%
%LPD*%
G01*
G04 APERTURE LIST*
G04 Aperture macros list*
%AMRoundRect*
0 Rectangle with rounded corners*
0 $1 Rounding radius*
0 $2 $3 $4 $5 $6 $7 $8 $9 X,Y pos of 4 corners*
0 Add a 4 corners polygon primitive as box body*
4,1,4,$2,$3,$4,$5,$6,$7,$8,$9,$2,$3,0*
0 Add four circle primitives for the rounded corners*
1,1,$1+$1,$2,$3*
1,1,$1+$1,$4,$5*
1,1,$1+$1,$6,$7*
1,1,$1+$1,$8,$9*
0 Add four rect primitives between the rounded corners*
20,1,$1+$1,$2,$3,$4,$5,0*
20,1,$1+$1,$4,$5,$6,$7,0*
20,1,$1+$1,$6,$7,$8,$9,0*
20,1,$1+$1,$8,$9,$2,$3,0*%
G04 Aperture macros list end*
%ADD10RoundRect,0.155000X0.345000X-0.105000X0.345000X0.105000X-0.345000X0.105000X-0.345000X-0.105000X0*%
%ADD11RoundRect,0.155000X-0.105000X-0.345000X0.105000X-0.345000X0.105000X0.345000X-0.105000X0.345000X0*%
%ADD12C,0.850000*%
%ADD13RoundRect,0.275000X-0.225000X-0.275000X0.225000X-0.275000X0.225000X0.275000X-0.225000X0.275000X0*%
%ADD14RoundRect,0.275000X-0.225000X-0.275000X0.225000X-0.275000X0.225000X0.275000X-0.225000X0.275000X0*%
%ADD15RoundRect,0.155000X-0.105000X-0.345000X0.105000X-0.345000X0.105000X0.345000X-0.105000X0.345000X0*%
%ADD16RoundRect,0.155000X0.345000X-0.105000X0.345000X0.105000X-0.345000X0.105000X-0.345000X-0.105000X0*%
G04 APERTURE END LIST*
D10*
%TO.C,U2*%
X85644999Y242419539D03*
X85644999Y241769539D03*
X85644999Y241119539D03*
X85644999Y240469539D03*
X85644999Y239819539D03*
X85644999Y239169539D03*
X85644999Y238519539D03*
X85644999Y237869539D03*
X85644999Y237219539D03*
X85644999Y236569539D03*
X85644999Y235919539D03*
D11*
X84919999Y235194539D03*
X84269999Y235194539D03*
X83619999Y235194539D03*
X82969999Y235194539D03*
X82319999Y235194539D03*
X81669999Y235194539D03*
X81019999Y235194539D03*
X80369999Y235194539D03*
X79719999Y235194539D03*
X79069999Y235194539D03*
X78419999Y235194539D03*
D10*
X77694999Y235919539D03*
X77694999Y236569539D03*
X77694999Y237219539D03*
X77694999Y237869539D03*
X77694999Y238519539D03*
X77694999Y239169539D03*
X77694999Y239819539D03*
X77694999Y240469539D03*
X77694999Y241119539D03*
X77694999Y241769539D03*
X77694999Y242419539D03*
D11*
X78419999Y243144539D03*
X79069999Y243144539D03*
X79719999Y243144539D03*
X80369999Y243144539D03*
X81019999Y243144539D03*
X81669999Y243144539D03*
X82319999Y243144539D03*
X82969999Y243144539D03*
X83619999Y243144539D03*
X84269999Y243144539D03*
X84919999Y243144539D03*
%TD*%
D12*
%TO.C,W1*%
X31359132Y251429086D03*
X32019132Y252572286D03*
X33339132Y252572286D03*
X33999132Y251429086D03*
X33339132Y250285886D03*
X32019132Y250285886D03*
%TD*%
%TO.C,W3*%
X31319000Y230429084D03*
X31979000Y231572284D03*
X33299000Y231572284D03*
X33959000Y230429084D03*
X33299000Y229285884D03*
X31979000Y229285884D03*
%TD*%
%TO.C,W2*%
X36195000Y204169001D03*
X34950500Y204684501D03*
X34435000Y205929001D03*
X34950500Y207173501D03*
X36195000Y207689001D03*
X37439500Y207173501D03*
X37955000Y205929001D03*
X37439500Y204684501D03*
%TD*%
D13*
%TO.C,C8*%
X51308000Y216535024D03*
X51308000Y217935024D03*
%TD*%
D14*
%TO.C,R4*%
X48322000Y224282000D03*
X49722000Y224282000D03*
%TD*%
%TO.C,C5*%
X48375340Y225933000D03*
X49775340Y225933000D03*
%TD*%
%TO.C,R8*%
X45155636Y224282000D03*
X46555636Y224282000D03*
%TD*%
%TO.C,C20*%
X39370000Y219259253D03*
X39370000Y217859253D03*
%TD*%
%TO.C,R16*%
X42615636Y211836000D03*
X44015636Y211836000D03*
%TD*%
%TO.C,R17*%
X45782000Y211836000D03*
X47182000Y211836000D03*
%TD*%
%TO.C,C15*%
X45789747Y210058000D03*
X47189747Y210058000D03*
%TD*%
D12*
%TO.C,K1*%
X136253000Y200787000D03*
X135737500Y199542500D03*
X134493000Y199027000D03*
X133248500Y199542500D03*
X132733000Y200787000D03*
X133248500Y202031500D03*
X134493000Y202547000D03*
X135737500Y202031500D03*
%TD*%
D14*
%TO.C,R2*%
X147255000Y205740000D03*
X148655000Y205740000D03*
%TD*%
D13*
%TO.C,R3*%
X148655000Y204089000D03*
X147255000Y204089000D03*
%TD*%
%TO.C,R21*%
X148655000Y201978999D03*
X147255000Y201978999D03*
%TD*%
%TO.C,R22*%
X148655000Y200406000D03*
X147255000Y200406000D03*
%TD*%
%TO.C,C4*%
X145226000Y204089000D03*
X143826000Y204089000D03*
%TD*%
%TO.C,C18*%
X145226000Y201978999D03*
X143826000Y201978999D03*
%TD*%
D14*
%TO.C,R28*%
X54483000Y207701364D03*
X54483000Y206301364D03*
%TD*%
%TO.C,R29*%
X52409471Y207710000D03*
X52409471Y206310000D03*
%TD*%
D12*
%TO.C,Q4*%
X62941075Y202565000D03*
X61441075Y201699000D03*
X61441075Y203431000D03*
%TD*%
%TO.C,Q2*%
X58785000Y206248000D03*
X57285000Y205382000D03*
X57285000Y207114000D03*
%TD*%
%TO.C,Q3*%
X58785000Y202565000D03*
X57285000Y201699000D03*
X57285000Y203431000D03*
%TD*%
D13*
%TO.C,R33*%
X60706000Y205548000D03*
X60706000Y206948000D03*
%TD*%
%TO.C,R32*%
X64897000Y201865000D03*
X64897000Y203265000D03*
%TD*%
%TO.C,R31*%
X66350364Y200279000D03*
X64950364Y200279000D03*
%TD*%
%TO.C,CA1*%
X43434000Y230440000D03*
X43434000Y231840000D03*
%TD*%
D14*
%TO.C,R24*%
X39686000Y227929089D03*
X41086000Y227929089D03*
%TD*%
%TO.C,R18*%
X32574000Y224025295D03*
X33974000Y224025295D03*
%TD*%
%TO.C,R1*%
X46662364Y251333000D03*
X48062364Y251333000D03*
%TD*%
%TO.C,C1*%
X46609024Y253365000D03*
X48009024Y253365000D03*
%TD*%
D13*
%TO.C,C2*%
X51308000Y241554024D03*
X51308000Y242954024D03*
%TD*%
D14*
%TO.C,C12*%
X39370000Y246564253D03*
X39370000Y245164253D03*
%TD*%
%TO.C,R12*%
X45155636Y239349658D03*
X46555636Y239349658D03*
%TD*%
%TO.C,C10*%
X45208976Y237613492D03*
X46608976Y237613492D03*
%TD*%
%TO.C,R5*%
X43115000Y253365000D03*
X44515000Y253365000D03*
%TD*%
%TO.C,R7*%
X43115000Y251333000D03*
X44515000Y251333000D03*
%TD*%
D13*
%TO.C,C6*%
X41021000Y251903000D03*
X41021000Y253303000D03*
%TD*%
D14*
%TO.C,R9*%
X41845000Y239349658D03*
X43245000Y239349658D03*
%TD*%
%TO.C,C9*%
X38543000Y239346953D03*
X39943000Y239346953D03*
%TD*%
%TO.C,R11*%
X41845000Y237617000D03*
X43245000Y237617000D03*
%TD*%
D13*
%TO.C,C13*%
X30545000Y224028000D03*
X29145000Y224028000D03*
%TD*%
D14*
%TO.C,C14*%
X29160494Y236855000D03*
X30560494Y236855000D03*
%TD*%
D13*
%TO.C,C21*%
X37857341Y227929113D03*
X37857341Y229329113D03*
%TD*%
%TO.C,C22*%
X37857341Y231529055D03*
X37857341Y232929055D03*
%TD*%
%TO.C,R19*%
X33974000Y236855000D03*
X32574000Y236855000D03*
%TD*%
%TO.C,R25*%
X46555636Y235966000D03*
X45155636Y235966000D03*
%TD*%
D14*
%TO.C,R10*%
X33929066Y244667000D03*
X33929066Y243267000D03*
%TD*%
%TO.C,R6*%
X31429198Y244667000D03*
X31429198Y243267000D03*
%TD*%
%TO.C,R20*%
X37583364Y255580364D03*
X37583364Y254180364D03*
%TD*%
%TO.C,R26*%
X45155636Y234467197D03*
X46555636Y234467197D03*
%TD*%
D13*
%TO.C,R30*%
X62611000Y205548000D03*
X62611000Y206948000D03*
%TD*%
%TO.C,CA2*%
X54864000Y235303236D03*
X54864000Y236703236D03*
%TD*%
D14*
%TO.C,C40*%
X54991000Y248644386D03*
X54991000Y247244386D03*
%TD*%
D13*
%TO.C,R37*%
X60771000Y250698000D03*
X59371000Y250698000D03*
%TD*%
%TO.C,C33*%
X63119000Y243140000D03*
X63119000Y244540000D03*
%TD*%
%TO.C,R36*%
X57677559Y250702724D03*
X56277559Y250702724D03*
%TD*%
D14*
%TO.C,C28*%
X59252509Y252522558D03*
X60652509Y252522558D03*
%TD*%
D13*
%TO.C,R41*%
X56580000Y240919000D03*
X55180000Y240919000D03*
%TD*%
%TO.C,R39*%
X59628000Y240919000D03*
X58228000Y240919000D03*
%TD*%
D14*
%TO.C,C34*%
X58355000Y239268000D03*
X59755000Y239268000D03*
%TD*%
%TO.C,C39*%
X54991000Y228705386D03*
X54991000Y227305386D03*
%TD*%
D13*
%TO.C,R35*%
X60652636Y230886000D03*
X59252636Y230886000D03*
%TD*%
%TO.C,C31*%
X63119000Y223160614D03*
X63119000Y224560614D03*
%TD*%
%TO.C,R34*%
X57342000Y230886000D03*
X55942000Y230886000D03*
%TD*%
D14*
%TO.C,C27*%
X59305976Y232537000D03*
X60705976Y232537000D03*
%TD*%
D13*
%TO.C,R40*%
X57578728Y220472000D03*
X56178728Y220472000D03*
%TD*%
%TO.C,R38*%
X60652636Y220472000D03*
X59252636Y220472000D03*
%TD*%
D14*
%TO.C,C32*%
X59305976Y218440000D03*
X60705976Y218440000D03*
%TD*%
D10*
%TO.C,U1*%
X135146000Y213849000D03*
X135146000Y214499000D03*
X135146000Y215149000D03*
X135146000Y215799000D03*
X135146000Y216449000D03*
X135146000Y217099000D03*
X135146000Y217749000D03*
X135146000Y218399000D03*
X135146000Y219049000D03*
X135146000Y219699000D03*
X135146000Y220349000D03*
X135146000Y220999000D03*
D15*
X135871000Y221724000D03*
X136521000Y221724000D03*
X137171000Y221724000D03*
X137821000Y221724000D03*
X138471000Y221724000D03*
X139121000Y221724000D03*
X139771000Y221724000D03*
X140421000Y221724000D03*
X141071000Y221724000D03*
X141721000Y221724000D03*
X142371000Y221724000D03*
X143021000Y221724000D03*
D10*
X143746000Y220999000D03*
X143746000Y220349000D03*
X143746000Y219699000D03*
X143746000Y219049000D03*
X143746000Y218399000D03*
X143746000Y217749000D03*
X143746000Y217099000D03*
X143746000Y216449000D03*
X143746000Y215799000D03*
X143746000Y215149000D03*
X143746000Y214499000D03*
X143746000Y213849000D03*
D15*
X143021000Y213124000D03*
X142371000Y213124000D03*
X141721000Y213124000D03*
X141071000Y213124000D03*
X140421000Y213124000D03*
X139771000Y213124000D03*
X139121000Y213124000D03*
X138471000Y213124000D03*
X137821000Y213124000D03*
X137171000Y213124000D03*
X136521000Y213124000D03*
X135871000Y213124000D03*
%TD*%
D13*
%TO.C,L2*%
X137695940Y224344000D03*
X137695940Y225744000D03*
%TD*%
%TO.C,L4*%
X140393904Y224498916D03*
X138993904Y224498916D03*
%TD*%
%TO.C,L5*%
X140400000Y225589084D03*
X139000000Y225589084D03*
%TD*%
D14*
%TO.C,L1*%
X147701000Y225729522D03*
X147701000Y224329522D03*
%TD*%
D12*
%TO.C,X1*%
X130810000Y216932000D03*
X129810000Y217932000D03*
X130810000Y218932000D03*
X131810000Y217932000D03*
%TD*%
D14*
%TO.C,C49*%
X144272000Y225728506D03*
X144272000Y224328506D03*
%TD*%
D13*
%TO.C,R44*%
X32704000Y282194000D03*
X31304000Y282194000D03*
%TD*%
D12*
%TO.C,ANT1*%
X143836107Y229416893D03*
X142163092Y229865199D03*
X143387801Y231089908D03*
%TD*%
%TO.C,LED1*%
X28489377Y283305978D03*
X29489377Y282305978D03*
X28489377Y281305978D03*
X27489377Y282305978D03*
%TD*%
D13*
%TO.C,R45*%
X32704000Y283780982D03*
X31304000Y283780982D03*
%TD*%
D12*
%TO.C,AUDIO1*%
X153239000Y226979000D03*
X153899000Y228122200D03*
X155219000Y228122200D03*
X155879000Y226979000D03*
X155219000Y225835800D03*
X153899000Y225835800D03*
%TD*%
D13*
%TO.C,AV1*%
X154940000Y215078999D03*
X154940000Y216478999D03*
%TD*%
%TO.C,AV2*%
X154940000Y201278999D03*
X154940000Y202678999D03*
%TD*%
D16*
%TO.C,U3*%
X48044000Y274752000D03*
X47244000Y274752000D03*
X46444000Y274752000D03*
D15*
X45644000Y275552000D03*
X45644000Y276352000D03*
X45644000Y277152000D03*
D16*
X46444000Y277952000D03*
X47244000Y277952000D03*
X48044000Y277952000D03*
%TD*%
D14*
%TO.C,C79*%
X45586395Y282575000D03*
X46986395Y282575000D03*
%TD*%
D13*
%TO.C,R60*%
X43053000Y277898605D03*
X43053000Y279298605D03*
%TD*%
D14*
%TO.C,C80*%
X47052000Y270882364D03*
X48452000Y270882364D03*
%TD*%
%TO.C,L8*%
X56261000Y271464000D03*
X56261000Y270064000D03*
%TD*%
%TO.C,R58*%
X50167705Y270829000D03*
X50167705Y269429000D03*
%TD*%
%TO.C,C81*%
X50165000Y267265253D03*
X50165000Y265865253D03*
%TD*%
%TO.C,C82*%
X45338999Y269113000D03*
X46738999Y269113000D03*
%TD*%
%TO.C,R59*%
X46863000Y267273000D03*
X46863000Y265873000D03*
%TD*%
D13*
%TO.C,R62*%
X45338975Y265873000D03*
X45338975Y267273000D03*
%TD*%
D14*
%TO.C,C83*%
X46550604Y263017000D03*
X47950604Y263017000D03*
%TD*%
%TO.C,R65*%
X48895000Y258637000D03*
X48895000Y257237000D03*
%TD*%
D13*
%TO.C,CA7*%
X44196000Y257237000D03*
X44196000Y258637000D03*
%TD*%
%TO.C,L9*%
X52070000Y257237000D03*
X52070000Y258637000D03*
%TD*%
%TO.C,CA8*%
X56769000Y257237000D03*
X56769000Y258637000D03*
%TD*%
D14*
%TO.C,R46*%
X77785976Y251525000D03*
X77785976Y250125000D03*
%TD*%
%TO.C,R55*%
X76516000Y229870000D03*
X77916000Y229870000D03*
%TD*%
D13*
%TO.C,C75*%
X79440000Y227965000D03*
X78040000Y227965000D03*
%TD*%
%TO.C,C72*%
X75184000Y225741000D03*
X75184000Y227141000D03*
%TD*%
D14*
%TO.C,C36*%
X65721000Y230378000D03*
X67121000Y230378000D03*
%TD*%
%TO.C,C29*%
X65721000Y232460823D03*
X67121000Y232460823D03*
%TD*%
%TO.C,C38*%
X65721000Y243586000D03*
X67121000Y243586000D03*
%TD*%
%TO.C,C30*%
X65721000Y245618000D03*
X67121000Y245618000D03*
%TD*%
%TO.C,C63*%
X70801000Y238552558D03*
X72201000Y238552558D03*
%TD*%
%TO.C,C64*%
X70801000Y235966000D03*
X72201000Y235966000D03*
%TD*%
%TO.C,C66*%
X70801000Y234188000D03*
X72201000Y234188000D03*
%TD*%
%TO.C,R50*%
X70793253Y241681000D03*
X72193253Y241681000D03*
%TD*%
%TO.C,R51*%
X70793253Y240157000D03*
X72193253Y240157000D03*
%TD*%
D13*
%TO.C,R54*%
X71501000Y225733253D03*
X71501000Y227133253D03*
%TD*%
%TO.C,C71*%
X73279000Y225741000D03*
X73279000Y227141000D03*
%TD*%
%TO.C,R52*%
X69850000Y225733253D03*
X69850000Y227133253D03*
%TD*%
D14*
%TO.C,R47*%
X73406000Y251525000D03*
X73406000Y250125000D03*
%TD*%
D13*
%TO.C,C55*%
X73406000Y246950000D03*
X73406000Y248350000D03*
%TD*%
%TO.C,C51*%
X79186000Y248031000D03*
X77786000Y248031000D03*
%TD*%
%TO.C,C73*%
X85469942Y229870000D03*
X84069942Y229870000D03*
%TD*%
%TO.C,C74*%
X85469942Y227965000D03*
X84069942Y227965000D03*
%TD*%
D12*
%TO.C,L7*%
X119888000Y232775000D03*
X120888000Y231775000D03*
X119888000Y230775000D03*
X118888000Y231775000D03*
%TD*%
%TO.C,L6*%
X119888000Y248777000D03*
X120888000Y247777000D03*
X119888000Y246777000D03*
X118888000Y247777000D03*
%TD*%
D13*
%TO.C,C56*%
X85469942Y250374079D03*
X84069942Y250374079D03*
%TD*%
%TO.C,C57*%
X85469942Y248469079D03*
X84069942Y248469079D03*
%TD*%
%TO.C,C68*%
X91313000Y233742000D03*
X91313000Y235142000D03*
%TD*%
%TO.C,C58*%
X93726000Y243775000D03*
X93726000Y245175000D03*
%TD*%
%TO.C,C65*%
X93726000Y237044000D03*
X93726000Y238444000D03*
%TD*%
%TO.C,C61*%
X91313000Y240346000D03*
X91313000Y241746000D03*
%TD*%
%TO.C,CA3*%
X110109000Y271715000D03*
X110109000Y273115000D03*
%TD*%
D14*
%TO.C,CA5*%
X110109000Y224855000D03*
X110109000Y223455000D03*
%TD*%
D13*
%TO.C,CA4*%
X123952000Y271334000D03*
X123952000Y272734000D03*
%TD*%
D14*
%TO.C,CA6*%
X125349000Y224855000D03*
X125349000Y223455000D03*
%TD*%
D13*
%TO.C,C53*%
X124841000Y259196394D03*
X124841000Y260596394D03*
%TD*%
%TO.C,C59*%
X124841000Y251981603D03*
X124841000Y253381603D03*
%TD*%
%TO.C,C69*%
X124841000Y243194394D03*
X124841000Y244594394D03*
%TD*%
%TO.C,C76*%
X124841000Y235979603D03*
X124841000Y237379603D03*
%TD*%
%TO.C,C54*%
X128524000Y258496370D03*
X128524000Y259896370D03*
%TD*%
%TO.C,C60*%
X128524000Y252681627D03*
X128524000Y254081627D03*
%TD*%
%TO.C,C70*%
X128524000Y242494370D03*
X128524000Y243894370D03*
%TD*%
%TO.C,C77*%
X128524000Y236679627D03*
X128524000Y238079627D03*
%TD*%
%TO.C,C52*%
X133542000Y262188998D03*
X132142000Y262188998D03*
%TD*%
D14*
%TO.C,C62*%
X132142000Y250388999D03*
X133542000Y250388999D03*
%TD*%
D13*
%TO.C,R48*%
X138749000Y262188998D03*
X137349000Y262188998D03*
%TD*%
D14*
%TO.C,R49*%
X137349000Y250388999D03*
X138749000Y250388999D03*
%TD*%
D13*
%TO.C,C67*%
X133542000Y246186998D03*
X132142000Y246186998D03*
%TD*%
D14*
%TO.C,C78*%
X132142000Y234386999D03*
X133542000Y234386999D03*
%TD*%
D13*
%TO.C,R53*%
X138749000Y246186998D03*
X137349000Y246186998D03*
%TD*%
D14*
%TO.C,R56*%
X137349000Y234386999D03*
X138749000Y234386999D03*
%TD*%
%TO.C,CN1*%
X135763000Y257007478D03*
X135763000Y255607478D03*
%TD*%
%TO.C,CN2*%
X135763000Y241005478D03*
X135763000Y239605478D03*
%TD*%
D12*
%TO.C,DC1*%
X152781000Y276235896D03*
X151637800Y276895896D03*
X151637800Y278215896D03*
X152781000Y278875896D03*
X153924200Y278215896D03*
X153924200Y276895896D03*
%TD*%
D14*
%TO.C,R57*%
X144399000Y272579022D03*
X144399000Y271179022D03*
%TD*%
D12*
%TO.C,K2*%
X135382000Y272716458D03*
X134382000Y273716458D03*
X135382000Y274716458D03*
X136382000Y273716458D03*
%TD*%
D14*
%TO.C,R61*%
X39894788Y282575000D03*
X41294788Y282575000D03*
%TD*%
D12*
%TO.C,SW1*%
X36211000Y271411962D03*
X35631200Y270207962D03*
X34328300Y269910562D03*
X33283500Y270743762D03*
X33283500Y272080162D03*
X34328300Y272913362D03*
X35631200Y272615962D03*
%TD*%
D14*
%TO.C,R63*%
X115062000Y206931998D03*
X115062000Y205531998D03*
%TD*%
D12*
%TO.C,U5*%
X107188000Y202549000D03*
X108054000Y201049000D03*
X106322000Y201049000D03*
%TD*%
D13*
%TO.C,R64*%
X99060000Y198563000D03*
X99060000Y199963000D03*
%TD*%
D14*
%TO.C,C84*%
X101600000Y200090000D03*
X101600000Y198690000D03*
%TD*%
D13*
%TO.C,C85*%
X112776000Y198055000D03*
X112776000Y199455000D03*
%TD*%
%TO.C,D2*%
X136063433Y284353000D03*
X134663433Y284353000D03*
%TD*%
D12*
%TO.C,U4*%
X119566360Y198009000D03*
X118520160Y198769100D03*
X118919760Y199998900D03*
X120212960Y199998900D03*
X120612560Y198769100D03*
%TD*%
D13*
%TO.C,C87*%
X120334000Y202565000D03*
X118934000Y202565000D03*
%TD*%
D14*
%TO.C,C86*%
X115062000Y199709000D03*
X115062000Y198309000D03*
%TD*%
D12*
%TO.C,H1*%
X123174000Y215011000D03*
X122174000Y214011000D03*
X121174000Y215011000D03*
X122174000Y216011000D03*
%TD*%
D14*
%TO.C,D1*%
X127127000Y199785327D03*
X127127000Y198385327D03*
%TD*%
D12*
%TO.C,Q1*%
X124333000Y199628000D03*
X125199000Y198128000D03*
X123467000Y198128000D03*
%TD*%
D14*
%TO.C,R15*%
X123829596Y201422000D03*
X125229596Y201422000D03*
%TD*%
%TO.C,R13*%
X125282973Y204576643D03*
X125282973Y203176643D03*
%TD*%
%TO.C,R14*%
X127116992Y204576643D03*
X127116992Y203176643D03*
%TD*%
D13*
%TO.C,C25*%
X54483000Y210136002D03*
X54483000Y211536002D03*
%TD*%
%TO.C,C26*%
X52409471Y210136002D03*
X52409471Y211536002D03*
%TD*%
D14*
%TO.C,C23*%
X138303000Y209361000D03*
X138303000Y207961000D03*
%TD*%
%TO.C,C24*%
X136266225Y209361000D03*
X136266225Y207961000D03*
%TD*%
%TO.C,C35*%
X54102000Y222171998D03*
X54102000Y220771998D03*
%TD*%
%TO.C,C11*%
X52386000Y230886000D03*
X53786000Y230886000D03*
%TD*%
%TO.C,C3*%
X52640000Y250698000D03*
X54040000Y250698000D03*
%TD*%
%TO.C,C37*%
X53331796Y242655193D03*
X53331796Y241255193D03*
%TD*%
D13*
%TO.C,C17*%
X49475366Y227838000D03*
X48075366Y227838000D03*
%TD*%
%TO.C,C19*%
X37465000Y217359000D03*
X37465000Y218759000D03*
%TD*%
D14*
%TO.C,C7*%
X41377450Y224282000D03*
X42777450Y224282000D03*
%TD*%
%TO.C,C16*%
X30796000Y212090000D03*
X32196000Y212090000D03*
%TD*%
D12*
%TO.C,U6*%
X57041000Y245872000D03*
X57556500Y247116500D03*
X58801000Y247632000D03*
X60045500Y247116500D03*
X60561000Y245872000D03*
X60045500Y244627500D03*
X58801000Y244112000D03*
X57556500Y244627500D03*
%TD*%
%TO.C,U7*%
X57041000Y225933000D03*
X57556500Y227177500D03*
X58801000Y227693000D03*
X60045500Y227177500D03*
X60561000Y225933000D03*
X60045500Y224688500D03*
X58801000Y224173000D03*
X57556500Y224688500D03*
%TD*%
%TO.C,U8*%
X43579000Y218059000D03*
X44094500Y219303500D03*
X45339000Y219819000D03*
X46583500Y219303500D03*
X47099000Y218059000D03*
X46583500Y216814500D03*
X45339000Y216299000D03*
X44094500Y216814500D03*
%TD*%
%TO.C,U9*%
X43579000Y245364000D03*
X44094500Y246608500D03*
X45339000Y247124000D03*
X46583500Y246608500D03*
X47099000Y245364000D03*
X46583500Y244119500D03*
X45339000Y243604000D03*
X44094500Y244119500D03*
%TD*%
D14*
%TO.C,R23*%
X47814000Y230140002D03*
X49214000Y230140002D03*
%TD*%
%TO.C,R27*%
X47814000Y232156000D03*
X49214000Y232156000D03*
%TD*%
%TO.C,R42*%
X58884742Y235003238D03*
X60284742Y235003238D03*
%TD*%
%TO.C,R43*%
X58884742Y236982000D03*
X60284742Y236982000D03*
%TD*%
%TO.C,C42*%
X140208000Y208838217D03*
X140208000Y207438217D03*
%TD*%
%TO.C,C41*%
X141986000Y208838217D03*
X141986000Y207438217D03*
%TD*%
%TO.C,C43*%
X147382000Y214757000D03*
X148782000Y214757000D03*
%TD*%
%TO.C,C44*%
X147382000Y216662000D03*
X148782000Y216662000D03*
%TD*%
%TO.C,C45*%
X147382000Y218485491D03*
X148782000Y218485491D03*
%TD*%
D13*
%TO.C,C48*%
X146050000Y224344000D03*
X146050000Y225744000D03*
%TD*%
%TO.C,C50*%
X133858000Y224344000D03*
X133858000Y225744000D03*
%TD*%
D14*
%TO.C,C47*%
X130285006Y214757000D03*
X131685006Y214757000D03*
%TD*%
D13*
%TO.C,C46*%
X132145000Y221107000D03*
X130745000Y221107000D03*
%TD*%
%TO.C,R66*%
X144510506Y207758537D03*
X144510506Y209158537D03*
%TD*%
M02*
