%TF.GenerationSoftware,KiCad,Pcbnew,10.99.0-unknown*%
%TF.CreationDate,2026-08-12T15:24:14+08:00*%
%TF.ProjectId,____-__HiFi__,1f6ba112-2d4c-4624-9869-46699f3e2e6b,rev?*%
%TF.SameCoordinates,Original*%
%TF.FileFunction,Copper,L1,Top*%
%TF.FilePolarity,Positive*%
%FSLAX46Y46*%
G04 Gerber Fmt 4.6, Leading zero omitted, Abs format (unit mm)*
G04 Created by KiCad (PCBNEW 10.99.0-unknown) date 2026-08-12 15:24:14*
%MOMM*%
%LPD*%
G01*
G04 APERTURE LIST*
G04 Aperture macros list*
%AMRoundRect*
0 Rectangle with rounded corners*
0 $1 Rounding radius*
0 $2 $3 $4 $5 $6 $7 $8 $9 X,Y pos of 4 corners*
0 Add a 4 corners polygon primitive as box body*
4,1,4,$2,$3,$4,$5,$6,$7,$8,$9,$2,$3,0*
0 Add four circle primitives for the rounded corners*
1,1,$1+$1,$2,$3*
1,1,$1+$1,$4,$5*
1,1,$1+$1,$6,$7*
1,1,$1+$1,$8,$9*
0 Add four rect primitives between the rounded corners*
20,1,$1+$1,$2,$3,$4,$5,0*
20,1,$1+$1,$4,$5,$6,$7,0*
20,1,$1+$1,$6,$7,$8,$9,0*
20,1,$1+$1,$8,$9,$2,$3,0*%
G04 Aperture macros list end*
%TA.AperFunction,SMDPad,CuDef*%
%ADD10RoundRect,0.105000X0.345000X-0.105000X0.345000X0.105000X-0.345000X0.105000X-0.345000X-0.105000X0*%
%TD*%
%TA.AperFunction,SMDPad,CuDef*%
%ADD11RoundRect,0.105000X-0.105000X-0.345000X0.105000X-0.345000X0.105000X0.345000X-0.105000X0.345000X0*%
%TD*%
%TA.AperFunction,SMDPad,CuDef*%
%ADD12C,0.750000*%
%TD*%
%TA.AperFunction,SMDPad,CuDef*%
%ADD13RoundRect,0.225000X-0.225000X-0.275000X0.225000X-0.275000X0.225000X0.275000X-0.225000X0.275000X0*%
%TD*%
%TA.AperFunction,SMDPad,CuDef*%
%ADD14RoundRect,0.225000X-0.225000X-0.275000X0.225000X-0.275000X0.225000X0.275000X-0.225000X0.275000X0*%
%TD*%
%TA.AperFunction,SMDPad,CuDef*%
%ADD15RoundRect,0.105000X-0.105000X-0.345000X0.105000X-0.345000X0.105000X0.345000X-0.105000X0.345000X0*%
%TD*%
%TA.AperFunction,SMDPad,CuDef*%
%ADD16RoundRect,0.105000X0.345000X-0.105000X0.345000X0.105000X-0.345000X0.105000X-0.345000X-0.105000X0*%
%TD*%
%TA.AperFunction,ViaPad*%
%ADD17C,0.800000*%
%TD*%
%TA.AperFunction,ViaPad*%
%ADD18C,0.600000*%
%TD*%
%TA.AperFunction,Conductor*%
%ADD19C,0.254000*%
%TD*%
%TA.AperFunction,Conductor*%
%ADD20C,0.500000*%
%TD*%
%TA.AperFunction,Conductor*%
%ADD21C,0.381000*%
%TD*%
%TA.AperFunction,Conductor*%
%ADD22C,0.508000*%
%TD*%
%TA.AperFunction,Conductor*%
%ADD23C,0.762000*%
%TD*%
G04 APERTURE END LIST*
D10*
%TO.P,U2,44*%
%TO.N,$3N1818*%
X85644999Y242419539D03*
%TO.P,U2,43*%
%TO.N,$3N1819*%
X85644999Y241769539D03*
%TO.P,U2,42*%
%TO.N,GND*%
X85644999Y241119539D03*
%TO.P,U2,41*%
X85644999Y240469539D03*
%TO.P,U2,40*%
%TO.N,$3N1821*%
X85644999Y239819539D03*
%TO.P,U2,39*%
X85644999Y239169539D03*
%TO.P,U2,38*%
%TO.N,PVDD*%
X85644999Y238519539D03*
%TO.P,U2,37*%
X85644999Y237869539D03*
%TO.P,U2,36*%
X85644999Y237219539D03*
%TO.P,U2,35*%
%TO.N,$3N1820*%
X85644999Y236569539D03*
%TO.P,U2,34*%
%TO.N,GND*%
X85644999Y235919539D03*
D11*
%TO.P,U2,33*%
X84919999Y235194539D03*
%TO.P,U2,32*%
%TO.N,$3N1817*%
X84269999Y235194539D03*
%TO.P,U2,31*%
%TO.N,PVDD*%
X83619999Y235194539D03*
%TO.P,U2,30*%
X82969999Y235194539D03*
%TO.P,U2,29*%
X82319999Y235194539D03*
%TO.P,U2,28*%
%TO.N,$3N1816*%
X81669999Y235194539D03*
%TO.P,U2,27*%
X81019999Y235194539D03*
%TO.P,U2,26*%
%TO.N,GND*%
X80369999Y235194539D03*
%TO.P,U2,25*%
X79719999Y235194539D03*
%TO.P,U2,24*%
%TO.N,$3N1814*%
X79069999Y235194539D03*
%TO.P,U2,23*%
%TO.N,$3N1815*%
X78419999Y235194539D03*
D10*
%TO.P,U2,22*%
%TO.N,$3N1810*%
X77694999Y235919539D03*
%TO.P,U2,21*%
%TO.N,N/C*%
X77694999Y236569539D03*
%TO.P,U2,20*%
%TO.N,$3N1800*%
X77694999Y237219539D03*
%TO.P,U2,19*%
%TO.N,N/C*%
X77694999Y237869539D03*
%TO.P,U2,18*%
%TO.N,$3N1808*%
X77694999Y238519539D03*
%TO.P,U2,17*%
%TO.N,INPUT_D*%
X77694999Y239169539D03*
%TO.P,U2,16*%
%TO.N,INPUT_C*%
X77694999Y239819539D03*
%TO.P,U2,15*%
%TO.N,$3N1803*%
X77694999Y240469539D03*
%TO.P,U2,14*%
%TO.N,$3N1802*%
X77694999Y241119539D03*
%TO.P,U2,13*%
%TO.N,GND*%
X77694999Y241769539D03*
%TO.P,U2,12*%
X77694999Y242419539D03*
D11*
%TO.P,U2,11*%
%TO.N,$3N1801*%
X78419999Y243144539D03*
%TO.P,U2,10*%
%TO.N,N/C*%
X79069999Y243144539D03*
%TO.P,U2,9*%
X79719999Y243144539D03*
%TO.P,U2,8*%
%TO.N,$3N1806*%
X80369999Y243144539D03*
%TO.P,U2,7*%
%TO.N,$3N1804*%
X81019999Y243144539D03*
%TO.P,U2,6*%
%TO.N,INPUT_B*%
X81669999Y243144539D03*
%TO.P,U2,5*%
%TO.N,INPUT_A*%
X82319999Y243144539D03*
%TO.P,U2,4*%
%TO.N,GND*%
X82969999Y243144539D03*
%TO.P,U2,3*%
X83619999Y243144539D03*
%TO.P,U2,2*%
%TO.N,$3N1812*%
X84269999Y243144539D03*
%TO.P,U2,1*%
%TO.N,$3N1809*%
X84919999Y243144539D03*
%TD*%
D12*
%TO.P,W1,1*%
%TO.N,$1N52239*%
X31359132Y251429086D03*
%TO.P,W1,2*%
%TO.N,$1N52242*%
X32019132Y252572286D03*
%TO.P,W1,3*%
%TO.N,$1N52306*%
X33339132Y252572286D03*
%TO.P,W1,4*%
%TO.N,$1N52240*%
X33999132Y251429086D03*
%TO.P,W1,5*%
%TO.N,$1N52241*%
X33339132Y250285886D03*
%TO.P,W1,6*%
%TO.N,$1N52323*%
X32019132Y250285886D03*
%TD*%
%TO.P,W3,1*%
%TO.N,$1N52247*%
X31319000Y230429084D03*
%TO.P,W3,2*%
%TO.N,$1N52250*%
X31979000Y231572284D03*
%TO.P,W3,3*%
%TO.N,$1N52248*%
X33299000Y231572284D03*
%TO.P,W3,4*%
%TO.N,$1N52245*%
X33959000Y230429084D03*
%TO.P,W3,5*%
%TO.N,$1N52353*%
X33299000Y229285884D03*
%TO.P,W3,6*%
%TO.N,$1N52246*%
X31979000Y229285884D03*
%TD*%
%TO.P,W2,1*%
%TO.N,GND*%
X36195000Y204169001D03*
%TO.P,W2,2*%
%TO.N,$1N52188*%
X34950500Y204684501D03*
%TO.P,W2,3*%
%TO.N,$1N52290*%
X34435000Y205929001D03*
%TO.P,W2,4*%
%TO.N,GND*%
X34950500Y207173501D03*
%TO.P,W2,5*%
%TO.N,$1N52187*%
X36195000Y207689001D03*
%TO.P,W2,6*%
%TO.N,$1N52189*%
X37439500Y207173501D03*
%TO.P,W2,7*%
%TO.N,GND*%
X37955000Y205929001D03*
%TO.P,W2,8*%
%TO.N,PWRKEY*%
X37439500Y204684501D03*
%TD*%
D13*
%TO.P,C8,2*%
%TO.N,GND*%
X51308000Y216535024D03*
%TO.P,C8,1*%
%TO.N,+12V_OPA*%
X51308000Y217935024D03*
%TD*%
D14*
%TO.P,R4,2*%
%TO.N,$1N52202*%
X48322000Y224282000D03*
%TO.P,R4,1*%
%TO.N,$1N52173*%
X49722000Y224282000D03*
%TD*%
%TO.P,C5,2*%
%TO.N,$1N52202*%
X48375340Y225933000D03*
%TO.P,C5,1*%
%TO.N,$1N52173*%
X49775340Y225933000D03*
%TD*%
%TO.P,R8,2*%
%TO.N,$1N52173*%
X45155636Y224282000D03*
%TO.P,R8,1*%
%TO.N,$1N52174*%
X46555636Y224282000D03*
%TD*%
%TO.P,C20,2*%
%TO.N,+6V_A*%
X39370000Y219259253D03*
%TO.P,C20,1*%
%TO.N,GND*%
X39370000Y217859253D03*
%TD*%
%TO.P,R16,2*%
%TO.N,$1N52176*%
X42615636Y211836000D03*
%TO.P,R16,1*%
%TO.N,$1N52175*%
X44015636Y211836000D03*
%TD*%
%TO.P,R17,2*%
%TO.N,$1N52213*%
X45782000Y211836000D03*
%TO.P,R17,1*%
%TO.N,$1N52176*%
X47182000Y211836000D03*
%TD*%
%TO.P,C15,2*%
%TO.N,$1N52213*%
X45789747Y210058000D03*
%TO.P,C15,1*%
%TO.N,$1N52176*%
X47189747Y210058000D03*
%TD*%
D12*
%TO.P,K1,1*%
%TO.N,$1N52259*%
X136253000Y200787000D03*
%TO.P,K1,2*%
%TO.N,$1N52194*%
X135737500Y199542500D03*
%TO.P,K1,3*%
%TO.N,$1N52290*%
X134493000Y199027000D03*
%TO.P,K1,4*%
%TO.N,$1N52196*%
X133248500Y199542500D03*
%TO.P,K1,5*%
%TO.N,$1N52195*%
X132733000Y200787000D03*
%TO.P,K1,6*%
%TO.N,$1N52189*%
X133248500Y202031500D03*
%TO.P,K1,7*%
%TO.N,$1N52193*%
X134493000Y202547000D03*
%TO.P,K1,8*%
%TO.N,+5V*%
X135737500Y202031500D03*
%TD*%
D14*
%TO.P,R2,2*%
%TO.N,$1N52277*%
X147255000Y205740000D03*
%TO.P,R2,1*%
%TO.N,$1N52253*%
X148655000Y205740000D03*
%TD*%
D13*
%TO.P,R3,2*%
%TO.N,$1N52253*%
X148655000Y204089000D03*
%TO.P,R3,1*%
%TO.N,GND*%
X147255000Y204089000D03*
%TD*%
%TO.P,R21,2*%
%TO.N,$1N52268*%
X148655000Y201978999D03*
%TO.P,R21,1*%
%TO.N,$1N52271*%
X147255000Y201978999D03*
%TD*%
%TO.P,R22,2*%
%TO.N,$1N52268*%
X148655000Y200406000D03*
%TO.P,R22,1*%
%TO.N,GND*%
X147255000Y200406000D03*
%TD*%
%TO.P,C4,2*%
%TO.N,$1N52193*%
X145226000Y204089000D03*
%TO.P,C4,1*%
%TO.N,$1N52253*%
X143826000Y204089000D03*
%TD*%
%TO.P,C18,2*%
%TO.N,$1N52194*%
X145226000Y201978999D03*
%TO.P,C18,1*%
%TO.N,$1N52268*%
X143826000Y201978999D03*
%TD*%
D14*
%TO.P,R28,2*%
%TO.N,$1N52256*%
X54483000Y207701364D03*
%TO.P,R28,1*%
%TO.N,$1N52200*%
X54483000Y206301364D03*
%TD*%
%TO.P,R29,2*%
%TO.N,$1N52257*%
X52409471Y207710000D03*
%TO.P,R29,1*%
%TO.N,$1N52201*%
X52409471Y206310000D03*
%TD*%
D12*
%TO.P,Q4,1*%
%TO.N,$1N52222*%
X62941075Y202565000D03*
%TO.P,Q4,2*%
%TO.N,GND*%
X61441075Y201699000D03*
%TO.P,Q4,3*%
%TO.N,$1N52281*%
X61441075Y203431000D03*
%TD*%
%TO.P,Q2,1*%
%TO.N,$1N52281*%
X58785000Y206248000D03*
%TO.P,Q2,2*%
%TO.N,GND*%
X57285000Y205382000D03*
%TO.P,Q2,3*%
%TO.N,$1N52256*%
X57285000Y207114000D03*
%TD*%
%TO.P,Q3,1*%
%TO.N,$1N52281*%
X58785000Y202565000D03*
%TO.P,Q3,2*%
%TO.N,GND*%
X57285000Y201699000D03*
%TO.P,Q3,3*%
%TO.N,$1N52257*%
X57285000Y203431000D03*
%TD*%
D13*
%TO.P,R33,2*%
%TO.N,GND*%
X60706000Y205548000D03*
%TO.P,R33,1*%
%TO.N,$1N52281*%
X60706000Y206948000D03*
%TD*%
%TO.P,R32,2*%
%TO.N,GND*%
X64897000Y201865000D03*
%TO.P,R32,1*%
%TO.N,$1N52222*%
X64897000Y203265000D03*
%TD*%
%TO.P,R31,2*%
%TO.N,$1N52222*%
X66350364Y200279000D03*
%TO.P,R31,1*%
%TO.N,MUTE*%
X64950364Y200279000D03*
%TD*%
%TO.P,CA1,1*%
%TO.N,+6V_A*%
X43434000Y230440000D03*
%TO.P,CA1,2*%
%TO.N,GND*%
X43434000Y231840000D03*
%TD*%
D14*
%TO.P,R24,2*%
%TO.N,$1N52301*%
X39686000Y227929089D03*
%TO.P,R24,1*%
%TO.N,$1N52247*%
X41086000Y227929089D03*
%TD*%
%TO.P,R18,2*%
%TO.N,$1N52296*%
X32574000Y224025295D03*
%TO.P,R18,1*%
%TO.N,$1N52245*%
X33974000Y224025295D03*
%TD*%
%TO.P,R1,2*%
%TO.N,$1N52327*%
X46662364Y251333000D03*
%TO.P,R1,1*%
%TO.N,$1N52340*%
X48062364Y251333000D03*
%TD*%
%TO.P,C1,2*%
%TO.N,$1N52327*%
X46609024Y253365000D03*
%TO.P,C1,1*%
%TO.N,$1N52340*%
X48009024Y253365000D03*
%TD*%
D13*
%TO.P,C2,2*%
%TO.N,GND*%
X51308000Y241554024D03*
%TO.P,C2,1*%
%TO.N,+12V_OPA*%
X51308000Y242954024D03*
%TD*%
D14*
%TO.P,C12,2*%
%TO.N,+6V_A*%
X39370000Y246564253D03*
%TO.P,C12,1*%
%TO.N,GND*%
X39370000Y245164253D03*
%TD*%
%TO.P,R12,2*%
%TO.N,$1N52310*%
X45155636Y239349658D03*
%TO.P,R12,1*%
%TO.N,$1N52249*%
X46555636Y239349658D03*
%TD*%
%TO.P,C10,2*%
%TO.N,$1N52310*%
X45208976Y237613492D03*
%TO.P,C10,1*%
%TO.N,$1N52249*%
X46608976Y237613492D03*
%TD*%
%TO.P,R5,2*%
%TO.N,$1N52340*%
X43115000Y253365000D03*
%TO.P,R5,1*%
%TO.N,$1N52243*%
X44515000Y253365000D03*
%TD*%
%TO.P,R7,2*%
%TO.N,$1N52340*%
X43115000Y251333000D03*
%TO.P,R7,1*%
%TO.N,$1N52353*%
X44515000Y251333000D03*
%TD*%
D13*
%TO.P,C6,2*%
%TO.N,$1N52243*%
X41021000Y251903000D03*
%TO.P,C6,1*%
%TO.N,$1N52241*%
X41021000Y253303000D03*
%TD*%
D14*
%TO.P,R9,2*%
%TO.N,$1N52249*%
X41845000Y239349658D03*
%TO.P,R9,1*%
%TO.N,$1N52244*%
X43245000Y239349658D03*
%TD*%
%TO.P,C9,2*%
%TO.N,$1N52244*%
X38543000Y239346953D03*
%TO.P,C9,1*%
%TO.N,$1N52242*%
X39943000Y239346953D03*
%TD*%
%TO.P,R11,2*%
%TO.N,$1N52249*%
X41845000Y237617000D03*
%TO.P,R11,1*%
%TO.N,$1N52250*%
X43245000Y237617000D03*
%TD*%
D13*
%TO.P,C13,2*%
%TO.N,$1N52353*%
X30545000Y224028000D03*
%TO.P,C13,1*%
%TO.N,$1N52245*%
X29145000Y224028000D03*
%TD*%
D14*
%TO.P,C14,2*%
%TO.N,$1N52246*%
X29160494Y236855000D03*
%TO.P,C14,1*%
%TO.N,$1N52353*%
X30560494Y236855000D03*
%TD*%
D13*
%TO.P,C21,2*%
%TO.N,$1N52250*%
X37857341Y227929113D03*
%TO.P,C21,1*%
%TO.N,$1N52247*%
X37857341Y229329113D03*
%TD*%
%TO.P,C22,2*%
%TO.N,$1N52248*%
X37857341Y231529055D03*
%TO.P,C22,1*%
%TO.N,$1N52250*%
X37857341Y232929055D03*
%TD*%
%TO.P,R19,2*%
%TO.N,$1N52246*%
X33974000Y236855000D03*
%TO.P,R19,1*%
%TO.N,$1N52327*%
X32574000Y236855000D03*
%TD*%
%TO.P,R25,2*%
%TO.N,$1N52248*%
X46555636Y235966000D03*
%TO.P,R25,1*%
%TO.N,$1N52310*%
X45155636Y235966000D03*
%TD*%
D14*
%TO.P,R10,2*%
%TO.N,$1N52301*%
X33929066Y244667000D03*
%TO.P,R10,1*%
%TO.N,$1N52239*%
X33929066Y243267000D03*
%TD*%
%TO.P,R6,2*%
%TO.N,$1N52296*%
X31429198Y244667000D03*
%TO.P,R6,1*%
%TO.N,$1N52240*%
X31429198Y243267000D03*
%TD*%
%TO.P,R20,2*%
%TO.N,$1N52327*%
X37583364Y255580364D03*
%TO.P,R20,1*%
%TO.N,$1N52323*%
X37583364Y254180364D03*
%TD*%
%TO.P,R26,2*%
%TO.N,$1N52310*%
X45155636Y234467197D03*
%TO.P,R26,1*%
%TO.N,$1N52306*%
X46555636Y234467197D03*
%TD*%
D13*
%TO.P,R30,2*%
%TO.N,+12V_OPA*%
X62611000Y205548000D03*
%TO.P,R30,1*%
%TO.N,$1N52281*%
X62611000Y206948000D03*
%TD*%
%TO.P,CA2,1*%
%TO.N,$1N52506*%
X54864000Y235303236D03*
%TO.P,CA2,2*%
%TO.N,GND*%
X54864000Y236703236D03*
%TD*%
D14*
%TO.P,C40,2*%
%TO.N,$1N52506*%
X54991000Y248644386D03*
%TO.P,C40,1*%
%TO.N,GND*%
X54991000Y247244386D03*
%TD*%
D13*
%TO.P,R37,2*%
%TO.N,$1N52139*%
X60771000Y250698000D03*
%TO.P,R37,1*%
%TO.N,$1N52160*%
X59371000Y250698000D03*
%TD*%
%TO.P,C33,2*%
%TO.N,GND*%
X63119000Y243140000D03*
%TO.P,C33,1*%
%TO.N,+12V_OPA*%
X63119000Y244540000D03*
%TD*%
%TO.P,R36,2*%
%TO.N,$1N52365*%
X57677559Y250702724D03*
%TO.P,R36,1*%
%TO.N,$1N52139*%
X56277559Y250702724D03*
%TD*%
D14*
%TO.P,C28,2*%
%TO.N,$1N52160*%
X59252509Y252522558D03*
%TO.P,C28,1*%
%TO.N,$1N52139*%
X60652509Y252522558D03*
%TD*%
D13*
%TO.P,R41,2*%
%TO.N,$1N52167*%
X56580000Y240919000D03*
%TO.P,R41,1*%
%TO.N,$1N52142*%
X55180000Y240919000D03*
%TD*%
%TO.P,R39,2*%
%TO.N,$1N52142*%
X59628000Y240919000D03*
%TO.P,R39,1*%
%TO.N,$1N52143*%
X58228000Y240919000D03*
%TD*%
D14*
%TO.P,C34,2*%
%TO.N,$1N52143*%
X58355000Y239268000D03*
%TO.P,C34,1*%
%TO.N,$1N52142*%
X59755000Y239268000D03*
%TD*%
%TO.P,C39,2*%
%TO.N,$1N52506*%
X54991000Y228705386D03*
%TO.P,C39,1*%
%TO.N,GND*%
X54991000Y227305386D03*
%TD*%
D13*
%TO.P,R35,2*%
%TO.N,$1N52162*%
X60652636Y230886000D03*
%TO.P,R35,1*%
%TO.N,$1N52161*%
X59252636Y230886000D03*
%TD*%
%TO.P,C31,2*%
%TO.N,GND*%
X63119000Y223160614D03*
%TO.P,C31,1*%
%TO.N,+12V_OPA*%
X63119000Y224560614D03*
%TD*%
%TO.P,R34,2*%
%TO.N,$1N52359*%
X57342000Y230886000D03*
%TO.P,R34,1*%
%TO.N,$1N52162*%
X55942000Y230886000D03*
%TD*%
D14*
%TO.P,C27,2*%
%TO.N,$1N52161*%
X59305976Y232537000D03*
%TO.P,C27,1*%
%TO.N,$1N52162*%
X60705976Y232537000D03*
%TD*%
D13*
%TO.P,R40,2*%
%TO.N,$1N52165*%
X57578728Y220472000D03*
%TO.P,R40,1*%
%TO.N,$1N52150*%
X56178728Y220472000D03*
%TD*%
%TO.P,R38,2*%
%TO.N,$1N52150*%
X60652636Y220472000D03*
%TO.P,R38,1*%
%TO.N,$1N52151*%
X59252636Y220472000D03*
%TD*%
D14*
%TO.P,C32,2*%
%TO.N,$1N52151*%
X59305976Y218440000D03*
%TO.P,C32,1*%
%TO.N,$1N52150*%
X60705976Y218440000D03*
%TD*%
D10*
%TO.P,U1,1*%
%TO.N,N/C*%
X135146000Y213849000D03*
%TO.P,U1,2*%
X135146000Y214499000D03*
%TO.P,U1,3*%
X135146000Y215149000D03*
%TO.P,U1,4*%
X135146000Y215799000D03*
%TO.P,U1,5*%
X135146000Y216449000D03*
%TO.P,U1,6*%
X135146000Y217099000D03*
%TO.P,U1,7*%
X135146000Y217749000D03*
%TO.P,U1,8*%
%TO.N,VDDCORE*%
X135146000Y218399000D03*
%TO.P,U1,9*%
%TO.N,N/C*%
X135146000Y219049000D03*
%TO.P,U1,10*%
%TO.N,VDDIO*%
X135146000Y219699000D03*
%TO.P,U1,11*%
%TO.N,+3V7*%
X135146000Y220349000D03*
%TO.P,U1,12*%
%TO.N,$2N1029*%
X135146000Y220999000D03*
D15*
%TO.P,U1,13*%
%TO.N,GND*%
X135871000Y221724000D03*
%TO.P,U1,14*%
%TO.N,VDDBT*%
X136521000Y221724000D03*
%TO.P,U1,15*%
%TO.N,N/C*%
X137171000Y221724000D03*
%TO.P,U1,16*%
X137821000Y221724000D03*
%TO.P,U1,17*%
X138471000Y221724000D03*
%TO.P,U1,18*%
%TO.N,PWRKEY*%
X139121000Y221724000D03*
%TO.P,U1,19*%
%TO.N,N/C*%
X139771000Y221724000D03*
%TO.P,U1,20*%
X140421000Y221724000D03*
%TO.P,U1,21*%
%TO.N,GND*%
X141071000Y221724000D03*
%TO.P,U1,22*%
%TO.N,BT_ANT*%
X141721000Y221724000D03*
%TO.P,U1,23*%
%TO.N,GND*%
X142371000Y221724000D03*
%TO.P,U1,24*%
%TO.N,VDDBT*%
X143021000Y221724000D03*
D10*
%TO.P,U1,25*%
%TO.N,$2N1042*%
X143746000Y220999000D03*
%TO.P,U1,26*%
%TO.N,$2N1023*%
X143746000Y220349000D03*
%TO.P,U1,27*%
%TO.N,USBDM*%
X143746000Y219699000D03*
%TO.P,U1,28*%
%TO.N,USBDP*%
X143746000Y219049000D03*
%TO.P,U1,29*%
%TO.N,N/C*%
X143746000Y218399000D03*
%TO.P,U1,30*%
X143746000Y217749000D03*
%TO.P,U1,31*%
X143746000Y217099000D03*
%TO.P,U1,32*%
X143746000Y216449000D03*
%TO.P,U1,33*%
X143746000Y215799000D03*
%TO.P,U1,34*%
X143746000Y215149000D03*
%TO.P,U1,35*%
%TO.N,LEDB*%
X143746000Y214499000D03*
%TO.P,U1,36*%
%TO.N,LEDR*%
X143746000Y213849000D03*
D15*
%TO.P,U1,37*%
%TO.N,N/C*%
X143021000Y213124000D03*
%TO.P,U1,38*%
X142371000Y213124000D03*
%TO.P,U1,39*%
%TO.N,MUTE*%
X141721000Y213124000D03*
%TO.P,U1,40*%
%TO.N,N/C*%
X141071000Y213124000D03*
%TO.P,U1,41*%
%TO.N,DACR*%
X140421000Y213124000D03*
%TO.P,U1,42*%
%TO.N,DACL*%
X139771000Y213124000D03*
%TO.P,U1,43*%
%TO.N,$2N1015*%
X139121000Y213124000D03*
%TO.P,U1,44*%
%TO.N,$2N1014*%
X138471000Y213124000D03*
%TO.P,U1,45*%
%TO.N,AGND*%
X137821000Y213124000D03*
%TO.P,U1,46*%
%TO.N,GND*%
X137171000Y213124000D03*
%TO.P,U1,47*%
%TO.N,N/C*%
X136521000Y213124000D03*
%TO.P,U1,48*%
X135871000Y213124000D03*
%TD*%
D13*
%TO.P,L2,2*%
%TO.N,$2N2752*%
X137695940Y224344000D03*
%TO.P,L2,1*%
%TO.N,BT_ANT*%
X137695940Y225744000D03*
%TD*%
%TO.P,L4,2*%
%TO.N,BT_ANT*%
X140393904Y224498916D03*
%TO.P,L4,1*%
%TO.N,GND*%
X138993904Y224498916D03*
%TD*%
%TO.P,L5,2*%
%TO.N,$2N2752*%
X140400000Y225589084D03*
%TO.P,L5,1*%
%TO.N,GND*%
X139000000Y225589084D03*
%TD*%
D14*
%TO.P,L1,1*%
%TO.N,VDDBT*%
X147701000Y225729522D03*
%TO.P,L1,2*%
%TO.N,$2N1029*%
X147701000Y224329522D03*
%TD*%
D12*
%TO.P,X1,1*%
%TO.N,$2N1042*%
X130810000Y216932000D03*
%TO.P,X1,2*%
%TO.N,GND*%
X129810000Y217932000D03*
%TO.P,X1,3*%
%TO.N,$2N1023*%
X130810000Y218932000D03*
%TO.P,X1,4*%
%TO.N,GND*%
X131810000Y217932000D03*
%TD*%
D14*
%TO.P,C49,2*%
%TO.N,PWRKEY*%
X144272000Y225728506D03*
%TO.P,C49,1*%
%TO.N,GND*%
X144272000Y224328506D03*
%TD*%
D13*
%TO.P,R44,2*%
%TO.N,$2N1051*%
X32704000Y282194000D03*
%TO.P,R44,1*%
%TO.N,LEDR*%
X31304000Y282194000D03*
%TD*%
D12*
%TO.P,ANT1,1*%
%TO.N,$2N2752*%
X143836107Y229416893D03*
%TO.P,ANT1,2*%
%TO.N,GND*%
X142163092Y229865199D03*
X143387801Y231089908D03*
%TD*%
%TO.P,LED1,4*%
%TO.N,GND*%
X28489377Y283305978D03*
%TO.P,LED1,2*%
X29489377Y282305978D03*
%TO.P,LED1,1*%
%TO.N,$2N1051*%
X28489377Y281305978D03*
%TO.P,LED1,3*%
%TO.N,$2N1052*%
X27489377Y282305978D03*
%TD*%
D13*
%TO.P,R45,2*%
%TO.N,$2N1052*%
X32704000Y283780982D03*
%TO.P,R45,1*%
%TO.N,LEDB*%
X31304000Y283780982D03*
%TD*%
D12*
%TO.P,AUDIO1,1*%
%TO.N,GND*%
X153239000Y226979000D03*
%TO.P,AUDIO1,3*%
%TO.N,$1N52257*%
X153899000Y228122200D03*
%TO.P,AUDIO1,2*%
%TO.N,GND*%
X155219000Y228122200D03*
%TO.P,AUDIO1,4*%
%TO.N,$1N52256*%
X155879000Y226979000D03*
%TO.P,AUDIO1,5*%
X155219000Y225835800D03*
%TO.P,AUDIO1,6*%
%TO.N,$1N52257*%
X153899000Y225835800D03*
%TD*%
D13*
%TO.P,AV1,1*%
%TO.N,GND*%
X154940000Y215078999D03*
%TO.P,AV1,2*%
%TO.N,$1N52277*%
X154940000Y216478999D03*
%TD*%
%TO.P,AV2,1*%
%TO.N,GND*%
X154940000Y201278999D03*
%TO.P,AV2,2*%
%TO.N,$1N52271*%
X154940000Y202678999D03*
%TD*%
D16*
%TO.P,U3,8*%
%TO.N,$4N2032*%
X48044000Y274752000D03*
%TO.P,U3,1*%
%TO.N,GND*%
X47244000Y274752000D03*
%TO.P,U3,7*%
%TO.N,$4N2031*%
X46444000Y274752000D03*
D15*
%TO.P,U3,6*%
%TO.N,N/C*%
X45644000Y275552000D03*
%TO.P,U3,5*%
%TO.N,$4N2034*%
X45644000Y276352000D03*
%TO.P,U3,2*%
%TO.N,PVDD*%
X45644000Y277152000D03*
D16*
%TO.P,U3,3*%
X46444000Y277952000D03*
%TO.P,U3,4*%
%TO.N,$4N2025*%
X47244000Y277952000D03*
%TO.P,U3,9*%
%TO.N,GND*%
X48044000Y277952000D03*
%TD*%
D14*
%TO.P,C79,2*%
%TO.N,PVDD*%
X45586395Y282575000D03*
%TO.P,C79,1*%
%TO.N,GND*%
X46986395Y282575000D03*
%TD*%
D13*
%TO.P,R60,2*%
%TO.N,$4N2025*%
X43053000Y277898605D03*
%TO.P,R60,1*%
%TO.N,GND*%
X43053000Y279298605D03*
%TD*%
D14*
%TO.P,C80,2*%
%TO.N,$4N2032*%
X47052000Y270882364D03*
%TO.P,C80,1*%
%TO.N,$4N2031*%
X48452000Y270882364D03*
%TD*%
%TO.P,L8,1*%
%TO.N,$4N2032*%
X56261000Y271464000D03*
%TO.P,L8,2*%
%TO.N,+12V*%
X56261000Y270064000D03*
%TD*%
%TO.P,R58,2*%
%TO.N,$4N2033*%
X50167705Y270829000D03*
%TO.P,R58,1*%
%TO.N,$4N2032*%
X50167705Y269429000D03*
%TD*%
%TO.P,C81,2*%
%TO.N,+12V*%
X50165000Y267265253D03*
%TO.P,C81,1*%
%TO.N,$4N2033*%
X50165000Y265865253D03*
%TD*%
%TO.P,C82,2*%
%TO.N,$4N2033*%
X45338999Y269113000D03*
%TO.P,C82,1*%
%TO.N,$4N2034*%
X46738999Y269113000D03*
%TD*%
%TO.P,R59,2*%
%TO.N,+12V*%
X46863000Y267273000D03*
%TO.P,R59,1*%
%TO.N,$4N2034*%
X46863000Y265873000D03*
%TD*%
D13*
%TO.P,R62,2*%
%TO.N,$4N2034*%
X45338975Y265873000D03*
%TO.P,R62,1*%
%TO.N,GND*%
X45338975Y267273000D03*
%TD*%
D14*
%TO.P,C83,2*%
%TO.N,+12V*%
X46550604Y263017000D03*
%TO.P,C83,1*%
%TO.N,GND*%
X47950604Y263017000D03*
%TD*%
%TO.P,R65,2*%
%TO.N,+12V_OPA*%
X48895000Y258637000D03*
%TO.P,R65,1*%
%TO.N,+12V*%
X48895000Y257237000D03*
%TD*%
D13*
%TO.P,CA7,1*%
%TO.N,+12V_OPA*%
X44196000Y257237000D03*
%TO.P,CA7,2*%
%TO.N,GND*%
X44196000Y258637000D03*
%TD*%
%TO.P,L9,2*%
%TO.N,+12V*%
X52070000Y257237000D03*
%TO.P,L9,1*%
%TO.N,+12V_PA*%
X52070000Y258637000D03*
%TD*%
%TO.P,CA8,1*%
%TO.N,+12V_PA*%
X56769000Y257237000D03*
%TO.P,CA8,2*%
%TO.N,GND*%
X56769000Y258637000D03*
%TD*%
D14*
%TO.P,R46,2*%
%TO.N,$3N1809*%
X77785976Y251525000D03*
%TO.P,R46,1*%
%TO.N,+12V_PA*%
X77785976Y250125000D03*
%TD*%
%TO.P,R55,2*%
%TO.N,$3N1810*%
X76516000Y229870000D03*
%TO.P,R55,1*%
%TO.N,+12V_PA*%
X77916000Y229870000D03*
%TD*%
D13*
%TO.P,C75,2*%
%TO.N,$3N1810*%
X79440000Y227965000D03*
%TO.P,C75,1*%
%TO.N,GND*%
X78040000Y227965000D03*
%TD*%
%TO.P,C72,2*%
%TO.N,$3N1800*%
X75184000Y225741000D03*
%TO.P,C72,1*%
%TO.N,GND*%
X75184000Y227141000D03*
%TD*%
D14*
%TO.P,C36,2*%
%TO.N,INPUT_D*%
X65721000Y230378000D03*
%TO.P,C36,1*%
%TO.N,$1N52151*%
X67121000Y230378000D03*
%TD*%
%TO.P,C29,2*%
%TO.N,INPUT_C*%
X65721000Y232460823D03*
%TO.P,C29,1*%
%TO.N,$1N52161*%
X67121000Y232460823D03*
%TD*%
%TO.P,C38,2*%
%TO.N,INPUT_B*%
X65721000Y243586000D03*
%TO.P,C38,1*%
%TO.N,$1N52143*%
X67121000Y243586000D03*
%TD*%
%TO.P,C30,2*%
%TO.N,INPUT_A*%
X65721000Y245618000D03*
%TO.P,C30,1*%
%TO.N,$1N52160*%
X67121000Y245618000D03*
%TD*%
%TO.P,C63,2*%
%TO.N,$3N1801*%
X70801000Y238552558D03*
%TO.P,C63,1*%
%TO.N,GND*%
X72201000Y238552558D03*
%TD*%
%TO.P,C64,2*%
%TO.N,$3N1802*%
X70801000Y235966000D03*
%TO.P,C64,1*%
%TO.N,GND*%
X72201000Y235966000D03*
%TD*%
%TO.P,C66,2*%
%TO.N,$3N1803*%
X70801000Y234188000D03*
%TO.P,C66,1*%
%TO.N,GND*%
X72201000Y234188000D03*
%TD*%
%TO.P,R50,2*%
%TO.N,$3N1804*%
X70793253Y241681000D03*
%TO.P,R50,1*%
%TO.N,GND*%
X72193253Y241681000D03*
%TD*%
%TO.P,R51,2*%
%TO.N,$3N1806*%
X70793253Y240157000D03*
%TO.P,R51,1*%
%TO.N,GND*%
X72193253Y240157000D03*
%TD*%
D13*
%TO.P,R54,2*%
%TO.N,$3N1808*%
X71501000Y225733253D03*
%TO.P,R54,1*%
%TO.N,GND*%
X71501000Y227133253D03*
%TD*%
%TO.P,C71,2*%
%TO.N,$3N1808*%
X73279000Y225741000D03*
%TO.P,C71,1*%
%TO.N,GND*%
X73279000Y227141000D03*
%TD*%
%TO.P,R52,2*%
%TO.N,$3N1808*%
X69850000Y225733253D03*
%TO.P,R52,1*%
%TO.N,MUTE*%
X69850000Y227133253D03*
%TD*%
D14*
%TO.P,R47,2*%
%TO.N,$3N1812*%
X73406000Y251525000D03*
%TO.P,R47,1*%
%TO.N,+12V_PA*%
X73406000Y250125000D03*
%TD*%
D13*
%TO.P,C55,2*%
%TO.N,$3N1812*%
X73406000Y246950000D03*
%TO.P,C55,1*%
%TO.N,GND*%
X73406000Y248350000D03*
%TD*%
%TO.P,C51,2*%
%TO.N,$3N1809*%
X79186000Y248031000D03*
%TO.P,C51,1*%
%TO.N,GND*%
X77786000Y248031000D03*
%TD*%
%TO.P,C73,2*%
%TO.N,$3N1816*%
X85469942Y229870000D03*
%TO.P,C73,1*%
%TO.N,$3N1815*%
X84069942Y229870000D03*
%TD*%
%TO.P,C74,2*%
%TO.N,$3N1817*%
X85469942Y227965000D03*
%TO.P,C74,1*%
%TO.N,$3N1814*%
X84069942Y227965000D03*
%TD*%
D12*
%TO.P,L7,1*%
%TO.N,$3N1816*%
X119888000Y232775000D03*
%TO.P,L7,4*%
%TO.N,$3N1817*%
X120888000Y231775000D03*
%TO.P,L7,3*%
%TO.N,$3N1833*%
X119888000Y230775000D03*
%TO.P,L7,2*%
%TO.N,$3N1834*%
X118888000Y231775000D03*
%TD*%
%TO.P,L6,1*%
%TO.N,$3N1820*%
X119888000Y248777000D03*
%TO.P,L6,4*%
%TO.N,$3N1821*%
X120888000Y247777000D03*
%TO.P,L6,3*%
%TO.N,$3N1831*%
X119888000Y246777000D03*
%TO.P,L6,2*%
%TO.N,$3N1832*%
X118888000Y247777000D03*
%TD*%
D13*
%TO.P,C56,2*%
%TO.N,$3N1820*%
X85469942Y250374079D03*
%TO.P,C56,1*%
%TO.N,$3N1819*%
X84069942Y250374079D03*
%TD*%
%TO.P,C57,2*%
%TO.N,$3N1821*%
X85469942Y248469079D03*
%TO.P,C57,1*%
%TO.N,$3N1818*%
X84069942Y248469079D03*
%TD*%
%TO.P,C68,2*%
%TO.N,PVDD*%
X91313000Y233742000D03*
%TO.P,C68,1*%
%TO.N,GND*%
X91313000Y235142000D03*
%TD*%
%TO.P,C58,2*%
%TO.N,GND*%
X93726000Y243775000D03*
%TO.P,C58,1*%
%TO.N,PVDD*%
X93726000Y245175000D03*
%TD*%
%TO.P,C65,2*%
%TO.N,GND*%
X93726000Y237044000D03*
%TO.P,C65,1*%
%TO.N,PVDD*%
X93726000Y238444000D03*
%TD*%
%TO.P,C61,2*%
%TO.N,PVDD*%
X91313000Y240346000D03*
%TO.P,C61,1*%
%TO.N,GND*%
X91313000Y241746000D03*
%TD*%
%TO.P,CA3,2*%
%TO.N,GND*%
X110109000Y271715000D03*
%TO.P,CA3,1*%
%TO.N,PVDD*%
X110109000Y273115000D03*
%TD*%
D14*
%TO.P,CA5,2*%
%TO.N,GND*%
X110109000Y224855000D03*
%TO.P,CA5,1*%
%TO.N,PVDD*%
X110109000Y223455000D03*
%TD*%
D13*
%TO.P,CA4,1*%
%TO.N,PVDD*%
X123952000Y271334000D03*
%TO.P,CA4,2*%
%TO.N,GND*%
X123952000Y272734000D03*
%TD*%
D14*
%TO.P,CA6,1*%
%TO.N,PVDD*%
X125349000Y224855000D03*
%TO.P,CA6,2*%
%TO.N,GND*%
X125349000Y223455000D03*
%TD*%
D13*
%TO.P,C53,2*%
%TO.N,$3N1831*%
X124841000Y259196394D03*
%TO.P,C53,1*%
%TO.N,GND*%
X124841000Y260596394D03*
%TD*%
%TO.P,C59,2*%
%TO.N,GND*%
X124841000Y251981603D03*
%TO.P,C59,1*%
%TO.N,$3N1832*%
X124841000Y253381603D03*
%TD*%
%TO.P,C69,2*%
%TO.N,$3N1833*%
X124841000Y243194394D03*
%TO.P,C69,1*%
%TO.N,GND*%
X124841000Y244594394D03*
%TD*%
%TO.P,C76,2*%
%TO.N,GND*%
X124841000Y235979603D03*
%TO.P,C76,1*%
%TO.N,$3N1834*%
X124841000Y237379603D03*
%TD*%
%TO.P,C54,2*%
%TO.N,$3N1831*%
X128524000Y258496370D03*
%TO.P,C54,1*%
%TO.N,GND*%
X128524000Y259896370D03*
%TD*%
%TO.P,C60,2*%
%TO.N,GND*%
X128524000Y252681627D03*
%TO.P,C60,1*%
%TO.N,$3N1832*%
X128524000Y254081627D03*
%TD*%
%TO.P,C70,2*%
%TO.N,$3N1833*%
X128524000Y242494370D03*
%TO.P,C70,1*%
%TO.N,GND*%
X128524000Y243894370D03*
%TD*%
%TO.P,C77,2*%
%TO.N,GND*%
X128524000Y236679627D03*
%TO.P,C77,1*%
%TO.N,$3N1834*%
X128524000Y238079627D03*
%TD*%
%TO.P,C52,2*%
%TO.N,$3N1831*%
X133542000Y262188998D03*
%TO.P,C52,1*%
%TO.N,$3N1825*%
X132142000Y262188998D03*
%TD*%
D14*
%TO.P,C62,2*%
%TO.N,$3N1826*%
X132142000Y250388999D03*
%TO.P,C62,1*%
%TO.N,$3N1832*%
X133542000Y250388999D03*
%TD*%
D13*
%TO.P,R48,2*%
%TO.N,$3N1825*%
X138749000Y262188998D03*
%TO.P,R48,1*%
%TO.N,GND*%
X137349000Y262188998D03*
%TD*%
D14*
%TO.P,R49,2*%
%TO.N,GND*%
X137349000Y250388999D03*
%TO.P,R49,1*%
%TO.N,$3N1826*%
X138749000Y250388999D03*
%TD*%
D13*
%TO.P,C67,2*%
%TO.N,$3N1833*%
X133542000Y246186998D03*
%TO.P,C67,1*%
%TO.N,$3N1828*%
X132142000Y246186998D03*
%TD*%
D14*
%TO.P,C78,2*%
%TO.N,$3N1829*%
X132142000Y234386999D03*
%TO.P,C78,1*%
%TO.N,$3N1834*%
X133542000Y234386999D03*
%TD*%
D13*
%TO.P,R53,2*%
%TO.N,$3N1828*%
X138749000Y246186998D03*
%TO.P,R53,1*%
%TO.N,GND*%
X137349000Y246186998D03*
%TD*%
D14*
%TO.P,R56,2*%
%TO.N,GND*%
X137349000Y234386999D03*
%TO.P,R56,1*%
%TO.N,$3N1829*%
X138749000Y234386999D03*
%TD*%
%TO.P,CN1,1*%
%TO.N,$3N1832*%
X135763000Y257007478D03*
%TO.P,CN1,2*%
%TO.N,$3N1831*%
X135763000Y255607478D03*
%TD*%
%TO.P,CN2,1*%
%TO.N,$3N1834*%
X135763000Y241005478D03*
%TO.P,CN2,2*%
%TO.N,$3N1833*%
X135763000Y239605478D03*
%TD*%
D12*
%TO.P,DC1,1*%
%TO.N,$4N1363*%
X152781000Y276235896D03*
%TO.P,DC1,2*%
%TO.N,GND*%
X151637800Y276895896D03*
%TO.P,DC1,3*%
X151637800Y278215896D03*
X152781000Y278875896D03*
X153924200Y278215896D03*
X153924200Y276895896D03*
%TD*%
D14*
%TO.P,R57,1*%
%TO.N,$4N1363*%
X144399000Y272579022D03*
%TO.P,R57,2*%
%TO.N,$4N1372*%
X144399000Y271179022D03*
%TD*%
D12*
%TO.P,K2,1*%
%TO.N,$4N1371*%
X135382000Y272716458D03*
%TO.P,K2,2*%
%TO.N,PVDD*%
X134382000Y273716458D03*
%TO.P,K2,3*%
%TO.N,$4N1372*%
X135382000Y274716458D03*
%TO.P,K2,4*%
X136382000Y273716458D03*
%TD*%
D14*
%TO.P,R61,2*%
%TO.N,$4N1371*%
X39894788Y282575000D03*
%TO.P,R61,1*%
%TO.N,$4N1366*%
X41294788Y282575000D03*
%TD*%
D12*
%TO.P,SW1,1*%
%TO.N,GND*%
X36211000Y271411962D03*
%TO.P,SW1,2*%
%TO.N,$4N1366*%
X35631200Y270207962D03*
%TO.P,SW1,3*%
%TO.N,N/C*%
X34328300Y269910562D03*
%TO.P,SW1,6*%
%TO.N,GND*%
X33283500Y270743762D03*
%TO.P,SW1,5*%
%TO.N,$4N1368*%
X33283500Y272080162D03*
%TO.P,SW1,4*%
%TO.N,N/C*%
X34328300Y272913362D03*
%TO.P,SW1,7*%
%TO.N,GND*%
X35631200Y272615962D03*
%TD*%
D14*
%TO.P,R63,2*%
%TO.N,+3V7*%
X115062000Y206931998D03*
%TO.P,R63,1*%
%TO.N,$4N1368*%
X115062000Y205531998D03*
%TD*%
D12*
%TO.P,U5,2*%
%TO.N,GND*%
X107188000Y202549000D03*
%TO.P,U5,1*%
%TO.N,$4N2458*%
X108054000Y201049000D03*
%TO.P,U5,3*%
%TO.N,+5V*%
X106322000Y201049000D03*
%TD*%
D13*
%TO.P,R64,2*%
%TO.N,+12V*%
X99060000Y198563000D03*
%TO.P,R64,1*%
%TO.N,$4N2458*%
X99060000Y199963000D03*
%TD*%
D14*
%TO.P,C84,2*%
%TO.N,$4N2458*%
X101600000Y200090000D03*
%TO.P,C84,1*%
%TO.N,GND*%
X101600000Y198690000D03*
%TD*%
D13*
%TO.P,C85,2*%
%TO.N,GND*%
X112776000Y198055000D03*
%TO.P,C85,1*%
%TO.N,+5V*%
X112776000Y199455000D03*
%TD*%
%TO.P,D2,2*%
%TO.N,$4N1371*%
X136063433Y284353000D03*
%TO.P,D2,1*%
%TO.N,$4N1372*%
X134663433Y284353000D03*
%TD*%
D12*
%TO.P,U4,2*%
%TO.N,GND*%
X119566360Y198009000D03*
%TO.P,U4,3*%
%TO.N,+5V*%
X118520160Y198769100D03*
%TO.P,U4,1*%
X118919760Y199998900D03*
%TO.P,U4,4*%
%TO.N,N/C*%
X120212960Y199998900D03*
%TO.P,U4,5*%
%TO.N,+3V7*%
X120612560Y198769100D03*
%TD*%
D13*
%TO.P,C87,2*%
%TO.N,+3V7*%
X120334000Y202565000D03*
%TO.P,C87,1*%
%TO.N,GND*%
X118934000Y202565000D03*
%TD*%
D14*
%TO.P,C86,2*%
%TO.N,+5V*%
X115062000Y199709000D03*
%TO.P,C86,1*%
%TO.N,GND*%
X115062000Y198309000D03*
%TD*%
D12*
%TO.P,H1,1*%
%TO.N,+3V7*%
X123174000Y215011000D03*
%TO.P,H1,2*%
%TO.N,USBDP*%
X122174000Y214011000D03*
%TO.P,H1,3*%
%TO.N,USBDM*%
X121174000Y215011000D03*
%TO.P,H1,4*%
%TO.N,GND*%
X122174000Y216011000D03*
%TD*%
D14*
%TO.P,D1,2*%
%TO.N,$1N52259*%
X127127000Y199785327D03*
%TO.P,D1,1*%
%TO.N,+5V*%
X127127000Y198385327D03*
%TD*%
D12*
%TO.P,Q1,1*%
%TO.N,$1N52261*%
X124333000Y199628000D03*
%TO.P,Q1,2*%
%TO.N,GND*%
X125199000Y198128000D03*
%TO.P,Q1,3*%
%TO.N,$1N52259*%
X123467000Y198128000D03*
%TD*%
D14*
%TO.P,R15,2*%
%TO.N,$1N52261*%
X123829596Y201422000D03*
%TO.P,R15,1*%
%TO.N,GND*%
X125229596Y201422000D03*
%TD*%
%TO.P,R13,2*%
%TO.N,$1N52261*%
X125282973Y204576643D03*
%TO.P,R13,1*%
%TO.N,LEDR*%
X125282973Y203176643D03*
%TD*%
%TO.P,R14,2*%
%TO.N,$1N52261*%
X127116992Y204576643D03*
%TO.P,R14,1*%
%TO.N,LEDB*%
X127116992Y203176643D03*
%TD*%
D13*
%TO.P,C25,2*%
%TO.N,$1N52202*%
X54483000Y210136002D03*
%TO.P,C25,1*%
%TO.N,$1N52200*%
X54483000Y211536002D03*
%TD*%
%TO.P,C26,2*%
%TO.N,$1N52213*%
X52409471Y210136002D03*
%TO.P,C26,1*%
%TO.N,$1N52201*%
X52409471Y211536002D03*
%TD*%
D14*
%TO.P,C23,2*%
%TO.N,$1N52196*%
X138303000Y209361000D03*
%TO.P,C23,1*%
%TO.N,DACL*%
X138303000Y207961000D03*
%TD*%
%TO.P,C24,2*%
%TO.N,$1N52195*%
X136266225Y209361000D03*
%TO.P,C24,1*%
%TO.N,DACR*%
X136266225Y207961000D03*
%TD*%
%TO.P,C35,2*%
%TO.N,$1N52165*%
X54102000Y222171998D03*
%TO.P,C35,1*%
%TO.N,$1N52161*%
X54102000Y220771998D03*
%TD*%
%TO.P,C11,2*%
%TO.N,$1N52359*%
X52386000Y230886000D03*
%TO.P,C11,1*%
%TO.N,$1N52310*%
X53786000Y230886000D03*
%TD*%
%TO.P,C3,2*%
%TO.N,$1N52365*%
X52640000Y250698000D03*
%TO.P,C3,1*%
%TO.N,$1N52327*%
X54040000Y250698000D03*
%TD*%
%TO.P,C37,2*%
%TO.N,$1N52167*%
X53331796Y242655193D03*
%TO.P,C37,1*%
%TO.N,$1N52160*%
X53331796Y241255193D03*
%TD*%
D13*
%TO.P,C17,2*%
%TO.N,$1N52296*%
X49475366Y227838000D03*
%TO.P,C17,1*%
%TO.N,$1N52202*%
X48075366Y227838000D03*
%TD*%
%TO.P,C19,2*%
%TO.N,$1N52301*%
X37465000Y217359000D03*
%TO.P,C19,1*%
%TO.N,$1N52213*%
X37465000Y218759000D03*
%TD*%
D14*
%TO.P,C7,2*%
%TO.N,$1N52174*%
X41377450Y224282000D03*
%TO.P,C7,1*%
%TO.N,$1N52187*%
X42777450Y224282000D03*
%TD*%
%TO.P,C16,2*%
%TO.N,$1N52175*%
X30796000Y212090000D03*
%TO.P,C16,1*%
%TO.N,$1N52188*%
X32196000Y212090000D03*
%TD*%
D12*
%TO.P,U6,1*%
%TO.N,$1N52160*%
X57041000Y245872000D03*
%TO.P,U6,2*%
%TO.N,$1N52139*%
X57556500Y247116500D03*
%TO.P,U6,3*%
%TO.N,$1N52506*%
X58801000Y247632000D03*
%TO.P,U6,4*%
%TO.N,GND*%
X60045500Y247116500D03*
%TO.P,U6,8*%
%TO.N,+12V_OPA*%
X60561000Y245872000D03*
%TO.P,U6,7*%
%TO.N,$1N52143*%
X60045500Y244627500D03*
%TO.P,U6,6*%
%TO.N,$1N52142*%
X58801000Y244112000D03*
%TO.P,U6,5*%
%TO.N,$1N52506*%
X57556500Y244627500D03*
%TD*%
%TO.P,U7,1*%
%TO.N,$1N52161*%
X57041000Y225933000D03*
%TO.P,U7,2*%
%TO.N,$1N52162*%
X57556500Y227177500D03*
%TO.P,U7,3*%
%TO.N,$1N52506*%
X58801000Y227693000D03*
%TO.P,U7,4*%
%TO.N,GND*%
X60045500Y227177500D03*
%TO.P,U7,8*%
%TO.N,+12V_OPA*%
X60561000Y225933000D03*
%TO.P,U7,7*%
%TO.N,$1N52151*%
X60045500Y224688500D03*
%TO.P,U7,6*%
%TO.N,$1N52150*%
X58801000Y224173000D03*
%TO.P,U7,5*%
%TO.N,$1N52506*%
X57556500Y224688500D03*
%TD*%
%TO.P,U8,1*%
%TO.N,$1N52202*%
X43579000Y218059000D03*
%TO.P,U8,2*%
%TO.N,$1N52173*%
X44094500Y219303500D03*
%TO.P,U8,3*%
%TO.N,+6V_A*%
X45339000Y219819000D03*
%TO.P,U8,4*%
%TO.N,GND*%
X46583500Y219303500D03*
%TO.P,U8,8*%
%TO.N,+12V_OPA*%
X47099000Y218059000D03*
%TO.P,U8,7*%
%TO.N,$1N52213*%
X46583500Y216814500D03*
%TO.P,U8,6*%
%TO.N,$1N52176*%
X45339000Y216299000D03*
%TO.P,U8,5*%
%TO.N,+6V_A*%
X44094500Y216814500D03*
%TD*%
%TO.P,U9,1*%
%TO.N,$1N52327*%
X43579000Y245364000D03*
%TO.P,U9,2*%
%TO.N,$1N52340*%
X44094500Y246608500D03*
%TO.P,U9,3*%
%TO.N,+6V_A*%
X45339000Y247124000D03*
%TO.P,U9,4*%
%TO.N,GND*%
X46583500Y246608500D03*
%TO.P,U9,8*%
%TO.N,+12V_OPA*%
X47099000Y245364000D03*
%TO.P,U9,7*%
%TO.N,$1N52310*%
X46583500Y244119500D03*
%TO.P,U9,6*%
%TO.N,$1N52249*%
X45339000Y243604000D03*
%TO.P,U9,5*%
%TO.N,+6V_A*%
X44094500Y244119500D03*
%TD*%
D14*
%TO.P,R23,2*%
%TO.N,+12V_OPA*%
X47814000Y230140002D03*
%TO.P,R23,1*%
%TO.N,+6V_A*%
X49214000Y230140002D03*
%TD*%
%TO.P,R27,2*%
%TO.N,GND*%
X47814000Y232156000D03*
%TO.P,R27,1*%
%TO.N,+6V_A*%
X49214000Y232156000D03*
%TD*%
%TO.P,R42,2*%
%TO.N,+12V_OPA*%
X58884742Y235003238D03*
%TO.P,R42,1*%
%TO.N,$1N52506*%
X60284742Y235003238D03*
%TD*%
%TO.P,R43,2*%
%TO.N,GND*%
X58884742Y236982000D03*
%TO.P,R43,1*%
%TO.N,$1N52506*%
X60284742Y236982000D03*
%TD*%
%TO.P,C42,2*%
%TO.N,AGND*%
X140208000Y208838217D03*
%TO.P,C42,1*%
%TO.N,$2N1015*%
X140208000Y207438217D03*
%TD*%
%TO.P,C41,2*%
%TO.N,AGND*%
X141986000Y208838217D03*
%TO.P,C41,1*%
%TO.N,$2N1014*%
X141986000Y207438217D03*
%TD*%
%TO.P,C43,2*%
%TO.N,GND*%
X147382000Y214757000D03*
%TO.P,C43,1*%
%TO.N,VDDCORE*%
X148782000Y214757000D03*
%TD*%
%TO.P,C44,2*%
%TO.N,GND*%
X147382000Y216662000D03*
%TO.P,C44,1*%
%TO.N,VDDIO*%
X148782000Y216662000D03*
%TD*%
%TO.P,C45,2*%
%TO.N,GND*%
X147382000Y218485491D03*
%TO.P,C45,1*%
%TO.N,+3V7*%
X148782000Y218485491D03*
%TD*%
D13*
%TO.P,C48,2*%
%TO.N,GND*%
X146050000Y224344000D03*
%TO.P,C48,1*%
%TO.N,VDDBT*%
X146050000Y225744000D03*
%TD*%
%TO.P,C50,2*%
%TO.N,GND*%
X133858000Y224344000D03*
%TO.P,C50,1*%
%TO.N,VDDBT*%
X133858000Y225744000D03*
%TD*%
D14*
%TO.P,C47,2*%
%TO.N,$2N1023*%
X130285006Y214757000D03*
%TO.P,C47,1*%
%TO.N,GND*%
X131685006Y214757000D03*
%TD*%
D13*
%TO.P,C46,2*%
%TO.N,$2N1042*%
X132145000Y221107000D03*
%TO.P,C46,1*%
%TO.N,GND*%
X130745000Y221107000D03*
%TD*%
%TO.P,R66,2*%
%TO.N,GND*%
X144510506Y207758537D03*
%TO.P,R66,1*%
%TO.N,AGND*%
X144510506Y209158537D03*
%TD*%
D17*
%TO.N,$3N1816*%
X84074000Y235204000D03*
X83312000Y235966000D03*
X86741000Y235331000D03*
X87468300Y235331000D03*
X83312000Y235204000D03*
X84074000Y235966000D03*
%TO.N,$3N1821*%
X83312000Y242373100D03*
X84074000Y242373100D03*
X83312000Y243135100D03*
X84074000Y243135100D03*
X86741000Y243008100D03*
X87468300Y243008100D03*
%TO.N,$3N1820*%
X83312000Y240284000D03*
X84074000Y240284000D03*
X83312000Y241046000D03*
X84074000Y241046000D03*
%TO.N,$3N1817*%
X83312000Y237293100D03*
X83312000Y238055100D03*
X84074000Y237293100D03*
X84074000Y238055100D03*
D18*
%TO.N,$3N1820*%
X86769000Y240133500D03*
X87372100Y240133500D03*
X87975100Y240133500D03*
%TO.N,$3N1817*%
X86772700Y238211800D03*
X87375700Y238211800D03*
X87978800Y238211800D03*
D17*
%TO.N,$1N52243*%
X39624000Y251903000D03*
%TO.N,$1N52296*%
X31429200Y242062000D03*
%TO.N,$1N52301*%
X33929100Y242062000D03*
%TO.N,$1N52296*%
X35179000Y224028000D03*
%TO.N,+12V_OPA*%
X51308000Y240284000D03*
X51308000Y215265000D03*
X50673000Y229489000D03*
X63119000Y241806900D03*
X63119000Y221794400D03*
X63119000Y208534000D03*
%TO.N,+6V_A*%
X39370000Y216662000D03*
X39243000Y243713000D03*
%TO.N,$1N52310*%
X40513000Y234442000D03*
%TO.N,$1N52244*%
X37338000Y239347000D03*
%TO.N,$1N52301*%
X37465000Y220853000D03*
X36830000Y226695000D03*
%TO.N,$1N52353*%
X35052000Y241300000D03*
X36576000Y241300000D03*
%TO.N,$1N52301*%
X37465000Y215773000D03*
%TO.N,$1N52506*%
X53340000Y247269000D03*
X53340000Y227330000D03*
%TO.N,+12V_OPA*%
X62484000Y235003200D03*
%TO.N,$1N52160*%
X54864000Y245237000D03*
X58547000Y245237000D03*
%TO.N,$1N52161*%
X54102000Y225298000D03*
X58547000Y225298000D03*
%TO.N,$1N52175*%
X34544000Y212090000D03*
X36957000Y212090000D03*
%TO.N,$1N52257*%
X55372000Y202565000D03*
X53086000Y202565000D03*
%TO.N,+3V7*%
X39116000Y262509000D03*
%TO.N,LEDB*%
X34798000Y264033000D03*
%TO.N,LEDR*%
X33782000Y263271000D03*
%TO.N,LEDB*%
X69596000Y213233000D03*
%TO.N,LEDR*%
X69215000Y212217000D03*
%TO.N,+3V7*%
X68834000Y211201000D03*
%TO.N,+12V_PA*%
X76462600Y228727000D03*
X71755000Y251587000D03*
%TO.N,+12V*%
X52070000Y260858000D03*
X68453000Y210185000D03*
%TO.N,DACL*%
X140208000Y203073000D03*
X140208000Y199898000D03*
%TO.N,GND*%
X116904100Y198755000D03*
X129286000Y201549000D03*
%TO.N,$1N52290*%
X136093100Y190881000D03*
X136093100Y195834000D03*
%TO.N,$1N52189*%
X137541000Y191643000D03*
X136085600Y202519500D03*
%TO.N,GND*%
X142875000Y224328500D03*
X159893000Y220726000D03*
%TO.N,LEDR*%
X122809000Y212217000D03*
X126746000Y212217000D03*
%TO.N,+3V7*%
X147382000Y219710000D03*
X119507000Y205232000D03*
%TO.N,USBDM*%
X138684000Y218059000D03*
%TO.N,VDDCORE*%
X137541000Y218059000D03*
%TO.N,+3V7*%
X118364000Y211455000D03*
%TO.N,GND*%
X120142000Y209804000D03*
X122936000Y209804000D03*
X122936000Y207772000D03*
X120142000Y207772000D03*
X128524000Y209804000D03*
X131191000Y209804000D03*
X131191000Y207772000D03*
X128524000Y207772000D03*
X141605000Y198374000D03*
X143637000Y198374000D03*
X145669000Y198374000D03*
X144018000Y212471000D03*
X146177000Y212471000D03*
X141196100Y215138000D03*
X135255000Y212725000D03*
X133858000Y209931000D03*
X133858000Y207518000D03*
X144145000Y221615000D03*
X146177000Y221615000D03*
X140335000Y230886000D03*
X140335000Y229743000D03*
X139319000Y229743000D03*
X142494000Y227584000D03*
X142494000Y226568000D03*
X141574700Y226568000D03*
X143764000Y234061000D03*
X146558000Y231140000D03*
X145288000Y233045000D03*
X146177000Y227711000D03*
X136144000Y228600000D03*
X136144000Y227076000D03*
X132158000Y225036300D03*
X132207000Y223139000D03*
X134493000Y221996000D03*
X128397000Y215011000D03*
X132969000Y215519000D03*
X116205000Y210947000D03*
X117094000Y207899000D03*
X112141000Y209677000D03*
X112141000Y206756000D03*
X112141000Y203454000D03*
X112141000Y201168000D03*
X115062000Y202946000D03*
X102362000Y209169000D03*
X102362000Y205613000D03*
X102362000Y203200000D03*
X95885000Y208026000D03*
X91186000Y208026000D03*
X84328000Y208153000D03*
X78994000Y208153000D03*
X73787000Y208153000D03*
X68326000Y208280000D03*
X71120000Y202311000D03*
X76962000Y202438000D03*
X82804000Y202311000D03*
X88519000Y202311000D03*
X93980000Y202184000D03*
X91313000Y198755000D03*
X84328000Y198628000D03*
X78867000Y198882000D03*
X73787000Y199009000D03*
X68326000Y198628000D03*
X95885000Y198120000D03*
X107188000Y199771000D03*
X107188000Y198120000D03*
X111252000Y199517000D03*
X71374000Y215392000D03*
X76835000Y215392000D03*
X82550000Y215392000D03*
X88392000Y215392000D03*
X93853000Y215392000D03*
X100711000Y215392000D03*
X107188000Y215392000D03*
X114554000Y215392000D03*
X138176000Y215519000D03*
X141224000Y218313000D03*
X139827000Y216408000D03*
X141224000Y216789000D03*
X138811000Y223266000D03*
X153162000Y228727000D03*
X154178000Y226822000D03*
X149571600Y226979000D03*
X157226000Y227838000D03*
X157226000Y225552000D03*
X160528000Y227838000D03*
X160655000Y226060000D03*
X150749000Y221107000D03*
X154178000Y221361000D03*
X154178000Y218694000D03*
X156464000Y219456000D03*
X150622000Y211582000D03*
X149606000Y209169000D03*
X149606000Y207264000D03*
X151003000Y208153000D03*
X155321000Y212344000D03*
X155321000Y209423000D03*
X155321000Y206375000D03*
X154305000Y204597000D03*
X156972000Y205486000D03*
X156972000Y208280000D03*
X152400000Y204343000D03*
X152400000Y199263000D03*
X154305000Y199263000D03*
X156210000Y198120000D03*
X149733000Y198628000D03*
X149733000Y196088000D03*
X154505900Y196088000D03*
X139192000Y195199000D03*
X144018000Y195199000D03*
X148336000Y195199000D03*
X160147000Y194310000D03*
X157861000Y192024000D03*
X159893000Y190881000D03*
X156718000Y190246000D03*
X150876000Y190119000D03*
X146812000Y190246000D03*
X141986000Y190119000D03*
X133604000Y195199000D03*
X153162000Y231775000D03*
X152273000Y218694000D03*
X29464000Y220472000D03*
X29464000Y218059000D03*
X29464000Y215392000D03*
X32639000Y218059000D03*
X32639000Y215392000D03*
X32639000Y220472000D03*
X29210000Y199390000D03*
X29210000Y194691000D03*
X29210000Y190627000D03*
X33020000Y198882000D03*
X33020000Y195834000D03*
X34417000Y192151000D03*
X37592000Y199390000D03*
X37592000Y196342000D03*
X37592000Y193040000D03*
X37338000Y208661000D03*
X37338000Y203200000D03*
X39793300Y205929000D03*
X45085000Y205867000D03*
X49657000Y205867000D03*
X49657000Y200279000D03*
X45085000Y200279000D03*
X45085000Y193929000D03*
X49657000Y193929000D03*
X43434000Y209296000D03*
X45491900Y217596900D03*
X48260000Y219583000D03*
X47498000Y216789000D03*
X53086000Y215900000D03*
X51054000Y213487000D03*
X50546000Y210566000D03*
X56134000Y199644000D03*
X60198000Y199644000D03*
X62865000Y198120000D03*
X61468000Y195453000D03*
X64643000Y195072000D03*
X57150000Y216408000D03*
X57023000Y213614000D03*
X57023000Y209931000D03*
X60452000Y213614000D03*
X60452000Y211074000D03*
X60452000Y216408000D03*
X37973000Y222504000D03*
X38227000Y225044000D03*
X32639000Y226314000D03*
X34798000Y226187000D03*
X43688000Y227076000D03*
X45466000Y227076000D03*
X39878000Y229489000D03*
X39878000Y231394000D03*
X31623000Y235712000D03*
X27686000Y234061000D03*
X28390200Y230429000D03*
X27686000Y227076000D03*
X27813000Y238379000D03*
X27813000Y240538000D03*
X30861000Y240665000D03*
X27813000Y244856000D03*
X29718000Y244856000D03*
X45974000Y246634000D03*
X48768000Y246761000D03*
X48768000Y244094000D03*
%TO.N,$1N52310*%
X46228000Y244094000D03*
%TO.N,GND*%
X43053000Y243713000D03*
X42164000Y246761000D03*
X39243000Y249428000D03*
X49911000Y239395000D03*
X49911000Y236982000D03*
X45974000Y233045000D03*
X52705000Y224917000D03*
X52451000Y223012000D03*
X54864000Y218821000D03*
X55753000Y221869000D03*
X55753000Y223393000D03*
X59436000Y226568000D03*
X54864000Y232791000D03*
X57277000Y233299000D03*
X61087000Y240030000D03*
X62103000Y238379000D03*
X56642000Y238633000D03*
X57277000Y237998000D03*
X55118000Y242316000D03*
X55499000Y243586000D03*
X52578000Y249047000D03*
X53467000Y248539000D03*
X59563000Y246634000D03*
X62103000Y245999000D03*
X62865000Y254254000D03*
X62865000Y251714000D03*
X59944000Y254254000D03*
X58039000Y254254000D03*
X53975000Y254254000D03*
X50419000Y254254000D03*
X50419000Y252476000D03*
X54864000Y252476000D03*
X28321000Y252730000D03*
X28321200Y251429000D03*
X28067000Y247904000D03*
X35560000Y254635000D03*
X37592000Y213614000D03*
X39497000Y213614000D03*
X56642000Y195707000D03*
X120015000Y258572000D03*
X121793000Y258572000D03*
X121793000Y257175000D03*
X120015000Y257175000D03*
X121793000Y255778000D03*
X120015000Y255778000D03*
X121793000Y254381000D03*
X120015000Y254381000D03*
X120904000Y258572000D03*
X120904000Y257175000D03*
X120904000Y255778000D03*
X120904000Y254381000D03*
X120015000Y242570000D03*
X120904000Y242570000D03*
X121793000Y242570000D03*
X120904000Y241173000D03*
X120015000Y241173000D03*
X121793000Y241173000D03*
X121793000Y239776000D03*
X120904000Y239776000D03*
X120015000Y239776000D03*
X120015000Y238379000D03*
X120904000Y238379000D03*
X121793000Y238379000D03*
X130429000Y257556000D03*
X130429000Y256709300D03*
X130429000Y255862700D03*
X130429000Y255016000D03*
X131191000Y256709300D03*
X131191000Y255862700D03*
X130429000Y241554000D03*
X130429000Y240707300D03*
X130429000Y239860700D03*
X131191000Y240707300D03*
X131191000Y239860700D03*
X130429000Y239014000D03*
X79756000Y245237000D03*
X81280000Y245237000D03*
X81280000Y243954800D03*
X79756000Y243954800D03*
X79756000Y242672600D03*
X79756000Y241390400D03*
X79756000Y240108200D03*
X81280000Y242672600D03*
X81280000Y241390400D03*
X81280000Y240108200D03*
X81280000Y238826000D03*
X79756000Y238826000D03*
X79756000Y237543900D03*
X81280000Y237543900D03*
X81280000Y236261700D03*
X79756000Y236261700D03*
X79756000Y234979500D03*
%TO.N,$3N1816*%
X81280000Y234979500D03*
%TO.N,GND*%
X81280000Y233697300D03*
X79756000Y233697300D03*
X79756000Y232415100D03*
X81280000Y232415100D03*
X69088000Y231394000D03*
X70485000Y231394000D03*
X69088000Y229108000D03*
X70485000Y229108000D03*
X68961000Y222631000D03*
X68961000Y219710000D03*
X65405000Y211455000D03*
X65405000Y208280000D03*
X65405000Y205502900D03*
X73660000Y229743000D03*
X76200000Y232664000D03*
X76200000Y231394000D03*
X79248000Y231013000D03*
X81153000Y231013000D03*
X76454000Y238506000D03*
X68961000Y241554000D03*
X68961000Y239649000D03*
X69088000Y237236000D03*
X69088000Y234569000D03*
X72263000Y261239000D03*
X75819000Y261239000D03*
X79375000Y261239000D03*
X82931000Y261239000D03*
X86487000Y261239000D03*
X90043000Y261239000D03*
X93599000Y261239000D03*
X75819000Y259080000D03*
X79375000Y259080000D03*
X82931000Y259080000D03*
X86487000Y259080000D03*
X90043000Y259080000D03*
X93599000Y259080000D03*
X75819000Y256921000D03*
X79375000Y256921000D03*
X82931000Y256921000D03*
X86487000Y256921000D03*
X90043000Y256921000D03*
X93599000Y256921000D03*
X72263000Y259080000D03*
X72263000Y256921000D03*
X75819000Y254762000D03*
X72263000Y254762000D03*
X86487000Y254762000D03*
X90043000Y254762000D03*
X93599000Y254762000D03*
X86487000Y252603000D03*
X90043000Y252603000D03*
X93599000Y252603000D03*
X69581400Y259080000D03*
X69581400Y256921000D03*
X69596000Y251841000D03*
X69596000Y249936000D03*
X69596000Y247777000D03*
X70104000Y244729000D03*
X73406000Y244348000D03*
%TO.N,$3N1812*%
X73406000Y245426000D03*
%TO.N,GND*%
X74676000Y245491000D03*
%TO.N,$3N1812*%
X74676000Y244348000D03*
X75819000Y244348000D03*
%TO.N,GND*%
X74876600Y249110500D03*
X76284100Y249070000D03*
X76294200Y247318300D03*
X75190500Y247905600D03*
X75522500Y238533000D03*
X79375000Y252603000D03*
X79375000Y250444000D03*
X81534000Y250444000D03*
X84328000Y252603000D03*
X90043000Y250444000D03*
X92202000Y250444000D03*
X90043000Y248285000D03*
X86741000Y247269000D03*
X88392000Y247269000D03*
X71755000Y221234000D03*
X75311000Y221234000D03*
X71755000Y219075000D03*
X78867000Y221234000D03*
X78867000Y219075000D03*
X75311000Y219075000D03*
X85979000Y221234000D03*
X85979000Y219075000D03*
X82423000Y219075000D03*
X82423000Y221234000D03*
X93091000Y221234000D03*
X93091000Y219075000D03*
X89535000Y219075000D03*
X89535000Y221234000D03*
X100203000Y221234000D03*
X100203000Y219075000D03*
X96647000Y219075000D03*
X96647000Y221234000D03*
X78867000Y223393000D03*
X85979000Y223393000D03*
X89535000Y225552000D03*
X89535000Y223393000D03*
X93091000Y225552000D03*
X93091000Y223393000D03*
X85979000Y225552000D03*
X93091000Y227711000D03*
X93091000Y229870000D03*
X89535000Y227711000D03*
X89535000Y229870000D03*
X96647000Y223393000D03*
X100203000Y223393000D03*
X103759000Y221234000D03*
X103759000Y219075000D03*
X107315000Y221234000D03*
X107315000Y219075000D03*
X107315000Y223393000D03*
X103759000Y223393000D03*
X117983000Y223393000D03*
X114427000Y223393000D03*
X114427000Y221234000D03*
X117983000Y221234000D03*
X117983000Y219075000D03*
X114427000Y219075000D03*
X121539000Y223393000D03*
X121539000Y221234000D03*
X121539000Y219075000D03*
X128016000Y231648000D03*
X131826000Y231648000D03*
X135636000Y231648000D03*
X128016000Y228727000D03*
X128016000Y225171000D03*
X131826000Y228727000D03*
X128016000Y222250000D03*
X141351000Y235077000D03*
X142113000Y235966000D03*
X140970000Y236982000D03*
X51308000Y280289000D03*
X56007000Y280670000D03*
X60198000Y279781000D03*
X52832000Y278257000D03*
X40640000Y280924000D03*
X40513000Y278257000D03*
X40513000Y276098000D03*
X36957000Y281178000D03*
X36830000Y278638000D03*
X36830000Y276352000D03*
X112141000Y288036000D03*
X112141000Y285750000D03*
X116840000Y288036000D03*
X121539000Y288036000D03*
X126238000Y288036000D03*
X130937000Y288036000D03*
X116840000Y285750000D03*
X121539000Y285750000D03*
X126238000Y285750000D03*
X130937000Y285750000D03*
X135636000Y288036000D03*
X140335000Y288036000D03*
X145034000Y288036000D03*
X149733000Y288036000D03*
X140335000Y285750000D03*
X145034000Y285750000D03*
X149733000Y285750000D03*
X154432000Y288036000D03*
X159131000Y288036000D03*
X154432000Y285750000D03*
X159131000Y285750000D03*
X112141000Y280797000D03*
X116840000Y280797000D03*
X121539000Y280797000D03*
X126238000Y280797000D03*
X126238000Y278765000D03*
X121539000Y278765000D03*
X116840000Y278765000D03*
X135363400Y280474300D03*
X135363400Y277160600D03*
X135363400Y273846900D03*
X135363400Y270533200D03*
X135363400Y267219500D03*
X145669000Y281305000D03*
X142494000Y281305000D03*
X142494000Y277622000D03*
X142494000Y273939000D03*
X142494000Y270256000D03*
X146177000Y270256000D03*
X149860000Y270256000D03*
X153543000Y270256000D03*
X157226000Y270256000D03*
X139319000Y257302000D03*
X139295000Y256289000D03*
X139319000Y255270000D03*
X140843000Y257302000D03*
X140843000Y256286000D03*
X140843000Y255270000D03*
X139319000Y241300000D03*
X140843000Y241300000D03*
X140843000Y240284000D03*
X139295000Y240287000D03*
X140843000Y239268000D03*
X139319000Y239268000D03*
X28702000Y264795000D03*
X28702000Y261620000D03*
X28702000Y258572000D03*
X31877000Y258572000D03*
X35433000Y258572000D03*
X38989000Y258699000D03*
X35433000Y260858000D03*
X31877000Y260731000D03*
X31496000Y263779000D03*
X37846000Y260604000D03*
X28702000Y267970000D03*
X28702000Y271145000D03*
X28702000Y274320000D03*
X28702000Y277495000D03*
X31496000Y277495000D03*
X31496000Y280162000D03*
X28448000Y287401000D03*
X35433000Y287528000D03*
X45085000Y287655000D03*
X57023000Y287655000D03*
X68961000Y287655000D03*
X80899000Y287655000D03*
X92837000Y287655000D03*
X104775000Y287655000D03*
X65405000Y277876000D03*
X76962000Y277876000D03*
X88519000Y277876000D03*
X100076000Y277876000D03*
X65405000Y270510000D03*
X77089000Y270510000D03*
X88646000Y270510000D03*
X67945000Y263906000D03*
X82296000Y265303000D03*
X58928000Y258318000D03*
X60452000Y259969000D03*
X62484000Y259461000D03*
X63881000Y257937000D03*
X50419000Y257937000D03*
X53848000Y260350000D03*
X47244000Y260604000D03*
X41529000Y261239000D03*
X40767000Y256540000D03*
X46355000Y258318000D03*
X86865600Y239174000D03*
X87689500Y239174000D03*
X88513400Y239174000D03*
%TD*%
%TO.N,$3N1825*%
D19*
X116503000Y262189000D02*
X124841000Y262189000D01*
X124841000Y262189000D02*
X127124000Y262189000D01*
X127124000Y262189000D02*
X128524000Y260789000D01*
X128524000Y260789000D02*
X129849400Y260789000D01*
X129849400Y260789000D02*
X131249400Y262189000D01*
X131249400Y262189000D02*
X135150900Y258287500D01*
X135150900Y258287500D02*
X135763000Y258287500D01*
%TO.N,$3N1826*%
X116503000Y250389000D02*
X124841000Y250389000D01*
X128524000Y251789000D02*
X129849400Y251789000D01*
X129849400Y251789000D02*
X131249400Y250389000D01*
X124841000Y250389000D02*
X127124000Y250389000D01*
X127124000Y250389000D02*
X128524000Y251789000D01*
X131249400Y250389000D02*
X135187800Y254327400D01*
X135187800Y254327400D02*
X135763000Y254327400D01*
%TO.N,$3N1828*%
X116503000Y246187000D02*
X124841000Y246187000D01*
X124841000Y246187000D02*
X127124000Y246187000D01*
X127124000Y246187000D02*
X128524000Y244787000D01*
X128524000Y244787000D02*
X129849400Y244787000D01*
X129849400Y244787000D02*
X131249400Y246187000D01*
X131249400Y246187000D02*
X135150900Y242285500D01*
X135150900Y242285500D02*
X135763000Y242285500D01*
%TO.N,$3N1829*%
X116503000Y234387000D02*
X124841000Y234387000D01*
X124841000Y234387000D02*
X127124000Y234387000D01*
X127124000Y234387000D02*
X128524000Y235787000D01*
X128524000Y235787000D02*
X130608000Y235787000D01*
X135187800Y238325400D02*
X135763000Y238325400D01*
X131249400Y234387000D02*
X131628700Y234766300D01*
X131628700Y234766300D02*
X135187800Y238325400D01*
X130608000Y235787000D02*
X131628700Y234766300D01*
X131628700Y234766300D02*
X131953000Y234442000D01*
%TO.N,$3N1828*%
X134434600Y246187000D02*
X136570200Y246187000D01*
%TO.N,$3N1826*%
X134434600Y250389000D02*
X136570200Y250389000D01*
%TO.N,$3N1829*%
X134434600Y234387000D02*
X136570200Y234387000D01*
%TO.N,$3N1825*%
X134434600Y262189000D02*
X136570200Y262189000D01*
%TO.N,$4N1372*%
X143399000Y267979100D02*
X141516300Y266096400D01*
X141516300Y266096400D02*
X139182100Y266096400D01*
%TO.N,PVDD*%
X91127600Y242824000D02*
X91313000Y242638600D01*
%TO.N,GND*%
X85470000Y239487000D02*
X91279400Y239487000D01*
X91279400Y239487000D02*
X91313000Y239453400D01*
X85470000Y238852000D02*
X90711600Y238852000D01*
X90711600Y238852000D02*
X91313000Y239453400D01*
%TO.N,PVDD*%
X85470000Y237582000D02*
X89765500Y237582000D01*
X89765500Y237582000D02*
X91313000Y236034600D01*
X85470000Y236947000D02*
X88935000Y236947000D01*
X89847400Y236034600D02*
X91313000Y236034600D01*
X88935000Y236947000D02*
X89847400Y236034600D01*
X90990400Y235712000D02*
X91313000Y236034600D01*
%TO.N,GND*%
X91313000Y239453400D02*
X94752200Y239453400D01*
X94752200Y239453400D02*
X94869000Y239336600D01*
%TO.N,PVDD*%
X91313000Y236034600D02*
X94752200Y236034600D01*
X94752200Y236034600D02*
X94869000Y236151400D01*
X85470000Y236312000D02*
X88681000Y236312000D01*
X88681000Y236312000D02*
X89281000Y235712000D01*
X89281000Y235712000D02*
X90990400Y235712000D01*
%TO.N,$3N1819*%
X85470000Y242027000D02*
X88738000Y242027000D01*
%TO.N,GND*%
X85470000Y240757000D02*
X85514000Y240801000D01*
X88401000Y240801000D02*
X85514000Y240801000D01*
X88484000Y241392000D02*
X85470000Y241392000D01*
%TO.N,$3N1816*%
X85470000Y229870000D02*
X85470000Y232502000D01*
%TO.N,$3N1817*%
X85470000Y227965000D02*
X84784600Y228650400D01*
X84784600Y228650400D02*
X84784600Y230864400D01*
X84784600Y230864400D02*
X84074000Y231575000D01*
X84547000Y233137000D02*
X85470000Y233137000D01*
X84074000Y231575000D02*
X84074000Y232664000D01*
X84074000Y232664000D02*
X84547000Y233137000D01*
%TO.N,$3N1820*%
X84547000Y245202000D02*
X85470000Y245202000D01*
X84074000Y245675100D02*
X84547000Y245202000D01*
X84074000Y246764000D02*
X84074000Y245675100D01*
X84784600Y247474700D02*
X84074000Y246764000D01*
X84784600Y249688700D02*
X84784600Y247474700D01*
X85470000Y250374100D02*
X84784600Y249688700D01*
%TO.N,$3N1821*%
X85470000Y248469100D02*
X85470000Y245837000D01*
%TO.N,$3N1812*%
X77870000Y243932000D02*
X76423900Y243932000D01*
X77870000Y244567000D02*
X75788900Y244567000D01*
X76423900Y243932000D02*
X75788900Y244567000D01*
X74264900Y244567000D02*
X73406000Y245426000D01*
%TO.N,INPUT_B*%
X68345000Y242662000D02*
X67421000Y243586000D01*
X68345000Y242662000D02*
X77870000Y242662000D01*
%TO.N,$1N52160*%
X69742000Y243297000D02*
X67421000Y245618000D01*
X69742000Y243297000D02*
X77870000Y243297000D01*
%TO.N,$3N1808*%
X73233400Y227186600D02*
X73279000Y227141000D01*
X69850000Y227186600D02*
X71501000Y227186600D01*
X71501000Y227186600D02*
X73233400Y227186600D01*
X75657000Y235042000D02*
X77870000Y235042000D01*
%TO.N,GND*%
X75184000Y227141000D02*
X75184000Y233172000D01*
X75184000Y233172000D02*
X75784000Y233772000D01*
X75784000Y233772000D02*
X77870000Y233772000D01*
%TO.N,$3N1810*%
X77870000Y232502000D02*
X77870000Y228134900D01*
X77870000Y228134900D02*
X78040000Y227965000D01*
%TO.N,GND*%
X77870000Y242027000D02*
X72592700Y242027000D01*
X72592700Y242027000D02*
X72246600Y241681000D01*
%TO.N,$3N1806*%
X77870000Y241392000D02*
X73481700Y241392000D01*
X73481700Y241392000D02*
X72246600Y240157000D01*
%TO.N,$3N1801*%
X77870000Y239487000D02*
X73135500Y239487000D01*
X73135500Y239487000D02*
X72201000Y238552600D01*
%TO.N,GND*%
X77870000Y237582000D02*
X73817100Y237582000D01*
X73817100Y237582000D02*
X72201000Y235966000D01*
%TO.N,$3N1803*%
X77870000Y236947000D02*
X74960100Y236947000D01*
X74960100Y236947000D02*
X72201000Y234188000D01*
%TO.N,INPUT_D*%
X75403000Y235677000D02*
X77870000Y235677000D01*
%TO.N,$1N52161*%
X73406000Y234569000D02*
X75149000Y236312000D01*
X75149000Y236312000D02*
X77870000Y236312000D01*
X67421000Y232460800D02*
X72948800Y232460800D01*
X72948800Y232460800D02*
X73406000Y232918000D01*
X73406000Y232918000D02*
X73406000Y234569000D01*
%TO.N,$3N1808*%
X73279000Y227141000D02*
X74549000Y228411000D01*
X74549000Y228411000D02*
X74549000Y233934000D01*
X74549000Y233934000D02*
X75657000Y235042000D01*
%TO.N,INPUT_D*%
X73914000Y234188000D02*
X75403000Y235677000D01*
%TO.N,$4N1372*%
D20*
X139182100Y266096400D02*
X139182100Y281336400D01*
X139182100Y281336400D02*
X139182100Y283473900D01*
X139182100Y283473900D02*
X138303000Y284353000D01*
X138303000Y284353000D02*
X137055800Y284353000D01*
%TO.N,$4N1371*%
X133671000Y284353000D02*
X132207000Y284353000D01*
X132207000Y284353000D02*
X131581900Y283727900D01*
X131581900Y283727900D02*
X131581900Y281336400D01*
X42073600Y282575000D02*
X43851600Y284353000D01*
X132207000Y284353000D02*
X43851600Y284353000D01*
%TO.N,$4N1366*%
X39116000Y272809000D02*
X39116000Y282575000D01*
%TO.N,$2N1052*%
D19*
X31250600Y283781000D02*
X28376900Y283781000D01*
%TO.N,$2N1051*%
X31250600Y282194000D02*
X30738700Y282706000D01*
X30738700Y282706000D02*
X28601900Y282706000D01*
%TO.N,LEDR*%
X32766000Y282194000D02*
X32757400Y282194000D01*
%TO.N,$1N52202*%
X49149000Y221869000D02*
X49775400Y222495400D01*
X49775400Y222495400D02*
X49775400Y224282000D01*
X49775400Y224282000D02*
X49775400Y225933000D01*
X49775400Y225933000D02*
X49775400Y227838000D01*
%TO.N,$1N52173*%
D21*
X46609000Y221869000D02*
X46609000Y224282000D01*
D19*
X46609000Y224282000D02*
X48268600Y224282000D01*
X48268600Y224282000D02*
X48268600Y225826300D01*
D21*
X48268600Y225826300D02*
X48375300Y225933000D01*
%TO.N,$1N52176*%
D19*
X44069000Y214249000D02*
X44069000Y211836000D01*
D21*
X44069000Y211836000D02*
X45728600Y211836000D01*
D19*
X45728600Y211836000D02*
X45728600Y210119100D01*
D21*
X45728600Y210119100D02*
X45789700Y210058000D01*
%TO.N,$1N52213*%
X46609000Y214249000D02*
X47189800Y213668200D01*
D19*
X47189800Y213668200D02*
X47189800Y210058000D01*
X52409500Y211836000D02*
X47235400Y211836000D01*
%TO.N,$1N52201*%
X52409500Y207763400D02*
X52409500Y209836000D01*
%TO.N,$1N52200*%
X54483000Y207754700D02*
X54483000Y209836000D01*
X54483000Y206248000D02*
X56549900Y206248000D01*
%TO.N,$1N52174*%
X45102300Y224282000D02*
X43077400Y224282000D01*
%TO.N,$1N52175*%
D21*
X42435300Y211963000D02*
X42562300Y211836000D01*
%TO.N,$1N52187*%
D19*
X34345100Y205929000D02*
X35814000Y207397900D01*
%TO.N,$1N52245*%
X32520600Y224025300D02*
X30547700Y224025300D01*
D21*
X30547700Y224025300D02*
X30545000Y224028000D01*
%TO.N,$1N52353*%
D19*
X29145000Y224028000D02*
X29145000Y228184900D01*
X29145000Y228184900D02*
X31389100Y230429000D01*
X31389100Y230429000D02*
X29160500Y232657600D01*
X29160500Y232657600D02*
X29160500Y236855000D01*
%TO.N,$1N52246*%
D21*
X30560500Y236855000D02*
X32520600Y236855000D01*
D19*
X31389100Y232929100D02*
X30560500Y233757600D01*
X30560500Y233757600D02*
X30560500Y236855000D01*
%TO.N,$1N52245*%
X30545000Y224028000D02*
X30545000Y227085000D01*
X30545000Y227085000D02*
X31389100Y227929100D01*
%TO.N,$1N52310*%
X46609000Y234467200D02*
X46609000Y235966000D01*
X46609000Y235966000D02*
X46609000Y237613500D01*
X46609000Y237613500D02*
X46609000Y239349700D01*
X46609000Y239349700D02*
X46609000Y241554000D01*
%TO.N,$1N52249*%
X45209000Y237613500D02*
X45209000Y239031400D01*
D21*
X45209000Y239031400D02*
X44890700Y239349700D01*
X45102300Y239349700D02*
X44890700Y239349700D01*
D19*
X44890700Y239349700D02*
X43298400Y239349700D01*
X43298400Y237617000D02*
X43298400Y239349700D01*
%TO.N,$1N52244*%
D21*
X41791600Y239349700D02*
X41788900Y239347000D01*
D19*
X41788900Y239347000D02*
X39943000Y239347000D01*
%TO.N,$1N52249*%
X43298400Y239349700D02*
X44069000Y240120300D01*
X44069000Y240120300D02*
X44069000Y241554000D01*
%TO.N,$1N52296*%
D21*
X31429200Y244720400D02*
X31429200Y248929100D01*
%TO.N,$1N52301*%
X33929100Y244720400D02*
X33929100Y248929100D01*
%TO.N,$1N52161*%
X60706000Y228705400D02*
X60706000Y230886000D01*
X60706000Y232537000D02*
X60706000Y230886000D01*
%TO.N,+12V_OPA*%
X60706000Y223160600D02*
X63119000Y223160600D01*
%TO.N,$1N52151*%
D19*
X59436000Y223160600D02*
X59436000Y221742000D01*
X59436000Y221742000D02*
X60706000Y220472000D01*
%TO.N,$1N52150*%
X59306000Y218440000D02*
X59306000Y220365300D01*
D21*
X59306000Y220365300D02*
X59199300Y220472000D01*
%TO.N,$1N52151*%
D19*
X60706000Y218440000D02*
X60706000Y220472000D01*
%TO.N,$1N52150*%
X59199300Y220472000D02*
X57632100Y220472000D01*
X58166000Y223160600D02*
X58166000Y221005900D01*
X58166000Y221005900D02*
X57632100Y220472000D01*
%TO.N,$1N52165*%
X56125400Y220472000D02*
X54102000Y220472000D01*
%TO.N,$1N52162*%
D21*
X59436000Y228705400D02*
X59436000Y230649300D01*
X59436000Y230649300D02*
X59199300Y230886000D01*
X59199300Y230886000D02*
X59199300Y232430300D01*
X59199300Y232430300D02*
X59306000Y232537000D01*
X59199300Y230886000D02*
X57395400Y230886000D01*
%TO.N,$1N52359*%
X55888600Y230886000D02*
X54086000Y230886000D01*
%TO.N,$1N52247*%
D19*
X33888900Y227929100D02*
X37857300Y227929100D01*
X37857300Y227929100D02*
X39632600Y227929100D01*
%TO.N,$1N52296*%
D21*
X47775400Y227750600D02*
X47775400Y227838000D01*
%TO.N,+12V_PA*%
D22*
X73406000Y251578400D02*
X77786000Y251578400D01*
%TO.N,$1N52340*%
D19*
X46609000Y249174000D02*
X46609000Y251333000D01*
X46609000Y251333000D02*
X46609000Y253365000D01*
X46609000Y251333000D02*
X44568400Y251333000D01*
X44568400Y251333000D02*
X44568400Y253365000D01*
%TO.N,$1N52327*%
D21*
X48009000Y253365000D02*
X48115700Y253258300D01*
D19*
X48115700Y253258300D02*
X48115700Y251333000D01*
X48115700Y251333000D02*
X49149000Y250299700D01*
X49149000Y250299700D02*
X49149000Y249174000D01*
X49149000Y249174000D02*
X50816000Y249174000D01*
X50816000Y249174000D02*
X52340000Y250698000D01*
%TO.N,$1N52365*%
X54340000Y250698000D02*
X56219500Y250698000D01*
D21*
X56219500Y250698000D02*
X56224200Y250702700D01*
%TO.N,$1N52139*%
X59312900Y250702700D02*
X59317600Y250698000D01*
D19*
X59436000Y248644400D02*
X59436000Y250305800D01*
D21*
X59436000Y250305800D02*
X59039100Y250702700D01*
D19*
X57730900Y250702700D02*
X59039100Y250702700D01*
D21*
X59039100Y250702700D02*
X59312900Y250702700D01*
D19*
X59317600Y250698000D02*
X59317600Y252457400D01*
D21*
X59317600Y252457400D02*
X59252500Y252522600D01*
%TO.N,$1N52160*%
D19*
X60706000Y248644400D02*
X60706000Y250579600D01*
D21*
X60706000Y250579600D02*
X60824400Y250698000D01*
D19*
X60824400Y250698000D02*
X60824400Y252350700D01*
D21*
X60824400Y252350700D02*
X60652500Y252522600D01*
%TO.N,$1N52167*%
D19*
X53331800Y240955200D02*
X55090400Y240955200D01*
D21*
X55090400Y240955200D02*
X55126600Y240919000D01*
%TO.N,$1N52142*%
X58166000Y239457000D02*
X58355000Y239268000D01*
D19*
X58166000Y243099600D02*
X58166000Y240919000D01*
D21*
X58166000Y240919000D02*
X58166000Y239457000D01*
D19*
X56633400Y240919000D02*
X58166000Y240919000D01*
D21*
X58166000Y240919000D02*
X58174600Y240919000D01*
%TO.N,$1N52143*%
D19*
X59436000Y243099600D02*
X59436000Y241164400D01*
D21*
X59436000Y241164400D02*
X59681400Y240919000D01*
X59681400Y240919000D02*
X59681400Y239341700D01*
X59681400Y239341700D02*
X59755000Y239268000D01*
D19*
X59681400Y240919000D02*
X64262000Y240919000D01*
D21*
X65421000Y242078000D02*
X65421000Y243586000D01*
X64262000Y240919000D02*
X65421000Y242078000D01*
%TO.N,+12V_OPA*%
D22*
X63119000Y243140000D02*
X60746400Y243140000D01*
X60746400Y243140000D02*
X60706000Y243099600D01*
%TO.N,$1N52160*%
D19*
X60706000Y248644400D02*
X64283600Y248644400D01*
X65421000Y247507000D02*
X65421000Y245618000D01*
X64283600Y248644400D02*
X65421000Y247507000D01*
%TO.N,$1N52161*%
X60706000Y232537000D02*
X65344800Y232537000D01*
D21*
X65344800Y232537000D02*
X65421000Y232460800D01*
%TO.N,$1N52506*%
D22*
X58584700Y235003200D02*
X58584700Y236982000D01*
%TO.N,$1N52310*%
D19*
X46609000Y234467200D02*
X50647800Y234467200D01*
X50647800Y234467200D02*
X52086000Y233029000D01*
X52086000Y233029000D02*
X52086000Y230886000D01*
%TO.N,+12V_OPA*%
D22*
X49149000Y241554000D02*
X51308000Y241554000D01*
%TO.N,$1N52327*%
D19*
X48009000Y253365000D02*
X48009000Y254251000D01*
X48009000Y254251000D02*
X47498000Y254762000D01*
%TO.N,$1N52243*%
X43061600Y253365000D02*
X41083000Y253365000D01*
X41083000Y253365000D02*
X41021000Y253303000D01*
%TO.N,$1N52327*%
X33133800Y255633700D02*
X37583400Y255633700D01*
X33133800Y255633700D02*
X31429200Y253929100D01*
X47498000Y254762000D02*
X38218400Y254762000D01*
X38218400Y254762000D02*
X37583400Y254127000D01*
%TO.N,$1N52310*%
X45077100Y234442000D02*
X45102300Y234467200D01*
%TO.N,$1N52327*%
X34027400Y236973400D02*
X34027400Y236855000D01*
%TO.N,$1N52243*%
X39624000Y251903000D02*
X41021000Y251903000D01*
%TO.N,$1N52296*%
X31429200Y243213600D02*
X31429200Y242062000D01*
%TO.N,$1N52301*%
X33929100Y243213600D02*
X33929100Y242062000D01*
%TO.N,$1N52296*%
X35179000Y224028000D02*
X34030100Y224028000D01*
D21*
X34027400Y224025300D02*
X34030100Y224028000D01*
%TO.N,+12V_OPA*%
D22*
X51308000Y240284000D02*
X51308000Y241554000D01*
X51308000Y215265000D02*
X51308000Y216535000D01*
X49149000Y214249000D02*
X49149000Y215773000D01*
X49149000Y215773000D02*
X49911000Y216535000D01*
X49911000Y216535000D02*
X51308000Y216535000D01*
X50165000Y229489000D02*
X49514000Y230140000D01*
X50673000Y229489000D02*
X50165000Y229489000D01*
X63119000Y241806900D02*
X63119000Y243140000D01*
X63119000Y221794400D02*
X63119000Y223160600D01*
X62611000Y207001400D02*
X63119000Y207509400D01*
X63119000Y207509400D02*
X63119000Y208534000D01*
%TO.N,$1N52281*%
D19*
X62611000Y205494600D02*
X60706000Y205494600D01*
D21*
X60706000Y205494600D02*
X60509400Y205298000D01*
D19*
X60509400Y205298000D02*
X59020100Y205298000D01*
X60706000Y202565000D02*
X60706000Y205494600D01*
%TO.N,$1N52222*%
X63176200Y201615000D02*
X64700400Y201615000D01*
D21*
X64700400Y201615000D02*
X64897000Y201811600D01*
%TO.N,+6V_A*%
D22*
X43434000Y230140000D02*
X47514000Y230140000D01*
X47514000Y230140000D02*
X47514000Y232156000D01*
%TO.N,$1N52310*%
D19*
X45077100Y234442000D02*
X40513000Y234442000D01*
%TO.N,$1N52327*%
X37583400Y254127000D02*
X35814000Y252357600D01*
X35814000Y252357600D02*
X35814000Y238760000D01*
X35814000Y238760000D02*
X34027400Y236973400D01*
%TO.N,$1N52244*%
X37338000Y239347000D02*
X38543000Y239347000D01*
%TO.N,$1N52301*%
X37465000Y220853000D02*
X37465000Y219059000D01*
X41139400Y227929100D02*
X39905300Y226695000D01*
X39905300Y226695000D02*
X36830000Y226695000D01*
%TO.N,$1N52296*%
X34030100Y224028000D02*
X35808100Y225806000D01*
X35808100Y225806000D02*
X45830800Y225806000D01*
X45830800Y225806000D02*
X47775400Y227750600D01*
%TO.N,$1N52187*%
X35814000Y207397900D02*
X35814000Y223012000D01*
X35814000Y223012000D02*
X37084000Y224282000D01*
X37084000Y224282000D02*
X41077500Y224282000D01*
%TO.N,$1N52250*%
X32639000Y231678900D02*
X33888900Y230429000D01*
X32639000Y234061000D02*
X32639000Y231678900D01*
X33655000Y235077000D02*
X32639000Y234061000D01*
X41791600Y237617000D02*
X40386000Y237617000D01*
X40386000Y237617000D02*
X37846000Y235077000D01*
X37846000Y235077000D02*
X33655000Y235077000D01*
X33888900Y230429000D02*
X36757500Y230429000D01*
X36757500Y230429000D02*
X37857300Y229329100D01*
X37857300Y229329100D02*
X37857300Y231529000D01*
%TO.N,$1N52248*%
X33888900Y232929100D02*
X37857300Y232929100D01*
X37857300Y232929100D02*
X40894300Y235966000D01*
X40894300Y235966000D02*
X45102300Y235966000D01*
%TO.N,$1N52353*%
X36576000Y241300000D02*
X36576000Y249174000D01*
X36576000Y249174000D02*
X38100000Y250698000D01*
X38100000Y250698000D02*
X42426600Y250698000D01*
X42426600Y250698000D02*
X43061600Y251333000D01*
X35052000Y241300000D02*
X35052000Y239903000D01*
X35052000Y239903000D02*
X34163000Y239014000D01*
X34163000Y239014000D02*
X30099000Y239014000D01*
X30099000Y239014000D02*
X29160500Y238075500D01*
X29160500Y238075500D02*
X29160500Y236855000D01*
%TO.N,$1N52301*%
X37465000Y217059000D02*
X37465000Y215773000D01*
%TO.N,+6V_A*%
D22*
X39370000Y216662000D02*
X39370000Y217859200D01*
X43122800Y217859200D02*
X44069000Y218805400D01*
X44069000Y218805400D02*
X44069000Y221869000D01*
X41529000Y214249000D02*
X41529000Y217801000D01*
X41529000Y217801000D02*
X41587200Y217859200D01*
X39370000Y217859200D02*
X41587200Y217859200D01*
X41587200Y217859200D02*
X43122800Y217859200D01*
%TO.N,$1N52281*%
D19*
X60706000Y202565000D02*
X60706000Y201939300D01*
X60706000Y201939300D02*
X60381700Y201615000D01*
X60381700Y201615000D02*
X59020100Y201615000D01*
%TO.N,$1N52202*%
X52451000Y221234000D02*
X51816000Y221869000D01*
X51816000Y221869000D02*
X49149000Y221869000D01*
X54483000Y211836000D02*
X54483000Y217297000D01*
X54483000Y217297000D02*
X52451000Y219329000D01*
X52451000Y219329000D02*
X52451000Y221234000D01*
%TO.N,$1N52506*%
D22*
X58584700Y235003200D02*
X54864000Y235003200D01*
X53340000Y227330000D02*
X53364600Y227305400D01*
X53364600Y227305400D02*
X54991000Y227305400D01*
X58166000Y227076000D02*
X58166000Y228705400D01*
X54991000Y227305400D02*
X55855400Y226441000D01*
X57531000Y226441000D02*
X58166000Y227076000D01*
X56896000Y226329300D02*
X57007700Y226441000D01*
X55855400Y226441000D02*
X57007700Y226441000D01*
X57007700Y226441000D02*
X57531000Y226441000D01*
X56896000Y226329300D02*
X56896000Y223160600D01*
X56896000Y246268300D02*
X56896000Y243099600D01*
X57531000Y246380000D02*
X58166000Y247015000D01*
X54991000Y247244400D02*
X55855400Y246380000D01*
X58166000Y247015000D02*
X58166000Y248644400D01*
X55855400Y246380000D02*
X57531000Y246380000D01*
X53340000Y247142000D02*
X53467000Y247269000D01*
X53467000Y247269000D02*
X54966400Y247269000D01*
X54966400Y247269000D02*
X54991000Y247244400D01*
%TO.N,+12V_OPA*%
X60584700Y235003200D02*
X62484000Y235003200D01*
%TO.N,$1N52160*%
D19*
X53331800Y242955200D02*
X54864000Y244487400D01*
X54864000Y244487400D02*
X54864000Y245237000D01*
X58547000Y245237000D02*
X59817000Y245237000D01*
X60706000Y246126000D02*
X60706000Y248644400D01*
X59817000Y245237000D02*
X60706000Y246126000D01*
%TO.N,$1N52161*%
X58547000Y225298000D02*
X59817000Y225298000D01*
X59817000Y225298000D02*
X60706000Y226187000D01*
X60706000Y226187000D02*
X60706000Y228705400D01*
X54102000Y222472000D02*
X54102000Y225298000D01*
%TO.N,$1N52175*%
X32496000Y212090000D02*
X34544000Y212090000D01*
X36957000Y212090000D02*
X42308300Y212090000D01*
X42308300Y212090000D02*
X42435300Y211963000D01*
%TO.N,$1N52257*%
X56549900Y202565000D02*
X55372000Y202565000D01*
X53086000Y202565000D02*
X52439500Y202565000D01*
X52439500Y202565000D02*
X52409500Y202534900D01*
X52409500Y206256600D02*
X52409500Y202534900D01*
%TO.N,$1N52151*%
X60706000Y220472000D02*
X64643000Y220472000D01*
X64643000Y220472000D02*
X65421000Y221250000D01*
X65421000Y221250000D02*
X65421000Y230378000D01*
%TO.N,$1N52175*%
X31845000Y205929000D02*
X30496000Y207278000D01*
X30496000Y207278000D02*
X30496000Y212090000D01*
%TO.N,GND*%
D21*
X43053000Y279352000D02*
X45339000Y279352000D01*
%TO.N,INPUT_D*%
D19*
X67421000Y230378000D02*
X72898000Y230378000D01*
X72898000Y230378000D02*
X73914000Y231394000D01*
X73914000Y231394000D02*
X73914000Y234188000D01*
%TO.N,+6V_A*%
D22*
X41529000Y241554000D02*
X41529000Y245106000D01*
X43122800Y245164200D02*
X44069000Y246110400D01*
X44069000Y246110400D02*
X44069000Y249174000D01*
X43122800Y245164200D02*
X39370000Y245164200D01*
D21*
X39370000Y245164200D02*
X39243000Y245037200D01*
D22*
X39243000Y243713000D02*
X39243000Y245037200D01*
%TO.N,+12V*%
X50119400Y265819600D02*
X50165000Y265865200D01*
X48768000Y263017000D02*
X48768000Y265788000D01*
X48768000Y265788000D02*
X48736300Y265819600D01*
X46863000Y265819600D02*
X48736300Y265819600D01*
X48736300Y265819600D02*
X50119400Y265819600D01*
%TO.N,$4N2032*%
X53672000Y273352000D02*
X56261000Y275941000D01*
X50167700Y270882400D02*
X50167700Y273228400D01*
X50167700Y273228400D02*
X50291300Y273352000D01*
X49149000Y273352000D02*
X50291300Y273352000D01*
X50291300Y273352000D02*
X53672000Y273352000D01*
X48452000Y270882400D02*
X50167700Y270882400D01*
D21*
X47879000Y273352000D02*
X47879000Y271709400D01*
X47879000Y271709400D02*
X47052000Y270882400D01*
%TO.N,$4N2034*%
X45339000Y273352000D02*
X45339000Y269113000D01*
X45339000Y269113000D02*
X45339000Y267326400D01*
X45339000Y267326400D02*
X46863000Y267326400D01*
%TO.N,$4N2033*%
X50167700Y269375600D02*
X50167700Y267268000D01*
X50167700Y267268000D02*
X50165000Y267265300D01*
X46739000Y269113000D02*
X49905100Y269113000D01*
X49905100Y269113000D02*
X50167700Y269375600D01*
%TO.N,GND*%
D22*
X46609000Y279352000D02*
X46609000Y281305000D01*
X46609000Y281305000D02*
X47879000Y282575000D01*
X47879000Y279352000D02*
X47879000Y282575000D01*
%TO.N,+12V*%
D23*
X48768000Y263017000D02*
X48895000Y262890000D01*
X48895000Y262890000D02*
X48895000Y259415800D01*
X48895000Y259415800D02*
X51956200Y259415800D01*
X51956200Y259415800D02*
X52070000Y259529600D01*
%TO.N,+12V_OPA*%
X48895000Y256458200D02*
X44404800Y256458200D01*
X44404800Y256458200D02*
X44196000Y256667000D01*
%TO.N,+12V_PA*%
X52070000Y256344400D02*
X56446400Y256344400D01*
X56446400Y256344400D02*
X56769000Y256667000D01*
%TO.N,+3V7*%
D21*
X39116000Y262509000D02*
X39116000Y268749000D01*
%TO.N,LEDB*%
D19*
X34798000Y264033000D02*
X34798000Y281740300D01*
X34798000Y281740300D02*
X32757400Y283781000D01*
%TO.N,LEDR*%
X33782000Y263271000D02*
X33782000Y281178000D01*
X33782000Y281178000D02*
X32766000Y282194000D01*
%TO.N,$1N52222*%
X64897000Y200279000D02*
X64897000Y201811600D01*
%TO.N,MUTE*%
X69850000Y219075900D02*
X69850000Y225679900D01*
X66412400Y215638300D02*
X69850000Y219075900D01*
%TO.N,+12V_PA*%
D22*
X76462600Y229870000D02*
X76462600Y228727000D01*
X71755000Y251587000D02*
X73397400Y251587000D01*
X73397400Y251587000D02*
X73406000Y251578400D01*
X71755000Y251587000D02*
X66675000Y256667000D01*
X56769000Y256667000D02*
X66675000Y256667000D01*
%TO.N,$3N1812*%
D19*
X73406000Y245426000D02*
X73406000Y246950000D01*
X75788900Y244567000D02*
X74264900Y244567000D01*
%TO.N,$3N1809*%
D21*
X77870000Y245837000D02*
X77870000Y247946900D01*
X77870000Y247946900D02*
X77786000Y248031000D01*
X77786000Y248031000D02*
X77786000Y250071600D01*
%TO.N,$3N1812*%
X77870000Y245202000D02*
X76554000Y245202000D01*
X76554000Y245202000D02*
X73406000Y248350000D01*
X73406000Y248350000D02*
X73406000Y250071600D01*
%TO.N,$3N1816*%
D19*
X84069900Y229870000D02*
X83312000Y230627900D01*
X83312000Y230627900D02*
X83312000Y235204000D01*
%TO.N,$3N1821*%
X83312000Y243135100D02*
X83312000Y247711200D01*
X83312000Y247711200D02*
X84069900Y248469100D01*
%TO.N,+12V*%
D22*
X52070000Y260858000D02*
X52070000Y259529600D01*
X68453000Y210185000D02*
X97282000Y210185000D01*
X97282000Y210185000D02*
X99060000Y208407000D01*
X99060000Y208407000D02*
X99060000Y200741800D01*
%TO.N,GND*%
D23*
X47879000Y282575000D02*
X126873000Y282575000D01*
X126873000Y282575000D02*
X131581900Y277866100D01*
X131581900Y277866100D02*
X131581900Y268636400D01*
%TO.N,$1N52268*%
D19*
X152990000Y201979000D02*
X148708400Y201979000D01*
X147201600Y200406000D02*
X147201600Y201729600D01*
X147201600Y201729600D02*
X146952300Y201979000D01*
X147201600Y201979000D02*
X146952300Y201979000D01*
X146952300Y201979000D02*
X145226000Y201979000D01*
%TO.N,$1N52253*%
X147201600Y204089000D02*
X145226000Y204089000D01*
X147201600Y204089000D02*
X147201600Y205740000D01*
X152990000Y215779000D02*
X152990000Y206457000D01*
X152990000Y206457000D02*
X152273000Y205740000D01*
X152273000Y205740000D02*
X148708400Y205740000D01*
%TO.N,$1N52261*%
X125283000Y203081600D02*
X125283000Y201422000D01*
X127117000Y203081600D02*
X125283000Y203081600D01*
%TO.N,LEDR*%
X69215000Y212217000D02*
X122809000Y212217000D01*
X122809000Y212217000D02*
X125283000Y209743000D01*
X125283000Y209743000D02*
X125283000Y204630000D01*
%TO.N,LEDB*%
X69596000Y213233000D02*
X124114800Y213233000D01*
X124114800Y213233000D02*
X127117000Y210230800D01*
X127117000Y210230800D02*
X127117000Y204630000D01*
%TO.N,BT_ANT*%
X137695900Y221623900D02*
X137695900Y224498900D01*
%TO.N,$2N2752*%
X137695900Y225589100D02*
X139154900Y225589100D01*
%TO.N,BT_ANT*%
X137695900Y224498900D02*
X139148800Y224498900D01*
%TO.N,$2N2752*%
X142657000Y229652000D02*
X141478000Y228473000D01*
X137695900Y227112600D02*
X137695900Y225589100D01*
X138662200Y228219000D02*
X140864800Y228219000D01*
%TO.N,$2N1015*%
X139695900Y213224100D02*
X139695900Y211586100D01*
X139695900Y211586100D02*
X140208000Y211074000D01*
X140208000Y211074000D02*
X140208000Y208838200D01*
%TO.N,DACR*%
X138695900Y213224100D02*
X138695900Y212101900D01*
X138695900Y212101900D02*
X136266200Y209672200D01*
X136266200Y209672200D02*
X136266200Y209661000D01*
%TO.N,DACL*%
X139196100Y213224100D02*
X139196100Y211586100D01*
X139196100Y211586100D02*
X138303000Y210693000D01*
X138303000Y210693000D02*
X138303000Y209661000D01*
%TO.N,DACR*%
X136266200Y207661000D02*
X138293000Y205634300D01*
X138293000Y205634300D02*
X138293000Y204036800D01*
%TO.N,DACL*%
X138303000Y207661000D02*
X138303000Y207010000D01*
X140208000Y205105000D02*
X140208000Y203073000D01*
X140208000Y199898000D02*
X138938000Y199898000D01*
X138293000Y199253000D02*
X138293000Y197537200D01*
X138303000Y207010000D02*
X140208000Y205105000D01*
X138938000Y199898000D02*
X138293000Y199253000D01*
%TO.N,$2N1023*%
X135246100Y219673900D02*
X134075900Y219673900D01*
%TO.N,$2N1042*%
X135246100Y220174100D02*
X133687100Y220174100D01*
X131035000Y217932000D02*
X129935000Y219032100D01*
X133687100Y220174100D02*
X132969000Y219456000D01*
%TO.N,$2N1023*%
X132503900Y216831900D02*
X131685000Y216831900D01*
%TO.N,$2N1042*%
X132969000Y219456000D02*
X132969000Y218440000D01*
X132969000Y218440000D02*
X132461000Y217932000D01*
X132461000Y217932000D02*
X131035000Y217932000D01*
%TO.N,$2N1023*%
X134075900Y219673900D02*
X133604000Y219202000D01*
X133604000Y219202000D02*
X133604000Y217932000D01*
X133604000Y217932000D02*
X132503900Y216831900D01*
X131685000Y214757000D02*
X131685000Y216831900D01*
%TO.N,$2N1042*%
X129935000Y219032100D02*
X129935000Y220297000D01*
X129935000Y220297000D02*
X130745000Y221107000D01*
%TO.N,$1N52200*%
X149859000Y223478900D02*
X152059100Y223478900D01*
%TO.N,$1N52257*%
X155859000Y230479100D02*
X150359100Y230479100D01*
%TO.N,VDDIO*%
X143645900Y219174100D02*
X144869900Y219174100D01*
X144869900Y219174100D02*
X147382000Y216662000D01*
%TO.N,$4N2458*%
D22*
X99060000Y197784200D02*
X101586800Y197784200D01*
X101586800Y197784200D02*
X101600000Y197797400D01*
X101586800Y197784200D02*
X104620200Y197784200D01*
X104620200Y197784200D02*
X104928200Y198092200D01*
%TO.N,GND*%
X109447800Y198092200D02*
X114978800Y198092200D01*
X114978800Y198092200D02*
X115062000Y198009000D01*
%TO.N,+3V7*%
X118616300Y200209200D02*
X118616300Y202547300D01*
X118616300Y202547300D02*
X118634000Y202565000D01*
%TO.N,GND*%
D19*
X118616500Y198009000D02*
X118616500Y196851500D01*
X118616500Y196851500D02*
X118872000Y196596000D01*
X120269000Y196596000D02*
X120523000Y196850000D01*
X120523000Y196850000D02*
X120523000Y198002200D01*
X120523000Y198002200D02*
X120516200Y198009000D01*
X118872000Y196596000D02*
X120269000Y196596000D01*
%TO.N,$1N52259*%
D22*
X130693000Y197537200D02*
X127271300Y197537200D01*
X127271300Y197537200D02*
X127127000Y197392900D01*
X127127000Y197392900D02*
X124333000Y197392900D01*
%TO.N,$1N52261*%
D19*
X125283000Y199863100D02*
X125283000Y201422000D01*
%TO.N,GND*%
D22*
X127127000Y200777700D02*
X129911700Y200777700D01*
X130693000Y201559000D02*
X130693000Y204036800D01*
X116904100Y198009000D02*
X116904100Y198755000D01*
X129286000Y201549000D02*
X130683000Y201549000D01*
X130683000Y201549000D02*
X130693000Y201559000D01*
X115062000Y198009000D02*
X116904100Y198009000D01*
X116904100Y198009000D02*
X118616500Y198009000D01*
X129911700Y200777700D02*
X130683000Y201549000D01*
%TO.N,$1N52200*%
D19*
X154473100Y223478900D02*
X152059100Y223478900D01*
X158877000Y219075000D02*
X154473100Y223478900D01*
X154813000Y193929000D02*
X158877000Y197993000D01*
X158877000Y197993000D02*
X158877000Y219075000D01*
%TO.N,$1N52290*%
X136093100Y195834000D02*
X136093100Y197461100D01*
X136017000Y197461100D02*
X136093100Y197537200D01*
%TO.N,$1N52189*%
X136085600Y202519500D02*
X136085600Y204029400D01*
X136085600Y204029400D02*
X136093100Y204036800D01*
%TO.N,$1N52194*%
X143826000Y201979000D02*
X142507000Y200660000D01*
%TO.N,AGND*%
D21*
X140208000Y207438200D02*
X141986000Y207438200D01*
%TO.N,$2N1014*%
D19*
X141986000Y208838200D02*
X141986000Y210058000D01*
X141986000Y210058000D02*
X140196100Y211847900D01*
X140196100Y211847900D02*
X140196100Y213224100D01*
%TO.N,AGND*%
X141986000Y207438200D02*
X142748000Y207438200D01*
%TO.N,GND*%
X143463500Y223520000D02*
X144272000Y224328500D01*
X139695900Y221623900D02*
X139695900Y222880900D01*
X139695900Y222880900D02*
X140335000Y223520000D01*
%TO.N,VDDBT*%
X141695900Y221623900D02*
X141695900Y222645500D01*
X141695900Y222645500D02*
X142062400Y223012000D01*
X144718000Y223012000D02*
X146050000Y224344000D01*
%TO.N,MUTE*%
X137695900Y213224100D02*
X137695900Y211990900D01*
X137695900Y211990900D02*
X136779000Y211074000D01*
X136779000Y211074000D02*
X133223000Y211074000D01*
X133223000Y211074000D02*
X132207000Y210058000D01*
%TO.N,$1N52193*%
X133893200Y204036800D02*
X133893200Y202148800D01*
X133893200Y202148800D02*
X134493000Y201549000D01*
X134493000Y201549000D02*
X141286000Y201549000D01*
X141286000Y201549000D02*
X143826000Y204089000D01*
%TO.N,$1N52194*%
X142507000Y200660000D02*
X134493000Y200660000D01*
X134493000Y200660000D02*
X133893200Y200060200D01*
X133893200Y200060200D02*
X133893200Y197537200D01*
%TO.N,GND*%
X144272000Y224328500D02*
X142875000Y224328500D01*
%TO.N,$1N52257*%
X155067000Y193167000D02*
X159385000Y197485000D01*
%TO.N,GND*%
X155321000Y192405000D02*
X159893000Y196977000D01*
X159893000Y196977000D02*
X159893000Y220726000D01*
%TO.N,$1N52257*%
X155859000Y223363000D02*
X155859000Y230479100D01*
X159385000Y219837000D02*
X155859000Y223363000D01*
X159385000Y197485000D02*
X159385000Y219837000D01*
%TO.N,LEDR*%
X134028900Y214673900D02*
X135246100Y214673900D01*
X133604000Y214249000D02*
X134028900Y214673900D01*
%TO.N,LEDB*%
X133767100Y215174100D02*
X135246100Y215174100D01*
X133096000Y214503000D02*
X133767100Y215174100D01*
X124114800Y213233000D02*
X132715000Y213233000D01*
X132715000Y213233000D02*
X133096000Y213614000D01*
X133096000Y213614000D02*
X133096000Y214503000D01*
%TO.N,LEDR*%
X126746000Y212217000D02*
X132842000Y212217000D01*
X132842000Y212217000D02*
X133604000Y212979000D01*
X133604000Y212979000D02*
X133604000Y214249000D01*
%TO.N,GND*%
X140335000Y223520000D02*
X143463500Y223520000D01*
%TO.N,VDDBT*%
X142062400Y223012000D02*
X144718000Y223012000D01*
X146050000Y224344000D02*
X146315600Y224344000D01*
X146315600Y224344000D02*
X147701000Y225729400D01*
%TO.N,+3V7*%
X147382000Y218485500D02*
X146193500Y219673900D01*
X146193500Y219673900D02*
X143645900Y219673900D01*
%TO.N,$2N1029*%
X143645900Y220174100D02*
X146260100Y220174100D01*
X146260100Y220174100D02*
X147701000Y221615000D01*
X147701000Y221615000D02*
X147701000Y224329600D01*
%TO.N,GND*%
X145923000Y216216000D02*
X147382000Y214757000D01*
X143645900Y218174100D02*
X144791900Y218174100D01*
X144791900Y218174100D02*
X145923000Y217043000D01*
X145923000Y217043000D02*
X145923000Y216216000D01*
%TO.N,+3V7*%
D22*
X147382000Y218485500D02*
X147382000Y219710000D01*
%TO.N,VDDBT*%
D19*
X136695900Y221623900D02*
X136695900Y223095100D01*
X136695900Y223095100D02*
X135447000Y224344000D01*
X135447000Y224344000D02*
X133858000Y224344000D01*
X141695900Y220308900D02*
X141695900Y221623900D01*
X141224000Y219837000D02*
X141695900Y220308900D01*
X136695900Y221623900D02*
X136695900Y220301100D01*
X136695900Y220301100D02*
X137160000Y219837000D01*
X137160000Y219837000D02*
X141224000Y219837000D01*
%TO.N,USBDM*%
X137568900Y219174100D02*
X135246100Y219174100D01*
X138684000Y218059000D02*
X137568900Y219174100D01*
%TO.N,VDDCORE*%
X135246100Y218673900D02*
X136926100Y218673900D01*
X136926100Y218673900D02*
X137541000Y218059000D01*
%TO.N,+3V7*%
D22*
X118364000Y202835000D02*
X118634000Y202565000D01*
X118364000Y205169400D02*
X118364000Y202835000D01*
X115062000Y205232000D02*
X118364000Y205232000D01*
X118364000Y211455000D02*
X118364000Y205232000D01*
X119507000Y205232000D02*
X118364000Y205232000D01*
D21*
X115062000Y207232000D02*
X115062000Y209931000D01*
X115062000Y209931000D02*
X113792000Y211201000D01*
X113792000Y211201000D02*
X68834000Y211201000D01*
%TO.N,$1N52200*%
D19*
X54483000Y206248000D02*
X54483000Y195453000D01*
X54483000Y195453000D02*
X56007000Y193929000D01*
X56007000Y193929000D02*
X154813000Y193929000D01*
%TO.N,$1N52257*%
X52409500Y202534900D02*
X52409500Y195113500D01*
X52409500Y195113500D02*
X54356000Y193167000D01*
X54356000Y193167000D02*
X155067000Y193167000D01*
%TO.N,MUTE*%
X67691000Y194691000D02*
X66412400Y195969600D01*
%TO.N,AGND*%
X143144900Y207835100D02*
X144134000Y207835100D01*
X144134000Y207835100D02*
X144510500Y207458500D01*
X143129000Y207819200D02*
X143144900Y207835100D01*
X143129000Y207819200D02*
X142748000Y207438200D01*
X143129000Y207819200D02*
X143129000Y209804000D01*
X143129000Y209804000D02*
X140695900Y212237100D01*
X140695900Y212237100D02*
X140695900Y213224100D01*
%TO.N,MUTE*%
X132207000Y210058000D02*
X132207000Y195707000D01*
X132207000Y195707000D02*
X131191000Y194691000D01*
X131191000Y194691000D02*
X67691000Y194691000D01*
X66412400Y195969600D02*
X66412400Y215638300D01*
%TO.N,$1N52189*%
X34345100Y203389000D02*
X34345100Y193873900D01*
X34345100Y193873900D02*
X36576000Y191643000D01*
X36576000Y191643000D02*
X137541000Y191643000D01*
%TO.N,$1N52290*%
X136017000Y190881000D02*
X33909000Y190881000D01*
X33909000Y190881000D02*
X31845000Y192945000D01*
X31845000Y192945000D02*
X31845000Y203389000D01*
%TO.N,GND*%
X40545000Y203389000D02*
X40545000Y193643000D01*
X40545000Y193643000D02*
X41783000Y192405000D01*
X41783000Y192405000D02*
X155321000Y192405000D01*
X141196100Y215138000D02*
X141196100Y213224100D01*
%TO.N,$3N1820*%
X83312000Y241046000D02*
X82296000Y242062000D01*
X82296000Y242062000D02*
X82296000Y248600200D01*
X82296000Y248600200D02*
X84069900Y250374100D01*
%TO.N,$3N1817*%
X82296000Y229738900D02*
X84069900Y227965000D01*
X82296000Y236277100D02*
X82296000Y229738900D01*
X83312000Y237293100D02*
X82296000Y236277100D01*
%TO.N,$1N52222*%
X64897000Y203318400D02*
X64700400Y203515000D01*
X64700400Y203515000D02*
X63176200Y203515000D01*
%TO.N,GND*%
X138196100Y221623900D02*
X138196100Y222651100D01*
X138196100Y222651100D02*
X138811000Y223266000D01*
X137196100Y221623900D02*
X137196100Y223737900D01*
X137196100Y223737900D02*
X136017000Y224917000D01*
X136017000Y224917000D02*
X136017000Y226949000D01*
X136017000Y226949000D02*
X136144000Y227076000D01*
X142196100Y221623900D02*
X142196100Y219285100D01*
X142196100Y219285100D02*
X141224000Y218313000D01*
X148782000Y214757000D02*
X148782000Y216662000D01*
X148782000Y216662000D02*
X148782000Y218485500D01*
%TO.N,$2N1042*%
X131685000Y219032100D02*
X132145000Y219492100D01*
X132145000Y219492100D02*
X132145000Y221107000D01*
%TO.N,$1N52506*%
D22*
X56896000Y228705400D02*
X54991000Y228705400D01*
X56896000Y248644400D02*
X54991000Y248644400D01*
%TO.N,$2N2752*%
D19*
X141478000Y228473000D02*
X141401300Y228436200D01*
X141401300Y228436200D02*
X141324700Y228400900D01*
X141324700Y228400900D02*
X141248000Y228367000D01*
X141248000Y228367000D02*
X141171400Y228334600D01*
X141171400Y228334600D02*
X141094700Y228303500D01*
X141094700Y228303500D02*
X141018100Y228273900D01*
X141018100Y228273900D02*
X140941400Y228245700D01*
X140941400Y228245700D02*
X140864800Y228219000D01*
X138662200Y228219000D02*
X138585600Y228192300D01*
X138585600Y228192300D02*
X138508900Y228164100D01*
X138508900Y228164100D02*
X138432300Y228134500D01*
X138432300Y228134500D02*
X138355600Y228103400D01*
X138355600Y228103400D02*
X138279000Y228071000D01*
X138279000Y228071000D02*
X138202300Y228037100D01*
X138202300Y228037100D02*
X138125700Y228001800D01*
X138125700Y228001800D02*
X138049000Y227965000D01*
X138049000Y227965000D02*
X138004900Y227863500D01*
X138004900Y227863500D02*
X137960700Y227760500D01*
X137960700Y227760500D02*
X137916600Y227656100D01*
X137916600Y227656100D02*
X137872500Y227550200D01*
X137872500Y227550200D02*
X137828300Y227443000D01*
X137828300Y227443000D02*
X137784200Y227334300D01*
X137784200Y227334300D02*
X137740100Y227224200D01*
X137740100Y227224200D02*
X137695900Y227112600D01*
%TD*%
M02*
