%TF.GenerationSoftware,KiCad,Pcbnew,10.99.0-unknown*%
%TF.CreationDate,2026-08-12T15:25:30+08:00*%
%TF.ProjectId,__AI________-_C3,0f7a4149-edf3-4f9d-9d00-d17f5f2d5f43,rev?*%
%TF.SameCoordinates,Original*%
%TF.FileFunction,Copper,L2,Inr*%
%TF.FilePolarity,Positive*%
%FSLAX46Y46*%
G04 Gerber Fmt 4.6, Leading zero omitted, Abs format (unit mm)*
G04 Created by KiCad (PCBNEW 10.99.0-unknown) date 2026-08-12 15:25:30*
%MOMM*%
%LPD*%
G01*
G04 APERTURE LIST*
%TA.AperFunction,ViaPad*%
%ADD10C,0.762000*%
%TD*%
%TA.AperFunction,ViaPad*%
%ADD11C,0.610000*%
%TD*%
%TA.AperFunction,ViaPad*%
%ADD12C,0.609600*%
%TD*%
G04 APERTURE END LIST*
D10*
%TO.N,VSYS*%
X13970000Y-5080000D03*
D11*
%TO.N,ESP_SPIQ*%
X7112000Y762000D03*
X-1397000Y-2794000D03*
%TO.N,GND*%
X1819500Y2858200D03*
%TO.N,ESP_BAT_ADC*%
X2540000Y7239000D03*
%TO.N,ESP_RGBLED*%
X3541600Y7927700D03*
%TO.N,SYS_I2C_SCL*%
X4723500Y7348800D03*
%TO.N,SYS_I2C_SDA*%
X4748900Y8174600D03*
%TO.N,PA_EN*%
X-9601200Y406400D03*
X-12827000Y-5334000D03*
%TO.N,SYS_I2C_SCL*%
X-8172100Y3175000D03*
%TO.N,SYS_I2C_SDA*%
X-9596000Y4953000D03*
D10*
%TO.N,VDD_3V3*%
X14477500Y-1853200D03*
D11*
X-4445000Y2286000D03*
X0Y4983100D03*
X12319000Y8128000D03*
D10*
X762000Y10160000D03*
D11*
X-4953000Y8001000D03*
%TO.N,$1N13079*%
X-12192000Y2032000D03*
%TO.N,$1N13080*%
X-10922000Y2540000D03*
%TO.N,SYS_I2C_SCL*%
X-6350000Y11735800D03*
%TO.N,SYS_I2C_SDA*%
X-7253900Y11749700D03*
%TO.N,VSYS*%
X-5461000Y14986000D03*
%TO.N,ESP_SPID*%
X889000Y-4269400D03*
%TO.N,GND*%
X-684400Y-4269400D03*
X-3560600Y7569200D03*
D10*
X-1016000Y-16637000D03*
%TO.N,$1N12989*%
X1016000Y-16637000D03*
D11*
%TO.N,VDD_3V3*%
X2794000Y762000D03*
%TO.N,GND*%
X-2779700Y4983100D03*
X-838200Y2997200D03*
X-7696000Y5892700D03*
X-7721600Y5130800D03*
X-5689000Y3961800D03*
%TO.N,VDD_3V3*%
X-9601200Y3683000D03*
%TO.N,GND*%
X-11582600Y8178800D03*
%TO.N,ESP_VDD_SPI*%
X6350000Y-3429000D03*
%TO.N,GND*%
X14986000Y6731000D03*
X14986000Y5799700D03*
X14986000Y4868300D03*
X14986000Y3937000D03*
X14986000Y3005700D03*
X14986000Y2074300D03*
X14224000Y889000D03*
X13263400Y889000D03*
%TO.N,$1N13026*%
X12302900Y889000D03*
%TO.N,GND*%
X11049000Y1905000D03*
X10985500Y3508100D03*
X11018500Y6078300D03*
X12319000Y7077000D03*
X13271500Y7077000D03*
%TO.N,$1N13175*%
X14224000Y7077000D03*
%TO.N,GND*%
X-2768600Y2997000D03*
X7747000Y10870700D03*
X8737800Y12649200D03*
X9728600Y12649200D03*
X10719500Y12649200D03*
X11710300Y12649200D03*
X12701100Y12649200D03*
X13691900Y12649200D03*
D10*
%TO.N,USB_VBUS*%
X-58700Y-14424900D03*
D11*
%TO.N,ESP_VDD_SPI*%
X3683000Y508000D03*
X1778000Y-1422200D03*
%TO.N,ESP_RGBLED*%
X-1016000Y7112000D03*
X-2286000Y8382000D03*
X-3937000Y16891000D03*
%TO.N,ESP_BAT_CHRG*%
X4699000Y-355800D03*
X9398000Y-228800D03*
%TO.N,GND*%
X2286000Y8560600D03*
X16078200Y-6121400D03*
X-2768600Y1524000D03*
X-1524000Y9525000D03*
%TO.N,VDD_3V3*%
X15875000Y-1651000D03*
D12*
%TO.N,ESP_U0RXD*%
X13211800Y-384800D03*
%TO.N,ESP_U0TXD*%
X14097000Y-381000D03*
%TO.N,ESP_BAT_ADC*%
X10414000Y-2746600D03*
D11*
%TO.N,GND*%
X5816300Y11023600D03*
X5207000Y14274800D03*
X5207000Y15113000D03*
X7746700Y9981500D03*
D12*
%TO.N,$1N13079*%
X-8788400Y11836400D03*
%TO.N,$1N13080*%
X-8822700Y10862300D03*
D11*
%TO.N,GND*%
X-6863100Y5887500D03*
X-6866900Y5139700D03*
D10*
%TO.N,VOUT*%
X15621000Y-8890000D03*
X10160000Y-12573000D03*
%TO.N,USB_VBUS*%
X5080000Y-10922000D03*
X11430000Y-9017000D03*
D11*
%TO.N,GND*%
X11811000Y6350000D03*
X11811000Y1651000D03*
X10160000Y3916300D03*
%TO.N,ESP_RGBLED*%
X9271000Y3916300D03*
%TO.N,GND*%
X10160000Y5842000D03*
X10972800Y2743200D03*
X5207000Y15890700D03*
D12*
X3659500Y5600500D03*
X4933700Y5600500D03*
X6334900Y5600500D03*
X3659500Y4193800D03*
X4933700Y4206200D03*
X3659500Y2800200D03*
X4933700Y2800200D03*
X7696200Y6985000D03*
X9414000Y-1095000D03*
X3683000Y-10795000D03*
X13970000Y-3810000D03*
X12573000Y-8890000D03*
D10*
X10062500Y-7425900D03*
D11*
X7759200Y11760000D03*
X7734000Y12649200D03*
X5207000Y16643000D03*
X5207000Y17395300D03*
X2159000Y17395300D03*
X7726700Y7991600D03*
X5842000Y10020300D03*
X5842000Y9017000D03*
D12*
X6334900Y4182800D03*
X6334900Y2800200D03*
X16129000Y6477000D03*
D11*
X14986000Y1143000D03*
X5207000Y13411200D03*
X16599000Y12649200D03*
X15608200Y12649200D03*
X14617400Y12649200D03*
X3175000Y17395300D03*
X4191000Y17395300D03*
%TO.N,$1N13116*%
X5842000Y12700000D03*
%TD*%
M02*
