%TF.GenerationSoftware,KiCad,Pcbnew,10.99.0-unknown*%
%TF.CreationDate,2026-08-12T15:25:30+08:00*%
%TF.ProjectId,__AI________-_C3,0f7a4149-edf3-4f9d-9d00-d17f5f2d5f43,rev?*%
%TF.SameCoordinates,Original*%
%TF.FileFunction,Legend,Top*%
%TF.FilePolarity,Positive*%
%FSLAX46Y46*%
G04 Gerber Fmt 4.6, Leading zero omitted, Abs format (unit mm)*
G04 Created by KiCad (PCBNEW 10.99.0-unknown) date 2026-08-12 15:25:30*
%MOMM*%
%LPD*%
G01*
G04 APERTURE LIST*
%ADD10C,0.076200*%
%ADD11C,0.101600*%
%ADD12C,0.120000*%
G04 APERTURE END LIST*
D10*
X-5660571Y11680161D02*
X-5733143Y11716447D01*
X-5733143Y11716447D02*
X-5842000Y11716447D01*
X-5842000Y11716447D02*
X-5950857Y11680161D01*
X-5950857Y11680161D02*
X-6023428Y11607590D01*
X-6023428Y11607590D02*
X-6059714Y11535018D01*
X-6059714Y11535018D02*
X-6096000Y11389875D01*
X-6096000Y11389875D02*
X-6096000Y11281018D01*
X-6096000Y11281018D02*
X-6059714Y11135875D01*
X-6059714Y11135875D02*
X-6023428Y11063304D01*
X-6023428Y11063304D02*
X-5950857Y10990733D01*
X-5950857Y10990733D02*
X-5842000Y10954447D01*
X-5842000Y10954447D02*
X-5769428Y10954447D01*
X-5769428Y10954447D02*
X-5660571Y10990733D01*
X-5660571Y10990733D02*
X-5624285Y11027018D01*
X-5624285Y11027018D02*
X-5624285Y11281018D01*
X-5624285Y11281018D02*
X-5769428Y11281018D01*
X-5297714Y10954447D02*
X-5297714Y11716447D01*
X-5297714Y11716447D02*
X-4862285Y10954447D01*
X-4862285Y10954447D02*
X-4862285Y11716447D01*
X-4499428Y10954447D02*
X-4499428Y11716447D01*
X-4499428Y11716447D02*
X-4317999Y11716447D01*
X-4317999Y11716447D02*
X-4209142Y11680161D01*
X-4209142Y11680161D02*
X-4136571Y11607590D01*
X-4136571Y11607590D02*
X-4100285Y11535018D01*
X-4100285Y11535018D02*
X-4063999Y11389875D01*
X-4063999Y11389875D02*
X-4063999Y11281018D01*
X-4063999Y11281018D02*
X-4100285Y11135875D01*
X-4100285Y11135875D02*
X-4136571Y11063304D01*
X-4136571Y11063304D02*
X-4209142Y10990733D01*
X-4209142Y10990733D02*
X-4317999Y10954447D01*
X-4317999Y10954447D02*
X-4499428Y10954447D01*
X-4245427Y11716447D02*
X-3773713Y11716447D01*
X-3773713Y11716447D02*
X-4027713Y11426161D01*
X-4027713Y11426161D02*
X-3918856Y11426161D01*
X-3918856Y11426161D02*
X-3846285Y11389875D01*
X-3846285Y11389875D02*
X-3809999Y11353590D01*
X-3809999Y11353590D02*
X-3773713Y11281018D01*
X-3773713Y11281018D02*
X-3773713Y11099590D01*
X-3773713Y11099590D02*
X-3809999Y11027018D01*
X-3809999Y11027018D02*
X-3846285Y10990733D01*
X-3846285Y10990733D02*
X-3918856Y10954447D01*
X-3918856Y10954447D02*
X-4136570Y10954447D01*
X-4136570Y10954447D02*
X-4209142Y10990733D01*
X-4209142Y10990733D02*
X-4245427Y11027018D01*
X-3555999Y11716447D02*
X-3301999Y10954447D01*
X-3301999Y10954447D02*
X-3047999Y11716447D01*
X-2866570Y11716447D02*
X-2394856Y11716447D01*
X-2394856Y11716447D02*
X-2648856Y11426161D01*
X-2648856Y11426161D02*
X-2539999Y11426161D01*
X-2539999Y11426161D02*
X-2467428Y11389875D01*
X-2467428Y11389875D02*
X-2431142Y11353590D01*
X-2431142Y11353590D02*
X-2394856Y11281018D01*
X-2394856Y11281018D02*
X-2394856Y11099590D01*
X-2394856Y11099590D02*
X-2431142Y11027018D01*
X-2431142Y11027018D02*
X-2467428Y10990733D01*
X-2467428Y10990733D02*
X-2539999Y10954447D01*
X-2539999Y10954447D02*
X-2757713Y10954447D01*
X-2757713Y10954447D02*
X-2830285Y10990733D01*
X-2830285Y10990733D02*
X-2866570Y11027018D01*
X-272142Y10990733D02*
X-163285Y10954447D01*
X-163285Y10954447D02*
X18143Y10954447D01*
X18143Y10954447D02*
X90715Y10990733D01*
X90715Y10990733D02*
X127000Y11027018D01*
X127000Y11027018D02*
X163286Y11099590D01*
X163286Y11099590D02*
X163286Y11172161D01*
X163286Y11172161D02*
X127000Y11244733D01*
X127000Y11244733D02*
X90715Y11281018D01*
X90715Y11281018D02*
X18143Y11317304D01*
X18143Y11317304D02*
X-126999Y11353590D01*
X-126999Y11353590D02*
X-199570Y11389875D01*
X-199570Y11389875D02*
X-235856Y11426161D01*
X-235856Y11426161D02*
X-272142Y11498733D01*
X-272142Y11498733D02*
X-272142Y11571304D01*
X-272142Y11571304D02*
X-235856Y11643875D01*
X-235856Y11643875D02*
X-199570Y11680161D01*
X-199570Y11680161D02*
X-126999Y11716447D01*
X-126999Y11716447D02*
X54429Y11716447D01*
X54429Y11716447D02*
X163286Y11680161D01*
X925286Y11027018D02*
X889000Y10990733D01*
X889000Y10990733D02*
X780143Y10954447D01*
X780143Y10954447D02*
X707571Y10954447D01*
X707571Y10954447D02*
X598714Y10990733D01*
X598714Y10990733D02*
X526143Y11063304D01*
X526143Y11063304D02*
X489857Y11135875D01*
X489857Y11135875D02*
X453571Y11281018D01*
X453571Y11281018D02*
X453571Y11389875D01*
X453571Y11389875D02*
X489857Y11535018D01*
X489857Y11535018D02*
X526143Y11607590D01*
X526143Y11607590D02*
X598714Y11680161D01*
X598714Y11680161D02*
X707571Y11716447D01*
X707571Y11716447D02*
X780143Y11716447D01*
X780143Y11716447D02*
X889000Y11680161D01*
X889000Y11680161D02*
X925286Y11643875D01*
X1614714Y10954447D02*
X1251857Y10954447D01*
X1251857Y10954447D02*
X1251857Y11716447D01*
X4132733Y13117285D02*
X4096447Y13008428D01*
X4096447Y13008428D02*
X4096447Y12826999D01*
X4096447Y12826999D02*
X4132733Y12754428D01*
X4132733Y12754428D02*
X4169018Y12718142D01*
X4169018Y12718142D02*
X4241590Y12681856D01*
X4241590Y12681856D02*
X4314161Y12681856D01*
X4314161Y12681856D02*
X4386733Y12718142D01*
X4386733Y12718142D02*
X4423018Y12754428D01*
X4423018Y12754428D02*
X4459304Y12826999D01*
X4459304Y12826999D02*
X4495590Y12972142D01*
X4495590Y12972142D02*
X4531875Y13044713D01*
X4531875Y13044713D02*
X4568161Y13080999D01*
X4568161Y13080999D02*
X4640733Y13117285D01*
X4640733Y13117285D02*
X4713304Y13117285D01*
X4713304Y13117285D02*
X4785875Y13080999D01*
X4785875Y13080999D02*
X4822161Y13044713D01*
X4822161Y13044713D02*
X4858447Y12972142D01*
X4858447Y12972142D02*
X4858447Y12790713D01*
X4858447Y12790713D02*
X4822161Y12681856D01*
X4096447Y12355285D02*
X4858447Y12355285D01*
X4858447Y12355285D02*
X4858447Y12173856D01*
X4858447Y12173856D02*
X4822161Y12064999D01*
X4822161Y12064999D02*
X4749590Y11992428D01*
X4749590Y11992428D02*
X4677018Y11956142D01*
X4677018Y11956142D02*
X4531875Y11919856D01*
X4531875Y11919856D02*
X4423018Y11919856D01*
X4423018Y11919856D02*
X4277875Y11956142D01*
X4277875Y11956142D02*
X4205304Y11992428D01*
X4205304Y11992428D02*
X4132733Y12064999D01*
X4132733Y12064999D02*
X4096447Y12173856D01*
X4096447Y12173856D02*
X4096447Y12355285D01*
X4314161Y11629571D02*
X4314161Y11266714D01*
X4096447Y11702142D02*
X4858447Y11448142D01*
X4858447Y11448142D02*
X4096447Y11194142D01*
X-4263571Y-8766838D02*
X-4336143Y-8730552D01*
X-4336143Y-8730552D02*
X-4445000Y-8730552D01*
X-4445000Y-8730552D02*
X-4553857Y-8766838D01*
X-4553857Y-8766838D02*
X-4626428Y-8839409D01*
X-4626428Y-8839409D02*
X-4662714Y-8911981D01*
X-4662714Y-8911981D02*
X-4699000Y-9057124D01*
X-4699000Y-9057124D02*
X-4699000Y-9165981D01*
X-4699000Y-9165981D02*
X-4662714Y-9311124D01*
X-4662714Y-9311124D02*
X-4626428Y-9383695D01*
X-4626428Y-9383695D02*
X-4553857Y-9456267D01*
X-4553857Y-9456267D02*
X-4445000Y-9492552D01*
X-4445000Y-9492552D02*
X-4372428Y-9492552D01*
X-4372428Y-9492552D02*
X-4263571Y-9456267D01*
X-4263571Y-9456267D02*
X-4227285Y-9419981D01*
X-4227285Y-9419981D02*
X-4227285Y-9165981D01*
X-4227285Y-9165981D02*
X-4372428Y-9165981D01*
X-3900714Y-9492552D02*
X-3900714Y-8730552D01*
X-3900714Y-8730552D02*
X-3465285Y-9492552D01*
X-3465285Y-9492552D02*
X-3465285Y-8730552D01*
X-3102428Y-9492552D02*
X-3102428Y-8730552D01*
X-3102428Y-8730552D02*
X-2920999Y-8730552D01*
X-2920999Y-8730552D02*
X-2812142Y-8766838D01*
X-2812142Y-8766838D02*
X-2739571Y-8839409D01*
X-2739571Y-8839409D02*
X-2703285Y-8911981D01*
X-2703285Y-8911981D02*
X-2666999Y-9057124D01*
X-2666999Y-9057124D02*
X-2666999Y-9165981D01*
X-2666999Y-9165981D02*
X-2703285Y-9311124D01*
X-2703285Y-9311124D02*
X-2739571Y-9383695D01*
X-2739571Y-9383695D02*
X-2812142Y-9456267D01*
X-2812142Y-9456267D02*
X-2920999Y-9492552D01*
X-2920999Y-9492552D02*
X-3102428Y-9492552D01*
X-2594427Y-8730552D02*
X-2122713Y-8730552D01*
X-2122713Y-8730552D02*
X-2376713Y-9020838D01*
X-2376713Y-9020838D02*
X-2267856Y-9020838D01*
X-2267856Y-9020838D02*
X-2195285Y-9057124D01*
X-2195285Y-9057124D02*
X-2158999Y-9093409D01*
X-2158999Y-9093409D02*
X-2122713Y-9165981D01*
X-2122713Y-9165981D02*
X-2122713Y-9347409D01*
X-2122713Y-9347409D02*
X-2158999Y-9419981D01*
X-2158999Y-9419981D02*
X-2195285Y-9456267D01*
X-2195285Y-9456267D02*
X-2267856Y-9492552D01*
X-2267856Y-9492552D02*
X-2485570Y-9492552D01*
X-2485570Y-9492552D02*
X-2558142Y-9456267D01*
X-2558142Y-9456267D02*
X-2594427Y-9419981D01*
X-1904999Y-8730552D02*
X-1650999Y-9492552D01*
X-1650999Y-9492552D02*
X-1396999Y-8730552D01*
X-1215570Y-8730552D02*
X-743856Y-8730552D01*
X-743856Y-8730552D02*
X-997856Y-9020838D01*
X-997856Y-9020838D02*
X-888999Y-9020838D01*
X-888999Y-9020838D02*
X-816428Y-9057124D01*
X-816428Y-9057124D02*
X-780142Y-9093409D01*
X-780142Y-9093409D02*
X-743856Y-9165981D01*
X-743856Y-9165981D02*
X-743856Y-9347409D01*
X-743856Y-9347409D02*
X-780142Y-9419981D01*
X-780142Y-9419981D02*
X-816428Y-9456267D01*
X-816428Y-9456267D02*
X-888999Y-9492552D01*
X-888999Y-9492552D02*
X-1106713Y-9492552D01*
X-1106713Y-9492552D02*
X-1179285Y-9456267D01*
X-1179285Y-9456267D02*
X-1215570Y-9419981D01*
X381000Y-9492552D02*
X127000Y-9129695D01*
X-54428Y-9492552D02*
X-54428Y-8730552D01*
X-54428Y-8730552D02*
X235857Y-8730552D01*
X235857Y-8730552D02*
X308428Y-8766838D01*
X308428Y-8766838D02*
X344714Y-8803124D01*
X344714Y-8803124D02*
X381000Y-8875695D01*
X381000Y-8875695D02*
X381000Y-8984552D01*
X381000Y-8984552D02*
X344714Y-9057124D01*
X344714Y-9057124D02*
X308428Y-9093409D01*
X308428Y-9093409D02*
X235857Y-9129695D01*
X235857Y-9129695D02*
X-54428Y-9129695D01*
X635000Y-8730552D02*
X1143000Y-9492552D01*
X1143000Y-8730552D02*
X635000Y-9492552D01*
X1832429Y-8730552D02*
X2267858Y-8730552D01*
X2050143Y-9492552D02*
X2050143Y-8730552D01*
X2449286Y-8730552D02*
X2957286Y-9492552D01*
X2957286Y-8730552D02*
X2449286Y-9492552D01*
D11*
X-17463747Y25381856D02*
X-16447747Y24583571D01*
X-16447747Y25381856D02*
X-17463747Y24583571D01*
X-17463747Y24002999D02*
X-16447747Y24002999D01*
X-16592890Y24002999D02*
X-16520318Y23930428D01*
X-16520318Y23930428D02*
X-16447747Y23785285D01*
X-16447747Y23785285D02*
X-16447747Y23567571D01*
X-16447747Y23567571D02*
X-16520318Y23422428D01*
X-16520318Y23422428D02*
X-16665461Y23349857D01*
X-16665461Y23349857D02*
X-17463747Y23349857D01*
X-16665461Y23349857D02*
X-16520318Y23277285D01*
X-16520318Y23277285D02*
X-16447747Y23132142D01*
X-16447747Y23132142D02*
X-16447747Y22914428D01*
X-16447747Y22914428D02*
X-16520318Y22769285D01*
X-16520318Y22769285D02*
X-16665461Y22696714D01*
X-16665461Y22696714D02*
X-17463747Y22696714D01*
X-17463747Y21970999D02*
X-16447747Y21970999D01*
X-15939747Y21970999D02*
X-16012318Y22043571D01*
X-16012318Y22043571D02*
X-16084890Y21970999D01*
X-16084890Y21970999D02*
X-16012318Y21898428D01*
X-16012318Y21898428D02*
X-15939747Y21970999D01*
X-15939747Y21970999D02*
X-16084890Y21970999D01*
X-16447747Y21245285D02*
X-17463747Y21245285D01*
X-16592890Y21245285D02*
X-16520318Y21172714D01*
X-16520318Y21172714D02*
X-16447747Y21027571D01*
X-16447747Y21027571D02*
X-16447747Y20809857D01*
X-16447747Y20809857D02*
X-16520318Y20664714D01*
X-16520318Y20664714D02*
X-16665461Y20592143D01*
X-16665461Y20592143D02*
X-17463747Y20592143D01*
X-17463747Y19866428D02*
X-16447747Y19866428D01*
X-15939747Y19866428D02*
X-16012318Y19939000D01*
X-16012318Y19939000D02*
X-16084890Y19866428D01*
X-16084890Y19866428D02*
X-16012318Y19793857D01*
X-16012318Y19793857D02*
X-15939747Y19866428D01*
X-15939747Y19866428D02*
X-16084890Y19866428D01*
X-16883176Y19140714D02*
X-16883176Y17979572D01*
X-17391176Y16600715D02*
X-17463747Y16745857D01*
X-17463747Y16745857D02*
X-17463747Y17036143D01*
X-17463747Y17036143D02*
X-17391176Y17181286D01*
X-17391176Y17181286D02*
X-17318604Y17253857D01*
X-17318604Y17253857D02*
X-17173461Y17326429D01*
X-17173461Y17326429D02*
X-16738033Y17326429D01*
X-16738033Y17326429D02*
X-16592890Y17253857D01*
X-16592890Y17253857D02*
X-16520318Y17181286D01*
X-16520318Y17181286D02*
X-16447747Y17036143D01*
X-16447747Y17036143D02*
X-16447747Y16745857D01*
X-16447747Y16745857D02*
X-16520318Y16600715D01*
X-15939747Y16092714D02*
X-15939747Y15149286D01*
X-15939747Y15149286D02*
X-16520318Y15657286D01*
X-16520318Y15657286D02*
X-16520318Y15439571D01*
X-16520318Y15439571D02*
X-16592890Y15294429D01*
X-16592890Y15294429D02*
X-16665461Y15221857D01*
X-16665461Y15221857D02*
X-16810604Y15149286D01*
X-16810604Y15149286D02*
X-17173461Y15149286D01*
X-17173461Y15149286D02*
X-17318604Y15221857D01*
X-17318604Y15221857D02*
X-17391176Y15294429D01*
X-17391176Y15294429D02*
X-17463747Y15439571D01*
X-17463747Y15439571D02*
X-17463747Y15875000D01*
X-17463747Y15875000D02*
X-17391176Y16020143D01*
X-17391176Y16020143D02*
X-17318604Y16092714D01*
X-16883176Y14496142D02*
X-16883176Y13335000D01*
X-16447747Y12754428D02*
X-17463747Y12391571D01*
X-17463747Y12391571D02*
X-16447747Y12028714D01*
X-15939747Y11593285D02*
X-15939747Y10649857D01*
X-15939747Y10649857D02*
X-16520318Y11157857D01*
X-16520318Y11157857D02*
X-16520318Y10940142D01*
X-16520318Y10940142D02*
X-16592890Y10795000D01*
X-16592890Y10795000D02*
X-16665461Y10722428D01*
X-16665461Y10722428D02*
X-16810604Y10649857D01*
X-16810604Y10649857D02*
X-17173461Y10649857D01*
X-17173461Y10649857D02*
X-17318604Y10722428D01*
X-17318604Y10722428D02*
X-17391176Y10795000D01*
X-17391176Y10795000D02*
X-17463747Y10940142D01*
X-17463747Y10940142D02*
X-17463747Y11375571D01*
X-17463747Y11375571D02*
X-17391176Y11520714D01*
X-17391176Y11520714D02*
X-17318604Y11593285D01*
X-17318604Y9996713D02*
X-17391176Y9924142D01*
X-17391176Y9924142D02*
X-17463747Y9996713D01*
X-17463747Y9996713D02*
X-17391176Y10069285D01*
X-17391176Y10069285D02*
X-17318604Y9996713D01*
X-17318604Y9996713D02*
X-17463747Y9996713D01*
X-16084890Y9343571D02*
X-16012318Y9270999D01*
X-16012318Y9270999D02*
X-15939747Y9125857D01*
X-15939747Y9125857D02*
X-15939747Y8762999D01*
X-15939747Y8762999D02*
X-16012318Y8617857D01*
X-16012318Y8617857D02*
X-16084890Y8545285D01*
X-16084890Y8545285D02*
X-16230033Y8472714D01*
X-16230033Y8472714D02*
X-16375176Y8472714D01*
X-16375176Y8472714D02*
X-16592890Y8545285D01*
X-16592890Y8545285D02*
X-17463747Y9416142D01*
X-17463747Y9416142D02*
X-17463747Y8472714D01*
X8639629Y-17619776D02*
X9800772Y-17619776D01*
X9220200Y-18200347D02*
X9220200Y-17039204D01*
X-15519570Y-17568576D02*
X-14358428Y-17568576D01*
X-14938999Y-18149147D02*
X-14938999Y-16988004D01*
D10*
X-7910285Y-8730552D02*
X-7656285Y-9492552D01*
X-7656285Y-9492552D02*
X-7402285Y-8730552D01*
X-7184571Y-9456267D02*
X-7075714Y-9492552D01*
X-7075714Y-9492552D02*
X-6894285Y-9492552D01*
X-6894285Y-9492552D02*
X-6821714Y-9456267D01*
X-6821714Y-9456267D02*
X-6785428Y-9419981D01*
X-6785428Y-9419981D02*
X-6749142Y-9347409D01*
X-6749142Y-9347409D02*
X-6749142Y-9274838D01*
X-6749142Y-9274838D02*
X-6785428Y-9202267D01*
X-6785428Y-9202267D02*
X-6821714Y-9165981D01*
X-6821714Y-9165981D02*
X-6894285Y-9129695D01*
X-6894285Y-9129695D02*
X-7039428Y-9093409D01*
X-7039428Y-9093409D02*
X-7111999Y-9057124D01*
X-7111999Y-9057124D02*
X-7148285Y-9020838D01*
X-7148285Y-9020838D02*
X-7184571Y-8948267D01*
X-7184571Y-8948267D02*
X-7184571Y-8875695D01*
X-7184571Y-8875695D02*
X-7148285Y-8803124D01*
X-7148285Y-8803124D02*
X-7111999Y-8766838D01*
X-7111999Y-8766838D02*
X-7039428Y-8730552D01*
X-7039428Y-8730552D02*
X-6857999Y-8730552D01*
X-6857999Y-8730552D02*
X-6749142Y-8766838D01*
X-6277428Y-9129695D02*
X-6277428Y-9492552D01*
X-6531428Y-8730552D02*
X-6277428Y-9129695D01*
X-6277428Y-9129695D02*
X-6023428Y-8730552D01*
X-5805714Y-9456267D02*
X-5696857Y-9492552D01*
X-5696857Y-9492552D02*
X-5515428Y-9492552D01*
X-5515428Y-9492552D02*
X-5442857Y-9456267D01*
X-5442857Y-9456267D02*
X-5406571Y-9419981D01*
X-5406571Y-9419981D02*
X-5370285Y-9347409D01*
X-5370285Y-9347409D02*
X-5370285Y-9274838D01*
X-5370285Y-9274838D02*
X-5406571Y-9202267D01*
X-5406571Y-9202267D02*
X-5442857Y-9165981D01*
X-5442857Y-9165981D02*
X-5515428Y-9129695D01*
X-5515428Y-9129695D02*
X-5660571Y-9093409D01*
X-5660571Y-9093409D02*
X-5733142Y-9057124D01*
X-5733142Y-9057124D02*
X-5769428Y-9020838D01*
X-5769428Y-9020838D02*
X-5805714Y-8948267D01*
X-5805714Y-8948267D02*
X-5805714Y-8875695D01*
X-5805714Y-8875695D02*
X-5769428Y-8803124D01*
X-5769428Y-8803124D02*
X-5733142Y-8766838D01*
X-5733142Y-8766838D02*
X-5660571Y-8730552D01*
X-5660571Y-8730552D02*
X-5479142Y-8730552D01*
X-5479142Y-8730552D02*
X-5370285Y-8766838D01*
X-7111999Y-983552D02*
X-7547428Y-983552D01*
X-7329713Y-983552D02*
X-7329713Y-221552D01*
X-7329713Y-221552D02*
X-7402285Y-330409D01*
X-7402285Y-330409D02*
X-7474856Y-402981D01*
X-7474856Y-402981D02*
X-7547428Y-439267D01*
X-6458857Y-221552D02*
X-6603999Y-221552D01*
X-6603999Y-221552D02*
X-6676571Y-257838D01*
X-6676571Y-257838D02*
X-6712857Y-294124D01*
X-6712857Y-294124D02*
X-6785428Y-402981D01*
X-6785428Y-402981D02*
X-6821714Y-548124D01*
X-6821714Y-548124D02*
X-6821714Y-838409D01*
X-6821714Y-838409D02*
X-6785428Y-910981D01*
X-6785428Y-910981D02*
X-6749142Y-947267D01*
X-6749142Y-947267D02*
X-6676571Y-983552D01*
X-6676571Y-983552D02*
X-6531428Y-983552D01*
X-6531428Y-983552D02*
X-6458857Y-947267D01*
X-6458857Y-947267D02*
X-6422571Y-910981D01*
X-6422571Y-910981D02*
X-6386285Y-838409D01*
X-6386285Y-838409D02*
X-6386285Y-656981D01*
X-6386285Y-656981D02*
X-6422571Y-584409D01*
X-6422571Y-584409D02*
X-6458857Y-548124D01*
X-6458857Y-548124D02*
X-6531428Y-511838D01*
X-6531428Y-511838D02*
X-6676571Y-511838D01*
X-6676571Y-511838D02*
X-6749142Y-548124D01*
X-6749142Y-548124D02*
X-6785428Y-584409D01*
X-6785428Y-584409D02*
X-6821714Y-656981D01*
X-6059714Y-983552D02*
X-6059714Y-221552D01*
X-6059714Y-221552D02*
X-5805714Y-765838D01*
X-5805714Y-765838D02*
X-5551714Y-221552D01*
X-5551714Y-221552D02*
X-5551714Y-983552D01*
X-4608286Y-983552D02*
X-4608286Y-221552D01*
X-4608286Y-221552D02*
X-4172857Y-983552D01*
X-4172857Y-983552D02*
X-4172857Y-221552D01*
X-3664857Y-221552D02*
X-3519714Y-221552D01*
X-3519714Y-221552D02*
X-3447143Y-257838D01*
X-3447143Y-257838D02*
X-3374571Y-330409D01*
X-3374571Y-330409D02*
X-3338286Y-475552D01*
X-3338286Y-475552D02*
X-3338286Y-729552D01*
X-3338286Y-729552D02*
X-3374571Y-874695D01*
X-3374571Y-874695D02*
X-3447143Y-947267D01*
X-3447143Y-947267D02*
X-3519714Y-983552D01*
X-3519714Y-983552D02*
X-3664857Y-983552D01*
X-3664857Y-983552D02*
X-3737429Y-947267D01*
X-3737429Y-947267D02*
X-3810000Y-874695D01*
X-3810000Y-874695D02*
X-3846286Y-729552D01*
X-3846286Y-729552D02*
X-3846286Y-475552D01*
X-3846286Y-475552D02*
X-3810000Y-330409D01*
X-3810000Y-330409D02*
X-3737429Y-257838D01*
X-3737429Y-257838D02*
X-3664857Y-221552D01*
X-2576285Y-983552D02*
X-2830285Y-620695D01*
X-3011714Y-983552D02*
X-3011714Y-221552D01*
X-3011714Y-221552D02*
X-2721428Y-221552D01*
X-2721428Y-221552D02*
X-2648857Y-257838D01*
X-2648857Y-257838D02*
X-2612571Y-294124D01*
X-2612571Y-294124D02*
X-2576285Y-366695D01*
X-2576285Y-366695D02*
X-2576285Y-475552D01*
X-2576285Y-475552D02*
X-2612571Y-548124D01*
X-2612571Y-548124D02*
X-2648857Y-584409D01*
X-2648857Y-584409D02*
X-2721428Y-620695D01*
X-2721428Y-620695D02*
X-3011714Y-620695D01*
X-1415143Y-584409D02*
X-1669143Y-584409D01*
X-1669143Y-983552D02*
X-1669143Y-221552D01*
X-1669143Y-221552D02*
X-1306286Y-221552D01*
X-653143Y-983552D02*
X-1016000Y-983552D01*
X-1016000Y-983552D02*
X-1016000Y-221552D01*
X-435429Y-765838D02*
X-72572Y-765838D01*
X-508000Y-983552D02*
X-254000Y-221552D01*
X-254000Y-221552D02*
X0Y-983552D01*
X217713Y-947267D02*
X326571Y-983552D01*
X326571Y-983552D02*
X507999Y-983552D01*
X507999Y-983552D02*
X580571Y-947267D01*
X580571Y-947267D02*
X616856Y-910981D01*
X616856Y-910981D02*
X653142Y-838409D01*
X653142Y-838409D02*
X653142Y-765838D01*
X653142Y-765838D02*
X616856Y-693267D01*
X616856Y-693267D02*
X580571Y-656981D01*
X580571Y-656981D02*
X507999Y-620695D01*
X507999Y-620695D02*
X362856Y-584409D01*
X362856Y-584409D02*
X290285Y-548124D01*
X290285Y-548124D02*
X253999Y-511838D01*
X253999Y-511838D02*
X217713Y-439267D01*
X217713Y-439267D02*
X217713Y-366695D01*
X217713Y-366695D02*
X253999Y-294124D01*
X253999Y-294124D02*
X290285Y-257838D01*
X290285Y-257838D02*
X362856Y-221552D01*
X362856Y-221552D02*
X544285Y-221552D01*
X544285Y-221552D02*
X653142Y-257838D01*
X979713Y-983552D02*
X979713Y-221552D01*
X979713Y-584409D02*
X1415142Y-584409D01*
X1415142Y-983552D02*
X1415142Y-221552D01*
X1193590Y9524999D02*
X1193590Y9270999D01*
X794447Y9162142D02*
X794447Y9524999D01*
X794447Y9524999D02*
X1556447Y9524999D01*
X1556447Y9524999D02*
X1556447Y9162142D01*
X830733Y8871856D02*
X794447Y8762999D01*
X794447Y8762999D02*
X794447Y8581570D01*
X794447Y8581570D02*
X830733Y8508999D01*
X830733Y8508999D02*
X867018Y8472713D01*
X867018Y8472713D02*
X939590Y8436427D01*
X939590Y8436427D02*
X1012161Y8436427D01*
X1012161Y8436427D02*
X1084733Y8472713D01*
X1084733Y8472713D02*
X1121018Y8508999D01*
X1121018Y8508999D02*
X1157304Y8581570D01*
X1157304Y8581570D02*
X1193590Y8726713D01*
X1193590Y8726713D02*
X1229875Y8799284D01*
X1229875Y8799284D02*
X1266161Y8835570D01*
X1266161Y8835570D02*
X1338733Y8871856D01*
X1338733Y8871856D02*
X1411304Y8871856D01*
X1411304Y8871856D02*
X1483875Y8835570D01*
X1483875Y8835570D02*
X1520161Y8799284D01*
X1520161Y8799284D02*
X1556447Y8726713D01*
X1556447Y8726713D02*
X1556447Y8545284D01*
X1556447Y8545284D02*
X1520161Y8436427D01*
X794447Y8109856D02*
X1556447Y8109856D01*
X1556447Y8109856D02*
X1556447Y7819570D01*
X1556447Y7819570D02*
X1520161Y7746999D01*
X1520161Y7746999D02*
X1483875Y7710713D01*
X1483875Y7710713D02*
X1411304Y7674427D01*
X1411304Y7674427D02*
X1302447Y7674427D01*
X1302447Y7674427D02*
X1229875Y7710713D01*
X1229875Y7710713D02*
X1193590Y7746999D01*
X1193590Y7746999D02*
X1157304Y7819570D01*
X1157304Y7819570D02*
X1157304Y8109856D01*
X1556447Y7420427D02*
X1556447Y6948713D01*
X1556447Y6948713D02*
X1266161Y7202713D01*
X1266161Y7202713D02*
X1266161Y7093856D01*
X1266161Y7093856D02*
X1229875Y7021285D01*
X1229875Y7021285D02*
X1193590Y6984999D01*
X1193590Y6984999D02*
X1121018Y6948713D01*
X1121018Y6948713D02*
X939590Y6948713D01*
X939590Y6948713D02*
X867018Y6984999D01*
X867018Y6984999D02*
X830733Y7021285D01*
X830733Y7021285D02*
X794447Y7093856D01*
X794447Y7093856D02*
X794447Y7311570D01*
X794447Y7311570D02*
X830733Y7384142D01*
X830733Y7384142D02*
X867018Y7420427D01*
X1483875Y6658428D02*
X1520161Y6622142D01*
X1520161Y6622142D02*
X1556447Y6549571D01*
X1556447Y6549571D02*
X1556447Y6368142D01*
X1556447Y6368142D02*
X1520161Y6295571D01*
X1520161Y6295571D02*
X1483875Y6259285D01*
X1483875Y6259285D02*
X1411304Y6222999D01*
X1411304Y6222999D02*
X1338733Y6222999D01*
X1338733Y6222999D02*
X1229875Y6259285D01*
X1229875Y6259285D02*
X794447Y6694713D01*
X794447Y6694713D02*
X794447Y6222999D01*
X867018Y4880428D02*
X830733Y4916714D01*
X830733Y4916714D02*
X794447Y5025571D01*
X794447Y5025571D02*
X794447Y5098143D01*
X794447Y5098143D02*
X830733Y5207000D01*
X830733Y5207000D02*
X903304Y5279571D01*
X903304Y5279571D02*
X975875Y5315857D01*
X975875Y5315857D02*
X1121018Y5352143D01*
X1121018Y5352143D02*
X1229875Y5352143D01*
X1229875Y5352143D02*
X1375018Y5315857D01*
X1375018Y5315857D02*
X1447590Y5279571D01*
X1447590Y5279571D02*
X1520161Y5207000D01*
X1520161Y5207000D02*
X1556447Y5098143D01*
X1556447Y5098143D02*
X1556447Y5025571D01*
X1556447Y5025571D02*
X1520161Y4916714D01*
X1520161Y4916714D02*
X1483875Y4880428D01*
X1556447Y4626428D02*
X1556447Y4154714D01*
X1556447Y4154714D02*
X1266161Y4408714D01*
X1266161Y4408714D02*
X1266161Y4299857D01*
X1266161Y4299857D02*
X1229875Y4227286D01*
X1229875Y4227286D02*
X1193590Y4191000D01*
X1193590Y4191000D02*
X1121018Y4154714D01*
X1121018Y4154714D02*
X939590Y4154714D01*
X939590Y4154714D02*
X867018Y4191000D01*
X867018Y4191000D02*
X830733Y4227286D01*
X830733Y4227286D02*
X794447Y4299857D01*
X794447Y4299857D02*
X794447Y4517571D01*
X794447Y4517571D02*
X830733Y4590143D01*
X830733Y4590143D02*
X867018Y4626428D01*
D11*
X-16763999Y-9999231D02*
X-16763999Y-9237231D01*
X-16763999Y-9237231D02*
X-16328570Y-9999231D01*
X-16328570Y-9999231D02*
X-16328570Y-9237231D01*
X-16001999Y-9962946D02*
X-15893142Y-9999231D01*
X-15893142Y-9999231D02*
X-15711713Y-9999231D01*
X-15711713Y-9999231D02*
X-15639142Y-9962946D01*
X-15639142Y-9962946D02*
X-15602856Y-9926660D01*
X-15602856Y-9926660D02*
X-15566570Y-9854088D01*
X-15566570Y-9854088D02*
X-15566570Y-9781517D01*
X-15566570Y-9781517D02*
X-15602856Y-9708946D01*
X-15602856Y-9708946D02*
X-15639142Y-9672660D01*
X-15639142Y-9672660D02*
X-15711713Y-9636374D01*
X-15711713Y-9636374D02*
X-15856856Y-9600088D01*
X-15856856Y-9600088D02*
X-15929427Y-9563803D01*
X-15929427Y-9563803D02*
X-15965713Y-9527517D01*
X-15965713Y-9527517D02*
X-16001999Y-9454946D01*
X-16001999Y-9454946D02*
X-16001999Y-9382374D01*
X-16001999Y-9382374D02*
X-15965713Y-9309803D01*
X-15965713Y-9309803D02*
X-15929427Y-9273517D01*
X-15929427Y-9273517D02*
X-15856856Y-9237231D01*
X-15856856Y-9237231D02*
X-15675427Y-9237231D01*
X-15675427Y-9237231D02*
X-15566570Y-9273517D01*
X-14913428Y-9491231D02*
X-14913428Y-9999231D01*
X-15094856Y-9200946D02*
X-15276285Y-9745231D01*
X-15276285Y-9745231D02*
X-14804570Y-9745231D01*
X-14115142Y-9999231D02*
X-14550571Y-9999231D01*
X-14332856Y-9999231D02*
X-14332856Y-9237231D01*
X-14332856Y-9237231D02*
X-14405428Y-9346088D01*
X-14405428Y-9346088D02*
X-14477999Y-9418660D01*
X-14477999Y-9418660D02*
X-14550571Y-9454946D01*
X-13425714Y-9237231D02*
X-13788571Y-9237231D01*
X-13788571Y-9237231D02*
X-13824857Y-9600088D01*
X-13824857Y-9600088D02*
X-13788571Y-9563803D01*
X-13788571Y-9563803D02*
X-13716000Y-9527517D01*
X-13716000Y-9527517D02*
X-13534571Y-9527517D01*
X-13534571Y-9527517D02*
X-13462000Y-9563803D01*
X-13462000Y-9563803D02*
X-13425714Y-9600088D01*
X-13425714Y-9600088D02*
X-13389428Y-9672660D01*
X-13389428Y-9672660D02*
X-13389428Y-9854088D01*
X-13389428Y-9854088D02*
X-13425714Y-9926660D01*
X-13425714Y-9926660D02*
X-13462000Y-9962946D01*
X-13462000Y-9962946D02*
X-13534571Y-9999231D01*
X-13534571Y-9999231D02*
X-13716000Y-9999231D01*
X-13716000Y-9999231D02*
X-13788571Y-9962946D01*
X-13788571Y-9962946D02*
X-13824857Y-9926660D01*
X-12917714Y-9237231D02*
X-12845143Y-9237231D01*
X-12845143Y-9237231D02*
X-12772571Y-9273517D01*
X-12772571Y-9273517D02*
X-12736286Y-9309803D01*
X-12736286Y-9309803D02*
X-12700000Y-9382374D01*
X-12700000Y-9382374D02*
X-12663714Y-9527517D01*
X-12663714Y-9527517D02*
X-12663714Y-9708946D01*
X-12663714Y-9708946D02*
X-12700000Y-9854088D01*
X-12700000Y-9854088D02*
X-12736286Y-9926660D01*
X-12736286Y-9926660D02*
X-12772571Y-9962946D01*
X-12772571Y-9962946D02*
X-12845143Y-9999231D01*
X-12845143Y-9999231D02*
X-12917714Y-9999231D01*
X-12917714Y-9999231D02*
X-12990286Y-9962946D01*
X-12990286Y-9962946D02*
X-13026571Y-9926660D01*
X-13026571Y-9926660D02*
X-13062857Y-9854088D01*
X-13062857Y-9854088D02*
X-13099143Y-9708946D01*
X-13099143Y-9708946D02*
X-13099143Y-9527517D01*
X-13099143Y-9527517D02*
X-13062857Y-9382374D01*
X-13062857Y-9382374D02*
X-13026571Y-9309803D01*
X-13026571Y-9309803D02*
X-12990286Y-9273517D01*
X-12990286Y-9273517D02*
X-12917714Y-9237231D01*
X-12083143Y-9600088D02*
X-11974286Y-9636374D01*
X-11974286Y-9636374D02*
X-11938000Y-9672660D01*
X-11938000Y-9672660D02*
X-11901714Y-9745231D01*
X-11901714Y-9745231D02*
X-11901714Y-9854088D01*
X-11901714Y-9854088D02*
X-11938000Y-9926660D01*
X-11938000Y-9926660D02*
X-11974286Y-9962946D01*
X-11974286Y-9962946D02*
X-12046857Y-9999231D01*
X-12046857Y-9999231D02*
X-12337143Y-9999231D01*
X-12337143Y-9999231D02*
X-12337143Y-9237231D01*
X-12337143Y-9237231D02*
X-12083143Y-9237231D01*
X-12083143Y-9237231D02*
X-12010572Y-9273517D01*
X-12010572Y-9273517D02*
X-11974286Y-9309803D01*
X-11974286Y-9309803D02*
X-11938000Y-9382374D01*
X-11938000Y-9382374D02*
X-11938000Y-9454946D01*
X-11938000Y-9454946D02*
X-11974286Y-9527517D01*
X-11974286Y-9527517D02*
X-12010572Y-9563803D01*
X-12010572Y-9563803D02*
X-12083143Y-9600088D01*
X-12083143Y-9600088D02*
X-12337143Y-9600088D01*
X-7057570Y6401911D02*
X-6803570Y6401911D01*
X-6694713Y6002768D02*
X-7057570Y6002768D01*
X-7057570Y6002768D02*
X-7057570Y6764768D01*
X-7057570Y6764768D02*
X-6694713Y6764768D01*
X-6404427Y6039054D02*
X-6295570Y6002768D01*
X-6295570Y6002768D02*
X-6114141Y6002768D01*
X-6114141Y6002768D02*
X-6041570Y6039054D01*
X-6041570Y6039054D02*
X-6005284Y6075339D01*
X-6005284Y6075339D02*
X-5968998Y6147911D01*
X-5968998Y6147911D02*
X-5968998Y6220482D01*
X-5968998Y6220482D02*
X-6005284Y6293054D01*
X-6005284Y6293054D02*
X-6041570Y6329339D01*
X-6041570Y6329339D02*
X-6114141Y6365625D01*
X-6114141Y6365625D02*
X-6259284Y6401911D01*
X-6259284Y6401911D02*
X-6331855Y6438196D01*
X-6331855Y6438196D02*
X-6368141Y6474482D01*
X-6368141Y6474482D02*
X-6404427Y6547054D01*
X-6404427Y6547054D02*
X-6404427Y6619625D01*
X-6404427Y6619625D02*
X-6368141Y6692196D01*
X-6368141Y6692196D02*
X-6331855Y6728482D01*
X-6331855Y6728482D02*
X-6259284Y6764768D01*
X-6259284Y6764768D02*
X-6077855Y6764768D01*
X-6077855Y6764768D02*
X-5968998Y6728482D01*
X-5533570Y6438196D02*
X-5606141Y6474482D01*
X-5606141Y6474482D02*
X-5642427Y6510768D01*
X-5642427Y6510768D02*
X-5678713Y6583339D01*
X-5678713Y6583339D02*
X-5678713Y6619625D01*
X-5678713Y6619625D02*
X-5642427Y6692196D01*
X-5642427Y6692196D02*
X-5606141Y6728482D01*
X-5606141Y6728482D02*
X-5533570Y6764768D01*
X-5533570Y6764768D02*
X-5388427Y6764768D01*
X-5388427Y6764768D02*
X-5315856Y6728482D01*
X-5315856Y6728482D02*
X-5279570Y6692196D01*
X-5279570Y6692196D02*
X-5243284Y6619625D01*
X-5243284Y6619625D02*
X-5243284Y6583339D01*
X-5243284Y6583339D02*
X-5279570Y6510768D01*
X-5279570Y6510768D02*
X-5315856Y6474482D01*
X-5315856Y6474482D02*
X-5388427Y6438196D01*
X-5388427Y6438196D02*
X-5533570Y6438196D01*
X-5533570Y6438196D02*
X-5606141Y6401911D01*
X-5606141Y6401911D02*
X-5642427Y6365625D01*
X-5642427Y6365625D02*
X-5678713Y6293054D01*
X-5678713Y6293054D02*
X-5678713Y6147911D01*
X-5678713Y6147911D02*
X-5642427Y6075339D01*
X-5642427Y6075339D02*
X-5606141Y6039054D01*
X-5606141Y6039054D02*
X-5533570Y6002768D01*
X-5533570Y6002768D02*
X-5388427Y6002768D01*
X-5388427Y6002768D02*
X-5315856Y6039054D01*
X-5315856Y6039054D02*
X-5279570Y6075339D01*
X-5279570Y6075339D02*
X-5243284Y6147911D01*
X-5243284Y6147911D02*
X-5243284Y6293054D01*
X-5243284Y6293054D02*
X-5279570Y6365625D01*
X-5279570Y6365625D02*
X-5315856Y6401911D01*
X-5315856Y6401911D02*
X-5388427Y6438196D01*
X-4989284Y6764768D02*
X-4517570Y6764768D01*
X-4517570Y6764768D02*
X-4771570Y6474482D01*
X-4771570Y6474482D02*
X-4662713Y6474482D01*
X-4662713Y6474482D02*
X-4590142Y6438196D01*
X-4590142Y6438196D02*
X-4553856Y6401911D01*
X-4553856Y6401911D02*
X-4517570Y6329339D01*
X-4517570Y6329339D02*
X-4517570Y6147911D01*
X-4517570Y6147911D02*
X-4553856Y6075339D01*
X-4553856Y6075339D02*
X-4590142Y6039054D01*
X-4590142Y6039054D02*
X-4662713Y6002768D01*
X-4662713Y6002768D02*
X-4880427Y6002768D01*
X-4880427Y6002768D02*
X-4952999Y6039054D01*
X-4952999Y6039054D02*
X-4989284Y6075339D01*
X-3791856Y6002768D02*
X-4227285Y6002768D01*
X-4009570Y6002768D02*
X-4009570Y6764768D01*
X-4009570Y6764768D02*
X-4082142Y6655911D01*
X-4082142Y6655911D02*
X-4154713Y6583339D01*
X-4154713Y6583339D02*
X-4227285Y6547054D01*
X-3066142Y6002768D02*
X-3501571Y6002768D01*
X-3283856Y6002768D02*
X-3283856Y6764768D01*
X-3283856Y6764768D02*
X-3356428Y6655911D01*
X-3356428Y6655911D02*
X-3428999Y6583339D01*
X-3428999Y6583339D02*
X-3501571Y6547054D01*
D10*
X4807858Y-4920552D02*
X5243287Y-4920552D01*
X5025572Y-5682552D02*
X5025572Y-4920552D01*
X5497286Y-5682552D02*
X5497286Y-4920552D01*
X5497286Y-4920552D02*
X5787572Y-4920552D01*
X5787572Y-4920552D02*
X5860143Y-4956838D01*
X5860143Y-4956838D02*
X5896429Y-4993124D01*
X5896429Y-4993124D02*
X5932715Y-5065695D01*
X5932715Y-5065695D02*
X5932715Y-5174552D01*
X5932715Y-5174552D02*
X5896429Y-5247124D01*
X5896429Y-5247124D02*
X5860143Y-5283409D01*
X5860143Y-5283409D02*
X5787572Y-5319695D01*
X5787572Y-5319695D02*
X5497286Y-5319695D01*
X6585858Y-5174552D02*
X6585858Y-5682552D01*
X6404429Y-4884267D02*
X6223000Y-5428552D01*
X6223000Y-5428552D02*
X6694715Y-5428552D01*
X7130143Y-4920552D02*
X7202714Y-4920552D01*
X7202714Y-4920552D02*
X7275286Y-4956838D01*
X7275286Y-4956838D02*
X7311572Y-4993124D01*
X7311572Y-4993124D02*
X7347857Y-5065695D01*
X7347857Y-5065695D02*
X7384143Y-5210838D01*
X7384143Y-5210838D02*
X7384143Y-5392267D01*
X7384143Y-5392267D02*
X7347857Y-5537409D01*
X7347857Y-5537409D02*
X7311572Y-5609981D01*
X7311572Y-5609981D02*
X7275286Y-5646267D01*
X7275286Y-5646267D02*
X7202714Y-5682552D01*
X7202714Y-5682552D02*
X7130143Y-5682552D01*
X7130143Y-5682552D02*
X7057572Y-5646267D01*
X7057572Y-5646267D02*
X7021286Y-5609981D01*
X7021286Y-5609981D02*
X6985000Y-5537409D01*
X6985000Y-5537409D02*
X6948714Y-5392267D01*
X6948714Y-5392267D02*
X6948714Y-5210838D01*
X6948714Y-5210838D02*
X6985000Y-5065695D01*
X6985000Y-5065695D02*
X7021286Y-4993124D01*
X7021286Y-4993124D02*
X7057572Y-4956838D01*
X7057572Y-4956838D02*
X7130143Y-4920552D01*
X8073571Y-4920552D02*
X7710714Y-4920552D01*
X7710714Y-4920552D02*
X7674428Y-5283409D01*
X7674428Y-5283409D02*
X7710714Y-5247124D01*
X7710714Y-5247124D02*
X7783286Y-5210838D01*
X7783286Y-5210838D02*
X7964714Y-5210838D01*
X7964714Y-5210838D02*
X8037286Y-5247124D01*
X8037286Y-5247124D02*
X8073571Y-5283409D01*
X8073571Y-5283409D02*
X8109857Y-5355981D01*
X8109857Y-5355981D02*
X8109857Y-5537409D01*
X8109857Y-5537409D02*
X8073571Y-5609981D01*
X8073571Y-5609981D02*
X8037286Y-5646267D01*
X8037286Y-5646267D02*
X7964714Y-5682552D01*
X7964714Y-5682552D02*
X7783286Y-5682552D01*
X7783286Y-5682552D02*
X7710714Y-5646267D01*
X7710714Y-5646267D02*
X7674428Y-5609981D01*
X8363857Y-4920552D02*
X8871857Y-4920552D01*
X8871857Y-4920552D02*
X8545285Y-5682552D01*
D12*
X9753761Y18374716D02*
X10134714Y18374716D01*
X9677571Y18146144D02*
X9944238Y18946144D01*
X9944238Y18946144D02*
X10210904Y18146144D01*
X10477571Y18146144D02*
X10477571Y18946144D01*
X10477571Y18946144D02*
X10934714Y18146144D01*
X10934714Y18146144D02*
X10934714Y18946144D01*
X11201380Y18946144D02*
X11658523Y18946144D01*
X11429951Y18146144D02*
X11429951Y18946144D01*
X12344237Y18146144D02*
X11887094Y18146144D01*
X12115666Y18146144D02*
X12115666Y18946144D01*
X12115666Y18946144D02*
X12039475Y18831859D01*
X12039475Y18831859D02*
X11963285Y18755668D01*
X11963285Y18755668D02*
X11887094Y18717573D01*
X11855571Y-11279807D02*
X11969857Y-11317902D01*
X11969857Y-11317902D02*
X12007952Y-11355998D01*
X12007952Y-11355998D02*
X12046048Y-11432188D01*
X12046048Y-11432188D02*
X12046048Y-11546474D01*
X12046048Y-11546474D02*
X12007952Y-11622664D01*
X12007952Y-11622664D02*
X11969857Y-11660760D01*
X11969857Y-11660760D02*
X11893667Y-11698855D01*
X11893667Y-11698855D02*
X11588905Y-11698855D01*
X11588905Y-11698855D02*
X11588905Y-10898855D01*
X11588905Y-10898855D02*
X11855571Y-10898855D01*
X11855571Y-10898855D02*
X11931762Y-10936950D01*
X11931762Y-10936950D02*
X11969857Y-10975045D01*
X11969857Y-10975045D02*
X12007952Y-11051236D01*
X12007952Y-11051236D02*
X12007952Y-11127426D01*
X12007952Y-11127426D02*
X11969857Y-11203617D01*
X11969857Y-11203617D02*
X11931762Y-11241712D01*
X11931762Y-11241712D02*
X11855571Y-11279807D01*
X11855571Y-11279807D02*
X11588905Y-11279807D01*
X12350809Y-11470283D02*
X12731762Y-11470283D01*
X12274619Y-11698855D02*
X12541286Y-10898855D01*
X12541286Y-10898855D02*
X12807952Y-11698855D01*
X12960333Y-10898855D02*
X13417476Y-10898855D01*
X13188904Y-11698855D02*
X13188904Y-10898855D01*
X14103190Y-11698855D02*
X13646047Y-11698855D01*
X13874619Y-11698855D02*
X13874619Y-10898855D01*
X13874619Y-10898855D02*
X13798428Y-11013140D01*
X13798428Y-11013140D02*
X13722238Y-11089331D01*
X13722238Y-11089331D02*
X13646047Y-11127426D01*
X18200807Y8312333D02*
X18238902Y8426619D01*
X18238902Y8426619D02*
X18276998Y8464714D01*
X18276998Y8464714D02*
X18353188Y8502810D01*
X18353188Y8502810D02*
X18467474Y8502810D01*
X18467474Y8502810D02*
X18543664Y8464714D01*
X18543664Y8464714D02*
X18581760Y8426619D01*
X18581760Y8426619D02*
X18619855Y8350429D01*
X18619855Y8350429D02*
X18619855Y8045667D01*
X18619855Y8045667D02*
X17819855Y8045667D01*
X17819855Y8045667D02*
X17819855Y8312333D01*
X17819855Y8312333D02*
X17857950Y8388524D01*
X17857950Y8388524D02*
X17896045Y8426619D01*
X17896045Y8426619D02*
X17972236Y8464714D01*
X17972236Y8464714D02*
X18048426Y8464714D01*
X18048426Y8464714D02*
X18124617Y8426619D01*
X18124617Y8426619D02*
X18162712Y8388524D01*
X18162712Y8388524D02*
X18200807Y8312333D01*
X18200807Y8312333D02*
X18200807Y8045667D01*
X17819855Y8998048D02*
X17819855Y9150429D01*
X17819855Y9150429D02*
X17857950Y9226619D01*
X17857950Y9226619D02*
X17934140Y9302810D01*
X17934140Y9302810D02*
X18086521Y9340905D01*
X18086521Y9340905D02*
X18353188Y9340905D01*
X18353188Y9340905D02*
X18505569Y9302810D01*
X18505569Y9302810D02*
X18581760Y9226619D01*
X18581760Y9226619D02*
X18619855Y9150429D01*
X18619855Y9150429D02*
X18619855Y8998048D01*
X18619855Y8998048D02*
X18581760Y8921857D01*
X18581760Y8921857D02*
X18505569Y8845667D01*
X18505569Y8845667D02*
X18353188Y8807571D01*
X18353188Y8807571D02*
X18086521Y8807571D01*
X18086521Y8807571D02*
X17934140Y8845667D01*
X17934140Y8845667D02*
X17857950Y8921857D01*
X17857950Y8921857D02*
X17819855Y8998048D01*
X17819855Y9836143D02*
X17819855Y9988524D01*
X17819855Y9988524D02*
X17857950Y10064714D01*
X17857950Y10064714D02*
X17934140Y10140905D01*
X17934140Y10140905D02*
X18086521Y10179000D01*
X18086521Y10179000D02*
X18353188Y10179000D01*
X18353188Y10179000D02*
X18505569Y10140905D01*
X18505569Y10140905D02*
X18581760Y10064714D01*
X18581760Y10064714D02*
X18619855Y9988524D01*
X18619855Y9988524D02*
X18619855Y9836143D01*
X18619855Y9836143D02*
X18581760Y9759952D01*
X18581760Y9759952D02*
X18505569Y9683762D01*
X18505569Y9683762D02*
X18353188Y9645666D01*
X18353188Y9645666D02*
X18086521Y9645666D01*
X18086521Y9645666D02*
X17934140Y9683762D01*
X17934140Y9683762D02*
X17857950Y9759952D01*
X17857950Y9759952D02*
X17819855Y9836143D01*
X17819855Y10407571D02*
X17819855Y10864714D01*
X18619855Y10636142D02*
X17819855Y10636142D01*
X18619855Y11550428D02*
X18619855Y11093285D01*
X18619855Y11321857D02*
X17819855Y11321857D01*
X17819855Y11321857D02*
X17934140Y11245666D01*
X17934140Y11245666D02*
X18010331Y11169476D01*
X18010331Y11169476D02*
X18048426Y11093285D01*
X-11436332Y6411335D02*
X-11474428Y6373240D01*
X-11474428Y6373240D02*
X-11588713Y6335144D01*
X-11588713Y6335144D02*
X-11664904Y6335144D01*
X-11664904Y6335144D02*
X-11779190Y6373240D01*
X-11779190Y6373240D02*
X-11855380Y6449430D01*
X-11855380Y6449430D02*
X-11893475Y6525620D01*
X-11893475Y6525620D02*
X-11931571Y6678001D01*
X-11931571Y6678001D02*
X-11931571Y6792287D01*
X-11931571Y6792287D02*
X-11893475Y6944668D01*
X-11893475Y6944668D02*
X-11855380Y7020859D01*
X-11855380Y7020859D02*
X-11779190Y7097049D01*
X-11779190Y7097049D02*
X-11664904Y7135144D01*
X-11664904Y7135144D02*
X-11588713Y7135144D01*
X-11588713Y7135144D02*
X-11474428Y7097049D01*
X-11474428Y7097049D02*
X-11436332Y7058954D01*
X-10674428Y6335144D02*
X-11131571Y6335144D01*
X-10902999Y6335144D02*
X-10902999Y7135144D01*
X-10902999Y7135144D02*
X-10979190Y7020859D01*
X-10979190Y7020859D02*
X-11055380Y6944668D01*
X-11055380Y6944668D02*
X-11131571Y6906573D01*
X-11436332Y7554335D02*
X-11474428Y7516240D01*
X-11474428Y7516240D02*
X-11588713Y7478144D01*
X-11588713Y7478144D02*
X-11664904Y7478144D01*
X-11664904Y7478144D02*
X-11779190Y7516240D01*
X-11779190Y7516240D02*
X-11855380Y7592430D01*
X-11855380Y7592430D02*
X-11893475Y7668620D01*
X-11893475Y7668620D02*
X-11931571Y7821001D01*
X-11931571Y7821001D02*
X-11931571Y7935287D01*
X-11931571Y7935287D02*
X-11893475Y8087668D01*
X-11893475Y8087668D02*
X-11855380Y8163859D01*
X-11855380Y8163859D02*
X-11779190Y8240049D01*
X-11779190Y8240049D02*
X-11664904Y8278144D01*
X-11664904Y8278144D02*
X-11588713Y8278144D01*
X-11588713Y8278144D02*
X-11474428Y8240049D01*
X-11474428Y8240049D02*
X-11436332Y8201954D01*
X-11169666Y8278144D02*
X-10674428Y8278144D01*
X-10674428Y8278144D02*
X-10941094Y7973382D01*
X-10941094Y7973382D02*
X-10826809Y7973382D01*
X-10826809Y7973382D02*
X-10750618Y7935287D01*
X-10750618Y7935287D02*
X-10712523Y7897192D01*
X-10712523Y7897192D02*
X-10674428Y7821001D01*
X-10674428Y7821001D02*
X-10674428Y7630525D01*
X-10674428Y7630525D02*
X-10712523Y7554335D01*
X-10712523Y7554335D02*
X-10750618Y7516240D01*
X-10750618Y7516240D02*
X-10826809Y7478144D01*
X-10826809Y7478144D02*
X-11055380Y7478144D01*
X-11055380Y7478144D02*
X-11131571Y7516240D01*
X-11131571Y7516240D02*
X-11169666Y7554335D01*
X-11436332Y8697335D02*
X-11474428Y8659240D01*
X-11474428Y8659240D02*
X-11588713Y8621144D01*
X-11588713Y8621144D02*
X-11664904Y8621144D01*
X-11664904Y8621144D02*
X-11779190Y8659240D01*
X-11779190Y8659240D02*
X-11855380Y8735430D01*
X-11855380Y8735430D02*
X-11893475Y8811620D01*
X-11893475Y8811620D02*
X-11931571Y8964001D01*
X-11931571Y8964001D02*
X-11931571Y9078287D01*
X-11931571Y9078287D02*
X-11893475Y9230668D01*
X-11893475Y9230668D02*
X-11855380Y9306859D01*
X-11855380Y9306859D02*
X-11779190Y9383049D01*
X-11779190Y9383049D02*
X-11664904Y9421144D01*
X-11664904Y9421144D02*
X-11588713Y9421144D01*
X-11588713Y9421144D02*
X-11474428Y9383049D01*
X-11474428Y9383049D02*
X-11436332Y9344954D01*
X-10750618Y9154478D02*
X-10750618Y8621144D01*
X-10941094Y9459240D02*
X-11131571Y8887811D01*
X-11131571Y8887811D02*
X-10636332Y8887811D01*
X-7491335Y8629667D02*
X-7453240Y8591571D01*
X-7453240Y8591571D02*
X-7415144Y8477286D01*
X-7415144Y8477286D02*
X-7415144Y8401095D01*
X-7415144Y8401095D02*
X-7453240Y8286809D01*
X-7453240Y8286809D02*
X-7529430Y8210619D01*
X-7529430Y8210619D02*
X-7605620Y8172524D01*
X-7605620Y8172524D02*
X-7758001Y8134428D01*
X-7758001Y8134428D02*
X-7872287Y8134428D01*
X-7872287Y8134428D02*
X-8024668Y8172524D01*
X-8024668Y8172524D02*
X-8100859Y8210619D01*
X-8100859Y8210619D02*
X-8177049Y8286809D01*
X-8177049Y8286809D02*
X-8215144Y8401095D01*
X-8215144Y8401095D02*
X-8215144Y8477286D01*
X-8215144Y8477286D02*
X-8177049Y8591571D01*
X-8177049Y8591571D02*
X-8138954Y8629667D01*
X-8215144Y9353476D02*
X-8215144Y8972524D01*
X-8215144Y8972524D02*
X-7834192Y8934428D01*
X-7834192Y8934428D02*
X-7872287Y8972524D01*
X-7872287Y8972524D02*
X-7910382Y9048714D01*
X-7910382Y9048714D02*
X-7910382Y9239190D01*
X-7910382Y9239190D02*
X-7872287Y9315381D01*
X-7872287Y9315381D02*
X-7834192Y9353476D01*
X-7834192Y9353476D02*
X-7758001Y9391571D01*
X-7758001Y9391571D02*
X-7567525Y9391571D01*
X-7567525Y9391571D02*
X-7491335Y9353476D01*
X-7491335Y9353476D02*
X-7453240Y9315381D01*
X-7453240Y9315381D02*
X-7415144Y9239190D01*
X-7415144Y9239190D02*
X-7415144Y9048714D01*
X-7415144Y9048714D02*
X-7453240Y8972524D01*
X-7453240Y8972524D02*
X-7491335Y8934428D01*
X-6348335Y8629667D02*
X-6310240Y8591571D01*
X-6310240Y8591571D02*
X-6272144Y8477286D01*
X-6272144Y8477286D02*
X-6272144Y8401095D01*
X-6272144Y8401095D02*
X-6310240Y8286809D01*
X-6310240Y8286809D02*
X-6386430Y8210619D01*
X-6386430Y8210619D02*
X-6462620Y8172524D01*
X-6462620Y8172524D02*
X-6615001Y8134428D01*
X-6615001Y8134428D02*
X-6729287Y8134428D01*
X-6729287Y8134428D02*
X-6881668Y8172524D01*
X-6881668Y8172524D02*
X-6957859Y8210619D01*
X-6957859Y8210619D02*
X-7034049Y8286809D01*
X-7034049Y8286809D02*
X-7072144Y8401095D01*
X-7072144Y8401095D02*
X-7072144Y8477286D01*
X-7072144Y8477286D02*
X-7034049Y8591571D01*
X-7034049Y8591571D02*
X-6995954Y8629667D01*
X-7072144Y9315381D02*
X-7072144Y9163000D01*
X-7072144Y9163000D02*
X-7034049Y9086809D01*
X-7034049Y9086809D02*
X-6995954Y9048714D01*
X-6995954Y9048714D02*
X-6881668Y8972524D01*
X-6881668Y8972524D02*
X-6729287Y8934428D01*
X-6729287Y8934428D02*
X-6424525Y8934428D01*
X-6424525Y8934428D02*
X-6348335Y8972524D01*
X-6348335Y8972524D02*
X-6310240Y9010619D01*
X-6310240Y9010619D02*
X-6272144Y9086809D01*
X-6272144Y9086809D02*
X-6272144Y9239190D01*
X-6272144Y9239190D02*
X-6310240Y9315381D01*
X-6310240Y9315381D02*
X-6348335Y9353476D01*
X-6348335Y9353476D02*
X-6424525Y9391571D01*
X-6424525Y9391571D02*
X-6615001Y9391571D01*
X-6615001Y9391571D02*
X-6691192Y9353476D01*
X-6691192Y9353476D02*
X-6729287Y9315381D01*
X-6729287Y9315381D02*
X-6767382Y9239190D01*
X-6767382Y9239190D02*
X-6767382Y9086809D01*
X-6767382Y9086809D02*
X-6729287Y9010619D01*
X-6729287Y9010619D02*
X-6691192Y8972524D01*
X-6691192Y8972524D02*
X-6615001Y8934428D01*
X-12634335Y755667D02*
X-12596240Y717571D01*
X-12596240Y717571D02*
X-12558144Y603286D01*
X-12558144Y603286D02*
X-12558144Y527095D01*
X-12558144Y527095D02*
X-12596240Y412809D01*
X-12596240Y412809D02*
X-12672430Y336619D01*
X-12672430Y336619D02*
X-12748620Y298524D01*
X-12748620Y298524D02*
X-12901001Y260428D01*
X-12901001Y260428D02*
X-13015287Y260428D01*
X-13015287Y260428D02*
X-13167668Y298524D01*
X-13167668Y298524D02*
X-13243859Y336619D01*
X-13243859Y336619D02*
X-13320049Y412809D01*
X-13320049Y412809D02*
X-13358144Y527095D01*
X-13358144Y527095D02*
X-13358144Y603286D01*
X-13358144Y603286D02*
X-13320049Y717571D01*
X-13320049Y717571D02*
X-13281954Y755667D01*
X-13358144Y1022333D02*
X-13358144Y1555667D01*
X-13358144Y1555667D02*
X-12558144Y1212809D01*
X-13904335Y755667D02*
X-13866240Y717571D01*
X-13866240Y717571D02*
X-13828144Y603286D01*
X-13828144Y603286D02*
X-13828144Y527095D01*
X-13828144Y527095D02*
X-13866240Y412809D01*
X-13866240Y412809D02*
X-13942430Y336619D01*
X-13942430Y336619D02*
X-14018620Y298524D01*
X-14018620Y298524D02*
X-14171001Y260428D01*
X-14171001Y260428D02*
X-14285287Y260428D01*
X-14285287Y260428D02*
X-14437668Y298524D01*
X-14437668Y298524D02*
X-14513859Y336619D01*
X-14513859Y336619D02*
X-14590049Y412809D01*
X-14590049Y412809D02*
X-14628144Y527095D01*
X-14628144Y527095D02*
X-14628144Y603286D01*
X-14628144Y603286D02*
X-14590049Y717571D01*
X-14590049Y717571D02*
X-14551954Y755667D01*
X-14285287Y1212809D02*
X-14323382Y1136619D01*
X-14323382Y1136619D02*
X-14361478Y1098524D01*
X-14361478Y1098524D02*
X-14437668Y1060428D01*
X-14437668Y1060428D02*
X-14475763Y1060428D01*
X-14475763Y1060428D02*
X-14551954Y1098524D01*
X-14551954Y1098524D02*
X-14590049Y1136619D01*
X-14590049Y1136619D02*
X-14628144Y1212809D01*
X-14628144Y1212809D02*
X-14628144Y1365190D01*
X-14628144Y1365190D02*
X-14590049Y1441381D01*
X-14590049Y1441381D02*
X-14551954Y1479476D01*
X-14551954Y1479476D02*
X-14475763Y1517571D01*
X-14475763Y1517571D02*
X-14437668Y1517571D01*
X-14437668Y1517571D02*
X-14361478Y1479476D01*
X-14361478Y1479476D02*
X-14323382Y1441381D01*
X-14323382Y1441381D02*
X-14285287Y1365190D01*
X-14285287Y1365190D02*
X-14285287Y1212809D01*
X-14285287Y1212809D02*
X-14247192Y1136619D01*
X-14247192Y1136619D02*
X-14209097Y1098524D01*
X-14209097Y1098524D02*
X-14132906Y1060428D01*
X-14132906Y1060428D02*
X-13980525Y1060428D01*
X-13980525Y1060428D02*
X-13904335Y1098524D01*
X-13904335Y1098524D02*
X-13866240Y1136619D01*
X-13866240Y1136619D02*
X-13828144Y1212809D01*
X-13828144Y1212809D02*
X-13828144Y1365190D01*
X-13828144Y1365190D02*
X-13866240Y1441381D01*
X-13866240Y1441381D02*
X-13904335Y1479476D01*
X-13904335Y1479476D02*
X-13980525Y1517571D01*
X-13980525Y1517571D02*
X-14132906Y1517571D01*
X-14132906Y1517571D02*
X-14209097Y1479476D01*
X-14209097Y1479476D02*
X-14247192Y1441381D01*
X-14247192Y1441381D02*
X-14285287Y1365190D01*
X-6356332Y633335D02*
X-6394428Y595240D01*
X-6394428Y595240D02*
X-6508713Y557144D01*
X-6508713Y557144D02*
X-6584904Y557144D01*
X-6584904Y557144D02*
X-6699190Y595240D01*
X-6699190Y595240D02*
X-6775380Y671430D01*
X-6775380Y671430D02*
X-6813475Y747620D01*
X-6813475Y747620D02*
X-6851571Y900001D01*
X-6851571Y900001D02*
X-6851571Y1014287D01*
X-6851571Y1014287D02*
X-6813475Y1166668D01*
X-6813475Y1166668D02*
X-6775380Y1242859D01*
X-6775380Y1242859D02*
X-6699190Y1319049D01*
X-6699190Y1319049D02*
X-6584904Y1357144D01*
X-6584904Y1357144D02*
X-6508713Y1357144D01*
X-6508713Y1357144D02*
X-6394428Y1319049D01*
X-6394428Y1319049D02*
X-6356332Y1280954D01*
X-5975380Y557144D02*
X-5822999Y557144D01*
X-5822999Y557144D02*
X-5746809Y595240D01*
X-5746809Y595240D02*
X-5708713Y633335D01*
X-5708713Y633335D02*
X-5632523Y747620D01*
X-5632523Y747620D02*
X-5594428Y900001D01*
X-5594428Y900001D02*
X-5594428Y1204763D01*
X-5594428Y1204763D02*
X-5632523Y1280954D01*
X-5632523Y1280954D02*
X-5670618Y1319049D01*
X-5670618Y1319049D02*
X-5746809Y1357144D01*
X-5746809Y1357144D02*
X-5899190Y1357144D01*
X-5899190Y1357144D02*
X-5975380Y1319049D01*
X-5975380Y1319049D02*
X-6013475Y1280954D01*
X-6013475Y1280954D02*
X-6051571Y1204763D01*
X-6051571Y1204763D02*
X-6051571Y1014287D01*
X-6051571Y1014287D02*
X-6013475Y938097D01*
X-6013475Y938097D02*
X-5975380Y900001D01*
X-5975380Y900001D02*
X-5899190Y861906D01*
X-5899190Y861906D02*
X-5746809Y861906D01*
X-5746809Y861906D02*
X-5670618Y900001D01*
X-5670618Y900001D02*
X-5632523Y938097D01*
X-5632523Y938097D02*
X-5594428Y1014287D01*
X-3808335Y7994714D02*
X-3770240Y7956618D01*
X-3770240Y7956618D02*
X-3732144Y7842333D01*
X-3732144Y7842333D02*
X-3732144Y7766142D01*
X-3732144Y7766142D02*
X-3770240Y7651856D01*
X-3770240Y7651856D02*
X-3846430Y7575666D01*
X-3846430Y7575666D02*
X-3922620Y7537571D01*
X-3922620Y7537571D02*
X-4075001Y7499475D01*
X-4075001Y7499475D02*
X-4189287Y7499475D01*
X-4189287Y7499475D02*
X-4341668Y7537571D01*
X-4341668Y7537571D02*
X-4417859Y7575666D01*
X-4417859Y7575666D02*
X-4494049Y7651856D01*
X-4494049Y7651856D02*
X-4532144Y7766142D01*
X-4532144Y7766142D02*
X-4532144Y7842333D01*
X-4532144Y7842333D02*
X-4494049Y7956618D01*
X-4494049Y7956618D02*
X-4455954Y7994714D01*
X-3732144Y8756618D02*
X-3732144Y8299475D01*
X-3732144Y8528047D02*
X-4532144Y8528047D01*
X-4532144Y8528047D02*
X-4417859Y8451856D01*
X-4417859Y8451856D02*
X-4341668Y8375666D01*
X-4341668Y8375666D02*
X-4303573Y8299475D01*
X-3732144Y9518523D02*
X-3732144Y9061380D01*
X-3732144Y9289952D02*
X-4532144Y9289952D01*
X-4532144Y9289952D02*
X-4417859Y9213761D01*
X-4417859Y9213761D02*
X-4341668Y9137571D01*
X-4341668Y9137571D02*
X-4303573Y9061380D01*
X-14357285Y-13717664D02*
X-14395381Y-13755760D01*
X-14395381Y-13755760D02*
X-14509666Y-13793855D01*
X-14509666Y-13793855D02*
X-14585857Y-13793855D01*
X-14585857Y-13793855D02*
X-14700143Y-13755760D01*
X-14700143Y-13755760D02*
X-14776333Y-13679569D01*
X-14776333Y-13679569D02*
X-14814428Y-13603379D01*
X-14814428Y-13603379D02*
X-14852524Y-13450998D01*
X-14852524Y-13450998D02*
X-14852524Y-13336712D01*
X-14852524Y-13336712D02*
X-14814428Y-13184331D01*
X-14814428Y-13184331D02*
X-14776333Y-13108140D01*
X-14776333Y-13108140D02*
X-14700143Y-13031950D01*
X-14700143Y-13031950D02*
X-14585857Y-12993855D01*
X-14585857Y-12993855D02*
X-14509666Y-12993855D01*
X-14509666Y-12993855D02*
X-14395381Y-13031950D01*
X-14395381Y-13031950D02*
X-14357285Y-13070045D01*
X-13595381Y-13793855D02*
X-14052524Y-13793855D01*
X-13823952Y-13793855D02*
X-13823952Y-12993855D01*
X-13823952Y-12993855D02*
X-13900143Y-13108140D01*
X-13900143Y-13108140D02*
X-13976333Y-13184331D01*
X-13976333Y-13184331D02*
X-14052524Y-13222426D01*
X-13290619Y-13070045D02*
X-13252523Y-13031950D01*
X-13252523Y-13031950D02*
X-13176333Y-12993855D01*
X-13176333Y-12993855D02*
X-12985857Y-12993855D01*
X-12985857Y-12993855D02*
X-12909666Y-13031950D01*
X-12909666Y-13031950D02*
X-12871571Y-13070045D01*
X-12871571Y-13070045D02*
X-12833476Y-13146236D01*
X-12833476Y-13146236D02*
X-12833476Y-13222426D01*
X-12833476Y-13222426D02*
X-12871571Y-13336712D01*
X-12871571Y-13336712D02*
X-13328714Y-13793855D01*
X-13328714Y-13793855D02*
X-12833476Y-13793855D01*
X-9277285Y-9717664D02*
X-9315381Y-9755760D01*
X-9315381Y-9755760D02*
X-9429666Y-9793855D01*
X-9429666Y-9793855D02*
X-9505857Y-9793855D01*
X-9505857Y-9793855D02*
X-9620143Y-9755760D01*
X-9620143Y-9755760D02*
X-9696333Y-9679569D01*
X-9696333Y-9679569D02*
X-9734428Y-9603379D01*
X-9734428Y-9603379D02*
X-9772524Y-9450998D01*
X-9772524Y-9450998D02*
X-9772524Y-9336712D01*
X-9772524Y-9336712D02*
X-9734428Y-9184331D01*
X-9734428Y-9184331D02*
X-9696333Y-9108140D01*
X-9696333Y-9108140D02*
X-9620143Y-9031950D01*
X-9620143Y-9031950D02*
X-9505857Y-8993855D01*
X-9505857Y-8993855D02*
X-9429666Y-8993855D01*
X-9429666Y-8993855D02*
X-9315381Y-9031950D01*
X-9315381Y-9031950D02*
X-9277285Y-9070045D01*
X-8515381Y-9793855D02*
X-8972524Y-9793855D01*
X-8743952Y-9793855D02*
X-8743952Y-8993855D01*
X-8743952Y-8993855D02*
X-8820143Y-9108140D01*
X-8820143Y-9108140D02*
X-8896333Y-9184331D01*
X-8896333Y-9184331D02*
X-8972524Y-9222426D01*
X-8248714Y-8993855D02*
X-7753476Y-8993855D01*
X-7753476Y-8993855D02*
X-8020142Y-9298617D01*
X-8020142Y-9298617D02*
X-7905857Y-9298617D01*
X-7905857Y-9298617D02*
X-7829666Y-9336712D01*
X-7829666Y-9336712D02*
X-7791571Y-9374807D01*
X-7791571Y-9374807D02*
X-7753476Y-9450998D01*
X-7753476Y-9450998D02*
X-7753476Y-9641474D01*
X-7753476Y-9641474D02*
X-7791571Y-9717664D01*
X-7791571Y-9717664D02*
X-7829666Y-9755760D01*
X-7829666Y-9755760D02*
X-7905857Y-9793855D01*
X-7905857Y-9793855D02*
X-8134428Y-9793855D01*
X-8134428Y-9793855D02*
X-8210619Y-9755760D01*
X-8210619Y-9755760D02*
X-8248714Y-9717664D01*
X-9904335Y-1784285D02*
X-9866240Y-1822381D01*
X-9866240Y-1822381D02*
X-9828144Y-1936666D01*
X-9828144Y-1936666D02*
X-9828144Y-2012857D01*
X-9828144Y-2012857D02*
X-9866240Y-2127143D01*
X-9866240Y-2127143D02*
X-9942430Y-2203333D01*
X-9942430Y-2203333D02*
X-10018620Y-2241428D01*
X-10018620Y-2241428D02*
X-10171001Y-2279524D01*
X-10171001Y-2279524D02*
X-10285287Y-2279524D01*
X-10285287Y-2279524D02*
X-10437668Y-2241428D01*
X-10437668Y-2241428D02*
X-10513859Y-2203333D01*
X-10513859Y-2203333D02*
X-10590049Y-2127143D01*
X-10590049Y-2127143D02*
X-10628144Y-2012857D01*
X-10628144Y-2012857D02*
X-10628144Y-1936666D01*
X-10628144Y-1936666D02*
X-10590049Y-1822381D01*
X-10590049Y-1822381D02*
X-10551954Y-1784285D01*
X-9828144Y-1022381D02*
X-9828144Y-1479524D01*
X-9828144Y-1250952D02*
X-10628144Y-1250952D01*
X-10628144Y-1250952D02*
X-10513859Y-1327143D01*
X-10513859Y-1327143D02*
X-10437668Y-1403333D01*
X-10437668Y-1403333D02*
X-10399573Y-1479524D01*
X-10628144Y-336666D02*
X-10628144Y-489047D01*
X-10628144Y-489047D02*
X-10590049Y-565238D01*
X-10590049Y-565238D02*
X-10551954Y-603333D01*
X-10551954Y-603333D02*
X-10437668Y-679523D01*
X-10437668Y-679523D02*
X-10285287Y-717619D01*
X-10285287Y-717619D02*
X-9980525Y-717619D01*
X-9980525Y-717619D02*
X-9904335Y-679523D01*
X-9904335Y-679523D02*
X-9866240Y-641428D01*
X-9866240Y-641428D02*
X-9828144Y-565238D01*
X-9828144Y-565238D02*
X-9828144Y-412857D01*
X-9828144Y-412857D02*
X-9866240Y-336666D01*
X-9866240Y-336666D02*
X-9904335Y-298571D01*
X-9904335Y-298571D02*
X-9980525Y-260476D01*
X-9980525Y-260476D02*
X-10171001Y-260476D01*
X-10171001Y-260476D02*
X-10247192Y-298571D01*
X-10247192Y-298571D02*
X-10285287Y-336666D01*
X-10285287Y-336666D02*
X-10323382Y-412857D01*
X-10323382Y-412857D02*
X-10323382Y-565238D01*
X-10323382Y-565238D02*
X-10285287Y-641428D01*
X-10285287Y-641428D02*
X-10247192Y-679523D01*
X-10247192Y-679523D02*
X-10171001Y-717619D01*
X-8634335Y-1784285D02*
X-8596240Y-1822381D01*
X-8596240Y-1822381D02*
X-8558144Y-1936666D01*
X-8558144Y-1936666D02*
X-8558144Y-2012857D01*
X-8558144Y-2012857D02*
X-8596240Y-2127143D01*
X-8596240Y-2127143D02*
X-8672430Y-2203333D01*
X-8672430Y-2203333D02*
X-8748620Y-2241428D01*
X-8748620Y-2241428D02*
X-8901001Y-2279524D01*
X-8901001Y-2279524D02*
X-9015287Y-2279524D01*
X-9015287Y-2279524D02*
X-9167668Y-2241428D01*
X-9167668Y-2241428D02*
X-9243859Y-2203333D01*
X-9243859Y-2203333D02*
X-9320049Y-2127143D01*
X-9320049Y-2127143D02*
X-9358144Y-2012857D01*
X-9358144Y-2012857D02*
X-9358144Y-1936666D01*
X-9358144Y-1936666D02*
X-9320049Y-1822381D01*
X-9320049Y-1822381D02*
X-9281954Y-1784285D01*
X-8558144Y-1022381D02*
X-8558144Y-1479524D01*
X-8558144Y-1250952D02*
X-9358144Y-1250952D01*
X-9358144Y-1250952D02*
X-9243859Y-1327143D01*
X-9243859Y-1327143D02*
X-9167668Y-1403333D01*
X-9167668Y-1403333D02*
X-9129573Y-1479524D01*
X-9358144Y-755714D02*
X-9358144Y-222380D01*
X-9358144Y-222380D02*
X-8558144Y-565238D01*
X-8951335Y-8388285D02*
X-8913240Y-8426381D01*
X-8913240Y-8426381D02*
X-8875144Y-8540666D01*
X-8875144Y-8540666D02*
X-8875144Y-8616857D01*
X-8875144Y-8616857D02*
X-8913240Y-8731143D01*
X-8913240Y-8731143D02*
X-8989430Y-8807333D01*
X-8989430Y-8807333D02*
X-9065620Y-8845428D01*
X-9065620Y-8845428D02*
X-9218001Y-8883524D01*
X-9218001Y-8883524D02*
X-9332287Y-8883524D01*
X-9332287Y-8883524D02*
X-9484668Y-8845428D01*
X-9484668Y-8845428D02*
X-9560859Y-8807333D01*
X-9560859Y-8807333D02*
X-9637049Y-8731143D01*
X-9637049Y-8731143D02*
X-9675144Y-8616857D01*
X-9675144Y-8616857D02*
X-9675144Y-8540666D01*
X-9675144Y-8540666D02*
X-9637049Y-8426381D01*
X-9637049Y-8426381D02*
X-9598954Y-8388285D01*
X-8875144Y-7626381D02*
X-8875144Y-8083524D01*
X-8875144Y-7854952D02*
X-9675144Y-7854952D01*
X-9675144Y-7854952D02*
X-9560859Y-7931143D01*
X-9560859Y-7931143D02*
X-9484668Y-8007333D01*
X-9484668Y-8007333D02*
X-9446573Y-8083524D01*
X-9332287Y-7169238D02*
X-9370382Y-7245428D01*
X-9370382Y-7245428D02*
X-9408478Y-7283523D01*
X-9408478Y-7283523D02*
X-9484668Y-7321619D01*
X-9484668Y-7321619D02*
X-9522763Y-7321619D01*
X-9522763Y-7321619D02*
X-9598954Y-7283523D01*
X-9598954Y-7283523D02*
X-9637049Y-7245428D01*
X-9637049Y-7245428D02*
X-9675144Y-7169238D01*
X-9675144Y-7169238D02*
X-9675144Y-7016857D01*
X-9675144Y-7016857D02*
X-9637049Y-6940666D01*
X-9637049Y-6940666D02*
X-9598954Y-6902571D01*
X-9598954Y-6902571D02*
X-9522763Y-6864476D01*
X-9522763Y-6864476D02*
X-9484668Y-6864476D01*
X-9484668Y-6864476D02*
X-9408478Y-6902571D01*
X-9408478Y-6902571D02*
X-9370382Y-6940666D01*
X-9370382Y-6940666D02*
X-9332287Y-7016857D01*
X-9332287Y-7016857D02*
X-9332287Y-7169238D01*
X-9332287Y-7169238D02*
X-9294192Y-7245428D01*
X-9294192Y-7245428D02*
X-9256097Y-7283523D01*
X-9256097Y-7283523D02*
X-9179906Y-7321619D01*
X-9179906Y-7321619D02*
X-9027525Y-7321619D01*
X-9027525Y-7321619D02*
X-8951335Y-7283523D01*
X-8951335Y-7283523D02*
X-8913240Y-7245428D01*
X-8913240Y-7245428D02*
X-8875144Y-7169238D01*
X-8875144Y-7169238D02*
X-8875144Y-7016857D01*
X-8875144Y-7016857D02*
X-8913240Y-6940666D01*
X-8913240Y-6940666D02*
X-8951335Y-6902571D01*
X-8951335Y-6902571D02*
X-9027525Y-6864476D01*
X-9027525Y-6864476D02*
X-9179906Y-6864476D01*
X-9179906Y-6864476D02*
X-9256097Y-6902571D01*
X-9256097Y-6902571D02*
X-9294192Y-6940666D01*
X-9294192Y-6940666D02*
X-9332287Y-7016857D01*
X-17460335Y-8007285D02*
X-17422240Y-8045381D01*
X-17422240Y-8045381D02*
X-17384144Y-8159666D01*
X-17384144Y-8159666D02*
X-17384144Y-8235857D01*
X-17384144Y-8235857D02*
X-17422240Y-8350143D01*
X-17422240Y-8350143D02*
X-17498430Y-8426333D01*
X-17498430Y-8426333D02*
X-17574620Y-8464428D01*
X-17574620Y-8464428D02*
X-17727001Y-8502524D01*
X-17727001Y-8502524D02*
X-17841287Y-8502524D01*
X-17841287Y-8502524D02*
X-17993668Y-8464428D01*
X-17993668Y-8464428D02*
X-18069859Y-8426333D01*
X-18069859Y-8426333D02*
X-18146049Y-8350143D01*
X-18146049Y-8350143D02*
X-18184144Y-8235857D01*
X-18184144Y-8235857D02*
X-18184144Y-8159666D01*
X-18184144Y-8159666D02*
X-18146049Y-8045381D01*
X-18146049Y-8045381D02*
X-18107954Y-8007285D01*
X-17384144Y-7245381D02*
X-17384144Y-7702524D01*
X-17384144Y-7473952D02*
X-18184144Y-7473952D01*
X-18184144Y-7473952D02*
X-18069859Y-7550143D01*
X-18069859Y-7550143D02*
X-17993668Y-7626333D01*
X-17993668Y-7626333D02*
X-17955573Y-7702524D01*
X-17384144Y-6864428D02*
X-17384144Y-6712047D01*
X-17384144Y-6712047D02*
X-17422240Y-6635857D01*
X-17422240Y-6635857D02*
X-17460335Y-6597761D01*
X-17460335Y-6597761D02*
X-17574620Y-6521571D01*
X-17574620Y-6521571D02*
X-17727001Y-6483476D01*
X-17727001Y-6483476D02*
X-18031763Y-6483476D01*
X-18031763Y-6483476D02*
X-18107954Y-6521571D01*
X-18107954Y-6521571D02*
X-18146049Y-6559666D01*
X-18146049Y-6559666D02*
X-18184144Y-6635857D01*
X-18184144Y-6635857D02*
X-18184144Y-6788238D01*
X-18184144Y-6788238D02*
X-18146049Y-6864428D01*
X-18146049Y-6864428D02*
X-18107954Y-6902523D01*
X-18107954Y-6902523D02*
X-18031763Y-6940619D01*
X-18031763Y-6940619D02*
X-17841287Y-6940619D01*
X-17841287Y-6940619D02*
X-17765097Y-6902523D01*
X-17765097Y-6902523D02*
X-17727001Y-6864428D01*
X-17727001Y-6864428D02*
X-17688906Y-6788238D01*
X-17688906Y-6788238D02*
X-17688906Y-6635857D01*
X-17688906Y-6635857D02*
X-17727001Y-6559666D01*
X-17727001Y-6559666D02*
X-17765097Y-6521571D01*
X-17765097Y-6521571D02*
X-17841287Y-6483476D01*
X12820714Y-636664D02*
X12782618Y-674760D01*
X12782618Y-674760D02*
X12668333Y-712855D01*
X12668333Y-712855D02*
X12592142Y-712855D01*
X12592142Y-712855D02*
X12477856Y-674760D01*
X12477856Y-674760D02*
X12401666Y-598569D01*
X12401666Y-598569D02*
X12363571Y-522379D01*
X12363571Y-522379D02*
X12325475Y-369998D01*
X12325475Y-369998D02*
X12325475Y-255712D01*
X12325475Y-255712D02*
X12363571Y-103331D01*
X12363571Y-103331D02*
X12401666Y-27140D01*
X12401666Y-27140D02*
X12477856Y49049D01*
X12477856Y49049D02*
X12592142Y87144D01*
X12592142Y87144D02*
X12668333Y87144D01*
X12668333Y87144D02*
X12782618Y49049D01*
X12782618Y49049D02*
X12820714Y10954D01*
X13125475Y10954D02*
X13163571Y49049D01*
X13163571Y49049D02*
X13239761Y87144D01*
X13239761Y87144D02*
X13430237Y87144D01*
X13430237Y87144D02*
X13506428Y49049D01*
X13506428Y49049D02*
X13544523Y10954D01*
X13544523Y10954D02*
X13582618Y-65236D01*
X13582618Y-65236D02*
X13582618Y-141426D01*
X13582618Y-141426D02*
X13544523Y-255712D01*
X13544523Y-255712D02*
X13087380Y-712855D01*
X13087380Y-712855D02*
X13582618Y-712855D01*
X14344523Y-712855D02*
X13887380Y-712855D01*
X14115952Y-712855D02*
X14115952Y87144D01*
X14115952Y87144D02*
X14039761Y-27140D01*
X14039761Y-27140D02*
X13963571Y-103331D01*
X13963571Y-103331D02*
X13887380Y-141426D01*
X-1077335Y8121714D02*
X-1039240Y8083618D01*
X-1039240Y8083618D02*
X-1001144Y7969333D01*
X-1001144Y7969333D02*
X-1001144Y7893142D01*
X-1001144Y7893142D02*
X-1039240Y7778856D01*
X-1039240Y7778856D02*
X-1115430Y7702666D01*
X-1115430Y7702666D02*
X-1191620Y7664571D01*
X-1191620Y7664571D02*
X-1344001Y7626475D01*
X-1344001Y7626475D02*
X-1458287Y7626475D01*
X-1458287Y7626475D02*
X-1610668Y7664571D01*
X-1610668Y7664571D02*
X-1686859Y7702666D01*
X-1686859Y7702666D02*
X-1763049Y7778856D01*
X-1763049Y7778856D02*
X-1801144Y7893142D01*
X-1801144Y7893142D02*
X-1801144Y7969333D01*
X-1801144Y7969333D02*
X-1763049Y8083618D01*
X-1763049Y8083618D02*
X-1724954Y8121714D01*
X-1724954Y8426475D02*
X-1763049Y8464571D01*
X-1763049Y8464571D02*
X-1801144Y8540761D01*
X-1801144Y8540761D02*
X-1801144Y8731237D01*
X-1801144Y8731237D02*
X-1763049Y8807428D01*
X-1763049Y8807428D02*
X-1724954Y8845523D01*
X-1724954Y8845523D02*
X-1648763Y8883618D01*
X-1648763Y8883618D02*
X-1572573Y8883618D01*
X-1572573Y8883618D02*
X-1458287Y8845523D01*
X-1458287Y8845523D02*
X-1001144Y8388380D01*
X-1001144Y8388380D02*
X-1001144Y8883618D01*
X-1724954Y9188380D02*
X-1763049Y9226476D01*
X-1763049Y9226476D02*
X-1801144Y9302666D01*
X-1801144Y9302666D02*
X-1801144Y9493142D01*
X-1801144Y9493142D02*
X-1763049Y9569333D01*
X-1763049Y9569333D02*
X-1724954Y9607428D01*
X-1724954Y9607428D02*
X-1648763Y9645523D01*
X-1648763Y9645523D02*
X-1572573Y9645523D01*
X-1572573Y9645523D02*
X-1458287Y9607428D01*
X-1458287Y9607428D02*
X-1001144Y9150285D01*
X-1001144Y9150285D02*
X-1001144Y9645523D01*
X12820714Y8062335D02*
X12782618Y8024240D01*
X12782618Y8024240D02*
X12668333Y7986144D01*
X12668333Y7986144D02*
X12592142Y7986144D01*
X12592142Y7986144D02*
X12477856Y8024240D01*
X12477856Y8024240D02*
X12401666Y8100430D01*
X12401666Y8100430D02*
X12363571Y8176620D01*
X12363571Y8176620D02*
X12325475Y8329001D01*
X12325475Y8329001D02*
X12325475Y8443287D01*
X12325475Y8443287D02*
X12363571Y8595668D01*
X12363571Y8595668D02*
X12401666Y8671859D01*
X12401666Y8671859D02*
X12477856Y8748049D01*
X12477856Y8748049D02*
X12592142Y8786144D01*
X12592142Y8786144D02*
X12668333Y8786144D01*
X12668333Y8786144D02*
X12782618Y8748049D01*
X12782618Y8748049D02*
X12820714Y8709954D01*
X13125475Y8709954D02*
X13163571Y8748049D01*
X13163571Y8748049D02*
X13239761Y8786144D01*
X13239761Y8786144D02*
X13430237Y8786144D01*
X13430237Y8786144D02*
X13506428Y8748049D01*
X13506428Y8748049D02*
X13544523Y8709954D01*
X13544523Y8709954D02*
X13582618Y8633763D01*
X13582618Y8633763D02*
X13582618Y8557573D01*
X13582618Y8557573D02*
X13544523Y8443287D01*
X13544523Y8443287D02*
X13087380Y7986144D01*
X13087380Y7986144D02*
X13582618Y7986144D01*
X13849285Y8786144D02*
X14344523Y8786144D01*
X14344523Y8786144D02*
X14077857Y8481382D01*
X14077857Y8481382D02*
X14192142Y8481382D01*
X14192142Y8481382D02*
X14268333Y8443287D01*
X14268333Y8443287D02*
X14306428Y8405192D01*
X14306428Y8405192D02*
X14344523Y8329001D01*
X14344523Y8329001D02*
X14344523Y8138525D01*
X14344523Y8138525D02*
X14306428Y8062335D01*
X14306428Y8062335D02*
X14268333Y8024240D01*
X14268333Y8024240D02*
X14192142Y7986144D01*
X14192142Y7986144D02*
X13963571Y7986144D01*
X13963571Y7986144D02*
X13887380Y8024240D01*
X13887380Y8024240D02*
X13849285Y8062335D01*
X8883714Y9586335D02*
X8845618Y9548240D01*
X8845618Y9548240D02*
X8731333Y9510144D01*
X8731333Y9510144D02*
X8655142Y9510144D01*
X8655142Y9510144D02*
X8540856Y9548240D01*
X8540856Y9548240D02*
X8464666Y9624430D01*
X8464666Y9624430D02*
X8426571Y9700620D01*
X8426571Y9700620D02*
X8388475Y9853001D01*
X8388475Y9853001D02*
X8388475Y9967287D01*
X8388475Y9967287D02*
X8426571Y10119668D01*
X8426571Y10119668D02*
X8464666Y10195859D01*
X8464666Y10195859D02*
X8540856Y10272049D01*
X8540856Y10272049D02*
X8655142Y10310144D01*
X8655142Y10310144D02*
X8731333Y10310144D01*
X8731333Y10310144D02*
X8845618Y10272049D01*
X8845618Y10272049D02*
X8883714Y10233954D01*
X9188475Y10233954D02*
X9226571Y10272049D01*
X9226571Y10272049D02*
X9302761Y10310144D01*
X9302761Y10310144D02*
X9493237Y10310144D01*
X9493237Y10310144D02*
X9569428Y10272049D01*
X9569428Y10272049D02*
X9607523Y10233954D01*
X9607523Y10233954D02*
X9645618Y10157763D01*
X9645618Y10157763D02*
X9645618Y10081573D01*
X9645618Y10081573D02*
X9607523Y9967287D01*
X9607523Y9967287D02*
X9150380Y9510144D01*
X9150380Y9510144D02*
X9645618Y9510144D01*
X10369428Y10310144D02*
X9988476Y10310144D01*
X9988476Y10310144D02*
X9950380Y9929192D01*
X9950380Y9929192D02*
X9988476Y9967287D01*
X9988476Y9967287D02*
X10064666Y10005382D01*
X10064666Y10005382D02*
X10255142Y10005382D01*
X10255142Y10005382D02*
X10331333Y9967287D01*
X10331333Y9967287D02*
X10369428Y9929192D01*
X10369428Y9929192D02*
X10407523Y9853001D01*
X10407523Y9853001D02*
X10407523Y9662525D01*
X10407523Y9662525D02*
X10369428Y9586335D01*
X10369428Y9586335D02*
X10331333Y9548240D01*
X10331333Y9548240D02*
X10255142Y9510144D01*
X10255142Y9510144D02*
X10064666Y9510144D01*
X10064666Y9510144D02*
X9988476Y9548240D01*
X9988476Y9548240D02*
X9950380Y9586335D01*
X8883714Y8570335D02*
X8845618Y8532240D01*
X8845618Y8532240D02*
X8731333Y8494144D01*
X8731333Y8494144D02*
X8655142Y8494144D01*
X8655142Y8494144D02*
X8540856Y8532240D01*
X8540856Y8532240D02*
X8464666Y8608430D01*
X8464666Y8608430D02*
X8426571Y8684620D01*
X8426571Y8684620D02*
X8388475Y8837001D01*
X8388475Y8837001D02*
X8388475Y8951287D01*
X8388475Y8951287D02*
X8426571Y9103668D01*
X8426571Y9103668D02*
X8464666Y9179859D01*
X8464666Y9179859D02*
X8540856Y9256049D01*
X8540856Y9256049D02*
X8655142Y9294144D01*
X8655142Y9294144D02*
X8731333Y9294144D01*
X8731333Y9294144D02*
X8845618Y9256049D01*
X8845618Y9256049D02*
X8883714Y9217954D01*
X9188475Y9217954D02*
X9226571Y9256049D01*
X9226571Y9256049D02*
X9302761Y9294144D01*
X9302761Y9294144D02*
X9493237Y9294144D01*
X9493237Y9294144D02*
X9569428Y9256049D01*
X9569428Y9256049D02*
X9607523Y9217954D01*
X9607523Y9217954D02*
X9645618Y9141763D01*
X9645618Y9141763D02*
X9645618Y9065573D01*
X9645618Y9065573D02*
X9607523Y8951287D01*
X9607523Y8951287D02*
X9150380Y8494144D01*
X9150380Y8494144D02*
X9645618Y8494144D01*
X10331333Y9294144D02*
X10178952Y9294144D01*
X10178952Y9294144D02*
X10102761Y9256049D01*
X10102761Y9256049D02*
X10064666Y9217954D01*
X10064666Y9217954D02*
X9988476Y9103668D01*
X9988476Y9103668D02*
X9950380Y8951287D01*
X9950380Y8951287D02*
X9950380Y8646525D01*
X9950380Y8646525D02*
X9988476Y8570335D01*
X9988476Y8570335D02*
X10026571Y8532240D01*
X10026571Y8532240D02*
X10102761Y8494144D01*
X10102761Y8494144D02*
X10255142Y8494144D01*
X10255142Y8494144D02*
X10331333Y8532240D01*
X10331333Y8532240D02*
X10369428Y8570335D01*
X10369428Y8570335D02*
X10407523Y8646525D01*
X10407523Y8646525D02*
X10407523Y8837001D01*
X10407523Y8837001D02*
X10369428Y8913192D01*
X10369428Y8913192D02*
X10331333Y8951287D01*
X10331333Y8951287D02*
X10255142Y8989382D01*
X10255142Y8989382D02*
X10102761Y8989382D01*
X10102761Y8989382D02*
X10026571Y8951287D01*
X10026571Y8951287D02*
X9988476Y8913192D01*
X9988476Y8913192D02*
X9950380Y8837001D01*
X-61335Y9264714D02*
X-23240Y9226618D01*
X-23240Y9226618D02*
X14855Y9112333D01*
X14855Y9112333D02*
X14855Y9036142D01*
X14855Y9036142D02*
X-23240Y8921856D01*
X-23240Y8921856D02*
X-99430Y8845666D01*
X-99430Y8845666D02*
X-175620Y8807571D01*
X-175620Y8807571D02*
X-328001Y8769475D01*
X-328001Y8769475D02*
X-442287Y8769475D01*
X-442287Y8769475D02*
X-594668Y8807571D01*
X-594668Y8807571D02*
X-670859Y8845666D01*
X-670859Y8845666D02*
X-747049Y8921856D01*
X-747049Y8921856D02*
X-785144Y9036142D01*
X-785144Y9036142D02*
X-785144Y9112333D01*
X-785144Y9112333D02*
X-747049Y9226618D01*
X-747049Y9226618D02*
X-708954Y9264714D01*
X-708954Y9569475D02*
X-747049Y9607571D01*
X-747049Y9607571D02*
X-785144Y9683761D01*
X-785144Y9683761D02*
X-785144Y9874237D01*
X-785144Y9874237D02*
X-747049Y9950428D01*
X-747049Y9950428D02*
X-708954Y9988523D01*
X-708954Y9988523D02*
X-632763Y10026618D01*
X-632763Y10026618D02*
X-556573Y10026618D01*
X-556573Y10026618D02*
X-442287Y9988523D01*
X-442287Y9988523D02*
X14855Y9531380D01*
X14855Y9531380D02*
X14855Y10026618D01*
X-785144Y10293285D02*
X-785144Y10826619D01*
X-785144Y10826619D02*
X14855Y10483761D01*
X5081664Y9137714D02*
X5119760Y9099618D01*
X5119760Y9099618D02*
X5157855Y8985333D01*
X5157855Y8985333D02*
X5157855Y8909142D01*
X5157855Y8909142D02*
X5119760Y8794856D01*
X5119760Y8794856D02*
X5043569Y8718666D01*
X5043569Y8718666D02*
X4967379Y8680571D01*
X4967379Y8680571D02*
X4814998Y8642475D01*
X4814998Y8642475D02*
X4700712Y8642475D01*
X4700712Y8642475D02*
X4548331Y8680571D01*
X4548331Y8680571D02*
X4472140Y8718666D01*
X4472140Y8718666D02*
X4395950Y8794856D01*
X4395950Y8794856D02*
X4357855Y8909142D01*
X4357855Y8909142D02*
X4357855Y8985333D01*
X4357855Y8985333D02*
X4395950Y9099618D01*
X4395950Y9099618D02*
X4434045Y9137714D01*
X4434045Y9442475D02*
X4395950Y9480571D01*
X4395950Y9480571D02*
X4357855Y9556761D01*
X4357855Y9556761D02*
X4357855Y9747237D01*
X4357855Y9747237D02*
X4395950Y9823428D01*
X4395950Y9823428D02*
X4434045Y9861523D01*
X4434045Y9861523D02*
X4510236Y9899618D01*
X4510236Y9899618D02*
X4586426Y9899618D01*
X4586426Y9899618D02*
X4700712Y9861523D01*
X4700712Y9861523D02*
X5157855Y9404380D01*
X5157855Y9404380D02*
X5157855Y9899618D01*
X4700712Y10356761D02*
X4662617Y10280571D01*
X4662617Y10280571D02*
X4624521Y10242476D01*
X4624521Y10242476D02*
X4548331Y10204380D01*
X4548331Y10204380D02*
X4510236Y10204380D01*
X4510236Y10204380D02*
X4434045Y10242476D01*
X4434045Y10242476D02*
X4395950Y10280571D01*
X4395950Y10280571D02*
X4357855Y10356761D01*
X4357855Y10356761D02*
X4357855Y10509142D01*
X4357855Y10509142D02*
X4395950Y10585333D01*
X4395950Y10585333D02*
X4434045Y10623428D01*
X4434045Y10623428D02*
X4510236Y10661523D01*
X4510236Y10661523D02*
X4548331Y10661523D01*
X4548331Y10661523D02*
X4624521Y10623428D01*
X4624521Y10623428D02*
X4662617Y10585333D01*
X4662617Y10585333D02*
X4700712Y10509142D01*
X4700712Y10509142D02*
X4700712Y10356761D01*
X4700712Y10356761D02*
X4738807Y10280571D01*
X4738807Y10280571D02*
X4776902Y10242476D01*
X4776902Y10242476D02*
X4853093Y10204380D01*
X4853093Y10204380D02*
X5005474Y10204380D01*
X5005474Y10204380D02*
X5081664Y10242476D01*
X5081664Y10242476D02*
X5119760Y10280571D01*
X5119760Y10280571D02*
X5157855Y10356761D01*
X5157855Y10356761D02*
X5157855Y10509142D01*
X5157855Y10509142D02*
X5119760Y10585333D01*
X5119760Y10585333D02*
X5081664Y10623428D01*
X5081664Y10623428D02*
X5005474Y10661523D01*
X5005474Y10661523D02*
X4853093Y10661523D01*
X4853093Y10661523D02*
X4776902Y10623428D01*
X4776902Y10623428D02*
X4738807Y10585333D01*
X4738807Y10585333D02*
X4700712Y10509142D01*
X3367664Y9010714D02*
X3405760Y8972618D01*
X3405760Y8972618D02*
X3443855Y8858333D01*
X3443855Y8858333D02*
X3443855Y8782142D01*
X3443855Y8782142D02*
X3405760Y8667856D01*
X3405760Y8667856D02*
X3329569Y8591666D01*
X3329569Y8591666D02*
X3253379Y8553571D01*
X3253379Y8553571D02*
X3100998Y8515475D01*
X3100998Y8515475D02*
X2986712Y8515475D01*
X2986712Y8515475D02*
X2834331Y8553571D01*
X2834331Y8553571D02*
X2758140Y8591666D01*
X2758140Y8591666D02*
X2681950Y8667856D01*
X2681950Y8667856D02*
X2643855Y8782142D01*
X2643855Y8782142D02*
X2643855Y8858333D01*
X2643855Y8858333D02*
X2681950Y8972618D01*
X2681950Y8972618D02*
X2720045Y9010714D01*
X2720045Y9315475D02*
X2681950Y9353571D01*
X2681950Y9353571D02*
X2643855Y9429761D01*
X2643855Y9429761D02*
X2643855Y9620237D01*
X2643855Y9620237D02*
X2681950Y9696428D01*
X2681950Y9696428D02*
X2720045Y9734523D01*
X2720045Y9734523D02*
X2796236Y9772618D01*
X2796236Y9772618D02*
X2872426Y9772618D01*
X2872426Y9772618D02*
X2986712Y9734523D01*
X2986712Y9734523D02*
X3443855Y9277380D01*
X3443855Y9277380D02*
X3443855Y9772618D01*
X3443855Y10153571D02*
X3443855Y10305952D01*
X3443855Y10305952D02*
X3405760Y10382142D01*
X3405760Y10382142D02*
X3367664Y10420238D01*
X3367664Y10420238D02*
X3253379Y10496428D01*
X3253379Y10496428D02*
X3100998Y10534523D01*
X3100998Y10534523D02*
X2796236Y10534523D01*
X2796236Y10534523D02*
X2720045Y10496428D01*
X2720045Y10496428D02*
X2681950Y10458333D01*
X2681950Y10458333D02*
X2643855Y10382142D01*
X2643855Y10382142D02*
X2643855Y10229761D01*
X2643855Y10229761D02*
X2681950Y10153571D01*
X2681950Y10153571D02*
X2720045Y10115476D01*
X2720045Y10115476D02*
X2796236Y10077380D01*
X2796236Y10077380D02*
X2986712Y10077380D01*
X2986712Y10077380D02*
X3062902Y10115476D01*
X3062902Y10115476D02*
X3100998Y10153571D01*
X3100998Y10153571D02*
X3139093Y10229761D01*
X3139093Y10229761D02*
X3139093Y10382142D01*
X3139093Y10382142D02*
X3100998Y10458333D01*
X3100998Y10458333D02*
X3062902Y10496428D01*
X3062902Y10496428D02*
X2986712Y10534523D01*
X628714Y-1525664D02*
X590618Y-1563760D01*
X590618Y-1563760D02*
X476333Y-1601855D01*
X476333Y-1601855D02*
X400142Y-1601855D01*
X400142Y-1601855D02*
X285856Y-1563760D01*
X285856Y-1563760D02*
X209666Y-1487569D01*
X209666Y-1487569D02*
X171571Y-1411379D01*
X171571Y-1411379D02*
X133475Y-1258998D01*
X133475Y-1258998D02*
X133475Y-1144712D01*
X133475Y-1144712D02*
X171571Y-992331D01*
X171571Y-992331D02*
X209666Y-916140D01*
X209666Y-916140D02*
X285856Y-839950D01*
X285856Y-839950D02*
X400142Y-801855D01*
X400142Y-801855D02*
X476333Y-801855D01*
X476333Y-801855D02*
X590618Y-839950D01*
X590618Y-839950D02*
X628714Y-878045D01*
X895380Y-801855D02*
X1390618Y-801855D01*
X1390618Y-801855D02*
X1123952Y-1106617D01*
X1123952Y-1106617D02*
X1238237Y-1106617D01*
X1238237Y-1106617D02*
X1314428Y-1144712D01*
X1314428Y-1144712D02*
X1352523Y-1182807D01*
X1352523Y-1182807D02*
X1390618Y-1258998D01*
X1390618Y-1258998D02*
X1390618Y-1449474D01*
X1390618Y-1449474D02*
X1352523Y-1525664D01*
X1352523Y-1525664D02*
X1314428Y-1563760D01*
X1314428Y-1563760D02*
X1238237Y-1601855D01*
X1238237Y-1601855D02*
X1009666Y-1601855D01*
X1009666Y-1601855D02*
X933475Y-1563760D01*
X933475Y-1563760D02*
X895380Y-1525664D01*
X1657285Y-801855D02*
X2152523Y-801855D01*
X2152523Y-801855D02*
X1885857Y-1106617D01*
X1885857Y-1106617D02*
X2000142Y-1106617D01*
X2000142Y-1106617D02*
X2076333Y-1144712D01*
X2076333Y-1144712D02*
X2114428Y-1182807D01*
X2114428Y-1182807D02*
X2152523Y-1258998D01*
X2152523Y-1258998D02*
X2152523Y-1449474D01*
X2152523Y-1449474D02*
X2114428Y-1525664D01*
X2114428Y-1525664D02*
X2076333Y-1563760D01*
X2076333Y-1563760D02*
X2000142Y-1601855D01*
X2000142Y-1601855D02*
X1771571Y-1601855D01*
X1771571Y-1601855D02*
X1695380Y-1563760D01*
X1695380Y-1563760D02*
X1657285Y-1525664D01*
X5759514Y9650335D02*
X5721418Y9612240D01*
X5721418Y9612240D02*
X5607133Y9574144D01*
X5607133Y9574144D02*
X5530942Y9574144D01*
X5530942Y9574144D02*
X5416656Y9612240D01*
X5416656Y9612240D02*
X5340466Y9688430D01*
X5340466Y9688430D02*
X5302371Y9764620D01*
X5302371Y9764620D02*
X5264275Y9917001D01*
X5264275Y9917001D02*
X5264275Y10031287D01*
X5264275Y10031287D02*
X5302371Y10183668D01*
X5302371Y10183668D02*
X5340466Y10259859D01*
X5340466Y10259859D02*
X5416656Y10336049D01*
X5416656Y10336049D02*
X5530942Y10374144D01*
X5530942Y10374144D02*
X5607133Y10374144D01*
X5607133Y10374144D02*
X5721418Y10336049D01*
X5721418Y10336049D02*
X5759514Y10297954D01*
X6026180Y10374144D02*
X6521418Y10374144D01*
X6521418Y10374144D02*
X6254752Y10069382D01*
X6254752Y10069382D02*
X6369037Y10069382D01*
X6369037Y10069382D02*
X6445228Y10031287D01*
X6445228Y10031287D02*
X6483323Y9993192D01*
X6483323Y9993192D02*
X6521418Y9917001D01*
X6521418Y9917001D02*
X6521418Y9726525D01*
X6521418Y9726525D02*
X6483323Y9650335D01*
X6483323Y9650335D02*
X6445228Y9612240D01*
X6445228Y9612240D02*
X6369037Y9574144D01*
X6369037Y9574144D02*
X6140466Y9574144D01*
X6140466Y9574144D02*
X6064275Y9612240D01*
X6064275Y9612240D02*
X6026180Y9650335D01*
X7283323Y9574144D02*
X6826180Y9574144D01*
X7054752Y9574144D02*
X7054752Y10374144D01*
X7054752Y10374144D02*
X6978561Y10259859D01*
X6978561Y10259859D02*
X6902371Y10183668D01*
X6902371Y10183668D02*
X6826180Y10145573D01*
X6724714Y10856335D02*
X6686618Y10818240D01*
X6686618Y10818240D02*
X6572333Y10780144D01*
X6572333Y10780144D02*
X6496142Y10780144D01*
X6496142Y10780144D02*
X6381856Y10818240D01*
X6381856Y10818240D02*
X6305666Y10894430D01*
X6305666Y10894430D02*
X6267571Y10970620D01*
X6267571Y10970620D02*
X6229475Y11123001D01*
X6229475Y11123001D02*
X6229475Y11237287D01*
X6229475Y11237287D02*
X6267571Y11389668D01*
X6267571Y11389668D02*
X6305666Y11465859D01*
X6305666Y11465859D02*
X6381856Y11542049D01*
X6381856Y11542049D02*
X6496142Y11580144D01*
X6496142Y11580144D02*
X6572333Y11580144D01*
X6572333Y11580144D02*
X6686618Y11542049D01*
X6686618Y11542049D02*
X6724714Y11503954D01*
X6991380Y11580144D02*
X7486618Y11580144D01*
X7486618Y11580144D02*
X7219952Y11275382D01*
X7219952Y11275382D02*
X7334237Y11275382D01*
X7334237Y11275382D02*
X7410428Y11237287D01*
X7410428Y11237287D02*
X7448523Y11199192D01*
X7448523Y11199192D02*
X7486618Y11123001D01*
X7486618Y11123001D02*
X7486618Y10932525D01*
X7486618Y10932525D02*
X7448523Y10856335D01*
X7448523Y10856335D02*
X7410428Y10818240D01*
X7410428Y10818240D02*
X7334237Y10780144D01*
X7334237Y10780144D02*
X7105666Y10780144D01*
X7105666Y10780144D02*
X7029475Y10818240D01*
X7029475Y10818240D02*
X6991380Y10856335D01*
X7791380Y11503954D02*
X7829476Y11542049D01*
X7829476Y11542049D02*
X7905666Y11580144D01*
X7905666Y11580144D02*
X8096142Y11580144D01*
X8096142Y11580144D02*
X8172333Y11542049D01*
X8172333Y11542049D02*
X8210428Y11503954D01*
X8210428Y11503954D02*
X8248523Y11427763D01*
X8248523Y11427763D02*
X8248523Y11351573D01*
X8248523Y11351573D02*
X8210428Y11237287D01*
X8210428Y11237287D02*
X7753285Y10780144D01*
X7753285Y10780144D02*
X8248523Y10780144D01*
X-1911285Y2665335D02*
X-1949381Y2627240D01*
X-1949381Y2627240D02*
X-2063666Y2589144D01*
X-2063666Y2589144D02*
X-2139857Y2589144D01*
X-2139857Y2589144D02*
X-2254143Y2627240D01*
X-2254143Y2627240D02*
X-2330333Y2703430D01*
X-2330333Y2703430D02*
X-2368428Y2779620D01*
X-2368428Y2779620D02*
X-2406524Y2932001D01*
X-2406524Y2932001D02*
X-2406524Y3046287D01*
X-2406524Y3046287D02*
X-2368428Y3198668D01*
X-2368428Y3198668D02*
X-2330333Y3274859D01*
X-2330333Y3274859D02*
X-2254143Y3351049D01*
X-2254143Y3351049D02*
X-2139857Y3389144D01*
X-2139857Y3389144D02*
X-2063666Y3389144D01*
X-2063666Y3389144D02*
X-1949381Y3351049D01*
X-1949381Y3351049D02*
X-1911285Y3312954D01*
X-1644619Y3389144D02*
X-1149381Y3389144D01*
X-1149381Y3389144D02*
X-1416047Y3084382D01*
X-1416047Y3084382D02*
X-1301762Y3084382D01*
X-1301762Y3084382D02*
X-1225571Y3046287D01*
X-1225571Y3046287D02*
X-1187476Y3008192D01*
X-1187476Y3008192D02*
X-1149381Y2932001D01*
X-1149381Y2932001D02*
X-1149381Y2741525D01*
X-1149381Y2741525D02*
X-1187476Y2665335D01*
X-1187476Y2665335D02*
X-1225571Y2627240D01*
X-1225571Y2627240D02*
X-1301762Y2589144D01*
X-1301762Y2589144D02*
X-1530333Y2589144D01*
X-1530333Y2589144D02*
X-1606524Y2627240D01*
X-1606524Y2627240D02*
X-1644619Y2665335D01*
X-463666Y3122478D02*
X-463666Y2589144D01*
X-654142Y3427240D02*
X-844619Y2855811D01*
X-844619Y2855811D02*
X-349380Y2855811D01*
X-4951335Y-6102285D02*
X-4913240Y-6140381D01*
X-4913240Y-6140381D02*
X-4875144Y-6254666D01*
X-4875144Y-6254666D02*
X-4875144Y-6330857D01*
X-4875144Y-6330857D02*
X-4913240Y-6445143D01*
X-4913240Y-6445143D02*
X-4989430Y-6521333D01*
X-4989430Y-6521333D02*
X-5065620Y-6559428D01*
X-5065620Y-6559428D02*
X-5218001Y-6597524D01*
X-5218001Y-6597524D02*
X-5332287Y-6597524D01*
X-5332287Y-6597524D02*
X-5484668Y-6559428D01*
X-5484668Y-6559428D02*
X-5560859Y-6521333D01*
X-5560859Y-6521333D02*
X-5637049Y-6445143D01*
X-5637049Y-6445143D02*
X-5675144Y-6330857D01*
X-5675144Y-6330857D02*
X-5675144Y-6254666D01*
X-5675144Y-6254666D02*
X-5637049Y-6140381D01*
X-5637049Y-6140381D02*
X-5598954Y-6102285D01*
X-5598954Y-5797524D02*
X-5637049Y-5759428D01*
X-5637049Y-5759428D02*
X-5675144Y-5683238D01*
X-5675144Y-5683238D02*
X-5675144Y-5492762D01*
X-5675144Y-5492762D02*
X-5637049Y-5416571D01*
X-5637049Y-5416571D02*
X-5598954Y-5378476D01*
X-5598954Y-5378476D02*
X-5522763Y-5340381D01*
X-5522763Y-5340381D02*
X-5446573Y-5340381D01*
X-5446573Y-5340381D02*
X-5332287Y-5378476D01*
X-5332287Y-5378476D02*
X-4875144Y-5835619D01*
X-4875144Y-5835619D02*
X-4875144Y-5340381D01*
X-5675144Y-4845142D02*
X-5675144Y-4768952D01*
X-5675144Y-4768952D02*
X-5637049Y-4692761D01*
X-5637049Y-4692761D02*
X-5598954Y-4654666D01*
X-5598954Y-4654666D02*
X-5522763Y-4616571D01*
X-5522763Y-4616571D02*
X-5370382Y-4578476D01*
X-5370382Y-4578476D02*
X-5179906Y-4578476D01*
X-5179906Y-4578476D02*
X-5027525Y-4616571D01*
X-5027525Y-4616571D02*
X-4951335Y-4654666D01*
X-4951335Y-4654666D02*
X-4913240Y-4692761D01*
X-4913240Y-4692761D02*
X-4875144Y-4768952D01*
X-4875144Y-4768952D02*
X-4875144Y-4845142D01*
X-4875144Y-4845142D02*
X-4913240Y-4921333D01*
X-4913240Y-4921333D02*
X-4951335Y-4959428D01*
X-4951335Y-4959428D02*
X-5027525Y-4997523D01*
X-5027525Y-4997523D02*
X-5179906Y-5035619D01*
X-5179906Y-5035619D02*
X-5370382Y-5035619D01*
X-5370382Y-5035619D02*
X-5522763Y-4997523D01*
X-5522763Y-4997523D02*
X-5598954Y-4959428D01*
X-5598954Y-4959428D02*
X-5637049Y-4921333D01*
X-5637049Y-4921333D02*
X-5675144Y-4845142D01*
X8574664Y-5086285D02*
X8612760Y-5124381D01*
X8612760Y-5124381D02*
X8650855Y-5238666D01*
X8650855Y-5238666D02*
X8650855Y-5314857D01*
X8650855Y-5314857D02*
X8612760Y-5429143D01*
X8612760Y-5429143D02*
X8536569Y-5505333D01*
X8536569Y-5505333D02*
X8460379Y-5543428D01*
X8460379Y-5543428D02*
X8307998Y-5581524D01*
X8307998Y-5581524D02*
X8193712Y-5581524D01*
X8193712Y-5581524D02*
X8041331Y-5543428D01*
X8041331Y-5543428D02*
X7965140Y-5505333D01*
X7965140Y-5505333D02*
X7888950Y-5429143D01*
X7888950Y-5429143D02*
X7850855Y-5314857D01*
X7850855Y-5314857D02*
X7850855Y-5238666D01*
X7850855Y-5238666D02*
X7888950Y-5124381D01*
X7888950Y-5124381D02*
X7927045Y-5086285D01*
X8650855Y-4324381D02*
X8650855Y-4781524D01*
X8650855Y-4552952D02*
X7850855Y-4552952D01*
X7850855Y-4552952D02*
X7965140Y-4629143D01*
X7965140Y-4629143D02*
X8041331Y-4705333D01*
X8041331Y-4705333D02*
X8079426Y-4781524D01*
X7850855Y-3829142D02*
X7850855Y-3752952D01*
X7850855Y-3752952D02*
X7888950Y-3676761D01*
X7888950Y-3676761D02*
X7927045Y-3638666D01*
X7927045Y-3638666D02*
X8003236Y-3600571D01*
X8003236Y-3600571D02*
X8155617Y-3562476D01*
X8155617Y-3562476D02*
X8346093Y-3562476D01*
X8346093Y-3562476D02*
X8498474Y-3600571D01*
X8498474Y-3600571D02*
X8574664Y-3638666D01*
X8574664Y-3638666D02*
X8612760Y-3676761D01*
X8612760Y-3676761D02*
X8650855Y-3752952D01*
X8650855Y-3752952D02*
X8650855Y-3829142D01*
X8650855Y-3829142D02*
X8612760Y-3905333D01*
X8612760Y-3905333D02*
X8574664Y-3943428D01*
X8574664Y-3943428D02*
X8498474Y-3981523D01*
X8498474Y-3981523D02*
X8346093Y-4019619D01*
X8346093Y-4019619D02*
X8155617Y-4019619D01*
X8155617Y-4019619D02*
X8003236Y-3981523D01*
X8003236Y-3981523D02*
X7927045Y-3943428D01*
X7927045Y-3943428D02*
X7888950Y-3905333D01*
X7888950Y-3905333D02*
X7850855Y-3829142D01*
X14979714Y-2859664D02*
X14941618Y-2897760D01*
X14941618Y-2897760D02*
X14827333Y-2935855D01*
X14827333Y-2935855D02*
X14751142Y-2935855D01*
X14751142Y-2935855D02*
X14636856Y-2897760D01*
X14636856Y-2897760D02*
X14560666Y-2821569D01*
X14560666Y-2821569D02*
X14522571Y-2745379D01*
X14522571Y-2745379D02*
X14484475Y-2592998D01*
X14484475Y-2592998D02*
X14484475Y-2478712D01*
X14484475Y-2478712D02*
X14522571Y-2326331D01*
X14522571Y-2326331D02*
X14560666Y-2250140D01*
X14560666Y-2250140D02*
X14636856Y-2173950D01*
X14636856Y-2173950D02*
X14751142Y-2135855D01*
X14751142Y-2135855D02*
X14827333Y-2135855D01*
X14827333Y-2135855D02*
X14941618Y-2173950D01*
X14941618Y-2173950D02*
X14979714Y-2212045D01*
X15741618Y-2935855D02*
X15284475Y-2935855D01*
X15513047Y-2935855D02*
X15513047Y-2135855D01*
X15513047Y-2135855D02*
X15436856Y-2250140D01*
X15436856Y-2250140D02*
X15360666Y-2326331D01*
X15360666Y-2326331D02*
X15284475Y-2364426D01*
X16465428Y-2135855D02*
X16084476Y-2135855D01*
X16084476Y-2135855D02*
X16046380Y-2516807D01*
X16046380Y-2516807D02*
X16084476Y-2478712D01*
X16084476Y-2478712D02*
X16160666Y-2440617D01*
X16160666Y-2440617D02*
X16351142Y-2440617D01*
X16351142Y-2440617D02*
X16427333Y-2478712D01*
X16427333Y-2478712D02*
X16465428Y-2516807D01*
X16465428Y-2516807D02*
X16503523Y-2592998D01*
X16503523Y-2592998D02*
X16503523Y-2783474D01*
X16503523Y-2783474D02*
X16465428Y-2859664D01*
X16465428Y-2859664D02*
X16427333Y-2897760D01*
X16427333Y-2897760D02*
X16351142Y-2935855D01*
X16351142Y-2935855D02*
X16160666Y-2935855D01*
X16160666Y-2935855D02*
X16084476Y-2897760D01*
X16084476Y-2897760D02*
X16046380Y-2859664D01*
X15614714Y-1779664D02*
X15576618Y-1817760D01*
X15576618Y-1817760D02*
X15462333Y-1855855D01*
X15462333Y-1855855D02*
X15386142Y-1855855D01*
X15386142Y-1855855D02*
X15271856Y-1817760D01*
X15271856Y-1817760D02*
X15195666Y-1741569D01*
X15195666Y-1741569D02*
X15157571Y-1665379D01*
X15157571Y-1665379D02*
X15119475Y-1512998D01*
X15119475Y-1512998D02*
X15119475Y-1398712D01*
X15119475Y-1398712D02*
X15157571Y-1246331D01*
X15157571Y-1246331D02*
X15195666Y-1170140D01*
X15195666Y-1170140D02*
X15271856Y-1093950D01*
X15271856Y-1093950D02*
X15386142Y-1055855D01*
X15386142Y-1055855D02*
X15462333Y-1055855D01*
X15462333Y-1055855D02*
X15576618Y-1093950D01*
X15576618Y-1093950D02*
X15614714Y-1132045D01*
X16376618Y-1855855D02*
X15919475Y-1855855D01*
X16148047Y-1855855D02*
X16148047Y-1055855D01*
X16148047Y-1055855D02*
X16071856Y-1170140D01*
X16071856Y-1170140D02*
X15995666Y-1246331D01*
X15995666Y-1246331D02*
X15919475Y-1284426D01*
X17062333Y-1322521D02*
X17062333Y-1855855D01*
X16871857Y-1017760D02*
X16681380Y-1589188D01*
X16681380Y-1589188D02*
X17176619Y-1589188D01*
X-11436332Y1395335D02*
X-11474428Y1357240D01*
X-11474428Y1357240D02*
X-11588713Y1319144D01*
X-11588713Y1319144D02*
X-11664904Y1319144D01*
X-11664904Y1319144D02*
X-11779190Y1357240D01*
X-11779190Y1357240D02*
X-11855380Y1433430D01*
X-11855380Y1433430D02*
X-11893475Y1509620D01*
X-11893475Y1509620D02*
X-11931571Y1662001D01*
X-11931571Y1662001D02*
X-11931571Y1776287D01*
X-11931571Y1776287D02*
X-11893475Y1928668D01*
X-11893475Y1928668D02*
X-11855380Y2004859D01*
X-11855380Y2004859D02*
X-11779190Y2081049D01*
X-11779190Y2081049D02*
X-11664904Y2119144D01*
X-11664904Y2119144D02*
X-11588713Y2119144D01*
X-11588713Y2119144D02*
X-11474428Y2081049D01*
X-11474428Y2081049D02*
X-11436332Y2042954D01*
X-11131571Y2042954D02*
X-11093475Y2081049D01*
X-11093475Y2081049D02*
X-11017285Y2119144D01*
X-11017285Y2119144D02*
X-10826809Y2119144D01*
X-10826809Y2119144D02*
X-10750618Y2081049D01*
X-10750618Y2081049D02*
X-10712523Y2042954D01*
X-10712523Y2042954D02*
X-10674428Y1966763D01*
X-10674428Y1966763D02*
X-10674428Y1890573D01*
X-10674428Y1890573D02*
X-10712523Y1776287D01*
X-10712523Y1776287D02*
X-11169666Y1319144D01*
X-11169666Y1319144D02*
X-10674428Y1319144D01*
X-3054285Y17460335D02*
X-3092381Y17422240D01*
X-3092381Y17422240D02*
X-3206666Y17384144D01*
X-3206666Y17384144D02*
X-3282857Y17384144D01*
X-3282857Y17384144D02*
X-3397143Y17422240D01*
X-3397143Y17422240D02*
X-3473333Y17498430D01*
X-3473333Y17498430D02*
X-3511428Y17574620D01*
X-3511428Y17574620D02*
X-3549524Y17727001D01*
X-3549524Y17727001D02*
X-3549524Y17841287D01*
X-3549524Y17841287D02*
X-3511428Y17993668D01*
X-3511428Y17993668D02*
X-3473333Y18069859D01*
X-3473333Y18069859D02*
X-3397143Y18146049D01*
X-3397143Y18146049D02*
X-3282857Y18184144D01*
X-3282857Y18184144D02*
X-3206666Y18184144D01*
X-3206666Y18184144D02*
X-3092381Y18146049D01*
X-3092381Y18146049D02*
X-3054285Y18107954D01*
X-2749524Y18107954D02*
X-2711428Y18146049D01*
X-2711428Y18146049D02*
X-2635238Y18184144D01*
X-2635238Y18184144D02*
X-2444762Y18184144D01*
X-2444762Y18184144D02*
X-2368571Y18146049D01*
X-2368571Y18146049D02*
X-2330476Y18107954D01*
X-2330476Y18107954D02*
X-2292381Y18031763D01*
X-2292381Y18031763D02*
X-2292381Y17955573D01*
X-2292381Y17955573D02*
X-2330476Y17841287D01*
X-2330476Y17841287D02*
X-2787619Y17384144D01*
X-2787619Y17384144D02*
X-2292381Y17384144D01*
X-1606666Y17917478D02*
X-1606666Y17384144D01*
X-1797142Y18222240D02*
X-1987619Y17650811D01*
X-1987619Y17650811D02*
X-1492380Y17650811D01*
X4637664Y-2673285D02*
X4675760Y-2711381D01*
X4675760Y-2711381D02*
X4713855Y-2825666D01*
X4713855Y-2825666D02*
X4713855Y-2901857D01*
X4713855Y-2901857D02*
X4675760Y-3016143D01*
X4675760Y-3016143D02*
X4599569Y-3092333D01*
X4599569Y-3092333D02*
X4523379Y-3130428D01*
X4523379Y-3130428D02*
X4370998Y-3168524D01*
X4370998Y-3168524D02*
X4256712Y-3168524D01*
X4256712Y-3168524D02*
X4104331Y-3130428D01*
X4104331Y-3130428D02*
X4028140Y-3092333D01*
X4028140Y-3092333D02*
X3951950Y-3016143D01*
X3951950Y-3016143D02*
X3913855Y-2901857D01*
X3913855Y-2901857D02*
X3913855Y-2825666D01*
X3913855Y-2825666D02*
X3951950Y-2711381D01*
X3951950Y-2711381D02*
X3990045Y-2673285D01*
X3913855Y-2406619D02*
X3913855Y-1911381D01*
X3913855Y-1911381D02*
X4218617Y-2178047D01*
X4218617Y-2178047D02*
X4218617Y-2063762D01*
X4218617Y-2063762D02*
X4256712Y-1987571D01*
X4256712Y-1987571D02*
X4294807Y-1949476D01*
X4294807Y-1949476D02*
X4370998Y-1911381D01*
X4370998Y-1911381D02*
X4561474Y-1911381D01*
X4561474Y-1911381D02*
X4637664Y-1949476D01*
X4637664Y-1949476D02*
X4675760Y-1987571D01*
X4675760Y-1987571D02*
X4713855Y-2063762D01*
X4713855Y-2063762D02*
X4713855Y-2292333D01*
X4713855Y-2292333D02*
X4675760Y-2368524D01*
X4675760Y-2368524D02*
X4637664Y-2406619D01*
X3913855Y-1416142D02*
X3913855Y-1339952D01*
X3913855Y-1339952D02*
X3951950Y-1263761D01*
X3951950Y-1263761D02*
X3990045Y-1225666D01*
X3990045Y-1225666D02*
X4066236Y-1187571D01*
X4066236Y-1187571D02*
X4218617Y-1149476D01*
X4218617Y-1149476D02*
X4409093Y-1149476D01*
X4409093Y-1149476D02*
X4561474Y-1187571D01*
X4561474Y-1187571D02*
X4637664Y-1225666D01*
X4637664Y-1225666D02*
X4675760Y-1263761D01*
X4675760Y-1263761D02*
X4713855Y-1339952D01*
X4713855Y-1339952D02*
X4713855Y-1416142D01*
X4713855Y-1416142D02*
X4675760Y-1492333D01*
X4675760Y-1492333D02*
X4637664Y-1530428D01*
X4637664Y-1530428D02*
X4561474Y-1568523D01*
X4561474Y-1568523D02*
X4409093Y-1606619D01*
X4409093Y-1606619D02*
X4218617Y-1606619D01*
X4218617Y-1606619D02*
X4066236Y-1568523D01*
X4066236Y-1568523D02*
X3990045Y-1530428D01*
X3990045Y-1530428D02*
X3951950Y-1492333D01*
X3951950Y-1492333D02*
X3913855Y-1416142D01*
X12714855Y9188524D02*
X11914855Y9188524D01*
X11914855Y9188524D02*
X11914855Y9379000D01*
X11914855Y9379000D02*
X11952950Y9493286D01*
X11952950Y9493286D02*
X12029140Y9569476D01*
X12029140Y9569476D02*
X12105331Y9607571D01*
X12105331Y9607571D02*
X12257712Y9645667D01*
X12257712Y9645667D02*
X12371998Y9645667D01*
X12371998Y9645667D02*
X12524379Y9607571D01*
X12524379Y9607571D02*
X12600569Y9569476D01*
X12600569Y9569476D02*
X12676760Y9493286D01*
X12676760Y9493286D02*
X12714855Y9379000D01*
X12714855Y9379000D02*
X12714855Y9188524D01*
X12181521Y10331381D02*
X12714855Y10331381D01*
X11876760Y10140905D02*
X12448188Y9950428D01*
X12448188Y9950428D02*
X12448188Y10445667D01*
X-3605144Y-16846475D02*
X-4405144Y-16846475D01*
X-4405144Y-16846475D02*
X-4405144Y-16655999D01*
X-4405144Y-16655999D02*
X-4367049Y-16541713D01*
X-4367049Y-16541713D02*
X-4290859Y-16465523D01*
X-4290859Y-16465523D02*
X-4214668Y-16427428D01*
X-4214668Y-16427428D02*
X-4062287Y-16389332D01*
X-4062287Y-16389332D02*
X-3948001Y-16389332D01*
X-3948001Y-16389332D02*
X-3795620Y-16427428D01*
X-3795620Y-16427428D02*
X-3719430Y-16465523D01*
X-3719430Y-16465523D02*
X-3643240Y-16541713D01*
X-3643240Y-16541713D02*
X-3605144Y-16655999D01*
X-3605144Y-16655999D02*
X-3605144Y-16846475D01*
X-3605144Y-15627428D02*
X-3605144Y-16084571D01*
X-3605144Y-15855999D02*
X-4405144Y-15855999D01*
X-4405144Y-15855999D02*
X-4290859Y-15932190D01*
X-4290859Y-15932190D02*
X-4214668Y-16008380D01*
X-4214668Y-16008380D02*
X-4176573Y-16084571D01*
X425524Y-8269855D02*
X425524Y-7469855D01*
X425524Y-7469855D02*
X616000Y-7469855D01*
X616000Y-7469855D02*
X730286Y-7507950D01*
X730286Y-7507950D02*
X806476Y-7584140D01*
X806476Y-7584140D02*
X844571Y-7660331D01*
X844571Y-7660331D02*
X882667Y-7812712D01*
X882667Y-7812712D02*
X882667Y-7926998D01*
X882667Y-7926998D02*
X844571Y-8079379D01*
X844571Y-8079379D02*
X806476Y-8155569D01*
X806476Y-8155569D02*
X730286Y-8231760D01*
X730286Y-8231760D02*
X616000Y-8269855D01*
X616000Y-8269855D02*
X425524Y-8269855D01*
X1187428Y-7546045D02*
X1225524Y-7507950D01*
X1225524Y-7507950D02*
X1301714Y-7469855D01*
X1301714Y-7469855D02*
X1492190Y-7469855D01*
X1492190Y-7469855D02*
X1568381Y-7507950D01*
X1568381Y-7507950D02*
X1606476Y-7546045D01*
X1606476Y-7546045D02*
X1644571Y-7622236D01*
X1644571Y-7622236D02*
X1644571Y-7698426D01*
X1644571Y-7698426D02*
X1606476Y-7812712D01*
X1606476Y-7812712D02*
X1149333Y-8269855D01*
X1149333Y-8269855D02*
X1644571Y-8269855D01*
X-1606475Y-12269855D02*
X-1606475Y-11469855D01*
X-1606475Y-11469855D02*
X-1415999Y-11469855D01*
X-1415999Y-11469855D02*
X-1301713Y-11507950D01*
X-1301713Y-11507950D02*
X-1225523Y-11584140D01*
X-1225523Y-11584140D02*
X-1187428Y-11660331D01*
X-1187428Y-11660331D02*
X-1149332Y-11812712D01*
X-1149332Y-11812712D02*
X-1149332Y-11926998D01*
X-1149332Y-11926998D02*
X-1187428Y-12079379D01*
X-1187428Y-12079379D02*
X-1225523Y-12155569D01*
X-1225523Y-12155569D02*
X-1301713Y-12231760D01*
X-1301713Y-12231760D02*
X-1415999Y-12269855D01*
X-1415999Y-12269855D02*
X-1606475Y-12269855D01*
X-882666Y-11469855D02*
X-387428Y-11469855D01*
X-387428Y-11469855D02*
X-654094Y-11774617D01*
X-654094Y-11774617D02*
X-539809Y-11774617D01*
X-539809Y-11774617D02*
X-463618Y-11812712D01*
X-463618Y-11812712D02*
X-425523Y-11850807D01*
X-425523Y-11850807D02*
X-387428Y-11926998D01*
X-387428Y-11926998D02*
X-387428Y-12117474D01*
X-387428Y-12117474D02*
X-425523Y-12193664D01*
X-425523Y-12193664D02*
X-463618Y-12231760D01*
X-463618Y-12231760D02*
X-539809Y-12269855D01*
X-539809Y-12269855D02*
X-768380Y-12269855D01*
X-768380Y-12269855D02*
X-844571Y-12231760D01*
X-844571Y-12231760D02*
X-882666Y-12193664D01*
X-971427Y15225144D02*
X-971427Y16025144D01*
X-590475Y15225144D02*
X-590475Y16025144D01*
X247619Y15301335D02*
X209523Y15263240D01*
X209523Y15263240D02*
X95238Y15225144D01*
X95238Y15225144D02*
X19047Y15225144D01*
X19047Y15225144D02*
X-95238Y15263240D01*
X-95238Y15263240D02*
X-171428Y15339430D01*
X-171428Y15339430D02*
X-209523Y15415620D01*
X-209523Y15415620D02*
X-247619Y15568001D01*
X-247619Y15568001D02*
X-247619Y15682287D01*
X-247619Y15682287D02*
X-209523Y15834668D01*
X-209523Y15834668D02*
X-171428Y15910859D01*
X-171428Y15910859D02*
X-95238Y15987049D01*
X-95238Y15987049D02*
X19047Y16025144D01*
X19047Y16025144D02*
X95238Y16025144D01*
X95238Y16025144D02*
X209523Y15987049D01*
X209523Y15987049D02*
X247619Y15948954D01*
X1009523Y15225144D02*
X552380Y15225144D01*
X780952Y15225144D02*
X780952Y16025144D01*
X780952Y16025144D02*
X704761Y15910859D01*
X704761Y15910859D02*
X628571Y15834668D01*
X628571Y15834668D02*
X552380Y15796573D01*
X6300855Y9645666D02*
X6300855Y9264714D01*
X6300855Y9264714D02*
X5500855Y9264714D01*
X6300855Y10331380D02*
X6300855Y9874237D01*
X6300855Y10102809D02*
X5500855Y10102809D01*
X5500855Y10102809D02*
X5615140Y10026618D01*
X5615140Y10026618D02*
X5691331Y9950428D01*
X5691331Y9950428D02*
X5729426Y9874237D01*
X9772666Y2716144D02*
X9391714Y2716144D01*
X9391714Y2716144D02*
X9391714Y3516144D01*
X9963142Y3516144D02*
X10458380Y3516144D01*
X10458380Y3516144D02*
X10191714Y3211382D01*
X10191714Y3211382D02*
X10305999Y3211382D01*
X10305999Y3211382D02*
X10382190Y3173287D01*
X10382190Y3173287D02*
X10420285Y3135192D01*
X10420285Y3135192D02*
X10458380Y3059001D01*
X10458380Y3059001D02*
X10458380Y2868525D01*
X10458380Y2868525D02*
X10420285Y2792335D01*
X10420285Y2792335D02*
X10382190Y2754240D01*
X10382190Y2754240D02*
X10305999Y2716144D01*
X10305999Y2716144D02*
X10077428Y2716144D01*
X10077428Y2716144D02*
X10001237Y2754240D01*
X10001237Y2754240D02*
X9963142Y2792335D01*
X14922619Y-522855D02*
X14541667Y-522855D01*
X14541667Y-522855D02*
X14541667Y277144D01*
X15189286Y-522855D02*
X15189286Y277144D01*
X15189286Y277144D02*
X15379762Y277144D01*
X15379762Y277144D02*
X15494048Y239049D01*
X15494048Y239049D02*
X15570238Y162859D01*
X15570238Y162859D02*
X15608333Y86668D01*
X15608333Y86668D02*
X15646429Y-65712D01*
X15646429Y-65712D02*
X15646429Y-179998D01*
X15646429Y-179998D02*
X15608333Y-332379D01*
X15608333Y-332379D02*
X15570238Y-408569D01*
X15570238Y-408569D02*
X15494048Y-484760D01*
X15494048Y-484760D02*
X15379762Y-522855D01*
X15379762Y-522855D02*
X15189286Y-522855D01*
X16141667Y277144D02*
X16294048Y277144D01*
X16294048Y277144D02*
X16370238Y239049D01*
X16370238Y239049D02*
X16446429Y162859D01*
X16446429Y162859D02*
X16484524Y10478D01*
X16484524Y10478D02*
X16484524Y-256188D01*
X16484524Y-256188D02*
X16446429Y-408569D01*
X16446429Y-408569D02*
X16370238Y-484760D01*
X16370238Y-484760D02*
X16294048Y-522855D01*
X16294048Y-522855D02*
X16141667Y-522855D01*
X16141667Y-522855D02*
X16065476Y-484760D01*
X16065476Y-484760D02*
X15989286Y-408569D01*
X15989286Y-408569D02*
X15951190Y-256188D01*
X15951190Y-256188D02*
X15951190Y10478D01*
X15951190Y10478D02*
X15989286Y162859D01*
X15989286Y162859D02*
X16065476Y239049D01*
X16065476Y239049D02*
X16141667Y277144D01*
X17246428Y-522855D02*
X16789285Y-522855D01*
X17017857Y-522855D02*
X17017857Y277144D01*
X17017857Y277144D02*
X16941666Y162859D01*
X16941666Y162859D02*
X16865476Y86668D01*
X16865476Y86668D02*
X16789285Y48573D01*
X5856855Y-16643238D02*
X5856855Y-17024190D01*
X5856855Y-17024190D02*
X5056855Y-17024190D01*
X5437807Y-16376571D02*
X5437807Y-16109905D01*
X5856855Y-15995619D02*
X5856855Y-16376571D01*
X5856855Y-16376571D02*
X5056855Y-16376571D01*
X5056855Y-16376571D02*
X5056855Y-15995619D01*
X5856855Y-15652761D02*
X5056855Y-15652761D01*
X5056855Y-15652761D02*
X5056855Y-15462285D01*
X5056855Y-15462285D02*
X5094950Y-15347999D01*
X5094950Y-15347999D02*
X5171140Y-15271809D01*
X5171140Y-15271809D02*
X5247331Y-15233714D01*
X5247331Y-15233714D02*
X5399712Y-15195618D01*
X5399712Y-15195618D02*
X5513998Y-15195618D01*
X5513998Y-15195618D02*
X5666379Y-15233714D01*
X5666379Y-15233714D02*
X5742569Y-15271809D01*
X5742569Y-15271809D02*
X5818760Y-15347999D01*
X5818760Y-15347999D02*
X5856855Y-15462285D01*
X5856855Y-15462285D02*
X5856855Y-15652761D01*
X5856855Y-14433714D02*
X5856855Y-14890857D01*
X5856855Y-14662285D02*
X5056855Y-14662285D01*
X5056855Y-14662285D02*
X5171140Y-14738476D01*
X5171140Y-14738476D02*
X5247331Y-14814666D01*
X5247331Y-14814666D02*
X5285426Y-14890857D01*
X-8494144Y15144905D02*
X-9294144Y15144905D01*
X-9294144Y15144905D02*
X-8722716Y15411571D01*
X-8722716Y15411571D02*
X-9294144Y15678238D01*
X-9294144Y15678238D02*
X-8494144Y15678238D01*
X-8494144Y16059191D02*
X-9294144Y16059191D01*
X-8570335Y16897286D02*
X-8532240Y16859190D01*
X-8532240Y16859190D02*
X-8494144Y16744905D01*
X-8494144Y16744905D02*
X-8494144Y16668714D01*
X-8494144Y16668714D02*
X-8532240Y16554428D01*
X-8532240Y16554428D02*
X-8608430Y16478238D01*
X-8608430Y16478238D02*
X-8684620Y16440143D01*
X-8684620Y16440143D02*
X-8837001Y16402047D01*
X-8837001Y16402047D02*
X-8951287Y16402047D01*
X-8951287Y16402047D02*
X-9103668Y16440143D01*
X-9103668Y16440143D02*
X-9179859Y16478238D01*
X-9179859Y16478238D02*
X-9256049Y16554428D01*
X-9256049Y16554428D02*
X-9294144Y16668714D01*
X-9294144Y16668714D02*
X-9294144Y16744905D01*
X-9294144Y16744905D02*
X-9256049Y16859190D01*
X-9256049Y16859190D02*
X-9217954Y16897286D01*
X-8494144Y17659190D02*
X-8494144Y17202047D01*
X-8494144Y17430619D02*
X-9294144Y17430619D01*
X-9294144Y17430619D02*
X-9179859Y17354428D01*
X-9179859Y17354428D02*
X-9103668Y17278238D01*
X-9103668Y17278238D02*
X-9065573Y17202047D01*
X10337809Y289954D02*
X10261619Y328049D01*
X10261619Y328049D02*
X10185428Y404240D01*
X10185428Y404240D02*
X10071142Y518525D01*
X10071142Y518525D02*
X9994952Y556620D01*
X9994952Y556620D02*
X9918761Y556620D01*
X9956857Y366144D02*
X9880666Y404240D01*
X9880666Y404240D02*
X9804476Y480430D01*
X9804476Y480430D02*
X9766380Y632811D01*
X9766380Y632811D02*
X9766380Y899478D01*
X9766380Y899478D02*
X9804476Y1051859D01*
X9804476Y1051859D02*
X9880666Y1128049D01*
X9880666Y1128049D02*
X9956857Y1166144D01*
X9956857Y1166144D02*
X10109238Y1166144D01*
X10109238Y1166144D02*
X10185428Y1128049D01*
X10185428Y1128049D02*
X10261619Y1051859D01*
X10261619Y1051859D02*
X10299714Y899478D01*
X10299714Y899478D02*
X10299714Y632811D01*
X10299714Y632811D02*
X10261619Y480430D01*
X10261619Y480430D02*
X10185428Y404240D01*
X10185428Y404240D02*
X10109238Y366144D01*
X10109238Y366144D02*
X9956857Y366144D01*
X10985428Y899478D02*
X10985428Y366144D01*
X10794952Y1204240D02*
X10604475Y632811D01*
X10604475Y632811D02*
X11099714Y632811D01*
X3168667Y-8269855D02*
X2902000Y-7888902D01*
X2711524Y-8269855D02*
X2711524Y-7469855D01*
X2711524Y-7469855D02*
X3016286Y-7469855D01*
X3016286Y-7469855D02*
X3092476Y-7507950D01*
X3092476Y-7507950D02*
X3130571Y-7546045D01*
X3130571Y-7546045D02*
X3168667Y-7622236D01*
X3168667Y-7622236D02*
X3168667Y-7736521D01*
X3168667Y-7736521D02*
X3130571Y-7812712D01*
X3130571Y-7812712D02*
X3092476Y-7850807D01*
X3092476Y-7850807D02*
X3016286Y-7888902D01*
X3016286Y-7888902D02*
X2711524Y-7888902D01*
X3930571Y-8269855D02*
X3473428Y-8269855D01*
X3702000Y-8269855D02*
X3702000Y-7469855D01*
X3702000Y-7469855D02*
X3625809Y-7584140D01*
X3625809Y-7584140D02*
X3549619Y-7660331D01*
X3549619Y-7660331D02*
X3473428Y-7698426D01*
X-3435332Y-12269855D02*
X-3701999Y-11888902D01*
X-3892475Y-12269855D02*
X-3892475Y-11469855D01*
X-3892475Y-11469855D02*
X-3587713Y-11469855D01*
X-3587713Y-11469855D02*
X-3511523Y-11507950D01*
X-3511523Y-11507950D02*
X-3473428Y-11546045D01*
X-3473428Y-11546045D02*
X-3435332Y-11622236D01*
X-3435332Y-11622236D02*
X-3435332Y-11736521D01*
X-3435332Y-11736521D02*
X-3473428Y-11812712D01*
X-3473428Y-11812712D02*
X-3511523Y-11850807D01*
X-3511523Y-11850807D02*
X-3587713Y-11888902D01*
X-3587713Y-11888902D02*
X-3892475Y-11888902D01*
X-3168666Y-11469855D02*
X-2673428Y-11469855D01*
X-2673428Y-11469855D02*
X-2940094Y-11774617D01*
X-2940094Y-11774617D02*
X-2825809Y-11774617D01*
X-2825809Y-11774617D02*
X-2749618Y-11812712D01*
X-2749618Y-11812712D02*
X-2711523Y-11850807D01*
X-2711523Y-11850807D02*
X-2673428Y-11926998D01*
X-2673428Y-11926998D02*
X-2673428Y-12117474D01*
X-2673428Y-12117474D02*
X-2711523Y-12193664D01*
X-2711523Y-12193664D02*
X-2749618Y-12231760D01*
X-2749618Y-12231760D02*
X-2825809Y-12269855D01*
X-2825809Y-12269855D02*
X-3054380Y-12269855D01*
X-3054380Y-12269855D02*
X-3130571Y-12231760D01*
X-3130571Y-12231760D02*
X-3168666Y-12193664D01*
X-17384144Y-5467332D02*
X-17765097Y-5733999D01*
X-17384144Y-5924475D02*
X-18184144Y-5924475D01*
X-18184144Y-5924475D02*
X-18184144Y-5619713D01*
X-18184144Y-5619713D02*
X-18146049Y-5543523D01*
X-18146049Y-5543523D02*
X-18107954Y-5505428D01*
X-18107954Y-5505428D02*
X-18031763Y-5467332D01*
X-18031763Y-5467332D02*
X-17917478Y-5467332D01*
X-17917478Y-5467332D02*
X-17841287Y-5505428D01*
X-17841287Y-5505428D02*
X-17803192Y-5543523D01*
X-17803192Y-5543523D02*
X-17765097Y-5619713D01*
X-17765097Y-5619713D02*
X-17765097Y-5924475D01*
X-17384144Y-5086380D02*
X-17384144Y-4933999D01*
X-17384144Y-4933999D02*
X-17422240Y-4857809D01*
X-17422240Y-4857809D02*
X-17460335Y-4819713D01*
X-17460335Y-4819713D02*
X-17574620Y-4743523D01*
X-17574620Y-4743523D02*
X-17727001Y-4705428D01*
X-17727001Y-4705428D02*
X-18031763Y-4705428D01*
X-18031763Y-4705428D02*
X-18107954Y-4743523D01*
X-18107954Y-4743523D02*
X-18146049Y-4781618D01*
X-18146049Y-4781618D02*
X-18184144Y-4857809D01*
X-18184144Y-4857809D02*
X-18184144Y-5010190D01*
X-18184144Y-5010190D02*
X-18146049Y-5086380D01*
X-18146049Y-5086380D02*
X-18107954Y-5124475D01*
X-18107954Y-5124475D02*
X-18031763Y-5162571D01*
X-18031763Y-5162571D02*
X-17841287Y-5162571D01*
X-17841287Y-5162571D02*
X-17765097Y-5124475D01*
X-17765097Y-5124475D02*
X-17727001Y-5086380D01*
X-17727001Y-5086380D02*
X-17688906Y-5010190D01*
X-17688906Y-5010190D02*
X-17688906Y-4857809D01*
X-17688906Y-4857809D02*
X-17727001Y-4781618D01*
X-17727001Y-4781618D02*
X-17765097Y-4743523D01*
X-17765097Y-4743523D02*
X-17841287Y-4705428D01*
X-13828144Y-3943285D02*
X-14209097Y-4209952D01*
X-13828144Y-4400428D02*
X-14628144Y-4400428D01*
X-14628144Y-4400428D02*
X-14628144Y-4095666D01*
X-14628144Y-4095666D02*
X-14590049Y-4019476D01*
X-14590049Y-4019476D02*
X-14551954Y-3981381D01*
X-14551954Y-3981381D02*
X-14475763Y-3943285D01*
X-14475763Y-3943285D02*
X-14361478Y-3943285D01*
X-14361478Y-3943285D02*
X-14285287Y-3981381D01*
X-14285287Y-3981381D02*
X-14247192Y-4019476D01*
X-14247192Y-4019476D02*
X-14209097Y-4095666D01*
X-14209097Y-4095666D02*
X-14209097Y-4400428D01*
X-13828144Y-3181381D02*
X-13828144Y-3638524D01*
X-13828144Y-3409952D02*
X-14628144Y-3409952D01*
X-14628144Y-3409952D02*
X-14513859Y-3486143D01*
X-14513859Y-3486143D02*
X-14437668Y-3562333D01*
X-14437668Y-3562333D02*
X-14399573Y-3638524D01*
X-14628144Y-2686142D02*
X-14628144Y-2609952D01*
X-14628144Y-2609952D02*
X-14590049Y-2533761D01*
X-14590049Y-2533761D02*
X-14551954Y-2495666D01*
X-14551954Y-2495666D02*
X-14475763Y-2457571D01*
X-14475763Y-2457571D02*
X-14323382Y-2419476D01*
X-14323382Y-2419476D02*
X-14132906Y-2419476D01*
X-14132906Y-2419476D02*
X-13980525Y-2457571D01*
X-13980525Y-2457571D02*
X-13904335Y-2495666D01*
X-13904335Y-2495666D02*
X-13866240Y-2533761D01*
X-13866240Y-2533761D02*
X-13828144Y-2609952D01*
X-13828144Y-2609952D02*
X-13828144Y-2686142D01*
X-13828144Y-2686142D02*
X-13866240Y-2762333D01*
X-13866240Y-2762333D02*
X-13904335Y-2800428D01*
X-13904335Y-2800428D02*
X-13980525Y-2838523D01*
X-13980525Y-2838523D02*
X-14132906Y-2876619D01*
X-14132906Y-2876619D02*
X-14323382Y-2876619D01*
X-14323382Y-2876619D02*
X-14475763Y-2838523D01*
X-14475763Y-2838523D02*
X-14551954Y-2800428D01*
X-14551954Y-2800428D02*
X-14590049Y-2762333D01*
X-14590049Y-2762333D02*
X-14628144Y-2686142D01*
X-12558144Y-3943285D02*
X-12939097Y-4209952D01*
X-12558144Y-4400428D02*
X-13358144Y-4400428D01*
X-13358144Y-4400428D02*
X-13358144Y-4095666D01*
X-13358144Y-4095666D02*
X-13320049Y-4019476D01*
X-13320049Y-4019476D02*
X-13281954Y-3981381D01*
X-13281954Y-3981381D02*
X-13205763Y-3943285D01*
X-13205763Y-3943285D02*
X-13091478Y-3943285D01*
X-13091478Y-3943285D02*
X-13015287Y-3981381D01*
X-13015287Y-3981381D02*
X-12977192Y-4019476D01*
X-12977192Y-4019476D02*
X-12939097Y-4095666D01*
X-12939097Y-4095666D02*
X-12939097Y-4400428D01*
X-12558144Y-3181381D02*
X-12558144Y-3638524D01*
X-12558144Y-3409952D02*
X-13358144Y-3409952D01*
X-13358144Y-3409952D02*
X-13243859Y-3486143D01*
X-13243859Y-3486143D02*
X-13167668Y-3562333D01*
X-13167668Y-3562333D02*
X-13129573Y-3638524D01*
X-12558144Y-2419476D02*
X-12558144Y-2876619D01*
X-12558144Y-2648047D02*
X-13358144Y-2648047D01*
X-13358144Y-2648047D02*
X-13243859Y-2724238D01*
X-13243859Y-2724238D02*
X-13167668Y-2800428D01*
X-13167668Y-2800428D02*
X-13129573Y-2876619D01*
X1855855Y8121714D02*
X1474902Y7855047D01*
X1855855Y7664571D02*
X1055855Y7664571D01*
X1055855Y7664571D02*
X1055855Y7969333D01*
X1055855Y7969333D02*
X1093950Y8045523D01*
X1093950Y8045523D02*
X1132045Y8083618D01*
X1132045Y8083618D02*
X1208236Y8121714D01*
X1208236Y8121714D02*
X1322521Y8121714D01*
X1322521Y8121714D02*
X1398712Y8083618D01*
X1398712Y8083618D02*
X1436807Y8045523D01*
X1436807Y8045523D02*
X1474902Y7969333D01*
X1474902Y7969333D02*
X1474902Y7664571D01*
X1855855Y8883618D02*
X1855855Y8426475D01*
X1855855Y8655047D02*
X1055855Y8655047D01*
X1055855Y8655047D02*
X1170140Y8578856D01*
X1170140Y8578856D02*
X1246331Y8502666D01*
X1246331Y8502666D02*
X1284426Y8426475D01*
X1132045Y9188380D02*
X1093950Y9226476D01*
X1093950Y9226476D02*
X1055855Y9302666D01*
X1055855Y9302666D02*
X1055855Y9493142D01*
X1055855Y9493142D02*
X1093950Y9569333D01*
X1093950Y9569333D02*
X1132045Y9607428D01*
X1132045Y9607428D02*
X1208236Y9645523D01*
X1208236Y9645523D02*
X1284426Y9645523D01*
X1284426Y9645523D02*
X1398712Y9607428D01*
X1398712Y9607428D02*
X1855855Y9150285D01*
X1855855Y9150285D02*
X1855855Y9645523D01*
X9120255Y10052114D02*
X8739302Y9785447D01*
X9120255Y9594971D02*
X8320255Y9594971D01*
X8320255Y9594971D02*
X8320255Y9899733D01*
X8320255Y9899733D02*
X8358350Y9975923D01*
X8358350Y9975923D02*
X8396445Y10014018D01*
X8396445Y10014018D02*
X8472636Y10052114D01*
X8472636Y10052114D02*
X8586921Y10052114D01*
X8586921Y10052114D02*
X8663112Y10014018D01*
X8663112Y10014018D02*
X8701207Y9975923D01*
X8701207Y9975923D02*
X8739302Y9899733D01*
X8739302Y9899733D02*
X8739302Y9594971D01*
X9120255Y10814018D02*
X9120255Y10356875D01*
X9120255Y10585447D02*
X8320255Y10585447D01*
X8320255Y10585447D02*
X8434540Y10509256D01*
X8434540Y10509256D02*
X8510731Y10433066D01*
X8510731Y10433066D02*
X8548826Y10356875D01*
X8320255Y11499733D02*
X8320255Y11347352D01*
X8320255Y11347352D02*
X8358350Y11271161D01*
X8358350Y11271161D02*
X8396445Y11233066D01*
X8396445Y11233066D02*
X8510731Y11156876D01*
X8510731Y11156876D02*
X8663112Y11118780D01*
X8663112Y11118780D02*
X8967874Y11118780D01*
X8967874Y11118780D02*
X9044064Y11156876D01*
X9044064Y11156876D02*
X9082160Y11194971D01*
X9082160Y11194971D02*
X9120255Y11271161D01*
X9120255Y11271161D02*
X9120255Y11423542D01*
X9120255Y11423542D02*
X9082160Y11499733D01*
X9082160Y11499733D02*
X9044064Y11537828D01*
X9044064Y11537828D02*
X8967874Y11575923D01*
X8967874Y11575923D02*
X8777398Y11575923D01*
X8777398Y11575923D02*
X8701207Y11537828D01*
X8701207Y11537828D02*
X8663112Y11499733D01*
X8663112Y11499733D02*
X8625017Y11423542D01*
X8625017Y11423542D02*
X8625017Y11271161D01*
X8625017Y11271161D02*
X8663112Y11194971D01*
X8663112Y11194971D02*
X8701207Y11156876D01*
X8701207Y11156876D02*
X8777398Y11118780D01*
X-7097144Y-4070285D02*
X-7478097Y-4336952D01*
X-7097144Y-4527428D02*
X-7897144Y-4527428D01*
X-7897144Y-4527428D02*
X-7897144Y-4222666D01*
X-7897144Y-4222666D02*
X-7859049Y-4146476D01*
X-7859049Y-4146476D02*
X-7820954Y-4108381D01*
X-7820954Y-4108381D02*
X-7744763Y-4070285D01*
X-7744763Y-4070285D02*
X-7630478Y-4070285D01*
X-7630478Y-4070285D02*
X-7554287Y-4108381D01*
X-7554287Y-4108381D02*
X-7516192Y-4146476D01*
X-7516192Y-4146476D02*
X-7478097Y-4222666D01*
X-7478097Y-4222666D02*
X-7478097Y-4527428D01*
X-7097144Y-3308381D02*
X-7097144Y-3765524D01*
X-7097144Y-3536952D02*
X-7897144Y-3536952D01*
X-7897144Y-3536952D02*
X-7782859Y-3613143D01*
X-7782859Y-3613143D02*
X-7706668Y-3689333D01*
X-7706668Y-3689333D02*
X-7668573Y-3765524D01*
X-7897144Y-3041714D02*
X-7897144Y-2508380D01*
X-7897144Y-2508380D02*
X-7097144Y-2851238D01*
X3697855Y-2673285D02*
X3316902Y-2939952D01*
X3697855Y-3130428D02*
X2897855Y-3130428D01*
X2897855Y-3130428D02*
X2897855Y-2825666D01*
X2897855Y-2825666D02*
X2935950Y-2749476D01*
X2935950Y-2749476D02*
X2974045Y-2711381D01*
X2974045Y-2711381D02*
X3050236Y-2673285D01*
X3050236Y-2673285D02*
X3164521Y-2673285D01*
X3164521Y-2673285D02*
X3240712Y-2711381D01*
X3240712Y-2711381D02*
X3278807Y-2749476D01*
X3278807Y-2749476D02*
X3316902Y-2825666D01*
X3316902Y-2825666D02*
X3316902Y-3130428D01*
X3697855Y-1911381D02*
X3697855Y-2368524D01*
X3697855Y-2139952D02*
X2897855Y-2139952D01*
X2897855Y-2139952D02*
X3012140Y-2216143D01*
X3012140Y-2216143D02*
X3088331Y-2292333D01*
X3088331Y-2292333D02*
X3126426Y-2368524D01*
X3240712Y-1454238D02*
X3202617Y-1530428D01*
X3202617Y-1530428D02*
X3164521Y-1568523D01*
X3164521Y-1568523D02*
X3088331Y-1606619D01*
X3088331Y-1606619D02*
X3050236Y-1606619D01*
X3050236Y-1606619D02*
X2974045Y-1568523D01*
X2974045Y-1568523D02*
X2935950Y-1530428D01*
X2935950Y-1530428D02*
X2897855Y-1454238D01*
X2897855Y-1454238D02*
X2897855Y-1301857D01*
X2897855Y-1301857D02*
X2935950Y-1225666D01*
X2935950Y-1225666D02*
X2974045Y-1187571D01*
X2974045Y-1187571D02*
X3050236Y-1149476D01*
X3050236Y-1149476D02*
X3088331Y-1149476D01*
X3088331Y-1149476D02*
X3164521Y-1187571D01*
X3164521Y-1187571D02*
X3202617Y-1225666D01*
X3202617Y-1225666D02*
X3240712Y-1301857D01*
X3240712Y-1301857D02*
X3240712Y-1454238D01*
X3240712Y-1454238D02*
X3278807Y-1530428D01*
X3278807Y-1530428D02*
X3316902Y-1568523D01*
X3316902Y-1568523D02*
X3393093Y-1606619D01*
X3393093Y-1606619D02*
X3545474Y-1606619D01*
X3545474Y-1606619D02*
X3621664Y-1568523D01*
X3621664Y-1568523D02*
X3659760Y-1530428D01*
X3659760Y-1530428D02*
X3697855Y-1454238D01*
X3697855Y-1454238D02*
X3697855Y-1301857D01*
X3697855Y-1301857D02*
X3659760Y-1225666D01*
X3659760Y-1225666D02*
X3621664Y-1187571D01*
X3621664Y-1187571D02*
X3545474Y-1149476D01*
X3545474Y-1149476D02*
X3393093Y-1149476D01*
X3393093Y-1149476D02*
X3316902Y-1187571D01*
X3316902Y-1187571D02*
X3278807Y-1225666D01*
X3278807Y-1225666D02*
X3240712Y-1301857D01*
X2787714Y13193144D02*
X2521047Y13574097D01*
X2330571Y13193144D02*
X2330571Y13993144D01*
X2330571Y13993144D02*
X2635333Y13993144D01*
X2635333Y13993144D02*
X2711523Y13955049D01*
X2711523Y13955049D02*
X2749618Y13916954D01*
X2749618Y13916954D02*
X2787714Y13840763D01*
X2787714Y13840763D02*
X2787714Y13726478D01*
X2787714Y13726478D02*
X2749618Y13650287D01*
X2749618Y13650287D02*
X2711523Y13612192D01*
X2711523Y13612192D02*
X2635333Y13574097D01*
X2635333Y13574097D02*
X2330571Y13574097D01*
X3549618Y13193144D02*
X3092475Y13193144D01*
X3321047Y13193144D02*
X3321047Y13993144D01*
X3321047Y13993144D02*
X3244856Y13878859D01*
X3244856Y13878859D02*
X3168666Y13802668D01*
X3168666Y13802668D02*
X3092475Y13764573D01*
X3816285Y13993144D02*
X4311523Y13993144D01*
X4311523Y13993144D02*
X4044857Y13688382D01*
X4044857Y13688382D02*
X4159142Y13688382D01*
X4159142Y13688382D02*
X4235333Y13650287D01*
X4235333Y13650287D02*
X4273428Y13612192D01*
X4273428Y13612192D02*
X4311523Y13536001D01*
X4311523Y13536001D02*
X4311523Y13345525D01*
X4311523Y13345525D02*
X4273428Y13269335D01*
X4273428Y13269335D02*
X4235333Y13231240D01*
X4235333Y13231240D02*
X4159142Y13193144D01*
X4159142Y13193144D02*
X3930571Y13193144D01*
X3930571Y13193144D02*
X3854380Y13231240D01*
X3854380Y13231240D02*
X3816285Y13269335D01*
X-1403285Y9193144D02*
X-1669952Y9574097D01*
X-1860428Y9193144D02*
X-1860428Y9993144D01*
X-1860428Y9993144D02*
X-1555666Y9993144D01*
X-1555666Y9993144D02*
X-1479476Y9955049D01*
X-1479476Y9955049D02*
X-1441381Y9916954D01*
X-1441381Y9916954D02*
X-1403285Y9840763D01*
X-1403285Y9840763D02*
X-1403285Y9726478D01*
X-1403285Y9726478D02*
X-1441381Y9650287D01*
X-1441381Y9650287D02*
X-1479476Y9612192D01*
X-1479476Y9612192D02*
X-1555666Y9574097D01*
X-1555666Y9574097D02*
X-1860428Y9574097D01*
X-641381Y9193144D02*
X-1098524Y9193144D01*
X-869952Y9193144D02*
X-869952Y9993144D01*
X-869952Y9993144D02*
X-946143Y9878859D01*
X-946143Y9878859D02*
X-1022333Y9802668D01*
X-1022333Y9802668D02*
X-1098524Y9764573D01*
X44333Y9726478D02*
X44333Y9193144D01*
X-146142Y10031240D02*
X-336619Y9459811D01*
X-336619Y9459811D02*
X158619Y9459811D01*
X-4578285Y5573144D02*
X-4844952Y5954097D01*
X-5035428Y5573144D02*
X-5035428Y6373144D01*
X-5035428Y6373144D02*
X-4730666Y6373144D01*
X-4730666Y6373144D02*
X-4654476Y6335049D01*
X-4654476Y6335049D02*
X-4616381Y6296954D01*
X-4616381Y6296954D02*
X-4578285Y6220763D01*
X-4578285Y6220763D02*
X-4578285Y6106478D01*
X-4578285Y6106478D02*
X-4616381Y6030287D01*
X-4616381Y6030287D02*
X-4654476Y5992192D01*
X-4654476Y5992192D02*
X-4730666Y5954097D01*
X-4730666Y5954097D02*
X-5035428Y5954097D01*
X-3816381Y5573144D02*
X-4273524Y5573144D01*
X-4044952Y5573144D02*
X-4044952Y6373144D01*
X-4044952Y6373144D02*
X-4121143Y6258859D01*
X-4121143Y6258859D02*
X-4197333Y6182668D01*
X-4197333Y6182668D02*
X-4273524Y6144573D01*
X-3435428Y5573144D02*
X-3283047Y5573144D01*
X-3283047Y5573144D02*
X-3206857Y5611240D01*
X-3206857Y5611240D02*
X-3168761Y5649335D01*
X-3168761Y5649335D02*
X-3092571Y5763620D01*
X-3092571Y5763620D02*
X-3054476Y5916001D01*
X-3054476Y5916001D02*
X-3054476Y6220763D01*
X-3054476Y6220763D02*
X-3092571Y6296954D01*
X-3092571Y6296954D02*
X-3130666Y6335049D01*
X-3130666Y6335049D02*
X-3206857Y6373144D01*
X-3206857Y6373144D02*
X-3359238Y6373144D01*
X-3359238Y6373144D02*
X-3435428Y6335049D01*
X-3435428Y6335049D02*
X-3473523Y6296954D01*
X-3473523Y6296954D02*
X-3511619Y6220763D01*
X-3511619Y6220763D02*
X-3511619Y6030287D01*
X-3511619Y6030287D02*
X-3473523Y5954097D01*
X-3473523Y5954097D02*
X-3435428Y5916001D01*
X-3435428Y5916001D02*
X-3359238Y5877906D01*
X-3359238Y5877906D02*
X-3206857Y5877906D01*
X-3206857Y5877906D02*
X-3130666Y5916001D01*
X-3130666Y5916001D02*
X-3092571Y5954097D01*
X-3092571Y5954097D02*
X-3054476Y6030287D01*
X14936855Y-7499332D02*
X14555902Y-7765999D01*
X14936855Y-7956475D02*
X14136855Y-7956475D01*
X14136855Y-7956475D02*
X14136855Y-7651713D01*
X14136855Y-7651713D02*
X14174950Y-7575523D01*
X14174950Y-7575523D02*
X14213045Y-7537428D01*
X14213045Y-7537428D02*
X14289236Y-7499332D01*
X14289236Y-7499332D02*
X14403521Y-7499332D01*
X14403521Y-7499332D02*
X14479712Y-7537428D01*
X14479712Y-7537428D02*
X14517807Y-7575523D01*
X14517807Y-7575523D02*
X14555902Y-7651713D01*
X14555902Y-7651713D02*
X14555902Y-7956475D01*
X14136855Y-6775523D02*
X14136855Y-7156475D01*
X14136855Y-7156475D02*
X14517807Y-7194571D01*
X14517807Y-7194571D02*
X14479712Y-7156475D01*
X14479712Y-7156475D02*
X14441617Y-7080285D01*
X14441617Y-7080285D02*
X14441617Y-6889809D01*
X14441617Y-6889809D02*
X14479712Y-6813618D01*
X14479712Y-6813618D02*
X14517807Y-6775523D01*
X14517807Y-6775523D02*
X14593998Y-6737428D01*
X14593998Y-6737428D02*
X14784474Y-6737428D01*
X14784474Y-6737428D02*
X14860664Y-6775523D01*
X14860664Y-6775523D02*
X14898760Y-6813618D01*
X14898760Y-6813618D02*
X14936855Y-6889809D01*
X14936855Y-6889809D02*
X14936855Y-7080285D01*
X14936855Y-7080285D02*
X14898760Y-7156475D01*
X14898760Y-7156475D02*
X14860664Y-7194571D01*
X11190855Y-4705332D02*
X10809902Y-4971999D01*
X11190855Y-5162475D02*
X10390855Y-5162475D01*
X10390855Y-5162475D02*
X10390855Y-4857713D01*
X10390855Y-4857713D02*
X10428950Y-4781523D01*
X10428950Y-4781523D02*
X10467045Y-4743428D01*
X10467045Y-4743428D02*
X10543236Y-4705332D01*
X10543236Y-4705332D02*
X10657521Y-4705332D01*
X10657521Y-4705332D02*
X10733712Y-4743428D01*
X10733712Y-4743428D02*
X10771807Y-4781523D01*
X10771807Y-4781523D02*
X10809902Y-4857713D01*
X10809902Y-4857713D02*
X10809902Y-5162475D01*
X10390855Y-4438666D02*
X10390855Y-3905332D01*
X10390855Y-3905332D02*
X11190855Y-4248190D01*
X13920855Y-4705332D02*
X13539902Y-4971999D01*
X13920855Y-5162475D02*
X13120855Y-5162475D01*
X13120855Y-5162475D02*
X13120855Y-4857713D01*
X13120855Y-4857713D02*
X13158950Y-4781523D01*
X13158950Y-4781523D02*
X13197045Y-4743428D01*
X13197045Y-4743428D02*
X13273236Y-4705332D01*
X13273236Y-4705332D02*
X13387521Y-4705332D01*
X13387521Y-4705332D02*
X13463712Y-4743428D01*
X13463712Y-4743428D02*
X13501807Y-4781523D01*
X13501807Y-4781523D02*
X13539902Y-4857713D01*
X13539902Y-4857713D02*
X13539902Y-5162475D01*
X13463712Y-4248190D02*
X13425617Y-4324380D01*
X13425617Y-4324380D02*
X13387521Y-4362475D01*
X13387521Y-4362475D02*
X13311331Y-4400571D01*
X13311331Y-4400571D02*
X13273236Y-4400571D01*
X13273236Y-4400571D02*
X13197045Y-4362475D01*
X13197045Y-4362475D02*
X13158950Y-4324380D01*
X13158950Y-4324380D02*
X13120855Y-4248190D01*
X13120855Y-4248190D02*
X13120855Y-4095809D01*
X13120855Y-4095809D02*
X13158950Y-4019618D01*
X13158950Y-4019618D02*
X13197045Y-3981523D01*
X13197045Y-3981523D02*
X13273236Y-3943428D01*
X13273236Y-3943428D02*
X13311331Y-3943428D01*
X13311331Y-3943428D02*
X13387521Y-3981523D01*
X13387521Y-3981523D02*
X13425617Y-4019618D01*
X13425617Y-4019618D02*
X13463712Y-4095809D01*
X13463712Y-4095809D02*
X13463712Y-4248190D01*
X13463712Y-4248190D02*
X13501807Y-4324380D01*
X13501807Y-4324380D02*
X13539902Y-4362475D01*
X13539902Y-4362475D02*
X13616093Y-4400571D01*
X13616093Y-4400571D02*
X13768474Y-4400571D01*
X13768474Y-4400571D02*
X13844664Y-4362475D01*
X13844664Y-4362475D02*
X13882760Y-4324380D01*
X13882760Y-4324380D02*
X13920855Y-4248190D01*
X13920855Y-4248190D02*
X13920855Y-4095809D01*
X13920855Y-4095809D02*
X13882760Y-4019618D01*
X13882760Y-4019618D02*
X13844664Y-3981523D01*
X13844664Y-3981523D02*
X13768474Y-3943428D01*
X13768474Y-3943428D02*
X13616093Y-3943428D01*
X13616093Y-3943428D02*
X13539902Y-3981523D01*
X13539902Y-3981523D02*
X13501807Y-4019618D01*
X13501807Y-4019618D02*
X13463712Y-4095809D01*
X10428855Y-1657332D02*
X10047902Y-1923999D01*
X10428855Y-2114475D02*
X9628855Y-2114475D01*
X9628855Y-2114475D02*
X9628855Y-1809713D01*
X9628855Y-1809713D02*
X9666950Y-1733523D01*
X9666950Y-1733523D02*
X9705045Y-1695428D01*
X9705045Y-1695428D02*
X9781236Y-1657332D01*
X9781236Y-1657332D02*
X9895521Y-1657332D01*
X9895521Y-1657332D02*
X9971712Y-1695428D01*
X9971712Y-1695428D02*
X10009807Y-1733523D01*
X10009807Y-1733523D02*
X10047902Y-1809713D01*
X10047902Y-1809713D02*
X10047902Y-2114475D01*
X9705045Y-1352571D02*
X9666950Y-1314475D01*
X9666950Y-1314475D02*
X9628855Y-1238285D01*
X9628855Y-1238285D02*
X9628855Y-1047809D01*
X9628855Y-1047809D02*
X9666950Y-971618D01*
X9666950Y-971618D02*
X9705045Y-933523D01*
X9705045Y-933523D02*
X9781236Y-895428D01*
X9781236Y-895428D02*
X9857426Y-895428D01*
X9857426Y-895428D02*
X9971712Y-933523D01*
X9971712Y-933523D02*
X10428855Y-1390666D01*
X10428855Y-1390666D02*
X10428855Y-895428D01*
X-13228573Y17274239D02*
X-13114287Y17236143D01*
X-13114287Y17236143D02*
X-12923811Y17236143D01*
X-12923811Y17236143D02*
X-12847620Y17274239D01*
X-12847620Y17274239D02*
X-12809525Y17312334D01*
X-12809525Y17312334D02*
X-12771430Y17388524D01*
X-12771430Y17388524D02*
X-12771430Y17464715D01*
X-12771430Y17464715D02*
X-12809525Y17540905D01*
X-12809525Y17540905D02*
X-12847620Y17579000D01*
X-12847620Y17579000D02*
X-12923811Y17617096D01*
X-12923811Y17617096D02*
X-13076192Y17655191D01*
X-13076192Y17655191D02*
X-13152382Y17693286D01*
X-13152382Y17693286D02*
X-13190477Y17731381D01*
X-13190477Y17731381D02*
X-13228573Y17807572D01*
X-13228573Y17807572D02*
X-13228573Y17883762D01*
X-13228573Y17883762D02*
X-13190477Y17959953D01*
X-13190477Y17959953D02*
X-13152382Y17998048D01*
X-13152382Y17998048D02*
X-13076192Y18036143D01*
X-13076192Y18036143D02*
X-12885715Y18036143D01*
X-12885715Y18036143D02*
X-12771430Y17998048D01*
X-11971429Y17312334D02*
X-12009525Y17274239D01*
X-12009525Y17274239D02*
X-12123810Y17236143D01*
X-12123810Y17236143D02*
X-12200001Y17236143D01*
X-12200001Y17236143D02*
X-12314287Y17274239D01*
X-12314287Y17274239D02*
X-12390477Y17350429D01*
X-12390477Y17350429D02*
X-12428572Y17426619D01*
X-12428572Y17426619D02*
X-12466668Y17579000D01*
X-12466668Y17579000D02*
X-12466668Y17693286D01*
X-12466668Y17693286D02*
X-12428572Y17845667D01*
X-12428572Y17845667D02*
X-12390477Y17921858D01*
X-12390477Y17921858D02*
X-12314287Y17998048D01*
X-12314287Y17998048D02*
X-12200001Y18036143D01*
X-12200001Y18036143D02*
X-12123810Y18036143D01*
X-12123810Y18036143D02*
X-12009525Y17998048D01*
X-12009525Y17998048D02*
X-11971429Y17959953D01*
X-11171429Y17236143D02*
X-11438096Y17617096D01*
X-11628572Y17236143D02*
X-11628572Y18036143D01*
X-11628572Y18036143D02*
X-11323810Y18036143D01*
X-11323810Y18036143D02*
X-11247620Y17998048D01*
X-11247620Y17998048D02*
X-11209525Y17959953D01*
X-11209525Y17959953D02*
X-11171429Y17883762D01*
X-11171429Y17883762D02*
X-11171429Y17769477D01*
X-11171429Y17769477D02*
X-11209525Y17693286D01*
X-11209525Y17693286D02*
X-11247620Y17655191D01*
X-11247620Y17655191D02*
X-11323810Y17617096D01*
X-11323810Y17617096D02*
X-11628572Y17617096D01*
X-10828572Y17655191D02*
X-10561906Y17655191D01*
X-10447620Y17236143D02*
X-10828572Y17236143D01*
X-10828572Y17236143D02*
X-10828572Y18036143D01*
X-10828572Y18036143D02*
X-10447620Y18036143D01*
X-10180953Y18036143D02*
X-9990477Y17236143D01*
X-9990477Y17236143D02*
X-9838096Y17807572D01*
X-9838096Y17807572D02*
X-9685715Y17236143D01*
X-9685715Y17236143D02*
X-9495239Y18036143D01*
X-8771429Y17236143D02*
X-9228572Y17236143D01*
X-9000000Y17236143D02*
X-9000000Y18036143D01*
X-9000000Y18036143D02*
X-9076191Y17921858D01*
X-9076191Y17921858D02*
X-9152381Y17845667D01*
X-9152381Y17845667D02*
X-9228572Y17807572D01*
X13371426Y17274239D02*
X13485712Y17236143D01*
X13485712Y17236143D02*
X13676188Y17236143D01*
X13676188Y17236143D02*
X13752379Y17274239D01*
X13752379Y17274239D02*
X13790474Y17312334D01*
X13790474Y17312334D02*
X13828569Y17388524D01*
X13828569Y17388524D02*
X13828569Y17464715D01*
X13828569Y17464715D02*
X13790474Y17540905D01*
X13790474Y17540905D02*
X13752379Y17579000D01*
X13752379Y17579000D02*
X13676188Y17617096D01*
X13676188Y17617096D02*
X13523807Y17655191D01*
X13523807Y17655191D02*
X13447617Y17693286D01*
X13447617Y17693286D02*
X13409522Y17731381D01*
X13409522Y17731381D02*
X13371426Y17807572D01*
X13371426Y17807572D02*
X13371426Y17883762D01*
X13371426Y17883762D02*
X13409522Y17959953D01*
X13409522Y17959953D02*
X13447617Y17998048D01*
X13447617Y17998048D02*
X13523807Y18036143D01*
X13523807Y18036143D02*
X13714284Y18036143D01*
X13714284Y18036143D02*
X13828569Y17998048D01*
X14628570Y17312334D02*
X14590474Y17274239D01*
X14590474Y17274239D02*
X14476189Y17236143D01*
X14476189Y17236143D02*
X14399998Y17236143D01*
X14399998Y17236143D02*
X14285712Y17274239D01*
X14285712Y17274239D02*
X14209522Y17350429D01*
X14209522Y17350429D02*
X14171427Y17426619D01*
X14171427Y17426619D02*
X14133331Y17579000D01*
X14133331Y17579000D02*
X14133331Y17693286D01*
X14133331Y17693286D02*
X14171427Y17845667D01*
X14171427Y17845667D02*
X14209522Y17921858D01*
X14209522Y17921858D02*
X14285712Y17998048D01*
X14285712Y17998048D02*
X14399998Y18036143D01*
X14399998Y18036143D02*
X14476189Y18036143D01*
X14476189Y18036143D02*
X14590474Y17998048D01*
X14590474Y17998048D02*
X14628570Y17959953D01*
X15428570Y17236143D02*
X15161903Y17617096D01*
X14971427Y17236143D02*
X14971427Y18036143D01*
X14971427Y18036143D02*
X15276189Y18036143D01*
X15276189Y18036143D02*
X15352379Y17998048D01*
X15352379Y17998048D02*
X15390474Y17959953D01*
X15390474Y17959953D02*
X15428570Y17883762D01*
X15428570Y17883762D02*
X15428570Y17769477D01*
X15428570Y17769477D02*
X15390474Y17693286D01*
X15390474Y17693286D02*
X15352379Y17655191D01*
X15352379Y17655191D02*
X15276189Y17617096D01*
X15276189Y17617096D02*
X14971427Y17617096D01*
X15771427Y17655191D02*
X16038093Y17655191D01*
X16152379Y17236143D02*
X15771427Y17236143D01*
X15771427Y17236143D02*
X15771427Y18036143D01*
X15771427Y18036143D02*
X16152379Y18036143D01*
X16419046Y18036143D02*
X16609522Y17236143D01*
X16609522Y17236143D02*
X16761903Y17807572D01*
X16761903Y17807572D02*
X16914284Y17236143D01*
X16914284Y17236143D02*
X17104761Y18036143D01*
X17752380Y17769477D02*
X17752380Y17236143D01*
X17561904Y18074239D02*
X17371427Y17502810D01*
X17371427Y17502810D02*
X17866666Y17502810D01*
X-12712524Y-11660760D02*
X-12598238Y-11698855D01*
X-12598238Y-11698855D02*
X-12407762Y-11698855D01*
X-12407762Y-11698855D02*
X-12331571Y-11660760D01*
X-12331571Y-11660760D02*
X-12293476Y-11622664D01*
X-12293476Y-11622664D02*
X-12255381Y-11546474D01*
X-12255381Y-11546474D02*
X-12255381Y-11470283D01*
X-12255381Y-11470283D02*
X-12293476Y-11394093D01*
X-12293476Y-11394093D02*
X-12331571Y-11355998D01*
X-12331571Y-11355998D02*
X-12407762Y-11317902D01*
X-12407762Y-11317902D02*
X-12560143Y-11279807D01*
X-12560143Y-11279807D02*
X-12636333Y-11241712D01*
X-12636333Y-11241712D02*
X-12674428Y-11203617D01*
X-12674428Y-11203617D02*
X-12712524Y-11127426D01*
X-12712524Y-11127426D02*
X-12712524Y-11051236D01*
X-12712524Y-11051236D02*
X-12674428Y-10975045D01*
X-12674428Y-10975045D02*
X-12636333Y-10936950D01*
X-12636333Y-10936950D02*
X-12560143Y-10898855D01*
X-12560143Y-10898855D02*
X-12369666Y-10898855D01*
X-12369666Y-10898855D02*
X-12255381Y-10936950D01*
X-11912523Y-11698855D02*
X-11912523Y-10898855D01*
X-11912523Y-10898855D02*
X-11607761Y-10898855D01*
X-11607761Y-10898855D02*
X-11531571Y-10936950D01*
X-11531571Y-10936950D02*
X-11493476Y-10975045D01*
X-11493476Y-10975045D02*
X-11455380Y-11051236D01*
X-11455380Y-11051236D02*
X-11455380Y-11165521D01*
X-11455380Y-11165521D02*
X-11493476Y-11241712D01*
X-11493476Y-11241712D02*
X-11531571Y-11279807D01*
X-11531571Y-11279807D02*
X-11607761Y-11317902D01*
X-11607761Y-11317902D02*
X-11912523Y-11317902D01*
X-11112523Y-11698855D02*
X-11112523Y-10898855D01*
X-10655380Y-11698855D02*
X-10998238Y-11241712D01*
X-10655380Y-10898855D02*
X-11112523Y-11355998D01*
X-9893476Y-11698855D02*
X-10350619Y-11698855D01*
X-10122047Y-11698855D02*
X-10122047Y-10898855D01*
X-10122047Y-10898855D02*
X-10198238Y-11013140D01*
X-10198238Y-11013140D02*
X-10274428Y-11089331D01*
X-10274428Y-11089331D02*
X-10350619Y-11127426D01*
X14073760Y-9956667D02*
X14111855Y-9842381D01*
X14111855Y-9842381D02*
X14111855Y-9651905D01*
X14111855Y-9651905D02*
X14073760Y-9575714D01*
X14073760Y-9575714D02*
X14035664Y-9537619D01*
X14035664Y-9537619D02*
X13959474Y-9499524D01*
X13959474Y-9499524D02*
X13883283Y-9499524D01*
X13883283Y-9499524D02*
X13807093Y-9537619D01*
X13807093Y-9537619D02*
X13768998Y-9575714D01*
X13768998Y-9575714D02*
X13730902Y-9651905D01*
X13730902Y-9651905D02*
X13692807Y-9804286D01*
X13692807Y-9804286D02*
X13654712Y-9880476D01*
X13654712Y-9880476D02*
X13616617Y-9918571D01*
X13616617Y-9918571D02*
X13540426Y-9956667D01*
X13540426Y-9956667D02*
X13464236Y-9956667D01*
X13464236Y-9956667D02*
X13388045Y-9918571D01*
X13388045Y-9918571D02*
X13349950Y-9880476D01*
X13349950Y-9880476D02*
X13311855Y-9804286D01*
X13311855Y-9804286D02*
X13311855Y-9613809D01*
X13311855Y-9613809D02*
X13349950Y-9499524D01*
X13311855Y-9232857D02*
X14111855Y-9042381D01*
X14111855Y-9042381D02*
X13540426Y-8890000D01*
X13540426Y-8890000D02*
X14111855Y-8737619D01*
X14111855Y-8737619D02*
X13311855Y-8547143D01*
X13388045Y-8280476D02*
X13349950Y-8242380D01*
X13349950Y-8242380D02*
X13311855Y-8166190D01*
X13311855Y-8166190D02*
X13311855Y-7975714D01*
X13311855Y-7975714D02*
X13349950Y-7899523D01*
X13349950Y-7899523D02*
X13388045Y-7861428D01*
X13388045Y-7861428D02*
X13464236Y-7823333D01*
X13464236Y-7823333D02*
X13540426Y-7823333D01*
X13540426Y-7823333D02*
X13654712Y-7861428D01*
X13654712Y-7861428D02*
X14111855Y-8318571D01*
X14111855Y-8318571D02*
X14111855Y-7823333D01*
X-7848523Y7947944D02*
X-7848523Y7300325D01*
X-7848523Y7300325D02*
X-7810428Y7224135D01*
X-7810428Y7224135D02*
X-7772333Y7186040D01*
X-7772333Y7186040D02*
X-7696142Y7147944D01*
X-7696142Y7147944D02*
X-7543761Y7147944D01*
X-7543761Y7147944D02*
X-7467571Y7186040D01*
X-7467571Y7186040D02*
X-7429476Y7224135D01*
X-7429476Y7224135D02*
X-7391380Y7300325D01*
X-7391380Y7300325D02*
X-7391380Y7947944D01*
X-7048524Y7871754D02*
X-7010428Y7909849D01*
X-7010428Y7909849D02*
X-6934238Y7947944D01*
X-6934238Y7947944D02*
X-6743762Y7947944D01*
X-6743762Y7947944D02*
X-6667571Y7909849D01*
X-6667571Y7909849D02*
X-6629476Y7871754D01*
X-6629476Y7871754D02*
X-6591381Y7795563D01*
X-6591381Y7795563D02*
X-6591381Y7719373D01*
X-6591381Y7719373D02*
X-6629476Y7605087D01*
X-6629476Y7605087D02*
X-7086619Y7147944D01*
X-7086619Y7147944D02*
X-6591381Y7147944D01*
X-9993144Y-7467523D02*
X-9345525Y-7467523D01*
X-9345525Y-7467523D02*
X-9269335Y-7429428D01*
X-9269335Y-7429428D02*
X-9231240Y-7391333D01*
X-9231240Y-7391333D02*
X-9193144Y-7315142D01*
X-9193144Y-7315142D02*
X-9193144Y-7162761D01*
X-9193144Y-7162761D02*
X-9231240Y-7086571D01*
X-9231240Y-7086571D02*
X-9269335Y-7048476D01*
X-9269335Y-7048476D02*
X-9345525Y-7010380D01*
X-9345525Y-7010380D02*
X-9993144Y-7010380D01*
X-9726478Y-6286571D02*
X-9193144Y-6286571D01*
X-10031240Y-6477047D02*
X-9459811Y-6667524D01*
X-9459811Y-6667524D02*
X-9459811Y-6172285D01*
X6563855Y3590475D02*
X7211474Y3590475D01*
X7211474Y3590475D02*
X7287664Y3628570D01*
X7287664Y3628570D02*
X7325760Y3666665D01*
X7325760Y3666665D02*
X7363855Y3742856D01*
X7363855Y3742856D02*
X7363855Y3895237D01*
X7363855Y3895237D02*
X7325760Y3971427D01*
X7325760Y3971427D02*
X7287664Y4009522D01*
X7287664Y4009522D02*
X7211474Y4047618D01*
X7211474Y4047618D02*
X6563855Y4047618D01*
X6563855Y4809522D02*
X6563855Y4428570D01*
X6563855Y4428570D02*
X6944807Y4390474D01*
X6944807Y4390474D02*
X6906712Y4428570D01*
X6906712Y4428570D02*
X6868617Y4504760D01*
X6868617Y4504760D02*
X6868617Y4695236D01*
X6868617Y4695236D02*
X6906712Y4771427D01*
X6906712Y4771427D02*
X6944807Y4809522D01*
X6944807Y4809522D02*
X7020998Y4847617D01*
X7020998Y4847617D02*
X7211474Y4847617D01*
X7211474Y4847617D02*
X7287664Y4809522D01*
X7287664Y4809522D02*
X7325760Y4771427D01*
X7325760Y4771427D02*
X7363855Y4695236D01*
X7363855Y4695236D02*
X7363855Y4504760D01*
X7363855Y4504760D02*
X7325760Y4428570D01*
X7325760Y4428570D02*
X7287664Y4390474D01*
X1563855Y-4038523D02*
X2211474Y-4038523D01*
X2211474Y-4038523D02*
X2287664Y-4000428D01*
X2287664Y-4000428D02*
X2325760Y-3962333D01*
X2325760Y-3962333D02*
X2363855Y-3886142D01*
X2363855Y-3886142D02*
X2363855Y-3733761D01*
X2363855Y-3733761D02*
X2325760Y-3657571D01*
X2325760Y-3657571D02*
X2287664Y-3619476D01*
X2287664Y-3619476D02*
X2211474Y-3581380D01*
X2211474Y-3581380D02*
X1563855Y-3581380D01*
X1563855Y-2857571D02*
X1563855Y-3009952D01*
X1563855Y-3009952D02*
X1601950Y-3086143D01*
X1601950Y-3086143D02*
X1640045Y-3124238D01*
X1640045Y-3124238D02*
X1754331Y-3200428D01*
X1754331Y-3200428D02*
X1906712Y-3238524D01*
X1906712Y-3238524D02*
X2211474Y-3238524D01*
X2211474Y-3238524D02*
X2287664Y-3200428D01*
X2287664Y-3200428D02*
X2325760Y-3162333D01*
X2325760Y-3162333D02*
X2363855Y-3086143D01*
X2363855Y-3086143D02*
X2363855Y-2933762D01*
X2363855Y-2933762D02*
X2325760Y-2857571D01*
X2325760Y-2857571D02*
X2287664Y-2819476D01*
X2287664Y-2819476D02*
X2211474Y-2781381D01*
X2211474Y-2781381D02*
X2020998Y-2781381D01*
X2020998Y-2781381D02*
X1944807Y-2819476D01*
X1944807Y-2819476D02*
X1906712Y-2857571D01*
X1906712Y-2857571D02*
X1868617Y-2933762D01*
X1868617Y-2933762D02*
X1868617Y-3086143D01*
X1868617Y-3086143D02*
X1906712Y-3162333D01*
X1906712Y-3162333D02*
X1944807Y-3200428D01*
X1944807Y-3200428D02*
X2020998Y-3238524D01*
X11596855Y-8356475D02*
X12244474Y-8356475D01*
X12244474Y-8356475D02*
X12320664Y-8318380D01*
X12320664Y-8318380D02*
X12358760Y-8280285D01*
X12358760Y-8280285D02*
X12396855Y-8204094D01*
X12396855Y-8204094D02*
X12396855Y-8051713D01*
X12396855Y-8051713D02*
X12358760Y-7975523D01*
X12358760Y-7975523D02*
X12320664Y-7937428D01*
X12320664Y-7937428D02*
X12244474Y-7899332D01*
X12244474Y-7899332D02*
X11596855Y-7899332D01*
X12396855Y-7099333D02*
X12396855Y-7556476D01*
X12396855Y-7327904D02*
X11596855Y-7327904D01*
X11596855Y-7327904D02*
X11711140Y-7404095D01*
X11711140Y-7404095D02*
X11787331Y-7480285D01*
X11787331Y-7480285D02*
X11825426Y-7556476D01*
X11596855Y-6375523D02*
X11596855Y-6756475D01*
X11596855Y-6756475D02*
X11977807Y-6794571D01*
X11977807Y-6794571D02*
X11939712Y-6756475D01*
X11939712Y-6756475D02*
X11901617Y-6680285D01*
X11901617Y-6680285D02*
X11901617Y-6489809D01*
X11901617Y-6489809D02*
X11939712Y-6413618D01*
X11939712Y-6413618D02*
X11977807Y-6375523D01*
X11977807Y-6375523D02*
X12053998Y-6337428D01*
X12053998Y-6337428D02*
X12244474Y-6337428D01*
X12244474Y-6337428D02*
X12320664Y-6375523D01*
X12320664Y-6375523D02*
X12358760Y-6413618D01*
X12358760Y-6413618D02*
X12396855Y-6489809D01*
X12396855Y-6489809D02*
X12396855Y-6680285D01*
X12396855Y-6680285D02*
X12358760Y-6756475D01*
X12358760Y-6756475D02*
X12320664Y-6794571D01*
X-1390475Y-11890855D02*
X-1390475Y-12538474D01*
X-1390475Y-12538474D02*
X-1352380Y-12614664D01*
X-1352380Y-12614664D02*
X-1314285Y-12652760D01*
X-1314285Y-12652760D02*
X-1238094Y-12690855D01*
X-1238094Y-12690855D02*
X-1085713Y-12690855D01*
X-1085713Y-12690855D02*
X-1009523Y-12652760D01*
X-1009523Y-12652760D02*
X-971428Y-12614664D01*
X-971428Y-12614664D02*
X-933332Y-12538474D01*
X-933332Y-12538474D02*
X-933332Y-11890855D01*
X-590476Y-12652760D02*
X-476190Y-12690855D01*
X-476190Y-12690855D02*
X-285714Y-12690855D01*
X-285714Y-12690855D02*
X-209523Y-12652760D01*
X-209523Y-12652760D02*
X-171428Y-12614664D01*
X-171428Y-12614664D02*
X-133333Y-12538474D01*
X-133333Y-12538474D02*
X-133333Y-12462283D01*
X-133333Y-12462283D02*
X-171428Y-12386093D01*
X-171428Y-12386093D02*
X-209523Y-12347998D01*
X-209523Y-12347998D02*
X-285714Y-12309902D01*
X-285714Y-12309902D02*
X-438095Y-12271807D01*
X-438095Y-12271807D02*
X-514285Y-12233712D01*
X-514285Y-12233712D02*
X-552380Y-12195617D01*
X-552380Y-12195617D02*
X-590476Y-12119426D01*
X-590476Y-12119426D02*
X-590476Y-12043236D01*
X-590476Y-12043236D02*
X-552380Y-11967045D01*
X-552380Y-11967045D02*
X-514285Y-11928950D01*
X-514285Y-11928950D02*
X-438095Y-11890855D01*
X-438095Y-11890855D02*
X-247618Y-11890855D01*
X-247618Y-11890855D02*
X-133333Y-11928950D01*
X476190Y-12271807D02*
X590476Y-12309902D01*
X590476Y-12309902D02*
X628571Y-12347998D01*
X628571Y-12347998D02*
X666667Y-12424188D01*
X666667Y-12424188D02*
X666667Y-12538474D01*
X666667Y-12538474D02*
X628571Y-12614664D01*
X628571Y-12614664D02*
X590476Y-12652760D01*
X590476Y-12652760D02*
X514286Y-12690855D01*
X514286Y-12690855D02*
X209524Y-12690855D01*
X209524Y-12690855D02*
X209524Y-11890855D01*
X209524Y-11890855D02*
X476190Y-11890855D01*
X476190Y-11890855D02*
X552381Y-11928950D01*
X552381Y-11928950D02*
X590476Y-11967045D01*
X590476Y-11967045D02*
X628571Y-12043236D01*
X628571Y-12043236D02*
X628571Y-12119426D01*
X628571Y-12119426D02*
X590476Y-12195617D01*
X590476Y-12195617D02*
X552381Y-12233712D01*
X552381Y-12233712D02*
X476190Y-12271807D01*
X476190Y-12271807D02*
X209524Y-12271807D01*
X1428571Y-12690855D02*
X971428Y-12690855D01*
X1200000Y-12690855D02*
X1200000Y-11890855D01*
X1200000Y-11890855D02*
X1123809Y-12005140D01*
X1123809Y-12005140D02*
X1047619Y-12081331D01*
X1047619Y-12081331D02*
X971428Y-12119426D01*
X14517855Y3289380D02*
X15317855Y3822714D01*
X14517855Y3822714D02*
X15317855Y3289380D01*
X15317855Y4546523D02*
X15317855Y4089380D01*
X15317855Y4317952D02*
X14517855Y4317952D01*
X14517855Y4317952D02*
X14632140Y4241761D01*
X14632140Y4241761D02*
X14708331Y4165571D01*
X14708331Y4165571D02*
X14746426Y4089380D01*
X-3054285Y14527144D02*
X-3320952Y14908097D01*
X-3511428Y14527144D02*
X-3511428Y15327144D01*
X-3511428Y15327144D02*
X-3206666Y15327144D01*
X-3206666Y15327144D02*
X-3130476Y15289049D01*
X-3130476Y15289049D02*
X-3092381Y15250954D01*
X-3092381Y15250954D02*
X-3054285Y15174763D01*
X-3054285Y15174763D02*
X-3054285Y15060478D01*
X-3054285Y15060478D02*
X-3092381Y14984287D01*
X-3092381Y14984287D02*
X-3130476Y14946192D01*
X-3130476Y14946192D02*
X-3206666Y14908097D01*
X-3206666Y14908097D02*
X-3511428Y14908097D01*
X-2292381Y14527144D02*
X-2749524Y14527144D01*
X-2520952Y14527144D02*
X-2520952Y15327144D01*
X-2520952Y15327144D02*
X-2597143Y15212859D01*
X-2597143Y15212859D02*
X-2673333Y15136668D01*
X-2673333Y15136668D02*
X-2749524Y15098573D01*
X-1568571Y15327144D02*
X-1949523Y15327144D01*
X-1949523Y15327144D02*
X-1987619Y14946192D01*
X-1987619Y14946192D02*
X-1949523Y14984287D01*
X-1949523Y14984287D02*
X-1873333Y15022382D01*
X-1873333Y15022382D02*
X-1682857Y15022382D01*
X-1682857Y15022382D02*
X-1606666Y14984287D01*
X-1606666Y14984287D02*
X-1568571Y14946192D01*
X-1568571Y14946192D02*
X-1530476Y14870001D01*
X-1530476Y14870001D02*
X-1530476Y14679525D01*
X-1530476Y14679525D02*
X-1568571Y14603335D01*
X-1568571Y14603335D02*
X-1606666Y14565240D01*
X-1606666Y14565240D02*
X-1682857Y14527144D01*
X-1682857Y14527144D02*
X-1873333Y14527144D01*
X-1873333Y14527144D02*
X-1949523Y14565240D01*
X-1949523Y14565240D02*
X-1987619Y14603335D01*
X-933332Y13942944D02*
X-1199999Y14323897D01*
X-1390475Y13942944D02*
X-1390475Y14742944D01*
X-1390475Y14742944D02*
X-1085713Y14742944D01*
X-1085713Y14742944D02*
X-1009523Y14704849D01*
X-1009523Y14704849D02*
X-971428Y14666754D01*
X-971428Y14666754D02*
X-933332Y14590563D01*
X-933332Y14590563D02*
X-933332Y14476278D01*
X-933332Y14476278D02*
X-971428Y14400087D01*
X-971428Y14400087D02*
X-1009523Y14361992D01*
X-1009523Y14361992D02*
X-1085713Y14323897D01*
X-1085713Y14323897D02*
X-1390475Y14323897D01*
X-171428Y14704849D02*
X-247618Y14742944D01*
X-247618Y14742944D02*
X-361904Y14742944D01*
X-361904Y14742944D02*
X-476190Y14704849D01*
X-476190Y14704849D02*
X-552380Y14628659D01*
X-552380Y14628659D02*
X-590475Y14552468D01*
X-590475Y14552468D02*
X-628571Y14400087D01*
X-628571Y14400087D02*
X-628571Y14285801D01*
X-628571Y14285801D02*
X-590475Y14133420D01*
X-590475Y14133420D02*
X-552380Y14057230D01*
X-552380Y14057230D02*
X-476190Y13981040D01*
X-476190Y13981040D02*
X-361904Y13942944D01*
X-361904Y13942944D02*
X-285713Y13942944D01*
X-285713Y13942944D02*
X-171428Y13981040D01*
X-171428Y13981040D02*
X-133332Y14019135D01*
X-133332Y14019135D02*
X-133332Y14285801D01*
X-133332Y14285801D02*
X-285713Y14285801D01*
X476190Y14361992D02*
X590476Y14323897D01*
X590476Y14323897D02*
X628571Y14285801D01*
X628571Y14285801D02*
X666667Y14209611D01*
X666667Y14209611D02*
X666667Y14095325D01*
X666667Y14095325D02*
X628571Y14019135D01*
X628571Y14019135D02*
X590476Y13981040D01*
X590476Y13981040D02*
X514286Y13942944D01*
X514286Y13942944D02*
X209524Y13942944D01*
X209524Y13942944D02*
X209524Y14742944D01*
X209524Y14742944D02*
X476190Y14742944D01*
X476190Y14742944D02*
X552381Y14704849D01*
X552381Y14704849D02*
X590476Y14666754D01*
X590476Y14666754D02*
X628571Y14590563D01*
X628571Y14590563D02*
X628571Y14514373D01*
X628571Y14514373D02*
X590476Y14438182D01*
X590476Y14438182D02*
X552381Y14400087D01*
X552381Y14400087D02*
X476190Y14361992D01*
X476190Y14361992D02*
X209524Y14361992D01*
X1428571Y13942944D02*
X971428Y13942944D01*
X1200000Y13942944D02*
X1200000Y14742944D01*
X1200000Y14742944D02*
X1123809Y14628659D01*
X1123809Y14628659D02*
X1047619Y14552468D01*
X1047619Y14552468D02*
X971428Y14514373D01*
X5856855Y-7118332D02*
X5475902Y-7384999D01*
X5856855Y-7575475D02*
X5056855Y-7575475D01*
X5056855Y-7575475D02*
X5056855Y-7270713D01*
X5056855Y-7270713D02*
X5094950Y-7194523D01*
X5094950Y-7194523D02*
X5133045Y-7156428D01*
X5133045Y-7156428D02*
X5209236Y-7118332D01*
X5209236Y-7118332D02*
X5323521Y-7118332D01*
X5323521Y-7118332D02*
X5399712Y-7156428D01*
X5399712Y-7156428D02*
X5437807Y-7194523D01*
X5437807Y-7194523D02*
X5475902Y-7270713D01*
X5475902Y-7270713D02*
X5475902Y-7575475D01*
X5323521Y-6432618D02*
X5856855Y-6432618D01*
X5018760Y-6623094D02*
X5590188Y-6813571D01*
X5590188Y-6813571D02*
X5590188Y-6318332D01*
X6394524Y-14936855D02*
X6394524Y-14136855D01*
X6394524Y-14136855D02*
X6585000Y-14136855D01*
X6585000Y-14136855D02*
X6699286Y-14174950D01*
X6699286Y-14174950D02*
X6775476Y-14251140D01*
X6775476Y-14251140D02*
X6813571Y-14327331D01*
X6813571Y-14327331D02*
X6851667Y-14479712D01*
X6851667Y-14479712D02*
X6851667Y-14593998D01*
X6851667Y-14593998D02*
X6813571Y-14746379D01*
X6813571Y-14746379D02*
X6775476Y-14822569D01*
X6775476Y-14822569D02*
X6699286Y-14898760D01*
X6699286Y-14898760D02*
X6585000Y-14936855D01*
X6585000Y-14936855D02*
X6394524Y-14936855D01*
X7575476Y-14136855D02*
X7194524Y-14136855D01*
X7194524Y-14136855D02*
X7156428Y-14517807D01*
X7156428Y-14517807D02*
X7194524Y-14479712D01*
X7194524Y-14479712D02*
X7270714Y-14441617D01*
X7270714Y-14441617D02*
X7461190Y-14441617D01*
X7461190Y-14441617D02*
X7537381Y-14479712D01*
X7537381Y-14479712D02*
X7575476Y-14517807D01*
X7575476Y-14517807D02*
X7613571Y-14593998D01*
X7613571Y-14593998D02*
X7613571Y-14784474D01*
X7613571Y-14784474D02*
X7575476Y-14860664D01*
X7575476Y-14860664D02*
X7537381Y-14898760D01*
X7537381Y-14898760D02*
X7461190Y-14936855D01*
X7461190Y-14936855D02*
X7270714Y-14936855D01*
X7270714Y-14936855D02*
X7194524Y-14898760D01*
X7194524Y-14898760D02*
X7156428Y-14860664D01*
X10331524Y-8396855D02*
X10331524Y-7596855D01*
X10331524Y-7596855D02*
X10522000Y-7596855D01*
X10522000Y-7596855D02*
X10636286Y-7634950D01*
X10636286Y-7634950D02*
X10712476Y-7711140D01*
X10712476Y-7711140D02*
X10750571Y-7787331D01*
X10750571Y-7787331D02*
X10788667Y-7939712D01*
X10788667Y-7939712D02*
X10788667Y-8053998D01*
X10788667Y-8053998D02*
X10750571Y-8206379D01*
X10750571Y-8206379D02*
X10712476Y-8282569D01*
X10712476Y-8282569D02*
X10636286Y-8358760D01*
X10636286Y-8358760D02*
X10522000Y-8396855D01*
X10522000Y-8396855D02*
X10331524Y-8396855D01*
X11474381Y-7596855D02*
X11322000Y-7596855D01*
X11322000Y-7596855D02*
X11245809Y-7634950D01*
X11245809Y-7634950D02*
X11207714Y-7673045D01*
X11207714Y-7673045D02*
X11131524Y-7787331D01*
X11131524Y-7787331D02*
X11093428Y-7939712D01*
X11093428Y-7939712D02*
X11093428Y-8244474D01*
X11093428Y-8244474D02*
X11131524Y-8320664D01*
X11131524Y-8320664D02*
X11169619Y-8358760D01*
X11169619Y-8358760D02*
X11245809Y-8396855D01*
X11245809Y-8396855D02*
X11398190Y-8396855D01*
X11398190Y-8396855D02*
X11474381Y-8358760D01*
X11474381Y-8358760D02*
X11512476Y-8320664D01*
X11512476Y-8320664D02*
X11550571Y-8244474D01*
X11550571Y-8244474D02*
X11550571Y-8053998D01*
X11550571Y-8053998D02*
X11512476Y-7977807D01*
X11512476Y-7977807D02*
X11474381Y-7939712D01*
X11474381Y-7939712D02*
X11398190Y-7901617D01*
X11398190Y-7901617D02*
X11245809Y-7901617D01*
X11245809Y-7901617D02*
X11169619Y-7939712D01*
X11169619Y-7939712D02*
X11131524Y-7977807D01*
X11131524Y-7977807D02*
X11093428Y-8053998D01*
X9425045Y-9982190D02*
X9386950Y-10058380D01*
X9386950Y-10058380D02*
X9310760Y-10134571D01*
X9310760Y-10134571D02*
X9196474Y-10248857D01*
X9196474Y-10248857D02*
X9158379Y-10325047D01*
X9158379Y-10325047D02*
X9158379Y-10401238D01*
X9348855Y-10363142D02*
X9310760Y-10439333D01*
X9310760Y-10439333D02*
X9234569Y-10515523D01*
X9234569Y-10515523D02*
X9082188Y-10553619D01*
X9082188Y-10553619D02*
X8815521Y-10553619D01*
X8815521Y-10553619D02*
X8663140Y-10515523D01*
X8663140Y-10515523D02*
X8586950Y-10439333D01*
X8586950Y-10439333D02*
X8548855Y-10363142D01*
X8548855Y-10363142D02*
X8548855Y-10210761D01*
X8548855Y-10210761D02*
X8586950Y-10134571D01*
X8586950Y-10134571D02*
X8663140Y-10058380D01*
X8663140Y-10058380D02*
X8815521Y-10020285D01*
X8815521Y-10020285D02*
X9082188Y-10020285D01*
X9082188Y-10020285D02*
X9234569Y-10058380D01*
X9234569Y-10058380D02*
X9310760Y-10134571D01*
X9310760Y-10134571D02*
X9348855Y-10210761D01*
X9348855Y-10210761D02*
X9348855Y-10363142D01*
X8548855Y-9334571D02*
X8548855Y-9486952D01*
X8548855Y-9486952D02*
X8586950Y-9563143D01*
X8586950Y-9563143D02*
X8625045Y-9601238D01*
X8625045Y-9601238D02*
X8739331Y-9677428D01*
X8739331Y-9677428D02*
X8891712Y-9715524D01*
X8891712Y-9715524D02*
X9196474Y-9715524D01*
X9196474Y-9715524D02*
X9272664Y-9677428D01*
X9272664Y-9677428D02*
X9310760Y-9639333D01*
X9310760Y-9639333D02*
X9348855Y-9563143D01*
X9348855Y-9563143D02*
X9348855Y-9410762D01*
X9348855Y-9410762D02*
X9310760Y-9334571D01*
X9310760Y-9334571D02*
X9272664Y-9296476D01*
X9272664Y-9296476D02*
X9196474Y-9258381D01*
X9196474Y-9258381D02*
X9005998Y-9258381D01*
X9005998Y-9258381D02*
X8929807Y-9296476D01*
X8929807Y-9296476D02*
X8891712Y-9334571D01*
X8891712Y-9334571D02*
X8853617Y-9410762D01*
X8853617Y-9410762D02*
X8853617Y-9563143D01*
X8853617Y-9563143D02*
X8891712Y-9639333D01*
X8891712Y-9639333D02*
X8929807Y-9677428D01*
X8929807Y-9677428D02*
X9005998Y-9715524D01*
X8205855Y-15373285D02*
X7824902Y-15639952D01*
X8205855Y-15830428D02*
X7405855Y-15830428D01*
X7405855Y-15830428D02*
X7405855Y-15525666D01*
X7405855Y-15525666D02*
X7443950Y-15449476D01*
X7443950Y-15449476D02*
X7482045Y-15411381D01*
X7482045Y-15411381D02*
X7558236Y-15373285D01*
X7558236Y-15373285D02*
X7672521Y-15373285D01*
X7672521Y-15373285D02*
X7748712Y-15411381D01*
X7748712Y-15411381D02*
X7786807Y-15449476D01*
X7786807Y-15449476D02*
X7824902Y-15525666D01*
X7824902Y-15525666D02*
X7824902Y-15830428D01*
X7482045Y-15068524D02*
X7443950Y-15030428D01*
X7443950Y-15030428D02*
X7405855Y-14954238D01*
X7405855Y-14954238D02*
X7405855Y-14763762D01*
X7405855Y-14763762D02*
X7443950Y-14687571D01*
X7443950Y-14687571D02*
X7482045Y-14649476D01*
X7482045Y-14649476D02*
X7558236Y-14611381D01*
X7558236Y-14611381D02*
X7634426Y-14611381D01*
X7634426Y-14611381D02*
X7748712Y-14649476D01*
X7748712Y-14649476D02*
X8205855Y-15106619D01*
X8205855Y-15106619D02*
X8205855Y-14611381D01*
X7405855Y-14116142D02*
X7405855Y-14039952D01*
X7405855Y-14039952D02*
X7443950Y-13963761D01*
X7443950Y-13963761D02*
X7482045Y-13925666D01*
X7482045Y-13925666D02*
X7558236Y-13887571D01*
X7558236Y-13887571D02*
X7710617Y-13849476D01*
X7710617Y-13849476D02*
X7901093Y-13849476D01*
X7901093Y-13849476D02*
X8053474Y-13887571D01*
X8053474Y-13887571D02*
X8129664Y-13925666D01*
X8129664Y-13925666D02*
X8167760Y-13963761D01*
X8167760Y-13963761D02*
X8205855Y-14039952D01*
X8205855Y-14039952D02*
X8205855Y-14116142D01*
X8205855Y-14116142D02*
X8167760Y-14192333D01*
X8167760Y-14192333D02*
X8129664Y-14230428D01*
X8129664Y-14230428D02*
X8053474Y-14268523D01*
X8053474Y-14268523D02*
X7901093Y-14306619D01*
X7901093Y-14306619D02*
X7710617Y-14306619D01*
X7710617Y-14306619D02*
X7558236Y-14268523D01*
X7558236Y-14268523D02*
X7482045Y-14230428D01*
X7482045Y-14230428D02*
X7443950Y-14192333D01*
X7443950Y-14192333D02*
X7405855Y-14116142D01*
M02*
