M48
; DRILL file KiCad 10.99.0-unknown date 2026-08-12T15:25:31
; FORMAT={-:-/ absolute / metric / decimal}
; #@! TF.CreationDate,2026-08-12T15:25:31+08:00
; #@! TF.GenerationSoftware,Kicad,Pcbnew,10.99.0-unknown
; #@! TF.FileFunction,MixedPlating,1,4
FMAT,2
METRIC
; #@! TA.AperFunction,Plated,PTH,ViaDrill
T1C0.305
; #@! TA.AperFunction,Plated,PTH,ViaDrill
T2C0.305
; #@! TA.AperFunction,Plated,PTH,ViaDrill
T3C0.381
%
G90
G05
T1
X-8.823Y10.862
X-8.788Y11.836
X3.659Y5.6
X3.659Y4.194
X3.659Y2.8
X3.683Y-10.795
X4.934Y5.6
X4.934Y4.206
X4.934Y2.8
X6.335Y5.6
X6.335Y4.183
X6.335Y2.8
X7.696Y6.985
X9.414Y-1.095
X10.414Y-2.747
X12.573Y-8.89
X13.212Y-0.385
X13.97Y-3.81
X14.097Y-0.381
X16.129Y6.477
T2
X-12.827Y-5.334
X-12.192Y2.032
X-11.583Y8.179
X-10.922Y2.54
X-9.601Y3.683
X-9.601Y0.406
X-9.596Y4.953
X-8.172Y3.175
X-7.722Y5.131
X-7.696Y5.893
X-7.254Y11.75
X-6.867Y5.14
X-6.863Y5.888
X-6.35Y11.736
X-5.689Y3.962
X-5.461Y14.986
X-4.953Y8.001
X-4.445Y2.286
X-3.937Y16.891
X-3.561Y7.569
X-2.78Y4.983
X-2.769Y2.997
X-2.769Y1.524
X-2.286Y8.382
X-1.524Y9.525
X-1.397Y-2.794
X-1.016Y7.112
X-0.838Y2.997
X-0.684Y-4.269
X0.0Y4.983
X0.889Y-4.269
X1.778Y-1.422
X1.819Y2.858
X2.159Y17.395
X2.286Y8.561
X2.54Y7.239
X2.794Y0.762
X3.175Y17.395
X3.542Y7.928
X3.683Y0.508
X4.191Y17.395
X4.699Y-0.356
X4.723Y7.349
X4.749Y8.175
X5.207Y17.395
X5.207Y16.643
X5.207Y15.891
X5.207Y15.113
X5.207Y14.275
X5.207Y13.411
X5.816Y11.024
X5.842Y12.7
X5.842Y10.02
X5.842Y9.017
X6.35Y-3.429
X7.112Y0.762
X7.727Y7.992
X7.734Y12.649
X7.747Y9.981
X7.747Y10.871
X7.759Y11.76
X8.738Y12.649
X9.271Y3.916
X9.398Y-0.229
X9.729Y12.649
X10.16Y5.842
X10.16Y3.916
X10.72Y12.649
X10.973Y2.743
X10.986Y3.508
X11.018Y6.078
X11.049Y1.905
X11.71Y12.649
X11.811Y6.35
X11.811Y1.651
X12.303Y0.889
X12.319Y8.128
X12.319Y7.077
X12.701Y12.649
X13.263Y0.889
X13.271Y7.077
X13.692Y12.649
X14.224Y7.077
X14.224Y0.889
X14.617Y12.649
X14.986Y6.731
X14.986Y5.8
X14.986Y4.868
X14.986Y3.937
X14.986Y3.006
X14.986Y2.074
X14.986Y1.143
X15.608Y12.649
X15.875Y-1.651
X16.078Y-6.121
X16.599Y12.649
T3
X-1.016Y-16.637
X-0.059Y-14.425
X0.762Y10.16
X1.016Y-16.637
X5.08Y-10.922
X10.062Y-7.426
X10.16Y-12.573
X11.43Y-9.017
X13.97Y-5.08
X14.477Y-1.853
X15.621Y-8.89
M30
