%TF.GenerationSoftware,KiCad,Pcbnew,10.99.0-unknown*%
%TF.CreationDate,2026-08-12T15:25:30+08:00*%
%TF.ProjectId,__AI________-_C3,0f7a4149-edf3-4f9d-9d00-d17f5f2d5f43,rev?*%
%TF.SameCoordinates,Original*%
%TF.FileFunction,Legend,Bot*%
%TF.FilePolarity,Positive*%
%FSLAX46Y46*%
G04 Gerber Fmt 4.6, Leading zero omitted, Abs format (unit mm)*
G04 Created by KiCad (PCBNEW 10.99.0-unknown) date 2026-08-12 15:25:30*
%MOMM*%
%LPD*%
G01*
G04 APERTURE LIST*
%ADD10C,0.101600*%
G04 APERTURE END LIST*
D10*
X-11399761Y-15640813D02*
X-11702142Y-15701289D01*
X-11702142Y-15701289D02*
X-12004523Y-15882718D01*
X-12004523Y-15882718D02*
X-12185952Y-16185099D01*
X-12185952Y-16185099D02*
X-12246428Y-16487480D01*
X-12246428Y-16487480D02*
X-12185952Y-16789861D01*
X-12185952Y-16789861D02*
X-12004523Y-17092242D01*
X-12004523Y-17092242D02*
X-11702142Y-17273670D01*
X-11702142Y-17273670D02*
X-11399761Y-17334146D01*
X-11399761Y-17334146D02*
X-11097380Y-17273670D01*
X-11097380Y-17273670D02*
X-10794999Y-17092242D01*
X-10794999Y-17092242D02*
X-10613571Y-16789861D01*
X-10613571Y-16789861D02*
X-10553094Y-16487480D01*
X-10553094Y-16487480D02*
X-10613571Y-16185099D01*
X-10613571Y-16185099D02*
X-10794999Y-15882718D01*
X-10794999Y-15882718D02*
X-11097380Y-15701289D01*
X-11097380Y-15701289D02*
X-11399761Y-15640813D01*
X-11157856Y-16124623D02*
X-11278809Y-16064146D01*
X-11278809Y-16064146D02*
X-11520713Y-16064146D01*
X-11520713Y-16064146D02*
X-11641666Y-16124623D01*
X-11641666Y-16124623D02*
X-11762618Y-16245575D01*
X-11762618Y-16245575D02*
X-11823094Y-16366527D01*
X-11823094Y-16366527D02*
X-11823094Y-16608432D01*
X-11823094Y-16608432D02*
X-11762618Y-16729385D01*
X-11762618Y-16729385D02*
X-11641666Y-16850337D01*
X-11641666Y-16850337D02*
X-11520713Y-16910813D01*
X-11520713Y-16910813D02*
X-11278809Y-16910813D01*
X-11278809Y-16910813D02*
X-11157856Y-16850337D01*
X-10069285Y-16487480D02*
X-9585475Y-16487480D01*
X-10069285Y-15943194D02*
X-10069285Y-16608432D01*
X-9827380Y-15640813D02*
X-9827380Y-16971289D01*
X-9524999Y-15761766D02*
X-8617856Y-15761766D01*
X-9101666Y-15761766D02*
X-9101666Y-17092242D01*
X-10069285Y-15943194D02*
X-9585475Y-15943194D01*
X-9585475Y-15943194D02*
X-9585475Y-16487480D01*
X-9645951Y-16668908D02*
X-9585475Y-16971289D01*
X-9585475Y-16971289D02*
X-10190237Y-16971289D01*
X-9101666Y-16185099D02*
X-8859761Y-16245575D01*
X-8859761Y-16245575D02*
X-8738809Y-16427004D01*
X-8315475Y-16427004D02*
X-6743094Y-16427004D01*
X-8254999Y-15761766D02*
X-6743094Y-15761766D01*
X-8073570Y-16910813D02*
X-7468808Y-16910813D01*
X-8073570Y-16608432D02*
X-8073570Y-16971289D01*
X-8073570Y-16185099D02*
X-7468808Y-16185099D01*
X-8073570Y-15943194D02*
X-8073570Y-16185099D01*
X-7347856Y-17092242D02*
X-7045475Y-17092242D01*
X-7347856Y-16306051D02*
X-7045475Y-16306051D01*
X-7045475Y-16427004D02*
X-7045475Y-17092242D01*
X-7045475Y-15761766D02*
X-7045475Y-16306051D01*
X-8073570Y-16608432D02*
X-7468808Y-16608432D01*
X-7468808Y-16608432D02*
X-7468808Y-16910813D01*
X-8073570Y-15943194D02*
X-7468808Y-15943194D01*
X-7468808Y-15943194D02*
X-7468808Y-16185099D01*
M02*
