%TF.GenerationSoftware,KiCad,Pcbnew,10.99.0-unknown*%
%TF.CreationDate,2026-08-12T15:25:30+08:00*%
%TF.ProjectId,__AI________-_C3,0f7a4149-edf3-4f9d-9d00-d17f5f2d5f43,rev?*%
%TF.SameCoordinates,Original*%
%TF.FileFunction,AssemblyDrawing,Top*%
%FSLAX46Y46*%
G04 Gerber Fmt 4.6, Leading zero omitted, Abs format (unit mm)*
G04 Created by KiCad (PCBNEW 10.99.0-unknown) date 2026-08-12 15:25:30*
%MOMM*%
%LPD*%
G01*
G04 APERTURE LIST*
%ADD10C,0.100000*%
G04 APERTURE END LIST*
%TO.C,ANT1*%
D10*
X9549000Y17360000D02*
X12549000Y17360000D01*
X12549000Y15660000D01*
X9549000Y15660000D01*
X9549000Y17360000D01*
%TO.C,BAT1*%
X11102000Y-11610000D02*
X14552000Y-11610000D01*
X14552000Y-15060000D01*
X11102000Y-15060000D01*
X11102000Y-11610000D01*
%TO.C,BOOT1*%
X14531000Y11504000D02*
X17981000Y11504000D01*
X17981000Y8054000D01*
X14531000Y8054000D01*
X14531000Y11504000D01*
%TO.C,C1*%
X-12803000Y5549000D02*
X-9803000Y5549000D01*
X-9803000Y3849000D01*
X-12803000Y3849000D01*
X-12803000Y5549000D01*
%TO.C,C3*%
X-12803000Y6692000D02*
X-9803000Y6692000D01*
X-9803000Y4992000D01*
X-12803000Y4992000D01*
X-12803000Y6692000D01*
%TO.C,C4*%
X-12803000Y7835000D02*
X-9803000Y7835000D01*
X-9803000Y6135000D01*
X-12803000Y6135000D01*
X-12803000Y7835000D01*
%TO.C,C5*%
X-10629000Y10263000D02*
X-8929000Y10263000D01*
X-8929000Y7263000D01*
X-10629000Y7263000D01*
X-10629000Y10263000D01*
%TO.C,C6*%
X-9486000Y10263000D02*
X-7786000Y10263000D01*
X-7786000Y7263000D01*
X-9486000Y7263000D01*
X-9486000Y10263000D01*
%TO.C,C7*%
X-11772000Y2389000D02*
X-10072000Y2389000D01*
X-10072000Y-611000D01*
X-11772000Y-611000D01*
X-11772000Y2389000D01*
%TO.C,C8*%
X-13042000Y2389000D02*
X-11342000Y2389000D01*
X-11342000Y-611000D01*
X-13042000Y-611000D01*
X-13042000Y2389000D01*
%TO.C,C9*%
X-7723000Y3771000D02*
X-4723000Y3771000D01*
X-4723000Y2071000D01*
X-7723000Y2071000D01*
X-7723000Y3771000D01*
%TO.C,C11*%
X-6946000Y10009000D02*
X-5246000Y10009000D01*
X-5246000Y7009000D01*
X-6946000Y7009000D01*
X-6946000Y10009000D01*
%TO.C,C12*%
X-15343000Y-10580000D02*
X-12343000Y-10580000D01*
X-12343000Y-12280000D01*
X-15343000Y-12280000D01*
X-15343000Y-10580000D01*
%TO.C,C13*%
X-10263000Y-10580000D02*
X-7263000Y-10580000D01*
X-7263000Y-12280000D01*
X-10263000Y-12280000D01*
X-10263000Y-10580000D01*
%TO.C,C16*%
X-13042000Y230000D02*
X-11342000Y230000D01*
X-11342000Y-2770000D01*
X-13042000Y-2770000D01*
X-13042000Y230000D01*
%TO.C,C17*%
X-11772000Y230000D02*
X-10072000Y230000D01*
X-10072000Y-2770000D01*
X-11772000Y-2770000D01*
X-11772000Y230000D01*
%TO.C,C18*%
X-8089000Y-6374000D02*
X-6389000Y-6374000D01*
X-6389000Y-9374000D01*
X-8089000Y-9374000D01*
X-8089000Y-6374000D01*
%TO.C,C19*%
X-16598000Y-5993000D02*
X-14898000Y-5993000D01*
X-14898000Y-8993000D01*
X-16598000Y-8993000D01*
X-16598000Y-5993000D01*
%TO.C,C21*%
X11835000Y2501000D02*
X14835000Y2501000D01*
X14835000Y801000D01*
X11835000Y801000D01*
X11835000Y2501000D01*
%TO.C,C22*%
X-215000Y10136000D02*
X1485000Y10136000D01*
X1485000Y7136000D01*
X-215000Y7136000D01*
X-215000Y10136000D01*
%TO.C,C23*%
X11835000Y7200000D02*
X14835000Y7200000D01*
X14835000Y5500000D01*
X11835000Y5500000D01*
X11835000Y7200000D01*
%TO.C,C25*%
X7898000Y8724000D02*
X10898000Y8724000D01*
X10898000Y7024000D01*
X7898000Y7024000D01*
X7898000Y8724000D01*
%TO.C,C26*%
X7898000Y7708000D02*
X10898000Y7708000D01*
X10898000Y6008000D01*
X7898000Y6008000D01*
X7898000Y7708000D01*
%TO.C,C27*%
X801000Y11279000D02*
X2501000Y11279000D01*
X2501000Y8279000D01*
X801000Y8279000D01*
X801000Y11279000D01*
%TO.C,C28*%
X1944000Y11152000D02*
X3644000Y11152000D01*
X3644000Y8152000D01*
X1944000Y8152000D01*
X1944000Y11152000D01*
%TO.C,C29*%
X4230000Y11025000D02*
X5930000Y11025000D01*
X5930000Y8025000D01*
X4230000Y8025000D01*
X4230000Y11025000D01*
%TO.C,C33*%
X-357000Y1612000D02*
X2643000Y1612000D01*
X2643000Y-88000D01*
X-357000Y-88000D01*
X-357000Y1612000D01*
%TO.C,C31*%
X4773800Y12788000D02*
X7773800Y12788000D01*
X7773800Y11088000D01*
X4773800Y11088000D01*
X4773800Y12788000D01*
%TO.C,C32*%
X5739000Y9994000D02*
X8739000Y9994000D01*
X8739000Y8294000D01*
X5739000Y8294000D01*
X5739000Y9994000D01*
%TO.C,C34*%
X-2897000Y5803000D02*
X103000Y5803000D01*
X103000Y4103000D01*
X-2897000Y4103000D01*
X-2897000Y5803000D01*
%TO.C,C20*%
X-8089000Y-4088000D02*
X-6389000Y-4088000D01*
X-6389000Y-7088000D01*
X-8089000Y-7088000D01*
X-8089000Y-4088000D01*
%TO.C,C10*%
X9437000Y-3072000D02*
X11137000Y-3072000D01*
X11137000Y-6072000D01*
X9437000Y-6072000D01*
X9437000Y-3072000D01*
%TO.C,C15*%
X13994000Y-3722000D02*
X16994000Y-3722000D01*
X16994000Y-5422000D01*
X13994000Y-5422000D01*
X13994000Y-3722000D01*
%TO.C,C14*%
X14629000Y1358000D02*
X17629000Y1358000D01*
X17629000Y-342000D01*
X14629000Y-342000D01*
X14629000Y1358000D01*
%TO.C,C2*%
X-12803000Y4533000D02*
X-9803000Y4533000D01*
X-9803000Y2833000D01*
X-12803000Y2833000D01*
X-12803000Y4533000D01*
%TO.C,C24*%
X-4040000Y16598000D02*
X-1040000Y16598000D01*
X-1040000Y14898000D01*
X-4040000Y14898000D01*
X-4040000Y16598000D01*
%TO.C,C30*%
X5500000Y-659000D02*
X7200000Y-659000D01*
X7200000Y-3659000D01*
X5500000Y-3659000D01*
X5500000Y-659000D01*
%TO.C,D4*%
X13501000Y11279000D02*
X15201000Y11279000D01*
X15201000Y8279000D01*
X13501000Y8279000D01*
X13501000Y11279000D01*
%TO.C,D1*%
X-6819000Y-14756000D02*
X-5119000Y-14756000D01*
X-5119000Y-17756000D01*
X-6819000Y-17756000D01*
X-6819000Y-14756000D01*
%TO.C,D2*%
X-484000Y-9056000D02*
X2516000Y-9056000D01*
X2516000Y-10756000D01*
X-484000Y-10756000D01*
X-484000Y-9056000D01*
%TO.C,D3*%
X-2516000Y-9056000D02*
X484000Y-9056000D01*
X484000Y-10756000D01*
X-2516000Y-10756000D01*
X-2516000Y-9056000D01*
%TO.C,IIC1*%
X-1725000Y15314000D02*
X1725000Y15314000D01*
X1725000Y11864000D01*
X-1725000Y11864000D01*
X-1725000Y15314000D01*
%TO.C,L1*%
X3087000Y11279000D02*
X4787000Y11279000D01*
X4787000Y8279000D01*
X3087000Y8279000D01*
X3087000Y11279000D01*
%TO.C,L3*%
X8406000Y5930000D02*
X11406000Y5930000D01*
X11406000Y4230000D01*
X8406000Y4230000D01*
X8406000Y5930000D01*
%TO.C,LDO1*%
X14260100Y-387800D02*
X17700000Y-387800D01*
X17700000Y-3930200D01*
X14260100Y-3930200D01*
X14260100Y-387800D01*
%TO.C,LED1*%
X6643000Y-14248000D02*
X8343000Y-14248000D01*
X8343000Y-17248000D01*
X6643000Y-17248000D01*
X6643000Y-14248000D01*
%TO.C,MIC1*%
X-8583000Y18108000D02*
X-5133000Y18108000D01*
X-5133000Y14658000D01*
X-8583000Y14658000D01*
X-8583000Y18108000D01*
%TO.C,Q4*%
X9189000Y321000D02*
X12139000Y321000D01*
X12139000Y-2861000D01*
X9189000Y-2861000D01*
X9189000Y321000D01*
%TO.C,R1*%
X1802000Y-9056000D02*
X4802000Y-9056000D01*
X4802000Y-10756000D01*
X1802000Y-10756000D01*
X1802000Y-9056000D01*
%TO.C,R3*%
X-4802000Y-9056000D02*
X-1802000Y-9056000D01*
X-1802000Y-10756000D01*
X-4802000Y-10756000D01*
X-4802000Y-9056000D01*
%TO.C,R9*%
X-16598000Y-3834000D02*
X-14898000Y-3834000D01*
X-14898000Y-6834000D01*
X-16598000Y-6834000D01*
X-16598000Y-3834000D01*
%TO.C,R10*%
X-13042000Y-1929000D02*
X-11342000Y-1929000D01*
X-11342000Y-4929000D01*
X-13042000Y-4929000D01*
X-13042000Y-1929000D01*
%TO.C,R11*%
X-11772000Y-1929000D02*
X-10072000Y-1929000D01*
X-10072000Y-4929000D01*
X-11772000Y-4929000D01*
X-11772000Y-1929000D01*
%TO.C,R12*%
X-1358000Y10136000D02*
X342000Y10136000D01*
X342000Y7136000D01*
X-1358000Y7136000D01*
X-1358000Y10136000D01*
%TO.C,R16*%
X5906400Y12066400D02*
X7606400Y12066400D01*
X7606400Y9066400D01*
X5906400Y9066400D01*
X5906400Y12066400D01*
%TO.C,R17*%
X-6311000Y-2056000D02*
X-4611000Y-2056000D01*
X-4611000Y-5056000D01*
X-6311000Y-5056000D01*
X-6311000Y-2056000D01*
%TO.C,R18*%
X4484000Y-659000D02*
X6184000Y-659000D01*
X6184000Y-3659000D01*
X4484000Y-3659000D01*
X4484000Y-659000D01*
%TO.C,R13*%
X1802000Y12407000D02*
X4802000Y12407000D01*
X4802000Y10707000D01*
X1802000Y10707000D01*
X1802000Y12407000D01*
%TO.C,R14*%
X-2389000Y12407000D02*
X611000Y12407000D01*
X611000Y10707000D01*
X-2389000Y10707000D01*
X-2389000Y12407000D01*
%TO.C,R19*%
X-5564000Y4787000D02*
X-2564000Y4787000D01*
X-2564000Y3087000D01*
X-5564000Y3087000D01*
X-5564000Y4787000D01*
%TO.C,R5*%
X11723000Y-5866000D02*
X13423000Y-5866000D01*
X13423000Y-8866000D01*
X11723000Y-8866000D01*
X11723000Y-5866000D01*
%TO.C,R7*%
X11977000Y-3072000D02*
X13677000Y-3072000D01*
X13677000Y-6072000D01*
X11977000Y-6072000D01*
X11977000Y-3072000D01*
%TO.C,R8*%
X10707000Y-3072000D02*
X12407000Y-3072000D01*
X12407000Y-6072000D01*
X10707000Y-6072000D01*
X10707000Y-3072000D01*
%TO.C,R2*%
X11215000Y-24000D02*
X12915000Y-24000D01*
X12915000Y-3024000D01*
X11215000Y-3024000D01*
X11215000Y-24000D01*
%TO.C,SCREW1*%
X-11950001Y16549999D02*
X-10050001Y16549999D01*
X-10050001Y14649999D01*
X-11950001Y14649999D01*
X-11950001Y16549999D01*
%TO.C,SCREW4*%
X14649999Y16549999D02*
X16549999Y16549999D01*
X16549999Y14649999D01*
X14649999Y14649999D01*
X14649999Y16549999D01*
%TO.C,SPK1*%
X-13028000Y-11610000D02*
X-9578000Y-11610000D01*
X-9578000Y-15060000D01*
X-13028000Y-15060000D01*
X-13028000Y-11610000D01*
%TO.C,SW2*%
X13521600Y-6625000D02*
X17974400Y-6625000D01*
X17974400Y-11002500D01*
X13521600Y-11002500D01*
X13521600Y-6625000D01*
%TO.C,U2*%
X-10599000Y9111800D02*
X-3879000Y9111800D01*
X-3879000Y1911800D01*
X-10599000Y1911800D01*
X-10599000Y9111800D01*
%TO.C,U4*%
X-14042000Y-4373000D02*
X-9072000Y-4373000D01*
X-9072000Y-9343000D01*
X-14042000Y-9343000D01*
X-14042000Y-4373000D01*
%TO.C,U5*%
X-200000Y9159999D02*
X10200000Y9159999D01*
X10200000Y-760001D01*
X-200000Y-760001D01*
X-200000Y9159999D01*
%TO.C,U6*%
X-2485000Y-944000D02*
X2485000Y-944000D01*
X2485000Y-5914000D01*
X-2485000Y-5914000D01*
X-2485000Y-944000D01*
%TO.C,U15*%
X8164800Y-5321000D02*
X11901200Y-5321000D01*
X11901200Y-9411000D01*
X8164800Y-9411000D01*
X8164800Y-5321000D01*
%TO.C,USB1*%
X-2560000Y-11527000D02*
X2560000Y-11527000D01*
X2560000Y-17127000D01*
X-2560000Y-17127000D01*
X-2560000Y-11527000D01*
%TO.C,X1*%
X11229000Y5662000D02*
X14679000Y5662000D01*
X14679000Y2212000D01*
X11229000Y2212000D01*
X11229000Y5662000D01*
%TO.C,R15*%
X-4040000Y17741000D02*
X-1040000Y17741000D01*
X-1040000Y16041000D01*
X-4040000Y16041000D01*
X-4040000Y17741000D01*
%TO.C,RGB1*%
X-1725000Y18031800D02*
X1725000Y18031800D01*
X1725000Y14581800D01*
X-1725000Y14581800D01*
X-1725000Y18031800D01*
%TO.C,R4*%
X6643000Y-5485000D02*
X8343000Y-5485000D01*
X8343000Y-8485000D01*
X6643000Y-8485000D01*
X6643000Y-5485000D01*
%TO.C,D5*%
X5485000Y-11723000D02*
X8485000Y-11723000D01*
X8485000Y-13423000D01*
X5485000Y-13423000D01*
X5485000Y-11723000D01*
%TO.C,D6*%
X9422000Y-9183000D02*
X12422000Y-9183000D01*
X12422000Y-10883000D01*
X9422000Y-10883000D01*
X9422000Y-9183000D01*
%TO.C,Q6*%
X5394000Y-8681000D02*
X8576000Y-8681000D01*
X8576000Y-11631000D01*
X5394000Y-11631000D01*
X5394000Y-8681000D01*
%TO.C,R20*%
X4992000Y-13359000D02*
X6692000Y-13359000D01*
X6692000Y-16359000D01*
X4992000Y-16359000D01*
X4992000Y-13359000D01*
%TD*%
M02*
