%TF.GenerationSoftware,KiCad,Pcbnew,10.99.0-unknown*%
%TF.CreationDate,2026-08-12T15:25:30+08:00*%
%TF.ProjectId,__AI________-_C3,0f7a4149-edf3-4f9d-9d00-d17f5f2d5f43,rev?*%
%TF.SameCoordinates,Original*%
%TF.FileFunction,Paste,Top*%
%TF.FilePolarity,Positive*%
%FSLAX46Y46*%
G04 Gerber Fmt 4.6, Leading zero omitted, Abs format (unit mm)*
G04 Created by KiCad (PCBNEW 10.99.0-unknown) date 2026-08-12 15:25:30*
%MOMM*%
%LPD*%
G01*
G04 APERTURE LIST*
G04 Aperture macros list*
%AMRoundRect*
0 Rectangle with rounded corners*
0 $1 Rounding radius*
0 $2 $3 $4 $5 $6 $7 $8 $9 X,Y pos of 4 corners*
0 Add a 4 corners polygon primitive as box body*
4,1,4,$2,$3,$4,$5,$6,$7,$8,$9,$2,$3,0*
0 Add four circle primitives for the rounded corners*
1,1,$1+$1,$2,$3*
1,1,$1+$1,$4,$5*
1,1,$1+$1,$6,$7*
1,1,$1+$1,$8,$9*
0 Add four rect primitives between the rounded corners*
20,1,$1+$1,$2,$3,$4,$5,0*
20,1,$1+$1,$4,$5,$6,$7,0*
20,1,$1+$1,$6,$7,$8,$9,0*
20,1,$1+$1,$8,$9,$2,$3,0*%
G04 Aperture macros list end*
%ADD10RoundRect,0.225000X-0.225000X-0.275000X0.225000X-0.275000X0.225000X0.275000X-0.225000X0.275000X0*%
%ADD11C,0.750000*%
%ADD12RoundRect,0.225000X-0.225000X-0.275000X0.225000X-0.275000X0.225000X0.275000X-0.225000X0.275000X0*%
%ADD13C,1.200000*%
%ADD14RoundRect,0.105000X0.345000X-0.105000X0.345000X0.105000X-0.345000X0.105000X-0.345000X-0.105000X0*%
%ADD15RoundRect,0.105000X-0.105000X-0.345000X0.105000X-0.345000X0.105000X0.345000X-0.105000X0.345000X0*%
G04 APERTURE END LIST*
D10*
%TO.C,ANT1*%
X10349000Y16510000D03*
X11749000Y16510000D03*
%TD*%
D11*
%TO.C,BAT1*%
X13827000Y-13335000D03*
X12827000Y-14335000D03*
X11827000Y-13335000D03*
X12827000Y-12335000D03*
%TD*%
%TO.C,BOOT1*%
X16256000Y8779000D03*
X15256000Y9779000D03*
X16256000Y10779000D03*
X17256000Y9779000D03*
%TD*%
D10*
%TO.C,C1*%
X-12003000Y4699000D03*
X-10603000Y4699000D03*
%TD*%
%TO.C,C3*%
X-12003000Y5842000D03*
X-10603000Y5842000D03*
%TD*%
%TO.C,C4*%
X-12003000Y6985000D03*
X-10603000Y6985000D03*
%TD*%
%TO.C,C5*%
X-9779000Y9463000D03*
X-9779000Y8063000D03*
%TD*%
%TO.C,C6*%
X-8636000Y9463000D03*
X-8636000Y8063000D03*
%TD*%
D12*
%TO.C,C7*%
X-10922000Y189000D03*
X-10922000Y1589000D03*
%TD*%
%TO.C,C8*%
X-12192000Y189000D03*
X-12192000Y1589000D03*
%TD*%
%TO.C,C9*%
X-5523000Y2921000D03*
X-6923000Y2921000D03*
%TD*%
D10*
%TO.C,C11*%
X-6096000Y9209000D03*
X-6096000Y7809000D03*
%TD*%
D12*
%TO.C,C12*%
X-13143000Y-11430000D03*
X-14543000Y-11430000D03*
%TD*%
D10*
%TO.C,C13*%
X-9463000Y-11430000D03*
X-8063000Y-11430000D03*
%TD*%
%TO.C,C16*%
X-12192000Y-570000D03*
X-12192000Y-1970000D03*
%TD*%
%TO.C,C17*%
X-10922000Y-570000D03*
X-10922000Y-1970000D03*
%TD*%
D12*
%TO.C,C18*%
X-7239000Y-8574000D03*
X-7239000Y-7174000D03*
%TD*%
%TO.C,C19*%
X-15748000Y-8193000D03*
X-15748000Y-6793000D03*
%TD*%
%TO.C,C21*%
X14035000Y1651000D03*
X12635000Y1651000D03*
%TD*%
%TO.C,C22*%
X635000Y7936000D03*
X635000Y9336000D03*
%TD*%
D10*
%TO.C,C23*%
X12635000Y6350000D03*
X14035000Y6350000D03*
%TD*%
%TO.C,C25*%
X8698000Y7874000D03*
X10098000Y7874000D03*
%TD*%
%TO.C,C26*%
X8698000Y6858000D03*
X10098000Y6858000D03*
%TD*%
D12*
%TO.C,C27*%
X1651000Y9079000D03*
X1651000Y10479000D03*
%TD*%
D10*
%TO.C,C28*%
X2794000Y10352000D03*
X2794000Y8952000D03*
%TD*%
D12*
%TO.C,C29*%
X5080000Y8825000D03*
X5080000Y10225000D03*
%TD*%
%TO.C,C33*%
X1843000Y762000D03*
X443000Y762000D03*
%TD*%
%TO.C,C31*%
X6973800Y11938000D03*
X5573800Y11938000D03*
%TD*%
D10*
%TO.C,C32*%
X6539000Y9144000D03*
X7939000Y9144000D03*
%TD*%
D12*
%TO.C,C34*%
X-697000Y4953000D03*
X-2097000Y4953000D03*
%TD*%
D10*
%TO.C,C20*%
X-7239000Y-4888000D03*
X-7239000Y-6288000D03*
%TD*%
D12*
%TO.C,C10*%
X10287000Y-5272000D03*
X10287000Y-3872000D03*
%TD*%
D10*
%TO.C,C15*%
X14794000Y-4572000D03*
X16194000Y-4572000D03*
%TD*%
D12*
%TO.C,C14*%
X16829000Y508000D03*
X15429000Y508000D03*
%TD*%
%TO.C,C2*%
X-10603000Y3683000D03*
X-12003000Y3683000D03*
%TD*%
D10*
%TO.C,C24*%
X-3240000Y15748000D03*
X-1840000Y15748000D03*
%TD*%
D12*
%TO.C,C30*%
X6350000Y-2859000D03*
X6350000Y-1459000D03*
%TD*%
%TO.C,D4*%
X14351000Y9079000D03*
X14351000Y10479000D03*
%TD*%
D10*
%TO.C,D1*%
X-5969000Y-15556000D03*
X-5969000Y-16956000D03*
%TD*%
%TO.C,D2*%
X316000Y-9906000D03*
X1716000Y-9906000D03*
%TD*%
D12*
%TO.C,D3*%
X-316000Y-9906000D03*
X-1716000Y-9906000D03*
%TD*%
D11*
%TO.C,IIC1*%
X1000000Y13589000D03*
X0Y12589000D03*
X-1000000Y13589000D03*
X0Y14589000D03*
%TD*%
D10*
%TO.C,L1*%
X3937000Y10479000D03*
X3937000Y9079000D03*
%TD*%
D12*
%TO.C,L3*%
X10606000Y5080000D03*
X9206000Y5080000D03*
%TD*%
D11*
%TO.C,LDO1*%
X16975000Y-2159000D03*
X16214900Y-3205200D03*
X14985100Y-2805600D03*
X14985100Y-1512400D03*
X16214900Y-1112800D03*
%TD*%
D12*
%TO.C,LED1*%
X7493000Y-16448000D03*
X7493000Y-15048000D03*
%TD*%
D11*
%TO.C,MIC1*%
X-6858000Y17383000D03*
X-5858000Y16383000D03*
X-6858000Y15383000D03*
X-7858000Y16383000D03*
%TD*%
%TO.C,Q4*%
X11414000Y-1270000D03*
X9914000Y-2136000D03*
X9914000Y-404000D03*
%TD*%
D10*
%TO.C,R1*%
X2602000Y-9906000D03*
X4002000Y-9906000D03*
%TD*%
D12*
%TO.C,R3*%
X-2602000Y-9906000D03*
X-4002000Y-9906000D03*
%TD*%
%TO.C,R9*%
X-15748000Y-6034000D03*
X-15748000Y-4634000D03*
%TD*%
%TO.C,R10*%
X-12192000Y-4129000D03*
X-12192000Y-2729000D03*
%TD*%
%TO.C,R11*%
X-10922000Y-4129000D03*
X-10922000Y-2729000D03*
%TD*%
D10*
%TO.C,R12*%
X-508000Y9336000D03*
X-508000Y7936000D03*
%TD*%
%TO.C,R16*%
X6756400Y11266400D03*
X6756400Y9866400D03*
%TD*%
D12*
%TO.C,R17*%
X-5461000Y-4256000D03*
X-5461000Y-2856000D03*
%TD*%
%TO.C,R18*%
X5334000Y-2859000D03*
X5334000Y-1459000D03*
%TD*%
D10*
%TO.C,R13*%
X2602000Y11557000D03*
X4002000Y11557000D03*
%TD*%
D12*
%TO.C,R14*%
X-189000Y11557000D03*
X-1589000Y11557000D03*
%TD*%
D10*
%TO.C,R19*%
X-4764000Y3937000D03*
X-3364000Y3937000D03*
%TD*%
%TO.C,R5*%
X12573000Y-6666000D03*
X12573000Y-8066000D03*
%TD*%
D12*
%TO.C,R7*%
X12827000Y-5272000D03*
X12827000Y-3872000D03*
%TD*%
D10*
%TO.C,R8*%
X11557000Y-3872000D03*
X11557000Y-5272000D03*
%TD*%
D12*
%TO.C,R2*%
X12065000Y-2224000D03*
X12065000Y-824000D03*
%TD*%
D13*
%TO.C,SCREW1*%
X-11000001Y15599999D03*
%TD*%
%TO.C,SCREW4*%
X15599999Y15599999D03*
%TD*%
D11*
%TO.C,SPK1*%
X-10303000Y-13335000D03*
X-11303000Y-14335000D03*
X-12303000Y-13335000D03*
X-11303000Y-12335000D03*
%TD*%
%TO.C,SW2*%
X15748000Y-7350000D03*
X16952000Y-7929800D03*
X17249400Y-9232700D03*
X16416200Y-10277500D03*
X15079800Y-10277500D03*
X14246600Y-9232700D03*
X14544000Y-7929800D03*
%TD*%
D14*
%TO.C,U2*%
X-9239000Y8311800D03*
X-8439000Y8311800D03*
X-7639000Y8311800D03*
X-6839000Y8311800D03*
X-6039000Y8311800D03*
X-5239000Y8311800D03*
D15*
X-4439000Y7511800D03*
X-4439000Y6711800D03*
X-4439000Y5911800D03*
X-4439000Y5111800D03*
X-4439000Y4311800D03*
X-4439000Y3511800D03*
D14*
X-5239000Y2711800D03*
X-6039000Y2711800D03*
X-6839000Y2711800D03*
X-7639000Y2711800D03*
X-8439000Y2711800D03*
X-9239000Y2711800D03*
D15*
X-10039000Y3511800D03*
X-10039000Y4311800D03*
X-10039000Y5111800D03*
%TD*%
D11*
%TO.C,U4*%
X-11557000Y-8618000D03*
X-12801500Y-8102500D03*
X-13317000Y-6858000D03*
X-12801500Y-5613500D03*
X-11557000Y-5098000D03*
X-10312500Y-5613500D03*
X-9797000Y-6858000D03*
X-10312500Y-8102500D03*
%TD*%
D14*
%TO.C,U5*%
X9400000Y7799999D03*
X9400000Y6999999D03*
X9400000Y6199999D03*
X9400000Y5399999D03*
X9400000Y4599999D03*
X9400000Y3799999D03*
X9400000Y2999999D03*
X9400000Y2199999D03*
X9400000Y1399999D03*
X9400000Y599999D03*
D15*
X8600000Y-200001D03*
X7800000Y-200001D03*
X7000000Y-200001D03*
X6200000Y-200001D03*
X5400000Y-200001D03*
X4600000Y-200001D03*
X3800000Y-200001D03*
X3000000Y-200001D03*
X2200000Y-200001D03*
X1400000Y-200001D03*
D14*
X600000Y599999D03*
X600000Y1399999D03*
X600000Y2199999D03*
X600000Y2999999D03*
X600000Y3799999D03*
X600000Y4599999D03*
X600000Y5399999D03*
X600000Y6199999D03*
X600000Y6999999D03*
X600000Y7799999D03*
D15*
X1400000Y8599999D03*
X2200000Y8599999D03*
X3000000Y8599999D03*
X3800000Y8599999D03*
X4600000Y8599999D03*
X5400000Y8599999D03*
X6200000Y8599999D03*
%TD*%
D11*
%TO.C,U6*%
X0Y-5189000D03*
X-1244500Y-4673500D03*
X-1760000Y-3429000D03*
X-1244500Y-2184500D03*
X0Y-1669000D03*
X1244500Y-2184500D03*
X1760000Y-3429000D03*
X1244500Y-4673500D03*
%TD*%
%TO.C,U15*%
X10033000Y-8686000D03*
X8889800Y-8026000D03*
X8889800Y-6706000D03*
X10033000Y-6046000D03*
X11176200Y-6706000D03*
X11176200Y-8026000D03*
%TD*%
D14*
%TO.C,USB1*%
X-1200000Y-12327000D03*
X-400000Y-12327000D03*
X400000Y-12327000D03*
X1200000Y-12327000D03*
D15*
X2000000Y-13127000D03*
X2000000Y-13927000D03*
X2000000Y-14727000D03*
X2000000Y-15527000D03*
D14*
X1200000Y-16327000D03*
X400000Y-16327000D03*
X-400000Y-16327000D03*
X-1200000Y-16327000D03*
D15*
X-2000000Y-15527000D03*
X-2000000Y-14727000D03*
X-2000000Y-13927000D03*
X-2000000Y-13127000D03*
%TD*%
D11*
%TO.C,X1*%
X12954000Y2937000D03*
X11954000Y3937000D03*
X12954000Y4937000D03*
X13954000Y3937000D03*
%TD*%
D12*
%TO.C,R15*%
X-1840000Y16891000D03*
X-3240000Y16891000D03*
%TD*%
D11*
%TO.C,RGB1*%
X-1000000Y16306800D03*
X0Y17306800D03*
X1000000Y16306800D03*
X0Y15306800D03*
%TD*%
D12*
%TO.C,R4*%
X7493000Y-7685000D03*
X7493000Y-6285000D03*
%TD*%
%TO.C,D5*%
X7685000Y-12573000D03*
X6285000Y-12573000D03*
%TD*%
D10*
%TO.C,D6*%
X10222000Y-10033000D03*
X11622000Y-10033000D03*
%TD*%
D11*
%TO.C,Q6*%
X6985000Y-10906000D03*
X6119000Y-9406000D03*
X7851000Y-9406000D03*
%TD*%
D10*
%TO.C,R20*%
X5842000Y-14159000D03*
X5842000Y-15559000D03*
%TD*%
M02*
