<?xml version="1.0" standalone="no"?>
 <!DOCTYPE svg PUBLIC "-//W3C//DTD SVG 1.1//EN" 
 "http://www.w3.org/Graphics/SVG/1.1/DTD/svg11.dtd"> 
<svg
  xmlns:svg="http://www.w3.org/2000/svg"
  xmlns="http://www.w3.org/2000/svg"
  xmlns:xlink="http://www.w3.org/1999/xlink"
  xmlns:inkscape="http://www.inkscape.org/namespaces/inkscape"
  version="1.1"
  width="99.9998mm" height="69.9770mm" viewBox="0.0000 0.0000 99.9998 69.9770">
<title>SVG Image created as layout_front.svg date 2026-08-12T15:32:02 </title>
  <desc>Image generated by PCBNEW </desc>
<g style="fill:#000000; fill-opacity:1.0000;stroke:#000000; stroke-opacity:1.0000;
stroke-linecap:round; stroke-linejoin:round;"
 transform="translate(0 0) scale(1 1)">
<path style="fill:none; 
stroke:#AFAFAF; stroke-width:0.1000; stroke-opacity:1; 
stroke-linecap:round; stroke-linejoin:round;fill:none"
d="M 0.1510,58.4820
3.1510,58.4820
3.1510,60.1820
0.1510,60.1820
Z" /> 
<path style="fill:none; 
stroke:#AFAFAF; stroke-width:0.1000; stroke-opacity:1; 
stroke-linecap:round; stroke-linejoin:round;fill:none"
d="M 2.2800,27.9430
7.8800,27.9430
7.8800,33.0630
2.2800,33.0630
Z" /> 
<path style="fill:none; 
stroke:#AFAFAF; stroke-width:0.1000; stroke-opacity:1; 
stroke-linecap:round; stroke-linejoin:round;fill:none"
d="M 3.6400,62.6000
7.1600,62.6000
7.1600,67.4000
3.6400,67.4000
Z" /> 
<path style="fill:none; 
stroke:#AFAFAF; stroke-width:0.1000; stroke-opacity:1; 
stroke-linecap:round; stroke-linejoin:round;fill:none"
d="M 3.6400,2.6000
7.1600,2.6000
7.1600,7.4000
3.6400,7.4000
Z" /> 
<path style="fill:none; 
stroke:#AFAFAF; stroke-width:0.1000; stroke-opacity:1; 
stroke-linecap:round; stroke-linejoin:round;fill:none"
d="M 4.3420,59.2440
7.3420,59.2440
7.3420,60.9440
4.3420,60.9440
Z" /> 
<path style="fill:none; 
stroke:#AFAFAF; stroke-width:0.1000; stroke-opacity:1; 
stroke-linecap:round; stroke-linejoin:round;fill:none"
d="M 4.4980,9.9820
7.9480,9.9820
7.9480,13.4320
4.4980,13.4320
Z" /> 
<path style="fill:none; 
stroke:#AFAFAF; stroke-width:0.1000; stroke-opacity:1; 
stroke-linecap:round; stroke-linejoin:round;fill:none"
d="M 4.4980,17.0940
7.9480,17.0940
7.9480,20.5440
4.4980,20.5440
Z" /> 
<path style="fill:none; 
stroke:#AFAFAF; stroke-width:0.1000; stroke-opacity:1; 
stroke-linecap:round; stroke-linejoin:round;fill:none"
d="M 5.3245,43.2616
15.0445,43.2616
15.0445,53.4616
5.3245,53.4616
Z" /> 
<path style="fill:none; 
stroke:#AFAFAF; stroke-width:0.1000; stroke-opacity:1; 
stroke-linecap:round; stroke-linejoin:round;fill:none"
d="M 8.1520,62.0380
11.1520,62.0380
11.1520,63.7380
8.1520,63.7380
Z" /> 
<path style="fill:none; 
stroke:#AFAFAF; stroke-width:0.1000; stroke-opacity:1; 
stroke-linecap:round; stroke-linejoin:round;fill:none"
d="M 9.3019,58.6230
11.0019,58.6230
11.0019,61.6230
9.3019,61.6230
Z" /> 
<path style="fill:none; 
stroke:#AFAFAF; stroke-width:0.1000; stroke-opacity:1; 
stroke-linecap:round; stroke-linejoin:round;fill:none"
d="M 8.6420,28.4250
12.0920,28.4250
12.0920,31.8750
8.6420,31.8750
Z" /> 
<path style="fill:none; 
stroke:#AFAFAF; stroke-width:0.1000; stroke-opacity:1; 
stroke-linecap:round; stroke-linejoin:round;fill:none"
d="M 8.8034,22.6427
11.8034,22.6427
11.8034,24.3427
8.8034,24.3427
Z" /> 
<path style="fill:none; 
stroke:#AFAFAF; stroke-width:0.1000; stroke-opacity:1; 
stroke-linecap:round; stroke-linejoin:round;fill:none"
d="M 8.8034,24.0397
11.8034,24.0397
11.8034,25.7397
8.8034,25.7397
Z" /> 
<path style="fill:none; 
stroke:#AFAFAF; stroke-width:0.1000; stroke-opacity:1; 
stroke-linecap:round; stroke-linejoin:round;fill:none"
d="M 8.8670,25.4900
11.8670,25.4900
11.8670,27.1900
8.8670,27.1900
Z" /> 
<path style="fill:none; 
stroke:#AFAFAF; stroke-width:0.1000; stroke-opacity:1; 
stroke-linecap:round; stroke-linejoin:round;fill:none"
d="M 8.8670,26.8870
11.8670,26.8870
11.8670,28.5870
8.8670,28.5870
Z" /> 
<path style="fill:none; 
stroke:#AFAFAF; stroke-width:0.1000; stroke-opacity:1; 
stroke-linecap:round; stroke-linejoin:round;fill:none"
d="M 8.8670,31.9670
11.8670,31.9670
11.8670,33.6670
8.8670,33.6670
Z" /> 
<path style="fill:none; 
stroke:#AFAFAF; stroke-width:0.1000; stroke-opacity:1; 
stroke-linecap:round; stroke-linejoin:round;fill:none"
d="M 9.8030,64.1970
12.8030,64.1970
12.8030,65.8970
9.8030,65.8970
Z" /> 
<path style="fill:none; 
stroke:#AFAFAF; stroke-width:0.1000; stroke-opacity:1; 
stroke-linecap:round; stroke-linejoin:round;fill:none"
d="M 9.9300,66.3560
12.9300,66.3560
12.9300,68.0560
9.9300,68.0560
Z" /> 
<path style="fill:none; 
stroke:#AFAFAF; stroke-width:0.1000; stroke-opacity:1; 
stroke-linecap:round; stroke-linejoin:round;fill:none"
d="M 10.7349,58.6219
12.4349,58.6219
12.4349,61.6219
10.7349,61.6219
Z" /> 
<path style="fill:none; 
stroke:#AFAFAF; stroke-width:0.1000; stroke-opacity:1; 
stroke-linecap:round; stroke-linejoin:round;fill:none"
d="M 11.2000,62.0380
14.2000,62.0380
14.2000,63.7380
11.2000,63.7380
Z" /> 
<path style="fill:none; 
stroke:#AFAFAF; stroke-width:0.1000; stroke-opacity:1; 
stroke-linecap:round; stroke-linejoin:round;fill:none"
d="M 11.4170,2.4728
15.5070,2.4728
15.5070,6.2092
11.4170,6.2092
Z" /> 
<path style="fill:none; 
stroke:#AFAFAF; stroke-width:0.1000; stroke-opacity:1; 
stroke-linecap:round; stroke-linejoin:round;fill:none"
d="M 13.2530,8.7190
16.2030,8.7190
16.2030,11.9010
13.2530,11.9010
Z" /> 
<path style="fill:none; 
stroke:#AFAFAF; stroke-width:0.1000; stroke-opacity:1; 
stroke-linecap:round; stroke-linejoin:round;fill:none"
d="M 13.4860,13.3970
16.4860,13.3970
16.4860,15.0970
13.4860,15.0970
Z" /> 
<path style="fill:none; 
stroke:#AFAFAF; stroke-width:0.1000; stroke-opacity:1; 
stroke-linecap:round; stroke-linejoin:round;fill:none"
d="M 13.4860,12.0000
16.4860,12.0000
16.4860,13.7000
13.4860,13.7000
Z" /> 
<path style="fill:none; 
stroke:#AFAFAF; stroke-width:0.1000; stroke-opacity:1; 
stroke-linecap:round; stroke-linejoin:round;fill:none"
d="M 13.4830,16.1910
16.4830,16.1910
16.4830,17.8910
13.4830,17.8910
Z" /> 
<path style="fill:none; 
stroke:#AFAFAF; stroke-width:0.1000; stroke-opacity:1; 
stroke-linecap:round; stroke-linejoin:round;fill:none"
d="M 13.5033,14.7940
16.5033,14.7940
16.5033,16.4940
13.5033,16.4940
Z" /> 
<path style="fill:none; 
stroke:#AFAFAF; stroke-width:0.1000; stroke-opacity:1; 
stroke-linecap:round; stroke-linejoin:round;fill:none"
d="M 14.3900,35.2260
16.0900,35.2260
16.0900,38.2260
14.3900,38.2260
Z" /> 
<path style="fill:none; 
stroke:#AFAFAF; stroke-width:0.1000; stroke-opacity:1; 
stroke-linecap:round; stroke-linejoin:round;fill:none"
d="M 13.6630,25.9390
19.2630,25.9390
19.2630,31.0590
13.6630,31.0590
Z" /> 
<path style="fill:none; 
stroke:#AFAFAF; stroke-width:0.1000; stroke-opacity:1; 
stroke-linecap:round; stroke-linejoin:round;fill:none"
d="M 16.4070,16.1910
19.4070,16.1910
19.4070,17.8910
16.4070,17.8910
Z" /> 
<path style="fill:none; 
stroke:#AFAFAF; stroke-width:0.1000; stroke-opacity:1; 
stroke-linecap:round; stroke-linejoin:round;fill:none"
d="M 16.4070,17.5880
19.4070,17.5880
19.4070,19.2880
16.4070,19.2880
Z" /> 
<path style="fill:none; 
stroke:#AFAFAF; stroke-width:0.1000; stroke-opacity:1; 
stroke-linecap:round; stroke-linejoin:round;fill:none"
d="M 16.4040,14.7940
19.4040,14.7940
19.4040,16.4940
16.4040,16.4940
Z" /> 
<path style="fill:none; 
stroke:#AFAFAF; stroke-width:0.1000; stroke-opacity:1; 
stroke-linecap:round; stroke-linejoin:round;fill:none"
d="M 17.6920,8.4290
19.3920,8.4290
19.3920,11.4290
17.6920,11.4290
Z" /> 
<path style="fill:none; 
stroke:#AFAFAF; stroke-width:0.1000; stroke-opacity:1; 
stroke-linecap:round; stroke-linejoin:round;fill:none"
d="M 18.3120,1.9670
21.3120,1.9670
21.3120,3.6670
18.3120,3.6670
Z" /> 
<path style="fill:none; 
stroke:#AFAFAF; stroke-width:0.1000; stroke-opacity:1; 
stroke-linecap:round; stroke-linejoin:round;fill:none"
d="M 18.3120,0.4430
21.3120,0.4430
21.3120,2.1430
18.3120,2.1430
Z" /> 
<path style="fill:none; 
stroke:#AFAFAF; stroke-width:0.1000; stroke-opacity:1; 
stroke-linecap:round; stroke-linejoin:round;fill:none"
d="M 18.6460,21.8070
21.6460,21.8070
21.6460,23.5070
18.6460,23.5070
Z" /> 
<path style="fill:none; 
stroke:#AFAFAF; stroke-width:0.1000; stroke-opacity:1; 
stroke-linecap:round; stroke-linejoin:round;fill:none"
d="M 20.6130,40.3060
22.3130,40.3060
22.3130,43.3060
20.6130,43.3060
Z" /> 
<path style="fill:none; 
stroke:#AFAFAF; stroke-width:0.1000; stroke-opacity:1; 
stroke-linecap:round; stroke-linejoin:round;fill:none"
d="M 20.7047,26.8603
22.4047,26.8603
22.4047,29.8603
20.7047,29.8603
Z" /> 
<path style="fill:none; 
stroke:#AFAFAF; stroke-width:0.1000; stroke-opacity:1; 
stroke-linecap:round; stroke-linejoin:round;fill:none"
d="M 20.8527,29.9373
24.0347,29.9373
24.0347,32.8873
20.8527,32.8873
Z" /> 
<path style="fill:none; 
stroke:#AFAFAF; stroke-width:0.1000; stroke-opacity:1; 
stroke-linecap:round; stroke-linejoin:round;fill:none"
d="M 20.8527,23.8333
24.0347,23.8333
24.0347,26.7833
20.8527,26.7833
Z" /> 
<path style="fill:none; 
stroke:#AFAFAF; stroke-width:0.1000; stroke-opacity:1; 
stroke-linecap:round; stroke-linejoin:round;fill:none"
d="M 22.3557,26.8603
24.0557,26.8603
24.0557,29.8603
22.3557,29.8603
Z" /> 
<path style="fill:none; 
stroke:#AFAFAF; stroke-width:0.1000; stroke-opacity:1; 
stroke-linecap:round; stroke-linejoin:round;fill:none"
d="M 38.6070,62.7740
42.9270,62.7740
42.9270,67.5740
38.6070,67.5740
Z" /> 
<path style="fill:none; 
stroke:#AFAFAF; stroke-width:0.1000; stroke-opacity:1; 
stroke-linecap:round; stroke-linejoin:round;fill:none"
d="M 41.0224,3.0724
44.4623,3.0724
44.4623,6.6148
41.0224,6.6148
Z" /> 
<path style="fill:none; 
stroke:#AFAFAF; stroke-width:0.1000; stroke-opacity:1; 
stroke-linecap:round; stroke-linejoin:round;fill:none"
d="M 41.1373,1.1996
44.1373,1.1996
44.1373,2.8996
41.1373,2.8996
Z" /> 
<path style="fill:none; 
stroke:#AFAFAF; stroke-width:0.1000; stroke-opacity:1; 
stroke-linecap:round; stroke-linejoin:round;fill:none"
d="M 40.8123,6.8824
44.2522,6.8824
44.2522,10.4248
40.8123,10.4248
Z" /> 
<path style="fill:none; 
stroke:#AFAFAF; stroke-width:0.1000; stroke-opacity:1; 
stroke-linecap:round; stroke-linejoin:round;fill:none"
d="M 43.0423,10.5976
46.0423,10.5976
46.0423,12.2976
43.0423,12.2976
Z" /> 
<path style="fill:none; 
stroke:#AFAFAF; stroke-width:0.1000; stroke-opacity:1; 
stroke-linecap:round; stroke-linejoin:round;fill:none"
d="M 44.5813,3.5976
46.2813,3.5976
46.2813,6.5976
44.5813,6.5976
Z" /> 
<path style="fill:none; 
stroke:#AFAFAF; stroke-width:0.1000; stroke-opacity:1; 
stroke-linecap:round; stroke-linejoin:round;fill:none"
d="M 44.6160,6.7780
46.3160,6.7780
46.3160,9.7780
44.6160,9.7780
Z" /> 
<path style="fill:none; 
stroke:#AFAFAF; stroke-width:0.1000; stroke-opacity:1; 
stroke-linecap:round; stroke-linejoin:round;fill:none"
d="M 47.9180,7.0320
49.6180,7.0320
49.6180,10.0320
47.9180,10.0320
Z" /> 
<path style="fill:none; 
stroke:#AFAFAF; stroke-width:0.1000; stroke-opacity:1; 
stroke-linecap:round; stroke-linejoin:round;fill:none"
d="M 48.9190,3.3640
51.9190,3.3640
51.9190,5.0640
48.9190,5.0640
Z" /> 
<path style="fill:none; 
stroke:#AFAFAF; stroke-width:0.1000; stroke-opacity:1; 
stroke-linecap:round; stroke-linejoin:round;fill:none"
d="M 50.3310,7.7940
52.0310,7.7940
52.0310,10.7940
50.3310,10.7940
Z" /> 
<path style="fill:none; 
stroke:#AFAFAF; stroke-width:0.1000; stroke-opacity:1; 
stroke-linecap:round; stroke-linejoin:round;fill:none"
d="M 51.7280,7.7940
53.4280,7.7940
53.4280,10.7940
51.7280,10.7940
Z" /> 
<path style="fill:none; 
stroke:#AFAFAF; stroke-width:0.1000; stroke-opacity:1; 
stroke-linecap:round; stroke-linejoin:round;fill:none"
d="M 52.1090,47.1640
53.8090,47.1640
53.8090,50.1640
52.1090,50.1640
Z" /> 
<path style="fill:none; 
stroke:#AFAFAF; stroke-width:0.1000; stroke-opacity:1; 
stroke-linecap:round; stroke-linejoin:round;fill:none"
d="M 52.1090,43.5184
53.8090,43.5184
53.8090,46.5184
52.1090,46.5184
Z" /> 
<path style="fill:none; 
stroke:#AFAFAF; stroke-width:0.1000; stroke-opacity:1; 
stroke-linecap:round; stroke-linejoin:round;fill:none"
d="M 53.2498,6.4870
56.9862,6.4870
56.9862,10.5770
53.2498,10.5770
Z" /> 
<path style="fill:none; 
stroke:#AFAFAF; stroke-width:0.1000; stroke-opacity:1; 
stroke-linecap:round; stroke-linejoin:round;fill:none"
d="M 53.5686,44.8930
56.5686,44.8930
56.5686,46.5930
53.5686,46.5930
Z" /> 
<path style="fill:none; 
stroke:#AFAFAF; stroke-width:0.1000; stroke-opacity:1; 
stroke-linecap:round; stroke-linejoin:round;fill:none"
d="M 53.5901,51.9099
56.5901,51.9099
56.5901,53.6099
53.5901,53.6099
Z" /> 
<path style="fill:none; 
stroke:#AFAFAF; stroke-width:0.1000; stroke-opacity:1; 
stroke-linecap:round; stroke-linejoin:round;fill:none"
d="M 53.6180,53.4020
56.6180,53.4020
56.6180,55.1020
53.6180,55.1020
Z" /> 
<path style="fill:none; 
stroke:#AFAFAF; stroke-width:0.1000; stroke-opacity:1; 
stroke-linecap:round; stroke-linejoin:round;fill:none"
d="M 53.6180,47.0520
56.6180,47.0520
56.6180,48.7520
53.6180,48.7520
Z" /> 
<path style="fill:none; 
stroke:#AFAFAF; stroke-width:0.1000; stroke-opacity:1; 
stroke-linecap:round; stroke-linejoin:round;fill:none"
d="M 55.3960,3.2370
58.3960,3.2370
58.3960,4.9370
55.3960,4.9370
Z" /> 
<path style="fill:none; 
stroke:#AFAFAF; stroke-width:0.1000; stroke-opacity:1; 
stroke-linecap:round; stroke-linejoin:round;fill:none"
d="M 56.8080,7.6670
58.5080,7.6670
58.5080,10.6670
56.8080,10.6670
Z" /> 
<path style="fill:none; 
stroke:#AFAFAF; stroke-width:0.1000; stroke-opacity:1; 
stroke-linecap:round; stroke-linejoin:round;fill:none"
d="M 59.2210,8.1750
60.9210,8.1750
60.9210,11.1750
59.2210,11.1750
Z" /> 
<path style="fill:none; 
stroke:#AFAFAF; stroke-width:0.1000; stroke-opacity:1; 
stroke-linecap:round; stroke-linejoin:round;fill:none"
d="M 66.8410,11.8580
68.5410,11.8580
68.5410,14.8580
66.8410,14.8580
Z" /> 
<path style="fill:none; 
stroke:#AFAFAF; stroke-width:0.1000; stroke-opacity:1; 
stroke-linecap:round; stroke-linejoin:round;fill:none"
d="M 68.2380,11.8580
69.9380,11.8580
69.9380,14.8580
68.2380,14.8580
Z" /> 
<path style="fill:none; 
stroke:#AFAFAF; stroke-width:0.1000; stroke-opacity:1; 
stroke-linecap:round; stroke-linejoin:round;fill:none"
d="M 69.7534,11.9764
71.4534,11.9764
71.4534,14.9764
69.7534,14.9764
Z" /> 
<path style="fill:none; 
stroke:#AFAFAF; stroke-width:0.1000; stroke-opacity:1; 
stroke-linecap:round; stroke-linejoin:round;fill:none"
d="M 69.1120,16.3180
72.1120,16.3180
72.1120,18.0180
69.1120,18.0180
Z" /> 
<path style="fill:none; 
stroke:#AFAFAF; stroke-width:0.1000; stroke-opacity:1; 
stroke-linecap:round; stroke-linejoin:round;fill:none"
d="M 69.3660,18.0960
72.3660,18.0960
72.3660,19.7960
69.3660,19.7960
Z" /> 
<path style="fill:none; 
stroke:#AFAFAF; stroke-width:0.1000; stroke-opacity:1; 
stroke-linecap:round; stroke-linejoin:round;fill:none"
d="M 69.4930,14.6670
72.4930,14.6670
72.4930,16.3670
69.4930,16.3670
Z" /> 
<path style="fill:none; 
stroke:#AFAFAF; stroke-width:0.1000; stroke-opacity:1; 
stroke-linecap:round; stroke-linejoin:round;fill:none"
d="M 71.0320,11.5004
72.7320,11.5004
72.7320,14.5004
71.0320,14.5004
Z" /> 
<path style="fill:none; 
stroke:#AFAFAF; stroke-width:0.1000; stroke-opacity:1; 
stroke-linecap:round; stroke-linejoin:round;fill:none"
d="M 75.1587,12.8852
78.6787,12.8852
78.6787,17.6852
75.1587,17.6852
Z" /> 
<path style="fill:none; 
stroke:#AFAFAF; stroke-width:0.1000; stroke-opacity:1; 
stroke-linecap:round; stroke-linejoin:round;fill:none"
d="M 77.2550,6.9050
78.9550,6.9050
78.9550,9.9050
77.2550,9.9050
Z" /> 
<path style="fill:none; 
stroke:#AFAFAF; stroke-width:0.1000; stroke-opacity:1; 
stroke-linecap:round; stroke-linejoin:round;fill:none"
d="M 77.2550,3.7300
78.9550,3.7300
78.9550,6.7300
77.2550,6.7300
Z" /> 
<path style="fill:none; 
stroke:#AFAFAF; stroke-width:0.1000; stroke-opacity:1; 
stroke-linecap:round; stroke-linejoin:round;fill:none"
d="M 77.2400,18.2230
80.2400,18.2230
80.2400,19.9230
77.2400,19.9230
Z" /> 
<path style="fill:none; 
stroke:#AFAFAF; stroke-width:0.1000; stroke-opacity:1; 
stroke-linecap:round; stroke-linejoin:round;fill:none"
d="M 80.4300,3.6030
82.1300,3.6030
82.1300,6.6030
80.4300,6.6030
Z" /> 
<path style="fill:none; 
stroke:#AFAFAF; stroke-width:0.1000; stroke-opacity:1; 
stroke-linecap:round; stroke-linejoin:round;fill:none"
d="M 80.5570,6.7780
82.2570,6.7780
82.2570,9.7780
80.5570,9.7780
Z" /> 
<path style="fill:none; 
stroke:#AFAFAF; stroke-width:0.1000; stroke-opacity:1; 
stroke-linecap:round; stroke-linejoin:round;fill:none"
d="M 75.5640,45.7560
79.8840,45.7560
79.8840,50.5560
75.5640,50.5560
Z" /> 
<path style="fill:none; 
stroke:#AFAFAF; stroke-width:0.1000; stroke-opacity:1; 
stroke-linecap:round; stroke-linejoin:round;fill:none"
d="M 83.9710,11.4920
86.9710,11.4920
86.9710,13.1920
83.9710,13.1920
Z" /> 
<path style="fill:none; 
stroke:#AFAFAF; stroke-width:0.1000; stroke-opacity:1; 
stroke-linecap:round; stroke-linejoin:round;fill:none"
d="M 85.4282,14.4526
88.9482,14.4526
88.9482,19.2526
85.4282,19.2526
Z" /> 
<path style="fill:none; 
stroke:#AFAFAF; stroke-width:0.1000; stroke-opacity:1; 
stroke-linecap:round; stroke-linejoin:round;fill:none"
d="M 86.7620,11.4920
89.7620,11.4920
89.7620,13.1920
86.7620,13.1920
Z" /> 
<path style="fill:none; 
stroke:#AFAFAF; stroke-width:0.1000; stroke-opacity:1; 
stroke-linecap:round; stroke-linejoin:round;fill:none"
d="M 89.9550,15.1600
91.6550,15.1600
91.6550,18.1600
89.9550,18.1600
Z" /> 
<path style="fill:none; 
stroke:#AFAFAF; stroke-width:0.1000; stroke-opacity:1; 
stroke-linecap:round; stroke-linejoin:round;fill:none"
d="M 93.6400,2.6000
97.1600,2.6000
97.1600,7.4000
93.6400,7.4000
Z" /> 
<path style="fill:none; 
stroke:#AFAFAF; stroke-width:0.1000; stroke-opacity:1; 
stroke-linecap:round; stroke-linejoin:round;fill:none"
d="M 93.6400,62.6000
97.1600,62.6000
97.1600,67.4000
93.6400,67.4000
Z" /> 
<path style="fill:none; 
stroke:#FF26E2; stroke-width:0.0500; stroke-opacity:1; 
stroke-linecap:round; stroke-linejoin:round;fill:none"
d="M 0.1510,58.4820
3.1510,58.4820
3.1510,60.1820
0.1510,60.1820
Z" /> 
<path style="fill:none; 
stroke:#FF26E2; stroke-width:0.0500; stroke-opacity:1; 
stroke-linecap:round; stroke-linejoin:round;fill:none"
d="M 2.2800,27.9430
7.8800,27.9430
7.8800,33.0630
2.2800,33.0630
Z" /> 
<path style="fill:none; 
stroke:#FF26E2; stroke-width:0.0500; stroke-opacity:1; 
stroke-linecap:round; stroke-linejoin:round;fill:none"
d="M 3.6400,62.6000
7.1600,62.6000
7.1600,67.4000
3.6400,67.4000
Z" /> 
<path style="fill:none; 
stroke:#FF26E2; stroke-width:0.0500; stroke-opacity:1; 
stroke-linecap:round; stroke-linejoin:round;fill:none"
d="M 3.6400,2.6000
7.1600,2.6000
7.1600,7.4000
3.6400,7.4000
Z" /> 
<path style="fill:none; 
stroke:#FF26E2; stroke-width:0.0500; stroke-opacity:1; 
stroke-linecap:round; stroke-linejoin:round;fill:none"
d="M 4.3420,59.2440
7.3420,59.2440
7.3420,60.9440
4.3420,60.9440
Z" /> 
<path style="fill:none; 
stroke:#FF26E2; stroke-width:0.0500; stroke-opacity:1; 
stroke-linecap:round; stroke-linejoin:round;fill:none"
d="M 4.4980,9.9820
7.9480,9.9820
7.9480,13.4320
4.4980,13.4320
Z" /> 
<path style="fill:none; 
stroke:#FF26E2; stroke-width:0.0500; stroke-opacity:1; 
stroke-linecap:round; stroke-linejoin:round;fill:none"
d="M 4.4980,17.0940
7.9480,17.0940
7.9480,20.5440
4.4980,20.5440
Z" /> 
<path style="fill:none; 
stroke:#FF26E2; stroke-width:0.0500; stroke-opacity:1; 
stroke-linecap:round; stroke-linejoin:round;fill:none"
d="M 5.3245,43.2616
15.0445,43.2616
15.0445,53.4616
5.3245,53.4616
Z" /> 
<path style="fill:none; 
stroke:#FF26E2; stroke-width:0.0500; stroke-opacity:1; 
stroke-linecap:round; stroke-linejoin:round;fill:none"
d="M 8.1520,62.0380
11.1520,62.0380
11.1520,63.7380
8.1520,63.7380
Z" /> 
<path style="fill:none; 
stroke:#FF26E2; stroke-width:0.0500; stroke-opacity:1; 
stroke-linecap:round; stroke-linejoin:round;fill:none"
d="M 9.3019,58.6230
11.0019,58.6230
11.0019,61.6230
9.3019,61.6230
Z" /> 
<path style="fill:none; 
stroke:#FF26E2; stroke-width:0.0500; stroke-opacity:1; 
stroke-linecap:round; stroke-linejoin:round;fill:none"
d="M 8.6420,28.4250
12.0920,28.4250
12.0920,31.8750
8.6420,31.8750
Z" /> 
<path style="fill:none; 
stroke:#FF26E2; stroke-width:0.0500; stroke-opacity:1; 
stroke-linecap:round; stroke-linejoin:round;fill:none"
d="M 8.8034,22.6427
11.8034,22.6427
11.8034,24.3427
8.8034,24.3427
Z" /> 
<path style="fill:none; 
stroke:#FF26E2; stroke-width:0.0500; stroke-opacity:1; 
stroke-linecap:round; stroke-linejoin:round;fill:none"
d="M 8.8034,24.0397
11.8034,24.0397
11.8034,25.7397
8.8034,25.7397
Z" /> 
<path style="fill:none; 
stroke:#FF26E2; stroke-width:0.0500; stroke-opacity:1; 
stroke-linecap:round; stroke-linejoin:round;fill:none"
d="M 8.8670,25.4900
11.8670,25.4900
11.8670,27.1900
8.8670,27.1900
Z" /> 
<path style="fill:none; 
stroke:#FF26E2; stroke-width:0.0500; stroke-opacity:1; 
stroke-linecap:round; stroke-linejoin:round;fill:none"
d="M 8.8670,26.8870
11.8670,26.8870
11.8670,28.5870
8.8670,28.5870
Z" /> 
<path style="fill:none; 
stroke:#FF26E2; stroke-width:0.0500; stroke-opacity:1; 
stroke-linecap:round; stroke-linejoin:round;fill:none"
d="M 8.8670,31.9670
11.8670,31.9670
11.8670,33.6670
8.8670,33.6670
Z" /> 
<path style="fill:none; 
stroke:#FF26E2; stroke-width:0.0500; stroke-opacity:1; 
stroke-linecap:round; stroke-linejoin:round;fill:none"
d="M 9.8030,64.1970
12.8030,64.1970
12.8030,65.8970
9.8030,65.8970
Z" /> 
<path style="fill:none; 
stroke:#FF26E2; stroke-width:0.0500; stroke-opacity:1; 
stroke-linecap:round; stroke-linejoin:round;fill:none"
d="M 9.9300,66.3560
12.9300,66.3560
12.9300,68.0560
9.9300,68.0560
Z" /> 
<path style="fill:none; 
stroke:#FF26E2; stroke-width:0.0500; stroke-opacity:1; 
stroke-linecap:round; stroke-linejoin:round;fill:none"
d="M 10.7349,58.6219
12.4349,58.6219
12.4349,61.6219
10.7349,61.6219
Z" /> 
<path style="fill:none; 
stroke:#FF26E2; stroke-width:0.0500; stroke-opacity:1; 
stroke-linecap:round; stroke-linejoin:round;fill:none"
d="M 11.2000,62.0380
14.2000,62.0380
14.2000,63.7380
11.2000,63.7380
Z" /> 
<path style="fill:none; 
stroke:#FF26E2; stroke-width:0.0500; stroke-opacity:1; 
stroke-linecap:round; stroke-linejoin:round;fill:none"
d="M 11.4170,2.4728
15.5070,2.4728
15.5070,6.2092
11.4170,6.2092
Z" /> 
<path style="fill:none; 
stroke:#FF26E2; stroke-width:0.0500; stroke-opacity:1; 
stroke-linecap:round; stroke-linejoin:round;fill:none"
d="M 13.2530,8.7190
16.2030,8.7190
16.2030,11.9010
13.2530,11.9010
Z" /> 
<path style="fill:none; 
stroke:#FF26E2; stroke-width:0.0500; stroke-opacity:1; 
stroke-linecap:round; stroke-linejoin:round;fill:none"
d="M 13.4860,13.3970
16.4860,13.3970
16.4860,15.0970
13.4860,15.0970
Z" /> 
<path style="fill:none; 
stroke:#FF26E2; stroke-width:0.0500; stroke-opacity:1; 
stroke-linecap:round; stroke-linejoin:round;fill:none"
d="M 13.4860,12.0000
16.4860,12.0000
16.4860,13.7000
13.4860,13.7000
Z" /> 
<path style="fill:none; 
stroke:#FF26E2; stroke-width:0.0500; stroke-opacity:1; 
stroke-linecap:round; stroke-linejoin:round;fill:none"
d="M 13.4830,16.1910
16.4830,16.1910
16.4830,17.8910
13.4830,17.8910
Z" /> 
<path style="fill:none; 
stroke:#FF26E2; stroke-width:0.0500; stroke-opacity:1; 
stroke-linecap:round; stroke-linejoin:round;fill:none"
d="M 13.5033,14.7940
16.5033,14.7940
16.5033,16.4940
13.5033,16.4940
Z" /> 
<path style="fill:none; 
stroke:#FF26E2; stroke-width:0.0500; stroke-opacity:1; 
stroke-linecap:round; stroke-linejoin:round;fill:none"
d="M 14.3900,35.2260
16.0900,35.2260
16.0900,38.2260
14.3900,38.2260
Z" /> 
<path style="fill:none; 
stroke:#FF26E2; stroke-width:0.0500; stroke-opacity:1; 
stroke-linecap:round; stroke-linejoin:round;fill:none"
d="M 13.6630,25.9390
19.2630,25.9390
19.2630,31.0590
13.6630,31.0590
Z" /> 
<path style="fill:none; 
stroke:#FF26E2; stroke-width:0.0500; stroke-opacity:1; 
stroke-linecap:round; stroke-linejoin:round;fill:none"
d="M 16.4070,16.1910
19.4070,16.1910
19.4070,17.8910
16.4070,17.8910
Z" /> 
<path style="fill:none; 
stroke:#FF26E2; stroke-width:0.0500; stroke-opacity:1; 
stroke-linecap:round; stroke-linejoin:round;fill:none"
d="M 16.4070,17.5880
19.4070,17.5880
19.4070,19.2880
16.4070,19.2880
Z" /> 
<path style="fill:none; 
stroke:#FF26E2; stroke-width:0.0500; stroke-opacity:1; 
stroke-linecap:round; stroke-linejoin:round;fill:none"
d="M 16.4040,14.7940
19.4040,14.7940
19.4040,16.4940
16.4040,16.4940
Z" /> 
<path style="fill:none; 
stroke:#FF26E2; stroke-width:0.0500; stroke-opacity:1; 
stroke-linecap:round; stroke-linejoin:round;fill:none"
d="M 17.6920,8.4290
19.3920,8.4290
19.3920,11.4290
17.6920,11.4290
Z" /> 
<path style="fill:none; 
stroke:#FF26E2; stroke-width:0.0500; stroke-opacity:1; 
stroke-linecap:round; stroke-linejoin:round;fill:none"
d="M 18.3120,1.9670
21.3120,1.9670
21.3120,3.6670
18.3120,3.6670
Z" /> 
<path style="fill:none; 
stroke:#FF26E2; stroke-width:0.0500; stroke-opacity:1; 
stroke-linecap:round; stroke-linejoin:round;fill:none"
d="M 18.3120,0.4430
21.3120,0.4430
21.3120,2.1430
18.3120,2.1430
Z" /> 
<path style="fill:none; 
stroke:#FF26E2; stroke-width:0.0500; stroke-opacity:1; 
stroke-linecap:round; stroke-linejoin:round;fill:none"
d="M 18.6460,21.8070
21.6460,21.8070
21.6460,23.5070
18.6460,23.5070
Z" /> 
<path style="fill:none; 
stroke:#FF26E2; stroke-width:0.0500; stroke-opacity:1; 
stroke-linecap:round; stroke-linejoin:round;fill:none"
d="M 20.6130,40.3060
22.3130,40.3060
22.3130,43.3060
20.6130,43.3060
Z" /> 
<path style="fill:none; 
stroke:#FF26E2; stroke-width:0.0500; stroke-opacity:1; 
stroke-linecap:round; stroke-linejoin:round;fill:none"
d="M 20.7047,26.8603
22.4047,26.8603
22.4047,29.8603
20.7047,29.8603
Z" /> 
<path style="fill:none; 
stroke:#FF26E2; stroke-width:0.0500; stroke-opacity:1; 
stroke-linecap:round; stroke-linejoin:round;fill:none"
d="M 20.8527,29.9373
24.0347,29.9373
24.0347,32.8873
20.8527,32.8873
Z" /> 
<path style="fill:none; 
stroke:#FF26E2; stroke-width:0.0500; stroke-opacity:1; 
stroke-linecap:round; stroke-linejoin:round;fill:none"
d="M 20.8527,23.8333
24.0347,23.8333
24.0347,26.7833
20.8527,26.7833
Z" /> 
<path style="fill:none; 
stroke:#FF26E2; stroke-width:0.0500; stroke-opacity:1; 
stroke-linecap:round; stroke-linejoin:round;fill:none"
d="M 22.3557,26.8603
24.0557,26.8603
24.0557,29.8603
22.3557,29.8603
Z" /> 
<path style="fill:none; 
stroke:#FF26E2; stroke-width:0.0500; stroke-opacity:1; 
stroke-linecap:round; stroke-linejoin:round;fill:none"
d="M 38.6070,62.7740
42.9270,62.7740
42.9270,67.5740
38.6070,67.5740
Z" /> 
<path style="fill:none; 
stroke:#FF26E2; stroke-width:0.0500; stroke-opacity:1; 
stroke-linecap:round; stroke-linejoin:round;fill:none"
d="M 41.0224,3.0724
44.4623,3.0724
44.4623,6.6148
41.0224,6.6148
Z" /> 
<path style="fill:none; 
stroke:#FF26E2; stroke-width:0.0500; stroke-opacity:1; 
stroke-linecap:round; stroke-linejoin:round;fill:none"
d="M 41.1373,1.1996
44.1373,1.1996
44.1373,2.8996
41.1373,2.8996
Z" /> 
<path style="fill:none; 
stroke:#FF26E2; stroke-width:0.0500; stroke-opacity:1; 
stroke-linecap:round; stroke-linejoin:round;fill:none"
d="M 40.8123,6.8824
44.2522,6.8824
44.2522,10.4248
40.8123,10.4248
Z" /> 
<path style="fill:none; 
stroke:#FF26E2; stroke-width:0.0500; stroke-opacity:1; 
stroke-linecap:round; stroke-linejoin:round;fill:none"
d="M 43.0423,10.5976
46.0423,10.5976
46.0423,12.2976
43.0423,12.2976
Z" /> 
<path style="fill:none; 
stroke:#FF26E2; stroke-width:0.0500; stroke-opacity:1; 
stroke-linecap:round; stroke-linejoin:round;fill:none"
d="M 44.5813,3.5976
46.2813,3.5976
46.2813,6.5976
44.5813,6.5976
Z" /> 
<path style="fill:none; 
stroke:#FF26E2; stroke-width:0.0500; stroke-opacity:1; 
stroke-linecap:round; stroke-linejoin:round;fill:none"
d="M 44.6160,6.7780
46.3160,6.7780
46.3160,9.7780
44.6160,9.7780
Z" /> 
<path style="fill:none; 
stroke:#FF26E2; stroke-width:0.0500; stroke-opacity:1; 
stroke-linecap:round; stroke-linejoin:round;fill:none"
d="M 47.9180,7.0320
49.6180,7.0320
49.6180,10.0320
47.9180,10.0320
Z" /> 
<path style="fill:none; 
stroke:#FF26E2; stroke-width:0.0500; stroke-opacity:1; 
stroke-linecap:round; stroke-linejoin:round;fill:none"
d="M 48.9190,3.3640
51.9190,3.3640
51.9190,5.0640
48.9190,5.0640
Z" /> 
<path style="fill:none; 
stroke:#FF26E2; stroke-width:0.0500; stroke-opacity:1; 
stroke-linecap:round; stroke-linejoin:round;fill:none"
d="M 50.3310,7.7940
52.0310,7.7940
52.0310,10.7940
50.3310,10.7940
Z" /> 
<path style="fill:none; 
stroke:#FF26E2; stroke-width:0.0500; stroke-opacity:1; 
stroke-linecap:round; stroke-linejoin:round;fill:none"
d="M 51.7280,7.7940
53.4280,7.7940
53.4280,10.7940
51.7280,10.7940
Z" /> 
<path style="fill:none; 
stroke:#FF26E2; stroke-width:0.0500; stroke-opacity:1; 
stroke-linecap:round; stroke-linejoin:round;fill:none"
d="M 52.1090,47.1640
53.8090,47.1640
53.8090,50.1640
52.1090,50.1640
Z" /> 
<path style="fill:none; 
stroke:#FF26E2; stroke-width:0.0500; stroke-opacity:1; 
stroke-linecap:round; stroke-linejoin:round;fill:none"
d="M 52.1090,43.5184
53.8090,43.5184
53.8090,46.5184
52.1090,46.5184
Z" /> 
<path style="fill:none; 
stroke:#FF26E2; stroke-width:0.0500; stroke-opacity:1; 
stroke-linecap:round; stroke-linejoin:round;fill:none"
d="M 53.2498,6.4870
56.9862,6.4870
56.9862,10.5770
53.2498,10.5770
Z" /> 
<path style="fill:none; 
stroke:#FF26E2; stroke-width:0.0500; stroke-opacity:1; 
stroke-linecap:round; stroke-linejoin:round;fill:none"
d="M 53.5686,44.8930
56.5686,44.8930
56.5686,46.5930
53.5686,46.5930
Z" /> 
<path style="fill:none; 
stroke:#FF26E2; stroke-width:0.0500; stroke-opacity:1; 
stroke-linecap:round; stroke-linejoin:round;fill:none"
d="M 53.5901,51.9099
56.5901,51.9099
56.5901,53.6099
53.5901,53.6099
Z" /> 
<path style="fill:none; 
stroke:#FF26E2; stroke-width:0.0500; stroke-opacity:1; 
stroke-linecap:round; stroke-linejoin:round;fill:none"
d="M 53.6180,53.4020
56.6180,53.4020
56.6180,55.1020
53.6180,55.1020
Z" /> 
<path style="fill:none; 
stroke:#FF26E2; stroke-width:0.0500; stroke-opacity:1; 
stroke-linecap:round; stroke-linejoin:round;fill:none"
d="M 53.6180,47.0520
56.6180,47.0520
56.6180,48.7520
53.6180,48.7520
Z" /> 
<path style="fill:none; 
stroke:#FF26E2; stroke-width:0.0500; stroke-opacity:1; 
stroke-linecap:round; stroke-linejoin:round;fill:none"
d="M 55.3960,3.2370
58.3960,3.2370
58.3960,4.9370
55.3960,4.9370
Z" /> 
<path style="fill:none; 
stroke:#FF26E2; stroke-width:0.0500; stroke-opacity:1; 
stroke-linecap:round; stroke-linejoin:round;fill:none"
d="M 56.8080,7.6670
58.5080,7.6670
58.5080,10.6670
56.8080,10.6670
Z" /> 
<path style="fill:none; 
stroke:#FF26E2; stroke-width:0.0500; stroke-opacity:1; 
stroke-linecap:round; stroke-linejoin:round;fill:none"
d="M 59.2210,8.1750
60.9210,8.1750
60.9210,11.1750
59.2210,11.1750
Z" /> 
<path style="fill:none; 
stroke:#FF26E2; stroke-width:0.0500; stroke-opacity:1; 
stroke-linecap:round; stroke-linejoin:round;fill:none"
d="M 66.8410,11.8580
68.5410,11.8580
68.5410,14.8580
66.8410,14.8580
Z" /> 
<path style="fill:none; 
stroke:#FF26E2; stroke-width:0.0500; stroke-opacity:1; 
stroke-linecap:round; stroke-linejoin:round;fill:none"
d="M 68.2380,11.8580
69.9380,11.8580
69.9380,14.8580
68.2380,14.8580
Z" /> 
<path style="fill:none; 
stroke:#FF26E2; stroke-width:0.0500; stroke-opacity:1; 
stroke-linecap:round; stroke-linejoin:round;fill:none"
d="M 69.7534,11.9764
71.4534,11.9764
71.4534,14.9764
69.7534,14.9764
Z" /> 
<path style="fill:none; 
stroke:#FF26E2; stroke-width:0.0500; stroke-opacity:1; 
stroke-linecap:round; stroke-linejoin:round;fill:none"
d="M 69.1120,16.3180
72.1120,16.3180
72.1120,18.0180
69.1120,18.0180
Z" /> 
<path style="fill:none; 
stroke:#FF26E2; stroke-width:0.0500; stroke-opacity:1; 
stroke-linecap:round; stroke-linejoin:round;fill:none"
d="M 69.3660,18.0960
72.3660,18.0960
72.3660,19.7960
69.3660,19.7960
Z" /> 
<path style="fill:none; 
stroke:#FF26E2; stroke-width:0.0500; stroke-opacity:1; 
stroke-linecap:round; stroke-linejoin:round;fill:none"
d="M 69.4930,14.6670
72.4930,14.6670
72.4930,16.3670
69.4930,16.3670
Z" /> 
<path style="fill:none; 
stroke:#FF26E2; stroke-width:0.0500; stroke-opacity:1; 
stroke-linecap:round; stroke-linejoin:round;fill:none"
d="M 71.0320,11.5004
72.7320,11.5004
72.7320,14.5004
71.0320,14.5004
Z" /> 
<path style="fill:none; 
stroke:#FF26E2; stroke-width:0.0500; stroke-opacity:1; 
stroke-linecap:round; stroke-linejoin:round;fill:none"
d="M 75.1587,12.8852
78.6787,12.8852
78.6787,17.6852
75.1587,17.6852
Z" /> 
<path style="fill:none; 
stroke:#FF26E2; stroke-width:0.0500; stroke-opacity:1; 
stroke-linecap:round; stroke-linejoin:round;fill:none"
d="M 77.2550,6.9050
78.9550,6.9050
78.9550,9.9050
77.2550,9.9050
Z" /> 
<path style="fill:none; 
stroke:#FF26E2; stroke-width:0.0500; stroke-opacity:1; 
stroke-linecap:round; stroke-linejoin:round;fill:none"
d="M 77.2550,3.7300
78.9550,3.7300
78.9550,6.7300
77.2550,6.7300
Z" /> 
<path style="fill:none; 
stroke:#FF26E2; stroke-width:0.0500; stroke-opacity:1; 
stroke-linecap:round; stroke-linejoin:round;fill:none"
d="M 77.2400,18.2230
80.2400,18.2230
80.2400,19.9230
77.2400,19.9230
Z" /> 
<path style="fill:none; 
stroke:#FF26E2; stroke-width:0.0500; stroke-opacity:1; 
stroke-linecap:round; stroke-linejoin:round;fill:none"
d="M 80.4300,3.6030
82.1300,3.6030
82.1300,6.6030
80.4300,6.6030
Z" /> 
<path style="fill:none; 
stroke:#FF26E2; stroke-width:0.0500; stroke-opacity:1; 
stroke-linecap:round; stroke-linejoin:round;fill:none"
d="M 80.5570,6.7780
82.2570,6.7780
82.2570,9.7780
80.5570,9.7780
Z" /> 
<path style="fill:none; 
stroke:#FF26E2; stroke-width:0.0500; stroke-opacity:1; 
stroke-linecap:round; stroke-linejoin:round;fill:none"
d="M 75.5640,45.7560
79.8840,45.7560
79.8840,50.5560
75.5640,50.5560
Z" /> 
<path style="fill:none; 
stroke:#FF26E2; stroke-width:0.0500; stroke-opacity:1; 
stroke-linecap:round; stroke-linejoin:round;fill:none"
d="M 83.9710,11.4920
86.9710,11.4920
86.9710,13.1920
83.9710,13.1920
Z" /> 
<path style="fill:none; 
stroke:#FF26E2; stroke-width:0.0500; stroke-opacity:1; 
stroke-linecap:round; stroke-linejoin:round;fill:none"
d="M 85.4282,14.4526
88.9482,14.4526
88.9482,19.2526
85.4282,19.2526
Z" /> 
<path style="fill:none; 
stroke:#FF26E2; stroke-width:0.0500; stroke-opacity:1; 
stroke-linecap:round; stroke-linejoin:round;fill:none"
d="M 86.7620,11.4920
89.7620,11.4920
89.7620,13.1920
86.7620,13.1920
Z" /> 
<path style="fill:none; 
stroke:#FF26E2; stroke-width:0.0500; stroke-opacity:1; 
stroke-linecap:round; stroke-linejoin:round;fill:none"
d="M 89.9550,15.1600
91.6550,15.1600
91.6550,18.1600
89.9550,18.1600
Z" /> 
<path style="fill:none; 
stroke:#FF26E2; stroke-width:0.0500; stroke-opacity:1; 
stroke-linecap:round; stroke-linejoin:round;fill:none"
d="M 93.6400,2.6000
97.1600,2.6000
97.1600,7.4000
93.6400,7.4000
Z" /> 
<path style="fill:none; 
stroke:#FF26E2; stroke-width:0.0500; stroke-opacity:1; 
stroke-linecap:round; stroke-linejoin:round;fill:none"
d="M 93.6400,62.6000
97.1600,62.6000
97.1600,67.4000
93.6400,67.4000
Z" /> 
</g> 
</svg>
