<?xml version="1.0" standalone="no"?>
 <!DOCTYPE svg PUBLIC "-//W3C//DTD SVG 1.1//EN" 
 "http://www.w3.org/Graphics/SVG/1.1/DTD/svg11.dtd"> 
<svg
  xmlns:svg="http://www.w3.org/2000/svg"
  xmlns="http://www.w3.org/2000/svg"
  xmlns:xlink="http://www.w3.org/1999/xlink"
  xmlns:inkscape="http://www.inkscape.org/namespaces/inkscape"
  version="1.1"
  width="99.9998mm" height="69.9770mm" viewBox="0.0000 0.0000 99.9998 69.9770">
<title>SVG Image created as pcb_back.svg date 2026-08-12T15:32:09 </title>
  <desc>Image generated by PCBNEW </desc>
<g style="fill:#000000; fill-opacity:1.0000;stroke:#000000; stroke-opacity:1.0000;
stroke-linecap:round; stroke-linejoin:round;"
 transform="translate(0 0) scale(1 1)">
<path style="fill:#4D7FC4; fill-opacity:1.0000; stroke:none;fill-rule:evenodd;"
d="M 49.2070,11.6210
49.2241,11.5349
49.2729,11.4619
49.3459,11.4131
49.4320,11.3960
49.8820,11.3960
49.9681,11.4131
50.0411,11.4619
50.0899,11.5349
50.1070,11.6210
50.1070,12.1710
50.0899,12.2571
50.0411,12.3301
49.9681,12.3789
49.8820,12.3960
49.4320,12.3960
49.3459,12.3789
49.2729,12.3301
49.2241,12.2571
49.2070,12.1710
Z" /> 
<path style="fill:#4D7FC4; fill-opacity:1.0000; stroke:none;fill-rule:evenodd;"
d="M 49.2070,13.0210
49.2241,12.9349
49.2729,12.8619
49.3459,12.8131
49.4320,12.7960
49.8820,12.7960
49.9681,12.8131
50.0411,12.8619
50.0899,12.9349
50.1070,13.0210
50.1070,13.5710
50.0899,13.6571
50.0411,13.7301
49.9681,13.7789
49.8820,13.7960
49.4320,13.7960
49.3459,13.7789
49.2729,13.7301
49.2241,13.6571
49.2070,13.5710
Z" /> 
</g>
<g style="fill:#4D7FC4; fill-opacity:1.0000; stroke:none;">
<circle cx="0.6350" cy="61.2370" r="0.3048" /> 
<circle cx="0.8890" cy="41.4250" r="0.3048" /> 
<circle cx="1.0160" cy="66.1900" r="0.3048" /> 
<circle cx="1.1430" cy="7.3890" r="0.3048" /> 
<circle cx="1.3970" cy="62.7610" r="0.3048" /> 
<circle cx="1.5240" cy="15.2630" r="0.3048" /> 
<circle cx="1.5240" cy="23.2640" r="0.3048" /> 
<circle cx="1.5240" cy="2.9440" r="0.3048" /> 
<circle cx="1.7780" cy="11.8340" r="0.3048" /> 
<circle cx="1.9050" cy="29.3600" r="0.3048" /> 
<circle cx="2.0320" cy="47.3940" r="0.3048" /> 
<circle cx="2.1590" cy="42.9490" r="0.3048" /> 
<circle cx="2.1590" cy="18.9460" r="0.3048" /> 
<circle cx="2.2860" cy="54.2520" r="0.3048" /> 
<circle cx="2.2860" cy="50.1880" r="0.3048" /> 
<circle cx="2.2860" cy="31.9000" r="0.3048" /> 
<circle cx="2.4130" cy="55.5220" r="0.3048" /> 
<circle cx="2.5400" cy="61.1100" r="0.3048" /> 
<circle cx="2.5400" cy="52.4740" r="0.3048" /> 
<circle cx="2.6670" cy="24.7880" r="0.3048" /> 
<circle cx="2.9210" cy="68.6030" r="0.3048" /> 
<circle cx="3.6830" cy="43.2030" r="0.3048" /> 
<circle cx="4.0640" cy="22.8830" r="0.3048" /> 
<circle cx="4.0640" cy="15.2630" r="0.3048" /> 
<circle cx="4.1910" cy="11.5800" r="0.3048" /> 
<circle cx="4.3180" cy="55.6490" r="0.3048" /> 
<circle cx="4.8260" cy="53.9980" r="0.3048" /> 
<circle cx="5.4610" cy="50.4420" r="0.3048" /> 
<circle cx="5.4610" cy="69.3650" r="0.3048" /> 
<circle cx="5.8420" cy="53.2360" r="0.3048" /> 
<circle cx="5.9690" cy="45.3620" r="0.3048" /> 
<circle cx="5.9690" cy="47.6480" r="0.3048" /> 
<circle cx="6.2230" cy="25.0420" r="0.3048" /> 
<circle cx="6.3500" cy="29.2330" r="0.3050" /> 
<circle cx="6.3500" cy="18.6920" r="0.3048" /> 
<circle cx="6.3500" cy="0.7850" r="0.3048" /> 
<circle cx="7.4930" cy="55.5220" r="0.3048" /> 
<circle cx="7.7470" cy="62.3800" r="0.3048" /> 
<circle cx="7.8740" cy="45.9970" r="0.3048" /> 
<circle cx="8.2550" cy="68.0950" r="0.3048" /> 
<circle cx="8.3820" cy="24.7880" r="0.3048" /> 
<circle cx="8.3820" cy="25.6770" r="0.3048" /> 
<circle cx="8.5090" cy="26.6930" r="0.3050" /> 
<circle cx="8.5090" cy="27.3280" r="0.3050" /> 
<circle cx="8.5090" cy="32.9160" r="0.3050" /> 
<circle cx="8.5090" cy="33.6780" r="0.3050" /> 
<circle cx="8.6360" cy="7.5160" r="0.3048" /> 
<circle cx="8.6360" cy="66.8250" r="0.3048" /> 
<circle cx="8.7630" cy="64.7930" r="0.3048" /> 
<circle cx="8.8900" cy="65.6820" r="0.3048" /> 
<circle cx="8.8900" cy="68.7300" r="0.3048" /> 
<circle cx="9.0170" cy="60.0940" r="0.3048" /> 
<circle cx="9.2710" cy="53.2360" r="0.3048" /> 
<circle cx="9.5250" cy="68.0950" r="0.3048" /> 
<circle cx="9.9060" cy="45.4890" r="0.3048" /> 
<circle cx="10.1600" cy="19.0730" r="0.3048" /> 
<circle cx="10.4140" cy="28.7250" r="0.3050" /> 
<circle cx="10.9220" cy="34.0590" r="0.3048" /> 
<circle cx="10.9220" cy="68.4760" r="0.3048" /> 
<circle cx="11.1760" cy="63.9040" r="0.3048" /> 
<circle cx="11.4300" cy="47.1400" r="0.3048" /> 
<circle cx="11.4300" cy="65.8090" r="0.3048" /> 
<circle cx="11.5570" cy="12.3420" r="0.3050" /> 
<circle cx="11.5570" cy="10.8180" r="0.3050" /> 
<circle cx="11.5570" cy="11.5800" r="0.3050" /> 
<circle cx="12.0650" cy="52.6010" r="0.3048" /> 
<circle cx="12.1920" cy="68.6030" r="0.3048" /> 
<circle cx="12.3190" cy="10.8180" r="0.3050" /> 
<circle cx="12.3190" cy="12.3420" r="0.3050" /> 
<circle cx="12.3190" cy="11.5800" r="0.3050" /> 
<circle cx="12.5730" cy="49.0450" r="0.3048" /> 
<circle cx="12.7000" cy="59.0780" r="0.3048" /> 
<circle cx="12.7000" cy="50.6960" r="0.3048" /> 
<circle cx="12.8270" cy="15.1360" r="0.3050" /> 
<circle cx="12.8270" cy="22.1210" r="0.3048" /> 
<circle cx="12.8270" cy="14.2470" r="0.3050" /> 
<circle cx="13.3350" cy="44.0920" r="0.3048" /> 
<circle cx="13.4620" cy="37.3610" r="0.3048" /> 
<circle cx="13.4620" cy="68.3490" r="0.3048" /> 
<circle cx="13.5890" cy="22.6290" r="0.3048" /> 
<circle cx="13.8430" cy="34.1860" r="0.3048" /> 
<circle cx="13.8430" cy="65.4280" r="0.3048" /> 
<circle cx="13.9700" cy="59.0780" r="0.3048" /> 
<circle cx="14.0970" cy="63.9040" r="0.3048" /> 
<circle cx="14.2240" cy="68.8570" r="0.3048" /> 
<circle cx="14.3510" cy="45.1080" r="0.3048" /> 
<circle cx="14.3510" cy="22.2480" r="0.3048" /> 
<circle cx="14.3510" cy="51.7120" r="0.3048" /> 
<circle cx="14.3510" cy="66.5710" r="0.3048" /> 
<circle cx="14.3510" cy="50.6960" r="0.3048" /> 
<circle cx="14.3510" cy="67.9680" r="0.3048" /> 
<circle cx="14.3510" cy="49.2990" r="0.3048" /> 
<circle cx="14.3510" cy="62.2530" r="0.3048" /> 
<circle cx="14.3510" cy="47.6480" r="0.3048" /> 
<circle cx="14.3510" cy="46.2510" r="0.3048" /> 
<circle cx="14.4780" cy="10.1830" r="0.3048" /> 
<circle cx="14.6050" cy="7.7700" r="0.3048" /> 
<circle cx="14.6050" cy="64.9200" r="0.3048" /> 
<circle cx="14.7320" cy="41.6790" r="0.3048" /> 
<circle cx="14.7320" cy="62.8880" r="0.3048" /> 
<circle cx="14.9860" cy="68.2220" r="0.3048" /> 
<circle cx="15.1130" cy="53.2360" r="0.3048" /> 
<circle cx="15.2400" cy="64.1580" r="0.3048" /> 
<circle cx="15.3670" cy="66.6980" r="0.3048" /> 
<circle cx="15.4940" cy="65.5550" r="0.3048" /> 
<circle cx="15.6210" cy="68.8570" r="0.3048" /> 
<circle cx="15.6210" cy="62.5070" r="0.3048" /> 
<circle cx="15.8750" cy="53.9980" r="0.3048" /> 
<circle cx="16.0020" cy="19.8350" r="0.3048" /> 
<circle cx="16.3830" cy="35.0750" r="0.3048" /> 
<circle cx="16.5100" cy="10.3100" r="0.3048" /> 
<circle cx="16.8910" cy="55.0140" r="0.3048" /> 
<circle cx="17.0180" cy="14.3740" r="0.3048" /> 
<circle cx="17.1450" cy="24.5340" r="0.3048" /> 
<circle cx="17.1450" cy="41.2980" r="0.3048" /> 
<circle cx="17.1450" cy="27.5820" r="0.3048" /> 
<circle cx="17.1450" cy="29.7410" r="0.3048" /> 
<circle cx="17.2720" cy="32.0270" r="0.3048" /> 
<circle cx="17.3990" cy="36.5990" r="0.3048" /> 
<circle cx="17.7800" cy="1.0390" r="0.3048" /> 
<circle cx="18.1610" cy="13.7390" r="0.3048" /> 
<circle cx="18.1610" cy="35.4560" r="0.3048" /> 
<circle cx="18.5420" cy="58.9510" r="0.3048" /> 
<circle cx="19.0500" cy="65.4280" r="0.3048" /> 
<circle cx="19.1770" cy="13.7390" r="0.3048" /> 
<circle cx="19.3040" cy="21.2320" r="0.3048" /> 
<circle cx="19.4310" cy="58.6970" r="0.3048" /> 
<circle cx="19.4310" cy="37.3610" r="0.3048" /> 
<circle cx="19.8120" cy="18.8190" r="0.3048" /> 
<circle cx="20.0660" cy="59.8400" r="0.3048" /> 
<circle cx="20.0660" cy="38.5040" r="0.3048" /> 
<circle cx="20.1930" cy="41.0440" r="0.3048" /> 
<circle cx="20.1930" cy="14.8820" r="0.3048" /> 
<circle cx="20.7010" cy="9.9290" r="0.3048" /> 
<circle cx="20.8280" cy="52.9820" r="0.3048" /> 
<circle cx="21.2090" cy="14.7550" r="0.3048" /> 
<circle cx="22.0980" cy="66.1900" r="0.3048" /> 
<circle cx="22.0980" cy="1.8010" r="0.3048" /> 
<circle cx="22.2250" cy="51.9660" r="0.3048" /> 
<circle cx="22.2250" cy="36.9800" r="0.3048" /> 
<circle cx="22.3520" cy="7.5160" r="0.3048" /> 
<circle cx="22.7330" cy="68.2220" r="0.3048" /> 
<circle cx="23.1140" cy="42.1870" r="0.3048" /> 
<circle cx="24.0030" cy="40.4090" r="0.3048" /> 
<circle cx="24.5110" cy="9.9290" r="0.3048" /> 
<circle cx="24.8920" cy="7.1350" r="0.3048" /> 
<circle cx="25.5270" cy="19.0730" r="0.3048" /> 
<circle cx="26.1620" cy="3.3250" r="0.3048" /> 
<circle cx="26.4160" cy="17.2950" r="0.3048" /> 
<circle cx="26.5430" cy="65.4280" r="0.3048" /> 
<circle cx="26.7970" cy="11.9610" r="0.3048" /> 
<circle cx="27.1780" cy="9.8020" r="0.3048" /> 
<circle cx="28.4480" cy="53.8710" r="0.3048" /> 
<circle cx="28.4480" cy="55.6490" r="0.3048" /> 
<circle cx="28.5750" cy="19.3270" r="0.3048" /> 
<circle cx="28.5750" cy="41.8060" r="0.3048" /> 
<circle cx="28.8290" cy="8.4050" r="0.3048" /> 
<circle cx="28.8290" cy="48.1560" r="0.3048" /> 
<circle cx="29.0830" cy="24.5340" r="0.3048" /> 
<circle cx="29.5910" cy="25.8040" r="0.3048" /> 
<circle cx="29.7180" cy="44.4730" r="0.3048" /> 
<circle cx="30.2260" cy="12.5960" r="0.3048" /> 
<circle cx="30.7340" cy="1.4200" r="0.3048" /> 
<circle cx="30.8610" cy="10.1830" r="0.3048" /> 
<circle cx="32.3850" cy="18.3110" r="0.3048" /> 
<circle cx="32.5120" cy="3.1980" r="0.3048" /> 
<circle cx="32.6390" cy="63.2690" r="0.3048" /> 
<circle cx="32.7660" cy="8.4050" r="0.3048" /> 
<circle cx="33.2740" cy="11.3260" r="0.3048" /> 
<circle cx="33.4010" cy="53.1090" r="0.3048" /> 
<circle cx="33.6550" cy="68.6030" r="0.3048" /> 
<circle cx="33.9090" cy="64.1580" r="0.3048" /> 
<circle cx="35.1790" cy="1.0390" r="0.3048" /> 
<circle cx="35.3060" cy="27.7090" r="0.3048" /> 
<circle cx="35.4330" cy="26.3120" r="0.3048" /> 
<circle cx="35.4330" cy="46.3780" r="0.3048" /> 
<circle cx="35.4330" cy="19.9620" r="0.3048" /> 
<circle cx="35.8140" cy="37.7420" r="0.3048" /> 
<circle cx="37.2110" cy="53.7440" r="0.3048" /> 
<circle cx="37.3380" cy="8.5320" r="0.3048" /> 
<circle cx="37.3380" cy="41.1710" r="0.3048" /> 
<circle cx="37.8460" cy="55.2680" r="0.3048" /> 
<circle cx="37.9730" cy="17.4220" r="0.3048" /> 
<circle cx="38.8620" cy="29.6140" r="0.3048" /> 
<circle cx="39.1160" cy="4.9760" r="0.3048" /> 
<circle cx="39.1160" cy="6.8810" r="0.3048" /> 
<circle cx="39.3700" cy="10.3100" r="0.3048" /> 
<circle cx="40.1320" cy="10.3100" r="0.3048" /> 
<circle cx="40.5130" cy="54.8870" r="0.3048" /> 
<circle cx="41.0210" cy="25.1690" r="0.3048" /> 
<circle cx="41.0210" cy="40.4090" r="0.3048" /> 
<circle cx="41.4020" cy="13.4850" r="0.3048" /> 
<circle cx="41.9100" cy="27.5820" r="0.3048" /> 
<circle cx="42.0370" cy="19.8350" r="0.3048" /> 
<circle cx="42.1640" cy="47.6480" r="0.3048" /> 
<circle cx="42.6720" cy="3.3250" r="0.3048" /> 
<circle cx="42.6720" cy="4.8490" r="0.3048" /> 
<circle cx="44.1960" cy="8.9130" r="0.3048" /> 
<circle cx="44.3230" cy="38.1230" r="0.3048" /> 
<circle cx="44.4500" cy="3.0710" r="0.3048" /> 
<circle cx="44.4500" cy="62.5070" r="0.3048" /> 
<circle cx="44.7040" cy="1.6740" r="0.3048" /> 
<circle cx="44.7040" cy="53.4900" r="0.3048" /> 
<circle cx="45.4660" cy="10.1830" r="0.3048" /> 
<circle cx="45.8470" cy="12.5960" r="0.3048" /> 
<circle cx="45.9740" cy="59.5860" r="0.3048" /> 
<circle cx="46.4820" cy="53.4900" r="0.3048" /> 
<circle cx="46.9900" cy="12.0880" r="0.3048" /> 
<circle cx="46.9900" cy="11.3260" r="0.3048" /> 
<circle cx="47.3710" cy="39.0120" r="0.3048" /> 
<circle cx="47.4980" cy="62.3800" r="0.3048" /> 
<circle cx="47.7520" cy="46.1240" r="0.3048" /> 
<circle cx="48.0060" cy="55.7760" r="0.3048" /> 
<circle cx="48.3870" cy="44.8540" r="0.3048" /> 
<circle cx="48.3870" cy="56.9190" r="0.3048" /> 
<circle cx="48.8950" cy="11.8340" r="0.3048" /> 
<circle cx="49.1490" cy="67.2060" r="0.3048" /> 
<circle cx="49.6570" cy="63.6500" r="0.3048" /> 
<circle cx="49.7840" cy="11.9610" r="0.3048" /> 
<circle cx="51.6890" cy="49.5530" r="0.3048" /> 
<circle cx="52.8320" cy="42.6950" r="0.3048" /> 
<circle cx="53.0860" cy="53.3630" r="0.3048" /> 
<circle cx="53.2130" cy="55.5220" r="0.3048" /> 
<circle cx="54.1020" cy="34.6940" r="0.3048" /> 
<circle cx="54.2290" cy="46.7590" r="0.3048" /> 
<circle cx="54.2290" cy="12.5960" r="0.3048" /> 
<circle cx="54.2290" cy="49.9340" r="0.3048" /> 
<circle cx="54.3560" cy="51.5850" r="0.3048" /> 
<circle cx="54.6100" cy="20.2160" r="0.3048" /> 
<circle cx="54.6100" cy="38.6310" r="0.3048" /> 
<circle cx="54.6100" cy="60.8560" r="0.3048" /> 
<circle cx="55.3720" cy="63.9040" r="0.3048" /> 
<circle cx="55.6260" cy="55.9030" r="0.3048" /> 
<circle cx="55.7530" cy="42.9490" r="0.3048" /> 
<circle cx="58.1660" cy="12.7230" r="0.3048" /> 
<circle cx="58.4200" cy="25.5500" r="0.3048" /> 
<circle cx="60.1980" cy="12.8500" r="0.3048" /> 
<circle cx="62.3570" cy="65.5550" r="0.3048" /> 
<circle cx="62.9920" cy="20.3430" r="0.3048" /> 
<circle cx="63.1190" cy="11.7070" r="0.3048" /> 
<circle cx="64.1350" cy="32.9160" r="0.3048" /> 
<circle cx="65.2780" cy="19.0730" r="0.3048" /> 
<circle cx="65.9130" cy="17.4220" r="0.3048" /> 
<circle cx="65.9130" cy="16.6600" r="0.3048" /> 
<circle cx="66.1670" cy="14.2470" r="0.3048" /> 
<circle cx="66.2940" cy="8.0240" r="0.3048" /> 
<circle cx="66.8020" cy="4.5950" r="0.3048" /> 
<circle cx="67.8180" cy="26.6930" r="0.3048" /> 
<circle cx="68.8340" cy="15.5170" r="0.3048" /> 
<circle cx="69.0880" cy="21.2320" r="0.3048" /> 
<circle cx="69.8500" cy="32.5350" r="0.3048" /> 
<circle cx="70.8660" cy="32.9160" r="0.3048" /> 
<circle cx="70.9930" cy="67.0790" r="0.3048" /> 
<circle cx="71.5010" cy="4.5950" r="0.3048" /> 
<circle cx="71.6280" cy="6.3730" r="0.3048" /> 
<circle cx="73.6600" cy="25.4230" r="0.3048" /> 
<circle cx="73.7870" cy="19.2000" r="0.3048" /> 
<circle cx="74.1680" cy="17.9300" r="0.3048" /> 
<circle cx="74.6760" cy="6.7540" r="0.3048" /> 
<circle cx="75.1840" cy="33.2970" r="0.3048" /> 
<circle cx="75.1840" cy="21.1050" r="0.3048" /> 
<circle cx="77.2160" cy="64.7930" r="0.3048" /> 
<circle cx="77.3430" cy="30.6300" r="0.3048" /> 
<circle cx="78.1050" cy="12.0880" r="0.3048" /> 
<circle cx="78.7400" cy="28.0900" r="0.3048" /> 
<circle cx="80.0100" cy="21.1050" r="0.3048" /> 
<circle cx="81.4070" cy="33.1700" r="0.3048" /> 
<circle cx="82.1690" cy="20.0890" r="0.3048" /> 
<circle cx="82.9310" cy="1.5470" r="0.3048" /> 
<circle cx="82.9310" cy="11.4530" r="0.3048" /> 
<circle cx="83.4390" cy="18.3110" r="0.3048" /> 
<circle cx="83.4390" cy="20.9780" r="0.3048" /> 
<circle cx="84.8360" cy="9.1670" r="0.3048" /> 
<circle cx="85.3440" cy="5.3570" r="0.3048" /> 
<circle cx="85.4710" cy="29.2330" r="0.3048" /> 
<circle cx="86.2330" cy="20.9780" r="0.3048" /> 
<circle cx="86.4870" cy="32.7890" r="0.3048" /> 
<circle cx="87.1220" cy="20.9780" r="0.3048" /> 
<circle cx="87.3760" cy="1.2930" r="0.3048" /> 
<circle cx="87.5030" cy="25.6770" r="0.3048" /> 
<circle cx="88.7730" cy="64.1580" r="0.3048" /> 
<circle cx="89.2810" cy="21.1050" r="0.3048" /> 
<circle cx="89.9160" cy="2.6900" r="0.3048" /> 
<circle cx="90.1700" cy="6.1190" r="0.3048" /> 
<circle cx="91.4400" cy="28.2170" r="0.3048" /> 
<circle cx="91.9480" cy="17.5490" r="0.3048" /> 
<circle cx="92.2020" cy="23.3910" r="0.3048" /> 
<circle cx="94.1070" cy="9.8020" r="0.3048" /> 
<circle cx="94.1070" cy="12.8500" r="0.3048" /> 
<circle cx="94.1070" cy="11.8340" r="0.3048" /> 
<circle cx="94.1070" cy="10.8180" r="0.3048" /> 
<circle cx="95.3770" cy="11.8340" r="0.3048" /> 
<circle cx="95.3770" cy="12.8500" r="0.3048" /> 
<circle cx="95.3770" cy="9.8020" r="0.3048" /> 
<circle cx="95.3770" cy="10.8180" r="0.3048" /> 
<circle cx="96.1390" cy="18.3110" r="0.3048" /> 
<circle cx="97.1550" cy="26.1850" r="0.3048" /> 
<circle cx="97.2820" cy="16.2790" r="0.3048" /> 
<circle cx="98.2980" cy="12.2150" r="0.3048" /> 
</g>
<g style="fill:none; 
stroke:#4D7FC4; stroke-width:0.2540; stroke-opacity:1; 
stroke-linecap:round; stroke-linejoin:round;">
<path d="M0.8890 41.4250
L0.8890 37.3610
" />
</g>
<g style="fill:none; 
stroke:#4D7FC4; stroke-width:0.5080; stroke-opacity:1; 
stroke-linecap:round; stroke-linejoin:round;">
<path d="M1.1430 42.5680
L1.1430 60.4750
" />
</g>
<g style="fill:none; 
stroke:#4D7FC4; stroke-width:0.2540; stroke-opacity:1; 
stroke-linecap:round; stroke-linejoin:round;">
<path d="M0.8890 37.3610
L1.3970 36.8530
" />
</g>
<g style="fill:none; 
stroke:#4D7FC4; stroke-width:0.5080; stroke-opacity:1; 
stroke-linecap:round; stroke-linejoin:round;">
<path d="M1.1430 60.4750
L1.7780 61.1100
" />
<path d="M2.1615 61.4935
L1.7780 61.1100
" />
<path d="M2.5400 61.1100
L1.7780 61.1100
" />
</g>
<g style="fill:none; 
stroke:#4D7FC4; stroke-width:0.2540; stroke-opacity:1; 
stroke-linecap:round; stroke-linejoin:round;">
<path d="M2.1590 42.9490
L2.4892 42.6188
" />
</g>
<g style="fill:none; 
stroke:#4D7FC4; stroke-width:0.5080; stroke-opacity:1; 
stroke-linecap:round; stroke-linejoin:round;">
<path d="M6.0960 37.6150
L1.1430 42.5680
" />
</g>
<g style="fill:none; 
stroke:#4D7FC4; stroke-width:0.2540; stroke-opacity:1; 
stroke-linecap:round; stroke-linejoin:round;">
<path d="M4.3180 55.7760
L4.4958 55.5982
" />
<path d="M5.2070 54.7600
L4.3180 55.6490
" />
<path d="M1.3970 36.8530
L9.1440 36.8530
" />
<path d="M6.8580 28.7250
L6.3500 29.2330
" />
</g>
<g style="fill:none; 
stroke:#4D7FC4; stroke-width:0.5080; stroke-opacity:1; 
stroke-linecap:round; stroke-linejoin:round;">
<path d="M8.5090 26.6930
L8.5090 27.3280
" />
<path d="M10.9220 37.6150
L6.0960 37.6150
" />
<path d="M8.5090 33.6780
L8.5090 32.9160
" />
</g>
<g style="fill:none; 
stroke:#4D7FC4; stroke-width:0.2540; stroke-opacity:1; 
stroke-linecap:round; stroke-linejoin:round;">
<path d="M10.4140 28.7250
L6.8580 28.7250
" />
<path d="M3.6830 43.2030
L14.0970 43.2030
" />
<path d="M2.4892 42.6188
L15.2908 42.6188
" />
</g>
<g style="fill:none; 
stroke:#4D7FC4; stroke-width:0.6350; stroke-opacity:1; 
stroke-linecap:round; stroke-linejoin:round;">
<path d="M8.5090 26.6930
L9.6520 26.6930
" />
<path d="M10.2870 32.9160
L8.5090 32.9160
" />
</g>
<g style="fill:none; 
stroke:#4D7FC4; stroke-width:0.2540; stroke-opacity:1; 
stroke-linecap:round; stroke-linejoin:round;">
<path d="M14.7320 54.7600
L5.2070 54.7600
" />
</g>
<g style="fill:none; 
stroke:#4D7FC4; stroke-width:0.5080; stroke-opacity:1; 
stroke-linecap:round; stroke-linejoin:round;">
<path d="M18.6665 61.4935
L2.1615 61.4935
" />
</g>
<g style="fill:none; 
stroke:#4D7FC4; stroke-width:0.6350; stroke-opacity:1; 
stroke-linecap:round; stroke-linejoin:round;">
<path d="M9.6520 26.6930
L11.4935 28.5345
" />
</g>
<g style="fill:none; 
stroke:#4D7FC4; stroke-width:0.2540; stroke-opacity:1; 
stroke-linecap:round; stroke-linejoin:round;">
<path d="M14.2240 55.5220
L7.4930 55.5220
" />
</g>
<g style="fill:none; 
stroke:#4D7FC4; stroke-width:0.6350; stroke-opacity:1; 
stroke-linecap:round; stroke-linejoin:round;">
<path d="M11.5570 31.6460
L10.2870 32.9160
" />
</g>
<g style="fill:none; 
stroke:#4D7FC4; stroke-width:0.5080; stroke-opacity:1; 
stroke-linecap:round; stroke-linejoin:round;">
<path d="M11.4935 28.5345
L11.4300 28.5980
" />
</g>
<g style="fill:none; 
stroke:#4D7FC4; stroke-width:0.6350; stroke-opacity:1; 
stroke-linecap:round; stroke-linejoin:round;">
<path d="M11.4935 28.5345
L11.5570 28.5980
" />
<path d="M11.5570 28.5980
L11.5570 31.6460
" />
<path d="M11.9380 28.0900
L11.4935 28.5345
" />
<path d="M11.9380 19.7080
L11.9380 28.0900
" />
</g>
<g style="fill:none; 
stroke:#4D7FC4; stroke-width:0.5080; stroke-opacity:1; 
stroke-linecap:round; stroke-linejoin:round;">
<path d="M13.2080 35.3290
L10.9220 37.6150
" />
</g>
<g style="fill:none; 
stroke:#4D7FC4; stroke-width:0.2540; stroke-opacity:1; 
stroke-linecap:round; stroke-linejoin:round;">
<path d="M9.1440 36.8530
L14.9860 31.0110
" />
</g>
<g style="fill:none; 
stroke:#4D7FC4; stroke-width:0.7620; stroke-opacity:1; 
stroke-linecap:round; stroke-linejoin:round;">
<path d="M12.3190 10.8180
L12.3190 8.4050
" />
</g>
<g style="fill:none; 
stroke:#4D7FC4; stroke-width:0.6350; stroke-opacity:1; 
stroke-linecap:round; stroke-linejoin:round;">
<path d="M12.8270 18.8190
L11.9380 19.7080
" />
<path d="M12.8270 15.1360
L12.8270 18.8190
" />
</g>
<g style="fill:none; 
stroke:#4D7FC4; stroke-width:0.2540; stroke-opacity:1; 
stroke-linecap:round; stroke-linejoin:round;">
<path d="M12.7000 59.0780
L14.0970 60.4750
" />
</g>
<g style="fill:none; 
stroke:#4D7FC4; stroke-width:0.7620; stroke-opacity:1; 
stroke-linecap:round; stroke-linejoin:round;">
<path d="M12.3190 8.4050
L15.4940 5.2300
" />
</g>
<g style="fill:none; 
stroke:#4D7FC4; stroke-width:0.2540; stroke-opacity:1; 
stroke-linecap:round; stroke-linejoin:round;">
<path d="M13.9700 59.4590
L13.9700 59.0780
" />
</g>
<g style="fill:none; 
stroke:#4D7FC4; stroke-width:0.5080; stroke-opacity:1; 
stroke-linecap:round; stroke-linejoin:round;">
<path d="M14.8590 35.3290
L13.2080 35.3290
" />
</g>
<g style="fill:none; 
stroke:#4D7FC4; stroke-width:0.2540; stroke-opacity:1; 
stroke-linecap:round; stroke-linejoin:round;">
<path d="M14.4780 59.9670
L13.9700 59.4590
" />
<path d="M14.9860 31.0110
L14.9860 21.8670
" />
</g>
<g style="fill:none; 
stroke:#4D7FC4; stroke-width:0.5080; stroke-opacity:1; 
stroke-linecap:round; stroke-linejoin:round;">
<path d="M15.2400 34.9480
L14.8590 35.3290
" />
</g>
<g style="fill:none; 
stroke:#4D7FC4; stroke-width:0.2540; stroke-opacity:1; 
stroke-linecap:round; stroke-linejoin:round;">
<path d="M15.6210 55.6490
L14.7320 54.7600
" />
</g>
<g style="fill:none; 
stroke:#4D7FC4; stroke-width:0.5080; stroke-opacity:1; 
stroke-linecap:round; stroke-linejoin:round;">
<path d="M15.7480 34.4400
L15.2400 34.9480
" />
<path d="M15.2400 34.9480
L16.2560 34.9480
" />
</g>
<g style="fill:none; 
stroke:#4D7FC4; stroke-width:0.2540; stroke-opacity:1; 
stroke-linecap:round; stroke-linejoin:round;">
<path d="M14.9860 21.8670
L16.5100 20.3430
" />
</g>
<g style="fill:none; 
stroke:#4D7FC4; stroke-width:0.5080; stroke-opacity:1; 
stroke-linecap:round; stroke-linejoin:round;">
<path d="M15.7480 34.1860
L15.7480 34.4400
" />
<path d="M15.7480 22.2480
L15.7480 34.1860
" />
</g>
<g style="fill:none; 
stroke:#4D7FC4; stroke-width:0.2540; stroke-opacity:1; 
stroke-linecap:round; stroke-linejoin:round;">
<path d="M17.6530 58.9510
L14.2240 55.5220
" />
<path d="M16.3830 20.2160
L16.0020 19.8350
" />
</g>
<g style="fill:none; 
stroke:#4D7FC4; stroke-width:0.5080; stroke-opacity:1; 
stroke-linecap:round; stroke-linejoin:round;">
<path d="M16.2560 34.9480
L16.3830 35.0750
" />
</g>
<g style="fill:none; 
stroke:#4D7FC4; stroke-width:0.2540; stroke-opacity:1; 
stroke-linecap:round; stroke-linejoin:round;">
<path d="M16.3830 20.3430
L16.3830 20.2160
" />
<path d="M16.5100 20.3430
L16.5100 14.8820
" />
<path d="M18.7960 59.9670
L14.4780 59.9670
" />
<path d="M16.5100 14.8820
L17.0180 14.3740
" />
<path d="M14.0970 60.4750
L19.4310 60.4750
" />
</g>
<g style="fill:none; 
stroke:#4D7FC4; stroke-width:0.5080; stroke-opacity:1; 
stroke-linecap:round; stroke-linejoin:round;">
<path d="M18.2880 19.7080
L15.7480 22.2480
" />
</g>
<g style="fill:none; 
stroke:#4D7FC4; stroke-width:0.2540; stroke-opacity:1; 
stroke-linecap:round; stroke-linejoin:round;">
<path d="M14.0970 43.2030
L21.7170 50.8230
" />
<path d="M18.5420 58.9510
L17.6530 58.9510
" />
<path d="M21.3360 55.6490
L15.6210 55.6490
" />
</g>
<g style="fill:none; 
stroke:#4D7FC4; stroke-width:0.5080; stroke-opacity:1; 
stroke-linecap:round; stroke-linejoin:round;">
<path d="M18.7325 61.4275
L18.6665 61.4935
" />
</g>
<g style="fill:none; 
stroke:#4D7FC4; stroke-width:0.2540; stroke-opacity:1; 
stroke-linecap:round; stroke-linejoin:round;">
<path d="M15.2908 42.6188
L22.3520 49.6800
" />
<path d="M19.4310 59.3320
L18.7960 59.9670
" />
</g>
<g style="fill:none; 
stroke:#4D7FC4; stroke-width:0.5080; stroke-opacity:1; 
stroke-linecap:round; stroke-linejoin:round;">
<path d="M20.1930 19.7080
L18.2880 19.7080
" />
</g>
<g style="fill:none; 
stroke:#4D7FC4; stroke-width:0.2540; stroke-opacity:1; 
stroke-linecap:round; stroke-linejoin:round;">
<path d="M19.4310 58.6970
L19.4310 59.3320
" />
<path d="M19.4310 60.4750
L20.0660 59.8400
" />
</g>
<g style="fill:none; 
stroke:#4D7FC4; stroke-width:0.5080; stroke-opacity:1; 
stroke-linecap:round; stroke-linejoin:round;">
<path d="M19.8120 19.3270
L19.8120 18.8190
" />
<path d="M20.1930 19.7080
L19.8120 19.3270
" />
<path d="M20.7010 19.7080
L20.1930 19.7080
" />
</g>
<g style="fill:none; 
stroke:#4D7FC4; stroke-width:0.2540; stroke-opacity:1; 
stroke-linecap:round; stroke-linejoin:round;">
<path d="M20.8280 54.1250
L20.8280 52.8550
" />
</g>
<g style="fill:none; 
stroke:#4D7FC4; stroke-width:0.5080; stroke-opacity:1; 
stroke-linecap:round; stroke-linejoin:round;">
<path d="M15.7480 34.1860
L26.0350 34.1860
" />
<path d="M22.2250 18.1840
L20.7010 19.7080
" />
<path d="M22.2250 15.2630
L22.2250 18.1840
" />
</g>
<g style="fill:none; 
stroke:#4D7FC4; stroke-width:0.2540; stroke-opacity:1; 
stroke-linecap:round; stroke-linejoin:round;">
<path d="M22.2250 53.4900
L22.2250 51.8390
" />
</g>
<g style="fill:none; 
stroke:#4D7FC4; stroke-width:0.5080; stroke-opacity:1; 
stroke-linecap:round; stroke-linejoin:round;">
<path d="M22.9870 14.5010
L22.2250 15.2630
" />
</g>
<g style="fill:none; 
stroke:#4D7FC4; stroke-width:0.2540; stroke-opacity:1; 
stroke-linecap:round; stroke-linejoin:round;">
<path d="M21.4122 55.5982
L26.4160 60.6020
" />
<path d="M28.9560 62.2530
L20.8280 54.1250
" />
</g>
<g style="fill:none; 
stroke:#4D7FC4; stroke-width:0.7620; stroke-opacity:1; 
stroke-linecap:round; stroke-linejoin:round;">
<path d="M15.4940 5.2300
L36.1950 5.2300
" />
</g>
<g style="fill:none; 
stroke:#4D7FC4; stroke-width:0.2540; stroke-opacity:1; 
stroke-linecap:round; stroke-linejoin:round;">
<path d="M30.0990 61.3640
L22.2250 53.4900
" />
<path d="M26.4160 60.6020
L26.4160 61.9990
" />
<path d="M26.4160 61.9990
L29.5910 65.1740
" />
</g>
<g style="fill:none; 
stroke:#4D7FC4; stroke-width:0.5080; stroke-opacity:1; 
stroke-linecap:round; stroke-linejoin:round;">
<path d="M35.6870 14.5010
L23.1140 14.5010
" />
<path d="M26.0350 34.1860
L34.4170 42.5680
" />
<path d="M35.6870 66.4440
L24.8920 66.4440
" />
</g>
<g style="fill:none; 
stroke:#4D7FC4; stroke-width:0.7620; stroke-opacity:1; 
stroke-linecap:round; stroke-linejoin:round;">
<path d="M44.4500 21.2320
L19.3040 21.2320
" />
</g>
<g style="fill:none; 
stroke:#4D7FC4; stroke-width:0.2540; stroke-opacity:1; 
stroke-linecap:round; stroke-linejoin:round;">
<path d="M36.5760 62.2530
L28.9560 62.2530
" />
<path d="M38.2270 61.3640
L30.0990 61.3640
" />
<path d="M22.3520 49.6800
L50.5460 49.6800
" />
<path d="M29.5910 65.1740
L44.5770 65.1740
" />
<path d="M38.2270 63.9040
L36.5760 62.2530
" />
<path d="M21.7170 50.8230
L53.3400 50.8230
" />
</g>
<g style="fill:none; 
stroke:#4D7FC4; stroke-width:0.5080; stroke-opacity:1; 
stroke-linecap:round; stroke-linejoin:round;">
<path d="M39.8780 10.3100
L35.6870 14.5010
" />
</g>
<g style="fill:none; 
stroke:#4D7FC4; stroke-width:0.7620; stroke-opacity:1; 
stroke-linecap:round; stroke-linejoin:round;">
<path d="M36.1950 5.2300
L40.7443 0.6807
" />
</g>
<g style="fill:none; 
stroke:#4D7FC4; stroke-width:0.2540; stroke-opacity:1; 
stroke-linecap:round; stroke-linejoin:round;">
<path d="M40.7670 63.9040
L38.2270 61.3640
" />
</g>
<g style="fill:none; 
stroke:#4D7FC4; stroke-width:0.5080; stroke-opacity:1; 
stroke-linecap:round; stroke-linejoin:round;">
<path d="M39.8780 10.3100
L39.3700 10.3100
" />
<path d="M40.1320 10.3100
L39.8780 10.3100
" />
<path d="M34.4170 42.5680
L50.5460 42.5680
" />
</g>
<g style="fill:none; 
stroke:#4D7FC4; stroke-width:0.2540; stroke-opacity:1; 
stroke-linecap:round; stroke-linejoin:round;">
<path d="M44.5770 65.1740
L45.8470 63.9040
" />
</g>
<g style="fill:none; 
stroke:#4D7FC4; stroke-width:0.7620; stroke-opacity:1; 
stroke-linecap:round; stroke-linejoin:round;">
<path d="M46.8630 18.8190
L44.4500 21.2320
" />
<path d="M46.9900 12.0880
L46.9900 27.8360
" />
<path d="M46.9900 11.3260
L46.9900 12.0880
" />
</g>
<g style="fill:none; 
stroke:#4D7FC4; stroke-width:0.2540; stroke-opacity:1; 
stroke-linecap:round; stroke-linejoin:round;">
<path d="M50.5460 49.6800
L51.1810 50.3150
" />
</g>
<g style="fill:none; 
stroke:#4D7FC4; stroke-width:0.5080; stroke-opacity:1; 
stroke-linecap:round; stroke-linejoin:round;">
<path d="M50.5460 42.5680
L51.6890 43.7110
" />
<path d="M51.6890 43.7110
L51.6890 49.5530
" />
<path d="M50.5460 42.5680
L52.8320 42.5680
" />
</g>
<g style="fill:none; 
stroke:#4D7FC4; stroke-width:0.2540; stroke-opacity:1; 
stroke-linecap:round; stroke-linejoin:round;">
<path d="M51.1810 50.3150
L52.3240 50.3150
" />
<path d="M52.3240 50.3150
L54.2290 48.4100
" />
<path d="M53.3400 50.8230
L54.2290 49.9340
" />
<path d="M54.2290 48.4100
L54.2290 46.7590
" />
</g>
<g style="fill:none; 
stroke:#4D7FC4; stroke-width:0.7620; stroke-opacity:1; 
stroke-linecap:round; stroke-linejoin:round;">
<path d="M55.6260 57.9350
L55.6260 55.7760
" />
<path d="M57.9120 60.2210
L55.6260 57.9350
" />
<path d="M53.9750 30.3760
L62.8650 39.2660
" />
<path d="M40.7443 0.6807
L77.3657 0.6807
" />
<path d="M60.8330 60.2210
L57.9120 60.2210
" />
<path d="M62.8650 58.1890
L60.8330 60.2210
" />
<path d="M62.8650 39.2660
L62.8650 58.1890
" />
</g>
<g style="fill:none; 
stroke:#4D7FC4; stroke-width:0.2540; stroke-opacity:1; 
stroke-linecap:round; stroke-linejoin:round;">
<path d="M74.1680 17.9300
L77.7240 17.9300
" />
<path d="M77.7240 17.9300
L78.3590 17.2950
" />
<path d="M78.3590 12.3420
L78.1050 12.0880
" />
<path d="M78.3590 17.2950
L78.3590 12.3420
" />
</g>
<g style="fill:none; 
stroke:#4D7FC4; stroke-width:0.7620; stroke-opacity:1; 
stroke-linecap:round; stroke-linejoin:round;">
<path d="M77.3657 0.6807
L79.5020 2.8170
" />
<path d="M79.5020 2.8170
L79.5020 17.4220
" />
<path d="M79.5020 17.4220
L82.1690 20.0890
" />
<path d="M46.9900 27.8360
L49.5300 30.3760
" />
<path d="M49.5300 30.3760
L53.9750 30.3760
" />
</g>
<g style="fill:none; 
stroke:#4D7FC4; stroke-width:0.5080; stroke-opacity:1; 
stroke-linecap:round; stroke-linejoin:round;">
<path d="M24.8920 66.4440
L23.0505 64.6025
" />
<path d="M23.0505 64.6025
L22.9870 64.5390
" />
<path d="M23.0505 64.6025
L21.9747 64.6697
" />
<path d="M21.9747 64.6697
L18.7325 61.4275
" />
</g>
<g style="fill:none; 
stroke:#E8B2A7; stroke-width:0.6350; stroke-opacity:1; 
stroke-linecap:round; stroke-linejoin:round;">
<text x="94.1070" y="56.7920"
textLength="52.8211" font-size="4.0640" lengthAdjust="spacingAndGlyphs"
text-anchor="middle" opacity="0" stroke-opacity="0">基于LoRa的无线通信装置</text>
<g class="stroked-text"><desc>基于LoRa的无线通信装置</desc>
<path d="M68.6344 55.1936
L72.4081 55.1936
" />
<path d="M68.7796 53.7422
L72.2630 53.7422
" />
<path d="M68.9247 56.6450
L72.1179 56.6450
" />
<path d="M69.5053 55.9193
L71.5373 55.9193
" />
<path d="M69.6504 54.7582
L71.5373 54.7582
" />
<path d="M69.6504 54.1776
L71.5373 54.1776
" />
<path d="M70.5213 55.4839
L70.5213 56.6450
" />
<path d="M69.6504 53.1616
L69.6504 55.1936
" />
<path d="M69.6504 55.1936
L68.9247 56.0645
" />
<path d="M71.5373 53.1616
L71.5373 55.1936
" />
<path d="M71.5373 55.1936
L71.8276 55.7742
" />
<path d="M71.8276 55.7742
L72.5533 56.0645
" />
<path d="M73.1339 54.9033
L76.9076 54.9033
" />
<path d="M73.4241 53.5970
L76.6173 53.5970
" />
<path d="M74.1499 56.6450
L75.0207 56.6450
" />
<path d="M75.0207 53.5970
L75.0207 56.6450
" />
<path d="M79.5201 56.6450
L78.0687 56.6450
" />
<path d="M78.0687 56.6450
L78.0687 53.5970
" />
<path d="M80.9716 56.6450
L80.6813 56.4999
" />
<path d="M80.6813 56.4999
L80.5361 56.3548
" />
<path d="M80.5361 56.3548
L80.3910 56.0645
" />
<path d="M80.3910 56.0645
L80.3910 55.1936
" />
<path d="M80.3910 55.1936
L80.5361 54.9033
" />
<path d="M80.5361 54.9033
L80.6813 54.7582
" />
<path d="M80.6813 54.7582
L80.9716 54.6130
" />
<path d="M80.9716 54.6130
L81.4070 54.6130
" />
<path d="M81.4070 54.6130
L81.6973 54.7582
" />
<path d="M81.6973 54.7582
L81.8424 54.9033
" />
<path d="M81.8424 54.9033
L81.9876 55.1936
" />
<path d="M81.9876 55.1936
L81.9876 56.0645
" />
<path d="M81.9876 56.0645
L81.8424 56.3548
" />
<path d="M81.8424 56.3548
L81.6973 56.4999
" />
<path d="M81.6973 56.4999
L81.4070 56.6450
" />
<path d="M81.4070 56.6450
L80.9716 56.6450
" />
<path d="M85.0356 56.6450
L84.0196 55.1936
" />
<path d="M83.2939 56.6450
L83.2939 53.5970
" />
<path d="M83.2939 53.5970
L84.4550 53.5970
" />
<path d="M84.4550 53.5970
L84.7453 53.7422
" />
<path d="M84.7453 53.7422
L84.8904 53.8873
" />
<path d="M84.8904 53.8873
L85.0356 54.1776
" />
<path d="M85.0356 54.1776
L85.0356 54.6130
" />
<path d="M85.0356 54.6130
L84.8904 54.9033
" />
<path d="M84.8904 54.9033
L84.7453 55.0485
" />
<path d="M84.7453 55.0485
L84.4550 55.1936
" />
<path d="M84.4550 55.1936
L83.2939 55.1936
" />
<path d="M87.6481 56.6450
L87.6481 55.0485
" />
<path d="M87.6481 55.0485
L87.5030 54.7582
" />
<path d="M87.5030 54.7582
L87.2127 54.6130
" />
<path d="M87.2127 54.6130
L86.6321 54.6130
" />
<path d="M86.6321 54.6130
L86.3419 54.7582
" />
<path d="M87.6481 56.4999
L87.3579 56.6450
" />
<path d="M87.3579 56.6450
L86.6321 56.6450
" />
<path d="M86.6321 56.6450
L86.3419 56.4999
" />
<path d="M86.3419 56.4999
L86.1967 56.2096
" />
<path d="M86.1967 56.2096
L86.1967 55.9193
" />
<path d="M86.1967 55.9193
L86.3419 55.6290
" />
<path d="M86.3419 55.6290
L86.6321 55.4839
" />
<path d="M86.6321 55.4839
L87.3579 55.4839
" />
<path d="M87.3579 55.4839
L87.6481 55.3388
" />
<path d="M88.6641 56.3548
L90.1156 56.3548
" />
<path d="M88.6641 55.0485
L90.1156 55.0485
" />
<path d="M88.6641 53.8873
L88.6641 56.6450
" />
<path d="M89.3899 53.1616
L89.0996 53.8873
" />
<path d="M90.9864 54.7582
L91.7121 55.6290
" />
<path d="M91.1316 53.1616
L90.4059 54.6130
" />
<path d="M91.2767 56.6450
L92.1476 56.6450
" />
<path d="M88.6641 53.8873
L90.1156 53.8873
" />
<path d="M90.1156 53.8873
L90.1156 56.3548
" />
<path d="M90.8413 53.8873
L92.4379 53.8873
" />
<path d="M92.4379 53.8873
L92.4379 55.3388
" />
<path d="M92.4379 55.3388
L92.1476 56.6450
" />
<path d="M93.1636 54.7582
L96.9373 54.7582
" />
<path d="M93.4539 53.4519
L96.6470 53.4519
" />
<path d="M95.3407 55.0485
L95.3407 56.6450
" />
<path d="M95.3407 56.6450
L96.7921 56.6450
" />
<path d="M96.7921 56.6450
L96.9373 55.9193
" />
<path d="M95.0504 53.4519
L94.9053 54.9033
" />
<path d="M94.9053 54.9033
L94.6150 55.7742
" />
<path d="M94.6150 55.7742
L94.0344 56.2096
" />
<path d="M94.0344 56.2096
L93.1636 56.6450
" />
<path d="M98.9693 56.0645
L97.6630 56.3548
" />
<path d="M100.5659 53.3068
L101.1464 53.5970
" />
<path d="M101.2916 53.8873
L99.4047 54.1776
" />
<path d="M101.2916 54.6130
L99.2596 55.0485
" />
<path d="M98.3887 53.1616
L97.6630 54.6130
" />
<path d="M97.6630 54.6130
L98.5339 54.4679
" />
<path d="M101.2916 55.1936
L100.5659 55.9193
" />
<path d="M100.5659 55.9193
L99.1144 56.6450
" />
<path d="M98.8241 54.1776
L98.5339 54.7582
" />
<path d="M98.5339 54.7582
L97.6630 55.6290
" />
<path d="M97.6630 55.6290
L98.9693 55.3388
" />
<path d="M100.1304 53.1616
L100.1304 54.4679
" />
<path d="M100.1304 54.4679
L100.2756 55.4839
" />
<path d="M100.2756 55.4839
L100.5659 56.3548
" />
<path d="M100.5659 56.3548
L100.7110 56.4999
" />
<path d="M100.7110 56.4999
L101.2916 56.6450
" />
<path d="M101.2916 56.6450
L101.4367 56.2096
" />
<path d="M102.3076 53.3068
L102.8881 53.8873
" />
<path d="M103.6139 55.4839
L105.6459 55.4839
" />
<path d="M103.6139 54.7582
L105.6459 54.7582
" />
<path d="M103.6139 54.1776
L103.6139 56.2096
" />
<path d="M104.0493 53.7422
L105.2104 54.1776
" />
<path d="M104.6299 54.1776
L104.6299 56.2096
" />
<path d="M105.0653 56.2096
L105.7910 56.2096
" />
<path d="M102.7430 56.2096
L104.1944 56.6450
" />
<path d="M104.1944 56.6450
L106.0813 56.6450
" />
<path d="M103.4687 53.4519
L105.6459 53.4519
" />
<path d="M105.6459 53.4519
L104.6299 53.8873
" />
<path d="M103.6139 54.1776
L105.7910 54.1776
" />
<path d="M105.7910 54.1776
L105.7910 56.2096
" />
<path d="M102.1624 54.7582
L102.8881 54.7582
" />
<path d="M102.8881 54.7582
L102.8881 56.0645
" />
<path d="M102.8881 56.0645
L102.3076 56.4999
" />
<path d="M107.3876 53.8873
L107.3876 56.6450
" />
<path d="M107.8230 54.0325
L110.4356 54.0325
" />
<path d="M108.1133 56.4999
L110.1453 56.4999
" />
<path d="M108.1133 55.6290
L108.1133 56.6450
" />
<path d="M108.1133 55.0485
L110.1453 55.0485
" />
<path d="M108.1133 54.4679
L110.1453 54.4679
" />
<path d="M108.2584 53.4519
L110.0001 53.4519
" />
<path d="M107.6779 53.3068
L107.3876 54.0325
" />
<path d="M107.3876 54.0325
L106.6619 54.7582
" />
<path d="M108.1133 55.6290
L110.1453 55.6290
" />
<path d="M110.1453 55.6290
L110.1453 56.6450
" />
<path d="M111.1613 55.3388
L114.9350 55.3388
" />
<path d="M111.4516 53.4519
L111.7419 53.7422
" />
<path d="M111.8870 54.3228
L111.1613 54.6130
" />
<path d="M112.1773 53.1616
L112.1773 54.9033
" />
<path d="M112.3224 55.7742
L112.3224 56.4999
" />
<path d="M112.6127 53.8873
L114.9350 53.8873
" />
<path d="M112.7579 54.7582
L114.7899 54.7582
" />
<path d="M113.1933 56.4999
L111.8870 56.6450
" />
<path d="M113.7739 53.1616
L113.7739 54.7582
" />
<path d="M114.4996 55.6290
L113.6287 56.0645
" />
<path d="M113.0481 55.3388
L113.7739 56.2096
" />
<path d="M113.7739 56.2096
L114.9350 56.6450
" />
<path d="M113.0481 54.9033
L113.0481 55.4839
" />
<path d="M113.0481 55.4839
L112.0321 55.9193
" />
<path d="M112.0321 55.9193
L111.1613 56.0645
" />
<path d="M115.6607 54.3228
L119.2893 54.3228
" />
<path d="M115.8059 54.0325
L119.1441 54.0325
" />
<path d="M115.8059 53.3068
L115.8059 53.8873
" />
<path d="M115.9510 56.4999
L119.4344 56.4999
" />
<path d="M115.9510 54.9033
L115.9510 56.6450
" />
<path d="M116.6767 56.0645
L118.8539 56.0645
" />
<path d="M116.6767 55.6290
L118.8539 55.6290
" />
<path d="M116.6767 55.1936
L118.8539 55.1936
" />
<path d="M116.6767 54.7582
L116.6767 56.0645
" />
<path d="M116.9670 53.3068
L116.9670 53.8873
" />
<path d="M117.5476 54.0325
L117.5476 54.9033
" />
<path d="M117.9830 53.3068
L117.9830 53.8873
" />
<path d="M115.8059 53.3068
L119.1441 53.3068
" />
<path d="M119.1441 53.3068
L119.1441 53.8873
" />
<path d="M116.6767 54.7582
L118.8539 54.7582
" />
<path d="M118.8539 54.7582
L118.8539 56.0645
" />
</g></g>
<g style="fill:none; 
stroke:#E8B2A7; stroke-width:0.1200; stroke-opacity:1; 
stroke-linecap:round; stroke-linejoin:round;">
<g transform="rotate(-90.000000 51.6570 12.5960)">
<text x="51.6570" y="12.9960"
textLength="2.3714" font-size="1.0667" lengthAdjust="spacingAndGlyphs"
text-anchor="middle" opacity="0" stroke-opacity="0">BT1</text>
</g>
<g class="stroked-text"><desc>BT1</desc>
<path d="M51.6018 13.2246
L51.6399 13.1103
" />
<path d="M51.6399 13.1103
L51.6780 13.0722
" />
<path d="M51.6780 13.0722
L51.7542 13.0341
" />
<path d="M51.7542 13.0341
L51.8685 13.0341
" />
<path d="M51.8685 13.0341
L51.9447 13.0722
" />
<path d="M51.9447 13.0722
L51.9828 13.1103
" />
<path d="M51.9828 13.1103
L52.0209 13.1865
" />
<path d="M52.0209 13.1865
L52.0209 13.4912
" />
<path d="M52.0209 13.4912
L51.2209 13.4912
" />
<path d="M51.2209 13.4912
L51.2209 13.2246
" />
<path d="M51.2209 13.2246
L51.2589 13.1484
" />
<path d="M51.2589 13.1484
L51.2970 13.1103
" />
<path d="M51.2970 13.1103
L51.3732 13.0722
" />
<path d="M51.3732 13.0722
L51.4494 13.0722
" />
<path d="M51.4494 13.0722
L51.5256 13.1103
" />
<path d="M51.5256 13.1103
L51.5637 13.1484
" />
<path d="M51.5637 13.1484
L51.6018 13.2246
" />
<path d="M51.6018 13.2246
L51.6018 13.4912
" />
<path d="M51.2209 12.8055
L51.2209 12.3484
" />
<path d="M52.0209 12.5770
L51.2209 12.5770
" />
<path d="M52.0209 11.6627
L52.0209 12.1198
" />
<path d="M52.0209 11.8912
L51.2209 11.8912
" />
<path d="M51.2209 11.8912
L51.3351 11.9674
" />
<path d="M51.3351 11.9674
L51.4113 12.0436
" />
<path d="M51.4113 12.0436
L51.4494 12.1198
" />
</g><path style="fill:#02FFEE; fill-opacity:0.4000; stroke:none;fill-rule:evenodd;"
d="M 49.1570,11.6210
49.1779,11.5158
49.2375,11.4265
49.3268,11.3669
49.4320,11.3460
49.8820,11.3460
49.9872,11.3669
50.0765,11.4265
50.1361,11.5158
50.1570,11.6210
50.1570,12.1710
50.1361,12.2762
50.0765,12.3655
49.9872,12.4251
49.8820,12.4460
49.4320,12.4460
49.3268,12.4251
49.2375,12.3655
49.1779,12.2762
49.1570,12.1710
Z" /> 
<path style="fill:#02FFEE; fill-opacity:0.4000; stroke:none;fill-rule:evenodd;"
d="M 49.1570,13.0210
49.1779,12.9158
49.2375,12.8265
49.3268,12.7669
49.4320,12.7460
49.8820,12.7460
49.9872,12.7669
50.0765,12.8265
50.1361,12.9158
50.1570,13.0210
50.1570,13.5710
50.1361,13.6762
50.0765,13.7655
49.9872,13.8251
49.8820,13.8460
49.4320,13.8460
49.3268,13.8251
49.2375,13.7655
49.1779,13.6762
49.1570,13.5710
Z" /> 
</g>
<g style="fill:none; 
stroke:#D0D2CD; stroke-width:0.2540; stroke-opacity:1; 
stroke-linecap:round; stroke-linejoin:round;">
<path d="M0.0000 0.0000
L100.0000 0.0000
" />
<path d="M100.0000 0.0000
L100.0000 70.0000
" />
<path d="M100.0000 70.0000
L0.0000 70.0000
" />
<path d="M0.0000 70.0000
L0.0000 0.0000
" />
</g>
<g style="fill:#FFFFFF; fill-opacity:1.0000; stroke:none;">
<circle cx="0.6350" cy="61.2370" r="0.1524" /> 
<circle cx="0.8890" cy="41.4250" r="0.1524" /> 
<circle cx="1.0160" cy="66.1900" r="0.1524" /> 
<circle cx="1.1430" cy="7.3890" r="0.1524" /> 
<circle cx="1.3970" cy="62.7610" r="0.1524" /> 
<circle cx="1.5240" cy="15.2630" r="0.1524" /> 
<circle cx="1.5240" cy="23.2640" r="0.1524" /> 
<circle cx="1.5240" cy="2.9440" r="0.1524" /> 
<circle cx="1.7780" cy="11.8340" r="0.1524" /> 
<circle cx="1.9050" cy="29.3600" r="0.1524" /> 
<circle cx="2.0320" cy="47.3940" r="0.1524" /> 
<circle cx="2.1590" cy="42.9490" r="0.1524" /> 
<circle cx="2.1590" cy="18.9460" r="0.1524" /> 
<circle cx="2.2860" cy="54.2520" r="0.1524" /> 
<circle cx="2.2860" cy="50.1880" r="0.1524" /> 
<circle cx="2.2860" cy="31.9000" r="0.1524" /> 
<circle cx="2.4130" cy="55.5220" r="0.1524" /> 
<circle cx="2.5400" cy="61.1100" r="0.1524" /> 
<circle cx="2.5400" cy="52.4740" r="0.1524" /> 
<circle cx="2.6670" cy="24.7880" r="0.1524" /> 
<circle cx="2.9210" cy="68.6030" r="0.1524" /> 
<circle cx="3.6830" cy="43.2030" r="0.1524" /> 
<circle cx="4.0640" cy="22.8830" r="0.1524" /> 
<circle cx="4.0640" cy="15.2630" r="0.1524" /> 
<circle cx="4.1910" cy="11.5800" r="0.1524" /> 
<circle cx="4.3180" cy="55.6490" r="0.1524" /> 
<circle cx="4.8260" cy="53.9980" r="0.1524" /> 
<circle cx="5.4610" cy="50.4420" r="0.1524" /> 
<circle cx="5.4610" cy="69.3650" r="0.1524" /> 
<circle cx="5.8420" cy="53.2360" r="0.1524" /> 
<circle cx="5.9690" cy="45.3620" r="0.1524" /> 
<circle cx="5.9690" cy="47.6480" r="0.1524" /> 
<circle cx="6.2230" cy="25.0420" r="0.1524" /> 
<circle cx="6.3500" cy="29.2330" r="0.1525" /> 
<circle cx="6.3500" cy="18.6920" r="0.1524" /> 
<circle cx="6.3500" cy="0.7850" r="0.1524" /> 
<circle cx="7.4930" cy="55.5220" r="0.1524" /> 
<circle cx="7.7470" cy="62.3800" r="0.1524" /> 
<circle cx="7.8740" cy="45.9970" r="0.1524" /> 
<circle cx="8.2550" cy="68.0950" r="0.1524" /> 
<circle cx="8.3820" cy="24.7880" r="0.1524" /> 
<circle cx="8.3820" cy="25.6770" r="0.1524" /> 
<circle cx="8.5090" cy="26.6930" r="0.1525" /> 
<circle cx="8.5090" cy="27.3280" r="0.1525" /> 
<circle cx="8.5090" cy="32.9160" r="0.1525" /> 
<circle cx="8.5090" cy="33.6780" r="0.1525" /> 
<circle cx="8.6360" cy="7.5160" r="0.1524" /> 
<circle cx="8.6360" cy="66.8250" r="0.1524" /> 
<circle cx="8.7630" cy="64.7930" r="0.1524" /> 
<circle cx="8.8900" cy="65.6820" r="0.1524" /> 
<circle cx="8.8900" cy="68.7300" r="0.1524" /> 
<circle cx="9.0170" cy="60.0940" r="0.1524" /> 
<circle cx="9.2710" cy="53.2360" r="0.1524" /> 
<circle cx="9.5250" cy="68.0950" r="0.1524" /> 
<circle cx="9.9060" cy="45.4890" r="0.1524" /> 
<circle cx="10.1600" cy="19.0730" r="0.1524" /> 
<circle cx="10.4140" cy="28.7250" r="0.1525" /> 
<circle cx="10.9220" cy="34.0590" r="0.1524" /> 
<circle cx="10.9220" cy="68.4760" r="0.1524" /> 
<circle cx="11.1760" cy="63.9040" r="0.1524" /> 
<circle cx="11.4300" cy="47.1400" r="0.1524" /> 
<circle cx="11.4300" cy="65.8090" r="0.1524" /> 
<circle cx="11.5570" cy="12.3420" r="0.1525" /> 
<circle cx="11.5570" cy="10.8180" r="0.1525" /> 
<circle cx="11.5570" cy="11.5800" r="0.1525" /> 
<circle cx="12.0650" cy="52.6010" r="0.1524" /> 
<circle cx="12.1920" cy="68.6030" r="0.1524" /> 
<circle cx="12.3190" cy="10.8180" r="0.1525" /> 
<circle cx="12.3190" cy="12.3420" r="0.1525" /> 
<circle cx="12.3190" cy="11.5800" r="0.1525" /> 
<circle cx="12.5730" cy="49.0450" r="0.1524" /> 
<circle cx="12.7000" cy="59.0780" r="0.1524" /> 
<circle cx="12.7000" cy="50.6960" r="0.1524" /> 
<circle cx="12.8270" cy="15.1360" r="0.1525" /> 
<circle cx="12.8270" cy="22.1210" r="0.1524" /> 
<circle cx="12.8270" cy="14.2470" r="0.1525" /> 
<circle cx="13.3350" cy="44.0920" r="0.1524" /> 
<circle cx="13.4620" cy="37.3610" r="0.1524" /> 
<circle cx="13.4620" cy="68.3490" r="0.1524" /> 
<circle cx="13.5890" cy="22.6290" r="0.1524" /> 
<circle cx="13.8430" cy="34.1860" r="0.1524" /> 
<circle cx="13.8430" cy="65.4280" r="0.1524" /> 
<circle cx="13.9700" cy="59.0780" r="0.1524" /> 
<circle cx="14.0970" cy="63.9040" r="0.1524" /> 
<circle cx="14.2240" cy="68.8570" r="0.1524" /> 
<circle cx="14.3510" cy="45.1080" r="0.1524" /> 
<circle cx="14.3510" cy="22.2480" r="0.1524" /> 
<circle cx="14.3510" cy="51.7120" r="0.1524" /> 
<circle cx="14.3510" cy="66.5710" r="0.1524" /> 
<circle cx="14.3510" cy="50.6960" r="0.1524" /> 
<circle cx="14.3510" cy="67.9680" r="0.1524" /> 
<circle cx="14.3510" cy="49.2990" r="0.1524" /> 
<circle cx="14.3510" cy="62.2530" r="0.1524" /> 
<circle cx="14.3510" cy="47.6480" r="0.1524" /> 
<circle cx="14.3510" cy="46.2510" r="0.1524" /> 
<circle cx="14.4780" cy="10.1830" r="0.1524" /> 
<circle cx="14.6050" cy="7.7700" r="0.1524" /> 
<circle cx="14.6050" cy="64.9200" r="0.1524" /> 
<circle cx="14.7320" cy="41.6790" r="0.1524" /> 
<circle cx="14.7320" cy="62.8880" r="0.1524" /> 
<circle cx="14.9860" cy="68.2220" r="0.1524" /> 
<circle cx="15.1130" cy="53.2360" r="0.1524" /> 
<circle cx="15.2400" cy="64.1580" r="0.1524" /> 
<circle cx="15.3670" cy="66.6980" r="0.1524" /> 
<circle cx="15.4940" cy="65.5550" r="0.1524" /> 
<circle cx="15.6210" cy="68.8570" r="0.1524" /> 
<circle cx="15.6210" cy="62.5070" r="0.1524" /> 
<circle cx="15.8750" cy="53.9980" r="0.1524" /> 
<circle cx="16.0020" cy="19.8350" r="0.1524" /> 
<circle cx="16.3830" cy="35.0750" r="0.1524" /> 
<circle cx="16.5100" cy="10.3100" r="0.1524" /> 
<circle cx="16.8910" cy="55.0140" r="0.1524" /> 
<circle cx="17.0180" cy="14.3740" r="0.1524" /> 
<circle cx="17.1450" cy="24.5340" r="0.1524" /> 
<circle cx="17.1450" cy="41.2980" r="0.1524" /> 
<circle cx="17.1450" cy="27.5820" r="0.1524" /> 
<circle cx="17.1450" cy="29.7410" r="0.1524" /> 
<circle cx="17.2720" cy="32.0270" r="0.1524" /> 
<circle cx="17.3990" cy="36.5990" r="0.1524" /> 
<circle cx="17.7800" cy="1.0390" r="0.1524" /> 
<circle cx="18.1610" cy="13.7390" r="0.1524" /> 
<circle cx="18.1610" cy="35.4560" r="0.1524" /> 
<circle cx="18.5420" cy="58.9510" r="0.1524" /> 
<circle cx="19.0500" cy="65.4280" r="0.1524" /> 
<circle cx="19.1770" cy="13.7390" r="0.1524" /> 
<circle cx="19.3040" cy="21.2320" r="0.1524" /> 
<circle cx="19.4310" cy="58.6970" r="0.1524" /> 
<circle cx="19.4310" cy="37.3610" r="0.1524" /> 
<circle cx="19.8120" cy="18.8190" r="0.1524" /> 
<circle cx="20.0660" cy="59.8400" r="0.1524" /> 
<circle cx="20.0660" cy="38.5040" r="0.1524" /> 
<circle cx="20.1930" cy="41.0440" r="0.1524" /> 
<circle cx="20.1930" cy="14.8820" r="0.1524" /> 
<circle cx="20.7010" cy="9.9290" r="0.1524" /> 
<circle cx="20.8280" cy="52.9820" r="0.1524" /> 
<circle cx="21.2090" cy="14.7550" r="0.1524" /> 
<circle cx="22.0980" cy="66.1900" r="0.1524" /> 
<circle cx="22.0980" cy="1.8010" r="0.1524" /> 
<circle cx="22.2250" cy="51.9660" r="0.1524" /> 
<circle cx="22.2250" cy="36.9800" r="0.1524" /> 
<circle cx="22.3520" cy="7.5160" r="0.1524" /> 
<circle cx="22.7330" cy="68.2220" r="0.1524" /> 
<circle cx="23.1140" cy="42.1870" r="0.1524" /> 
<circle cx="24.0030" cy="40.4090" r="0.1524" /> 
<circle cx="24.5110" cy="9.9290" r="0.1524" /> 
<circle cx="24.8920" cy="7.1350" r="0.1524" /> 
<circle cx="25.5270" cy="19.0730" r="0.1524" /> 
<circle cx="26.1620" cy="3.3250" r="0.1524" /> 
<circle cx="26.4160" cy="17.2950" r="0.1524" /> 
<circle cx="26.5430" cy="65.4280" r="0.1524" /> 
<circle cx="26.7970" cy="11.9610" r="0.1524" /> 
<circle cx="27.1780" cy="9.8020" r="0.1524" /> 
<circle cx="28.4480" cy="53.8710" r="0.1524" /> 
<circle cx="28.4480" cy="55.6490" r="0.1524" /> 
<circle cx="28.5750" cy="19.3270" r="0.1524" /> 
<circle cx="28.5750" cy="41.8060" r="0.1524" /> 
<circle cx="28.8290" cy="8.4050" r="0.1524" /> 
<circle cx="28.8290" cy="48.1560" r="0.1524" /> 
<circle cx="29.0830" cy="24.5340" r="0.1524" /> 
<circle cx="29.5910" cy="25.8040" r="0.1524" /> 
<circle cx="29.7180" cy="44.4730" r="0.1524" /> 
<circle cx="30.2260" cy="12.5960" r="0.1524" /> 
<circle cx="30.7340" cy="1.4200" r="0.1524" /> 
<circle cx="30.8610" cy="10.1830" r="0.1524" /> 
<circle cx="32.3850" cy="18.3110" r="0.1524" /> 
<circle cx="32.5120" cy="3.1980" r="0.1524" /> 
<circle cx="32.6390" cy="63.2690" r="0.1524" /> 
<circle cx="32.7660" cy="8.4050" r="0.1524" /> 
<circle cx="33.2740" cy="11.3260" r="0.1524" /> 
<circle cx="33.4010" cy="53.1090" r="0.1524" /> 
<circle cx="33.6550" cy="68.6030" r="0.1524" /> 
<circle cx="33.9090" cy="64.1580" r="0.1524" /> 
<circle cx="35.1790" cy="1.0390" r="0.1524" /> 
<circle cx="35.3060" cy="27.7090" r="0.1524" /> 
<circle cx="35.4330" cy="26.3120" r="0.1524" /> 
<circle cx="35.4330" cy="46.3780" r="0.1524" /> 
<circle cx="35.4330" cy="19.9620" r="0.1524" /> 
<circle cx="35.8140" cy="37.7420" r="0.1524" /> 
<circle cx="37.2110" cy="53.7440" r="0.1524" /> 
<circle cx="37.3380" cy="8.5320" r="0.1524" /> 
<circle cx="37.3380" cy="41.1710" r="0.1524" /> 
<circle cx="37.8460" cy="55.2680" r="0.1524" /> 
<circle cx="37.9730" cy="17.4220" r="0.1524" /> 
<circle cx="38.8620" cy="29.6140" r="0.1524" /> 
<circle cx="39.1160" cy="4.9760" r="0.1524" /> 
<circle cx="39.1160" cy="6.8810" r="0.1524" /> 
<circle cx="39.3700" cy="10.3100" r="0.1524" /> 
<circle cx="40.1320" cy="10.3100" r="0.1524" /> 
<circle cx="40.5130" cy="54.8870" r="0.1524" /> 
<circle cx="41.0210" cy="25.1690" r="0.1524" /> 
<circle cx="41.0210" cy="40.4090" r="0.1524" /> 
<circle cx="41.4020" cy="13.4850" r="0.1524" /> 
<circle cx="41.9100" cy="27.5820" r="0.1524" /> 
<circle cx="42.0370" cy="19.8350" r="0.1524" /> 
<circle cx="42.1640" cy="47.6480" r="0.1524" /> 
<circle cx="42.6720" cy="3.3250" r="0.1524" /> 
<circle cx="42.6720" cy="4.8490" r="0.1524" /> 
<circle cx="44.1960" cy="8.9130" r="0.1524" /> 
<circle cx="44.3230" cy="38.1230" r="0.1524" /> 
<circle cx="44.4500" cy="3.0710" r="0.1524" /> 
<circle cx="44.4500" cy="62.5070" r="0.1524" /> 
<circle cx="44.7040" cy="1.6740" r="0.1524" /> 
<circle cx="44.7040" cy="53.4900" r="0.1524" /> 
<circle cx="45.4660" cy="10.1830" r="0.1524" /> 
<circle cx="45.8470" cy="12.5960" r="0.1524" /> 
<circle cx="45.9740" cy="59.5860" r="0.1524" /> 
<circle cx="46.4820" cy="53.4900" r="0.1524" /> 
<circle cx="46.9900" cy="12.0880" r="0.1524" /> 
<circle cx="46.9900" cy="11.3260" r="0.1524" /> 
<circle cx="47.3710" cy="39.0120" r="0.1524" /> 
<circle cx="47.4980" cy="62.3800" r="0.1524" /> 
<circle cx="47.7520" cy="46.1240" r="0.1524" /> 
<circle cx="48.0060" cy="55.7760" r="0.1524" /> 
<circle cx="48.3870" cy="44.8540" r="0.1524" /> 
<circle cx="48.3870" cy="56.9190" r="0.1524" /> 
<circle cx="48.8950" cy="11.8340" r="0.1524" /> 
<circle cx="49.1490" cy="67.2060" r="0.1524" /> 
<circle cx="49.6570" cy="63.6500" r="0.1524" /> 
<circle cx="49.7840" cy="11.9610" r="0.1524" /> 
<circle cx="51.6890" cy="49.5530" r="0.1524" /> 
<circle cx="52.8320" cy="42.6950" r="0.1524" /> 
<circle cx="53.0860" cy="53.3630" r="0.1524" /> 
<circle cx="53.2130" cy="55.5220" r="0.1524" /> 
<circle cx="54.1020" cy="34.6940" r="0.1524" /> 
<circle cx="54.2290" cy="46.7590" r="0.1524" /> 
<circle cx="54.2290" cy="12.5960" r="0.1524" /> 
<circle cx="54.2290" cy="49.9340" r="0.1524" /> 
<circle cx="54.3560" cy="51.5850" r="0.1524" /> 
<circle cx="54.6100" cy="20.2160" r="0.1524" /> 
<circle cx="54.6100" cy="38.6310" r="0.1524" /> 
<circle cx="54.6100" cy="60.8560" r="0.1524" /> 
<circle cx="55.3720" cy="63.9040" r="0.1524" /> 
<circle cx="55.6260" cy="55.9030" r="0.1524" /> 
<circle cx="55.7530" cy="42.9490" r="0.1524" /> 
<circle cx="58.1660" cy="12.7230" r="0.1524" /> 
<circle cx="58.4200" cy="25.5500" r="0.1524" /> 
<circle cx="60.1980" cy="12.8500" r="0.1524" /> 
<circle cx="62.3570" cy="65.5550" r="0.1524" /> 
<circle cx="62.9920" cy="20.3430" r="0.1524" /> 
<circle cx="63.1190" cy="11.7070" r="0.1524" /> 
<circle cx="64.1350" cy="32.9160" r="0.1524" /> 
<circle cx="65.2780" cy="19.0730" r="0.1524" /> 
<circle cx="65.9130" cy="17.4220" r="0.1524" /> 
<circle cx="65.9130" cy="16.6600" r="0.1524" /> 
<circle cx="66.1670" cy="14.2470" r="0.1524" /> 
<circle cx="66.2940" cy="8.0240" r="0.1524" /> 
<circle cx="66.8020" cy="4.5950" r="0.1524" /> 
<circle cx="67.8180" cy="26.6930" r="0.1524" /> 
<circle cx="68.8340" cy="15.5170" r="0.1524" /> 
<circle cx="69.0880" cy="21.2320" r="0.1524" /> 
<circle cx="69.8500" cy="32.5350" r="0.1524" /> 
<circle cx="70.8660" cy="32.9160" r="0.1524" /> 
<circle cx="70.9930" cy="67.0790" r="0.1524" /> 
<circle cx="71.5010" cy="4.5950" r="0.1524" /> 
<circle cx="71.6280" cy="6.3730" r="0.1524" /> 
<circle cx="73.6600" cy="25.4230" r="0.1524" /> 
<circle cx="73.7870" cy="19.2000" r="0.1524" /> 
<circle cx="74.1680" cy="17.9300" r="0.1524" /> 
<circle cx="74.6760" cy="6.7540" r="0.1524" /> 
<circle cx="75.1840" cy="33.2970" r="0.1524" /> 
<circle cx="75.1840" cy="21.1050" r="0.1524" /> 
<circle cx="77.2160" cy="64.7930" r="0.1524" /> 
<circle cx="77.3430" cy="30.6300" r="0.1524" /> 
<circle cx="78.1050" cy="12.0880" r="0.1524" /> 
<circle cx="78.7400" cy="28.0900" r="0.1524" /> 
<circle cx="80.0100" cy="21.1050" r="0.1524" /> 
<circle cx="81.4070" cy="33.1700" r="0.1524" /> 
<circle cx="82.1690" cy="20.0890" r="0.1524" /> 
<circle cx="82.9310" cy="1.5470" r="0.1524" /> 
<circle cx="82.9310" cy="11.4530" r="0.1524" /> 
<circle cx="83.4390" cy="18.3110" r="0.1524" /> 
<circle cx="83.4390" cy="20.9780" r="0.1524" /> 
<circle cx="84.8360" cy="9.1670" r="0.1524" /> 
<circle cx="85.3440" cy="5.3570" r="0.1524" /> 
<circle cx="85.4710" cy="29.2330" r="0.1524" /> 
<circle cx="86.2330" cy="20.9780" r="0.1524" /> 
<circle cx="86.4870" cy="32.7890" r="0.1524" /> 
<circle cx="87.1220" cy="20.9780" r="0.1524" /> 
<circle cx="87.3760" cy="1.2930" r="0.1524" /> 
<circle cx="87.5030" cy="25.6770" r="0.1524" /> 
<circle cx="88.7730" cy="64.1580" r="0.1524" /> 
<circle cx="89.2810" cy="21.1050" r="0.1524" /> 
<circle cx="89.9160" cy="2.6900" r="0.1524" /> 
<circle cx="90.1700" cy="6.1190" r="0.1524" /> 
<circle cx="91.4400" cy="28.2170" r="0.1524" /> 
<circle cx="91.9480" cy="17.5490" r="0.1524" /> 
<circle cx="92.2020" cy="23.3910" r="0.1524" /> 
<circle cx="94.1070" cy="9.8020" r="0.1524" /> 
<circle cx="94.1070" cy="12.8500" r="0.1524" /> 
<circle cx="94.1070" cy="11.8340" r="0.1524" /> 
<circle cx="94.1070" cy="10.8180" r="0.1524" /> 
<circle cx="95.3770" cy="11.8340" r="0.1524" /> 
<circle cx="95.3770" cy="12.8500" r="0.1524" /> 
<circle cx="95.3770" cy="9.8020" r="0.1524" /> 
<circle cx="95.3770" cy="10.8180" r="0.1524" /> 
<circle cx="96.1390" cy="18.3110" r="0.1524" /> 
<circle cx="97.1550" cy="26.1850" r="0.1524" /> 
<circle cx="97.2820" cy="16.2790" r="0.1524" /> 
<circle cx="98.2980" cy="12.2150" r="0.1524" /> 
</g> 
</svg>
