%TF.GenerationSoftware,KiCad,Pcbnew,10.99.0-unknown*%
%TF.CreationDate,2026-08-12T15:25:44+08:00*%
%TF.ProjectId,__AR__,00904152-3c5c-42e6-9b69-6361645f7063,rev?*%
%TF.SameCoordinates,Original*%
%TF.FileFunction,Soldermask,Top*%
%TF.FilePolarity,Negative*%
%FSLAX46Y46*%
G04 Gerber Fmt 4.6, Leading zero omitted, Abs format (unit mm)*
G04 Created by KiCad (PCBNEW 10.99.0-unknown) date 2026-08-12 15:25:44*
%MOMM*%
%LPD*%
G01*
G04 APERTURE LIST*
G04 Aperture macros list*
%AMRoundRect*
0 Rectangle with rounded corners*
0 $1 Rounding radius*
0 $2 $3 $4 $5 $6 $7 $8 $9 X,Y pos of 4 corners*
0 Add a 4 corners polygon primitive as box body*
4,1,4,$2,$3,$4,$5,$6,$7,$8,$9,$2,$3,0*
0 Add four circle primitives for the rounded corners*
1,1,$1+$1,$2,$3*
1,1,$1+$1,$4,$5*
1,1,$1+$1,$6,$7*
1,1,$1+$1,$8,$9*
0 Add four rect primitives between the rounded corners*
20,1,$1+$1,$2,$3,$4,$5,0*
20,1,$1+$1,$4,$5,$6,$7,0*
20,1,$1+$1,$6,$7,$8,$9,0*
20,1,$1+$1,$8,$9,$2,$3,0*%
G04 Aperture macros list end*
%ADD10RoundRect,0.155000X0.345000X-0.105000X0.345000X0.105000X-0.345000X0.105000X-0.345000X-0.105000X0*%
%ADD11RoundRect,0.155000X-0.105000X-0.345000X0.105000X-0.345000X0.105000X0.345000X-0.105000X0.345000X0*%
%ADD12RoundRect,0.155000X0.345000X-0.105000X0.345000X0.105000X-0.345000X0.105000X-0.345000X-0.105000X0*%
%ADD13RoundRect,0.155000X-0.105000X-0.345000X0.105000X-0.345000X0.105000X0.345000X-0.105000X0.345000X0*%
G04 APERTURE END LIST*
D10*
%TO.C,U1*%
X17748000Y58541000D03*
X16948000Y58541000D03*
X16148000Y58541000D03*
X15348000Y58541000D03*
X14548000Y58541000D03*
X13748000Y58541000D03*
D11*
X12948000Y59341000D03*
X12948000Y60141000D03*
X12948000Y60941000D03*
X12948000Y61741000D03*
X12948000Y62541000D03*
X12948000Y63341000D03*
D10*
X13748000Y64141000D03*
X14548000Y64141000D03*
X15348000Y64141000D03*
X16148000Y64141000D03*
X16948000Y64141000D03*
X17748000Y64141000D03*
D11*
X18548000Y63341000D03*
X18548000Y62541000D03*
X18548000Y61741000D03*
X18548000Y60941000D03*
X18548000Y60141000D03*
%TD*%
D12*
%TO.C,U2*%
X13875000Y56394000D03*
X14675000Y56394000D03*
X15475000Y56394000D03*
X16275000Y56394000D03*
X17075000Y56394000D03*
X17875000Y56394000D03*
D13*
X18675000Y55594000D03*
X18675000Y54794000D03*
X18675000Y53994000D03*
X18675000Y53194000D03*
X18675000Y52394000D03*
X18675000Y51594000D03*
D12*
X17875000Y50794000D03*
X17075000Y50794000D03*
X16275000Y50794000D03*
X15475000Y50794000D03*
X14675000Y50794000D03*
X13875000Y50794000D03*
D13*
X13075000Y51594000D03*
X13075000Y52394000D03*
X13075000Y53194000D03*
X13075000Y53994000D03*
X13075000Y54794000D03*
%TD*%
M02*
