%TF.GenerationSoftware,KiCad,Pcbnew,10.99.0-unknown*%
%TF.CreationDate,2026-08-12T15:25:44+08:00*%
%TF.ProjectId,__AR__,00904152-3c5c-42e6-9b69-6361645f7063,rev?*%
%TF.SameCoordinates,Original*%
%TF.FileFunction,Legend,Top*%
%TF.FilePolarity,Positive*%
%FSLAX46Y46*%
G04 Gerber Fmt 4.6, Leading zero omitted, Abs format (unit mm)*
G04 Created by KiCad (PCBNEW 10.99.0-unknown) date 2026-08-12 15:25:44*
%MOMM*%
%LPD*%
G01*
G04 APERTURE LIST*
%ADD10C,0.120000*%
G04 APERTURE END LIST*
D10*
X15138476Y59777144D02*
X15138476Y59129525D01*
X15138476Y59129525D02*
X15176571Y59053335D01*
X15176571Y59053335D02*
X15214666Y59015240D01*
X15214666Y59015240D02*
X15290857Y58977144D01*
X15290857Y58977144D02*
X15443238Y58977144D01*
X15443238Y58977144D02*
X15519428Y59015240D01*
X15519428Y59015240D02*
X15557523Y59053335D01*
X15557523Y59053335D02*
X15595619Y59129525D01*
X15595619Y59129525D02*
X15595619Y59777144D01*
X16395618Y58977144D02*
X15938475Y58977144D01*
X16167047Y58977144D02*
X16167047Y59777144D01*
X16167047Y59777144D02*
X16090856Y59662859D01*
X16090856Y59662859D02*
X16014666Y59586668D01*
X16014666Y59586668D02*
X15938475Y59548573D01*
X15265476Y56030144D02*
X15265476Y55382525D01*
X15265476Y55382525D02*
X15303571Y55306335D01*
X15303571Y55306335D02*
X15341666Y55268240D01*
X15341666Y55268240D02*
X15417857Y55230144D01*
X15417857Y55230144D02*
X15570238Y55230144D01*
X15570238Y55230144D02*
X15646428Y55268240D01*
X15646428Y55268240D02*
X15684523Y55306335D01*
X15684523Y55306335D02*
X15722619Y55382525D01*
X15722619Y55382525D02*
X15722619Y56030144D01*
X16065475Y55953954D02*
X16103571Y55992049D01*
X16103571Y55992049D02*
X16179761Y56030144D01*
X16179761Y56030144D02*
X16370237Y56030144D01*
X16370237Y56030144D02*
X16446428Y55992049D01*
X16446428Y55992049D02*
X16484523Y55953954D01*
X16484523Y55953954D02*
X16522618Y55877763D01*
X16522618Y55877763D02*
X16522618Y55801573D01*
X16522618Y55801573D02*
X16484523Y55687287D01*
X16484523Y55687287D02*
X16027380Y55230144D01*
X16027380Y55230144D02*
X16522618Y55230144D01*
M02*
