%TF.GenerationSoftware,KiCad,Pcbnew,10.99.0-unknown*%
%TF.CreationDate,2026-08-12T15:25:44+08:00*%
%TF.ProjectId,__AR__,00904152-3c5c-42e6-9b69-6361645f7063,rev?*%
%TF.SameCoordinates,Original*%
%TF.FileFunction,Copper,L1,Top*%
%TF.FilePolarity,Positive*%
%FSLAX46Y46*%
G04 Gerber Fmt 4.6, Leading zero omitted, Abs format (unit mm)*
G04 Created by KiCad (PCBNEW 10.99.0-unknown) date 2026-08-12 15:25:44*
%MOMM*%
%LPD*%
G01*
G04 APERTURE LIST*
G04 Aperture macros list*
%AMRoundRect*
0 Rectangle with rounded corners*
0 $1 Rounding radius*
0 $2 $3 $4 $5 $6 $7 $8 $9 X,Y pos of 4 corners*
0 Add a 4 corners polygon primitive as box body*
4,1,4,$2,$3,$4,$5,$6,$7,$8,$9,$2,$3,0*
0 Add four circle primitives for the rounded corners*
1,1,$1+$1,$2,$3*
1,1,$1+$1,$4,$5*
1,1,$1+$1,$6,$7*
1,1,$1+$1,$8,$9*
0 Add four rect primitives between the rounded corners*
20,1,$1+$1,$2,$3,$4,$5,0*
20,1,$1+$1,$4,$5,$6,$7,0*
20,1,$1+$1,$6,$7,$8,$9,0*
20,1,$1+$1,$8,$9,$2,$3,0*%
G04 Aperture macros list end*
%TA.AperFunction,SMDPad,CuDef*%
%ADD10RoundRect,0.105000X0.345000X-0.105000X0.345000X0.105000X-0.345000X0.105000X-0.345000X-0.105000X0*%
%TD*%
%TA.AperFunction,SMDPad,CuDef*%
%ADD11RoundRect,0.105000X-0.105000X-0.345000X0.105000X-0.345000X0.105000X0.345000X-0.105000X0.345000X0*%
%TD*%
%TA.AperFunction,SMDPad,CuDef*%
%ADD12RoundRect,0.105000X0.345000X-0.105000X0.345000X0.105000X-0.345000X0.105000X-0.345000X-0.105000X0*%
%TD*%
%TA.AperFunction,SMDPad,CuDef*%
%ADD13RoundRect,0.105000X-0.105000X-0.345000X0.105000X-0.345000X0.105000X0.345000X-0.105000X0.345000X0*%
%TD*%
%TA.AperFunction,ViaPad*%
%ADD14C,0.500000*%
%TD*%
%TA.AperFunction,Conductor*%
%ADD15C,0.254000*%
%TD*%
%TA.AperFunction,Conductor*%
%ADD16C,0.230000*%
%TD*%
G04 APERTURE END LIST*
D10*
%TO.P,U1,2*%
%TO.N,U1_2*%
X17748000Y58541000D03*
%TO.P,U1,4*%
%TO.N,U1_4*%
X16948000Y58541000D03*
%TO.P,U1,6*%
%TO.N,U1_6*%
X16148000Y58541000D03*
%TO.P,U1,8*%
%TO.N,U1_8*%
X15348000Y58541000D03*
%TO.P,U1,10*%
%TO.N,U1_10*%
X14548000Y58541000D03*
%TO.P,U1,12*%
%TO.N,U1_12*%
X13748000Y58541000D03*
D11*
%TO.P,U1,14*%
%TO.N,U1_14*%
X12948000Y59341000D03*
%TO.P,U1,16*%
%TO.N,U1_16*%
X12948000Y60141000D03*
%TO.P,U1,18*%
%TO.N,U1_18*%
X12948000Y60941000D03*
%TO.P,U1,21*%
%TO.N,U1_21*%
X12948000Y61741000D03*
%TO.P,U1,20*%
%TO.N,U1_20*%
X12948000Y62541000D03*
%TO.P,U1,19*%
%TO.N,U1_19*%
X12948000Y63341000D03*
D10*
%TO.P,U1,17*%
%TO.N,U1_17*%
X13748000Y64141000D03*
%TO.P,U1,15*%
%TO.N,U1_15*%
X14548000Y64141000D03*
%TO.P,U1,13*%
%TO.N,U1_13*%
X15348000Y64141000D03*
%TO.P,U1,11*%
%TO.N,U1_11*%
X16148000Y64141000D03*
%TO.P,U1,9*%
%TO.N,U1_9*%
X16948000Y64141000D03*
%TO.P,U1,7*%
%TO.N,U1_7*%
X17748000Y64141000D03*
D11*
%TO.P,U1,5*%
%TO.N,U1_5*%
X18548000Y63341000D03*
%TO.P,U1,3*%
%TO.N,U1_3*%
X18548000Y62541000D03*
%TO.P,U1,1*%
%TO.N,U1_1*%
X18548000Y61741000D03*
%TO.P,U1,22*%
%TO.N,U1_21*%
X18548000Y60941000D03*
%TO.P,U1,23*%
%TO.N,U1_20*%
X18548000Y60141000D03*
%TD*%
D12*
%TO.P,U2,1*%
%TO.N,U1_1*%
X13875000Y56394000D03*
%TO.P,U2,2*%
%TO.N,U1_2*%
X14675000Y56394000D03*
%TO.P,U2,3*%
%TO.N,U1_3*%
X15475000Y56394000D03*
%TO.P,U2,4*%
%TO.N,U1_4*%
X16275000Y56394000D03*
%TO.P,U2,5*%
%TO.N,U1_5*%
X17075000Y56394000D03*
%TO.P,U2,6*%
%TO.N,U1_6*%
X17875000Y56394000D03*
D13*
%TO.P,U2,7*%
%TO.N,U1_7*%
X18675000Y55594000D03*
%TO.P,U2,8*%
%TO.N,U1_8*%
X18675000Y54794000D03*
%TO.P,U2,9*%
%TO.N,U1_9*%
X18675000Y53994000D03*
%TO.P,U2,10*%
%TO.N,U1_10*%
X18675000Y53194000D03*
%TO.P,U2,11*%
%TO.N,U1_11*%
X18675000Y52394000D03*
%TO.P,U2,12*%
%TO.N,U1_12*%
X18675000Y51594000D03*
D12*
%TO.P,U2,13*%
%TO.N,U1_13*%
X17875000Y50794000D03*
%TO.P,U2,14*%
%TO.N,U1_14*%
X17075000Y50794000D03*
%TO.P,U2,15*%
%TO.N,U1_15*%
X16275000Y50794000D03*
%TO.P,U2,16*%
%TO.N,U1_16*%
X15475000Y50794000D03*
%TO.P,U2,17*%
%TO.N,U1_17*%
X14675000Y50794000D03*
%TO.P,U2,18*%
%TO.N,U1_18*%
X13875000Y50794000D03*
D13*
%TO.P,U2,19*%
%TO.N,U1_19*%
X13075000Y51594000D03*
%TO.P,U2,20*%
%TO.N,N/C*%
X13075000Y52394000D03*
%TO.P,U2,22*%
X13075000Y53194000D03*
%TO.P,U2,23*%
X13075000Y53994000D03*
%TO.P,U2,21*%
X13075000Y54794000D03*
%TD*%
D14*
%TO.N,U1_4*%
X18912100Y59111900D03*
%TO.N,U1_6*%
X18008100Y59631800D03*
%TO.N,U1_10*%
X16224000Y59295800D03*
%TO.N,U1_12*%
X14968000Y59791900D03*
X13856000Y58807900D03*
%TO.N,U1_16*%
X12912100Y59463900D03*
%TO.N,U1_18*%
X11848100Y58807900D03*
%TO.N,U1_2*%
X21023600Y63479700D03*
%TO.N,U1_5*%
X16751300Y54952900D03*
%TD*%
%TO.N,U1_7*%
D15*
X17375300Y56954000D02*
X17375300Y60221700D01*
X17375300Y60221700D02*
X17248600Y60348400D01*
X17248600Y60348400D02*
X17248600Y61616100D01*
%TO.N,U1_17*%
X13248600Y61615300D02*
X13248600Y60619600D01*
X13248600Y60619600D02*
X12374900Y59745900D01*
X12374900Y59745900D02*
X12374900Y56954400D01*
%TO.N,U1_1*%
D16*
X20375900Y56954400D02*
X20375900Y59253100D01*
X20375900Y59253100D02*
X19649400Y59979600D01*
X19649400Y59979600D02*
X19649400Y61615300D01*
%TO.N,U1_11*%
D15*
X15374600Y56954400D02*
X15374600Y59222600D01*
X15374600Y59222600D02*
X15648900Y59497000D01*
X15648900Y59497000D02*
X15648900Y61615300D01*
%TO.N,U1_19*%
X11374100Y56954400D02*
X11216000Y57191900D01*
X11216000Y57191900D02*
X11232000Y59183900D01*
X11232000Y59183900D02*
X12448500Y60454500D01*
X12448500Y60454500D02*
X12448500Y61615300D01*
%TO.N,U1_12*%
X13375600Y56954400D02*
X13288000Y58911900D01*
X13288000Y58911900D02*
X14048700Y60360600D01*
X14048700Y60360600D02*
X14048700Y61615300D01*
%TO.N,U1_3*%
X19375100Y59618900D02*
X18849300Y60144700D01*
X18849300Y60144700D02*
X18849300Y61615300D01*
D16*
X19375100Y56954400D02*
X19375100Y58519100D01*
X19375100Y58519100D02*
X19631700Y58775600D01*
X19631700Y58775600D02*
X19631700Y59240400D01*
X19631700Y59240400D02*
X19375100Y59618900D01*
%TO.N,U1_6*%
X18008000Y59631900D02*
X17875400Y59499300D01*
X17875400Y59499300D02*
X17875400Y56954000D01*
%TO.N,U1_4*%
X18912000Y59111900D02*
X18875400Y59075300D01*
X18875400Y59075300D02*
X18875400Y56954000D01*
%TO.N,U1_5*%
X18049200Y61615300D02*
X18112700Y61678800D01*
X18112700Y61678800D02*
X18112700Y63665100D01*
X18112700Y63665100D02*
X18656300Y64208700D01*
X18656300Y64208700D02*
X21369000Y64208700D01*
X21369000Y64208700D02*
X21816100Y63759100D01*
X21816100Y63759100D02*
X21816100Y54856400D01*
X21816100Y54856400D02*
X21559500Y54599800D01*
X21559500Y54599800D02*
X18351500Y54599800D01*
X18351500Y54599800D02*
X18374400Y56954400D01*
%TO.N,U1_2*%
X21023600Y63479700D02*
X21407100Y63096100D01*
X21407100Y63096100D02*
X21407100Y61544200D01*
X21407100Y61544200D02*
X21407100Y55016400D01*
X21407100Y55016400D02*
X19880600Y55016400D01*
X19880600Y55016400D02*
X19875500Y56954400D01*
%TO.N,U1_10*%
X15875400Y56954000D02*
X15875400Y58947300D01*
X15875400Y58947300D02*
X16224000Y59295900D01*
%TO.N,U1_18*%
X11848000Y58807900D02*
X11875400Y58780500D01*
X11875400Y58780500D02*
X11875400Y56954000D01*
%TO.N,U1_16*%
X12912000Y59463900D02*
X12875400Y59427300D01*
X12875400Y59427300D02*
X12875400Y56954000D01*
%TO.N,U1_12*%
X13855700Y58808600D02*
X13876000Y56954400D01*
X14968200Y59791600D02*
X14874200Y59687500D01*
X14874200Y59687500D02*
X14874200Y56954400D01*
%TO.N,U1_5*%
X16751300Y54952900D02*
X16875400Y55077000D01*
X16875400Y55077000D02*
X16875400Y56954000D01*
%TO.N,U1_9*%
X16449000Y61615300D02*
X16543000Y61521300D01*
X16543000Y61521300D02*
X16543000Y59903400D01*
X16543000Y59903400D02*
X16847800Y59601100D01*
X16847800Y59601100D02*
X16847800Y58976300D01*
X16847800Y58976300D02*
X16552000Y58775900D01*
X16552000Y58775900D02*
X16560000Y58775900D01*
X16560000Y58775900D02*
X16375400Y58392100D01*
X16375400Y58392100D02*
X16375400Y56954400D01*
%TO.N,U1_13*%
D15*
X14376400Y56954400D02*
X14440000Y60087900D01*
X14440000Y60087900D02*
X14848800Y60568800D01*
X14848800Y60568800D02*
X14848800Y61615300D01*
%TD*%
M02*
