%TF.GenerationSoftware,KiCad,Pcbnew,10.99.0-unknown*%
%TF.CreationDate,2026-08-12T15:23:38+08:00*%
%TF.ProjectId,______-____,bf3a0f3a-e268-42d3-9b53-e8062e6b6963,rev?*%
%TF.SameCoordinates,Original*%
%TF.FileFunction,AssemblyDrawing,Top*%
%FSLAX46Y46*%
G04 Gerber Fmt 4.6, Leading zero omitted, Abs format (unit mm)*
G04 Created by KiCad (PCBNEW 10.99.0-unknown) date 2026-08-12 15:23:38*
%MOMM*%
%LPD*%
G01*
G04 APERTURE LIST*
%ADD10C,0.100000*%
G04 APERTURE END LIST*
%TO.C,R6*%
D10*
X636378465Y-255882611D02*
X639378465Y-255882611D01*
X639378465Y-257582611D01*
X636378465Y-257582611D01*
X636378465Y-255882611D01*
%TO.C,R7*%
X636378465Y-254231611D02*
X639378465Y-254231611D01*
X639378465Y-255931611D01*
X636378465Y-255931611D01*
X636378465Y-254231611D01*
%TO.C,R13*%
X627978685Y-266103571D02*
X630978685Y-266103571D01*
X630978685Y-267803571D01*
X627978685Y-267803571D01*
X627978685Y-266103571D01*
%TO.C,R10*%
X631003180Y-266117541D02*
X634003180Y-266117541D01*
X634003180Y-267817541D01*
X631003180Y-267817541D01*
X631003180Y-266117541D01*
%TO.C,R11*%
X636967505Y-269923971D02*
X638667505Y-269923971D01*
X638667505Y-272923971D01*
X636967505Y-272923971D01*
X636967505Y-269923971D01*
%TO.C,R12*%
X638491505Y-269923971D02*
X640191505Y-269923971D01*
X640191505Y-272923971D01*
X638491505Y-272923971D01*
X638491505Y-269923971D01*
%TO.C,X2*%
X636511114Y-244294214D02*
X639511114Y-244294214D01*
X639511114Y-245994214D01*
X636511114Y-245994214D01*
X636511114Y-244294214D01*
%TO.C,C27*%
X640561845Y-261252171D02*
X643561845Y-261252171D01*
X643561845Y-262952171D01*
X640561845Y-262952171D01*
X640561845Y-261252171D01*
%TO.C,C30*%
X638289575Y-257609682D02*
X639989575Y-257609682D01*
X639989575Y-260609682D01*
X638289575Y-260609682D01*
X638289575Y-257609682D01*
%TO.C,C31*%
X649766805Y-259880571D02*
X652766805Y-259880571D01*
X652766805Y-261580571D01*
X649766805Y-261580571D01*
X649766805Y-259880571D01*
%TO.C,C32*%
X638619775Y-250177642D02*
X640319775Y-250177642D01*
X640319775Y-253177642D01*
X638619775Y-253177642D01*
X638619775Y-250177642D01*
%TO.C,C25*%
X637081400Y-266117541D02*
X640081400Y-266117541D01*
X640081400Y-267817541D01*
X637081400Y-267817541D01*
X637081400Y-266117541D01*
%TO.C,R9*%
X634025780Y-266117541D02*
X637025780Y-266117541D01*
X637025780Y-267817541D01*
X634025780Y-267817541D01*
X634025780Y-266117541D01*
%TO.C,USB1*%
X629779380Y-253358541D02*
X635379380Y-253358541D01*
X635379380Y-258478541D01*
X629779380Y-258478541D01*
X629779380Y-253358541D01*
%TO.C,R14*%
X636334400Y-251294341D02*
X638034400Y-251294341D01*
X638034400Y-254294341D01*
X636334400Y-254294341D01*
X636334400Y-251294341D01*
%TO.C,R15*%
X636334400Y-257593541D02*
X638034400Y-257593541D01*
X638034400Y-260593541D01*
X636334400Y-260593541D01*
X636334400Y-257593541D01*
%TO.C,R16*%
X629164317Y-248968705D02*
X632164317Y-248968705D01*
X632164317Y-250668705D01*
X629164317Y-250668705D01*
X629164317Y-248968705D01*
%TO.C,C26*%
X637056645Y-268110171D02*
X640056645Y-268110171D01*
X640056645Y-269810171D01*
X637056645Y-269810171D01*
X637056645Y-268110171D01*
%TO.C,U7*%
X643485776Y-213747800D02*
X646925676Y-213747800D01*
X646925676Y-217290200D01*
X643485776Y-217290200D01*
X643485776Y-213747800D01*
%TO.C,R51*%
X641440445Y-214201451D02*
X643140445Y-214201451D01*
X643140445Y-217201451D01*
X641440445Y-217201451D01*
X641440445Y-214201451D01*
%TO.C,R52*%
X643556505Y-211722171D02*
X646556505Y-211722171D01*
X646556505Y-213422171D01*
X643556505Y-213422171D01*
X643556505Y-211722171D01*
%TO.C,J1*%
X631160345Y-185873271D02*
X634680345Y-185873271D01*
X634680345Y-190673271D01*
X631160345Y-190673271D01*
X631160345Y-185873271D01*
%TO.C,J2*%
X631160345Y-275847671D02*
X634680345Y-275847671D01*
X634680345Y-280647671D01*
X631160345Y-280647671D01*
X631160345Y-275847671D01*
%TO.C,J3*%
X770004345Y-185873271D02*
X773524345Y-185873271D01*
X773524345Y-190673271D01*
X770004345Y-190673271D01*
X770004345Y-185873271D01*
%TO.C,J4*%
X770004345Y-275847671D02*
X773524345Y-275847671D01*
X773524345Y-280647671D01*
X770004345Y-280647671D01*
X770004345Y-275847671D01*
%TO.C,C33*%
X638685354Y-247443814D02*
X641685354Y-247443814D01*
X641685354Y-249143814D01*
X638685354Y-249143814D01*
X638685354Y-247443814D01*
%TO.C,C34*%
X634590874Y-247443814D02*
X637590874Y-247443814D01*
X637590874Y-249143814D01*
X634590874Y-249143814D01*
X634590874Y-247443814D01*
%TO.C,U8*%
X639549165Y-249382531D02*
X651219165Y-249382531D01*
X651219165Y-261532531D01*
X639549165Y-261532531D01*
X639549165Y-249382531D01*
%TO.C,R8*%
X647981185Y-248498831D02*
X650981185Y-248498831D01*
X650981185Y-250198831D01*
X647981185Y-250198831D01*
X647981185Y-248498831D01*
%TO.C,U18*%
X761036375Y-246213762D02*
X764486375Y-246213762D01*
X764486375Y-249663762D01*
X761036375Y-249663762D01*
X761036375Y-246213762D01*
%TO.C,R67*%
X759281445Y-252666971D02*
X762281445Y-252666971D01*
X762281445Y-254366971D01*
X759281445Y-254366971D01*
X759281445Y-252666971D01*
%TO.C,K2*%
X744224200Y-250930800D02*
X749194200Y-250930800D01*
X749194200Y-255900800D01*
X744224200Y-255900800D01*
X744224200Y-250930800D01*
%TO.C,D3*%
X739468720Y-249209786D02*
X741168720Y-249209786D01*
X741168720Y-252209786D01*
X739468720Y-252209786D01*
X739468720Y-249209786D01*
%TO.C,C100*%
X746121705Y-231838971D02*
X749121705Y-231838971D01*
X749121705Y-233538971D01*
X746121705Y-233538971D01*
X746121705Y-231838971D01*
%TO.C,R69*%
X752451385Y-232471431D02*
X755451385Y-232471431D01*
X755451385Y-234171431D01*
X752451385Y-234171431D01*
X752451385Y-232471431D01*
%TO.C,R70*%
X752396775Y-244630042D02*
X755396775Y-244630042D01*
X755396775Y-246330042D01*
X752396775Y-246330042D01*
X752396775Y-244630042D01*
%TO.C,R71*%
X755444775Y-244630042D02*
X758444775Y-244630042D01*
X758444775Y-246330042D01*
X755444775Y-246330042D01*
X755444775Y-244630042D01*
%TO.C,R72*%
X747911920Y-240156986D02*
X750911920Y-240156986D01*
X750911920Y-241856986D01*
X747911920Y-241856986D01*
X747911920Y-240156986D01*
%TO.C,U10*%
X760694745Y-273948391D02*
X764144745Y-273948391D01*
X764144745Y-277398391D01*
X760694745Y-277398391D01*
X760694745Y-273948391D01*
%TO.C,R73*%
X760398345Y-267799271D02*
X762098345Y-267799271D01*
X762098345Y-270799271D01*
X760398345Y-270799271D01*
X760398345Y-267799271D01*
%TO.C,C75*%
X762088145Y-267564071D02*
X765088145Y-267564071D01*
X765088145Y-269264071D01*
X762088145Y-269264071D01*
X762088145Y-267564071D01*
%TO.C,R74*%
X756540785Y-279669711D02*
X759540785Y-279669711D01*
X759540785Y-281369711D01*
X756540785Y-281369711D01*
X756540785Y-279669711D01*
%TO.C,K4*%
X753255815Y-264143082D02*
X758225815Y-264143082D01*
X758225815Y-269113082D01*
X753255815Y-269113082D01*
X753255815Y-264143082D01*
%TO.C,R75*%
X755488580Y-259652400D02*
X758488580Y-259652400D01*
X758488580Y-261352400D01*
X755488580Y-261352400D01*
X755488580Y-259652400D01*
%TO.C,D6*%
X760096545Y-257410661D02*
X761796545Y-257410661D01*
X761796545Y-260410661D01*
X760096545Y-260410661D01*
X760096545Y-257410661D01*
%TO.C,C77*%
X753972200Y-254420000D02*
X756972200Y-254420000D01*
X756972200Y-256120000D01*
X753972200Y-256120000D01*
X753972200Y-254420000D01*
%TO.C,R76*%
X752455820Y-259652400D02*
X755455820Y-259652400D01*
X755455820Y-261352400D01*
X752455820Y-261352400D01*
X752455820Y-259652400D01*
%TO.C,R77*%
X752531395Y-271935042D02*
X755531395Y-271935042D01*
X755531395Y-273635042D01*
X752531395Y-273635042D01*
X752531395Y-271935042D01*
%TO.C,R78*%
X755571775Y-271935042D02*
X758571775Y-271935042D01*
X758571775Y-273635042D01*
X755571775Y-273635042D01*
X755571775Y-271935042D01*
%TO.C,C81*%
X746474765Y-272578031D02*
X749474765Y-272578031D01*
X749474765Y-274278031D01*
X746474765Y-274278031D01*
X746474765Y-272578031D01*
%TO.C,U20*%
X735227082Y-241810327D02*
X738747082Y-241810327D01*
X738747082Y-246610327D01*
X735227082Y-246610327D01*
X735227082Y-241810327D01*
%TO.C,R84*%
X735913887Y-240419578D02*
X738913887Y-240419578D01*
X738913887Y-242119578D01*
X735913887Y-242119578D01*
X735913887Y-240419578D01*
%TO.C,R85*%
X735913887Y-238895578D02*
X738913887Y-238895578D01*
X738913887Y-240595578D01*
X735913887Y-240595578D01*
X735913887Y-238895578D01*
%TO.C,C82*%
X733263023Y-241168547D02*
X734963023Y-241168547D01*
X734963023Y-244168547D01*
X733263023Y-244168547D01*
X733263023Y-241168547D01*
%TO.C,C84*%
X733263985Y-245075151D02*
X734963985Y-245075151D01*
X734963985Y-248075151D01*
X733263985Y-248075151D01*
X733263985Y-245075151D01*
%TO.C,U12*%
X734998175Y-262917442D02*
X738518175Y-262917442D01*
X738518175Y-267717442D01*
X734998175Y-267717442D01*
X734998175Y-262917442D01*
%TO.C,R86*%
X734939355Y-261622642D02*
X737939355Y-261622642D01*
X737939355Y-263322642D01*
X734939355Y-263322642D01*
X734939355Y-261622642D01*
%TO.C,R87*%
X737889565Y-261635711D02*
X740889565Y-261635711D01*
X740889565Y-263335711D01*
X737889565Y-263335711D01*
X737889565Y-261635711D01*
%TO.C,C87*%
X733158575Y-262750642D02*
X734858575Y-262750642D01*
X734858575Y-265750642D01*
X733158575Y-265750642D01*
X733158575Y-262750642D01*
%TO.C,C102*%
X735263634Y-267358760D02*
X738263634Y-267358760D01*
X738263634Y-269058760D01*
X735263634Y-269058760D01*
X735263634Y-267358760D01*
%TO.C,D7*%
X760210297Y-228659105D02*
X761910297Y-228659105D01*
X761910297Y-231659105D01*
X760210297Y-231659105D01*
X760210297Y-228659105D01*
%TO.C,R66*%
X760304180Y-240300380D02*
X762004180Y-240300380D01*
X762004180Y-243300380D01*
X760304180Y-243300380D01*
X760304180Y-240300380D01*
%TO.C,C69*%
X761983545Y-239848871D02*
X764983545Y-239848871D01*
X764983545Y-241548871D01*
X761983545Y-241548871D01*
X761983545Y-239848871D01*
%TO.C,R68*%
X755484145Y-232471431D02*
X758484145Y-232471431D01*
X758484145Y-234171431D01*
X755484145Y-234171431D01*
X755484145Y-232471431D01*
%TO.C,R80*%
X761785097Y-236322285D02*
X763485097Y-236322285D01*
X763485097Y-239322285D01*
X761785097Y-239322285D01*
X761785097Y-236322285D01*
%TO.C,U21*%
X696777299Y-190712379D02*
X700513699Y-190712379D01*
X700513699Y-194802379D01*
X696777299Y-194802379D01*
X696777299Y-190712379D01*
%TO.C,U22*%
X702563899Y-190932379D02*
X706106299Y-190932379D01*
X706106299Y-194372279D01*
X702563899Y-194372279D01*
X702563899Y-190932379D01*
%TO.C,C83*%
X700649181Y-191237885D02*
X702349181Y-191237885D01*
X702349181Y-194237885D01*
X700649181Y-194237885D01*
X700649181Y-191237885D01*
%TO.C,C38*%
X697226235Y-194880091D02*
X700226235Y-194880091D01*
X700226235Y-196580091D01*
X697226235Y-196580091D01*
X697226235Y-194880091D01*
%TO.C,C47*%
X695047385Y-188450691D02*
X698047385Y-188450691D01*
X698047385Y-190150691D01*
X695047385Y-190150691D01*
X695047385Y-188450691D01*
%TO.C,R88*%
X704199079Y-194904579D02*
X707199079Y-194904579D01*
X707199079Y-196604579D01*
X704199079Y-196604579D01*
X704199079Y-194904579D01*
%TO.C,R89*%
X701209499Y-194904579D02*
X704209499Y-194904579D01*
X704209499Y-196604579D01*
X701209499Y-196604579D01*
X701209499Y-194904579D01*
%TO.C,C85*%
X706634699Y-191409779D02*
X708334699Y-191409779D01*
X708334699Y-194409779D01*
X706634699Y-194409779D01*
X706634699Y-191409779D01*
%TO.C,C74*%
X753972200Y-249873400D02*
X756972200Y-249873400D01*
X756972200Y-251573400D01*
X753972200Y-251573400D01*
X753972200Y-249873400D01*
%TO.C,K5*%
X753147220Y-236910000D02*
X758117220Y-236910000D01*
X758117220Y-241880000D01*
X753147220Y-241880000D01*
X753147220Y-236910000D01*
%TO.C,C55*%
X736471785Y-246249671D02*
X739471785Y-246249671D01*
X739471785Y-247949671D01*
X736471785Y-247949671D01*
X736471785Y-246249671D01*
%TO.C,C113*%
X742323945Y-240864871D02*
X745323945Y-240864871D01*
X745323945Y-242564871D01*
X742323945Y-242564871D01*
X742323945Y-240864871D01*
%TO.C,C114*%
X744051145Y-258086071D02*
X747051145Y-258086071D01*
X747051145Y-259786071D01*
X744051145Y-259786071D01*
X744051145Y-258086071D01*
%TO.C,C117*%
X742821545Y-265310071D02*
X744521545Y-265310071D01*
X744521545Y-268310071D01*
X742821545Y-268310071D01*
X742821545Y-265310071D01*
%TO.C,C40*%
X718625965Y-253924511D02*
X720325965Y-253924511D01*
X720325965Y-256924511D01*
X718625965Y-256924511D01*
X718625965Y-253924511D01*
%TO.C,U31*%
X700531899Y-187230879D02*
X704074299Y-187230879D01*
X704074299Y-190670779D01*
X700531899Y-190670779D01*
X700531899Y-187230879D01*
%TO.C,U4*%
X690353659Y-189985419D02*
X693793559Y-189985419D01*
X693793559Y-193527819D01*
X690353659Y-193527819D01*
X690353659Y-189985419D01*
%TO.C,C104*%
X704253685Y-187348317D02*
X705953685Y-187348317D01*
X705953685Y-190348317D01*
X704253685Y-190348317D01*
X704253685Y-187348317D01*
%TO.C,R45*%
X701623519Y-185506579D02*
X704623519Y-185506579D01*
X704623519Y-187206579D01*
X701623519Y-187206579D01*
X701623519Y-185506579D01*
%TO.C,R46*%
X705881581Y-187387245D02*
X707581581Y-187387245D01*
X707581581Y-190387245D01*
X705881581Y-190387245D01*
X705881581Y-187387245D01*
%TO.C,C105*%
X707507181Y-187387245D02*
X709207181Y-187387245D01*
X709207181Y-190387245D01*
X707507181Y-190387245D01*
X707507181Y-187387245D01*
%TO.C,C118*%
X698210781Y-187082445D02*
X699910781Y-187082445D01*
X699910781Y-190082445D01*
X698210781Y-190082445D01*
X698210781Y-187082445D01*
%TO.C,C120*%
X693868825Y-192067651D02*
X696868825Y-192067651D01*
X696868825Y-193767651D01*
X693868825Y-193767651D01*
X693868825Y-192067651D01*
%TO.C,C123*%
X690703985Y-187795371D02*
X693703985Y-187795371D01*
X693703985Y-189495371D01*
X690703985Y-189495371D01*
X690703985Y-187795371D01*
%TO.C,U37*%
X706052365Y-227483511D02*
X710852365Y-227483511D01*
X710852365Y-231803511D01*
X706052365Y-231803511D01*
X706052365Y-227483511D01*
%TO.C,U38*%
X711410165Y-186907711D02*
X715146565Y-186907711D01*
X715146565Y-190997711D01*
X711410165Y-190997711D01*
X711410165Y-186907711D01*
%TO.C,C52*%
X705788345Y-231528071D02*
X707488345Y-231528071D01*
X707488345Y-234528071D01*
X705788345Y-234528071D01*
X705788345Y-231528071D01*
%TO.C,U40*%
X718471365Y-229015831D02*
X722207765Y-229015831D01*
X722207765Y-233105831D01*
X718471365Y-233105831D01*
X718471365Y-229015831D01*
%TO.C,U3*%
X726248845Y-228975191D02*
X729985245Y-228975191D01*
X729985245Y-233065191D01*
X726248845Y-233065191D01*
X726248845Y-228975191D01*
%TO.C,R49*%
X712697919Y-191145379D02*
X715697919Y-191145379D01*
X715697919Y-192845379D01*
X712697919Y-192845379D01*
X712697919Y-191145379D01*
%TO.C,R50*%
X715626299Y-189784179D02*
X717326299Y-189784179D01*
X717326299Y-192784179D01*
X715626299Y-192784179D01*
X715626299Y-189784179D01*
%TO.C,C124*%
X709530299Y-187396579D02*
X711230299Y-187396579D01*
X711230299Y-190396579D01*
X709530299Y-190396579D01*
X709530299Y-187396579D01*
%TO.C,C129*%
X716568565Y-229499871D02*
X718268565Y-229499871D01*
X718268565Y-232499871D01*
X716568565Y-232499871D01*
X716568565Y-229499871D01*
%TO.C,C131*%
X722410565Y-229560831D02*
X724110565Y-229560831D01*
X724110565Y-232560831D01*
X722410565Y-232560831D01*
X722410565Y-229560831D01*
%TO.C,C133*%
X724340965Y-229586231D02*
X726040965Y-229586231D01*
X726040965Y-232586231D01*
X724340965Y-232586231D01*
X724340965Y-229586231D01*
%TO.C,C135*%
X730182965Y-229525271D02*
X731882965Y-229525271D01*
X731882965Y-232525271D01*
X730182965Y-232525271D01*
X730182965Y-229525271D01*
%TO.C,R110*%
X718003905Y-227622571D02*
X721003905Y-227622571D01*
X721003905Y-229322571D01*
X718003905Y-229322571D01*
X718003905Y-227622571D01*
%TO.C,C136*%
X721051905Y-227622571D02*
X724051905Y-227622571D01*
X724051905Y-229322571D01*
X721051905Y-229322571D01*
X721051905Y-227622571D01*
%TO.C,R111*%
X725717885Y-227520971D02*
X728717885Y-227520971D01*
X728717885Y-229220971D01*
X725717885Y-229220971D01*
X725717885Y-227520971D01*
%TO.C,C137*%
X728773505Y-227520971D02*
X731773505Y-227520971D01*
X731773505Y-229220971D01*
X728773505Y-229220971D01*
X728773505Y-227520971D01*
%TO.C,C139*%
X724292705Y-235329171D02*
X725992705Y-235329171D01*
X725992705Y-238329171D01*
X724292705Y-238329171D01*
X724292705Y-235329171D01*
%TO.C,C141*%
X730134705Y-235329171D02*
X731834705Y-235329171D01*
X731834705Y-238329171D01*
X730134705Y-238329171D01*
X730134705Y-235329171D01*
%TO.C,C53*%
X729623945Y-260930871D02*
X732623945Y-260930871D01*
X732623945Y-262630871D01*
X729623945Y-262630871D01*
X729623945Y-260930871D01*
%TO.C,C128*%
X729613785Y-262708871D02*
X732613785Y-262708871D01*
X732613785Y-264408871D01*
X729613785Y-264408871D01*
X729613785Y-262708871D01*
%TO.C,C130*%
X736689897Y-258631105D02*
X738389897Y-258631105D01*
X738389897Y-261631105D01*
X736689897Y-261631105D01*
X736689897Y-258631105D01*
%TO.C,C132*%
X738417097Y-258631105D02*
X740117097Y-258631105D01*
X740117097Y-261631105D01*
X738417097Y-261631105D01*
X738417097Y-258631105D01*
%TO.C,C134*%
X733220345Y-275622471D02*
X734920345Y-275622471D01*
X734920345Y-278622471D01*
X733220345Y-278622471D01*
X733220345Y-275622471D01*
%TO.C,C138*%
X731442345Y-275622471D02*
X733142345Y-275622471D01*
X733142345Y-278622471D01*
X731442345Y-278622471D01*
X731442345Y-275622471D01*
%TO.C,C140*%
X738620297Y-272042305D02*
X740320297Y-272042305D01*
X740320297Y-275042305D01*
X738620297Y-275042305D01*
X738620297Y-272042305D01*
%TO.C,C142*%
X736842297Y-272042305D02*
X738542297Y-272042305D01*
X738542297Y-275042305D01*
X736842297Y-275042305D01*
X736842297Y-272042305D01*
%TO.C,R17*%
X734747345Y-251771861D02*
X736447345Y-251771861D01*
X736447345Y-254771861D01*
X734747345Y-254771861D01*
X734747345Y-251771861D01*
%TO.C,U11*%
X726203125Y-234832431D02*
X729939525Y-234832431D01*
X729939525Y-238922431D01*
X726203125Y-238922431D01*
X726203125Y-234832431D01*
%TO.C,R90*%
X725725505Y-233312171D02*
X728725505Y-233312171D01*
X728725505Y-235012171D01*
X725725505Y-235012171D01*
X725725505Y-233312171D01*
%TO.C,C126*%
X728839545Y-233312171D02*
X731839545Y-233312171D01*
X731839545Y-235012171D01*
X728839545Y-235012171D01*
X728839545Y-233312171D01*
%TO.C,R108*%
X648486000Y-272666016D02*
X651486000Y-272666016D01*
X651486000Y-274366016D01*
X648486000Y-274366016D01*
X648486000Y-272666016D01*
%TO.C,R109*%
X648478380Y-271091216D02*
X651478380Y-271091216D01*
X651478380Y-272791216D01*
X648478380Y-272791216D01*
X648478380Y-271091216D01*
%TO.C,R116*%
X648478380Y-269516416D02*
X651478380Y-269516416D01*
X651478380Y-271216416D01*
X648478380Y-271216416D01*
X648478380Y-269516416D01*
%TO.C,R117*%
X638682245Y-276390571D02*
X641682245Y-276390571D01*
X641682245Y-278090571D01*
X638682245Y-278090571D01*
X638682245Y-276390571D01*
%TO.C,R118*%
X644676645Y-276339771D02*
X647676645Y-276339771D01*
X647676645Y-278039771D01*
X644676645Y-278039771D01*
X644676645Y-276339771D01*
%TO.C,R119*%
X650678665Y-276390571D02*
X653678665Y-276390571D01*
X653678665Y-278090571D01*
X650678665Y-278090571D01*
X650678665Y-276390571D01*
%TO.C,J5*%
X647487945Y-228880871D02*
X673287945Y-228880871D01*
X673287945Y-254200871D01*
X647487945Y-254200871D01*
X647487945Y-228880871D01*
%TO.C,J6*%
X686977325Y-228901191D02*
X712777325Y-228901191D01*
X712777325Y-254221191D01*
X686977325Y-254221191D01*
X686977325Y-228901191D01*
%TO.C,C28*%
X656003489Y-256458795D02*
X653882169Y-258580115D01*
X652680087Y-257378033D01*
X654801407Y-255256713D01*
X656003489Y-256458795D01*
%TO.C,C18*%
X722163145Y-215922071D02*
X725163145Y-215922071D01*
X725163145Y-217622071D01*
X722163145Y-217622071D01*
X722163145Y-215922071D01*
%TO.C,C20*%
X716869545Y-211929431D02*
X718569545Y-211929431D01*
X718569545Y-214929431D01*
X716869545Y-214929431D01*
X716869545Y-211929431D01*
%TO.C,C14*%
X737149145Y-224151671D02*
X740149145Y-224151671D01*
X740149145Y-225851671D01*
X737149145Y-225851671D01*
X737149145Y-224151671D01*
%TO.C,C16*%
X733328745Y-213697271D02*
X735028745Y-213697271D01*
X735028745Y-216697271D01*
X733328745Y-216697271D01*
X733328745Y-213697271D01*
%TO.C,U13*%
X682962185Y-190023771D02*
X686402085Y-190023771D01*
X686402085Y-193566171D01*
X682962185Y-193566171D01*
X682962185Y-190023771D01*
%TO.C,C22*%
X683359857Y-186141346D02*
X686359857Y-186141346D01*
X686359857Y-187841346D01*
X683359857Y-187841346D01*
X683359857Y-186141346D01*
%TO.C,C24*%
X683359857Y-187868546D02*
X686359857Y-187868546D01*
X686359857Y-189568546D01*
X683359857Y-189568546D01*
X683359857Y-187868546D01*
%TO.C,RJ1*%
X637486385Y-199902971D02*
X643086385Y-199902971D01*
X643086385Y-205022971D01*
X637486385Y-205022971D01*
X637486385Y-199902971D01*
%TO.C,U45*%
X657475485Y-192726771D02*
X670925485Y-192726771D01*
X670925485Y-205696771D01*
X657475485Y-205696771D01*
X657475485Y-192726771D01*
%TO.C,C68*%
X645034785Y-190640171D02*
X648034785Y-190640171D01*
X648034785Y-192340171D01*
X645034785Y-192340171D01*
X645034785Y-190640171D01*
%TO.C,C88*%
X645034785Y-192367371D02*
X648034785Y-192367371D01*
X648034785Y-194067371D01*
X645034785Y-194067371D01*
X645034785Y-192367371D01*
%TO.C,C89*%
X631159009Y-192148562D02*
X634159009Y-192148562D01*
X634159009Y-193848562D01*
X631159009Y-193848562D01*
X631159009Y-192148562D01*
%TO.C,R58*%
X634265185Y-192164171D02*
X637265185Y-192164171D01*
X637265185Y-193864171D01*
X634265185Y-193864171D01*
X634265185Y-192164171D01*
%TO.C,L1*%
X638572380Y-186153616D02*
X641572380Y-186153616D01*
X641572380Y-187853616D01*
X638572380Y-187853616D01*
X638572380Y-186153616D01*
%TO.C,C91*%
X639323980Y-188450016D02*
X641023980Y-188450016D01*
X641023980Y-191450016D01*
X639323980Y-191450016D01*
X639323980Y-188450016D01*
%TO.C,C92*%
X637596780Y-188450016D02*
X639296780Y-188450016D01*
X639296780Y-191450016D01*
X637596780Y-191450016D01*
X637596780Y-188450016D01*
%TO.C,R59*%
X641053960Y-188439616D02*
X644053960Y-188439616D01*
X644053960Y-190139616D01*
X641053960Y-190139616D01*
X641053960Y-188439616D01*
%TO.C,C93*%
X652535405Y-202070171D02*
X655535405Y-202070171D01*
X655535405Y-203770171D01*
X652535405Y-203770171D01*
X652535405Y-202070171D01*
%TO.C,C95*%
X671077405Y-194399371D02*
X674077405Y-194399371D01*
X674077405Y-196099371D01*
X671077405Y-196099371D01*
X671077405Y-194399371D01*
%TO.C,C96*%
X671077405Y-202578171D02*
X674077405Y-202578171D01*
X674077405Y-204278171D01*
X671077405Y-204278171D01*
X671077405Y-202578171D01*
%TO.C,C97*%
X652545565Y-199174571D02*
X655545565Y-199174571D01*
X655545565Y-200874571D01*
X652545565Y-200874571D01*
X652545565Y-199174571D01*
%TO.C,C98*%
X657102085Y-205839771D02*
X658802085Y-205839771D01*
X658802085Y-208839771D01*
X657102085Y-208839771D01*
X657102085Y-205839771D01*
%TO.C,C103*%
X671219645Y-199784171D02*
X674219645Y-199784171D01*
X674219645Y-201484171D01*
X671219645Y-201484171D01*
X671219645Y-199784171D01*
%TO.C,C106*%
X652631925Y-193484971D02*
X655631925Y-193484971D01*
X655631925Y-195184971D01*
X652631925Y-195184971D01*
X652631925Y-193484971D01*
%TO.C,C107*%
X658372085Y-189075771D02*
X660072085Y-189075771D01*
X660072085Y-192075771D01*
X658372085Y-192075771D01*
X658372085Y-189075771D01*
%TO.C,C108*%
X671077405Y-192621371D02*
X674077405Y-192621371D01*
X674077405Y-194321371D01*
X671077405Y-194321371D01*
X671077405Y-192621371D01*
%TO.C,R60*%
X666393405Y-189075771D02*
X668093405Y-189075771D01*
X668093405Y-192075771D01*
X666393405Y-192075771D01*
X666393405Y-189075771D01*
%TO.C,R61*%
X663294605Y-189075771D02*
X664994605Y-189075771D01*
X664994605Y-192075771D01*
X663294605Y-192075771D01*
X663294605Y-189075771D01*
%TO.C,R62*%
X672489405Y-189083391D02*
X674189405Y-189083391D01*
X674189405Y-192083391D01*
X672489405Y-192083391D01*
X672489405Y-189083391D01*
%TO.C,R63*%
X670965405Y-189075771D02*
X672665405Y-189075771D01*
X672665405Y-192075771D01*
X670965405Y-192075771D01*
X670965405Y-189075771D01*
%TO.C,R64*%
X655438385Y-205888031D02*
X657138385Y-205888031D01*
X657138385Y-208888031D01*
X655438385Y-208888031D01*
X655438385Y-205888031D01*
%TO.C,R121*%
X666393405Y-205839771D02*
X668093405Y-205839771D01*
X668093405Y-208839771D01*
X666393405Y-208839771D01*
X666393405Y-205839771D01*
%TO.C,R122*%
X667917405Y-205839771D02*
X669617405Y-205839771D01*
X669617405Y-208839771D01*
X667917405Y-208839771D01*
X667917405Y-205839771D01*
%TO.C,R127*%
X672489405Y-205839771D02*
X674189405Y-205839771D01*
X674189405Y-208839771D01*
X672489405Y-208839771D01*
X672489405Y-205839771D01*
%TO.C,R128*%
X670965405Y-205839771D02*
X672665405Y-205839771D01*
X672665405Y-208839771D01*
X670965405Y-208839771D01*
X670965405Y-205839771D01*
%TO.C,R129*%
X669441405Y-205839771D02*
X671141405Y-205839771D01*
X671141405Y-208839771D01*
X669441405Y-208839771D01*
X669441405Y-205839771D01*
%TO.C,R130*%
X671077405Y-204203771D02*
X674077405Y-204203771D01*
X674077405Y-205903771D01*
X671077405Y-205903771D01*
X671077405Y-204203771D01*
%TO.C,R131*%
X671069785Y-196075771D02*
X674069785Y-196075771D01*
X674069785Y-197775771D01*
X671069785Y-197775771D01*
X671069785Y-196075771D01*
%TO.C,R132*%
X669459185Y-189075771D02*
X671159185Y-189075771D01*
X671159185Y-192075771D01*
X669459185Y-192075771D01*
X669459185Y-189075771D01*
%TO.C,R133*%
X667935185Y-189075771D02*
X669635185Y-189075771D01*
X669635185Y-192075771D01*
X667935185Y-192075771D01*
X667935185Y-189075771D01*
%TO.C,R134*%
X664836385Y-189075771D02*
X666536385Y-189075771D01*
X666536385Y-192075771D01*
X664836385Y-192075771D01*
X664836385Y-189075771D01*
%TO.C,R135*%
X661737585Y-189068151D02*
X663437585Y-189068151D01*
X663437585Y-192068151D01*
X661737585Y-192068151D01*
X661737585Y-189068151D01*
%TO.C,X1*%
X652393048Y-187724647D02*
X655393048Y-187724647D01*
X655393048Y-189424647D01*
X652393048Y-189424647D01*
X652393048Y-187724647D01*
%TO.C,C110*%
X654526648Y-190975847D02*
X657526648Y-190975847D01*
X657526648Y-192675847D01*
X654526648Y-192675847D01*
X654526648Y-190975847D01*
%TO.C,C112*%
X650244208Y-190975847D02*
X653244208Y-190975847D01*
X653244208Y-192675847D01*
X650244208Y-192675847D01*
X650244208Y-190975847D01*
%TO.C,C94*%
X652637005Y-196837771D02*
X655637005Y-196837771D01*
X655637005Y-198537771D01*
X652637005Y-198537771D01*
X652637005Y-196837771D01*
%TO.C,C121*%
X660094205Y-189075771D02*
X661794205Y-189075771D01*
X661794205Y-192075771D01*
X660094205Y-192075771D01*
X660094205Y-189075771D01*
%TO.C,FPC2*%
X674920965Y-243903511D02*
X685290965Y-243903511D01*
X685290965Y-254753511D01*
X674920965Y-254753511D01*
X674920965Y-243903511D01*
%TO.C,C70*%
X756167405Y-230642631D02*
X759167405Y-230642631D01*
X759167405Y-232342631D01*
X756167405Y-232342631D01*
X756167405Y-230642631D01*
%TO.C,C71*%
X751783365Y-230642631D02*
X754783365Y-230642631D01*
X754783365Y-232342631D01*
X751783365Y-232342631D01*
X751783365Y-230642631D01*
%TO.C,C72*%
X751761775Y-246484242D02*
X754761775Y-246484242D01*
X754761775Y-248184242D01*
X751761775Y-248184242D01*
X751761775Y-246484242D01*
%TO.C,C73*%
X756079775Y-246484242D02*
X759079775Y-246484242D01*
X759079775Y-248184242D01*
X756079775Y-248184242D01*
X756079775Y-246484242D01*
%TO.C,C76*%
X756120415Y-257812642D02*
X759120415Y-257812642D01*
X759120415Y-259512642D01*
X756120415Y-259512642D01*
X756120415Y-257812642D01*
%TO.C,C78*%
X751837975Y-257812642D02*
X754837975Y-257812642D01*
X754837975Y-259512642D01*
X751837975Y-259512642D01*
X751837975Y-257812642D01*
%TO.C,C79*%
X751898935Y-273840042D02*
X754898935Y-273840042D01*
X754898935Y-275540042D01*
X751898935Y-275540042D01*
X751898935Y-273840042D01*
%TO.C,C80*%
X756196615Y-273840042D02*
X759196615Y-273840042D01*
X759196615Y-275540042D01*
X756196615Y-275540042D01*
X756196615Y-273840042D01*
%TO.C,R79*%
X748071940Y-267385786D02*
X751071940Y-267385786D01*
X751071940Y-269085786D01*
X748071940Y-269085786D01*
X748071940Y-267385786D01*
%TO.C,U47*%
X722315385Y-248039431D02*
X726405385Y-248039431D01*
X726405385Y-251775831D01*
X722315385Y-251775831D01*
X722315385Y-248039431D01*
%TO.C,C109*%
X722880578Y-246289158D02*
X725880578Y-246289158D01*
X725880578Y-247989158D01*
X722880578Y-247989158D01*
X722880578Y-246289158D01*
%TO.C,C111*%
X722860385Y-275656511D02*
X725860385Y-275656511D01*
X725860385Y-277356511D01*
X722860385Y-277356511D01*
X722860385Y-275656511D01*
%TO.C,U14*%
X706059985Y-237110111D02*
X710859985Y-237110111D01*
X710859985Y-241430111D01*
X706059985Y-241430111D01*
X706059985Y-237110111D01*
%TO.C,C122*%
X706937125Y-240980431D02*
X709937125Y-240980431D01*
X709937125Y-242680431D01*
X706937125Y-242680431D01*
X706937125Y-240980431D01*
%TO.C,U15*%
X718453585Y-240651571D02*
X722189985Y-240651571D01*
X722189985Y-244741571D01*
X718453585Y-244741571D01*
X718453585Y-240651571D01*
%TO.C,R143*%
X718016605Y-239103371D02*
X721016605Y-239103371D01*
X721016605Y-240803371D01*
X718016605Y-240803371D01*
X718016605Y-239103371D01*
%TO.C,C151*%
X721067145Y-239103371D02*
X724067145Y-239103371D01*
X724067145Y-240803371D01*
X721067145Y-240803371D01*
X721067145Y-239103371D01*
%TO.C,U23*%
X726205665Y-240651571D02*
X729942065Y-240651571D01*
X729942065Y-244741571D01*
X726205665Y-244741571D01*
X726205665Y-240651571D01*
%TO.C,R144*%
X725738205Y-239255771D02*
X728738205Y-239255771D01*
X728738205Y-240955771D01*
X725738205Y-240955771D01*
X725738205Y-239255771D01*
%TO.C,C152*%
X728788745Y-239204971D02*
X731788745Y-239204971D01*
X731788745Y-240904971D01*
X728788745Y-240904971D01*
X728788745Y-239204971D01*
%TO.C,U24*%
X718453585Y-234809571D02*
X722189985Y-234809571D01*
X722189985Y-238899571D01*
X718453585Y-238899571D01*
X718453585Y-234809571D01*
%TO.C,R145*%
X718001365Y-233340111D02*
X721001365Y-233340111D01*
X721001365Y-235040111D01*
X718001365Y-235040111D01*
X718001365Y-233340111D01*
%TO.C,C153*%
X721056985Y-233362971D02*
X724056985Y-233362971D01*
X724056985Y-235062971D01*
X721056985Y-235062971D01*
X721056985Y-233362971D01*
%TO.C,C155*%
X716466965Y-235331711D02*
X718166965Y-235331711D01*
X718166965Y-238331711D01*
X716466965Y-238331711D01*
X716466965Y-235331711D01*
%TO.C,C156*%
X722339445Y-235303771D02*
X724039445Y-235303771D01*
X724039445Y-238303771D01*
X722339445Y-238303771D01*
X722339445Y-235303771D01*
%TO.C,C157*%
X716568565Y-241224511D02*
X718268565Y-241224511D01*
X718268565Y-244224511D01*
X716568565Y-244224511D01*
X716568565Y-241224511D01*
%TO.C,C158*%
X722367385Y-241196571D02*
X724067385Y-241196571D01*
X724067385Y-244196571D01*
X722367385Y-244196571D01*
X722367385Y-241196571D01*
%TO.C,C159*%
X724297785Y-241196571D02*
X725997785Y-241196571D01*
X725997785Y-244196571D01*
X724297785Y-244196571D01*
X724297785Y-241196571D01*
%TO.C,C160*%
X730139785Y-241196571D02*
X731839785Y-241196571D01*
X731839785Y-244196571D01*
X730139785Y-244196571D01*
X730139785Y-241196571D01*
%TO.C,D2*%
X744620545Y-237856271D02*
X747802545Y-237856271D01*
X747802545Y-240806271D01*
X744620545Y-240806271D01*
X744620545Y-237856271D01*
%TO.C,C143*%
X746242345Y-236038871D02*
X749242345Y-236038871D01*
X749242345Y-237738871D01*
X746242345Y-237738871D01*
X746242345Y-236038871D01*
%TO.C,C144*%
X743153705Y-236038871D02*
X746153705Y-236038871D01*
X746153705Y-237738871D01*
X743153705Y-237738871D01*
X743153705Y-236038871D01*
%TO.C,U16*%
X760740465Y-221921571D02*
X764190465Y-221921571D01*
X764190465Y-225371571D01*
X760740465Y-225371571D01*
X760740465Y-221921571D01*
%TO.C,R146*%
X756174785Y-219708171D02*
X757874785Y-219708171D01*
X757874785Y-222708171D01*
X756174785Y-222708171D01*
X756174785Y-219708171D01*
%TO.C,U50*%
X717544605Y-189422271D02*
X720726605Y-189422271D01*
X720726605Y-192372271D01*
X717544605Y-192372271D01*
X717544605Y-189422271D01*
%TO.C,R147*%
X717678785Y-187693771D02*
X720678785Y-187693771D01*
X720678785Y-189393771D01*
X717678785Y-189393771D01*
X717678785Y-187693771D01*
%TO.C,R148*%
X717678785Y-186146911D02*
X720678785Y-186146911D01*
X720678785Y-187846911D01*
X717678785Y-187846911D01*
X717678785Y-186146911D01*
%TO.C,C150*%
X717355965Y-193066111D02*
X719055965Y-193066111D01*
X719055965Y-196066111D01*
X717355965Y-196066111D01*
X717355965Y-193066111D01*
%TO.C,R149*%
X719083165Y-193116911D02*
X720783165Y-193116911D01*
X720783165Y-196116911D01*
X719083165Y-196116911D01*
X719083165Y-193116911D01*
%TO.C,U25*%
X721611385Y-189492771D02*
X724561385Y-189492771D01*
X724561385Y-192674771D01*
X721611385Y-192674771D01*
X721611385Y-189492771D01*
%TO.C,R150*%
X721531965Y-185994511D02*
X724531965Y-185994511D01*
X724531965Y-187694511D01*
X721531965Y-187694511D01*
X721531965Y-185994511D01*
%TO.C,R151*%
X721531965Y-187569311D02*
X724531965Y-187569311D01*
X724531965Y-189269311D01*
X721531965Y-189269311D01*
X721531965Y-187569311D01*
%TO.C,R152*%
X720657965Y-193116911D02*
X722357965Y-193116911D01*
X722357965Y-196116911D01*
X720657965Y-196116911D01*
X720657965Y-193116911D01*
%TO.C,C154*%
X722385165Y-193116911D02*
X724085165Y-193116911D01*
X724085165Y-196116911D01*
X722385165Y-196116911D01*
X722385165Y-193116911D01*
%TO.C,C1*%
X731257625Y-200241371D02*
X734257625Y-200241371D01*
X734257625Y-201941371D01*
X731257625Y-201941371D01*
X731257625Y-200241371D01*
%TO.C,R1*%
X734247205Y-198564971D02*
X737247205Y-198564971D01*
X737247205Y-200264971D01*
X734247205Y-200264971D01*
X734247205Y-198564971D01*
%TO.C,R2*%
X731250005Y-198564971D02*
X734250005Y-198564971D01*
X734250005Y-200264971D01*
X731250005Y-200264971D01*
X731250005Y-198564971D01*
%TO.C,D4*%
X727611245Y-197823971D02*
X730561245Y-197823971D01*
X730561245Y-201005971D01*
X727611245Y-201005971D01*
X727611245Y-197823971D01*
%TO.C,C2*%
X747716825Y-200393771D02*
X750716825Y-200393771D01*
X750716825Y-202093771D01*
X747716825Y-202093771D01*
X747716825Y-200393771D01*
%TO.C,R3*%
X750706405Y-198717371D02*
X753706405Y-198717371D01*
X753706405Y-200417371D01*
X750706405Y-200417371D01*
X750706405Y-198717371D01*
%TO.C,R4*%
X747724445Y-198717371D02*
X750724445Y-198717371D01*
X750724445Y-200417371D01*
X747724445Y-200417371D01*
X747724445Y-198717371D01*
%TO.C,D5*%
X744085685Y-197976371D02*
X747035685Y-197976371D01*
X747035685Y-201158371D01*
X744085685Y-201158371D01*
X744085685Y-197976371D01*
%TO.C,C3*%
X731257625Y-204102171D02*
X734257625Y-204102171D01*
X734257625Y-205802171D01*
X731257625Y-205802171D01*
X731257625Y-204102171D01*
%TO.C,R5*%
X734247205Y-202425771D02*
X737247205Y-202425771D01*
X737247205Y-204125771D01*
X734247205Y-204125771D01*
X734247205Y-202425771D01*
%TO.C,R39*%
X731257625Y-202425771D02*
X734257625Y-202425771D01*
X734257625Y-204125771D01*
X731257625Y-204125771D01*
X731257625Y-202425771D01*
%TO.C,D10*%
X727611245Y-201684771D02*
X730561245Y-201684771D01*
X730561245Y-204866771D01*
X727611245Y-204866771D01*
X727611245Y-201684771D01*
%TO.C,C4*%
X747716825Y-204203771D02*
X750716825Y-204203771D01*
X750716825Y-205903771D01*
X747716825Y-205903771D01*
X747716825Y-204203771D01*
%TO.C,R53*%
X750706405Y-202578171D02*
X753706405Y-202578171D01*
X753706405Y-204278171D01*
X750706405Y-204278171D01*
X750706405Y-202578171D01*
%TO.C,R81*%
X747716825Y-202578171D02*
X750716825Y-202578171D01*
X750716825Y-204278171D01*
X747716825Y-204278171D01*
X747716825Y-202578171D01*
%TO.C,D11*%
X744085685Y-201837171D02*
X747035685Y-201837171D01*
X747035685Y-205019171D01*
X744085685Y-205019171D01*
X744085685Y-201837171D01*
%TO.C,C10*%
X731257625Y-207912171D02*
X734257625Y-207912171D01*
X734257625Y-209612171D01*
X731257625Y-209612171D01*
X731257625Y-207912171D01*
%TO.C,R83*%
X734254825Y-206286571D02*
X737254825Y-206286571D01*
X737254825Y-207986571D01*
X734254825Y-207986571D01*
X734254825Y-206286571D01*
%TO.C,R91*%
X731257625Y-206286571D02*
X734257625Y-206286571D01*
X734257625Y-207986571D01*
X731257625Y-207986571D01*
X731257625Y-206286571D01*
%TO.C,D12*%
X727611245Y-205545571D02*
X730561245Y-205545571D01*
X730561245Y-208727571D01*
X727611245Y-208727571D01*
X727611245Y-205545571D01*
%TO.C,C11*%
X747716825Y-208013771D02*
X750716825Y-208013771D01*
X750716825Y-209713771D01*
X747716825Y-209713771D01*
X747716825Y-208013771D01*
%TO.C,R92*%
X750706405Y-206388171D02*
X753706405Y-206388171D01*
X753706405Y-208088171D01*
X750706405Y-208088171D01*
X750706405Y-206388171D01*
%TO.C,R93*%
X747716825Y-206388171D02*
X750716825Y-206388171D01*
X750716825Y-208088171D01*
X747716825Y-208088171D01*
X747716825Y-206388171D01*
%TO.C,D13*%
X744085685Y-205647171D02*
X747035685Y-205647171D01*
X747035685Y-208829171D01*
X744085685Y-208829171D01*
X744085685Y-205647171D01*
%TO.C,C12*%
X731257625Y-211772971D02*
X734257625Y-211772971D01*
X734257625Y-213472971D01*
X731257625Y-213472971D01*
X731257625Y-211772971D01*
%TO.C,R94*%
X734254825Y-210096571D02*
X737254825Y-210096571D01*
X737254825Y-211796571D01*
X734254825Y-211796571D01*
X734254825Y-210096571D01*
%TO.C,R95*%
X731257625Y-210096571D02*
X734257625Y-210096571D01*
X734257625Y-211796571D01*
X731257625Y-211796571D01*
X731257625Y-210096571D01*
%TO.C,D14*%
X727611245Y-209355571D02*
X730561245Y-209355571D01*
X730561245Y-212537571D01*
X727611245Y-212537571D01*
X727611245Y-209355571D01*
%TO.C,C13*%
X747716825Y-211823771D02*
X750716825Y-211823771D01*
X750716825Y-213523771D01*
X747716825Y-213523771D01*
X747716825Y-211823771D01*
%TO.C,R153*%
X750655605Y-210198171D02*
X753655605Y-210198171D01*
X753655605Y-211898171D01*
X750655605Y-211898171D01*
X750655605Y-210198171D01*
%TO.C,R154*%
X747716825Y-210198171D02*
X750716825Y-210198171D01*
X750716825Y-211898171D01*
X747716825Y-211898171D01*
X747716825Y-210198171D01*
%TO.C,D15*%
X744070445Y-209457171D02*
X747020445Y-209457171D01*
X747020445Y-212639171D01*
X744070445Y-212639171D01*
X744070445Y-209457171D01*
%TO.C,U51*%
X713696645Y-203674971D02*
X720896645Y-203674971D01*
X720896645Y-210394971D01*
X713696645Y-210394971D01*
X713696645Y-203674971D01*
%TO.C,C19*%
X709532638Y-200901884D02*
X711232638Y-200901884D01*
X711232638Y-203901884D01*
X709532638Y-203901884D01*
X709532638Y-200901884D01*
%TO.C,C21*%
X711310638Y-200901884D02*
X713010638Y-200901884D01*
X713010638Y-203901884D01*
X711310638Y-203901884D01*
X711310638Y-200901884D01*
%TO.C,C67*%
X721005757Y-199664596D02*
X722705757Y-199664596D01*
X722705757Y-202664596D01*
X721005757Y-202664596D01*
X721005757Y-199664596D01*
%TO.C,C127*%
X722758726Y-199675003D02*
X724458726Y-199675003D01*
X724458726Y-202675003D01*
X722758726Y-202675003D01*
X722758726Y-199675003D01*
%TO.C,USB2*%
X629762245Y-235005771D02*
X635362245Y-235005771D01*
X635362245Y-240125771D01*
X629762245Y-240125771D01*
X629762245Y-235005771D01*
%TO.C,R155*%
X636843045Y-234092191D02*
X638543045Y-234092191D01*
X638543045Y-237092191D01*
X636843045Y-237092191D01*
X636843045Y-234092191D01*
%TO.C,R156*%
X636843045Y-238605771D02*
X638543045Y-238605771D01*
X638543045Y-241605771D01*
X636843045Y-241605771D01*
X636843045Y-238605771D01*
%TO.C,R157*%
X634998697Y-211021105D02*
X637998697Y-211021105D01*
X637998697Y-212721105D01*
X634998697Y-212721105D01*
X634998697Y-211021105D01*
%TO.C,C161*%
X641805897Y-239316705D02*
X644805897Y-239316705D01*
X644805897Y-241016705D01*
X641805897Y-241016705D01*
X641805897Y-239316705D01*
%TO.C,C162*%
X640019545Y-231416071D02*
X643019545Y-231416071D01*
X643019545Y-233116071D01*
X640019545Y-233116071D01*
X640019545Y-231416071D01*
%TO.C,L3*%
X750188245Y-217665771D02*
X753188245Y-217665771D01*
X753188245Y-219365771D01*
X750188245Y-219365771D01*
X750188245Y-217665771D01*
%TO.C,C164*%
X753784645Y-217716811D02*
X755484645Y-217716811D01*
X755484645Y-220716811D01*
X753784645Y-220716811D01*
X753784645Y-217716811D01*
%TO.C,L5*%
X756182645Y-217665771D02*
X759182645Y-217665771D01*
X759182645Y-219365771D01*
X756182645Y-219365771D01*
X756182645Y-217665771D01*
%TO.C,C166*%
X759779045Y-217726971D02*
X761479045Y-217726971D01*
X761479045Y-220726971D01*
X759779045Y-220726971D01*
X759779045Y-217726971D01*
%TO.C,R160*%
X761404645Y-217726971D02*
X763104645Y-217726971D01*
X763104645Y-220726971D01*
X761404645Y-220726971D01*
X761404645Y-217726971D01*
%TO.C,U54*%
X708127565Y-250513711D02*
X718327565Y-250513711D01*
X718327565Y-260233711D01*
X708127565Y-260233711D01*
X708127565Y-250513711D01*
%TO.C,U1*%
X708109785Y-266950051D02*
X718309785Y-266950051D01*
X718309785Y-276670051D01*
X708109785Y-276670051D01*
X708109785Y-266950051D01*
%TO.C,C8*%
X718727565Y-270332911D02*
X720427565Y-270332911D01*
X720427565Y-273332911D01*
X718727565Y-273332911D01*
X718727565Y-270332911D01*
%TO.C,C35*%
X704473325Y-251882111D02*
X707473325Y-251882111D01*
X707473325Y-253582111D01*
X704473325Y-253582111D01*
X704473325Y-251882111D01*
%TO.C,C36*%
X704524125Y-257063711D02*
X707524125Y-257063711D01*
X707524125Y-258763711D01*
X704524125Y-258763711D01*
X704524125Y-257063711D01*
%TO.C,C37*%
X704503805Y-253609311D02*
X707503805Y-253609311D01*
X707503805Y-255309311D01*
X704503805Y-255309311D01*
X704503805Y-253609311D01*
%TO.C,C41*%
X715943965Y-260670511D02*
X718943965Y-260670511D01*
X718943965Y-262370511D01*
X715943965Y-262370511D01*
X715943965Y-260670511D01*
%TO.C,C42*%
X704524125Y-255336511D02*
X707524125Y-255336511D01*
X707524125Y-257036511D01*
X704524125Y-257036511D01*
X704524125Y-255336511D01*
%TO.C,R18*%
X731836745Y-253152111D02*
X734836745Y-253152111D01*
X734836745Y-254852111D01*
X731836745Y-254852111D01*
X731836745Y-253152111D01*
%TO.C,R19*%
X726169545Y-255952471D02*
X729169545Y-255952471D01*
X729169545Y-257652471D01*
X726169545Y-257652471D01*
X726169545Y-255952471D01*
%TO.C,R20*%
X727581545Y-257588471D02*
X729281545Y-257588471D01*
X729281545Y-260588471D01*
X727581545Y-260588471D01*
X727581545Y-257588471D01*
%TO.C,C45*%
X726128905Y-254326871D02*
X729128905Y-254326871D01*
X729128905Y-256026871D01*
X726128905Y-256026871D01*
X726128905Y-254326871D01*
%TO.C,R22*%
X722852765Y-252847311D02*
X725852765Y-252847311D01*
X725852765Y-254547311D01*
X722852765Y-254547311D01*
X722852765Y-252847311D01*
%TO.C,R23*%
X722831897Y-258519105D02*
X725831897Y-258519105D01*
X725831897Y-260219105D01*
X722831897Y-260219105D01*
X722831897Y-258519105D01*
%TO.C,R24*%
X729765945Y-249968471D02*
X731465945Y-249968471D01*
X731465945Y-252968471D01*
X729765945Y-252968471D01*
X729765945Y-249968471D01*
%TO.C,R25*%
X736735945Y-270074871D02*
X739735945Y-270074871D01*
X739735945Y-271774871D01*
X736735945Y-271774871D01*
X736735945Y-270074871D01*
%TO.C,R26*%
X731234765Y-268442911D02*
X734234765Y-268442911D01*
X734234765Y-270142911D01*
X731234765Y-270142911D01*
X731234765Y-268442911D01*
%TO.C,R27*%
X725872365Y-270887671D02*
X728872365Y-270887671D01*
X728872365Y-272587671D01*
X725872365Y-272587671D01*
X725872365Y-270887671D01*
%TO.C,R28*%
X727276745Y-272472871D02*
X728976745Y-272472871D01*
X728976745Y-275472871D01*
X727276745Y-275472871D01*
X727276745Y-272472871D01*
%TO.C,C48*%
X725864745Y-269262071D02*
X728864745Y-269262071D01*
X728864745Y-270962071D01*
X725864745Y-270962071D01*
X725864745Y-269262071D01*
%TO.C,R29*%
X722845145Y-268188911D02*
X725845145Y-268188911D01*
X725845145Y-269888911D01*
X722845145Y-269888911D01*
X722845145Y-268188911D01*
%TO.C,R30*%
X722845145Y-273980111D02*
X725845145Y-273980111D01*
X725845145Y-275680111D01*
X722845145Y-275680111D01*
X722845145Y-273980111D01*
%TO.C,C50*%
X704463165Y-268392111D02*
X707463165Y-268392111D01*
X707463165Y-270092111D01*
X704463165Y-270092111D01*
X704463165Y-268392111D01*
%TO.C,C57*%
X704463165Y-273573711D02*
X707463165Y-273573711D01*
X707463165Y-275273711D01*
X704463165Y-275273711D01*
X704463165Y-273573711D01*
%TO.C,C59*%
X714213985Y-277038511D02*
X715913985Y-277038511D01*
X715913985Y-280038511D01*
X714213985Y-280038511D01*
X714213985Y-277038511D01*
%TO.C,C145*%
X704478649Y-270141942D02*
X707478649Y-270141942D01*
X707478649Y-271841942D01*
X704478649Y-271841942D01*
X704478649Y-270141942D01*
%TO.C,C146*%
X704463165Y-271846511D02*
X707463165Y-271846511D01*
X707463165Y-273546511D01*
X704463165Y-273546511D01*
X704463165Y-271846511D01*
%TO.C,C165*%
X715994765Y-277078911D02*
X718994765Y-277078911D01*
X718994765Y-278778911D01*
X715994765Y-278778911D01*
X715994765Y-277078911D01*
%TO.C,C167*%
X715994765Y-264886911D02*
X718994765Y-264886911D01*
X718994765Y-266586911D01*
X715994765Y-266586911D01*
X715994765Y-264886911D01*
%TO.C,R32*%
X726771985Y-249850111D02*
X729771985Y-249850111D01*
X729771985Y-251550111D01*
X726771985Y-251550111D01*
X726771985Y-249850111D01*
%TO.C,R33*%
X726717945Y-246717271D02*
X728417945Y-246717271D01*
X728417945Y-249717271D01*
X726717945Y-249717271D01*
X726717945Y-246717271D01*
%TO.C,R34*%
X718948785Y-249037311D02*
X721948785Y-249037311D01*
X721948785Y-250737311D01*
X718948785Y-250737311D01*
X718948785Y-249037311D01*
%TO.C,U6*%
X722315385Y-277432311D02*
X726405385Y-277432311D01*
X726405385Y-281168711D01*
X722315385Y-281168711D01*
X722315385Y-277432311D01*
%TO.C,R35*%
X726822785Y-279212511D02*
X729822785Y-279212511D01*
X729822785Y-280912511D01*
X726822785Y-280912511D01*
X726822785Y-279212511D01*
%TO.C,R37*%
X726830405Y-277637711D02*
X729830405Y-277637711D01*
X729830405Y-279337711D01*
X726830405Y-279337711D01*
X726830405Y-277637711D01*
%TO.C,R38*%
X718956405Y-279364911D02*
X721956405Y-279364911D01*
X721956405Y-281064911D01*
X718956405Y-281064911D01*
X718956405Y-279364911D01*
%TO.C,R40*%
X729819985Y-279212511D02*
X732819985Y-279212511D01*
X732819985Y-280912511D01*
X729819985Y-280912511D01*
X729819985Y-279212511D01*
%TO.C,R106*%
X731703145Y-213748071D02*
X733403145Y-213748071D01*
X733403145Y-216748071D01*
X731703145Y-216748071D01*
X731703145Y-213748071D01*
%TO.C,R113*%
X692598585Y-193805251D02*
X694298585Y-193805251D01*
X694298585Y-196805251D01*
X692598585Y-196805251D01*
X692598585Y-193805251D01*
%TO.C,R114*%
X694122585Y-193805251D02*
X695822585Y-193805251D01*
X695822585Y-196805251D01*
X694122585Y-196805251D01*
X694122585Y-193805251D01*
%TO.C,R161*%
X691074585Y-193805251D02*
X692774585Y-193805251D01*
X692774585Y-196805251D01*
X691074585Y-196805251D01*
X691074585Y-193805251D01*
%TO.C,R162*%
X689562640Y-193802711D02*
X691262640Y-193802711D01*
X691262640Y-196802711D01*
X689562640Y-196802711D01*
X689562640Y-193802711D01*
%TO.C,R164*%
X683505385Y-193805251D02*
X685205385Y-193805251D01*
X685205385Y-196805251D01*
X683505385Y-196805251D01*
X683505385Y-193805251D01*
%TO.C,R165*%
X681981385Y-193805251D02*
X683681385Y-193805251D01*
X683681385Y-196805251D01*
X681981385Y-196805251D01*
X681981385Y-193805251D01*
%TO.C,R167*%
X686553385Y-193805251D02*
X688253385Y-193805251D01*
X688253385Y-196805251D01*
X686553385Y-196805251D01*
X686553385Y-193805251D01*
%TO.C,R168*%
X685029385Y-193805251D02*
X686729385Y-193805251D01*
X686729385Y-196805251D01*
X685029385Y-196805251D01*
X685029385Y-193805251D01*
%TO.C,R170*%
X717105539Y-250237887D02*
X714984219Y-248116567D01*
X716186301Y-246914485D01*
X718307621Y-249035805D01*
X717105539Y-250237887D01*
%TO.C,R171*%
X714739520Y-279984186D02*
X717739520Y-279984186D01*
X717739520Y-281684186D01*
X714739520Y-281684186D01*
X714739520Y-279984186D01*
%TO.C,R112*%
X740135945Y-222688871D02*
X741835945Y-222688871D01*
X741835945Y-225688871D01*
X740135945Y-225688871D01*
X740135945Y-222688871D01*
%TO.C,D16*%
X744671345Y-265686671D02*
X747853345Y-265686671D01*
X747853345Y-268636671D01*
X744671345Y-268636671D01*
X744671345Y-265686671D01*
%TO.C,C23*%
X743329785Y-269008071D02*
X746329785Y-269008071D01*
X746329785Y-270708071D01*
X743329785Y-270708071D01*
X743329785Y-269008071D01*
%TO.C,C168*%
X746377785Y-269008071D02*
X749377785Y-269008071D01*
X749377785Y-270708071D01*
X746377785Y-270708071D01*
X746377785Y-269008071D01*
%TO.C,R47*%
X677670257Y-191983346D02*
X680670257Y-191983346D01*
X680670257Y-193683346D01*
X677670257Y-193683346D01*
X677670257Y-191983346D01*
%TO.C,R48*%
X677662637Y-193507346D02*
X680662637Y-193507346D01*
X680662637Y-195207346D01*
X677662637Y-195207346D01*
X677662637Y-193507346D01*
%TO.C,R54*%
X677662637Y-195031346D02*
X680662637Y-195031346D01*
X680662637Y-196731346D01*
X677662637Y-196731346D01*
X677662637Y-195031346D01*
%TO.C,D18*%
X756896180Y-196866096D02*
X760078180Y-196866096D01*
X760078180Y-199816096D01*
X756896180Y-199816096D01*
X756896180Y-196866096D01*
%TO.C,D19*%
X759232980Y-196861016D02*
X762414980Y-196861016D01*
X762414980Y-199811016D01*
X759232980Y-199811016D01*
X759232980Y-196861016D01*
%TO.C,D20*%
X756896180Y-200213816D02*
X760078180Y-200213816D01*
X760078180Y-203163816D01*
X756896180Y-203163816D01*
X756896180Y-200213816D01*
%TO.C,D21*%
X759232980Y-200213816D02*
X762414980Y-200213816D01*
X762414980Y-203163816D01*
X759232980Y-203163816D01*
X759232980Y-200213816D01*
%TO.C,D22*%
X756896180Y-203566616D02*
X760078180Y-203566616D01*
X760078180Y-206516616D01*
X756896180Y-206516616D01*
X756896180Y-203566616D01*
%TO.C,D23*%
X759232980Y-203566616D02*
X762414980Y-203566616D01*
X762414980Y-206516616D01*
X759232980Y-206516616D01*
X759232980Y-203566616D01*
%TO.C,D24*%
X756896180Y-206919416D02*
X760078180Y-206919416D01*
X760078180Y-209869416D01*
X756896180Y-209869416D01*
X756896180Y-206919416D01*
%TO.C,D25*%
X759232980Y-206919416D02*
X762414980Y-206919416D01*
X762414980Y-209869416D01*
X759232980Y-209869416D01*
X759232980Y-206919416D01*
%TO.C,RF7*%
X760631480Y-212054816D02*
X764071380Y-212054816D01*
X764071380Y-215597216D01*
X760631480Y-215597216D01*
X760631480Y-212054816D01*
%TO.C,C172*%
X642890380Y-218665616D02*
X645890380Y-218665616D01*
X645890380Y-220365616D01*
X642890380Y-220365616D01*
X642890380Y-218665616D01*
%TO.C,C119*%
X642925940Y-220992256D02*
X645925940Y-220992256D01*
X645925940Y-222692256D01*
X642925940Y-222692256D01*
X642925940Y-220992256D01*
%TO.C,C173*%
X642941180Y-223339216D02*
X645941180Y-223339216D01*
X645941180Y-225039216D01*
X642941180Y-225039216D01*
X642941180Y-223339216D01*
%TO.C,U58*%
X630018180Y-268897416D02*
X634988180Y-268897416D01*
X634988180Y-273867416D01*
X630018180Y-273867416D01*
X630018180Y-268897416D01*
%TO.C,LED8*%
X643986180Y-270267016D02*
X647436180Y-270267016D01*
X647436180Y-273717016D01*
X643986180Y-273717016D01*
X643986180Y-270267016D01*
%TO.C,U59*%
X640871697Y-233668505D02*
X645841697Y-233668505D01*
X645841697Y-238638505D01*
X640871697Y-238638505D01*
X640871697Y-233668505D01*
%TO.C,J7*%
X677693145Y-185822471D02*
X681213145Y-185822471D01*
X681213145Y-190622471D01*
X677693145Y-190622471D01*
X677693145Y-185822471D01*
%TO.C,J8*%
X677693145Y-275840071D02*
X681213145Y-275840071D01*
X681213145Y-280640071D01*
X677693145Y-280640071D01*
X677693145Y-275840071D01*
%TO.C,SW2*%
X629588400Y-263450541D02*
X632588400Y-263450541D01*
X632588400Y-265150541D01*
X629588400Y-265150541D01*
X629588400Y-263450541D01*
%TO.C,SW1*%
X635430400Y-263450541D02*
X638430400Y-263450541D01*
X638430400Y-265150541D01*
X635430400Y-265150541D01*
X635430400Y-263450541D01*
%TO.C,SW3*%
X638021845Y-278930571D02*
X641021845Y-278930571D01*
X641021845Y-280630571D01*
X638021845Y-280630571D01*
X638021845Y-278930571D01*
%TO.C,SW4*%
X644018785Y-278930571D02*
X647018785Y-278930571D01*
X647018785Y-280630571D01*
X644018785Y-280630571D01*
X644018785Y-278930571D01*
%TO.C,SW5*%
X650013185Y-278930571D02*
X653013185Y-278930571D01*
X653013185Y-280630571D01*
X650013185Y-280630571D01*
X650013185Y-278930571D01*
%TO.C,JK1*%
X770054097Y-244080505D02*
X773504097Y-244080505D01*
X773504097Y-247530505D01*
X770054097Y-247530505D01*
X770054097Y-244080505D01*
%TO.C,JK2*%
X770155697Y-265721305D02*
X773605697Y-265721305D01*
X773605697Y-269171305D01*
X770155697Y-269171305D01*
X770155697Y-265721305D01*
%TO.C,JK3*%
X770094737Y-222388905D02*
X773544737Y-222388905D01*
X773544737Y-225838905D01*
X770094737Y-225838905D01*
X770094737Y-222388905D01*
%TO.C,C46*%
X722740765Y-255031951D02*
X724440765Y-255031951D01*
X724440765Y-258031951D01*
X722740765Y-258031951D01*
X722740765Y-255031951D01*
%TO.C,C49*%
X722740765Y-270424351D02*
X724440765Y-270424351D01*
X724440765Y-273424351D01*
X722740765Y-273424351D01*
X722740765Y-270424351D01*
%TO.C,C125*%
X715455497Y-186190305D02*
X717155497Y-186190305D01*
X717155497Y-189190305D01*
X715455497Y-189190305D01*
X715455497Y-186190305D01*
%TO.C,R115*%
X709733117Y-191158305D02*
X712733117Y-191158305D01*
X712733117Y-192858305D01*
X709733117Y-192858305D01*
X709733117Y-191158305D01*
%TO.C,TP2*%
X714339497Y-227786705D02*
X716239497Y-227786705D01*
X716239497Y-229686705D01*
X714339497Y-229686705D01*
X714339497Y-227786705D01*
%TO.C,TP1*%
X714339497Y-232663505D02*
X716239497Y-232663505D01*
X716239497Y-234563505D01*
X714339497Y-234563505D01*
X714339497Y-232663505D01*
%TO.C,TP3*%
X714339497Y-235355905D02*
X716239497Y-235355905D01*
X716239497Y-237255905D01*
X714339497Y-237255905D01*
X714339497Y-235355905D01*
%TO.C,TP4*%
X714339497Y-240537505D02*
X716239497Y-240537505D01*
X716239497Y-242437505D01*
X714339497Y-242437505D01*
X714339497Y-240537505D01*
%TO.C,TP5*%
X714339497Y-237946705D02*
X716239497Y-237946705D01*
X716239497Y-239846705D01*
X714339497Y-239846705D01*
X714339497Y-237946705D01*
%TO.C,TP7*%
X714339497Y-230174305D02*
X716239497Y-230174305D01*
X716239497Y-232074305D01*
X714339497Y-232074305D01*
X714339497Y-230174305D01*
%TO.C,U60*%
X763463097Y-187095905D02*
X765363097Y-187095905D01*
X765363097Y-188995905D01*
X763463097Y-188995905D01*
X763463097Y-187095905D01*
%TO.C,SW7*%
X631984297Y-222136505D02*
X635526697Y-222136505D01*
X635526697Y-225576405D01*
X631984297Y-225576405D01*
X631984297Y-222136505D01*
%TO.C,Q4*%
X761054497Y-232987705D02*
X764004497Y-232987705D01*
X764004497Y-236169705D01*
X761054497Y-236169705D01*
X761054497Y-232987705D01*
%TO.C,Q1*%
X761140857Y-261232505D02*
X764090857Y-261232505D01*
X764090857Y-264414505D01*
X761140857Y-264414505D01*
X761140857Y-261232505D01*
%TO.C,R21*%
X764223497Y-263043085D02*
X765923497Y-263043085D01*
X765923497Y-266043085D01*
X764223497Y-266043085D01*
X764223497Y-263043085D01*
%TO.C,Q2*%
X736050497Y-248746105D02*
X739232497Y-248746105D01*
X739232497Y-251696105D01*
X736050497Y-251696105D01*
X736050497Y-248746105D01*
%TO.C,R31*%
X736283497Y-251773105D02*
X737983497Y-251773105D01*
X737983497Y-254773105D01*
X736283497Y-254773105D01*
X736283497Y-251773105D01*
%TO.C,LED11*%
X630325097Y-245717505D02*
X633325097Y-245717505D01*
X633325097Y-247417505D01*
X630325097Y-247417505D01*
X630325097Y-245717505D01*
%TO.C,LED1*%
X630985497Y-212494305D02*
X633985497Y-212494305D01*
X633985497Y-214194305D01*
X630985497Y-214194305D01*
X630985497Y-212494305D01*
%TO.C,U9*%
X637428297Y-214070705D02*
X639328297Y-214070705D01*
X639328297Y-215970705D01*
X637428297Y-215970705D01*
X637428297Y-214070705D01*
%TO.C,U17*%
X743752697Y-222757505D02*
X745652697Y-222757505D01*
X745652697Y-224657505D01*
X743752697Y-224657505D01*
X743752697Y-222757505D01*
%TO.C,CN1*%
X642436145Y-227594671D02*
X645886145Y-227594671D01*
X645886145Y-231044671D01*
X642436145Y-231044671D01*
X642436145Y-227594671D01*
%TO.C,C171*%
X686672017Y-192034146D02*
X689672017Y-192034146D01*
X689672017Y-193734146D01*
X686672017Y-193734146D01*
X686672017Y-192034146D01*
%TO.C,P2*%
X748587897Y-192402305D02*
X752907897Y-192402305D01*
X752907897Y-197202305D01*
X748587897Y-197202305D01*
X748587897Y-192402305D01*
%TO.C,U65*%
X713363945Y-216110871D02*
X721363945Y-216110871D01*
X721363945Y-223630871D01*
X713363945Y-223630871D01*
X713363945Y-216110871D01*
%TO.C,R97*%
X731756725Y-218258871D02*
X734756725Y-218258871D01*
X734756725Y-219958871D01*
X731756725Y-219958871D01*
X731756725Y-218258871D01*
%TO.C,R98*%
X731764345Y-219782871D02*
X734764345Y-219782871D01*
X734764345Y-221482871D01*
X731764345Y-221482871D01*
X731764345Y-219782871D01*
%TO.C,R99*%
X735309945Y-212935271D02*
X737009945Y-212935271D01*
X737009945Y-215935271D01*
X735309945Y-215935271D01*
X735309945Y-212935271D01*
%TO.C,R36*%
X737199945Y-214296471D02*
X740199945Y-214296471D01*
X740199945Y-215996471D01*
X737199945Y-215996471D01*
X737199945Y-214296471D01*
%TO.C,R41*%
X729874345Y-214771691D02*
X731574345Y-214771691D01*
X731574345Y-217771691D01*
X729874345Y-217771691D01*
X729874345Y-214771691D01*
%TO.C,R42*%
X729978725Y-221916471D02*
X732978725Y-221916471D01*
X732978725Y-223616471D01*
X729978725Y-223616471D01*
X729978725Y-221916471D01*
%TO.C,R43*%
X740440745Y-214357671D02*
X742140745Y-214357671D01*
X742140745Y-217357671D01*
X740440745Y-217357671D01*
X740440745Y-214357671D01*
%TO.C,L2*%
X744159545Y-217649271D02*
X747159545Y-217649271D01*
X747159545Y-219349271D01*
X744159545Y-219349271D01*
X744159545Y-217649271D01*
%TO.C,C5*%
X747755945Y-217710471D02*
X749455945Y-217710471D01*
X749455945Y-220710471D01*
X747755945Y-220710471D01*
X747755945Y-217710471D01*
%TO.C,R44*%
X741812345Y-217862871D02*
X743512345Y-217862871D01*
X743512345Y-220862871D01*
X741812345Y-220862871D01*
X741812345Y-217862871D01*
%TO.C,R55*%
X740237545Y-217855251D02*
X741937545Y-217855251D01*
X741937545Y-220855251D01*
X740237545Y-220855251D01*
X740237545Y-217855251D01*
%TO.C,C6*%
X722112345Y-223643671D02*
X725112345Y-223643671D01*
X725112345Y-225343671D01*
X722112345Y-225343671D01*
X722112345Y-223643671D01*
%TO.C,R82*%
X722155525Y-221967271D02*
X725155525Y-221967271D01*
X725155525Y-223667271D01*
X722155525Y-223667271D01*
X722155525Y-221967271D01*
%TO.C,R96*%
X725101925Y-221967271D02*
X728101925Y-221967271D01*
X728101925Y-223667271D01*
X725101925Y-223667271D01*
X725101925Y-221967271D01*
%TO.C,C7*%
X722163145Y-220341671D02*
X725163145Y-220341671D01*
X725163145Y-222041671D01*
X722163145Y-222041671D01*
X722163145Y-220341671D01*
%TO.C,C9*%
X722163145Y-217649271D02*
X725163145Y-217649271D01*
X725163145Y-219349271D01*
X722163145Y-219349271D01*
X722163145Y-217649271D01*
%TO.C,C15*%
X729874345Y-218370871D02*
X731574345Y-218370871D01*
X731574345Y-221370871D01*
X729874345Y-221370871D01*
X729874345Y-218370871D01*
%TO.C,H2*%
X762309545Y-200540471D02*
X767109545Y-200540471D01*
X767109545Y-204860471D01*
X762309545Y-204860471D01*
X762309545Y-200540471D01*
%TO.C,JN6*%
X728629145Y-188450071D02*
X733429145Y-188450071D01*
X733429145Y-192770071D01*
X728629145Y-192770071D01*
X728629145Y-188450071D01*
%TO.C,U19*%
X734944945Y-217538271D02*
X739914945Y-217538271D01*
X739914945Y-222508271D01*
X734944945Y-222508271D01*
X734944945Y-217538271D01*
%TO.C,U67*%
X647679145Y-216574471D02*
X656479145Y-216574471D01*
X656479145Y-224894471D01*
X647679145Y-224894471D01*
X647679145Y-216574471D01*
%TO.C,U68*%
X709454345Y-233500471D02*
X711354345Y-233500471D01*
X711354345Y-235400471D01*
X709454345Y-235400471D01*
X709454345Y-233500471D01*
%TO.C,U27*%
X738454345Y-233500471D02*
X740354345Y-233500471D01*
X740354345Y-235400471D01*
X738454345Y-235400471D01*
X738454345Y-233500471D01*
%TO.C,U28*%
X738454345Y-277297470D02*
X740354345Y-277297470D01*
X740354345Y-279197470D01*
X738454345Y-279197470D01*
X738454345Y-277297470D01*
%TO.C,U69*%
X730467745Y-255435071D02*
X735437745Y-255435071D01*
X735437745Y-260405071D01*
X730467745Y-260405071D01*
X730467745Y-255435071D01*
%TO.C,U2*%
X730312805Y-270344871D02*
X735282805Y-270344871D01*
X735282805Y-275314871D01*
X730312805Y-275314871D01*
X730312805Y-270344871D01*
%TO.C,C17*%
X761983545Y-241576071D02*
X764983545Y-241576071D01*
X764983545Y-243276071D01*
X761983545Y-243276071D01*
X761983545Y-241576071D01*
%TO.C,C51*%
X762095305Y-269262071D02*
X765095305Y-269262071D01*
X765095305Y-270962071D01*
X762095305Y-270962071D01*
X762095305Y-269262071D01*
%TO.C,RF2*%
X763926943Y-234884979D02*
X767376943Y-234884979D01*
X767376943Y-238334979D01*
X763926943Y-238334979D01*
X763926943Y-234884979D01*
%TO.C,U70*%
X741338945Y-242735071D02*
X746308945Y-242735071D01*
X746308945Y-247705071D01*
X741338945Y-247705071D01*
X741338945Y-242735071D01*
%TO.C,U5*%
X743116945Y-260007071D02*
X748086945Y-260007071D01*
X748086945Y-264977071D01*
X743116945Y-264977071D01*
X743116945Y-260007071D01*
%TO.C,RF3*%
X762063345Y-256652271D02*
X765513345Y-256652271D01*
X765513345Y-260102271D01*
X762063345Y-260102271D01*
X762063345Y-256652271D01*
%TO.C,RF6*%
X738034945Y-252740671D02*
X741484945Y-252740671D01*
X741484945Y-256190671D01*
X738034945Y-256190671D01*
X738034945Y-252740671D01*
%TO.C,RF1*%
X747980956Y-245067974D02*
X751430956Y-245067974D01*
X751430956Y-248517974D01*
X747980956Y-248517974D01*
X747980956Y-245067974D01*
%TO.C,RF4*%
X732497745Y-248473471D02*
X735947745Y-248473471D01*
X735947745Y-251923471D01*
X732497745Y-251923471D01*
X732497745Y-248473471D01*
%TO.C,RF5*%
X739101745Y-267015471D02*
X742551745Y-267015471D01*
X742551745Y-270465471D01*
X739101745Y-270465471D01*
X739101745Y-267015471D01*
%TO.C,RF9*%
X738034945Y-255483871D02*
X741484945Y-255483871D01*
X741484945Y-258933871D01*
X738034945Y-258933871D01*
X738034945Y-255483871D01*
%TD*%
M02*
