%TF.GenerationSoftware,KiCad,Pcbnew,10.99.0-unknown*%
%TF.CreationDate,2026-08-12T15:23:38+08:00*%
%TF.ProjectId,______-____,bf3a0f3a-e268-42d3-9b53-e8062e6b6963,rev?*%
%TF.SameCoordinates,Original*%
%TF.FileFunction,Other,User*%
%FSLAX46Y46*%
G04 Gerber Fmt 4.6, Leading zero omitted, Abs format (unit mm)*
G04 Created by KiCad (PCBNEW 10.99.0-unknown) date 2026-08-12 15:23:38*
%MOMM*%
%LPD*%
G01*
G04 APERTURE LIST*
%ADD10C,0.050000*%
G04 APERTURE END LIST*
%TO.C,D9*%
D10*
X762687585Y-244945371D02*
X765687585Y-244945371D01*
X765687585Y-246645371D01*
X762687585Y-246645371D01*
X762687585Y-244945371D01*
%TO.C,D1*%
X762578365Y-266636971D02*
X765578365Y-266636971D01*
X765578365Y-268336971D01*
X762578365Y-268336971D01*
X762578365Y-266636971D01*
%TO.C,R56*%
X640197980Y-207235616D02*
X643197980Y-207235616D01*
X643197980Y-208935616D01*
X640197980Y-208935616D01*
X640197980Y-207235616D01*
%TO.C,C90*%
X632527180Y-202816016D02*
X635527180Y-202816016D01*
X635527180Y-204516016D01*
X632527180Y-204516016D01*
X632527180Y-202816016D01*
%TO.C,R57*%
X635727580Y-202816016D02*
X638727580Y-202816016D01*
X638727580Y-204516016D01*
X635727580Y-204516016D01*
X635727580Y-202816016D01*
%TO.C,R65*%
X658773405Y-205839771D02*
X660473405Y-205839771D01*
X660473405Y-208839771D01*
X658773405Y-208839771D01*
X658773405Y-205839771D01*
%TO.C,R123*%
X661821405Y-205832151D02*
X663521405Y-205832151D01*
X663521405Y-208832151D01*
X661821405Y-208832151D01*
X661821405Y-205832151D01*
%TO.C,R124*%
X664869405Y-205839771D02*
X666569405Y-205839771D01*
X666569405Y-208839771D01*
X664869405Y-208839771D01*
X664869405Y-205839771D01*
%TO.C,R125*%
X663345405Y-205839771D02*
X665045405Y-205839771D01*
X665045405Y-208839771D01*
X663345405Y-208839771D01*
X663345405Y-205839771D01*
%TO.C,R126*%
X660297405Y-205839771D02*
X661997405Y-205839771D01*
X661997405Y-208839771D01*
X660297405Y-208839771D01*
X660297405Y-205839771D01*
%TO.C,C43*%
X712184765Y-256606511D02*
X715184765Y-256606511D01*
X715184765Y-258306511D01*
X712184765Y-258306511D01*
X712184765Y-256606511D01*
%TO.C,C44*%
X711303385Y-252367251D02*
X714303385Y-252367251D01*
X714303385Y-254067251D01*
X711303385Y-254067251D01*
X711303385Y-252367251D01*
%TO.C,C39*%
X711303385Y-254094451D02*
X714303385Y-254094451D01*
X714303385Y-255794451D01*
X711303385Y-255794451D01*
X711303385Y-254094451D01*
%TO.C,C58*%
X712093325Y-268950911D02*
X715093325Y-268950911D01*
X715093325Y-270650911D01*
X712093325Y-270650911D01*
X712093325Y-268950911D01*
%TD*%
M02*
