%TF.GenerationSoftware,KiCad,Pcbnew,10.99.0-unknown*%
%TF.CreationDate,2026-08-12T15:23:38+08:00*%
%TF.ProjectId,______-____,bf3a0f3a-e268-42d3-9b53-e8062e6b6963,rev?*%
%TF.SameCoordinates,Original*%
%TF.FileFunction,Copper,L2,Inr*%
%TF.FilePolarity,Positive*%
%FSLAX46Y46*%
G04 Gerber Fmt 4.6, Leading zero omitted, Abs format (unit mm)*
G04 Created by KiCad (PCBNEW 10.99.0-unknown) date 2026-08-12 15:23:38*
%MOMM*%
%LPD*%
G01*
G04 APERTURE LIST*
%TA.AperFunction,ViaPad*%
%ADD10C,0.610000*%
%TD*%
%TA.AperFunction,Conductor*%
%ADD11C,0.254000*%
%TD*%
G04 APERTURE END LIST*
D10*
%TO.N,GND*%
X641948100Y-247060400D03*
X641948100Y-245856400D03*
X641948100Y-244670800D03*
X641688500Y-243487600D03*
X640554700Y-243239200D03*
X639072700Y-243239200D03*
X637590800Y-243239200D03*
X636207700Y-243239200D03*
X634948000Y-243239200D03*
%TO.N,RE1*%
X761759300Y-229853100D03*
%TO.N,+VA*%
X750471600Y-235612500D03*
X736051500Y-268994500D03*
%TO.N,AGND*%
X742909500Y-255786500D03*
%TO.N,+VA*%
X753272700Y-261936600D03*
X741436300Y-252332100D03*
X733225000Y-245800500D03*
%TO.N,-VA*%
X733199600Y-264517700D03*
%TO.N,AGND*%
X742807900Y-266098900D03*
%TO.N,CH2_GAIN*%
X726196300Y-265895700D03*
%TO.N,AGND*%
X708559000Y-193522200D03*
%TO.N,DVCC3V3*%
X639067200Y-251970100D03*
X642775600Y-264517700D03*
X638315300Y-258809100D03*
X650859900Y-261225400D03*
X639727600Y-254916500D03*
%TO.N,GND*%
X649773300Y-190886200D03*
X649773300Y-189204200D03*
X649773300Y-187486300D03*
X650788000Y-186308600D03*
X652403400Y-186308600D03*
X654111500Y-186308600D03*
X655753400Y-186308600D03*
X657393300Y-186308600D03*
X658002900Y-187698200D03*
X658002900Y-189273900D03*
X658002900Y-190880900D03*
%TO.N,VCC5V0*%
X685041200Y-185371300D03*
X686006400Y-185371300D03*
X686006400Y-186133300D03*
X685041200Y-186133300D03*
%TO.N,PHY_AD1/LED1*%
X672569800Y-188955300D03*
%TO.N,PHY_AD0/LED0*%
X673916000Y-190776400D03*
%TO.N,PHY_AD1/LED1*%
X669471000Y-185500900D03*
%TO.N,PHY_AD0/LED0*%
X673905200Y-186851200D03*
%TO.N,USB_RESET*%
X650393000Y-251942200D03*
X640134000Y-264314500D03*
%TO.N,USB1_N*%
X633620800Y-238006800D03*
X633468400Y-236584400D03*
%TO.N,USB_P*%
X633570000Y-255482000D03*
X633570000Y-256955200D03*
%TO.N,DVCC3V3*%
X640870600Y-260024500D03*
%TO.N,USB_SDA*%
X641706200Y-260730600D03*
%TO.N,DVCC3V3*%
X640385400Y-271093800D03*
%TO.N,USB_SDA*%
X641251600Y-271680500D03*
%TO.N,AGND*%
X716547300Y-231224700D03*
X716740400Y-238152500D03*
X716687000Y-244271400D03*
X724672300Y-244547700D03*
X724571700Y-232385500D03*
X725434300Y-234590900D03*
X723910300Y-242019700D03*
X724843000Y-228071300D03*
X731853400Y-230306500D03*
X732292300Y-235606900D03*
X731530300Y-241007000D03*
%TO.N,$15N1230*%
X722277600Y-232412100D03*
%TO.N,CH2_OFFSET*%
X720649400Y-238226200D03*
%TO.N,CH2_GAIN*%
X720880600Y-244784500D03*
%TO.N,CH2_TRIG_LEVEL*%
X729999200Y-232513700D03*
%TO.N,AVCC3V3*%
X705840700Y-242300300D03*
%TO.N,+VA*%
X760438500Y-256167500D03*
%TO.N,ADC2_CLKB*%
X707291600Y-265584500D03*
%TO.N,DVCC3V0*%
X708866400Y-265889300D03*
%TO.N,GND*%
X709984000Y-265330500D03*
%TO.N,ADC2_D7B*%
X711304800Y-265025700D03*
X712574800Y-264416100D03*
%TO.N,ADC2_D6B*%
X713540000Y-265228900D03*
X714556000Y-264822500D03*
%TO.N,ADC2_D4B*%
X714904000Y-266244900D03*
%TO.N,AGND*%
X740166300Y-259444100D03*
X740572700Y-272855300D03*
%TO.N,ADC2_CLKB*%
X669242400Y-260352100D03*
X669242400Y-260352100D03*
%TO.N,DVCC3V0*%
X670512400Y-259539300D03*
X670512400Y-259539300D03*
%TO.N,GND*%
X669242400Y-257964500D03*
X669242400Y-257964500D03*
%TO.N,ADC2_D7B*%
X670512400Y-257151700D03*
X669242400Y-255526100D03*
%TO.N,ADC2_D6B*%
X670512400Y-254764100D03*
X669242400Y-253138500D03*
%TO.N,ADC2_D4B*%
X670512400Y-252325700D03*
%TO.N,ADC2_D3B*%
X714810000Y-268937300D03*
%TO.N,DVCC3V0*%
X714479800Y-252556900D03*
X714860800Y-258066100D03*
X716239500Y-278954600D03*
%TO.N,AVCC3V0*%
X717309300Y-279078300D03*
X714327400Y-254080900D03*
%TO.N,DVCC3V3*%
X642064400Y-277217700D03*
X648058800Y-277217700D03*
X654256400Y-276455700D03*
%TO.N,$9N15883*%
X655414000Y-270925200D03*
%TO.N,$9N16326*%
X655414000Y-271941200D03*
%TO.N,$9N15851*%
X655414000Y-272957200D03*
%TO.N,$9N15883*%
X694286700Y-265178100D03*
%TO.N,$9N16326*%
X693016800Y-265940100D03*
%TO.N,$9N15851*%
X693778800Y-266752900D03*
%TO.N,DVCC3V3*%
X692661200Y-267565700D03*
X693575600Y-268327700D03*
X692458000Y-269140500D03*
%TO.N,AVCC3V3*%
X709171200Y-202592500D03*
%TO.N,-VA*%
X733206700Y-242937400D03*
%TO.N,$11N45063*%
X718620000Y-280214900D03*
X666346800Y-261926900D03*
X666346800Y-261926900D03*
%TO.N,$11N44064*%
X716257800Y-246359300D03*
X706692100Y-236863500D03*
%TO.N,CH2_TRIG_LEVEL*%
X729999200Y-277573300D03*
%TO.N,+VA*%
X735238700Y-276411300D03*
X731530300Y-264422500D03*
%TO.N,AVCC3V3*%
X722379200Y-275896900D03*
X718797800Y-246460900D03*
%TO.N,$13N53994*%
X758193200Y-219938200D03*
%TO.N,$6N11218*%
X756466000Y-279503700D03*
X707748800Y-267565700D03*
%TO.N,CH1_DC*%
X758955200Y-253544900D03*
X714461500Y-227135300D03*
%TO.N,VCC2V88*%
X709384500Y-188349500D03*
X717146800Y-195226500D03*
%TO.N,VEE2V88*%
X724462000Y-194820100D03*
%TO.N,1V8_VREF*%
X727814800Y-241098900D03*
X727916400Y-235917300D03*
X727865600Y-230126100D03*
X719998700Y-229678600D03*
X719744700Y-235200500D03*
%TO.N,+VA*%
X718677900Y-241042500D03*
%TO.N,1V8_VREF*%
X711581100Y-237372700D03*
X711057900Y-194775700D03*
%TO.N,DVCC1V0*%
X642307600Y-188426000D03*
X672341200Y-194413700D03*
X670664800Y-204014900D03*
%TO.N,AVCC1V0*%
X651908800Y-197163600D03*
X652275200Y-202541700D03*
X661571600Y-190908500D03*
%TO.N,AVEE5V0*%
X704345200Y-190654500D03*
X731435500Y-214435300D03*
%TO.N,VCC5V0*%
X701551200Y-213057300D03*
X702618000Y-213057300D03*
%TO.N,AVCC5V0*%
X697690400Y-187860500D03*
X696725200Y-187860500D03*
%TO.N,AVCC3V0*%
X706695900Y-271839300D03*
X717273800Y-264494900D03*
%TO.N,DVCC3V0*%
X715789100Y-255634100D03*
X707771100Y-251596700D03*
X707596400Y-268835700D03*
X715629900Y-272640100D03*
%TO.N,AGND*%
X716816600Y-212018500D03*
%TO.N,A_D6*%
X729196500Y-211920700D03*
%TO.N,A_D4*%
X729247300Y-208059900D03*
%TO.N,A_D0*%
X729450500Y-200643100D03*
%TO.N,A_D2*%
X729196500Y-204199100D03*
%TO.N,AVCC3V3*%
X743766000Y-200509700D03*
X743816800Y-204370500D03*
X743766000Y-208180500D03*
X743766000Y-211990500D03*
%TO.N,GND*%
X641454800Y-265838500D03*
%TO.N,DVCC3V3*%
X654735900Y-257895900D03*
X650903600Y-247906100D03*
X642420000Y-250395300D03*
X642230700Y-231351700D03*
%TO.N,GND*%
X643559900Y-241385900D03*
%TO.N,E_COL*%
X671782400Y-209094900D03*
%TO.N,DVCC3V3*%
X672315800Y-200232900D03*
%TO.N,E_CRS*%
X674227900Y-204735800D03*
%TO.N,DVCC3V3*%
X654358000Y-200611300D03*
X664924400Y-189813800D03*
X668759800Y-209072100D03*
X673567500Y-192340600D03*
%TO.N,E_MDC*%
X670334600Y-189006100D03*
%TO.N,AGND*%
X683879100Y-185377700D03*
X690197400Y-188244100D03*
%TO.N,VCC5V0*%
X694972600Y-190276100D03*
%TO.N,AGND*%
X699406800Y-193048800D03*
X703336300Y-192782500D03*
%TO.N,$4N58970*%
X704929400Y-186923300D03*
%TO.N,+VA*%
X707923100Y-191004500D03*
%TO.N,AGND*%
X710615900Y-190839900D03*
X714429000Y-187278900D03*
X724628300Y-191219700D03*
%TO.N,VEE2V88*%
X722709400Y-196473700D03*
%TO.N,AGND*%
X727625500Y-197722100D03*
%TO.N,AVCC3V3*%
X729552100Y-202014700D03*
%TO.N,AGND*%
X727164500Y-206231100D03*
X727266100Y-209990300D03*
X725491900Y-217584900D03*
X737226700Y-213673300D03*
X741798700Y-199500100D03*
%TO.N,$13N51622*%
X748605900Y-220937700D03*
%TO.N,$13N22280*%
X754637200Y-220833100D03*
%TO.N,$13N54030*%
X759412400Y-220547800D03*
%TO.N,$15N1237*%
X733225000Y-228376100D03*
%TO.N,AGND*%
X725789900Y-229307700D03*
%TO.N,+VA*%
X717324600Y-235081700D03*
%TO.N,-VA*%
X723199100Y-244598500D03*
%TO.N,AVCC3V3*%
X725942300Y-246224100D03*
%TO.N,$11N15190*%
X724538200Y-249915300D03*
%TO.N,+VA*%
X728533100Y-264320900D03*
%TO.N,AGND*%
X739861500Y-261577700D03*
%TO.N,+VA*%
X738559000Y-267746100D03*
%TO.N,AGND*%
X744147000Y-273435700D03*
%TO.N,$6N5203*%
X752376600Y-276280500D03*
%TO.N,AGND*%
X763705000Y-281106500D03*
X764194700Y-261018900D03*
%TO.N,$6N5202*%
X752002700Y-261108500D03*
%TO.N,AGND*%
X756288200Y-250728100D03*
%TO.N,$6N2746*%
X752205900Y-246122500D03*
%TO.N,+VA*%
X734124100Y-248395100D03*
%TO.N,-VA*%
X734578300Y-239737000D03*
%TO.N,AGND*%
X765718700Y-240839300D03*
X764057500Y-232495900D03*
X765518500Y-252611500D03*
X721132600Y-186996900D03*
%TO.N,$14N2784*%
X631418700Y-191855900D03*
%TO.N,DVCC3V3*%
X641223100Y-240776300D03*
%TO.N,GND*%
X636651100Y-260893100D03*
X632282300Y-262823500D03*
X635736700Y-265668300D03*
X636143100Y-280654300D03*
X644321900Y-278368300D03*
X650367100Y-278419100D03*
X655399400Y-263580500D03*
X653519800Y-263580500D03*
X651487800Y-263580500D03*
X654942200Y-261142100D03*
X656059800Y-261142100D03*
%TO.N,DVCC3V3*%
X653044300Y-260397300D03*
%TO.N,GND*%
X656161400Y-256417700D03*
%TO.N,DVCC3V3*%
X655243900Y-255203500D03*
%TO.N,GND*%
X656412300Y-253984300D03*
X656059800Y-251540900D03*
X656415400Y-249153300D03*
X656415400Y-246714900D03*
%TO.N,USB_SDA*%
X650979800Y-250626500D03*
%TO.N,GND*%
X653215000Y-244327300D03*
X654789800Y-244327300D03*
X656254000Y-244327300D03*
X653469000Y-241939700D03*
X654993000Y-241939700D03*
X656408400Y-241939700D03*
X654485000Y-239602900D03*
X656316200Y-239602900D03*
X655094600Y-237164500D03*
X656517000Y-237164500D03*
X658803000Y-203585700D03*
X657431400Y-204449300D03*
X656110600Y-205363700D03*
X653926200Y-205363700D03*
X653926200Y-208855100D03*
%TO.N,DVCC3V3*%
X658124300Y-209003000D03*
%TO.N,E_COL*%
X670316300Y-208987700D03*
%TO.N,GND*%
X663356700Y-188210500D03*
%TO.N,AGND*%
X677427500Y-192388100D03*
%TO.N,GND*%
X664441800Y-231525700D03*
X664238600Y-237164500D03*
X665629600Y-237164500D03*
X664238600Y-239552100D03*
X665610200Y-239552100D03*
X664238600Y-241939700D03*
X665610200Y-241939700D03*
X664238600Y-244327300D03*
X665610200Y-244327300D03*
X665000600Y-246765700D03*
X664441800Y-249407300D03*
X664423500Y-251202500D03*
X655450200Y-277702900D03*
X657075800Y-277702900D03*
X658599800Y-277702900D03*
X660305100Y-277702900D03*
X662003400Y-277702900D03*
X691670600Y-236351700D03*
X693483300Y-236351700D03*
X695262800Y-236351700D03*
X691670600Y-240364900D03*
X693499400Y-240364900D03*
X695277400Y-240364900D03*
X693499400Y-244378100D03*
X695277400Y-244378100D03*
X693487900Y-225865300D03*
X697969800Y-210545300D03*
X704354200Y-210545300D03*
X707864300Y-229167300D03*
%TO.N,AVCC3V3*%
X707758900Y-240927500D03*
%TO.N,GND*%
X703491700Y-242756300D03*
X707009100Y-250834700D03*
X710771400Y-253166500D03*
X708016700Y-237955700D03*
X704015000Y-221975300D03*
X708282200Y-212831300D03*
X709552200Y-212831300D03*
X718645400Y-203636500D03*
X717223000Y-209478500D03*
X717223000Y-208005300D03*
X717223000Y-206633700D03*
%TO.N,AVCC3V3*%
X713053900Y-200300900D03*
%TO.N,VCC_DIG*%
X720184000Y-200973600D03*
%TO.N,E_TXER*%
X674954300Y-196173900D03*
%TO.N,DVCC1V0*%
X674449400Y-194390900D03*
%TO.N,DVCC3V3*%
X652569200Y-200059200D03*
%TO.N,AVCC1V0*%
X650471800Y-198454900D03*
%TO.N,$14N2791*%
X632757200Y-202243600D03*
%TO.N,-VA*%
X723199100Y-238263800D03*
%TO.N,$15N1230*%
X722792700Y-229424600D03*
%TO.N,AGND*%
X724723100Y-238654900D03*
%TO.N,DVCC3V3*%
X719559800Y-214050500D03*
%TO.N,+VA*%
X718220700Y-229424600D03*
X717422700Y-241194900D03*
%TO.N,AGND*%
X725789900Y-272499700D03*
X722233900Y-281072900D03*
%TO.N,AVCC3V0*%
X718761600Y-279053200D03*
X717375400Y-267492100D03*
%TO.N,AGND*%
X761860900Y-265159100D03*
%TO.N,$6N5202*%
X752376600Y-257027300D03*
%TO.N,AGND*%
X752529000Y-252963300D03*
X717814300Y-191918900D03*
%TO.N,VCC2V88*%
X718830300Y-194880600D03*
%TO.N,-VA*%
X706282700Y-191461700D03*
%TO.N,DVCC3V0*%
X712898600Y-271033200D03*
%TO.N,AVCC3V0*%
X706351800Y-255300100D03*
%TO.N,GND*%
X716207000Y-270540100D03*
%TO.N,AGND*%
X717270700Y-259724700D03*
%TO.N,AVCC3V0*%
X717273800Y-262818500D03*
%TO.N,BTN0*%
X638330600Y-277245700D03*
%TO.N,BTN1*%
X644245300Y-277189800D03*
%TO.N,BTN2*%
X650278300Y-277217700D03*
%TO.N,GND*%
X658327500Y-205853400D03*
%TO.N,DVCC3V3*%
X660123800Y-188802900D03*
X675109800Y-186422000D03*
%TO.N,GND*%
X679834200Y-246308500D03*
X679003100Y-246325700D03*
X662714600Y-196524500D03*
X661343000Y-196524500D03*
X667235800Y-196524500D03*
X665762600Y-196524500D03*
X664187800Y-196524500D03*
X665775300Y-199211800D03*
X661355700Y-199211800D03*
X662727300Y-199211800D03*
X664200500Y-199211800D03*
X667248500Y-199211800D03*
X665775300Y-197891000D03*
X661355700Y-197891000D03*
X662727300Y-197891000D03*
X664200500Y-197891000D03*
X667248500Y-197891000D03*
X665775300Y-200634200D03*
X661355700Y-200634200D03*
X662727300Y-200634200D03*
X664200500Y-200634200D03*
X667248500Y-200634200D03*
X665724500Y-201955000D03*
X661304900Y-201955000D03*
X662676500Y-201955000D03*
X664149700Y-201955000D03*
X667197700Y-201955000D03*
%TO.N,E_TXD2*%
X647517800Y-253425500D03*
%TO.N,GND*%
X643098200Y-253425500D03*
X644469800Y-253425500D03*
X645943000Y-253425500D03*
X647568600Y-254695500D03*
%TO.N,E_TXD2*%
X645993800Y-254695500D03*
X644520600Y-254695500D03*
X643149000Y-254695500D03*
%TO.N,GND*%
X647568600Y-256016300D03*
X645993800Y-256016300D03*
%TO.N,E_TXD2*%
X644520600Y-256016300D03*
%TO.N,GND*%
X643149000Y-256016300D03*
X647568600Y-257286300D03*
X645993800Y-257286300D03*
X644520600Y-257286300D03*
%TO.N,E_TXD2*%
X643149000Y-257286300D03*
%TO.N,GND*%
X649354200Y-259922900D03*
X640819800Y-259008500D03*
X641715900Y-251151700D03*
%TO.N,ADC2_D4A*%
X714276600Y-274807300D03*
%TO.N,ADC2_D4B*%
X711635000Y-268965300D03*
%TO.N,GND*%
X714679900Y-249818700D03*
X718493000Y-251845700D03*
%TO.N,DVCC3V3*%
X641360800Y-262982500D03*
%TO.N,$14N2610*%
X640428000Y-206764800D03*
%TO.N,GND*%
X711889000Y-256773300D03*
X705268500Y-273559400D03*
%TO.N,ADC2_VREF*%
X720608300Y-271128100D03*
%TO.N,GND*%
X705284000Y-270109400D03*
X703608600Y-269168500D03*
%TO.N,DVCC3V3*%
X650522600Y-194187700D03*
%TO.N,GND*%
X651945000Y-193476500D03*
%TO.N,DVCC1V0*%
X674227900Y-203770600D03*
%TO.N,PHY_AD1/LED1*%
X671706200Y-188853700D03*
%TO.N,GND*%
X703234700Y-262749400D03*
%TO.N,USB_RESET*%
X640242700Y-265375700D03*
%TO.N,DVCC3V0*%
X706348700Y-258861100D03*
%TO.N,AVCC1V0*%
X651995800Y-203636500D03*
%TO.N,DVCC3V3*%
X674243100Y-200898300D03*
%TO.N,ADC1_VERF*%
X722299900Y-254593900D03*
%TO.N,AVCC3V0*%
X691924600Y-196880100D03*
%TO.N,DVCC3V0*%
X693448600Y-196880100D03*
%TO.N,DVCC3V3*%
X682882200Y-196930900D03*
%TO.N,AGND*%
X684355400Y-196930900D03*
%TO.N,AVCC3V3*%
X687401700Y-196930900D03*
%TO.N,VCC3V0*%
X695513100Y-191664900D03*
%TO.N,$4N32180*%
X700745500Y-196150600D03*
%TO.N,GND*%
X699877300Y-215926300D03*
X699877300Y-217576500D03*
X699877300Y-219168200D03*
X699877300Y-220779300D03*
X699877300Y-222380700D03*
X699877300Y-225583500D03*
X699877300Y-230358400D03*
X699877300Y-231979300D03*
X699877300Y-233531900D03*
X699877300Y-235143100D03*
X699877300Y-236734700D03*
X699877300Y-238345900D03*
X699877300Y-239966800D03*
X699877300Y-241561100D03*
X699877300Y-243179400D03*
X699877300Y-244751500D03*
X699877300Y-246372400D03*
X699897100Y-249005900D03*
%TO.N,SELRGV*%
X664067900Y-204939000D03*
%TO.N,TXDLY*%
X665337900Y-205193000D03*
%TO.N,RXDLY*%
X666201500Y-205802600D03*
%TO.N,DVCC3V3*%
X661223100Y-205599400D03*
X664525100Y-205599400D03*
%TO.N,GND*%
X657108300Y-209003000D03*
%TO.N,SELRGV*%
X659089500Y-209003000D03*
%TO.N,TXDLY*%
X661832700Y-209003000D03*
X660359500Y-209003000D03*
%TO.N,E_RXDV*%
X656193900Y-209003000D03*
%TO.N,AGND*%
X743704400Y-202446800D03*
X743704400Y-206307600D03*
X743755200Y-210117600D03*
%TO.N,$6N5203*%
X753780700Y-271334600D03*
%TO.N,AGND*%
X737423100Y-242277000D03*
%TO.N,$15N4283*%
X724367500Y-233981300D03*
%TO.N,-VA*%
X731428700Y-244512200D03*
%TO.N,PHY_AD0/LED0*%
X674125500Y-189390900D03*
%TO.N,GND*%
X664321900Y-220331400D03*
X665845900Y-220331400D03*
%TO.N,AGND*%
X752104300Y-264425800D03*
%TO.N,VEE2V88*%
X742655500Y-227631300D03*
%TO.N,+VA*%
X736508700Y-247099700D03*
%TO.N,GND*%
X664169500Y-265934500D03*
%TO.N,+VA*%
X724215100Y-236521300D03*
%TO.N,GND*%
X696529100Y-213051700D03*
X695868700Y-264359700D03*
X660387900Y-261139200D03*
X660410300Y-269134900D03*
X664321900Y-256333300D03*
X664321900Y-253945700D03*
X661223100Y-212797700D03*
X635736700Y-233918300D03*
%TO.N,UART_CC1*%
X638429100Y-233410300D03*
%TO.N,USB1_P*%
X642848700Y-237728300D03*
%TO.N,GND*%
X634568300Y-240776300D03*
X635990700Y-252765100D03*
%TO.N,$2N3328*%
X628507900Y-265832900D03*
%TO.N,DVCC3V3*%
X643087500Y-268931700D03*
X674481900Y-192579300D03*
%TO.N,E_COL*%
X673364300Y-208987700D03*
%TO.N,$6N1853*%
X753592700Y-234578700D03*
%TO.N,$11N596*%
X735746700Y-238705700D03*
%TO.N,-VA*%
X732190700Y-237537300D03*
X733359100Y-262898500D03*
X740572700Y-274277700D03*
%TO.N,AVCC3V3*%
X726196300Y-277161300D03*
%TO.N,$11N45057*%
X724360400Y-279970400D03*
%TO.N,GND*%
X718032300Y-281123700D03*
X714323900Y-281225300D03*
%TO.N,DVCC3V0*%
X710111000Y-270060000D03*
%TO.N,GND*%
X710300800Y-271060800D03*
X710309200Y-272559400D03*
%TO.N,DVCC3V0*%
X710274500Y-273560100D03*
%TO.N,GND*%
X715020300Y-271217700D03*
X713293100Y-273198900D03*
X710650600Y-254624400D03*
X710905500Y-255571300D03*
X718223700Y-249665100D03*
%TO.N,AGND*%
X731073100Y-233016100D03*
X724773900Y-240229700D03*
%TO.N,$11N15082*%
X723656300Y-251761300D03*
%TO.N,$15N4269*%
X731694300Y-239660600D03*
%TO.N,A_D5*%
X717712700Y-204009300D03*
%TO.N,DVCC3V3*%
X639495900Y-250123500D03*
%TO.N,VCC3V3*%
X689787500Y-191918900D03*
%TO.N,GND*%
X681085100Y-197214100D03*
%TO.N,$6N11218*%
X719879200Y-278494400D03*
%TO.N,$6N11216*%
X765000400Y-268045800D03*
%TO.N,$6N577*%
X764959700Y-245804300D03*
%TO.N,AGND*%
X760631600Y-248030600D03*
X772417200Y-217550600D03*
X773788500Y-217550600D03*
X775211200Y-217550600D03*
X772417200Y-219481000D03*
X773788800Y-219481000D03*
X775220400Y-219481000D03*
X772315600Y-230606200D03*
X772315600Y-228675800D03*
X773686900Y-228675800D03*
X775109600Y-228675800D03*
X775118800Y-230606200D03*
X773687200Y-230606200D03*
X773839300Y-239242200D03*
X773839600Y-241172600D03*
X772468000Y-239242200D03*
X772468000Y-241172600D03*
X775262000Y-239242200D03*
X775271200Y-241172600D03*
X773839300Y-250418200D03*
X773839600Y-252348600D03*
X772468000Y-250418200D03*
X772468000Y-252348600D03*
X775262000Y-250418200D03*
X775271200Y-252348600D03*
X773890100Y-260883000D03*
X773890400Y-262813400D03*
X772518800Y-260883000D03*
X772518800Y-262813400D03*
X775312800Y-260883000D03*
X775322000Y-262813400D03*
X773890100Y-272059000D03*
X773890400Y-273989400D03*
X772518800Y-272059000D03*
X772518800Y-273989400D03*
X775312800Y-272059000D03*
X775322000Y-273989400D03*
X737172100Y-266124300D03*
X737172100Y-264498700D03*
X737158200Y-265317400D03*
X737401100Y-243391500D03*
X737387100Y-244210300D03*
X737401100Y-245017100D03*
%TO.N,$6N42224*%
X704406100Y-236457100D03*
%TO.N,$6N42735*%
X703796500Y-237168300D03*
X764108300Y-266227100D03*
%TO.N,$6N42224*%
X762685900Y-239607900D03*
%TO.N,+VA*%
X709384500Y-187689100D03*
%TO.N,AGND*%
X738591500Y-251925700D03*
%TO.N,$11N62502*%
X737133500Y-255051100D03*
X703495500Y-231554900D03*
%TO.N,AGND*%
X757910700Y-199882300D03*
X760824000Y-198783000D03*
X760824000Y-202148900D03*
X760797900Y-206713700D03*
X761382800Y-210117600D03*
X757572800Y-210066800D03*
X757572800Y-206663200D03*
X757623600Y-203158000D03*
%TO.N,AVCC1V0*%
X643984000Y-188222800D03*
X643323600Y-190356400D03*
%TO.N,PHY_AD0/LED0*%
X637989600Y-201786400D03*
%TO.N,VCC5V0*%
X647310700Y-216822900D03*
X647336800Y-216213600D03*
%TO.N,$4N2693*%
X643018800Y-212048000D03*
%TO.N,$4N131424*%
X647615500Y-214740100D03*
%TO.N,DVCC1V0*%
X641342400Y-191220000D03*
%TO.N,$14N2427*%
X645152400Y-190305600D03*
%TO.N,GND*%
X645591900Y-218119500D03*
X660387900Y-232403800D03*
X660387900Y-234054000D03*
X660387900Y-235645600D03*
X660387900Y-237256800D03*
X660387900Y-238858200D03*
X660387900Y-240430300D03*
X660387900Y-242061000D03*
X660387900Y-243662400D03*
X660387900Y-245215000D03*
X660387900Y-246835900D03*
X660387900Y-248456800D03*
X660387900Y-251620500D03*
X660387900Y-253212200D03*
X660387900Y-254823300D03*
X660387900Y-256444300D03*
X660387900Y-258038500D03*
X660387900Y-259656800D03*
X660387900Y-262849800D03*
X660387900Y-264421900D03*
X660387900Y-266033100D03*
X660387900Y-267615000D03*
X664304000Y-258733200D03*
X660387900Y-230636500D03*
X660387900Y-219215300D03*
X628236000Y-270722000D03*
X631334800Y-273312800D03*
%TO.N,DVCC3V3*%
X647743200Y-273820800D03*
%TO.N,IO16*%
X660798800Y-227237200D03*
%TO.N,IO15*%
X659884400Y-227643600D03*
%TO.N,IO16*%
X668418800Y-231656800D03*
%TO.N,IO15*%
X667352000Y-232418800D03*
%TO.N,IO12*%
X660341600Y-229167600D03*
X667199600Y-235974800D03*
%TO.N,GND*%
X633147100Y-271887400D03*
X694055100Y-259572300D03*
X695325100Y-256676700D03*
%TO.N,DVCC3V3*%
X640706700Y-231097700D03*
%TO.N,CC1*%
X636092300Y-251596700D03*
%TO.N,GND*%
X636092300Y-258759500D03*
%TO.N,DVCC3V0*%
X707393200Y-275107000D03*
%TO.N,+VA*%
X731479500Y-278036900D03*
%TO.N,GND*%
X695782300Y-248751900D03*
%TO.N,AGND*%
X714766300Y-243238900D03*
%TO.N,USB_XIN*%
X633653900Y-249107500D03*
%TO.N,AVCC5V0*%
X740071500Y-221191700D03*
%TO.N,GND*%
X646658700Y-218119500D03*
%TO.N,AGND*%
X739106300Y-196960100D03*
%TO.N,D0*%
X742357500Y-198534900D03*
X751806300Y-198382500D03*
%TO.N,AGND*%
X728438300Y-222817300D03*
%TO.N,$13N50945*%
X732857900Y-223833300D03*
%TO.N,$13N50720*%
X735550300Y-221344100D03*
%TO.N,AVCC5V0*%
X736769500Y-225255700D03*
%TO.N,$13N50935*%
X729246700Y-213981900D03*
%TO.N,$13N53522*%
X718887900Y-220836100D03*
%TO.N,AGND*%
X718633900Y-224239700D03*
%TO.N,AVCC3V3*%
X723192000Y-214025900D03*
X725745900Y-221191700D03*
%TO.N,DAC2_D0*%
X716297100Y-216518100D03*
%TO.N,AGND*%
X746211500Y-236888900D03*
X735347100Y-188070100D03*
X735296300Y-193150100D03*
%TO.N,JTAG_TDI*%
X730165500Y-195182100D03*
%TO.N,GND*%
X642129100Y-228049700D03*
X643094300Y-228049700D03*
X644008700Y-228049700D03*
X644008700Y-228760900D03*
%TO.N,IDC_IO5*%
X656810300Y-221140900D03*
%TO.N,IDC_IO4*%
X656810300Y-219566100D03*
%TO.N,IDC_IO3*%
X656759500Y-217940500D03*
%TO.N,IDC_IO13*%
X680584700Y-223071300D03*
%TO.N,IDC_IO0*%
X679873500Y-223884100D03*
%TO.N,IDC_IO1*%
X680533900Y-224696900D03*
%TO.N,IDC_IO2*%
X679771900Y-225509700D03*
%TO.N,GND*%
X651520300Y-229624500D03*
%TO.N,IDC_IO11*%
X651549000Y-228354500D03*
%TO.N,BTN2*%
X651550100Y-227084500D03*
%TO.N,ADC1_D5A*%
X651544400Y-225814500D03*
%TO.N,IDC_IO6*%
X700650700Y-226779700D03*
%TO.N,IDC_IO7*%
X699877300Y-227579900D03*
%TO.N,IDC_IO12*%
X700650700Y-228354500D03*
%TO.N,IDC_IO6*%
X679619500Y-226728900D03*
%TO.N,IDC_IO7*%
X678795300Y-227579900D03*
%TO.N,IDC_IO12*%
X679568700Y-228354500D03*
%TO.N,IDC_IO6*%
X651535700Y-222004500D03*
%TO.N,IDC_IO7*%
X651529200Y-223274500D03*
%TO.N,IDC_IO12*%
X651476300Y-224544500D03*
%TO.N,IDC_IO5*%
X651557700Y-220734500D03*
%TO.N,IDC_IO4*%
X651557700Y-219464500D03*
%TO.N,IDC_IO3*%
X651551100Y-218194500D03*
%TO.N,AVCC3V3*%
X706079500Y-232367700D03*
%TO.N,DAC0_SCLK*%
X709083500Y-230081700D03*
%TO.N,GND*%
X658886300Y-212149300D03*
X652841100Y-230640500D03*
X653857100Y-230640500D03*
X654873100Y-230640500D03*
X659445100Y-213266900D03*
%TO.N,AVCC3V3*%
X707146300Y-234602900D03*
%TO.N,AGND*%
X725942300Y-256802500D03*
%TO.N,ADC1_VERF*%
X721827500Y-255888100D03*
X727415500Y-254059300D03*
%TO.N,ADC2_VREF*%
X721217900Y-272347300D03*
X727313900Y-268943700D03*
%TO.N,$11N2434*%
X742604700Y-268740500D03*
%TO.N,AGND*%
X741995100Y-269705700D03*
%TO.N,$6N46533*%
X765651900Y-234817400D03*
%TO.N,AGND*%
X764651900Y-235517300D03*
X766683900Y-235517300D03*
X763788300Y-256489800D03*
X764804300Y-257259700D03*
X732495500Y-250249300D03*
X733105100Y-251265300D03*
X748954700Y-245321700D03*
X741995100Y-267724500D03*
%TO.N,+VA*%
X747191000Y-258942400D03*
%TO.N,AGND*%
X746355600Y-269858100D03*
X744128700Y-270721700D03*
X749361100Y-269858100D03*
X743315900Y-240292500D03*
X739099500Y-247912500D03*
%TO.N,VCC2V88*%
X741334700Y-227541700D03*
%TO.N,AGND*%
X745246300Y-239073300D03*
X747125900Y-239073300D03*
%TO.N,-VA*%
X742299900Y-241206900D03*
%TO.N,ADC1_D5A*%
X686216700Y-232012100D03*
%TO.N,IDC_IO11*%
X686165900Y-233485300D03*
%TO.N,GND*%
X685149900Y-234348900D03*
%TO.N,BTN2*%
X684895900Y-232774100D03*
%TO.N,IDC_IO0*%
X651520300Y-211844500D03*
%TO.N,IDC_IO1*%
X651511800Y-213114500D03*
%TO.N,IDC_IO2*%
X651511800Y-214384500D03*
%TO.N,IDC_IO13*%
X655431900Y-211844500D03*
%TO.N,IDC_IO24*%
X655468400Y-228354500D03*
X661070700Y-249944500D03*
%TO.N,AGND*%
X738642300Y-255837300D03*
X738591500Y-253652900D03*
X740623500Y-266149700D03*
%TD*%
%TO.N,GND*%
D11*
X718493000Y-251845700D02*
X718493000Y-251032900D01*
X718086600Y-250626500D02*
X715597400Y-250626500D01*
X718493000Y-251032900D02*
X718086600Y-250626500D01*
%TO.N,CH2_TRIG_LEVEL*%
X729999200Y-277573300D02*
X729999200Y-232513700D01*
%TO.N,$6N11218*%
X709730000Y-277189800D02*
X708815600Y-276275400D01*
X708815600Y-276275400D02*
X708815600Y-268045800D01*
X708815600Y-268045800D02*
X708335500Y-267565700D01*
X718574500Y-277189800D02*
X709730000Y-277189800D01*
X707748800Y-267565700D02*
X708335500Y-267565700D01*
X718574500Y-277189800D02*
X719879200Y-278494400D01*
%TO.N,IDC_IO12*%
X679568700Y-228354500D02*
X700650700Y-228354500D01*
%TO.N,IDC_IO7*%
X699877300Y-227579900D02*
X678795300Y-227579900D01*
%TO.N,IDC_IO6*%
X679619500Y-226728900D02*
X700599900Y-226728900D01*
X700650700Y-226779700D02*
X700599900Y-226728900D01*
%TO.N,ADC2_VREF*%
X718728700Y-271128100D02*
X720608300Y-271128100D01*
X718283500Y-271573300D02*
X718728700Y-271128100D01*
X715579100Y-271573300D02*
X718283500Y-271573300D01*
%TD*%
M02*
