%TF.GenerationSoftware,KiCad,Pcbnew,10.99.0-unknown*%
%TF.CreationDate,2026-08-12T15:23:38+08:00*%
%TF.ProjectId,______-____,bf3a0f3a-e268-42d3-9b53-e8062e6b6963,rev?*%
%TF.SameCoordinates,Original*%
%TF.FileFunction,Profile,NP*%
%FSLAX46Y46*%
G04 Gerber Fmt 4.6, Leading zero omitted, Abs format (unit mm)*
G04 Created by KiCad (PCBNEW 10.99.0-unknown) date 2026-08-12 15:23:38*
%MOMM*%
%LPD*%
G01*
G04 APERTURE LIST*
%TA.AperFunction,Profile*%
%ADD10C,0.254000*%
%TD*%
G04 APERTURE END LIST*
D10*
X627520300Y-188251700D02*
X628142600Y-187629900D01*
X628142600Y-187629900D02*
X628764900Y-187008000D01*
X628764900Y-187008000D02*
X629387200Y-186386000D01*
X629387200Y-186386000D02*
X630009500Y-185763700D01*
X630009500Y-185763700D02*
X630631800Y-185141400D01*
X630631800Y-185141400D02*
X631254100Y-184518800D01*
X631254100Y-184518800D02*
X631876400Y-183896100D01*
X631876400Y-183896100D02*
X632498700Y-183273300D01*
X771385900Y-183273300D02*
X772008200Y-183896100D01*
X772008200Y-183896100D02*
X772630500Y-184518800D01*
X772630500Y-184518800D02*
X773252800Y-185141400D01*
X773252800Y-185141400D02*
X773875100Y-185763700D01*
X773875100Y-185763700D02*
X774497400Y-186386000D01*
X774497400Y-186386000D02*
X775119700Y-187008000D01*
X775119700Y-187008000D02*
X775742000Y-187629900D01*
X775742000Y-187629900D02*
X776364300Y-188251700D01*
X632498700Y-283247700D02*
X631876400Y-282625900D01*
X631876400Y-282625900D02*
X631254100Y-282004000D01*
X631254100Y-282004000D02*
X630631800Y-281382000D01*
X630631800Y-281382000D02*
X630009500Y-280759700D01*
X630009500Y-280759700D02*
X629387200Y-280137400D01*
X629387200Y-280137400D02*
X628764900Y-279514800D01*
X628764900Y-279514800D02*
X628142600Y-278892100D01*
X628142600Y-278892100D02*
X627520300Y-278269300D01*
X776364300Y-278269300D02*
X775742000Y-278892100D01*
X775742000Y-278892100D02*
X775119700Y-279514800D01*
X775119700Y-279514800D02*
X774497400Y-280137400D01*
X774497400Y-280137400D02*
X773875100Y-280759700D01*
X773875100Y-280759700D02*
X773252800Y-281382000D01*
X773252800Y-281382000D02*
X772630500Y-282004000D01*
X772630500Y-282004000D02*
X772008200Y-282625900D01*
X772008200Y-282625900D02*
X771385900Y-283247700D01*
X776364300Y-278269300D02*
X776364300Y-278269300D01*
X776364300Y-278269300D02*
X776364300Y-188251700D01*
X771385900Y-183273300D02*
X771385900Y-183273300D01*
X771385900Y-183273300D02*
X632498700Y-183273300D01*
X627520300Y-188251700D02*
X627520300Y-188251700D01*
X627520300Y-188251700D02*
X627520300Y-278269300D01*
X632498700Y-283247700D02*
X632498700Y-283247700D01*
X632498700Y-283247700D02*
X771385900Y-283247700D01*
M02*
