%TF.GenerationSoftware,KiCad,Pcbnew,10.99.0-unknown*%
%TF.CreationDate,2026-08-12T15:23:38+08:00*%
%TF.ProjectId,______-____,bf3a0f3a-e268-42d3-9b53-e8062e6b6963,rev?*%
%TF.SameCoordinates,Original*%
%TF.FileFunction,Paste,Top*%
%TF.FilePolarity,Positive*%
%FSLAX46Y46*%
G04 Gerber Fmt 4.6, Leading zero omitted, Abs format (unit mm)*
G04 Created by KiCad (PCBNEW 10.99.0-unknown) date 2026-08-12 15:23:38*
%MOMM*%
%LPD*%
G01*
G04 APERTURE LIST*
G04 Aperture macros list*
%AMRoundRect*
0 Rectangle with rounded corners*
0 $1 Rounding radius*
0 $2 $3 $4 $5 $6 $7 $8 $9 X,Y pos of 4 corners*
0 Add a 4 corners polygon primitive as box body*
4,1,4,$2,$3,$4,$5,$6,$7,$8,$9,$2,$3,0*
0 Add four circle primitives for the rounded corners*
1,1,$1+$1,$2,$3*
1,1,$1+$1,$4,$5*
1,1,$1+$1,$6,$7*
1,1,$1+$1,$8,$9*
0 Add four rect primitives between the rounded corners*
20,1,$1+$1,$2,$3,$4,$5,0*
20,1,$1+$1,$4,$5,$6,$7,0*
20,1,$1+$1,$6,$7,$8,$9,0*
20,1,$1+$1,$8,$9,$2,$3,0*%
G04 Aperture macros list end*
%ADD10RoundRect,0.225000X-0.225000X-0.275000X0.225000X-0.275000X0.225000X0.275000X-0.225000X0.275000X0*%
%ADD11RoundRect,0.225000X-0.225000X-0.275000X0.225000X-0.275000X0.225000X0.275000X-0.225000X0.275000X0*%
%ADD12RoundRect,0.105000X0.345000X-0.105000X0.345000X0.105000X-0.345000X0.105000X-0.345000X-0.105000X0*%
%ADD13RoundRect,0.105000X-0.105000X-0.345000X0.105000X-0.345000X0.105000X0.345000X-0.105000X0.345000X0*%
%ADD14C,0.750000*%
%ADD15RoundRect,0.105000X0.345000X-0.105000X0.345000X0.105000X-0.345000X0.105000X-0.345000X-0.105000X0*%
%ADD16RoundRect,0.105000X-0.105000X-0.345000X0.105000X-0.345000X0.105000X0.345000X-0.105000X0.345000X0*%
%ADD17C,1.200000*%
G04 APERTURE END LIST*
D10*
%TO.C,R6*%
X638578465Y-256732611D03*
X637178465Y-256732611D03*
%TD*%
%TO.C,R7*%
X638578465Y-255081611D03*
X637178465Y-255081611D03*
%TD*%
D11*
%TO.C,R13*%
X628778685Y-266953571D03*
X630178685Y-266953571D03*
%TD*%
%TO.C,R10*%
X631803180Y-266967541D03*
X633203180Y-266967541D03*
%TD*%
D10*
%TO.C,R11*%
X637817505Y-272123971D03*
X637817505Y-270723971D03*
%TD*%
%TO.C,R12*%
X639341505Y-272123971D03*
X639341505Y-270723971D03*
%TD*%
%TO.C,X2*%
X638711114Y-245144214D03*
X637311114Y-245144214D03*
%TD*%
D11*
%TO.C,C27*%
X641361845Y-262102171D03*
X642761845Y-262102171D03*
%TD*%
D10*
%TO.C,C30*%
X639139575Y-259809682D03*
X639139575Y-258409682D03*
%TD*%
%TO.C,C31*%
X651966805Y-260730571D03*
X650566805Y-260730571D03*
%TD*%
D11*
%TO.C,C32*%
X639469775Y-250977642D03*
X639469775Y-252377642D03*
%TD*%
D10*
%TO.C,C25*%
X639281400Y-266967541D03*
X637881400Y-266967541D03*
%TD*%
%TO.C,R9*%
X636225780Y-266967541D03*
X634825780Y-266967541D03*
%TD*%
D12*
%TO.C,USB1*%
X634579380Y-254718541D03*
X634579380Y-255518541D03*
X634579380Y-256318541D03*
X634579380Y-257118541D03*
D13*
X633779380Y-257918541D03*
X632979380Y-257918541D03*
X632179380Y-257918541D03*
X631379380Y-257918541D03*
D12*
X630579380Y-257118541D03*
X630579380Y-256318541D03*
X630579380Y-255518541D03*
X630579380Y-254718541D03*
D13*
X631379380Y-253918541D03*
X632179380Y-253918541D03*
X632979380Y-253918541D03*
X633779380Y-253918541D03*
%TD*%
D11*
%TO.C,R14*%
X637184400Y-252094341D03*
X637184400Y-253494341D03*
%TD*%
D10*
%TO.C,R15*%
X637184400Y-259793541D03*
X637184400Y-258393541D03*
%TD*%
D11*
%TO.C,R16*%
X629964317Y-249818705D03*
X631364317Y-249818705D03*
%TD*%
D10*
%TO.C,C26*%
X639256645Y-268960171D03*
X637856645Y-268960171D03*
%TD*%
D14*
%TO.C,U7*%
X646200676Y-215519000D03*
X645440576Y-216565200D03*
X644210776Y-216165600D03*
X644210776Y-214872400D03*
X645440576Y-214472800D03*
%TD*%
D10*
%TO.C,R51*%
X642290445Y-216401451D03*
X642290445Y-215001451D03*
%TD*%
D11*
%TO.C,R52*%
X644356505Y-212572171D03*
X645756505Y-212572171D03*
%TD*%
D12*
%TO.C,J1*%
X631720345Y-186673271D03*
X632520345Y-186673271D03*
X633320345Y-186673271D03*
D13*
X634120345Y-187473271D03*
X634120345Y-188273271D03*
X634120345Y-189073271D03*
D12*
X633320345Y-189873271D03*
X632520345Y-189873271D03*
X631720345Y-189873271D03*
%TD*%
%TO.C,J2*%
X631720345Y-276647671D03*
X632520345Y-276647671D03*
X633320345Y-276647671D03*
D13*
X634120345Y-277447671D03*
X634120345Y-278247671D03*
X634120345Y-279047671D03*
D12*
X633320345Y-279847671D03*
X632520345Y-279847671D03*
X631720345Y-279847671D03*
%TD*%
%TO.C,J3*%
X770564345Y-186673271D03*
X771364345Y-186673271D03*
X772164345Y-186673271D03*
D13*
X772964345Y-187473271D03*
X772964345Y-188273271D03*
X772964345Y-189073271D03*
D12*
X772164345Y-189873271D03*
X771364345Y-189873271D03*
X770564345Y-189873271D03*
%TD*%
%TO.C,J4*%
X770564345Y-276647671D03*
X771364345Y-276647671D03*
X772164345Y-276647671D03*
D13*
X772964345Y-277447671D03*
X772964345Y-278247671D03*
X772964345Y-279047671D03*
D12*
X772164345Y-279847671D03*
X771364345Y-279847671D03*
X770564345Y-279847671D03*
%TD*%
D10*
%TO.C,C33*%
X640885354Y-248293814D03*
X639485354Y-248293814D03*
%TD*%
D11*
%TO.C,C34*%
X635390874Y-248293814D03*
X636790874Y-248293814D03*
%TD*%
D12*
%TO.C,U8*%
X640834165Y-250182531D03*
X641484165Y-250182531D03*
X642134165Y-250182531D03*
X642784165Y-250182531D03*
X643434165Y-250182531D03*
X644084165Y-250182531D03*
X644734165Y-250182531D03*
X645384165Y-250182531D03*
X646034165Y-250182531D03*
X646684165Y-250182531D03*
X647334165Y-250182531D03*
X647984165Y-250182531D03*
X648634165Y-250182531D03*
X649284165Y-250182531D03*
X649934165Y-250182531D03*
D13*
X650659165Y-250907531D03*
X650659165Y-251557531D03*
X650659165Y-252207531D03*
X650659165Y-252857531D03*
X650659165Y-253507531D03*
X650659165Y-254157531D03*
X650659165Y-254807531D03*
X650659165Y-255457531D03*
X650659165Y-256107531D03*
X650659165Y-256757531D03*
X650659165Y-257407531D03*
X650659165Y-258057531D03*
X650659165Y-258707531D03*
X650659165Y-259357531D03*
X650659165Y-260007531D03*
D12*
X649934165Y-260732531D03*
X649284165Y-260732531D03*
X648634165Y-260732531D03*
X647984165Y-260732531D03*
X647334165Y-260732531D03*
X646684165Y-260732531D03*
X646034165Y-260732531D03*
X645384165Y-260732531D03*
X644734165Y-260732531D03*
X644084165Y-260732531D03*
X643434165Y-260732531D03*
X642784165Y-260732531D03*
X642134165Y-260732531D03*
X641484165Y-260732531D03*
X640834165Y-260732531D03*
D13*
X640109165Y-260007531D03*
X640109165Y-259357531D03*
X640109165Y-258707531D03*
X640109165Y-258057531D03*
X640109165Y-257407531D03*
X640109165Y-256757531D03*
X640109165Y-256107531D03*
X640109165Y-255457531D03*
X640109165Y-254807531D03*
X640109165Y-254157531D03*
X640109165Y-253507531D03*
X640109165Y-252857531D03*
%TD*%
D10*
%TO.C,R8*%
X650181185Y-249348831D03*
X648781185Y-249348831D03*
%TD*%
D14*
%TO.C,U18*%
X763761375Y-247938762D03*
X762761375Y-248938762D03*
X761761375Y-247938762D03*
X762761375Y-246938762D03*
%TD*%
D11*
%TO.C,R67*%
X760081445Y-253516971D03*
X761481445Y-253516971D03*
%TD*%
D14*
%TO.C,K2*%
X748469200Y-253415800D03*
X747953700Y-254660300D03*
X746709200Y-255175800D03*
X745464700Y-254660300D03*
X744949200Y-253415800D03*
X745464700Y-252171300D03*
X746709200Y-251655800D03*
X747953700Y-252171300D03*
%TD*%
D10*
%TO.C,D3*%
X740318720Y-251409786D03*
X740318720Y-250009786D03*
%TD*%
%TO.C,C100*%
X748321705Y-232688971D03*
X746921705Y-232688971D03*
%TD*%
D11*
%TO.C,R69*%
X753251385Y-233321431D03*
X754651385Y-233321431D03*
%TD*%
%TO.C,R70*%
X753196775Y-245480042D03*
X754596775Y-245480042D03*
%TD*%
%TO.C,R71*%
X756244775Y-245480042D03*
X757644775Y-245480042D03*
%TD*%
%TO.C,R72*%
X748711920Y-241006986D03*
X750111920Y-241006986D03*
%TD*%
D14*
%TO.C,U10*%
X763419745Y-275673391D03*
X762419745Y-276673391D03*
X761419745Y-275673391D03*
X762419745Y-274673391D03*
%TD*%
D10*
%TO.C,R73*%
X761248345Y-269999271D03*
X761248345Y-268599271D03*
%TD*%
D11*
%TO.C,C75*%
X762888145Y-268414071D03*
X764288145Y-268414071D03*
%TD*%
%TO.C,R74*%
X757340785Y-280519711D03*
X758740785Y-280519711D03*
%TD*%
D14*
%TO.C,K4*%
X755740815Y-268388082D03*
X754496315Y-267872582D03*
X753980815Y-266628082D03*
X754496315Y-265383582D03*
X755740815Y-264868082D03*
X756985315Y-265383582D03*
X757500815Y-266628082D03*
X756985315Y-267872582D03*
%TD*%
D11*
%TO.C,R75*%
X756288580Y-260502400D03*
X757688580Y-260502400D03*
%TD*%
%TO.C,D6*%
X760946545Y-258210661D03*
X760946545Y-259610661D03*
%TD*%
%TO.C,C77*%
X754772200Y-255270000D03*
X756172200Y-255270000D03*
%TD*%
%TO.C,R76*%
X753255820Y-260502400D03*
X754655820Y-260502400D03*
%TD*%
%TO.C,R77*%
X753331395Y-272785042D03*
X754731395Y-272785042D03*
%TD*%
%TO.C,R78*%
X756371775Y-272785042D03*
X757771775Y-272785042D03*
%TD*%
%TO.C,C81*%
X747274765Y-273428031D03*
X748674765Y-273428031D03*
%TD*%
D15*
%TO.C,U20*%
X738187082Y-245810327D03*
X737387082Y-245810327D03*
X736587082Y-245810327D03*
D16*
X735787082Y-245010327D03*
X735787082Y-244210327D03*
X735787082Y-243410327D03*
D15*
X736587082Y-242610327D03*
X737387082Y-242610327D03*
X738187082Y-242610327D03*
%TD*%
D11*
%TO.C,R84*%
X736713887Y-241269578D03*
X738113887Y-241269578D03*
%TD*%
D10*
%TO.C,R85*%
X738113887Y-239745578D03*
X736713887Y-239745578D03*
%TD*%
%TO.C,C82*%
X734113023Y-243368547D03*
X734113023Y-241968547D03*
%TD*%
D11*
%TO.C,C84*%
X734113985Y-245875151D03*
X734113985Y-247275151D03*
%TD*%
D15*
%TO.C,U12*%
X737958175Y-266917442D03*
X737158175Y-266917442D03*
X736358175Y-266917442D03*
D16*
X735558175Y-266117442D03*
X735558175Y-265317442D03*
X735558175Y-264517442D03*
D15*
X736358175Y-263717442D03*
X737158175Y-263717442D03*
X737958175Y-263717442D03*
%TD*%
D11*
%TO.C,R86*%
X735739355Y-262472642D03*
X737139355Y-262472642D03*
%TD*%
%TO.C,R87*%
X738689565Y-262485711D03*
X740089565Y-262485711D03*
%TD*%
%TO.C,C87*%
X734008575Y-263550642D03*
X734008575Y-264950642D03*
%TD*%
%TO.C,C102*%
X736063634Y-268208760D03*
X737463634Y-268208760D03*
%TD*%
%TO.C,D7*%
X761060297Y-229459105D03*
X761060297Y-230859105D03*
%TD*%
D10*
%TO.C,R66*%
X761154180Y-242500380D03*
X761154180Y-241100380D03*
%TD*%
D11*
%TO.C,C69*%
X762783545Y-240698871D03*
X764183545Y-240698871D03*
%TD*%
%TO.C,R68*%
X756284145Y-233321431D03*
X757684145Y-233321431D03*
%TD*%
%TO.C,R80*%
X762635097Y-237122285D03*
X762635097Y-238522285D03*
%TD*%
D14*
%TO.C,U21*%
X698645499Y-191437379D03*
X699788699Y-192097379D03*
X699788699Y-193417379D03*
X698645499Y-194077379D03*
X697502299Y-193417379D03*
X697502299Y-192097379D03*
%TD*%
%TO.C,U22*%
X704335099Y-191657379D03*
X705381299Y-192417479D03*
X704981699Y-193647279D03*
X703688499Y-193647279D03*
X703288899Y-192417479D03*
%TD*%
D10*
%TO.C,C83*%
X701499181Y-193437885D03*
X701499181Y-192037885D03*
%TD*%
%TO.C,C38*%
X699426235Y-195730091D03*
X698026235Y-195730091D03*
%TD*%
D11*
%TO.C,C47*%
X695847385Y-189300691D03*
X697247385Y-189300691D03*
%TD*%
%TO.C,R88*%
X704999079Y-195754579D03*
X706399079Y-195754579D03*
%TD*%
%TO.C,R89*%
X702009499Y-195754579D03*
X703409499Y-195754579D03*
%TD*%
%TO.C,C85*%
X707484699Y-192209779D03*
X707484699Y-193609779D03*
%TD*%
D10*
%TO.C,C74*%
X756172200Y-250723400D03*
X754772200Y-250723400D03*
%TD*%
D14*
%TO.C,K5*%
X755632220Y-241155000D03*
X754387720Y-240639500D03*
X753872220Y-239395000D03*
X754387720Y-238150500D03*
X755632220Y-237635000D03*
X756876720Y-238150500D03*
X757392220Y-239395000D03*
X756876720Y-240639500D03*
%TD*%
D11*
%TO.C,C55*%
X737271785Y-247099671D03*
X738671785Y-247099671D03*
%TD*%
%TO.C,C113*%
X743123945Y-241714871D03*
X744523945Y-241714871D03*
%TD*%
D10*
%TO.C,C114*%
X746251145Y-258936071D03*
X744851145Y-258936071D03*
%TD*%
%TO.C,C117*%
X743671545Y-267510071D03*
X743671545Y-266110071D03*
%TD*%
%TO.C,C40*%
X719475965Y-256124511D03*
X719475965Y-254724511D03*
%TD*%
D14*
%TO.C,U31*%
X702303099Y-189945779D03*
X701256899Y-189185679D03*
X701656499Y-187955879D03*
X702949699Y-187955879D03*
X703349299Y-189185679D03*
%TD*%
%TO.C,U4*%
X691078659Y-191756619D03*
X691838759Y-190710419D03*
X693068559Y-191110019D03*
X693068559Y-192403219D03*
X691838759Y-192802819D03*
%TD*%
D10*
%TO.C,C104*%
X705103685Y-189548317D03*
X705103685Y-188148317D03*
%TD*%
%TO.C,R45*%
X703823519Y-186356579D03*
X702423519Y-186356579D03*
%TD*%
%TO.C,R46*%
X706731581Y-189587245D03*
X706731581Y-188187245D03*
%TD*%
%TO.C,C105*%
X708357181Y-189587245D03*
X708357181Y-188187245D03*
%TD*%
%TO.C,C118*%
X699060781Y-189282445D03*
X699060781Y-187882445D03*
%TD*%
%TO.C,C120*%
X696068825Y-192917651D03*
X694668825Y-192917651D03*
%TD*%
D11*
%TO.C,C123*%
X691503985Y-188645371D03*
X692903985Y-188645371D03*
%TD*%
D12*
%TO.C,U37*%
X706852365Y-230443511D03*
X706852365Y-229643511D03*
X706852365Y-228843511D03*
D16*
X707652365Y-228043511D03*
X708452365Y-228043511D03*
X709252365Y-228043511D03*
D12*
X710052365Y-228843511D03*
X710052365Y-229643511D03*
X710052365Y-230443511D03*
D16*
X709252365Y-231243511D03*
%TD*%
D14*
%TO.C,U38*%
X713278365Y-187632711D03*
X714421565Y-188292711D03*
X714421565Y-189612711D03*
X713278365Y-190272711D03*
X712135165Y-189612711D03*
X712135165Y-188292711D03*
%TD*%
D11*
%TO.C,C52*%
X706638345Y-232328071D03*
X706638345Y-233728071D03*
%TD*%
D14*
%TO.C,U40*%
X720339565Y-229740831D03*
X721482765Y-230400831D03*
X721482765Y-231720831D03*
X720339565Y-232380831D03*
X719196365Y-231720831D03*
X719196365Y-230400831D03*
%TD*%
%TO.C,U3*%
X728117045Y-229700191D03*
X729260245Y-230360191D03*
X729260245Y-231680191D03*
X728117045Y-232340191D03*
X726973845Y-231680191D03*
X726973845Y-230360191D03*
%TD*%
D11*
%TO.C,R49*%
X713497919Y-191995379D03*
X714897919Y-191995379D03*
%TD*%
%TO.C,R50*%
X716476299Y-190584179D03*
X716476299Y-191984179D03*
%TD*%
D10*
%TO.C,C124*%
X710380299Y-189596579D03*
X710380299Y-188196579D03*
%TD*%
D11*
%TO.C,C129*%
X717418565Y-230299871D03*
X717418565Y-231699871D03*
%TD*%
D10*
%TO.C,C131*%
X723260565Y-231760831D03*
X723260565Y-230360831D03*
%TD*%
D11*
%TO.C,C133*%
X725190965Y-230386231D03*
X725190965Y-231786231D03*
%TD*%
D10*
%TO.C,C135*%
X731032965Y-231725271D03*
X731032965Y-230325271D03*
%TD*%
%TO.C,R110*%
X720203905Y-228472571D03*
X718803905Y-228472571D03*
%TD*%
%TO.C,C136*%
X723251905Y-228472571D03*
X721851905Y-228472571D03*
%TD*%
%TO.C,R111*%
X727917885Y-228370971D03*
X726517885Y-228370971D03*
%TD*%
%TO.C,C137*%
X730973505Y-228370971D03*
X729573505Y-228370971D03*
%TD*%
D11*
%TO.C,C139*%
X725142705Y-236129171D03*
X725142705Y-237529171D03*
%TD*%
D10*
%TO.C,C141*%
X730984705Y-237529171D03*
X730984705Y-236129171D03*
%TD*%
D11*
%TO.C,C53*%
X730423945Y-261780871D03*
X731823945Y-261780871D03*
%TD*%
%TO.C,C128*%
X730413785Y-263558871D03*
X731813785Y-263558871D03*
%TD*%
D10*
%TO.C,C130*%
X737539897Y-260831105D03*
X737539897Y-259431105D03*
%TD*%
%TO.C,C132*%
X739267097Y-260831105D03*
X739267097Y-259431105D03*
%TD*%
%TO.C,C134*%
X734070345Y-277822471D03*
X734070345Y-276422471D03*
%TD*%
%TO.C,C138*%
X732292345Y-277822471D03*
X732292345Y-276422471D03*
%TD*%
%TO.C,C140*%
X739470297Y-274242305D03*
X739470297Y-272842305D03*
%TD*%
%TO.C,C142*%
X737692297Y-274242305D03*
X737692297Y-272842305D03*
%TD*%
D11*
%TO.C,R17*%
X735597345Y-252571861D03*
X735597345Y-253971861D03*
%TD*%
D14*
%TO.C,U11*%
X728071325Y-235557431D03*
X729214525Y-236217431D03*
X729214525Y-237537431D03*
X728071325Y-238197431D03*
X726928125Y-237537431D03*
X726928125Y-236217431D03*
%TD*%
D10*
%TO.C,R90*%
X727925505Y-234162171D03*
X726525505Y-234162171D03*
%TD*%
%TO.C,C126*%
X731039545Y-234162171D03*
X729639545Y-234162171D03*
%TD*%
%TO.C,R108*%
X650686000Y-273516016D03*
X649286000Y-273516016D03*
%TD*%
%TO.C,R109*%
X650678380Y-271941216D03*
X649278380Y-271941216D03*
%TD*%
%TO.C,R116*%
X650678380Y-270366416D03*
X649278380Y-270366416D03*
%TD*%
%TO.C,R117*%
X640882245Y-277240571D03*
X639482245Y-277240571D03*
%TD*%
%TO.C,R118*%
X646876645Y-277189771D03*
X645476645Y-277189771D03*
%TD*%
%TO.C,R119*%
X652878665Y-277240571D03*
X651478665Y-277240571D03*
%TD*%
D12*
%TO.C,J5*%
X672487945Y-230165871D03*
X672487945Y-230815871D03*
X672487945Y-231465871D03*
X672487945Y-232115871D03*
X672487945Y-232765871D03*
X672487945Y-233415871D03*
X672487945Y-234065871D03*
X672487945Y-234715871D03*
X672487945Y-235365871D03*
X672487945Y-236015871D03*
X672487945Y-236665871D03*
X672487945Y-237315871D03*
X672487945Y-237965871D03*
X672487945Y-238615871D03*
X672487945Y-239265871D03*
X672487945Y-239915871D03*
X672487945Y-240565871D03*
X672487945Y-241215871D03*
X672487945Y-241865871D03*
X672487945Y-242515871D03*
X672487945Y-243165871D03*
X672487945Y-243815871D03*
X672487945Y-244465871D03*
X672487945Y-245115871D03*
X672487945Y-245765871D03*
X672487945Y-246415871D03*
X672487945Y-247065871D03*
X672487945Y-247715871D03*
X672487945Y-248365871D03*
X672487945Y-249015871D03*
X672487945Y-249665871D03*
X672487945Y-250315871D03*
X672487945Y-250965871D03*
X672487945Y-251615871D03*
X672487945Y-252265871D03*
X672487945Y-252915871D03*
D13*
X671762945Y-253640871D03*
X671112945Y-253640871D03*
X670462945Y-253640871D03*
X669812945Y-253640871D03*
X669162945Y-253640871D03*
X668512945Y-253640871D03*
X667862945Y-253640871D03*
X667212945Y-253640871D03*
X666562945Y-253640871D03*
X665912945Y-253640871D03*
X665262945Y-253640871D03*
X664612945Y-253640871D03*
X663962945Y-253640871D03*
X663312945Y-253640871D03*
X662662945Y-253640871D03*
X662012945Y-253640871D03*
X661362945Y-253640871D03*
X660712945Y-253640871D03*
X660062945Y-253640871D03*
X659412945Y-253640871D03*
X658762945Y-253640871D03*
X658112945Y-253640871D03*
X657462945Y-253640871D03*
X656812945Y-253640871D03*
X656162945Y-253640871D03*
X655512945Y-253640871D03*
X654862945Y-253640871D03*
X654212945Y-253640871D03*
X653562945Y-253640871D03*
X652912945Y-253640871D03*
X652262945Y-253640871D03*
X651612945Y-253640871D03*
X650962945Y-253640871D03*
X650312945Y-253640871D03*
X649662945Y-253640871D03*
X649012945Y-253640871D03*
D12*
X648287945Y-252915871D03*
X648287945Y-252265871D03*
X648287945Y-251615871D03*
X648287945Y-250965871D03*
X648287945Y-250315871D03*
X648287945Y-249665871D03*
X648287945Y-249015871D03*
X648287945Y-248365871D03*
X648287945Y-247715871D03*
X648287945Y-247065871D03*
X648287945Y-246415871D03*
X648287945Y-245765871D03*
X648287945Y-245115871D03*
X648287945Y-244465871D03*
X648287945Y-243815871D03*
X648287945Y-243165871D03*
X648287945Y-242515871D03*
X648287945Y-241865871D03*
X648287945Y-241215871D03*
X648287945Y-240565871D03*
X648287945Y-239915871D03*
X648287945Y-239265871D03*
X648287945Y-238615871D03*
X648287945Y-237965871D03*
X648287945Y-237315871D03*
X648287945Y-236665871D03*
X648287945Y-236015871D03*
X648287945Y-235365871D03*
X648287945Y-234715871D03*
X648287945Y-234065871D03*
X648287945Y-233415871D03*
X648287945Y-232765871D03*
X648287945Y-232115871D03*
X648287945Y-231465871D03*
X648287945Y-230815871D03*
X648287945Y-230165871D03*
D13*
X649012945Y-229440871D03*
X649662945Y-229440871D03*
X650312945Y-229440871D03*
X650962945Y-229440871D03*
X651612945Y-229440871D03*
X652262945Y-229440871D03*
X652912945Y-229440871D03*
X653562945Y-229440871D03*
X654212945Y-229440871D03*
X654862945Y-229440871D03*
X655512945Y-229440871D03*
X656162945Y-229440871D03*
X656812945Y-229440871D03*
X657462945Y-229440871D03*
X658112945Y-229440871D03*
X658762945Y-229440871D03*
X659412945Y-229440871D03*
X660062945Y-229440871D03*
X660712945Y-229440871D03*
X661362945Y-229440871D03*
X662012945Y-229440871D03*
X662662945Y-229440871D03*
X663312945Y-229440871D03*
X663962945Y-229440871D03*
X664612945Y-229440871D03*
X665262945Y-229440871D03*
X665912945Y-229440871D03*
X666562945Y-229440871D03*
X667212945Y-229440871D03*
X667862945Y-229440871D03*
X668512945Y-229440871D03*
X669162945Y-229440871D03*
X669812945Y-229440871D03*
X670462945Y-229440871D03*
%TD*%
D12*
%TO.C,J6*%
X711977325Y-230186191D03*
X711977325Y-230836191D03*
X711977325Y-231486191D03*
X711977325Y-232136191D03*
X711977325Y-232786191D03*
X711977325Y-233436191D03*
X711977325Y-234086191D03*
X711977325Y-234736191D03*
X711977325Y-235386191D03*
X711977325Y-236036191D03*
X711977325Y-236686191D03*
X711977325Y-237336191D03*
X711977325Y-237986191D03*
X711977325Y-238636191D03*
X711977325Y-239286191D03*
X711977325Y-239936191D03*
X711977325Y-240586191D03*
X711977325Y-241236191D03*
X711977325Y-241886191D03*
X711977325Y-242536191D03*
X711977325Y-243186191D03*
X711977325Y-243836191D03*
X711977325Y-244486191D03*
X711977325Y-245136191D03*
X711977325Y-245786191D03*
X711977325Y-246436191D03*
X711977325Y-247086191D03*
X711977325Y-247736191D03*
X711977325Y-248386191D03*
X711977325Y-249036191D03*
X711977325Y-249686191D03*
X711977325Y-250336191D03*
X711977325Y-250986191D03*
X711977325Y-251636191D03*
X711977325Y-252286191D03*
X711977325Y-252936191D03*
D13*
X711252325Y-253661191D03*
X710602325Y-253661191D03*
X709952325Y-253661191D03*
X709302325Y-253661191D03*
X708652325Y-253661191D03*
X708002325Y-253661191D03*
X707352325Y-253661191D03*
X706702325Y-253661191D03*
X706052325Y-253661191D03*
X705402325Y-253661191D03*
X704752325Y-253661191D03*
X704102325Y-253661191D03*
X703452325Y-253661191D03*
X702802325Y-253661191D03*
X702152325Y-253661191D03*
X701502325Y-253661191D03*
X700852325Y-253661191D03*
X700202325Y-253661191D03*
X699552325Y-253661191D03*
X698902325Y-253661191D03*
X698252325Y-253661191D03*
X697602325Y-253661191D03*
X696952325Y-253661191D03*
X696302325Y-253661191D03*
X695652325Y-253661191D03*
X695002325Y-253661191D03*
X694352325Y-253661191D03*
X693702325Y-253661191D03*
X693052325Y-253661191D03*
X692402325Y-253661191D03*
X691752325Y-253661191D03*
X691102325Y-253661191D03*
X690452325Y-253661191D03*
X689802325Y-253661191D03*
X689152325Y-253661191D03*
X688502325Y-253661191D03*
D12*
X687777325Y-252936191D03*
X687777325Y-252286191D03*
X687777325Y-251636191D03*
X687777325Y-250986191D03*
X687777325Y-250336191D03*
X687777325Y-249686191D03*
X687777325Y-249036191D03*
X687777325Y-248386191D03*
X687777325Y-247736191D03*
X687777325Y-247086191D03*
X687777325Y-246436191D03*
X687777325Y-245786191D03*
X687777325Y-245136191D03*
X687777325Y-244486191D03*
X687777325Y-243836191D03*
X687777325Y-243186191D03*
X687777325Y-242536191D03*
X687777325Y-241886191D03*
X687777325Y-241236191D03*
X687777325Y-240586191D03*
X687777325Y-239936191D03*
X687777325Y-239286191D03*
X687777325Y-238636191D03*
X687777325Y-237986191D03*
X687777325Y-237336191D03*
X687777325Y-236686191D03*
X687777325Y-236036191D03*
X687777325Y-235386191D03*
X687777325Y-234736191D03*
X687777325Y-234086191D03*
X687777325Y-233436191D03*
X687777325Y-232786191D03*
X687777325Y-232136191D03*
X687777325Y-231486191D03*
X687777325Y-230836191D03*
X687777325Y-230186191D03*
D13*
X688502325Y-229461191D03*
X689152325Y-229461191D03*
X689802325Y-229461191D03*
X690452325Y-229461191D03*
X691102325Y-229461191D03*
X691752325Y-229461191D03*
X692402325Y-229461191D03*
X693052325Y-229461191D03*
X693702325Y-229461191D03*
X694352325Y-229461191D03*
X695002325Y-229461191D03*
X695652325Y-229461191D03*
X696302325Y-229461191D03*
X696952325Y-229461191D03*
X697602325Y-229461191D03*
X698252325Y-229461191D03*
X698902325Y-229461191D03*
X699552325Y-229461191D03*
X700202325Y-229461191D03*
X700852325Y-229461191D03*
X701502325Y-229461191D03*
X702152325Y-229461191D03*
X702802325Y-229461191D03*
X703452325Y-229461191D03*
X704102325Y-229461191D03*
X704752325Y-229461191D03*
X705402325Y-229461191D03*
X706052325Y-229461191D03*
X706702325Y-229461191D03*
X707352325Y-229461191D03*
X708002325Y-229461191D03*
X708652325Y-229461191D03*
X709302325Y-229461191D03*
X709952325Y-229461191D03*
%TD*%
D11*
%TO.C,C28*%
X654836763Y-256423439D03*
X653846813Y-257413389D03*
%TD*%
%TO.C,C18*%
X722963145Y-216772071D03*
X724363145Y-216772071D03*
%TD*%
%TO.C,C20*%
X717719545Y-212729431D03*
X717719545Y-214129431D03*
%TD*%
D10*
%TO.C,C14*%
X739349145Y-225001671D03*
X737949145Y-225001671D03*
%TD*%
%TO.C,C16*%
X734178745Y-215897271D03*
X734178745Y-214497271D03*
%TD*%
D14*
%TO.C,U13*%
X683687185Y-191794971D03*
X684447285Y-190748771D03*
X685677085Y-191148371D03*
X685677085Y-192441571D03*
X684447285Y-192841171D03*
%TD*%
D11*
%TO.C,C22*%
X684159857Y-186991346D03*
X685559857Y-186991346D03*
%TD*%
%TO.C,C24*%
X684159857Y-188718546D03*
X685559857Y-188718546D03*
%TD*%
D12*
%TO.C,RJ1*%
X638286385Y-203662971D03*
X638286385Y-202862971D03*
X638286385Y-202062971D03*
X638286385Y-201262971D03*
D16*
X639086385Y-200462971D03*
X639886385Y-200462971D03*
X640686385Y-200462971D03*
X641486385Y-200462971D03*
D12*
X642286385Y-201262971D03*
X642286385Y-202062971D03*
X642286385Y-202862971D03*
X642286385Y-203662971D03*
D16*
X641486385Y-204462971D03*
X640686385Y-204462971D03*
X639886385Y-204462971D03*
X639086385Y-204462971D03*
%TD*%
D12*
%TO.C,U45*%
X670125485Y-194011771D03*
X670125485Y-194661771D03*
X670125485Y-195311771D03*
X670125485Y-195961771D03*
X670125485Y-196611771D03*
X670125485Y-197261771D03*
X670125485Y-197911771D03*
X670125485Y-198561771D03*
X670125485Y-199211771D03*
X670125485Y-199861771D03*
X670125485Y-200511771D03*
X670125485Y-201161771D03*
X670125485Y-201811771D03*
X670125485Y-202461771D03*
X670125485Y-203111771D03*
X670125485Y-203761771D03*
X670125485Y-204411771D03*
D13*
X669400485Y-205136771D03*
X668750485Y-205136771D03*
X668100485Y-205136771D03*
X667450485Y-205136771D03*
X666800485Y-205136771D03*
X666150485Y-205136771D03*
X665500485Y-205136771D03*
X664850485Y-205136771D03*
X664200485Y-205136771D03*
X663550485Y-205136771D03*
X662900485Y-205136771D03*
X662250485Y-205136771D03*
X661600485Y-205136771D03*
X660950485Y-205136771D03*
X660300485Y-205136771D03*
X659650485Y-205136771D03*
X659000485Y-205136771D03*
D12*
X658275485Y-204411771D03*
X658275485Y-203761771D03*
X658275485Y-203111771D03*
X658275485Y-202461771D03*
X658275485Y-201811771D03*
X658275485Y-201161771D03*
X658275485Y-200511771D03*
X658275485Y-199861771D03*
X658275485Y-199211771D03*
X658275485Y-198561771D03*
X658275485Y-197911771D03*
X658275485Y-197261771D03*
X658275485Y-196611771D03*
X658275485Y-195961771D03*
X658275485Y-195311771D03*
X658275485Y-194661771D03*
X658275485Y-194011771D03*
D13*
X659000485Y-193286771D03*
X659650485Y-193286771D03*
X660300485Y-193286771D03*
X660950485Y-193286771D03*
X661600485Y-193286771D03*
X662250485Y-193286771D03*
X662900485Y-193286771D03*
X663550485Y-193286771D03*
X664200485Y-193286771D03*
X664850485Y-193286771D03*
X665500485Y-193286771D03*
X666150485Y-193286771D03*
X666800485Y-193286771D03*
X667450485Y-193286771D03*
%TD*%
D11*
%TO.C,C68*%
X645834785Y-191490171D03*
X647234785Y-191490171D03*
%TD*%
%TO.C,C88*%
X645834785Y-193217371D03*
X647234785Y-193217371D03*
%TD*%
%TO.C,C89*%
X631959009Y-192998562D03*
X633359009Y-192998562D03*
%TD*%
%TO.C,R58*%
X635065185Y-193014171D03*
X636465185Y-193014171D03*
%TD*%
D10*
%TO.C,L1*%
X640772380Y-187003616D03*
X639372380Y-187003616D03*
%TD*%
%TO.C,C91*%
X640173980Y-190650016D03*
X640173980Y-189250016D03*
%TD*%
%TO.C,C92*%
X638446780Y-190650016D03*
X638446780Y-189250016D03*
%TD*%
%TO.C,R59*%
X643253960Y-189289616D03*
X641853960Y-189289616D03*
%TD*%
D11*
%TO.C,C93*%
X653335405Y-202920171D03*
X654735405Y-202920171D03*
%TD*%
D10*
%TO.C,C95*%
X673277405Y-195249371D03*
X671877405Y-195249371D03*
%TD*%
%TO.C,C96*%
X673277405Y-203428171D03*
X671877405Y-203428171D03*
%TD*%
D11*
%TO.C,C97*%
X653345565Y-200024571D03*
X654745565Y-200024571D03*
%TD*%
D10*
%TO.C,C98*%
X657952085Y-208039771D03*
X657952085Y-206639771D03*
%TD*%
%TO.C,C103*%
X673419645Y-200634171D03*
X672019645Y-200634171D03*
%TD*%
D11*
%TO.C,C106*%
X653431925Y-194334971D03*
X654831925Y-194334971D03*
%TD*%
%TO.C,C107*%
X659222085Y-189875771D03*
X659222085Y-191275771D03*
%TD*%
D10*
%TO.C,C108*%
X673277405Y-193471371D03*
X671877405Y-193471371D03*
%TD*%
%TO.C,R60*%
X667243405Y-191275771D03*
X667243405Y-189875771D03*
%TD*%
%TO.C,R61*%
X664144605Y-191275771D03*
X664144605Y-189875771D03*
%TD*%
%TO.C,R62*%
X673339405Y-191283391D03*
X673339405Y-189883391D03*
%TD*%
%TO.C,R63*%
X671815405Y-191275771D03*
X671815405Y-189875771D03*
%TD*%
D11*
%TO.C,R64*%
X656288385Y-206688031D03*
X656288385Y-208088031D03*
%TD*%
%TO.C,R121*%
X667243405Y-206639771D03*
X667243405Y-208039771D03*
%TD*%
%TO.C,R122*%
X668767405Y-206639771D03*
X668767405Y-208039771D03*
%TD*%
D10*
%TO.C,R127*%
X673339405Y-208039771D03*
X673339405Y-206639771D03*
%TD*%
D11*
%TO.C,R128*%
X671815405Y-206639771D03*
X671815405Y-208039771D03*
%TD*%
%TO.C,R129*%
X670291405Y-206639771D03*
X670291405Y-208039771D03*
%TD*%
%TO.C,R130*%
X671877405Y-205053771D03*
X673277405Y-205053771D03*
%TD*%
%TO.C,R131*%
X671869785Y-196925771D03*
X673269785Y-196925771D03*
%TD*%
D10*
%TO.C,R132*%
X670309185Y-191275771D03*
X670309185Y-189875771D03*
%TD*%
%TO.C,R133*%
X668785185Y-191275771D03*
X668785185Y-189875771D03*
%TD*%
%TO.C,R134*%
X665686385Y-191275771D03*
X665686385Y-189875771D03*
%TD*%
D11*
%TO.C,R135*%
X662587585Y-189868151D03*
X662587585Y-191268151D03*
%TD*%
D10*
%TO.C,X1*%
X654593048Y-188574647D03*
X653193048Y-188574647D03*
%TD*%
%TO.C,C110*%
X656726648Y-191825847D03*
X655326648Y-191825847D03*
%TD*%
D11*
%TO.C,C112*%
X651044208Y-191825847D03*
X652444208Y-191825847D03*
%TD*%
%TO.C,C94*%
X653437005Y-197687771D03*
X654837005Y-197687771D03*
%TD*%
%TO.C,C121*%
X660944205Y-189875771D03*
X660944205Y-191275771D03*
%TD*%
D12*
%TO.C,FPC2*%
X676205965Y-244703511D03*
X676855965Y-244703511D03*
X677505965Y-244703511D03*
X678155965Y-244703511D03*
X678805965Y-244703511D03*
X679455965Y-244703511D03*
X680105965Y-244703511D03*
X680755965Y-244703511D03*
X681405965Y-244703511D03*
X682055965Y-244703511D03*
X682705965Y-244703511D03*
X683355965Y-244703511D03*
X684005965Y-244703511D03*
D13*
X684730965Y-245428511D03*
X684730965Y-246078511D03*
X684730965Y-246728511D03*
X684730965Y-247378511D03*
X684730965Y-248028511D03*
X684730965Y-248678511D03*
X684730965Y-249328511D03*
X684730965Y-249978511D03*
X684730965Y-250628511D03*
X684730965Y-251278511D03*
X684730965Y-251928511D03*
X684730965Y-252578511D03*
X684730965Y-253228511D03*
D12*
X684005965Y-253953511D03*
X683355965Y-253953511D03*
X682705965Y-253953511D03*
X682055965Y-253953511D03*
X681405965Y-253953511D03*
X680755965Y-253953511D03*
X680105965Y-253953511D03*
X679455965Y-253953511D03*
X678805965Y-253953511D03*
X678155965Y-253953511D03*
X677505965Y-253953511D03*
X676855965Y-253953511D03*
X676205965Y-253953511D03*
D13*
X675480965Y-253228511D03*
X675480965Y-252578511D03*
X675480965Y-251928511D03*
X675480965Y-251278511D03*
X675480965Y-250628511D03*
X675480965Y-249978511D03*
X675480965Y-249328511D03*
X675480965Y-248678511D03*
X675480965Y-248028511D03*
X675480965Y-247378511D03*
X675480965Y-246728511D03*
X675480965Y-246078511D03*
X675480965Y-245428511D03*
%TD*%
D10*
%TO.C,C70*%
X758367405Y-231492631D03*
X756967405Y-231492631D03*
%TD*%
%TO.C,C71*%
X753983365Y-231492631D03*
X752583365Y-231492631D03*
%TD*%
%TO.C,C72*%
X753961775Y-247334242D03*
X752561775Y-247334242D03*
%TD*%
%TO.C,C73*%
X758279775Y-247334242D03*
X756879775Y-247334242D03*
%TD*%
%TO.C,C76*%
X758320415Y-258662642D03*
X756920415Y-258662642D03*
%TD*%
%TO.C,C78*%
X754037975Y-258662642D03*
X752637975Y-258662642D03*
%TD*%
%TO.C,C79*%
X754098935Y-274690042D03*
X752698935Y-274690042D03*
%TD*%
%TO.C,C80*%
X758396615Y-274690042D03*
X756996615Y-274690042D03*
%TD*%
D11*
%TO.C,R79*%
X748871940Y-268235786D03*
X750271940Y-268235786D03*
%TD*%
D14*
%TO.C,U47*%
X725680385Y-249907631D03*
X725020385Y-251050831D03*
X723700385Y-251050831D03*
X723040385Y-249907631D03*
X723700385Y-248764431D03*
X725020385Y-248764431D03*
%TD*%
D10*
%TO.C,C109*%
X725080578Y-247139158D03*
X723680578Y-247139158D03*
%TD*%
%TO.C,C111*%
X725060385Y-276506511D03*
X723660385Y-276506511D03*
%TD*%
D12*
%TO.C,U14*%
X706859985Y-240070111D03*
X706859985Y-239270111D03*
X706859985Y-238470111D03*
D16*
X707659985Y-237670111D03*
X708459985Y-237670111D03*
X709259985Y-237670111D03*
D12*
X710059985Y-238470111D03*
X710059985Y-239270111D03*
X710059985Y-240070111D03*
D16*
X709259985Y-240870111D03*
%TD*%
D10*
%TO.C,C122*%
X709137125Y-241830431D03*
X707737125Y-241830431D03*
%TD*%
D14*
%TO.C,U15*%
X720321785Y-241376571D03*
X721464985Y-242036571D03*
X721464985Y-243356571D03*
X720321785Y-244016571D03*
X719178585Y-243356571D03*
X719178585Y-242036571D03*
%TD*%
D10*
%TO.C,R143*%
X720216605Y-239953371D03*
X718816605Y-239953371D03*
%TD*%
%TO.C,C151*%
X723267145Y-239953371D03*
X721867145Y-239953371D03*
%TD*%
D14*
%TO.C,U23*%
X728073865Y-241376571D03*
X729217065Y-242036571D03*
X729217065Y-243356571D03*
X728073865Y-244016571D03*
X726930665Y-243356571D03*
X726930665Y-242036571D03*
%TD*%
D10*
%TO.C,R144*%
X727938205Y-240105771D03*
X726538205Y-240105771D03*
%TD*%
%TO.C,C152*%
X730988745Y-240054971D03*
X729588745Y-240054971D03*
%TD*%
D14*
%TO.C,U24*%
X720321785Y-235534571D03*
X721464985Y-236194571D03*
X721464985Y-237514571D03*
X720321785Y-238174571D03*
X719178585Y-237514571D03*
X719178585Y-236194571D03*
%TD*%
D10*
%TO.C,R145*%
X720201365Y-234190111D03*
X718801365Y-234190111D03*
%TD*%
%TO.C,C153*%
X723256985Y-234212971D03*
X721856985Y-234212971D03*
%TD*%
D11*
%TO.C,C155*%
X717316965Y-236131711D03*
X717316965Y-237531711D03*
%TD*%
D10*
%TO.C,C156*%
X723189445Y-237503771D03*
X723189445Y-236103771D03*
%TD*%
D11*
%TO.C,C157*%
X717418565Y-242024511D03*
X717418565Y-243424511D03*
%TD*%
D10*
%TO.C,C158*%
X723217385Y-243396571D03*
X723217385Y-241996571D03*
%TD*%
D11*
%TO.C,C159*%
X725147785Y-241996571D03*
X725147785Y-243396571D03*
%TD*%
D10*
%TO.C,C160*%
X730989785Y-243396571D03*
X730989785Y-241996571D03*
%TD*%
D14*
%TO.C,D2*%
X746211545Y-238581271D03*
X747077545Y-240081271D03*
X745345545Y-240081271D03*
%TD*%
D10*
%TO.C,C143*%
X748442345Y-236888871D03*
X747042345Y-236888871D03*
%TD*%
D11*
%TO.C,C144*%
X743953705Y-236888871D03*
X745353705Y-236888871D03*
%TD*%
D14*
%TO.C,U16*%
X762465465Y-224646571D03*
X761465465Y-223646571D03*
X762465465Y-222646571D03*
X763465465Y-223646571D03*
%TD*%
D10*
%TO.C,R146*%
X757024785Y-221908171D03*
X757024785Y-220508171D03*
%TD*%
D14*
%TO.C,U50*%
X719135605Y-190147271D03*
X720001605Y-191647271D03*
X718269605Y-191647271D03*
%TD*%
D11*
%TO.C,R147*%
X718478785Y-188543771D03*
X719878785Y-188543771D03*
%TD*%
D10*
%TO.C,R148*%
X719878785Y-186996911D03*
X718478785Y-186996911D03*
%TD*%
%TO.C,C150*%
X718205965Y-195266111D03*
X718205965Y-193866111D03*
%TD*%
D11*
%TO.C,R149*%
X719933165Y-193916911D03*
X719933165Y-195316911D03*
%TD*%
D14*
%TO.C,U25*%
X723836385Y-191083771D03*
X722336385Y-191949771D03*
X722336385Y-190217771D03*
%TD*%
D10*
%TO.C,R150*%
X723731965Y-186844511D03*
X722331965Y-186844511D03*
%TD*%
D11*
%TO.C,R151*%
X722331965Y-188419311D03*
X723731965Y-188419311D03*
%TD*%
%TO.C,R152*%
X721507965Y-193916911D03*
X721507965Y-195316911D03*
%TD*%
%TO.C,C154*%
X723235165Y-193916911D03*
X723235165Y-195316911D03*
%TD*%
D10*
%TO.C,C1*%
X733457625Y-201091371D03*
X732057625Y-201091371D03*
%TD*%
D11*
%TO.C,R1*%
X735047205Y-199414971D03*
X736447205Y-199414971D03*
%TD*%
D10*
%TO.C,R2*%
X733450005Y-199414971D03*
X732050005Y-199414971D03*
%TD*%
D14*
%TO.C,D4*%
X728336245Y-199414971D03*
X729836245Y-198548971D03*
X729836245Y-200280971D03*
%TD*%
D10*
%TO.C,C2*%
X749916825Y-201243771D03*
X748516825Y-201243771D03*
%TD*%
D11*
%TO.C,R3*%
X751506405Y-199567371D03*
X752906405Y-199567371D03*
%TD*%
D10*
%TO.C,R4*%
X749924445Y-199567371D03*
X748524445Y-199567371D03*
%TD*%
D14*
%TO.C,D5*%
X744810685Y-199567371D03*
X746310685Y-198701371D03*
X746310685Y-200433371D03*
%TD*%
D10*
%TO.C,C3*%
X733457625Y-204952171D03*
X732057625Y-204952171D03*
%TD*%
D11*
%TO.C,R5*%
X735047205Y-203275771D03*
X736447205Y-203275771D03*
%TD*%
D10*
%TO.C,R39*%
X733457625Y-203275771D03*
X732057625Y-203275771D03*
%TD*%
D14*
%TO.C,D10*%
X728336245Y-203275771D03*
X729836245Y-202409771D03*
X729836245Y-204141771D03*
%TD*%
D10*
%TO.C,C4*%
X749916825Y-205053771D03*
X748516825Y-205053771D03*
%TD*%
D11*
%TO.C,R53*%
X751506405Y-203428171D03*
X752906405Y-203428171D03*
%TD*%
D10*
%TO.C,R81*%
X749916825Y-203428171D03*
X748516825Y-203428171D03*
%TD*%
D14*
%TO.C,D11*%
X744810685Y-203428171D03*
X746310685Y-202562171D03*
X746310685Y-204294171D03*
%TD*%
D10*
%TO.C,C10*%
X733457625Y-208762171D03*
X732057625Y-208762171D03*
%TD*%
D11*
%TO.C,R83*%
X735054825Y-207136571D03*
X736454825Y-207136571D03*
%TD*%
D10*
%TO.C,R91*%
X733457625Y-207136571D03*
X732057625Y-207136571D03*
%TD*%
D14*
%TO.C,D12*%
X728336245Y-207136571D03*
X729836245Y-206270571D03*
X729836245Y-208002571D03*
%TD*%
D10*
%TO.C,C11*%
X749916825Y-208863771D03*
X748516825Y-208863771D03*
%TD*%
D11*
%TO.C,R92*%
X751506405Y-207238171D03*
X752906405Y-207238171D03*
%TD*%
D10*
%TO.C,R93*%
X749916825Y-207238171D03*
X748516825Y-207238171D03*
%TD*%
D14*
%TO.C,D13*%
X744810685Y-207238171D03*
X746310685Y-206372171D03*
X746310685Y-208104171D03*
%TD*%
D10*
%TO.C,C12*%
X733457625Y-212622971D03*
X732057625Y-212622971D03*
%TD*%
D11*
%TO.C,R94*%
X735054825Y-210946571D03*
X736454825Y-210946571D03*
%TD*%
D10*
%TO.C,R95*%
X733457625Y-210946571D03*
X732057625Y-210946571D03*
%TD*%
D14*
%TO.C,D14*%
X728336245Y-210946571D03*
X729836245Y-210080571D03*
X729836245Y-211812571D03*
%TD*%
D10*
%TO.C,C13*%
X749916825Y-212673771D03*
X748516825Y-212673771D03*
%TD*%
D11*
%TO.C,R153*%
X751455605Y-211048171D03*
X752855605Y-211048171D03*
%TD*%
D10*
%TO.C,R154*%
X749916825Y-211048171D03*
X748516825Y-211048171D03*
%TD*%
D14*
%TO.C,D15*%
X744795445Y-211048171D03*
X746295445Y-210182171D03*
X746295445Y-211914171D03*
%TD*%
D12*
%TO.C,U51*%
X720096645Y-205034971D03*
X720096645Y-205834971D03*
X720096645Y-206634971D03*
X720096645Y-207434971D03*
X720096645Y-208234971D03*
X720096645Y-209034971D03*
D13*
X719296645Y-209834971D03*
X718496645Y-209834971D03*
X717696645Y-209834971D03*
X716896645Y-209834971D03*
X716096645Y-209834971D03*
X715296645Y-209834971D03*
D12*
X714496645Y-209034971D03*
X714496645Y-208234971D03*
X714496645Y-207434971D03*
X714496645Y-206634971D03*
X714496645Y-205834971D03*
X714496645Y-205034971D03*
D13*
X715296645Y-204234971D03*
X716096645Y-204234971D03*
X716896645Y-204234971D03*
X717696645Y-204234971D03*
X718496645Y-204234971D03*
X719296645Y-204234971D03*
%TD*%
D10*
%TO.C,C19*%
X710382638Y-203101884D03*
X710382638Y-201701884D03*
%TD*%
%TO.C,C21*%
X712160638Y-203101884D03*
X712160638Y-201701884D03*
%TD*%
%TO.C,C67*%
X721855757Y-201864596D03*
X721855757Y-200464596D03*
%TD*%
%TO.C,C127*%
X723608726Y-201875003D03*
X723608726Y-200475003D03*
%TD*%
D12*
%TO.C,USB2*%
X634562245Y-236365771D03*
X634562245Y-237165771D03*
X634562245Y-237965771D03*
X634562245Y-238765771D03*
D13*
X633762245Y-239565771D03*
X632962245Y-239565771D03*
X632162245Y-239565771D03*
X631362245Y-239565771D03*
D12*
X630562245Y-238765771D03*
X630562245Y-237965771D03*
X630562245Y-237165771D03*
X630562245Y-236365771D03*
D13*
X631362245Y-235565771D03*
X632162245Y-235565771D03*
X632962245Y-235565771D03*
X633762245Y-235565771D03*
%TD*%
D11*
%TO.C,R155*%
X637693045Y-234892191D03*
X637693045Y-236292191D03*
%TD*%
D10*
%TO.C,R156*%
X637693045Y-240805771D03*
X637693045Y-239405771D03*
%TD*%
D11*
%TO.C,R157*%
X635798697Y-211871105D03*
X637198697Y-211871105D03*
%TD*%
D10*
%TO.C,C161*%
X644005897Y-240166705D03*
X642605897Y-240166705D03*
%TD*%
%TO.C,C162*%
X642219545Y-232266071D03*
X640819545Y-232266071D03*
%TD*%
D11*
%TO.C,L3*%
X750988245Y-218515771D03*
X752388245Y-218515771D03*
%TD*%
%TO.C,C164*%
X754634645Y-218516811D03*
X754634645Y-219916811D03*
%TD*%
%TO.C,L5*%
X756982645Y-218515771D03*
X758382645Y-218515771D03*
%TD*%
%TO.C,C166*%
X760629045Y-218526971D03*
X760629045Y-219926971D03*
%TD*%
%TO.C,R160*%
X762254645Y-218526971D03*
X762254645Y-219926971D03*
%TD*%
D12*
%TO.C,U54*%
X708927565Y-258948711D03*
X708927565Y-258298711D03*
X708927565Y-257648711D03*
X708927565Y-256998711D03*
X708927565Y-256348711D03*
X708927565Y-255698711D03*
X708927565Y-255048711D03*
X708927565Y-254398711D03*
X708927565Y-253748711D03*
X708927565Y-253098711D03*
X708927565Y-252448711D03*
X708927565Y-251798711D03*
D16*
X709652565Y-251073711D03*
X710302565Y-251073711D03*
X710952565Y-251073711D03*
X711602565Y-251073711D03*
X712252565Y-251073711D03*
X712902565Y-251073711D03*
X713552565Y-251073711D03*
X714202565Y-251073711D03*
X714852565Y-251073711D03*
X715502565Y-251073711D03*
X716152565Y-251073711D03*
X716802565Y-251073711D03*
D12*
X717527565Y-251798711D03*
X717527565Y-252448711D03*
X717527565Y-253098711D03*
X717527565Y-253748711D03*
X717527565Y-254398711D03*
X717527565Y-255048711D03*
X717527565Y-255698711D03*
X717527565Y-256348711D03*
X717527565Y-256998711D03*
X717527565Y-257648711D03*
X717527565Y-258298711D03*
X717527565Y-258948711D03*
D16*
X716802565Y-259673711D03*
X716152565Y-259673711D03*
X715502565Y-259673711D03*
X714852565Y-259673711D03*
X714202565Y-259673711D03*
X713552565Y-259673711D03*
X712902565Y-259673711D03*
X712252565Y-259673711D03*
X711602565Y-259673711D03*
X710952565Y-259673711D03*
X710302565Y-259673711D03*
X709652565Y-259673711D03*
%TD*%
D12*
%TO.C,U1*%
X708909785Y-275385051D03*
X708909785Y-274735051D03*
X708909785Y-274085051D03*
X708909785Y-273435051D03*
X708909785Y-272785051D03*
X708909785Y-272135051D03*
X708909785Y-271485051D03*
X708909785Y-270835051D03*
X708909785Y-270185051D03*
X708909785Y-269535051D03*
X708909785Y-268885051D03*
X708909785Y-268235051D03*
D16*
X709634785Y-267510051D03*
X710284785Y-267510051D03*
X710934785Y-267510051D03*
X711584785Y-267510051D03*
X712234785Y-267510051D03*
X712884785Y-267510051D03*
X713534785Y-267510051D03*
X714184785Y-267510051D03*
X714834785Y-267510051D03*
X715484785Y-267510051D03*
X716134785Y-267510051D03*
X716784785Y-267510051D03*
D12*
X717509785Y-268235051D03*
X717509785Y-268885051D03*
X717509785Y-269535051D03*
X717509785Y-270185051D03*
X717509785Y-270835051D03*
X717509785Y-271485051D03*
X717509785Y-272135051D03*
X717509785Y-272785051D03*
X717509785Y-273435051D03*
X717509785Y-274085051D03*
X717509785Y-274735051D03*
X717509785Y-275385051D03*
D16*
X716784785Y-276110051D03*
X716134785Y-276110051D03*
X715484785Y-276110051D03*
X714834785Y-276110051D03*
X714184785Y-276110051D03*
X713534785Y-276110051D03*
X712884785Y-276110051D03*
X712234785Y-276110051D03*
X711584785Y-276110051D03*
X710934785Y-276110051D03*
X710284785Y-276110051D03*
X709634785Y-276110051D03*
%TD*%
D10*
%TO.C,C8*%
X719577565Y-272532911D03*
X719577565Y-271132911D03*
%TD*%
D11*
%TO.C,C35*%
X705273325Y-252732111D03*
X706673325Y-252732111D03*
%TD*%
%TO.C,C36*%
X705324125Y-257913711D03*
X706724125Y-257913711D03*
%TD*%
%TO.C,C37*%
X705303805Y-254459311D03*
X706703805Y-254459311D03*
%TD*%
D10*
%TO.C,C41*%
X718143965Y-261520511D03*
X716743965Y-261520511D03*
%TD*%
D11*
%TO.C,C42*%
X705324125Y-256186511D03*
X706724125Y-256186511D03*
%TD*%
D10*
%TO.C,R18*%
X734036745Y-254002111D03*
X732636745Y-254002111D03*
%TD*%
D11*
%TO.C,R19*%
X726969545Y-256802471D03*
X728369545Y-256802471D03*
%TD*%
%TO.C,R20*%
X728431545Y-258388471D03*
X728431545Y-259788471D03*
%TD*%
D10*
%TO.C,C45*%
X728328905Y-255176871D03*
X726928905Y-255176871D03*
%TD*%
%TO.C,R22*%
X725052765Y-253697311D03*
X723652765Y-253697311D03*
%TD*%
%TO.C,R23*%
X725031897Y-259369105D03*
X723631897Y-259369105D03*
%TD*%
%TO.C,R24*%
X730615945Y-252168471D03*
X730615945Y-250768471D03*
%TD*%
%TO.C,R25*%
X738935945Y-270924871D03*
X737535945Y-270924871D03*
%TD*%
%TO.C,R26*%
X733434765Y-269292911D03*
X732034765Y-269292911D03*
%TD*%
D11*
%TO.C,R27*%
X726672365Y-271737671D03*
X728072365Y-271737671D03*
%TD*%
%TO.C,R28*%
X728126745Y-273272871D03*
X728126745Y-274672871D03*
%TD*%
D10*
%TO.C,C48*%
X728064745Y-270112071D03*
X726664745Y-270112071D03*
%TD*%
%TO.C,R29*%
X725045145Y-269038911D03*
X723645145Y-269038911D03*
%TD*%
%TO.C,R30*%
X725045145Y-274830111D03*
X723645145Y-274830111D03*
%TD*%
D11*
%TO.C,C50*%
X705263165Y-269242111D03*
X706663165Y-269242111D03*
%TD*%
%TO.C,C57*%
X705263165Y-274423711D03*
X706663165Y-274423711D03*
%TD*%
D10*
%TO.C,C59*%
X715063985Y-279238511D03*
X715063985Y-277838511D03*
%TD*%
D11*
%TO.C,C145*%
X705278649Y-270991942D03*
X706678649Y-270991942D03*
%TD*%
%TO.C,C146*%
X705263165Y-272696511D03*
X706663165Y-272696511D03*
%TD*%
D10*
%TO.C,C165*%
X718194765Y-277928911D03*
X716794765Y-277928911D03*
%TD*%
%TO.C,C167*%
X718194765Y-265736911D03*
X716794765Y-265736911D03*
%TD*%
%TO.C,R32*%
X728971985Y-250700111D03*
X727571985Y-250700111D03*
%TD*%
D11*
%TO.C,R33*%
X727567945Y-247517271D03*
X727567945Y-248917271D03*
%TD*%
D10*
%TO.C,R34*%
X721148785Y-249887311D03*
X719748785Y-249887311D03*
%TD*%
D14*
%TO.C,U6*%
X725680385Y-279300511D03*
X725020385Y-280443711D03*
X723700385Y-280443711D03*
X723040385Y-279300511D03*
X723700385Y-278157311D03*
X725020385Y-278157311D03*
%TD*%
D10*
%TO.C,R35*%
X729022785Y-280062511D03*
X727622785Y-280062511D03*
%TD*%
%TO.C,R37*%
X729030405Y-278487711D03*
X727630405Y-278487711D03*
%TD*%
%TO.C,R38*%
X721156405Y-280214911D03*
X719756405Y-280214911D03*
%TD*%
%TO.C,R40*%
X732019985Y-280062511D03*
X730619985Y-280062511D03*
%TD*%
D11*
%TO.C,R106*%
X732553145Y-214548071D03*
X732553145Y-215948071D03*
%TD*%
D10*
%TO.C,R113*%
X693448585Y-196005251D03*
X693448585Y-194605251D03*
%TD*%
%TO.C,R114*%
X694972585Y-196005251D03*
X694972585Y-194605251D03*
%TD*%
%TO.C,R161*%
X691924585Y-196005251D03*
X691924585Y-194605251D03*
%TD*%
%TO.C,R162*%
X690412640Y-196002711D03*
X690412640Y-194602711D03*
%TD*%
%TO.C,R164*%
X684355385Y-196005251D03*
X684355385Y-194605251D03*
%TD*%
%TO.C,R165*%
X682831385Y-196005251D03*
X682831385Y-194605251D03*
%TD*%
%TO.C,R167*%
X687403385Y-196005251D03*
X687403385Y-194605251D03*
%TD*%
%TO.C,R168*%
X685879385Y-196005251D03*
X685879385Y-194605251D03*
%TD*%
%TO.C,R170*%
X717140895Y-249071161D03*
X716150945Y-248081211D03*
%TD*%
%TO.C,R171*%
X716939520Y-280834186D03*
X715539520Y-280834186D03*
%TD*%
D11*
%TO.C,R112*%
X740985945Y-223488871D03*
X740985945Y-224888871D03*
%TD*%
D14*
%TO.C,D16*%
X746262345Y-267911671D03*
X745396345Y-266411671D03*
X747128345Y-266411671D03*
%TD*%
D11*
%TO.C,C23*%
X744129785Y-269858071D03*
X745529785Y-269858071D03*
%TD*%
D10*
%TO.C,C168*%
X748577785Y-269858071D03*
X747177785Y-269858071D03*
%TD*%
%TO.C,R47*%
X679870257Y-192833346D03*
X678470257Y-192833346D03*
%TD*%
%TO.C,R48*%
X679862637Y-194357346D03*
X678462637Y-194357346D03*
%TD*%
%TO.C,R54*%
X679862637Y-195881346D03*
X678462637Y-195881346D03*
%TD*%
D14*
%TO.C,D18*%
X758487180Y-197591096D03*
X759353180Y-199091096D03*
X757621180Y-199091096D03*
%TD*%
%TO.C,D19*%
X760823980Y-197586016D03*
X761689980Y-199086016D03*
X759957980Y-199086016D03*
%TD*%
%TO.C,D20*%
X758487180Y-200938816D03*
X759353180Y-202438816D03*
X757621180Y-202438816D03*
%TD*%
%TO.C,D21*%
X760823980Y-200938816D03*
X761689980Y-202438816D03*
X759957980Y-202438816D03*
%TD*%
%TO.C,D22*%
X758487180Y-204291616D03*
X759353180Y-205791616D03*
X757621180Y-205791616D03*
%TD*%
%TO.C,D23*%
X760823980Y-204291616D03*
X761689980Y-205791616D03*
X759957980Y-205791616D03*
%TD*%
%TO.C,D24*%
X758487180Y-207644416D03*
X759353180Y-209144416D03*
X757621180Y-209144416D03*
%TD*%
%TO.C,D25*%
X760823980Y-207644416D03*
X761689980Y-209144416D03*
X759957980Y-209144416D03*
%TD*%
%TO.C,RF7*%
X763346380Y-213826016D03*
X762586280Y-214872216D03*
X761356480Y-214472616D03*
X761356480Y-213179416D03*
X762586280Y-212779816D03*
%TD*%
D10*
%TO.C,C172*%
X645090380Y-219515616D03*
X643690380Y-219515616D03*
%TD*%
%TO.C,C119*%
X645125940Y-221842256D03*
X643725940Y-221842256D03*
%TD*%
%TO.C,C173*%
X645141180Y-224189216D03*
X643741180Y-224189216D03*
%TD*%
D14*
%TO.C,U58*%
X632503180Y-273142416D03*
X631258680Y-272626916D03*
X630743180Y-271382416D03*
X631258680Y-270137916D03*
X632503180Y-269622416D03*
X633747680Y-270137916D03*
X634263180Y-271382416D03*
X633747680Y-272626916D03*
%TD*%
%TO.C,LED8*%
X645711180Y-270992016D03*
X646711180Y-271992016D03*
X645711180Y-272992016D03*
X644711180Y-271992016D03*
%TD*%
%TO.C,U59*%
X643356697Y-237913505D03*
X642112197Y-237398005D03*
X641596697Y-236153505D03*
X642112197Y-234909005D03*
X643356697Y-234393505D03*
X644601197Y-234909005D03*
X645116697Y-236153505D03*
X644601197Y-237398005D03*
%TD*%
D12*
%TO.C,J7*%
X678253145Y-186622471D03*
X679053145Y-186622471D03*
X679853145Y-186622471D03*
D13*
X680653145Y-187422471D03*
X680653145Y-188222471D03*
X680653145Y-189022471D03*
D12*
X679853145Y-189822471D03*
X679053145Y-189822471D03*
X678253145Y-189822471D03*
%TD*%
%TO.C,J8*%
X678253145Y-276640071D03*
X679053145Y-276640071D03*
X679853145Y-276640071D03*
D13*
X680653145Y-277440071D03*
X680653145Y-278240071D03*
X680653145Y-279040071D03*
D12*
X679853145Y-279840071D03*
X679053145Y-279840071D03*
X678253145Y-279840071D03*
%TD*%
D10*
%TO.C,SW2*%
X631788400Y-264300541D03*
X630388400Y-264300541D03*
%TD*%
D11*
%TO.C,SW1*%
X636230400Y-264300541D03*
X637630400Y-264300541D03*
%TD*%
D10*
%TO.C,SW3*%
X640221845Y-279780571D03*
X638821845Y-279780571D03*
%TD*%
%TO.C,SW4*%
X646218785Y-279780571D03*
X644818785Y-279780571D03*
%TD*%
%TO.C,SW5*%
X652213185Y-279780571D03*
X650813185Y-279780571D03*
%TD*%
D14*
%TO.C,JK1*%
X771779097Y-246805505D03*
X770779097Y-245805505D03*
X771779097Y-244805505D03*
X772779097Y-245805505D03*
%TD*%
%TO.C,JK2*%
X771880697Y-268446305D03*
X770880697Y-267446305D03*
X771880697Y-266446305D03*
X772880697Y-267446305D03*
%TD*%
%TO.C,JK3*%
X771819737Y-225113905D03*
X770819737Y-224113905D03*
X771819737Y-223113905D03*
X772819737Y-224113905D03*
%TD*%
D10*
%TO.C,C46*%
X723590765Y-257231951D03*
X723590765Y-255831951D03*
%TD*%
%TO.C,C49*%
X723590765Y-272624351D03*
X723590765Y-271224351D03*
%TD*%
D11*
%TO.C,C125*%
X716305497Y-186990305D03*
X716305497Y-188390305D03*
%TD*%
%TO.C,R115*%
X710533117Y-192008305D03*
X711933117Y-192008305D03*
%TD*%
D17*
%TO.C,TP2*%
X715289497Y-228736705D03*
%TD*%
%TO.C,TP1*%
X715289497Y-233613505D03*
%TD*%
%TO.C,TP3*%
X715289497Y-236305905D03*
%TD*%
%TO.C,TP4*%
X715289497Y-241487505D03*
%TD*%
%TO.C,TP5*%
X715289497Y-238896705D03*
%TD*%
%TO.C,TP7*%
X715289497Y-231124305D03*
%TD*%
%TO.C,U60*%
X764413097Y-188045905D03*
%TD*%
D14*
%TO.C,SW7*%
X633755497Y-222861505D03*
X634801697Y-223621605D03*
X634402097Y-224851405D03*
X633108897Y-224851405D03*
X632709297Y-223621605D03*
%TD*%
%TO.C,Q4*%
X763279497Y-234578705D03*
X761779497Y-235444705D03*
X761779497Y-233712705D03*
%TD*%
%TO.C,Q1*%
X763365857Y-262823505D03*
X761865857Y-263689505D03*
X761865857Y-261957505D03*
%TD*%
D11*
%TO.C,R21*%
X765073497Y-263843085D03*
X765073497Y-265243085D03*
%TD*%
D14*
%TO.C,Q2*%
X737641497Y-250971105D03*
X736775497Y-249471105D03*
X738507497Y-249471105D03*
%TD*%
D11*
%TO.C,R31*%
X737133497Y-252573105D03*
X737133497Y-253973105D03*
%TD*%
%TO.C,LED11*%
X631125097Y-246567505D03*
X632525097Y-246567505D03*
%TD*%
%TO.C,LED1*%
X631785497Y-213344305D03*
X633185497Y-213344305D03*
%TD*%
D17*
%TO.C,U9*%
X638378297Y-215020705D03*
%TD*%
%TO.C,U17*%
X744702697Y-223707505D03*
%TD*%
D14*
%TO.C,CN1*%
X644161145Y-228319671D03*
X645161145Y-229319671D03*
X644161145Y-230319671D03*
X643161145Y-229319671D03*
%TD*%
D10*
%TO.C,C171*%
X688872017Y-192884146D03*
X687472017Y-192884146D03*
%TD*%
D15*
%TO.C,P2*%
X751547897Y-196402305D03*
X750747897Y-196402305D03*
X749947897Y-196402305D03*
D16*
X749147897Y-195602305D03*
X749147897Y-194802305D03*
X749147897Y-194002305D03*
D15*
X749947897Y-193202305D03*
X750747897Y-193202305D03*
X751547897Y-193202305D03*
D16*
X752347897Y-194002305D03*
%TD*%
D12*
%TO.C,U65*%
X714163945Y-222270871D03*
X714163945Y-221470871D03*
X714163945Y-220670871D03*
X714163945Y-219870871D03*
X714163945Y-219070871D03*
X714163945Y-218270871D03*
X714163945Y-217470871D03*
D16*
X714963945Y-216670871D03*
X715763945Y-216670871D03*
X716563945Y-216670871D03*
X717363945Y-216670871D03*
X718163945Y-216670871D03*
X718963945Y-216670871D03*
X719763945Y-216670871D03*
D12*
X720563945Y-217470871D03*
X720563945Y-218270871D03*
X720563945Y-219070871D03*
X720563945Y-219870871D03*
X720563945Y-220670871D03*
X720563945Y-221470871D03*
X720563945Y-222270871D03*
D16*
X719763945Y-223070871D03*
X718963945Y-223070871D03*
X718163945Y-223070871D03*
X717363945Y-223070871D03*
X716563945Y-223070871D03*
X715763945Y-223070871D03*
X714963945Y-223070871D03*
%TD*%
D10*
%TO.C,R97*%
X733956725Y-219108871D03*
X732556725Y-219108871D03*
%TD*%
%TO.C,R98*%
X733964345Y-220632871D03*
X732564345Y-220632871D03*
%TD*%
D11*
%TO.C,R99*%
X736159945Y-213735271D03*
X736159945Y-215135271D03*
%TD*%
D10*
%TO.C,R36*%
X739399945Y-215146471D03*
X737999945Y-215146471D03*
%TD*%
D11*
%TO.C,R41*%
X730724345Y-215571691D03*
X730724345Y-216971691D03*
%TD*%
%TO.C,R42*%
X730778725Y-222766471D03*
X732178725Y-222766471D03*
%TD*%
D10*
%TO.C,R43*%
X741290745Y-216557671D03*
X741290745Y-215157671D03*
%TD*%
D11*
%TO.C,L2*%
X744959545Y-218499271D03*
X746359545Y-218499271D03*
%TD*%
%TO.C,C5*%
X748605945Y-218510471D03*
X748605945Y-219910471D03*
%TD*%
%TO.C,R44*%
X742662345Y-218662871D03*
X742662345Y-220062871D03*
%TD*%
D10*
%TO.C,R55*%
X741087545Y-220055251D03*
X741087545Y-218655251D03*
%TD*%
D11*
%TO.C,C6*%
X722912345Y-224493671D03*
X724312345Y-224493671D03*
%TD*%
D10*
%TO.C,R82*%
X724355525Y-222817271D03*
X722955525Y-222817271D03*
%TD*%
%TO.C,R96*%
X727301925Y-222817271D03*
X725901925Y-222817271D03*
%TD*%
%TO.C,C7*%
X724363145Y-221191671D03*
X722963145Y-221191671D03*
%TD*%
D11*
%TO.C,C9*%
X722963145Y-218499271D03*
X724363145Y-218499271D03*
%TD*%
%TO.C,C15*%
X730724345Y-219170871D03*
X730724345Y-220570871D03*
%TD*%
D12*
%TO.C,H2*%
X763109545Y-203500471D03*
X763109545Y-202700471D03*
X763109545Y-201900471D03*
D16*
X763909545Y-201100471D03*
X764709545Y-201100471D03*
X765509545Y-201100471D03*
D12*
X766309545Y-201900471D03*
X766309545Y-202700471D03*
X766309545Y-203500471D03*
D16*
X765509545Y-204300471D03*
%TD*%
D12*
%TO.C,JN6*%
X732629145Y-189810071D03*
X732629145Y-190610071D03*
X732629145Y-191410071D03*
D13*
X731829145Y-192210071D03*
X731029145Y-192210071D03*
X730229145Y-192210071D03*
D12*
X729429145Y-191410071D03*
X729429145Y-190610071D03*
X729429145Y-189810071D03*
D13*
X730229145Y-189010071D03*
%TD*%
D14*
%TO.C,U19*%
X735669945Y-220023271D03*
X736185445Y-218778771D03*
X737429945Y-218263271D03*
X738674445Y-218778771D03*
X739189945Y-220023271D03*
X738674445Y-221267771D03*
X737429945Y-221783271D03*
X736185445Y-221267771D03*
%TD*%
D12*
%TO.C,U67*%
X648479145Y-223534471D03*
X648479145Y-222734471D03*
X648479145Y-221934471D03*
X648479145Y-221134471D03*
X648479145Y-220334471D03*
X648479145Y-219534471D03*
X648479145Y-218734471D03*
X648479145Y-217934471D03*
D16*
X649279145Y-217134471D03*
X650079145Y-217134471D03*
X650879145Y-217134471D03*
X651679145Y-217134471D03*
X652479145Y-217134471D03*
X653279145Y-217134471D03*
X654079145Y-217134471D03*
X654879145Y-217134471D03*
D12*
X655679145Y-217934471D03*
X655679145Y-218734471D03*
X655679145Y-219534471D03*
X655679145Y-220334471D03*
X655679145Y-221134471D03*
X655679145Y-221934471D03*
X655679145Y-222734471D03*
X655679145Y-223534471D03*
D16*
X654879145Y-224334471D03*
X654079145Y-224334471D03*
X653279145Y-224334471D03*
X652479145Y-224334471D03*
X651679145Y-224334471D03*
X650879145Y-224334471D03*
%TD*%
D17*
%TO.C,U68*%
X710404345Y-234450471D03*
%TD*%
%TO.C,U27*%
X739404345Y-234450471D03*
%TD*%
%TO.C,U28*%
X739404345Y-278247470D03*
%TD*%
D14*
%TO.C,U69*%
X734712745Y-257920071D03*
X734197245Y-259164571D03*
X732952745Y-259680071D03*
X731708245Y-259164571D03*
X731192745Y-257920071D03*
X731708245Y-256675571D03*
X732952745Y-256160071D03*
X734197245Y-256675571D03*
%TD*%
%TO.C,U2*%
X734557805Y-272829871D03*
X734042305Y-274074371D03*
X732797805Y-274589871D03*
X731553305Y-274074371D03*
X731037805Y-272829871D03*
X731553305Y-271585371D03*
X732797805Y-271069871D03*
X734042305Y-271585371D03*
%TD*%
D11*
%TO.C,C17*%
X762783545Y-242426071D03*
X764183545Y-242426071D03*
%TD*%
%TO.C,C51*%
X762895305Y-270112071D03*
X764295305Y-270112071D03*
%TD*%
D14*
%TO.C,RF2*%
X765651943Y-235609979D03*
X766651943Y-236609979D03*
X765651943Y-237609979D03*
X764651943Y-236609979D03*
%TD*%
%TO.C,U70*%
X743823945Y-243460071D03*
X745068445Y-243975571D03*
X745583945Y-245220071D03*
X745068445Y-246464571D03*
X743823945Y-246980071D03*
X742579445Y-246464571D03*
X742063945Y-245220071D03*
X742579445Y-243975571D03*
%TD*%
%TO.C,U5*%
X745601945Y-264252071D03*
X744357445Y-263736571D03*
X743841945Y-262492071D03*
X744357445Y-261247571D03*
X745601945Y-260732071D03*
X746846445Y-261247571D03*
X747361945Y-262492071D03*
X746846445Y-263736571D03*
%TD*%
%TO.C,RF3*%
X763788345Y-257377271D03*
X764788345Y-258377271D03*
X763788345Y-259377271D03*
X762788345Y-258377271D03*
%TD*%
%TO.C,RF6*%
X738759945Y-254465671D03*
X739759945Y-253465671D03*
X740759945Y-254465671D03*
X739759945Y-255465671D03*
%TD*%
%TO.C,RF1*%
X749705956Y-245792974D03*
X750705956Y-246792974D03*
X749705956Y-247792974D03*
X748705956Y-246792974D03*
%TD*%
%TO.C,RF4*%
X733222745Y-250198471D03*
X734222745Y-249198471D03*
X735222745Y-250198471D03*
X734222745Y-251198471D03*
%TD*%
%TO.C,RF5*%
X741826745Y-268740471D03*
X740826745Y-269740471D03*
X739826745Y-268740471D03*
X740826745Y-267740471D03*
%TD*%
%TO.C,RF9*%
X738759945Y-257208871D03*
X739759945Y-256208871D03*
X740759945Y-257208871D03*
X739759945Y-258208871D03*
%TD*%
M02*
