M48
; DRILL file KiCad 10.99.0-unknown date 2026-08-12T15:23:39
; FORMAT={-:-/ absolute / metric / decimal}
; #@! TF.CreationDate,2026-08-12T15:23:39+08:00
; #@! TF.GenerationSoftware,Kicad,Pcbnew,10.99.0-unknown
; #@! TF.FileFunction,MixedPlating,1,4
FMAT,2
METRIC
; #@! TA.AperFunction,Plated,PTH,ViaDrill
T1C0.305
%
G90
G05
T1
X628.236Y-270.722
X628.508Y-265.833
X631.335Y-273.313
X631.419Y-191.856
X632.282Y-262.823
X632.757Y-202.244
X633.147Y-271.887
X633.468Y-236.584
X633.57Y-255.482
X633.57Y-256.955
X633.621Y-238.007
X633.654Y-249.107
X634.568Y-240.776
X634.948Y-243.239
X635.737Y-233.918
X635.737Y-265.668
X635.991Y-252.765
X636.092Y-251.597
X636.092Y-258.76
X636.143Y-280.654
X636.208Y-243.239
X636.651Y-260.893
X637.591Y-243.239
X637.99Y-201.786
X638.315Y-258.809
X638.331Y-277.246
X638.429Y-233.41
X639.067Y-251.97
X639.073Y-243.239
X639.496Y-250.123
X639.728Y-254.916
X640.134Y-264.315
X640.243Y-265.376
X640.385Y-271.094
X640.428Y-206.765
X640.555Y-243.239
X640.707Y-231.098
X640.82Y-259.008
X640.871Y-260.024
X641.223Y-240.776
X641.252Y-271.68
X641.342Y-191.22
X641.361Y-262.983
X641.455Y-265.839
X641.688Y-243.488
X641.706Y-260.731
X641.716Y-251.152
X641.948Y-244.671
X641.948Y-245.856
X641.948Y-247.06
X642.064Y-277.218
X642.129Y-228.05
X642.231Y-231.352
X642.308Y-188.426
X642.42Y-250.395
X642.776Y-264.518
X642.849Y-237.728
X643.019Y-212.048
X643.087Y-268.932
X643.094Y-228.05
X643.098Y-253.425
X643.149Y-254.695
X643.149Y-256.016
X643.149Y-257.286
X643.324Y-190.356
X643.56Y-241.386
X643.984Y-188.223
X644.009Y-228.05
X644.009Y-228.761
X644.245Y-277.19
X644.322Y-278.368
X644.47Y-253.425
X644.521Y-254.695
X644.521Y-256.016
X644.521Y-257.286
X645.152Y-190.306
X645.592Y-218.119
X645.943Y-253.425
X645.994Y-254.695
X645.994Y-256.016
X645.994Y-257.286
X646.659Y-218.119
X647.311Y-216.823
X647.337Y-216.214
X647.518Y-253.425
X647.569Y-254.695
X647.569Y-256.016
X647.569Y-257.286
X647.615Y-214.74
X647.743Y-273.821
X648.059Y-277.218
X649.354Y-259.923
X649.773Y-187.486
X649.773Y-189.204
X649.773Y-190.886
X650.278Y-277.218
X650.367Y-278.419
X650.393Y-251.942
X650.472Y-198.455
X650.523Y-194.188
X650.788Y-186.309
X650.86Y-261.225
X650.904Y-247.906
X650.98Y-250.626
X651.476Y-224.544
X651.488Y-263.58
X651.512Y-213.114
X651.512Y-214.385
X651.52Y-211.844
X651.52Y-229.624
X651.529Y-223.274
X651.536Y-222.004
X651.544Y-225.814
X651.549Y-228.355
X651.55Y-227.084
X651.551Y-218.194
X651.558Y-219.464
X651.558Y-220.734
X651.909Y-197.164
X651.945Y-193.476
X651.996Y-203.636
X652.275Y-202.542
X652.403Y-186.309
X652.569Y-200.059
X652.841Y-230.641
X653.044Y-260.397
X653.215Y-244.327
X653.469Y-241.94
X653.52Y-263.58
X653.857Y-230.641
X653.926Y-205.364
X653.926Y-208.855
X654.111Y-186.309
X654.256Y-276.456
X654.358Y-200.611
X654.485Y-239.603
X654.736Y-257.896
X654.79Y-244.327
X654.873Y-230.641
X654.942Y-261.142
X654.993Y-241.94
X655.095Y-237.164
X655.244Y-255.203
X655.399Y-263.58
X655.414Y-270.925
X655.414Y-271.941
X655.414Y-272.957
X655.432Y-211.844
X655.45Y-277.703
X655.468Y-228.355
X655.753Y-186.309
X656.06Y-251.541
X656.06Y-261.142
X656.111Y-205.364
X656.161Y-256.418
X656.194Y-209.003
X656.254Y-244.327
X656.316Y-239.603
X656.408Y-241.94
X656.412Y-253.984
X656.415Y-246.715
X656.415Y-249.153
X656.517Y-237.164
X656.76Y-217.94
X656.81Y-219.566
X656.81Y-221.141
X657.076Y-277.703
X657.108Y-209.003
X657.393Y-186.309
X657.431Y-204.449
X658.003Y-187.698
X658.003Y-189.274
X658.003Y-190.881
X658.124Y-209.003
X658.327Y-205.853
X658.6Y-277.703
X658.803Y-203.586
X658.886Y-212.149
X659.089Y-209.003
X659.445Y-213.267
X659.884Y-227.644
X660.124Y-188.803
X660.305Y-277.703
X660.342Y-229.168
X660.36Y-209.003
X660.388Y-219.215
X660.388Y-230.636
X660.388Y-232.404
X660.388Y-234.054
X660.388Y-235.646
X660.388Y-237.257
X660.388Y-238.858
X660.388Y-240.43
X660.388Y-242.061
X660.388Y-243.662
X660.388Y-245.215
X660.388Y-246.836
X660.388Y-248.457
X660.388Y-251.62
X660.388Y-253.212
X660.388Y-254.823
X660.388Y-256.444
X660.388Y-258.038
X660.388Y-259.657
X660.388Y-261.139
X660.388Y-262.85
X660.388Y-264.422
X660.388Y-266.033
X660.388Y-267.615
X660.41Y-269.135
X660.799Y-227.237
X661.071Y-249.944
X661.223Y-205.599
X661.223Y-212.798
X661.305Y-201.955
X661.343Y-196.524
X661.356Y-197.891
X661.356Y-199.212
X661.356Y-200.634
X661.572Y-190.909
X661.833Y-209.003
X662.003Y-277.703
X662.676Y-201.955
X662.715Y-196.524
X662.727Y-197.891
X662.727Y-199.212
X662.727Y-200.634
X663.357Y-188.21
X664.068Y-204.939
X664.15Y-201.955
X664.169Y-265.935
X664.188Y-196.524
X664.2Y-197.891
X664.2Y-199.212
X664.2Y-200.634
X664.239Y-237.164
X664.239Y-239.552
X664.239Y-241.94
X664.239Y-244.327
X664.304Y-258.733
X664.322Y-220.331
X664.322Y-253.946
X664.322Y-256.333
X664.423Y-251.202
X664.442Y-231.526
X664.442Y-249.407
X664.525Y-205.599
X664.924Y-189.814
X665.001Y-246.766
X665.338Y-205.193
X665.61Y-239.552
X665.61Y-241.94
X665.61Y-244.327
X665.63Y-237.164
X665.724Y-201.955
X665.763Y-196.524
X665.775Y-197.891
X665.775Y-199.212
X665.775Y-200.634
X665.846Y-220.331
X666.202Y-205.803
X666.347Y-261.927
X666.347Y-261.927
X667.198Y-201.955
X667.2Y-235.975
X667.236Y-196.524
X667.248Y-197.891
X667.248Y-199.212
X667.248Y-200.634
X667.352Y-232.419
X668.419Y-231.657
X668.76Y-209.072
X669.242Y-253.138
X669.242Y-255.526
X669.242Y-257.964
X669.242Y-257.964
X669.242Y-260.352
X669.242Y-260.352
X669.471Y-185.501
X670.316Y-208.988
X670.335Y-189.006
X670.512Y-252.326
X670.512Y-254.764
X670.512Y-257.152
X670.512Y-259.539
X670.512Y-259.539
X670.665Y-204.015
X671.706Y-188.854
X671.782Y-209.095
X672.316Y-200.233
X672.341Y-194.414
X672.57Y-188.955
X673.364Y-208.988
X673.567Y-192.341
X673.905Y-186.851
X673.916Y-190.776
X674.125Y-189.391
X674.228Y-203.771
X674.228Y-204.736
X674.243Y-200.898
X674.449Y-194.391
X674.482Y-192.579
X674.954Y-196.174
X675.11Y-186.422
X677.428Y-192.388
X678.795Y-227.58
X679.003Y-246.326
X679.569Y-228.355
X679.62Y-226.729
X679.772Y-225.51
X679.834Y-246.308
X679.873Y-223.884
X680.534Y-224.697
X680.585Y-223.071
X681.085Y-197.214
X682.882Y-196.931
X683.879Y-185.378
X684.355Y-196.931
X684.896Y-232.774
X685.041Y-185.371
X685.041Y-186.133
X685.15Y-234.349
X686.006Y-185.371
X686.006Y-186.133
X686.166Y-233.485
X686.217Y-232.012
X687.402Y-196.931
X689.788Y-191.919
X690.197Y-188.244
X691.671Y-236.352
X691.671Y-240.365
X691.925Y-196.88
X692.458Y-269.14
X692.661Y-267.566
X693.017Y-265.94
X693.449Y-196.88
X693.483Y-236.352
X693.488Y-225.865
X693.499Y-240.365
X693.499Y-244.378
X693.576Y-268.328
X693.779Y-266.753
X694.055Y-259.572
X694.287Y-265.178
X694.973Y-190.276
X695.263Y-236.352
X695.277Y-240.365
X695.277Y-244.378
X695.325Y-256.677
X695.513Y-191.665
X695.782Y-248.752
X695.869Y-264.36
X696.529Y-213.052
X696.725Y-187.861
X697.69Y-187.861
X697.97Y-210.545
X699.407Y-193.049
X699.877Y-215.926
X699.877Y-217.576
X699.877Y-219.168
X699.877Y-220.779
X699.877Y-222.381
X699.877Y-225.583
X699.877Y-227.58
X699.877Y-230.358
X699.877Y-231.979
X699.877Y-233.532
X699.877Y-235.143
X699.877Y-236.735
X699.877Y-238.346
X699.877Y-239.967
X699.877Y-241.561
X699.877Y-243.179
X699.877Y-244.751
X699.877Y-246.372
X699.897Y-249.006
X700.651Y-226.78
X700.651Y-228.355
X700.745Y-196.151
X701.551Y-213.057
X702.618Y-213.057
X703.235Y-262.749
X703.336Y-192.782
X703.492Y-242.756
X703.495Y-231.555
X703.609Y-269.168
X703.796Y-237.168
X704.015Y-221.975
X704.345Y-190.654
X704.354Y-210.545
X704.406Y-236.457
X704.929Y-186.923
X705.269Y-273.559
X705.284Y-270.109
X705.841Y-242.3
X706.079Y-232.368
X706.283Y-191.462
X706.349Y-258.861
X706.352Y-255.3
X706.692Y-236.863
X706.696Y-271.839
X707.009Y-250.835
X707.146Y-234.603
X707.292Y-265.584
X707.393Y-275.107
X707.596Y-268.836
X707.749Y-267.566
X707.759Y-240.927
X707.771Y-251.597
X707.864Y-229.167
X707.923Y-191.004
X708.017Y-237.956
X708.282Y-212.831
X708.559Y-193.522
X708.866Y-265.889
X709.083Y-230.082
X709.171Y-202.593
X709.385Y-187.689
X709.385Y-188.349
X709.552Y-212.831
X709.984Y-265.33
X710.111Y-270.06
X710.274Y-273.56
X710.301Y-271.061
X710.309Y-272.559
X710.616Y-190.84
X710.651Y-254.624
X710.771Y-253.166
X710.905Y-255.571
X711.058Y-194.776
X711.305Y-265.026
X711.581Y-237.373
X711.635Y-268.965
X711.889Y-256.773
X712.575Y-264.416
X712.899Y-271.033
X713.054Y-200.301
X713.293Y-273.199
X713.54Y-265.229
X714.277Y-274.807
X714.324Y-281.225
X714.327Y-254.081
X714.429Y-187.279
X714.462Y-227.135
X714.48Y-252.557
X714.556Y-264.822
X714.68Y-249.819
X714.766Y-243.239
X714.81Y-268.937
X714.861Y-258.066
X714.904Y-266.245
X715.02Y-271.218
X715.63Y-272.64
X715.789Y-255.634
X716.207Y-270.54
X716.24Y-278.955
X716.258Y-246.359
X716.297Y-216.518
X716.547Y-231.225
X716.687Y-244.271
X716.74Y-238.153
X716.817Y-212.018
X717.147Y-195.226
X717.223Y-206.634
X717.223Y-208.005
X717.223Y-209.478
X717.271Y-259.725
X717.274Y-262.818
X717.274Y-264.495
X717.309Y-279.078
X717.325Y-235.082
X717.375Y-267.492
X717.423Y-241.195
X717.713Y-204.009
X717.814Y-191.919
X718.032Y-281.124
X718.221Y-229.425
X718.224Y-249.665
X718.493Y-251.846
X718.62Y-280.215
X718.634Y-224.24
X718.645Y-203.636
X718.678Y-241.042
X718.762Y-279.053
X718.798Y-246.461
X718.83Y-194.881
X718.888Y-220.836
X719.56Y-214.05
X719.745Y-235.2
X719.879Y-278.494
X719.999Y-229.679
X720.184Y-200.974
X720.608Y-271.128
X720.649Y-238.226
X720.881Y-244.784
X721.133Y-186.997
X721.218Y-272.347
X721.827Y-255.888
X722.234Y-281.073
X722.278Y-232.412
X722.3Y-254.594
X722.379Y-275.897
X722.709Y-196.474
X722.793Y-229.425
X723.192Y-214.026
X723.199Y-238.264
X723.199Y-244.599
X723.656Y-251.761
X723.91Y-242.02
X724.215Y-236.521
X724.36Y-279.97
X724.367Y-233.981
X724.462Y-194.82
X724.538Y-249.915
X724.572Y-232.385
X724.628Y-191.22
X724.672Y-244.548
X724.723Y-238.655
X724.774Y-240.23
X724.843Y-228.071
X725.434Y-234.591
X725.492Y-217.585
X725.746Y-221.192
X725.79Y-229.308
X725.79Y-272.5
X725.942Y-246.224
X725.942Y-256.803
X726.196Y-265.896
X726.196Y-277.161
X727.164Y-206.231
X727.266Y-209.99
X727.314Y-268.944
X727.415Y-254.059
X727.625Y-197.722
X727.815Y-241.099
X727.866Y-230.126
X727.916Y-235.917
X728.438Y-222.817
X728.533Y-264.321
X729.197Y-204.199
X729.197Y-211.921
X729.247Y-213.982
X729.247Y-208.06
X729.45Y-200.643
X729.552Y-202.015
X729.999Y-232.514
X729.999Y-277.573
X730.165Y-195.182
X731.073Y-233.016
X731.429Y-244.512
X731.435Y-214.435
X731.479Y-278.037
X731.53Y-241.007
X731.53Y-264.423
X731.694Y-239.661
X731.853Y-230.306
X732.191Y-237.537
X732.292Y-235.607
X732.495Y-250.249
X732.858Y-223.833
X733.105Y-251.265
X733.2Y-264.518
X733.207Y-242.937
X733.225Y-228.376
X733.225Y-245.8
X733.359Y-262.899
X734.124Y-248.395
X734.578Y-239.737
X735.239Y-276.411
X735.296Y-193.15
X735.347Y-188.07
X735.55Y-221.344
X735.747Y-238.706
X736.051Y-268.994
X736.509Y-247.1
X736.769Y-225.256
X737.133Y-255.051
X737.158Y-265.317
X737.172Y-264.499
X737.172Y-266.124
X737.227Y-213.673
X737.387Y-244.21
X737.401Y-243.391
X737.401Y-245.017
X737.423Y-242.277
X738.559Y-267.746
X738.591Y-251.926
X738.591Y-253.653
X738.642Y-255.837
X739.099Y-247.912
X739.106Y-196.96
X739.861Y-261.578
X740.072Y-221.192
X740.166Y-259.444
X740.573Y-272.855
X740.573Y-274.278
X740.623Y-266.15
X741.335Y-227.542
X741.436Y-252.332
X741.799Y-199.5
X741.995Y-267.724
X741.995Y-269.706
X742.3Y-241.207
X742.357Y-198.535
X742.605Y-268.74
X742.655Y-227.631
X742.808Y-266.099
X742.909Y-255.786
X743.316Y-240.292
X743.704Y-202.447
X743.704Y-206.308
X743.755Y-210.118
X743.766Y-200.51
X743.766Y-208.18
X743.766Y-211.99
X743.817Y-204.37
X744.129Y-270.722
X744.147Y-273.436
X745.246Y-239.073
X746.212Y-236.889
X746.356Y-269.858
X747.126Y-239.073
X747.191Y-258.942
X748.606Y-220.938
X748.955Y-245.322
X749.361Y-269.858
X750.472Y-235.612
X751.806Y-198.382
X752.003Y-261.108
X752.104Y-264.426
X752.206Y-246.123
X752.377Y-257.027
X752.377Y-276.28
X752.529Y-252.963
X753.273Y-261.937
X753.593Y-234.579
X753.781Y-271.335
X754.637Y-220.833
X756.288Y-250.728
X756.466Y-279.504
X757.573Y-206.663
X757.573Y-210.067
X757.624Y-203.158
X757.911Y-199.882
X758.193Y-219.938
X758.955Y-253.545
X759.412Y-220.548
X760.438Y-256.167
X760.632Y-248.031
X760.798Y-206.714
X760.824Y-198.783
X760.824Y-202.149
X761.383Y-210.118
X761.759Y-229.853
X761.861Y-265.159
X762.686Y-239.608
X763.705Y-281.106
X763.788Y-256.49
X764.058Y-232.496
X764.108Y-266.227
X764.195Y-261.019
X764.652Y-235.517
X764.804Y-257.26
X764.96Y-245.804
X765.0Y-268.046
X765.519Y-252.611
X765.652Y-234.817
X765.719Y-240.839
X766.684Y-235.517
X772.316Y-228.676
X772.316Y-230.606
X772.417Y-217.551
X772.417Y-219.481
X772.468Y-239.242
X772.468Y-241.173
X772.468Y-250.418
X772.468Y-252.349
X772.519Y-260.883
X772.519Y-262.813
X772.519Y-272.059
X772.519Y-273.989
X773.687Y-228.676
X773.687Y-230.606
X773.788Y-217.551
X773.789Y-219.481
X773.839Y-239.242
X773.839Y-250.418
X773.84Y-241.173
X773.84Y-252.349
X773.89Y-260.883
X773.89Y-272.059
X773.89Y-262.813
X773.89Y-273.989
X775.11Y-228.676
X775.119Y-230.606
X775.211Y-217.551
X775.22Y-219.481
X775.262Y-239.242
X775.262Y-250.418
X775.271Y-241.173
X775.271Y-252.349
X775.313Y-260.883
X775.313Y-272.059
X775.322Y-262.813
X775.322Y-273.989
M30
