%TF.GenerationSoftware,KiCad,Pcbnew,10.99.0-unknown*%
%TF.CreationDate,2026-08-12T15:22:43+08:00*%
%TF.ProjectId,100MHz______,3130304d-487a-4d88-9bee-06a2342e6b69,rev?*%
%TF.SameCoordinates,Original*%
%TF.FileFunction,Copper,L4,Bot*%
%TF.FilePolarity,Positive*%
%FSLAX46Y46*%
G04 Gerber Fmt 4.6, Leading zero omitted, Abs format (unit mm)*
G04 Created by KiCad (PCBNEW 10.99.0-unknown) date 2026-08-12 15:22:43*
%MOMM*%
%LPD*%
G01*
G04 APERTURE LIST*
%TA.AperFunction,ViaPad*%
%ADD10C,0.620000*%
%TD*%
%TA.AperFunction,ViaPad*%
%ADD11C,0.610000*%
%TD*%
%TA.AperFunction,ViaPad*%
%ADD12C,0.609600*%
%TD*%
G04 APERTURE END LIST*
D10*
%TO.N,GND*%
X21307000Y6770400D03*
X30099000Y6912100D03*
X21307000Y1150600D03*
X22418300Y1150600D03*
X23529500Y1150600D03*
X21307000Y33853100D03*
X22370800Y33853100D03*
X23434300Y33853100D03*
X30035500Y28194000D03*
X21307000Y28233400D03*
%TO.N,+2.5V*%
X31877000Y3302000D03*
X31877000Y11366500D03*
%TO.N,GND*%
X21307000Y7754600D03*
X21307000Y27249100D03*
X56731400Y18610600D03*
%TO.N,-2.5V*%
X34734500Y30035500D03*
%TO.N,GND*%
X37055100Y32528200D03*
X38720800Y32528300D03*
%TO.N,-2.5V*%
X40195500Y11430000D03*
X43307000Y11430000D03*
X41592500Y11430000D03*
X44704000Y11430000D03*
%TO.N,+2.5V*%
X35496500Y27368500D03*
%TO.N,-2.5V*%
X33528000Y3302000D03*
%TO.N,+2.5V*%
X40132000Y3492500D03*
X41592500Y3492500D03*
X44704000Y3492500D03*
%TO.N,-2.5V*%
X33528000Y11366500D03*
%TO.N,VSS_BIAS*%
X33118000Y30035500D03*
%TO.N,VCC_BIAS*%
X33054500Y26677600D03*
%TO.N,+2.5V*%
X49128400Y20645100D03*
%TO.N,-2.5V*%
X38841700Y24729400D03*
%TO.N,+2.5V*%
X51350900Y19627600D03*
%TO.N,$1N70*%
X52422000Y17025600D03*
%TO.N,+4.5V*%
X58200600Y18676600D03*
%TO.N,SGND*%
X58943500Y28130500D03*
X59896000Y28130500D03*
%TO.N,PGND*%
X67706500Y20137500D03*
%TO.N,SGND*%
X60975500Y20137500D03*
X60975500Y21153500D03*
%TO.N,PGND*%
X67706500Y21153500D03*
%TO.N,SGND*%
X50653500Y28515300D03*
X51811500Y28515300D03*
X54127000Y28515300D03*
X52969300Y28515300D03*
%TO.N,SET_EN*%
X48704600Y5905500D03*
%TO.N,PGND*%
X69993000Y31686000D03*
%TO.N,-2.5V*%
X63536500Y12382500D03*
X64933500Y12255500D03*
X68079500Y12644100D03*
%TO.N,PGND*%
X73885000Y17787600D03*
X72831500Y17787600D03*
%TO.N,$1N38*%
X73504000Y21153100D03*
%TO.N,PGND*%
X74583500Y21153100D03*
%TO.N,BAT_CHRG*%
X79791600Y27376100D03*
%TO.N,$1N38*%
X76806000Y25090100D03*
%TO.N,PGND*%
X84480900Y25336500D03*
%TO.N,$1N87*%
X77631500Y18867100D03*
%TO.N,+5V*%
X83981500Y19311600D03*
%TO.N,PGND*%
X84480900Y24074100D03*
%TO.N,-4.5V*%
X84045000Y5849600D03*
%TO.N,$2N13*%
X70067000Y10477100D03*
%TO.N,BAT+*%
X71453500Y32321500D03*
%TO.N,$1N44*%
X74837500Y30043100D03*
%TO.N,BAT+*%
X72279000Y32321500D03*
%TO.N,-2.5V*%
X76374600Y11085800D03*
X71845000Y11120100D03*
X74956500Y11120100D03*
X73245100Y11120100D03*
X83219500Y11628100D03*
%TO.N,SET_EN*%
X84934000Y11628100D03*
%TO.N,+2.5V*%
X71830100Y3545100D03*
X74944600Y3545100D03*
X73233200Y3545100D03*
X76341600Y3545100D03*
%TO.N,SET_EN*%
X82013000Y13215600D03*
%TO.N,$1N29*%
X80835500Y25908000D03*
%TO.N,+5V*%
X76806000Y33595300D03*
X74837500Y33599100D03*
%TO.N,$2N78*%
X88109000Y10675600D03*
%TO.N,GND*%
X91284000Y14231600D03*
%TO.N,$2N78*%
X92046000Y10675600D03*
%TO.N,EGND*%
X94932500Y26225500D03*
%TO.N,$2N93*%
X97218500Y23114000D03*
%TO.N,EGND*%
X94932500Y31623000D03*
%TO.N,+5V*%
X95094000Y18422600D03*
%TO.N,-4.5V*%
X95284500Y13279100D03*
%TO.N,GND*%
X95443300Y7056100D03*
X95443300Y1951000D03*
X97399900Y1951000D03*
X97399900Y7056100D03*
%TO.N,+4.5V*%
X97570500Y9278600D03*
%TO.N,GND*%
X45933400Y28519100D03*
X43185100Y28519100D03*
X44622700Y28519100D03*
%TO.N,+2.5V*%
X46799500Y3619500D03*
X48196500Y3619500D03*
X67270500Y3556000D03*
X64159000Y3556000D03*
X65873500Y3556000D03*
X62762000Y3556000D03*
%TO.N,+5V*%
X68805100Y18041600D03*
X69567000Y18041600D03*
%TO.N,-2.5V*%
X59563000Y10541000D03*
%TO.N,+2.5V*%
X43307000Y3492500D03*
X58229500Y3556000D03*
X59593700Y3552600D03*
D11*
%TO.N,SET_EN*%
X58928000Y5270500D03*
D10*
%TO.N,-2.5V*%
X60960000Y10541000D03*
D11*
%TO.N,EGND*%
X89662000Y27559000D03*
X89662000Y29210000D03*
X89662000Y30797500D03*
%TO.N,VBUS*%
X86169500Y31686500D03*
%TO.N,POWER_IN*%
X87884000Y31686500D03*
%TO.N,VBUS*%
X73469500Y26098500D03*
%TO.N,BAT_CHRG*%
X85087500Y30099100D03*
%TO.N,+5V*%
X83566000Y31496000D03*
X82740500Y31496000D03*
%TO.N,PGND*%
X87884000Y28448000D03*
X87884000Y29273500D03*
%TO.N,VBUS*%
X86169500Y32956500D03*
%TO.N,$1N35*%
X74866500Y26606500D03*
D10*
%TO.N,$1N44*%
X71564500Y30043100D03*
%TO.N,$2N25458*%
X41594000Y18401500D03*
%TO.N,GND*%
X45013200Y14842000D03*
D12*
%TO.N,SET_EN*%
X42812600Y16192500D03*
%TO.N,-2.5V*%
X36639500Y14859000D03*
%TO.N,+2.5V*%
X45008000Y16256000D03*
%TO.N,-2.5V*%
X36639500Y16256000D03*
%TO.N,+4.5V*%
X86804500Y14097000D03*
D10*
X86966000Y12009100D03*
D12*
%TO.N,+2.5V*%
X42449800Y3492500D03*
X65016300Y3556000D03*
%TO.N,-2.5V*%
X74100800Y11120100D03*
%TO.N,+2.5V*%
X74088900Y3545100D03*
%TO.N,VCC_BIAS*%
X33895400Y28891600D03*
%TO.N,-2.5V*%
X66648000Y12255500D03*
X65793400Y12255500D03*
X38841700Y25412900D03*
%TO.N,+2.5V*%
X50144500Y18585000D03*
D10*
%TO.N,GND*%
X47117000Y28519100D03*
%TO.N,$1N8925*%
X47244000Y33210500D03*
%TO.N,$1N8838*%
X47245500Y23953000D03*
D11*
%TO.N,GND*%
X41148000Y24130000D03*
X49339500Y14795500D03*
X50609500Y14795500D03*
%TO.N,+4.5V*%
X45266400Y26160500D03*
X45266400Y23368000D03*
%TO.N,-4.5V*%
X45256200Y30862500D03*
D10*
%TO.N,-2.5V*%
X47744600Y11420700D03*
X49150500Y11420000D03*
%TD*%
M02*
