M48
; DRILL file KiCad 10.99.0-unknown date 2026-08-12T15:22:44
; FORMAT={-:-/ absolute / metric / decimal}
; #@! TF.CreationDate,2026-08-12T15:22:44+08:00
; #@! TF.GenerationSoftware,Kicad,Pcbnew,10.99.0-unknown
; #@! TF.FileFunction,MixedPlating,1,4
FMAT,2
METRIC
; #@! TA.AperFunction,Plated,PTH,ViaDrill
T1C0.305
; #@! TA.AperFunction,Plated,PTH,ViaDrill
T2C0.305
; #@! TA.AperFunction,Plated,PTH,ViaDrill
T3C0.310
%
G90
G05
T1
X33.895Y28.892
X36.639Y16.256
X36.639Y14.859
X38.842Y25.413
X42.45Y3.492
X42.813Y16.192
X45.008Y16.256
X50.145Y18.585
X65.016Y3.556
X65.793Y12.255
X66.648Y12.255
X74.089Y3.545
X74.101Y11.12
X86.804Y14.097
T2
X41.148Y24.13
X45.256Y30.862
X45.266Y26.16
X45.266Y23.368
X49.34Y14.795
X50.609Y14.795
X58.928Y5.271
X73.469Y26.098
X74.867Y26.607
X82.74Y31.496
X83.566Y31.496
X85.087Y30.099
X86.169Y32.956
X86.169Y31.686
X87.884Y31.686
X87.884Y29.273
X87.884Y28.448
X89.662Y30.797
X89.662Y29.21
X89.662Y27.559
T3
X21.307Y33.853
X21.307Y28.233
X21.307Y27.249
X21.307Y7.755
X21.307Y6.77
X21.307Y1.151
X22.371Y33.853
X22.418Y1.151
X23.434Y33.853
X23.529Y1.151
X30.035Y28.194
X30.099Y6.912
X31.877Y11.367
X31.877Y3.302
X33.054Y26.678
X33.118Y30.035
X33.528Y11.367
X33.528Y3.302
X34.734Y30.035
X35.496Y27.368
X37.055Y32.528
X38.721Y32.528
X38.842Y24.729
X40.132Y3.492
X40.195Y11.43
X41.593Y11.43
X41.593Y3.492
X41.594Y18.401
X43.185Y28.519
X43.307Y11.43
X43.307Y3.492
X44.623Y28.519
X44.704Y11.43
X44.704Y3.492
X45.013Y14.842
X45.933Y28.519
X46.799Y3.619
X47.117Y28.519
X47.244Y33.21
X47.245Y23.953
X47.745Y11.421
X48.197Y3.619
X48.705Y5.905
X49.128Y20.645
X49.151Y11.42
X50.654Y28.515
X51.351Y19.628
X51.811Y28.515
X52.422Y17.026
X52.969Y28.515
X54.127Y28.515
X56.731Y18.611
X58.201Y18.677
X58.229Y3.556
X58.944Y28.13
X59.563Y10.541
X59.594Y3.553
X59.896Y28.13
X60.96Y10.541
X60.975Y21.153
X60.975Y20.137
X62.762Y3.556
X63.536Y12.383
X64.159Y3.556
X64.933Y12.255
X65.873Y3.556
X67.27Y3.556
X67.706Y21.153
X67.706Y20.137
X68.079Y12.644
X68.805Y18.042
X69.567Y18.042
X69.993Y31.686
X70.067Y10.477
X71.453Y32.322
X71.564Y30.043
X71.83Y3.545
X71.845Y11.12
X72.279Y32.322
X72.831Y17.788
X73.233Y3.545
X73.245Y11.12
X73.504Y21.153
X73.885Y17.788
X74.584Y21.153
X74.837Y33.599
X74.837Y30.043
X74.945Y3.545
X74.956Y11.12
X76.342Y3.545
X76.375Y11.086
X76.806Y33.595
X76.806Y25.09
X77.632Y18.867
X79.792Y27.376
X80.835Y25.908
X82.013Y13.216
X83.219Y11.628
X83.981Y19.312
X84.045Y5.85
X84.481Y25.336
X84.481Y24.074
X84.934Y11.628
X86.966Y12.009
X88.109Y10.676
X91.284Y14.232
X92.046Y10.676
X94.932Y31.623
X94.932Y26.226
X95.094Y18.423
X95.284Y13.279
X95.443Y7.056
X95.443Y1.951
X97.218Y23.114
X97.4Y7.056
X97.4Y1.951
X97.57Y9.279
M30
