%TF.GenerationSoftware,KiCad,Pcbnew,10.99.0-unknown*%
%TF.CreationDate,2026-08-12T15:30:43+08:00*%
%TF.ProjectId,___2KW_____,279f8732-4b57-40df-94ad-35902e6b6963,rev?*%
%TF.SameCoordinates,Original*%
%TF.FileFunction,Copper,L1,Top*%
%TF.FilePolarity,Positive*%
%FSLAX46Y46*%
G04 Gerber Fmt 4.6, Leading zero omitted, Abs format (unit mm)*
G04 Created by KiCad (PCBNEW 10.99.0-unknown) date 2026-08-12 15:30:43*
%MOMM*%
%LPD*%
G01*
G04 APERTURE LIST*
G04 Aperture macros list*
%AMRoundRect*
0 Rectangle with rounded corners*
0 $1 Rounding radius*
0 $2 $3 $4 $5 $6 $7 $8 $9 X,Y pos of 4 corners*
0 Add a 4 corners polygon primitive as box body*
4,1,4,$2,$3,$4,$5,$6,$7,$8,$9,$2,$3,0*
0 Add four circle primitives for the rounded corners*
1,1,$1+$1,$2,$3*
1,1,$1+$1,$4,$5*
1,1,$1+$1,$6,$7*
1,1,$1+$1,$8,$9*
0 Add four rect primitives between the rounded corners*
20,1,$1+$1,$2,$3,$4,$5,0*
20,1,$1+$1,$4,$5,$6,$7,0*
20,1,$1+$1,$6,$7,$8,$9,0*
20,1,$1+$1,$8,$9,$2,$3,0*%
G04 Aperture macros list end*
%TA.AperFunction,SMDPad,CuDef*%
%ADD10C,0.750000*%
%TD*%
%TA.AperFunction,SMDPad,CuDef*%
%ADD11RoundRect,0.225000X-0.225000X-0.275000X0.225000X-0.275000X0.225000X0.275000X-0.225000X0.275000X0*%
%TD*%
%TA.AperFunction,SMDPad,CuDef*%
%ADD12RoundRect,0.105000X0.345000X-0.105000X0.345000X0.105000X-0.345000X0.105000X-0.345000X-0.105000X0*%
%TD*%
%TA.AperFunction,SMDPad,CuDef*%
%ADD13RoundRect,0.105000X-0.105000X-0.345000X0.105000X-0.345000X0.105000X0.345000X-0.105000X0.345000X0*%
%TD*%
%TA.AperFunction,SMDPad,CuDef*%
%ADD14RoundRect,0.225000X-0.225000X-0.275000X0.225000X-0.275000X0.225000X0.275000X-0.225000X0.275000X0*%
%TD*%
%TA.AperFunction,SMDPad,CuDef*%
%ADD15RoundRect,0.105000X-0.105000X-0.345000X0.105000X-0.345000X0.105000X0.345000X-0.105000X0.345000X0*%
%TD*%
%TA.AperFunction,SMDPad,CuDef*%
%ADD16RoundRect,0.105000X0.345000X-0.105000X0.345000X0.105000X-0.345000X0.105000X-0.345000X-0.105000X0*%
%TD*%
%TA.AperFunction,ViaPad*%
%ADD17C,0.609600*%
%TD*%
%TA.AperFunction,ViaPad*%
%ADD18C,0.508000*%
%TD*%
%TA.AperFunction,ViaPad*%
%ADD19C,0.762000*%
%TD*%
%TA.AperFunction,Conductor*%
%ADD20C,0.508000*%
%TD*%
%TA.AperFunction,Conductor*%
%ADD21C,0.254000*%
%TD*%
%TA.AperFunction,Conductor*%
%ADD22C,0.381000*%
%TD*%
%TA.AperFunction,Conductor*%
%ADD23C,0.203200*%
%TD*%
%TA.AperFunction,Conductor*%
%ADD24C,2.032000*%
%TD*%
%TA.AperFunction,Conductor*%
%ADD25C,0.500000*%
%TD*%
%TA.AperFunction,Conductor*%
%ADD26C,1.016000*%
%TD*%
%TA.AperFunction,Conductor*%
%ADD27C,1.524000*%
%TD*%
%TA.AperFunction,Conductor*%
%ADD28C,1.778000*%
%TD*%
%TA.AperFunction,Conductor*%
%ADD29C,1.270000*%
%TD*%
%TA.AperFunction,Conductor*%
%ADD30C,0.762000*%
%TD*%
G04 APERTURE END LIST*
D10*
%TO.P,Q4,2*%
%TO.N,BAT_G*%
X12118008Y40421687D03*
%TO.P,Q4,3*%
%TO.N,GND*%
X13618008Y41287687D03*
%TO.P,Q4,1*%
%TO.N,$1N24864*%
X13618008Y39555687D03*
%TD*%
%TO.P,U2,4*%
%TO.N,BAT_G*%
X9017000Y84344000D03*
%TO.P,U2,3*%
X8017000Y85344000D03*
%TO.P,U2,2*%
X9017000Y86344000D03*
%TO.P,U2,1*%
X10017000Y85344000D03*
%TD*%
%TO.P,U1,4*%
%TO.N,48-72V*%
X9779000Y111617000D03*
%TO.P,U1,3*%
X10779000Y110617000D03*
%TO.P,U1,2*%
X9779000Y109617000D03*
%TO.P,U1,1*%
X8779000Y110617000D03*
%TD*%
%TO.P,Q3,2*%
%TO.N,BAT_G*%
X12118008Y51724687D03*
%TO.P,Q3,3*%
%TO.N,GND*%
X13618008Y52590687D03*
%TO.P,Q3,1*%
%TO.N,$1N24864*%
X13618008Y50858687D03*
%TD*%
D11*
%TO.P,C1,1*%
%TO.N,48-72V*%
X29630432Y56007000D03*
%TO.P,C1,2*%
%TO.N,GND*%
X31030432Y56007000D03*
%TD*%
%TO.P,C2,1*%
%TO.N,48-72V*%
X29630432Y75057000D03*
%TO.P,C2,2*%
%TO.N,GND*%
X31030432Y75057000D03*
%TD*%
%TO.P,C3,1*%
%TO.N,48-72V*%
X29630432Y94107000D03*
%TO.P,C3,2*%
%TO.N,GND*%
X31030432Y94107000D03*
%TD*%
%TO.P,D3,2*%
%TO.N,$1N2714*%
X66265614Y130683000D03*
%TO.P,D3,1*%
%TO.N,$1N2706*%
X67665614Y130683000D03*
%TD*%
%TO.P,C12,2*%
%TO.N,$1N1875*%
X48215574Y140589000D03*
%TO.P,C12,1*%
%TO.N,GND*%
X49615574Y140589000D03*
%TD*%
%TO.P,C7,2*%
%TO.N,+48V*%
X55114915Y129794000D03*
%TO.P,C7,1*%
%TO.N,GND*%
X56514915Y129794000D03*
%TD*%
%TO.P,R12,2*%
%TO.N,+48V*%
X55180000Y131445000D03*
%TO.P,R12,1*%
%TO.N,LLFB*%
X56580000Y131445000D03*
%TD*%
%TO.P,R15,2*%
%TO.N,LLFB*%
X52132000Y131445000D03*
%TO.P,R15,1*%
%TO.N,GND*%
X53532000Y131445000D03*
%TD*%
D12*
%TO.P,U5,1*%
%TO.N,REF5*%
X57118000Y140519000D03*
%TO.P,U5,2*%
%TO.N,$1N1868*%
X57118000Y139719000D03*
%TO.P,U5,3*%
%TO.N,GND*%
X57118000Y138919000D03*
%TO.P,U5,4*%
%TO.N,$1N1875*%
X57118000Y138119000D03*
D13*
%TO.P,U5,5*%
%TO.N,GND*%
X56318000Y137319000D03*
%TO.P,U5,6*%
%TO.N,$1N1874*%
X55518000Y137319000D03*
%TO.P,U5,7*%
%TO.N,$1N9019*%
X54718000Y137319000D03*
%TO.P,U5,8*%
%TO.N,LLFB*%
X53918000Y137319000D03*
D12*
%TO.P,U5,16*%
%TO.N,LHO1*%
X53118000Y138119000D03*
%TO.P,U5,15*%
%TO.N,$1N4084*%
X53118000Y138919000D03*
%TO.P,U5,14*%
%TO.N,SDLIN*%
X53118000Y139719000D03*
%TO.P,U5,13*%
%TO.N,$1N4013*%
X53118000Y140519000D03*
D13*
%TO.P,U5,12*%
%TO.N,+12V*%
X53918000Y141319000D03*
%TO.P,U5,11*%
%TO.N,GND*%
X54718000Y141319000D03*
%TO.P,U5,10*%
%TO.N,LLO1*%
X55518000Y141319000D03*
%TO.P,U5,9*%
%TO.N,$1N1866*%
X56318000Y141319000D03*
%TD*%
D11*
%TO.P,R16,2*%
%TO.N,$1N1868*%
X48271302Y142295245D03*
%TO.P,R16,1*%
%TO.N,+12V*%
X49671302Y142295245D03*
%TD*%
D14*
%TO.P,C9,2*%
%TO.N,GND*%
X49600080Y144018000D03*
%TO.P,C9,1*%
%TO.N,REF5*%
X48200080Y144018000D03*
%TD*%
D11*
%TO.P,R9,2*%
%TO.N,+48V*%
X55180000Y133209551D03*
%TO.P,R9,1*%
%TO.N,$1N1897*%
X56580000Y133209551D03*
%TD*%
%TO.P,C8,2*%
%TO.N,$1N1897*%
X52065391Y133206846D03*
%TO.P,C8,1*%
%TO.N,LLFB*%
X53465391Y133206846D03*
%TD*%
%TO.P,D5,2*%
%TO.N,+12V*%
X66158059Y141670000D03*
%TO.P,D5,1*%
%TO.N,$1N4084*%
X66158059Y140270000D03*
%TD*%
D10*
%TO.P,Q1,3*%
%TO.N,SDHIN*%
X43170128Y126492000D03*
%TO.P,Q1,1*%
%TO.N,$1N2907*%
X44670128Y127358000D03*
%TO.P,Q1,2*%
%TO.N,48-72V*%
X44670128Y125626000D03*
%TD*%
%TO.P,Q2,3*%
%TO.N,SDHIN*%
X25670127Y126492000D03*
%TO.P,Q2,1*%
%TO.N,$1N3287*%
X27170127Y127358000D03*
%TO.P,Q2,2*%
%TO.N,48-72V*%
X27170127Y125626000D03*
%TD*%
%TO.P,Q6,3*%
%TO.N,GND*%
X60670128Y126492000D03*
%TO.P,Q6,1*%
%TO.N,$1N2714*%
X62170128Y127358000D03*
%TO.P,Q6,2*%
%TO.N,SDLIN*%
X62170128Y125626000D03*
%TD*%
%TO.P,Q5,3*%
%TO.N,GND*%
X78170126Y126492000D03*
%TO.P,Q5,1*%
%TO.N,$1N3382*%
X79670126Y127358000D03*
%TO.P,Q5,2*%
%TO.N,SDLIN*%
X79670126Y125626000D03*
%TD*%
D14*
%TO.P,R7,2*%
%TO.N,SDHIN*%
X47689644Y95631000D03*
%TO.P,R7,1*%
%TO.N,SDLIN*%
X46289644Y95631000D03*
%TD*%
%TO.P,R8,2*%
%TO.N,SDHIN*%
X47689644Y100076000D03*
%TO.P,R8,1*%
%TO.N,SDLIN*%
X46289644Y100076000D03*
%TD*%
D11*
%TO.P,R10,2*%
%TO.N,$1N2714*%
X66171952Y132742508D03*
%TO.P,R10,1*%
%TO.N,LLO1*%
X67571952Y132742508D03*
%TD*%
%TO.P,R13,2*%
%TO.N,$1N2706*%
X63119000Y132227042D03*
%TO.P,R13,1*%
%TO.N,LLO1*%
X63119000Y130827042D03*
%TD*%
%TO.P,D1,2*%
%TO.N,$1N2907*%
X47142640Y130937000D03*
%TO.P,D1,1*%
%TO.N,$1N2902*%
X48542640Y130937000D03*
%TD*%
%TO.P,R2,2*%
%TO.N,$1N2907*%
X47466325Y132971502D03*
%TO.P,R2,1*%
%TO.N,LHO1*%
X48866325Y132971502D03*
%TD*%
%TO.P,R4,2*%
%TO.N,$1N2902*%
X44297509Y133116042D03*
%TO.P,R4,1*%
%TO.N,LHO1*%
X44297509Y131716042D03*
%TD*%
D14*
%TO.P,D2,2*%
%TO.N,$1N3287*%
X33974000Y130749294D03*
%TO.P,D2,1*%
%TO.N,$1N3282*%
X32574000Y130749294D03*
%TD*%
%TO.P,R3,2*%
%TO.N,$1N3287*%
X33455599Y133096000D03*
%TO.P,R3,1*%
%TO.N,LHO1*%
X32055599Y133096000D03*
%TD*%
D11*
%TO.P,R5,2*%
%TO.N,$1N3282*%
X36735652Y132449292D03*
%TO.P,R5,1*%
%TO.N,LHO1*%
X36735652Y131049292D03*
%TD*%
%TO.P,D4,2*%
%TO.N,$1N3382*%
X82913676Y130913556D03*
%TO.P,D4,1*%
%TO.N,$1N3377*%
X84313676Y130913556D03*
%TD*%
%TO.P,R11,2*%
%TO.N,$1N3382*%
X83501000Y133000902D03*
%TO.P,R11,1*%
%TO.N,LLO1*%
X84901000Y133000902D03*
%TD*%
%TO.P,R14,2*%
%TO.N,$1N3377*%
X80058491Y132701273D03*
%TO.P,R14,1*%
%TO.N,LLO1*%
X80058491Y131301273D03*
%TD*%
D14*
%TO.P,C14,2*%
%TO.N,+12V*%
X60426638Y136775976D03*
%TO.P,C14,1*%
%TO.N,GND*%
X60426638Y138175976D03*
%TD*%
D11*
%TO.P,C6,1*%
%TO.N,+48V*%
X82526481Y93934902D03*
%TO.P,C6,2*%
%TO.N,GND*%
X83926481Y93934902D03*
%TD*%
%TO.P,C5,1*%
%TO.N,+48V*%
X82526481Y75180939D03*
%TO.P,C5,2*%
%TO.N,GND*%
X83926481Y75180939D03*
%TD*%
%TO.P,C4,1*%
%TO.N,+48V*%
X82526481Y56172976D03*
%TO.P,C4,2*%
%TO.N,GND*%
X83926481Y56172976D03*
%TD*%
D10*
%TO.P,U4,3*%
%TO.N,GND*%
X95682700Y126344426D03*
%TO.P,U4,2*%
%TO.N,SDLIN*%
X97182700Y127210426D03*
%TO.P,U4,1*%
%TO.N,GND*%
X97182700Y125478426D03*
%TD*%
%TO.P,U3,1*%
%TO.N,SDLIN*%
X68017517Y54025000D03*
%TO.P,U3,2*%
%TO.N,+48V*%
X69160717Y53365000D03*
X69160717Y52045000D03*
X68017517Y51385000D03*
%TO.P,U3,1*%
%TO.N,SDLIN*%
X66874317Y52045000D03*
X66874317Y53365000D03*
%TD*%
D14*
%TO.P,R18,2*%
%TO.N,$1N8973*%
X49671302Y135382000D03*
%TO.P,R18,1*%
%TO.N,LLFB*%
X48271302Y135382000D03*
%TD*%
D11*
%TO.P,C16,2*%
%TO.N,$1N9019*%
X48215574Y137033000D03*
%TO.P,C16,1*%
%TO.N,$1N8973*%
X49615574Y137033000D03*
%TD*%
D14*
%TO.P,C19,2*%
%TO.N,PGND*%
X205867000Y89343000D03*
%TO.P,C19,1*%
%TO.N,+400V*%
X205867000Y90743000D03*
%TD*%
D11*
%TO.P,D10,2*%
%TO.N,$2N27625*%
X152342254Y132969000D03*
%TO.P,D10,1*%
%TO.N,LO2*%
X153742254Y132969000D03*
%TD*%
%TO.P,R27,2*%
%TO.N,$2N27625*%
X152596874Y130520643D03*
%TO.P,R27,1*%
%TO.N,LO2*%
X153996874Y130520643D03*
%TD*%
%TO.P,D7,2*%
%TO.N,$2N27609*%
X169642585Y132207000D03*
%TO.P,D7,1*%
%TO.N,HO2*%
X171042585Y132207000D03*
%TD*%
%TO.P,R23,2*%
%TO.N,$2N27609*%
X170055272Y130048000D03*
%TO.P,R23,1*%
%TO.N,HO2*%
X171455272Y130048000D03*
%TD*%
%TO.P,D11,2*%
%TO.N,$2N27579*%
X134936000Y132842000D03*
%TO.P,D11,1*%
%TO.N,LO1*%
X136336000Y132842000D03*
%TD*%
%TO.P,R28,2*%
%TO.N,$2N27579*%
X135571000Y130667709D03*
%TO.P,R28,1*%
%TO.N,LO1*%
X136971000Y130667709D03*
%TD*%
%TO.P,D6,2*%
%TO.N,$2N27600*%
X119442000Y132588000D03*
%TO.P,D6,1*%
%TO.N,HO1*%
X120842000Y132588000D03*
%TD*%
%TO.P,R21,2*%
%TO.N,$2N27600*%
X119206821Y130302000D03*
%TO.P,R21,1*%
%TO.N,HO1*%
X120606821Y130302000D03*
%TD*%
D14*
%TO.P,C20,2*%
%TO.N,PGND*%
X182820170Y89343000D03*
%TO.P,C20,1*%
%TO.N,+400V*%
X182820170Y90743000D03*
%TD*%
%TO.P,R25,2*%
%TO.N,VS2*%
X167197000Y129794000D03*
%TO.P,R25,1*%
%TO.N,$2N27609*%
X165797000Y129794000D03*
%TD*%
%TO.P,R30,2*%
%TO.N,$2N1982*%
X149417000Y130302000D03*
%TO.P,R30,1*%
%TO.N,$2N27625*%
X148017000Y130302000D03*
%TD*%
D11*
%TO.P,R29,2*%
%TO.N,$2N27579*%
X132335853Y130519005D03*
%TO.P,R29,1*%
%TO.N,$2N1982*%
X133735853Y130519005D03*
%TD*%
%TO.P,R22,2*%
%TO.N,$2N27600*%
X116586000Y131658819D03*
%TO.P,R22,1*%
%TO.N,VS1*%
X116586000Y130258819D03*
%TD*%
D12*
%TO.P,U7,1*%
%TO.N,VS2*%
X97739000Y103653007D03*
X97739000Y102853007D03*
X97739000Y102053007D03*
D13*
%TO.P,U7,2*%
%TO.N,VS1*%
X96939000Y101253007D03*
X96139000Y101253007D03*
X95339000Y101253007D03*
D12*
%TO.P,U7,3*%
%TO.N,$2N3168*%
X94539000Y102053007D03*
X94539000Y102853007D03*
%TO.P,U7,4*%
%TO.N,$2N1991*%
X94539000Y103653007D03*
D13*
X95339000Y104453007D03*
%TD*%
D14*
%TO.P,D9,2*%
%TO.N,$2N1991*%
X194700001Y66518259D03*
%TO.P,D9,1*%
%TO.N,+400V*%
X193300001Y66518259D03*
%TD*%
%TO.P,D8,2*%
%TO.N,$2N3195*%
X170700000Y66518259D03*
%TO.P,D8,1*%
%TO.N,+400V*%
X169300000Y66518259D03*
%TD*%
%TO.P,D12,2*%
%TO.N,PGND*%
X158699999Y66518259D03*
%TO.P,D12,1*%
%TO.N,$2N3195*%
X157299999Y66518259D03*
%TD*%
%TO.P,D13,2*%
%TO.N,PGND*%
X182699999Y66518259D03*
%TO.P,D13,1*%
%TO.N,$2N1991*%
X181299999Y66518259D03*
%TD*%
D11*
%TO.P,U6,1*%
%TO.N,$2N3168*%
X158938987Y77470000D03*
%TO.P,U6,2*%
%TO.N,$2N3310*%
X160338987Y77470000D03*
%TD*%
D14*
%TO.P,C22,1*%
%TO.N,$2N3310*%
X166138974Y92899000D03*
%TO.P,C22,2*%
%TO.N,$2N3195*%
X166138974Y94299000D03*
%TD*%
%TO.P,C23,1*%
%TO.N,$2N3310*%
X154178000Y92899000D03*
%TO.P,C23,2*%
%TO.N,$2N3195*%
X154178000Y94299000D03*
%TD*%
D10*
%TO.P,Q10,3*%
%TO.N,$2N1982*%
X130670128Y126492000D03*
%TO.P,Q10,1*%
%TO.N,$2N27579*%
X132170128Y127358000D03*
%TO.P,Q10,2*%
%TO.N,VS1*%
X132170128Y125626000D03*
%TD*%
%TO.P,Q8,3*%
%TO.N,VS1*%
X113170127Y126492000D03*
%TO.P,Q8,1*%
%TO.N,$2N27600*%
X114670127Y127358000D03*
%TO.P,Q8,2*%
%TO.N,+48V*%
X114670127Y125626000D03*
%TD*%
%TO.P,Q9,3*%
%TO.N,$2N1982*%
X148171447Y126432005D03*
%TO.P,Q9,1*%
%TO.N,$2N27625*%
X149671447Y127298005D03*
%TO.P,Q9,2*%
%TO.N,VS2*%
X149671447Y125566005D03*
%TD*%
%TO.P,Q7,3*%
%TO.N,VS2*%
X165671447Y126432005D03*
%TO.P,Q7,1*%
%TO.N,$2N27609*%
X167171447Y127298005D03*
%TO.P,Q7,2*%
%TO.N,+48V*%
X167171447Y125566005D03*
%TD*%
D12*
%TO.P,U9,1*%
%TO.N,+5V*%
X107918000Y138192944D03*
%TO.P,U9,2*%
%TO.N,$2N9391*%
X107918000Y137392944D03*
%TO.P,U9,3*%
%TO.N,N/C*%
X107918000Y136592944D03*
%TO.P,U9,4*%
X107918000Y135792944D03*
D13*
%TO.P,U9,5*%
%TO.N,$2N7024*%
X107118000Y134992944D03*
%TO.P,U9,6*%
%TO.N,$2N7016*%
X106318000Y134992944D03*
%TO.P,U9,7*%
%TO.N,$2N7667*%
X105518000Y134992944D03*
%TO.P,U9,8*%
%TO.N,N/C*%
X104718000Y134992944D03*
D12*
%TO.P,U9,16*%
%TO.N,GND*%
X103918000Y135792944D03*
%TO.P,U9,15*%
%TO.N,LLCIFB*%
X103918000Y136592944D03*
%TO.P,U9,14*%
%TO.N,GND*%
X103918000Y137392944D03*
%TO.P,U9,13*%
%TO.N,$2N8060*%
X103918000Y138192944D03*
D13*
%TO.P,U9,12*%
%TO.N,FADJ*%
X104718000Y138992944D03*
%TO.P,U9,11*%
%TO.N,VFB*%
X105518000Y138992944D03*
%TO.P,U9,10*%
%TO.N,$2N7667*%
X106318000Y138992944D03*
%TO.P,U9,9*%
%TO.N,N/C*%
X107118000Y138992944D03*
%TD*%
D11*
%TO.P,R24,2*%
%TO.N,+400V*%
X182120170Y70157518D03*
%TO.P,R24,1*%
%TO.N,$2N4836*%
X183520170Y70157518D03*
%TD*%
%TO.P,R26,2*%
%TO.N,$2N4836*%
X178243000Y70096901D03*
%TO.P,R26,1*%
%TO.N,PGND*%
X179643000Y70096901D03*
%TD*%
D14*
%TO.P,C21,2*%
%TO.N,PGND*%
X180529168Y74676000D03*
%TO.P,C21,1*%
%TO.N,+400V*%
X179129168Y74676000D03*
%TD*%
D10*
%TO.P,U8,1*%
%TO.N,+12V*%
X143383000Y136289000D03*
%TO.P,U8,2*%
%TO.N,$2N6916*%
X142138500Y136804500D03*
%TO.P,U8,3*%
%TO.N,$2N6919*%
X141623000Y138049000D03*
%TO.P,U8,4*%
%TO.N,GND*%
X142138500Y139293500D03*
%TO.P,U8,8*%
%TO.N,$2N7298*%
X143383000Y139809000D03*
%TO.P,U8,7*%
%TO.N,HO2*%
X144627500Y139293500D03*
%TO.P,U8,6*%
%TO.N,VS2*%
X145143000Y138049000D03*
%TO.P,U8,5*%
%TO.N,LO2*%
X144627500Y136804500D03*
%TD*%
%TO.P,U11,1*%
%TO.N,+12V*%
X125857000Y136291121D03*
%TO.P,U11,2*%
%TO.N,$2N7037*%
X124612500Y136806621D03*
%TO.P,U11,3*%
%TO.N,$2N7040*%
X124097000Y138051121D03*
%TO.P,U11,4*%
%TO.N,GND*%
X124612500Y139295621D03*
%TO.P,U11,8*%
%TO.N,$2N7355*%
X125857000Y139811121D03*
%TO.P,U11,7*%
%TO.N,HO1*%
X127101500Y139295621D03*
%TO.P,U11,6*%
%TO.N,VS1*%
X127617000Y138051121D03*
%TO.P,U11,5*%
%TO.N,LO1*%
X127101500Y136806621D03*
%TD*%
D11*
%TO.P,R36,2*%
%TO.N,$2N6916*%
X137137875Y138504651D03*
%TO.P,R36,1*%
%TO.N,$2N7016*%
X138537875Y138504651D03*
%TD*%
%TO.P,R37,2*%
%TO.N,$2N6919*%
X137137875Y137160000D03*
%TO.P,R37,1*%
%TO.N,$2N7024*%
X138537875Y137160000D03*
%TD*%
%TO.P,R45,2*%
%TO.N,$2N7037*%
X119434253Y138430000D03*
%TO.P,R45,1*%
%TO.N,$2N7024*%
X120834253Y138430000D03*
%TD*%
%TO.P,R48,2*%
%TO.N,$2N7040*%
X119337367Y136906000D03*
%TO.P,R48,1*%
%TO.N,$2N7016*%
X120737367Y136906000D03*
%TD*%
D14*
%TO.P,D14,2*%
%TO.N,+12V*%
X143448000Y144526000D03*
%TO.P,D14,1*%
%TO.N,$2N7298*%
X142048000Y144526000D03*
%TD*%
%TO.P,D15,2*%
%TO.N,+12V*%
X126176000Y144378782D03*
%TO.P,D15,1*%
%TO.N,$2N7355*%
X124776000Y144378782D03*
%TD*%
%TO.P,C28,2*%
%TO.N,$2N7298*%
X149479000Y138005387D03*
%TO.P,C28,1*%
%TO.N,VS2*%
X149479000Y139405387D03*
%TD*%
%TO.P,C34,2*%
%TO.N,$2N7355*%
X131953000Y138108993D03*
%TO.P,C34,1*%
%TO.N,VS1*%
X131953000Y139508993D03*
%TD*%
D11*
%TO.P,C30,2*%
%TO.N,GND*%
X142302000Y142190254D03*
%TO.P,C30,1*%
%TO.N,+12V*%
X143702000Y142190254D03*
%TD*%
%TO.P,C25,2*%
%TO.N,GND*%
X124854255Y142192553D03*
%TO.P,C25,1*%
%TO.N,+12V*%
X126254255Y142192553D03*
%TD*%
%TO.P,C26,2*%
%TO.N,+12V*%
X119442000Y140181127D03*
%TO.P,C26,1*%
%TO.N,GND*%
X120842000Y140181127D03*
%TD*%
%TO.P,C32,2*%
%TO.N,+12V*%
X137095000Y140103027D03*
%TO.P,C32,1*%
%TO.N,GND*%
X138495000Y140103027D03*
%TD*%
D14*
%TO.P,C31,2*%
%TO.N,$2N7667*%
X100584000Y132417920D03*
%TO.P,C31,1*%
%TO.N,GND*%
X100584000Y133817920D03*
%TD*%
D11*
%TO.P,C27,2*%
%TO.N,+5V*%
X99530534Y141437944D03*
%TO.P,C27,1*%
%TO.N,GND*%
X100930534Y141437944D03*
%TD*%
%TO.P,R34,2*%
%TO.N,+48V*%
X106996000Y130504806D03*
%TO.P,R34,1*%
%TO.N,$2N8060*%
X108396000Y130504806D03*
%TD*%
D14*
%TO.P,R35,2*%
%TO.N,$2N8060*%
X112587000Y140462000D03*
%TO.P,R35,1*%
%TO.N,GND*%
X111187000Y140462000D03*
%TD*%
D11*
%TO.P,C24,2*%
%TO.N,$2N8060*%
X103772026Y130486810D03*
%TO.P,C24,1*%
%TO.N,GND*%
X105172026Y130486810D03*
%TD*%
%TO.P,R31,2*%
%TO.N,$2N1982*%
X111187000Y142192553D03*
%TO.P,R31,1*%
%TO.N,LLCIFB*%
X112587000Y142192553D03*
%TD*%
D10*
%TO.P,U10,1*%
%TO.N,+H5V*%
X162930959Y142367000D03*
%TO.P,U10,2*%
%TO.N,$2N8362*%
X161930959Y141367000D03*
%TO.P,U10,3*%
%TO.N,VFB*%
X160930959Y142367000D03*
%TO.P,U10,4*%
%TO.N,$2N8791*%
X161930959Y143367000D03*
%TD*%
D11*
%TO.P,R38,2*%
%TO.N,$2N8791*%
X154515120Y140715535D03*
%TO.P,R38,1*%
%TO.N,+12V*%
X155915120Y140715535D03*
%TD*%
%TO.P,R41,2*%
%TO.N,VFB*%
X154367000Y144272000D03*
%TO.P,R41,1*%
%TO.N,GND*%
X155767000Y144272000D03*
%TD*%
%TO.P,C29,2*%
%TO.N,VFB*%
X154548534Y142621000D03*
%TO.P,C29,1*%
%TO.N,GND*%
X155948534Y142621000D03*
%TD*%
D14*
%TO.P,CN1,1*%
%TO.N,FLYBUCK*%
X99228543Y6604000D03*
%TO.P,CN1,2*%
%TO.N,BAT_G*%
X97828543Y6604000D03*
%TD*%
D10*
%TO.P,Q11,1*%
%TO.N,$2N9391*%
X99568000Y138548658D03*
%TO.P,Q11,2*%
%TO.N,GND*%
X100434000Y137048658D03*
%TO.P,Q11,3*%
%TO.N,$2N9341*%
X98702000Y137048658D03*
%TD*%
D11*
%TO.P,BUZ1,1*%
%TO.N,+5V*%
X92772000Y135127263D03*
%TO.P,BUZ1,2*%
%TO.N,$2N9341*%
X94172000Y135127263D03*
%TD*%
D10*
%TO.P,R43,2*%
%TO.N,FADJ*%
X112649000Y133047916D03*
%TO.P,R43,1*%
%TO.N,+5V*%
X111783000Y134547916D03*
%TO.P,R43,3*%
%TO.N,GND*%
X113515000Y134547916D03*
%TD*%
D11*
%TO.P,C33,2*%
%TO.N,FADJ*%
X116069996Y135758328D03*
%TO.P,C33,1*%
%TO.N,GND*%
X116069996Y134358328D03*
%TD*%
D10*
%TO.P,Q12,1*%
%TO.N,$3N11235*%
X243856000Y126165077D03*
%TO.P,Q12,2*%
%TO.N,+400V*%
X245356000Y127031077D03*
%TO.P,Q12,3*%
%TO.N,$3N5683*%
X245356000Y125299077D03*
%TD*%
%TO.P,Q14,1*%
%TO.N,$3N11226*%
X225822000Y126165077D03*
%TO.P,Q14,2*%
%TO.N,$3N5683*%
X227322000Y127031077D03*
%TO.P,Q14,3*%
%TO.N,$3N7425*%
X227322000Y125299077D03*
%TD*%
%TO.P,Q13,1*%
%TO.N,$3N5649*%
X207636997Y126165077D03*
%TO.P,Q13,2*%
%TO.N,+400V*%
X209136997Y127031077D03*
%TO.P,Q13,3*%
%TO.N,AC_N*%
X209136997Y125299077D03*
%TD*%
%TO.P,Q15,1*%
%TO.N,$3N11217*%
X183170000Y126165077D03*
%TO.P,Q15,2*%
%TO.N,AC_N*%
X184670000Y127031077D03*
%TO.P,Q15,3*%
%TO.N,$3N7425*%
X184670000Y125299077D03*
%TD*%
D11*
%TO.P,C37,1*%
%TO.N,$3N7425*%
X246569000Y132461000D03*
%TO.P,C37,2*%
%TO.N,+400V*%
X247969000Y132461000D03*
%TD*%
D14*
%TO.P,C38,1*%
%TO.N,$3N7425*%
X219902000Y132150714D03*
%TO.P,C38,2*%
%TO.N,+400V*%
X218502000Y132150714D03*
%TD*%
D11*
%TO.P,R50,2*%
%TO.N,$3N11235*%
X254762000Y127361697D03*
%TO.P,R50,1*%
%TO.N,$3N5677*%
X254762000Y125961697D03*
%TD*%
%TO.P,D16,2*%
%TO.N,$3N11240*%
X257048000Y127361697D03*
%TO.P,D16,1*%
%TO.N,$3N5677*%
X257048000Y125961697D03*
%TD*%
D14*
%TO.P,R57,2*%
%TO.N,$3N11226*%
X233458856Y132207000D03*
%TO.P,R57,1*%
%TO.N,$3N5698*%
X232058856Y132207000D03*
%TD*%
%TO.P,R58,2*%
%TO.N,$3N11217*%
X187652341Y130393643D03*
%TO.P,R58,1*%
%TO.N,$3N5727*%
X186252341Y130393643D03*
%TD*%
%TO.P,D18,2*%
%TO.N,$3N11232*%
X233839856Y129667000D03*
%TO.P,D18,1*%
%TO.N,$3N5698*%
X232439856Y129667000D03*
%TD*%
%TO.P,D19,2*%
%TO.N,$3N11223*%
X188620056Y132461000D03*
%TO.P,D19,1*%
%TO.N,$3N5727*%
X187220056Y132461000D03*
%TD*%
D11*
%TO.P,R60,2*%
%TO.N,$3N11217*%
X179386000Y129273135D03*
%TO.P,R60,1*%
%TO.N,$3N7425*%
X180786000Y129273135D03*
%TD*%
D14*
%TO.P,L1,1*%
%TO.N,AC_L*%
X236158000Y83820000D03*
%TO.P,L1,2*%
%TO.N,$3N5683*%
X234758000Y83820000D03*
%TD*%
D11*
%TO.P,C39,1*%
%TO.N,AC_N*%
X225233000Y56896000D03*
%TO.P,C39,2*%
%TO.N,AC_L*%
X226633000Y56896000D03*
%TD*%
D14*
%TO.P,C40,1*%
%TO.N,AC_N*%
X254762000Y90613000D03*
%TO.P,C40,2*%
%TO.N,AC_L*%
X254762000Y92013000D03*
%TD*%
%TO.P,C41,1*%
%TO.N,+400V*%
X195264000Y130659937D03*
%TO.P,C41,2*%
%TO.N,PGND*%
X193864000Y130659937D03*
%TD*%
D12*
%TO.P,U16,8*%
%TO.N,$4N1082*%
X19483962Y141856030D03*
%TO.P,U16,1*%
%TO.N,GND*%
X19483962Y141056030D03*
%TO.P,U16,7*%
%TO.N,$4N1079*%
X19483962Y140256030D03*
D13*
%TO.P,U16,6*%
%TO.N,N/C*%
X18683962Y139456030D03*
%TO.P,U16,5*%
%TO.N,$4N3977*%
X17883962Y139456030D03*
%TO.P,U16,2*%
%TO.N,48-72V*%
X17083962Y139456030D03*
D12*
%TO.P,U16,3*%
%TO.N,$4N3820*%
X16283962Y140256030D03*
%TO.P,U16,4*%
%TO.N,$4N1143*%
X16283962Y141056030D03*
%TO.P,U16,9*%
%TO.N,GND*%
X16283962Y141856030D03*
%TD*%
D11*
%TO.P,L3,2*%
%TO.N,+12V*%
X28764000Y141656968D03*
%TO.P,L3,1*%
%TO.N,$4N1082*%
X30164000Y141656968D03*
%TD*%
D14*
%TO.P,C46,2*%
%TO.N,$4N1082*%
X23130154Y141460981D03*
%TO.P,C46,1*%
%TO.N,$4N1079*%
X23130154Y142860981D03*
%TD*%
%TO.P,R65,2*%
%TO.N,$4N1143*%
X16177388Y137184816D03*
%TO.P,R65,1*%
%TO.N,GND*%
X14777388Y137184816D03*
%TD*%
D11*
%TO.P,R63,2*%
%TO.N,$4N3820*%
X11365000Y140289001D03*
%TO.P,R63,1*%
%TO.N,48-72V*%
X12765000Y140289001D03*
%TD*%
D10*
%TO.P,U15,1*%
%TO.N,+12V*%
X80944655Y141536692D03*
%TO.P,U15,3*%
%TO.N,+5V*%
X82444655Y142402692D03*
%TO.P,U15,4*%
%TO.N,GND*%
X82444655Y140670692D03*
%TD*%
D14*
%TO.P,D20,2*%
%TO.N,$4N2570*%
X82742000Y38241041D03*
%TO.P,D20,1*%
%TO.N,$4N2542*%
X81342000Y38241041D03*
%TD*%
D11*
%TO.P,C60,2*%
%TO.N,$4N2454*%
X43543803Y46063230D03*
%TO.P,C60,1*%
%TO.N,GND*%
X44943803Y46063230D03*
%TD*%
%TO.P,R75,2*%
%TO.N,$4N2448*%
X43670803Y41936843D03*
%TO.P,R75,1*%
%TO.N,$4N2451*%
X45070803Y41936843D03*
%TD*%
D14*
%TO.P,C64,2*%
%TO.N,$4N2451*%
X45127381Y40259000D03*
%TO.P,C64,1*%
%TO.N,LFB*%
X43727381Y40259000D03*
%TD*%
D11*
%TO.P,C61,2*%
%TO.N,+24.5V*%
X47514026Y35814000D03*
%TO.P,C61,1*%
%TO.N,GND*%
X48914026Y35814000D03*
%TD*%
%TO.P,R73,2*%
%TO.N,+24.5V*%
X50943382Y37719000D03*
%TO.P,R73,1*%
%TO.N,LFB*%
X52343382Y37719000D03*
%TD*%
D12*
%TO.P,U20,1*%
%TO.N,+5V2*%
X52800000Y46793000D03*
%TO.P,U20,2*%
%TO.N,$4N2447*%
X52800000Y45993000D03*
%TO.P,U20,3*%
%TO.N,GND*%
X52800000Y45193000D03*
%TO.P,U20,4*%
%TO.N,$4N2454*%
X52800000Y44393000D03*
D13*
%TO.P,U20,5*%
%TO.N,GND*%
X52000000Y43593000D03*
%TO.P,U20,6*%
%TO.N,$4N2453*%
X51200000Y43593000D03*
%TO.P,U20,7*%
%TO.N,$4N2448*%
X50400000Y43593000D03*
%TO.P,U20,8*%
%TO.N,LFB*%
X49600000Y43593000D03*
D12*
%TO.P,U20,16*%
%TO.N,$4N3246*%
X48800000Y44393000D03*
%TO.P,U20,15*%
%TO.N,$4N4171*%
X48800000Y45193000D03*
%TO.P,U20,14*%
%TO.N,$4N3287*%
X48800000Y45993000D03*
%TO.P,U20,13*%
%TO.N,$4N2463*%
X48800000Y46793000D03*
D13*
%TO.P,U20,12*%
%TO.N,+12V2*%
X49600000Y47593000D03*
%TO.P,U20,11*%
%TO.N,GND*%
X50400000Y47593000D03*
%TO.P,U20,10*%
%TO.N,$4N3192*%
X51200000Y47593000D03*
%TO.P,U20,9*%
%TO.N,$4N3376*%
X52000000Y47593000D03*
%TD*%
D11*
%TO.P,R70,2*%
%TO.N,$4N2447*%
X43670803Y48768000D03*
%TO.P,R70,1*%
%TO.N,+12V2*%
X45070803Y48768000D03*
%TD*%
D12*
%TO.P,Q19,1*%
%TO.N,$4N3287*%
X72990173Y35565772D03*
%TO.P,Q19,2*%
X72990173Y36365772D03*
%TO.P,Q19,4*%
%TO.N,$4N2570*%
X72990173Y37165772D03*
D15*
%TO.P,Q19,8*%
%TO.N,+48V*%
X73790173Y37965772D03*
%TO.P,Q19,7*%
X74590173Y37965772D03*
%TO.P,Q19,5*%
X75390173Y37965772D03*
D12*
%TO.P,Q19,9*%
X76190173Y37165772D03*
%TO.P,Q19,6*%
X76190173Y36365772D03*
%TO.P,Q19,3*%
%TO.N,$4N3287*%
X76190173Y35565772D03*
%TD*%
%TO.P,Q20,1*%
%TO.N,GND*%
X72990173Y28009031D03*
%TO.P,Q20,2*%
X72990173Y28809031D03*
%TO.P,Q20,4*%
%TO.N,$4N2665*%
X72990173Y29609031D03*
D15*
%TO.P,Q20,8*%
%TO.N,$4N3287*%
X73790173Y30409031D03*
%TO.P,Q20,7*%
X74590173Y30409031D03*
%TO.P,Q20,5*%
X75390173Y30409031D03*
D12*
%TO.P,Q20,9*%
X76190173Y29609031D03*
%TO.P,Q20,6*%
X76190173Y28809031D03*
%TO.P,Q20,3*%
%TO.N,GND*%
X76190173Y28009031D03*
%TD*%
D11*
%TO.P,R78,2*%
%TO.N,$4N3287*%
X56069000Y40544674D03*
%TO.P,R78,1*%
%TO.N,$4N3376*%
X57469000Y40544674D03*
%TD*%
%TO.P,D21,2*%
%TO.N,+12V2*%
X61214000Y49553065D03*
%TO.P,D21,1*%
%TO.N,$4N4171*%
X61214000Y48153065D03*
%TD*%
D14*
%TO.P,C59,2*%
%TO.N,$4N4171*%
X58535595Y48853089D03*
%TO.P,C59,1*%
%TO.N,$4N3287*%
X58535595Y50253089D03*
%TD*%
%TO.P,C57,2*%
%TO.N,GND*%
X45127381Y50419000D03*
%TO.P,C57,1*%
%TO.N,+5V2*%
X43727381Y50419000D03*
%TD*%
%TO.P,R72,2*%
%TO.N,$4N2463*%
X57088000Y46065935D03*
%TO.P,R72,1*%
%TO.N,$4N3287*%
X55688000Y46065935D03*
%TD*%
D11*
%TO.P,C55,2*%
%TO.N,GND*%
X75960743Y44196000D03*
%TO.P,C55,1*%
%TO.N,+48V*%
X77360743Y44196000D03*
%TD*%
D14*
%TO.P,C68,2*%
%TO.N,+12V2*%
X55628705Y43098020D03*
%TO.P,C68,1*%
%TO.N,GND*%
X55628705Y44498020D03*
%TD*%
%TO.P,C69,2*%
%TO.N,+12V2*%
X64802398Y46508135D03*
%TO.P,C69,1*%
%TO.N,GND*%
X64802398Y47908135D03*
%TD*%
D11*
%TO.P,R69,2*%
%TO.N,+24.5V*%
X50884606Y39376998D03*
%TO.P,R69,1*%
%TO.N,$4N2476*%
X52284606Y39376998D03*
%TD*%
%TO.P,C62,2*%
%TO.N,$4N2476*%
X47941000Y39376998D03*
%TO.P,C62,1*%
%TO.N,LFB*%
X49341000Y39376998D03*
%TD*%
%TO.P,R67,2*%
%TO.N,$4N3246*%
X85598000Y37955839D03*
%TO.P,R67,1*%
%TO.N,$4N2542*%
X85598000Y36555839D03*
%TD*%
%TO.P,R68,2*%
%TO.N,$4N3246*%
X82025755Y35962267D03*
%TO.P,R68,1*%
%TO.N,$4N2570*%
X83425755Y35962267D03*
%TD*%
D14*
%TO.P,D22,2*%
%TO.N,$4N2665*%
X82949442Y30861000D03*
%TO.P,D22,1*%
%TO.N,$4N2663*%
X81549442Y30861000D03*
%TD*%
%TO.P,R76,2*%
%TO.N,$4N3192*%
X83362128Y28575000D03*
%TO.P,R76,1*%
%TO.N,$4N2663*%
X81962128Y28575000D03*
%TD*%
D11*
%TO.P,R79,2*%
%TO.N,$4N3192*%
X85725000Y30399097D03*
%TO.P,R79,1*%
%TO.N,$4N2665*%
X85725000Y28999097D03*
%TD*%
D14*
%TO.P,R83,2*%
%TO.N,$4N3376*%
X57469000Y38989000D03*
%TO.P,R83,1*%
%TO.N,+5V2*%
X56069000Y38989000D03*
%TD*%
D11*
%TO.P,C63,2*%
%TO.N,GND*%
X48514000Y29910000D03*
%TO.P,C63,1*%
%TO.N,+24.5V*%
X48514000Y28510000D03*
%TD*%
%TO.P,R66,2*%
%TO.N,$4N3977*%
X17846382Y137184816D03*
%TO.P,R66,1*%
%TO.N,GND*%
X19246382Y137184816D03*
%TD*%
%TO.P,R64,2*%
%TO.N,+12V*%
X20888425Y137287000D03*
%TO.P,R64,1*%
%TO.N,$4N3977*%
X22288425Y137287000D03*
%TD*%
D14*
%TO.P,C48,2*%
%TO.N,+12V*%
X43413004Y140895221D03*
%TO.P,C48,1*%
%TO.N,GND*%
X43413004Y142295221D03*
%TD*%
%TO.P,C45,1*%
%TO.N,48-72V*%
X7454113Y141540000D03*
%TO.P,C45,2*%
%TO.N,GND*%
X7454113Y142940000D03*
%TD*%
%TO.P,C58,2*%
%TO.N,$4N4171*%
X56313730Y47745026D03*
%TO.P,C58,1*%
%TO.N,$4N3287*%
X56313730Y49145026D03*
%TD*%
%TO.P,C54,2*%
%TO.N,GND*%
X74487000Y139319000D03*
%TO.P,C54,1*%
%TO.N,+5V*%
X73087000Y139319000D03*
%TD*%
%TO.P,C53,2*%
%TO.N,GND*%
X74487000Y143754589D03*
%TO.P,C53,1*%
%TO.N,+12V*%
X73087000Y143754589D03*
%TD*%
D12*
%TO.P,U21,1*%
%TO.N,CC2*%
X32417506Y26544657D03*
%TO.P,U21,2*%
%TO.N,CC1*%
X32417506Y25744657D03*
%TO.P,U21,3*%
%TO.N,$4N9834*%
X32417506Y24944657D03*
%TO.P,U21,4*%
%TO.N,$4N9841*%
X32417506Y24144657D03*
%TO.P,U21,5*%
%TO.N,IDC*%
X32417506Y23344657D03*
%TO.P,U21,6*%
%TO.N,CSPC*%
X32417506Y22544657D03*
%TO.P,U21,7*%
%TO.N,CSNC*%
X32417506Y21744657D03*
%TO.P,U21,8*%
%TO.N,CSNA*%
X32417506Y20944657D03*
D13*
%TO.P,U21,9*%
%TO.N,CSPC*%
X31617506Y20144657D03*
%TO.P,U21,10*%
%TO.N,VBUSC*%
X30817506Y20144657D03*
%TO.P,U21,11*%
%TO.N,VBUSA*%
X30017506Y20144657D03*
%TO.P,U21,12*%
%TO.N,$4N14153*%
X29217506Y20144657D03*
%TO.P,U21,13*%
%TO.N,GND*%
X28417506Y20144657D03*
%TO.P,U21,14*%
%TO.N,$4N4920*%
X27617506Y20144657D03*
%TO.P,U21,15*%
%TO.N,$4N8032*%
X26817506Y20144657D03*
%TO.P,U21,16*%
%TO.N,LGATE*%
X26017506Y20144657D03*
D12*
%TO.P,U21,17*%
%TO.N,HGATE*%
X25217506Y20944657D03*
%TO.P,U21,18*%
%TO.N,SW*%
X25217506Y21744657D03*
%TO.P,U21,19*%
%TO.N,+24.5V*%
X25217506Y22544657D03*
%TO.P,U21,20*%
%TO.N,N/C*%
X25217506Y23344657D03*
%TO.P,U21,21*%
X25217506Y24144657D03*
%TO.P,U21,22*%
%TO.N,GATEC*%
X25217506Y24944657D03*
%TO.P,U21,23*%
%TO.N,GATEA*%
X25217506Y25744657D03*
%TO.P,U21,24*%
%TO.N,GND*%
X25217506Y26544657D03*
D13*
%TO.P,U21,25*%
%TO.N,$4N43398*%
X26017506Y27344657D03*
%TO.P,U21,26*%
%TO.N,GND*%
X26817506Y27344657D03*
%TO.P,U21,27*%
%TO.N,$4N7969*%
X27617506Y27344657D03*
%TO.P,U21,28*%
%TO.N,$4N7910*%
X28417506Y27344657D03*
%TO.P,U21,29*%
%TO.N,GND*%
X29217506Y27344657D03*
%TD*%
D14*
%TO.P,U17,1*%
%TO.N,SW*%
X43116031Y10795000D03*
%TO.P,U17,2*%
%TO.N,CSPC*%
X41716031Y10795000D03*
%TD*%
D11*
%TO.P,C66,2*%
%TO.N,CC2*%
X22489870Y27744865D03*
%TO.P,C66,1*%
%TO.N,GND*%
X23889870Y27744865D03*
%TD*%
%TO.P,C67,2*%
%TO.N,CC1*%
X22489870Y26065391D03*
%TO.P,C67,1*%
%TO.N,GND*%
X23889870Y26065391D03*
%TD*%
D14*
%TO.P,C75,2*%
%TO.N,$4N4920*%
X30367402Y18726352D03*
%TO.P,C75,1*%
%TO.N,GND*%
X30367402Y20126352D03*
%TD*%
%TO.P,C72,2*%
%TO.N,$4N14153*%
X20454964Y27589391D03*
%TO.P,C72,1*%
%TO.N,GND*%
X19054964Y27589391D03*
%TD*%
%TO.P,C73,2*%
%TO.N,GND*%
X38454027Y29464000D03*
%TO.P,C73,1*%
%TO.N,+24.5V*%
X37054027Y29464000D03*
%TD*%
%TO.P,C74,2*%
%TO.N,+24.5V*%
X42737000Y23627105D03*
%TO.P,C74,1*%
%TO.N,GND*%
X41337000Y23627105D03*
%TD*%
D12*
%TO.P,Q17,1*%
%TO.N,VBUSA*%
X20650000Y15085112D03*
%TO.P,Q17,2*%
%TO.N,GATEA*%
X20650000Y14285112D03*
%TO.P,Q17,3*%
%TO.N,VBUSC*%
X20650000Y13485112D03*
D13*
%TO.P,Q17,4*%
%TO.N,GATEC*%
X19850000Y12685112D03*
%TO.P,Q17,8*%
%TO.N,CSNA*%
X19050000Y12685112D03*
%TO.P,Q17,7*%
X18250000Y12685112D03*
D12*
%TO.P,Q17,6*%
%TO.N,CSNC*%
X17450000Y13485112D03*
%TO.P,Q17,5*%
X17450000Y14285112D03*
%TO.P,Q17,6*%
X17450000Y15085112D03*
D13*
%TO.P,Q17,8*%
%TO.N,CSNA*%
X18250000Y15885112D03*
%TO.P,Q17,6*%
%TO.N,CSNC*%
X19050000Y15885112D03*
%TO.P,Q17,8*%
%TO.N,CSNA*%
X19850000Y15885112D03*
%TD*%
D12*
%TO.P,Q18,1*%
%TO.N,GND*%
X44628000Y18885000D03*
%TO.P,Q18,2*%
X44628000Y19685000D03*
%TO.P,Q18,3*%
X44628000Y20485000D03*
D15*
%TO.P,Q18,4*%
%TO.N,LGATE*%
X45428000Y21285000D03*
%TO.P,Q18,5*%
%TO.N,SW*%
X46228000Y21285000D03*
%TO.P,Q18,6*%
X47028000Y21285000D03*
D12*
%TO.P,Q18,7*%
X47828000Y20485000D03*
%TO.P,Q18,8*%
X47828000Y19685000D03*
X47828000Y18885000D03*
%TD*%
%TO.P,Q16,1*%
%TO.N,SW*%
X39206324Y19036760D03*
%TO.P,Q16,2*%
X39206324Y19836760D03*
%TO.P,Q16,3*%
X39206324Y20636760D03*
D15*
%TO.P,Q16,4*%
%TO.N,HGATE*%
X40006324Y21436760D03*
%TO.P,Q16,5*%
%TO.N,+24.5V*%
X40806324Y21436760D03*
%TO.P,Q16,6*%
X41606324Y21436760D03*
D12*
%TO.P,Q16,7*%
X42406324Y20636760D03*
%TO.P,Q16,8*%
X42406324Y19836760D03*
X42406324Y19036760D03*
%TD*%
D11*
%TO.P,C52,2*%
%TO.N,CSPC*%
X29717505Y11622000D03*
%TO.P,C52,1*%
%TO.N,GND*%
X29717505Y10222000D03*
%TD*%
D14*
%TO.P,U18,2*%
%TO.N,CSNC*%
X24374794Y13081000D03*
%TO.P,U18,1*%
%TO.N,CSPC*%
X22974794Y13081000D03*
%TD*%
%TO.P,U19,2*%
%TO.N,CSNA*%
X24449000Y15539771D03*
%TO.P,U19,1*%
%TO.N,CSPC*%
X23049000Y15539771D03*
%TD*%
%TO.P,C49,2*%
%TO.N,GND*%
X10795000Y10906060D03*
%TO.P,C49,1*%
%TO.N,VBUSC*%
X10795000Y12306060D03*
%TD*%
D12*
%TO.P,USB1,A1B12*%
%TO.N,GND*%
X7207000Y9201000D03*
%TO.P,USB1,A4B9*%
%TO.N,VBUSC*%
X7207000Y8401000D03*
%TO.P,USB1,B1A12*%
%TO.N,GND*%
X7207000Y7601000D03*
%TO.P,USB1,B4A9*%
%TO.N,VBUSC*%
X7207000Y6801000D03*
D13*
%TO.P,USB1,B5*%
%TO.N,CC2R*%
X6407000Y6001000D03*
%TO.P,USB1,B8*%
%TO.N,N/C*%
X5607000Y6001000D03*
%TO.P,USB1,B6*%
%TO.N,DPCR*%
X4807000Y6001000D03*
%TO.P,USB1,A7*%
%TO.N,DMCR*%
X4007000Y6001000D03*
D12*
%TO.P,USB1,A6*%
%TO.N,DPCR*%
X3207000Y6801000D03*
%TO.P,USB1,B7*%
%TO.N,DMCR*%
X3207000Y7601000D03*
%TO.P,USB1,A5*%
%TO.N,CC1R*%
X3207000Y8401000D03*
%TO.P,USB1,A8*%
%TO.N,N/C*%
X3207000Y9201000D03*
D13*
%TO.P,USB1,4*%
%TO.N,GND*%
X4007000Y10001000D03*
%TO.P,USB1,3*%
X4807000Y10001000D03*
%TO.P,USB1,2*%
X5607000Y10001000D03*
%TO.P,USB1,1*%
X6407000Y10001000D03*
%TD*%
D14*
%TO.P,C56,2*%
%TO.N,GND*%
X14527593Y26891004D03*
%TO.P,C56,1*%
%TO.N,VBUSA*%
X14527593Y28291004D03*
%TD*%
%TO.P,R80,2*%
%TO.N,DMAR*%
X26719632Y27905391D03*
%TO.P,R80,1*%
%TO.N,$4N7910*%
X26719632Y29305391D03*
%TD*%
%TO.P,R82,2*%
%TO.N,DPAR*%
X28193238Y27875000D03*
%TO.P,R82,1*%
%TO.N,$4N7969*%
X28193238Y29275000D03*
%TD*%
D11*
%TO.P,C76,2*%
%TO.N,$4N8032*%
X33401000Y23730683D03*
%TO.P,C76,1*%
%TO.N,SW*%
X33401000Y22330683D03*
%TD*%
D14*
%TO.P,R81,2*%
%TO.N,$4N9834*%
X16810268Y4840262D03*
%TO.P,R81,1*%
%TO.N,DPCR*%
X15410268Y4840262D03*
%TD*%
D11*
%TO.P,R84,2*%
%TO.N,$4N9841*%
X10336922Y6618935D03*
%TO.P,R84,1*%
%TO.N,DMCR*%
X11736922Y6618935D03*
%TD*%
D14*
%TO.P,R71,2*%
%TO.N,CC2R*%
X11736922Y4953000D03*
%TO.P,R71,1*%
%TO.N,CC2*%
X10336922Y4953000D03*
%TD*%
%TO.P,R74,2*%
%TO.N,CC1R*%
X11736922Y8272958D03*
%TO.P,R74,1*%
%TO.N,CC1*%
X10336922Y8272958D03*
%TD*%
%TO.P,C70,2*%
%TO.N,$4N9834*%
X16802520Y3429000D03*
%TO.P,C70,1*%
%TO.N,GND*%
X15402520Y3429000D03*
%TD*%
%TO.P,C71,2*%
%TO.N,$4N9841*%
X15500440Y6751066D03*
%TO.P,C71,1*%
%TO.N,GND*%
X14100440Y6751066D03*
%TD*%
%TO.P,C44,2*%
%TO.N,GND*%
X12387936Y141921000D03*
%TO.P,C44,1*%
%TO.N,48-72V*%
X12387936Y143321000D03*
%TD*%
%TO.P,LED1,1*%
%TO.N,IDC*%
X23400983Y24130000D03*
%TO.P,LED1,2*%
%TO.N,$4N14125*%
X22000983Y24130000D03*
%TD*%
%TO.P,R85,2*%
%TO.N,$4N14153*%
X20526237Y25765811D03*
%TO.P,R85,1*%
%TO.N,$4N14125*%
X19126237Y25765811D03*
%TD*%
D12*
%TO.P,M4,1*%
%TO.N,$5N8675*%
X266649000Y83777990D03*
X266649000Y82977990D03*
X266649000Y82177990D03*
D13*
X265849000Y81377990D03*
X265049000Y81377990D03*
X264249000Y81377990D03*
D12*
X263449000Y82177990D03*
X263449000Y82977990D03*
X263449000Y83777990D03*
%TD*%
%TO.P,M5,1*%
%TO.N,$5N8672*%
X267497995Y72962467D03*
X267497995Y72162467D03*
X267497995Y71362467D03*
D13*
X266697995Y70562467D03*
X265897995Y70562467D03*
X265097995Y70562467D03*
D12*
X264297995Y71362467D03*
X264297995Y72162467D03*
X264297995Y72962467D03*
%TD*%
D11*
%TO.P,R20,2*%
%TO.N,SDLIN*%
X60833000Y132653000D03*
%TO.P,R20,1*%
%TO.N,$1N1866*%
X60833000Y131253000D03*
%TD*%
D14*
%TO.P,R19,2*%
%TO.N,$1N1866*%
X59055000Y131253000D03*
%TO.P,R19,1*%
%TO.N,REF5*%
X59055000Y132653000D03*
%TD*%
D11*
%TO.P,R17,2*%
%TO.N,SDHIN*%
X52832000Y127700000D03*
%TO.P,R17,1*%
%TO.N,$1N4013*%
X52832000Y126300000D03*
%TD*%
%TO.P,C47,2*%
%TO.N,GND*%
X38100000Y141312063D03*
%TO.P,C47,1*%
%TO.N,+12V*%
X38100000Y139912063D03*
%TD*%
%TO.P,C51,2*%
%TO.N,GND*%
X25114809Y8193000D03*
%TO.P,C51,1*%
%TO.N,CSPC*%
X25114809Y6793000D03*
%TD*%
D14*
%TO.P,L5,2*%
%TO.N,+12V2*%
X69408956Y7112000D03*
%TO.P,L5,1*%
%TO.N,$4N21736*%
X68008956Y7112000D03*
%TD*%
D11*
%TO.P,C79,2*%
%TO.N,$4N21736*%
X62662372Y13744500D03*
%TO.P,C79,1*%
%TO.N,$4N21735*%
X62662372Y12344500D03*
%TD*%
D14*
%TO.P,R88,2*%
%TO.N,$4N21737*%
X73084729Y17780000D03*
%TO.P,R88,1*%
%TO.N,GND*%
X71684729Y17780000D03*
%TD*%
%TO.P,R86,2*%
%TO.N,$4N21740*%
X74940212Y15037829D03*
%TO.P,R86,1*%
%TO.N,+48V*%
X73540212Y15037829D03*
%TD*%
D11*
%TO.P,R89,2*%
%TO.N,$4N21743*%
X61595468Y16256000D03*
%TO.P,R89,1*%
%TO.N,GND*%
X62995468Y16256000D03*
%TD*%
D14*
%TO.P,R87,2*%
%TO.N,+12V2*%
X62995468Y18034000D03*
%TO.P,R87,1*%
%TO.N,$4N21743*%
X61595468Y18034000D03*
%TD*%
D11*
%TO.P,C80,2*%
%TO.N,+12V2*%
X55319103Y13344716D03*
%TO.P,C80,1*%
%TO.N,GND*%
X56719103Y13344716D03*
%TD*%
%TO.P,C78,1*%
%TO.N,+48V*%
X73896803Y22509188D03*
%TO.P,C78,2*%
%TO.N,GND*%
X75296803Y22509188D03*
%TD*%
%TO.P,C77,2*%
%TO.N,GND*%
X73364662Y13468516D03*
%TO.P,C77,1*%
%TO.N,+48V*%
X73364662Y12068516D03*
%TD*%
D14*
%TO.P,C81,2*%
%TO.N,GND*%
X59850210Y7301000D03*
%TO.P,C81,1*%
%TO.N,+12V2*%
X59850210Y8701000D03*
%TD*%
D12*
%TO.P,U22,8*%
%TO.N,$4N21736*%
X66352988Y13479499D03*
%TO.P,U22,1*%
%TO.N,GND*%
X66352988Y14279499D03*
%TO.P,U22,7*%
%TO.N,$4N21735*%
X66352988Y15079499D03*
D15*
%TO.P,U22,6*%
%TO.N,N/C*%
X67152988Y15879499D03*
%TO.P,U22,5*%
%TO.N,$4N21743*%
X67952988Y15879499D03*
%TO.P,U22,2*%
%TO.N,+48V*%
X68752988Y15879499D03*
D12*
%TO.P,U22,3*%
%TO.N,$4N21740*%
X69552988Y15079499D03*
%TO.P,U22,4*%
%TO.N,$4N21737*%
X69552988Y14279499D03*
%TO.P,U22,9*%
%TO.N,GND*%
X69552988Y13479499D03*
%TD*%
D11*
%TO.P,R77,2*%
%TO.N,LFB*%
X47560000Y37419516D03*
%TO.P,R77,1*%
%TO.N,GND*%
X48960000Y37419516D03*
%TD*%
D16*
%TO.P,USB2,7*%
%TO.N,GND*%
X12484000Y21260000D03*
%TO.P,USB2,8*%
X11684000Y21260000D03*
%TO.P,USB2,9*%
X10884000Y21260000D03*
D15*
%TO.P,USB2,6*%
X10084000Y22060000D03*
%TO.P,USB2,3*%
%TO.N,N/C*%
X10084000Y22860000D03*
%TO.P,USB2,2*%
%TO.N,DMAR*%
X10084000Y23660000D03*
D16*
%TO.P,USB2,4*%
%TO.N,DPAR*%
X10884000Y24460000D03*
%TO.P,USB2,5*%
%TO.N,GND*%
X11684000Y24460000D03*
%TO.P,USB2,1*%
%TO.N,VBUSA*%
X12484000Y24460000D03*
%TD*%
D10*
%TO.P,U14,1*%
%TO.N,+400V*%
X168994000Y134620000D03*
%TO.P,U14,2*%
%TO.N,N/C*%
X168233900Y133573800D03*
%TO.P,U14,5*%
%TO.N,+H5V*%
X167004100Y133973400D03*
%TO.P,U14,4*%
%TO.N,+H15V*%
X167004100Y135266600D03*
%TO.P,U14,3*%
%TO.N,PGND*%
X168233900Y135666200D03*
%TD*%
D11*
%TO.P,C36,2*%
%TO.N,PGND*%
X253111000Y138080980D03*
%TO.P,C36,1*%
%TO.N,$3N5967*%
X253111000Y136680980D03*
%TD*%
%TO.P,R56,2*%
%TO.N,$3N5901*%
X241602678Y101959766D03*
%TO.P,R56,1*%
%TO.N,AC_L*%
X243002678Y101959766D03*
%TD*%
%TO.P,R55,2*%
%TO.N,$3N5967*%
X244608209Y101959766D03*
%TO.P,R55,1*%
%TO.N,$3N5901*%
X246008209Y101959766D03*
%TD*%
%TO.P,R51,2*%
%TO.N,PGND*%
X254817245Y137995636D03*
%TO.P,R51,1*%
%TO.N,$3N5967*%
X254817245Y136595636D03*
%TD*%
D12*
%TO.P,U13,1*%
%TO.N,$3N7425*%
X235335124Y143633246D03*
%TO.P,U13,2*%
%TO.N,PGND*%
X236135124Y143633246D03*
%TO.P,U13,3*%
%TO.N,$3N5727*%
X236935124Y143633246D03*
%TO.P,U13,4*%
%TO.N,PGND*%
X237735124Y143633246D03*
%TO.P,U13,5*%
%TO.N,AC_N*%
X238535124Y143633246D03*
D13*
%TO.P,U13,6*%
%TO.N,$3N5704*%
X239335124Y142833246D03*
%TO.P,U13,7*%
%TO.N,PGND*%
X239335124Y142033246D03*
%TO.P,U13,8*%
%TO.N,$3N5698*%
X239335124Y141233246D03*
%TO.P,U13,9*%
%TO.N,$3N5683*%
X239335124Y140433246D03*
%TO.P,U13,10*%
%TO.N,$3N5677*%
X239335124Y139633246D03*
D12*
%TO.P,U13,11*%
%TO.N,PGND*%
X238535124Y138833246D03*
%TO.P,U13,12*%
%TO.N,+H15V*%
X237735124Y138833246D03*
%TO.P,U13,13*%
%TO.N,PGND*%
X236935124Y138833246D03*
%TO.P,U13,14*%
%TO.N,+H5V*%
X236135124Y138833246D03*
%TO.P,U13,15*%
%TO.N,$3N5967*%
X235335124Y138833246D03*
D13*
%TO.P,U13,16*%
%TO.N,$3N15793*%
X234535124Y139633246D03*
%TO.P,U13,17*%
%TO.N,N/C*%
X234535124Y140433246D03*
%TD*%
D10*
%TO.P,K1,1*%
%TO.N,IN_N*%
X250208000Y64348970D03*
%TO.P,K1,2*%
%TO.N,IN_L*%
X250723500Y65593470D03*
%TO.P,K1,3*%
%TO.N,AC_N*%
X251968000Y66108970D03*
%TO.P,K1,5*%
%TO.N,$5N8672*%
X253212500Y65593470D03*
%TO.P,K1,7*%
%TO.N,IN_N*%
X253728000Y64348970D03*
%TO.P,K1,4*%
%TO.N,AC_L*%
X253212500Y63104470D03*
%TO.P,K1,6*%
%TO.N,$5N8675*%
X251968000Y62588970D03*
%TO.P,K1,8*%
%TO.N,IN_L*%
X250723500Y63104470D03*
%TD*%
D11*
%TO.P,R112,2*%
%TO.N,$5N14089*%
X208098454Y27751000D03*
%TO.P,R112,1*%
%TO.N,CGND*%
X208098454Y26351000D03*
%TD*%
D14*
%TO.P,R98,2*%
%TO.N,BGND*%
X108045490Y19203873D03*
%TO.P,R98,1*%
%TO.N,$5N11155*%
X106645490Y19203873D03*
%TD*%
D11*
%TO.P,LED2,1*%
%TO.N,$5N11155*%
X110011412Y19177000D03*
%TO.P,LED2,2*%
%TO.N,FLYBUCK*%
X111411412Y19177000D03*
%TD*%
%TO.P,R110,2*%
%TO.N,$5N21264*%
X150749000Y43499000D03*
%TO.P,R110,1*%
%TO.N,$5N21369*%
X150749000Y42099000D03*
%TD*%
%TO.P,R115,2*%
%TO.N,$5N21278*%
X103313000Y30607000D03*
%TO.P,R115,1*%
%TO.N,$5N27996*%
X104713000Y30607000D03*
%TD*%
%TO.P,R116,2*%
%TO.N,$5N21281*%
X109347000Y27116000D03*
%TO.P,R116,1*%
%TO.N,$5N21278*%
X109347000Y25716000D03*
%TD*%
D14*
%TO.P,R117,2*%
%TO.N,BGND*%
X112776000Y25716000D03*
%TO.P,R117,1*%
%TO.N,$5N21281*%
X112776000Y27116000D03*
%TD*%
D16*
%TO.P,M2,1*%
%TO.N,IN_L*%
X265602981Y19355000D03*
X264802981Y19355000D03*
X264002981Y19355000D03*
D15*
X263202981Y20155000D03*
X263202981Y20955000D03*
X263202981Y21755000D03*
D16*
X264002981Y22555000D03*
X264802981Y22555000D03*
X265602981Y22555000D03*
%TD*%
D14*
%TO.P,CN3,1*%
%TO.N,+12V2*%
X78719643Y6858000D03*
%TO.P,CN3,2*%
%TO.N,GND*%
X77319643Y6858000D03*
%TD*%
%TO.P,CN2,1*%
%TO.N,+12V2*%
X87314000Y6858000D03*
%TO.P,CN2,2*%
%TO.N,GND*%
X85914000Y6858000D03*
%TD*%
%TO.P,R107,2*%
%TO.N,$5N17837*%
X199072273Y21717000D03*
%TO.P,R107,1*%
%TO.N,$5N14121*%
X197672273Y21717000D03*
%TD*%
D11*
%TO.P,C88,2*%
%TO.N,CGND*%
X206311094Y22671000D03*
%TO.P,C88,1*%
%TO.N,VDD*%
X206311094Y21271000D03*
%TD*%
D14*
%TO.P,C89,2*%
%TO.N,$5N14121*%
X208972569Y15123552D03*
%TO.P,C89,1*%
%TO.N,CGND*%
X208972569Y16523552D03*
%TD*%
D10*
%TO.P,D25,2*%
%TO.N,FLYBUCK*%
X135192033Y39862000D03*
%TO.P,D25,3*%
%TO.N,$5N17421*%
X136058033Y38362000D03*
%TO.P,D25,1*%
X134326033Y38362000D03*
%TD*%
D14*
%TO.P,R95,2*%
%TO.N,$5N17421*%
X132653000Y34957487D03*
%TO.P,R95,1*%
%TO.N,$5N14128*%
X131253000Y34957487D03*
%TD*%
D11*
%TO.P,C83,2*%
%TO.N,FLYBUCK*%
X135959036Y34781985D03*
%TO.P,C83,1*%
%TO.N,$5N14128*%
X137359036Y34781985D03*
%TD*%
%TO.P,D26,2*%
%TO.N,$5N14086*%
X206027030Y11114000D03*
%TO.P,D26,1*%
%TO.N,$5N36391*%
X206027030Y9714000D03*
%TD*%
%TO.P,R100,2*%
%TO.N,$5N14086*%
X209154586Y10987000D03*
%TO.P,R100,1*%
%TO.N,$5N36391*%
X209154586Y9587000D03*
%TD*%
D10*
%TO.P,U27,5*%
%TO.N,N/C*%
X209988569Y19890058D03*
%TO.P,U27,6*%
%TO.N,$5N14121*%
X208744069Y20405558D03*
%TO.P,U27,7*%
%TO.N,VDD*%
X208228569Y21650058D03*
%TO.P,U27,8*%
%TO.N,$5N36391*%
X208744069Y22894558D03*
%TO.P,U27,4*%
%TO.N,$5N14089*%
X209988569Y23410058D03*
%TO.P,U27,3*%
%TO.N,$5N14113*%
X211233069Y22894558D03*
%TO.P,U27,2*%
%TO.N,$5N21306*%
X211748569Y21650058D03*
%TO.P,U27,1*%
%TO.N,CGND*%
X211233069Y20405558D03*
%TD*%
D11*
%TO.P,C85,1*%
%TO.N,FLYBUCK*%
X121882611Y26735000D03*
%TO.P,C85,2*%
%TO.N,BGND*%
X121882611Y25335000D03*
%TD*%
%TO.P,C84,1*%
%TO.N,FLYBUCK*%
X135763000Y26735000D03*
%TO.P,C84,2*%
%TO.N,BGND*%
X135763000Y25335000D03*
%TD*%
%TO.P,R104,2*%
%TO.N,$5N14086*%
X206612998Y16321000D03*
%TO.P,R104,1*%
%TO.N,$5N17837*%
X206612998Y14921000D03*
%TD*%
D14*
%TO.P,R93,2*%
%TO.N,$5N14116*%
X189748490Y39190116D03*
%TO.P,R93,1*%
%TO.N,$5N29963*%
X189748490Y40590116D03*
%TD*%
%TO.P,R92,2*%
%TO.N,$5N14116*%
X192161490Y39190116D03*
%TO.P,R92,1*%
%TO.N,$5N29963*%
X192161490Y40590116D03*
%TD*%
%TO.P,R91,2*%
%TO.N,$5N14116*%
X197114490Y39190116D03*
%TO.P,R91,1*%
%TO.N,$5N29963*%
X197114490Y40590116D03*
%TD*%
%TO.P,R94,2*%
%TO.N,$5N14116*%
X194693443Y39190116D03*
%TO.P,R94,1*%
%TO.N,$5N29963*%
X194693443Y40590116D03*
%TD*%
D11*
%TO.P,D27,2*%
%TO.N,$5N14110*%
X194454247Y29529000D03*
%TO.P,D27,1*%
%TO.N,VDD*%
X194454247Y28129000D03*
%TD*%
D14*
%TO.P,C82,1*%
%TO.N,$5N29963*%
X203327000Y39180083D03*
%TO.P,C82,2*%
%TO.N,$5N14116*%
X203327000Y40580083D03*
%TD*%
D11*
%TO.P,D24,2*%
%TO.N,$5N14102*%
X189103000Y34013167D03*
%TO.P,D24,1*%
%TO.N,$5N29963*%
X189103000Y32613167D03*
%TD*%
%TO.P,U23,2*%
%TO.N,CGND*%
X220980000Y13654000D03*
%TO.P,U23,1*%
%TO.N,$5N14116*%
X220980000Y12254000D03*
%TD*%
%TO.P,R90,1*%
%TO.N,$5N28275*%
X237351543Y18542000D03*
%TO.P,R90,2*%
%TO.N,$5N14105*%
X238751543Y18542000D03*
%TD*%
D10*
%TO.P,D23,2*%
%TO.N,$5N14116*%
X242426439Y9636000D03*
%TO.P,D23,1*%
%TO.N,$5N14105*%
X243426439Y8636000D03*
%TO.P,D23,4*%
%TO.N,CGND*%
X242426439Y7636000D03*
%TO.P,D23,3*%
%TO.N,$5N28266*%
X241426439Y8636000D03*
%TD*%
D11*
%TO.P,R97,1*%
%TO.N,IN_N*%
X249016342Y33085000D03*
%TO.P,R97,2*%
%TO.N,$5N28284*%
X249016342Y31685000D03*
%TD*%
D14*
%TO.P,U25,1*%
%TO.N,IN_L*%
X253176000Y21209000D03*
%TO.P,U25,2*%
%TO.N,$5N28284*%
X251776000Y21209000D03*
%TD*%
%TO.P,R101,2*%
%TO.N,$5N14111*%
X190194490Y26954048D03*
%TO.P,R101,1*%
%TO.N,$5N14110*%
X188794490Y26954048D03*
%TD*%
D11*
%TO.P,C86,1*%
%TO.N,VDD*%
X199579000Y30348415D03*
%TO.P,C86,2*%
%TO.N,CGND*%
X200979000Y30348415D03*
%TD*%
%TO.P,R106,2*%
%TO.N,$5N14114*%
X210522577Y31750000D03*
%TO.P,R106,1*%
%TO.N,$5N14113*%
X211922577Y31750000D03*
%TD*%
%TO.P,R103,2*%
%TO.N,$5N14115*%
X215140416Y30928416D03*
%TO.P,R103,1*%
%TO.N,$5N14114*%
X215140416Y29528416D03*
%TD*%
%TO.P,R99,2*%
%TO.N,$5N14116*%
X215196161Y25152837D03*
%TO.P,R99,1*%
%TO.N,$5N14115*%
X215196161Y23752837D03*
%TD*%
%TO.P,R109,2*%
%TO.N,$5N17837*%
X191905533Y21082000D03*
%TO.P,R109,1*%
%TO.N,CGND*%
X193305533Y21082000D03*
%TD*%
D14*
%TO.P,C90,2*%
%TO.N,+12V3*%
X108180862Y30226000D03*
%TO.P,C90,1*%
%TO.N,BGND*%
X106780862Y30226000D03*
%TD*%
D10*
%TO.P,U28,1*%
%TO.N,$5N21369*%
X153429777Y43577000D03*
%TO.P,U28,2*%
%TO.N,$5N21268*%
X152563777Y45077000D03*
%TO.P,U28,3*%
%TO.N,BGND*%
X154295777Y45077000D03*
%TD*%
D11*
%TO.P,R113,2*%
%TO.N,$5N21369*%
X147509000Y43653735D03*
%TO.P,R113,1*%
%TO.N,BGND*%
X148909000Y43653735D03*
%TD*%
%TO.P,C87,2*%
%TO.N,$5N21268*%
X152659876Y41815177D03*
%TO.P,C87,1*%
%TO.N,$5N21264*%
X154059876Y41815177D03*
%TD*%
D10*
%TO.P,U26,4*%
%TO.N,$5N21306*%
X170291000Y43180000D03*
%TO.P,U26,3*%
%TO.N,CGND*%
X169291000Y42180000D03*
%TO.P,U26,2*%
%TO.N,$5N21268*%
X168291000Y43180000D03*
%TO.P,U26,1*%
%TO.N,$5N21265*%
X169291000Y44180000D03*
%TD*%
D14*
%TO.P,R108,2*%
%TO.N,$5N21265*%
X161544000Y42686611D03*
%TO.P,R108,1*%
%TO.N,$5N21268*%
X161544000Y44086611D03*
%TD*%
%TO.P,R105,2*%
%TO.N,+12V3*%
X158316497Y44383345D03*
%TO.P,R105,1*%
%TO.N,$5N21265*%
X156916497Y44383345D03*
%TD*%
D10*
%TO.P,U29,1*%
%TO.N,$5N27987*%
X104013000Y25144640D03*
%TO.P,U29,2*%
%TO.N,$5N27996*%
X102768500Y25660140D03*
%TO.P,U29,3*%
%TO.N,$5N21271*%
X102253000Y26904640D03*
%TO.P,U29,4*%
%TO.N,BGND*%
X102768500Y28149140D03*
%TO.P,U29,8*%
%TO.N,+12V3*%
X104013000Y28664640D03*
%TO.P,U29,7*%
%TO.N,$5N21278*%
X105257500Y28149140D03*
%TO.P,U29,6*%
%TO.N,$5N21281*%
X105773000Y26904640D03*
%TO.P,U29,5*%
%TO.N,$5N28177*%
X105257500Y25660140D03*
%TD*%
D14*
%TO.P,D28,2*%
%TO.N,$5N21268*%
X100873458Y32320000D03*
%TO.P,D28,1*%
%TO.N,$5N27987*%
X100873458Y33720000D03*
%TD*%
D11*
%TO.P,R114,2*%
%TO.N,$5N21271*%
X97542222Y23622000D03*
%TO.P,R114,1*%
%TO.N,$5N21273*%
X98942222Y23622000D03*
%TD*%
D10*
%TO.P,PR2,2*%
%TO.N,$5N21273*%
X98171000Y14875000D03*
%TO.P,PR2,1*%
%TO.N,BGND*%
X97305000Y16375000D03*
%TO.P,PR2,3*%
%TO.N,+12V3*%
X99037000Y16375000D03*
%TD*%
D14*
%TO.P,C91,2*%
%TO.N,$5N21273*%
X98871000Y21817071D03*
%TO.P,C91,1*%
%TO.N,BGND*%
X97471000Y21817071D03*
%TD*%
D11*
%TO.P,C92,2*%
%TO.N,$5N21281*%
X111025000Y27044778D03*
%TO.P,C92,1*%
%TO.N,$5N21278*%
X111025000Y25644778D03*
%TD*%
D14*
%TO.P,R118,2*%
%TO.N,$5N21739*%
X114617197Y9652000D03*
%TO.P,R118,1*%
%TO.N,$5N28177*%
X113217197Y9652000D03*
%TD*%
D11*
%TO.P,R119,1*%
%TO.N,$5N21739*%
X114327431Y6096000D03*
%TO.P,R119,2*%
%TO.N,BGND*%
X115727431Y6096000D03*
%TD*%
D14*
%TO.P,C93,2*%
%TO.N,$5N28177*%
X117595499Y9669996D03*
%TO.P,C93,1*%
%TO.N,BGND*%
X116195499Y9669996D03*
%TD*%
D10*
%TO.P,PR1,2*%
%TO.N,$5N21369*%
X146685000Y29914639D03*
%TO.P,PR1,1*%
%TO.N,FLYBUCK*%
X147551000Y28414639D03*
%TO.P,PR1,3*%
%TO.N,$5N21369*%
X145819000Y28414639D03*
%TD*%
D11*
%TO.P,U30,2*%
%TO.N,FLYBUCK*%
X106677382Y14986000D03*
%TO.P,U30,1*%
%TO.N,48-72V*%
X108077382Y14986000D03*
%TD*%
D14*
%TO.P,R121,2*%
%TO.N,$5N21674*%
X149069222Y15048000D03*
%TO.P,R121,1*%
%TO.N,BGND*%
X149069222Y16448000D03*
%TD*%
%TO.P,CN4,1*%
%TO.N,BAT_G*%
X107253000Y6604000D03*
%TO.P,CN4,2*%
%TO.N,$5N21739*%
X105853000Y6604000D03*
%TD*%
D11*
%TO.P,C94,1*%
%TO.N,BGND*%
X169099000Y4826000D03*
%TO.P,C94,2*%
%TO.N,CGND*%
X170499000Y4826000D03*
%TD*%
D10*
%TO.P,D29,2*%
%TO.N,FLYBUCK*%
X115089000Y39862000D03*
%TO.P,D29,3*%
%TO.N,$5N17421*%
X115955000Y38362000D03*
%TO.P,D29,1*%
X114223000Y38362000D03*
%TD*%
D14*
%TO.P,R120,2*%
%TO.N,FLYBUCK*%
X149069222Y20255000D03*
%TO.P,R120,1*%
%TO.N,$5N21674*%
X149069222Y21655000D03*
%TD*%
%TO.P,C10,2*%
%TO.N,$1N4084*%
X63119000Y141921000D03*
%TO.P,C10,1*%
%TO.N,SDLIN*%
X63119000Y143321000D03*
%TD*%
%TO.P,C11,2*%
%TO.N,$1N4084*%
X60706000Y141933929D03*
%TO.P,C11,1*%
%TO.N,SDLIN*%
X60706000Y143333929D03*
%TD*%
D11*
%TO.P,C15,2*%
%TO.N,+12V*%
X69088000Y143194000D03*
%TO.P,C15,1*%
%TO.N,GND*%
X69088000Y141794000D03*
%TD*%
%TO.P,C13,2*%
%TO.N,$1N1874*%
X48215574Y138811000D03*
%TO.P,C13,1*%
%TO.N,GND*%
X49615574Y138811000D03*
%TD*%
%TO.P,C65,2*%
%TO.N,$4N2453*%
X43543803Y43846623D03*
%TO.P,C65,1*%
%TO.N,GND*%
X44943803Y43846623D03*
%TD*%
%TO.P,R123,2*%
%TO.N,$3N11235*%
X259207000Y126303000D03*
%TO.P,R123,1*%
%TO.N,$3N11240*%
X259207000Y124903000D03*
%TD*%
D14*
%TO.P,R124,2*%
%TO.N,$3N11226*%
X229616000Y130364000D03*
%TO.P,R124,1*%
%TO.N,$3N11232*%
X229616000Y131764000D03*
%TD*%
D11*
%TO.P,R126,2*%
%TO.N,$3N11217*%
X184170000Y131927627D03*
%TO.P,R126,1*%
%TO.N,$3N11223*%
X184170000Y130527627D03*
%TD*%
%TO.P,C106,2*%
%TO.N,LLCIFB*%
X109733612Y143657328D03*
%TO.P,C106,1*%
%TO.N,GND*%
X111133612Y143657328D03*
%TD*%
D14*
%TO.P,R127,2*%
%TO.N,$4N43359*%
X29718000Y28383000D03*
%TO.P,R127,1*%
%TO.N,$4N43398*%
X29718000Y29783000D03*
%TD*%
%TO.P,C107,2*%
%TO.N,GND*%
X29617606Y32512024D03*
%TO.P,C107,1*%
%TO.N,$4N43359*%
X29617606Y33912024D03*
%TD*%
%TO.P,C108,2*%
%TO.N,GND*%
X31267400Y28383000D03*
%TO.P,C108,1*%
%TO.N,$4N43398*%
X31267400Y29783000D03*
%TD*%
D10*
%TO.P,Q24,2*%
%TO.N,BAT_G*%
X12118008Y63179510D03*
%TO.P,Q24,3*%
%TO.N,GND*%
X13618008Y64045510D03*
%TO.P,Q24,1*%
%TO.N,$1N24864*%
X13618008Y62313510D03*
%TD*%
D16*
%TO.P,U24,5*%
%TO.N,$5N17421*%
X168922803Y22276000D03*
%TO.P,U24,6*%
X168122803Y22276000D03*
%TO.P,U24,7*%
X167322803Y22276000D03*
D15*
%TO.P,U24,8*%
%TO.N,BGND*%
X166522803Y23076000D03*
%TO.P,U24,9*%
X166522803Y23876000D03*
%TO.P,U24,10*%
X166522803Y24676000D03*
D16*
%TO.P,U24,4*%
%TO.N,$5N14116*%
X167322803Y25476000D03*
%TO.P,U24,2*%
%TO.N,CGND*%
X168122803Y25476000D03*
%TO.P,U24,1*%
%TO.N,$5N14111*%
X168922803Y25476000D03*
D15*
%TO.P,U24,3*%
%TO.N,$5N14102*%
X169722803Y24676000D03*
%TD*%
D11*
%TO.P,C109,1*%
%TO.N,IN_N*%
X241935000Y33309587D03*
%TO.P,C109,2*%
%TO.N,$5N28284*%
X241935000Y31909587D03*
%TD*%
%TO.P,C111,2*%
%TO.N,$5N27996*%
X99060000Y29016639D03*
%TO.P,C111,1*%
%TO.N,$5N27987*%
X99060000Y27616639D03*
%TD*%
D14*
%TO.P,C110,2*%
%TO.N,$5N21306*%
X178115976Y42743190D03*
%TO.P,C110,1*%
%TO.N,CGND*%
X178115976Y44143190D03*
%TD*%
D10*
%TO.P,L6,3*%
%TO.N,$5N28284*%
X228235000Y33017155D03*
%TO.P,L6,4*%
%TO.N,$5N28275*%
X229235000Y34017155D03*
%TO.P,L6,1*%
%TO.N,$5N28266*%
X230235000Y33017155D03*
%TO.P,L6,2*%
%TO.N,IN_N*%
X229235000Y32017155D03*
%TD*%
D12*
%TO.P,U32,8*%
%TO.N,$3N13400*%
X138314357Y16363172D03*
%TO.P,U32,1*%
%TO.N,BGND*%
X138314357Y15563172D03*
%TO.P,U32,7*%
%TO.N,$3N13399*%
X138314357Y14763172D03*
D13*
%TO.P,U32,6*%
%TO.N,N/C*%
X137514357Y13963172D03*
%TO.P,U32,5*%
%TO.N,$3N13407*%
X136714357Y13963172D03*
%TO.P,U32,2*%
%TO.N,FLYBUCK*%
X135914357Y13963172D03*
D12*
%TO.P,U32,3*%
%TO.N,$3N13404*%
X135114357Y14763172D03*
%TO.P,U32,4*%
%TO.N,$3N13401*%
X135114357Y15563172D03*
%TO.P,U32,9*%
%TO.N,BGND*%
X135114357Y16363172D03*
%TD*%
D14*
%TO.P,L7,2*%
%TO.N,+12V3*%
X139263033Y7493000D03*
%TO.P,L7,1*%
%TO.N,$3N13400*%
X137863033Y7493000D03*
%TD*%
%TO.P,C112,2*%
%TO.N,$3N13400*%
X141775967Y16163118D03*
%TO.P,C112,1*%
%TO.N,$3N13399*%
X141775967Y17563118D03*
%TD*%
D11*
%TO.P,R130,2*%
%TO.N,$3N13401*%
X130199967Y13589000D03*
%TO.P,R130,1*%
%TO.N,BGND*%
X131599967Y13589000D03*
%TD*%
%TO.P,R131,2*%
%TO.N,$3N13404*%
X130236213Y15240000D03*
%TO.P,R131,1*%
%TO.N,FLYBUCK*%
X131636213Y15240000D03*
%TD*%
D14*
%TO.P,R132,2*%
%TO.N,$3N13407*%
X143065730Y14215847D03*
%TO.P,R132,1*%
%TO.N,BGND*%
X141665730Y14215847D03*
%TD*%
D11*
%TO.P,R133,2*%
%TO.N,+12V3*%
X141665730Y12583998D03*
%TO.P,R133,1*%
%TO.N,$3N13407*%
X143065730Y12583998D03*
%TD*%
%TO.P,C113,2*%
%TO.N,+12V3*%
X133431788Y9975097D03*
%TO.P,C113,1*%
%TO.N,BGND*%
X133431788Y8575097D03*
%TD*%
%TO.P,C114,1*%
%TO.N,FLYBUCK*%
X124460000Y16448000D03*
%TO.P,C114,2*%
%TO.N,BGND*%
X124460000Y15048000D03*
%TD*%
D14*
%TO.P,C115,2*%
%TO.N,BGND*%
X131827092Y17015078D03*
%TO.P,C115,1*%
%TO.N,FLYBUCK*%
X131827092Y18415078D03*
%TD*%
%TO.P,C116,2*%
%TO.N,BGND*%
X128270000Y7116177D03*
%TO.P,C116,1*%
%TO.N,+12V3*%
X128270000Y8516177D03*
%TD*%
%TO.P,R134,2*%
%TO.N,$5N14116*%
X199386901Y39178000D03*
%TO.P,R134,1*%
%TO.N,$5N29963*%
X199386901Y40578000D03*
%TD*%
D11*
%TO.P,C117,1*%
%TO.N,+H15V*%
X202819000Y143448000D03*
%TO.P,C117,2*%
%TO.N,PGND*%
X202819000Y142048000D03*
%TD*%
D14*
%TO.P,R135,2*%
%TO.N,IN_L*%
X252667987Y47244000D03*
%TO.P,R135,1*%
%TO.N,IN_N*%
X251267987Y47244000D03*
%TD*%
%TO.P,R136,2*%
%TO.N,IN_L*%
X252667987Y44831000D03*
%TO.P,R136,1*%
%TO.N,IN_N*%
X251267987Y44831000D03*
%TD*%
D10*
%TO.P,U33,2*%
%TO.N,$5N14102*%
X202057000Y13464872D03*
%TO.P,U33,3*%
%TO.N,$5N17837*%
X202923000Y11964872D03*
%TO.P,U33,1*%
%TO.N,$5N14086*%
X201191000Y11964872D03*
%TD*%
D11*
%TO.P,C118,2*%
%TO.N,PGND*%
X251333000Y137987889D03*
%TO.P,C118,1*%
%TO.N,$3N15793*%
X251333000Y136587889D03*
%TD*%
D14*
%TO.P,R137,1*%
%TO.N,$3N15793*%
X249366000Y138479174D03*
%TO.P,R137,2*%
%TO.N,+H5V*%
X247966000Y138479174D03*
%TD*%
D10*
%TO.P,Q25,2*%
%TO.N,BAT_G*%
X12118008Y74506513D03*
%TO.P,Q25,3*%
%TO.N,GND*%
X13618008Y75372513D03*
%TO.P,Q25,1*%
%TO.N,$1N24864*%
X13618008Y73640513D03*
%TD*%
D14*
%TO.P,L8,1*%
%TO.N,$4N3287*%
X62549000Y29337000D03*
%TO.P,L8,2*%
%TO.N,+24.5V*%
X61149000Y29337000D03*
%TD*%
D17*
%TO.N,+48V*%
X56633400Y130449600D03*
%TO.N,LHO1*%
X45974000Y145288000D03*
%TO.N,$4N3977*%
X23622000Y137287000D03*
%TO.N,LHO1*%
X45720000Y133350000D03*
%TO.N,+12V*%
X47241200Y142362100D03*
X61849000Y138176000D03*
%TO.N,$1N4084*%
X61909100Y141224000D03*
%TO.N,GND*%
X76519000Y139319000D03*
%TO.N,$1N4013*%
X55118000Y135255000D03*
%TO.N,GND*%
X112792600Y143383000D03*
%TO.N,$2N8060*%
X106045000Y137668000D03*
X106064300Y130486800D03*
%TO.N,VS2*%
X147489400Y137414000D03*
%TO.N,$2N7355*%
X130205600Y137416100D03*
%TO.N,$2N7024*%
X118645000Y138430000D03*
X118872000Y135001000D03*
%TO.N,$2N27579*%
X134112000Y136017000D03*
X133858000Y131445000D03*
%TO.N,VFB*%
X107315000Y135087900D03*
X107315000Y146812000D03*
%TO.N,$2N27600*%
X125984000Y133985000D03*
X125857000Y138686100D03*
%TO.N,FADJ*%
X110744000Y136357900D03*
%TO.N,LLCIFB*%
X122047000Y143383000D03*
%TO.N,VS1*%
X114935000Y112903000D03*
X114935000Y112021300D03*
X115679300Y112021300D03*
X115679300Y112903000D03*
X116449300Y112021300D03*
X116449300Y112903000D03*
X118723200Y112924100D03*
X118723200Y112042400D03*
X117953200Y112042400D03*
X117953200Y112924100D03*
X117208900Y112924100D03*
X117208900Y112042400D03*
X121085900Y112924100D03*
X121085900Y112042400D03*
X120315900Y112042400D03*
X120315900Y112924100D03*
X119571600Y112924100D03*
X119571600Y112042400D03*
X123307300Y112895700D03*
X123307300Y112014000D03*
X122537300Y112014000D03*
X122537300Y112895700D03*
X121793000Y112895700D03*
X121793000Y112014000D03*
X125466300Y112895700D03*
X125466300Y112014000D03*
X124696300Y112014000D03*
X124696300Y112895700D03*
X123952000Y112895700D03*
X123952000Y112014000D03*
X127731300Y112895700D03*
X127731300Y112014000D03*
X126961300Y112014000D03*
X126961300Y112895700D03*
X126217000Y112895700D03*
X126217000Y112014000D03*
X129999200Y112895700D03*
X129999200Y112014000D03*
X129229100Y112014000D03*
X129229100Y112895700D03*
X128484800Y112895700D03*
X128484800Y112014000D03*
X132224800Y112014000D03*
X131454800Y112014000D03*
X131454800Y112895700D03*
X130710500Y112895700D03*
X130710500Y112014000D03*
X116449300Y111244700D03*
X116449300Y110363000D03*
X115679300Y110363000D03*
X115679300Y111244700D03*
X114935000Y111244700D03*
X114935000Y110363000D03*
X118723200Y111308900D03*
X118723200Y110427200D03*
X117953200Y110427200D03*
X117953200Y111308900D03*
X117208900Y111308900D03*
X117208900Y110427200D03*
X121148300Y111244700D03*
X121148300Y110363000D03*
X120378300Y110363000D03*
X120378300Y111244700D03*
X119634000Y111244700D03*
X119634000Y110363000D03*
X123307300Y111244700D03*
X123307300Y110363000D03*
X122537300Y110363000D03*
X122537300Y111244700D03*
X121793000Y111244700D03*
X121793000Y110363000D03*
X125466300Y111244700D03*
X125466300Y110363000D03*
X124696300Y110363000D03*
X124696300Y111244700D03*
X123952000Y111244700D03*
X123952000Y110363000D03*
X127752300Y111244700D03*
X127752300Y110363000D03*
X126982300Y110363000D03*
X126982300Y111244700D03*
X126238000Y111244700D03*
X126238000Y110363000D03*
X130038300Y111244700D03*
X130038300Y110363000D03*
X129268300Y110363000D03*
X129268300Y111244700D03*
X128524000Y111244700D03*
X128524000Y110363000D03*
X132197300Y111244700D03*
X132197300Y110363000D03*
X131427300Y110363000D03*
X131427300Y111244700D03*
X130683000Y111244700D03*
X130683000Y110363000D03*
%TO.N,$2N1982*%
X142245700Y123436700D03*
X142245700Y122555000D03*
X141475600Y122555000D03*
X141475600Y123436700D03*
X140731300Y122555000D03*
X144516300Y123436700D03*
X144516300Y122555000D03*
X143746300Y122555000D03*
X143746300Y123436700D03*
X143002000Y123436700D03*
X143002000Y122555000D03*
X136261300Y120962900D03*
X135491300Y120962900D03*
X134747000Y121844500D03*
X134747000Y120962900D03*
X138547300Y121785700D03*
X138547300Y120904000D03*
X137777300Y120904000D03*
X137777300Y121785700D03*
X137033000Y121785700D03*
X137033000Y120904000D03*
X140706300Y121785700D03*
X140706300Y120904000D03*
X139936300Y120904000D03*
X139936300Y121785700D03*
X139192000Y121785700D03*
X139192000Y120904000D03*
X142992300Y121785700D03*
X142992300Y120904000D03*
X142222300Y120904000D03*
X142222300Y121785700D03*
X141478000Y121785700D03*
X141478000Y120904000D03*
X145151300Y121785700D03*
X145151300Y120904000D03*
X144381300Y120904000D03*
X144381300Y121785700D03*
X143637000Y121785700D03*
X143637000Y120904000D03*
X136261300Y120193700D03*
X136261300Y119312100D03*
X135491300Y119312100D03*
X135491300Y120193700D03*
X134747000Y120193700D03*
X134747000Y119312100D03*
X138604800Y120193700D03*
X138604800Y119312100D03*
X137834800Y119312100D03*
X137834800Y120193700D03*
X137090400Y120193700D03*
X137090400Y119312100D03*
X140833300Y120261700D03*
X140833300Y119380000D03*
X140063300Y119380000D03*
X140063300Y120261700D03*
X139319000Y120261700D03*
X139319000Y119380000D03*
X143119300Y120261700D03*
X143119300Y119380000D03*
X142349300Y119380000D03*
X142349300Y120261700D03*
X141605000Y120261700D03*
X141605000Y119380000D03*
X145292300Y120261700D03*
X145292300Y119380000D03*
X144522300Y119380000D03*
X144522300Y120261700D03*
X143778000Y120261700D03*
X143778000Y119380000D03*
X136271000Y121793000D03*
%TO.N,$2N27600*%
X115570000Y131712200D03*
%TO.N,+48V*%
X80391000Y102870000D03*
X72653700Y102115300D03*
X72653700Y101338700D03*
X72653700Y100457000D03*
X72653700Y102997000D03*
X73398000Y102997000D03*
X73398000Y102115300D03*
X73398000Y101338700D03*
X73398000Y100457000D03*
X74168000Y100457000D03*
X74927500Y100521200D03*
X74927500Y101402900D03*
X74168000Y101338700D03*
X74168000Y102115300D03*
X74927500Y102136400D03*
X74927500Y103018100D03*
X74168000Y102997000D03*
X75828700Y102242300D03*
X75828700Y101465700D03*
X75828700Y100584000D03*
X75828700Y103124000D03*
X76573000Y103124000D03*
X76573000Y102242300D03*
X76573000Y101465700D03*
X76573000Y100584000D03*
X77343000Y100584000D03*
X78102500Y100648200D03*
X78102500Y101529900D03*
X77343000Y101465700D03*
X77343000Y102242300D03*
X78102500Y102263400D03*
X78102500Y103145100D03*
X77343000Y103124000D03*
X72726700Y98686300D03*
X72726700Y97909700D03*
X72726700Y97028000D03*
X72726700Y99568000D03*
X73471000Y99568000D03*
X73471000Y98686300D03*
X73471000Y97909700D03*
X73471000Y97028000D03*
X74241000Y97028000D03*
X75000600Y97092200D03*
X75000600Y97973900D03*
X74241000Y97909700D03*
X74241000Y98686300D03*
X75000600Y98707400D03*
X75000600Y99589100D03*
X74241000Y99568000D03*
X72805800Y95257300D03*
X72805800Y94480700D03*
X72805800Y93599000D03*
X72805800Y96139000D03*
X73550100Y96139000D03*
X73550100Y95257300D03*
X73550100Y94480700D03*
X73550100Y93599000D03*
X74320100Y93599000D03*
X75079700Y93663200D03*
X75079700Y94544900D03*
X74320100Y94480700D03*
X74320100Y95257300D03*
X75079700Y95278400D03*
X75079700Y96160100D03*
X74320100Y96139000D03*
X72780700Y91574300D03*
X72780700Y90797700D03*
X72780700Y89916000D03*
X72780700Y92456000D03*
X73525000Y92456000D03*
X73525000Y91574300D03*
X73525000Y90797700D03*
X73525000Y89916000D03*
X74295000Y89916000D03*
X75054500Y89980200D03*
X75054500Y90861900D03*
X74295000Y90797700D03*
X74295000Y91574300D03*
X75054500Y91595400D03*
X75054500Y92477100D03*
X74295000Y92456000D03*
X72780700Y88145300D03*
X72780700Y87368700D03*
X72780700Y86487000D03*
X72780700Y89027000D03*
X73525000Y89027000D03*
X73525000Y88145300D03*
X73525000Y87368700D03*
X73525000Y86487000D03*
X74295000Y86487000D03*
X75054500Y86551200D03*
X75054500Y87432900D03*
X74295000Y87368700D03*
X74295000Y88145300D03*
X75054500Y88166400D03*
X75054500Y89048100D03*
X74295000Y89027000D03*
X72780700Y84589300D03*
X72780700Y83812700D03*
X72780700Y82931000D03*
X72780700Y85471000D03*
X73525000Y85471000D03*
X73525000Y84589300D03*
X73525000Y83812700D03*
X73525000Y82931000D03*
X74295000Y82931000D03*
X75054500Y82995200D03*
X75054500Y83876900D03*
X74295000Y83812700D03*
X74295000Y84589300D03*
X75054500Y84610400D03*
X75054500Y85492100D03*
X74295000Y85471000D03*
X72653700Y81033300D03*
X72653700Y80256700D03*
X72653700Y79375000D03*
X72653700Y81915000D03*
X73398000Y81915000D03*
X73398000Y81033300D03*
X73398000Y80256700D03*
X73398000Y79375000D03*
X74168000Y79375000D03*
X74927500Y79439200D03*
X74927500Y80320900D03*
X74168000Y80256700D03*
X74168000Y81033300D03*
X74927500Y81054400D03*
X74927500Y81936100D03*
X74168000Y81915000D03*
X72663400Y77350300D03*
X72663400Y76573700D03*
X72663400Y75692000D03*
X72663400Y78232000D03*
X73407700Y78232000D03*
X73407700Y77350300D03*
X73407700Y76573700D03*
X73407700Y75692000D03*
X74177700Y75692000D03*
X74937300Y75756200D03*
X74937300Y76637900D03*
X74177700Y76573700D03*
X74177700Y77350300D03*
X74937300Y77371400D03*
X74937300Y78253100D03*
X74177700Y78232000D03*
X72712200Y74008200D03*
X72712200Y73231500D03*
X72712200Y72349900D03*
X72712200Y74889900D03*
X73456500Y74889900D03*
X73456500Y74008200D03*
X73456500Y73231500D03*
X73456500Y72349900D03*
X74226500Y72349900D03*
X74986000Y72414100D03*
X74986000Y73295800D03*
X74226500Y73231500D03*
X74226500Y74008200D03*
X74986000Y74029300D03*
X74986000Y74911000D03*
X74226500Y74889900D03*
X72780700Y70619300D03*
X72780700Y69842700D03*
X72780700Y68961000D03*
X72780700Y71501000D03*
X73525000Y71501000D03*
X73525000Y70619300D03*
X73525000Y69842700D03*
X73525000Y68961000D03*
X74295000Y68961000D03*
X75054500Y69025200D03*
X75054500Y69906900D03*
X74295000Y69842700D03*
X74295000Y70619300D03*
X75054500Y70640400D03*
X75054500Y71522100D03*
X74295000Y71501000D03*
X72653700Y67317300D03*
X72653700Y66540700D03*
X72653700Y65659000D03*
X72653700Y68199000D03*
X73398000Y68199000D03*
X73398000Y67317300D03*
X73398000Y66540700D03*
X73398000Y65659000D03*
X74168000Y65659000D03*
X74927500Y65723200D03*
X74927500Y66604900D03*
X74168000Y66540700D03*
X74168000Y67317300D03*
X74927500Y67338400D03*
X74927500Y68220100D03*
X74168000Y68199000D03*
X72653700Y64015300D03*
X72653700Y63238700D03*
X72653700Y62357000D03*
X72653700Y64897000D03*
X73398000Y64897000D03*
X73398000Y64015300D03*
X73398000Y63238700D03*
X73398000Y62357000D03*
X74168000Y62357000D03*
X74927500Y62421200D03*
X74927500Y63302900D03*
X74168000Y63238700D03*
X74168000Y64015300D03*
X74927500Y64036400D03*
X74927500Y64918100D03*
X74168000Y64897000D03*
X72653700Y60713300D03*
X72653700Y59936700D03*
X72653700Y59055000D03*
X72653700Y61595000D03*
X73398000Y61595000D03*
X73398000Y60713300D03*
X73398000Y59936700D03*
X73398000Y59055000D03*
X74168000Y59055000D03*
X74927500Y59119200D03*
X74927500Y60000900D03*
X74168000Y59936700D03*
X74168000Y60713300D03*
X74927500Y60734400D03*
X74927500Y61616100D03*
X74168000Y61595000D03*
X72780700Y57284300D03*
X72780700Y56507700D03*
X72780700Y55626000D03*
X72780700Y58166000D03*
X73525000Y58166000D03*
X73525000Y57284300D03*
X73525000Y56507700D03*
X73525000Y55626000D03*
X74295000Y55626000D03*
X75054500Y55690200D03*
X75054500Y56571900D03*
X74295000Y56507700D03*
X74295000Y57284300D03*
X75054500Y57305400D03*
X75054500Y58187100D03*
X74295000Y58166000D03*
X75828700Y98686300D03*
X75828700Y97909700D03*
X75828700Y97028000D03*
X75828700Y99568000D03*
X76573000Y99568000D03*
X76573000Y98686300D03*
X76573000Y97909700D03*
X76573000Y97028000D03*
X77343000Y97028000D03*
X78102500Y97092200D03*
X78102500Y97973900D03*
X77343000Y97909700D03*
X77343000Y98686300D03*
X78102500Y98707400D03*
X78102500Y99589100D03*
X77343000Y99568000D03*
X75891100Y95257300D03*
X75891100Y94480700D03*
X75891100Y93599000D03*
X75891100Y96139000D03*
X76635500Y96139000D03*
X76635500Y95257300D03*
X76635500Y94480700D03*
X76635500Y93599000D03*
X77405500Y93599000D03*
X78165000Y93663200D03*
X78165000Y94544900D03*
X77405500Y94480700D03*
X77405500Y95257300D03*
X78165000Y95278400D03*
X78165000Y96160100D03*
X77405500Y96139000D03*
X75955700Y91574300D03*
X75955700Y90797700D03*
X75955700Y89916000D03*
X75955700Y92456000D03*
X76700000Y92456000D03*
X76700000Y91574300D03*
X76700000Y90797700D03*
X76700000Y89916000D03*
X77470000Y89916000D03*
X78229500Y89980200D03*
X78229500Y90861900D03*
X77470000Y90797700D03*
X77470000Y91574300D03*
X78229500Y91595400D03*
X78229500Y92477100D03*
X77470000Y92456000D03*
X76082700Y87891300D03*
X76082700Y87114700D03*
X76082700Y86233000D03*
X76082700Y88773000D03*
X76827000Y88773000D03*
X76827000Y87891300D03*
X76827000Y87114700D03*
X76827000Y86233000D03*
X77597000Y86233000D03*
X78356500Y86297200D03*
X78356500Y87178900D03*
X77597000Y87114700D03*
X77597000Y87891300D03*
X78356500Y87912400D03*
X78356500Y88794100D03*
X77597000Y88773000D03*
X76209700Y84335300D03*
X76209700Y83558700D03*
X76209700Y82677000D03*
X76209700Y85217000D03*
X76954000Y85217000D03*
X76954000Y84335300D03*
X76954000Y83558700D03*
X76954000Y82677000D03*
X77724000Y82677000D03*
X78483500Y82741200D03*
X78483500Y83622900D03*
X77724000Y83558700D03*
X77724000Y84335300D03*
X78483500Y84356400D03*
X78483500Y85238100D03*
X77724000Y85217000D03*
X76336700Y80779300D03*
X76336700Y80002700D03*
X76336700Y79121000D03*
X76336700Y81661000D03*
X77081000Y81661000D03*
X77081000Y80779300D03*
X77081000Y80002700D03*
X77081000Y79121000D03*
X77851000Y79121000D03*
X78610500Y79185200D03*
X78610500Y80066900D03*
X77851000Y80002700D03*
X77851000Y80779300D03*
X78610500Y80800400D03*
X78610500Y81682100D03*
X77851000Y81661000D03*
X75914900Y76585300D03*
X75914900Y75808600D03*
X75914900Y74926900D03*
X75914900Y77466900D03*
X76659200Y77466900D03*
X76659200Y76585300D03*
X76659200Y75808600D03*
X76659200Y74926900D03*
X77429200Y74926900D03*
X78188700Y74991200D03*
X78188700Y75872800D03*
X77429200Y75808600D03*
X77429200Y76585300D03*
X78188700Y76606400D03*
X78188700Y77488000D03*
X77429200Y77466900D03*
X76209700Y72524300D03*
X76209700Y71747700D03*
X76209700Y70866000D03*
X76209700Y73406000D03*
X76954000Y73406000D03*
X76954000Y72524300D03*
X76954000Y71747700D03*
X76954000Y70866000D03*
X77724000Y70866000D03*
X78483500Y70930200D03*
X78483500Y71811900D03*
X77724000Y71747700D03*
X77724000Y72524300D03*
X78483500Y72545400D03*
X78483500Y73427100D03*
X77724000Y73406000D03*
X76336700Y68968300D03*
X76336700Y68191700D03*
X76336700Y67310000D03*
X76336700Y69850000D03*
X77081000Y69850000D03*
X77081000Y68968300D03*
X77081000Y68191700D03*
X77081000Y67310000D03*
X77851000Y67310000D03*
X78610500Y67374200D03*
X78610500Y68255900D03*
X77851000Y68191700D03*
X77851000Y68968300D03*
X78610500Y68989400D03*
X78610500Y69871100D03*
X77851000Y69850000D03*
X76590700Y65539300D03*
X76590700Y64762700D03*
X76590700Y63881000D03*
X76590700Y66421000D03*
X77335000Y66421000D03*
X77335000Y65539300D03*
X77335000Y64762700D03*
X77335000Y63881000D03*
X78105000Y63881000D03*
X78864500Y63945200D03*
X78864500Y64826900D03*
X78105000Y64762700D03*
X78105000Y65539300D03*
X78864500Y65560400D03*
X78864500Y66442100D03*
X78105000Y66421000D03*
X76365800Y62110300D03*
X76365800Y61333700D03*
X76365800Y60452000D03*
X76365800Y62992000D03*
X77110100Y62992000D03*
X77110100Y62110300D03*
X77110100Y61333700D03*
X77110100Y60452000D03*
X77880100Y60452000D03*
X78639700Y60516200D03*
X78639700Y61397900D03*
X77880100Y61333700D03*
X77880100Y62110300D03*
X78639700Y62131400D03*
X78639700Y63013100D03*
X77880100Y62992000D03*
X76082700Y57919300D03*
X76082700Y57142700D03*
X76082700Y56261000D03*
X76082700Y58801000D03*
X76827000Y58801000D03*
X76827000Y57919300D03*
X76827000Y57142700D03*
X76827000Y56261000D03*
X77597000Y56261000D03*
X78356500Y56325200D03*
X78356500Y57206900D03*
X77597000Y57142700D03*
X77597000Y57919300D03*
X78356500Y57940400D03*
X78356500Y58822100D03*
X77597000Y58801000D03*
%TO.N,$2N1982*%
X135509000Y122047000D03*
X136586700Y122682000D03*
X137541000Y122555000D03*
X138288000Y122555000D03*
X139068600Y122555000D03*
X139827000Y122809000D03*
X135763000Y122809000D03*
%TO.N,$1N24864*%
X20310100Y49276000D03*
X17867200Y36361800D03*
X21590000Y43307000D03*
%TO.N,BAT_G*%
X4200700Y52213600D03*
X4945000Y52213600D03*
X5715000Y52213600D03*
X6474500Y52277800D03*
X4200700Y50569900D03*
X4200700Y49793200D03*
X4200700Y51451600D03*
X4945000Y51451600D03*
X4945000Y50569900D03*
X4945000Y49793200D03*
X6474500Y49857500D03*
X5715000Y49793200D03*
X5715000Y50569900D03*
X6474500Y50591000D03*
X6474500Y51472700D03*
X5715000Y51451600D03*
X8628000Y54746200D03*
X8628000Y53864600D03*
X9398000Y53864600D03*
X9398000Y54746200D03*
X9398000Y55522900D03*
X9398000Y56404600D03*
X8137700Y52093900D03*
X8137700Y51317200D03*
X8137700Y50435600D03*
X8137700Y52975600D03*
X8882000Y52975600D03*
X8882000Y52093900D03*
X8882000Y51317200D03*
X8882000Y50435600D03*
X4200700Y48911600D03*
X4945000Y48911600D03*
X5715000Y48911600D03*
X6474500Y48975800D03*
X4200700Y47267900D03*
X4200700Y48149600D03*
X4945000Y48149600D03*
X4945000Y47267900D03*
X5715000Y47267900D03*
X6474500Y47289000D03*
X6474500Y48170700D03*
X5715000Y48149600D03*
X9652000Y50435600D03*
X10411500Y50499800D03*
X10411500Y51381500D03*
X9652000Y51317200D03*
X9652000Y52093900D03*
X10411500Y52115000D03*
X7912800Y48664900D03*
X7912800Y47888200D03*
X7912800Y47006600D03*
X7912800Y49546600D03*
X8657100Y49546600D03*
X8657100Y48664900D03*
X8657100Y47888200D03*
X8657100Y47006600D03*
X9427100Y47006600D03*
X9427100Y47888200D03*
X9427100Y48664900D03*
X9427100Y49546600D03*
X10411500Y52996700D03*
X10186700Y47070800D03*
X10186700Y47952500D03*
X10186700Y48686000D03*
X10186700Y49567700D03*
X10157500Y53928800D03*
X10157500Y54810500D03*
X10157500Y55544000D03*
X10157500Y56425700D03*
X9652000Y52975600D03*
X4200700Y53095200D03*
X4327700Y56397200D03*
X4327700Y55515600D03*
X5072000Y56397200D03*
X5072000Y55515600D03*
X5842000Y55515600D03*
X6601500Y55579800D03*
X6601500Y56461500D03*
X5842000Y56397200D03*
X4200700Y53871900D03*
X4200700Y54753600D03*
X4945000Y54753600D03*
X4945000Y53871900D03*
X4945000Y53095200D03*
X6474500Y53159500D03*
X5715000Y53095200D03*
X5715000Y53871900D03*
X6474500Y53893000D03*
X6474500Y54774700D03*
X5715000Y54753600D03*
X7883700Y54746200D03*
X7883700Y53864600D03*
X7883700Y55522900D03*
X7883700Y56404600D03*
X8628000Y56404600D03*
X8628000Y55522900D03*
X4200700Y41319900D03*
X4945000Y41319900D03*
X5715000Y41319900D03*
X6474500Y41384100D03*
X4200700Y39676200D03*
X4200700Y38899600D03*
X4200700Y40557900D03*
X4945000Y40557900D03*
X4945000Y39676200D03*
X4945000Y38899600D03*
X6474500Y38963800D03*
X5715000Y38899600D03*
X5715000Y39676200D03*
X6474500Y39697300D03*
X6474500Y40579000D03*
X5715000Y40557900D03*
X8628000Y43852600D03*
X8628000Y42970900D03*
X9398000Y42970900D03*
X9398000Y43852600D03*
X9398000Y44629200D03*
X9398000Y45510900D03*
X8137700Y41200200D03*
X8137700Y40423600D03*
X8137700Y39541900D03*
X8137700Y42081900D03*
X8882000Y42081900D03*
X8882000Y41200200D03*
X8882000Y40423600D03*
X8882000Y39541900D03*
X4200700Y38017900D03*
X4945000Y38017900D03*
X5715000Y38017900D03*
X6474500Y38082100D03*
X4200700Y36374200D03*
X4200700Y37255900D03*
X4945000Y37255900D03*
X4945000Y36374200D03*
X5715000Y36374200D03*
X6474500Y36395300D03*
X6474500Y37277000D03*
X5715000Y37255900D03*
X9652000Y39541900D03*
X10411500Y39606100D03*
X10411500Y40487800D03*
X9652000Y40423600D03*
X9652000Y41200200D03*
X10411500Y41221300D03*
X7912800Y37771200D03*
X7912800Y36994600D03*
X7912800Y36112900D03*
X7912800Y38652900D03*
X8657100Y38652900D03*
X8657100Y37771200D03*
X8657100Y36994600D03*
X8657100Y36112900D03*
X9427100Y36112900D03*
X9427100Y36994600D03*
X9427100Y37771200D03*
X9427100Y38652900D03*
X10411500Y42103000D03*
X10186700Y36177100D03*
X10186700Y37058800D03*
X10186700Y37792300D03*
X10186700Y38674000D03*
X10157500Y43035100D03*
X10157500Y43916800D03*
X10157500Y44650300D03*
X10157500Y45532000D03*
X9652000Y42081900D03*
X4200700Y42201600D03*
X4327700Y45503600D03*
X4327700Y44621900D03*
X5072000Y45503600D03*
X5072000Y44621900D03*
X5842000Y44621900D03*
X6601500Y44686100D03*
X6601500Y45567800D03*
X5842000Y45503600D03*
X4200700Y42978200D03*
X4200700Y43859900D03*
X4945000Y43859900D03*
X4945000Y42978200D03*
X4945000Y42201600D03*
X6474500Y42265800D03*
X5715000Y42201600D03*
X5715000Y42978200D03*
X6474500Y42999300D03*
X6474500Y43881000D03*
X5715000Y43859900D03*
X7883700Y43852600D03*
X7883700Y42970900D03*
X7883700Y44629200D03*
X7883700Y45510900D03*
X8628000Y45510900D03*
X8628000Y44629200D03*
%TO.N,+48V*%
X73088500Y38165700D03*
%TO.N,$4N2570*%
X73088500Y37290200D03*
%TO.N,$4N3287*%
X73088500Y36367000D03*
X73088500Y35528700D03*
%TO.N,+48V*%
X73088500Y34779700D03*
%TO.N,$4N3287*%
X58166000Y46140500D03*
X58547000Y40640000D03*
%TO.N,+12V2*%
X66548000Y43053000D03*
X66675000Y20828000D03*
%TO.N,+5V2*%
X50292000Y49911000D03*
X58547000Y38989000D03*
%TO.N,$4N3246*%
X54864000Y50038000D03*
X84657700Y35962300D03*
%TO.N,$4N3192*%
X69088000Y41910000D03*
X83449800Y26797000D03*
%TO.N,DPAR*%
X14224000Y31369000D03*
%TO.N,DMAR*%
X13081000Y30480000D03*
%TO.N,DPAR*%
X13843000Y21209000D03*
%TO.N,DMAR*%
X13335000Y24257000D03*
D18*
%TO.N,$4N9834*%
X25273000Y24384000D03*
%TO.N,$4N9841*%
X24765000Y23876000D03*
X24638000Y20066000D03*
X18288000Y20066000D03*
X18288000Y7874000D03*
%TO.N,$4N9834*%
X15402500Y4268900D03*
%TO.N,VBUSC*%
X18161000Y20828000D03*
X16002000Y9779000D03*
%TO.N,CSNA*%
X27813000Y17145000D03*
%TO.N,CSPC*%
X26924000Y17653000D03*
%TO.N,CSNA*%
X27813000Y21082000D03*
%TO.N,CSPC*%
X27178000Y21463000D03*
%TO.N,CC2*%
X25346300Y27612700D03*
%TO.N,CC1*%
X25180300Y25238700D03*
%TO.N,CC2*%
X12573000Y4953000D03*
%TO.N,CC1*%
X12573000Y8255000D03*
%TO.N,$4N14153*%
X18923000Y18796000D03*
X19054900Y26626400D03*
%TO.N,CSNC*%
X23241000Y13462000D03*
X23980100Y13462000D03*
X23980100Y22860000D03*
X23241000Y22098000D03*
%TO.N,VBUSC*%
X8466100Y10438600D03*
X9042700Y10438600D03*
X8636000Y5461000D03*
X8636000Y4699000D03*
%TO.N,GATEC*%
X30099000Y7620000D03*
X30480000Y26416000D03*
%TO.N,CSPC*%
X14732000Y14610000D03*
X14986000Y9144000D03*
X29337000Y6858000D03*
X29972000Y27178000D03*
%TO.N,HGATE*%
X35687000Y21717000D03*
%TO.N,LGATE*%
X35560000Y20828000D03*
%TO.N,HGATE*%
X42418000Y21717000D03*
%TO.N,LGATE*%
X48641000Y20828000D03*
%TO.N,GND*%
X77978000Y13843000D03*
X78105000Y11303000D03*
X83058000Y10033000D03*
X81534000Y16256000D03*
X81153000Y8382000D03*
X81407000Y5588000D03*
X56896000Y2286000D03*
X45974000Y2286000D03*
X36830000Y2286000D03*
X28194000Y2413000D03*
X13081000Y1778000D03*
X10414000Y1778000D03*
X10922000Y2794000D03*
X11938000Y3048000D03*
X21082000Y5715000D03*
X20701000Y4699000D03*
X21844000Y4318000D03*
X23495000Y5842000D03*
X24365200Y3527200D03*
X23114000Y8763000D03*
X20320000Y10287000D03*
X13589000Y14097000D03*
X13970000Y15875000D03*
X3937000Y18796000D03*
X5461000Y24765000D03*
X6220500Y26448200D03*
X7112000Y18161000D03*
X7747000Y13970000D03*
%TO.N,CC1R*%
X3556000Y8382000D03*
%TO.N,GND*%
X2794000Y10160000D03*
X4113500Y4740000D03*
X2540000Y5461000D03*
%TO.N,DPCR*%
X3556000Y6858000D03*
%TO.N,GND*%
X4826000Y10922000D03*
X12954000Y15240000D03*
X4507200Y22859900D03*
X2540000Y27813000D03*
X5969000Y30480000D03*
X8763000Y32639000D03*
X12954000Y33020000D03*
X17272000Y33782000D03*
X21717000Y34036000D03*
X25908000Y34798000D03*
X29845000Y36195000D03*
X32512000Y35052000D03*
X35814000Y34671000D03*
X38100000Y31242000D03*
X37754200Y29240900D03*
X37084000Y27432000D03*
X35560000Y26924000D03*
X34417000Y27305000D03*
X32893000Y28829000D03*
X32258000Y31369000D03*
X33274000Y32512000D03*
X32893000Y33147000D03*
X24638000Y29337000D03*
X22479000Y29337000D03*
X19050000Y29337000D03*
X16510000Y29337000D03*
X20828000Y22352000D03*
X21463000Y21844000D03*
X21590000Y26162000D03*
X28089400Y23744600D03*
X32820300Y19418600D03*
X32512000Y18161000D03*
X31965900Y18161000D03*
X36703000Y18542000D03*
X35433000Y19304000D03*
X34417000Y19177000D03*
%TO.N,CSPC*%
X32004000Y20066000D03*
%TO.N,GND*%
X34671000Y24765000D03*
%TO.N,CC2*%
X32512000Y26416000D03*
%TO.N,GND*%
X32258000Y27432000D03*
X32639000Y30353000D03*
X37973000Y24384000D03*
X38989000Y17272000D03*
X40259000Y17526000D03*
X43561000Y22225000D03*
X46609000Y22606000D03*
X47625000Y22606000D03*
X50673000Y22352000D03*
X49784000Y20066000D03*
X49657000Y18796000D03*
X49022000Y17272000D03*
X48260000Y16510000D03*
X58293000Y17907000D03*
X59182000Y15875000D03*
X59944000Y14605000D03*
X59182000Y13208000D03*
X58270400Y9751100D03*
X60706000Y8255000D03*
X62103000Y8636000D03*
X62992000Y9525000D03*
X63373000Y10414000D03*
X55137600Y10414000D03*
X55753000Y6731000D03*
X55753000Y4699000D03*
X62992000Y6858000D03*
X63511600Y14914500D03*
X65953000Y17970100D03*
X67691000Y18288000D03*
X69469000Y18288000D03*
X69112700Y16779600D03*
%TO.N,$4N21743*%
X67953000Y16282400D03*
%TO.N,GND*%
X67953000Y14721300D03*
X73152000Y19050000D03*
X73152000Y16510000D03*
X62767900Y23164000D03*
X58039000Y22225000D03*
X54102000Y21971000D03*
X69596000Y22733000D03*
X62484000Y36322000D03*
X55499000Y36068000D03*
X53213000Y36068000D03*
%TO.N,$4N3192*%
X51435000Y46990000D03*
%TO.N,GND*%
X51435000Y48388500D03*
X51562000Y43434000D03*
X49276000Y44831000D03*
%TO.N,+12V2*%
X49530000Y47549900D03*
%TO.N,GND*%
X57023000Y42799000D03*
X63500000Y47371000D03*
X63881000Y44958000D03*
%TO.N,+12V2*%
X64643000Y46863000D03*
%TO.N,GND*%
X41566000Y43095400D03*
X42164000Y44323000D03*
%TO.N,AC_N*%
X209804000Y117221000D03*
X210312000Y117856000D03*
X211011500Y117856000D03*
X211709000Y117856000D03*
X212344000Y117856000D03*
X212979000Y117856000D03*
X213740000Y117856000D03*
X209002300Y116459000D03*
X209701800Y116459000D03*
X210399300Y116459000D03*
X211034300Y116459000D03*
X211669300Y116459000D03*
X212430200Y116459000D03*
X208154000Y115697000D03*
X208853500Y115697000D03*
X209551000Y115697000D03*
X210186000Y115697000D03*
X210821000Y115697000D03*
X211582000Y115697000D03*
X207646000Y114935000D03*
X208345500Y114935000D03*
X209043000Y114935000D03*
X209678000Y114935000D03*
X210313000Y114935000D03*
X211074000Y114935000D03*
X207138000Y114173000D03*
X207837500Y114173000D03*
X208535000Y114173000D03*
X209170000Y114173000D03*
X209805000Y114173000D03*
X210566000Y114173000D03*
X206757000Y113411000D03*
X207456500Y113411000D03*
X208154000Y113411000D03*
X208789000Y113411000D03*
X209424000Y113411000D03*
X210185000Y113411000D03*
X210440000Y117221000D03*
X211139500Y117221000D03*
X211837000Y117221000D03*
X212472000Y117221000D03*
X213107000Y117221000D03*
X213868000Y117221000D03*
X212345000Y115697000D03*
X213044500Y115697000D03*
X213742000Y115697000D03*
X214377000Y115697000D03*
X215012000Y115697000D03*
X215773000Y115697000D03*
X211837000Y114935000D03*
X212536500Y114935000D03*
X213234000Y114935000D03*
X213869000Y114935000D03*
X214504000Y114935000D03*
X215265000Y114935000D03*
X211329000Y114173000D03*
X212028500Y114173000D03*
X212726000Y114173000D03*
X213361000Y114173000D03*
X213996000Y114173000D03*
X214757000Y114173000D03*
X210821000Y113411000D03*
X211520500Y113411000D03*
X212218000Y113411000D03*
X212853000Y113411000D03*
X213488000Y113411000D03*
X214249000Y113411000D03*
X213271200Y116459000D03*
X213970700Y116459000D03*
X214668200Y116459000D03*
X215303200Y116459000D03*
X215938200Y116459000D03*
X216699200Y116459000D03*
X214504000Y117221000D03*
X215203500Y117221000D03*
X215901000Y117221000D03*
X216536000Y117221000D03*
X217171000Y117221000D03*
X217932000Y117221000D03*
X214504000Y117856000D03*
X215203500Y117856000D03*
X215901000Y117856000D03*
X216536000Y117856000D03*
X217171000Y117856000D03*
X217932000Y117856000D03*
X217941400Y116459000D03*
X217306400Y116459000D03*
X217170000Y115697000D03*
X216535000Y115697000D03*
X216662000Y114935000D03*
X216027000Y114935000D03*
X216154000Y114173000D03*
X215519000Y114173000D03*
X215646000Y113411000D03*
X215011000Y113411000D03*
X216916000Y113411000D03*
X216281000Y113411000D03*
X217424000Y114173000D03*
X216789000Y114173000D03*
X217932000Y114935000D03*
X217297000Y114935000D03*
X217932000Y115697000D03*
%TO.N,GND*%
X60198000Y43053000D03*
X89563500Y56173000D03*
X84911600Y56173000D03*
X85979000Y53975000D03*
X87154500Y53975000D03*
X87630000Y52952800D03*
X89789000Y53594000D03*
X91821000Y54356000D03*
X88646000Y51435000D03*
X84455000Y51054000D03*
X85471000Y47752000D03*
X89408000Y45720000D03*
X89916000Y45339000D03*
X82677000Y46355000D03*
X81661000Y44577000D03*
X81661000Y42243100D03*
X85471000Y42037000D03*
X91821000Y42164000D03*
X88773000Y39370000D03*
X88900000Y35687000D03*
X90170000Y35052000D03*
X90805000Y34290000D03*
X87757000Y32639000D03*
X89027000Y28194000D03*
X88011000Y26035000D03*
X82550000Y24257000D03*
X80264000Y23876000D03*
X81534000Y17018000D03*
X86106000Y16256000D03*
X87503000Y16256000D03*
X84836000Y19685000D03*
X87757000Y21082000D03*
X90297000Y21971000D03*
X89662000Y13716000D03*
X89408000Y6985000D03*
X88392000Y5461000D03*
X84455000Y8255000D03*
X86360000Y12192000D03*
X87122000Y13462000D03*
%TO.N,$3N5649*%
X217805000Y134493000D03*
%TO.N,$3N11217*%
X221742000Y135509000D03*
%TO.N,AC_N*%
X202184000Y136525000D03*
%TO.N,$3N5677*%
X259461000Y128397000D03*
D17*
%TO.N,GND*%
X36461100Y57678900D03*
X37205500Y57678900D03*
X37975500Y57678900D03*
X38735000Y57743200D03*
X39636100Y57805900D03*
X41150500Y57805900D03*
X40380500Y57805900D03*
X41910000Y57870200D03*
X36461100Y58560600D03*
X37205500Y58560600D03*
X37975500Y58560600D03*
X38735000Y58624900D03*
X39636100Y58687600D03*
X41150500Y58687600D03*
X40380500Y58687600D03*
X41910000Y58751900D03*
X36461100Y59337300D03*
X37205500Y59337300D03*
X37975500Y59337300D03*
X38735000Y59358400D03*
X39636100Y59464300D03*
X41150500Y59464300D03*
X40380500Y59464300D03*
X41910000Y59485400D03*
X36461100Y60218900D03*
X37205500Y60218900D03*
X37975500Y60218900D03*
X38735000Y60240000D03*
X39636100Y60345900D03*
X41150500Y60345900D03*
X40380500Y60345900D03*
X41910000Y60367000D03*
X36461100Y61869900D03*
X37205500Y61869900D03*
X37975500Y61869900D03*
X38735000Y61934200D03*
X39636100Y61996900D03*
X41150500Y61996900D03*
X40380500Y61996900D03*
X41910000Y62061200D03*
X36461100Y62751600D03*
X37205500Y62751600D03*
X37975500Y62751600D03*
X38735000Y62815900D03*
X39636100Y62878600D03*
X41150500Y62878600D03*
X40380500Y62878600D03*
X41910000Y62942900D03*
X36461100Y63528300D03*
X37205500Y63528300D03*
X37975500Y63528300D03*
X38735000Y63549400D03*
X39636100Y63655300D03*
X41150500Y63655300D03*
X40380500Y63655300D03*
X41910000Y63676400D03*
X36461100Y64409900D03*
X37205500Y64409900D03*
X37975500Y64409900D03*
X38735000Y64431000D03*
X39636100Y64536900D03*
X41150500Y64536900D03*
X40380500Y64536900D03*
X41910000Y64558000D03*
X35031100Y58940100D03*
X35031100Y59684500D03*
X35031100Y60454500D03*
X34966800Y61214000D03*
X34904100Y62115100D03*
X34904100Y63629500D03*
X34904100Y62859500D03*
X34839800Y64389000D03*
X34149400Y58940100D03*
X34149400Y59684500D03*
X34149400Y60454500D03*
X34085100Y61214000D03*
X34022400Y62115100D03*
X34022400Y63629500D03*
X34022400Y62859500D03*
X33958100Y64389000D03*
X33372700Y58940100D03*
X33372700Y59684500D03*
X33372700Y60454500D03*
X33351600Y61214000D03*
X33245700Y62115100D03*
X33245700Y63629500D03*
X33245700Y62859500D03*
X33224600Y64389000D03*
X32491100Y58940100D03*
X32491100Y59684500D03*
X32491100Y60454500D03*
X32470000Y61214000D03*
X32364100Y62115100D03*
X32364100Y63629500D03*
X32364100Y62859500D03*
X32343000Y64389000D03*
X38722900Y68636900D03*
X37978500Y68636900D03*
X37208500Y68636900D03*
X36449000Y68572700D03*
X35547900Y68509900D03*
X34033500Y68509900D03*
X34803500Y68509900D03*
X33274000Y68445700D03*
X38722900Y67755300D03*
X37978500Y67755300D03*
X37208500Y67755300D03*
X36449000Y67691000D03*
X35547900Y67628300D03*
X34033500Y67628300D03*
X34803500Y67628300D03*
X33274000Y67564000D03*
X38722900Y66978600D03*
X37978500Y66978600D03*
X37208500Y66978600D03*
X36449000Y66957500D03*
X35547900Y66851600D03*
X34033500Y66851600D03*
X34803500Y66851600D03*
X33274000Y66830500D03*
X38722900Y66096900D03*
X37978500Y66096900D03*
X37208500Y66096900D03*
X36449000Y66075800D03*
X35547900Y65969900D03*
X34033500Y65969900D03*
X34803500Y65969900D03*
X33274000Y65948800D03*
X42651100Y66179100D03*
X42651100Y66923500D03*
X42651100Y67693500D03*
X42586800Y68453000D03*
X42524100Y69354100D03*
X42524100Y70868500D03*
X42524100Y70098500D03*
X42459800Y71628000D03*
X41769400Y66179100D03*
X41769400Y66923500D03*
X41769400Y67693500D03*
X41705100Y68453000D03*
X41642400Y69354100D03*
X41642400Y70868500D03*
X41642400Y70098500D03*
X41578100Y71628000D03*
X40992700Y66179100D03*
X40992700Y66923500D03*
X40992700Y67693500D03*
X40971600Y68453000D03*
X40865700Y69354100D03*
X40865700Y70868500D03*
X40865700Y70098500D03*
X40844600Y71628000D03*
X40111100Y66179100D03*
X40111100Y66923500D03*
X40111100Y67693500D03*
X40090000Y68453000D03*
X39984100Y69354100D03*
X39984100Y70868500D03*
X39984100Y70098500D03*
X39963000Y71628000D03*
X38263200Y69862100D03*
X38263200Y70606500D03*
X38263200Y71376500D03*
X38198900Y72136000D03*
X38136200Y73037100D03*
X38136200Y74551500D03*
X38136200Y73781500D03*
X38071900Y75311000D03*
X37381500Y69862100D03*
X37381500Y70606500D03*
X37381500Y71376500D03*
X37317300Y72136000D03*
X37254500Y73037100D03*
X37254500Y74551500D03*
X37254500Y73781500D03*
X37190300Y75311000D03*
X36604800Y69862100D03*
X36604800Y70606500D03*
X36604800Y71376500D03*
X36583700Y72136000D03*
X36477800Y73037100D03*
X36477800Y74551500D03*
X36477800Y73781500D03*
X36456700Y75311000D03*
X35723200Y69862100D03*
X35723200Y70606500D03*
X35723200Y71376500D03*
X35702100Y72136000D03*
X35596200Y73037100D03*
X35596200Y74551500D03*
X35596200Y73781500D03*
X35575100Y75311000D03*
X37960900Y80370100D03*
X37216500Y80370100D03*
X36446500Y80370100D03*
X35687000Y80305800D03*
X34785900Y80243100D03*
X33271500Y80243100D03*
X34041500Y80243100D03*
X32512000Y80178800D03*
X37960900Y79488400D03*
X37216500Y79488400D03*
X36446500Y79488400D03*
X35687000Y79424100D03*
X34785900Y79361400D03*
X33271500Y79361400D03*
X34041500Y79361400D03*
X32512000Y79297100D03*
X37960900Y78711700D03*
X37216500Y78711700D03*
X36446500Y78711700D03*
X35687000Y78690600D03*
X34785900Y78584700D03*
X33271500Y78584700D03*
X34041500Y78584700D03*
X32512000Y78563600D03*
X37960900Y77830100D03*
X37216500Y77830100D03*
X36446500Y77830100D03*
X35687000Y77809000D03*
X34785900Y77703100D03*
X33271500Y77703100D03*
X34041500Y77703100D03*
X32512000Y77682000D03*
X42143100Y74180100D03*
X42143100Y74924500D03*
X42143100Y75694500D03*
X42078800Y76454000D03*
X42016100Y77355100D03*
X42016100Y78869500D03*
X42016100Y78099500D03*
X41951800Y79629000D03*
X41261400Y74180100D03*
X41261400Y74924500D03*
X41261400Y75694500D03*
X41197100Y76454000D03*
X41134400Y77355100D03*
X41134400Y78869500D03*
X41134400Y78099500D03*
X41070100Y79629000D03*
X40484700Y74180100D03*
X40484700Y74924500D03*
X40484700Y75694500D03*
X40463600Y76454000D03*
X40357700Y77355100D03*
X40357700Y78869500D03*
X40357700Y78099500D03*
X40336600Y79629000D03*
X39603100Y74180100D03*
X39603100Y74924500D03*
X39603100Y75694500D03*
X39582000Y76454000D03*
X39476100Y77355100D03*
X39476100Y78869500D03*
X39476100Y78099500D03*
X39455000Y79629000D03*
X42016100Y81419100D03*
X42016100Y82163500D03*
X42016100Y82933500D03*
X41951800Y83693000D03*
X41889100Y84594100D03*
X41889100Y86108500D03*
X41889100Y85338500D03*
X41824800Y86868000D03*
X41134400Y81419100D03*
X41134400Y82163500D03*
X41134400Y82933500D03*
X41070100Y83693000D03*
X41007400Y84594100D03*
X41007400Y86108500D03*
X41007400Y85338500D03*
X40943100Y86868000D03*
X40357700Y81419100D03*
X40357700Y82163500D03*
X40357700Y82933500D03*
X40336600Y83693000D03*
X40230700Y84594100D03*
X40230700Y86108500D03*
X40230700Y85338500D03*
X40209600Y86868000D03*
X39476100Y81419100D03*
X39476100Y82163500D03*
X39476100Y82933500D03*
X39455000Y83693000D03*
X39349100Y84594100D03*
X39349100Y86108500D03*
X39349100Y85338500D03*
X39328000Y86868000D03*
X37706900Y84307100D03*
X36962500Y84307100D03*
X36192500Y84307100D03*
X35433000Y84242800D03*
X34531900Y84180100D03*
X33017500Y84180100D03*
X33787500Y84180100D03*
X32258000Y84115800D03*
X37706900Y83425400D03*
X36962500Y83425400D03*
X36192500Y83425400D03*
X35433000Y83361100D03*
X34531900Y83298400D03*
X33017500Y83298400D03*
X33787500Y83298400D03*
X32258000Y83234100D03*
X37706900Y82648700D03*
X36962500Y82648700D03*
X36192500Y82648700D03*
X35433000Y82627600D03*
X34531900Y82521700D03*
X33017500Y82521700D03*
X33787500Y82521700D03*
X32258000Y82500600D03*
X37706900Y81767100D03*
X36962500Y81767100D03*
X36192500Y81767100D03*
X35433000Y81746000D03*
X34531900Y81640100D03*
X33017500Y81640100D03*
X33787500Y81640100D03*
X32258000Y81619000D03*
X32397100Y85618900D03*
X33141500Y85618900D03*
X33911500Y85618900D03*
X34671000Y85683200D03*
X35572100Y85745900D03*
X37086500Y85745900D03*
X36316500Y85745900D03*
X37846000Y85810200D03*
X32397100Y86500600D03*
X33141500Y86500600D03*
X33911500Y86500600D03*
X34671000Y86564900D03*
X35572100Y86627600D03*
X37086500Y86627600D03*
X36316500Y86627600D03*
X37846000Y86691900D03*
X32397100Y87277300D03*
X33141500Y87277300D03*
X33911500Y87277300D03*
X34671000Y87298400D03*
X35572100Y87404300D03*
X37086500Y87404300D03*
X36316500Y87404300D03*
X37846000Y87425400D03*
X32397100Y88158900D03*
X33141500Y88158900D03*
X33911500Y88158900D03*
X34671000Y88180000D03*
X35572100Y88285900D03*
X37086500Y88285900D03*
X36316500Y88285900D03*
X37846000Y88307000D03*
X32524100Y89809900D03*
X33268500Y89809900D03*
X34038500Y89809900D03*
X34798000Y89874200D03*
X35699100Y89936900D03*
X37213500Y89936900D03*
X36443500Y89936900D03*
X37973000Y90001200D03*
X32524100Y90691600D03*
X33268500Y90691600D03*
X34038500Y90691600D03*
X34798000Y90755900D03*
X35699100Y90818600D03*
X37213500Y90818600D03*
X36443500Y90818600D03*
X37973000Y90882900D03*
X32524100Y91468300D03*
X33268500Y91468300D03*
X34038500Y91468300D03*
X34798000Y91489400D03*
X35699100Y91595300D03*
X37213500Y91595300D03*
X36443500Y91595300D03*
X37973000Y91616400D03*
X32524100Y92349900D03*
X33268500Y92349900D03*
X34038500Y92349900D03*
X34798000Y92371000D03*
X35699100Y92476900D03*
X37213500Y92476900D03*
X36443500Y92476900D03*
X37973000Y92498000D03*
X24142100Y41422900D03*
X24886500Y41422900D03*
X25656500Y41422900D03*
X26416000Y41487200D03*
X27317100Y41549900D03*
X28831500Y41549900D03*
X28061500Y41549900D03*
X29591000Y41614200D03*
X24142100Y42304600D03*
X24886500Y42304600D03*
X25656500Y42304600D03*
X26416000Y42368900D03*
X27317100Y42431600D03*
X28831500Y42431600D03*
X28061500Y42431600D03*
X29591000Y42495900D03*
X24142100Y43081300D03*
X24886500Y43081300D03*
X25656500Y43081300D03*
X26416000Y43102400D03*
X27317100Y43208300D03*
X28831500Y43208300D03*
X28061500Y43208300D03*
X29591000Y43229400D03*
X24142100Y43962900D03*
X24886500Y43962900D03*
X25656500Y43962900D03*
X26416000Y43984000D03*
X27317100Y44089900D03*
X28831500Y44089900D03*
X28061500Y44089900D03*
X29591000Y44111000D03*
D18*
%TO.N,AC_N*%
X206756000Y112776000D03*
X207455500Y112776000D03*
X208153000Y112776000D03*
X208788000Y112776000D03*
X209423000Y112776000D03*
X210184000Y112776000D03*
X210820000Y112776000D03*
X211519500Y112776000D03*
X212217000Y112776000D03*
X212852000Y112776000D03*
X213487000Y112776000D03*
X214248000Y112776000D03*
X215010000Y112776000D03*
X215645000Y112776000D03*
X216280000Y112776000D03*
X216915000Y112776000D03*
%TO.N,CGND*%
X208153000Y28829000D03*
X211963000Y25961700D03*
X210623600Y26035000D03*
%TO.N,$5N21369*%
X149733000Y43688000D03*
%TO.N,$5N28177*%
X108331000Y24638000D03*
X114670600Y10541000D03*
%TO.N,CGND*%
X206375000Y46990000D03*
X207899000Y46228000D03*
%TO.N,GND*%
X113792000Y140462000D03*
X115316000Y140462000D03*
X117503700Y140462000D03*
X124788900Y136146100D03*
X121031000Y135763000D03*
X108790500Y142342400D03*
X128651000Y142240000D03*
X137033000Y141224000D03*
X140843000Y135128000D03*
X139065000Y135763000D03*
X142494000Y136144000D03*
X146558000Y142367000D03*
X145923000Y141351000D03*
X153543000Y142621000D03*
X155575000Y138430000D03*
X153162000Y136017000D03*
X151130000Y144526000D03*
X135382000Y143129000D03*
X129667000Y142621000D03*
X118491000Y143891000D03*
X115062000Y143891000D03*
X102997000Y143764000D03*
X90678000Y144272000D03*
X89662000Y137922000D03*
X85471000Y137160000D03*
X77851000Y141478000D03*
X74676000Y135890000D03*
X61595000Y136652000D03*
X59356300Y136780300D03*
X56388000Y137033000D03*
X47244000Y138811000D03*
X47244000Y140568300D03*
X47250400Y144015300D03*
X43434000Y139827000D03*
X17780000Y138049000D03*
X16256000Y138176000D03*
X16256000Y136144000D03*
X17780000Y136144000D03*
X9017000Y143510000D03*
X6096000Y143510000D03*
X7454100Y144907000D03*
X12319000Y133731000D03*
X9485500Y133731000D03*
X10914900Y132334000D03*
X14907600Y143965400D03*
X13462000Y143002000D03*
X11233900Y143301300D03*
%TO.N,+12V*%
X38096700Y140274900D03*
%TO.N,GND*%
X36703000Y138938000D03*
X70104000Y145542000D03*
X68011400Y145542000D03*
X72136000Y145288000D03*
X70814100Y143754600D03*
X70731800Y139319000D03*
X72136000Y137795000D03*
X81788000Y141605000D03*
X89535000Y141605000D03*
X97525900Y138598700D03*
X98552000Y139700000D03*
X102728200Y130492400D03*
X103759000Y131572000D03*
%TO.N,+12V*%
X143362600Y142190300D03*
%TO.N,GND*%
X110109000Y139573000D03*
%TO.N,VFB*%
X105410000Y139573000D03*
%TO.N,GND*%
X105410000Y140335000D03*
X102108000Y143764000D03*
X95250000Y144399000D03*
X51054000Y132334000D03*
X50975700Y130556000D03*
X99568000Y132334000D03*
X100578400Y131383200D03*
X114088900Y131547900D03*
X111142700Y131547900D03*
X111506000Y130683000D03*
X113792000Y130556000D03*
X136144000Y140208000D03*
X98379900Y142153400D03*
X98425000Y140716000D03*
%TO.N,LLO1*%
X55499000Y141478000D03*
%TO.N,GND*%
X51054000Y144526000D03*
X43688000Y137160000D03*
X37719000Y135255000D03*
X29718000Y135382000D03*
X23749000Y135128000D03*
X17145000Y134747000D03*
X5969000Y135382000D03*
X6604000Y137795000D03*
X5080000Y133985000D03*
%TO.N,BGND*%
X156718000Y15240000D03*
X151511000Y19939000D03*
X156464000Y19939000D03*
X151384000Y10033000D03*
X156337000Y10795000D03*
X156337000Y9906000D03*
X156337000Y9017000D03*
X153289000Y7620000D03*
X154178000Y7620000D03*
X155067000Y7620000D03*
X153289000Y12446000D03*
X154178000Y12446000D03*
X155067000Y12446000D03*
X153035000Y17399000D03*
X153924000Y17399000D03*
X154813000Y17399000D03*
X153162000Y22352000D03*
X154051000Y22352000D03*
X154940000Y22352000D03*
X146168800Y43653700D03*
X147409000Y42513000D03*
%TO.N,VDD*%
X210244000Y20388000D03*
%TO.N,PGND*%
X204978000Y145288000D03*
X204851000Y138684000D03*
X169291000Y136646400D03*
X172974000Y140423300D03*
X182118000Y131699000D03*
X191008000Y141732000D03*
X191008000Y136652000D03*
%TO.N,$3N5901*%
X241554000Y95250000D03*
%TO.N,$1N4013*%
X51748100Y128693000D03*
%TO.N,$1N24864*%
X18161000Y70612000D03*
X18161000Y59142300D03*
D19*
%TO.N,BAT_G*%
X5461000Y61087000D03*
X6477000Y61087000D03*
X7493000Y61087000D03*
X8509000Y61087000D03*
X9652000Y61058400D03*
X10668000Y61087000D03*
X11811000Y61087000D03*
X11811000Y62103000D03*
X10668000Y62103000D03*
X9652000Y62074400D03*
X8509000Y62103000D03*
X7493000Y62103000D03*
X6477000Y62103000D03*
X5461000Y62103000D03*
X11811000Y63119000D03*
X10668000Y63119000D03*
X9652000Y63090400D03*
X8509000Y63119000D03*
X7493000Y63119000D03*
X6477000Y63119000D03*
X5461000Y63119000D03*
X11811000Y64135000D03*
X10668000Y64135000D03*
X9652000Y64106400D03*
X8509000Y64135000D03*
X7493000Y64135000D03*
X6477000Y64135000D03*
X5461000Y64135000D03*
X11811000Y76327000D03*
X10668000Y76327000D03*
X9652000Y76298400D03*
X8509000Y76327000D03*
X7493000Y76327000D03*
X6477000Y76327000D03*
X5461000Y76327000D03*
X11811000Y75311000D03*
X10668000Y75311000D03*
X9652000Y75282400D03*
X8509000Y75311000D03*
X7493000Y75311000D03*
X6477000Y75311000D03*
X5461000Y75311000D03*
X11811000Y74295000D03*
X10668000Y74295000D03*
X9652000Y74266400D03*
X8509000Y74295000D03*
X7493000Y74295000D03*
X6477000Y74295000D03*
X5461000Y74295000D03*
X11811000Y73279000D03*
X10668000Y73279000D03*
X9652000Y73250400D03*
X8509000Y73279000D03*
X7493000Y73279000D03*
X6477000Y73279000D03*
X5461000Y73279000D03*
X11811000Y72136000D03*
X10668000Y72136000D03*
X9652000Y72107400D03*
X8509000Y72136000D03*
X7493000Y72136000D03*
X6477000Y72136000D03*
X5461000Y72136000D03*
X11811000Y71120000D03*
X10668000Y71120000D03*
X9652000Y71091400D03*
X8509000Y71120000D03*
X7493000Y71120000D03*
X6477000Y71120000D03*
X5461000Y71120000D03*
X11684000Y67945000D03*
X10541000Y67945000D03*
X9525000Y67916400D03*
X8382000Y67945000D03*
X7366000Y67945000D03*
X6350000Y67945000D03*
X5334000Y67945000D03*
X11684000Y67056000D03*
X10541000Y67056000D03*
X9525000Y67027400D03*
X8382000Y67056000D03*
X7366000Y67056000D03*
X6350000Y67056000D03*
X5334000Y67056000D03*
X11811000Y66167000D03*
X10668000Y66167000D03*
X9652000Y66138400D03*
X8509000Y66167000D03*
X7493000Y66167000D03*
X6477000Y66167000D03*
X5461000Y66167000D03*
X11811000Y65151000D03*
X10668000Y65151000D03*
X9652000Y65122400D03*
X8509000Y65151000D03*
X7493000Y65151000D03*
X6477000Y65151000D03*
X5461000Y65151000D03*
X11811000Y60071000D03*
X10668000Y60071000D03*
X9652000Y60042400D03*
X8509000Y60071000D03*
X7493000Y60071000D03*
X6477000Y60071000D03*
X5461000Y60071000D03*
X11938000Y59182000D03*
X10795000Y59182000D03*
X9779000Y59153400D03*
X8636000Y59182000D03*
X7620000Y59182000D03*
X6604000Y59182000D03*
X5588000Y59182000D03*
X11938000Y77343000D03*
X10795000Y77343000D03*
X9779000Y77314400D03*
X8636000Y77343000D03*
X7620000Y77343000D03*
X6604000Y77343000D03*
X5588000Y77343000D03*
X11811000Y78359000D03*
X10668000Y78359000D03*
X9652000Y78330400D03*
X8509000Y78359000D03*
X7493000Y78359000D03*
X6477000Y78359000D03*
X5461000Y78359000D03*
X11811000Y79248000D03*
X10668000Y79248000D03*
X9652000Y79219400D03*
X8509000Y79248000D03*
X7493000Y79248000D03*
X6477000Y79248000D03*
X5461000Y79248000D03*
%TO.N,CGND*%
X189357000Y18954500D03*
X189357000Y17145000D03*
X189357000Y18057200D03*
%TO.N,$5N14110*%
X188015700Y28321000D03*
%TO.N,BGND*%
X153429800Y44623400D03*
%TO.N,+12V3*%
X144018000Y12584000D03*
X106680000Y31369000D03*
%TO.N,BGND*%
X125857000Y9398000D03*
X128327800Y11852800D03*
X126873000Y14351000D03*
X122697600Y14478000D03*
X117094000Y3429000D03*
X118441900Y3429000D03*
X119988100Y3429000D03*
X119988100Y5343400D03*
X119988100Y6658000D03*
X119988100Y7965100D03*
X116078000Y7620000D03*
X116078000Y6538500D03*
X116078000Y4969900D03*
X117729000Y11049000D03*
%TO.N,+12V3*%
X156768500Y45339000D03*
%TO.N,BGND*%
X100076000Y17145000D03*
X105664000Y20574000D03*
X121666000Y25273000D03*
X121882600Y21771200D03*
X120269000Y23368000D03*
X120396000Y24765000D03*
X134239000Y24257000D03*
X136017000Y25400000D03*
X137541000Y24003000D03*
X137033000Y22479000D03*
X133985000Y22606000D03*
X133223000Y18923000D03*
X134493000Y18923000D03*
X138430000Y18542000D03*
X145161000Y14986000D03*
X145288000Y12065000D03*
X143383000Y16002000D03*
X144907000Y9779000D03*
X142875000Y10922000D03*
X148717000Y12700000D03*
X150749000Y13970000D03*
X151257000Y17145000D03*
X152527000Y21336000D03*
X152527000Y13462000D03*
X152400000Y11303000D03*
X152527000Y8382000D03*
X151003000Y8382000D03*
X138684000Y11684000D03*
X137160000Y11557000D03*
X135382000Y11557000D03*
X131826000Y11430000D03*
X130810000Y9906000D03*
X127381000Y8255000D03*
X135763000Y21939900D03*
X156337000Y16764000D03*
X156591000Y12319000D03*
X157607900Y4826000D03*
%TO.N,IN_L*%
X250489200Y43180000D03*
%TO.N,CGND*%
X208972600Y13970000D03*
X205170000Y21271000D03*
%TD*%
%TO.N,48-72V*%
D20*
X7454100Y140970000D02*
X8763000Y140970000D01*
X8763000Y140970000D02*
X9398000Y140335000D01*
X9398000Y140335000D02*
X11265600Y140335000D01*
X12387900Y141921000D02*
X13400000Y141921000D01*
X13400000Y141921000D02*
X13589000Y141732000D01*
X13589000Y141732000D02*
X14843000Y141732000D01*
X14843000Y141732000D02*
X14884000Y141691000D01*
X12387900Y141921000D02*
X11619000Y141921000D01*
X11619000Y141921000D02*
X11303000Y141605000D01*
X11303000Y141605000D02*
X11303000Y140297600D01*
X11303000Y140297600D02*
X11311600Y140289000D01*
X11265600Y140335000D02*
X11303000Y140297600D01*
X14884000Y140421000D02*
X13668800Y140421000D01*
X13668800Y140421000D02*
X13536800Y140289000D01*
X13536800Y140289000D02*
X12818400Y140289000D01*
%TO.N,$4N1082*%
X20884000Y141691000D02*
X22012000Y141691000D01*
X22242000Y141461000D02*
X23130200Y141461000D01*
X22012000Y141691000D02*
X22242000Y141461000D01*
%TO.N,$4N1079*%
X20884000Y142961000D02*
X23030200Y142961000D01*
X23030200Y142961000D02*
X23130200Y142861000D01*
X23030200Y142961000D02*
X25360000Y142961000D01*
X25360000Y142961000D02*
X26664000Y141657000D01*
%TO.N,$4N3977*%
X20884000Y139151000D02*
X20884000Y137335900D01*
X20884000Y137335900D02*
X20835100Y137287000D01*
X19299700Y137184800D02*
X20732900Y137184800D01*
X20732900Y137184800D02*
X20835100Y137287000D01*
%TO.N,GND*%
X14884000Y139151000D02*
X14884000Y137344800D01*
X14884000Y137344800D02*
X14724000Y137184800D01*
%TO.N,+12V*%
X38100000Y142362100D02*
X32969100Y142362100D01*
X32969100Y142362100D02*
X32264000Y141657000D01*
X48151100Y142362100D02*
X48217900Y142295200D01*
%TO.N,REF5*%
D21*
X52245500Y143764000D02*
X50673000Y143764000D01*
X50673000Y143764000D02*
X50546000Y143891000D01*
X50546000Y143891000D02*
X49727100Y143891000D01*
X49727100Y143891000D02*
X49600100Y144018000D01*
%TO.N,+12V*%
X52245500Y142494000D02*
X51054000Y142494000D01*
X51054000Y142494000D02*
X50800000Y142240000D01*
X50800000Y142240000D02*
X49779900Y142240000D01*
X49779900Y142240000D02*
X49724700Y142295200D01*
%TO.N,GND*%
X52245500Y139954000D02*
X51181000Y139954000D01*
X51181000Y139954000D02*
X50673000Y140462000D01*
X50673000Y140462000D02*
X49742600Y140462000D01*
X49742600Y140462000D02*
X49615600Y140589000D01*
X52245500Y137414000D02*
X51562000Y137414000D01*
X51562000Y137414000D02*
X50419000Y138557000D01*
X50419000Y138557000D02*
X49869600Y138557000D01*
X49869600Y138557000D02*
X49615600Y138811000D01*
%TO.N,$1N8973*%
X52245500Y136144000D02*
X51435000Y136144000D01*
X51435000Y136144000D02*
X50546000Y137033000D01*
X50546000Y137033000D02*
X49615600Y137033000D01*
%TO.N,LLFB*%
X51054000Y134874000D02*
X50546000Y135382000D01*
X50546000Y135382000D02*
X49724700Y135382000D01*
%TO.N,$1N8973*%
X48215600Y137033000D02*
X48215600Y135384400D01*
X48215600Y135384400D02*
X48217900Y135382000D01*
%TO.N,LLFB*%
X52041000Y134874000D02*
X52065400Y134849600D01*
X52065400Y134849600D02*
X52065400Y133206800D01*
X52245500Y134874000D02*
X52041000Y134874000D01*
X52041000Y134874000D02*
X51054000Y134874000D01*
X52065400Y133206800D02*
X53585400Y131686800D01*
X53585400Y131686800D02*
X53585400Y131445000D01*
%TO.N,$1N1897*%
X53465400Y133206800D02*
X55123900Y133206800D01*
X55123900Y133206800D02*
X55126600Y133209600D01*
%TO.N,+48V*%
X56633400Y129912400D02*
X56514900Y129794000D01*
X56633400Y133209600D02*
X56633400Y131445000D01*
%TO.N,LLFB*%
X55126600Y131445000D02*
X53585400Y131445000D01*
%TO.N,LHO1*%
X49166300Y132971500D02*
X49166300Y131313300D01*
X49166300Y131313300D02*
X49542700Y130937000D01*
D22*
X47166300Y132971500D02*
X46721800Y133416000D01*
X46721800Y133416000D02*
X44297500Y133416000D01*
X46142600Y130937000D02*
X45663600Y131416000D01*
X45663600Y131416000D02*
X44297500Y131416000D01*
X44297500Y133416000D02*
X43630800Y132749300D01*
X43630800Y132749300D02*
X36735700Y132749300D01*
X36735700Y130749300D02*
X34974000Y130749300D01*
D21*
X49542700Y130937000D02*
X49620300Y130859300D01*
X49620300Y130859300D02*
X49620300Y126492000D01*
D22*
X33755600Y133096000D02*
X36388900Y133096000D01*
X36388900Y133096000D02*
X36735700Y132749300D01*
X31755600Y133096000D02*
X31755600Y130930900D01*
X31755600Y130930900D02*
X31574000Y130749300D01*
%TO.N,$1N1866*%
D21*
X57990500Y134874000D02*
X59563000Y134874000D01*
X59563000Y134874000D02*
X59944000Y134493000D01*
X59944000Y134493000D02*
X59944000Y132715000D01*
X59055000Y132706400D02*
X60833000Y132706400D01*
%TO.N,LLO1*%
D22*
X63119000Y130527000D02*
X65109600Y130527000D01*
X65109600Y130527000D02*
X65265600Y130683000D01*
X63119000Y132527000D02*
X65656500Y132527000D01*
X65656500Y132527000D02*
X65872000Y132742500D01*
%TO.N,$1N2714*%
X68665600Y130683000D02*
X67933100Y130683000D01*
%TO.N,LLO1*%
X65872000Y132742500D02*
X65872000Y133944000D01*
X65872000Y133944000D02*
X66421000Y134493000D01*
X66421000Y134493000D02*
X79502000Y134493000D01*
X80058500Y133936500D02*
X80058500Y133001300D01*
X79502000Y134493000D02*
X80058500Y133936500D01*
X80058500Y133001300D02*
X83200600Y133001300D01*
X80058500Y131001300D02*
X81825900Y131001300D01*
X81825900Y131001300D02*
X81913700Y130913600D01*
X85201000Y133000900D02*
X85201000Y127072700D01*
X85201000Y127072700D02*
X84620300Y126492000D01*
%TO.N,+48V*%
D21*
X56633400Y131445000D02*
X56633400Y130449600D01*
X56633400Y130449600D02*
X56633400Y129912400D01*
%TO.N,$4N3977*%
X22341800Y137287000D02*
X23622000Y137287000D01*
%TO.N,+12V*%
D20*
X38100000Y142362100D02*
X47241200Y142362100D01*
X47241200Y142362100D02*
X48151100Y142362100D01*
X61849000Y138176000D02*
X60426600Y138176000D01*
X60426600Y138176000D02*
X59918600Y138684000D01*
X59918600Y138684000D02*
X57990500Y138684000D01*
%TO.N,$1N4084*%
X62923400Y141224000D02*
X63119000Y141028400D01*
%TO.N,SDLIN*%
X57990500Y142494000D02*
X58973500Y142494000D01*
X58973500Y142494000D02*
X60706000Y144226500D01*
X66087200Y144226500D02*
X66158100Y144297400D01*
%TO.N,+12V*%
X75379600Y143754600D02*
X78282500Y143754600D01*
X78282500Y143754600D02*
X78354600Y143826800D01*
X75438000Y143510000D02*
X73406000Y141478000D01*
X69664600Y141478000D02*
X69088000Y140901400D01*
X73406000Y141478000D02*
X69664600Y141478000D01*
X69088000Y140901400D02*
X67353200Y139166600D01*
X67353200Y139166600D02*
X66158100Y139166600D01*
X66158100Y139166600D02*
X65167500Y138176000D01*
X65167500Y138176000D02*
X61849000Y138176000D01*
%TO.N,LLO1*%
D22*
X57990500Y136144000D02*
X58928000Y136144000D01*
X58928000Y136144000D02*
X59436000Y135636000D01*
X59436000Y135636000D02*
X62357000Y135636000D01*
X62357000Y135636000D02*
X63119000Y134874000D01*
X63119000Y134874000D02*
X63119000Y132527000D01*
%TO.N,$1N4084*%
D20*
X57990500Y141224000D02*
X61909100Y141224000D01*
X61909100Y141224000D02*
X62923400Y141224000D01*
%TO.N,GND*%
D22*
X78282200Y139319000D02*
X78354600Y139246600D01*
X75379600Y139319000D02*
X76519000Y139319000D01*
X76519000Y139319000D02*
X78282200Y139319000D01*
%TO.N,LHO1*%
X57990500Y143764000D02*
X55245000Y143764000D01*
X55245000Y143764000D02*
X53721000Y145288000D01*
X53721000Y145288000D02*
X45974000Y145288000D01*
%TO.N,$1N4013*%
X57990500Y139954000D02*
X55880000Y139954000D01*
X55880000Y139954000D02*
X55118000Y139192000D01*
X55118000Y139192000D02*
X55118000Y135255000D01*
%TO.N,REF5*%
D21*
X52245500Y143764000D02*
X53340000Y143764000D01*
X53340000Y143764000D02*
X53975000Y143129000D01*
X53975000Y143129000D02*
X53975000Y134620000D01*
X54483000Y134112000D02*
X57658000Y134112000D01*
X57658000Y134112000D02*
X58039000Y133731000D01*
X58039000Y131318000D02*
X58293000Y131064000D01*
X58293000Y131064000D02*
X58919400Y131064000D01*
X58919400Y131064000D02*
X59055000Y131199600D01*
X53975000Y134620000D02*
X54483000Y134112000D01*
X58039000Y133731000D02*
X58039000Y131318000D01*
%TO.N,LHO1*%
D22*
X32120300Y126492000D02*
X31574000Y127038400D01*
X31574000Y127038400D02*
X31574000Y130749300D01*
%TO.N,$1N2714*%
X68072000Y127443700D02*
X67120300Y126492000D01*
X67871900Y132742500D02*
X67933100Y132681400D01*
X67933100Y132681400D02*
X67933100Y130683000D01*
X67933100Y130683000D02*
X68072000Y130544100D01*
X68072000Y130544100D02*
X68072000Y127443700D01*
%TO.N,GND*%
D20*
X78354600Y139246600D02*
X79193400Y139246600D01*
X83312700Y135127300D02*
X90972000Y135127300D01*
X79193400Y139246600D02*
X83312700Y135127300D01*
%TO.N,+12V*%
X78486000Y143637000D02*
X80391000Y145542000D01*
X121957100Y142113000D02*
X123882100Y142113000D01*
X123882100Y142113000D02*
X123961700Y142192600D01*
X121957100Y142113000D02*
X120842000Y140997900D01*
X120842000Y140997900D02*
X120842000Y140181100D01*
X123174500Y139956100D02*
X121972800Y139956100D01*
X121972800Y139956100D02*
X121747800Y140181100D01*
X121747800Y140181100D02*
X120842000Y140181100D01*
X139207800Y142240000D02*
X138495000Y141527200D01*
X138495000Y141527200D02*
X138495000Y140103000D01*
X138495000Y140103000D02*
X140551500Y140103000D01*
X140551500Y140103000D02*
X140700500Y139954000D01*
X139257600Y142190300D02*
X141409400Y142190300D01*
X139207800Y142240000D02*
X139257600Y142190300D01*
%TO.N,$2N9341*%
X95972000Y135127300D02*
X99059300Y135127300D01*
X99059300Y135127300D02*
X99441000Y135509000D01*
X99441000Y135509000D02*
X99441000Y136421700D01*
X99441000Y136421700D02*
X99568000Y136548700D01*
%TO.N,$2N9391*%
X100518000Y138548700D02*
X100518000Y139634000D01*
X100518000Y139634000D02*
X101051900Y140167900D01*
X101051900Y140167900D02*
X103045500Y140167900D01*
%TO.N,GND*%
X100930600Y141437900D02*
X103045500Y141437900D01*
X90972000Y135127300D02*
X90972000Y142153000D01*
X90972000Y142153000D02*
X92075000Y143256000D01*
X92075000Y143256000D02*
X100203000Y143256000D01*
X100203000Y143256000D02*
X100838000Y142621000D01*
X100838000Y142621000D02*
X100838000Y141530500D01*
X100838000Y141530500D02*
X100930600Y141437900D01*
X103045500Y133817900D02*
X100584000Y133817900D01*
X108790500Y133817900D02*
X103045500Y133817900D01*
%TO.N,$2N8060*%
X108790500Y137627900D02*
X110576900Y137627900D01*
X110576900Y137627900D02*
X110998000Y138049000D01*
X110998000Y138049000D02*
X110998000Y140326400D01*
X110998000Y140326400D02*
X111133600Y140462000D01*
%TO.N,LLCIFB*%
D21*
X108790500Y140167900D02*
X109687900Y140167900D01*
X109687900Y140167900D02*
X110109000Y140589000D01*
X110109000Y140589000D02*
X110109000Y141859000D01*
X110109000Y141859000D02*
X110363000Y142113000D01*
X110363000Y142113000D02*
X111054100Y142113000D01*
X111054100Y142113000D02*
X111133600Y142192600D01*
%TO.N,$2N7024*%
D23*
X111125000Y137033000D02*
X112522000Y138430000D01*
D21*
X123174500Y138686100D02*
X121922100Y138686100D01*
X121922100Y138686100D02*
X121666000Y138430000D01*
X121666000Y138430000D02*
X120887600Y138430000D01*
%TO.N,$2N7016*%
X123174500Y137416100D02*
X121922100Y137416100D01*
X121412000Y136906000D02*
X120917700Y136906000D01*
X121922100Y137416100D02*
X121412000Y136906000D01*
%TO.N,$2N8060*%
X106045000Y137668000D02*
X108750400Y137668000D01*
X106924600Y130486800D02*
X106942600Y130504800D01*
X105172100Y130486800D02*
X106064300Y130486800D01*
X106064300Y130486800D02*
X106924600Y130486800D01*
X108750400Y137668000D02*
X108790500Y137627900D01*
%TO.N,$2N7024*%
D23*
X103045500Y136357900D02*
X106258900Y136357900D01*
X106258900Y136357900D02*
X106934000Y137033000D01*
X106934000Y137033000D02*
X111125000Y137033000D01*
%TO.N,GND*%
D21*
X116070000Y134358300D02*
X115759500Y134047800D01*
X115759500Y134047800D02*
X112649000Y134047800D01*
%TO.N,$2N7016*%
X140700500Y138684000D02*
X138770600Y138684000D01*
X138770600Y138684000D02*
X138591200Y138504700D01*
%TO.N,$2N7024*%
X140700500Y137414000D02*
X139204400Y137414000D01*
X139204400Y137414000D02*
X138950400Y137160000D01*
X138950400Y137160000D02*
X138591200Y137160000D01*
%TO.N,+12V*%
D20*
X123655800Y145542000D02*
X123961700Y145236100D01*
X123961700Y145236100D02*
X123961700Y142192600D01*
X123655800Y145542000D02*
X80391000Y145542000D01*
X141055600Y145034000D02*
X141055600Y142544100D01*
X141055600Y142544100D02*
X141409400Y142190300D01*
%TO.N,VS1*%
X131592200Y144378800D02*
X132080000Y143891000D01*
X132080000Y143891000D02*
X132080000Y140528600D01*
X132080000Y140528600D02*
X131953000Y140401600D01*
X127168400Y144378800D02*
X131592200Y144378800D01*
X131953000Y140401600D02*
X131507500Y139956100D01*
X131507500Y139956100D02*
X128539500Y139956100D01*
%TO.N,$2N7298*%
X144948400Y145034000D02*
X148717000Y145034000D01*
X148717000Y145034000D02*
X149606000Y144145000D01*
X149606000Y144145000D02*
X149606000Y140425000D01*
X149606000Y140425000D02*
X149479000Y140298000D01*
X146065500Y139954000D02*
X149135000Y139954000D01*
X149135000Y139954000D02*
X149479000Y140298000D01*
%TO.N,VS2*%
X149177800Y137414000D02*
X149479000Y137112800D01*
%TO.N,$2N7355*%
X131753300Y137416100D02*
X131953000Y137216400D01*
%TO.N,VS2*%
X146065500Y137414000D02*
X147489400Y137414000D01*
X147489400Y137414000D02*
X149177800Y137414000D01*
%TO.N,$2N7355*%
X128539500Y137416100D02*
X130205600Y137416100D01*
X130205600Y137416100D02*
X131753300Y137416100D01*
%TO.N,+48V*%
D22*
X108449400Y130504800D02*
X110287200Y130504800D01*
X110287200Y130504800D02*
X111252000Y129540000D01*
X111252000Y129540000D02*
X113411000Y129540000D01*
X113411000Y129540000D02*
X114173000Y128778000D01*
X114173000Y128778000D02*
X114173000Y126495000D01*
X114173000Y126495000D02*
X114170000Y126492000D01*
%TO.N,$2N7016*%
D23*
X103045500Y135087900D02*
X106258900Y135087900D01*
X111252000Y135382000D02*
X114046000Y135382000D01*
X114046000Y135382000D02*
X114427000Y135763000D01*
X114427000Y135763000D02*
X114427000Y136398000D01*
X114427000Y136398000D02*
X114935000Y136906000D01*
X114935000Y136906000D02*
X119411000Y136906000D01*
X119411000Y136906000D02*
X119411000Y135859000D01*
X119411000Y135859000D02*
X120142000Y135128000D01*
X120142000Y135128000D02*
X135382000Y135128000D01*
%TO.N,$2N7024*%
X112522000Y138430000D02*
X118645000Y138430000D01*
X118645000Y138430000D02*
X119380900Y138430000D01*
X118872000Y135001000D02*
X119126000Y134747000D01*
%TO.N,$2N7016*%
X135382000Y135128000D02*
X135763000Y135509000D01*
X135763000Y135509000D02*
X135763000Y138176000D01*
X135763000Y138176000D02*
X136144000Y138557000D01*
X136144000Y138557000D02*
X137032200Y138557000D01*
X137032200Y138557000D02*
X137084500Y138504700D01*
%TO.N,$2N7024*%
X119126000Y134747000D02*
X136720500Y134747000D01*
X136720500Y134747000D02*
X137084500Y135111000D01*
X137084500Y135111000D02*
X137084500Y137160000D01*
%TO.N,$2N27579*%
D22*
X137336000Y126707700D02*
X137120300Y126492000D01*
X128539500Y136146100D02*
X129791900Y136146100D01*
X129791900Y136146100D02*
X130175000Y135763000D01*
X130175000Y135763000D02*
X133858000Y135763000D01*
X133858000Y135763000D02*
X134112000Y136017000D01*
%TO.N,VFB*%
X155948600Y142621000D02*
X155948600Y144143800D01*
X155948600Y144143800D02*
X155820400Y144272000D01*
X155820400Y144272000D02*
X157486000Y144272000D01*
X157486000Y144272000D02*
X158121000Y143637000D01*
X155820400Y144272000D02*
X155820400Y146312600D01*
X155321000Y146812000D02*
X155820400Y146312600D01*
X107315000Y146812000D02*
X155321000Y146812000D01*
X108790500Y135087900D02*
X107315000Y135087900D01*
%TO.N,+12V*%
X158121000Y141097000D02*
X157739500Y140715500D01*
X157739500Y140715500D02*
X155968500Y140715500D01*
D20*
X123655800Y145542000D02*
X124036800Y145923000D01*
X124036800Y145923000D02*
X140166600Y145923000D01*
X140166600Y145923000D02*
X141055600Y145034000D01*
%TO.N,$2N27600*%
D22*
X121842000Y132588000D02*
X120906800Y131652800D01*
X120906800Y131652800D02*
X120906800Y130302000D01*
X119620300Y126492000D02*
X120906800Y127778500D01*
X120906800Y127778500D02*
X120906800Y130302000D01*
X128539500Y138686100D02*
X125857000Y138686100D01*
X118442000Y132588000D02*
X118491000Y132637000D01*
X118491000Y133477000D02*
X118999000Y133985000D01*
X118999000Y133985000D02*
X125984000Y133985000D01*
X116586000Y131712200D02*
X115570000Y131712200D01*
%TO.N,FADJ*%
X108790500Y136357900D02*
X110744000Y136357900D01*
%TO.N,$2N7016*%
D23*
X106258900Y135087900D02*
X106934000Y135763000D01*
X106934000Y135763000D02*
X110871000Y135763000D01*
X110871000Y135763000D02*
X111252000Y135382000D01*
%TO.N,LLCIFB*%
D21*
X112640400Y142192600D02*
X120475600Y142192600D01*
X121666000Y143383000D02*
X122047000Y143383000D01*
X120475600Y142192600D02*
X121666000Y143383000D01*
%TO.N,$2N1982*%
D22*
X154742300Y126552600D02*
X154621700Y126432000D01*
%TO.N,$2N27625*%
X147963600Y130302000D02*
X144907000Y130302000D01*
X144907000Y130302000D02*
X143764000Y129159000D01*
X146065500Y136144000D02*
X147701000Y136144000D01*
X150876000Y132969000D02*
X151342200Y132969000D01*
X147701000Y136144000D02*
X150876000Y132969000D01*
%TO.N,$2N27579*%
X132282500Y130519000D02*
X126963000Y130519000D01*
X126963000Y130519000D02*
X126111000Y129667000D01*
X126111000Y129667000D02*
X126111000Y126600900D01*
X126111000Y126600900D02*
X126219900Y126492000D01*
%TO.N,$1N24864*%
X18224400Y49184700D02*
X20228700Y49184700D01*
X20228700Y49184700D02*
X20320000Y49276000D01*
X17867200Y36361800D02*
X18224400Y36719100D01*
X18224400Y36719100D02*
X18224400Y37881700D01*
%TO.N,+12V*%
X140166600Y145923000D02*
X140420600Y146177000D01*
X152400000Y141224000D02*
X153035000Y140589000D01*
X153035000Y140589000D02*
X154335200Y140589000D01*
X154335200Y140589000D02*
X154461800Y140715500D01*
X140420600Y146177000D02*
X151791400Y146177000D01*
X151791400Y146177000D02*
X152400000Y145568400D01*
X152400000Y145568400D02*
X152400000Y141224000D01*
%TO.N,$4N2570*%
X77455400Y38270800D02*
X80312200Y38270800D01*
X80312200Y38270800D02*
X80342000Y38241000D01*
X81725800Y35962300D02*
X81725800Y36857300D01*
X81725800Y36857300D02*
X80342000Y38241000D01*
%TO.N,$4N3246*%
X85304400Y35962300D02*
X85598000Y36255800D01*
X83742000Y38241000D02*
X85583200Y38241000D01*
X85583200Y38241000D02*
X85598000Y38255800D01*
%TO.N,$4N3192*%
X77455400Y30714000D02*
X80402500Y30714000D01*
X80402500Y30714000D02*
X80549400Y30861000D01*
X83949500Y30861000D02*
X83949500Y28862300D01*
X83949500Y28862300D02*
X83662100Y28575000D01*
X85725000Y30699100D02*
X85725000Y31750000D01*
X85725000Y31750000D02*
X84963000Y32512000D01*
X84963000Y32512000D02*
X81026000Y32512000D01*
X81026000Y32512000D02*
X80772000Y32258000D01*
X80772000Y32258000D02*
X80772000Y31083600D01*
X80772000Y31083600D02*
X80549400Y30861000D01*
X81662100Y28575000D02*
X81662100Y27430900D01*
X81662100Y27430900D02*
X82296000Y26797000D01*
X85217000Y26797000D02*
X85852000Y27432000D01*
X85852000Y27432000D02*
X85852000Y28572100D01*
X85852000Y28572100D02*
X85725000Y28699100D01*
%TO.N,+5V2*%
X47927500Y50038000D02*
X46228000Y50038000D01*
X46228000Y50038000D02*
X45974000Y50292000D01*
X45974000Y50292000D02*
X45254400Y50292000D01*
X45254400Y50292000D02*
X45127400Y50419000D01*
%TO.N,+12V2*%
X47927500Y48768000D02*
X45124200Y48768000D01*
%TO.N,GND*%
X47927500Y46228000D02*
X45108600Y46228000D01*
X45108600Y46228000D02*
X44943800Y46063200D01*
X47927500Y43688000D02*
X45402400Y43688000D01*
X45402400Y43688000D02*
X45243800Y43846600D01*
%TO.N,$4N2451*%
X47927500Y42418000D02*
X46609000Y42418000D01*
X46609000Y42418000D02*
X46228000Y42037000D01*
X46228000Y42037000D02*
X45224300Y42037000D01*
X45224300Y42037000D02*
X45124200Y41936800D01*
X43617400Y41936800D02*
X43617400Y40368900D01*
X43617400Y40368900D02*
X43727400Y40259000D01*
%TO.N,LFB*%
X47927500Y41148000D02*
X47941000Y41134500D01*
X47941000Y41134500D02*
X47941000Y39377000D01*
X47927500Y41148000D02*
X46807800Y41148000D01*
X46807800Y41148000D02*
X45918800Y40259000D01*
X45918800Y40259000D02*
X45127400Y40259000D01*
X49013400Y37419500D02*
X50590500Y37419500D01*
X50590500Y37419500D02*
X50890000Y37719000D01*
%TO.N,$4N2476*%
X49341000Y39377000D02*
X50831200Y39377000D01*
%TO.N,+24.5V*%
X52338000Y39377000D02*
X52338000Y37777800D01*
X52338000Y37777800D02*
X52396700Y37719000D01*
X48914000Y35814000D02*
X51689000Y35814000D01*
X51689000Y35814000D02*
X52197000Y36322000D01*
X52197000Y36322000D02*
X52197000Y37519300D01*
X52197000Y37519300D02*
X52396700Y37719000D01*
X48914000Y35814000D02*
X48914000Y32110000D01*
X48914000Y32110000D02*
X48514000Y31710000D01*
%TO.N,LFB*%
X47941000Y39377000D02*
X47941000Y38927000D01*
X49013400Y37854600D02*
X49013400Y37419500D01*
X47941000Y38927000D02*
X49013400Y37854600D01*
%TO.N,$4N3287*%
X53672500Y48768000D02*
X54991000Y48768000D01*
X54991000Y48768000D02*
X55245000Y49022000D01*
X55245000Y49022000D02*
X56190700Y49022000D01*
X56190700Y49022000D02*
X56313700Y49145100D01*
X58535600Y51145700D02*
X56515000Y51145700D01*
X56515000Y51145700D02*
X56313700Y50944400D01*
X56313700Y50944400D02*
X56313700Y49145100D01*
X58535600Y51145700D02*
X60621400Y51145700D01*
X60621400Y51145700D02*
X61214000Y50553100D01*
X56313700Y47745000D02*
X56313700Y47318300D01*
X57141400Y46490600D02*
X57141400Y46065900D01*
X56313700Y47318300D02*
X57141400Y46490600D01*
%TO.N,+12V2*%
X61214000Y47153000D02*
X62861700Y48800700D01*
X62861700Y48800700D02*
X64802400Y48800700D01*
X53672500Y44958000D02*
X55168700Y44958000D01*
X55168700Y44958000D02*
X55628700Y44498000D01*
X55628700Y44498000D02*
X60754000Y44498000D01*
X60754000Y44498000D02*
X61214000Y44958000D01*
X61214000Y44958000D02*
X61214000Y47153000D01*
%TO.N,$4N3287*%
X57141400Y46065900D02*
X58074100Y46065900D01*
X58074100Y46065900D02*
X58166000Y45974000D01*
%TO.N,$4N3376*%
X53672500Y41148000D02*
X55412300Y41148000D01*
X55412300Y41148000D02*
X56015600Y40544700D01*
X56015600Y40544700D02*
X56015600Y38989000D01*
%TO.N,$4N3287*%
X57522400Y40544700D02*
X58451700Y40544700D01*
X58451700Y40544700D02*
X58547000Y40640000D01*
X58166000Y46140500D02*
X58166000Y47590900D01*
X58166000Y47590900D02*
X58535600Y47960500D01*
X53672500Y47498000D02*
X56066700Y47498000D01*
X56066700Y47498000D02*
X56313700Y47745000D01*
X53672500Y46228000D02*
X55472600Y46228000D01*
X55472600Y46228000D02*
X55634600Y46065900D01*
X58547000Y40640000D02*
X65405000Y40640000D01*
X67268000Y38777000D02*
X67268000Y29464000D01*
X65405000Y40640000D02*
X67268000Y38777000D01*
%TO.N,$4N3246*%
X53672500Y50038000D02*
X54864000Y50038000D01*
X54864000Y50038000D02*
X54991000Y50165000D01*
%TO.N,+12V2*%
X66548000Y43053000D02*
X66548000Y47055100D01*
X57912000Y20828000D02*
X56642000Y19558000D01*
X56642000Y19558000D02*
X56642000Y7112000D01*
X56642000Y7112000D02*
X57150000Y6604000D01*
X57150000Y6604000D02*
X59497200Y6604000D01*
X59497200Y6604000D02*
X59850200Y6250900D01*
X61542100Y18034000D02*
X61542100Y20665600D01*
X61542100Y20665600D02*
X61704500Y20828000D01*
X66675000Y20828000D02*
X61704500Y20828000D01*
X61704500Y20828000D02*
X57912000Y20828000D01*
%TO.N,$4N21743*%
X63048800Y18034000D02*
X63048800Y16256000D01*
X63048800Y16256000D02*
X64881500Y16256000D01*
X64881500Y16256000D02*
X64953000Y16184500D01*
%TO.N,$4N21736*%
X64953000Y13644500D02*
X62762400Y13644500D01*
X62762400Y13644500D02*
X62662400Y13744500D01*
%TO.N,$4N21735*%
X64953000Y12374500D02*
X62692400Y12374500D01*
X62692400Y12374500D02*
X62662400Y12344500D01*
D20*
X64953000Y12374500D02*
X66405500Y10922000D01*
X66405500Y10922000D02*
X69469000Y10922000D01*
X69469000Y10922000D02*
X71508900Y8882100D01*
X71508900Y8882100D02*
X71508900Y7112000D01*
%TO.N,+12V2*%
D22*
X59850200Y6250900D02*
X65047900Y6250900D01*
X65047900Y6250900D02*
X65909000Y7112000D01*
%TO.N,+48V*%
X70953000Y13644500D02*
X73188700Y13644500D01*
X73188700Y13644500D02*
X73364700Y13468500D01*
X73364700Y13468500D02*
X74682500Y13468500D01*
X74682500Y13468500D02*
X75184000Y13970000D01*
X75184000Y13970000D02*
X75184000Y14847400D01*
X75184000Y14847400D02*
X74993600Y15037800D01*
X73326800Y22509200D02*
X73326800Y20907200D01*
X74993600Y19240400D02*
X74993600Y15037800D01*
X73326800Y20907200D02*
X74993600Y19240400D01*
X70953000Y14914500D02*
X73363500Y14914500D01*
X73363500Y14914500D02*
X73486800Y15037800D01*
%TO.N,GND*%
X70953000Y16184500D02*
X71631400Y16862900D01*
X71631400Y16862900D02*
X71631400Y17780000D01*
%TO.N,+12V2*%
D23*
X43617400Y48768000D02*
X43617400Y47695600D01*
X43942000Y47371000D02*
X45847000Y47371000D01*
X45847000Y47371000D02*
X46355000Y46863000D01*
X51435000Y44958000D02*
X53672500Y44958000D01*
X43617400Y47695600D02*
X43942000Y47371000D01*
X46355000Y46863000D02*
X49530000Y46863000D01*
X49530000Y46863000D02*
X51435000Y44958000D01*
%TO.N,+5V2*%
D22*
X47927500Y50038000D02*
X50165000Y50038000D01*
X50165000Y50038000D02*
X50292000Y49911000D01*
X57522400Y38989000D02*
X58547000Y38989000D01*
%TO.N,$4N3246*%
X83725800Y35962300D02*
X84657700Y35962300D01*
X84657700Y35962300D02*
X85304400Y35962300D01*
%TO.N,$4N3192*%
X53672500Y42418000D02*
X54610000Y42418000D01*
X54610000Y42418000D02*
X55118000Y41910000D01*
X55118000Y41910000D02*
X69088000Y41910000D01*
X82296000Y26797000D02*
X83449800Y26797000D01*
X83449800Y26797000D02*
X85217000Y26797000D01*
%TO.N,VBUSC*%
D21*
X7569500Y10401000D02*
X7099000Y10401000D01*
X6731000Y5842000D02*
X6858000Y5842000D01*
X7099000Y5601000D02*
X7569500Y5601000D01*
X6858000Y5842000D02*
X7099000Y5601000D01*
%TO.N,CC1R*%
X7569500Y9250900D02*
X8783100Y9250900D01*
X9761000Y8273000D02*
X10283600Y8273000D01*
X8783100Y9250900D02*
X9761000Y8273000D01*
%TO.N,DMCR*%
X7569500Y7751100D02*
X8758900Y7751100D01*
X9891100Y6618900D02*
X10283600Y6618900D01*
X8758900Y7751100D02*
X9891100Y6618900D01*
%TO.N,VBUSC*%
X7099000Y10401000D02*
X5842000Y9144000D01*
X5842000Y9144000D02*
X5842000Y6731000D01*
X5842000Y6731000D02*
X6731000Y5842000D01*
%TO.N,DPCR*%
X7569500Y8250900D02*
X6726900Y8250900D01*
X6726900Y8250900D02*
X6350000Y7874000D01*
X6350000Y7874000D02*
X6350000Y7366000D01*
X6350000Y7366000D02*
X6477000Y7239000D01*
X6477000Y7239000D02*
X7557500Y7239000D01*
X7557500Y7239000D02*
X7569500Y7250900D01*
%TO.N,DMCR*%
X7569500Y8751100D02*
X8520900Y8751100D01*
X8520900Y8751100D02*
X8636000Y8636000D01*
X8636000Y8636000D02*
X8636000Y7874000D01*
X8636000Y7874000D02*
X8758900Y7751100D01*
%TO.N,CC2*%
X7569500Y6250900D02*
X8735100Y6250900D01*
X10033000Y4953000D02*
X10283600Y4953000D01*
X8735100Y6250900D02*
X10033000Y4953000D01*
%TO.N,DPCR*%
X16637000Y5842000D02*
X16891000Y5588000D01*
X16891000Y5588000D02*
X16891000Y4867600D01*
X16891000Y4867600D02*
X16863600Y4840300D01*
%TO.N,$4N9834*%
X15402500Y4794700D02*
X15356900Y4840300D01*
%TO.N,$4N9841*%
X11790300Y6618900D02*
X13968300Y6618900D01*
X13968300Y6618900D02*
X14100400Y6751100D01*
%TO.N,$4N14153*%
X19054900Y25783700D02*
X19072900Y25765800D01*
%TO.N,CC1*%
D23*
X26910000Y24544800D02*
X25874200Y24544800D01*
X24353600Y26065400D02*
X23889900Y26065400D01*
%TO.N,CC2*%
X26910000Y24944600D02*
X26363400Y24944600D01*
X26363400Y24944600D02*
X25527000Y25781000D01*
X25527000Y25781000D02*
X25527000Y27432000D01*
X25146000Y27813000D02*
X23958000Y27813000D01*
X23958000Y27813000D02*
X23889900Y27744900D01*
%TO.N,DPAR*%
X11683700Y21310100D02*
X13741900Y21310100D01*
X13741900Y21310100D02*
X13843000Y21209000D01*
%TO.N,DMAR*%
X11683700Y24409900D02*
X13182100Y24409900D01*
X13182100Y24409900D02*
X13335000Y24257000D01*
%TO.N,$4N4920*%
X30017400Y21837100D02*
X30017400Y20476400D01*
X30017400Y20476400D02*
X30367400Y20126400D01*
%TO.N,$4N14125*%
D21*
X20579600Y25765800D02*
X20579600Y24759400D01*
X20579600Y24759400D02*
X21082000Y24257000D01*
X21082000Y24257000D02*
X22400000Y24257000D01*
X22400000Y24257000D02*
X22451700Y24205300D01*
%TO.N,IDC*%
D23*
X24334200Y23344600D02*
X26910000Y23344600D01*
%TO.N,$4N9834*%
X26910000Y24144700D02*
X25512300Y24144700D01*
X25512300Y24144700D02*
X25273000Y24384000D01*
%TO.N,$4N9841*%
X26910000Y23744700D02*
X25023300Y23744700D01*
X25023300Y23744700D02*
X24892000Y23876000D01*
%TO.N,IDC*%
X23622000Y24070000D02*
X23622000Y24056800D01*
X23622000Y24056800D02*
X24334200Y23344600D01*
X23622000Y24070000D02*
X23551900Y24140200D01*
%TO.N,$4N9841*%
X24638000Y20066000D02*
X18288000Y20066000D01*
D21*
X14100400Y6751100D02*
X14100400Y7496400D01*
X14100400Y7496400D02*
X14605000Y8001000D01*
X14605000Y8001000D02*
X18161000Y8001000D01*
X18161000Y8001000D02*
X18288000Y7874000D01*
%TO.N,$4N9834*%
X15402500Y3429000D02*
X15402500Y4268900D01*
X15402500Y4268900D02*
X15402500Y4794700D01*
%TO.N,CSPC*%
D23*
X27617600Y21837100D02*
X27305000Y21524500D01*
X27305000Y21524500D02*
X27305000Y21463000D01*
%TO.N,CSNA*%
X28017400Y21286400D02*
X28017400Y21837100D01*
X27813000Y21082000D02*
X28017400Y21286400D01*
%TO.N,VBUSC*%
X18415000Y20574000D02*
X18161000Y20828000D01*
X28417500Y21837100D02*
X28417500Y20828000D01*
X28417500Y20828000D02*
X28163500Y20574000D01*
X28163500Y20574000D02*
X18415000Y20574000D01*
%TO.N,CC2*%
X25527000Y27432000D02*
X25346300Y27612700D01*
X25346300Y27612700D02*
X25146000Y27813000D01*
%TO.N,CC1*%
X25874200Y24544800D02*
X25180300Y25238700D01*
X25180300Y25238700D02*
X24353600Y26065400D01*
%TO.N,CC2*%
X11790300Y4953000D02*
X12573000Y4953000D01*
%TO.N,CC1*%
X11790300Y8273000D02*
X12555000Y8273000D01*
X12555000Y8273000D02*
X12573000Y8255000D01*
%TO.N,CSPC*%
X22270200Y15539800D02*
X22905800Y15539800D01*
X22905800Y15539800D02*
X23368000Y16002000D01*
%TO.N,CSNA*%
X24511000Y15621000D02*
X24257000Y15621000D01*
X24257000Y15621000D02*
X23749000Y16129000D01*
X23749000Y16129000D02*
X23749000Y16764000D01*
X23749000Y16764000D02*
X24003000Y17018000D01*
X24003000Y17018000D02*
X27940000Y17018000D01*
%TO.N,CSPC*%
X23368000Y16002000D02*
X23368000Y17119600D01*
X23368000Y17119600D02*
X23774400Y17526000D01*
X23774400Y17526000D02*
X27051000Y17526000D01*
%TO.N,VBUSA*%
X28817500Y20435500D02*
X28817500Y21837100D01*
X28575000Y20193000D02*
X28817500Y20435500D01*
X26035000Y20193000D02*
X28575000Y20193000D01*
X25400000Y19558000D02*
X26035000Y20193000D01*
%TO.N,$4N14153*%
X29217600Y21837100D02*
X29217600Y19946600D01*
X29217600Y19946600D02*
X29083000Y19812000D01*
X29083000Y19812000D02*
X26416000Y19812000D01*
X25654000Y19050000D02*
X19177000Y19050000D01*
X19177000Y19050000D02*
X18923000Y18796000D01*
X26416000Y19812000D02*
X25654000Y19050000D01*
D21*
X19054900Y27589400D02*
X19054900Y26626400D01*
X19054900Y26626400D02*
X19054900Y25783700D01*
%TO.N,CSNC*%
D23*
X22196000Y13081000D02*
X22860000Y13081000D01*
X22860000Y13081000D02*
X23241000Y13462000D01*
X25153600Y13081000D02*
X24257000Y13081000D01*
X24257000Y13081000D02*
X23876000Y13462000D01*
X26910000Y22944600D02*
X24064600Y22944600D01*
X24064600Y22944600D02*
X23980100Y22860000D01*
X26910000Y22544800D02*
X25527000Y22544800D01*
X25527000Y22544800D02*
X25080200Y22098000D01*
X23241000Y22098000D02*
X25080200Y22098000D01*
%TO.N,DPCR*%
D21*
X7569500Y7250900D02*
X8243100Y7250900D01*
X8243100Y7250900D02*
X9652000Y5842000D01*
X9652000Y5842000D02*
X16637000Y5842000D01*
%TO.N,VBUSC*%
D20*
X7569500Y5601000D02*
X8496000Y5601000D01*
X8496000Y5601000D02*
X8636000Y5461000D01*
X8636000Y5461000D02*
X8636000Y4699000D01*
%TO.N,GATEC*%
D23*
X17580100Y13310000D02*
X17580100Y10994900D01*
X20955000Y7620000D02*
X30099000Y7620000D01*
X17580100Y10994900D02*
X20955000Y7620000D01*
X30017400Y25652200D02*
X30017400Y26289000D01*
X30017400Y26289000D02*
X30144400Y26416000D01*
X30144400Y26416000D02*
X30480000Y26416000D01*
%TO.N,CSPC*%
X17580100Y14610000D02*
X14732000Y14610000D01*
X14986000Y9144000D02*
X18923000Y9144000D01*
X29083000Y7239000D02*
X29337000Y6985000D01*
X18923000Y9144000D02*
X20828000Y7239000D01*
X20828000Y7239000D02*
X29083000Y7239000D01*
X29617600Y25652200D02*
X29617600Y26823600D01*
X29617600Y26823600D02*
X29972000Y27178000D01*
%TO.N,$4N9834*%
X30725000Y24144700D02*
X31129700Y24144700D01*
X31129700Y24144700D02*
X32385000Y25400000D01*
X32385000Y25400000D02*
X39116000Y25400000D01*
%TO.N,$4N8032*%
X33387100Y23744700D02*
X33401000Y23730700D01*
X33387100Y23744700D02*
X30725000Y23744700D01*
%TO.N,HGATE*%
X30725000Y23344600D02*
X32154400Y23344600D01*
X32154400Y23344600D02*
X32385000Y23114000D01*
X32385000Y23114000D02*
X32385000Y21844000D01*
X32385000Y21844000D02*
X32639000Y21590000D01*
X32639000Y21590000D02*
X35560000Y21590000D01*
%TO.N,LGATE*%
X30725000Y22944600D02*
X31792400Y22944600D01*
X32079800Y22657200D02*
X32079800Y21717600D01*
X32079800Y21717600D02*
X32512600Y21284800D01*
X32512600Y21284800D02*
X35052000Y21284800D01*
X35052000Y21284800D02*
X35381800Y20955000D01*
X35381800Y20955000D02*
X35433000Y20955000D01*
X31792400Y22944600D02*
X32079800Y22657200D01*
%TO.N,HGATE*%
X42306300Y20811900D02*
X42306300Y21605300D01*
X42306300Y21605300D02*
X42418000Y21717000D01*
%TO.N,LGATE*%
X47728000Y20660100D02*
X48473100Y20660100D01*
X48473100Y20660100D02*
X48641000Y20828000D01*
%TO.N,$4N8032*%
X30725000Y22544800D02*
X31430200Y22544800D01*
X31430200Y22544800D02*
X31623000Y22352000D01*
X31623000Y22352000D02*
X31623000Y21336000D01*
X31623000Y21336000D02*
X32385000Y20574000D01*
X33401000Y22330700D02*
X34522700Y22330700D01*
X34798000Y20574000D02*
X35306000Y20066000D01*
X35306000Y20066000D02*
X36195000Y20066000D01*
X36195000Y20066000D02*
X36576000Y20447000D01*
X36576000Y20447000D02*
X36576000Y22225000D01*
X36576000Y22225000D02*
X36322000Y22479000D01*
X36322000Y22479000D02*
X34671000Y22479000D01*
X34798000Y20574000D02*
X32385000Y20574000D01*
X34671000Y22479000D02*
X34522700Y22330700D01*
X33387100Y23744700D02*
X37088300Y23744700D01*
X37088300Y23744700D02*
X37592000Y23241000D01*
X37592000Y23241000D02*
X37592000Y16637000D01*
X37592000Y16637000D02*
X37973000Y16256000D01*
X37973000Y16256000D02*
X40894000Y16256000D01*
%TO.N,+12V2*%
D22*
X66548000Y47055100D02*
X64802400Y48800700D01*
%TO.N,+400V*%
D24*
X207621000Y126165100D02*
X207621000Y128189700D01*
X207621000Y128189700D02*
X211582000Y132150700D01*
%TO.N,$3N11217*%
D20*
X178719900Y126165100D02*
X178719900Y128660400D01*
X178719900Y128660400D02*
X179332600Y129273100D01*
X189620100Y126165100D02*
X185952300Y129832800D01*
X185952300Y129832800D02*
X185952300Y130647600D01*
%TO.N,$3N11235*%
D22*
X254762000Y125661700D02*
X254258600Y126165100D01*
%TO.N,$3N5677*%
X254762000Y127661700D02*
X256348000Y127661700D01*
X256348000Y127661700D02*
X257048000Y128361700D01*
%TO.N,$3N5698*%
X233758900Y132207000D02*
X234458900Y131507000D01*
X234458900Y131507000D02*
X234458900Y129667000D01*
%TO.N,AC_N*%
X226314000Y140772100D02*
X226775100Y141233200D01*
%TO.N,+400V*%
D20*
X211582000Y132150700D02*
X196040900Y132150700D01*
X196040900Y132150700D02*
X195564000Y131673800D01*
%TO.N,$3N5677*%
D22*
X259425700Y128361700D02*
X257048000Y128361700D01*
X259461000Y128397000D02*
X259425700Y128361700D01*
%TO.N,$3N5901*%
X243056000Y101959800D02*
X244554800Y101959800D01*
%TO.N,PGND*%
X254817200Y136542300D02*
X253249700Y136542300D01*
X253249700Y136542300D02*
X253111000Y136681000D01*
%TO.N,$3N11217*%
X221742000Y135509000D02*
X191065400Y135509000D01*
X191065400Y135509000D02*
X189620100Y134063700D01*
%TO.N,$2N27609*%
X172121700Y130293600D02*
X171755300Y130659900D01*
X171755300Y130659900D02*
X172042600Y130947300D01*
X172042600Y130947300D02*
X172042600Y132207000D01*
%TO.N,$2N4836*%
X177943000Y70096900D02*
X177943000Y67823200D01*
X177943000Y67823200D02*
X179247900Y66518400D01*
X179943000Y70096900D02*
X181759600Y70096900D01*
X181759600Y70096900D02*
X181820200Y70157500D01*
X183820200Y70157500D02*
X184829200Y71166500D01*
X184829200Y71166500D02*
X184829200Y74676000D01*
%TO.N,+400V*%
D20*
X195564000Y131673800D02*
X195564000Y130659900D01*
%TO.N,+12V2*%
D25*
X59850200Y6250900D02*
X60071000Y6030200D01*
X60071000Y6030200D02*
X60071000Y4318000D01*
X60071000Y4318000D02*
X60960000Y3429000D01*
X76327000Y3429000D02*
X76962000Y4064000D01*
X76962000Y4064000D02*
X76962000Y6645600D01*
X76962000Y6645600D02*
X76749600Y6858000D01*
X60960000Y3429000D02*
X76327000Y3429000D01*
X76327000Y3429000D02*
X84455000Y3429000D01*
X84455000Y3429000D02*
X85217000Y4191000D01*
X85217000Y4191000D02*
X85217000Y6670000D01*
X85217000Y6670000D02*
X85349500Y6802500D01*
%TO.N,48-72V*%
D26*
X2540000Y808000D02*
X808000Y2540000D01*
%TO.N,$5N28284*%
D27*
X249936000Y21209000D02*
X249936000Y25115300D01*
X249936000Y25115300D02*
X246416400Y28634900D01*
%TO.N,$5N14105*%
X241800600Y18542000D02*
X241800600Y12819600D01*
X239886400Y10905400D02*
X239886400Y8636000D01*
X241800600Y12819600D02*
X239886400Y10905400D01*
%TO.N,$5N14115*%
D20*
X215196200Y25931600D02*
X215196200Y28693900D01*
X215196200Y28693900D02*
X215140400Y28749600D01*
%TO.N,$5N29963*%
D28*
X183953000Y36354000D02*
X183953000Y39808000D01*
X183953000Y39808000D02*
X185928000Y41783000D01*
X185928000Y41783000D02*
X201343400Y41783000D01*
X201343400Y41783000D02*
X201940500Y42380100D01*
%TO.N,$5N14102*%
D27*
X188850700Y30861000D02*
X189103000Y31113300D01*
X179070000Y29083000D02*
X180848000Y30861000D01*
X180848000Y30861000D02*
X188850700Y30861000D01*
%TO.N,$5N14116*%
D29*
X189103000Y35513100D02*
X189748500Y36158600D01*
X189748500Y36158600D02*
X189748500Y38411300D01*
X189748500Y38411300D02*
X192161500Y38411300D01*
X192161500Y38411300D02*
X194693400Y38411300D01*
X194693400Y38411300D02*
X197114500Y38411300D01*
X201940500Y37380100D02*
X200909300Y38411300D01*
%TO.N,$5N14111*%
D30*
X190973300Y26954000D02*
X194129300Y26954000D01*
X194129300Y26954000D02*
X194454200Y26629100D01*
%TO.N,VDD*%
X194454200Y31028900D02*
X197317100Y31028900D01*
X197317100Y31028900D02*
X197993000Y30353000D01*
X197993000Y30353000D02*
X199274400Y30353000D01*
X199274400Y30353000D02*
X199279000Y30348400D01*
%TO.N,$5N17837*%
D27*
X195834000Y17526000D02*
X195834000Y20919800D01*
X195834000Y20919800D02*
X195671800Y21082000D01*
D22*
X206613000Y16374400D02*
X202573600Y16374400D01*
X202573600Y16374400D02*
X202062000Y15862700D01*
%TO.N,$5N14086*%
X202057000Y9924900D02*
X203943100Y9924900D01*
X203943100Y9924900D02*
X204851000Y9017000D01*
X204851000Y9017000D02*
X205874100Y9017000D01*
X205874100Y9017000D02*
X206027000Y8864100D01*
X206027000Y8864100D02*
X207365100Y8864100D01*
X207365100Y8864100D02*
X207645000Y9144000D01*
X207645000Y9144000D02*
X209011600Y9144000D01*
X209011600Y9144000D02*
X209154600Y9287000D01*
X206613000Y14867600D02*
X205240600Y14867600D01*
X205240600Y14867600D02*
X204851000Y14478000D01*
X204851000Y14478000D02*
X204851000Y9017000D01*
%TO.N,$5N14121*%
X209353600Y18750100D02*
X209353600Y17710600D01*
X209353600Y17710600D02*
X209042000Y17399000D01*
X209042000Y17399000D02*
X209042000Y16593000D01*
X209042000Y16593000D02*
X208972600Y16523600D01*
%TO.N,VDD*%
X199279000Y30348400D02*
X199517000Y30586400D01*
X199517000Y30586400D02*
X199517000Y31623000D01*
X199517000Y31623000D02*
X200090000Y32196000D01*
D20*
X210566000Y20066000D02*
X210566000Y18807700D01*
X210566000Y18807700D02*
X210623600Y18750100D01*
%TO.N,CGND*%
D22*
X211893600Y24550000D02*
X211893600Y25838600D01*
X211893600Y25838600D02*
X211963000Y25908000D01*
%TO.N,$5N17837*%
X197618900Y21717000D02*
X196306800Y21717000D01*
X196306800Y21717000D02*
X195671800Y21082000D01*
%TO.N,CGND*%
X210623600Y24550000D02*
X210623600Y26035000D01*
%TO.N,$5N17421*%
D27*
X137732000Y38862000D02*
X137732000Y41338000D01*
X137732000Y41338000D02*
X136906000Y42164000D01*
X136906000Y42164000D02*
X133477000Y42164000D01*
X133477000Y42164000D02*
X132842000Y41529000D01*
X132842000Y41529000D02*
X132842000Y39052000D01*
X132842000Y39052000D02*
X132652000Y38862000D01*
X112395000Y39016000D02*
X112549000Y38862000D01*
%TO.N,FLYBUCK*%
D20*
X135659000Y34782000D02*
X133607300Y34782000D01*
X133607300Y34782000D02*
X133431800Y34957500D01*
%TO.N,$5N21739*%
D26*
X107823000Y6604000D02*
X111453100Y6604000D01*
X111453100Y6604000D02*
X111961100Y6096000D01*
%TO.N,$5N11155*%
D21*
X108098900Y19203900D02*
X109823500Y19203900D01*
X109823500Y19203900D02*
X109860500Y19166800D01*
%TO.N,FLYBUCK*%
D20*
X146812000Y22667500D02*
X147045700Y22433800D01*
X146812000Y26415300D02*
X146812000Y22667500D01*
%TO.N,$5N21369*%
X146812000Y28914600D02*
X146812000Y31414000D01*
X148962400Y43653700D02*
X149698700Y43653700D01*
X149698700Y43653700D02*
X149733000Y43688000D01*
X149733000Y43688000D02*
X150613400Y43688000D01*
X150613400Y43688000D02*
X150749000Y43552400D01*
%TO.N,$5N21265*%
X158369900Y44383300D02*
X164224400Y44383300D01*
X164224400Y44383300D02*
X164291000Y44450000D01*
%TO.N,$5N21268*%
X161544000Y42633200D02*
X161544000Y42418000D01*
X161544000Y42418000D02*
X162179000Y41783000D01*
X162179000Y41783000D02*
X164164000Y41783000D01*
X164164000Y41783000D02*
X164291000Y41910000D01*
D22*
X154379700Y43577000D02*
X154379700Y42135000D01*
X154379700Y42135000D02*
X154059900Y41815200D01*
X154379700Y42135000D02*
X161045800Y42135000D01*
X161045800Y42135000D02*
X161544000Y42633200D01*
%TO.N,$5N21264*%
X152659900Y41815200D02*
X150979500Y41815200D01*
X150979500Y41815200D02*
X150749000Y42045600D01*
%TO.N,$5N21369*%
X152479800Y43577000D02*
X150773600Y43577000D01*
X150773600Y43577000D02*
X150749000Y43552400D01*
%TO.N,$5N17421*%
D27*
X117629000Y38862000D02*
X117629000Y41629000D01*
X117629000Y41629000D02*
X116840000Y42418000D01*
X116840000Y42418000D02*
X113284000Y42418000D01*
X113284000Y42418000D02*
X112395000Y41529000D01*
X112395000Y41529000D02*
X112395000Y39016000D01*
%TO.N,$5N21268*%
D22*
X100584000Y35009500D02*
X100873500Y34720000D01*
%TO.N,$5N21273*%
X98044000Y15875000D02*
X96901000Y15875000D01*
X96901000Y15875000D02*
X96012000Y16764000D01*
X96012000Y16764000D02*
X96012000Y19431000D01*
X96012000Y19431000D02*
X97488900Y20907900D01*
%TO.N,$5N27996*%
X101245200Y27539600D02*
X102723600Y27539600D01*
X102723600Y27539600D02*
X103124000Y27940000D01*
X103124000Y27940000D02*
X103124000Y30471400D01*
X103124000Y30471400D02*
X103259600Y30607000D01*
%TO.N,$5N21278*%
X104766400Y30607000D02*
X104766400Y27948600D01*
X104766400Y27948600D02*
X105156000Y27559000D01*
X105156000Y27559000D02*
X106761500Y27559000D01*
X106761500Y27559000D02*
X106780800Y27539600D01*
X106780800Y27539600D02*
X108976700Y27539600D01*
X108976700Y27539600D02*
X109347000Y27169400D01*
X109347000Y27169400D02*
X110900400Y27169400D01*
X110900400Y27169400D02*
X111025000Y27044800D01*
%TO.N,$5N21281*%
X106780800Y26269600D02*
X107969400Y26269600D01*
X107969400Y26269600D02*
X108585000Y25654000D01*
X112767400Y25654000D02*
X112776000Y25662600D01*
%TO.N,$5N27996*%
X101245200Y28809600D02*
X101245200Y30948300D01*
X101245200Y30948300D02*
X100873500Y31320000D01*
%TO.N,$5N28177*%
X106780800Y24999600D02*
X107969400Y24999600D01*
X107969400Y24999600D02*
X108331000Y24638000D01*
X114670600Y9652000D02*
X114670600Y10541000D01*
%TO.N,GND*%
D21*
X29617600Y21837100D02*
X29617600Y22944600D01*
X29617600Y22944600D02*
X28817500Y23744700D01*
D20*
X7569500Y11201100D02*
X7569500Y11746000D01*
X7569500Y11746000D02*
X6994400Y12321000D01*
X7569500Y4801100D02*
X7569500Y4256000D01*
X7569500Y4256000D02*
X6994400Y3681000D01*
%TO.N,BGND*%
X153429800Y45577000D02*
X153429800Y44323000D01*
%TO.N,VDD*%
X210244000Y20388000D02*
X210566000Y20066000D01*
%TO.N,$5N14102*%
D27*
X183953000Y9354000D02*
X180257000Y9354000D01*
X180257000Y9354000D02*
X179070000Y10541000D01*
X179070000Y10541000D02*
X179070000Y29083000D01*
%TO.N,$5N29963*%
D28*
X234569000Y8873400D02*
X234806400Y8636000D01*
X231648000Y15367000D02*
X234569000Y12446000D01*
X234569000Y12446000D02*
X234569000Y8873400D01*
%TO.N,PGND*%
D22*
X224235100Y141233200D02*
X224235100Y143086000D01*
X224235100Y143086000D02*
X224192100Y143129000D01*
X219155100Y141233200D02*
X219155100Y142701100D01*
X219155100Y142701100D02*
X219583000Y143129000D01*
X219583000Y143129000D02*
X224192100Y143129000D01*
%TO.N,AC_N*%
X226775100Y138002100D02*
X225298000Y136525000D01*
X225298000Y136525000D02*
X202184000Y136525000D01*
X226775100Y138002100D02*
X226775100Y141233200D01*
%TO.N,$3N5649*%
X217805000Y134493000D02*
X226187000Y134493000D01*
X226187000Y134493000D02*
X229315100Y137621100D01*
X229315100Y137621100D02*
X229315100Y141233200D01*
%TO.N,PGND*%
X231855100Y143129000D02*
X231855100Y141233200D01*
X224192100Y143129000D02*
X231855100Y143129000D01*
%TO.N,$3N5698*%
X233758900Y132207000D02*
X234395100Y132843300D01*
X234395100Y141233200D02*
X234395100Y132843300D01*
%TO.N,$3N5967*%
X253111000Y138081000D02*
X253111000Y138811000D01*
X253111000Y138811000D02*
X252222000Y139700000D01*
X252222000Y139700000D02*
X252222000Y141186400D01*
X252222000Y141186400D02*
X252175100Y141233200D01*
X253111000Y138081000D02*
X254785200Y138081000D01*
X254849200Y138081000D02*
X254944200Y138176000D01*
%TO.N,$3N15793*%
D21*
X254381000Y143129000D02*
X254715100Y142794900D01*
X254715100Y142794900D02*
X254715100Y141233200D01*
X250952000Y142372400D02*
X251708600Y143129000D01*
X251708600Y143129000D02*
X254381000Y143129000D01*
%TO.N,PGND*%
D20*
X204978000Y145288000D02*
X204978000Y138811000D01*
X204978000Y138811000D02*
X204851000Y138684000D01*
%TO.N,$3N5967*%
D22*
X258794000Y138081000D02*
X254849200Y138081000D01*
X246061600Y101959800D02*
X258931800Y101959800D01*
%TO.N,PGND*%
D21*
X169291000Y136646400D02*
X172460400Y136646400D01*
X172460400Y136646400D02*
X172974000Y137160000D01*
X172974000Y137160000D02*
X172974000Y140423300D01*
%TO.N,+H5V*%
D22*
X165741000Y141097000D02*
X164465000Y141097000D01*
X164465000Y141097000D02*
X163576000Y141986000D01*
X163576000Y141986000D02*
X163576000Y144780000D01*
X163576000Y144780000D02*
X164084000Y145288000D01*
X164084000Y145288000D02*
X186817000Y145288000D01*
X186817000Y145288000D02*
X189230000Y142875000D01*
X189230000Y142875000D02*
X189230000Y139954000D01*
X189230000Y139954000D02*
X189103000Y139827000D01*
%TO.N,PGND*%
D20*
X184023000Y139827000D02*
X184023000Y137033000D01*
X184023000Y137033000D02*
X182118000Y135128000D01*
X182118000Y135128000D02*
X182118000Y131699000D01*
%TO.N,$3N11217*%
X180839400Y129273100D02*
X183248100Y129273100D01*
X183248100Y129273100D02*
X184622600Y130647600D01*
X184622600Y130647600D02*
X185952300Y130647600D01*
%TO.N,PGND*%
X191008000Y141732000D02*
X191008000Y136652000D01*
D22*
X172974000Y140423300D02*
X172974000Y140970000D01*
X172974000Y140970000D02*
X174498000Y142494000D01*
X174498000Y142494000D02*
X183134000Y142494000D01*
X183134000Y142494000D02*
X184023000Y141605000D01*
X184023000Y141605000D02*
X184023000Y139827000D01*
X231855100Y143129000D02*
X242015100Y143129000D01*
X242015100Y143129000D02*
X242015100Y141233200D01*
X242015100Y143129000D02*
X246507000Y143129000D01*
X246507000Y143129000D02*
X247142000Y142494000D01*
X247142000Y142494000D02*
X247142000Y141280100D01*
X247142000Y141280100D02*
X247095100Y141233200D01*
%TO.N,SDLIN*%
D20*
X60706000Y144226500D02*
X66087200Y144226500D01*
%TO.N,$3N5901*%
D22*
X241549300Y95254700D02*
X241549300Y101959800D01*
X241554000Y95250000D02*
X241549300Y95254700D01*
%TO.N,$3N7425*%
D27*
X226822000Y132150700D02*
X221371900Y126700600D01*
X221371900Y126700600D02*
X221371900Y126165100D01*
%TO.N,$1N4013*%
D21*
X51748100Y128693000D02*
X51892400Y128693000D01*
X51892400Y128693000D02*
X52832000Y127753400D01*
%TO.N,SDHIN*%
X52832000Y126246600D02*
X52832000Y123952000D01*
X52832000Y123952000D02*
X52070000Y123190000D01*
X52070000Y123190000D02*
X47244000Y123190000D01*
X47244000Y123190000D02*
X46101000Y122047000D01*
X46101000Y122047000D02*
X46101000Y100076000D01*
X46101000Y100076000D02*
X45847000Y99822000D01*
X45847000Y99822000D02*
X44143700Y99822000D01*
X44143700Y99822000D02*
X43889700Y100076000D01*
%TO.N,SDLIN*%
X60833000Y131199600D02*
X60833000Y130683000D01*
X59309000Y122936000D02*
X58420000Y122047000D01*
X58420000Y122047000D02*
X48895000Y122047000D01*
X48006000Y100076000D02*
X48260000Y99822000D01*
X48260000Y99822000D02*
X48641000Y99822000D01*
X60833000Y130683000D02*
X59309000Y129159000D01*
X59309000Y129159000D02*
X59309000Y122936000D01*
X48895000Y122047000D02*
X48006000Y121158000D01*
X48006000Y121158000D02*
X48006000Y100076000D01*
%TO.N,$3N11217*%
D22*
X189620100Y134063700D02*
X189620100Y132461000D01*
D20*
X184170000Y132227600D02*
X185986700Y132227600D01*
X185986700Y132227600D02*
X186220000Y132461000D01*
%TO.N,$3N11226*%
X231758900Y132207000D02*
X229759000Y132207000D01*
X229759000Y132207000D02*
X229616000Y132064000D01*
X231439800Y129667000D02*
X231042800Y130064000D01*
X231042800Y130064000D02*
X229616000Y130064000D01*
X232272100Y126165100D02*
X232272100Y127497100D01*
X232272100Y127497100D02*
X233045000Y128270000D01*
X233045000Y128270000D02*
X233045000Y130429000D01*
X231758900Y131715100D02*
X231758900Y132207000D01*
X233045000Y130429000D02*
X231758900Y131715100D01*
%TO.N,$3N5967*%
D22*
X258931800Y101959800D02*
X261112000Y104140000D01*
X261112000Y104140000D02*
X261112000Y135763000D01*
X261112000Y135763000D02*
X258794000Y138081000D01*
%TO.N,$3N11235*%
D20*
X254762000Y125661700D02*
X254762000Y123698000D01*
X254762000Y123698000D02*
X255524000Y122936000D01*
X255524000Y122936000D02*
X258699000Y122936000D01*
X258699000Y122936000D02*
X259207000Y123444000D01*
X259207000Y123444000D02*
X259207000Y124603000D01*
%TO.N,$3N11240*%
X257048000Y124961700D02*
X257048000Y126111000D01*
X257540000Y126603000D02*
X259207000Y126603000D01*
X257048000Y126111000D02*
X257540000Y126603000D01*
%TO.N,$3N11217*%
X187952300Y130393600D02*
X189067600Y130393600D01*
X189067600Y130393600D02*
X189611000Y130937000D01*
X189611000Y130937000D02*
X189611000Y132451900D01*
X189611000Y132451900D02*
X189620100Y132461000D01*
%TO.N,$3N11235*%
D22*
X254258600Y126165100D02*
X250306100Y126165100D01*
%TO.N,LLCIFB*%
D20*
X111133600Y142192600D02*
X111133600Y143657300D01*
%TO.N,GND*%
X112649000Y144018000D02*
X112649000Y143526600D01*
X112649000Y143526600D02*
X112792600Y143383000D01*
X103045500Y141437900D02*
X103763900Y141437900D01*
X103763900Y141437900D02*
X107106000Y144780000D01*
X107106000Y144780000D02*
X111887000Y144780000D01*
X111887000Y144780000D02*
X112649000Y144018000D01*
%TO.N,$2N7298*%
X144948400Y145034000D02*
X144440400Y144526000D01*
%TO.N,GND*%
D23*
X28417500Y25652200D02*
X28417500Y24144700D01*
X28417500Y24144700D02*
X28817500Y23744700D01*
X29217600Y25652200D02*
X29217600Y24144700D01*
X29217600Y24144700D02*
X28817500Y23744700D01*
%TO.N,$4N43398*%
X28817500Y25652200D02*
X28817500Y26531500D01*
X28817500Y26531500D02*
X29210000Y26924000D01*
X29210000Y26924000D02*
X29210000Y27821600D01*
X29210000Y27821600D02*
X29718000Y28329600D01*
%TO.N,$4N7969*%
X28017400Y25652200D02*
X28017400Y26493400D01*
X28017400Y26493400D02*
X28194000Y26670000D01*
X28194000Y26670000D02*
X28194000Y27820900D01*
%TO.N,$4N7910*%
X27617600Y25652200D02*
X27617600Y26357400D01*
X26719600Y27255400D02*
X26719600Y27852000D01*
X27617600Y26357400D02*
X26719600Y27255400D01*
%TO.N,$4N43398*%
X29718000Y28329600D02*
X31214100Y28329600D01*
X31214100Y28329600D02*
X31267400Y28383000D01*
%TO.N,$4N43359*%
X29718000Y29836400D02*
X29718000Y32411600D01*
X29718000Y32411600D02*
X29617600Y32512000D01*
%TO.N,DPAR*%
X14224000Y31369000D02*
X27686000Y31369000D01*
X27686000Y31369000D02*
X28194000Y30861000D01*
X28194000Y30861000D02*
X28194000Y29329100D01*
%TO.N,DMAR*%
X13081000Y30480000D02*
X26416000Y30480000D01*
X26416000Y30480000D02*
X26797000Y30099000D01*
X26797000Y30099000D02*
X26797000Y29436100D01*
X26797000Y29436100D02*
X26719600Y29358800D01*
%TO.N,VBUSA*%
X17783600Y19558000D02*
X25400000Y19558000D01*
X17783600Y19558000D02*
X17653000Y19688600D01*
X17653000Y27305000D02*
X17399000Y27559000D01*
X17399000Y27559000D02*
X11938000Y27559000D01*
X11938000Y27559000D02*
X11684000Y27305000D01*
X11684000Y27305000D02*
X11684000Y26360400D01*
X17653000Y27305000D02*
X17653000Y19688600D01*
%TO.N,VBUSC*%
X11811000Y9779000D02*
X11430000Y9398000D01*
X11430000Y9398000D02*
X9271000Y9398000D01*
X8466100Y10202900D02*
X8466100Y10438600D01*
X16002000Y9779000D02*
X11811000Y9779000D01*
X9271000Y9398000D02*
X8466100Y10202900D01*
%TO.N,$1N24864*%
D20*
X18161000Y59142300D02*
X18224400Y59205800D01*
X18224400Y59205800D02*
X18224400Y60639500D01*
X18161000Y70612000D02*
X18161000Y71903100D01*
X18161000Y71903100D02*
X18224400Y71966500D01*
%TO.N,48-72V*%
D26*
X808000Y2540000D02*
X808000Y94026000D01*
%TO.N,BAT_G*%
D20*
X5417100Y87844000D02*
X12616900Y87844000D01*
X12616900Y82844000D02*
X5417100Y82844000D01*
X5417100Y77101300D02*
X8011600Y74506800D01*
X5417100Y87844000D02*
X5417100Y82844000D01*
X5417100Y82844000D02*
X5417100Y77101300D01*
%TO.N,GND*%
D27*
X11683700Y19360100D02*
X11683700Y18034000D01*
%TO.N,CGND*%
X183927800Y26862000D02*
X183927800Y24638000D01*
X183927800Y24638000D02*
X184689800Y23876000D01*
X188722000Y23876000D02*
X189357000Y23241000D01*
X184689800Y23876000D02*
X188722000Y23876000D01*
X189357000Y23241000D02*
X189357000Y18954500D01*
X189357000Y18954500D02*
X189357000Y18057200D01*
X189357000Y18057200D02*
X189357000Y17145000D01*
%TO.N,$5N14110*%
D30*
X188015700Y26954000D02*
X188015700Y28321000D01*
%TO.N,CGND*%
X188849000Y23241000D02*
X188722000Y23368000D01*
X189357000Y23241000D02*
X188849000Y23241000D01*
%TO.N,IN_N*%
D27*
X241935000Y40005000D02*
X245804900Y36135100D01*
X245804900Y36135100D02*
X251616300Y36135100D01*
%TO.N,CGND*%
D22*
X206375000Y46990000D02*
X183769000Y46990000D01*
X183769000Y46990000D02*
X181229000Y44450000D01*
X181229000Y44450000D02*
X174291000Y44450000D01*
X207899000Y46228000D02*
X184404000Y46228000D01*
X184404000Y46228000D02*
X181737000Y43561000D01*
%TO.N,$5N27996*%
D20*
X101245200Y27539600D02*
X101168200Y27616600D01*
X101168200Y27616600D02*
X99060000Y27616600D01*
X101245200Y28809600D02*
X99267000Y28809600D01*
X99267000Y28809600D02*
X99060000Y29016700D01*
%TO.N,$5N28177*%
D22*
X116195500Y9670000D02*
X114688600Y9670000D01*
X114688600Y9670000D02*
X114670600Y9652000D01*
%TO.N,IN_N*%
D27*
X241935000Y40229600D02*
X241935000Y40005000D01*
%TO.N,$5N29963*%
D28*
X218567000Y21579100D02*
X220775000Y19371100D01*
X220775000Y19371100D02*
X220775000Y16842000D01*
X220775000Y16842000D02*
X222250000Y15367000D01*
X222250000Y15367000D02*
X231648000Y15367000D01*
%TO.N,$5N28266*%
D27*
X234235000Y39517300D02*
X237998000Y35754300D01*
X237998000Y35754300D02*
X237998000Y23622000D01*
X237998000Y23622000D02*
X239903000Y21717000D01*
X239903000Y21717000D02*
X243967000Y21717000D01*
X243967000Y21717000D02*
X244966400Y20717600D01*
X244966400Y20717600D02*
X244966400Y8636000D01*
%TO.N,$5N28275*%
X234235000Y26517000D02*
X234302500Y26449500D01*
X234302500Y26449500D02*
X234302500Y18542000D01*
%TO.N,48-72V*%
D26*
X6179100Y99397100D02*
X6179100Y108117000D01*
X808000Y94026000D02*
X6179100Y99397100D01*
%TO.N,$5N21273*%
D22*
X97488900Y20907900D02*
X97488900Y23622000D01*
%TO.N,$5N21281*%
X108585000Y25654000D02*
X112767400Y25654000D01*
%TO.N,FLYBUCK*%
D20*
X147045700Y22433800D02*
X149069200Y22433800D01*
%TO.N,$5N21674*%
X149069200Y19476200D02*
X149069200Y17226800D01*
%TO.N,$5N21273*%
X98044000Y18374400D02*
X98871000Y19201400D01*
X98871000Y19201400D02*
X98871000Y21817100D01*
X98995600Y23622000D02*
X98995600Y25716600D01*
X98995600Y25716600D02*
X99568000Y26289000D01*
X99568000Y26289000D02*
X101225800Y26289000D01*
X101225800Y26289000D02*
X101245200Y26269600D01*
%TO.N,$3N13399*%
X139714400Y17468100D02*
X141681000Y17468100D01*
X141681000Y17468100D02*
X141776000Y17563100D01*
D30*
X141776000Y17563100D02*
X145377900Y17563100D01*
X145377900Y17563100D02*
X146558000Y16383000D01*
X146558000Y16383000D02*
X146558000Y9144000D01*
X146558000Y9144000D02*
X144653000Y7239000D01*
X144653000Y7239000D02*
X141617000Y7239000D01*
X141617000Y7239000D02*
X141363000Y7493000D01*
%TO.N,$3N13400*%
D20*
X141776000Y16163100D02*
X139749400Y16163100D01*
X139749400Y16163100D02*
X139714400Y16198100D01*
%TO.N,+12V3*%
X106780800Y28809600D02*
X106780800Y30226000D01*
%TO.N,BGND*%
X128270000Y6066100D02*
X130779000Y8575100D01*
X130779000Y8575100D02*
X133431800Y8575100D01*
X133431800Y8575100D02*
X134681000Y8575100D01*
X134681000Y8575100D02*
X135763100Y7493000D01*
X131653300Y13589000D02*
X133645200Y13589000D01*
X133645200Y13589000D02*
X133714400Y13658100D01*
%TO.N,FLYBUCK*%
X131689600Y15240000D02*
X132207000Y15240000D01*
X132207000Y15240000D02*
X132588000Y14859000D01*
X132588000Y14859000D02*
X133645200Y14859000D01*
X133645200Y14859000D02*
X133714400Y14928100D01*
X131827100Y17015100D02*
X132082900Y17015100D01*
X131827100Y17015100D02*
X130553100Y17015100D01*
X130553100Y17015100D02*
X130175000Y16637000D01*
X130175000Y16637000D02*
X130175000Y15247800D01*
X130175000Y15247800D02*
X130182800Y15240000D01*
X124460000Y17018000D02*
X126746000Y17018000D01*
X126746000Y17018000D02*
X128397000Y15367000D01*
X128397000Y15367000D02*
X130055800Y15367000D01*
X130055800Y15367000D02*
X130175000Y15247800D01*
%TO.N,$3N13407*%
X141585500Y13658100D02*
X141612400Y13631300D01*
X141612400Y14215800D02*
X141612400Y13631300D01*
X141612400Y13631300D02*
X141612400Y12584000D01*
X139714400Y13658100D02*
X141585500Y13658100D01*
%TO.N,+12V3*%
X143119100Y12584000D02*
X144018000Y12584000D01*
%TO.N,$5N17421*%
X130474200Y34957500D02*
X130474200Y38145200D01*
X131318000Y38989000D02*
X132525000Y38989000D01*
X132525000Y38989000D02*
X132652000Y38862000D01*
%TO.N,$5N14128*%
X135192000Y38862000D02*
X135192000Y37020000D01*
X135192000Y37020000D02*
X135382000Y36830000D01*
X135382000Y36830000D02*
X137287000Y36830000D01*
X137287000Y36830000D02*
X137541000Y36576000D01*
X137541000Y36576000D02*
X137541000Y34900000D01*
X137541000Y34900000D02*
X137659000Y34782000D01*
%TO.N,$5N17421*%
D27*
X153927800Y26862000D02*
X153927800Y31862000D01*
X153927800Y31862000D02*
X153927800Y36862000D01*
X153927800Y36862000D02*
X145510000Y36862000D01*
X145510000Y36862000D02*
X143383000Y38989000D01*
X143383000Y38989000D02*
X137859000Y38989000D01*
X137859000Y38989000D02*
X137732000Y38862000D01*
X117629000Y38862000D02*
X131191000Y38862000D01*
X131191000Y38862000D02*
X132652000Y38862000D01*
D20*
X130474200Y38145200D02*
X131191000Y38862000D01*
X131191000Y38862000D02*
X131318000Y38989000D01*
%TO.N,FLYBUCK*%
X146812000Y26415300D02*
X141224700Y20828000D01*
X111063700Y15432700D02*
X111063700Y14986000D01*
X111460700Y15829700D02*
X111063700Y15432700D01*
D21*
X111460700Y19171900D02*
X111460700Y15829700D01*
D20*
X141224700Y20828000D02*
X116459000Y20828000D01*
X116459000Y20828000D02*
X111460700Y15829700D01*
D27*
X124460000Y17018000D02*
X115570000Y17018000D01*
X115570000Y17018000D02*
X113665000Y15113000D01*
X113665000Y15113000D02*
X111190700Y15113000D01*
X111190700Y15113000D02*
X111063700Y14986000D01*
%TO.N,$5N21739*%
D21*
X111961100Y6096000D02*
X112903000Y6096000D01*
X112903000Y6096000D02*
X113411000Y6604000D01*
X113411000Y6604000D02*
X113411000Y9404800D01*
X113411000Y9404800D02*
X113163800Y9652000D01*
%TO.N,+12V3*%
D20*
X106680000Y31369000D02*
X106680000Y30326800D01*
X106680000Y30326800D02*
X106780800Y30226000D01*
%TO.N,$5N21268*%
D22*
X100873500Y34720000D02*
X100873500Y43342500D01*
X100873500Y43342500D02*
X101727000Y44196000D01*
X101727000Y44196000D02*
X141351000Y44196000D01*
X153924000Y40513000D02*
X154305000Y40894000D01*
X154305000Y40894000D02*
X154305000Y41570100D01*
X154305000Y41570100D02*
X154059900Y41815200D01*
X141351000Y44196000D02*
X145034000Y40513000D01*
X145034000Y40513000D02*
X153924000Y40513000D01*
%TO.N,+12V3*%
X156863100Y44383300D02*
X156863100Y45244300D01*
X156863100Y45244300D02*
X156768500Y45339000D01*
%TO.N,CGND*%
X181737000Y43561000D02*
X179324000Y43561000D01*
X179324000Y43561000D02*
X177673000Y41910000D01*
X177673000Y41910000D02*
X174291000Y41910000D01*
%TO.N,$5N14116*%
D29*
X200909300Y38411300D02*
X197114500Y38411300D01*
X201940500Y37380100D02*
X203327000Y37380100D01*
%TO.N,IN_L*%
D20*
X250489200Y44831000D02*
X250489200Y47244000D01*
X250489200Y47244000D02*
X250489200Y49447700D01*
X250489200Y49447700D02*
X248188000Y51748900D01*
%TO.N,IN_N*%
X253446800Y44831000D02*
X253446800Y47244000D01*
X253446800Y47244000D02*
X253446800Y49447700D01*
X253446800Y49447700D02*
X255748000Y51748900D01*
X253446800Y44831000D02*
X253446800Y42753800D01*
X253446800Y42753800D02*
X251714000Y41021000D01*
X251714000Y41021000D02*
X251714000Y36232800D01*
X251714000Y36232800D02*
X251616300Y36135100D01*
%TO.N,IN_L*%
X250489200Y44831000D02*
X250489200Y43180000D01*
%TO.N,$5N29963*%
D28*
X201940500Y42380100D02*
X203327000Y42380100D01*
X203327000Y42380100D02*
X216826900Y42380100D01*
X216826900Y42380100D02*
X218567000Y40640000D01*
%TO.N,CGND*%
D21*
X208098500Y27804400D02*
X208098500Y28774500D01*
X208098500Y28774500D02*
X208153000Y28829000D01*
X208098500Y26297600D02*
X208098500Y24564900D01*
X208098500Y24564900D02*
X208083600Y24550000D01*
%TO.N,$5N17837*%
D22*
X202062000Y15862700D02*
X202062000Y15004900D01*
D27*
X198355100Y15004900D02*
X195834000Y17526000D01*
%TO.N,PGND*%
D22*
X245999000Y140137100D02*
X247095100Y141233200D01*
X253111000Y136681000D02*
X246986000Y136681000D01*
X246986000Y136681000D02*
X245999000Y137668000D01*
X245999000Y137668000D02*
X245999000Y140137100D01*
%TO.N,$3N15793*%
D21*
X249516000Y138479200D02*
X250841700Y138479200D01*
%TO.N,+H5V*%
X247816000Y138479200D02*
X248666000Y139329200D01*
X248666000Y139329200D02*
X248666000Y139827000D01*
X248666000Y139827000D02*
X249635100Y140796100D01*
X249635100Y140796100D02*
X249635100Y141233200D01*
%TO.N,$5N14086*%
D22*
X206027000Y11963900D02*
X207873100Y11963900D01*
X207873100Y11963900D02*
X208280000Y11557000D01*
X208280000Y11557000D02*
X208884600Y11557000D01*
X208884600Y11557000D02*
X209154600Y11287000D01*
%TO.N,48-72V*%
D26*
X94361000Y808000D02*
X2540000Y808000D01*
X95377000Y1824000D02*
X94361000Y808000D01*
X95377000Y8890000D02*
X95885000Y9398000D01*
X95885000Y9398000D02*
X101727000Y9398000D01*
X101727000Y9398000D02*
X103505000Y11176000D01*
X103505000Y11176000D02*
X103505000Y14799900D01*
X103505000Y14799900D02*
X103691100Y14986000D01*
X95377000Y8890000D02*
X95377000Y1824000D01*
%TO.N,FLYBUCK*%
D21*
X97258500Y6604000D02*
X97258500Y4976500D01*
X97258500Y4976500D02*
X97790000Y4445000D01*
X97790000Y4445000D02*
X101727000Y4445000D01*
X101727000Y4445000D02*
X102616000Y5334000D01*
X102616000Y5334000D02*
X102616000Y7620000D01*
X104140000Y9144000D02*
X109728000Y9144000D01*
X109728000Y9144000D02*
X111063700Y10479700D01*
X111063700Y10479700D02*
X111063700Y14986000D01*
X102616000Y7620000D02*
X104140000Y9144000D01*
D20*
X133714400Y16198100D02*
X132899900Y16198100D01*
X132082900Y17015100D02*
X132899900Y16198100D01*
%TO.N,$5N17837*%
D27*
X198355100Y15004900D02*
X202062000Y15004900D01*
%TO.N,$5N14102*%
X202052000Y12464900D02*
X187063900Y12464900D01*
X187063900Y12464900D02*
X183953000Y9354000D01*
%TO.N,$3N15793*%
D21*
X251352900Y137902100D02*
X250952000Y138303000D01*
X250952000Y138303000D02*
X250952000Y138368900D01*
X250952000Y138368900D02*
X250952000Y142372400D01*
X250841700Y138479200D02*
X250952000Y138368900D01*
X250952000Y138368900D02*
X251333000Y137987900D01*
%TO.N,$5N14086*%
D20*
X211893600Y18750100D02*
X211893600Y12249600D01*
X211893600Y12249600D02*
X210947000Y11303000D01*
X210947000Y11303000D02*
X209170600Y11303000D01*
X209170600Y11303000D02*
X209154600Y11287000D01*
%TO.N,VDD*%
X206311100Y22671000D02*
X207961000Y22671000D01*
X207961000Y22671000D02*
X210244000Y20388000D01*
%TO.N,CGND*%
D22*
X206311100Y21271000D02*
X205170000Y21271000D01*
%TO.N,VDD*%
X206311100Y22671000D02*
X205675000Y22671000D01*
X205675000Y22671000D02*
X204597000Y23749000D01*
X204597000Y23749000D02*
X204597000Y31143400D01*
X204597000Y31143400D02*
X203544400Y32196000D01*
X200090000Y32196000D02*
X203544400Y32196000D01*
%TO.N,$5N14114*%
X212701400Y31750000D02*
X215097600Y31750000D01*
X215097600Y31750000D02*
X215140400Y31707200D01*
%TO.N,$5N14113*%
X209353600Y24550000D02*
X209353600Y31359800D01*
X209353600Y31359800D02*
X209743800Y31750000D01*
%TO.N,$5N14121*%
X209353600Y18750100D02*
X209353600Y20008400D01*
X209353600Y20008400D02*
X208915000Y20447000D01*
X208915000Y20447000D02*
X207391000Y20447000D01*
X207391000Y20447000D02*
X207010000Y20066000D01*
X207010000Y20066000D02*
X199517000Y20066000D01*
X199517000Y20066000D02*
X199136000Y20447000D01*
X199136000Y20447000D02*
X199136000Y21706600D01*
X199136000Y21706600D02*
X199125600Y21717000D01*
%TO.N,CGND*%
X208972600Y15123500D02*
X208972600Y13970000D01*
%TO.N,$5N29963*%
D20*
X218567000Y22352000D02*
X218186000Y22733000D01*
X218186000Y22733000D02*
X215377000Y22733000D01*
D28*
X218567000Y40640000D02*
X218567000Y22352000D01*
X218567000Y22352000D02*
X218567000Y21579100D01*
%TO.N,HO2*%
D20*
X146065500Y138684000D02*
X152527000Y138684000D01*
%TO.N,$2N1982*%
X149470400Y130302000D02*
X149606000Y130302000D01*
X151247300Y128660700D02*
X154742300Y128660700D01*
D22*
X154742300Y132969000D02*
X154742300Y128660700D01*
X154742300Y128660700D02*
X154742300Y126552600D01*
D20*
X149606000Y130302000D02*
X151247300Y128660700D01*
%TO.N,$2N27579*%
X133789200Y130519000D02*
X133789200Y129481800D01*
X133789200Y129481800D02*
X134112000Y129159000D01*
X134112000Y129159000D02*
X137278300Y129159000D01*
X137278300Y129159000D02*
X137336000Y129216700D01*
D22*
X137336000Y132842000D02*
X137336000Y129216700D01*
X137336000Y129216700D02*
X137336000Y126707700D01*
%TO.N,$2N27600*%
D20*
X116586000Y130205500D02*
X119620300Y127171100D01*
X119620300Y127171100D02*
X119620300Y126492000D01*
D22*
X118491000Y130717800D02*
X118906800Y130302000D01*
X118491000Y132637000D02*
X118491000Y130717800D01*
X118491000Y132637000D02*
X118491000Y133477000D01*
%TO.N,$2N27579*%
X133936000Y132842000D02*
X133936000Y131523000D01*
X133936000Y131523000D02*
X133858000Y131445000D01*
X133858000Y131445000D02*
X134493700Y131445000D01*
X134493700Y131445000D02*
X135271000Y130667700D01*
%TO.N,$2N27625*%
X151342200Y132969000D02*
X151342200Y131475300D01*
X151342200Y131475300D02*
X152296900Y130520600D01*
%TO.N,HO2*%
D20*
X159004000Y132207000D02*
X168642600Y132207000D01*
X159004000Y132207000D02*
X152527000Y138684000D01*
X169755300Y130048000D02*
X169755300Y131094300D01*
X169755300Y131094300D02*
X168642600Y132207000D01*
%TO.N,$2N27609*%
X167250400Y129794000D02*
X167767000Y129794000D01*
D22*
X172121700Y126432000D02*
X172121700Y128664200D01*
X172121700Y128664200D02*
X172121700Y130293600D01*
D20*
X165743600Y129794000D02*
X164583200Y129794000D01*
X164583200Y129794000D02*
X161221200Y126432000D01*
X167767000Y129794000D02*
X168656000Y128905000D01*
X172121700Y128664200D02*
X171880900Y128905000D01*
X171880900Y128905000D02*
X168656000Y128905000D01*
%TD*%
M02*
