%TF.GenerationSoftware,KiCad,Pcbnew,10.99.0-unknown*%
%TF.CreationDate,2026-08-12T15:30:43+08:00*%
%TF.ProjectId,___2KW_____,279f8732-4b57-40df-94ad-35902e6b6963,rev?*%
%TF.SameCoordinates,Original*%
%TF.FileFunction,Soldermask,Bot*%
%TF.FilePolarity,Negative*%
%FSLAX46Y46*%
G04 Gerber Fmt 4.6, Leading zero omitted, Abs format (unit mm)*
G04 Created by KiCad (PCBNEW 10.99.0-unknown) date 2026-08-12 15:30:43*
%MOMM*%
%LPD*%
G01*
G04 APERTURE LIST*
G04 Aperture macros list*
%AMRoundRect*
0 Rectangle with rounded corners*
0 $1 Rounding radius*
0 $2 $3 $4 $5 $6 $7 $8 $9 X,Y pos of 4 corners*
0 Add a 4 corners polygon primitive as box body*
4,1,4,$2,$3,$4,$5,$6,$7,$8,$9,$2,$3,0*
0 Add four circle primitives for the rounded corners*
1,1,$1+$1,$2,$3*
1,1,$1+$1,$4,$5*
1,1,$1+$1,$6,$7*
1,1,$1+$1,$8,$9*
0 Add four rect primitives between the rounded corners*
20,1,$1+$1,$2,$3,$4,$5,0*
20,1,$1+$1,$4,$5,$6,$7,0*
20,1,$1+$1,$6,$7,$8,$9,0*
20,1,$1+$1,$8,$9,$2,$3,0*%
G04 Aperture macros list end*
%ADD10RoundRect,0.275000X-0.225000X-0.275000X0.225000X-0.275000X0.225000X0.275000X-0.225000X0.275000X0*%
%ADD11RoundRect,0.275000X-0.225000X-0.275000X0.225000X-0.275000X0.225000X0.275000X-0.225000X0.275000X0*%
%ADD12C,0.850000*%
%ADD13RoundRect,0.155000X0.345000X-0.105000X0.345000X0.105000X-0.345000X0.105000X-0.345000X-0.105000X0*%
%ADD14RoundRect,0.155000X-0.105000X-0.345000X0.105000X-0.345000X0.105000X0.345000X-0.105000X0.345000X0*%
G04 APERTURE END LIST*
D10*
%TO.C,R1*%
X21551289Y49276000D03*
X22951289Y49276000D03*
%TD*%
D11*
%TO.C,ZD1*%
X21717000Y45539913D03*
X21717000Y46939913D03*
%TD*%
%TO.C,R6*%
X19320550Y44577000D03*
X17920550Y44577000D03*
%TD*%
%TO.C,C17*%
X84019254Y99568000D03*
X82619254Y99568000D03*
%TD*%
%TO.C,C18*%
X84019254Y84963000D03*
X82619254Y84963000D03*
%TD*%
D10*
%TO.C,R32*%
X106234000Y111506000D03*
X107634000Y111506000D03*
%TD*%
%TO.C,R33*%
X106234000Y106807000D03*
X107634000Y106807000D03*
%TD*%
%TO.C,R39*%
X167767000Y142813000D03*
X167767000Y141413000D03*
%TD*%
D11*
%TO.C,R42*%
X169545000Y141413000D03*
X169545000Y142813000D03*
%TD*%
D12*
%TO.C,U12*%
X168148000Y138881436D03*
X169014000Y137381436D03*
X167282000Y137381436D03*
%TD*%
D11*
%TO.C,R46*%
X172785000Y143120364D03*
X171385000Y143120364D03*
%TD*%
%TO.C,R47*%
X172785000Y141395801D03*
X171385000Y141395801D03*
%TD*%
D10*
%TO.C,R44*%
X171501510Y137922000D03*
X172901510Y137922000D03*
%TD*%
D11*
%TO.C,R40*%
X172901510Y136271000D03*
X171501510Y136271000D03*
%TD*%
%TO.C,C35*%
X172866928Y139560745D03*
X171466928Y139560745D03*
%TD*%
%TO.C,R62*%
X195199000Y100519000D03*
X195199000Y101919000D03*
%TD*%
D10*
%TO.C,R52*%
X217805000Y132927904D03*
X217805000Y131527904D03*
%TD*%
%TO.C,D17*%
X215392000Y132927904D03*
X215392000Y131527904D03*
%TD*%
%TO.C,R59*%
X225106000Y129286000D03*
X226506000Y129286000D03*
%TD*%
%TO.C,R53*%
X249109000Y123190000D03*
X250509000Y123190000D03*
%TD*%
%TO.C,R54*%
X207072000Y129276970D03*
X208472000Y129276970D03*
%TD*%
D13*
%TO.C,M3*%
X266301481Y31547000D03*
X265501481Y31547000D03*
X264701481Y31547000D03*
D14*
X263901481Y32347000D03*
X263901481Y33147000D03*
X263901481Y33947000D03*
D13*
X264701481Y34747000D03*
X265501481Y34747000D03*
X266301481Y34747000D03*
%TD*%
D11*
%TO.C,R61*%
X189484000Y100519000D03*
X189484000Y101919000D03*
%TD*%
%TO.C,C97*%
X196596000Y136873995D03*
X196596000Y138273995D03*
%TD*%
%TO.C,C98*%
X194564000Y136873995D03*
X194564000Y138273995D03*
%TD*%
%TO.C,C99*%
X198755000Y136873995D03*
X198755000Y138273995D03*
%TD*%
D10*
%TO.C,C100*%
X247300126Y143891000D03*
X248700126Y143891000D03*
%TD*%
%TO.C,C101*%
X184498004Y142866364D03*
X185898004Y142866364D03*
%TD*%
D11*
%TO.C,C102*%
X195809979Y142123984D03*
X195809979Y143523984D03*
%TD*%
%TO.C,C103*%
X198071956Y142123984D03*
X198071956Y143523984D03*
%TD*%
%TO.C,C95*%
X193548000Y142123984D03*
X193548000Y143523984D03*
%TD*%
%TO.C,C96*%
X192532000Y136873995D03*
X192532000Y138273995D03*
%TD*%
D10*
%TO.C,R125*%
X215708000Y128651000D03*
X217108000Y128651000D03*
%TD*%
D11*
%TO.C,R128*%
X228473000Y32079792D03*
X228473000Y33479792D03*
%TD*%
M02*
