M48
; DRILL file KiCad 10.99.0-unknown date 2026-08-12T15:30:44
; FORMAT={-:-/ absolute / metric / decimal}
; #@! TF.CreationDate,2026-08-12T15:30:44+08:00
; #@! TF.GenerationSoftware,Kicad,Pcbnew,10.99.0-unknown
; #@! TF.FileFunction,MixedPlating,1,4
FMAT,2
METRIC
; #@! TA.AperFunction,Plated,PTH,ViaDrill
T1C0.305
; #@! TA.AperFunction,Plated,PTH,ViaDrill
T2C0.381
%
G90
G05
T1
X2.54Y27.813
X2.54Y5.461
X2.794Y10.16
X3.556Y8.382
X3.556Y6.858
X3.937Y18.796
X4.114Y4.74
X4.201Y54.754
X4.201Y53.872
X4.201Y53.095
X4.201Y52.214
X4.201Y51.452
X4.201Y50.57
X4.201Y49.793
X4.201Y48.912
X4.201Y48.15
X4.201Y47.268
X4.201Y43.86
X4.201Y42.978
X4.201Y42.202
X4.201Y41.32
X4.201Y40.558
X4.201Y39.676
X4.201Y38.9
X4.201Y38.018
X4.201Y37.256
X4.201Y36.374
X4.328Y56.397
X4.328Y55.516
X4.328Y45.504
X4.328Y44.622
X4.507Y22.86
X4.826Y10.922
X4.945Y54.754
X4.945Y53.872
X4.945Y53.095
X4.945Y52.214
X4.945Y51.452
X4.945Y50.57
X4.945Y49.793
X4.945Y48.912
X4.945Y48.15
X4.945Y47.268
X4.945Y43.86
X4.945Y42.978
X4.945Y42.202
X4.945Y41.32
X4.945Y40.558
X4.945Y39.676
X4.945Y38.9
X4.945Y38.018
X4.945Y37.256
X4.945Y36.374
X5.072Y56.397
X5.072Y55.516
X5.072Y45.504
X5.072Y44.622
X5.08Y133.985
X5.461Y24.765
X5.715Y54.754
X5.715Y53.872
X5.715Y53.095
X5.715Y52.214
X5.715Y51.452
X5.715Y50.57
X5.715Y49.793
X5.715Y48.912
X5.715Y48.15
X5.715Y47.268
X5.715Y43.86
X5.715Y42.978
X5.715Y42.202
X5.715Y41.32
X5.715Y40.558
X5.715Y39.676
X5.715Y38.9
X5.715Y38.018
X5.715Y37.256
X5.715Y36.374
X5.842Y56.397
X5.842Y55.516
X5.842Y45.504
X5.842Y44.622
X5.969Y135.382
X5.969Y30.48
X6.096Y143.51
X6.22Y26.448
X6.474Y54.775
X6.474Y53.893
X6.474Y53.159
X6.474Y52.278
X6.474Y51.473
X6.474Y50.591
X6.474Y49.857
X6.474Y48.976
X6.474Y48.171
X6.474Y47.289
X6.474Y43.881
X6.474Y42.999
X6.474Y42.266
X6.474Y41.384
X6.474Y40.579
X6.474Y39.697
X6.474Y38.964
X6.474Y38.082
X6.474Y37.277
X6.474Y36.395
X6.601Y56.462
X6.601Y55.58
X6.601Y45.568
X6.601Y44.686
X6.604Y137.795
X7.112Y18.161
X7.454Y144.907
X7.747Y13.97
X7.884Y56.405
X7.884Y55.523
X7.884Y54.746
X7.884Y53.865
X7.884Y45.511
X7.884Y44.629
X7.884Y43.853
X7.884Y42.971
X7.913Y49.547
X7.913Y48.665
X7.913Y47.888
X7.913Y47.007
X7.913Y38.653
X7.913Y37.771
X7.913Y36.995
X7.913Y36.113
X8.138Y52.976
X8.138Y52.094
X8.138Y51.317
X8.138Y50.436
X8.138Y42.082
X8.138Y41.2
X8.138Y40.424
X8.138Y39.542
X8.466Y10.439
X8.628Y56.405
X8.628Y55.523
X8.628Y54.746
X8.628Y53.865
X8.628Y45.511
X8.628Y44.629
X8.628Y43.853
X8.628Y42.971
X8.636Y5.461
X8.636Y4.699
X8.657Y49.547
X8.657Y48.665
X8.657Y47.888
X8.657Y47.007
X8.657Y38.653
X8.657Y37.771
X8.657Y36.995
X8.657Y36.113
X8.763Y32.639
X8.882Y52.976
X8.882Y52.094
X8.882Y51.317
X8.882Y50.436
X8.882Y42.082
X8.882Y41.2
X8.882Y40.424
X8.882Y39.542
X9.017Y143.51
X9.043Y10.439
X9.398Y56.405
X9.398Y55.523
X9.398Y54.746
X9.398Y53.865
X9.398Y45.511
X9.398Y44.629
X9.398Y43.853
X9.398Y42.971
X9.427Y49.547
X9.427Y48.665
X9.427Y47.888
X9.427Y47.007
X9.427Y38.653
X9.427Y37.771
X9.427Y36.995
X9.427Y36.113
X9.486Y133.731
X9.652Y52.976
X9.652Y52.094
X9.652Y51.317
X9.652Y50.436
X9.652Y42.082
X9.652Y41.2
X9.652Y40.424
X9.652Y39.542
X10.157Y56.426
X10.157Y55.544
X10.157Y54.81
X10.157Y53.929
X10.157Y45.532
X10.157Y44.65
X10.157Y43.917
X10.157Y43.035
X10.187Y49.568
X10.187Y48.686
X10.187Y47.953
X10.187Y47.071
X10.187Y38.674
X10.187Y37.792
X10.187Y37.059
X10.187Y36.177
X10.412Y52.997
X10.412Y52.115
X10.412Y51.381
X10.412Y50.5
X10.412Y42.103
X10.412Y41.221
X10.412Y40.488
X10.412Y39.606
X10.414Y1.778
X10.915Y132.334
X10.922Y2.794
X11.234Y143.301
X11.938Y3.048
X12.319Y133.731
X12.573Y8.255
X12.573Y4.953
X12.954Y33.02
X12.954Y15.24
X13.081Y30.48
X13.081Y1.778
X13.335Y24.257
X13.462Y143.002
X13.589Y14.097
X13.843Y21.209
X13.97Y15.875
X14.224Y31.369
X14.732Y14.61
X14.908Y143.965
X14.986Y9.144
X15.402Y4.269
X16.002Y9.779
X16.256Y138.176
X16.256Y136.144
X16.51Y29.337
X17.145Y134.747
X17.272Y33.782
X17.78Y138.049
X17.78Y136.144
X17.867Y36.362
X18.161Y70.612
X18.161Y59.142
X18.161Y20.828
X18.288Y20.066
X18.288Y7.874
X18.923Y18.796
X19.05Y29.337
X19.055Y26.626
X20.31Y49.276
X20.32Y10.287
X20.701Y4.699
X20.828Y22.352
X21.082Y5.715
X21.463Y21.844
X21.59Y43.307
X21.59Y26.162
X21.717Y34.036
X21.844Y4.318
X22.479Y29.337
X23.114Y8.763
X23.241Y22.098
X23.241Y13.462
X23.495Y5.842
X23.622Y137.287
X23.749Y135.128
X23.98Y22.86
X23.98Y13.462
X24.142Y43.963
X24.142Y43.081
X24.142Y42.305
X24.142Y41.423
X24.365Y3.527
X24.638Y29.337
X24.638Y20.066
X24.765Y23.876
X24.886Y43.963
X24.886Y43.081
X24.886Y42.305
X24.886Y41.423
X25.18Y25.239
X25.273Y24.384
X25.346Y27.613
X25.656Y43.963
X25.656Y43.081
X25.656Y42.305
X25.656Y41.423
X25.908Y34.798
X26.416Y43.984
X26.416Y43.102
X26.416Y42.369
X26.416Y41.487
X26.924Y17.653
X27.178Y21.463
X27.317Y44.09
X27.317Y43.208
X27.317Y42.432
X27.317Y41.55
X27.813Y21.082
X27.813Y17.145
X28.061Y44.09
X28.061Y43.208
X28.061Y42.432
X28.061Y41.55
X28.089Y23.745
X28.194Y2.413
X28.831Y44.09
X28.831Y43.208
X28.831Y42.432
X28.831Y41.55
X29.337Y6.858
X29.591Y44.111
X29.591Y43.229
X29.591Y42.496
X29.591Y41.614
X29.718Y135.382
X29.845Y36.195
X29.972Y27.178
X30.099Y7.62
X30.48Y26.416
X31.966Y18.161
X32.004Y20.066
X32.258Y84.116
X32.258Y83.234
X32.258Y82.501
X32.258Y81.619
X32.258Y31.369
X32.258Y27.432
X32.343Y64.389
X32.364Y63.63
X32.364Y62.859
X32.364Y62.115
X32.397Y88.159
X32.397Y87.277
X32.397Y86.501
X32.397Y85.619
X32.47Y61.214
X32.491Y60.454
X32.491Y59.684
X32.491Y58.94
X32.512Y80.179
X32.512Y79.297
X32.512Y78.564
X32.512Y77.682
X32.512Y35.052
X32.512Y26.416
X32.512Y18.161
X32.524Y92.35
X32.524Y91.468
X32.524Y90.692
X32.524Y89.81
X32.639Y30.353
X32.82Y19.419
X32.893Y33.147
X32.893Y28.829
X33.017Y84.18
X33.017Y83.298
X33.017Y82.522
X33.017Y81.64
X33.142Y88.159
X33.142Y87.277
X33.142Y86.501
X33.142Y85.619
X33.225Y64.389
X33.246Y63.63
X33.246Y62.859
X33.246Y62.115
X33.268Y92.35
X33.268Y91.468
X33.268Y90.692
X33.268Y89.81
X33.271Y80.243
X33.271Y79.361
X33.271Y78.585
X33.271Y77.703
X33.274Y68.446
X33.274Y67.564
X33.274Y66.831
X33.274Y65.949
X33.274Y32.512
X33.352Y61.214
X33.373Y60.454
X33.373Y59.684
X33.373Y58.94
X33.788Y84.18
X33.788Y83.298
X33.788Y82.522
X33.788Y81.64
X33.911Y88.159
X33.911Y87.277
X33.911Y86.501
X33.911Y85.619
X33.958Y64.389
X34.022Y63.63
X34.022Y62.859
X34.022Y62.115
X34.033Y68.51
X34.033Y67.628
X34.033Y66.852
X34.033Y65.97
X34.038Y92.35
X34.038Y91.468
X34.038Y90.692
X34.038Y89.81
X34.041Y80.243
X34.041Y79.361
X34.041Y78.585
X34.041Y77.703
X34.085Y61.214
X34.149Y60.454
X34.149Y59.684
X34.149Y58.94
X34.417Y27.305
X34.417Y19.177
X34.532Y84.18
X34.532Y83.298
X34.532Y82.522
X34.532Y81.64
X34.671Y88.18
X34.671Y87.298
X34.671Y86.565
X34.671Y85.683
X34.671Y24.765
X34.786Y80.243
X34.786Y79.361
X34.786Y78.585
X34.786Y77.703
X34.798Y92.371
X34.798Y91.489
X34.798Y90.756
X34.798Y89.874
X34.803Y68.51
X34.803Y67.628
X34.803Y66.852
X34.803Y65.97
X34.84Y64.389
X34.904Y63.63
X34.904Y62.859
X34.904Y62.115
X34.967Y61.214
X35.031Y60.454
X35.031Y59.684
X35.031Y58.94
X35.433Y84.243
X35.433Y83.361
X35.433Y82.628
X35.433Y81.746
X35.433Y19.304
X35.548Y68.51
X35.548Y67.628
X35.548Y66.852
X35.548Y65.97
X35.56Y26.924
X35.56Y20.828
X35.572Y88.286
X35.572Y87.404
X35.572Y86.628
X35.572Y85.746
X35.575Y75.311
X35.596Y74.551
X35.596Y73.781
X35.596Y73.037
X35.687Y80.306
X35.687Y79.424
X35.687Y78.691
X35.687Y77.809
X35.687Y21.717
X35.699Y92.477
X35.699Y91.595
X35.699Y90.819
X35.699Y89.937
X35.702Y72.136
X35.723Y71.376
X35.723Y70.606
X35.723Y69.862
X35.814Y34.671
X36.192Y84.307
X36.192Y83.425
X36.192Y82.649
X36.192Y81.767
X36.316Y88.286
X36.316Y87.404
X36.316Y86.628
X36.316Y85.746
X36.444Y92.477
X36.444Y91.595
X36.444Y90.819
X36.444Y89.937
X36.447Y80.37
X36.447Y79.488
X36.447Y78.712
X36.447Y77.83
X36.449Y68.573
X36.449Y67.691
X36.449Y66.957
X36.449Y66.076
X36.457Y75.311
X36.461Y64.41
X36.461Y63.528
X36.461Y62.752
X36.461Y61.87
X36.461Y60.219
X36.461Y59.337
X36.461Y58.561
X36.461Y57.679
X36.478Y74.551
X36.478Y73.781
X36.478Y73.037
X36.584Y72.136
X36.605Y71.376
X36.605Y70.606
X36.605Y69.862
X36.703Y138.938
X36.703Y18.542
X36.83Y2.286
X36.962Y84.307
X36.962Y83.425
X36.962Y82.649
X36.962Y81.767
X37.084Y27.432
X37.087Y88.286
X37.087Y87.404
X37.087Y86.628
X37.087Y85.746
X37.19Y75.311
X37.206Y64.41
X37.206Y63.528
X37.206Y62.752
X37.206Y61.87
X37.206Y60.219
X37.206Y59.337
X37.206Y58.561
X37.206Y57.679
X37.209Y68.637
X37.209Y67.755
X37.209Y66.979
X37.209Y66.097
X37.213Y92.477
X37.213Y91.595
X37.213Y90.819
X37.213Y89.937
X37.216Y80.37
X37.216Y79.488
X37.216Y78.712
X37.216Y77.83
X37.255Y74.551
X37.255Y73.781
X37.255Y73.037
X37.317Y72.136
X37.381Y71.376
X37.381Y70.606
X37.381Y69.862
X37.707Y84.307
X37.707Y83.425
X37.707Y82.649
X37.707Y81.767
X37.719Y135.255
X37.754Y29.241
X37.846Y88.307
X37.846Y87.425
X37.846Y86.692
X37.846Y85.81
X37.961Y80.37
X37.961Y79.488
X37.961Y78.712
X37.961Y77.83
X37.973Y92.498
X37.973Y91.616
X37.973Y90.883
X37.973Y90.001
X37.973Y24.384
X37.975Y64.41
X37.975Y63.528
X37.975Y62.752
X37.975Y61.87
X37.975Y60.219
X37.975Y59.337
X37.975Y58.561
X37.975Y57.679
X37.978Y68.637
X37.978Y67.755
X37.978Y66.979
X37.978Y66.097
X38.072Y75.311
X38.097Y140.275
X38.1Y31.242
X38.136Y74.551
X38.136Y73.781
X38.136Y73.037
X38.199Y72.136
X38.263Y71.376
X38.263Y70.606
X38.263Y69.862
X38.723Y68.637
X38.723Y67.755
X38.723Y66.979
X38.723Y66.097
X38.735Y64.431
X38.735Y63.549
X38.735Y62.816
X38.735Y61.934
X38.735Y60.24
X38.735Y59.358
X38.735Y58.625
X38.735Y57.743
X38.989Y17.272
X39.328Y86.868
X39.349Y86.108
X39.349Y85.338
X39.349Y84.594
X39.455Y83.693
X39.455Y79.629
X39.476Y82.933
X39.476Y82.163
X39.476Y81.419
X39.476Y78.87
X39.476Y78.099
X39.476Y77.355
X39.582Y76.454
X39.603Y75.694
X39.603Y74.924
X39.603Y74.18
X39.636Y64.537
X39.636Y63.655
X39.636Y62.879
X39.636Y61.997
X39.636Y60.346
X39.636Y59.464
X39.636Y58.688
X39.636Y57.806
X39.963Y71.628
X39.984Y70.868
X39.984Y70.099
X39.984Y69.354
X40.09Y68.453
X40.111Y67.694
X40.111Y66.923
X40.111Y66.179
X40.21Y86.868
X40.231Y86.108
X40.231Y85.338
X40.231Y84.594
X40.259Y17.526
X40.337Y83.693
X40.337Y79.629
X40.358Y82.933
X40.358Y82.163
X40.358Y81.419
X40.358Y78.87
X40.358Y78.099
X40.358Y77.355
X40.38Y64.537
X40.38Y63.655
X40.38Y62.879
X40.38Y61.997
X40.38Y60.346
X40.38Y59.464
X40.38Y58.688
X40.38Y57.806
X40.464Y76.454
X40.485Y75.694
X40.485Y74.924
X40.485Y74.18
X40.845Y71.628
X40.866Y70.868
X40.866Y70.099
X40.866Y69.354
X40.943Y86.868
X40.972Y68.453
X40.993Y67.694
X40.993Y66.923
X40.993Y66.179
X41.007Y86.108
X41.007Y85.338
X41.007Y84.594
X41.07Y83.693
X41.07Y79.629
X41.134Y82.933
X41.134Y82.163
X41.134Y81.419
X41.134Y78.87
X41.134Y78.099
X41.134Y77.355
X41.151Y64.537
X41.151Y63.655
X41.151Y62.879
X41.151Y61.997
X41.151Y60.346
X41.151Y59.464
X41.151Y58.688
X41.151Y57.806
X41.197Y76.454
X41.261Y75.694
X41.261Y74.924
X41.261Y74.18
X41.566Y43.095
X41.578Y71.628
X41.642Y70.868
X41.642Y70.099
X41.642Y69.354
X41.705Y68.453
X41.769Y67.694
X41.769Y66.923
X41.769Y66.179
X41.825Y86.868
X41.889Y86.108
X41.889Y85.338
X41.889Y84.594
X41.91Y64.558
X41.91Y63.676
X41.91Y62.943
X41.91Y62.061
X41.91Y60.367
X41.91Y59.485
X41.91Y58.752
X41.91Y57.87
X41.952Y83.693
X41.952Y79.629
X42.016Y82.933
X42.016Y82.163
X42.016Y81.419
X42.016Y78.87
X42.016Y78.099
X42.016Y77.355
X42.079Y76.454
X42.143Y75.694
X42.143Y74.924
X42.143Y74.18
X42.164Y44.323
X42.418Y21.717
X42.46Y71.628
X42.524Y70.868
X42.524Y70.099
X42.524Y69.354
X42.587Y68.453
X42.651Y67.694
X42.651Y66.923
X42.651Y66.179
X43.434Y139.827
X43.561Y22.225
X43.688Y137.16
X45.72Y133.35
X45.974Y145.288
X45.974Y2.286
X46.609Y22.606
X47.241Y142.362
X47.244Y140.568
X47.244Y138.811
X47.25Y144.015
X47.625Y22.606
X48.26Y16.51
X48.641Y20.828
X49.022Y17.272
X49.276Y44.831
X49.53Y47.55
X49.657Y18.796
X49.784Y20.066
X50.292Y49.911
X50.673Y22.352
X50.976Y130.556
X51.054Y144.526
X51.054Y132.334
X51.435Y48.389
X51.435Y46.99
X51.562Y43.434
X51.748Y128.693
X53.213Y36.068
X54.102Y21.971
X54.864Y50.038
X55.118Y135.255
X55.138Y10.414
X55.499Y141.478
X55.499Y36.068
X55.753Y6.731
X55.753Y4.699
X56.388Y137.033
X56.633Y130.45
X56.896Y2.286
X57.023Y42.799
X58.039Y22.225
X58.166Y46.14
X58.27Y9.751
X58.293Y17.907
X58.547Y40.64
X58.547Y38.989
X59.182Y15.875
X59.182Y13.208
X59.356Y136.78
X59.944Y14.605
X60.198Y43.053
X60.706Y8.255
X61.595Y136.652
X61.849Y138.176
X61.909Y141.224
X62.103Y8.636
X62.484Y36.322
X62.768Y23.164
X62.992Y9.525
X62.992Y6.858
X63.373Y10.414
X63.5Y47.371
X63.512Y14.914
X63.881Y44.958
X64.643Y46.863
X65.953Y17.97
X66.548Y43.053
X66.675Y20.828
X67.691Y18.288
X67.953Y16.282
X67.953Y14.721
X68.011Y145.542
X69.088Y41.91
X69.113Y16.78
X69.469Y18.288
X69.596Y22.733
X70.104Y145.542
X70.732Y139.319
X70.814Y143.755
X72.136Y145.288
X72.136Y137.795
X72.654Y102.997
X72.654Y102.115
X72.654Y101.339
X72.654Y100.457
X72.654Y81.915
X72.654Y81.033
X72.654Y80.257
X72.654Y79.375
X72.654Y68.199
X72.654Y67.317
X72.654Y66.541
X72.654Y65.659
X72.654Y64.897
X72.654Y64.015
X72.654Y63.239
X72.654Y62.357
X72.654Y61.595
X72.654Y60.713
X72.654Y59.937
X72.654Y59.055
X72.663Y78.232
X72.663Y77.35
X72.663Y76.574
X72.663Y75.692
X72.712Y74.89
X72.712Y74.008
X72.712Y73.231
X72.712Y72.35
X72.727Y99.568
X72.727Y98.686
X72.727Y97.91
X72.727Y97.028
X72.781Y92.456
X72.781Y91.574
X72.781Y90.798
X72.781Y89.916
X72.781Y89.027
X72.781Y88.145
X72.781Y87.369
X72.781Y86.487
X72.781Y85.471
X72.781Y84.589
X72.781Y83.813
X72.781Y82.931
X72.781Y71.501
X72.781Y70.619
X72.781Y69.843
X72.781Y68.961
X72.781Y58.166
X72.781Y57.284
X72.781Y56.508
X72.781Y55.626
X72.806Y96.139
X72.806Y95.257
X72.806Y94.481
X72.806Y93.599
X73.088Y38.166
X73.088Y37.29
X73.088Y36.367
X73.088Y35.529
X73.088Y34.78
X73.152Y19.05
X73.152Y16.51
X73.398Y102.997
X73.398Y102.115
X73.398Y101.339
X73.398Y100.457
X73.398Y81.915
X73.398Y81.033
X73.398Y80.257
X73.398Y79.375
X73.398Y68.199
X73.398Y67.317
X73.398Y66.541
X73.398Y65.659
X73.398Y64.897
X73.398Y64.015
X73.398Y63.239
X73.398Y62.357
X73.398Y61.595
X73.398Y60.713
X73.398Y59.937
X73.398Y59.055
X73.408Y78.232
X73.408Y77.35
X73.408Y76.574
X73.408Y75.692
X73.456Y74.89
X73.456Y74.008
X73.456Y73.231
X73.456Y72.35
X73.471Y99.568
X73.471Y98.686
X73.471Y97.91
X73.471Y97.028
X73.525Y92.456
X73.525Y91.574
X73.525Y90.798
X73.525Y89.916
X73.525Y89.027
X73.525Y88.145
X73.525Y87.369
X73.525Y86.487
X73.525Y85.471
X73.525Y84.589
X73.525Y83.813
X73.525Y82.931
X73.525Y71.501
X73.525Y70.619
X73.525Y69.843
X73.525Y68.961
X73.525Y58.166
X73.525Y57.284
X73.525Y56.508
X73.525Y55.626
X73.55Y96.139
X73.55Y95.257
X73.55Y94.481
X73.55Y93.599
X74.168Y102.997
X74.168Y102.115
X74.168Y101.339
X74.168Y100.457
X74.168Y81.915
X74.168Y81.033
X74.168Y80.257
X74.168Y79.375
X74.168Y68.199
X74.168Y67.317
X74.168Y66.541
X74.168Y65.659
X74.168Y64.897
X74.168Y64.015
X74.168Y63.239
X74.168Y62.357
X74.168Y61.595
X74.168Y60.713
X74.168Y59.937
X74.168Y59.055
X74.178Y78.232
X74.178Y77.35
X74.178Y76.574
X74.178Y75.692
X74.227Y74.89
X74.227Y74.008
X74.227Y73.231
X74.227Y72.35
X74.241Y99.568
X74.241Y98.686
X74.241Y97.91
X74.241Y97.028
X74.295Y92.456
X74.295Y91.574
X74.295Y90.798
X74.295Y89.916
X74.295Y89.027
X74.295Y88.145
X74.295Y87.369
X74.295Y86.487
X74.295Y85.471
X74.295Y84.589
X74.295Y83.813
X74.295Y82.931
X74.295Y71.501
X74.295Y70.619
X74.295Y69.843
X74.295Y68.961
X74.295Y58.166
X74.295Y57.284
X74.295Y56.508
X74.295Y55.626
X74.32Y96.139
X74.32Y95.257
X74.32Y94.481
X74.32Y93.599
X74.676Y135.89
X74.927Y103.018
X74.927Y102.136
X74.927Y101.403
X74.927Y100.521
X74.927Y81.936
X74.927Y81.054
X74.927Y80.321
X74.927Y79.439
X74.927Y68.22
X74.927Y67.338
X74.927Y66.605
X74.927Y65.723
X74.927Y64.918
X74.927Y64.036
X74.927Y63.303
X74.927Y62.421
X74.927Y61.616
X74.927Y60.734
X74.927Y60.001
X74.927Y59.119
X74.937Y78.253
X74.937Y77.371
X74.937Y76.638
X74.937Y75.756
X74.986Y74.911
X74.986Y74.029
X74.986Y73.296
X74.986Y72.414
X75.001Y99.589
X75.001Y98.707
X75.001Y97.974
X75.001Y97.092
X75.054Y92.477
X75.054Y91.595
X75.054Y90.862
X75.054Y89.98
X75.054Y89.048
X75.054Y88.166
X75.054Y87.433
X75.054Y86.551
X75.054Y85.492
X75.054Y84.61
X75.054Y83.877
X75.054Y82.995
X75.054Y71.522
X75.054Y70.64
X75.054Y69.907
X75.054Y69.025
X75.054Y58.187
X75.054Y57.305
X75.054Y56.572
X75.054Y55.69
X75.08Y96.16
X75.08Y95.278
X75.08Y94.545
X75.08Y93.663
X75.829Y103.124
X75.829Y102.242
X75.829Y101.466
X75.829Y100.584
X75.829Y99.568
X75.829Y98.686
X75.829Y97.91
X75.829Y97.028
X75.891Y96.139
X75.891Y95.257
X75.891Y94.481
X75.891Y93.599
X75.915Y77.467
X75.915Y76.585
X75.915Y75.809
X75.915Y74.927
X75.956Y92.456
X75.956Y91.574
X75.956Y90.798
X75.956Y89.916
X76.083Y88.773
X76.083Y87.891
X76.083Y87.115
X76.083Y86.233
X76.083Y58.801
X76.083Y57.919
X76.083Y57.143
X76.083Y56.261
X76.21Y85.217
X76.21Y84.335
X76.21Y83.559
X76.21Y82.677
X76.21Y73.406
X76.21Y72.524
X76.21Y71.748
X76.21Y70.866
X76.337Y81.661
X76.337Y80.779
X76.337Y80.003
X76.337Y79.121
X76.337Y69.85
X76.337Y68.968
X76.337Y68.192
X76.337Y67.31
X76.366Y62.992
X76.366Y62.11
X76.366Y61.334
X76.366Y60.452
X76.519Y139.319
X76.573Y103.124
X76.573Y102.242
X76.573Y101.466
X76.573Y100.584
X76.573Y99.568
X76.573Y98.686
X76.573Y97.91
X76.573Y97.028
X76.591Y66.421
X76.591Y65.539
X76.591Y64.763
X76.591Y63.881
X76.635Y96.139
X76.635Y95.257
X76.635Y94.481
X76.635Y93.599
X76.659Y77.467
X76.659Y76.585
X76.659Y75.809
X76.659Y74.927
X76.7Y92.456
X76.7Y91.574
X76.7Y90.798
X76.7Y89.916
X76.827Y88.773
X76.827Y87.891
X76.827Y87.115
X76.827Y86.233
X76.827Y58.801
X76.827Y57.919
X76.827Y57.143
X76.827Y56.261
X76.954Y85.217
X76.954Y84.335
X76.954Y83.559
X76.954Y82.677
X76.954Y73.406
X76.954Y72.524
X76.954Y71.748
X76.954Y70.866
X77.081Y81.661
X77.081Y80.779
X77.081Y80.003
X77.081Y79.121
X77.081Y69.85
X77.081Y68.968
X77.081Y68.192
X77.081Y67.31
X77.11Y62.992
X77.11Y62.11
X77.11Y61.334
X77.11Y60.452
X77.335Y66.421
X77.335Y65.539
X77.335Y64.763
X77.335Y63.881
X77.343Y103.124
X77.343Y102.242
X77.343Y101.466
X77.343Y100.584
X77.343Y99.568
X77.343Y98.686
X77.343Y97.91
X77.343Y97.028
X77.406Y96.139
X77.406Y95.257
X77.406Y94.481
X77.406Y93.599
X77.429Y77.467
X77.429Y76.585
X77.429Y75.809
X77.429Y74.927
X77.47Y92.456
X77.47Y91.574
X77.47Y90.798
X77.47Y89.916
X77.597Y88.773
X77.597Y87.891
X77.597Y87.115
X77.597Y86.233
X77.597Y58.801
X77.597Y57.919
X77.597Y57.143
X77.597Y56.261
X77.724Y85.217
X77.724Y84.335
X77.724Y83.559
X77.724Y82.677
X77.724Y73.406
X77.724Y72.524
X77.724Y71.748
X77.724Y70.866
X77.851Y141.478
X77.851Y81.661
X77.851Y80.779
X77.851Y80.003
X77.851Y79.121
X77.851Y69.85
X77.851Y68.968
X77.851Y68.192
X77.851Y67.31
X77.88Y62.992
X77.88Y62.11
X77.88Y61.334
X77.88Y60.452
X77.978Y13.843
X78.102Y103.145
X78.102Y102.263
X78.102Y101.53
X78.102Y100.648
X78.102Y99.589
X78.102Y98.707
X78.102Y97.974
X78.102Y97.092
X78.105Y66.421
X78.105Y65.539
X78.105Y64.763
X78.105Y63.881
X78.105Y11.303
X78.165Y96.16
X78.165Y95.278
X78.165Y94.545
X78.165Y93.663
X78.189Y77.488
X78.189Y76.606
X78.189Y75.873
X78.189Y74.991
X78.23Y92.477
X78.23Y91.595
X78.23Y90.862
X78.23Y89.98
X78.356Y88.794
X78.356Y87.912
X78.356Y87.179
X78.356Y86.297
X78.356Y58.822
X78.356Y57.94
X78.356Y57.207
X78.356Y56.325
X78.483Y85.238
X78.483Y84.356
X78.483Y83.623
X78.483Y82.741
X78.483Y73.427
X78.483Y72.545
X78.483Y71.812
X78.483Y70.93
X78.611Y81.682
X78.611Y80.8
X78.611Y80.067
X78.611Y79.185
X78.611Y69.871
X78.611Y68.989
X78.611Y68.256
X78.611Y67.374
X78.64Y63.013
X78.64Y62.131
X78.64Y61.398
X78.64Y60.516
X78.864Y66.442
X78.864Y65.56
X78.864Y64.827
X78.864Y63.945
X80.264Y23.876
X80.391Y102.87
X81.153Y8.382
X81.407Y5.588
X81.534Y17.018
X81.534Y16.256
X81.661Y44.577
X81.661Y42.243
X81.788Y141.605
X82.55Y24.257
X82.677Y46.355
X83.058Y10.033
X83.45Y26.797
X84.455Y51.054
X84.455Y8.255
X84.658Y35.962
X84.836Y19.685
X84.912Y56.173
X85.471Y137.16
X85.471Y47.752
X85.471Y42.037
X85.979Y53.975
X86.106Y16.256
X86.36Y12.192
X87.122Y13.462
X87.154Y53.975
X87.503Y16.256
X87.63Y52.953
X87.757Y32.639
X87.757Y21.082
X88.011Y26.035
X88.392Y5.461
X88.646Y51.435
X88.773Y39.37
X88.9Y35.687
X89.027Y28.194
X89.408Y45.72
X89.408Y6.985
X89.535Y141.605
X89.563Y56.173
X89.662Y137.922
X89.662Y13.716
X89.789Y53.594
X89.916Y45.339
X90.17Y35.052
X90.297Y21.971
X90.678Y144.272
X90.805Y34.29
X91.821Y54.356
X91.821Y42.164
X95.25Y144.399
X97.526Y138.599
X98.38Y142.153
X98.425Y140.716
X98.552Y139.7
X99.568Y132.334
X100.578Y131.383
X102.108Y143.764
X102.728Y130.492
X102.997Y143.764
X103.759Y131.572
X105.41Y140.335
X105.41Y139.573
X106.045Y137.668
X106.064Y130.487
X107.315Y146.812
X107.315Y135.088
X108.331Y24.638
X108.79Y142.342
X110.109Y139.573
X110.744Y136.358
X111.143Y131.548
X111.506Y130.683
X112.793Y143.383
X113.792Y140.462
X113.792Y130.556
X114.089Y131.548
X114.671Y10.541
X114.935Y112.903
X114.935Y112.021
X114.935Y111.245
X114.935Y110.363
X115.062Y143.891
X115.316Y140.462
X115.57Y131.712
X115.679Y112.903
X115.679Y112.021
X115.679Y111.245
X115.679Y110.363
X116.449Y112.903
X116.449Y112.021
X116.449Y111.245
X116.449Y110.363
X117.209Y112.924
X117.209Y112.042
X117.209Y111.309
X117.209Y110.427
X117.504Y140.462
X117.953Y112.924
X117.953Y112.042
X117.953Y111.309
X117.953Y110.427
X118.491Y143.891
X118.645Y138.43
X118.723Y112.924
X118.723Y112.042
X118.723Y111.309
X118.723Y110.427
X118.872Y135.001
X119.572Y112.924
X119.572Y112.042
X119.634Y111.245
X119.634Y110.363
X120.316Y112.924
X120.316Y112.042
X120.378Y111.245
X120.378Y110.363
X121.031Y135.763
X121.086Y112.924
X121.086Y112.042
X121.148Y111.245
X121.148Y110.363
X121.793Y112.896
X121.793Y112.014
X121.793Y111.245
X121.793Y110.363
X122.047Y143.383
X122.537Y112.896
X122.537Y112.014
X122.537Y111.245
X122.537Y110.363
X123.307Y112.896
X123.307Y112.014
X123.307Y111.245
X123.307Y110.363
X123.952Y112.896
X123.952Y112.014
X123.952Y111.245
X123.952Y110.363
X124.696Y112.896
X124.696Y112.014
X124.696Y111.245
X124.696Y110.363
X124.789Y136.146
X125.466Y112.896
X125.466Y112.014
X125.466Y111.245
X125.466Y110.363
X125.857Y138.686
X125.984Y133.985
X126.217Y112.896
X126.217Y112.014
X126.238Y111.245
X126.238Y110.363
X126.961Y112.896
X126.961Y112.014
X126.982Y111.245
X126.982Y110.363
X127.731Y112.896
X127.731Y112.014
X127.752Y111.245
X127.752Y110.363
X128.485Y112.896
X128.485Y112.014
X128.524Y111.245
X128.524Y110.363
X128.651Y142.24
X129.229Y112.896
X129.229Y112.014
X129.268Y111.245
X129.268Y110.363
X129.667Y142.621
X129.999Y112.896
X129.999Y112.014
X130.038Y111.245
X130.038Y110.363
X130.206Y137.416
X130.683Y111.245
X130.683Y110.363
X130.71Y112.896
X130.71Y112.014
X131.427Y111.245
X131.427Y110.363
X131.455Y112.896
X131.455Y112.014
X132.197Y111.245
X132.197Y110.363
X132.225Y112.014
X133.858Y131.445
X134.112Y136.017
X134.747Y121.844
X134.747Y120.963
X134.747Y120.194
X134.747Y119.312
X135.382Y143.129
X135.491Y120.963
X135.491Y120.194
X135.491Y119.312
X135.509Y122.047
X135.763Y122.809
X136.144Y140.208
X136.261Y120.963
X136.261Y120.194
X136.261Y119.312
X136.271Y121.793
X136.587Y122.682
X137.033Y141.224
X137.033Y121.786
X137.033Y120.904
X137.09Y120.194
X137.09Y119.312
X137.541Y122.555
X137.777Y121.786
X137.777Y120.904
X137.835Y120.194
X137.835Y119.312
X138.288Y122.555
X138.547Y121.786
X138.547Y120.904
X138.605Y120.194
X138.605Y119.312
X139.065Y135.763
X139.069Y122.555
X139.192Y121.786
X139.192Y120.904
X139.319Y120.262
X139.319Y119.38
X139.827Y122.809
X139.936Y121.786
X139.936Y120.904
X140.063Y120.262
X140.063Y119.38
X140.706Y121.786
X140.706Y120.904
X140.731Y122.555
X140.833Y120.262
X140.833Y119.38
X140.843Y135.128
X141.476Y123.437
X141.476Y122.555
X141.478Y121.786
X141.478Y120.904
X141.605Y120.262
X141.605Y119.38
X142.222Y121.786
X142.222Y120.904
X142.246Y123.437
X142.246Y122.555
X142.349Y120.262
X142.349Y119.38
X142.494Y136.144
X142.992Y121.786
X142.992Y120.904
X143.002Y123.437
X143.002Y122.555
X143.119Y120.262
X143.119Y119.38
X143.363Y142.19
X143.637Y121.786
X143.637Y120.904
X143.746Y123.437
X143.746Y122.555
X143.778Y120.262
X143.778Y119.38
X144.381Y121.786
X144.381Y120.904
X144.516Y123.437
X144.516Y122.555
X144.522Y120.262
X144.522Y119.38
X145.151Y121.786
X145.151Y120.904
X145.292Y120.262
X145.292Y119.38
X145.923Y141.351
X146.169Y43.654
X146.558Y142.367
X147.409Y42.513
X147.489Y137.414
X149.733Y43.688
X151.13Y144.526
X151.384Y10.033
X151.511Y19.939
X153.035Y17.399
X153.162Y136.017
X153.162Y22.352
X153.289Y12.446
X153.289Y7.62
X153.543Y142.621
X153.924Y17.399
X154.051Y22.352
X154.178Y12.446
X154.178Y7.62
X154.813Y17.399
X154.94Y22.352
X155.067Y12.446
X155.067Y7.62
X155.575Y138.43
X156.337Y10.795
X156.337Y9.906
X156.337Y9.017
X156.464Y19.939
X156.718Y15.24
X169.291Y136.646
X172.974Y140.423
X182.118Y131.699
X191.008Y141.732
X191.008Y136.652
X202.184Y136.525
X204.851Y138.684
X204.978Y145.288
X206.375Y46.99
X206.756Y112.776
X206.757Y113.411
X207.138Y114.173
X207.456Y112.776
X207.456Y113.411
X207.646Y114.935
X207.837Y114.173
X207.899Y46.228
X208.153Y112.776
X208.153Y28.829
X208.154Y115.697
X208.154Y113.411
X208.345Y114.935
X208.535Y114.173
X208.788Y112.776
X208.789Y113.411
X208.853Y115.697
X209.002Y116.459
X209.043Y114.935
X209.17Y114.173
X209.423Y112.776
X209.424Y113.411
X209.551Y115.697
X209.678Y114.935
X209.702Y116.459
X209.804Y117.221
X209.805Y114.173
X210.184Y112.776
X210.185Y113.411
X210.186Y115.697
X210.244Y20.388
X210.312Y117.856
X210.313Y114.935
X210.399Y116.459
X210.44Y117.221
X210.566Y114.173
X210.624Y26.035
X210.82Y112.776
X210.821Y115.697
X210.821Y113.411
X211.011Y117.856
X211.034Y116.459
X211.074Y114.935
X211.139Y117.221
X211.329Y114.173
X211.519Y112.776
X211.52Y113.411
X211.582Y115.697
X211.669Y116.459
X211.709Y117.856
X211.837Y117.221
X211.837Y114.935
X211.963Y25.962
X212.028Y114.173
X212.217Y112.776
X212.218Y113.411
X212.344Y117.856
X212.345Y115.697
X212.43Y116.459
X212.472Y117.221
X212.536Y114.935
X212.726Y114.173
X212.852Y112.776
X212.853Y113.411
X212.979Y117.856
X213.044Y115.697
X213.107Y117.221
X213.234Y114.935
X213.271Y116.459
X213.361Y114.173
X213.487Y112.776
X213.488Y113.411
X213.74Y117.856
X213.742Y115.697
X213.868Y117.221
X213.869Y114.935
X213.971Y116.459
X213.996Y114.173
X214.248Y112.776
X214.249Y113.411
X214.377Y115.697
X214.504Y117.856
X214.504Y117.221
X214.504Y114.935
X214.668Y116.459
X214.757Y114.173
X215.01Y112.776
X215.011Y113.411
X215.012Y115.697
X215.203Y117.856
X215.203Y117.221
X215.265Y114.935
X215.303Y116.459
X215.519Y114.173
X215.645Y112.776
X215.646Y113.411
X215.773Y115.697
X215.901Y117.856
X215.901Y117.221
X215.938Y116.459
X216.027Y114.935
X216.154Y114.173
X216.28Y112.776
X216.281Y113.411
X216.535Y115.697
X216.536Y117.856
X216.536Y117.221
X216.662Y114.935
X216.699Y116.459
X216.789Y114.173
X216.915Y112.776
X216.916Y113.411
X217.17Y115.697
X217.171Y117.856
X217.171Y117.221
X217.297Y114.935
X217.306Y116.459
X217.424Y114.173
X217.805Y134.493
X217.932Y117.856
X217.932Y117.221
X217.932Y115.697
X217.932Y114.935
X217.941Y116.459
X221.742Y135.509
X241.554Y95.25
X259.461Y128.397
T2
X5.334Y67.945
X5.334Y67.056
X5.461Y79.248
X5.461Y78.359
X5.461Y76.327
X5.461Y75.311
X5.461Y74.295
X5.461Y73.279
X5.461Y72.136
X5.461Y71.12
X5.461Y66.167
X5.461Y65.151
X5.461Y64.135
X5.461Y63.119
X5.461Y62.103
X5.461Y61.087
X5.461Y60.071
X5.588Y77.343
X5.588Y59.182
X6.35Y67.945
X6.35Y67.056
X6.477Y79.248
X6.477Y78.359
X6.477Y76.327
X6.477Y75.311
X6.477Y74.295
X6.477Y73.279
X6.477Y72.136
X6.477Y71.12
X6.477Y66.167
X6.477Y65.151
X6.477Y64.135
X6.477Y63.119
X6.477Y62.103
X6.477Y61.087
X6.477Y60.071
X6.604Y77.343
X6.604Y59.182
X7.366Y67.945
X7.366Y67.056
X7.493Y79.248
X7.493Y78.359
X7.493Y76.327
X7.493Y75.311
X7.493Y74.295
X7.493Y73.279
X7.493Y72.136
X7.493Y71.12
X7.493Y66.167
X7.493Y65.151
X7.493Y64.135
X7.493Y63.119
X7.493Y62.103
X7.493Y61.087
X7.493Y60.071
X7.62Y77.343
X7.62Y59.182
X8.382Y67.945
X8.382Y67.056
X8.509Y79.248
X8.509Y78.359
X8.509Y76.327
X8.509Y75.311
X8.509Y74.295
X8.509Y73.279
X8.509Y72.136
X8.509Y71.12
X8.509Y66.167
X8.509Y65.151
X8.509Y64.135
X8.509Y63.119
X8.509Y62.103
X8.509Y61.087
X8.509Y60.071
X8.636Y77.343
X8.636Y59.182
X9.525Y67.916
X9.525Y67.027
X9.652Y79.219
X9.652Y78.33
X9.652Y76.298
X9.652Y75.282
X9.652Y74.266
X9.652Y73.25
X9.652Y72.107
X9.652Y71.091
X9.652Y66.138
X9.652Y65.122
X9.652Y64.106
X9.652Y63.09
X9.652Y62.074
X9.652Y61.058
X9.652Y60.042
X9.779Y77.314
X9.779Y59.153
X10.541Y67.945
X10.541Y67.056
X10.668Y79.248
X10.668Y78.359
X10.668Y76.327
X10.668Y75.311
X10.668Y74.295
X10.668Y73.279
X10.668Y72.136
X10.668Y71.12
X10.668Y66.167
X10.668Y65.151
X10.668Y64.135
X10.668Y63.119
X10.668Y62.103
X10.668Y61.087
X10.668Y60.071
X10.795Y77.343
X10.795Y59.182
X11.684Y67.945
X11.684Y67.056
X11.811Y79.248
X11.811Y78.359
X11.811Y76.327
X11.811Y75.311
X11.811Y74.295
X11.811Y73.279
X11.811Y72.136
X11.811Y71.12
X11.811Y66.167
X11.811Y65.151
X11.811Y64.135
X11.811Y63.119
X11.811Y62.103
X11.811Y61.087
X11.811Y60.071
X11.938Y77.343
X11.938Y59.182
X100.076Y17.145
X105.664Y20.574
X106.68Y31.369
X116.078Y7.62
X116.078Y6.538
X116.078Y4.97
X117.094Y3.429
X117.729Y11.049
X118.442Y3.429
X119.988Y7.965
X119.988Y6.658
X119.988Y5.343
X119.988Y3.429
X120.269Y23.368
X120.396Y24.765
X121.666Y25.273
X121.883Y21.771
X122.698Y14.478
X125.857Y9.398
X126.873Y14.351
X127.381Y8.255
X128.328Y11.853
X130.81Y9.906
X131.826Y11.43
X133.223Y18.923
X133.985Y22.606
X134.239Y24.257
X134.493Y18.923
X135.382Y11.557
X135.763Y21.94
X136.017Y25.4
X137.033Y22.479
X137.16Y11.557
X137.541Y24.003
X138.43Y18.542
X138.684Y11.684
X142.875Y10.922
X143.383Y16.002
X144.018Y12.584
X144.907Y9.779
X145.161Y14.986
X145.288Y12.065
X148.717Y12.7
X150.749Y13.97
X151.003Y8.382
X151.257Y17.145
X152.4Y11.303
X152.527Y21.336
X152.527Y13.462
X152.527Y8.382
X153.43Y44.623
X156.337Y16.764
X156.591Y12.319
X156.768Y45.339
X157.608Y4.826
X188.016Y28.321
X189.357Y18.954
X189.357Y18.057
X189.357Y17.145
X205.17Y21.271
X208.973Y13.97
X250.489Y43.18
M30
