%TF.GenerationSoftware,KiCad,Pcbnew,10.99.0-unknown*%
%TF.CreationDate,2026-08-12T15:30:43+08:00*%
%TF.ProjectId,___2KW_____,279f8732-4b57-40df-94ad-35902e6b6963,rev?*%
%TF.SameCoordinates,Original*%
%TF.FileFunction,AssemblyDrawing,Bot*%
%FSLAX46Y46*%
G04 Gerber Fmt 4.6, Leading zero omitted, Abs format (unit mm)*
G04 Created by KiCad (PCBNEW 10.99.0-unknown) date 2026-08-12 15:30:43*
%MOMM*%
%LPD*%
G01*
G04 APERTURE LIST*
%ADD10C,0.100000*%
G04 APERTURE END LIST*
%TO.C,R1*%
D10*
X20751289Y50126000D02*
X23751289Y50126000D01*
X23751289Y48426000D01*
X20751289Y48426000D01*
X20751289Y50126000D01*
%TO.C,ZD1*%
X20867000Y47739913D02*
X22567000Y47739913D01*
X22567000Y44739913D01*
X20867000Y44739913D01*
X20867000Y47739913D01*
%TO.C,R6*%
X17120550Y45427000D02*
X20120550Y45427000D01*
X20120550Y43727000D01*
X17120550Y43727000D01*
X17120550Y45427000D01*
%TO.C,C17*%
X81819254Y100418000D02*
X84819254Y100418000D01*
X84819254Y98718000D01*
X81819254Y98718000D01*
X81819254Y100418000D01*
%TO.C,C18*%
X81819254Y85813000D02*
X84819254Y85813000D01*
X84819254Y84113000D01*
X81819254Y84113000D01*
X81819254Y85813000D01*
%TO.C,R32*%
X105434000Y112356000D02*
X108434000Y112356000D01*
X108434000Y110656000D01*
X105434000Y110656000D01*
X105434000Y112356000D01*
%TO.C,R33*%
X105434000Y107657000D02*
X108434000Y107657000D01*
X108434000Y105957000D01*
X105434000Y105957000D01*
X105434000Y107657000D01*
%TO.C,R39*%
X166917000Y143613000D02*
X168617000Y143613000D01*
X168617000Y140613000D01*
X166917000Y140613000D01*
X166917000Y143613000D01*
%TO.C,R42*%
X168695000Y143613000D02*
X170395000Y143613000D01*
X170395000Y140613000D01*
X168695000Y140613000D01*
X168695000Y143613000D01*
%TO.C,U12*%
X166557000Y139606436D02*
X169739000Y139606436D01*
X169739000Y136656436D01*
X166557000Y136656436D01*
X166557000Y139606436D01*
%TO.C,R46*%
X170585000Y143970364D02*
X173585000Y143970364D01*
X173585000Y142270364D01*
X170585000Y142270364D01*
X170585000Y143970364D01*
%TO.C,R47*%
X170585000Y142245801D02*
X173585000Y142245801D01*
X173585000Y140545801D01*
X170585000Y140545801D01*
X170585000Y142245801D01*
%TO.C,R44*%
X170701510Y138772000D02*
X173701510Y138772000D01*
X173701510Y137072000D01*
X170701510Y137072000D01*
X170701510Y138772000D01*
%TO.C,R40*%
X170701510Y137121000D02*
X173701510Y137121000D01*
X173701510Y135421000D01*
X170701510Y135421000D01*
X170701510Y137121000D01*
%TO.C,C35*%
X170666928Y140410745D02*
X173666928Y140410745D01*
X173666928Y138710745D01*
X170666928Y138710745D01*
X170666928Y140410745D01*
%TO.C,R62*%
X194349000Y102719000D02*
X196049000Y102719000D01*
X196049000Y99719000D01*
X194349000Y99719000D01*
X194349000Y102719000D01*
%TO.C,R52*%
X216955000Y133727904D02*
X218655000Y133727904D01*
X218655000Y130727904D01*
X216955000Y130727904D01*
X216955000Y133727904D01*
%TO.C,D17*%
X214542000Y133727904D02*
X216242000Y133727904D01*
X216242000Y130727904D01*
X214542000Y130727904D01*
X214542000Y133727904D01*
%TO.C,R59*%
X224306000Y130136000D02*
X227306000Y130136000D01*
X227306000Y128436000D01*
X224306000Y128436000D01*
X224306000Y130136000D01*
%TO.C,R53*%
X248309000Y124040000D02*
X251309000Y124040000D01*
X251309000Y122340000D01*
X248309000Y122340000D01*
X248309000Y124040000D01*
%TO.C,R54*%
X206272000Y130126970D02*
X209272000Y130126970D01*
X209272000Y128426970D01*
X206272000Y128426970D01*
X206272000Y130126970D01*
%TO.C,M3*%
X263341481Y35547000D02*
X266861481Y35547000D01*
X266861481Y30747000D01*
X263341481Y30747000D01*
X263341481Y35547000D01*
%TO.C,R61*%
X188634000Y102719000D02*
X190334000Y102719000D01*
X190334000Y99719000D01*
X188634000Y99719000D01*
X188634000Y102719000D01*
%TO.C,C97*%
X195746000Y139073995D02*
X197446000Y139073995D01*
X197446000Y136073995D01*
X195746000Y136073995D01*
X195746000Y139073995D01*
%TO.C,C98*%
X193714000Y139073995D02*
X195414000Y139073995D01*
X195414000Y136073995D01*
X193714000Y136073995D01*
X193714000Y139073995D01*
%TO.C,C99*%
X197905000Y139073995D02*
X199605000Y139073995D01*
X199605000Y136073995D01*
X197905000Y136073995D01*
X197905000Y139073995D01*
%TO.C,C100*%
X246500126Y144741000D02*
X249500126Y144741000D01*
X249500126Y143041000D01*
X246500126Y143041000D01*
X246500126Y144741000D01*
%TO.C,C101*%
X183698004Y143716364D02*
X186698004Y143716364D01*
X186698004Y142016364D01*
X183698004Y142016364D01*
X183698004Y143716364D01*
%TO.C,C102*%
X194959979Y144323984D02*
X196659979Y144323984D01*
X196659979Y141323984D01*
X194959979Y141323984D01*
X194959979Y144323984D01*
%TO.C,C103*%
X197221956Y144323984D02*
X198921956Y144323984D01*
X198921956Y141323984D01*
X197221956Y141323984D01*
X197221956Y144323984D01*
%TO.C,C95*%
X192698000Y144323984D02*
X194398000Y144323984D01*
X194398000Y141323984D01*
X192698000Y141323984D01*
X192698000Y144323984D01*
%TO.C,C96*%
X191682000Y139073995D02*
X193382000Y139073995D01*
X193382000Y136073995D01*
X191682000Y136073995D01*
X191682000Y139073995D01*
%TO.C,R125*%
X214908000Y129501000D02*
X217908000Y129501000D01*
X217908000Y127801000D01*
X214908000Y127801000D01*
X214908000Y129501000D01*
%TO.C,R128*%
X227623000Y34279792D02*
X229323000Y34279792D01*
X229323000Y31279792D01*
X227623000Y31279792D01*
X227623000Y34279792D01*
%TD*%
M02*
