M48
; DRILL file KiCad 10.99.0-unknown date 2026-08-12T15:32:13
; FORMAT={-:-/ absolute / metric / decimal}
; #@! TF.CreationDate,2026-08-12T15:32:13+08:00
; #@! TF.GenerationSoftware,Kicad,Pcbnew,10.99.0-unknown
; #@! TF.FileFunction,MixedPlating,1,4
FMAT,2
METRIC
; #@! TA.AperFunction,Plated,PTH,ViaDrill
T1C0.305
; #@! TA.AperFunction,Plated,PTH,ViaDrill
T2C0.305
%
G90
G05
T1
X0.762Y9.017
X1.016Y28.829
X1.143Y4.064
X1.27Y62.865
X1.524Y7.493
X1.651Y67.31
X1.651Y54.991
X1.651Y46.99
X1.905Y58.42
X2.032Y40.894
X2.159Y22.86
X2.286Y51.308
X2.286Y27.305
X2.413Y38.354
X2.413Y20.066
X2.413Y16.002
X2.54Y14.732
X2.667Y17.78
X2.667Y9.144
X2.794Y45.466
X3.048Y1.651
X3.81Y27.051
X4.191Y54.991
X4.191Y47.371
X4.318Y58.674
X4.445Y14.605
X4.953Y16.256
X5.588Y19.812
X5.588Y0.889
X5.969Y17.018
X6.096Y24.892
X6.096Y22.606
X6.35Y45.212
X6.477Y69.469
X6.477Y51.562
X7.62Y14.732
X7.874Y7.874
X8.001Y24.257
X8.382Y2.159
X8.509Y45.466
X8.509Y44.577
X8.763Y62.738
X8.763Y3.429
X8.89Y5.461
X9.017Y4.572
X9.017Y1.524
X9.144Y10.16
X9.398Y17.018
X9.652Y2.159
X10.033Y24.765
X10.287Y51.181
X11.049Y36.195
X11.049Y1.778
X11.303Y6.35
X11.557Y23.114
X11.557Y4.445
X12.192Y17.653
X12.319Y1.651
X12.7Y21.209
X12.827Y19.558
X12.827Y11.176
X12.954Y48.133
X13.462Y26.162
X13.589Y32.893
X13.589Y1.905
X13.716Y47.625
X13.97Y36.068
X13.97Y4.826
X14.097Y11.176
X14.224Y6.35
X14.351Y1.397
X14.478Y48.006
X14.478Y25.146
X14.478Y24.003
X14.478Y22.606
X14.478Y20.955
X14.478Y19.558
X14.478Y18.542
X14.478Y8.001
X14.478Y3.683
X14.478Y2.286
X14.605Y60.071
X14.732Y62.484
X14.732Y5.334
X14.859Y28.575
X14.859Y7.366
X15.113Y2.032
X15.24Y17.018
X15.367Y6.096
X15.494Y3.556
X15.621Y4.699
X15.748Y7.747
X15.748Y1.397
X16.002Y16.256
X16.129Y50.419
X16.51Y35.179
X16.637Y59.944
X17.018Y15.24
X17.145Y55.88
X17.272Y45.72
X17.272Y42.672
X17.272Y40.513
X17.272Y28.956
X17.399Y38.227
X17.526Y33.655
X17.907Y69.215
X18.288Y56.515
X18.288Y34.798
X18.669Y11.303
X19.177Y4.826
X19.304Y56.515
X19.431Y49.022
X19.558Y32.893
X19.558Y11.557
X19.939Y51.435
X20.193Y31.75
X20.193Y10.414
X20.32Y55.372
X20.32Y29.21
X20.828Y60.325
X20.955Y17.272
X21.336Y55.499
X22.225Y68.453
X22.225Y4.064
X22.352Y33.274
X22.352Y18.288
X22.479Y62.738
X22.86Y2.032
X23.241Y28.067
X24.13Y29.845
X24.638Y60.325
X25.019Y63.119
X25.654Y51.181
X26.289Y66.929
X26.543Y52.959
X26.67Y4.826
X26.924Y58.293
X27.305Y60.452
X28.575Y16.383
X28.575Y14.605
X28.702Y50.927
X28.702Y28.448
X28.956Y61.849
X28.956Y22.098
X29.21Y45.72
X29.718Y44.45
X29.845Y25.781
X30.353Y57.658
X30.861Y68.834
X30.988Y60.071
X32.512Y51.943
X32.639Y67.056
X32.766Y6.985
X32.893Y61.849
X33.401Y58.928
X33.528Y17.145
X33.782Y1.651
X34.036Y6.096
X35.306Y69.215
X35.433Y42.545
X35.56Y50.292
X35.56Y43.942
X35.56Y23.876
X35.941Y32.512
X37.338Y16.51
X37.465Y61.722
X37.465Y29.083
X37.973Y14.986
X38.1Y52.832
X38.989Y40.64
X39.243Y65.278
X39.243Y63.373
X39.497Y59.944
X40.259Y59.944
X40.64Y15.367
X41.148Y45.085
X41.148Y29.845
X41.529Y56.769
X42.037Y42.672
X42.164Y50.419
X42.291Y22.606
X42.799Y66.929
X42.799Y65.405
X44.323Y61.341
X44.45Y32.131
X44.577Y67.183
X44.577Y7.747
X44.831Y68.58
X44.831Y16.764
X45.593Y60.071
X45.974Y57.658
X46.101Y10.668
X46.609Y16.764
X47.117Y58.928
X47.117Y58.166
X47.498Y31.242
X47.625Y7.874
X47.879Y24.13
X48.133Y14.478
X48.514Y25.4
X48.514Y13.335
X49.022Y58.42
X49.276Y3.048
X49.784Y6.604
X49.911Y58.293
X51.816Y20.701
X52.959Y27.559
X53.213Y16.891
X53.34Y14.732
X54.229Y35.56
X54.356Y57.658
X54.356Y23.495
X54.356Y20.32
X54.483Y18.669
X54.737Y50.038
X54.737Y31.623
X54.737Y9.398
X55.499Y6.35
X55.753Y14.351
X55.88Y27.305
X58.293Y57.531
X58.547Y44.704
X60.325Y57.404
X62.484Y4.699
X63.119Y49.911
X63.246Y58.547
X64.262Y37.338
X65.405Y51.181
X66.04Y53.594
X66.04Y52.832
X66.294Y56.007
X66.421Y62.23
X66.929Y65.659
X67.945Y43.561
X68.961Y54.737
X69.215Y49.022
X69.977Y37.719
X70.993Y37.338
X71.12Y3.175
X71.628Y65.659
X71.755Y63.881
X73.787Y44.831
X73.914Y51.054
X74.295Y52.324
X74.803Y63.5
X75.311Y49.149
X75.311Y36.957
X77.343Y5.461
X77.47Y39.624
X78.232Y58.166
X78.867Y42.164
X80.137Y49.149
X81.534Y37.084
X82.296Y50.165
X83.058Y68.707
X83.058Y58.801
X83.566Y51.943
X83.566Y49.276
X84.963Y61.087
X85.471Y64.897
X85.598Y41.021
X86.36Y49.276
X86.614Y37.465
X87.249Y49.276
X87.503Y68.961
X87.63Y44.577
X88.9Y6.096
X89.408Y49.149
X90.043Y67.564
X90.297Y64.135
X91.567Y42.037
X92.075Y52.705
X92.329Y46.863
X94.234Y60.452
X94.234Y59.436
X94.234Y58.42
X94.234Y57.404
X95.504Y60.452
X95.504Y59.436
X95.504Y58.42
X95.504Y57.404
X96.266Y51.943
X97.282Y44.069
X97.409Y53.975
X98.425Y58.039
T2
X6.477Y41.021
X8.636Y43.561
X8.636Y42.926
X8.636Y37.338
X8.636Y36.576
X10.541Y41.529
X11.684Y59.436
X11.684Y58.674
X11.684Y57.912
X12.446Y59.436
X12.446Y58.674
X12.446Y57.912
X12.954Y56.007
X12.954Y55.118
M30
