%TF.GenerationSoftware,KiCad,Pcbnew,10.99.0-unknown*%
%TF.CreationDate,2026-08-12T15:32:12+08:00*%
%TF.ProjectId,__LoRa_______,fa8e4c6f-5261-484e-90bf-1ae1c56e2e6b,rev?*%
%TF.SameCoordinates,Original*%
%TF.FileFunction,Other,User*%
%FSLAX46Y46*%
G04 Gerber Fmt 4.6, Leading zero omitted, Abs format (unit mm)*
G04 Created by KiCad (PCBNEW 10.99.0-unknown) date 2026-08-12 15:32:12*
%MOMM*%
%LPD*%
G01*
G04 APERTURE LIST*
%ADD10C,0.050000*%
G04 APERTURE END LIST*
%TO.C,C18*%
D10*
X278000Y11772000D02*
X3278000Y11772000D01*
X3278000Y10072000D01*
X278000Y10072000D01*
X278000Y11772000D01*
%TO.C,USB1*%
X2407000Y42311000D02*
X8007000Y42311000D01*
X8007000Y37191000D01*
X2407000Y37191000D01*
X2407000Y42311000D01*
%TO.C,J3*%
X3767000Y7654000D02*
X7287000Y7654000D01*
X7287000Y2854000D01*
X3767000Y2854000D01*
X3767000Y7654000D01*
%TO.C,J1*%
X3767000Y67654000D02*
X7287000Y67654000D01*
X7287000Y62854000D01*
X3767000Y62854000D01*
X3767000Y67654000D01*
%TO.C,C19*%
X4469000Y11010000D02*
X7469000Y11010000D01*
X7469000Y9310000D01*
X4469000Y9310000D01*
X4469000Y11010000D01*
%TO.C,SW4*%
X4625000Y60272000D02*
X8075000Y60272000D01*
X8075000Y56822000D01*
X4625000Y56822000D01*
X4625000Y60272000D01*
%TO.C,SW3*%
X4625000Y53160000D02*
X8075000Y53160000D01*
X8075000Y49710000D01*
X4625000Y49710000D01*
X4625000Y53160000D01*
%TO.C,U25*%
X5451511Y26992387D02*
X15171511Y26992387D01*
X15171511Y16792387D01*
X5451511Y16792387D01*
X5451511Y26992387D01*
%TO.C,C26*%
X8279000Y8216000D02*
X11279000Y8216000D01*
X11279000Y6516000D01*
X8279000Y6516000D01*
X8279000Y8216000D01*
%TO.C,R41*%
X9428885Y11630955D02*
X11128885Y11630955D01*
X11128885Y8630955D01*
X9428885Y8630955D01*
X9428885Y11630955D01*
%TO.C,D6*%
X8769000Y41828999D02*
X12219000Y41828999D01*
X12219000Y38378999D01*
X8769000Y38378999D01*
X8769000Y41828999D01*
%TO.C,R30*%
X8930436Y47611263D02*
X11930436Y47611263D01*
X11930436Y45911263D01*
X8930436Y45911263D01*
X8930436Y47611263D01*
%TO.C,R29*%
X8930436Y46214263D02*
X11930436Y46214263D01*
X11930436Y44514263D01*
X8930436Y44514263D01*
X8930436Y46214263D01*
%TO.C,C6*%
X8994000Y44763999D02*
X11994000Y44763999D01*
X11994000Y43063999D01*
X8994000Y43063999D01*
X8994000Y44763999D01*
%TO.C,R2*%
X8994000Y43366999D02*
X11994000Y43366999D01*
X11994000Y41666999D01*
X8994000Y41666999D01*
X8994000Y43366999D01*
%TO.C,R1*%
X8994000Y38286999D02*
X11994000Y38286999D01*
X11994000Y36586999D01*
X8994000Y36586999D01*
X8994000Y38286999D01*
%TO.C,X1*%
X9930000Y6057000D02*
X12930000Y6057000D01*
X12930000Y4357000D01*
X9930000Y4357000D01*
X9930000Y6057000D01*
%TO.C,R40*%
X10057000Y3898000D02*
X13057000Y3898000D01*
X13057000Y2198000D01*
X10057000Y2198000D01*
X10057000Y3898000D01*
%TO.C,R42*%
X10861889Y11632111D02*
X12561889Y11632111D01*
X12561889Y8632111D01*
X10861889Y8632111D01*
X10861889Y11632111D01*
%TO.C,C27*%
X11327000Y8216000D02*
X14327000Y8216000D01*
X14327000Y6516000D01*
X11327000Y6516000D01*
X11327000Y8216000D01*
%TO.C,SW6*%
X11544000Y67781200D02*
X15634000Y67781200D01*
X15634000Y64044800D01*
X11544000Y64044800D01*
X11544000Y67781200D01*
%TO.C,Q4*%
X13380000Y61535000D02*
X16330000Y61535000D01*
X16330000Y58353000D01*
X13380000Y58353000D01*
X13380000Y61535000D01*
%TO.C,R4*%
X13613000Y56857000D02*
X16613000Y56857000D01*
X16613000Y55157000D01*
X13613000Y55157000D01*
X13613000Y56857000D01*
%TO.C,R3*%
X13613000Y58254000D02*
X16613000Y58254000D01*
X16613000Y56554000D01*
X13613000Y56554000D01*
X13613000Y58254000D01*
%TO.C,C17*%
X13609952Y54063000D02*
X16609952Y54063000D01*
X16609952Y52363000D01*
X13609952Y52363000D01*
X13609952Y54063000D01*
%TO.C,R43*%
X13630272Y55460000D02*
X16630272Y55460000D01*
X16630272Y53760000D01*
X13630272Y53760000D01*
X13630272Y55460000D01*
%TO.C,R47*%
X14517000Y35028000D02*
X16217000Y35028000D01*
X16217000Y32028000D01*
X14517000Y32028000D01*
X14517000Y35028000D01*
%TO.C,U24*%
X13790000Y44314999D02*
X19390000Y44314999D01*
X19390000Y39194999D01*
X13790000Y39194999D01*
X13790000Y44314999D01*
%TO.C,R44*%
X16534000Y54063000D02*
X19534000Y54063000D01*
X19534000Y52363000D01*
X16534000Y52363000D01*
X16534000Y54063000D01*
%TO.C,R45*%
X16534000Y52666000D02*
X19534000Y52666000D01*
X19534000Y50966000D01*
X16534000Y50966000D01*
X16534000Y52666000D01*
%TO.C,C28*%
X16530952Y55460000D02*
X19530952Y55460000D01*
X19530952Y53760000D01*
X16530952Y53760000D01*
X16530952Y55460000D01*
%TO.C,D4*%
X17819000Y61825000D02*
X19519000Y61825000D01*
X19519000Y58825000D01*
X17819000Y58825000D01*
X17819000Y61825000D01*
%TO.C,R25*%
X18439000Y68287000D02*
X21439000Y68287000D01*
X21439000Y66587000D01*
X18439000Y66587000D01*
X18439000Y68287000D01*
%TO.C,LED3*%
X18439000Y69811000D02*
X21439000Y69811000D01*
X21439000Y68111000D01*
X18439000Y68111000D01*
X18439000Y69811000D01*
%TO.C,C5*%
X18773000Y48446999D02*
X21773000Y48446999D01*
X21773000Y46746999D01*
X18773000Y46746999D01*
X18773000Y48446999D01*
%TO.C,R46*%
X20740000Y29948000D02*
X22440000Y29948000D01*
X22440000Y26948000D01*
X20740000Y26948000D01*
X20740000Y29948000D01*
%TO.C,R32*%
X20831697Y43393696D02*
X22531697Y43393696D01*
X22531697Y40393696D01*
X20831697Y40393696D01*
X20831697Y43393696D01*
%TO.C,Q1*%
X20979697Y40316696D02*
X24161697Y40316696D01*
X24161697Y37366696D01*
X20979697Y37366696D01*
X20979697Y40316696D01*
%TO.C,Q2*%
X20979697Y46420696D02*
X24161697Y46420696D01*
X24161697Y43470696D01*
X20979697Y43470696D01*
X20979697Y46420696D01*
%TO.C,R31*%
X22482697Y43393696D02*
X24182697Y43393696D01*
X24182697Y40393696D01*
X22482697Y40393696D01*
X22482697Y43393696D01*
%TO.C,P1*%
X38734000Y7480000D02*
X43054000Y7480000D01*
X43054000Y2680000D01*
X38734000Y2680000D01*
X38734000Y7480000D01*
%TO.C,U23*%
X41149378Y67181610D02*
X44589278Y67181610D01*
X44589278Y63639210D01*
X41149378Y63639210D01*
X41149378Y67181610D01*
%TO.C,C15*%
X41264278Y69054410D02*
X44264278Y69054410D01*
X44264278Y67354410D01*
X41264278Y67354410D01*
X41264278Y69054410D01*
%TO.C,U22*%
X40939278Y63371610D02*
X44379178Y63371610D01*
X44379178Y59829210D01*
X40939278Y59829210D01*
X40939278Y63371610D01*
%TO.C,C14*%
X43169278Y59656410D02*
X46169278Y59656410D01*
X46169278Y57956410D01*
X43169278Y57956410D01*
X43169278Y59656410D01*
%TO.C,C16*%
X44708278Y66656410D02*
X46408278Y66656410D01*
X46408278Y63656410D01*
X44708278Y63656410D01*
X44708278Y66656410D01*
%TO.C,C13*%
X44743000Y63476000D02*
X46443000Y63476000D01*
X46443000Y60476000D01*
X44743000Y60476000D01*
X44743000Y63476000D01*
%TO.C,C9*%
X48045000Y63222000D02*
X49745000Y63222000D01*
X49745000Y60222000D01*
X48045000Y60222000D01*
X48045000Y63222000D01*
%TO.C,D5*%
X49046000Y66890000D02*
X52046000Y66890000D01*
X52046000Y65190000D01*
X49046000Y65190000D01*
X49046000Y66890000D01*
%TO.C,R24*%
X50458000Y62460000D02*
X52158000Y62460000D01*
X52158000Y59460000D01*
X50458000Y59460000D01*
X50458000Y62460000D01*
%TO.C,R22*%
X51855000Y62460000D02*
X53555000Y62460000D01*
X53555000Y59460000D01*
X51855000Y59460000D01*
X51855000Y62460000D01*
%TO.C,R48*%
X52236000Y23090000D02*
X53936000Y23090000D01*
X53936000Y20090000D01*
X52236000Y20090000D01*
X52236000Y23090000D01*
%TO.C,R49*%
X52236000Y26735599D02*
X53936000Y26735599D01*
X53936000Y23735599D01*
X52236000Y23735599D01*
X52236000Y26735599D01*
%TO.C,U3*%
X53376800Y63767000D02*
X57113200Y63767000D01*
X57113200Y59677000D01*
X53376800Y59677000D01*
X53376800Y63767000D01*
%TO.C,R50*%
X53695559Y25361000D02*
X56695559Y25361000D01*
X56695559Y23661000D01*
X53695559Y23661000D01*
X53695559Y25361000D01*
%TO.C,C31*%
X53717085Y18344098D02*
X56717085Y18344098D01*
X56717085Y16644098D01*
X53717085Y16644098D01*
X53717085Y18344098D01*
%TO.C,C32*%
X53745000Y16852000D02*
X56745000Y16852000D01*
X56745000Y15152000D01*
X53745000Y15152000D01*
X53745000Y16852000D01*
%TO.C,R51*%
X53745000Y23202000D02*
X56745000Y23202000D01*
X56745000Y21502000D01*
X53745000Y21502000D01*
X53745000Y23202000D01*
%TO.C,L2*%
X55523000Y67017000D02*
X58523000Y67017000D01*
X58523000Y65317000D01*
X55523000Y65317000D01*
X55523000Y67017000D01*
%TO.C,R23*%
X56935000Y62587000D02*
X58635000Y62587000D01*
X58635000Y59587000D01*
X56935000Y59587000D01*
X56935000Y62587000D01*
%TO.C,C8*%
X59348000Y62079000D02*
X61048000Y62079000D01*
X61048000Y59079000D01*
X59348000Y59079000D01*
X59348000Y62079000D01*
%TO.C,R12*%
X66968000Y58396000D02*
X68668000Y58396000D01*
X68668000Y55396000D01*
X66968000Y55396000D01*
X66968000Y58396000D01*
%TO.C,C2*%
X68365000Y58396000D02*
X70065000Y58396000D01*
X70065000Y55396000D01*
X68365000Y55396000D01*
X68365000Y58396000D01*
%TO.C,R26*%
X69880364Y58277636D02*
X71580364Y58277636D01*
X71580364Y55277636D01*
X69880364Y55277636D01*
X69880364Y58277636D01*
%TO.C,R27*%
X69239000Y53936000D02*
X72239000Y53936000D01*
X72239000Y52236000D01*
X69239000Y52236000D01*
X69239000Y53936000D01*
%TO.C,C10*%
X69493000Y52158000D02*
X72493000Y52158000D01*
X72493000Y50458000D01*
X69493000Y50458000D01*
X69493000Y52158000D01*
%TO.C,R6*%
X69620000Y55587000D02*
X72620000Y55587000D01*
X72620000Y53887000D01*
X69620000Y53887000D01*
X69620000Y55587000D01*
%TO.C,R16*%
X71159000Y58753632D02*
X72859000Y58753632D01*
X72859000Y55753632D01*
X71159000Y55753632D01*
X71159000Y58753632D01*
%TO.C,U1*%
X75285694Y57368839D02*
X78805694Y57368839D01*
X78805694Y52568839D01*
X75285694Y52568839D01*
X75285694Y57368839D01*
%TO.C,R8*%
X77382000Y63349000D02*
X79082000Y63349000D01*
X79082000Y60349000D01*
X77382000Y60349000D01*
X77382000Y63349000D01*
%TO.C,LED1*%
X77382000Y66524000D02*
X79082000Y66524000D01*
X79082000Y63524000D01*
X77382000Y63524000D01*
X77382000Y66524000D01*
%TO.C,C1*%
X77367000Y52031000D02*
X80367000Y52031000D01*
X80367000Y50331000D01*
X77367000Y50331000D01*
X77367000Y52031000D01*
%TO.C,LED2*%
X80557000Y66651000D02*
X82257000Y66651000D01*
X82257000Y63651000D01*
X80557000Y63651000D01*
X80557000Y66651000D01*
%TO.C,R7*%
X80684000Y63476000D02*
X82384000Y63476000D01*
X82384000Y60476000D01*
X80684000Y60476000D01*
X80684000Y63476000D01*
%TO.C,U2*%
X75691000Y24498000D02*
X80011000Y24498000D01*
X80011000Y19698000D01*
X75691000Y19698000D01*
X75691000Y24498000D01*
%TO.C,R28*%
X84098000Y58762000D02*
X87098000Y58762000D01*
X87098000Y57062000D01*
X84098000Y57062000D01*
X84098000Y58762000D01*
%TO.C,U4*%
X85555168Y55801366D02*
X89075168Y55801366D01*
X89075168Y51001366D01*
X85555168Y51001366D01*
X85555168Y55801366D01*
%TO.C,C11*%
X86888952Y58762000D02*
X89888952Y58762000D01*
X89888952Y57062000D01*
X86888952Y57062000D01*
X86888952Y58762000D01*
%TO.C,C12*%
X90082000Y55094000D02*
X91782000Y55094000D01*
X91782000Y52094000D01*
X90082000Y52094000D01*
X90082000Y55094000D01*
%TO.C,J2*%
X93767001Y67654000D02*
X97287001Y67654000D01*
X97287001Y62854000D01*
X93767001Y62854000D01*
X93767001Y67654000D01*
%TO.C,J4*%
X93767001Y7654000D02*
X97287001Y7654000D01*
X97287001Y2854000D01*
X93767001Y2854000D01*
X93767001Y7654000D01*
%TD*%
M02*
