%TF.GenerationSoftware,KiCad,Pcbnew,10.99.0-unknown*%
%TF.CreationDate,2026-08-12T15:32:12+08:00*%
%TF.ProjectId,__LoRa_______,fa8e4c6f-5261-484e-90bf-1ae1c56e2e6b,rev?*%
%TF.SameCoordinates,Original*%
%TF.FileFunction,Copper,L1,Top*%
%TF.FilePolarity,Positive*%
%FSLAX46Y46*%
G04 Gerber Fmt 4.6, Leading zero omitted, Abs format (unit mm)*
G04 Created by KiCad (PCBNEW 10.99.0-unknown) date 2026-08-12 15:32:12*
%MOMM*%
%LPD*%
G01*
G04 APERTURE LIST*
G04 Aperture macros list*
%AMRoundRect*
0 Rectangle with rounded corners*
0 $1 Rounding radius*
0 $2 $3 $4 $5 $6 $7 $8 $9 X,Y pos of 4 corners*
0 Add a 4 corners polygon primitive as box body*
4,1,4,$2,$3,$4,$5,$6,$7,$8,$9,$2,$3,0*
0 Add four circle primitives for the rounded corners*
1,1,$1+$1,$2,$3*
1,1,$1+$1,$4,$5*
1,1,$1+$1,$6,$7*
1,1,$1+$1,$8,$9*
0 Add four rect primitives between the rounded corners*
20,1,$1+$1,$2,$3,$4,$5,0*
20,1,$1+$1,$4,$5,$6,$7,0*
20,1,$1+$1,$6,$7,$8,$9,0*
20,1,$1+$1,$8,$9,$2,$3,0*%
G04 Aperture macros list end*
%TA.AperFunction,SMDPad,CuDef*%
%ADD10RoundRect,0.225000X-0.225000X-0.275000X0.225000X-0.275000X0.225000X0.275000X-0.225000X0.275000X0*%
%TD*%
%TA.AperFunction,SMDPad,CuDef*%
%ADD11RoundRect,0.105000X0.345000X-0.105000X0.345000X0.105000X-0.345000X0.105000X-0.345000X-0.105000X0*%
%TD*%
%TA.AperFunction,SMDPad,CuDef*%
%ADD12RoundRect,0.105000X-0.105000X-0.345000X0.105000X-0.345000X0.105000X0.345000X-0.105000X0.345000X0*%
%TD*%
%TA.AperFunction,SMDPad,CuDef*%
%ADD13C,0.750000*%
%TD*%
%TA.AperFunction,SMDPad,CuDef*%
%ADD14RoundRect,0.225000X-0.225000X-0.275000X0.225000X-0.275000X0.225000X0.275000X-0.225000X0.275000X0*%
%TD*%
%TA.AperFunction,ViaPad*%
%ADD15C,0.609600*%
%TD*%
%TA.AperFunction,ViaPad*%
%ADD16C,0.610000*%
%TD*%
%TA.AperFunction,Conductor*%
%ADD17C,0.762000*%
%TD*%
%TA.AperFunction,Conductor*%
%ADD18C,0.254000*%
%TD*%
%TA.AperFunction,Conductor*%
%ADD19C,0.508000*%
%TD*%
%TA.AperFunction,Conductor*%
%ADD20C,0.635000*%
%TD*%
G04 APERTURE END LIST*
D10*
%TO.P,C18,2*%
%TO.N,+3.3V*%
X1078000Y10922000D03*
%TO.P,C18,1*%
%TO.N,GND*%
X2478000Y10922000D03*
%TD*%
D11*
%TO.P,USB1,A1B12*%
%TO.N,GND*%
X7207000Y40951000D03*
%TO.P,USB1,A4B9*%
%TO.N,VUSB*%
X7207000Y40151000D03*
%TO.P,USB1,B1A12*%
%TO.N,GND*%
X7207000Y39351000D03*
%TO.P,USB1,B4A9*%
%TO.N,VUSB*%
X7207000Y38551000D03*
D12*
%TO.P,USB1,B5*%
%TO.N,$1N2249*%
X6407000Y37751000D03*
%TO.P,USB1,A8*%
%TO.N,N/C*%
X5607000Y37751000D03*
%TO.P,USB1,B6*%
%TO.N,USBD+*%
X4807000Y37751000D03*
%TO.P,USB1,A7*%
%TO.N,USBD-*%
X4007000Y37751000D03*
D11*
%TO.P,USB1,A6*%
%TO.N,USBD+*%
X3207000Y38551000D03*
%TO.P,USB1,B7*%
%TO.N,USBD-*%
X3207000Y39351000D03*
%TO.P,USB1,A5*%
%TO.N,$1N2250*%
X3207000Y40151000D03*
%TO.P,USB1,B8*%
%TO.N,N/C*%
X3207000Y40951000D03*
D12*
%TO.P,USB1,3*%
%TO.N,GND*%
X4007000Y41751000D03*
%TO.P,USB1,2*%
X4807000Y41751000D03*
%TO.P,USB1,1*%
X5607000Y41751000D03*
%TO.P,USB1,4*%
X6407000Y41751000D03*
%TD*%
D11*
%TO.P,J3,1*%
%TO.N,N/C*%
X4327000Y6854000D03*
%TO.P,J3,2*%
X5127000Y6854000D03*
%TO.P,J3,3*%
X5927000Y6854000D03*
D12*
%TO.P,J3,4*%
X6727000Y6054000D03*
%TO.P,J3,5*%
X6727000Y5254000D03*
%TO.P,J3,6*%
X6727000Y4454000D03*
D11*
%TO.P,J3,7*%
X5927000Y3654000D03*
%TO.P,J3,8*%
X5127000Y3654000D03*
%TO.P,J3,9*%
X4327000Y3654000D03*
%TD*%
%TO.P,J1,1*%
%TO.N,N/C*%
X4327000Y66854000D03*
%TO.P,J1,2*%
X5127000Y66854000D03*
%TO.P,J1,3*%
X5927000Y66854000D03*
D12*
%TO.P,J1,4*%
X6727000Y66054000D03*
%TO.P,J1,5*%
X6727000Y65254000D03*
%TO.P,J1,6*%
X6727000Y64454000D03*
D11*
%TO.P,J1,7*%
X5927000Y63654000D03*
%TO.P,J1,8*%
X5127000Y63654000D03*
%TO.P,J1,9*%
X4327000Y63654000D03*
%TD*%
D10*
%TO.P,C19,1*%
%TO.N,+3.3V*%
X5269000Y10160000D03*
%TO.P,C19,2*%
%TO.N,GND*%
X6669000Y10160000D03*
%TD*%
D13*
%TO.P,SW4,1*%
%TO.N,GND*%
X7350000Y58547000D03*
%TO.P,SW4,2*%
X6350000Y57547000D03*
%TO.P,SW4,3*%
%TO.N,$1N4668*%
X5350000Y58547000D03*
%TO.P,SW4,4*%
X6350000Y59547000D03*
%TD*%
%TO.P,SW3,1*%
%TO.N,GND*%
X7350000Y51435000D03*
%TO.P,SW3,2*%
X6350000Y50435000D03*
%TO.P,SW3,3*%
%TO.N,IO0*%
X5350000Y51435000D03*
%TO.P,SW3,4*%
X6350000Y52435000D03*
%TD*%
D11*
%TO.P,U25,1*%
%TO.N,GND*%
X6736511Y26192387D03*
%TO.P,U25,2*%
%TO.N,+3.3V*%
X7386511Y26192387D03*
%TO.P,U25,3*%
%TO.N,EN*%
X8036511Y26192387D03*
%TO.P,U25,4*%
%TO.N,N/C*%
X8686511Y26192387D03*
%TO.P,U25,5*%
X9336511Y26192387D03*
%TO.P,U25,6*%
%TO.N,AUX*%
X9986511Y26192387D03*
%TO.P,U25,7*%
%TO.N,N/C*%
X10636511Y26192387D03*
%TO.P,U25,8*%
%TO.N,$1N4180*%
X11286511Y26192387D03*
%TO.P,U25,9*%
%TO.N,$1N4212*%
X11936511Y26192387D03*
%TO.P,U25,10*%
%TO.N,M0*%
X12586511Y26192387D03*
%TO.P,U25,11*%
%TO.N,M1*%
X13236511Y26192387D03*
%TO.P,U25,12*%
%TO.N,N/C*%
X13886511Y26192387D03*
D12*
%TO.P,U25,13*%
%TO.N,IO14_TMS*%
X14611511Y25467387D03*
%TO.P,U25,14*%
%TO.N,IO12_TDI*%
X14611511Y24817387D03*
%TO.P,U25,15*%
%TO.N,GND*%
X14611511Y24167387D03*
%TO.P,U25,16*%
%TO.N,IO13_TCK*%
X14611511Y23517387D03*
%TO.P,U25,17*%
%TO.N,N/C*%
X14611511Y22867387D03*
%TO.P,U25,18*%
X14611511Y22217387D03*
%TO.P,U25,19*%
X14611511Y21567387D03*
%TO.P,U25,20*%
X14611511Y20917387D03*
%TO.P,U25,21*%
X14611511Y20267387D03*
%TO.P,U25,22*%
X14611511Y19617387D03*
%TO.P,U25,23*%
%TO.N,IO15_TDO*%
X14611511Y18967387D03*
%TO.P,U25,24*%
%TO.N,$1N4913*%
X14611511Y18317387D03*
D11*
%TO.P,U25,25*%
%TO.N,IO0*%
X13886511Y17592387D03*
%TO.P,U25,26*%
%TO.N,N/C*%
X13236511Y17592387D03*
%TO.P,U25,27*%
%TO.N,$1N4760*%
X12586511Y17592387D03*
%TO.P,U25,28*%
%TO.N,N/C*%
X11936511Y17592387D03*
%TO.P,U25,29*%
X11286511Y17592387D03*
%TO.P,U25,30*%
%TO.N,4G_TXD*%
X10636511Y17592387D03*
%TO.P,U25,31*%
%TO.N,4G_RXD*%
X9986511Y17592387D03*
%TO.P,U25,32*%
%TO.N,N/C*%
X9336511Y17592387D03*
%TO.P,U25,33*%
X8686511Y17592387D03*
%TO.P,U25,34*%
%TO.N,CH340TXD*%
X8036511Y17592387D03*
%TO.P,U25,35*%
%TO.N,CH340RXD*%
X7386511Y17592387D03*
%TO.P,U25,36*%
%TO.N,433TXD*%
X6736511Y17592387D03*
D12*
%TO.P,U25,37*%
%TO.N,433RXD*%
X6011511Y18317387D03*
%TO.P,U25,38*%
%TO.N,GND*%
X6011511Y18967387D03*
%TO.P,U25,39*%
X6011511Y19617387D03*
X6011511Y20267387D03*
X6011511Y20917387D03*
X6011511Y21567387D03*
X6011511Y22217387D03*
X6011511Y22867387D03*
X6011511Y23517387D03*
X6011511Y24167387D03*
X6011511Y24817387D03*
%TD*%
D10*
%TO.P,C26,2*%
%TO.N,32K_XP*%
X9079000Y7366000D03*
%TO.P,C26,1*%
%TO.N,GND*%
X10479000Y7366000D03*
%TD*%
D14*
%TO.P,R41,2*%
%TO.N,$1N4180*%
X10278885Y9430955D03*
%TO.P,R41,1*%
%TO.N,32K_XP*%
X10278885Y10830955D03*
%TD*%
D13*
%TO.P,D6,1*%
%TO.N,GND*%
X10494000Y39103999D03*
%TO.P,D6,2*%
%TO.N,USBD+*%
X9494000Y40103999D03*
%TO.P,D6,3*%
%TO.N,USBD-*%
X10494000Y41103999D03*
%TO.P,D6,4*%
%TO.N,VUSB*%
X11494000Y40103999D03*
%TD*%
D10*
%TO.P,R30,2*%
%TO.N,$1N2980*%
X9730436Y46761263D03*
%TO.P,R30,1*%
%TO.N,CH340TXD*%
X11130436Y46761263D03*
%TD*%
%TO.P,R29,2*%
%TO.N,$1N2979*%
X9730436Y45364263D03*
%TO.P,R29,1*%
%TO.N,CH340RXD*%
X11130436Y45364263D03*
%TD*%
%TO.P,C6,2*%
%TO.N,$1N2976*%
X9794000Y43913999D03*
%TO.P,C6,1*%
%TO.N,GND*%
X11194000Y43913999D03*
%TD*%
%TO.P,R2,2*%
%TO.N,GND*%
X9794000Y42516999D03*
%TO.P,R2,1*%
%TO.N,$1N2250*%
X11194000Y42516999D03*
%TD*%
%TO.P,R1,2*%
%TO.N,GND*%
X9794000Y37436999D03*
%TO.P,R1,1*%
%TO.N,$1N2249*%
X11194000Y37436999D03*
%TD*%
D14*
%TO.P,X1,2*%
%TO.N,32K_XP*%
X12130000Y5207000D03*
%TO.P,X1,1*%
%TO.N,32K_NP*%
X10730000Y5207000D03*
%TD*%
%TO.P,R40,2*%
%TO.N,32K_XP*%
X12257000Y3048000D03*
%TO.P,R40,1*%
%TO.N,32K_NP*%
X10857000Y3048000D03*
%TD*%
%TO.P,R42,2*%
%TO.N,$1N4212*%
X11711889Y9432111D03*
%TO.P,R42,1*%
%TO.N,32K_NP*%
X11711889Y10832111D03*
%TD*%
%TO.P,C27,2*%
%TO.N,32K_NP*%
X13527000Y7366000D03*
%TO.P,C27,1*%
%TO.N,GND*%
X12127000Y7366000D03*
%TD*%
D13*
%TO.P,SW6,5*%
%TO.N,VIN*%
X14909000Y65913000D03*
%TO.P,SW6,6*%
%TO.N,$1N2300*%
X14249000Y64769800D03*
%TO.P,SW6,1*%
%TO.N,N/C*%
X12929000Y64769800D03*
%TO.P,SW6,2*%
X12269000Y65913000D03*
%TO.P,SW6,3*%
X12929000Y67056200D03*
%TO.P,SW6,4*%
X14249000Y67056200D03*
%TD*%
%TO.P,Q4,2*%
%TO.N,$1N2300*%
X15605000Y59944000D03*
%TO.P,Q4,3*%
%TO.N,VBAT+*%
X14105000Y59078000D03*
%TO.P,Q4,1*%
%TO.N,$1N2251*%
X14105000Y60810000D03*
%TD*%
D14*
%TO.P,R4,2*%
%TO.N,VUSB*%
X15813000Y56007000D03*
%TO.P,R4,1*%
%TO.N,GND*%
X14413000Y56007000D03*
%TD*%
%TO.P,R3,2*%
%TO.N,$1N2251*%
X15813000Y57404000D03*
%TO.P,R3,1*%
%TO.N,VUSB*%
X14413000Y57404000D03*
%TD*%
%TO.P,C17,2*%
%TO.N,GND*%
X15809952Y53213000D03*
%TO.P,C17,1*%
%TO.N,$1N4668*%
X14409952Y53213000D03*
%TD*%
%TO.P,R43,2*%
%TO.N,$1N4668*%
X15830272Y54610000D03*
%TO.P,R43,1*%
%TO.N,EN*%
X14430272Y54610000D03*
%TD*%
%TO.P,R47,2*%
%TO.N,+3.3V*%
X15367000Y32828000D03*
%TO.P,R47,1*%
%TO.N,$1N4760*%
X15367000Y34228000D03*
%TD*%
D11*
%TO.P,U24,1*%
%TO.N,GND*%
X18590000Y42954999D03*
%TO.P,U24,2*%
%TO.N,$1N2980*%
X18590000Y42154999D03*
%TO.P,U24,3*%
%TO.N,$1N2979*%
X18590000Y41354999D03*
%TO.P,U24,4*%
%TO.N,$1N2976*%
X18590000Y40554999D03*
D12*
%TO.P,U24,5*%
%TO.N,USBD+*%
X17790000Y39754999D03*
%TO.P,U24,6*%
%TO.N,USBD-*%
X16990000Y39754999D03*
%TO.P,U24,7*%
%TO.N,N/C*%
X16190000Y39754999D03*
%TO.P,U24,8*%
X15390000Y39754999D03*
D11*
%TO.P,U24,16*%
%TO.N,+5V*%
X14590000Y40554999D03*
%TO.P,U24,15*%
%TO.N,N/C*%
X14590000Y41354999D03*
%TO.P,U24,14*%
%TO.N,$1N2983*%
X14590000Y42154999D03*
%TO.P,U24,13*%
%TO.N,$1N2982*%
X14590000Y42954999D03*
D12*
%TO.P,U24,12*%
%TO.N,N/C*%
X15390000Y43754999D03*
%TO.P,U24,11*%
X16190000Y43754999D03*
%TO.P,U24,10*%
X16990000Y43754999D03*
%TO.P,U24,9*%
X17790000Y43754999D03*
%TD*%
D14*
%TO.P,R44,2*%
%TO.N,EN*%
X18734000Y53213000D03*
%TO.P,R44,1*%
%TO.N,+3.3V*%
X17334000Y53213000D03*
%TD*%
%TO.P,R45,2*%
%TO.N,IO0*%
X18734000Y51816000D03*
%TO.P,R45,1*%
%TO.N,+3.3V*%
X17334000Y51816000D03*
%TD*%
%TO.P,C28,2*%
%TO.N,EN*%
X18730952Y54610000D03*
%TO.P,C28,1*%
%TO.N,GND*%
X17330952Y54610000D03*
%TD*%
D10*
%TO.P,D4,2*%
%TO.N,VUSB*%
X18669000Y61025000D03*
%TO.P,D4,1*%
%TO.N,$1N2300*%
X18669000Y59625000D03*
%TD*%
D14*
%TO.P,R25,2*%
%TO.N,VIN*%
X20639000Y67437000D03*
%TO.P,R25,1*%
%TO.N,$1N2265*%
X19239000Y67437000D03*
%TD*%
%TO.P,LED3,1*%
%TO.N,GND*%
X20639000Y68961000D03*
%TO.P,LED3,2*%
%TO.N,$1N2265*%
X19239000Y68961000D03*
%TD*%
D10*
%TO.P,C5,2*%
%TO.N,GND*%
X19573000Y47596999D03*
%TO.P,C5,1*%
%TO.N,+5V*%
X20973000Y47596999D03*
%TD*%
D14*
%TO.P,R46,2*%
%TO.N,GND*%
X21590000Y27748000D03*
%TO.P,R46,1*%
%TO.N,$1N4913*%
X21590000Y29148000D03*
%TD*%
%TO.P,R32,2*%
%TO.N,$1N2967*%
X21681697Y41193696D03*
%TO.P,R32,1*%
%TO.N,$1N2982*%
X21681697Y42593696D03*
%TD*%
D13*
%TO.P,Q1,1*%
%TO.N,$1N2968*%
X22570697Y39591696D03*
%TO.P,Q1,2*%
%TO.N,$1N2982*%
X23436697Y38091696D03*
%TO.P,Q1,3*%
%TO.N,IO0*%
X21704697Y38091696D03*
%TD*%
%TO.P,Q2,1*%
%TO.N,$1N2967*%
X22570697Y44195696D03*
%TO.P,Q2,2*%
%TO.N,$1N2983*%
X21704697Y45695696D03*
%TO.P,Q2,3*%
%TO.N,EN*%
X23436697Y45695696D03*
%TD*%
D10*
%TO.P,R31,2*%
%TO.N,$1N2968*%
X23332697Y42593696D03*
%TO.P,R31,1*%
%TO.N,$1N2983*%
X23332697Y41193696D03*
%TD*%
D11*
%TO.P,P1,1*%
%TO.N,+3.3V*%
X40094000Y6680000D03*
%TO.P,P1,2*%
%TO.N,IO14_TMS*%
X40894000Y6680000D03*
%TO.P,P1,3*%
%TO.N,GND*%
X41694000Y6680000D03*
D12*
%TO.P,P1,4*%
%TO.N,IO13_TCK*%
X42494000Y5880000D03*
%TO.P,P1,5*%
%TO.N,GND*%
X42494000Y5080000D03*
%TO.P,P1,6*%
%TO.N,IO15_TDO*%
X42494000Y4280000D03*
D11*
%TO.P,P1,7*%
%TO.N,N/C*%
X41694000Y3480000D03*
%TO.P,P1,8*%
%TO.N,IO12_TDI*%
X40894000Y3480000D03*
%TO.P,P1,9*%
%TO.N,GND*%
X40094000Y3480000D03*
D12*
%TO.P,P1,10*%
%TO.N,EN*%
X39294000Y4280000D03*
%TD*%
D13*
%TO.P,U23,1*%
%TO.N,+5V*%
X43864278Y65410410D03*
%TO.P,U23,2*%
%TO.N,GND*%
X43104178Y64364210D03*
%TO.P,U23,3*%
%TO.N,+5V*%
X41874378Y64763810D03*
%TO.P,U23,4*%
%TO.N,N/C*%
X41874378Y66057010D03*
%TO.P,U23,5*%
%TO.N,+3.3V*%
X43104178Y66456610D03*
%TD*%
D14*
%TO.P,C15,2*%
%TO.N,+3.3V*%
X43464278Y68204410D03*
%TO.P,C15,1*%
%TO.N,GND*%
X42064278Y68204410D03*
%TD*%
D13*
%TO.P,U22,1*%
%TO.N,+5V*%
X41664278Y61600410D03*
%TO.P,U22,2*%
%TO.N,GND*%
X42424378Y62646610D03*
%TO.P,U22,3*%
%TO.N,+5V*%
X43654178Y62247010D03*
%TO.P,U22,4*%
%TO.N,N/C*%
X43654178Y60953810D03*
%TO.P,U22,5*%
%TO.N,+3.3V*%
X42424378Y60554210D03*
%TD*%
D14*
%TO.P,C14,2*%
%TO.N,+3.3V*%
X45369278Y58806410D03*
%TO.P,C14,1*%
%TO.N,GND*%
X43969278Y58806410D03*
%TD*%
D10*
%TO.P,C16,2*%
%TO.N,+5V*%
X45558278Y65856410D03*
%TO.P,C16,1*%
%TO.N,GND*%
X45558278Y64456410D03*
%TD*%
D14*
%TO.P,C13,2*%
%TO.N,+5V*%
X45593000Y61276000D03*
%TO.P,C13,1*%
%TO.N,GND*%
X45593000Y62676000D03*
%TD*%
D10*
%TO.P,C9,1*%
%TO.N,+5V*%
X48895000Y62422000D03*
%TO.P,C9,2*%
%TO.N,GND*%
X48895000Y61022000D03*
%TD*%
%TO.P,D5,2*%
%TO.N,$1N2262*%
X49846000Y66040000D03*
%TO.P,D5,1*%
%TO.N,+5V*%
X51246000Y66040000D03*
%TD*%
D14*
%TO.P,R24,2*%
%TO.N,+5V*%
X51308000Y60260000D03*
%TO.P,R24,1*%
%TO.N,$1N2259*%
X51308000Y61660000D03*
%TD*%
D10*
%TO.P,R22,2*%
%TO.N,$1N2259*%
X52705000Y61660000D03*
%TO.P,R22,1*%
%TO.N,GND*%
X52705000Y60260000D03*
%TD*%
%TO.P,R48,2*%
%TO.N,+3.3V*%
X53086000Y22290000D03*
%TO.P,R48,1*%
%TO.N,433TXD*%
X53086000Y20890000D03*
%TD*%
D14*
%TO.P,R49,2*%
%TO.N,+3.3V*%
X53086000Y24535599D03*
%TO.P,R49,1*%
%TO.N,433RXD*%
X53086000Y25935599D03*
%TD*%
D13*
%TO.P,U3,1*%
%TO.N,$1N2262*%
X55245000Y60402000D03*
%TO.P,U3,2*%
%TO.N,GND*%
X54101800Y61062000D03*
%TO.P,U3,3*%
%TO.N,$1N2259*%
X54101800Y62382000D03*
%TO.P,U3,4*%
%TO.N,$1N2264*%
X55245000Y63042000D03*
%TO.P,U3,5*%
%TO.N,VIN*%
X56388200Y62382000D03*
%TO.P,U3,6*%
%TO.N,N/C*%
X56388200Y61062000D03*
%TD*%
D14*
%TO.P,R50,2*%
%TO.N,433RXD*%
X55895559Y24511000D03*
%TO.P,R50,1*%
%TO.N,$1N7932*%
X54495559Y24511000D03*
%TD*%
D10*
%TO.P,C31,2*%
%TO.N,+5V*%
X54517085Y17494098D03*
%TO.P,C31,1*%
%TO.N,GND*%
X55917085Y17494098D03*
%TD*%
%TO.P,C32,2*%
%TO.N,+5V*%
X54545000Y16002000D03*
%TO.P,C32,1*%
%TO.N,GND*%
X55945000Y16002000D03*
%TD*%
D14*
%TO.P,R51,2*%
%TO.N,433TXD*%
X55945000Y22352000D03*
%TO.P,R51,1*%
%TO.N,$1N7936*%
X54545000Y22352000D03*
%TD*%
D10*
%TO.P,L2,1*%
%TO.N,$1N2262*%
X56323000Y66167000D03*
%TO.P,L2,2*%
%TO.N,VIN*%
X57723000Y66167000D03*
%TD*%
%TO.P,R23,2*%
%TO.N,$1N2264*%
X57785000Y61787000D03*
%TO.P,R23,1*%
%TO.N,VIN*%
X57785000Y60387000D03*
%TD*%
%TO.P,C8,1*%
%TO.N,VIN*%
X60198000Y61279000D03*
%TO.P,C8,2*%
%TO.N,GND*%
X60198000Y59879000D03*
%TD*%
%TO.P,R12,2*%
%TO.N,GND*%
X67818000Y57596000D03*
%TO.P,R12,1*%
%TO.N,$1N2281*%
X67818000Y56196000D03*
%TD*%
D14*
%TO.P,C2,2*%
%TO.N,$1N2281*%
X69215000Y56196000D03*
%TO.P,C2,1*%
%TO.N,GND*%
X69215000Y57596000D03*
%TD*%
%TO.P,R26,2*%
%TO.N,$1N2281*%
X70730364Y56077636D03*
%TO.P,R26,1*%
%TO.N,$1N2273*%
X70730364Y57477636D03*
%TD*%
D10*
%TO.P,R27,2*%
%TO.N,$1N2273*%
X70039000Y53086000D03*
%TO.P,R27,1*%
%TO.N,VUSB*%
X71439000Y53086000D03*
%TD*%
D14*
%TO.P,C10,2*%
%TO.N,GND*%
X71693000Y51308000D03*
%TO.P,C10,1*%
%TO.N,$1N2273*%
X70293000Y51308000D03*
%TD*%
D10*
%TO.P,R6,2*%
%TO.N,$1N2268*%
X70420000Y54737000D03*
%TO.P,R6,1*%
%TO.N,GND*%
X71820000Y54737000D03*
%TD*%
D14*
%TO.P,R16,2*%
%TO.N,GND*%
X72009000Y56553632D03*
%TO.P,R16,1*%
%TO.N,$1N2281*%
X72009000Y57953632D03*
%TD*%
D11*
%TO.P,U1,5*%
%TO.N,VBAT+*%
X75845694Y56568839D03*
%TO.P,U1,6*%
%TO.N,$1N2276*%
X76645694Y56568839D03*
%TO.P,U1,7*%
%TO.N,$1N2271*%
X77445694Y56568839D03*
D12*
%TO.P,U1,8*%
%TO.N,$1N2273*%
X78245694Y55768839D03*
%TO.P,U1,4*%
X78245694Y54968839D03*
%TO.P,U1,3*%
%TO.N,GND*%
X78245694Y54168839D03*
D11*
%TO.P,U1,2*%
%TO.N,$1N2268*%
X77445694Y53368839D03*
%TO.P,U1,1*%
%TO.N,$1N2281*%
X76645694Y53368839D03*
%TO.P,U1,9*%
%TO.N,GND*%
X75845694Y53368839D03*
%TD*%
D14*
%TO.P,R8,2*%
%TO.N,$1N2279*%
X78232000Y61149000D03*
%TO.P,R8,1*%
%TO.N,$1N2271*%
X78232000Y62549000D03*
%TD*%
%TO.P,LED1,1*%
%TO.N,$1N2279*%
X78232000Y64324000D03*
%TO.P,LED1,2*%
%TO.N,$1N2273*%
X78232000Y65724000D03*
%TD*%
%TO.P,C1,2*%
%TO.N,GND*%
X79567000Y51181000D03*
%TO.P,C1,1*%
%TO.N,VBAT+*%
X78167000Y51181000D03*
%TD*%
%TO.P,LED2,1*%
%TO.N,$1N2272*%
X81407000Y64451000D03*
%TO.P,LED2,2*%
%TO.N,$1N2273*%
X81407000Y65851000D03*
%TD*%
%TO.P,R7,2*%
%TO.N,$1N2272*%
X81534000Y61276000D03*
%TO.P,R7,1*%
%TO.N,$1N2276*%
X81534000Y62676000D03*
%TD*%
D11*
%TO.P,U2,1*%
%TO.N,M0*%
X77051000Y23698000D03*
%TO.P,U2,5*%
%TO.N,AUX*%
X77851000Y23698000D03*
%TO.P,U2,4*%
%TO.N,$1N7936*%
X78651000Y23698000D03*
D12*
%TO.P,U2,3*%
%TO.N,$1N7932*%
X79451000Y22898000D03*
%TO.P,U2,2*%
%TO.N,M1*%
X79451000Y22098000D03*
%TO.P,U2,6*%
%TO.N,+5V*%
X79451000Y21298000D03*
D11*
%TO.P,U2,7*%
%TO.N,GND*%
X78651000Y20498000D03*
%TO.P,U2,10*%
%TO.N,N/C*%
X77851000Y20498000D03*
%TO.P,U2,9*%
X77051000Y20498000D03*
D12*
%TO.P,U2,8*%
X76251000Y21298000D03*
%TO.P,U2,11*%
X76251000Y22098000D03*
%TD*%
D10*
%TO.P,R28,2*%
%TO.N,$1N2285*%
X84898000Y57912000D03*
%TO.P,R28,1*%
%TO.N,VBAT+*%
X86298000Y57912000D03*
%TD*%
D11*
%TO.P,U4,1*%
%TO.N,N/C*%
X86115168Y55001366D03*
%TO.P,U4,2*%
%TO.N,GND*%
X86915168Y55001366D03*
%TO.P,U4,3*%
X87715168Y55001366D03*
D12*
%TO.P,U4,4*%
X88515168Y54201366D03*
%TO.P,U4,5*%
%TO.N,VBAT-*%
X88515168Y53401366D03*
%TO.P,U4,6*%
%TO.N,$1N2285*%
X88515168Y52601366D03*
D11*
%TO.P,U4,7*%
%TO.N,VBAT-*%
X87715168Y51801366D03*
%TO.P,U4,8*%
X86915168Y51801366D03*
%TO.P,U4,9*%
X86115168Y51801366D03*
%TD*%
D14*
%TO.P,C11,2*%
%TO.N,$1N2285*%
X89088952Y57912000D03*
%TO.P,C11,1*%
%TO.N,VBAT-*%
X87688952Y57912000D03*
%TD*%
%TO.P,C12,2*%
%TO.N,VBAT-*%
X90932000Y52894000D03*
%TO.P,C12,1*%
%TO.N,GND*%
X90932000Y54294000D03*
%TD*%
D11*
%TO.P,J2,1*%
%TO.N,N/C*%
X94327001Y66854000D03*
%TO.P,J2,2*%
X95127001Y66854000D03*
%TO.P,J2,3*%
X95927001Y66854000D03*
D12*
%TO.P,J2,4*%
X96727001Y66054000D03*
%TO.P,J2,5*%
X96727001Y65254000D03*
%TO.P,J2,6*%
X96727001Y64454000D03*
D11*
%TO.P,J2,7*%
X95927001Y63654000D03*
%TO.P,J2,8*%
X95127001Y63654000D03*
%TO.P,J2,9*%
X94327001Y63654000D03*
%TD*%
%TO.P,J4,1*%
%TO.N,N/C*%
X94327001Y6854000D03*
%TO.P,J4,2*%
X95127001Y6854000D03*
%TO.P,J4,3*%
X95927001Y6854000D03*
D12*
%TO.P,J4,4*%
X96727001Y6054000D03*
%TO.P,J4,5*%
X96727001Y5254000D03*
%TO.P,J4,6*%
X96727001Y4454000D03*
D11*
%TO.P,J4,7*%
X95927001Y3654000D03*
%TO.P,J4,8*%
X95127001Y3654000D03*
%TO.P,J4,9*%
X94327001Y3654000D03*
%TD*%
D15*
%TO.N,+3.3V*%
X762000Y9017000D03*
%TO.N,EN*%
X1016000Y28829000D03*
%TO.N,GND*%
X1143000Y4064000D03*
X1270000Y62865000D03*
X1524000Y7493000D03*
X1651000Y54991000D03*
X1651000Y46990000D03*
X1651000Y67310000D03*
X1905000Y58420000D03*
X2032000Y40894000D03*
X2159000Y22860000D03*
%TO.N,433RXD*%
X2286000Y27305000D03*
%TO.N,GND*%
X2286000Y51308000D03*
X2413000Y16002000D03*
X2413000Y20066000D03*
X2413000Y38354000D03*
X2540000Y14732000D03*
%TO.N,+3.3V*%
X2667000Y9144000D03*
%TO.N,GND*%
X2667000Y17780000D03*
X2794000Y45466000D03*
X3048000Y1651000D03*
%TO.N,433TXD*%
X3810000Y27051000D03*
%TO.N,GND*%
X4191000Y47371000D03*
X4191000Y54991000D03*
X4318000Y58674000D03*
%TO.N,EN*%
X4445000Y14605000D03*
%TO.N,GND*%
X4953000Y16256000D03*
X5588000Y19812000D03*
X5588000Y889000D03*
X5969000Y17018000D03*
X6096000Y24892000D03*
X6096000Y22606000D03*
X6350000Y45212000D03*
D16*
%TO.N,$1N2250*%
X6477000Y41021000D03*
D15*
%TO.N,GND*%
X6477000Y51562000D03*
X6477000Y69469000D03*
%TO.N,AUX*%
X7620000Y14732000D03*
%TO.N,GND*%
X7874000Y7874000D03*
X8001000Y24257000D03*
X8382000Y2159000D03*
X8509000Y45466000D03*
X8509000Y44577000D03*
D16*
%TO.N,VUSB*%
X8636000Y43561000D03*
X8636000Y42926000D03*
X8636000Y37338000D03*
X8636000Y36576000D03*
D15*
%TO.N,GND*%
X8763000Y62738000D03*
X8763000Y3429000D03*
X8890000Y5461000D03*
X9017000Y4572000D03*
X9017000Y1524000D03*
X9144000Y10160000D03*
X9398000Y17018000D03*
X9652000Y2159000D03*
X10033000Y24765000D03*
X10287000Y51181000D03*
D16*
%TO.N,$1N2250*%
X10541000Y41529000D03*
D15*
%TO.N,GND*%
X11049000Y36195000D03*
X11049000Y1778000D03*
X11303000Y6350000D03*
X11557000Y23114000D03*
X11557000Y4445000D03*
D16*
%TO.N,VBAT+*%
X11684000Y57912000D03*
X11684000Y59436000D03*
X11684000Y58674000D03*
D15*
%TO.N,$1N4760*%
X12192000Y17653000D03*
%TO.N,GND*%
X12319000Y1651000D03*
D16*
%TO.N,VBAT+*%
X12446000Y59436000D03*
X12446000Y57912000D03*
X12446000Y58674000D03*
D15*
%TO.N,GND*%
X12700000Y21209000D03*
%TO.N,M0*%
X12827000Y11176000D03*
%TO.N,GND*%
X12827000Y19558000D03*
D16*
%TO.N,VUSB*%
X12954000Y55118000D03*
D15*
%TO.N,GND*%
X12954000Y48133000D03*
D16*
%TO.N,VUSB*%
X12954000Y56007000D03*
D15*
%TO.N,M1*%
X13462000Y26162000D03*
%TO.N,GND*%
X13589000Y32893000D03*
X13589000Y1905000D03*
X13716000Y47625000D03*
X13970000Y36068000D03*
X13970000Y4826000D03*
%TO.N,M1*%
X14097000Y11176000D03*
%TO.N,GND*%
X14224000Y6350000D03*
X14351000Y1397000D03*
X14478000Y25146000D03*
X14478000Y48006000D03*
X14478000Y18542000D03*
X14478000Y3683000D03*
X14478000Y19558000D03*
X14478000Y2286000D03*
X14478000Y20955000D03*
X14478000Y8001000D03*
X14478000Y22606000D03*
X14478000Y24003000D03*
X14605000Y60071000D03*
X14732000Y62484000D03*
X14732000Y5334000D03*
X14859000Y28575000D03*
X14859000Y7366000D03*
X15113000Y2032000D03*
X15240000Y17018000D03*
X15367000Y6096000D03*
X15494000Y3556000D03*
X15621000Y4699000D03*
X15748000Y1397000D03*
X15748000Y7747000D03*
X16002000Y16256000D03*
%TO.N,EN*%
X16129000Y50419000D03*
%TO.N,+3.3V*%
X16510000Y35179000D03*
%TO.N,GND*%
X16637000Y59944000D03*
X17018000Y15240000D03*
%TO.N,EN*%
X17145000Y55880000D03*
%TO.N,GND*%
X17272000Y45720000D03*
X17272000Y28956000D03*
X17272000Y42672000D03*
X17272000Y40513000D03*
X17399000Y38227000D03*
X17526000Y33655000D03*
X17907000Y69215000D03*
%TO.N,VUSB*%
X18288000Y56515000D03*
%TO.N,GND*%
X18288000Y34798000D03*
%TO.N,AUX*%
X18669000Y11303000D03*
%TO.N,GND*%
X19177000Y4826000D03*
%TO.N,VUSB*%
X19304000Y56515000D03*
%TO.N,+5V*%
X19431000Y49022000D03*
%TO.N,M1*%
X19558000Y11557000D03*
%TO.N,GND*%
X19558000Y32893000D03*
%TO.N,+3.3V*%
X19939000Y51435000D03*
%TO.N,M0*%
X20193000Y10414000D03*
%TO.N,GND*%
X20193000Y31750000D03*
X20320000Y29210000D03*
X20320000Y55372000D03*
X20828000Y60325000D03*
%TO.N,IO13_TCK*%
X20955000Y17272000D03*
%TO.N,GND*%
X21336000Y55499000D03*
X22225000Y4064000D03*
X22225000Y68453000D03*
%TO.N,IO15_TDO*%
X22352000Y18288000D03*
%TO.N,GND*%
X22352000Y33274000D03*
X22479000Y62738000D03*
X22860000Y2032000D03*
X23241000Y28067000D03*
X24130000Y29845000D03*
X24638000Y60325000D03*
X25019000Y63119000D03*
X25654000Y51181000D03*
X26289000Y66929000D03*
X26543000Y52959000D03*
X26670000Y4826000D03*
X26924000Y58293000D03*
X27305000Y60452000D03*
X28575000Y16383000D03*
X28575000Y14605000D03*
X28702000Y50927000D03*
X28702000Y28448000D03*
X28956000Y61849000D03*
X28956000Y22098000D03*
X29210000Y45720000D03*
X29718000Y44450000D03*
X29845000Y25781000D03*
X30353000Y57658000D03*
X30861000Y68834000D03*
X30988000Y60071000D03*
X32512000Y51943000D03*
X32639000Y67056000D03*
X32766000Y6985000D03*
X32893000Y61849000D03*
X33401000Y58928000D03*
X33528000Y17145000D03*
X33782000Y1651000D03*
X34036000Y6096000D03*
X35306000Y69215000D03*
X35433000Y42545000D03*
X35560000Y43942000D03*
X35560000Y23876000D03*
X35560000Y50292000D03*
X35941000Y32512000D03*
X37338000Y16510000D03*
X37465000Y61722000D03*
X37465000Y29083000D03*
X37973000Y14986000D03*
X38100000Y52832000D03*
X38989000Y40640000D03*
X39243000Y65278000D03*
X39243000Y63373000D03*
%TO.N,+3.3V*%
X39497000Y59944000D03*
X40259000Y59944000D03*
%TO.N,GND*%
X40640000Y15367000D03*
X41148000Y45085000D03*
X41148000Y29845000D03*
X41529000Y56769000D03*
X42037000Y42672000D03*
X42164000Y50419000D03*
X42291000Y22606000D03*
X42799000Y66929000D03*
X42799000Y65405000D03*
X44323000Y61341000D03*
X44450000Y32131000D03*
X44577000Y67183000D03*
X44577000Y7747000D03*
X44831000Y68580000D03*
X44831000Y16764000D03*
X45593000Y60071000D03*
X45974000Y57658000D03*
X46101000Y10668000D03*
X46609000Y16764000D03*
%TO.N,+5V*%
X47117000Y58166000D03*
X47117000Y58928000D03*
%TO.N,GND*%
X47498000Y31242000D03*
X47625000Y7874000D03*
X47879000Y24130000D03*
X48133000Y14478000D03*
X48514000Y25400000D03*
X48514000Y13335000D03*
X49022000Y58420000D03*
X49276000Y3048000D03*
X49784000Y6604000D03*
%TO.N,VBAT-*%
X49911000Y58293000D03*
%TO.N,+3.3V*%
X51816000Y20701000D03*
X52959000Y27559000D03*
%TO.N,GND*%
X53213000Y16891000D03*
X53340000Y14732000D03*
X54229000Y35560000D03*
%TO.N,433RXD*%
X54356000Y23495000D03*
%TO.N,GND*%
X54356000Y57658000D03*
%TO.N,433TXD*%
X54356000Y20320000D03*
%TO.N,GND*%
X54483000Y18669000D03*
X54737000Y50038000D03*
X54737000Y31623000D03*
X54737000Y9398000D03*
X55499000Y6350000D03*
%TO.N,+5V*%
X55753000Y14351000D03*
%TO.N,GND*%
X55880000Y27305000D03*
X58293000Y57531000D03*
X58547000Y44704000D03*
X60325000Y57404000D03*
X62484000Y4699000D03*
X63119000Y49911000D03*
X63246000Y58547000D03*
X64262000Y37338000D03*
X65405000Y51181000D03*
%TO.N,VUSB*%
X66040000Y52832000D03*
X66040000Y53594000D03*
%TO.N,GND*%
X66294000Y56007000D03*
X66421000Y62230000D03*
X66929000Y65659000D03*
X67945000Y43561000D03*
X68961000Y54737000D03*
X69215000Y49022000D03*
X69977000Y37719000D03*
X70993000Y37338000D03*
X71120000Y3175000D03*
X71628000Y65659000D03*
X71755000Y63881000D03*
X73787000Y44831000D03*
X73914000Y51054000D03*
%TO.N,$1N2273*%
X74295000Y52324000D03*
%TO.N,GND*%
X74803000Y63500000D03*
X75311000Y36957000D03*
X75311000Y49149000D03*
X77343000Y5461000D03*
X77470000Y39624000D03*
%TO.N,$1N2273*%
X78232000Y58166000D03*
%TO.N,GND*%
X78867000Y42164000D03*
X80137000Y49149000D03*
X81534000Y37084000D03*
%TO.N,VBAT+*%
X82296000Y50165000D03*
%TO.N,GND*%
X83058000Y68707000D03*
X83058000Y58801000D03*
X83566000Y51943000D03*
X83566000Y49276000D03*
X84963000Y61087000D03*
X85471000Y64897000D03*
X85598000Y41021000D03*
X86360000Y49276000D03*
X86614000Y37465000D03*
X87249000Y49276000D03*
X87503000Y68961000D03*
X87630000Y44577000D03*
X88900000Y6096000D03*
X89408000Y49149000D03*
X90043000Y67564000D03*
X90297000Y64135000D03*
X91567000Y42037000D03*
X92075000Y52705000D03*
X92329000Y46863000D03*
%TO.N,VBAT-*%
X94234000Y60452000D03*
X94234000Y57404000D03*
X94234000Y58420000D03*
X94234000Y59436000D03*
X95504000Y58420000D03*
X95504000Y57404000D03*
X95504000Y60452000D03*
X95504000Y59436000D03*
%TO.N,GND*%
X96266000Y51943000D03*
X97282000Y44069000D03*
X97409000Y53975000D03*
X98425000Y58039000D03*
%TD*%
%TO.N,+3.3V*%
D17*
X807700Y9062700D02*
X807700Y9017000D01*
X1078000Y9333000D02*
X807700Y9062700D01*
%TO.N,EN*%
D18*
X1016000Y28829000D02*
X1016000Y26670000D01*
%TO.N,+3.3V*%
D17*
X1078000Y10922000D02*
X1078000Y9333000D01*
%TO.N,GND*%
D19*
X1309000Y12892300D02*
X1309000Y14898000D01*
X1309000Y14898000D02*
X2413000Y16002000D01*
D18*
X1800100Y53685100D02*
X2286000Y53199200D01*
%TO.N,433RXD*%
X2286000Y27305000D02*
X2286000Y30599500D01*
%TO.N,GND*%
X2286000Y53199200D02*
X2286000Y51308000D01*
%TO.N,433RXD*%
X2286000Y30599500D02*
X2579000Y30892500D01*
%TO.N,EN*%
X1016000Y26670000D02*
X3849000Y23837000D01*
%TO.N,+3.3V*%
D19*
X2540000Y11049000D02*
X2540000Y12853300D01*
X2540000Y12853300D02*
X2579000Y12892300D01*
X3175000Y10922000D02*
X2478000Y10922000D01*
X2667000Y9144000D02*
X3092500Y9144000D01*
X3092500Y9144000D02*
X4022700Y10074300D01*
X4022700Y10074300D02*
X3175000Y10922000D01*
%TO.N,433TXD*%
D18*
X3810000Y27051000D02*
X3810000Y30853500D01*
X3810000Y30853500D02*
X3849000Y30892500D01*
%TO.N,EN*%
X3849000Y23837000D02*
X3849000Y14136000D01*
X3849000Y12892300D02*
X3849000Y14136000D01*
%TO.N,+3.3V*%
D19*
X4064000Y10033000D02*
X4022700Y10074300D01*
X4022700Y10074300D02*
X4108400Y10160000D01*
%TO.N,EN*%
D18*
X3849000Y14136000D02*
X4318000Y14605000D01*
X4318000Y14605000D02*
X4445000Y14605000D01*
%TO.N,$1N2979*%
X4445000Y45593000D02*
X4445000Y32766000D01*
X4445000Y32766000D02*
X5080000Y32131000D01*
X5080000Y32131000D02*
X5080000Y30931500D01*
X5080000Y30931500D02*
X5119000Y30892500D01*
X6604000Y47752000D02*
X4445000Y45593000D01*
%TO.N,CH340TXD*%
X5665000Y45543000D02*
X5665000Y33451000D01*
X5665000Y33451000D02*
X6389000Y32727000D01*
X6883300Y46761300D02*
X5665000Y45543000D01*
%TO.N,$1N4668*%
X10899900Y56296900D02*
X1800100Y56296900D01*
%TO.N,IO0*%
X1800100Y49184900D02*
X10899900Y49184900D01*
%TO.N,CH340TXD*%
X6389000Y32727000D02*
X6389000Y30892500D01*
%TO.N,GND*%
D19*
X6994400Y43526200D02*
X6994400Y44071000D01*
%TO.N,$1N2250*%
D18*
X6477000Y41021000D02*
X7549400Y41021000D01*
%TO.N,GND*%
D19*
X7569500Y42951100D02*
X6994400Y43526200D01*
X7569500Y36006000D02*
X6994400Y35431000D01*
%TO.N,$1N2250*%
D18*
X7549400Y41021000D02*
X7569500Y41000900D01*
%TO.N,GND*%
D19*
X7569500Y36551100D02*
X7569500Y36006000D01*
%TO.N,AUX*%
D18*
X7659000Y14693000D02*
X7620000Y14732000D01*
X7659000Y12892300D02*
X7659000Y14693000D01*
%TO.N,USBD+*%
X7569500Y40001200D02*
X7823500Y40001200D01*
X7823500Y40001200D02*
X7870400Y40048100D01*
X7569500Y40000900D02*
X8132100Y40000900D01*
X8139900Y39000900D02*
X7569500Y39000900D01*
%TO.N,VUSB*%
D19*
X7442500Y42151000D02*
X8469800Y42151000D01*
X7442500Y37351000D02*
X8496000Y37351000D01*
%TO.N,CH340TXD*%
D18*
X9677100Y46761300D02*
X6883300Y46761300D01*
%TO.N,GND*%
D19*
X8989900Y20392100D02*
X7590200Y20392100D01*
D18*
X7569500Y38000900D02*
X9176700Y38000900D01*
%TO.N,$1N2979*%
X10160000Y47752000D02*
X6604000Y47752000D01*
%TO.N,GND*%
D17*
X7829500Y10160000D02*
X9144000Y10160000D01*
%TO.N,VUSB*%
D19*
X8496000Y37351000D02*
X8509000Y37338000D01*
X8469800Y42151000D02*
X8546400Y42074400D01*
X8509000Y42037000D02*
X8546400Y42074400D01*
X8546400Y42074400D02*
X8636000Y42164000D01*
X8636000Y42164000D02*
X8636000Y42926000D01*
%TO.N,GND*%
D18*
X9144000Y43942000D02*
X8509000Y44577000D01*
%TO.N,VUSB*%
D19*
X8546400Y42074400D02*
X9416900Y41203900D01*
%TO.N,GND*%
X8989900Y20392100D02*
X8989900Y21792400D01*
X8989900Y20392100D02*
X8989900Y18992300D01*
D18*
X9176700Y38000900D02*
X9740600Y37437000D01*
%TO.N,USBD-*%
X7569500Y40501100D02*
X11349900Y40501100D01*
%TO.N,GND*%
X9779000Y43942000D02*
X9144000Y43942000D01*
D19*
X8989900Y20392100D02*
X10389700Y20392100D01*
%TO.N,USBD+*%
D18*
X8132100Y40000900D02*
X11303000Y40000900D01*
%TO.N,GND*%
X9850400Y43914000D02*
X9794000Y43914000D01*
%TO.N,$1N2979*%
X9677100Y45364300D02*
X10414000Y46101200D01*
%TO.N,$1N2250*%
X9740600Y42517000D02*
X10541000Y41716600D01*
%TO.N,32K_XP*%
X10160000Y5207000D02*
X10160000Y7047000D01*
X10278900Y12812400D02*
X10199000Y12892300D01*
X10278900Y10884300D02*
X10278900Y12812400D01*
%TO.N,$1N2979*%
X10414000Y47498000D02*
X10160000Y47752000D01*
%TO.N,32K_XP*%
X10160000Y7047000D02*
X10479000Y7366000D01*
X10479000Y9177500D02*
X10278900Y9377600D01*
%TO.N,$1N2979*%
X10414000Y46101200D02*
X10414000Y47498000D01*
%TO.N,32K_XP*%
X10479000Y7366000D02*
X10479000Y9177500D01*
X10803600Y4558600D02*
X10155100Y5207100D01*
%TO.N,GND*%
D19*
X9744100Y39004100D02*
X11247400Y37500800D01*
%TO.N,$1N2250*%
D18*
X10541000Y41716600D02*
X10541000Y41529000D01*
%TO.N,GND*%
X11247400Y42517000D02*
X9850400Y43914000D01*
%TO.N,32K_XP*%
X10803600Y3048000D02*
X10803600Y4558600D01*
%TO.N,$1N4668*%
X10899900Y56156100D02*
X10899900Y56296900D01*
%TO.N,GND*%
D19*
X11176000Y36322000D02*
X11049000Y36195000D01*
X11176000Y37338000D02*
X11176000Y36322000D01*
X11247400Y37500800D02*
X11247400Y37437000D01*
%TO.N,CH340RXD*%
D18*
X11336100Y45212000D02*
X11183800Y45364300D01*
%TO.N,USBD+*%
X11303000Y39952300D02*
X11303000Y40000900D01*
%TO.N,USBD-*%
X11349900Y40501100D02*
X11303000Y40454100D01*
%TO.N,USBD+*%
X11444100Y39811200D02*
X11303000Y39952300D01*
%TO.N,GND*%
X11585000Y43914000D02*
X11194000Y43914000D01*
%TO.N,USBD-*%
X11349900Y40501100D02*
X11444100Y40595200D01*
%TO.N,CH340TXD*%
X11658700Y46761300D02*
X11183800Y46761300D01*
%TO.N,USBD-*%
X11444100Y41203900D02*
X11444100Y40595200D01*
%TO.N,USBD+*%
X11444100Y39004100D02*
X11444100Y39811200D01*
%TO.N,CH340RXD*%
X11684000Y45212000D02*
X11336100Y45212000D01*
%TO.N,32K_NP*%
X11711900Y12649400D02*
X11469000Y12892300D01*
%TO.N,USBD+*%
X11303000Y40000900D02*
X12069100Y40000900D01*
%TO.N,32K_NP*%
X11711900Y10885500D02*
X11711900Y12649400D01*
%TO.N,$1N4668*%
X12700000Y54356000D02*
X10899900Y56156100D01*
%TO.N,VBAT+*%
D20*
X11811000Y58300100D02*
X11811000Y58166000D01*
%TO.N,32K_NP*%
D18*
X11711900Y9378700D02*
X12127000Y8963700D01*
X12065000Y7493000D02*
X12065000Y5847100D01*
X12127000Y8963700D02*
X12127000Y7366000D01*
%TO.N,IO0*%
X10899900Y49184900D02*
X13531000Y51816000D01*
%TO.N,GND*%
X13109000Y42390000D02*
X11585000Y43914000D01*
%TO.N,32K_NP*%
X12065000Y5847100D02*
X12700000Y5212100D01*
%TO.N,USBD+*%
X12069100Y40000900D02*
X12827000Y39243000D01*
%TO.N,CH340RXD*%
X13236000Y43660000D02*
X11684000Y45212000D01*
%TO.N,32K_NP*%
X12700000Y3437600D02*
X12310400Y3048000D01*
%TO.N,CH340TXD*%
X13490000Y44930000D02*
X11658700Y46761300D01*
%TO.N,VBAT+*%
D20*
X13455000Y59944100D02*
X11811000Y58300100D01*
%TO.N,32K_NP*%
D18*
X12700000Y5212100D02*
X12700000Y3437600D01*
X12700000Y5212100D02*
X12705000Y5207100D01*
%TO.N,M0*%
X12739000Y12892300D02*
X12827000Y12804300D01*
X12827000Y12804300D02*
X12827000Y11176000D01*
%TO.N,USBD-*%
X13236000Y39850000D02*
X12631900Y40454100D01*
%TO.N,VUSB*%
D20*
X12954000Y55118000D02*
X12954000Y56007000D01*
%TO.N,$1N4668*%
D18*
X14122900Y54356000D02*
X12700000Y54356000D01*
%TO.N,GND*%
X13717500Y42390000D02*
X13109000Y42390000D01*
%TO.N,USBD-*%
X13717500Y39850000D02*
X13236000Y39850000D01*
%TO.N,CH340RXD*%
X13717500Y43660000D02*
X13236000Y43660000D01*
%TO.N,CH340TXD*%
X13717500Y44930000D02*
X13490000Y44930000D01*
%TO.N,VUSB*%
D20*
X12954000Y56007000D02*
X14359600Y56007000D01*
%TO.N,USBD+*%
D18*
X12827000Y39243000D02*
X14494100Y39243000D01*
%TO.N,GND*%
D19*
X13717500Y46200000D02*
X13717500Y47623500D01*
%TO.N,USBD+*%
D18*
X14196000Y41120000D02*
X13713400Y40637400D01*
%TO.N,M1*%
X14009000Y12892300D02*
X14009000Y11264000D01*
X14009000Y11264000D02*
X14097000Y11176000D01*
%TO.N,USBD+*%
X14252000Y41120000D02*
X14196000Y41120000D01*
%TO.N,$1N4668*%
X14376900Y54610000D02*
X14122900Y54356000D01*
%TO.N,VUSB*%
X14359600Y57598600D02*
X14359600Y57404000D01*
%TO.N,USBD+*%
X14869400Y40502600D02*
X14252000Y41120000D01*
X14494100Y39243000D02*
X14869400Y39618300D01*
X14869400Y39618300D02*
X14869400Y40502600D01*
%TO.N,$1N2265*%
D20*
X13589000Y63063200D02*
X16311800Y65786000D01*
%TO.N,VUSB*%
D18*
X15755000Y58994000D02*
X14359600Y57598600D01*
X14359600Y56007000D02*
X15756600Y57404000D01*
%TO.N,$1N4668*%
X14376900Y54610000D02*
X15773900Y53213000D01*
%TO.N,+3.3V*%
D19*
X15240000Y34925000D02*
X15240000Y34408400D01*
X15240000Y34408400D02*
X15367000Y34281400D01*
D18*
X15367000Y30980500D02*
X15279000Y30892500D01*
D19*
X15494000Y35179000D02*
X15240000Y34925000D01*
D18*
X15367000Y32774600D02*
X15367000Y30980500D01*
%TO.N,IO0*%
X13531000Y51816000D02*
X17280600Y51816000D01*
%TO.N,$1N2300*%
D20*
X15755000Y62364000D02*
X15755000Y60894000D01*
%TO.N,$1N4668*%
D18*
X15773900Y53213000D02*
X15810000Y53213000D01*
%TO.N,+3.3V*%
D19*
X16510000Y35179000D02*
X15494000Y35179000D01*
%TO.N,$1N2300*%
D20*
X16383000Y62992000D02*
X15755000Y62364000D01*
%TO.N,EN*%
D18*
X16764000Y49784000D02*
X16129000Y50419000D01*
%TO.N,IO14_TMS*%
X16549000Y3136000D02*
X16549000Y12892300D01*
%TO.N,EN*%
X15883600Y54610000D02*
X17330900Y54610000D01*
%TO.N,VUSB*%
D20*
X15866400Y57404000D02*
X17907000Y57404000D01*
%TO.N,$1N2300*%
X18130900Y63063000D02*
X16088900Y63063000D01*
%TO.N,EN*%
D18*
X17145000Y55880000D02*
X17330900Y55694100D01*
%TO.N,IO0*%
X17272000Y51181000D02*
X17272000Y51807400D01*
X17272000Y51807400D02*
X17280600Y51816000D01*
%TO.N,EN*%
X17280600Y53213000D02*
X17330900Y53263300D01*
X17330900Y53263300D02*
X17330900Y54610000D01*
X17330900Y55694100D02*
X17330900Y54610000D01*
%TO.N,IO14_TMS*%
X18288000Y1397000D02*
X16549000Y3136000D01*
%TO.N,$1N2265*%
D20*
X16311800Y65786000D02*
X18796000Y65786000D01*
%TO.N,IO12_TDI*%
D18*
X17653000Y4191000D02*
X17653000Y12726300D01*
%TO.N,IO0*%
X18161000Y50292000D02*
X17272000Y51181000D01*
%TO.N,IO12_TDI*%
X17653000Y12726300D02*
X17819000Y12892300D01*
%TO.N,IO0*%
X17819000Y32840000D02*
X17819000Y30892500D01*
%TO.N,VUSB*%
D20*
X17907000Y57404000D02*
X17947900Y57404000D01*
X17907000Y57404000D02*
X18288000Y57023000D01*
X18288000Y57023000D02*
X18288000Y56515000D01*
X17947900Y57404000D02*
X18669000Y58125100D01*
%TO.N,IO12_TDI*%
D18*
X19050000Y2794000D02*
X17653000Y4191000D01*
%TO.N,$1N2300*%
D20*
X18669000Y62524900D02*
X18130900Y63063000D01*
%TO.N,AUX*%
D18*
X18669000Y11303000D02*
X18669000Y7747000D01*
%TO.N,+3.3V*%
X18787400Y53213000D02*
X18787400Y51816000D01*
%TO.N,VUSB*%
D20*
X18288000Y56515000D02*
X19304000Y56515000D01*
%TO.N,EN*%
D18*
X21082000Y49784000D02*
X16764000Y49784000D01*
%TO.N,$1N2265*%
X19185600Y66175600D02*
X18796000Y65786000D01*
%TO.N,+3.3V*%
X19558000Y51816000D02*
X18787400Y51816000D01*
%TO.N,$1N2265*%
X19185600Y67437000D02*
X19185600Y66175600D01*
X19189700Y68939700D02*
X19189700Y68966100D01*
%TO.N,IO15_TDO*%
X19362500Y26289000D02*
X19314000Y26337500D01*
%TO.N,+5V*%
D19*
X19431000Y49022000D02*
X19573000Y48880000D01*
X19573000Y46310500D02*
X19462500Y46200000D01*
%TO.N,M1*%
D18*
X19558000Y9144000D02*
X19558000Y11557000D01*
%TO.N,$1N2983*%
X19657000Y43660000D02*
X19462500Y43660000D01*
%TO.N,+5V*%
D19*
X19573000Y48880000D02*
X19573000Y47597000D01*
X19573000Y47597000D02*
X19573000Y46310500D01*
%TO.N,+3.3V*%
D18*
X19939000Y51435000D02*
X19558000Y51816000D01*
%TO.N,AUX*%
X18669000Y7747000D02*
X20955000Y5461000D01*
%TO.N,$1N2967*%
X20221000Y42390000D02*
X19462500Y42390000D01*
%TO.N,$1N2265*%
X20692400Y67437000D02*
X19189700Y68939700D01*
%TO.N,IO13_TCK*%
X19314000Y17447500D02*
X20779500Y17447500D01*
%TO.N,IO15_TDO*%
X20955000Y26289000D02*
X19362500Y26289000D01*
%TO.N,M0*%
X20193000Y9525000D02*
X20193000Y10414000D01*
%TO.N,IO0*%
X22570700Y37591700D02*
X17819000Y32840000D01*
%TO.N,GND*%
X19314000Y27607500D02*
X21502900Y27607500D01*
%TO.N,$1N2983*%
X21209000Y45212000D02*
X19657000Y43660000D01*
%TO.N,M0*%
X21336000Y8382000D02*
X20193000Y9525000D01*
%TO.N,IO13_TCK*%
X20779500Y17447500D02*
X20955000Y17272000D01*
%TO.N,IO0*%
X23622000Y50292000D02*
X18161000Y50292000D01*
%TO.N,$1N2967*%
X21590000Y41021000D02*
X20221000Y42390000D01*
%TO.N,GND*%
X20789900Y68971200D02*
X21706800Y68971200D01*
X21502900Y27607500D02*
X21590000Y27694600D01*
%TO.N,$1N2982*%
X21620700Y44195700D02*
X21620700Y42708000D01*
X21620700Y42708000D02*
X21681700Y42647100D01*
%TO.N,$1N2967*%
X21620700Y39591700D02*
X21681700Y39652700D01*
%TO.N,IO15_TDO*%
X22352000Y24892000D02*
X20955000Y26289000D01*
%TO.N,$1N2967*%
X21681700Y39652700D02*
X21681700Y41140300D01*
%TO.N,EN*%
X22570700Y48295300D02*
X21082000Y49784000D01*
%TO.N,$1N2983*%
X22504400Y45212000D02*
X21209000Y45212000D01*
%TO.N,GND*%
X21706800Y68971200D02*
X22225000Y68453000D01*
%TO.N,M0*%
X22860000Y8382000D02*
X21336000Y8382000D01*
%TO.N,IO15_TDO*%
X22352000Y18288000D02*
X22352000Y24892000D01*
%TO.N,EN*%
X22570700Y46195700D02*
X22570700Y48295300D01*
%TO.N,M0*%
X22987000Y8509000D02*
X22860000Y8382000D01*
%TO.N,$1N2983*%
X23520700Y44195700D02*
X22504400Y45212000D01*
%TO.N,IO0*%
X22570700Y37591700D02*
X23494700Y37591700D01*
%TO.N,$1N2983*%
X23520700Y40952400D02*
X23332700Y41140300D01*
X23520700Y42835000D02*
X23332700Y42647100D01*
X23520700Y39591700D02*
X23520700Y40952400D01*
X23520700Y44195700D02*
X23520700Y42835000D01*
%TO.N,VUSB*%
D20*
X19304000Y56515000D02*
X27940000Y56515000D01*
%TO.N,M0*%
D18*
X24511000Y8509000D02*
X22987000Y8509000D01*
%TO.N,IO0*%
X23494700Y37591700D02*
X25146000Y39243000D01*
X25146000Y48768000D02*
X23622000Y50292000D01*
%TO.N,IO12_TDI*%
X29845000Y2794000D02*
X19050000Y2794000D01*
%TO.N,IO14_TMS*%
X30861000Y1397000D02*
X18288000Y1397000D01*
%TO.N,M0*%
X24765000Y8255000D02*
X24511000Y8509000D01*
X24765000Y7239000D02*
X24765000Y8255000D01*
X25146000Y6858000D02*
X24765000Y7239000D01*
%TO.N,IO0*%
X25146000Y39243000D02*
X25146000Y48768000D01*
%TO.N,AUX*%
X20955000Y5461000D02*
X29845000Y5461000D01*
%TO.N,M0*%
X29464000Y6858000D02*
X25146000Y6858000D01*
%TO.N,$1N2265*%
D20*
X18796000Y65786000D02*
X36576000Y65786000D01*
%TO.N,VUSB*%
X27940000Y56515000D02*
X29464000Y54991000D01*
%TO.N,M0*%
D18*
X32385000Y9779000D02*
X29464000Y6858000D01*
%TO.N,M1*%
X32766000Y9144000D02*
X29464000Y5842000D01*
%TO.N,AUX*%
X29845000Y5461000D02*
X33147000Y8763000D01*
%TO.N,IO12_TDI*%
X34671000Y7620000D02*
X29845000Y2794000D01*
%TO.N,IO14_TMS*%
X35814000Y6350000D02*
X30861000Y1397000D01*
%TO.N,$1N2265*%
D20*
X36576000Y65786000D02*
X40259000Y69469000D01*
%TO.N,IO12_TDI*%
D18*
X42164000Y7620000D02*
X34671000Y7620000D01*
%TO.N,+3.3V*%
D19*
X39878000Y59563000D02*
X39497000Y59944000D01*
X40767000Y59563000D02*
X39878000Y59563000D01*
%TO.N,M0*%
D18*
X48514000Y9779000D02*
X32385000Y9779000D01*
%TO.N,+3.3V*%
D19*
X40640000Y60198000D02*
X40386000Y59944000D01*
X40640000Y67691000D02*
X40640000Y60198000D01*
%TO.N,M1*%
D18*
X48641000Y9144000D02*
X32766000Y9144000D01*
%TO.N,+3.3V*%
D19*
X41153400Y68204400D02*
X40640000Y67691000D01*
X41650600Y58806400D02*
X40513000Y59944000D01*
%TO.N,AUX*%
D18*
X33147000Y8763000D02*
X49276000Y8763000D01*
%TO.N,+5V*%
D19*
X41529000Y62103000D02*
X41529000Y62468300D01*
%TO.N,+3.3V*%
X42064300Y68204400D02*
X41153400Y68204400D01*
%TO.N,+5V*%
X41529000Y62468300D02*
X41814300Y62753600D01*
X42037000Y61595000D02*
X41529000Y62103000D01*
X41814300Y64257300D02*
X41814300Y62753600D01*
%TO.N,+3.3V*%
X41814300Y66563600D02*
X42064300Y66813500D01*
X42064300Y66813500D02*
X42064300Y68204400D01*
%TO.N,+5V*%
X43388800Y61595000D02*
X42037000Y61595000D01*
%TO.N,GND*%
D18*
X42764300Y62753600D02*
X42764300Y64257300D01*
X42799000Y64262000D02*
X42799000Y65405000D01*
%TO.N,IO12_TDI*%
X43434000Y6350000D02*
X42164000Y7620000D01*
%TO.N,GND*%
X42799000Y65405000D02*
X42799000Y66929000D01*
%TO.N,+3.3V*%
D19*
X43969300Y58806400D02*
X41650600Y58806400D01*
%TO.N,GND*%
D18*
X42799000Y66929000D02*
X43464300Y67594300D01*
X43464300Y67594300D02*
X43464300Y68204400D01*
%TO.N,+5V*%
D19*
X43714200Y61920500D02*
X43388800Y61595000D01*
X43714200Y62753600D02*
X43714200Y61920500D01*
X43714200Y64257300D02*
X43714200Y62753600D01*
D17*
X43846000Y64389000D02*
X43714200Y64257300D01*
%TO.N,+3.3V*%
D19*
X43714200Y60447300D02*
X43969300Y60192200D01*
X43969300Y60192200D02*
X43969300Y58806400D01*
%TO.N,+5V*%
D17*
X45593000Y64389000D02*
X43846000Y64389000D01*
X45558300Y64456400D02*
X45593000Y64421700D01*
X45593000Y62676000D02*
X45593000Y63119000D01*
X45593000Y64389000D02*
X45593000Y63119000D01*
X45593000Y64421700D02*
X45593000Y64389000D01*
X45593000Y63119000D02*
X46101000Y63119000D01*
X47506600Y61713400D02*
X46101000Y63119000D01*
%TO.N,VUSB*%
D20*
X29464000Y54991000D02*
X64262000Y54991000D01*
%TO.N,+5V*%
D17*
X47117000Y61976000D02*
X47117000Y58928000D01*
X48346100Y66040000D02*
X48895000Y65491100D01*
X48768000Y63881000D02*
X48895000Y63754000D01*
X48895000Y65491100D02*
X48895000Y63754000D01*
X48895000Y63754000D02*
X48895000Y63582600D01*
X50935600Y61713400D02*
X47506600Y61713400D01*
%TO.N,M0*%
D18*
X50165000Y11430000D02*
X48514000Y9779000D01*
%TO.N,M1*%
X50673000Y11176000D02*
X48641000Y9144000D01*
%TO.N,+5V*%
D17*
X48895000Y63754000D02*
X50935600Y61713400D01*
%TO.N,M0*%
D18*
X50165000Y27432000D02*
X50165000Y11430000D01*
%TO.N,$1N2265*%
D20*
X60960000Y69469000D02*
X40259000Y69469000D01*
%TO.N,M1*%
D18*
X50673000Y26924000D02*
X50673000Y11176000D01*
%TO.N,AUX*%
X49276000Y8763000D02*
X52324000Y11811000D01*
%TO.N,+5V*%
D17*
X51308000Y61713400D02*
X50935600Y61713400D01*
%TO.N,M0*%
D18*
X52361000Y29628000D02*
X50165000Y27432000D01*
%TO.N,M1*%
X52451000Y28702000D02*
X50673000Y26924000D01*
%TO.N,$1N2259*%
D19*
X52705000Y60206600D02*
X51308000Y60206600D01*
%TO.N,AUX*%
D18*
X52324000Y11811000D02*
X52324000Y17907000D01*
%TO.N,+3.3V*%
D17*
X51816000Y20701000D02*
X52950400Y20701000D01*
X52959000Y27559000D02*
X52959000Y26116000D01*
X52950400Y20701000D02*
X53086000Y20836600D01*
X52959000Y26116000D02*
X53086000Y25989000D01*
%TO.N,433TXD*%
D18*
X53094600Y22352000D02*
X53086000Y22343400D01*
%TO.N,AUX*%
X52324000Y17907000D02*
X53885000Y19468000D01*
%TO.N,$1N2259*%
D19*
X53530500Y60206600D02*
X52705000Y60206600D01*
D18*
X52705000Y61713400D02*
X54087300Y61713400D01*
%TO.N,433RXD*%
X54413400Y24482200D02*
X53086000Y24482200D01*
%TO.N,433TXD*%
X53094600Y22352000D02*
X54491600Y22352000D01*
%TO.N,$1N2259*%
D19*
X54095900Y60772000D02*
X53530500Y60206600D01*
D18*
X54087300Y61713400D02*
X54095900Y61722000D01*
%TO.N,433RXD*%
X54356000Y23495000D02*
X54442200Y23581200D01*
%TO.N,433TXD*%
X54491600Y20455600D02*
X54356000Y20320000D01*
%TO.N,433RXD*%
X54442200Y24511000D02*
X54413400Y24482200D01*
X54442200Y23581200D02*
X54442200Y24511000D01*
%TO.N,433TXD*%
X54491600Y22352000D02*
X54491600Y20455600D01*
%TO.N,$1N2262*%
D19*
X54095900Y62672000D02*
X54973000Y63549000D01*
%TO.N,M1*%
D18*
X57088500Y28702000D02*
X52451000Y28702000D01*
%TO.N,$1N2262*%
D19*
X54973000Y63549000D02*
X54973000Y66167000D01*
%TO.N,M0*%
D18*
X58601000Y29628000D02*
X52361000Y29628000D01*
%TO.N,+5V*%
D17*
X55753000Y14351000D02*
X55945000Y14543000D01*
X55945000Y17466200D02*
X55917100Y17494100D01*
X55945000Y14543000D02*
X55945000Y16002000D01*
X55945000Y16002000D02*
X55945000Y17466200D01*
%TO.N,AUX*%
D18*
X53885000Y19468000D02*
X58702600Y19468000D01*
%TO.N,VIN*%
D19*
X56394100Y60772000D02*
X56832500Y60333600D01*
%TO.N,+5V*%
D17*
X56007000Y17653000D02*
X57977500Y17653000D01*
%TO.N,433TXD*%
D18*
X55998400Y22352000D02*
X58358500Y22352000D01*
%TO.N,433RXD*%
X55948900Y24511000D02*
X58665600Y24511000D01*
%TO.N,VIN*%
D19*
X56832500Y60333600D02*
X57785000Y60333600D01*
%TO.N,M1*%
D18*
X58702600Y27088000D02*
X57088500Y28702000D01*
%TO.N,+5V*%
D17*
X57977500Y17653000D02*
X58702600Y16928000D01*
%TO.N,433TXD*%
D18*
X58358500Y22352000D02*
X58702600Y22008000D01*
%TO.N,433RXD*%
X58665600Y24511000D02*
X58702600Y24548000D01*
%TO.N,$1N2265*%
D20*
X60280600Y62357000D02*
X60198000Y62439600D01*
X62357000Y62357000D02*
X60280600Y62357000D01*
X60960000Y69469000D02*
X63246000Y67183000D01*
X63246000Y63246000D02*
X62357000Y62357000D01*
X63246000Y67183000D02*
X63246000Y63246000D01*
%TO.N,VUSB*%
X64262000Y54991000D02*
X66040000Y53213000D01*
X66040000Y53594000D02*
X66040000Y53213000D01*
X66040000Y53213000D02*
X66040000Y52832000D01*
%TO.N,$1N2281*%
D18*
X67936400Y57531000D02*
X67818000Y57649400D01*
%TO.N,VUSB*%
D20*
X66167000Y53213000D02*
X69612000Y53213000D01*
%TO.N,$1N2281*%
D18*
X70730400Y57531000D02*
X67936400Y57531000D01*
%TO.N,VUSB*%
D20*
X69612000Y53213000D02*
X69739000Y53086000D01*
%TO.N,$1N2273*%
D18*
X71120000Y55634600D02*
X70730400Y56024300D01*
%TO.N,$1N2281*%
X70730400Y57531000D02*
X71440500Y56820800D01*
%TO.N,$1N2273*%
X71120000Y53705000D02*
X71120000Y55634600D01*
X71739000Y53086000D02*
X71120000Y53705000D01*
D17*
X71693000Y51308000D02*
X71739000Y51354000D01*
%TO.N,$1N2281*%
D18*
X71440500Y56820800D02*
X72009000Y56820800D01*
%TO.N,$1N2273*%
D17*
X71739000Y51354000D02*
X71739000Y53086000D01*
%TO.N,GND*%
D18*
X71873400Y54737000D02*
X72740200Y55603800D01*
%TO.N,$1N2273*%
D17*
X71739000Y53086000D02*
X73623500Y53086000D01*
%TO.N,$1N2281*%
D18*
X72009000Y56896000D02*
X73623500Y56896000D01*
%TO.N,GND*%
X72740200Y55603800D02*
X73645700Y55603800D01*
%TO.N,$1N2273*%
D17*
X73623500Y53086000D02*
X73645700Y53063800D01*
%TO.N,$1N2281*%
D18*
X73623500Y56896000D02*
X73645700Y56873800D01*
%TO.N,$1N2273*%
X73645700Y53063800D02*
X74295000Y52414500D01*
X74295000Y52414500D02*
X74295000Y52324000D01*
X76835000Y65151000D02*
X76835000Y59563000D01*
X77470000Y65786000D02*
X76835000Y65151000D01*
X76835000Y59563000D02*
X78232000Y58166000D01*
X78224400Y65786000D02*
X77470000Y65786000D01*
X78237100Y65773300D02*
X78224400Y65786000D01*
%TO.N,$1N2279*%
X78232000Y59944000D02*
X78232000Y61095600D01*
X78232000Y62602400D02*
X78242200Y62612500D01*
X78242200Y62612500D02*
X78242200Y64173100D01*
%TO.N,$1N2273*%
X78353500Y58166000D02*
X78232000Y58166000D01*
X79645700Y56873800D02*
X78353500Y58166000D01*
%TO.N,$1N2279*%
X80772000Y57404000D02*
X78232000Y59944000D01*
%TO.N,VBAT+*%
D17*
X79567000Y51181000D02*
X79645700Y51259700D01*
X79645700Y51259700D02*
X79645700Y53063800D01*
X79694000Y51308000D02*
X79645700Y51259700D01*
%TO.N,$1N2273*%
D18*
X78237100Y65773300D02*
X81285100Y65773300D01*
%TO.N,$1N2279*%
X79645700Y55603800D02*
X80572700Y55603800D01*
%TO.N,$1N2272*%
X80749800Y54333800D02*
X79645700Y54333800D01*
%TO.N,$1N2279*%
X80572700Y55603800D02*
X80772000Y55803200D01*
X80772000Y55803200D02*
X80772000Y57404000D01*
%TO.N,VBAT+*%
D17*
X82296000Y51308000D02*
X79694000Y51308000D01*
%TO.N,$1N2272*%
D18*
X81534000Y55118000D02*
X80749800Y54333800D01*
%TO.N,$1N2273*%
X81285100Y65773300D02*
X81412100Y65900300D01*
%TO.N,$1N2272*%
X81417200Y64300100D02*
X81534000Y64183300D01*
X81534000Y64183300D02*
X81534000Y62729400D01*
X81534000Y61222600D02*
X81534000Y55118000D01*
%TO.N,VBAT+*%
D17*
X82296000Y55363400D02*
X82296000Y51308000D01*
X82296000Y51308000D02*
X82296000Y50165000D01*
X84844600Y57912000D02*
X82296000Y55363400D01*
%TO.N,$1N2285*%
X87688900Y57912000D02*
X86351400Y57912000D01*
X87550200Y56309700D02*
X87550200Y57773200D01*
X87550200Y57773200D02*
X87688900Y57912000D01*
%TO.N,VBAT-*%
X88820200Y55306400D02*
X86915200Y53401400D01*
X88820200Y56309700D02*
X88820200Y55306400D01*
X89089000Y56578500D02*
X88820200Y56309700D01*
X89089000Y57912000D02*
X89089000Y56578500D01*
X93726000Y57912000D02*
X89089000Y57912000D01*
X94234000Y58420000D02*
X93726000Y57912000D01*
%TO.N,USBD-*%
D18*
X6477000Y40005000D02*
X6540500Y39951500D01*
X6540500Y39951500D02*
X6604000Y39895100D01*
X6604000Y39895100D02*
X6667500Y39835900D01*
X6667500Y39835900D02*
X6731000Y39773900D01*
X6731000Y39773900D02*
X6794500Y39708900D01*
X6794500Y39708900D02*
X6858000Y39641100D01*
X6858000Y39641100D02*
X6921500Y39570500D01*
X6921500Y39570500D02*
X6985000Y39497000D01*
X7039300Y40512900D02*
X6968500Y40452100D01*
X6968500Y40452100D02*
X6897700Y40388400D01*
X6897700Y40388400D02*
X6826900Y40321900D01*
X6826900Y40321900D02*
X6756100Y40252500D01*
X6756100Y40252500D02*
X6685300Y40180200D01*
X6685300Y40180200D02*
X6614400Y40105100D01*
X6614400Y40105100D02*
X6543600Y40027200D01*
X6543600Y40027200D02*
X6472800Y39946400D01*
%TO.N,USBD+*%
X8132100Y40000900D02*
X8195100Y39927900D01*
X8195100Y39927900D02*
X8258000Y39857800D01*
X8258000Y39857800D02*
X8321000Y39790500D01*
X8321000Y39790500D02*
X8384000Y39726100D01*
X8384000Y39726100D02*
X8447000Y39664500D01*
X8447000Y39664500D02*
X8510000Y39605800D01*
X8510000Y39605800D02*
X8573000Y39550000D01*
X8573000Y39550000D02*
X8636000Y39497000D01*
X8636000Y39497000D02*
X8574000Y39425000D01*
X8574000Y39425000D02*
X8512000Y39355800D01*
X8512000Y39355800D02*
X8450000Y39289500D01*
X8450000Y39289500D02*
X8388000Y39226100D01*
X8388000Y39226100D02*
X8326000Y39165500D01*
X8326000Y39165500D02*
X8264000Y39107800D01*
X8264000Y39107800D02*
X8201900Y39052900D01*
X8201900Y39052900D02*
X8139900Y39000900D01*
%TO.N,USBD-*%
X11303000Y40454100D02*
X12631900Y40454100D01*
%TO.N,M1*%
X29464000Y5842000D02*
X22860000Y5842000D01*
X22860000Y5842000D02*
X19558000Y9144000D01*
%TD*%
M02*
