%TF.GenerationSoftware,KiCad,Pcbnew,10.99.0-unknown*%
%TF.CreationDate,2026-08-12T15:32:12+08:00*%
%TF.ProjectId,__LoRa_______,fa8e4c6f-5261-484e-90bf-1ae1c56e2e6b,rev?*%
%TF.SameCoordinates,Original*%
%TF.FileFunction,Copper,L4,Bot*%
%TF.FilePolarity,Positive*%
%FSLAX46Y46*%
G04 Gerber Fmt 4.6, Leading zero omitted, Abs format (unit mm)*
G04 Created by KiCad (PCBNEW 10.99.0-unknown) date 2026-08-12 15:32:12*
%MOMM*%
%LPD*%
G01*
G04 APERTURE LIST*
G04 Aperture macros list*
%AMRoundRect*
0 Rectangle with rounded corners*
0 $1 Rounding radius*
0 $2 $3 $4 $5 $6 $7 $8 $9 X,Y pos of 4 corners*
0 Add a 4 corners polygon primitive as box body*
4,1,4,$2,$3,$4,$5,$6,$7,$8,$9,$2,$3,0*
0 Add four circle primitives for the rounded corners*
1,1,$1+$1,$2,$3*
1,1,$1+$1,$4,$5*
1,1,$1+$1,$6,$7*
1,1,$1+$1,$8,$9*
0 Add four rect primitives between the rounded corners*
20,1,$1+$1,$2,$3,$4,$5,0*
20,1,$1+$1,$4,$5,$6,$7,0*
20,1,$1+$1,$6,$7,$8,$9,0*
20,1,$1+$1,$8,$9,$2,$3,0*%
G04 Aperture macros list end*
%TA.AperFunction,SMDPad,CuDef*%
%ADD10RoundRect,0.225000X-0.225000X-0.275000X0.225000X-0.275000X0.225000X0.275000X-0.225000X0.275000X0*%
%TD*%
%TA.AperFunction,ViaPad*%
%ADD11C,0.609600*%
%TD*%
%TA.AperFunction,ViaPad*%
%ADD12C,0.610000*%
%TD*%
%TA.AperFunction,Conductor*%
%ADD13C,0.254000*%
%TD*%
%TA.AperFunction,Conductor*%
%ADD14C,0.508000*%
%TD*%
%TA.AperFunction,Conductor*%
%ADD15C,0.635000*%
%TD*%
%TA.AperFunction,Conductor*%
%ADD16C,0.762000*%
%TD*%
G04 APERTURE END LIST*
D10*
%TO.P,BT1,1*%
%TO.N,VBAT-*%
X49784000Y58358000D03*
%TO.P,BT1,2*%
%TO.N,VBAT+*%
X49784000Y56958000D03*
%TD*%
D11*
%TO.N,+3.3V*%
X762000Y9017000D03*
%TO.N,EN*%
X1016000Y28829000D03*
%TO.N,GND*%
X1143000Y4064000D03*
X1270000Y62865000D03*
X1524000Y7493000D03*
X1651000Y54991000D03*
X1651000Y46990000D03*
X1651000Y67310000D03*
X1905000Y58420000D03*
X2032000Y40894000D03*
X2159000Y22860000D03*
%TO.N,433RXD*%
X2286000Y27305000D03*
%TO.N,GND*%
X2286000Y51308000D03*
X2413000Y16002000D03*
X2413000Y20066000D03*
X2413000Y38354000D03*
X2540000Y14732000D03*
%TO.N,+3.3V*%
X2667000Y9144000D03*
%TO.N,GND*%
X2667000Y17780000D03*
X2794000Y45466000D03*
X3048000Y1651000D03*
%TO.N,433TXD*%
X3810000Y27051000D03*
%TO.N,GND*%
X4191000Y47371000D03*
X4191000Y54991000D03*
X4318000Y58674000D03*
%TO.N,EN*%
X4445000Y14605000D03*
%TO.N,GND*%
X4953000Y16256000D03*
X5588000Y19812000D03*
X5588000Y889000D03*
X5969000Y17018000D03*
X6096000Y24892000D03*
X6096000Y22606000D03*
X6350000Y45212000D03*
D12*
%TO.N,$1N2250*%
X6477000Y41021000D03*
D11*
%TO.N,GND*%
X6477000Y51562000D03*
X6477000Y69469000D03*
%TO.N,AUX*%
X7620000Y14732000D03*
%TO.N,GND*%
X7874000Y7874000D03*
X8001000Y24257000D03*
X8382000Y2159000D03*
X8509000Y45466000D03*
X8509000Y44577000D03*
D12*
%TO.N,VUSB*%
X8636000Y43561000D03*
X8636000Y42926000D03*
X8636000Y37338000D03*
X8636000Y36576000D03*
D11*
%TO.N,GND*%
X8763000Y62738000D03*
X8763000Y3429000D03*
X8890000Y5461000D03*
X9017000Y4572000D03*
X9017000Y1524000D03*
X9144000Y10160000D03*
X9398000Y17018000D03*
X9652000Y2159000D03*
X10033000Y24765000D03*
X10287000Y51181000D03*
D12*
%TO.N,$1N2250*%
X10541000Y41529000D03*
D11*
%TO.N,GND*%
X11049000Y36195000D03*
X11049000Y1778000D03*
X11303000Y6350000D03*
X11557000Y23114000D03*
X11557000Y4445000D03*
D12*
%TO.N,VBAT+*%
X11684000Y57912000D03*
X11684000Y59436000D03*
X11684000Y58674000D03*
D11*
%TO.N,$1N4760*%
X12192000Y17653000D03*
%TO.N,GND*%
X12319000Y1651000D03*
D12*
%TO.N,VBAT+*%
X12446000Y59436000D03*
X12446000Y57912000D03*
X12446000Y58674000D03*
D11*
%TO.N,GND*%
X12700000Y21209000D03*
%TO.N,M0*%
X12827000Y11176000D03*
%TO.N,GND*%
X12827000Y19558000D03*
D12*
%TO.N,VUSB*%
X12954000Y55118000D03*
D11*
%TO.N,GND*%
X12954000Y48133000D03*
D12*
%TO.N,VUSB*%
X12954000Y56007000D03*
D11*
%TO.N,M1*%
X13462000Y26162000D03*
%TO.N,GND*%
X13589000Y32893000D03*
X13589000Y1905000D03*
X13716000Y47625000D03*
X13970000Y36068000D03*
X13970000Y4826000D03*
%TO.N,M1*%
X14097000Y11176000D03*
%TO.N,GND*%
X14224000Y6350000D03*
X14351000Y1397000D03*
X14478000Y25146000D03*
X14478000Y48006000D03*
X14478000Y18542000D03*
X14478000Y3683000D03*
X14478000Y19558000D03*
X14478000Y2286000D03*
X14478000Y20955000D03*
X14478000Y8001000D03*
X14478000Y22606000D03*
X14478000Y24003000D03*
X14605000Y60071000D03*
X14732000Y62484000D03*
X14732000Y5334000D03*
X14859000Y28575000D03*
X14859000Y7366000D03*
X15113000Y2032000D03*
X15240000Y17018000D03*
X15367000Y6096000D03*
X15494000Y3556000D03*
X15621000Y4699000D03*
X15748000Y1397000D03*
X15748000Y7747000D03*
X16002000Y16256000D03*
%TO.N,EN*%
X16129000Y50419000D03*
%TO.N,+3.3V*%
X16510000Y35179000D03*
%TO.N,GND*%
X16637000Y59944000D03*
X17018000Y15240000D03*
%TO.N,EN*%
X17145000Y55880000D03*
%TO.N,GND*%
X17272000Y45720000D03*
X17272000Y28956000D03*
X17272000Y42672000D03*
X17272000Y40513000D03*
X17399000Y38227000D03*
X17526000Y33655000D03*
X17907000Y69215000D03*
%TO.N,VUSB*%
X18288000Y56515000D03*
%TO.N,GND*%
X18288000Y34798000D03*
%TO.N,AUX*%
X18669000Y11303000D03*
%TO.N,GND*%
X19177000Y4826000D03*
%TO.N,VUSB*%
X19304000Y56515000D03*
%TO.N,+5V*%
X19431000Y49022000D03*
%TO.N,M1*%
X19558000Y11557000D03*
%TO.N,GND*%
X19558000Y32893000D03*
%TO.N,+3.3V*%
X19939000Y51435000D03*
%TO.N,M0*%
X20193000Y10414000D03*
%TO.N,GND*%
X20193000Y31750000D03*
X20320000Y29210000D03*
X20320000Y55372000D03*
X20828000Y60325000D03*
%TO.N,IO13_TCK*%
X20955000Y17272000D03*
%TO.N,GND*%
X21336000Y55499000D03*
X22225000Y4064000D03*
X22225000Y68453000D03*
%TO.N,IO15_TDO*%
X22352000Y18288000D03*
%TO.N,GND*%
X22352000Y33274000D03*
X22479000Y62738000D03*
X22860000Y2032000D03*
X23241000Y28067000D03*
X24130000Y29845000D03*
X24638000Y60325000D03*
X25019000Y63119000D03*
X25654000Y51181000D03*
X26289000Y66929000D03*
X26543000Y52959000D03*
X26670000Y4826000D03*
X26924000Y58293000D03*
X27305000Y60452000D03*
X28575000Y16383000D03*
X28575000Y14605000D03*
X28702000Y50927000D03*
X28702000Y28448000D03*
X28956000Y61849000D03*
X28956000Y22098000D03*
X29210000Y45720000D03*
X29718000Y44450000D03*
X29845000Y25781000D03*
X30353000Y57658000D03*
X30861000Y68834000D03*
X30988000Y60071000D03*
X32512000Y51943000D03*
X32639000Y67056000D03*
X32766000Y6985000D03*
X32893000Y61849000D03*
X33401000Y58928000D03*
X33528000Y17145000D03*
X33782000Y1651000D03*
X34036000Y6096000D03*
X35306000Y69215000D03*
X35433000Y42545000D03*
X35560000Y43942000D03*
X35560000Y23876000D03*
X35560000Y50292000D03*
X35941000Y32512000D03*
X37338000Y16510000D03*
X37465000Y61722000D03*
X37465000Y29083000D03*
X37973000Y14986000D03*
X38100000Y52832000D03*
X38989000Y40640000D03*
X39243000Y65278000D03*
X39243000Y63373000D03*
%TO.N,+3.3V*%
X39497000Y59944000D03*
X40259000Y59944000D03*
%TO.N,GND*%
X40640000Y15367000D03*
X41148000Y45085000D03*
X41148000Y29845000D03*
X41529000Y56769000D03*
X42037000Y42672000D03*
X42164000Y50419000D03*
X42291000Y22606000D03*
X42799000Y66929000D03*
X42799000Y65405000D03*
X44323000Y61341000D03*
X44450000Y32131000D03*
X44577000Y67183000D03*
X44577000Y7747000D03*
X44831000Y68580000D03*
X44831000Y16764000D03*
X45593000Y60071000D03*
X45974000Y57658000D03*
X46101000Y10668000D03*
X46609000Y16764000D03*
%TO.N,+5V*%
X47117000Y58166000D03*
X47117000Y58928000D03*
%TO.N,GND*%
X47498000Y31242000D03*
X47625000Y7874000D03*
X47879000Y24130000D03*
X48133000Y14478000D03*
X48514000Y25400000D03*
X48514000Y13335000D03*
X49022000Y58420000D03*
X49276000Y3048000D03*
X49784000Y6604000D03*
%TO.N,VBAT-*%
X49911000Y58293000D03*
%TO.N,+3.3V*%
X51816000Y20701000D03*
X52959000Y27559000D03*
%TO.N,GND*%
X53213000Y16891000D03*
X53340000Y14732000D03*
X54229000Y35560000D03*
%TO.N,433RXD*%
X54356000Y23495000D03*
%TO.N,GND*%
X54356000Y57658000D03*
%TO.N,433TXD*%
X54356000Y20320000D03*
%TO.N,GND*%
X54483000Y18669000D03*
X54737000Y50038000D03*
X54737000Y31623000D03*
X54737000Y9398000D03*
X55499000Y6350000D03*
%TO.N,+5V*%
X55753000Y14351000D03*
%TO.N,GND*%
X55880000Y27305000D03*
X58293000Y57531000D03*
X58547000Y44704000D03*
X60325000Y57404000D03*
X62484000Y4699000D03*
X63119000Y49911000D03*
X63246000Y58547000D03*
X64262000Y37338000D03*
X65405000Y51181000D03*
%TO.N,VUSB*%
X66040000Y52832000D03*
X66040000Y53594000D03*
%TO.N,GND*%
X66294000Y56007000D03*
X66421000Y62230000D03*
X66929000Y65659000D03*
X67945000Y43561000D03*
X68961000Y54737000D03*
X69215000Y49022000D03*
X69977000Y37719000D03*
X70993000Y37338000D03*
X71120000Y3175000D03*
X71628000Y65659000D03*
X71755000Y63881000D03*
X73787000Y44831000D03*
X73914000Y51054000D03*
%TO.N,$1N2273*%
X74295000Y52324000D03*
%TO.N,GND*%
X74803000Y63500000D03*
X75311000Y36957000D03*
X75311000Y49149000D03*
X77343000Y5461000D03*
X77470000Y39624000D03*
%TO.N,$1N2273*%
X78232000Y58166000D03*
%TO.N,GND*%
X78867000Y42164000D03*
X80137000Y49149000D03*
X81534000Y37084000D03*
%TO.N,VBAT+*%
X82296000Y50165000D03*
%TO.N,GND*%
X83058000Y68707000D03*
X83058000Y58801000D03*
X83566000Y51943000D03*
X83566000Y49276000D03*
X84963000Y61087000D03*
X85471000Y64897000D03*
X85598000Y41021000D03*
X86360000Y49276000D03*
X86614000Y37465000D03*
X87249000Y49276000D03*
X87503000Y68961000D03*
X87630000Y44577000D03*
X88900000Y6096000D03*
X89408000Y49149000D03*
X90043000Y67564000D03*
X90297000Y64135000D03*
X91567000Y42037000D03*
X92075000Y52705000D03*
X92329000Y46863000D03*
%TO.N,VBAT-*%
X94234000Y60452000D03*
X94234000Y57404000D03*
X94234000Y58420000D03*
X94234000Y59436000D03*
X95504000Y58420000D03*
X95504000Y57404000D03*
X95504000Y60452000D03*
X95504000Y59436000D03*
%TO.N,GND*%
X96266000Y51943000D03*
X97282000Y44069000D03*
X97409000Y53975000D03*
X98425000Y58039000D03*
%TD*%
%TO.N,EN*%
D13*
X1016000Y28829000D02*
X1016000Y32893000D01*
%TO.N,+3.3V*%
D14*
X1270000Y27686000D02*
X1270000Y9779000D01*
%TO.N,EN*%
D13*
X1016000Y32893000D02*
X1524000Y33401000D01*
%TO.N,+3.3V*%
D14*
X1270000Y9779000D02*
X1905000Y9144000D01*
X2288500Y8760500D02*
X1905000Y9144000D01*
X2667000Y9144000D02*
X1905000Y9144000D01*
%TO.N,433RXD*%
D13*
X2286000Y27305000D02*
X2616200Y27635200D01*
%TO.N,+3.3V*%
D14*
X6223000Y32639000D02*
X1270000Y27686000D01*
%TO.N,EN*%
D13*
X4445000Y14478000D02*
X4622800Y14655800D01*
X5334000Y15494000D02*
X4445000Y14605000D01*
X1524000Y33401000D02*
X9271000Y33401000D01*
%TO.N,$1N2250*%
X6985000Y41529000D02*
X6477000Y41021000D01*
%TO.N,VUSB*%
D14*
X8636000Y43561000D02*
X8636000Y42926000D01*
%TO.N,+3.3V*%
X11049000Y32639000D02*
X6223000Y32639000D01*
%TO.N,VUSB*%
X8636000Y36576000D02*
X8636000Y37338000D01*
%TO.N,$1N2250*%
D13*
X10541000Y41529000D02*
X6985000Y41529000D01*
%TO.N,433TXD*%
X3810000Y27051000D02*
X14224000Y27051000D01*
%TO.N,433RXD*%
X2616200Y27635200D02*
X15417800Y27635200D01*
%TO.N,VUSB*%
D15*
X8636000Y43561000D02*
X9779000Y43561000D01*
X10414000Y37338000D02*
X8636000Y37338000D01*
%TO.N,EN*%
D13*
X14859000Y15494000D02*
X5334000Y15494000D01*
%TO.N,+3.3V*%
D14*
X18793500Y8760500D02*
X2288500Y8760500D01*
%TO.N,VUSB*%
D15*
X9779000Y43561000D02*
X11620500Y41719500D01*
%TO.N,AUX*%
D13*
X14351000Y14732000D02*
X7620000Y14732000D01*
%TO.N,VUSB*%
D15*
X11684000Y38608000D02*
X10414000Y37338000D01*
D14*
X11620500Y41719500D02*
X11557000Y41656000D01*
D15*
X11620500Y41719500D02*
X11684000Y41656000D01*
X11684000Y41656000D02*
X11684000Y38608000D01*
X12065000Y42164000D02*
X11620500Y41719500D01*
X12065000Y50546000D02*
X12065000Y42164000D01*
%TO.N,+3.3V*%
D14*
X13335000Y34925000D02*
X11049000Y32639000D01*
%TO.N,EN*%
D13*
X9271000Y33401000D02*
X15113000Y39243000D01*
%TO.N,VBAT+*%
D16*
X12446000Y59436000D02*
X12446000Y61849000D01*
%TO.N,VUSB*%
D15*
X12954000Y51435000D02*
X12065000Y50546000D01*
X12954000Y55118000D02*
X12954000Y51435000D01*
%TO.N,M0*%
D13*
X12827000Y11176000D02*
X14224000Y9779000D01*
%TO.N,VBAT+*%
D16*
X12446000Y61849000D02*
X15621000Y65024000D01*
%TO.N,M1*%
D13*
X14097000Y10795000D02*
X14097000Y11176000D01*
%TO.N,+3.3V*%
D14*
X14986000Y34925000D02*
X13335000Y34925000D01*
%TO.N,M1*%
D13*
X14605000Y10287000D02*
X14097000Y10795000D01*
%TO.N,EN*%
X15113000Y39243000D02*
X15113000Y48387000D01*
%TO.N,+3.3V*%
D14*
X15367000Y35306000D02*
X14986000Y34925000D01*
%TO.N,EN*%
D13*
X15748000Y14605000D02*
X14859000Y15494000D01*
%TO.N,+3.3V*%
D14*
X15875000Y35814000D02*
X15367000Y35306000D01*
X15367000Y35306000D02*
X16383000Y35306000D01*
%TO.N,EN*%
D13*
X15113000Y48387000D02*
X16637000Y49911000D01*
%TO.N,+3.3V*%
D14*
X15875000Y36068000D02*
X15875000Y35814000D01*
X15875000Y48006000D02*
X15875000Y36068000D01*
%TO.N,AUX*%
D13*
X17780000Y11303000D02*
X14351000Y14732000D01*
%TO.N,EN*%
X16510000Y50038000D02*
X16129000Y50419000D01*
%TO.N,+3.3V*%
D14*
X16383000Y35306000D02*
X16510000Y35179000D01*
%TO.N,EN*%
D13*
X16510000Y49911000D02*
X16510000Y50038000D01*
X16637000Y49911000D02*
X16637000Y55372000D01*
%TO.N,M1*%
X18923000Y10287000D02*
X14605000Y10287000D01*
%TO.N,EN*%
X16637000Y55372000D02*
X17145000Y55880000D01*
%TO.N,M0*%
X14224000Y9779000D02*
X19558000Y9779000D01*
%TO.N,+3.3V*%
D14*
X18415000Y50546000D02*
X15875000Y48006000D01*
%TO.N,433TXD*%
D13*
X14224000Y27051000D02*
X21844000Y19431000D01*
%TO.N,AUX*%
X18669000Y11303000D02*
X17780000Y11303000D01*
%TO.N,EN*%
X21463000Y14605000D02*
X15748000Y14605000D01*
%TO.N,+3.3V*%
D14*
X18859500Y8826500D02*
X18793500Y8760500D01*
%TO.N,433RXD*%
D13*
X15417800Y27635200D02*
X22479000Y20574000D01*
%TO.N,M1*%
X19558000Y10922000D02*
X18923000Y10287000D01*
%TO.N,+3.3V*%
D14*
X20320000Y50546000D02*
X18415000Y50546000D01*
%TO.N,M1*%
D13*
X19558000Y11557000D02*
X19558000Y10922000D01*
%TO.N,M0*%
X19558000Y9779000D02*
X20193000Y10414000D01*
%TO.N,+3.3V*%
D14*
X19939000Y50927000D02*
X19939000Y51435000D01*
X20320000Y50546000D02*
X19939000Y50927000D01*
X20828000Y50546000D02*
X20320000Y50546000D01*
%TO.N,IO13_TCK*%
D13*
X20955000Y16129000D02*
X20955000Y17399000D01*
%TO.N,+3.3V*%
D14*
X15875000Y36068000D02*
X26162000Y36068000D01*
X22352000Y52070000D02*
X20828000Y50546000D01*
X22352000Y54991000D02*
X22352000Y52070000D01*
%TO.N,IO15_TDO*%
D13*
X22352000Y16764000D02*
X22352000Y18415000D01*
%TO.N,+3.3V*%
D14*
X23114000Y55753000D02*
X22352000Y54991000D01*
%TO.N,EN*%
D13*
X21539200Y14655800D02*
X26543000Y9652000D01*
%TO.N,IO13_TCK*%
X29083000Y8001000D02*
X20955000Y16129000D01*
%TO.N,VBAT+*%
D16*
X15621000Y65024000D02*
X36322000Y65024000D01*
%TO.N,IO15_TDO*%
D13*
X30226000Y8890000D02*
X22352000Y16764000D01*
%TO.N,EN*%
X26543000Y9652000D02*
X26543000Y8255000D01*
X26543000Y8255000D02*
X29718000Y5080000D01*
%TO.N,+3.3V*%
D14*
X35814000Y55753000D02*
X23241000Y55753000D01*
X26162000Y36068000D02*
X34544000Y27686000D01*
X35814000Y3810000D02*
X25019000Y3810000D01*
%TO.N,+5V*%
D16*
X44577000Y49022000D02*
X19431000Y49022000D01*
%TO.N,IO13_TCK*%
D13*
X36703000Y8001000D02*
X29083000Y8001000D01*
%TO.N,IO15_TDO*%
X38354000Y8890000D02*
X30226000Y8890000D01*
%TO.N,433RXD*%
X22479000Y20574000D02*
X50673000Y20574000D01*
%TO.N,EN*%
X29718000Y5080000D02*
X44704000Y5080000D01*
%TO.N,IO13_TCK*%
X38354000Y6350000D02*
X36703000Y8001000D01*
%TO.N,433TXD*%
X21844000Y19431000D02*
X53467000Y19431000D01*
%TO.N,+3.3V*%
D14*
X40005000Y59944000D02*
X35814000Y55753000D01*
%TO.N,VBAT+*%
D16*
X36322000Y65024000D02*
X40871300Y69573300D01*
%TO.N,IO15_TDO*%
D13*
X40894000Y6350000D02*
X38354000Y8890000D01*
%TO.N,+3.3V*%
D14*
X40005000Y59944000D02*
X39497000Y59944000D01*
X40259000Y59944000D02*
X40005000Y59944000D01*
X34544000Y27686000D02*
X50673000Y27686000D01*
%TO.N,EN*%
D13*
X44704000Y5080000D02*
X45974000Y6350000D01*
%TO.N,+5V*%
D16*
X46990000Y51435000D02*
X44577000Y49022000D01*
X47117000Y58166000D02*
X47117000Y42418000D01*
X47117000Y58928000D02*
X47117000Y58166000D01*
%TO.N,433RXD*%
D13*
X50673000Y20574000D02*
X51308000Y19939000D01*
%TO.N,+3.3V*%
D14*
X50673000Y27686000D02*
X51816000Y26543000D01*
X51816000Y26543000D02*
X51816000Y20701000D01*
X50673000Y27686000D02*
X52959000Y27686000D01*
%TO.N,433RXD*%
D13*
X51308000Y19939000D02*
X52451000Y19939000D01*
X52451000Y19939000D02*
X54356000Y21844000D01*
%TO.N,433TXD*%
X53467000Y19431000D02*
X54356000Y20320000D01*
%TO.N,433RXD*%
X54356000Y21844000D02*
X54356000Y23495000D01*
%TO.N,+5V*%
D16*
X55753000Y12319000D02*
X55753000Y14478000D01*
X58039000Y10033000D02*
X55753000Y12319000D01*
X54102000Y39878000D02*
X62992000Y30988000D01*
%TO.N,VBAT+*%
X40871300Y69573300D02*
X77492700Y69573300D01*
%TO.N,+5V*%
X60960000Y10033000D02*
X58039000Y10033000D01*
X62992000Y12065000D02*
X60960000Y10033000D01*
X62992000Y30988000D02*
X62992000Y12065000D01*
%TO.N,$1N2273*%
D13*
X74295000Y52324000D02*
X77851000Y52324000D01*
X77851000Y52324000D02*
X78486000Y52959000D01*
X78486000Y57912000D02*
X78232000Y58166000D01*
X78486000Y52959000D02*
X78486000Y57912000D01*
%TO.N,VBAT+*%
D16*
X77492700Y69573300D02*
X79629000Y67437000D01*
X79629000Y67437000D02*
X79629000Y52832000D01*
X79629000Y52832000D02*
X82296000Y50165000D01*
%TO.N,+5V*%
X47117000Y42418000D02*
X49657000Y39878000D01*
X49657000Y39878000D02*
X54102000Y39878000D01*
%TO.N,+3.3V*%
D14*
X25019000Y3810000D02*
X23177500Y5651500D01*
X23177500Y5651500D02*
X23114000Y5715000D01*
X23177500Y5651500D02*
X22101700Y5584300D01*
X22101700Y5584300D02*
X18859500Y8826500D01*
%TD*%
M02*
