%TF.GenerationSoftware,KiCad,Pcbnew,10.99.0-unknown*%
%TF.CreationDate,2026-08-12T15:32:12+08:00*%
%TF.ProjectId,__LoRa_______,fa8e4c6f-5261-484e-90bf-1ae1c56e2e6b,rev?*%
%TF.SameCoordinates,Original*%
%TF.FileFunction,Legend,Top*%
%TF.FilePolarity,Positive*%
%FSLAX46Y46*%
G04 Gerber Fmt 4.6, Leading zero omitted, Abs format (unit mm)*
G04 Created by KiCad (PCBNEW 10.99.0-unknown) date 2026-08-12 15:32:12*
%MOMM*%
%LPD*%
G01*
G04 APERTURE LIST*
%ADD10C,0.120000*%
G04 APERTURE END LIST*
D10*
X1263714Y12634335D02*
X1225618Y12596240D01*
X1225618Y12596240D02*
X1111333Y12558144D01*
X1111333Y12558144D02*
X1035142Y12558144D01*
X1035142Y12558144D02*
X920856Y12596240D01*
X920856Y12596240D02*
X844666Y12672430D01*
X844666Y12672430D02*
X806571Y12748620D01*
X806571Y12748620D02*
X768475Y12901001D01*
X768475Y12901001D02*
X768475Y13015287D01*
X768475Y13015287D02*
X806571Y13167668D01*
X806571Y13167668D02*
X844666Y13243859D01*
X844666Y13243859D02*
X920856Y13320049D01*
X920856Y13320049D02*
X1035142Y13358144D01*
X1035142Y13358144D02*
X1111333Y13358144D01*
X1111333Y13358144D02*
X1225618Y13320049D01*
X1225618Y13320049D02*
X1263714Y13281954D01*
X2025618Y12558144D02*
X1568475Y12558144D01*
X1797047Y12558144D02*
X1797047Y13358144D01*
X1797047Y13358144D02*
X1720856Y13243859D01*
X1720856Y13243859D02*
X1644666Y13167668D01*
X1644666Y13167668D02*
X1568475Y13129573D01*
X2482761Y13015287D02*
X2406571Y13053382D01*
X2406571Y13053382D02*
X2368476Y13091478D01*
X2368476Y13091478D02*
X2330380Y13167668D01*
X2330380Y13167668D02*
X2330380Y13205763D01*
X2330380Y13205763D02*
X2368476Y13281954D01*
X2368476Y13281954D02*
X2406571Y13320049D01*
X2406571Y13320049D02*
X2482761Y13358144D01*
X2482761Y13358144D02*
X2635142Y13358144D01*
X2635142Y13358144D02*
X2711333Y13320049D01*
X2711333Y13320049D02*
X2749428Y13281954D01*
X2749428Y13281954D02*
X2787523Y13205763D01*
X2787523Y13205763D02*
X2787523Y13167668D01*
X2787523Y13167668D02*
X2749428Y13091478D01*
X2749428Y13091478D02*
X2711333Y13053382D01*
X2711333Y13053382D02*
X2635142Y13015287D01*
X2635142Y13015287D02*
X2482761Y13015287D01*
X2482761Y13015287D02*
X2406571Y12977192D01*
X2406571Y12977192D02*
X2368476Y12939097D01*
X2368476Y12939097D02*
X2330380Y12862906D01*
X2330380Y12862906D02*
X2330380Y12710525D01*
X2330380Y12710525D02*
X2368476Y12634335D01*
X2368476Y12634335D02*
X2406571Y12596240D01*
X2406571Y12596240D02*
X2482761Y12558144D01*
X2482761Y12558144D02*
X2635142Y12558144D01*
X2635142Y12558144D02*
X2711333Y12596240D01*
X2711333Y12596240D02*
X2749428Y12634335D01*
X2749428Y12634335D02*
X2787523Y12710525D01*
X2787523Y12710525D02*
X2787523Y12862906D01*
X2787523Y12862906D02*
X2749428Y12939097D01*
X2749428Y12939097D02*
X2711333Y12977192D01*
X2711333Y12977192D02*
X2635142Y13015287D01*
X6770855Y38360524D02*
X7418474Y38360524D01*
X7418474Y38360524D02*
X7494664Y38398619D01*
X7494664Y38398619D02*
X7532760Y38436714D01*
X7532760Y38436714D02*
X7570855Y38512905D01*
X7570855Y38512905D02*
X7570855Y38665286D01*
X7570855Y38665286D02*
X7532760Y38741476D01*
X7532760Y38741476D02*
X7494664Y38779571D01*
X7494664Y38779571D02*
X7418474Y38817667D01*
X7418474Y38817667D02*
X6770855Y38817667D01*
X7532760Y39160523D02*
X7570855Y39274809D01*
X7570855Y39274809D02*
X7570855Y39465285D01*
X7570855Y39465285D02*
X7532760Y39541476D01*
X7532760Y39541476D02*
X7494664Y39579571D01*
X7494664Y39579571D02*
X7418474Y39617666D01*
X7418474Y39617666D02*
X7342283Y39617666D01*
X7342283Y39617666D02*
X7266093Y39579571D01*
X7266093Y39579571D02*
X7227998Y39541476D01*
X7227998Y39541476D02*
X7189902Y39465285D01*
X7189902Y39465285D02*
X7151807Y39312904D01*
X7151807Y39312904D02*
X7113712Y39236714D01*
X7113712Y39236714D02*
X7075617Y39198619D01*
X7075617Y39198619D02*
X6999426Y39160523D01*
X6999426Y39160523D02*
X6923236Y39160523D01*
X6923236Y39160523D02*
X6847045Y39198619D01*
X6847045Y39198619D02*
X6808950Y39236714D01*
X6808950Y39236714D02*
X6770855Y39312904D01*
X6770855Y39312904D02*
X6770855Y39503381D01*
X6770855Y39503381D02*
X6808950Y39617666D01*
X7151807Y40227190D02*
X7189902Y40341476D01*
X7189902Y40341476D02*
X7227998Y40379571D01*
X7227998Y40379571D02*
X7304188Y40417667D01*
X7304188Y40417667D02*
X7418474Y40417667D01*
X7418474Y40417667D02*
X7494664Y40379571D01*
X7494664Y40379571D02*
X7532760Y40341476D01*
X7532760Y40341476D02*
X7570855Y40265286D01*
X7570855Y40265286D02*
X7570855Y39960524D01*
X7570855Y39960524D02*
X6770855Y39960524D01*
X6770855Y39960524D02*
X6770855Y40227190D01*
X6770855Y40227190D02*
X6808950Y40303381D01*
X6808950Y40303381D02*
X6847045Y40341476D01*
X6847045Y40341476D02*
X6923236Y40379571D01*
X6923236Y40379571D02*
X6999426Y40379571D01*
X6999426Y40379571D02*
X7075617Y40341476D01*
X7075617Y40341476D02*
X7113712Y40303381D01*
X7113712Y40303381D02*
X7151807Y40227190D01*
X7151807Y40227190D02*
X7151807Y39960524D01*
X7570855Y41179571D02*
X7570855Y40722428D01*
X7570855Y40951000D02*
X6770855Y40951000D01*
X6770855Y40951000D02*
X6885140Y40874809D01*
X6885140Y40874809D02*
X6961331Y40798619D01*
X6961331Y40798619D02*
X6999426Y40722428D01*
X4860333Y7690144D02*
X4860333Y7118716D01*
X4860333Y7118716D02*
X4822238Y7004430D01*
X4822238Y7004430D02*
X4746047Y6928240D01*
X4746047Y6928240D02*
X4631762Y6890144D01*
X4631762Y6890144D02*
X4555571Y6890144D01*
X5165095Y7690144D02*
X5660333Y7690144D01*
X5660333Y7690144D02*
X5393667Y7385382D01*
X5393667Y7385382D02*
X5507952Y7385382D01*
X5507952Y7385382D02*
X5584143Y7347287D01*
X5584143Y7347287D02*
X5622238Y7309192D01*
X5622238Y7309192D02*
X5660333Y7233001D01*
X5660333Y7233001D02*
X5660333Y7042525D01*
X5660333Y7042525D02*
X5622238Y6966335D01*
X5622238Y6966335D02*
X5584143Y6928240D01*
X5584143Y6928240D02*
X5507952Y6890144D01*
X5507952Y6890144D02*
X5279381Y6890144D01*
X5279381Y6890144D02*
X5203190Y6928240D01*
X5203190Y6928240D02*
X5165095Y6966335D01*
X4860333Y67690144D02*
X4860333Y67118716D01*
X4860333Y67118716D02*
X4822238Y67004430D01*
X4822238Y67004430D02*
X4746047Y66928240D01*
X4746047Y66928240D02*
X4631762Y66890144D01*
X4631762Y66890144D02*
X4555571Y66890144D01*
X5660333Y66890144D02*
X5203190Y66890144D01*
X5431762Y66890144D02*
X5431762Y67690144D01*
X5431762Y67690144D02*
X5355571Y67575859D01*
X5355571Y67575859D02*
X5279381Y67499668D01*
X5279381Y67499668D02*
X5203190Y67461573D01*
X5454714Y11872335D02*
X5416618Y11834240D01*
X5416618Y11834240D02*
X5302333Y11796144D01*
X5302333Y11796144D02*
X5226142Y11796144D01*
X5226142Y11796144D02*
X5111856Y11834240D01*
X5111856Y11834240D02*
X5035666Y11910430D01*
X5035666Y11910430D02*
X4997571Y11986620D01*
X4997571Y11986620D02*
X4959475Y12139001D01*
X4959475Y12139001D02*
X4959475Y12253287D01*
X4959475Y12253287D02*
X4997571Y12405668D01*
X4997571Y12405668D02*
X5035666Y12481859D01*
X5035666Y12481859D02*
X5111856Y12558049D01*
X5111856Y12558049D02*
X5226142Y12596144D01*
X5226142Y12596144D02*
X5302333Y12596144D01*
X5302333Y12596144D02*
X5416618Y12558049D01*
X5416618Y12558049D02*
X5454714Y12519954D01*
X6216618Y11796144D02*
X5759475Y11796144D01*
X5988047Y11796144D02*
X5988047Y12596144D01*
X5988047Y12596144D02*
X5911856Y12481859D01*
X5911856Y12481859D02*
X5835666Y12405668D01*
X5835666Y12405668D02*
X5759475Y12367573D01*
X6597571Y11796144D02*
X6749952Y11796144D01*
X6749952Y11796144D02*
X6826142Y11834240D01*
X6826142Y11834240D02*
X6864238Y11872335D01*
X6864238Y11872335D02*
X6940428Y11986620D01*
X6940428Y11986620D02*
X6978523Y12139001D01*
X6978523Y12139001D02*
X6978523Y12443763D01*
X6978523Y12443763D02*
X6940428Y12519954D01*
X6940428Y12519954D02*
X6902333Y12558049D01*
X6902333Y12558049D02*
X6826142Y12596144D01*
X6826142Y12596144D02*
X6673761Y12596144D01*
X6673761Y12596144D02*
X6597571Y12558049D01*
X6597571Y12558049D02*
X6559476Y12519954D01*
X6559476Y12519954D02*
X6521380Y12443763D01*
X6521380Y12443763D02*
X6521380Y12253287D01*
X6521380Y12253287D02*
X6559476Y12177097D01*
X6559476Y12177097D02*
X6597571Y12139001D01*
X6597571Y12139001D02*
X6673761Y12100906D01*
X6673761Y12100906D02*
X6826142Y12100906D01*
X6826142Y12100906D02*
X6902333Y12139001D01*
X6902333Y12139001D02*
X6940428Y12177097D01*
X6940428Y12177097D02*
X6978523Y12253287D01*
X5283332Y60221240D02*
X5397618Y60183144D01*
X5397618Y60183144D02*
X5588094Y60183144D01*
X5588094Y60183144D02*
X5664285Y60221240D01*
X5664285Y60221240D02*
X5702380Y60259335D01*
X5702380Y60259335D02*
X5740475Y60335525D01*
X5740475Y60335525D02*
X5740475Y60411716D01*
X5740475Y60411716D02*
X5702380Y60487906D01*
X5702380Y60487906D02*
X5664285Y60526001D01*
X5664285Y60526001D02*
X5588094Y60564097D01*
X5588094Y60564097D02*
X5435713Y60602192D01*
X5435713Y60602192D02*
X5359523Y60640287D01*
X5359523Y60640287D02*
X5321428Y60678382D01*
X5321428Y60678382D02*
X5283332Y60754573D01*
X5283332Y60754573D02*
X5283332Y60830763D01*
X5283332Y60830763D02*
X5321428Y60906954D01*
X5321428Y60906954D02*
X5359523Y60945049D01*
X5359523Y60945049D02*
X5435713Y60983144D01*
X5435713Y60983144D02*
X5626190Y60983144D01*
X5626190Y60983144D02*
X5740475Y60945049D01*
X6007142Y60983144D02*
X6197618Y60183144D01*
X6197618Y60183144D02*
X6349999Y60754573D01*
X6349999Y60754573D02*
X6502380Y60183144D01*
X6502380Y60183144D02*
X6692857Y60983144D01*
X7340476Y60716478D02*
X7340476Y60183144D01*
X7150000Y61021240D02*
X6959523Y60449811D01*
X6959523Y60449811D02*
X7454762Y60449811D01*
X5283332Y53109240D02*
X5397618Y53071144D01*
X5397618Y53071144D02*
X5588094Y53071144D01*
X5588094Y53071144D02*
X5664285Y53109240D01*
X5664285Y53109240D02*
X5702380Y53147335D01*
X5702380Y53147335D02*
X5740475Y53223525D01*
X5740475Y53223525D02*
X5740475Y53299716D01*
X5740475Y53299716D02*
X5702380Y53375906D01*
X5702380Y53375906D02*
X5664285Y53414001D01*
X5664285Y53414001D02*
X5588094Y53452097D01*
X5588094Y53452097D02*
X5435713Y53490192D01*
X5435713Y53490192D02*
X5359523Y53528287D01*
X5359523Y53528287D02*
X5321428Y53566382D01*
X5321428Y53566382D02*
X5283332Y53642573D01*
X5283332Y53642573D02*
X5283332Y53718763D01*
X5283332Y53718763D02*
X5321428Y53794954D01*
X5321428Y53794954D02*
X5359523Y53833049D01*
X5359523Y53833049D02*
X5435713Y53871144D01*
X5435713Y53871144D02*
X5626190Y53871144D01*
X5626190Y53871144D02*
X5740475Y53833049D01*
X6007142Y53871144D02*
X6197618Y53071144D01*
X6197618Y53071144D02*
X6349999Y53642573D01*
X6349999Y53642573D02*
X6502380Y53071144D01*
X6502380Y53071144D02*
X6692857Y53871144D01*
X6921428Y53871144D02*
X7416666Y53871144D01*
X7416666Y53871144D02*
X7150000Y53566382D01*
X7150000Y53566382D02*
X7264285Y53566382D01*
X7264285Y53566382D02*
X7340476Y53528287D01*
X7340476Y53528287D02*
X7378571Y53490192D01*
X7378571Y53490192D02*
X7416666Y53414001D01*
X7416666Y53414001D02*
X7416666Y53223525D01*
X7416666Y53223525D02*
X7378571Y53147335D01*
X7378571Y53147335D02*
X7340476Y53109240D01*
X7340476Y53109240D02*
X7264285Y53071144D01*
X7264285Y53071144D02*
X7035714Y53071144D01*
X7035714Y53071144D02*
X6959523Y53109240D01*
X6959523Y53109240D02*
X6921428Y53147335D01*
X9321035Y24328531D02*
X9321035Y23680912D01*
X9321035Y23680912D02*
X9359130Y23604722D01*
X9359130Y23604722D02*
X9397225Y23566627D01*
X9397225Y23566627D02*
X9473416Y23528531D01*
X9473416Y23528531D02*
X9625797Y23528531D01*
X9625797Y23528531D02*
X9701987Y23566627D01*
X9701987Y23566627D02*
X9740082Y23604722D01*
X9740082Y23604722D02*
X9778178Y23680912D01*
X9778178Y23680912D02*
X9778178Y24328531D01*
X10121034Y24252341D02*
X10159130Y24290436D01*
X10159130Y24290436D02*
X10235320Y24328531D01*
X10235320Y24328531D02*
X10425796Y24328531D01*
X10425796Y24328531D02*
X10501987Y24290436D01*
X10501987Y24290436D02*
X10540082Y24252341D01*
X10540082Y24252341D02*
X10578177Y24176150D01*
X10578177Y24176150D02*
X10578177Y24099960D01*
X10578177Y24099960D02*
X10540082Y23985674D01*
X10540082Y23985674D02*
X10082939Y23528531D01*
X10082939Y23528531D02*
X10578177Y23528531D01*
X11301987Y24328531D02*
X10921035Y24328531D01*
X10921035Y24328531D02*
X10882939Y23947579D01*
X10882939Y23947579D02*
X10921035Y23985674D01*
X10921035Y23985674D02*
X10997225Y24023769D01*
X10997225Y24023769D02*
X11187701Y24023769D01*
X11187701Y24023769D02*
X11263892Y23985674D01*
X11263892Y23985674D02*
X11301987Y23947579D01*
X11301987Y23947579D02*
X11340082Y23871388D01*
X11340082Y23871388D02*
X11340082Y23680912D01*
X11340082Y23680912D02*
X11301987Y23604722D01*
X11301987Y23604722D02*
X11263892Y23566627D01*
X11263892Y23566627D02*
X11187701Y23528531D01*
X11187701Y23528531D02*
X10997225Y23528531D01*
X10997225Y23528531D02*
X10921035Y23566627D01*
X10921035Y23566627D02*
X10882939Y23604722D01*
X9264714Y9078335D02*
X9226618Y9040240D01*
X9226618Y9040240D02*
X9112333Y9002144D01*
X9112333Y9002144D02*
X9036142Y9002144D01*
X9036142Y9002144D02*
X8921856Y9040240D01*
X8921856Y9040240D02*
X8845666Y9116430D01*
X8845666Y9116430D02*
X8807571Y9192620D01*
X8807571Y9192620D02*
X8769475Y9345001D01*
X8769475Y9345001D02*
X8769475Y9459287D01*
X8769475Y9459287D02*
X8807571Y9611668D01*
X8807571Y9611668D02*
X8845666Y9687859D01*
X8845666Y9687859D02*
X8921856Y9764049D01*
X8921856Y9764049D02*
X9036142Y9802144D01*
X9036142Y9802144D02*
X9112333Y9802144D01*
X9112333Y9802144D02*
X9226618Y9764049D01*
X9226618Y9764049D02*
X9264714Y9725954D01*
X9569475Y9725954D02*
X9607571Y9764049D01*
X9607571Y9764049D02*
X9683761Y9802144D01*
X9683761Y9802144D02*
X9874237Y9802144D01*
X9874237Y9802144D02*
X9950428Y9764049D01*
X9950428Y9764049D02*
X9988523Y9725954D01*
X9988523Y9725954D02*
X10026618Y9649763D01*
X10026618Y9649763D02*
X10026618Y9573573D01*
X10026618Y9573573D02*
X9988523Y9459287D01*
X9988523Y9459287D02*
X9531380Y9002144D01*
X9531380Y9002144D02*
X10026618Y9002144D01*
X10712333Y9802144D02*
X10559952Y9802144D01*
X10559952Y9802144D02*
X10483761Y9764049D01*
X10483761Y9764049D02*
X10445666Y9725954D01*
X10445666Y9725954D02*
X10369476Y9611668D01*
X10369476Y9611668D02*
X10331380Y9459287D01*
X10331380Y9459287D02*
X10331380Y9154525D01*
X10331380Y9154525D02*
X10369476Y9078335D01*
X10369476Y9078335D02*
X10407571Y9040240D01*
X10407571Y9040240D02*
X10483761Y9002144D01*
X10483761Y9002144D02*
X10636142Y9002144D01*
X10636142Y9002144D02*
X10712333Y9040240D01*
X10712333Y9040240D02*
X10750428Y9078335D01*
X10750428Y9078335D02*
X10788523Y9154525D01*
X10788523Y9154525D02*
X10788523Y9345001D01*
X10788523Y9345001D02*
X10750428Y9421192D01*
X10750428Y9421192D02*
X10712333Y9459287D01*
X10712333Y9459287D02*
X10636142Y9497382D01*
X10636142Y9497382D02*
X10483761Y9497382D01*
X10483761Y9497382D02*
X10407571Y9459287D01*
X10407571Y9459287D02*
X10369476Y9421192D01*
X10369476Y9421192D02*
X10331380Y9345001D01*
X8642740Y9616669D02*
X8261787Y9350002D01*
X8642740Y9159526D02*
X7842740Y9159526D01*
X7842740Y9159526D02*
X7842740Y9464288D01*
X7842740Y9464288D02*
X7880835Y9540478D01*
X7880835Y9540478D02*
X7918930Y9578573D01*
X7918930Y9578573D02*
X7995121Y9616669D01*
X7995121Y9616669D02*
X8109406Y9616669D01*
X8109406Y9616669D02*
X8185597Y9578573D01*
X8185597Y9578573D02*
X8223692Y9540478D01*
X8223692Y9540478D02*
X8261787Y9464288D01*
X8261787Y9464288D02*
X8261787Y9159526D01*
X8109406Y10302383D02*
X8642740Y10302383D01*
X7804645Y10111907D02*
X8376073Y9921430D01*
X8376073Y9921430D02*
X8376073Y10416669D01*
X8642740Y11140478D02*
X8642740Y10683335D01*
X8642740Y10911907D02*
X7842740Y10911907D01*
X7842740Y10911907D02*
X7957025Y10835716D01*
X7957025Y10835716D02*
X8033216Y10759526D01*
X8033216Y10759526D02*
X8071311Y10683335D01*
X12857855Y39513523D02*
X12057855Y39513523D01*
X12057855Y39513523D02*
X12057855Y39703999D01*
X12057855Y39703999D02*
X12095950Y39818285D01*
X12095950Y39818285D02*
X12172140Y39894475D01*
X12172140Y39894475D02*
X12248331Y39932570D01*
X12248331Y39932570D02*
X12400712Y39970666D01*
X12400712Y39970666D02*
X12514998Y39970666D01*
X12514998Y39970666D02*
X12667379Y39932570D01*
X12667379Y39932570D02*
X12743569Y39894475D01*
X12743569Y39894475D02*
X12819760Y39818285D01*
X12819760Y39818285D02*
X12857855Y39703999D01*
X12857855Y39703999D02*
X12857855Y39513523D01*
X12057855Y40656380D02*
X12057855Y40503999D01*
X12057855Y40503999D02*
X12095950Y40427808D01*
X12095950Y40427808D02*
X12134045Y40389713D01*
X12134045Y40389713D02*
X12248331Y40313523D01*
X12248331Y40313523D02*
X12400712Y40275427D01*
X12400712Y40275427D02*
X12705474Y40275427D01*
X12705474Y40275427D02*
X12781664Y40313523D01*
X12781664Y40313523D02*
X12819760Y40351618D01*
X12819760Y40351618D02*
X12857855Y40427808D01*
X12857855Y40427808D02*
X12857855Y40580189D01*
X12857855Y40580189D02*
X12819760Y40656380D01*
X12819760Y40656380D02*
X12781664Y40694475D01*
X12781664Y40694475D02*
X12705474Y40732570D01*
X12705474Y40732570D02*
X12514998Y40732570D01*
X12514998Y40732570D02*
X12438807Y40694475D01*
X12438807Y40694475D02*
X12400712Y40656380D01*
X12400712Y40656380D02*
X12362617Y40580189D01*
X12362617Y40580189D02*
X12362617Y40427808D01*
X12362617Y40427808D02*
X12400712Y40351618D01*
X12400712Y40351618D02*
X12438807Y40313523D01*
X12438807Y40313523D02*
X12514998Y40275427D01*
X9916150Y48397407D02*
X9649483Y48778360D01*
X9459007Y48397407D02*
X9459007Y49197407D01*
X9459007Y49197407D02*
X9763769Y49197407D01*
X9763769Y49197407D02*
X9839959Y49159312D01*
X9839959Y49159312D02*
X9878054Y49121217D01*
X9878054Y49121217D02*
X9916150Y49045026D01*
X9916150Y49045026D02*
X9916150Y48930741D01*
X9916150Y48930741D02*
X9878054Y48854550D01*
X9878054Y48854550D02*
X9839959Y48816455D01*
X9839959Y48816455D02*
X9763769Y48778360D01*
X9763769Y48778360D02*
X9459007Y48778360D01*
X10182816Y49197407D02*
X10678054Y49197407D01*
X10678054Y49197407D02*
X10411388Y48892645D01*
X10411388Y48892645D02*
X10525673Y48892645D01*
X10525673Y48892645D02*
X10601864Y48854550D01*
X10601864Y48854550D02*
X10639959Y48816455D01*
X10639959Y48816455D02*
X10678054Y48740264D01*
X10678054Y48740264D02*
X10678054Y48549788D01*
X10678054Y48549788D02*
X10639959Y48473598D01*
X10639959Y48473598D02*
X10601864Y48435503D01*
X10601864Y48435503D02*
X10525673Y48397407D01*
X10525673Y48397407D02*
X10297102Y48397407D01*
X10297102Y48397407D02*
X10220911Y48435503D01*
X10220911Y48435503D02*
X10182816Y48473598D01*
X11173293Y49197407D02*
X11249483Y49197407D01*
X11249483Y49197407D02*
X11325674Y49159312D01*
X11325674Y49159312D02*
X11363769Y49121217D01*
X11363769Y49121217D02*
X11401864Y49045026D01*
X11401864Y49045026D02*
X11439959Y48892645D01*
X11439959Y48892645D02*
X11439959Y48702169D01*
X11439959Y48702169D02*
X11401864Y48549788D01*
X11401864Y48549788D02*
X11363769Y48473598D01*
X11363769Y48473598D02*
X11325674Y48435503D01*
X11325674Y48435503D02*
X11249483Y48397407D01*
X11249483Y48397407D02*
X11173293Y48397407D01*
X11173293Y48397407D02*
X11097102Y48435503D01*
X11097102Y48435503D02*
X11059007Y48473598D01*
X11059007Y48473598D02*
X11020912Y48549788D01*
X11020912Y48549788D02*
X10982816Y48702169D01*
X10982816Y48702169D02*
X10982816Y48892645D01*
X10982816Y48892645D02*
X11020912Y49045026D01*
X11020912Y49045026D02*
X11059007Y49121217D01*
X11059007Y49121217D02*
X11097102Y49159312D01*
X11097102Y49159312D02*
X11173293Y49197407D01*
X9916150Y47000407D02*
X9649483Y47381360D01*
X9459007Y47000407D02*
X9459007Y47800407D01*
X9459007Y47800407D02*
X9763769Y47800407D01*
X9763769Y47800407D02*
X9839959Y47762312D01*
X9839959Y47762312D02*
X9878054Y47724217D01*
X9878054Y47724217D02*
X9916150Y47648026D01*
X9916150Y47648026D02*
X9916150Y47533741D01*
X9916150Y47533741D02*
X9878054Y47457550D01*
X9878054Y47457550D02*
X9839959Y47419455D01*
X9839959Y47419455D02*
X9763769Y47381360D01*
X9763769Y47381360D02*
X9459007Y47381360D01*
X10220911Y47724217D02*
X10259007Y47762312D01*
X10259007Y47762312D02*
X10335197Y47800407D01*
X10335197Y47800407D02*
X10525673Y47800407D01*
X10525673Y47800407D02*
X10601864Y47762312D01*
X10601864Y47762312D02*
X10639959Y47724217D01*
X10639959Y47724217D02*
X10678054Y47648026D01*
X10678054Y47648026D02*
X10678054Y47571836D01*
X10678054Y47571836D02*
X10639959Y47457550D01*
X10639959Y47457550D02*
X10182816Y47000407D01*
X10182816Y47000407D02*
X10678054Y47000407D01*
X11059007Y47000407D02*
X11211388Y47000407D01*
X11211388Y47000407D02*
X11287578Y47038503D01*
X11287578Y47038503D02*
X11325674Y47076598D01*
X11325674Y47076598D02*
X11401864Y47190883D01*
X11401864Y47190883D02*
X11439959Y47343264D01*
X11439959Y47343264D02*
X11439959Y47648026D01*
X11439959Y47648026D02*
X11401864Y47724217D01*
X11401864Y47724217D02*
X11363769Y47762312D01*
X11363769Y47762312D02*
X11287578Y47800407D01*
X11287578Y47800407D02*
X11135197Y47800407D01*
X11135197Y47800407D02*
X11059007Y47762312D01*
X11059007Y47762312D02*
X11020912Y47724217D01*
X11020912Y47724217D02*
X10982816Y47648026D01*
X10982816Y47648026D02*
X10982816Y47457550D01*
X10982816Y47457550D02*
X11020912Y47381360D01*
X11020912Y47381360D02*
X11059007Y47343264D01*
X11059007Y47343264D02*
X11135197Y47305169D01*
X11135197Y47305169D02*
X11287578Y47305169D01*
X11287578Y47305169D02*
X11363769Y47343264D01*
X11363769Y47343264D02*
X11401864Y47381360D01*
X11401864Y47381360D02*
X11439959Y47457550D01*
X10360667Y45626334D02*
X10322571Y45588239D01*
X10322571Y45588239D02*
X10208286Y45550143D01*
X10208286Y45550143D02*
X10132095Y45550143D01*
X10132095Y45550143D02*
X10017809Y45588239D01*
X10017809Y45588239D02*
X9941619Y45664429D01*
X9941619Y45664429D02*
X9903524Y45740619D01*
X9903524Y45740619D02*
X9865428Y45893000D01*
X9865428Y45893000D02*
X9865428Y46007286D01*
X9865428Y46007286D02*
X9903524Y46159667D01*
X9903524Y46159667D02*
X9941619Y46235858D01*
X9941619Y46235858D02*
X10017809Y46312048D01*
X10017809Y46312048D02*
X10132095Y46350143D01*
X10132095Y46350143D02*
X10208286Y46350143D01*
X10208286Y46350143D02*
X10322571Y46312048D01*
X10322571Y46312048D02*
X10360667Y46273953D01*
X11046381Y46350143D02*
X10894000Y46350143D01*
X10894000Y46350143D02*
X10817809Y46312048D01*
X10817809Y46312048D02*
X10779714Y46273953D01*
X10779714Y46273953D02*
X10703524Y46159667D01*
X10703524Y46159667D02*
X10665428Y46007286D01*
X10665428Y46007286D02*
X10665428Y45702524D01*
X10665428Y45702524D02*
X10703524Y45626334D01*
X10703524Y45626334D02*
X10741619Y45588239D01*
X10741619Y45588239D02*
X10817809Y45550143D01*
X10817809Y45550143D02*
X10970190Y45550143D01*
X10970190Y45550143D02*
X11046381Y45588239D01*
X11046381Y45588239D02*
X11084476Y45626334D01*
X11084476Y45626334D02*
X11122571Y45702524D01*
X11122571Y45702524D02*
X11122571Y45893000D01*
X11122571Y45893000D02*
X11084476Y45969191D01*
X11084476Y45969191D02*
X11046381Y46007286D01*
X11046381Y46007286D02*
X10970190Y46045381D01*
X10970190Y46045381D02*
X10817809Y46045381D01*
X10817809Y46045381D02*
X10741619Y46007286D01*
X10741619Y46007286D02*
X10703524Y45969191D01*
X10703524Y45969191D02*
X10665428Y45893000D01*
X10360667Y44153143D02*
X10094000Y44534096D01*
X9903524Y44153143D02*
X9903524Y44953143D01*
X9903524Y44953143D02*
X10208286Y44953143D01*
X10208286Y44953143D02*
X10284476Y44915048D01*
X10284476Y44915048D02*
X10322571Y44876953D01*
X10322571Y44876953D02*
X10360667Y44800762D01*
X10360667Y44800762D02*
X10360667Y44686477D01*
X10360667Y44686477D02*
X10322571Y44610286D01*
X10322571Y44610286D02*
X10284476Y44572191D01*
X10284476Y44572191D02*
X10208286Y44534096D01*
X10208286Y44534096D02*
X9903524Y44534096D01*
X10665428Y44876953D02*
X10703524Y44915048D01*
X10703524Y44915048D02*
X10779714Y44953143D01*
X10779714Y44953143D02*
X10970190Y44953143D01*
X10970190Y44953143D02*
X11046381Y44915048D01*
X11046381Y44915048D02*
X11084476Y44876953D01*
X11084476Y44876953D02*
X11122571Y44800762D01*
X11122571Y44800762D02*
X11122571Y44724572D01*
X11122571Y44724572D02*
X11084476Y44610286D01*
X11084476Y44610286D02*
X10627333Y44153143D01*
X10627333Y44153143D02*
X11122571Y44153143D01*
X10360667Y39073143D02*
X10094000Y39454096D01*
X9903524Y39073143D02*
X9903524Y39873143D01*
X9903524Y39873143D02*
X10208286Y39873143D01*
X10208286Y39873143D02*
X10284476Y39835048D01*
X10284476Y39835048D02*
X10322571Y39796953D01*
X10322571Y39796953D02*
X10360667Y39720762D01*
X10360667Y39720762D02*
X10360667Y39606477D01*
X10360667Y39606477D02*
X10322571Y39530286D01*
X10322571Y39530286D02*
X10284476Y39492191D01*
X10284476Y39492191D02*
X10208286Y39454096D01*
X10208286Y39454096D02*
X9903524Y39454096D01*
X11122571Y39073143D02*
X10665428Y39073143D01*
X10894000Y39073143D02*
X10894000Y39873143D01*
X10894000Y39873143D02*
X10817809Y39758858D01*
X10817809Y39758858D02*
X10741619Y39682667D01*
X10741619Y39682667D02*
X10665428Y39644572D01*
X10782380Y3643144D02*
X11315714Y2843144D01*
X11315714Y3643144D02*
X10782380Y2843144D01*
X12039523Y2843144D02*
X11582380Y2843144D01*
X11810952Y2843144D02*
X11810952Y3643144D01*
X11810952Y3643144D02*
X11734761Y3528859D01*
X11734761Y3528859D02*
X11658571Y3452668D01*
X11658571Y3452668D02*
X11582380Y3414573D01*
X11042714Y684144D02*
X10776047Y1065097D01*
X10585571Y684144D02*
X10585571Y1484144D01*
X10585571Y1484144D02*
X10890333Y1484144D01*
X10890333Y1484144D02*
X10966523Y1446049D01*
X10966523Y1446049D02*
X11004618Y1407954D01*
X11004618Y1407954D02*
X11042714Y1331763D01*
X11042714Y1331763D02*
X11042714Y1217478D01*
X11042714Y1217478D02*
X11004618Y1141287D01*
X11004618Y1141287D02*
X10966523Y1103192D01*
X10966523Y1103192D02*
X10890333Y1065097D01*
X10890333Y1065097D02*
X10585571Y1065097D01*
X11728428Y1217478D02*
X11728428Y684144D01*
X11537952Y1522240D02*
X11347475Y950811D01*
X11347475Y950811D02*
X11842714Y950811D01*
X12299857Y1484144D02*
X12376047Y1484144D01*
X12376047Y1484144D02*
X12452238Y1446049D01*
X12452238Y1446049D02*
X12490333Y1407954D01*
X12490333Y1407954D02*
X12528428Y1331763D01*
X12528428Y1331763D02*
X12566523Y1179382D01*
X12566523Y1179382D02*
X12566523Y988906D01*
X12566523Y988906D02*
X12528428Y836525D01*
X12528428Y836525D02*
X12490333Y760335D01*
X12490333Y760335D02*
X12452238Y722240D01*
X12452238Y722240D02*
X12376047Y684144D01*
X12376047Y684144D02*
X12299857Y684144D01*
X12299857Y684144D02*
X12223666Y722240D01*
X12223666Y722240D02*
X12185571Y760335D01*
X12185571Y760335D02*
X12147476Y836525D01*
X12147476Y836525D02*
X12109380Y988906D01*
X12109380Y988906D02*
X12109380Y1179382D01*
X12109380Y1179382D02*
X12147476Y1331763D01*
X12147476Y1331763D02*
X12185571Y1407954D01*
X12185571Y1407954D02*
X12223666Y1446049D01*
X12223666Y1446049D02*
X12299857Y1484144D01*
X10075744Y9617825D02*
X9694791Y9351158D01*
X10075744Y9160682D02*
X9275744Y9160682D01*
X9275744Y9160682D02*
X9275744Y9465444D01*
X9275744Y9465444D02*
X9313839Y9541634D01*
X9313839Y9541634D02*
X9351934Y9579729D01*
X9351934Y9579729D02*
X9428125Y9617825D01*
X9428125Y9617825D02*
X9542410Y9617825D01*
X9542410Y9617825D02*
X9618601Y9579729D01*
X9618601Y9579729D02*
X9656696Y9541634D01*
X9656696Y9541634D02*
X9694791Y9465444D01*
X9694791Y9465444D02*
X9694791Y9160682D01*
X9542410Y10303539D02*
X10075744Y10303539D01*
X9237649Y10113063D02*
X9809077Y9922586D01*
X9809077Y9922586D02*
X9809077Y10417825D01*
X9351934Y10684491D02*
X9313839Y10722587D01*
X9313839Y10722587D02*
X9275744Y10798777D01*
X9275744Y10798777D02*
X9275744Y10989253D01*
X9275744Y10989253D02*
X9313839Y11065444D01*
X9313839Y11065444D02*
X9351934Y11103539D01*
X9351934Y11103539D02*
X9428125Y11141634D01*
X9428125Y11141634D02*
X9504315Y11141634D01*
X9504315Y11141634D02*
X9618601Y11103539D01*
X9618601Y11103539D02*
X10075744Y10646396D01*
X10075744Y10646396D02*
X10075744Y11141634D01*
X12312714Y5078335D02*
X12274618Y5040240D01*
X12274618Y5040240D02*
X12160333Y5002144D01*
X12160333Y5002144D02*
X12084142Y5002144D01*
X12084142Y5002144D02*
X11969856Y5040240D01*
X11969856Y5040240D02*
X11893666Y5116430D01*
X11893666Y5116430D02*
X11855571Y5192620D01*
X11855571Y5192620D02*
X11817475Y5345001D01*
X11817475Y5345001D02*
X11817475Y5459287D01*
X11817475Y5459287D02*
X11855571Y5611668D01*
X11855571Y5611668D02*
X11893666Y5687859D01*
X11893666Y5687859D02*
X11969856Y5764049D01*
X11969856Y5764049D02*
X12084142Y5802144D01*
X12084142Y5802144D02*
X12160333Y5802144D01*
X12160333Y5802144D02*
X12274618Y5764049D01*
X12274618Y5764049D02*
X12312714Y5725954D01*
X12617475Y5725954D02*
X12655571Y5764049D01*
X12655571Y5764049D02*
X12731761Y5802144D01*
X12731761Y5802144D02*
X12922237Y5802144D01*
X12922237Y5802144D02*
X12998428Y5764049D01*
X12998428Y5764049D02*
X13036523Y5725954D01*
X13036523Y5725954D02*
X13074618Y5649763D01*
X13074618Y5649763D02*
X13074618Y5573573D01*
X13074618Y5573573D02*
X13036523Y5459287D01*
X13036523Y5459287D02*
X12579380Y5002144D01*
X12579380Y5002144D02*
X13074618Y5002144D01*
X13341285Y5802144D02*
X13874619Y5802144D01*
X13874619Y5802144D02*
X13531761Y5002144D01*
X12522332Y67587240D02*
X12636618Y67549144D01*
X12636618Y67549144D02*
X12827094Y67549144D01*
X12827094Y67549144D02*
X12903285Y67587240D01*
X12903285Y67587240D02*
X12941380Y67625335D01*
X12941380Y67625335D02*
X12979475Y67701525D01*
X12979475Y67701525D02*
X12979475Y67777716D01*
X12979475Y67777716D02*
X12941380Y67853906D01*
X12941380Y67853906D02*
X12903285Y67892001D01*
X12903285Y67892001D02*
X12827094Y67930097D01*
X12827094Y67930097D02*
X12674713Y67968192D01*
X12674713Y67968192D02*
X12598523Y68006287D01*
X12598523Y68006287D02*
X12560428Y68044382D01*
X12560428Y68044382D02*
X12522332Y68120573D01*
X12522332Y68120573D02*
X12522332Y68196763D01*
X12522332Y68196763D02*
X12560428Y68272954D01*
X12560428Y68272954D02*
X12598523Y68311049D01*
X12598523Y68311049D02*
X12674713Y68349144D01*
X12674713Y68349144D02*
X12865190Y68349144D01*
X12865190Y68349144D02*
X12979475Y68311049D01*
X13246142Y68349144D02*
X13436618Y67549144D01*
X13436618Y67549144D02*
X13588999Y68120573D01*
X13588999Y68120573D02*
X13741380Y67549144D01*
X13741380Y67549144D02*
X13931857Y68349144D01*
X14579476Y68349144D02*
X14427095Y68349144D01*
X14427095Y68349144D02*
X14350904Y68311049D01*
X14350904Y68311049D02*
X14312809Y68272954D01*
X14312809Y68272954D02*
X14236619Y68158668D01*
X14236619Y68158668D02*
X14198523Y68006287D01*
X14198523Y68006287D02*
X14198523Y67701525D01*
X14198523Y67701525D02*
X14236619Y67625335D01*
X14236619Y67625335D02*
X14274714Y67587240D01*
X14274714Y67587240D02*
X14350904Y67549144D01*
X14350904Y67549144D02*
X14503285Y67549144D01*
X14503285Y67549144D02*
X14579476Y67587240D01*
X14579476Y67587240D02*
X14617571Y67625335D01*
X14617571Y67625335D02*
X14655666Y67701525D01*
X14655666Y67701525D02*
X14655666Y67892001D01*
X14655666Y67892001D02*
X14617571Y67968192D01*
X14617571Y67968192D02*
X14579476Y68006287D01*
X14579476Y68006287D02*
X14503285Y68044382D01*
X14503285Y68044382D02*
X14350904Y68044382D01*
X14350904Y68044382D02*
X14274714Y68006287D01*
X14274714Y68006287D02*
X14236619Y67968192D01*
X14236619Y67968192D02*
X14198523Y67892001D01*
X14528809Y61503954D02*
X14452619Y61542049D01*
X14452619Y61542049D02*
X14376428Y61618240D01*
X14376428Y61618240D02*
X14262142Y61732525D01*
X14262142Y61732525D02*
X14185952Y61770620D01*
X14185952Y61770620D02*
X14109761Y61770620D01*
X14147857Y61580144D02*
X14071666Y61618240D01*
X14071666Y61618240D02*
X13995476Y61694430D01*
X13995476Y61694430D02*
X13957380Y61846811D01*
X13957380Y61846811D02*
X13957380Y62113478D01*
X13957380Y62113478D02*
X13995476Y62265859D01*
X13995476Y62265859D02*
X14071666Y62342049D01*
X14071666Y62342049D02*
X14147857Y62380144D01*
X14147857Y62380144D02*
X14300238Y62380144D01*
X14300238Y62380144D02*
X14376428Y62342049D01*
X14376428Y62342049D02*
X14452619Y62265859D01*
X14452619Y62265859D02*
X14490714Y62113478D01*
X14490714Y62113478D02*
X14490714Y61846811D01*
X14490714Y61846811D02*
X14452619Y61694430D01*
X14452619Y61694430D02*
X14376428Y61618240D01*
X14376428Y61618240D02*
X14300238Y61580144D01*
X14300238Y61580144D02*
X14147857Y61580144D01*
X15176428Y62113478D02*
X15176428Y61580144D01*
X14985952Y62418240D02*
X14795475Y61846811D01*
X14795475Y61846811D02*
X15290714Y61846811D01*
X14979667Y53643144D02*
X14713000Y54024097D01*
X14522524Y53643144D02*
X14522524Y54443144D01*
X14522524Y54443144D02*
X14827286Y54443144D01*
X14827286Y54443144D02*
X14903476Y54405049D01*
X14903476Y54405049D02*
X14941571Y54366954D01*
X14941571Y54366954D02*
X14979667Y54290763D01*
X14979667Y54290763D02*
X14979667Y54176478D01*
X14979667Y54176478D02*
X14941571Y54100287D01*
X14941571Y54100287D02*
X14903476Y54062192D01*
X14903476Y54062192D02*
X14827286Y54024097D01*
X14827286Y54024097D02*
X14522524Y54024097D01*
X15665381Y54176478D02*
X15665381Y53643144D01*
X15474905Y54481240D02*
X15284428Y53909811D01*
X15284428Y53909811D02*
X15779667Y53909811D01*
X14979667Y55040144D02*
X14713000Y55421097D01*
X14522524Y55040144D02*
X14522524Y55840144D01*
X14522524Y55840144D02*
X14827286Y55840144D01*
X14827286Y55840144D02*
X14903476Y55802049D01*
X14903476Y55802049D02*
X14941571Y55763954D01*
X14941571Y55763954D02*
X14979667Y55687763D01*
X14979667Y55687763D02*
X14979667Y55573478D01*
X14979667Y55573478D02*
X14941571Y55497287D01*
X14941571Y55497287D02*
X14903476Y55459192D01*
X14903476Y55459192D02*
X14827286Y55421097D01*
X14827286Y55421097D02*
X14522524Y55421097D01*
X15246333Y55840144D02*
X15741571Y55840144D01*
X15741571Y55840144D02*
X15474905Y55535382D01*
X15474905Y55535382D02*
X15589190Y55535382D01*
X15589190Y55535382D02*
X15665381Y55497287D01*
X15665381Y55497287D02*
X15703476Y55459192D01*
X15703476Y55459192D02*
X15741571Y55383001D01*
X15741571Y55383001D02*
X15741571Y55192525D01*
X15741571Y55192525D02*
X15703476Y55116335D01*
X15703476Y55116335D02*
X15665381Y55078240D01*
X15665381Y55078240D02*
X15589190Y55040144D01*
X15589190Y55040144D02*
X15360619Y55040144D01*
X15360619Y55040144D02*
X15284428Y55078240D01*
X15284428Y55078240D02*
X15246333Y55116335D01*
X14595666Y50925335D02*
X14557570Y50887240D01*
X14557570Y50887240D02*
X14443285Y50849144D01*
X14443285Y50849144D02*
X14367094Y50849144D01*
X14367094Y50849144D02*
X14252808Y50887240D01*
X14252808Y50887240D02*
X14176618Y50963430D01*
X14176618Y50963430D02*
X14138523Y51039620D01*
X14138523Y51039620D02*
X14100427Y51192001D01*
X14100427Y51192001D02*
X14100427Y51306287D01*
X14100427Y51306287D02*
X14138523Y51458668D01*
X14138523Y51458668D02*
X14176618Y51534859D01*
X14176618Y51534859D02*
X14252808Y51611049D01*
X14252808Y51611049D02*
X14367094Y51649144D01*
X14367094Y51649144D02*
X14443285Y51649144D01*
X14443285Y51649144D02*
X14557570Y51611049D01*
X14557570Y51611049D02*
X14595666Y51572954D01*
X15357570Y50849144D02*
X14900427Y50849144D01*
X15128999Y50849144D02*
X15128999Y51649144D01*
X15128999Y51649144D02*
X15052808Y51534859D01*
X15052808Y51534859D02*
X14976618Y51458668D01*
X14976618Y51458668D02*
X14900427Y51420573D01*
X15624237Y51649144D02*
X16157571Y51649144D01*
X16157571Y51649144D02*
X15814713Y50849144D01*
X14615986Y52246144D02*
X14349319Y52627097D01*
X14158843Y52246144D02*
X14158843Y53046144D01*
X14158843Y53046144D02*
X14463605Y53046144D01*
X14463605Y53046144D02*
X14539795Y53008049D01*
X14539795Y53008049D02*
X14577890Y52969954D01*
X14577890Y52969954D02*
X14615986Y52893763D01*
X14615986Y52893763D02*
X14615986Y52779478D01*
X14615986Y52779478D02*
X14577890Y52703287D01*
X14577890Y52703287D02*
X14539795Y52665192D01*
X14539795Y52665192D02*
X14463605Y52627097D01*
X14463605Y52627097D02*
X14158843Y52627097D01*
X15301700Y52779478D02*
X15301700Y52246144D01*
X15111224Y53084240D02*
X14920747Y52512811D01*
X14920747Y52512811D02*
X15415986Y52512811D01*
X15644557Y53046144D02*
X16139795Y53046144D01*
X16139795Y53046144D02*
X15873129Y52741382D01*
X15873129Y52741382D02*
X15987414Y52741382D01*
X15987414Y52741382D02*
X16063605Y52703287D01*
X16063605Y52703287D02*
X16101700Y52665192D01*
X16101700Y52665192D02*
X16139795Y52589001D01*
X16139795Y52589001D02*
X16139795Y52398525D01*
X16139795Y52398525D02*
X16101700Y52322335D01*
X16101700Y52322335D02*
X16063605Y52284240D01*
X16063605Y52284240D02*
X15987414Y52246144D01*
X15987414Y52246144D02*
X15758843Y52246144D01*
X15758843Y52246144D02*
X15682652Y52284240D01*
X15682652Y52284240D02*
X15644557Y52322335D01*
X13730855Y33013714D02*
X13349902Y32747047D01*
X13730855Y32556571D02*
X12930855Y32556571D01*
X12930855Y32556571D02*
X12930855Y32861333D01*
X12930855Y32861333D02*
X12968950Y32937523D01*
X12968950Y32937523D02*
X13007045Y32975618D01*
X13007045Y32975618D02*
X13083236Y33013714D01*
X13083236Y33013714D02*
X13197521Y33013714D01*
X13197521Y33013714D02*
X13273712Y32975618D01*
X13273712Y32975618D02*
X13311807Y32937523D01*
X13311807Y32937523D02*
X13349902Y32861333D01*
X13349902Y32861333D02*
X13349902Y32556571D01*
X13197521Y33699428D02*
X13730855Y33699428D01*
X12892760Y33508952D02*
X13464188Y33318475D01*
X13464188Y33318475D02*
X13464188Y33813714D01*
X12930855Y34042285D02*
X12930855Y34575619D01*
X12930855Y34575619D02*
X13730855Y34232761D01*
X18153855Y40764523D02*
X18801474Y40764523D01*
X18801474Y40764523D02*
X18877664Y40802618D01*
X18877664Y40802618D02*
X18915760Y40840713D01*
X18915760Y40840713D02*
X18953855Y40916904D01*
X18953855Y40916904D02*
X18953855Y41069285D01*
X18953855Y41069285D02*
X18915760Y41145475D01*
X18915760Y41145475D02*
X18877664Y41183570D01*
X18877664Y41183570D02*
X18801474Y41221666D01*
X18801474Y41221666D02*
X18153855Y41221666D01*
X18230045Y41564522D02*
X18191950Y41602618D01*
X18191950Y41602618D02*
X18153855Y41678808D01*
X18153855Y41678808D02*
X18153855Y41869284D01*
X18153855Y41869284D02*
X18191950Y41945475D01*
X18191950Y41945475D02*
X18230045Y41983570D01*
X18230045Y41983570D02*
X18306236Y42021665D01*
X18306236Y42021665D02*
X18382426Y42021665D01*
X18382426Y42021665D02*
X18496712Y41983570D01*
X18496712Y41983570D02*
X18953855Y41526427D01*
X18953855Y41526427D02*
X18953855Y42021665D01*
X18420521Y42707380D02*
X18953855Y42707380D01*
X18115760Y42516904D02*
X18687188Y42326427D01*
X18687188Y42326427D02*
X18687188Y42821666D01*
X17519714Y50849144D02*
X17253047Y51230097D01*
X17062571Y50849144D02*
X17062571Y51649144D01*
X17062571Y51649144D02*
X17367333Y51649144D01*
X17367333Y51649144D02*
X17443523Y51611049D01*
X17443523Y51611049D02*
X17481618Y51572954D01*
X17481618Y51572954D02*
X17519714Y51496763D01*
X17519714Y51496763D02*
X17519714Y51382478D01*
X17519714Y51382478D02*
X17481618Y51306287D01*
X17481618Y51306287D02*
X17443523Y51268192D01*
X17443523Y51268192D02*
X17367333Y51230097D01*
X17367333Y51230097D02*
X17062571Y51230097D01*
X18205428Y51382478D02*
X18205428Y50849144D01*
X18014952Y51687240D02*
X17824475Y51115811D01*
X17824475Y51115811D02*
X18319714Y51115811D01*
X18967333Y51382478D02*
X18967333Y50849144D01*
X18776857Y51687240D02*
X18586380Y51115811D01*
X18586380Y51115811D02*
X19081619Y51115811D01*
X17519714Y49452144D02*
X17253047Y49833097D01*
X17062571Y49452144D02*
X17062571Y50252144D01*
X17062571Y50252144D02*
X17367333Y50252144D01*
X17367333Y50252144D02*
X17443523Y50214049D01*
X17443523Y50214049D02*
X17481618Y50175954D01*
X17481618Y50175954D02*
X17519714Y50099763D01*
X17519714Y50099763D02*
X17519714Y49985478D01*
X17519714Y49985478D02*
X17481618Y49909287D01*
X17481618Y49909287D02*
X17443523Y49871192D01*
X17443523Y49871192D02*
X17367333Y49833097D01*
X17367333Y49833097D02*
X17062571Y49833097D01*
X18205428Y49985478D02*
X18205428Y49452144D01*
X18014952Y50290240D02*
X17824475Y49718811D01*
X17824475Y49718811D02*
X18319714Y49718811D01*
X19005428Y50252144D02*
X18624476Y50252144D01*
X18624476Y50252144D02*
X18586380Y49871192D01*
X18586380Y49871192D02*
X18624476Y49909287D01*
X18624476Y49909287D02*
X18700666Y49947382D01*
X18700666Y49947382D02*
X18891142Y49947382D01*
X18891142Y49947382D02*
X18967333Y49909287D01*
X18967333Y49909287D02*
X19005428Y49871192D01*
X19005428Y49871192D02*
X19043523Y49795001D01*
X19043523Y49795001D02*
X19043523Y49604525D01*
X19043523Y49604525D02*
X19005428Y49528335D01*
X19005428Y49528335D02*
X18967333Y49490240D01*
X18967333Y49490240D02*
X18891142Y49452144D01*
X18891142Y49452144D02*
X18700666Y49452144D01*
X18700666Y49452144D02*
X18624476Y49490240D01*
X18624476Y49490240D02*
X18586380Y49528335D01*
X17516666Y52322335D02*
X17478570Y52284240D01*
X17478570Y52284240D02*
X17364285Y52246144D01*
X17364285Y52246144D02*
X17288094Y52246144D01*
X17288094Y52246144D02*
X17173808Y52284240D01*
X17173808Y52284240D02*
X17097618Y52360430D01*
X17097618Y52360430D02*
X17059523Y52436620D01*
X17059523Y52436620D02*
X17021427Y52589001D01*
X17021427Y52589001D02*
X17021427Y52703287D01*
X17021427Y52703287D02*
X17059523Y52855668D01*
X17059523Y52855668D02*
X17097618Y52931859D01*
X17097618Y52931859D02*
X17173808Y53008049D01*
X17173808Y53008049D02*
X17288094Y53046144D01*
X17288094Y53046144D02*
X17364285Y53046144D01*
X17364285Y53046144D02*
X17478570Y53008049D01*
X17478570Y53008049D02*
X17516666Y52969954D01*
X17821427Y52969954D02*
X17859523Y53008049D01*
X17859523Y53008049D02*
X17935713Y53046144D01*
X17935713Y53046144D02*
X18126189Y53046144D01*
X18126189Y53046144D02*
X18202380Y53008049D01*
X18202380Y53008049D02*
X18240475Y52969954D01*
X18240475Y52969954D02*
X18278570Y52893763D01*
X18278570Y52893763D02*
X18278570Y52817573D01*
X18278570Y52817573D02*
X18240475Y52703287D01*
X18240475Y52703287D02*
X17783332Y52246144D01*
X17783332Y52246144D02*
X18278570Y52246144D01*
X18735713Y52703287D02*
X18659523Y52741382D01*
X18659523Y52741382D02*
X18621428Y52779478D01*
X18621428Y52779478D02*
X18583332Y52855668D01*
X18583332Y52855668D02*
X18583332Y52893763D01*
X18583332Y52893763D02*
X18621428Y52969954D01*
X18621428Y52969954D02*
X18659523Y53008049D01*
X18659523Y53008049D02*
X18735713Y53046144D01*
X18735713Y53046144D02*
X18888094Y53046144D01*
X18888094Y53046144D02*
X18964285Y53008049D01*
X18964285Y53008049D02*
X19002380Y52969954D01*
X19002380Y52969954D02*
X19040475Y52893763D01*
X19040475Y52893763D02*
X19040475Y52855668D01*
X19040475Y52855668D02*
X19002380Y52779478D01*
X19002380Y52779478D02*
X18964285Y52741382D01*
X18964285Y52741382D02*
X18888094Y52703287D01*
X18888094Y52703287D02*
X18735713Y52703287D01*
X18735713Y52703287D02*
X18659523Y52665192D01*
X18659523Y52665192D02*
X18621428Y52627097D01*
X18621428Y52627097D02*
X18583332Y52550906D01*
X18583332Y52550906D02*
X18583332Y52398525D01*
X18583332Y52398525D02*
X18621428Y52322335D01*
X18621428Y52322335D02*
X18659523Y52284240D01*
X18659523Y52284240D02*
X18735713Y52246144D01*
X18735713Y52246144D02*
X18888094Y52246144D01*
X18888094Y52246144D02*
X18964285Y52284240D01*
X18964285Y52284240D02*
X19002380Y52322335D01*
X19002380Y52322335D02*
X19040475Y52398525D01*
X19040475Y52398525D02*
X19040475Y52550906D01*
X19040475Y52550906D02*
X19002380Y52627097D01*
X19002380Y52627097D02*
X18964285Y52665192D01*
X18964285Y52665192D02*
X18888094Y52703287D01*
X21032855Y59734524D02*
X20232855Y59734524D01*
X20232855Y59734524D02*
X20232855Y59925000D01*
X20232855Y59925000D02*
X20270950Y60039286D01*
X20270950Y60039286D02*
X20347140Y60115476D01*
X20347140Y60115476D02*
X20423331Y60153571D01*
X20423331Y60153571D02*
X20575712Y60191667D01*
X20575712Y60191667D02*
X20689998Y60191667D01*
X20689998Y60191667D02*
X20842379Y60153571D01*
X20842379Y60153571D02*
X20918569Y60115476D01*
X20918569Y60115476D02*
X20994760Y60039286D01*
X20994760Y60039286D02*
X21032855Y59925000D01*
X21032855Y59925000D02*
X21032855Y59734524D01*
X20499521Y60877381D02*
X21032855Y60877381D01*
X20194760Y60686905D02*
X20766188Y60496428D01*
X20766188Y60496428D02*
X20766188Y60991667D01*
X19424714Y65073144D02*
X19158047Y65454097D01*
X18967571Y65073144D02*
X18967571Y65873144D01*
X18967571Y65873144D02*
X19272333Y65873144D01*
X19272333Y65873144D02*
X19348523Y65835049D01*
X19348523Y65835049D02*
X19386618Y65796954D01*
X19386618Y65796954D02*
X19424714Y65720763D01*
X19424714Y65720763D02*
X19424714Y65606478D01*
X19424714Y65606478D02*
X19386618Y65530287D01*
X19386618Y65530287D02*
X19348523Y65492192D01*
X19348523Y65492192D02*
X19272333Y65454097D01*
X19272333Y65454097D02*
X18967571Y65454097D01*
X19729475Y65796954D02*
X19767571Y65835049D01*
X19767571Y65835049D02*
X19843761Y65873144D01*
X19843761Y65873144D02*
X20034237Y65873144D01*
X20034237Y65873144D02*
X20110428Y65835049D01*
X20110428Y65835049D02*
X20148523Y65796954D01*
X20148523Y65796954D02*
X20186618Y65720763D01*
X20186618Y65720763D02*
X20186618Y65644573D01*
X20186618Y65644573D02*
X20148523Y65530287D01*
X20148523Y65530287D02*
X19691380Y65073144D01*
X19691380Y65073144D02*
X20186618Y65073144D01*
X20910428Y65873144D02*
X20529476Y65873144D01*
X20529476Y65873144D02*
X20491380Y65492192D01*
X20491380Y65492192D02*
X20529476Y65530287D01*
X20529476Y65530287D02*
X20605666Y65568382D01*
X20605666Y65568382D02*
X20796142Y65568382D01*
X20796142Y65568382D02*
X20872333Y65530287D01*
X20872333Y65530287D02*
X20910428Y65492192D01*
X20910428Y65492192D02*
X20948523Y65416001D01*
X20948523Y65416001D02*
X20948523Y65225525D01*
X20948523Y65225525D02*
X20910428Y65149335D01*
X20910428Y65149335D02*
X20872333Y65111240D01*
X20872333Y65111240D02*
X20796142Y65073144D01*
X20796142Y65073144D02*
X20605666Y65073144D01*
X20605666Y65073144D02*
X20529476Y65111240D01*
X20529476Y65111240D02*
X20491380Y65149335D01*
X19043761Y66597144D02*
X18662809Y66597144D01*
X18662809Y66597144D02*
X18662809Y67397144D01*
X19310428Y67016192D02*
X19577094Y67016192D01*
X19691380Y66597144D02*
X19310428Y66597144D01*
X19310428Y66597144D02*
X19310428Y67397144D01*
X19310428Y67397144D02*
X19691380Y67397144D01*
X20034238Y66597144D02*
X20034238Y67397144D01*
X20034238Y67397144D02*
X20224714Y67397144D01*
X20224714Y67397144D02*
X20339000Y67359049D01*
X20339000Y67359049D02*
X20415190Y67282859D01*
X20415190Y67282859D02*
X20453285Y67206668D01*
X20453285Y67206668D02*
X20491381Y67054287D01*
X20491381Y67054287D02*
X20491381Y66940001D01*
X20491381Y66940001D02*
X20453285Y66787620D01*
X20453285Y66787620D02*
X20415190Y66711430D01*
X20415190Y66711430D02*
X20339000Y66635240D01*
X20339000Y66635240D02*
X20224714Y66597144D01*
X20224714Y66597144D02*
X20034238Y66597144D01*
X20758047Y67397144D02*
X21253285Y67397144D01*
X21253285Y67397144D02*
X20986619Y67092382D01*
X20986619Y67092382D02*
X21100904Y67092382D01*
X21100904Y67092382D02*
X21177095Y67054287D01*
X21177095Y67054287D02*
X21215190Y67016192D01*
X21215190Y67016192D02*
X21253285Y66940001D01*
X21253285Y66940001D02*
X21253285Y66749525D01*
X21253285Y66749525D02*
X21215190Y66673335D01*
X21215190Y66673335D02*
X21177095Y66635240D01*
X21177095Y66635240D02*
X21100904Y66597144D01*
X21100904Y66597144D02*
X20872333Y66597144D01*
X20872333Y66597144D02*
X20796142Y66635240D01*
X20796142Y66635240D02*
X20758047Y66673335D01*
X20139667Y49309334D02*
X20101571Y49271239D01*
X20101571Y49271239D02*
X19987286Y49233143D01*
X19987286Y49233143D02*
X19911095Y49233143D01*
X19911095Y49233143D02*
X19796809Y49271239D01*
X19796809Y49271239D02*
X19720619Y49347429D01*
X19720619Y49347429D02*
X19682524Y49423619D01*
X19682524Y49423619D02*
X19644428Y49576000D01*
X19644428Y49576000D02*
X19644428Y49690286D01*
X19644428Y49690286D02*
X19682524Y49842667D01*
X19682524Y49842667D02*
X19720619Y49918858D01*
X19720619Y49918858D02*
X19796809Y49995048D01*
X19796809Y49995048D02*
X19911095Y50033143D01*
X19911095Y50033143D02*
X19987286Y50033143D01*
X19987286Y50033143D02*
X20101571Y49995048D01*
X20101571Y49995048D02*
X20139667Y49956953D01*
X20863476Y50033143D02*
X20482524Y50033143D01*
X20482524Y50033143D02*
X20444428Y49652191D01*
X20444428Y49652191D02*
X20482524Y49690286D01*
X20482524Y49690286D02*
X20558714Y49728381D01*
X20558714Y49728381D02*
X20749190Y49728381D01*
X20749190Y49728381D02*
X20825381Y49690286D01*
X20825381Y49690286D02*
X20863476Y49652191D01*
X20863476Y49652191D02*
X20901571Y49576000D01*
X20901571Y49576000D02*
X20901571Y49385524D01*
X20901571Y49385524D02*
X20863476Y49309334D01*
X20863476Y49309334D02*
X20825381Y49271239D01*
X20825381Y49271239D02*
X20749190Y49233143D01*
X20749190Y49233143D02*
X20558714Y49233143D01*
X20558714Y49233143D02*
X20482524Y49271239D01*
X20482524Y49271239D02*
X20444428Y49309334D01*
X19953855Y27933714D02*
X19572902Y27667047D01*
X19953855Y27476571D02*
X19153855Y27476571D01*
X19153855Y27476571D02*
X19153855Y27781333D01*
X19153855Y27781333D02*
X19191950Y27857523D01*
X19191950Y27857523D02*
X19230045Y27895618D01*
X19230045Y27895618D02*
X19306236Y27933714D01*
X19306236Y27933714D02*
X19420521Y27933714D01*
X19420521Y27933714D02*
X19496712Y27895618D01*
X19496712Y27895618D02*
X19534807Y27857523D01*
X19534807Y27857523D02*
X19572902Y27781333D01*
X19572902Y27781333D02*
X19572902Y27476571D01*
X19420521Y28619428D02*
X19953855Y28619428D01*
X19115760Y28428952D02*
X19687188Y28238475D01*
X19687188Y28238475D02*
X19687188Y28733714D01*
X19153855Y29381333D02*
X19153855Y29228952D01*
X19153855Y29228952D02*
X19191950Y29152761D01*
X19191950Y29152761D02*
X19230045Y29114666D01*
X19230045Y29114666D02*
X19344331Y29038476D01*
X19344331Y29038476D02*
X19496712Y29000380D01*
X19496712Y29000380D02*
X19801474Y29000380D01*
X19801474Y29000380D02*
X19877664Y29038476D01*
X19877664Y29038476D02*
X19915760Y29076571D01*
X19915760Y29076571D02*
X19953855Y29152761D01*
X19953855Y29152761D02*
X19953855Y29305142D01*
X19953855Y29305142D02*
X19915760Y29381333D01*
X19915760Y29381333D02*
X19877664Y29419428D01*
X19877664Y29419428D02*
X19801474Y29457523D01*
X19801474Y29457523D02*
X19610998Y29457523D01*
X19610998Y29457523D02*
X19534807Y29419428D01*
X19534807Y29419428D02*
X19496712Y29381333D01*
X19496712Y29381333D02*
X19458617Y29305142D01*
X19458617Y29305142D02*
X19458617Y29152761D01*
X19458617Y29152761D02*
X19496712Y29076571D01*
X19496712Y29076571D02*
X19534807Y29038476D01*
X19534807Y29038476D02*
X19610998Y29000380D01*
X20045552Y41379410D02*
X19664599Y41112743D01*
X20045552Y40922267D02*
X19245552Y40922267D01*
X19245552Y40922267D02*
X19245552Y41227029D01*
X19245552Y41227029D02*
X19283647Y41303219D01*
X19283647Y41303219D02*
X19321742Y41341314D01*
X19321742Y41341314D02*
X19397933Y41379410D01*
X19397933Y41379410D02*
X19512218Y41379410D01*
X19512218Y41379410D02*
X19588409Y41341314D01*
X19588409Y41341314D02*
X19626504Y41303219D01*
X19626504Y41303219D02*
X19664599Y41227029D01*
X19664599Y41227029D02*
X19664599Y40922267D01*
X19245552Y41646076D02*
X19245552Y42141314D01*
X19245552Y42141314D02*
X19550314Y41874648D01*
X19550314Y41874648D02*
X19550314Y41988933D01*
X19550314Y41988933D02*
X19588409Y42065124D01*
X19588409Y42065124D02*
X19626504Y42103219D01*
X19626504Y42103219D02*
X19702695Y42141314D01*
X19702695Y42141314D02*
X19893171Y42141314D01*
X19893171Y42141314D02*
X19969361Y42103219D01*
X19969361Y42103219D02*
X20007457Y42065124D01*
X20007457Y42065124D02*
X20045552Y41988933D01*
X20045552Y41988933D02*
X20045552Y41760362D01*
X20045552Y41760362D02*
X20007457Y41684171D01*
X20007457Y41684171D02*
X19969361Y41646076D01*
X19321742Y42446076D02*
X19283647Y42484172D01*
X19283647Y42484172D02*
X19245552Y42560362D01*
X19245552Y42560362D02*
X19245552Y42750838D01*
X19245552Y42750838D02*
X19283647Y42827029D01*
X19283647Y42827029D02*
X19321742Y42865124D01*
X19321742Y42865124D02*
X19397933Y42903219D01*
X19397933Y42903219D02*
X19474123Y42903219D01*
X19474123Y42903219D02*
X19588409Y42865124D01*
X19588409Y42865124D02*
X20045552Y42407981D01*
X20045552Y42407981D02*
X20045552Y42903219D01*
X21010742Y38515505D02*
X20972647Y38439315D01*
X20972647Y38439315D02*
X20896457Y38363124D01*
X20896457Y38363124D02*
X20782171Y38248838D01*
X20782171Y38248838D02*
X20744076Y38172648D01*
X20744076Y38172648D02*
X20744076Y38096457D01*
X20934552Y38134553D02*
X20896457Y38058362D01*
X20896457Y38058362D02*
X20820266Y37982172D01*
X20820266Y37982172D02*
X20667885Y37944076D01*
X20667885Y37944076D02*
X20401218Y37944076D01*
X20401218Y37944076D02*
X20248837Y37982172D01*
X20248837Y37982172D02*
X20172647Y38058362D01*
X20172647Y38058362D02*
X20134552Y38134553D01*
X20134552Y38134553D02*
X20134552Y38286934D01*
X20134552Y38286934D02*
X20172647Y38363124D01*
X20172647Y38363124D02*
X20248837Y38439315D01*
X20248837Y38439315D02*
X20401218Y38477410D01*
X20401218Y38477410D02*
X20667885Y38477410D01*
X20667885Y38477410D02*
X20820266Y38439315D01*
X20820266Y38439315D02*
X20896457Y38363124D01*
X20896457Y38363124D02*
X20934552Y38286934D01*
X20934552Y38286934D02*
X20934552Y38134553D01*
X20934552Y39239314D02*
X20934552Y38782171D01*
X20934552Y39010743D02*
X20134552Y39010743D01*
X20134552Y39010743D02*
X20248837Y38934552D01*
X20248837Y38934552D02*
X20325028Y38858362D01*
X20325028Y38858362D02*
X20363123Y38782171D01*
X25010742Y45119505D02*
X24972647Y45043315D01*
X24972647Y45043315D02*
X24896457Y44967124D01*
X24896457Y44967124D02*
X24782171Y44852838D01*
X24782171Y44852838D02*
X24744076Y44776648D01*
X24744076Y44776648D02*
X24744076Y44700457D01*
X24934552Y44738553D02*
X24896457Y44662362D01*
X24896457Y44662362D02*
X24820266Y44586172D01*
X24820266Y44586172D02*
X24667885Y44548076D01*
X24667885Y44548076D02*
X24401218Y44548076D01*
X24401218Y44548076D02*
X24248837Y44586172D01*
X24248837Y44586172D02*
X24172647Y44662362D01*
X24172647Y44662362D02*
X24134552Y44738553D01*
X24134552Y44738553D02*
X24134552Y44890934D01*
X24134552Y44890934D02*
X24172647Y44967124D01*
X24172647Y44967124D02*
X24248837Y45043315D01*
X24248837Y45043315D02*
X24401218Y45081410D01*
X24401218Y45081410D02*
X24667885Y45081410D01*
X24667885Y45081410D02*
X24820266Y45043315D01*
X24820266Y45043315D02*
X24896457Y44967124D01*
X24896457Y44967124D02*
X24934552Y44890934D01*
X24934552Y44890934D02*
X24934552Y44738553D01*
X24210742Y45386171D02*
X24172647Y45424267D01*
X24172647Y45424267D02*
X24134552Y45500457D01*
X24134552Y45500457D02*
X24134552Y45690933D01*
X24134552Y45690933D02*
X24172647Y45767124D01*
X24172647Y45767124D02*
X24210742Y45805219D01*
X24210742Y45805219D02*
X24286933Y45843314D01*
X24286933Y45843314D02*
X24363123Y45843314D01*
X24363123Y45843314D02*
X24477409Y45805219D01*
X24477409Y45805219D02*
X24934552Y45348076D01*
X24934552Y45348076D02*
X24934552Y45843314D01*
X25696552Y41379410D02*
X25315599Y41112743D01*
X25696552Y40922267D02*
X24896552Y40922267D01*
X24896552Y40922267D02*
X24896552Y41227029D01*
X24896552Y41227029D02*
X24934647Y41303219D01*
X24934647Y41303219D02*
X24972742Y41341314D01*
X24972742Y41341314D02*
X25048933Y41379410D01*
X25048933Y41379410D02*
X25163218Y41379410D01*
X25163218Y41379410D02*
X25239409Y41341314D01*
X25239409Y41341314D02*
X25277504Y41303219D01*
X25277504Y41303219D02*
X25315599Y41227029D01*
X25315599Y41227029D02*
X25315599Y40922267D01*
X24896552Y41646076D02*
X24896552Y42141314D01*
X24896552Y42141314D02*
X25201314Y41874648D01*
X25201314Y41874648D02*
X25201314Y41988933D01*
X25201314Y41988933D02*
X25239409Y42065124D01*
X25239409Y42065124D02*
X25277504Y42103219D01*
X25277504Y42103219D02*
X25353695Y42141314D01*
X25353695Y42141314D02*
X25544171Y42141314D01*
X25544171Y42141314D02*
X25620361Y42103219D01*
X25620361Y42103219D02*
X25658457Y42065124D01*
X25658457Y42065124D02*
X25696552Y41988933D01*
X25696552Y41988933D02*
X25696552Y41760362D01*
X25696552Y41760362D02*
X25658457Y41684171D01*
X25658457Y41684171D02*
X25620361Y41646076D01*
X25696552Y42903219D02*
X25696552Y42446076D01*
X25696552Y42674648D02*
X24896552Y42674648D01*
X24896552Y42674648D02*
X25010837Y42598457D01*
X25010837Y42598457D02*
X25087028Y42522267D01*
X25087028Y42522267D02*
X25125123Y42446076D01*
X40303524Y6716144D02*
X40303524Y7516144D01*
X40303524Y7516144D02*
X40608286Y7516144D01*
X40608286Y7516144D02*
X40684476Y7478049D01*
X40684476Y7478049D02*
X40722571Y7439954D01*
X40722571Y7439954D02*
X40760667Y7363763D01*
X40760667Y7363763D02*
X40760667Y7249478D01*
X40760667Y7249478D02*
X40722571Y7173287D01*
X40722571Y7173287D02*
X40684476Y7135192D01*
X40684476Y7135192D02*
X40608286Y7097097D01*
X40608286Y7097097D02*
X40303524Y7097097D01*
X41522571Y6716144D02*
X41065428Y6716144D01*
X41294000Y6716144D02*
X41294000Y7516144D01*
X41294000Y7516144D02*
X41217809Y7401859D01*
X41217809Y7401859D02*
X41141619Y7325668D01*
X41141619Y7325668D02*
X41065428Y7287573D01*
X41773802Y67846554D02*
X41773802Y67198935D01*
X41773802Y67198935D02*
X41811897Y67122745D01*
X41811897Y67122745D02*
X41849992Y67084650D01*
X41849992Y67084650D02*
X41926183Y67046554D01*
X41926183Y67046554D02*
X42078564Y67046554D01*
X42078564Y67046554D02*
X42154754Y67084650D01*
X42154754Y67084650D02*
X42192849Y67122745D01*
X42192849Y67122745D02*
X42230945Y67198935D01*
X42230945Y67198935D02*
X42230945Y67846554D01*
X42573801Y67770364D02*
X42611897Y67808459D01*
X42611897Y67808459D02*
X42688087Y67846554D01*
X42688087Y67846554D02*
X42878563Y67846554D01*
X42878563Y67846554D02*
X42954754Y67808459D01*
X42954754Y67808459D02*
X42992849Y67770364D01*
X42992849Y67770364D02*
X43030944Y67694173D01*
X43030944Y67694173D02*
X43030944Y67617983D01*
X43030944Y67617983D02*
X42992849Y67503697D01*
X42992849Y67503697D02*
X42535706Y67046554D01*
X42535706Y67046554D02*
X43030944Y67046554D01*
X43297611Y67846554D02*
X43792849Y67846554D01*
X43792849Y67846554D02*
X43526183Y67541792D01*
X43526183Y67541792D02*
X43640468Y67541792D01*
X43640468Y67541792D02*
X43716659Y67503697D01*
X43716659Y67503697D02*
X43754754Y67465602D01*
X43754754Y67465602D02*
X43792849Y67389411D01*
X43792849Y67389411D02*
X43792849Y67198935D01*
X43792849Y67198935D02*
X43754754Y67122745D01*
X43754754Y67122745D02*
X43716659Y67084650D01*
X43716659Y67084650D02*
X43640468Y67046554D01*
X43640468Y67046554D02*
X43411897Y67046554D01*
X43411897Y67046554D02*
X43335706Y67084650D01*
X43335706Y67084650D02*
X43297611Y67122745D01*
X42249992Y65916745D02*
X42211896Y65878650D01*
X42211896Y65878650D02*
X42097611Y65840554D01*
X42097611Y65840554D02*
X42021420Y65840554D01*
X42021420Y65840554D02*
X41907134Y65878650D01*
X41907134Y65878650D02*
X41830944Y65954840D01*
X41830944Y65954840D02*
X41792849Y66031030D01*
X41792849Y66031030D02*
X41754753Y66183411D01*
X41754753Y66183411D02*
X41754753Y66297697D01*
X41754753Y66297697D02*
X41792849Y66450078D01*
X41792849Y66450078D02*
X41830944Y66526269D01*
X41830944Y66526269D02*
X41907134Y66602459D01*
X41907134Y66602459D02*
X42021420Y66640554D01*
X42021420Y66640554D02*
X42097611Y66640554D01*
X42097611Y66640554D02*
X42211896Y66602459D01*
X42211896Y66602459D02*
X42249992Y66564364D01*
X43011896Y65840554D02*
X42554753Y65840554D01*
X42783325Y65840554D02*
X42783325Y66640554D01*
X42783325Y66640554D02*
X42707134Y66526269D01*
X42707134Y66526269D02*
X42630944Y66450078D01*
X42630944Y66450078D02*
X42554753Y66411983D01*
X43735706Y66640554D02*
X43354754Y66640554D01*
X43354754Y66640554D02*
X43316658Y66259602D01*
X43316658Y66259602D02*
X43354754Y66297697D01*
X43354754Y66297697D02*
X43430944Y66335792D01*
X43430944Y66335792D02*
X43621420Y66335792D01*
X43621420Y66335792D02*
X43697611Y66297697D01*
X43697611Y66297697D02*
X43735706Y66259602D01*
X43735706Y66259602D02*
X43773801Y66183411D01*
X43773801Y66183411D02*
X43773801Y65992935D01*
X43773801Y65992935D02*
X43735706Y65916745D01*
X43735706Y65916745D02*
X43697611Y65878650D01*
X43697611Y65878650D02*
X43621420Y65840554D01*
X43621420Y65840554D02*
X43430944Y65840554D01*
X43430944Y65840554D02*
X43354754Y65878650D01*
X43354754Y65878650D02*
X43316658Y65916745D01*
X41773802Y60036554D02*
X41773802Y59388935D01*
X41773802Y59388935D02*
X41811897Y59312745D01*
X41811897Y59312745D02*
X41849992Y59274650D01*
X41849992Y59274650D02*
X41926183Y59236554D01*
X41926183Y59236554D02*
X42078564Y59236554D01*
X42078564Y59236554D02*
X42154754Y59274650D01*
X42154754Y59274650D02*
X42192849Y59312745D01*
X42192849Y59312745D02*
X42230945Y59388935D01*
X42230945Y59388935D02*
X42230945Y60036554D01*
X42573801Y59960364D02*
X42611897Y59998459D01*
X42611897Y59998459D02*
X42688087Y60036554D01*
X42688087Y60036554D02*
X42878563Y60036554D01*
X42878563Y60036554D02*
X42954754Y59998459D01*
X42954754Y59998459D02*
X42992849Y59960364D01*
X42992849Y59960364D02*
X43030944Y59884173D01*
X43030944Y59884173D02*
X43030944Y59807983D01*
X43030944Y59807983D02*
X42992849Y59693697D01*
X42992849Y59693697D02*
X42535706Y59236554D01*
X42535706Y59236554D02*
X43030944Y59236554D01*
X43335706Y59960364D02*
X43373802Y59998459D01*
X43373802Y59998459D02*
X43449992Y60036554D01*
X43449992Y60036554D02*
X43640468Y60036554D01*
X43640468Y60036554D02*
X43716659Y59998459D01*
X43716659Y59998459D02*
X43754754Y59960364D01*
X43754754Y59960364D02*
X43792849Y59884173D01*
X43792849Y59884173D02*
X43792849Y59807983D01*
X43792849Y59807983D02*
X43754754Y59693697D01*
X43754754Y59693697D02*
X43297611Y59236554D01*
X43297611Y59236554D02*
X43792849Y59236554D01*
X44154992Y56518745D02*
X44116896Y56480650D01*
X44116896Y56480650D02*
X44002611Y56442554D01*
X44002611Y56442554D02*
X43926420Y56442554D01*
X43926420Y56442554D02*
X43812134Y56480650D01*
X43812134Y56480650D02*
X43735944Y56556840D01*
X43735944Y56556840D02*
X43697849Y56633030D01*
X43697849Y56633030D02*
X43659753Y56785411D01*
X43659753Y56785411D02*
X43659753Y56899697D01*
X43659753Y56899697D02*
X43697849Y57052078D01*
X43697849Y57052078D02*
X43735944Y57128269D01*
X43735944Y57128269D02*
X43812134Y57204459D01*
X43812134Y57204459D02*
X43926420Y57242554D01*
X43926420Y57242554D02*
X44002611Y57242554D01*
X44002611Y57242554D02*
X44116896Y57204459D01*
X44116896Y57204459D02*
X44154992Y57166364D01*
X44916896Y56442554D02*
X44459753Y56442554D01*
X44688325Y56442554D02*
X44688325Y57242554D01*
X44688325Y57242554D02*
X44612134Y57128269D01*
X44612134Y57128269D02*
X44535944Y57052078D01*
X44535944Y57052078D02*
X44459753Y57013983D01*
X45602611Y56975888D02*
X45602611Y56442554D01*
X45412135Y57280650D02*
X45221658Y56709221D01*
X45221658Y56709221D02*
X45716897Y56709221D01*
X47845942Y64642124D02*
X47884038Y64604028D01*
X47884038Y64604028D02*
X47922133Y64489743D01*
X47922133Y64489743D02*
X47922133Y64413552D01*
X47922133Y64413552D02*
X47884038Y64299266D01*
X47884038Y64299266D02*
X47807847Y64223076D01*
X47807847Y64223076D02*
X47731657Y64184981D01*
X47731657Y64184981D02*
X47579276Y64146885D01*
X47579276Y64146885D02*
X47464990Y64146885D01*
X47464990Y64146885D02*
X47312609Y64184981D01*
X47312609Y64184981D02*
X47236418Y64223076D01*
X47236418Y64223076D02*
X47160228Y64299266D01*
X47160228Y64299266D02*
X47122133Y64413552D01*
X47122133Y64413552D02*
X47122133Y64489743D01*
X47122133Y64489743D02*
X47160228Y64604028D01*
X47160228Y64604028D02*
X47198323Y64642124D01*
X47922133Y65404028D02*
X47922133Y64946885D01*
X47922133Y65175457D02*
X47122133Y65175457D01*
X47122133Y65175457D02*
X47236418Y65099266D01*
X47236418Y65099266D02*
X47312609Y65023076D01*
X47312609Y65023076D02*
X47350704Y64946885D01*
X47122133Y66089743D02*
X47122133Y65937362D01*
X47122133Y65937362D02*
X47160228Y65861171D01*
X47160228Y65861171D02*
X47198323Y65823076D01*
X47198323Y65823076D02*
X47312609Y65746886D01*
X47312609Y65746886D02*
X47464990Y65708790D01*
X47464990Y65708790D02*
X47769752Y65708790D01*
X47769752Y65708790D02*
X47845942Y65746886D01*
X47845942Y65746886D02*
X47884038Y65784981D01*
X47884038Y65784981D02*
X47922133Y65861171D01*
X47922133Y65861171D02*
X47922133Y66013552D01*
X47922133Y66013552D02*
X47884038Y66089743D01*
X47884038Y66089743D02*
X47845942Y66127838D01*
X47845942Y66127838D02*
X47769752Y66165933D01*
X47769752Y66165933D02*
X47579276Y66165933D01*
X47579276Y66165933D02*
X47503085Y66127838D01*
X47503085Y66127838D02*
X47464990Y66089743D01*
X47464990Y66089743D02*
X47426895Y66013552D01*
X47426895Y66013552D02*
X47426895Y65861171D01*
X47426895Y65861171D02*
X47464990Y65784981D01*
X47464990Y65784981D02*
X47503085Y65746886D01*
X47503085Y65746886D02*
X47579276Y65708790D01*
X43880664Y61461714D02*
X43918760Y61423618D01*
X43918760Y61423618D02*
X43956855Y61309333D01*
X43956855Y61309333D02*
X43956855Y61233142D01*
X43956855Y61233142D02*
X43918760Y61118856D01*
X43918760Y61118856D02*
X43842569Y61042666D01*
X43842569Y61042666D02*
X43766379Y61004571D01*
X43766379Y61004571D02*
X43613998Y60966475D01*
X43613998Y60966475D02*
X43499712Y60966475D01*
X43499712Y60966475D02*
X43347331Y61004571D01*
X43347331Y61004571D02*
X43271140Y61042666D01*
X43271140Y61042666D02*
X43194950Y61118856D01*
X43194950Y61118856D02*
X43156855Y61233142D01*
X43156855Y61233142D02*
X43156855Y61309333D01*
X43156855Y61309333D02*
X43194950Y61423618D01*
X43194950Y61423618D02*
X43233045Y61461714D01*
X43956855Y62223618D02*
X43956855Y61766475D01*
X43956855Y61995047D02*
X43156855Y61995047D01*
X43156855Y61995047D02*
X43271140Y61918856D01*
X43271140Y61918856D02*
X43347331Y61842666D01*
X43347331Y61842666D02*
X43385426Y61766475D01*
X43156855Y62490285D02*
X43156855Y62985523D01*
X43156855Y62985523D02*
X43461617Y62718857D01*
X43461617Y62718857D02*
X43461617Y62833142D01*
X43461617Y62833142D02*
X43499712Y62909333D01*
X43499712Y62909333D02*
X43537807Y62947428D01*
X43537807Y62947428D02*
X43613998Y62985523D01*
X43613998Y62985523D02*
X43804474Y62985523D01*
X43804474Y62985523D02*
X43880664Y62947428D01*
X43880664Y62947428D02*
X43918760Y62909333D01*
X43918760Y62909333D02*
X43956855Y62833142D01*
X43956855Y62833142D02*
X43956855Y62604571D01*
X43956855Y62604571D02*
X43918760Y62528380D01*
X43918760Y62528380D02*
X43880664Y62490285D01*
X51182664Y61588667D02*
X51220760Y61550571D01*
X51220760Y61550571D02*
X51258855Y61436286D01*
X51258855Y61436286D02*
X51258855Y61360095D01*
X51258855Y61360095D02*
X51220760Y61245809D01*
X51220760Y61245809D02*
X51144569Y61169619D01*
X51144569Y61169619D02*
X51068379Y61131524D01*
X51068379Y61131524D02*
X50915998Y61093428D01*
X50915998Y61093428D02*
X50801712Y61093428D01*
X50801712Y61093428D02*
X50649331Y61131524D01*
X50649331Y61131524D02*
X50573140Y61169619D01*
X50573140Y61169619D02*
X50496950Y61245809D01*
X50496950Y61245809D02*
X50458855Y61360095D01*
X50458855Y61360095D02*
X50458855Y61436286D01*
X50458855Y61436286D02*
X50496950Y61550571D01*
X50496950Y61550571D02*
X50535045Y61588667D01*
X51258855Y61969619D02*
X51258855Y62122000D01*
X51258855Y62122000D02*
X51220760Y62198190D01*
X51220760Y62198190D02*
X51182664Y62236286D01*
X51182664Y62236286D02*
X51068379Y62312476D01*
X51068379Y62312476D02*
X50915998Y62350571D01*
X50915998Y62350571D02*
X50611236Y62350571D01*
X50611236Y62350571D02*
X50535045Y62312476D01*
X50535045Y62312476D02*
X50496950Y62274381D01*
X50496950Y62274381D02*
X50458855Y62198190D01*
X50458855Y62198190D02*
X50458855Y62045809D01*
X50458855Y62045809D02*
X50496950Y61969619D01*
X50496950Y61969619D02*
X50535045Y61931524D01*
X50535045Y61931524D02*
X50611236Y61893428D01*
X50611236Y61893428D02*
X50801712Y61893428D01*
X50801712Y61893428D02*
X50877902Y61931524D01*
X50877902Y61931524D02*
X50915998Y61969619D01*
X50915998Y61969619D02*
X50954093Y62045809D01*
X50954093Y62045809D02*
X50954093Y62198190D01*
X50954093Y62198190D02*
X50915998Y62274381D01*
X50915998Y62274381D02*
X50877902Y62312476D01*
X50877902Y62312476D02*
X50801712Y62350571D01*
X49955524Y67676144D02*
X49955524Y68476144D01*
X49955524Y68476144D02*
X50146000Y68476144D01*
X50146000Y68476144D02*
X50260286Y68438049D01*
X50260286Y68438049D02*
X50336476Y68361859D01*
X50336476Y68361859D02*
X50374571Y68285668D01*
X50374571Y68285668D02*
X50412667Y68133287D01*
X50412667Y68133287D02*
X50412667Y68019001D01*
X50412667Y68019001D02*
X50374571Y67866620D01*
X50374571Y67866620D02*
X50336476Y67790430D01*
X50336476Y67790430D02*
X50260286Y67714240D01*
X50260286Y67714240D02*
X50146000Y67676144D01*
X50146000Y67676144D02*
X49955524Y67676144D01*
X51136476Y68476144D02*
X50755524Y68476144D01*
X50755524Y68476144D02*
X50717428Y68095192D01*
X50717428Y68095192D02*
X50755524Y68133287D01*
X50755524Y68133287D02*
X50831714Y68171382D01*
X50831714Y68171382D02*
X51022190Y68171382D01*
X51022190Y68171382D02*
X51098381Y68133287D01*
X51098381Y68133287D02*
X51136476Y68095192D01*
X51136476Y68095192D02*
X51174571Y68019001D01*
X51174571Y68019001D02*
X51174571Y67828525D01*
X51174571Y67828525D02*
X51136476Y67752335D01*
X51136476Y67752335D02*
X51098381Y67714240D01*
X51098381Y67714240D02*
X51022190Y67676144D01*
X51022190Y67676144D02*
X50831714Y67676144D01*
X50831714Y67676144D02*
X50755524Y67714240D01*
X50755524Y67714240D02*
X50717428Y67752335D01*
X49671855Y60445714D02*
X49290902Y60179047D01*
X49671855Y59988571D02*
X48871855Y59988571D01*
X48871855Y59988571D02*
X48871855Y60293333D01*
X48871855Y60293333D02*
X48909950Y60369523D01*
X48909950Y60369523D02*
X48948045Y60407618D01*
X48948045Y60407618D02*
X49024236Y60445714D01*
X49024236Y60445714D02*
X49138521Y60445714D01*
X49138521Y60445714D02*
X49214712Y60407618D01*
X49214712Y60407618D02*
X49252807Y60369523D01*
X49252807Y60369523D02*
X49290902Y60293333D01*
X49290902Y60293333D02*
X49290902Y59988571D01*
X48948045Y60750475D02*
X48909950Y60788571D01*
X48909950Y60788571D02*
X48871855Y60864761D01*
X48871855Y60864761D02*
X48871855Y61055237D01*
X48871855Y61055237D02*
X48909950Y61131428D01*
X48909950Y61131428D02*
X48948045Y61169523D01*
X48948045Y61169523D02*
X49024236Y61207618D01*
X49024236Y61207618D02*
X49100426Y61207618D01*
X49100426Y61207618D02*
X49214712Y61169523D01*
X49214712Y61169523D02*
X49671855Y60712380D01*
X49671855Y60712380D02*
X49671855Y61207618D01*
X49138521Y61893333D02*
X49671855Y61893333D01*
X48833760Y61702857D02*
X49405188Y61512380D01*
X49405188Y61512380D02*
X49405188Y62007619D01*
X55068855Y60445714D02*
X54687902Y60179047D01*
X55068855Y59988571D02*
X54268855Y59988571D01*
X54268855Y59988571D02*
X54268855Y60293333D01*
X54268855Y60293333D02*
X54306950Y60369523D01*
X54306950Y60369523D02*
X54345045Y60407618D01*
X54345045Y60407618D02*
X54421236Y60445714D01*
X54421236Y60445714D02*
X54535521Y60445714D01*
X54535521Y60445714D02*
X54611712Y60407618D01*
X54611712Y60407618D02*
X54649807Y60369523D01*
X54649807Y60369523D02*
X54687902Y60293333D01*
X54687902Y60293333D02*
X54687902Y59988571D01*
X54345045Y60750475D02*
X54306950Y60788571D01*
X54306950Y60788571D02*
X54268855Y60864761D01*
X54268855Y60864761D02*
X54268855Y61055237D01*
X54268855Y61055237D02*
X54306950Y61131428D01*
X54306950Y61131428D02*
X54345045Y61169523D01*
X54345045Y61169523D02*
X54421236Y61207618D01*
X54421236Y61207618D02*
X54497426Y61207618D01*
X54497426Y61207618D02*
X54611712Y61169523D01*
X54611712Y61169523D02*
X55068855Y60712380D01*
X55068855Y60712380D02*
X55068855Y61207618D01*
X54345045Y61512380D02*
X54306950Y61550476D01*
X54306950Y61550476D02*
X54268855Y61626666D01*
X54268855Y61626666D02*
X54268855Y61817142D01*
X54268855Y61817142D02*
X54306950Y61893333D01*
X54306950Y61893333D02*
X54345045Y61931428D01*
X54345045Y61931428D02*
X54421236Y61969523D01*
X54421236Y61969523D02*
X54497426Y61969523D01*
X54497426Y61969523D02*
X54611712Y61931428D01*
X54611712Y61931428D02*
X55068855Y61474285D01*
X55068855Y61474285D02*
X55068855Y61969523D01*
X55449855Y21075714D02*
X55068902Y20809047D01*
X55449855Y20618571D02*
X54649855Y20618571D01*
X54649855Y20618571D02*
X54649855Y20923333D01*
X54649855Y20923333D02*
X54687950Y20999523D01*
X54687950Y20999523D02*
X54726045Y21037618D01*
X54726045Y21037618D02*
X54802236Y21075714D01*
X54802236Y21075714D02*
X54916521Y21075714D01*
X54916521Y21075714D02*
X54992712Y21037618D01*
X54992712Y21037618D02*
X55030807Y20999523D01*
X55030807Y20999523D02*
X55068902Y20923333D01*
X55068902Y20923333D02*
X55068902Y20618571D01*
X54916521Y21761428D02*
X55449855Y21761428D01*
X54611760Y21570952D02*
X55183188Y21380475D01*
X55183188Y21380475D02*
X55183188Y21875714D01*
X54992712Y22294761D02*
X54954617Y22218571D01*
X54954617Y22218571D02*
X54916521Y22180476D01*
X54916521Y22180476D02*
X54840331Y22142380D01*
X54840331Y22142380D02*
X54802236Y22142380D01*
X54802236Y22142380D02*
X54726045Y22180476D01*
X54726045Y22180476D02*
X54687950Y22218571D01*
X54687950Y22218571D02*
X54649855Y22294761D01*
X54649855Y22294761D02*
X54649855Y22447142D01*
X54649855Y22447142D02*
X54687950Y22523333D01*
X54687950Y22523333D02*
X54726045Y22561428D01*
X54726045Y22561428D02*
X54802236Y22599523D01*
X54802236Y22599523D02*
X54840331Y22599523D01*
X54840331Y22599523D02*
X54916521Y22561428D01*
X54916521Y22561428D02*
X54954617Y22523333D01*
X54954617Y22523333D02*
X54992712Y22447142D01*
X54992712Y22447142D02*
X54992712Y22294761D01*
X54992712Y22294761D02*
X55030807Y22218571D01*
X55030807Y22218571D02*
X55068902Y22180476D01*
X55068902Y22180476D02*
X55145093Y22142380D01*
X55145093Y22142380D02*
X55297474Y22142380D01*
X55297474Y22142380D02*
X55373664Y22180476D01*
X55373664Y22180476D02*
X55411760Y22218571D01*
X55411760Y22218571D02*
X55449855Y22294761D01*
X55449855Y22294761D02*
X55449855Y22447142D01*
X55449855Y22447142D02*
X55411760Y22523333D01*
X55411760Y22523333D02*
X55373664Y22561428D01*
X55373664Y22561428D02*
X55297474Y22599523D01*
X55297474Y22599523D02*
X55145093Y22599523D01*
X55145093Y22599523D02*
X55068902Y22561428D01*
X55068902Y22561428D02*
X55030807Y22523333D01*
X55030807Y22523333D02*
X54992712Y22447142D01*
X51449855Y24721313D02*
X51068902Y24454646D01*
X51449855Y24264170D02*
X50649855Y24264170D01*
X50649855Y24264170D02*
X50649855Y24568932D01*
X50649855Y24568932D02*
X50687950Y24645122D01*
X50687950Y24645122D02*
X50726045Y24683217D01*
X50726045Y24683217D02*
X50802236Y24721313D01*
X50802236Y24721313D02*
X50916521Y24721313D01*
X50916521Y24721313D02*
X50992712Y24683217D01*
X50992712Y24683217D02*
X51030807Y24645122D01*
X51030807Y24645122D02*
X51068902Y24568932D01*
X51068902Y24568932D02*
X51068902Y24264170D01*
X50916521Y25407027D02*
X51449855Y25407027D01*
X50611760Y25216551D02*
X51183188Y25026074D01*
X51183188Y25026074D02*
X51183188Y25521313D01*
X51449855Y25864170D02*
X51449855Y26016551D01*
X51449855Y26016551D02*
X51411760Y26092741D01*
X51411760Y26092741D02*
X51373664Y26130837D01*
X51373664Y26130837D02*
X51259379Y26207027D01*
X51259379Y26207027D02*
X51106998Y26245122D01*
X51106998Y26245122D02*
X50802236Y26245122D01*
X50802236Y26245122D02*
X50726045Y26207027D01*
X50726045Y26207027D02*
X50687950Y26168932D01*
X50687950Y26168932D02*
X50649855Y26092741D01*
X50649855Y26092741D02*
X50649855Y25940360D01*
X50649855Y25940360D02*
X50687950Y25864170D01*
X50687950Y25864170D02*
X50726045Y25826075D01*
X50726045Y25826075D02*
X50802236Y25787979D01*
X50802236Y25787979D02*
X50992712Y25787979D01*
X50992712Y25787979D02*
X51068902Y25826075D01*
X51068902Y25826075D02*
X51106998Y25864170D01*
X51106998Y25864170D02*
X51145093Y25940360D01*
X51145093Y25940360D02*
X51145093Y26092741D01*
X51145093Y26092741D02*
X51106998Y26168932D01*
X51106998Y26168932D02*
X51068902Y26207027D01*
X51068902Y26207027D02*
X50992712Y26245122D01*
X56808855Y61112476D02*
X57456474Y61112476D01*
X57456474Y61112476D02*
X57532664Y61150571D01*
X57532664Y61150571D02*
X57570760Y61188666D01*
X57570760Y61188666D02*
X57608855Y61264857D01*
X57608855Y61264857D02*
X57608855Y61417238D01*
X57608855Y61417238D02*
X57570760Y61493428D01*
X57570760Y61493428D02*
X57532664Y61531523D01*
X57532664Y61531523D02*
X57456474Y61569619D01*
X57456474Y61569619D02*
X56808855Y61569619D01*
X56808855Y61874380D02*
X56808855Y62369618D01*
X56808855Y62369618D02*
X57113617Y62102952D01*
X57113617Y62102952D02*
X57113617Y62217237D01*
X57113617Y62217237D02*
X57151712Y62293428D01*
X57151712Y62293428D02*
X57189807Y62331523D01*
X57189807Y62331523D02*
X57265998Y62369618D01*
X57265998Y62369618D02*
X57456474Y62369618D01*
X57456474Y62369618D02*
X57532664Y62331523D01*
X57532664Y62331523D02*
X57570760Y62293428D01*
X57570760Y62293428D02*
X57608855Y62217237D01*
X57608855Y62217237D02*
X57608855Y61988666D01*
X57608855Y61988666D02*
X57570760Y61912475D01*
X57570760Y61912475D02*
X57532664Y61874380D01*
X54681273Y22147144D02*
X54414606Y22528097D01*
X54224130Y22147144D02*
X54224130Y22947144D01*
X54224130Y22947144D02*
X54528892Y22947144D01*
X54528892Y22947144D02*
X54605082Y22909049D01*
X54605082Y22909049D02*
X54643177Y22870954D01*
X54643177Y22870954D02*
X54681273Y22794763D01*
X54681273Y22794763D02*
X54681273Y22680478D01*
X54681273Y22680478D02*
X54643177Y22604287D01*
X54643177Y22604287D02*
X54605082Y22566192D01*
X54605082Y22566192D02*
X54528892Y22528097D01*
X54528892Y22528097D02*
X54224130Y22528097D01*
X55405082Y22947144D02*
X55024130Y22947144D01*
X55024130Y22947144D02*
X54986034Y22566192D01*
X54986034Y22566192D02*
X55024130Y22604287D01*
X55024130Y22604287D02*
X55100320Y22642382D01*
X55100320Y22642382D02*
X55290796Y22642382D01*
X55290796Y22642382D02*
X55366987Y22604287D01*
X55366987Y22604287D02*
X55405082Y22566192D01*
X55405082Y22566192D02*
X55443177Y22490001D01*
X55443177Y22490001D02*
X55443177Y22299525D01*
X55443177Y22299525D02*
X55405082Y22223335D01*
X55405082Y22223335D02*
X55366987Y22185240D01*
X55366987Y22185240D02*
X55290796Y22147144D01*
X55290796Y22147144D02*
X55100320Y22147144D01*
X55100320Y22147144D02*
X55024130Y22185240D01*
X55024130Y22185240D02*
X54986034Y22223335D01*
X55938416Y22947144D02*
X56014606Y22947144D01*
X56014606Y22947144D02*
X56090797Y22909049D01*
X56090797Y22909049D02*
X56128892Y22870954D01*
X56128892Y22870954D02*
X56166987Y22794763D01*
X56166987Y22794763D02*
X56205082Y22642382D01*
X56205082Y22642382D02*
X56205082Y22451906D01*
X56205082Y22451906D02*
X56166987Y22299525D01*
X56166987Y22299525D02*
X56128892Y22223335D01*
X56128892Y22223335D02*
X56090797Y22185240D01*
X56090797Y22185240D02*
X56014606Y22147144D01*
X56014606Y22147144D02*
X55938416Y22147144D01*
X55938416Y22147144D02*
X55862225Y22185240D01*
X55862225Y22185240D02*
X55824130Y22223335D01*
X55824130Y22223335D02*
X55786035Y22299525D01*
X55786035Y22299525D02*
X55747939Y22451906D01*
X55747939Y22451906D02*
X55747939Y22642382D01*
X55747939Y22642382D02*
X55786035Y22794763D01*
X55786035Y22794763D02*
X55824130Y22870954D01*
X55824130Y22870954D02*
X55862225Y22909049D01*
X55862225Y22909049D02*
X55938416Y22947144D01*
X54702799Y19206433D02*
X54664703Y19168338D01*
X54664703Y19168338D02*
X54550418Y19130242D01*
X54550418Y19130242D02*
X54474227Y19130242D01*
X54474227Y19130242D02*
X54359941Y19168338D01*
X54359941Y19168338D02*
X54283751Y19244528D01*
X54283751Y19244528D02*
X54245656Y19320718D01*
X54245656Y19320718D02*
X54207560Y19473099D01*
X54207560Y19473099D02*
X54207560Y19587385D01*
X54207560Y19587385D02*
X54245656Y19739766D01*
X54245656Y19739766D02*
X54283751Y19815957D01*
X54283751Y19815957D02*
X54359941Y19892147D01*
X54359941Y19892147D02*
X54474227Y19930242D01*
X54474227Y19930242D02*
X54550418Y19930242D01*
X54550418Y19930242D02*
X54664703Y19892147D01*
X54664703Y19892147D02*
X54702799Y19854052D01*
X54969465Y19930242D02*
X55464703Y19930242D01*
X55464703Y19930242D02*
X55198037Y19625480D01*
X55198037Y19625480D02*
X55312322Y19625480D01*
X55312322Y19625480D02*
X55388513Y19587385D01*
X55388513Y19587385D02*
X55426608Y19549290D01*
X55426608Y19549290D02*
X55464703Y19473099D01*
X55464703Y19473099D02*
X55464703Y19282623D01*
X55464703Y19282623D02*
X55426608Y19206433D01*
X55426608Y19206433D02*
X55388513Y19168338D01*
X55388513Y19168338D02*
X55312322Y19130242D01*
X55312322Y19130242D02*
X55083751Y19130242D01*
X55083751Y19130242D02*
X55007560Y19168338D01*
X55007560Y19168338D02*
X54969465Y19206433D01*
X56226608Y19130242D02*
X55769465Y19130242D01*
X55998037Y19130242D02*
X55998037Y19930242D01*
X55998037Y19930242D02*
X55921846Y19815957D01*
X55921846Y19815957D02*
X55845656Y19739766D01*
X55845656Y19739766D02*
X55769465Y19701671D01*
X54730714Y17714335D02*
X54692618Y17676240D01*
X54692618Y17676240D02*
X54578333Y17638144D01*
X54578333Y17638144D02*
X54502142Y17638144D01*
X54502142Y17638144D02*
X54387856Y17676240D01*
X54387856Y17676240D02*
X54311666Y17752430D01*
X54311666Y17752430D02*
X54273571Y17828620D01*
X54273571Y17828620D02*
X54235475Y17981001D01*
X54235475Y17981001D02*
X54235475Y18095287D01*
X54235475Y18095287D02*
X54273571Y18247668D01*
X54273571Y18247668D02*
X54311666Y18323859D01*
X54311666Y18323859D02*
X54387856Y18400049D01*
X54387856Y18400049D02*
X54502142Y18438144D01*
X54502142Y18438144D02*
X54578333Y18438144D01*
X54578333Y18438144D02*
X54692618Y18400049D01*
X54692618Y18400049D02*
X54730714Y18361954D01*
X54997380Y18438144D02*
X55492618Y18438144D01*
X55492618Y18438144D02*
X55225952Y18133382D01*
X55225952Y18133382D02*
X55340237Y18133382D01*
X55340237Y18133382D02*
X55416428Y18095287D01*
X55416428Y18095287D02*
X55454523Y18057192D01*
X55454523Y18057192D02*
X55492618Y17981001D01*
X55492618Y17981001D02*
X55492618Y17790525D01*
X55492618Y17790525D02*
X55454523Y17714335D01*
X55454523Y17714335D02*
X55416428Y17676240D01*
X55416428Y17676240D02*
X55340237Y17638144D01*
X55340237Y17638144D02*
X55111666Y17638144D01*
X55111666Y17638144D02*
X55035475Y17676240D01*
X55035475Y17676240D02*
X54997380Y17714335D01*
X55797380Y18361954D02*
X55835476Y18400049D01*
X55835476Y18400049D02*
X55911666Y18438144D01*
X55911666Y18438144D02*
X56102142Y18438144D01*
X56102142Y18438144D02*
X56178333Y18400049D01*
X56178333Y18400049D02*
X56216428Y18361954D01*
X56216428Y18361954D02*
X56254523Y18285763D01*
X56254523Y18285763D02*
X56254523Y18209573D01*
X56254523Y18209573D02*
X56216428Y18095287D01*
X56216428Y18095287D02*
X55759285Y17638144D01*
X55759285Y17638144D02*
X56254523Y17638144D01*
X54730714Y19988144D02*
X54464047Y20369097D01*
X54273571Y19988144D02*
X54273571Y20788144D01*
X54273571Y20788144D02*
X54578333Y20788144D01*
X54578333Y20788144D02*
X54654523Y20750049D01*
X54654523Y20750049D02*
X54692618Y20711954D01*
X54692618Y20711954D02*
X54730714Y20635763D01*
X54730714Y20635763D02*
X54730714Y20521478D01*
X54730714Y20521478D02*
X54692618Y20445287D01*
X54692618Y20445287D02*
X54654523Y20407192D01*
X54654523Y20407192D02*
X54578333Y20369097D01*
X54578333Y20369097D02*
X54273571Y20369097D01*
X55454523Y20788144D02*
X55073571Y20788144D01*
X55073571Y20788144D02*
X55035475Y20407192D01*
X55035475Y20407192D02*
X55073571Y20445287D01*
X55073571Y20445287D02*
X55149761Y20483382D01*
X55149761Y20483382D02*
X55340237Y20483382D01*
X55340237Y20483382D02*
X55416428Y20445287D01*
X55416428Y20445287D02*
X55454523Y20407192D01*
X55454523Y20407192D02*
X55492618Y20331001D01*
X55492618Y20331001D02*
X55492618Y20140525D01*
X55492618Y20140525D02*
X55454523Y20064335D01*
X55454523Y20064335D02*
X55416428Y20026240D01*
X55416428Y20026240D02*
X55340237Y19988144D01*
X55340237Y19988144D02*
X55149761Y19988144D01*
X55149761Y19988144D02*
X55073571Y20026240D01*
X55073571Y20026240D02*
X55035475Y20064335D01*
X56254523Y19988144D02*
X55797380Y19988144D01*
X56025952Y19988144D02*
X56025952Y20788144D01*
X56025952Y20788144D02*
X55949761Y20673859D01*
X55949761Y20673859D02*
X55873571Y20597668D01*
X55873571Y20597668D02*
X55797380Y20559573D01*
X56889666Y67803144D02*
X56508714Y67803144D01*
X56508714Y67803144D02*
X56508714Y68603144D01*
X57118237Y68526954D02*
X57156333Y68565049D01*
X57156333Y68565049D02*
X57232523Y68603144D01*
X57232523Y68603144D02*
X57422999Y68603144D01*
X57422999Y68603144D02*
X57499190Y68565049D01*
X57499190Y68565049D02*
X57537285Y68526954D01*
X57537285Y68526954D02*
X57575380Y68450763D01*
X57575380Y68450763D02*
X57575380Y68374573D01*
X57575380Y68374573D02*
X57537285Y68260287D01*
X57537285Y68260287D02*
X57080142Y67803144D01*
X57080142Y67803144D02*
X57575380Y67803144D01*
X60148855Y60572714D02*
X59767902Y60306047D01*
X60148855Y60115571D02*
X59348855Y60115571D01*
X59348855Y60115571D02*
X59348855Y60420333D01*
X59348855Y60420333D02*
X59386950Y60496523D01*
X59386950Y60496523D02*
X59425045Y60534618D01*
X59425045Y60534618D02*
X59501236Y60572714D01*
X59501236Y60572714D02*
X59615521Y60572714D01*
X59615521Y60572714D02*
X59691712Y60534618D01*
X59691712Y60534618D02*
X59729807Y60496523D01*
X59729807Y60496523D02*
X59767902Y60420333D01*
X59767902Y60420333D02*
X59767902Y60115571D01*
X59425045Y60877475D02*
X59386950Y60915571D01*
X59386950Y60915571D02*
X59348855Y60991761D01*
X59348855Y60991761D02*
X59348855Y61182237D01*
X59348855Y61182237D02*
X59386950Y61258428D01*
X59386950Y61258428D02*
X59425045Y61296523D01*
X59425045Y61296523D02*
X59501236Y61334618D01*
X59501236Y61334618D02*
X59577426Y61334618D01*
X59577426Y61334618D02*
X59691712Y61296523D01*
X59691712Y61296523D02*
X60148855Y60839380D01*
X60148855Y60839380D02*
X60148855Y61334618D01*
X59348855Y61601285D02*
X59348855Y62096523D01*
X59348855Y62096523D02*
X59653617Y61829857D01*
X59653617Y61829857D02*
X59653617Y61944142D01*
X59653617Y61944142D02*
X59691712Y62020333D01*
X59691712Y62020333D02*
X59729807Y62058428D01*
X59729807Y62058428D02*
X59805998Y62096523D01*
X59805998Y62096523D02*
X59996474Y62096523D01*
X59996474Y62096523D02*
X60072664Y62058428D01*
X60072664Y62058428D02*
X60110760Y62020333D01*
X60110760Y62020333D02*
X60148855Y61944142D01*
X60148855Y61944142D02*
X60148855Y61715571D01*
X60148855Y61715571D02*
X60110760Y61639380D01*
X60110760Y61639380D02*
X60072664Y61601285D01*
X62485664Y60445667D02*
X62523760Y60407571D01*
X62523760Y60407571D02*
X62561855Y60293286D01*
X62561855Y60293286D02*
X62561855Y60217095D01*
X62561855Y60217095D02*
X62523760Y60102809D01*
X62523760Y60102809D02*
X62447569Y60026619D01*
X62447569Y60026619D02*
X62371379Y59988524D01*
X62371379Y59988524D02*
X62218998Y59950428D01*
X62218998Y59950428D02*
X62104712Y59950428D01*
X62104712Y59950428D02*
X61952331Y59988524D01*
X61952331Y59988524D02*
X61876140Y60026619D01*
X61876140Y60026619D02*
X61799950Y60102809D01*
X61799950Y60102809D02*
X61761855Y60217095D01*
X61761855Y60217095D02*
X61761855Y60293286D01*
X61761855Y60293286D02*
X61799950Y60407571D01*
X61799950Y60407571D02*
X61838045Y60445667D01*
X62104712Y60902809D02*
X62066617Y60826619D01*
X62066617Y60826619D02*
X62028521Y60788524D01*
X62028521Y60788524D02*
X61952331Y60750428D01*
X61952331Y60750428D02*
X61914236Y60750428D01*
X61914236Y60750428D02*
X61838045Y60788524D01*
X61838045Y60788524D02*
X61799950Y60826619D01*
X61799950Y60826619D02*
X61761855Y60902809D01*
X61761855Y60902809D02*
X61761855Y61055190D01*
X61761855Y61055190D02*
X61799950Y61131381D01*
X61799950Y61131381D02*
X61838045Y61169476D01*
X61838045Y61169476D02*
X61914236Y61207571D01*
X61914236Y61207571D02*
X61952331Y61207571D01*
X61952331Y61207571D02*
X62028521Y61169476D01*
X62028521Y61169476D02*
X62066617Y61131381D01*
X62066617Y61131381D02*
X62104712Y61055190D01*
X62104712Y61055190D02*
X62104712Y60902809D01*
X62104712Y60902809D02*
X62142807Y60826619D01*
X62142807Y60826619D02*
X62180902Y60788524D01*
X62180902Y60788524D02*
X62257093Y60750428D01*
X62257093Y60750428D02*
X62409474Y60750428D01*
X62409474Y60750428D02*
X62485664Y60788524D01*
X62485664Y60788524D02*
X62523760Y60826619D01*
X62523760Y60826619D02*
X62561855Y60902809D01*
X62561855Y60902809D02*
X62561855Y61055190D01*
X62561855Y61055190D02*
X62523760Y61131381D01*
X62523760Y61131381D02*
X62485664Y61169476D01*
X62485664Y61169476D02*
X62409474Y61207571D01*
X62409474Y61207571D02*
X62257093Y61207571D01*
X62257093Y61207571D02*
X62180902Y61169476D01*
X62180902Y61169476D02*
X62142807Y61131381D01*
X62142807Y61131381D02*
X62104712Y61055190D01*
X70181855Y56381714D02*
X69800902Y56115047D01*
X70181855Y55924571D02*
X69381855Y55924571D01*
X69381855Y55924571D02*
X69381855Y56229333D01*
X69381855Y56229333D02*
X69419950Y56305523D01*
X69419950Y56305523D02*
X69458045Y56343618D01*
X69458045Y56343618D02*
X69534236Y56381714D01*
X69534236Y56381714D02*
X69648521Y56381714D01*
X69648521Y56381714D02*
X69724712Y56343618D01*
X69724712Y56343618D02*
X69762807Y56305523D01*
X69762807Y56305523D02*
X69800902Y56229333D01*
X69800902Y56229333D02*
X69800902Y55924571D01*
X70181855Y57143618D02*
X70181855Y56686475D01*
X70181855Y56915047D02*
X69381855Y56915047D01*
X69381855Y56915047D02*
X69496140Y56838856D01*
X69496140Y56838856D02*
X69572331Y56762666D01*
X69572331Y56762666D02*
X69610426Y56686475D01*
X69458045Y57448380D02*
X69419950Y57486476D01*
X69419950Y57486476D02*
X69381855Y57562666D01*
X69381855Y57562666D02*
X69381855Y57753142D01*
X69381855Y57753142D02*
X69419950Y57829333D01*
X69419950Y57829333D02*
X69458045Y57867428D01*
X69458045Y57867428D02*
X69534236Y57905523D01*
X69534236Y57905523D02*
X69610426Y57905523D01*
X69610426Y57905523D02*
X69724712Y57867428D01*
X69724712Y57867428D02*
X70181855Y57410285D01*
X70181855Y57410285D02*
X70181855Y57905523D01*
X67502664Y56762667D02*
X67540760Y56724571D01*
X67540760Y56724571D02*
X67578855Y56610286D01*
X67578855Y56610286D02*
X67578855Y56534095D01*
X67578855Y56534095D02*
X67540760Y56419809D01*
X67540760Y56419809D02*
X67464569Y56343619D01*
X67464569Y56343619D02*
X67388379Y56305524D01*
X67388379Y56305524D02*
X67235998Y56267428D01*
X67235998Y56267428D02*
X67121712Y56267428D01*
X67121712Y56267428D02*
X66969331Y56305524D01*
X66969331Y56305524D02*
X66893140Y56343619D01*
X66893140Y56343619D02*
X66816950Y56419809D01*
X66816950Y56419809D02*
X66778855Y56534095D01*
X66778855Y56534095D02*
X66778855Y56610286D01*
X66778855Y56610286D02*
X66816950Y56724571D01*
X66816950Y56724571D02*
X66855045Y56762667D01*
X66855045Y57067428D02*
X66816950Y57105524D01*
X66816950Y57105524D02*
X66778855Y57181714D01*
X66778855Y57181714D02*
X66778855Y57372190D01*
X66778855Y57372190D02*
X66816950Y57448381D01*
X66816950Y57448381D02*
X66855045Y57486476D01*
X66855045Y57486476D02*
X66931236Y57524571D01*
X66931236Y57524571D02*
X67007426Y57524571D01*
X67007426Y57524571D02*
X67121712Y57486476D01*
X67121712Y57486476D02*
X67578855Y57029333D01*
X67578855Y57029333D02*
X67578855Y57524571D01*
X69094219Y56263350D02*
X68713266Y55996683D01*
X69094219Y55806207D02*
X68294219Y55806207D01*
X68294219Y55806207D02*
X68294219Y56110969D01*
X68294219Y56110969D02*
X68332314Y56187159D01*
X68332314Y56187159D02*
X68370409Y56225254D01*
X68370409Y56225254D02*
X68446600Y56263350D01*
X68446600Y56263350D02*
X68560885Y56263350D01*
X68560885Y56263350D02*
X68637076Y56225254D01*
X68637076Y56225254D02*
X68675171Y56187159D01*
X68675171Y56187159D02*
X68713266Y56110969D01*
X68713266Y56110969D02*
X68713266Y55806207D01*
X68370409Y56568111D02*
X68332314Y56606207D01*
X68332314Y56606207D02*
X68294219Y56682397D01*
X68294219Y56682397D02*
X68294219Y56872873D01*
X68294219Y56872873D02*
X68332314Y56949064D01*
X68332314Y56949064D02*
X68370409Y56987159D01*
X68370409Y56987159D02*
X68446600Y57025254D01*
X68446600Y57025254D02*
X68522790Y57025254D01*
X68522790Y57025254D02*
X68637076Y56987159D01*
X68637076Y56987159D02*
X69094219Y56530016D01*
X69094219Y56530016D02*
X69094219Y57025254D01*
X68294219Y57710969D02*
X68294219Y57558588D01*
X68294219Y57558588D02*
X68332314Y57482397D01*
X68332314Y57482397D02*
X68370409Y57444302D01*
X68370409Y57444302D02*
X68484695Y57368112D01*
X68484695Y57368112D02*
X68637076Y57330016D01*
X68637076Y57330016D02*
X68941838Y57330016D01*
X68941838Y57330016D02*
X69018028Y57368112D01*
X69018028Y57368112D02*
X69056124Y57406207D01*
X69056124Y57406207D02*
X69094219Y57482397D01*
X69094219Y57482397D02*
X69094219Y57634778D01*
X69094219Y57634778D02*
X69056124Y57710969D01*
X69056124Y57710969D02*
X69018028Y57749064D01*
X69018028Y57749064D02*
X68941838Y57787159D01*
X68941838Y57787159D02*
X68751362Y57787159D01*
X68751362Y57787159D02*
X68675171Y57749064D01*
X68675171Y57749064D02*
X68637076Y57710969D01*
X68637076Y57710969D02*
X68598981Y57634778D01*
X68598981Y57634778D02*
X68598981Y57482397D01*
X68598981Y57482397D02*
X68637076Y57406207D01*
X68637076Y57406207D02*
X68675171Y57368112D01*
X68675171Y57368112D02*
X68751362Y57330016D01*
X70224714Y54722144D02*
X69958047Y55103097D01*
X69767571Y54722144D02*
X69767571Y55522144D01*
X69767571Y55522144D02*
X70072333Y55522144D01*
X70072333Y55522144D02*
X70148523Y55484049D01*
X70148523Y55484049D02*
X70186618Y55445954D01*
X70186618Y55445954D02*
X70224714Y55369763D01*
X70224714Y55369763D02*
X70224714Y55255478D01*
X70224714Y55255478D02*
X70186618Y55179287D01*
X70186618Y55179287D02*
X70148523Y55141192D01*
X70148523Y55141192D02*
X70072333Y55103097D01*
X70072333Y55103097D02*
X69767571Y55103097D01*
X70529475Y55445954D02*
X70567571Y55484049D01*
X70567571Y55484049D02*
X70643761Y55522144D01*
X70643761Y55522144D02*
X70834237Y55522144D01*
X70834237Y55522144D02*
X70910428Y55484049D01*
X70910428Y55484049D02*
X70948523Y55445954D01*
X70948523Y55445954D02*
X70986618Y55369763D01*
X70986618Y55369763D02*
X70986618Y55293573D01*
X70986618Y55293573D02*
X70948523Y55179287D01*
X70948523Y55179287D02*
X70491380Y54722144D01*
X70491380Y54722144D02*
X70986618Y54722144D01*
X71253285Y55522144D02*
X71786619Y55522144D01*
X71786619Y55522144D02*
X71443761Y54722144D01*
X70478714Y49020335D02*
X70440618Y48982240D01*
X70440618Y48982240D02*
X70326333Y48944144D01*
X70326333Y48944144D02*
X70250142Y48944144D01*
X70250142Y48944144D02*
X70135856Y48982240D01*
X70135856Y48982240D02*
X70059666Y49058430D01*
X70059666Y49058430D02*
X70021571Y49134620D01*
X70021571Y49134620D02*
X69983475Y49287001D01*
X69983475Y49287001D02*
X69983475Y49401287D01*
X69983475Y49401287D02*
X70021571Y49553668D01*
X70021571Y49553668D02*
X70059666Y49629859D01*
X70059666Y49629859D02*
X70135856Y49706049D01*
X70135856Y49706049D02*
X70250142Y49744144D01*
X70250142Y49744144D02*
X70326333Y49744144D01*
X70326333Y49744144D02*
X70440618Y49706049D01*
X70440618Y49706049D02*
X70478714Y49667954D01*
X71240618Y48944144D02*
X70783475Y48944144D01*
X71012047Y48944144D02*
X71012047Y49744144D01*
X71012047Y49744144D02*
X70935856Y49629859D01*
X70935856Y49629859D02*
X70859666Y49553668D01*
X70859666Y49553668D02*
X70783475Y49515573D01*
X71735857Y49744144D02*
X71812047Y49744144D01*
X71812047Y49744144D02*
X71888238Y49706049D01*
X71888238Y49706049D02*
X71926333Y49667954D01*
X71926333Y49667954D02*
X71964428Y49591763D01*
X71964428Y49591763D02*
X72002523Y49439382D01*
X72002523Y49439382D02*
X72002523Y49248906D01*
X72002523Y49248906D02*
X71964428Y49096525D01*
X71964428Y49096525D02*
X71926333Y49020335D01*
X71926333Y49020335D02*
X71888238Y48982240D01*
X71888238Y48982240D02*
X71812047Y48944144D01*
X71812047Y48944144D02*
X71735857Y48944144D01*
X71735857Y48944144D02*
X71659666Y48982240D01*
X71659666Y48982240D02*
X71621571Y49020335D01*
X71621571Y49020335D02*
X71583476Y49096525D01*
X71583476Y49096525D02*
X71545380Y49248906D01*
X71545380Y49248906D02*
X71545380Y49439382D01*
X71545380Y49439382D02*
X71583476Y49591763D01*
X71583476Y49591763D02*
X71621571Y49667954D01*
X71621571Y49667954D02*
X71659666Y49706049D01*
X71659666Y49706049D02*
X71735857Y49744144D01*
X70986667Y56373144D02*
X70720000Y56754097D01*
X70529524Y56373144D02*
X70529524Y57173144D01*
X70529524Y57173144D02*
X70834286Y57173144D01*
X70834286Y57173144D02*
X70910476Y57135049D01*
X70910476Y57135049D02*
X70948571Y57096954D01*
X70948571Y57096954D02*
X70986667Y57020763D01*
X70986667Y57020763D02*
X70986667Y56906478D01*
X70986667Y56906478D02*
X70948571Y56830287D01*
X70948571Y56830287D02*
X70910476Y56792192D01*
X70910476Y56792192D02*
X70834286Y56754097D01*
X70834286Y56754097D02*
X70529524Y56754097D01*
X71672381Y57173144D02*
X71520000Y57173144D01*
X71520000Y57173144D02*
X71443809Y57135049D01*
X71443809Y57135049D02*
X71405714Y57096954D01*
X71405714Y57096954D02*
X71329524Y56982668D01*
X71329524Y56982668D02*
X71291428Y56830287D01*
X71291428Y56830287D02*
X71291428Y56525525D01*
X71291428Y56525525D02*
X71329524Y56449335D01*
X71329524Y56449335D02*
X71367619Y56411240D01*
X71367619Y56411240D02*
X71443809Y56373144D01*
X71443809Y56373144D02*
X71596190Y56373144D01*
X71596190Y56373144D02*
X71672381Y56411240D01*
X71672381Y56411240D02*
X71710476Y56449335D01*
X71710476Y56449335D02*
X71748571Y56525525D01*
X71748571Y56525525D02*
X71748571Y56716001D01*
X71748571Y56716001D02*
X71710476Y56792192D01*
X71710476Y56792192D02*
X71672381Y56830287D01*
X71672381Y56830287D02*
X71596190Y56868382D01*
X71596190Y56868382D02*
X71443809Y56868382D01*
X71443809Y56868382D02*
X71367619Y56830287D01*
X71367619Y56830287D02*
X71329524Y56792192D01*
X71329524Y56792192D02*
X71291428Y56716001D01*
X70372855Y56739346D02*
X69991902Y56472679D01*
X70372855Y56282203D02*
X69572855Y56282203D01*
X69572855Y56282203D02*
X69572855Y56586965D01*
X69572855Y56586965D02*
X69610950Y56663155D01*
X69610950Y56663155D02*
X69649045Y56701250D01*
X69649045Y56701250D02*
X69725236Y56739346D01*
X69725236Y56739346D02*
X69839521Y56739346D01*
X69839521Y56739346D02*
X69915712Y56701250D01*
X69915712Y56701250D02*
X69953807Y56663155D01*
X69953807Y56663155D02*
X69991902Y56586965D01*
X69991902Y56586965D02*
X69991902Y56282203D01*
X70372855Y57501250D02*
X70372855Y57044107D01*
X70372855Y57272679D02*
X69572855Y57272679D01*
X69572855Y57272679D02*
X69687140Y57196488D01*
X69687140Y57196488D02*
X69763331Y57120298D01*
X69763331Y57120298D02*
X69801426Y57044107D01*
X69572855Y58186965D02*
X69572855Y58034584D01*
X69572855Y58034584D02*
X69610950Y57958393D01*
X69610950Y57958393D02*
X69649045Y57920298D01*
X69649045Y57920298D02*
X69763331Y57844108D01*
X69763331Y57844108D02*
X69915712Y57806012D01*
X69915712Y57806012D02*
X70220474Y57806012D01*
X70220474Y57806012D02*
X70296664Y57844108D01*
X70296664Y57844108D02*
X70334760Y57882203D01*
X70334760Y57882203D02*
X70372855Y57958393D01*
X70372855Y57958393D02*
X70372855Y58110774D01*
X70372855Y58110774D02*
X70334760Y58186965D01*
X70334760Y58186965D02*
X70296664Y58225060D01*
X70296664Y58225060D02*
X70220474Y58263155D01*
X70220474Y58263155D02*
X70029998Y58263155D01*
X70029998Y58263155D02*
X69953807Y58225060D01*
X69953807Y58225060D02*
X69915712Y58186965D01*
X69915712Y58186965D02*
X69877617Y58110774D01*
X69877617Y58110774D02*
X69877617Y57958393D01*
X69877617Y57958393D02*
X69915712Y57882203D01*
X69915712Y57882203D02*
X69953807Y57844108D01*
X69953807Y57844108D02*
X70029998Y57806012D01*
X76036170Y57404983D02*
X76036170Y56757364D01*
X76036170Y56757364D02*
X76074265Y56681174D01*
X76074265Y56681174D02*
X76112360Y56643079D01*
X76112360Y56643079D02*
X76188551Y56604983D01*
X76188551Y56604983D02*
X76340932Y56604983D01*
X76340932Y56604983D02*
X76417122Y56643079D01*
X76417122Y56643079D02*
X76455217Y56681174D01*
X76455217Y56681174D02*
X76493313Y56757364D01*
X76493313Y56757364D02*
X76493313Y57404983D01*
X77293312Y56604983D02*
X76836169Y56604983D01*
X77064741Y56604983D02*
X77064741Y57404983D01*
X77064741Y57404983D02*
X76988550Y57290698D01*
X76988550Y57290698D02*
X76912360Y57214507D01*
X76912360Y57214507D02*
X76836169Y57176412D01*
X76595855Y61715667D02*
X76214902Y61449000D01*
X76595855Y61258524D02*
X75795855Y61258524D01*
X75795855Y61258524D02*
X75795855Y61563286D01*
X75795855Y61563286D02*
X75833950Y61639476D01*
X75833950Y61639476D02*
X75872045Y61677571D01*
X75872045Y61677571D02*
X75948236Y61715667D01*
X75948236Y61715667D02*
X76062521Y61715667D01*
X76062521Y61715667D02*
X76138712Y61677571D01*
X76138712Y61677571D02*
X76176807Y61639476D01*
X76176807Y61639476D02*
X76214902Y61563286D01*
X76214902Y61563286D02*
X76214902Y61258524D01*
X76138712Y62172809D02*
X76100617Y62096619D01*
X76100617Y62096619D02*
X76062521Y62058524D01*
X76062521Y62058524D02*
X75986331Y62020428D01*
X75986331Y62020428D02*
X75948236Y62020428D01*
X75948236Y62020428D02*
X75872045Y62058524D01*
X75872045Y62058524D02*
X75833950Y62096619D01*
X75833950Y62096619D02*
X75795855Y62172809D01*
X75795855Y62172809D02*
X75795855Y62325190D01*
X75795855Y62325190D02*
X75833950Y62401381D01*
X75833950Y62401381D02*
X75872045Y62439476D01*
X75872045Y62439476D02*
X75948236Y62477571D01*
X75948236Y62477571D02*
X75986331Y62477571D01*
X75986331Y62477571D02*
X76062521Y62439476D01*
X76062521Y62439476D02*
X76100617Y62401381D01*
X76100617Y62401381D02*
X76138712Y62325190D01*
X76138712Y62325190D02*
X76138712Y62172809D01*
X76138712Y62172809D02*
X76176807Y62096619D01*
X76176807Y62096619D02*
X76214902Y62058524D01*
X76214902Y62058524D02*
X76291093Y62020428D01*
X76291093Y62020428D02*
X76443474Y62020428D01*
X76443474Y62020428D02*
X76519664Y62058524D01*
X76519664Y62058524D02*
X76557760Y62096619D01*
X76557760Y62096619D02*
X76595855Y62172809D01*
X76595855Y62172809D02*
X76595855Y62325190D01*
X76595855Y62325190D02*
X76557760Y62401381D01*
X76557760Y62401381D02*
X76519664Y62439476D01*
X76519664Y62439476D02*
X76443474Y62477571D01*
X76443474Y62477571D02*
X76291093Y62477571D01*
X76291093Y62477571D02*
X76214902Y62439476D01*
X76214902Y62439476D02*
X76176807Y62401381D01*
X76176807Y62401381D02*
X76138712Y62325190D01*
X76595855Y64128761D02*
X76595855Y63747809D01*
X76595855Y63747809D02*
X75795855Y63747809D01*
X76176807Y64395428D02*
X76176807Y64662094D01*
X76595855Y64776380D02*
X76595855Y64395428D01*
X76595855Y64395428D02*
X75795855Y64395428D01*
X75795855Y64395428D02*
X75795855Y64776380D01*
X76595855Y65119238D02*
X75795855Y65119238D01*
X75795855Y65119238D02*
X75795855Y65309714D01*
X75795855Y65309714D02*
X75833950Y65424000D01*
X75833950Y65424000D02*
X75910140Y65500190D01*
X75910140Y65500190D02*
X75986331Y65538285D01*
X75986331Y65538285D02*
X76138712Y65576381D01*
X76138712Y65576381D02*
X76252998Y65576381D01*
X76252998Y65576381D02*
X76405379Y65538285D01*
X76405379Y65538285D02*
X76481569Y65500190D01*
X76481569Y65500190D02*
X76557760Y65424000D01*
X76557760Y65424000D02*
X76595855Y65309714D01*
X76595855Y65309714D02*
X76595855Y65119238D01*
X76595855Y66338285D02*
X76595855Y65881142D01*
X76595855Y66109714D02*
X75795855Y66109714D01*
X75795855Y66109714D02*
X75910140Y66033523D01*
X75910140Y66033523D02*
X75986331Y65957333D01*
X75986331Y65957333D02*
X76024426Y65881142D01*
X78733667Y48893335D02*
X78695571Y48855240D01*
X78695571Y48855240D02*
X78581286Y48817144D01*
X78581286Y48817144D02*
X78505095Y48817144D01*
X78505095Y48817144D02*
X78390809Y48855240D01*
X78390809Y48855240D02*
X78314619Y48931430D01*
X78314619Y48931430D02*
X78276524Y49007620D01*
X78276524Y49007620D02*
X78238428Y49160001D01*
X78238428Y49160001D02*
X78238428Y49274287D01*
X78238428Y49274287D02*
X78276524Y49426668D01*
X78276524Y49426668D02*
X78314619Y49502859D01*
X78314619Y49502859D02*
X78390809Y49579049D01*
X78390809Y49579049D02*
X78505095Y49617144D01*
X78505095Y49617144D02*
X78581286Y49617144D01*
X78581286Y49617144D02*
X78695571Y49579049D01*
X78695571Y49579049D02*
X78733667Y49540954D01*
X79495571Y48817144D02*
X79038428Y48817144D01*
X79267000Y48817144D02*
X79267000Y49617144D01*
X79267000Y49617144D02*
X79190809Y49502859D01*
X79190809Y49502859D02*
X79114619Y49426668D01*
X79114619Y49426668D02*
X79038428Y49388573D01*
X79770855Y64255761D02*
X79770855Y63874809D01*
X79770855Y63874809D02*
X78970855Y63874809D01*
X79351807Y64522428D02*
X79351807Y64789094D01*
X79770855Y64903380D02*
X79770855Y64522428D01*
X79770855Y64522428D02*
X78970855Y64522428D01*
X78970855Y64522428D02*
X78970855Y64903380D01*
X79770855Y65246238D02*
X78970855Y65246238D01*
X78970855Y65246238D02*
X78970855Y65436714D01*
X78970855Y65436714D02*
X79008950Y65551000D01*
X79008950Y65551000D02*
X79085140Y65627190D01*
X79085140Y65627190D02*
X79161331Y65665285D01*
X79161331Y65665285D02*
X79313712Y65703381D01*
X79313712Y65703381D02*
X79427998Y65703381D01*
X79427998Y65703381D02*
X79580379Y65665285D01*
X79580379Y65665285D02*
X79656569Y65627190D01*
X79656569Y65627190D02*
X79732760Y65551000D01*
X79732760Y65551000D02*
X79770855Y65436714D01*
X79770855Y65436714D02*
X79770855Y65246238D01*
X79047045Y66008142D02*
X79008950Y66046238D01*
X79008950Y66046238D02*
X78970855Y66122428D01*
X78970855Y66122428D02*
X78970855Y66312904D01*
X78970855Y66312904D02*
X79008950Y66389095D01*
X79008950Y66389095D02*
X79047045Y66427190D01*
X79047045Y66427190D02*
X79123236Y66465285D01*
X79123236Y66465285D02*
X79199426Y66465285D01*
X79199426Y66465285D02*
X79313712Y66427190D01*
X79313712Y66427190D02*
X79770855Y65970047D01*
X79770855Y65970047D02*
X79770855Y66465285D01*
X79897855Y61842667D02*
X79516902Y61576000D01*
X79897855Y61385524D02*
X79097855Y61385524D01*
X79097855Y61385524D02*
X79097855Y61690286D01*
X79097855Y61690286D02*
X79135950Y61766476D01*
X79135950Y61766476D02*
X79174045Y61804571D01*
X79174045Y61804571D02*
X79250236Y61842667D01*
X79250236Y61842667D02*
X79364521Y61842667D01*
X79364521Y61842667D02*
X79440712Y61804571D01*
X79440712Y61804571D02*
X79478807Y61766476D01*
X79478807Y61766476D02*
X79516902Y61690286D01*
X79516902Y61690286D02*
X79516902Y61385524D01*
X79097855Y62109333D02*
X79097855Y62642667D01*
X79097855Y62642667D02*
X79897855Y62299809D01*
X77241476Y24534144D02*
X77241476Y23886525D01*
X77241476Y23886525D02*
X77279571Y23810335D01*
X77279571Y23810335D02*
X77317666Y23772240D01*
X77317666Y23772240D02*
X77393857Y23734144D01*
X77393857Y23734144D02*
X77546238Y23734144D01*
X77546238Y23734144D02*
X77622428Y23772240D01*
X77622428Y23772240D02*
X77660523Y23810335D01*
X77660523Y23810335D02*
X77698619Y23886525D01*
X77698619Y23886525D02*
X77698619Y24534144D01*
X78041475Y24457954D02*
X78079571Y24496049D01*
X78079571Y24496049D02*
X78155761Y24534144D01*
X78155761Y24534144D02*
X78346237Y24534144D01*
X78346237Y24534144D02*
X78422428Y24496049D01*
X78422428Y24496049D02*
X78460523Y24457954D01*
X78460523Y24457954D02*
X78498618Y24381763D01*
X78498618Y24381763D02*
X78498618Y24305573D01*
X78498618Y24305573D02*
X78460523Y24191287D01*
X78460523Y24191287D02*
X78003380Y23734144D01*
X78003380Y23734144D02*
X78498618Y23734144D01*
X85083714Y59548144D02*
X84817047Y59929097D01*
X84626571Y59548144D02*
X84626571Y60348144D01*
X84626571Y60348144D02*
X84931333Y60348144D01*
X84931333Y60348144D02*
X85007523Y60310049D01*
X85007523Y60310049D02*
X85045618Y60271954D01*
X85045618Y60271954D02*
X85083714Y60195763D01*
X85083714Y60195763D02*
X85083714Y60081478D01*
X85083714Y60081478D02*
X85045618Y60005287D01*
X85045618Y60005287D02*
X85007523Y59967192D01*
X85007523Y59967192D02*
X84931333Y59929097D01*
X84931333Y59929097D02*
X84626571Y59929097D01*
X85388475Y60271954D02*
X85426571Y60310049D01*
X85426571Y60310049D02*
X85502761Y60348144D01*
X85502761Y60348144D02*
X85693237Y60348144D01*
X85693237Y60348144D02*
X85769428Y60310049D01*
X85769428Y60310049D02*
X85807523Y60271954D01*
X85807523Y60271954D02*
X85845618Y60195763D01*
X85845618Y60195763D02*
X85845618Y60119573D01*
X85845618Y60119573D02*
X85807523Y60005287D01*
X85807523Y60005287D02*
X85350380Y59548144D01*
X85350380Y59548144D02*
X85845618Y59548144D01*
X86302761Y60005287D02*
X86226571Y60043382D01*
X86226571Y60043382D02*
X86188476Y60081478D01*
X86188476Y60081478D02*
X86150380Y60157668D01*
X86150380Y60157668D02*
X86150380Y60195763D01*
X86150380Y60195763D02*
X86188476Y60271954D01*
X86188476Y60271954D02*
X86226571Y60310049D01*
X86226571Y60310049D02*
X86302761Y60348144D01*
X86302761Y60348144D02*
X86455142Y60348144D01*
X86455142Y60348144D02*
X86531333Y60310049D01*
X86531333Y60310049D02*
X86569428Y60271954D01*
X86569428Y60271954D02*
X86607523Y60195763D01*
X86607523Y60195763D02*
X86607523Y60157668D01*
X86607523Y60157668D02*
X86569428Y60081478D01*
X86569428Y60081478D02*
X86531333Y60043382D01*
X86531333Y60043382D02*
X86455142Y60005287D01*
X86455142Y60005287D02*
X86302761Y60005287D01*
X86302761Y60005287D02*
X86226571Y59967192D01*
X86226571Y59967192D02*
X86188476Y59929097D01*
X86188476Y59929097D02*
X86150380Y59852906D01*
X86150380Y59852906D02*
X86150380Y59700525D01*
X86150380Y59700525D02*
X86188476Y59624335D01*
X86188476Y59624335D02*
X86226571Y59586240D01*
X86226571Y59586240D02*
X86302761Y59548144D01*
X86302761Y59548144D02*
X86455142Y59548144D01*
X86455142Y59548144D02*
X86531333Y59586240D01*
X86531333Y59586240D02*
X86569428Y59624335D01*
X86569428Y59624335D02*
X86607523Y59700525D01*
X86607523Y59700525D02*
X86607523Y59852906D01*
X86607523Y59852906D02*
X86569428Y59929097D01*
X86569428Y59929097D02*
X86531333Y59967192D01*
X86531333Y59967192D02*
X86455142Y60005287D01*
X86305644Y55837510D02*
X86305644Y55189891D01*
X86305644Y55189891D02*
X86343739Y55113701D01*
X86343739Y55113701D02*
X86381834Y55075606D01*
X86381834Y55075606D02*
X86458025Y55037510D01*
X86458025Y55037510D02*
X86610406Y55037510D01*
X86610406Y55037510D02*
X86686596Y55075606D01*
X86686596Y55075606D02*
X86724691Y55113701D01*
X86724691Y55113701D02*
X86762787Y55189891D01*
X86762787Y55189891D02*
X86762787Y55837510D01*
X87486596Y55570844D02*
X87486596Y55037510D01*
X87296120Y55875606D02*
X87105643Y55304177D01*
X87105643Y55304177D02*
X87600882Y55304177D01*
X87874666Y55624335D02*
X87836570Y55586240D01*
X87836570Y55586240D02*
X87722285Y55548144D01*
X87722285Y55548144D02*
X87646094Y55548144D01*
X87646094Y55548144D02*
X87531808Y55586240D01*
X87531808Y55586240D02*
X87455618Y55662430D01*
X87455618Y55662430D02*
X87417523Y55738620D01*
X87417523Y55738620D02*
X87379427Y55891001D01*
X87379427Y55891001D02*
X87379427Y56005287D01*
X87379427Y56005287D02*
X87417523Y56157668D01*
X87417523Y56157668D02*
X87455618Y56233859D01*
X87455618Y56233859D02*
X87531808Y56310049D01*
X87531808Y56310049D02*
X87646094Y56348144D01*
X87646094Y56348144D02*
X87722285Y56348144D01*
X87722285Y56348144D02*
X87836570Y56310049D01*
X87836570Y56310049D02*
X87874666Y56271954D01*
X88636570Y55548144D02*
X88179427Y55548144D01*
X88407999Y55548144D02*
X88407999Y56348144D01*
X88407999Y56348144D02*
X88331808Y56233859D01*
X88331808Y56233859D02*
X88255618Y56157668D01*
X88255618Y56157668D02*
X88179427Y56119573D01*
X89398475Y55548144D02*
X88941332Y55548144D01*
X89169904Y55548144D02*
X89169904Y56348144D01*
X89169904Y56348144D02*
X89093713Y56233859D01*
X89093713Y56233859D02*
X89017523Y56157668D01*
X89017523Y56157668D02*
X88941332Y56119573D01*
X89219664Y53079714D02*
X89257760Y53041618D01*
X89257760Y53041618D02*
X89295855Y52927333D01*
X89295855Y52927333D02*
X89295855Y52851142D01*
X89295855Y52851142D02*
X89257760Y52736856D01*
X89257760Y52736856D02*
X89181569Y52660666D01*
X89181569Y52660666D02*
X89105379Y52622571D01*
X89105379Y52622571D02*
X88952998Y52584475D01*
X88952998Y52584475D02*
X88838712Y52584475D01*
X88838712Y52584475D02*
X88686331Y52622571D01*
X88686331Y52622571D02*
X88610140Y52660666D01*
X88610140Y52660666D02*
X88533950Y52736856D01*
X88533950Y52736856D02*
X88495855Y52851142D01*
X88495855Y52851142D02*
X88495855Y52927333D01*
X88495855Y52927333D02*
X88533950Y53041618D01*
X88533950Y53041618D02*
X88572045Y53079714D01*
X89295855Y53841618D02*
X89295855Y53384475D01*
X89295855Y53613047D02*
X88495855Y53613047D01*
X88495855Y53613047D02*
X88610140Y53536856D01*
X88610140Y53536856D02*
X88686331Y53460666D01*
X88686331Y53460666D02*
X88724426Y53384475D01*
X88572045Y54146380D02*
X88533950Y54184476D01*
X88533950Y54184476D02*
X88495855Y54260666D01*
X88495855Y54260666D02*
X88495855Y54451142D01*
X88495855Y54451142D02*
X88533950Y54527333D01*
X88533950Y54527333D02*
X88572045Y54565428D01*
X88572045Y54565428D02*
X88648236Y54603523D01*
X88648236Y54603523D02*
X88724426Y54603523D01*
X88724426Y54603523D02*
X88838712Y54565428D01*
X88838712Y54565428D02*
X89295855Y54108285D01*
X89295855Y54108285D02*
X89295855Y54603523D01*
X94860334Y67690144D02*
X94860334Y67118716D01*
X94860334Y67118716D02*
X94822239Y67004430D01*
X94822239Y67004430D02*
X94746048Y66928240D01*
X94746048Y66928240D02*
X94631763Y66890144D01*
X94631763Y66890144D02*
X94555572Y66890144D01*
X95203191Y67613954D02*
X95241287Y67652049D01*
X95241287Y67652049D02*
X95317477Y67690144D01*
X95317477Y67690144D02*
X95507953Y67690144D01*
X95507953Y67690144D02*
X95584144Y67652049D01*
X95584144Y67652049D02*
X95622239Y67613954D01*
X95622239Y67613954D02*
X95660334Y67537763D01*
X95660334Y67537763D02*
X95660334Y67461573D01*
X95660334Y67461573D02*
X95622239Y67347287D01*
X95622239Y67347287D02*
X95165096Y66890144D01*
X95165096Y66890144D02*
X95660334Y66890144D01*
X94860334Y7690144D02*
X94860334Y7118716D01*
X94860334Y7118716D02*
X94822239Y7004430D01*
X94822239Y7004430D02*
X94746048Y6928240D01*
X94746048Y6928240D02*
X94631763Y6890144D01*
X94631763Y6890144D02*
X94555572Y6890144D01*
X95584144Y7423478D02*
X95584144Y6890144D01*
X95393668Y7728240D02*
X95203191Y7156811D01*
X95203191Y7156811D02*
X95698430Y7156811D01*
M02*
