%TF.GenerationSoftware,KiCad,Pcbnew,10.99.0-unknown*%
%TF.CreationDate,2026-08-12T15:23:01+08:00*%
%TF.ProjectId,100MHz______,3130304d-487a-4d88-9bee-06a2342e6b69,rev?*%
%TF.SameCoordinates,Original*%
%TF.FileFunction,Paste,Top*%
%TF.FilePolarity,Positive*%
%FSLAX46Y46*%
G04 Gerber Fmt 4.6, Leading zero omitted, Abs format (unit mm)*
G04 Created by KiCad (PCBNEW 10.99.0-unknown) date 2026-08-12 15:23:01*
%MOMM*%
%LPD*%
G01*
G04 APERTURE LIST*
G04 Aperture macros list*
%AMRoundRect*
0 Rectangle with rounded corners*
0 $1 Rounding radius*
0 $2 $3 $4 $5 $6 $7 $8 $9 X,Y pos of 4 corners*
0 Add a 4 corners polygon primitive as box body*
4,1,4,$2,$3,$4,$5,$6,$7,$8,$9,$2,$3,0*
0 Add four circle primitives for the rounded corners*
1,1,$1+$1,$2,$3*
1,1,$1+$1,$4,$5*
1,1,$1+$1,$6,$7*
1,1,$1+$1,$8,$9*
0 Add four rect primitives between the rounded corners*
20,1,$1+$1,$2,$3,$4,$5,0*
20,1,$1+$1,$4,$5,$6,$7,0*
20,1,$1+$1,$6,$7,$8,$9,0*
20,1,$1+$1,$8,$9,$2,$3,0*%
G04 Aperture macros list end*
%ADD10RoundRect,0.225000X-0.225000X-0.275000X0.225000X-0.275000X0.225000X0.275000X-0.225000X0.275000X0*%
%ADD11RoundRect,0.225000X-0.225000X-0.275000X0.225000X-0.275000X0.225000X0.275000X-0.225000X0.275000X0*%
%ADD12C,1.200000*%
%ADD13C,0.750000*%
%ADD14RoundRect,0.105000X0.345000X-0.105000X0.345000X0.105000X-0.345000X0.105000X-0.345000X-0.105000X0*%
%ADD15RoundRect,0.105000X-0.105000X-0.345000X0.105000X-0.345000X0.105000X0.345000X-0.105000X0.345000X0*%
G04 APERTURE END LIST*
D10*
%TO.C,C41*%
X10458680Y13462000D03*
X9058680Y13462000D03*
%TD*%
D11*
%TO.C,R62*%
X2602000Y11265510D03*
X4002000Y11265510D03*
%TD*%
D10*
%TO.C,C24*%
X4002000Y21506180D03*
X2602000Y21506180D03*
%TD*%
%TO.C,C26*%
X16917900Y21506180D03*
X15517900Y21506180D03*
%TD*%
%TO.C,C25*%
X10458680Y21506180D03*
X9058680Y21506180D03*
%TD*%
%TO.C,C27*%
X23374580Y21506180D03*
X21974580Y21506180D03*
%TD*%
D11*
%TO.C,R55*%
X28764000Y7747000D03*
X30164000Y7747000D03*
%TD*%
%TO.C,R35*%
X2602000Y23651489D03*
X4002000Y23651489D03*
%TD*%
%TO.C,R38*%
X21975012Y23651540D03*
X23375012Y23651540D03*
%TD*%
%TO.C,R36*%
X9059493Y23651540D03*
X10459493Y23651540D03*
%TD*%
D10*
%TO.C,R60*%
X30162500Y4697500D03*
X30162500Y6097500D03*
%TD*%
%TO.C,R43*%
X30100500Y24701500D03*
X28700500Y24701500D03*
%TD*%
%TO.C,C30*%
X27306500Y24765000D03*
X25906500Y24765000D03*
%TD*%
D11*
%TO.C,C32*%
X24509500Y30480000D03*
X25909500Y30480000D03*
%TD*%
D12*
%TO.C,U24*%
X4970094Y30249952D03*
%TD*%
%TO.C,U25*%
X4970094Y4750054D03*
%TD*%
D11*
%TO.C,C39*%
X24509500Y4762500D03*
X25909500Y4762500D03*
%TD*%
%TO.C,D10*%
X31911595Y4231895D03*
X31911595Y2831895D03*
%TD*%
D10*
%TO.C,C40*%
X4002000Y13462000D03*
X2602000Y13462000D03*
%TD*%
%TO.C,C42*%
X16917900Y13462000D03*
X15517900Y13462000D03*
%TD*%
%TO.C,C43*%
X23374580Y13462000D03*
X21974580Y13462000D03*
%TD*%
D11*
%TO.C,C37*%
X25970000Y10287000D03*
X27370000Y10287000D03*
%TD*%
%TO.C,R53*%
X28764000Y10414000D03*
X30164000Y10414000D03*
%TD*%
D13*
%TO.C,R48*%
X27004465Y17526000D03*
X28504465Y18392000D03*
X28504465Y16660000D03*
%TD*%
D10*
%TO.C,R39*%
X27306500Y23368000D03*
X25906500Y23368000D03*
%TD*%
D11*
%TO.C,R37*%
X15517011Y23651591D03*
X16917011Y23651591D03*
%TD*%
%TO.C,C38*%
X25947140Y8890000D03*
X27347140Y8890000D03*
%TD*%
%TO.C,D8*%
X31911595Y13471145D03*
X31911595Y12071145D03*
%TD*%
%TO.C,R63*%
X9059493Y11265484D03*
X10459493Y11265484D03*
%TD*%
%TO.C,R64*%
X15517494Y11265484D03*
X16917494Y11265484D03*
%TD*%
%TO.C,R65*%
X21974986Y11265484D03*
X23374986Y11265484D03*
%TD*%
%TO.C,R59*%
X25970000Y11747500D03*
X27370000Y11747500D03*
%TD*%
D10*
%TO.C,R45*%
X30100500Y27368500D03*
X28700500Y27368500D03*
%TD*%
D11*
%TO.C,R34*%
X31685000Y15369540D03*
X33085000Y15369540D03*
%TD*%
%TO.C,R54*%
X28764000Y9080500D03*
X30164000Y9080500D03*
%TD*%
D10*
%TO.C,R44*%
X30100500Y26035000D03*
X28700500Y26035000D03*
%TD*%
%TO.C,C31*%
X27301420Y26225500D03*
X25901420Y26225500D03*
%TD*%
D11*
%TO.C,C29*%
X34669500Y15367000D03*
X36069500Y15367000D03*
%TD*%
D13*
%TO.C,R31*%
X34845500Y21209000D03*
X33345500Y20343000D03*
X33345500Y22075000D03*
%TD*%
D10*
%TO.C,C9*%
X41566492Y4254449D03*
X40166492Y4254449D03*
%TD*%
%TO.C,C3*%
X44694984Y4254500D03*
X43294984Y4254500D03*
%TD*%
%TO.C,R30*%
X33845500Y27692120D03*
X33845500Y29092120D03*
%TD*%
D11*
%TO.C,C23*%
X35433000Y29084500D03*
X35433000Y27684500D03*
%TD*%
%TO.C,C60*%
X43653634Y27616101D03*
X43653634Y26216101D03*
%TD*%
%TO.C,C61*%
X45370877Y27616101D03*
X45370877Y26216101D03*
%TD*%
D10*
%TO.C,C16*%
X41184095Y26995145D03*
X39784095Y26995145D03*
%TD*%
%TO.C,D11*%
X33562595Y2831895D03*
X33562595Y4231895D03*
%TD*%
%TO.C,D9*%
X33562595Y12071145D03*
X33562595Y13471145D03*
%TD*%
D11*
%TO.C,C15*%
X39593595Y32401332D03*
X40993595Y32401332D03*
%TD*%
D10*
%TO.C,R26*%
X44105095Y32456145D03*
X42705095Y32456145D03*
%TD*%
D13*
%TO.C,U10*%
X40611095Y30889145D03*
X41657295Y30129045D03*
X41257695Y28899245D03*
X39964495Y28899245D03*
X39564895Y30129045D03*
%TD*%
D10*
%TO.C,C5*%
X43659095Y29422139D03*
X43659095Y30822139D03*
%TD*%
%TO.C,C59*%
X45376313Y29422139D03*
X45376313Y30822139D03*
%TD*%
D11*
%TO.C,C22*%
X35433000Y32103188D03*
X35433000Y30703188D03*
%TD*%
%TO.C,R29*%
X33845500Y32112180D03*
X33845500Y30712180D03*
%TD*%
D10*
%TO.C,R24*%
X37881560Y30895060D03*
X37881560Y32295060D03*
%TD*%
D11*
%TO.C,C12*%
X37935408Y22996145D03*
X37935408Y21596145D03*
%TD*%
D10*
%TO.C,C17*%
X41184095Y25280645D03*
X39784095Y25280645D03*
%TD*%
D11*
%TO.C,R27*%
X37881560Y26361620D03*
X37881560Y24961620D03*
%TD*%
%TO.C,C55*%
X40182011Y10604500D03*
X41582011Y10604500D03*
%TD*%
%TO.C,C54*%
X43310504Y10604500D03*
X44710504Y10604500D03*
%TD*%
D10*
%TO.C,R17*%
X42328060Y21978620D03*
X40928060Y21978620D03*
%TD*%
D11*
%TO.C,R18*%
X43912560Y21978620D03*
X45312560Y21978620D03*
%TD*%
D10*
%TO.C,R15*%
X37881560Y18548120D03*
X37881560Y19948120D03*
%TD*%
D11*
%TO.C,C11*%
X39595095Y19953048D03*
X39595095Y18553048D03*
%TD*%
D13*
%TO.C,U9*%
X43489095Y19375145D03*
X42728995Y18328945D03*
X41499195Y18728545D03*
X41499195Y20021745D03*
X42728995Y20421345D03*
%TD*%
D11*
%TO.C,C10*%
X45246595Y19960972D03*
X45246595Y18560972D03*
%TD*%
D10*
%TO.C,R41*%
X39674597Y6490918D03*
X39674597Y7890918D03*
%TD*%
D13*
%TO.C,U15*%
X41274998Y7366000D03*
X42035098Y8412200D03*
X43264898Y8012600D03*
X43264898Y6719400D03*
X42035098Y6319800D03*
%TD*%
D10*
%TO.C,L2*%
X48867595Y32465366D03*
X47467595Y32465366D03*
%TD*%
%TO.C,C19*%
X53928494Y32639000D03*
X52528494Y32639000D03*
%TD*%
%TO.C,R28*%
X57166994Y32636308D03*
X55766994Y32636308D03*
%TD*%
%TO.C,D3*%
X57103494Y27664664D03*
X55703494Y27664664D03*
%TD*%
D13*
%TO.C,U11*%
X66453089Y27947645D03*
X65937589Y26703145D03*
X64693089Y26187645D03*
X63448589Y26703145D03*
X62933089Y27947645D03*
X63448589Y29192145D03*
X64693089Y29707645D03*
X65937589Y29192145D03*
%TD*%
D10*
%TO.C,C56*%
X48201454Y4381525D03*
X46801454Y4381525D03*
%TD*%
%TO.C,D4*%
X57103494Y25992582D03*
X55703494Y25992582D03*
%TD*%
D11*
%TO.C,R2*%
X47024595Y27611122D03*
X47024595Y26211122D03*
%TD*%
D10*
%TO.C,C14*%
X53928494Y24384000D03*
X52528494Y24384000D03*
%TD*%
%TO.C,R21*%
X57166994Y24381308D03*
X55766994Y24381308D03*
%TD*%
%TO.C,L1*%
X48867595Y24390579D03*
X47467595Y24390579D03*
%TD*%
D13*
%TO.C,U21*%
X47387053Y8559025D03*
X48530253Y7899025D03*
X48530253Y6579025D03*
X47387053Y5919025D03*
X46243853Y6579025D03*
X46243853Y7899025D03*
%TD*%
D10*
%TO.C,R56*%
X62277094Y6871918D03*
X62277094Y8271918D03*
%TD*%
D13*
%TO.C,U26*%
X58200595Y8693645D03*
X59343795Y8033645D03*
X59343795Y6713645D03*
X58200595Y6053645D03*
X57057395Y6713645D03*
X57057395Y8033645D03*
%TD*%
%TO.C,R57*%
X52340000Y7620000D03*
X53840000Y8486000D03*
X53840000Y6754000D03*
%TD*%
D11*
%TO.C,D7*%
X55703494Y29337000D03*
X57103494Y29337000D03*
%TD*%
%TO.C,C2*%
X50194134Y27616075D03*
X50194134Y26216075D03*
%TD*%
%TO.C,C1*%
X51900074Y27616126D03*
X51900074Y26216126D03*
%TD*%
D10*
%TO.C,C4*%
X53628595Y26231645D03*
X53628595Y27631645D03*
%TD*%
D11*
%TO.C,D6*%
X55703494Y31009082D03*
X57103494Y31009082D03*
%TD*%
%TO.C,R50*%
X49755095Y9026145D03*
X49755095Y7626145D03*
%TD*%
D10*
%TO.C,C57*%
X48201454Y10609910D03*
X46801454Y10609910D03*
%TD*%
%TO.C,C34*%
X57248095Y10229645D03*
X57248095Y11629645D03*
%TD*%
D11*
%TO.C,R14*%
X46961095Y19948145D03*
X46961095Y18548145D03*
%TD*%
%TO.C,U14*%
X63659028Y21153120D03*
X65059028Y21153120D03*
%TD*%
D10*
%TO.C,C7*%
X50199595Y29422139D03*
X50199595Y30822139D03*
%TD*%
%TO.C,C8*%
X51905154Y29422139D03*
X51905154Y30822139D03*
%TD*%
D11*
%TO.C,C18*%
X53623134Y30806645D03*
X53623134Y29406645D03*
%TD*%
D10*
%TO.C,R3*%
X47024595Y29427118D03*
X47024595Y30827118D03*
%TD*%
D13*
%TO.C,U17*%
X63827594Y7754645D03*
X64587694Y8800845D03*
X65817494Y8401245D03*
X65817494Y7108045D03*
X64587694Y6708445D03*
%TD*%
D11*
%TO.C,C53*%
X63535000Y11308385D03*
X64935000Y11308385D03*
%TD*%
%TO.C,C51*%
X66646627Y11308385D03*
X68046627Y11308385D03*
%TD*%
%TO.C,C63*%
X59588094Y11308385D03*
X60988094Y11308385D03*
%TD*%
%TO.C,C62*%
X58199095Y4278452D03*
X59599095Y4278452D03*
%TD*%
%TO.C,C46*%
X62775486Y4595952D03*
X64175486Y4595952D03*
%TD*%
%TO.C,C48*%
X65886986Y4595952D03*
X67286986Y4595952D03*
%TD*%
%TO.C,R12*%
X74010595Y17787645D03*
X75410595Y17787645D03*
%TD*%
D10*
%TO.C,R6*%
X76236095Y22613645D03*
X74836095Y22613645D03*
%TD*%
D11*
%TO.C,C47*%
X71846642Y4584979D03*
X73246642Y4584979D03*
%TD*%
%TO.C,C49*%
X74958142Y4584979D03*
X76358142Y4584979D03*
%TD*%
D10*
%TO.C,C20*%
X71727595Y18041645D03*
X70327595Y18041645D03*
%TD*%
D13*
%TO.C,U23*%
X72728595Y22550145D03*
X72068595Y21406945D03*
X70748595Y21406945D03*
X70088595Y22550145D03*
X70748595Y23693345D03*
X72068595Y23693345D03*
%TD*%
D10*
%TO.C,LED1*%
X83219595Y5975145D03*
X83219595Y7375145D03*
%TD*%
%TO.C,LED2*%
X84934095Y5975145D03*
X84934095Y7375145D03*
%TD*%
%TO.C,C21*%
X71727595Y19756145D03*
X70327595Y19756145D03*
%TD*%
D13*
%TO.C,SW1*%
X80700499Y18882500D03*
X79557299Y19542500D03*
X79557299Y20862500D03*
X80700499Y21522500D03*
X81843699Y20862500D03*
X81843699Y19542500D03*
%TD*%
%TO.C,Q1*%
X75393095Y20200645D03*
X73893095Y19334645D03*
X73893095Y21066645D03*
%TD*%
D11*
%TO.C,R70*%
X83219595Y10423145D03*
X83219595Y9023145D03*
%TD*%
%TO.C,R72*%
X84934095Y10423145D03*
X84934095Y9023145D03*
%TD*%
%TO.C,R1*%
X74836095Y24137645D03*
X76236095Y24137645D03*
%TD*%
%TO.C,U2*%
X78012595Y25567464D03*
X78012595Y24167464D03*
%TD*%
D13*
%TO.C,U16*%
X72907142Y7315479D03*
X73667242Y8361679D03*
X74897042Y7962079D03*
X74897042Y6668879D03*
X73667242Y6269279D03*
%TD*%
D11*
%TO.C,C52*%
X71846642Y10045979D03*
X73246642Y10045979D03*
%TD*%
%TO.C,C50*%
X74958142Y10045979D03*
X76358142Y10045979D03*
%TD*%
%TO.C,R4*%
X75917095Y28901645D03*
X75917095Y27501645D03*
%TD*%
D10*
%TO.C,R20*%
X73811663Y27513736D03*
X73811663Y28913736D03*
%TD*%
D13*
%TO.C,U7*%
X85560929Y28533090D03*
X84900929Y27389890D03*
X83580929Y27389890D03*
X82920929Y28533090D03*
X83580929Y29676290D03*
X84900929Y29676290D03*
%TD*%
D10*
%TO.C,R19*%
X81332095Y27785643D03*
X81332095Y29185643D03*
%TD*%
D13*
%TO.C,Q2*%
X74819002Y30874638D03*
X73953002Y32374638D03*
X75685002Y32374638D03*
%TD*%
%TO.C,Q3*%
X78121002Y30874638D03*
X77255002Y32374638D03*
X78987002Y32374638D03*
%TD*%
D11*
%TO.C,D5*%
X72107095Y30806645D03*
X72107095Y29406645D03*
%TD*%
D10*
%TO.C,U6*%
X82475095Y31438645D03*
X82475095Y32838645D03*
%TD*%
%TO.C,U8*%
X84428101Y31438645D03*
X84428101Y32838645D03*
%TD*%
D11*
%TO.C,R5*%
X76933095Y19212130D03*
X76933095Y17812130D03*
%TD*%
D13*
%TO.C,Q6*%
X77647595Y28201645D03*
X79147595Y29067645D03*
X79147595Y27335645D03*
%TD*%
D10*
%TO.C,R75*%
X83219595Y12579145D03*
X83219595Y13979145D03*
%TD*%
D11*
%TO.C,R73*%
X84934095Y13979145D03*
X84934095Y12579145D03*
%TD*%
%TO.C,C28*%
X73820095Y25788645D03*
X75220095Y25788645D03*
%TD*%
D10*
%TO.C,U5*%
X86285095Y31389090D03*
X86285095Y32789090D03*
%TD*%
D11*
%TO.C,C13*%
X86920095Y29177870D03*
X86920095Y27777870D03*
%TD*%
%TO.C,R69*%
X87947500Y13463500D03*
X87947500Y12063500D03*
%TD*%
D10*
%TO.C,BUZZER*%
X88455500Y20572500D03*
X88455500Y21972500D03*
%TD*%
D13*
%TO.C,SW2*%
X89090500Y6082500D03*
X90233700Y5422500D03*
X90233700Y4102500D03*
X89090500Y3442500D03*
X87947300Y4102500D03*
X87947300Y5422500D03*
%TD*%
D11*
%TO.C,D2*%
X89124560Y33027620D03*
X90524560Y33027620D03*
%TD*%
%TO.C,R33*%
X89561440Y9278620D03*
X90961440Y9278620D03*
%TD*%
%TO.C,R67*%
X89631595Y26741145D03*
X91031595Y26741145D03*
%TD*%
D13*
%TO.C,U22*%
X90359382Y12271449D03*
X89493382Y13771449D03*
X91225382Y13771449D03*
%TD*%
D11*
%TO.C,R11*%
X89660500Y29838244D03*
X91060500Y29838244D03*
%TD*%
%TO.C,R10*%
X89660500Y31178500D03*
X91060500Y31178500D03*
%TD*%
%TO.C,D1*%
X89660500Y28448000D03*
X91060500Y28448000D03*
%TD*%
D10*
%TO.C,R74*%
X93472000Y4570500D03*
X93472000Y5970500D03*
%TD*%
D13*
%TO.C,Q5*%
X94359882Y12271449D03*
X93493882Y13771449D03*
X95225882Y13771449D03*
%TD*%
D10*
%TO.C,R76*%
X95061000Y10795000D03*
X93661000Y10795000D03*
%TD*%
D11*
%TO.C,U19*%
X93661000Y17716500D03*
X95061000Y17716500D03*
%TD*%
D10*
%TO.C,R71*%
X95061000Y9271000D03*
X93661000Y9271000D03*
%TD*%
D11*
%TO.C,U18*%
X93661000Y19177000D03*
X95061000Y19177000D03*
%TD*%
D14*
%TO.C,USBC1*%
X93959931Y28129889D03*
X93959931Y28929889D03*
X93959931Y29729889D03*
D15*
X94759931Y30529889D03*
X95559931Y30529889D03*
X96359931Y30529889D03*
D14*
X97159931Y29729889D03*
X97159931Y28929889D03*
X97159931Y28129889D03*
D15*
X96359931Y27329889D03*
%TD*%
D11*
%TO.C,R68*%
X96583500Y10733000D03*
X96583500Y9333000D03*
%TD*%
D13*
%TO.C,U20*%
X97726500Y15573500D03*
X96726500Y16573500D03*
X97726500Y17573500D03*
X98726500Y16573500D03*
%TD*%
%TO.C,RF1*%
X98499881Y4500753D03*
X97739781Y3454553D03*
X96509981Y3854153D03*
X96509981Y5147353D03*
X97739781Y5546953D03*
%TD*%
D11*
%TO.C,R23*%
X37880595Y29346145D03*
X37880595Y27946145D03*
%TD*%
D13*
%TO.C,Q4*%
X95566382Y22843949D03*
X96432382Y21343949D03*
X94700382Y21343949D03*
%TD*%
D11*
%TO.C,C35*%
X79974059Y5978120D03*
X79974059Y4578120D03*
%TD*%
%TO.C,C44*%
X79880079Y10613620D03*
X79880079Y9213620D03*
%TD*%
%TO.C,C45*%
X89569060Y10675620D03*
X90969060Y10675620D03*
%TD*%
%TO.C,C33*%
X37960097Y7883145D03*
X37960097Y6483145D03*
%TD*%
%TO.C,C36*%
X60599094Y8264145D03*
X60599094Y6864145D03*
%TD*%
%TO.C,R40*%
X68608599Y9275699D03*
X70008599Y9275699D03*
%TD*%
D10*
%TO.C,R42*%
X30100500Y23368000D03*
X28700500Y23368000D03*
%TD*%
%TO.C,R46*%
X70008599Y7751699D03*
X68608599Y7751699D03*
%TD*%
D11*
%TO.C,R47*%
X78511094Y7691145D03*
X79911094Y7691145D03*
%TD*%
%TO.C,R49*%
X68608599Y6227699D03*
X70008599Y6227699D03*
%TD*%
%TO.C,R52*%
X28764000Y11747500D03*
X30164000Y11747500D03*
%TD*%
D10*
%TO.C,R58*%
X78376399Y4585740D03*
X78376399Y5985740D03*
%TD*%
M02*
