M48
; DRILL file KiCad 10.99.0-unknown date 2026-08-12T15:23:02
; FORMAT={-:-/ absolute / metric / decimal}
; #@! TF.CreationDate,2026-08-12T15:23:02+08:00
; #@! TF.GenerationSoftware,Kicad,Pcbnew,10.99.0-unknown
; #@! TF.FileFunction,MixedPlating,1,4
FMAT,2
METRIC
; #@! TA.AperFunction,Plated,PTH,ViaDrill
T1C0.305
; #@! TA.AperFunction,Plated,PTH,ViaDrill
T2C0.310
%
G90
G05
T1
X58.928Y5.271
T2
X21.307Y33.853
X21.307Y28.233
X21.307Y27.249
X21.307Y7.755
X21.307Y6.77
X21.307Y1.151
X22.371Y33.853
X22.418Y1.151
X23.434Y33.853
X23.529Y1.151
X30.162Y28.194
X30.162Y6.912
X31.877Y12.636
X31.877Y3.302
X33.528Y12.636
X33.528Y3.302
X34.608Y32.194
X34.608Y29.083
X36.102Y25.281
X36.102Y20.804
X36.102Y16.327
X36.23Y27.694
X36.322Y30.67
X36.801Y22.995
X36.928Y32.401
X38.721Y32.401
X38.905Y23.376
X38.905Y21.596
X38.905Y25.047
X40.132Y3.492
X40.195Y11.43
X41.055Y19.439
X41.593Y11.43
X41.593Y3.492
X41.817Y17.057
X41.817Y16.137
X41.817Y15.216
X42.072Y27.471
X42.072Y26.487
X42.072Y25.503
X43.307Y11.43
X43.307Y3.492
X43.63Y28.519
X44.704Y11.43
X44.704Y3.492
X44.787Y28.519
X45.119Y32.456
X45.365Y20.96
X45.945Y28.519
X46.77Y22.677
X46.799Y11.367
X46.799Y3.619
X48.197Y11.367
X48.197Y3.619
X48.704Y6.096
X49.056Y22.137
X49.056Y21.153
X49.056Y20.169
X50.2Y28.515
X51.357Y28.515
X52.515Y28.515
X53.673Y28.515
X58.229Y3.556
X58.944Y28.13
X59.563Y10.541
X59.594Y3.553
X59.896Y28.13
X60.96Y10.541
X61.483Y21.653
X61.483Y20.637
X62.762Y3.556
X63.536Y12.383
X64.159Y3.556
X64.933Y12.383
X65.873Y3.556
X66.584Y12.383
X67.262Y21.653
X67.262Y20.637
X67.27Y3.556
X68.079Y12.644
X68.551Y18.042
X68.786Y30.924
X69.376Y18.042
X70.067Y10.477
X71.83Y3.545
X71.845Y11.12
X72.107Y30.17
X72.831Y17.788
X73.233Y3.545
X73.245Y11.12
X73.504Y21.153
X73.739Y32.004
X73.812Y29.808
X73.822Y26.487
X73.885Y17.788
X74.565Y32.004
X74.584Y21.153
X74.945Y3.545
X74.956Y11.12
X76.342Y3.545
X76.375Y11.086
X76.806Y25.09
X77.187Y33.028
X77.187Y30.551
X77.758Y19.058
X79.155Y33.024
X79.854Y29.091
X80.454Y26.098
X80.974Y10.588
X82.013Y13.216
X83.219Y11.628
X83.981Y19.312
X84.045Y5.85
X84.253Y26.487
X84.481Y25.336
X84.481Y24.074
X84.934Y11.628
X86.966Y12.009
X87.601Y31.377
X87.918Y29.087
X88.109Y27.44
X88.109Y10.676
X89.027Y29.087
X89.316Y33.409
X89.316Y32.71
X91.093Y25.852
X91.284Y14.232
X92.046Y10.676
X92.265Y26.226
X93.599Y22.86
X94.932Y31.623
X95.094Y18.423
X95.284Y13.279
X95.443Y7.056
X95.443Y1.951
X97.4Y7.056
X97.4Y1.951
X97.57Y9.279
M30
