%TF.GenerationSoftware,KiCad,Pcbnew,10.99.0-unknown*%
%TF.CreationDate,2026-08-12T15:28:21+08:00*%
%TF.ProjectId,________,db6eeccb-6c11-40f6-962e-6b696361645f,rev?*%
%TF.SameCoordinates,Original*%
%TF.FileFunction,AssemblyDrawing,Top*%
%FSLAX46Y46*%
G04 Gerber Fmt 4.6, Leading zero omitted, Abs format (unit mm)*
G04 Created by KiCad (PCBNEW 10.99.0-unknown) date 2026-08-12 15:28:21*
%MOMM*%
%LPD*%
G01*
G04 APERTURE LIST*
%ADD10C,0.100000*%
G04 APERTURE END LIST*
%TO.C,C12*%
D10*
X-14445346Y54473756D02*
X-11445346Y54473756D01*
X-11445346Y52773756D01*
X-14445346Y52773756D01*
X-14445346Y54473756D01*
%TO.C,C18*%
X-17304578Y56315416D02*
X-14304578Y56315416D01*
X-14304578Y54615416D01*
X-17304578Y54615416D01*
X-17304578Y56315416D01*
%TO.C,R8*%
X-9947215Y59897324D02*
X-6947215Y59897324D01*
X-6947215Y58197324D01*
X-9947215Y58197324D01*
X-9947215Y59897324D01*
%TO.C,R9*%
X-9938579Y61522416D02*
X-6938579Y61522416D01*
X-6938579Y59822416D01*
X-9938579Y59822416D01*
X-9938579Y61522416D01*
%TO.C,R5*%
X-9947215Y63037780D02*
X-6947215Y63037780D01*
X-6947215Y61337780D01*
X-9947215Y61337780D01*
X-9947215Y63037780D01*
%TO.C,U6*%
X-19053323Y65255111D02*
X-10733323Y65255111D01*
X-10733323Y56455111D01*
X-19053323Y56455111D01*
X-19053323Y65255111D01*
%TO.C,U9*%
X-18559579Y72713416D02*
X-16859579Y72713416D01*
X-16859579Y69713416D01*
X-18559579Y69713416D01*
X-18559579Y72713416D01*
%TO.C,U10*%
X-12463579Y72713416D02*
X-10763579Y72713416D01*
X-10763579Y69713416D01*
X-12463579Y69713416D01*
X-12463579Y72713416D01*
%TO.C,C10*%
X-5650046Y14020343D02*
X-3950046Y14020343D01*
X-3950046Y11020343D01*
X-5650046Y11020343D01*
X-5650046Y14020343D01*
%TO.C,D2*%
X-16805363Y24261651D02*
X-15105363Y24261651D01*
X-15105363Y21261651D01*
X-16805363Y21261651D01*
X-16805363Y24261651D01*
%TO.C,L2*%
X-8967044Y25308346D02*
X-5967044Y25308346D01*
X-5967044Y23608346D01*
X-8967044Y23608346D01*
X-8967044Y25308346D01*
%TO.C,U2*%
X-17607163Y12613678D02*
X-13870763Y12613678D01*
X-13870763Y8523678D01*
X-17607163Y8523678D01*
X-17607163Y12613678D01*
%TO.C,U5*%
X-5523044Y37007346D02*
X-3823044Y37007346D01*
X-3823044Y34007346D01*
X-5523044Y34007346D01*
X-5523044Y37007346D01*
%TO.C,C11*%
X-10304579Y37153416D02*
X-8604579Y37153416D01*
X-8604579Y34153416D01*
X-10304579Y34153416D01*
X-10304579Y37153416D01*
%TO.C,C19*%
X-32036578Y56569416D02*
X-29036578Y56569416D01*
X-29036578Y54869416D01*
X-32036578Y54869416D01*
X-32036578Y56569416D01*
%TO.C,C14*%
X-29242578Y54283416D02*
X-26242578Y54283416D01*
X-26242578Y52583416D01*
X-29242578Y52583416D01*
X-29242578Y54283416D01*
%TO.C,R10*%
X-24543579Y60125416D02*
X-21543579Y60125416D01*
X-21543579Y58425416D01*
X-24543579Y58425416D01*
X-24543579Y60125416D01*
%TO.C,R11*%
X-24543579Y61903416D02*
X-21543579Y61903416D01*
X-21543579Y60203416D01*
X-24543579Y60203416D01*
X-24543579Y61903416D01*
%TO.C,R6*%
X-24543579Y63681416D02*
X-21543579Y63681416D01*
X-21543579Y61981416D01*
X-24543579Y61981416D01*
X-24543579Y63681416D01*
%TO.C,U7*%
X-33982745Y65880860D02*
X-25662745Y65880860D01*
X-25662745Y57080860D01*
X-33982745Y57080860D01*
X-33982745Y65880860D01*
%TO.C,U11*%
X-33926578Y72713416D02*
X-32226578Y72713416D01*
X-32226578Y69713416D01*
X-33926578Y69713416D01*
X-33926578Y72713416D01*
%TO.C,U12*%
X-27703578Y72713416D02*
X-26003578Y72713416D01*
X-26003578Y69713416D01*
X-27703578Y69713416D01*
X-27703578Y72713416D01*
%TO.C,C21*%
X-14383579Y56315416D02*
X-11383579Y56315416D01*
X-11383579Y54615416D01*
X-14383579Y54615416D01*
X-14383579Y56315416D01*
%TO.C,C22*%
X-29369579Y56569416D02*
X-26369579Y56569416D01*
X-26369579Y54869416D01*
X-29369579Y54869416D01*
X-29369579Y56569416D01*
%TO.C,C9*%
X-42961619Y37669779D02*
X-39961619Y37669779D01*
X-39961619Y35969779D01*
X-42961619Y35969779D01*
X-42961619Y37669779D01*
%TO.C,C4*%
X-35326837Y36966404D02*
X-33626837Y36966404D01*
X-33626837Y33966404D01*
X-35326837Y33966404D01*
X-35326837Y36966404D01*
%TO.C,C8*%
X-50563579Y25088416D02*
X-48863579Y25088416D01*
X-48863579Y22088416D01*
X-50563579Y22088416D01*
X-50563579Y25088416D01*
%TO.C,C2*%
X-42961619Y35510779D02*
X-39961619Y35510779D01*
X-39961619Y33810779D01*
X-42961619Y33810779D01*
X-42961619Y35510779D01*
%TO.C,C3*%
X-26702578Y5896416D02*
X-23702578Y5896416D01*
X-23702578Y4196416D01*
X-26702578Y4196416D01*
X-26702578Y5896416D01*
%TO.C,D1*%
X-30486619Y26853779D02*
X-27536619Y26853779D01*
X-27536619Y23671779D01*
X-30486619Y23671779D01*
X-30486619Y26853779D01*
%TO.C,L1*%
X-44467579Y11245416D02*
X-42767579Y11245416D01*
X-42767579Y8245416D01*
X-44467579Y8245416D01*
X-44467579Y11245416D01*
%TO.C,R4*%
X-39095004Y37020833D02*
X-37395004Y37020833D01*
X-37395004Y34020833D01*
X-39095004Y34020833D01*
X-39095004Y37020833D01*
%TO.C,R3*%
X-37358837Y37020833D02*
X-35658837Y37020833D01*
X-35658837Y34020833D01*
X-37358837Y34020833D01*
X-37358837Y37020833D01*
%TO.C,U1*%
X-40439223Y28838802D02*
X-36702823Y28838802D01*
X-36702823Y24748802D01*
X-40439223Y24748802D01*
X-40439223Y28838802D01*
%TO.C,U4*%
X-31513578Y12134416D02*
X-29813578Y12134416D01*
X-29813578Y9134416D01*
X-31513578Y9134416D01*
X-31513578Y12134416D01*
%TO.C,C26*%
X-26249479Y34547452D02*
X-24549479Y34547452D01*
X-24549479Y31547452D01*
X-26249479Y31547452D01*
X-26249479Y34547452D01*
%TO.C,C25*%
X-24217479Y34547452D02*
X-22517479Y34547452D01*
X-22517479Y31547452D01*
X-24217479Y31547452D01*
X-24217479Y34547452D01*
%TO.C,C27*%
X-20195186Y34584729D02*
X-18495186Y34584729D01*
X-18495186Y31584729D01*
X-20195186Y31584729D01*
X-20195186Y34584729D01*
%TO.C,C24*%
X-16343479Y34674452D02*
X-14643479Y34674452D01*
X-14643479Y31674452D01*
X-16343479Y31674452D01*
X-16343479Y34674452D01*
%TO.C,R14*%
X-30770008Y38678812D02*
X-27770008Y38678812D01*
X-27770008Y36978812D01*
X-30770008Y36978812D01*
X-30770008Y38678812D01*
%TO.C,R15*%
X-21170000Y41995728D02*
X-19470000Y41995728D01*
X-19470000Y38995728D01*
X-21170000Y38995728D01*
X-21170000Y41995728D01*
%TO.C,R16*%
X-29633002Y36751930D02*
X-26633002Y36751930D01*
X-26633002Y35051930D01*
X-29633002Y35051930D01*
X-29633002Y36751930D01*
%TO.C,R17*%
X-22328875Y34524023D02*
X-20628875Y34524023D01*
X-20628875Y31524023D01*
X-22328875Y31524023D01*
X-22328875Y34524023D01*
%TO.C,R18*%
X-18252518Y34586975D02*
X-16552518Y34586975D01*
X-16552518Y31586975D01*
X-18252518Y31586975D01*
X-18252518Y34586975D01*
%TO.C,U15*%
X-26841079Y39262000D02*
X-21721079Y39262000D01*
X-21721079Y33662000D01*
X-26841079Y33662000D01*
X-26841079Y39262000D01*
%TO.C,U16*%
X-20717596Y38684733D02*
X-16397596Y38684733D01*
X-16397596Y33884733D01*
X-20717596Y33884733D01*
X-20717596Y38684733D01*
%TO.C,C5*%
X-55372375Y40406514D02*
X-53672375Y40406514D01*
X-53672375Y37406514D01*
X-55372375Y37406514D01*
X-55372375Y40406514D01*
%TO.C,C6*%
X-44375885Y42452110D02*
X-42675885Y42452110D01*
X-42675885Y39452110D01*
X-44375885Y39452110D01*
X-44375885Y42452110D01*
%TO.C,C7*%
X-42373602Y43057392D02*
X-40673602Y43057392D01*
X-40673602Y40057392D01*
X-42373602Y40057392D01*
X-42373602Y43057392D01*
%TO.C,U3*%
X-50676579Y41823416D02*
X-47226579Y41823416D01*
X-47226579Y38373416D01*
X-50676579Y38373416D01*
X-50676579Y41823416D01*
%TO.C,C20*%
X-47403578Y55934416D02*
X-44403578Y55934416D01*
X-44403578Y54234416D01*
X-47403578Y54234416D01*
X-47403578Y55934416D01*
%TO.C,C16*%
X-44482578Y53648416D02*
X-41482578Y53648416D01*
X-41482578Y51948416D01*
X-44482578Y51948416D01*
X-44482578Y53648416D01*
%TO.C,C23*%
X-44609579Y55934416D02*
X-41609579Y55934416D01*
X-41609579Y54234416D01*
X-44609579Y54234416D01*
X-44609579Y55934416D01*
%TO.C,R12*%
X-39656578Y59643324D02*
X-36656578Y59643324D01*
X-36656578Y57943324D01*
X-39656578Y57943324D01*
X-39656578Y59643324D01*
%TO.C,R13*%
X-39656578Y61268416D02*
X-36656578Y61268416D01*
X-36656578Y59568416D01*
X-39656578Y59568416D01*
X-39656578Y61268416D01*
%TO.C,R7*%
X-39656578Y62792416D02*
X-36656578Y62792416D01*
X-36656578Y61092416D01*
X-39656578Y61092416D01*
X-39656578Y62792416D01*
%TO.C,SW1*%
X-6988578Y47919416D02*
X-3538578Y47919416D01*
X-3538578Y44469416D01*
X-6988578Y44469416D01*
X-6988578Y47919416D01*
%TO.C,SW2*%
X-6734579Y53126416D02*
X-3284579Y53126416D01*
X-3284579Y49676416D01*
X-6734579Y49676416D01*
X-6734579Y53126416D01*
%TO.C,U8*%
X-49153850Y65037707D02*
X-40833850Y65037707D01*
X-40833850Y56237707D01*
X-49153850Y56237707D01*
X-49153850Y65037707D01*
%TO.C,U13*%
X-49293578Y72459416D02*
X-47593578Y72459416D01*
X-47593578Y69459416D01*
X-49293578Y69459416D01*
X-49293578Y72459416D01*
%TO.C,U14*%
X-43070578Y72586416D02*
X-41370578Y72586416D01*
X-41370578Y69586416D01*
X-43070578Y69586416D01*
X-43070578Y72586416D01*
%TO.C,SCREW1*%
X-54234579Y5249416D02*
X-51034579Y5249416D01*
X-51034579Y2049416D01*
X-54234579Y2049416D01*
X-54234579Y5249416D01*
%TO.C,SCREW2*%
X-54317781Y63260057D02*
X-51117781Y63260057D01*
X-51117781Y60060057D01*
X-54317781Y60060057D01*
X-54317781Y63260057D01*
%TO.C,SCREW3*%
X-5212578Y5376416D02*
X-2012578Y5376416D01*
X-2012578Y2176416D01*
X-5212578Y2176416D01*
X-5212578Y5376416D01*
%TO.C,SCREW4*%
X-5339578Y63288416D02*
X-2139578Y63288416D01*
X-2139578Y60088416D01*
X-5339578Y60088416D01*
X-5339578Y63288416D01*
%TO.C,C13*%
X-28211153Y50484275D02*
X-25211153Y50484275D01*
X-25211153Y48784275D01*
X-28211153Y48784275D01*
X-28211153Y50484275D01*
%TO.C,C15*%
X-13367579Y50727416D02*
X-10367579Y50727416D01*
X-10367579Y49027416D01*
X-13367579Y49027416D01*
X-13367579Y50727416D01*
%TO.C,C17*%
X-43466579Y49838416D02*
X-40466579Y49838416D01*
X-40466579Y48138416D01*
X-43466579Y48138416D01*
X-43466579Y49838416D01*
%TO.C,H1*%
X-55373578Y54902416D02*
X-50403578Y54902416D01*
X-50403578Y49932416D01*
X-55373578Y49932416D01*
X-55373578Y54902416D01*
%TO.C,CN1*%
X-15751578Y79161416D02*
X-12301578Y79161416D01*
X-12301578Y75711416D01*
X-15751578Y75711416D01*
X-15751578Y79161416D01*
%TO.C,CN2*%
X-31372578Y79161416D02*
X-27922578Y79161416D01*
X-27922578Y75711416D01*
X-31372578Y75711416D01*
X-31372578Y79161416D01*
%TO.C,CN3*%
X-47247578Y79161416D02*
X-43797578Y79161416D01*
X-43797578Y75711416D01*
X-47247578Y75711416D01*
X-47247578Y79161416D01*
%TD*%
M02*
