%TF.GenerationSoftware,KiCad,Pcbnew,10.99.0-unknown*%
%TF.CreationDate,2026-08-12T15:28:21+08:00*%
%TF.ProjectId,________,db6eeccb-6c11-40f6-962e-6b696361645f,rev?*%
%TF.SameCoordinates,Original*%
%TF.FileFunction,Copper,L2,Inr*%
%TF.FilePolarity,Positive*%
%FSLAX46Y46*%
G04 Gerber Fmt 4.6, Leading zero omitted, Abs format (unit mm)*
G04 Created by KiCad (PCBNEW 10.99.0-unknown) date 2026-08-12 15:28:21*
%MOMM*%
%LPD*%
G01*
G04 APERTURE LIST*
%TA.AperFunction,ComponentPad*%
%ADD10C,2.500000*%
%TD*%
%TA.AperFunction,ViaPad*%
%ADD11C,0.457200*%
%TD*%
%TA.AperFunction,ViaPad*%
%ADD12C,0.610000*%
%TD*%
G04 APERTURE END LIST*
D10*
%TO.N,N/C*%
%TO.C,SCREW1*%
X-52634579Y3649416D03*
%TD*%
%TO.N,N/C*%
%TO.C,SCREW2*%
X-52717781Y61660057D03*
%TD*%
%TO.N,N/C*%
%TO.C,SCREW3*%
X-3612578Y3776416D03*
%TD*%
%TO.N,N/C*%
%TO.C,SCREW4*%
X-3739578Y61688416D03*
%TD*%
D11*
%TO.N,$1N5794*%
X-17455600Y13555400D03*
X-12235900Y34002400D03*
%TO.N,$1N9581*%
X-32949600Y36161400D03*
X-25964600Y6443400D03*
D12*
%TO.N,VIN*%
X-55081600Y29042700D03*
X-55081600Y25359700D03*
X-55081600Y26629700D03*
X-55081600Y27899700D03*
X-53811600Y27899700D03*
X-53811600Y26629700D03*
X-53811600Y25359700D03*
X-53811600Y29042700D03*
X-52541600Y29042700D03*
X-52541600Y25359700D03*
X-52541600Y26629700D03*
X-52541600Y27899700D03*
X-51271600Y27899700D03*
X-51271600Y26629700D03*
X-51271600Y25359700D03*
X-51271600Y29042700D03*
X-7710600Y14183700D03*
X-7710600Y15453700D03*
X-7710600Y16723700D03*
X-6440600Y17739700D03*
X-6440600Y16723700D03*
X-6440600Y15453700D03*
X-6440600Y14183700D03*
X-5170600Y14183700D03*
X-5170600Y15453700D03*
X-5170600Y16723700D03*
X-5170600Y17739700D03*
X-3900600Y16723700D03*
X-3900600Y15453700D03*
X-3900600Y14183700D03*
D11*
%TO.N,GND*%
X-10470600Y72864400D03*
X-11258400Y72864400D03*
X-12046200Y72864400D03*
X-12833900Y72864400D03*
X-10470600Y72058400D03*
%TO.N,$1N1980*%
X-11258400Y72058400D03*
X-12046200Y72058400D03*
%TO.N,GND*%
X-12833900Y72058400D03*
X-18929900Y72102400D03*
X-18929900Y72908400D03*
X-18142200Y72908400D03*
%TO.N,$1N1985*%
X-18142200Y72102400D03*
X-17354400Y72102400D03*
%TO.N,GND*%
X-17354400Y72908400D03*
X-16566600Y72908400D03*
X-16566600Y72102400D03*
X-27946900Y71975400D03*
X-27946900Y72781400D03*
X-27159200Y72781400D03*
%TO.N,$1N7486*%
X-27159200Y71975400D03*
X-26371400Y71975400D03*
%TO.N,GND*%
X-26371400Y72781400D03*
X-25583600Y72781400D03*
X-25583600Y71975400D03*
X-34296900Y71848400D03*
X-34296900Y72654400D03*
X-33509200Y72654400D03*
%TO.N,$1N7487*%
X-33509200Y71848400D03*
X-32721400Y71848400D03*
%TO.N,GND*%
X-32721400Y72654400D03*
X-31933600Y72654400D03*
X-31933600Y71848400D03*
X-43567900Y71848400D03*
X-43567900Y72654400D03*
X-42780200Y72654400D03*
%TO.N,$1N12752*%
X-42780200Y71848400D03*
X-41992400Y71848400D03*
%TO.N,GND*%
X-41992400Y72654400D03*
X-41204600Y72654400D03*
X-41204600Y71848400D03*
X-49409900Y71721400D03*
X-49409900Y72527400D03*
X-48622200Y72527400D03*
%TO.N,$1N12754*%
X-48622200Y71721400D03*
X-47834400Y71721400D03*
%TO.N,GND*%
X-47834400Y72527400D03*
X-47046600Y72527400D03*
X-47046600Y71721400D03*
X-13264600Y56608400D03*
X-10851600Y55592400D03*
X-10851600Y53453600D03*
X-6533600Y60672400D03*
X-6533600Y58975500D03*
X-21011600Y60926400D03*
X-21317000Y59335000D03*
X-36251600Y60418400D03*
X-36251600Y58840600D03*
X-27996600Y57116400D03*
X-25936800Y55719400D03*
X-25675300Y53346400D03*
X-42474600Y56354400D03*
X-41012200Y54664400D03*
X-41077600Y52798400D03*
X-38664600Y50258400D03*
X-39827400Y50258400D03*
X-40823600Y50258400D03*
X-47314700Y64770000D03*
X-39934600Y52798400D03*
X-39934600Y54703400D03*
X-24635300Y53346400D03*
X-24821600Y55719400D03*
X-27234600Y57116400D03*
X-12375600Y56608400D03*
X-9952600Y55592400D03*
X-9835600Y53433400D03*
X-23603600Y50984500D03*
X-26438800Y51002500D03*
X-24600500Y51002400D03*
%TO.N,3V3*%
X-40041800Y42892400D03*
X-37394600Y42130400D03*
X-25329600Y41749400D03*
X-20184800Y42384400D03*
%TO.N,GND*%
X-12756600Y51782400D03*
X-23041100Y52488700D03*
X-12375600Y48734400D03*
X-11613600Y48480400D03*
X-12756600Y50928200D03*
X-17330100Y50928400D03*
X-18598600Y53306400D03*
X-19228000Y53293600D03*
X-16058600Y54322400D03*
X-23137400Y41891800D03*
X-37902600Y56354400D03*
X-36505600Y38574400D03*
X-34247200Y38574400D03*
%TO.N,NRST*%
X-8692600Y47201800D03*
%TO.N,$2N1935*%
X-8565600Y52417400D03*
%TO.N,3V3*%
X-1453600Y50385400D03*
%TO.N,STEP3*%
X-21971000Y68072000D03*
%TO.N,DIR3*%
X-22712400Y68707000D03*
%TO.N,DIR2*%
X-33401000Y62865000D03*
%TO.N,STEP2*%
X-32692400Y62230000D03*
%TO.N,STEP1*%
X-47879000Y65278000D03*
%TO.N,DIR1*%
X-48577500Y65341500D03*
%TO.N,SDA*%
X-32893000Y40132000D03*
%TO.N,SCL*%
X-31750000Y40132000D03*
%TO.N,SDA*%
X-19315500Y37797100D03*
X-26289000Y37846000D03*
%TO.N,CS2*%
X-21706100Y38735000D03*
%TO.N,CS1*%
X-23114000Y38660600D03*
%TO.N,GND*%
X-18557600Y36248200D03*
X-24646000Y36466100D03*
X-24003000Y36195000D03*
%TO.N,*%
X-50134100Y6282100D03*
%TO.N,GND*%
X-50007100Y42096100D03*
%TO.N,*%
X-50134100Y62162100D03*
%TO.N,GND*%
X-50134100Y72322100D03*
X-50134100Y82482100D03*
X-45054100Y26602100D03*
X-47467100Y60765100D03*
X-45054100Y82482100D03*
X-39974100Y11362100D03*
X-39974100Y36762100D03*
%TO.N,*%
X-39974100Y77402100D03*
%TO.N,GND*%
X-39974100Y82482100D03*
X-34894100Y11362100D03*
X-34894100Y52002100D03*
%TO.N,*%
X-34894100Y62162100D03*
X-34894100Y77402100D03*
%TO.N,GND*%
X-34894100Y82482100D03*
X-29814100Y11362100D03*
X-29814100Y31682100D03*
X-29814100Y36762100D03*
X-29814100Y41842100D03*
X-29814100Y82482100D03*
X-24734100Y11362100D03*
X-24734100Y16442100D03*
X-24734100Y21522100D03*
X-24734100Y26602100D03*
X-24607100Y52002100D03*
X-24734100Y72322100D03*
X-24734100Y82482100D03*
X-19654100Y21522100D03*
X-19654100Y26602100D03*
X-19654100Y62162100D03*
X-19654100Y72322100D03*
%TO.N,*%
X-19654100Y77402100D03*
%TO.N,GND*%
X-19654100Y82482100D03*
%TO.N,VIN*%
X-14574100Y11362100D03*
%TO.N,GND*%
X-14407600Y26856100D03*
X-14574100Y31682100D03*
X-14574100Y36762100D03*
X-14574100Y41842100D03*
X-14574100Y82482100D03*
X-9494100Y11362100D03*
X-9494100Y21522100D03*
X-9494100Y41842100D03*
X-9494100Y52002100D03*
X-9494100Y57082100D03*
X-9494100Y72322100D03*
X-9494100Y82482100D03*
X-4414100Y41842100D03*
X-4414100Y57082100D03*
X-4414100Y67242100D03*
X-4414100Y72322100D03*
X-4414100Y77402100D03*
X-4414100Y82482100D03*
X-24257000Y34671000D03*
X-26694200Y37022100D03*
X-20775400Y57785000D03*
%TO.N,3V3*%
X-23791000Y57023000D03*
%TO.N,GND*%
X-16383000Y43053000D03*
X-17197500Y43053000D03*
X-17907000Y43053000D03*
X-18550200Y43053000D03*
X-25273000Y63627000D03*
X-24472500Y63627000D03*
X-22479000Y63754000D03*
%TO.N,$2N1935*%
X-25273000Y59817000D03*
%TO.N,GND*%
X-53467000Y55245000D03*
X-53467000Y54537800D03*
%TO.N,USART1_TX*%
X-52761600Y54537800D03*
%TO.N,GND*%
X-52761600Y55225900D03*
X-47244000Y62103000D03*
X-43434000Y58928000D03*
X-43307000Y56388000D03*
X-41656000Y49276000D03*
X-41656000Y48499600D03*
X-37973000Y49276000D03*
X-37973000Y48467400D03*
X-48133000Y42164000D03*
X-49030500Y42164000D03*
X-49898700Y43053000D03*
X-48225500Y43053000D03*
X-49061500Y43053000D03*
X-54102000Y41910000D03*
X-55105700Y41910000D03*
X-55105700Y42864600D03*
X-54102000Y42799000D03*
X-44958000Y42418000D03*
X-44958000Y43348400D03*
X-45804500Y43348400D03*
X-45847000Y42418000D03*
X-46589300Y42418000D03*
X-46609000Y43434000D03*
X-42284800Y43434000D03*
X-41441700Y43394300D03*
X-40005000Y36068000D03*
X-39974100Y37562200D03*
X-38989000Y37338000D03*
X-38199900Y37338000D03*
X-37465000Y37338000D03*
X-34036000Y33274000D03*
X-34036000Y32390800D03*
X-33999000Y31438100D03*
X-33999000Y30584600D03*
X-33274000Y30607000D03*
X-33274000Y31530700D03*
X-33274000Y32401500D03*
X-33274000Y33274000D03*
X-50038000Y21971000D03*
%TO.N,VIN*%
X-50038000Y23003500D03*
X-49149000Y22987000D03*
%TO.N,GND*%
X-49149000Y21963400D03*
X-48304200Y21963400D03*
X-48260000Y22987000D03*
X-48260000Y20955000D03*
X-48260000Y20111400D03*
X-48260000Y19177000D03*
X-48260000Y18362200D03*
X-48260000Y17305300D03*
X-47371000Y17272000D03*
X-47371000Y18311400D03*
X-47371000Y19177000D03*
X-47371000Y20066000D03*
X-47371000Y20917800D03*
X-47371000Y21887400D03*
X-47371000Y22987000D03*
X-29337000Y13208000D03*
X-29337000Y14194200D03*
X-29337000Y15240000D03*
X-29337000Y16347100D03*
X-29337000Y17193800D03*
X-32004000Y17018000D03*
X-32004000Y16105200D03*
X-32004000Y15282800D03*
X-32004000Y14315100D03*
X-32004000Y13129800D03*
X-32004000Y12258900D03*
X-31042200Y12258900D03*
X-30141100Y12258900D03*
X-29337000Y12319000D03*
X-28575000Y12319000D03*
X-28575000Y13163400D03*
X-28575000Y14224000D03*
X-28575000Y15243800D03*
X-28575000Y16256000D03*
X-28575000Y17111400D03*
X-32258000Y29718000D03*
X-32258000Y28908700D03*
X-32258000Y28013700D03*
X-29845000Y27940000D03*
X-29845000Y28860300D03*
X-29845000Y29718000D03*
X-29845000Y30553700D03*
X-30716300Y30553700D03*
X-31466200Y30553700D03*
X-32264500Y30553700D03*
X-27432000Y29845000D03*
X-27432000Y29132500D03*
X-27432000Y28358400D03*
X-27432000Y27626600D03*
X-25273500Y27626600D03*
X-25273500Y28346300D03*
X-25273500Y29120400D03*
X-25273500Y29815900D03*
X-27432000Y30607000D03*
X-26452800Y30607000D03*
X-25370200Y30607000D03*
X-24907500Y6414000D03*
X-24130000Y6477000D03*
X-23457800Y6477000D03*
X-24130000Y7239000D03*
X-23457800Y7239000D03*
X-25400000Y31242000D03*
X-23241000Y31242000D03*
X-19303500Y31242000D03*
X-15113000Y30988000D03*
X-20193000Y35941000D03*
X-15748000Y26924000D03*
X-16503400Y26924000D03*
X-17253300Y26924000D03*
X-15021800Y26924000D03*
X-14351000Y27686000D03*
X-15094300Y27686000D03*
X-15836200Y27686000D03*
X-16522200Y27686000D03*
X-17266100Y27686000D03*
X-17907000Y26162000D03*
X-17907000Y25333900D03*
X-17907000Y24511000D03*
X-18865400Y24511000D03*
X-18865400Y25398400D03*
X-18796000Y26162000D03*
X-19558000Y17907000D03*
X-18792800Y17907000D03*
X-16658000Y17907000D03*
X-18796000Y18669000D03*
X-19534600Y18669000D03*
X-20276500Y18669000D03*
X-20320000Y17907000D03*
X-20320000Y17086300D03*
X-20320000Y16247700D03*
X-20320000Y15367000D03*
X-20320000Y14360800D03*
X-21209000Y14351000D03*
X-21209000Y15376800D03*
X-21209000Y16376700D03*
X-21209000Y17145000D03*
X-21209000Y17907000D03*
X-21209000Y18669000D03*
X-17422000Y17907000D03*
X-18067100Y17907000D03*
X-18034000Y18669000D03*
X-17399000Y18669000D03*
X-20701000Y7239000D03*
X-20828000Y6422300D03*
X-21844000Y6477000D03*
X-21717000Y7218600D03*
X-20828000Y8128000D03*
X-11557000Y6604000D03*
X-10795000Y7239000D03*
X-11557000Y7874000D03*
X-10668000Y8255000D03*
X-11557000Y8890000D03*
X-10727300Y9336700D03*
X-9779000Y9779000D03*
X-9779000Y8460400D03*
X-8890000Y10160000D03*
X-8890000Y9234500D03*
X-2667000Y10287000D03*
X-2667000Y8768800D03*
X-1905000Y10287000D03*
X-1905000Y9476400D03*
X-1905000Y8605500D03*
X-2667000Y7874000D03*
X-2667000Y9512700D03*
X-2794000Y11049000D03*
X-2794000Y11726100D03*
X-1905000Y11684000D03*
X-1905000Y10962700D03*
X-9652000Y37719000D03*
X-8924400Y37719000D03*
X-8890000Y38481000D03*
X-9625900Y38481000D03*
X-5588000Y40386000D03*
X-4572000Y40386000D03*
X-3348500Y40386000D03*
X-3348500Y39760800D03*
X-3348500Y38859700D03*
X-5715000Y39624000D03*
X-5715000Y38769000D03*
X-5715000Y38115900D03*
X-5715000Y37341800D03*
X-5715000Y36688600D03*
X-5715000Y36035500D03*
X-4546200Y35908500D03*
X-3429000Y36068000D03*
X-3429000Y36957000D03*
X-3431000Y38032300D03*
X-6350000Y35941000D03*
X-6350000Y36598600D03*
X-6350000Y37251700D03*
X-6350000Y38100000D03*
X-6350000Y38860400D03*
X-6350000Y39586100D03*
X-6350000Y40457000D03*
X-2667000Y36068000D03*
X-2667000Y37070300D03*
X-2667000Y38086300D03*
X-2667000Y38872900D03*
X-2667000Y39751000D03*
X-2667000Y40457000D03*
X-7874000Y44069000D03*
X-7107400Y44069000D03*
X-3429000Y44069000D03*
X-2672500Y44069000D03*
X-8636000Y48768000D03*
X-9478100Y48768000D03*
X-10316700Y48773400D03*
X-10977900Y48773400D03*
X-10922000Y50927000D03*
X-10010300Y50927000D03*
X-9208200Y50973800D03*
X-8268600Y50973800D03*
X-11557000Y50800000D03*
X-11557000Y49883900D03*
X-11557000Y49149000D03*
X-7973300Y49576900D03*
X-8001000Y48895000D03*
X-17272000Y65024000D03*
X-17168300Y62332100D03*
X-32004000Y62992000D03*
X-32512000Y65659000D03*
X-23495000Y48641000D03*
X-24644600Y48641000D03*
X-25687500Y48641000D03*
X-26457200Y49767700D03*
X-25536300Y51083900D03*
X-25536300Y52016000D03*
X-26471700Y52016000D03*
X-23622000Y51943000D03*
X-23622000Y53340400D03*
X-37846000Y50292000D03*
X-38481000Y51181000D03*
%TO.N,$2N1885*%
X-37719000Y51943000D03*
%TO.N,GND*%
X-41656000Y50165000D03*
X-41021000Y51943000D03*
X-39838900Y51943000D03*
X-41656000Y56261000D03*
X-41656000Y55084400D03*
X-35052000Y38608000D03*
X-37253300Y38608000D03*
X-40386000Y58547000D03*
X-35160100Y56071500D03*
X-34544000Y55372000D03*
X-24511000Y57023000D03*
X-25273000Y39116000D03*
X-22479000Y38862000D03*
X-22733000Y40005000D03*
X-29464000Y38862000D03*
X-28476700Y38862000D03*
X-27401600Y38862000D03*
X-14605000Y42799000D03*
X-15748000Y43434000D03*
X-16002000Y53594000D03*
X-16696900Y56696200D03*
X-20574000Y9906000D03*
X-19812000Y10160000D03*
X-19812000Y11095200D03*
X-22225000Y9144000D03*
X-31242000Y53213000D03*
X-31242000Y50419000D03*
X-31369000Y48895000D03*
X-22733000Y6477000D03*
X-22606000Y7230500D03*
X-21844000Y8128000D03*
X-23241000Y9271000D03*
X-22837100Y8128000D03*
%TD*%
M02*
