%TF.GenerationSoftware,KiCad,Pcbnew,10.99.0-unknown*%
%TF.CreationDate,2026-08-12T15:28:21+08:00*%
%TF.ProjectId,________,db6eeccb-6c11-40f6-962e-6b696361645f,rev?*%
%TF.SameCoordinates,Original*%
%TF.FileFunction,Legend,Top*%
%TF.FilePolarity,Positive*%
%FSLAX46Y46*%
G04 Gerber Fmt 4.6, Leading zero omitted, Abs format (unit mm)*
G04 Created by KiCad (PCBNEW 10.99.0-unknown) date 2026-08-12 15:28:21*
%MOMM*%
%LPD*%
G01*
G04 APERTURE LIST*
%ADD10C,0.203200*%
%ADD11C,0.152400*%
%ADD12C,0.120000*%
G04 APERTURE END LIST*
D10*
X-38499142Y62481504D02*
X-40240856Y62481504D01*
X-39369999Y62481504D02*
X-39369999Y65529504D01*
X-39369999Y65529504D02*
X-39660285Y65094075D01*
X-39660285Y65094075D02*
X-39950570Y64803789D01*
X-39950570Y64803789D02*
X-40240856Y64658647D01*
D11*
X-51175318Y48593498D02*
X-50449604Y48593498D01*
X-50812461Y47323498D02*
X-50812461Y48593498D01*
X-50147223Y48593498D02*
X-49300556Y47323498D01*
X-49300556Y48593498D02*
X-50147223Y47323498D01*
X-50419366Y50000498D02*
X-50842700Y50605260D01*
X-51145081Y50000498D02*
X-51145081Y51270498D01*
X-51145081Y51270498D02*
X-50661271Y51270498D01*
X-50661271Y51270498D02*
X-50540319Y51210022D01*
X-50540319Y51210022D02*
X-50479842Y51149546D01*
X-50479842Y51149546D02*
X-50419366Y51028594D01*
X-50419366Y51028594D02*
X-50419366Y50847165D01*
X-50419366Y50847165D02*
X-50479842Y50726213D01*
X-50479842Y50726213D02*
X-50540319Y50665736D01*
X-50540319Y50665736D02*
X-50661271Y50605260D01*
X-50661271Y50605260D02*
X-51145081Y50605260D01*
X-49996033Y51270498D02*
X-49149366Y50000498D01*
X-49149366Y51270498D02*
X-49996033Y50000498D01*
X-52173176Y52673575D02*
X-51991747Y52613098D01*
X-51991747Y52613098D02*
X-51689366Y52613098D01*
X-51689366Y52613098D02*
X-51568414Y52673575D01*
X-51568414Y52673575D02*
X-51507938Y52734051D01*
X-51507938Y52734051D02*
X-51447461Y52855003D01*
X-51447461Y52855003D02*
X-51447461Y52975955D01*
X-51447461Y52975955D02*
X-51507938Y53096908D01*
X-51507938Y53096908D02*
X-51568414Y53157384D01*
X-51568414Y53157384D02*
X-51689366Y53217860D01*
X-51689366Y53217860D02*
X-51931271Y53278336D01*
X-51931271Y53278336D02*
X-52052223Y53338813D01*
X-52052223Y53338813D02*
X-52112700Y53399289D01*
X-52112700Y53399289D02*
X-52173176Y53520241D01*
X-52173176Y53520241D02*
X-52173176Y53641194D01*
X-52173176Y53641194D02*
X-52112700Y53762146D01*
X-52112700Y53762146D02*
X-52052223Y53822622D01*
X-52052223Y53822622D02*
X-51931271Y53883098D01*
X-51931271Y53883098D02*
X-51628890Y53883098D01*
X-51628890Y53883098D02*
X-51447461Y53822622D01*
X-50903176Y52613098D02*
X-50903176Y53883098D01*
X-50903176Y53883098D02*
X-50600795Y53883098D01*
X-50600795Y53883098D02*
X-50419366Y53822622D01*
X-50419366Y53822622D02*
X-50298414Y53701670D01*
X-50298414Y53701670D02*
X-50237937Y53580717D01*
X-50237937Y53580717D02*
X-50177461Y53338813D01*
X-50177461Y53338813D02*
X-50177461Y53157384D01*
X-50177461Y53157384D02*
X-50237937Y52915479D01*
X-50237937Y52915479D02*
X-50298414Y52794527D01*
X-50298414Y52794527D02*
X-50419366Y52673575D01*
X-50419366Y52673575D02*
X-50600795Y52613098D01*
X-50600795Y52613098D02*
X-50903176Y52613098D01*
X-49633176Y52613098D02*
X-49633176Y53883098D01*
X-48786509Y53883098D02*
X-48544604Y53883098D01*
X-48544604Y53883098D02*
X-48423652Y53822622D01*
X-48423652Y53822622D02*
X-48302699Y53701670D01*
X-48302699Y53701670D02*
X-48242223Y53459765D01*
X-48242223Y53459765D02*
X-48242223Y53036432D01*
X-48242223Y53036432D02*
X-48302699Y52794527D01*
X-48302699Y52794527D02*
X-48423652Y52673575D01*
X-48423652Y52673575D02*
X-48544604Y52613098D01*
X-48544604Y52613098D02*
X-48786509Y52613098D01*
X-48786509Y52613098D02*
X-48907461Y52673575D01*
X-48907461Y52673575D02*
X-49028414Y52794527D01*
X-49028414Y52794527D02*
X-49088890Y53036432D01*
X-49088890Y53036432D02*
X-49088890Y53459765D01*
X-49088890Y53459765D02*
X-49028414Y53701670D01*
X-49028414Y53701670D02*
X-48907461Y53822622D01*
X-48907461Y53822622D02*
X-48786509Y53883098D01*
X-52354604Y55239175D02*
X-52173175Y55178698D01*
X-52173175Y55178698D02*
X-51870794Y55178698D01*
X-51870794Y55178698D02*
X-51749842Y55239175D01*
X-51749842Y55239175D02*
X-51689366Y55299651D01*
X-51689366Y55299651D02*
X-51628889Y55420603D01*
X-51628889Y55420603D02*
X-51628889Y55541555D01*
X-51628889Y55541555D02*
X-51689366Y55662508D01*
X-51689366Y55662508D02*
X-51749842Y55722984D01*
X-51749842Y55722984D02*
X-51870794Y55783460D01*
X-51870794Y55783460D02*
X-52112699Y55843936D01*
X-52112699Y55843936D02*
X-52233651Y55904413D01*
X-52233651Y55904413D02*
X-52294128Y55964889D01*
X-52294128Y55964889D02*
X-52354604Y56085841D01*
X-52354604Y56085841D02*
X-52354604Y56206794D01*
X-52354604Y56206794D02*
X-52294128Y56327746D01*
X-52294128Y56327746D02*
X-52233651Y56388222D01*
X-52233651Y56388222D02*
X-52112699Y56448698D01*
X-52112699Y56448698D02*
X-51810318Y56448698D01*
X-51810318Y56448698D02*
X-51628889Y56388222D01*
X-50358889Y55299651D02*
X-50419365Y55239175D01*
X-50419365Y55239175D02*
X-50600794Y55178698D01*
X-50600794Y55178698D02*
X-50721746Y55178698D01*
X-50721746Y55178698D02*
X-50903175Y55239175D01*
X-50903175Y55239175D02*
X-51024127Y55360127D01*
X-51024127Y55360127D02*
X-51084604Y55481079D01*
X-51084604Y55481079D02*
X-51145080Y55722984D01*
X-51145080Y55722984D02*
X-51145080Y55904413D01*
X-51145080Y55904413D02*
X-51084604Y56146317D01*
X-51084604Y56146317D02*
X-51024127Y56267270D01*
X-51024127Y56267270D02*
X-50903175Y56388222D01*
X-50903175Y56388222D02*
X-50721746Y56448698D01*
X-50721746Y56448698D02*
X-50600794Y56448698D01*
X-50600794Y56448698D02*
X-50419365Y56388222D01*
X-50419365Y56388222D02*
X-50358889Y56327746D01*
X-49209842Y55178698D02*
X-49814604Y55178698D01*
X-49814604Y55178698D02*
X-49814604Y56448698D01*
X-48786509Y55178698D02*
X-48786509Y56448698D01*
X-48060794Y55178698D02*
X-48605080Y55904413D01*
X-48060794Y56448698D02*
X-48786509Y55722984D01*
X-56060518Y58630522D02*
X-56181471Y58690998D01*
X-56181471Y58690998D02*
X-56362899Y58690998D01*
X-56362899Y58690998D02*
X-56544328Y58630522D01*
X-56544328Y58630522D02*
X-56665280Y58509570D01*
X-56665280Y58509570D02*
X-56725757Y58388617D01*
X-56725757Y58388617D02*
X-56786233Y58146713D01*
X-56786233Y58146713D02*
X-56786233Y57965284D01*
X-56786233Y57965284D02*
X-56725757Y57723379D01*
X-56725757Y57723379D02*
X-56665280Y57602427D01*
X-56665280Y57602427D02*
X-56544328Y57481475D01*
X-56544328Y57481475D02*
X-56362899Y57420998D01*
X-56362899Y57420998D02*
X-56241947Y57420998D01*
X-56241947Y57420998D02*
X-56060518Y57481475D01*
X-56060518Y57481475D02*
X-56000042Y57541951D01*
X-56000042Y57541951D02*
X-56000042Y57965284D01*
X-56000042Y57965284D02*
X-56241947Y57965284D01*
X-55455757Y57420998D02*
X-55455757Y58690998D01*
X-55455757Y58690998D02*
X-54730042Y57420998D01*
X-54730042Y57420998D02*
X-54730042Y58690998D01*
X-54125281Y57420998D02*
X-54125281Y58690998D01*
X-54125281Y58690998D02*
X-53822900Y58690998D01*
X-53822900Y58690998D02*
X-53641471Y58630522D01*
X-53641471Y58630522D02*
X-53520519Y58509570D01*
X-53520519Y58509570D02*
X-53460042Y58388617D01*
X-53460042Y58388617D02*
X-53399566Y58146713D01*
X-53399566Y58146713D02*
X-53399566Y57965284D01*
X-53399566Y57965284D02*
X-53460042Y57723379D01*
X-53460042Y57723379D02*
X-53520519Y57602427D01*
X-53520519Y57602427D02*
X-53641471Y57481475D01*
X-53641471Y57481475D02*
X-53822900Y57420998D01*
X-53822900Y57420998D02*
X-54125281Y57420998D01*
X-56641080Y46136098D02*
X-55854889Y46136098D01*
X-55854889Y46136098D02*
X-56278223Y45652289D01*
X-56278223Y45652289D02*
X-56096794Y45652289D01*
X-56096794Y45652289D02*
X-55975842Y45591813D01*
X-55975842Y45591813D02*
X-55915366Y45531336D01*
X-55915366Y45531336D02*
X-55854889Y45410384D01*
X-55854889Y45410384D02*
X-55854889Y45108003D01*
X-55854889Y45108003D02*
X-55915366Y44987051D01*
X-55915366Y44987051D02*
X-55975842Y44926575D01*
X-55975842Y44926575D02*
X-56096794Y44866098D01*
X-56096794Y44866098D02*
X-56459651Y44866098D01*
X-56459651Y44866098D02*
X-56580604Y44926575D01*
X-56580604Y44926575D02*
X-56641080Y44987051D01*
X-55492032Y46136098D02*
X-55068699Y44866098D01*
X-55068699Y44866098D02*
X-54645365Y46136098D01*
X-54342985Y46136098D02*
X-53556794Y46136098D01*
X-53556794Y46136098D02*
X-53980128Y45652289D01*
X-53980128Y45652289D02*
X-53798699Y45652289D01*
X-53798699Y45652289D02*
X-53677747Y45591813D01*
X-53677747Y45591813D02*
X-53617271Y45531336D01*
X-53617271Y45531336D02*
X-53556794Y45410384D01*
X-53556794Y45410384D02*
X-53556794Y45108003D01*
X-53556794Y45108003D02*
X-53617271Y44987051D01*
X-53617271Y44987051D02*
X-53677747Y44926575D01*
X-53677747Y44926575D02*
X-53798699Y44866098D01*
X-53798699Y44866098D02*
X-54161556Y44866098D01*
X-54161556Y44866098D02*
X-54282509Y44926575D01*
X-54282509Y44926575D02*
X-54342985Y44987051D01*
X-6918475Y42092398D02*
X-7341809Y42697160D01*
X-7644190Y42092398D02*
X-7644190Y43362398D01*
X-7644190Y43362398D02*
X-7160380Y43362398D01*
X-7160380Y43362398D02*
X-7039428Y43301922D01*
X-7039428Y43301922D02*
X-6978951Y43241446D01*
X-6978951Y43241446D02*
X-6918475Y43120494D01*
X-6918475Y43120494D02*
X-6918475Y42939065D01*
X-6918475Y42939065D02*
X-6978951Y42818113D01*
X-6978951Y42818113D02*
X-7039428Y42757636D01*
X-7039428Y42757636D02*
X-7160380Y42697160D01*
X-7160380Y42697160D02*
X-7644190Y42697160D01*
X-6434666Y42152875D02*
X-6253237Y42092398D01*
X-6253237Y42092398D02*
X-5950856Y42092398D01*
X-5950856Y42092398D02*
X-5829904Y42152875D01*
X-5829904Y42152875D02*
X-5769428Y42213351D01*
X-5769428Y42213351D02*
X-5708951Y42334303D01*
X-5708951Y42334303D02*
X-5708951Y42455255D01*
X-5708951Y42455255D02*
X-5769428Y42576208D01*
X-5769428Y42576208D02*
X-5829904Y42636684D01*
X-5829904Y42636684D02*
X-5950856Y42697160D01*
X-5950856Y42697160D02*
X-6192761Y42757636D01*
X-6192761Y42757636D02*
X-6313713Y42818113D01*
X-6313713Y42818113D02*
X-6374190Y42878589D01*
X-6374190Y42878589D02*
X-6434666Y42999541D01*
X-6434666Y42999541D02*
X-6434666Y43120494D01*
X-6434666Y43120494D02*
X-6374190Y43241446D01*
X-6374190Y43241446D02*
X-6313713Y43301922D01*
X-6313713Y43301922D02*
X-6192761Y43362398D01*
X-6192761Y43362398D02*
X-5890380Y43362398D01*
X-5890380Y43362398D02*
X-5708951Y43301922D01*
X-5346094Y43362398D02*
X-4620380Y43362398D01*
X-4983237Y42092398D02*
X-4983237Y43362398D01*
X-8454570Y53552636D02*
X-8273142Y53492160D01*
X-8273142Y53492160D02*
X-8212665Y53431684D01*
X-8212665Y53431684D02*
X-8152189Y53310732D01*
X-8152189Y53310732D02*
X-8152189Y53129303D01*
X-8152189Y53129303D02*
X-8212665Y53008351D01*
X-8212665Y53008351D02*
X-8273142Y52947875D01*
X-8273142Y52947875D02*
X-8394094Y52887398D01*
X-8394094Y52887398D02*
X-8877904Y52887398D01*
X-8877904Y52887398D02*
X-8877904Y54157398D01*
X-8877904Y54157398D02*
X-8454570Y54157398D01*
X-8454570Y54157398D02*
X-8333618Y54096922D01*
X-8333618Y54096922D02*
X-8273142Y54036446D01*
X-8273142Y54036446D02*
X-8212665Y53915494D01*
X-8212665Y53915494D02*
X-8212665Y53794541D01*
X-8212665Y53794541D02*
X-8273142Y53673589D01*
X-8273142Y53673589D02*
X-8333618Y53613113D01*
X-8333618Y53613113D02*
X-8454570Y53552636D01*
X-8454570Y53552636D02*
X-8877904Y53552636D01*
X-7365999Y54157398D02*
X-7124094Y54157398D01*
X-7124094Y54157398D02*
X-7003142Y54096922D01*
X-7003142Y54096922D02*
X-6882189Y53975970D01*
X-6882189Y53975970D02*
X-6821713Y53734065D01*
X-6821713Y53734065D02*
X-6821713Y53310732D01*
X-6821713Y53310732D02*
X-6882189Y53068827D01*
X-6882189Y53068827D02*
X-7003142Y52947875D01*
X-7003142Y52947875D02*
X-7124094Y52887398D01*
X-7124094Y52887398D02*
X-7365999Y52887398D01*
X-7365999Y52887398D02*
X-7486951Y52947875D01*
X-7486951Y52947875D02*
X-7607904Y53068827D01*
X-7607904Y53068827D02*
X-7668380Y53310732D01*
X-7668380Y53310732D02*
X-7668380Y53734065D01*
X-7668380Y53734065D02*
X-7607904Y53975970D01*
X-7607904Y53975970D02*
X-7486951Y54096922D01*
X-7486951Y54096922D02*
X-7365999Y54157398D01*
X-6035523Y54157398D02*
X-5793618Y54157398D01*
X-5793618Y54157398D02*
X-5672666Y54096922D01*
X-5672666Y54096922D02*
X-5551713Y53975970D01*
X-5551713Y53975970D02*
X-5491237Y53734065D01*
X-5491237Y53734065D02*
X-5491237Y53310732D01*
X-5491237Y53310732D02*
X-5551713Y53068827D01*
X-5551713Y53068827D02*
X-5672666Y52947875D01*
X-5672666Y52947875D02*
X-5793618Y52887398D01*
X-5793618Y52887398D02*
X-6035523Y52887398D01*
X-6035523Y52887398D02*
X-6156475Y52947875D01*
X-6156475Y52947875D02*
X-6277428Y53068827D01*
X-6277428Y53068827D02*
X-6337904Y53310732D01*
X-6337904Y53310732D02*
X-6337904Y53734065D01*
X-6337904Y53734065D02*
X-6277428Y53975970D01*
X-6277428Y53975970D02*
X-6156475Y54096922D01*
X-6156475Y54096922D02*
X-6035523Y54157398D01*
X-5128380Y54157398D02*
X-4402666Y54157398D01*
X-4765523Y52887398D02*
X-4765523Y54157398D01*
D12*
X-13459631Y55336091D02*
X-13497727Y55297996D01*
X-13497727Y55297996D02*
X-13612012Y55259900D01*
X-13612012Y55259900D02*
X-13688203Y55259900D01*
X-13688203Y55259900D02*
X-13802489Y55297996D01*
X-13802489Y55297996D02*
X-13878679Y55374186D01*
X-13878679Y55374186D02*
X-13916774Y55450376D01*
X-13916774Y55450376D02*
X-13954870Y55602757D01*
X-13954870Y55602757D02*
X-13954870Y55717043D01*
X-13954870Y55717043D02*
X-13916774Y55869424D01*
X-13916774Y55869424D02*
X-13878679Y55945615D01*
X-13878679Y55945615D02*
X-13802489Y56021805D01*
X-13802489Y56021805D02*
X-13688203Y56059900D01*
X-13688203Y56059900D02*
X-13612012Y56059900D01*
X-13612012Y56059900D02*
X-13497727Y56021805D01*
X-13497727Y56021805D02*
X-13459631Y55983710D01*
X-12697727Y55259900D02*
X-13154870Y55259900D01*
X-12926298Y55259900D02*
X-12926298Y56059900D01*
X-12926298Y56059900D02*
X-13002489Y55945615D01*
X-13002489Y55945615D02*
X-13078679Y55869424D01*
X-13078679Y55869424D02*
X-13154870Y55831329D01*
X-12392965Y55983710D02*
X-12354869Y56021805D01*
X-12354869Y56021805D02*
X-12278679Y56059900D01*
X-12278679Y56059900D02*
X-12088203Y56059900D01*
X-12088203Y56059900D02*
X-12012012Y56021805D01*
X-12012012Y56021805D02*
X-11973917Y55983710D01*
X-11973917Y55983710D02*
X-11935822Y55907519D01*
X-11935822Y55907519D02*
X-11935822Y55831329D01*
X-11935822Y55831329D02*
X-11973917Y55717043D01*
X-11973917Y55717043D02*
X-12431060Y55259900D01*
X-12431060Y55259900D02*
X-11935822Y55259900D01*
X-16318863Y57177751D02*
X-16356959Y57139656D01*
X-16356959Y57139656D02*
X-16471244Y57101560D01*
X-16471244Y57101560D02*
X-16547435Y57101560D01*
X-16547435Y57101560D02*
X-16661721Y57139656D01*
X-16661721Y57139656D02*
X-16737911Y57215846D01*
X-16737911Y57215846D02*
X-16776006Y57292036D01*
X-16776006Y57292036D02*
X-16814102Y57444417D01*
X-16814102Y57444417D02*
X-16814102Y57558703D01*
X-16814102Y57558703D02*
X-16776006Y57711084D01*
X-16776006Y57711084D02*
X-16737911Y57787275D01*
X-16737911Y57787275D02*
X-16661721Y57863465D01*
X-16661721Y57863465D02*
X-16547435Y57901560D01*
X-16547435Y57901560D02*
X-16471244Y57901560D01*
X-16471244Y57901560D02*
X-16356959Y57863465D01*
X-16356959Y57863465D02*
X-16318863Y57825370D01*
X-15556959Y57101560D02*
X-16014102Y57101560D01*
X-15785530Y57101560D02*
X-15785530Y57901560D01*
X-15785530Y57901560D02*
X-15861721Y57787275D01*
X-15861721Y57787275D02*
X-15937911Y57711084D01*
X-15937911Y57711084D02*
X-16014102Y57672989D01*
X-15099816Y57558703D02*
X-15176006Y57596798D01*
X-15176006Y57596798D02*
X-15214101Y57634894D01*
X-15214101Y57634894D02*
X-15252197Y57711084D01*
X-15252197Y57711084D02*
X-15252197Y57749179D01*
X-15252197Y57749179D02*
X-15214101Y57825370D01*
X-15214101Y57825370D02*
X-15176006Y57863465D01*
X-15176006Y57863465D02*
X-15099816Y57901560D01*
X-15099816Y57901560D02*
X-14947435Y57901560D01*
X-14947435Y57901560D02*
X-14871244Y57863465D01*
X-14871244Y57863465D02*
X-14833149Y57825370D01*
X-14833149Y57825370D02*
X-14795054Y57749179D01*
X-14795054Y57749179D02*
X-14795054Y57711084D01*
X-14795054Y57711084D02*
X-14833149Y57634894D01*
X-14833149Y57634894D02*
X-14871244Y57596798D01*
X-14871244Y57596798D02*
X-14947435Y57558703D01*
X-14947435Y57558703D02*
X-15099816Y57558703D01*
X-15099816Y57558703D02*
X-15176006Y57520608D01*
X-15176006Y57520608D02*
X-15214101Y57482513D01*
X-15214101Y57482513D02*
X-15252197Y57406322D01*
X-15252197Y57406322D02*
X-15252197Y57253941D01*
X-15252197Y57253941D02*
X-15214101Y57177751D01*
X-15214101Y57177751D02*
X-15176006Y57139656D01*
X-15176006Y57139656D02*
X-15099816Y57101560D01*
X-15099816Y57101560D02*
X-14947435Y57101560D01*
X-14947435Y57101560D02*
X-14871244Y57139656D01*
X-14871244Y57139656D02*
X-14833149Y57177751D01*
X-14833149Y57177751D02*
X-14795054Y57253941D01*
X-14795054Y57253941D02*
X-14795054Y57406322D01*
X-14795054Y57406322D02*
X-14833149Y57482513D01*
X-14833149Y57482513D02*
X-14871244Y57520608D01*
X-14871244Y57520608D02*
X-14947435Y57558703D01*
X-8580547Y60683468D02*
X-8847214Y61064421D01*
X-9037690Y60683468D02*
X-9037690Y61483468D01*
X-9037690Y61483468D02*
X-8732928Y61483468D01*
X-8732928Y61483468D02*
X-8656738Y61445373D01*
X-8656738Y61445373D02*
X-8618643Y61407278D01*
X-8618643Y61407278D02*
X-8580547Y61331087D01*
X-8580547Y61331087D02*
X-8580547Y61216802D01*
X-8580547Y61216802D02*
X-8618643Y61140611D01*
X-8618643Y61140611D02*
X-8656738Y61102516D01*
X-8656738Y61102516D02*
X-8732928Y61064421D01*
X-8732928Y61064421D02*
X-9037690Y61064421D01*
X-8123405Y61140611D02*
X-8199595Y61178706D01*
X-8199595Y61178706D02*
X-8237690Y61216802D01*
X-8237690Y61216802D02*
X-8275786Y61292992D01*
X-8275786Y61292992D02*
X-8275786Y61331087D01*
X-8275786Y61331087D02*
X-8237690Y61407278D01*
X-8237690Y61407278D02*
X-8199595Y61445373D01*
X-8199595Y61445373D02*
X-8123405Y61483468D01*
X-8123405Y61483468D02*
X-7971024Y61483468D01*
X-7971024Y61483468D02*
X-7894833Y61445373D01*
X-7894833Y61445373D02*
X-7856738Y61407278D01*
X-7856738Y61407278D02*
X-7818643Y61331087D01*
X-7818643Y61331087D02*
X-7818643Y61292992D01*
X-7818643Y61292992D02*
X-7856738Y61216802D01*
X-7856738Y61216802D02*
X-7894833Y61178706D01*
X-7894833Y61178706D02*
X-7971024Y61140611D01*
X-7971024Y61140611D02*
X-8123405Y61140611D01*
X-8123405Y61140611D02*
X-8199595Y61102516D01*
X-8199595Y61102516D02*
X-8237690Y61064421D01*
X-8237690Y61064421D02*
X-8275786Y60988230D01*
X-8275786Y60988230D02*
X-8275786Y60835849D01*
X-8275786Y60835849D02*
X-8237690Y60759659D01*
X-8237690Y60759659D02*
X-8199595Y60721564D01*
X-8199595Y60721564D02*
X-8123405Y60683468D01*
X-8123405Y60683468D02*
X-7971024Y60683468D01*
X-7971024Y60683468D02*
X-7894833Y60721564D01*
X-7894833Y60721564D02*
X-7856738Y60759659D01*
X-7856738Y60759659D02*
X-7818643Y60835849D01*
X-7818643Y60835849D02*
X-7818643Y60988230D01*
X-7818643Y60988230D02*
X-7856738Y61064421D01*
X-7856738Y61064421D02*
X-7894833Y61102516D01*
X-7894833Y61102516D02*
X-7971024Y61140611D01*
X-8571911Y62308560D02*
X-8838578Y62689513D01*
X-9029054Y62308560D02*
X-9029054Y63108560D01*
X-9029054Y63108560D02*
X-8724292Y63108560D01*
X-8724292Y63108560D02*
X-8648102Y63070465D01*
X-8648102Y63070465D02*
X-8610007Y63032370D01*
X-8610007Y63032370D02*
X-8571911Y62956179D01*
X-8571911Y62956179D02*
X-8571911Y62841894D01*
X-8571911Y62841894D02*
X-8610007Y62765703D01*
X-8610007Y62765703D02*
X-8648102Y62727608D01*
X-8648102Y62727608D02*
X-8724292Y62689513D01*
X-8724292Y62689513D02*
X-9029054Y62689513D01*
X-8190959Y62308560D02*
X-8038578Y62308560D01*
X-8038578Y62308560D02*
X-7962388Y62346656D01*
X-7962388Y62346656D02*
X-7924292Y62384751D01*
X-7924292Y62384751D02*
X-7848102Y62499036D01*
X-7848102Y62499036D02*
X-7810007Y62651417D01*
X-7810007Y62651417D02*
X-7810007Y62956179D01*
X-7810007Y62956179D02*
X-7848102Y63032370D01*
X-7848102Y63032370D02*
X-7886197Y63070465D01*
X-7886197Y63070465D02*
X-7962388Y63108560D01*
X-7962388Y63108560D02*
X-8114769Y63108560D01*
X-8114769Y63108560D02*
X-8190959Y63070465D01*
X-8190959Y63070465D02*
X-8229054Y63032370D01*
X-8229054Y63032370D02*
X-8267150Y62956179D01*
X-8267150Y62956179D02*
X-8267150Y62765703D01*
X-8267150Y62765703D02*
X-8229054Y62689513D01*
X-8229054Y62689513D02*
X-8190959Y62651417D01*
X-8190959Y62651417D02*
X-8114769Y62613322D01*
X-8114769Y62613322D02*
X-7962388Y62613322D01*
X-7962388Y62613322D02*
X-7886197Y62651417D01*
X-7886197Y62651417D02*
X-7848102Y62689513D01*
X-7848102Y62689513D02*
X-7810007Y62765703D01*
X-8580547Y59823924D02*
X-8847214Y60204877D01*
X-9037690Y59823924D02*
X-9037690Y60623924D01*
X-9037690Y60623924D02*
X-8732928Y60623924D01*
X-8732928Y60623924D02*
X-8656738Y60585829D01*
X-8656738Y60585829D02*
X-8618643Y60547734D01*
X-8618643Y60547734D02*
X-8580547Y60471543D01*
X-8580547Y60471543D02*
X-8580547Y60357258D01*
X-8580547Y60357258D02*
X-8618643Y60281067D01*
X-8618643Y60281067D02*
X-8656738Y60242972D01*
X-8656738Y60242972D02*
X-8732928Y60204877D01*
X-8732928Y60204877D02*
X-9037690Y60204877D01*
X-7856738Y60623924D02*
X-8237690Y60623924D01*
X-8237690Y60623924D02*
X-8275786Y60242972D01*
X-8275786Y60242972D02*
X-8237690Y60281067D01*
X-8237690Y60281067D02*
X-8161500Y60319162D01*
X-8161500Y60319162D02*
X-7971024Y60319162D01*
X-7971024Y60319162D02*
X-7894833Y60281067D01*
X-7894833Y60281067D02*
X-7856738Y60242972D01*
X-7856738Y60242972D02*
X-7818643Y60166781D01*
X-7818643Y60166781D02*
X-7818643Y59976305D01*
X-7818643Y59976305D02*
X-7856738Y59900115D01*
X-7856738Y59900115D02*
X-7894833Y59862020D01*
X-7894833Y59862020D02*
X-7971024Y59823924D01*
X-7971024Y59823924D02*
X-8161500Y59823924D01*
X-8161500Y59823924D02*
X-8237690Y59862020D01*
X-8237690Y59862020D02*
X-8275786Y59900115D01*
X-15502846Y59291255D02*
X-15502846Y58643636D01*
X-15502846Y58643636D02*
X-15464751Y58567446D01*
X-15464751Y58567446D02*
X-15426656Y58529351D01*
X-15426656Y58529351D02*
X-15350465Y58491255D01*
X-15350465Y58491255D02*
X-15198084Y58491255D01*
X-15198084Y58491255D02*
X-15121894Y58529351D01*
X-15121894Y58529351D02*
X-15083799Y58567446D01*
X-15083799Y58567446D02*
X-15045703Y58643636D01*
X-15045703Y58643636D02*
X-15045703Y59291255D01*
X-14321894Y59291255D02*
X-14474275Y59291255D01*
X-14474275Y59291255D02*
X-14550466Y59253160D01*
X-14550466Y59253160D02*
X-14588561Y59215065D01*
X-14588561Y59215065D02*
X-14664751Y59100779D01*
X-14664751Y59100779D02*
X-14702847Y58948398D01*
X-14702847Y58948398D02*
X-14702847Y58643636D01*
X-14702847Y58643636D02*
X-14664751Y58567446D01*
X-14664751Y58567446D02*
X-14626656Y58529351D01*
X-14626656Y58529351D02*
X-14550466Y58491255D01*
X-14550466Y58491255D02*
X-14398085Y58491255D01*
X-14398085Y58491255D02*
X-14321894Y58529351D01*
X-14321894Y58529351D02*
X-14283799Y58567446D01*
X-14283799Y58567446D02*
X-14245704Y58643636D01*
X-14245704Y58643636D02*
X-14245704Y58834112D01*
X-14245704Y58834112D02*
X-14283799Y58910303D01*
X-14283799Y58910303D02*
X-14321894Y58948398D01*
X-14321894Y58948398D02*
X-14398085Y58986493D01*
X-14398085Y58986493D02*
X-14550466Y58986493D01*
X-14550466Y58986493D02*
X-14626656Y58948398D01*
X-14626656Y58948398D02*
X-14664751Y58910303D01*
X-14664751Y58910303D02*
X-14702847Y58834112D01*
X-16145723Y70603892D02*
X-15498104Y70603892D01*
X-15498104Y70603892D02*
X-15421914Y70641987D01*
X-15421914Y70641987D02*
X-15383819Y70680082D01*
X-15383819Y70680082D02*
X-15345723Y70756273D01*
X-15345723Y70756273D02*
X-15345723Y70908654D01*
X-15345723Y70908654D02*
X-15383819Y70984844D01*
X-15383819Y70984844D02*
X-15421914Y71022939D01*
X-15421914Y71022939D02*
X-15498104Y71061035D01*
X-15498104Y71061035D02*
X-16145723Y71061035D01*
X-15345723Y71480082D02*
X-15345723Y71632463D01*
X-15345723Y71632463D02*
X-15383819Y71708653D01*
X-15383819Y71708653D02*
X-15421914Y71746749D01*
X-15421914Y71746749D02*
X-15536199Y71822939D01*
X-15536199Y71822939D02*
X-15688580Y71861034D01*
X-15688580Y71861034D02*
X-15993342Y71861034D01*
X-15993342Y71861034D02*
X-16069533Y71822939D01*
X-16069533Y71822939D02*
X-16107628Y71784844D01*
X-16107628Y71784844D02*
X-16145723Y71708653D01*
X-16145723Y71708653D02*
X-16145723Y71556272D01*
X-16145723Y71556272D02*
X-16107628Y71480082D01*
X-16107628Y71480082D02*
X-16069533Y71441987D01*
X-16069533Y71441987D02*
X-15993342Y71403891D01*
X-15993342Y71403891D02*
X-15802866Y71403891D01*
X-15802866Y71403891D02*
X-15726676Y71441987D01*
X-15726676Y71441987D02*
X-15688580Y71480082D01*
X-15688580Y71480082D02*
X-15650485Y71556272D01*
X-15650485Y71556272D02*
X-15650485Y71708653D01*
X-15650485Y71708653D02*
X-15688580Y71784844D01*
X-15688580Y71784844D02*
X-15726676Y71822939D01*
X-15726676Y71822939D02*
X-15802866Y71861034D01*
X-10049723Y70222940D02*
X-9402104Y70222940D01*
X-9402104Y70222940D02*
X-9325914Y70261035D01*
X-9325914Y70261035D02*
X-9287819Y70299130D01*
X-9287819Y70299130D02*
X-9249723Y70375321D01*
X-9249723Y70375321D02*
X-9249723Y70527702D01*
X-9249723Y70527702D02*
X-9287819Y70603892D01*
X-9287819Y70603892D02*
X-9325914Y70641987D01*
X-9325914Y70641987D02*
X-9402104Y70680083D01*
X-9402104Y70680083D02*
X-10049723Y70680083D01*
X-9249723Y71480082D02*
X-9249723Y71022939D01*
X-9249723Y71251511D02*
X-10049723Y71251511D01*
X-10049723Y71251511D02*
X-9935438Y71175320D01*
X-9935438Y71175320D02*
X-9859247Y71099130D01*
X-9859247Y71099130D02*
X-9821152Y71022939D01*
X-10049723Y71975321D02*
X-10049723Y72051511D01*
X-10049723Y72051511D02*
X-10011628Y72127702D01*
X-10011628Y72127702D02*
X-9973533Y72165797D01*
X-9973533Y72165797D02*
X-9897342Y72203892D01*
X-9897342Y72203892D02*
X-9744961Y72241987D01*
X-9744961Y72241987D02*
X-9554485Y72241987D01*
X-9554485Y72241987D02*
X-9402104Y72203892D01*
X-9402104Y72203892D02*
X-9325914Y72165797D01*
X-9325914Y72165797D02*
X-9287819Y72127702D01*
X-9287819Y72127702D02*
X-9249723Y72051511D01*
X-9249723Y72051511D02*
X-9249723Y71975321D01*
X-9249723Y71975321D02*
X-9287819Y71899130D01*
X-9287819Y71899130D02*
X-9325914Y71861035D01*
X-9325914Y71861035D02*
X-9402104Y71822940D01*
X-9402104Y71822940D02*
X-9554485Y71784844D01*
X-9554485Y71784844D02*
X-9744961Y71784844D01*
X-9744961Y71784844D02*
X-9897342Y71822940D01*
X-9897342Y71822940D02*
X-9973533Y71861035D01*
X-9973533Y71861035D02*
X-10011628Y71899130D01*
X-10011628Y71899130D02*
X-10049723Y71975321D01*
X-2512381Y12006057D02*
X-2474286Y11967961D01*
X-2474286Y11967961D02*
X-2436190Y11853676D01*
X-2436190Y11853676D02*
X-2436190Y11777485D01*
X-2436190Y11777485D02*
X-2474286Y11663199D01*
X-2474286Y11663199D02*
X-2550476Y11587009D01*
X-2550476Y11587009D02*
X-2626666Y11548914D01*
X-2626666Y11548914D02*
X-2779047Y11510818D01*
X-2779047Y11510818D02*
X-2893333Y11510818D01*
X-2893333Y11510818D02*
X-3045714Y11548914D01*
X-3045714Y11548914D02*
X-3121905Y11587009D01*
X-3121905Y11587009D02*
X-3198095Y11663199D01*
X-3198095Y11663199D02*
X-3236190Y11777485D01*
X-3236190Y11777485D02*
X-3236190Y11853676D01*
X-3236190Y11853676D02*
X-3198095Y11967961D01*
X-3198095Y11967961D02*
X-3160000Y12006057D01*
X-2436190Y12767961D02*
X-2436190Y12310818D01*
X-2436190Y12539390D02*
X-3236190Y12539390D01*
X-3236190Y12539390D02*
X-3121905Y12463199D01*
X-3121905Y12463199D02*
X-3045714Y12387009D01*
X-3045714Y12387009D02*
X-3007619Y12310818D01*
X-3236190Y13263200D02*
X-3236190Y13339390D01*
X-3236190Y13339390D02*
X-3198095Y13415581D01*
X-3198095Y13415581D02*
X-3160000Y13453676D01*
X-3160000Y13453676D02*
X-3083809Y13491771D01*
X-3083809Y13491771D02*
X-2931428Y13529866D01*
X-2931428Y13529866D02*
X-2740952Y13529866D01*
X-2740952Y13529866D02*
X-2588571Y13491771D01*
X-2588571Y13491771D02*
X-2512381Y13453676D01*
X-2512381Y13453676D02*
X-2474286Y13415581D01*
X-2474286Y13415581D02*
X-2436190Y13339390D01*
X-2436190Y13339390D02*
X-2436190Y13263200D01*
X-2436190Y13263200D02*
X-2474286Y13187009D01*
X-2474286Y13187009D02*
X-2512381Y13148914D01*
X-2512381Y13148914D02*
X-2588571Y13110819D01*
X-2588571Y13110819D02*
X-2740952Y13072723D01*
X-2740952Y13072723D02*
X-2931428Y13072723D01*
X-2931428Y13072723D02*
X-3083809Y13110819D01*
X-3083809Y13110819D02*
X-3160000Y13148914D01*
X-3160000Y13148914D02*
X-3198095Y13187009D01*
X-3198095Y13187009D02*
X-3236190Y13263200D01*
X-17591507Y22171175D02*
X-18391507Y22171175D01*
X-18391507Y22171175D02*
X-18391507Y22361651D01*
X-18391507Y22361651D02*
X-18353412Y22475937D01*
X-18353412Y22475937D02*
X-18277222Y22552127D01*
X-18277222Y22552127D02*
X-18201031Y22590222D01*
X-18201031Y22590222D02*
X-18048650Y22628318D01*
X-18048650Y22628318D02*
X-17934364Y22628318D01*
X-17934364Y22628318D02*
X-17781983Y22590222D01*
X-17781983Y22590222D02*
X-17705793Y22552127D01*
X-17705793Y22552127D02*
X-17629603Y22475937D01*
X-17629603Y22475937D02*
X-17591507Y22361651D01*
X-17591507Y22361651D02*
X-17591507Y22171175D01*
X-18315317Y22933079D02*
X-18353412Y22971175D01*
X-18353412Y22971175D02*
X-18391507Y23047365D01*
X-18391507Y23047365D02*
X-18391507Y23237841D01*
X-18391507Y23237841D02*
X-18353412Y23314032D01*
X-18353412Y23314032D02*
X-18315317Y23352127D01*
X-18315317Y23352127D02*
X-18239126Y23390222D01*
X-18239126Y23390222D02*
X-18162936Y23390222D01*
X-18162936Y23390222D02*
X-18048650Y23352127D01*
X-18048650Y23352127D02*
X-17591507Y22894984D01*
X-17591507Y22894984D02*
X-17591507Y23390222D01*
X-7600377Y22094490D02*
X-7981329Y22094490D01*
X-7981329Y22094490D02*
X-7981329Y22894490D01*
X-7371806Y22818300D02*
X-7333710Y22856395D01*
X-7333710Y22856395D02*
X-7257520Y22894490D01*
X-7257520Y22894490D02*
X-7067044Y22894490D01*
X-7067044Y22894490D02*
X-6990853Y22856395D01*
X-6990853Y22856395D02*
X-6952758Y22818300D01*
X-6952758Y22818300D02*
X-6914663Y22742109D01*
X-6914663Y22742109D02*
X-6914663Y22665919D01*
X-6914663Y22665919D02*
X-6952758Y22551633D01*
X-6952758Y22551633D02*
X-7409901Y22094490D01*
X-7409901Y22094490D02*
X-6914663Y22094490D01*
X-14175107Y9959154D02*
X-13527488Y9959154D01*
X-13527488Y9959154D02*
X-13451298Y9997249D01*
X-13451298Y9997249D02*
X-13413203Y10035344D01*
X-13413203Y10035344D02*
X-13375107Y10111535D01*
X-13375107Y10111535D02*
X-13375107Y10263916D01*
X-13375107Y10263916D02*
X-13413203Y10340106D01*
X-13413203Y10340106D02*
X-13451298Y10378201D01*
X-13451298Y10378201D02*
X-13527488Y10416297D01*
X-13527488Y10416297D02*
X-14175107Y10416297D01*
X-14098917Y10759153D02*
X-14137012Y10797249D01*
X-14137012Y10797249D02*
X-14175107Y10873439D01*
X-14175107Y10873439D02*
X-14175107Y11063915D01*
X-14175107Y11063915D02*
X-14137012Y11140106D01*
X-14137012Y11140106D02*
X-14098917Y11178201D01*
X-14098917Y11178201D02*
X-14022726Y11216296D01*
X-14022726Y11216296D02*
X-13946536Y11216296D01*
X-13946536Y11216296D02*
X-13832250Y11178201D01*
X-13832250Y11178201D02*
X-13375107Y10721058D01*
X-13375107Y10721058D02*
X-13375107Y11216296D01*
X-7109188Y34897822D02*
X-6461569Y34897822D01*
X-6461569Y34897822D02*
X-6385379Y34935917D01*
X-6385379Y34935917D02*
X-6347284Y34974012D01*
X-6347284Y34974012D02*
X-6309188Y35050203D01*
X-6309188Y35050203D02*
X-6309188Y35202584D01*
X-6309188Y35202584D02*
X-6347284Y35278774D01*
X-6347284Y35278774D02*
X-6385379Y35316869D01*
X-6385379Y35316869D02*
X-6461569Y35354965D01*
X-6461569Y35354965D02*
X-7109188Y35354965D01*
X-7109188Y36116869D02*
X-7109188Y35735917D01*
X-7109188Y35735917D02*
X-6728236Y35697821D01*
X-6728236Y35697821D02*
X-6766331Y35735917D01*
X-6766331Y35735917D02*
X-6804426Y35812107D01*
X-6804426Y35812107D02*
X-6804426Y36002583D01*
X-6804426Y36002583D02*
X-6766331Y36078774D01*
X-6766331Y36078774D02*
X-6728236Y36116869D01*
X-6728236Y36116869D02*
X-6652045Y36154964D01*
X-6652045Y36154964D02*
X-6461569Y36154964D01*
X-6461569Y36154964D02*
X-6385379Y36116869D01*
X-6385379Y36116869D02*
X-6347284Y36078774D01*
X-6347284Y36078774D02*
X-6309188Y36002583D01*
X-6309188Y36002583D02*
X-6309188Y35812107D01*
X-6309188Y35812107D02*
X-6347284Y35735917D01*
X-6347284Y35735917D02*
X-6385379Y35697821D01*
X-7166914Y35139130D02*
X-7128819Y35101034D01*
X-7128819Y35101034D02*
X-7090723Y34986749D01*
X-7090723Y34986749D02*
X-7090723Y34910558D01*
X-7090723Y34910558D02*
X-7128819Y34796272D01*
X-7128819Y34796272D02*
X-7205009Y34720082D01*
X-7205009Y34720082D02*
X-7281199Y34681987D01*
X-7281199Y34681987D02*
X-7433580Y34643891D01*
X-7433580Y34643891D02*
X-7547866Y34643891D01*
X-7547866Y34643891D02*
X-7700247Y34681987D01*
X-7700247Y34681987D02*
X-7776438Y34720082D01*
X-7776438Y34720082D02*
X-7852628Y34796272D01*
X-7852628Y34796272D02*
X-7890723Y34910558D01*
X-7890723Y34910558D02*
X-7890723Y34986749D01*
X-7890723Y34986749D02*
X-7852628Y35101034D01*
X-7852628Y35101034D02*
X-7814533Y35139130D01*
X-7090723Y35901034D02*
X-7090723Y35443891D01*
X-7090723Y35672463D02*
X-7890723Y35672463D01*
X-7890723Y35672463D02*
X-7776438Y35596272D01*
X-7776438Y35596272D02*
X-7700247Y35520082D01*
X-7700247Y35520082D02*
X-7662152Y35443891D01*
X-7090723Y36662939D02*
X-7090723Y36205796D01*
X-7090723Y36434368D02*
X-7890723Y36434368D01*
X-7890723Y36434368D02*
X-7776438Y36358177D01*
X-7776438Y36358177D02*
X-7700247Y36281987D01*
X-7700247Y36281987D02*
X-7662152Y36205796D01*
X-31050863Y57431751D02*
X-31088959Y57393656D01*
X-31088959Y57393656D02*
X-31203244Y57355560D01*
X-31203244Y57355560D02*
X-31279435Y57355560D01*
X-31279435Y57355560D02*
X-31393721Y57393656D01*
X-31393721Y57393656D02*
X-31469911Y57469846D01*
X-31469911Y57469846D02*
X-31508006Y57546036D01*
X-31508006Y57546036D02*
X-31546102Y57698417D01*
X-31546102Y57698417D02*
X-31546102Y57812703D01*
X-31546102Y57812703D02*
X-31508006Y57965084D01*
X-31508006Y57965084D02*
X-31469911Y58041275D01*
X-31469911Y58041275D02*
X-31393721Y58117465D01*
X-31393721Y58117465D02*
X-31279435Y58155560D01*
X-31279435Y58155560D02*
X-31203244Y58155560D01*
X-31203244Y58155560D02*
X-31088959Y58117465D01*
X-31088959Y58117465D02*
X-31050863Y58079370D01*
X-30288959Y57355560D02*
X-30746102Y57355560D01*
X-30517530Y57355560D02*
X-30517530Y58155560D01*
X-30517530Y58155560D02*
X-30593721Y58041275D01*
X-30593721Y58041275D02*
X-30669911Y57965084D01*
X-30669911Y57965084D02*
X-30746102Y57926989D01*
X-29908006Y57355560D02*
X-29755625Y57355560D01*
X-29755625Y57355560D02*
X-29679435Y57393656D01*
X-29679435Y57393656D02*
X-29641339Y57431751D01*
X-29641339Y57431751D02*
X-29565149Y57546036D01*
X-29565149Y57546036D02*
X-29527054Y57698417D01*
X-29527054Y57698417D02*
X-29527054Y58003179D01*
X-29527054Y58003179D02*
X-29565149Y58079370D01*
X-29565149Y58079370D02*
X-29603244Y58117465D01*
X-29603244Y58117465D02*
X-29679435Y58155560D01*
X-29679435Y58155560D02*
X-29831816Y58155560D01*
X-29831816Y58155560D02*
X-29908006Y58117465D01*
X-29908006Y58117465D02*
X-29946101Y58079370D01*
X-29946101Y58079370D02*
X-29984197Y58003179D01*
X-29984197Y58003179D02*
X-29984197Y57812703D01*
X-29984197Y57812703D02*
X-29946101Y57736513D01*
X-29946101Y57736513D02*
X-29908006Y57698417D01*
X-29908006Y57698417D02*
X-29831816Y57660322D01*
X-29831816Y57660322D02*
X-29679435Y57660322D01*
X-29679435Y57660322D02*
X-29603244Y57698417D01*
X-29603244Y57698417D02*
X-29565149Y57736513D01*
X-29565149Y57736513D02*
X-29527054Y57812703D01*
X-28256863Y55145751D02*
X-28294959Y55107656D01*
X-28294959Y55107656D02*
X-28409244Y55069560D01*
X-28409244Y55069560D02*
X-28485435Y55069560D01*
X-28485435Y55069560D02*
X-28599721Y55107656D01*
X-28599721Y55107656D02*
X-28675911Y55183846D01*
X-28675911Y55183846D02*
X-28714006Y55260036D01*
X-28714006Y55260036D02*
X-28752102Y55412417D01*
X-28752102Y55412417D02*
X-28752102Y55526703D01*
X-28752102Y55526703D02*
X-28714006Y55679084D01*
X-28714006Y55679084D02*
X-28675911Y55755275D01*
X-28675911Y55755275D02*
X-28599721Y55831465D01*
X-28599721Y55831465D02*
X-28485435Y55869560D01*
X-28485435Y55869560D02*
X-28409244Y55869560D01*
X-28409244Y55869560D02*
X-28294959Y55831465D01*
X-28294959Y55831465D02*
X-28256863Y55793370D01*
X-27494959Y55069560D02*
X-27952102Y55069560D01*
X-27723530Y55069560D02*
X-27723530Y55869560D01*
X-27723530Y55869560D02*
X-27799721Y55755275D01*
X-27799721Y55755275D02*
X-27875911Y55679084D01*
X-27875911Y55679084D02*
X-27952102Y55640989D01*
X-26809244Y55602894D02*
X-26809244Y55069560D01*
X-26999720Y55907656D02*
X-27190197Y55336227D01*
X-27190197Y55336227D02*
X-26694958Y55336227D01*
X-23557864Y60911560D02*
X-23824531Y61292513D01*
X-24015007Y60911560D02*
X-24015007Y61711560D01*
X-24015007Y61711560D02*
X-23710245Y61711560D01*
X-23710245Y61711560D02*
X-23634055Y61673465D01*
X-23634055Y61673465D02*
X-23595960Y61635370D01*
X-23595960Y61635370D02*
X-23557864Y61559179D01*
X-23557864Y61559179D02*
X-23557864Y61444894D01*
X-23557864Y61444894D02*
X-23595960Y61368703D01*
X-23595960Y61368703D02*
X-23634055Y61330608D01*
X-23634055Y61330608D02*
X-23710245Y61292513D01*
X-23710245Y61292513D02*
X-24015007Y61292513D01*
X-22795960Y60911560D02*
X-23253103Y60911560D01*
X-23024531Y60911560D02*
X-23024531Y61711560D01*
X-23024531Y61711560D02*
X-23100722Y61597275D01*
X-23100722Y61597275D02*
X-23176912Y61521084D01*
X-23176912Y61521084D02*
X-23253103Y61482989D01*
X-22300721Y61711560D02*
X-22224531Y61711560D01*
X-22224531Y61711560D02*
X-22148340Y61673465D01*
X-22148340Y61673465D02*
X-22110245Y61635370D01*
X-22110245Y61635370D02*
X-22072150Y61559179D01*
X-22072150Y61559179D02*
X-22034055Y61406798D01*
X-22034055Y61406798D02*
X-22034055Y61216322D01*
X-22034055Y61216322D02*
X-22072150Y61063941D01*
X-22072150Y61063941D02*
X-22110245Y60987751D01*
X-22110245Y60987751D02*
X-22148340Y60949656D01*
X-22148340Y60949656D02*
X-22224531Y60911560D01*
X-22224531Y60911560D02*
X-22300721Y60911560D01*
X-22300721Y60911560D02*
X-22376912Y60949656D01*
X-22376912Y60949656D02*
X-22415007Y60987751D01*
X-22415007Y60987751D02*
X-22453102Y61063941D01*
X-22453102Y61063941D02*
X-22491198Y61216322D01*
X-22491198Y61216322D02*
X-22491198Y61406798D01*
X-22491198Y61406798D02*
X-22453102Y61559179D01*
X-22453102Y61559179D02*
X-22415007Y61635370D01*
X-22415007Y61635370D02*
X-22376912Y61673465D01*
X-22376912Y61673465D02*
X-22300721Y61711560D01*
X-23557864Y62689560D02*
X-23824531Y63070513D01*
X-24015007Y62689560D02*
X-24015007Y63489560D01*
X-24015007Y63489560D02*
X-23710245Y63489560D01*
X-23710245Y63489560D02*
X-23634055Y63451465D01*
X-23634055Y63451465D02*
X-23595960Y63413370D01*
X-23595960Y63413370D02*
X-23557864Y63337179D01*
X-23557864Y63337179D02*
X-23557864Y63222894D01*
X-23557864Y63222894D02*
X-23595960Y63146703D01*
X-23595960Y63146703D02*
X-23634055Y63108608D01*
X-23634055Y63108608D02*
X-23710245Y63070513D01*
X-23710245Y63070513D02*
X-24015007Y63070513D01*
X-22795960Y62689560D02*
X-23253103Y62689560D01*
X-23024531Y62689560D02*
X-23024531Y63489560D01*
X-23024531Y63489560D02*
X-23100722Y63375275D01*
X-23100722Y63375275D02*
X-23176912Y63299084D01*
X-23176912Y63299084D02*
X-23253103Y63260989D01*
X-22034055Y62689560D02*
X-22491198Y62689560D01*
X-22262626Y62689560D02*
X-22262626Y63489560D01*
X-22262626Y63489560D02*
X-22338817Y63375275D01*
X-22338817Y63375275D02*
X-22415007Y63299084D01*
X-22415007Y63299084D02*
X-22491198Y63260989D01*
X-23176911Y60467560D02*
X-23443578Y60848513D01*
X-23634054Y60467560D02*
X-23634054Y61267560D01*
X-23634054Y61267560D02*
X-23329292Y61267560D01*
X-23329292Y61267560D02*
X-23253102Y61229465D01*
X-23253102Y61229465D02*
X-23215007Y61191370D01*
X-23215007Y61191370D02*
X-23176911Y61115179D01*
X-23176911Y61115179D02*
X-23176911Y61000894D01*
X-23176911Y61000894D02*
X-23215007Y60924703D01*
X-23215007Y60924703D02*
X-23253102Y60886608D01*
X-23253102Y60886608D02*
X-23329292Y60848513D01*
X-23329292Y60848513D02*
X-23634054Y60848513D01*
X-22491197Y61267560D02*
X-22643578Y61267560D01*
X-22643578Y61267560D02*
X-22719769Y61229465D01*
X-22719769Y61229465D02*
X-22757864Y61191370D01*
X-22757864Y61191370D02*
X-22834054Y61077084D01*
X-22834054Y61077084D02*
X-22872150Y60924703D01*
X-22872150Y60924703D02*
X-22872150Y60619941D01*
X-22872150Y60619941D02*
X-22834054Y60543751D01*
X-22834054Y60543751D02*
X-22795959Y60505656D01*
X-22795959Y60505656D02*
X-22719769Y60467560D01*
X-22719769Y60467560D02*
X-22567388Y60467560D01*
X-22567388Y60467560D02*
X-22491197Y60505656D01*
X-22491197Y60505656D02*
X-22453102Y60543751D01*
X-22453102Y60543751D02*
X-22415007Y60619941D01*
X-22415007Y60619941D02*
X-22415007Y60810417D01*
X-22415007Y60810417D02*
X-22453102Y60886608D01*
X-22453102Y60886608D02*
X-22491197Y60924703D01*
X-22491197Y60924703D02*
X-22567388Y60962798D01*
X-22567388Y60962798D02*
X-22719769Y60962798D01*
X-22719769Y60962798D02*
X-22795959Y60924703D01*
X-22795959Y60924703D02*
X-22834054Y60886608D01*
X-22834054Y60886608D02*
X-22872150Y60810417D01*
X-30432268Y59917004D02*
X-30432268Y59269385D01*
X-30432268Y59269385D02*
X-30394173Y59193195D01*
X-30394173Y59193195D02*
X-30356078Y59155100D01*
X-30356078Y59155100D02*
X-30279887Y59117004D01*
X-30279887Y59117004D02*
X-30127506Y59117004D01*
X-30127506Y59117004D02*
X-30051316Y59155100D01*
X-30051316Y59155100D02*
X-30013221Y59193195D01*
X-30013221Y59193195D02*
X-29975125Y59269385D01*
X-29975125Y59269385D02*
X-29975125Y59917004D01*
X-29670364Y59917004D02*
X-29137030Y59917004D01*
X-29137030Y59917004D02*
X-29479888Y59117004D01*
X-31512722Y70222940D02*
X-30865103Y70222940D01*
X-30865103Y70222940D02*
X-30788913Y70261035D01*
X-30788913Y70261035D02*
X-30750818Y70299130D01*
X-30750818Y70299130D02*
X-30712722Y70375321D01*
X-30712722Y70375321D02*
X-30712722Y70527702D01*
X-30712722Y70527702D02*
X-30750818Y70603892D01*
X-30750818Y70603892D02*
X-30788913Y70641987D01*
X-30788913Y70641987D02*
X-30865103Y70680083D01*
X-30865103Y70680083D02*
X-31512722Y70680083D01*
X-30712722Y71480082D02*
X-30712722Y71022939D01*
X-30712722Y71251511D02*
X-31512722Y71251511D01*
X-31512722Y71251511D02*
X-31398437Y71175320D01*
X-31398437Y71175320D02*
X-31322246Y71099130D01*
X-31322246Y71099130D02*
X-31284151Y71022939D01*
X-30712722Y72241987D02*
X-30712722Y71784844D01*
X-30712722Y72013416D02*
X-31512722Y72013416D01*
X-31512722Y72013416D02*
X-31398437Y71937225D01*
X-31398437Y71937225D02*
X-31322246Y71861035D01*
X-31322246Y71861035D02*
X-31284151Y71784844D01*
X-25289722Y70222940D02*
X-24642103Y70222940D01*
X-24642103Y70222940D02*
X-24565913Y70261035D01*
X-24565913Y70261035D02*
X-24527818Y70299130D01*
X-24527818Y70299130D02*
X-24489722Y70375321D01*
X-24489722Y70375321D02*
X-24489722Y70527702D01*
X-24489722Y70527702D02*
X-24527818Y70603892D01*
X-24527818Y70603892D02*
X-24565913Y70641987D01*
X-24565913Y70641987D02*
X-24642103Y70680083D01*
X-24642103Y70680083D02*
X-25289722Y70680083D01*
X-24489722Y71480082D02*
X-24489722Y71022939D01*
X-24489722Y71251511D02*
X-25289722Y71251511D01*
X-25289722Y71251511D02*
X-25175437Y71175320D01*
X-25175437Y71175320D02*
X-25099246Y71099130D01*
X-25099246Y71099130D02*
X-25061151Y71022939D01*
X-25213532Y71784844D02*
X-25251627Y71822940D01*
X-25251627Y71822940D02*
X-25289722Y71899130D01*
X-25289722Y71899130D02*
X-25289722Y72089606D01*
X-25289722Y72089606D02*
X-25251627Y72165797D01*
X-25251627Y72165797D02*
X-25213532Y72203892D01*
X-25213532Y72203892D02*
X-25137341Y72241987D01*
X-25137341Y72241987D02*
X-25061151Y72241987D01*
X-25061151Y72241987D02*
X-24946865Y72203892D01*
X-24946865Y72203892D02*
X-24489722Y71746749D01*
X-24489722Y71746749D02*
X-24489722Y72241987D01*
X-13397864Y53177751D02*
X-13435960Y53139656D01*
X-13435960Y53139656D02*
X-13550245Y53101560D01*
X-13550245Y53101560D02*
X-13626436Y53101560D01*
X-13626436Y53101560D02*
X-13740722Y53139656D01*
X-13740722Y53139656D02*
X-13816912Y53215846D01*
X-13816912Y53215846D02*
X-13855007Y53292036D01*
X-13855007Y53292036D02*
X-13893103Y53444417D01*
X-13893103Y53444417D02*
X-13893103Y53558703D01*
X-13893103Y53558703D02*
X-13855007Y53711084D01*
X-13855007Y53711084D02*
X-13816912Y53787275D01*
X-13816912Y53787275D02*
X-13740722Y53863465D01*
X-13740722Y53863465D02*
X-13626436Y53901560D01*
X-13626436Y53901560D02*
X-13550245Y53901560D01*
X-13550245Y53901560D02*
X-13435960Y53863465D01*
X-13435960Y53863465D02*
X-13397864Y53825370D01*
X-13093103Y53825370D02*
X-13055007Y53863465D01*
X-13055007Y53863465D02*
X-12978817Y53901560D01*
X-12978817Y53901560D02*
X-12788341Y53901560D01*
X-12788341Y53901560D02*
X-12712150Y53863465D01*
X-12712150Y53863465D02*
X-12674055Y53825370D01*
X-12674055Y53825370D02*
X-12635960Y53749179D01*
X-12635960Y53749179D02*
X-12635960Y53672989D01*
X-12635960Y53672989D02*
X-12674055Y53558703D01*
X-12674055Y53558703D02*
X-13131198Y53101560D01*
X-13131198Y53101560D02*
X-12635960Y53101560D01*
X-11874055Y53101560D02*
X-12331198Y53101560D01*
X-12102626Y53101560D02*
X-12102626Y53901560D01*
X-12102626Y53901560D02*
X-12178817Y53787275D01*
X-12178817Y53787275D02*
X-12255007Y53711084D01*
X-12255007Y53711084D02*
X-12331198Y53672989D01*
X-28383864Y53431751D02*
X-28421960Y53393656D01*
X-28421960Y53393656D02*
X-28536245Y53355560D01*
X-28536245Y53355560D02*
X-28612436Y53355560D01*
X-28612436Y53355560D02*
X-28726722Y53393656D01*
X-28726722Y53393656D02*
X-28802912Y53469846D01*
X-28802912Y53469846D02*
X-28841007Y53546036D01*
X-28841007Y53546036D02*
X-28879103Y53698417D01*
X-28879103Y53698417D02*
X-28879103Y53812703D01*
X-28879103Y53812703D02*
X-28841007Y53965084D01*
X-28841007Y53965084D02*
X-28802912Y54041275D01*
X-28802912Y54041275D02*
X-28726722Y54117465D01*
X-28726722Y54117465D02*
X-28612436Y54155560D01*
X-28612436Y54155560D02*
X-28536245Y54155560D01*
X-28536245Y54155560D02*
X-28421960Y54117465D01*
X-28421960Y54117465D02*
X-28383864Y54079370D01*
X-28079103Y54079370D02*
X-28041007Y54117465D01*
X-28041007Y54117465D02*
X-27964817Y54155560D01*
X-27964817Y54155560D02*
X-27774341Y54155560D01*
X-27774341Y54155560D02*
X-27698150Y54117465D01*
X-27698150Y54117465D02*
X-27660055Y54079370D01*
X-27660055Y54079370D02*
X-27621960Y54003179D01*
X-27621960Y54003179D02*
X-27621960Y53926989D01*
X-27621960Y53926989D02*
X-27660055Y53812703D01*
X-27660055Y53812703D02*
X-28117198Y53355560D01*
X-28117198Y53355560D02*
X-27621960Y53355560D01*
X-27317198Y54079370D02*
X-27279102Y54117465D01*
X-27279102Y54117465D02*
X-27202912Y54155560D01*
X-27202912Y54155560D02*
X-27012436Y54155560D01*
X-27012436Y54155560D02*
X-26936245Y54117465D01*
X-26936245Y54117465D02*
X-26898150Y54079370D01*
X-26898150Y54079370D02*
X-26860055Y54003179D01*
X-26860055Y54003179D02*
X-26860055Y53926989D01*
X-26860055Y53926989D02*
X-26898150Y53812703D01*
X-26898150Y53812703D02*
X-27355293Y53355560D01*
X-27355293Y53355560D02*
X-26860055Y53355560D01*
X-41594951Y34532114D02*
X-41633047Y34494019D01*
X-41633047Y34494019D02*
X-41747332Y34455923D01*
X-41747332Y34455923D02*
X-41823523Y34455923D01*
X-41823523Y34455923D02*
X-41937809Y34494019D01*
X-41937809Y34494019D02*
X-42013999Y34570209D01*
X-42013999Y34570209D02*
X-42052094Y34646399D01*
X-42052094Y34646399D02*
X-42090190Y34798780D01*
X-42090190Y34798780D02*
X-42090190Y34913066D01*
X-42090190Y34913066D02*
X-42052094Y35065447D01*
X-42052094Y35065447D02*
X-42013999Y35141638D01*
X-42013999Y35141638D02*
X-41937809Y35217828D01*
X-41937809Y35217828D02*
X-41823523Y35255923D01*
X-41823523Y35255923D02*
X-41747332Y35255923D01*
X-41747332Y35255923D02*
X-41633047Y35217828D01*
X-41633047Y35217828D02*
X-41594951Y35179733D01*
X-41213999Y34455923D02*
X-41061618Y34455923D01*
X-41061618Y34455923D02*
X-40985428Y34494019D01*
X-40985428Y34494019D02*
X-40947332Y34532114D01*
X-40947332Y34532114D02*
X-40871142Y34646399D01*
X-40871142Y34646399D02*
X-40833047Y34798780D01*
X-40833047Y34798780D02*
X-40833047Y35103542D01*
X-40833047Y35103542D02*
X-40871142Y35179733D01*
X-40871142Y35179733D02*
X-40909237Y35217828D01*
X-40909237Y35217828D02*
X-40985428Y35255923D01*
X-40985428Y35255923D02*
X-41137809Y35255923D01*
X-41137809Y35255923D02*
X-41213999Y35217828D01*
X-41213999Y35217828D02*
X-41252094Y35179733D01*
X-41252094Y35179733D02*
X-41290190Y35103542D01*
X-41290190Y35103542D02*
X-41290190Y34913066D01*
X-41290190Y34913066D02*
X-41252094Y34836876D01*
X-41252094Y34836876D02*
X-41213999Y34798780D01*
X-41213999Y34798780D02*
X-41137809Y34760685D01*
X-41137809Y34760685D02*
X-40985428Y34760685D01*
X-40985428Y34760685D02*
X-40909237Y34798780D01*
X-40909237Y34798780D02*
X-40871142Y34836876D01*
X-40871142Y34836876D02*
X-40833047Y34913066D01*
X-36189172Y35333071D02*
X-36151077Y35294975D01*
X-36151077Y35294975D02*
X-36112981Y35180690D01*
X-36112981Y35180690D02*
X-36112981Y35104499D01*
X-36112981Y35104499D02*
X-36151077Y34990213D01*
X-36151077Y34990213D02*
X-36227267Y34914023D01*
X-36227267Y34914023D02*
X-36303457Y34875928D01*
X-36303457Y34875928D02*
X-36455838Y34837832D01*
X-36455838Y34837832D02*
X-36570124Y34837832D01*
X-36570124Y34837832D02*
X-36722505Y34875928D01*
X-36722505Y34875928D02*
X-36798696Y34914023D01*
X-36798696Y34914023D02*
X-36874886Y34990213D01*
X-36874886Y34990213D02*
X-36912981Y35104499D01*
X-36912981Y35104499D02*
X-36912981Y35180690D01*
X-36912981Y35180690D02*
X-36874886Y35294975D01*
X-36874886Y35294975D02*
X-36836791Y35333071D01*
X-36646315Y36018785D02*
X-36112981Y36018785D01*
X-36951077Y35828309D02*
X-36379648Y35637832D01*
X-36379648Y35637832D02*
X-36379648Y36133071D01*
X-47425914Y23455083D02*
X-47387819Y23416987D01*
X-47387819Y23416987D02*
X-47349723Y23302702D01*
X-47349723Y23302702D02*
X-47349723Y23226511D01*
X-47349723Y23226511D02*
X-47387819Y23112225D01*
X-47387819Y23112225D02*
X-47464009Y23036035D01*
X-47464009Y23036035D02*
X-47540199Y22997940D01*
X-47540199Y22997940D02*
X-47692580Y22959844D01*
X-47692580Y22959844D02*
X-47806866Y22959844D01*
X-47806866Y22959844D02*
X-47959247Y22997940D01*
X-47959247Y22997940D02*
X-48035438Y23036035D01*
X-48035438Y23036035D02*
X-48111628Y23112225D01*
X-48111628Y23112225D02*
X-48149723Y23226511D01*
X-48149723Y23226511D02*
X-48149723Y23302702D01*
X-48149723Y23302702D02*
X-48111628Y23416987D01*
X-48111628Y23416987D02*
X-48073533Y23455083D01*
X-47806866Y23912225D02*
X-47844961Y23836035D01*
X-47844961Y23836035D02*
X-47883057Y23797940D01*
X-47883057Y23797940D02*
X-47959247Y23759844D01*
X-47959247Y23759844D02*
X-47997342Y23759844D01*
X-47997342Y23759844D02*
X-48073533Y23797940D01*
X-48073533Y23797940D02*
X-48111628Y23836035D01*
X-48111628Y23836035D02*
X-48149723Y23912225D01*
X-48149723Y23912225D02*
X-48149723Y24064606D01*
X-48149723Y24064606D02*
X-48111628Y24140797D01*
X-48111628Y24140797D02*
X-48073533Y24178892D01*
X-48073533Y24178892D02*
X-47997342Y24216987D01*
X-47997342Y24216987D02*
X-47959247Y24216987D01*
X-47959247Y24216987D02*
X-47883057Y24178892D01*
X-47883057Y24178892D02*
X-47844961Y24140797D01*
X-47844961Y24140797D02*
X-47806866Y24064606D01*
X-47806866Y24064606D02*
X-47806866Y23912225D01*
X-47806866Y23912225D02*
X-47768771Y23836035D01*
X-47768771Y23836035D02*
X-47730676Y23797940D01*
X-47730676Y23797940D02*
X-47654485Y23759844D01*
X-47654485Y23759844D02*
X-47502104Y23759844D01*
X-47502104Y23759844D02*
X-47425914Y23797940D01*
X-47425914Y23797940D02*
X-47387819Y23836035D01*
X-47387819Y23836035D02*
X-47349723Y23912225D01*
X-47349723Y23912225D02*
X-47349723Y24064606D01*
X-47349723Y24064606D02*
X-47387819Y24140797D01*
X-47387819Y24140797D02*
X-47425914Y24178892D01*
X-47425914Y24178892D02*
X-47502104Y24216987D01*
X-47502104Y24216987D02*
X-47654485Y24216987D01*
X-47654485Y24216987D02*
X-47730676Y24178892D01*
X-47730676Y24178892D02*
X-47768771Y24140797D01*
X-47768771Y24140797D02*
X-47806866Y24064606D01*
X-41594951Y32373114D02*
X-41633047Y32335019D01*
X-41633047Y32335019D02*
X-41747332Y32296923D01*
X-41747332Y32296923D02*
X-41823523Y32296923D01*
X-41823523Y32296923D02*
X-41937809Y32335019D01*
X-41937809Y32335019D02*
X-42013999Y32411209D01*
X-42013999Y32411209D02*
X-42052094Y32487399D01*
X-42052094Y32487399D02*
X-42090190Y32639780D01*
X-42090190Y32639780D02*
X-42090190Y32754066D01*
X-42090190Y32754066D02*
X-42052094Y32906447D01*
X-42052094Y32906447D02*
X-42013999Y32982638D01*
X-42013999Y32982638D02*
X-41937809Y33058828D01*
X-41937809Y33058828D02*
X-41823523Y33096923D01*
X-41823523Y33096923D02*
X-41747332Y33096923D01*
X-41747332Y33096923D02*
X-41633047Y33058828D01*
X-41633047Y33058828D02*
X-41594951Y33020733D01*
X-41290190Y33020733D02*
X-41252094Y33058828D01*
X-41252094Y33058828D02*
X-41175904Y33096923D01*
X-41175904Y33096923D02*
X-40985428Y33096923D01*
X-40985428Y33096923D02*
X-40909237Y33058828D01*
X-40909237Y33058828D02*
X-40871142Y33020733D01*
X-40871142Y33020733D02*
X-40833047Y32944542D01*
X-40833047Y32944542D02*
X-40833047Y32868352D01*
X-40833047Y32868352D02*
X-40871142Y32754066D01*
X-40871142Y32754066D02*
X-41328285Y32296923D01*
X-41328285Y32296923D02*
X-40833047Y32296923D01*
X-25335910Y2758751D02*
X-25374006Y2720656D01*
X-25374006Y2720656D02*
X-25488291Y2682560D01*
X-25488291Y2682560D02*
X-25564482Y2682560D01*
X-25564482Y2682560D02*
X-25678768Y2720656D01*
X-25678768Y2720656D02*
X-25754958Y2796846D01*
X-25754958Y2796846D02*
X-25793053Y2873036D01*
X-25793053Y2873036D02*
X-25831149Y3025417D01*
X-25831149Y3025417D02*
X-25831149Y3139703D01*
X-25831149Y3139703D02*
X-25793053Y3292084D01*
X-25793053Y3292084D02*
X-25754958Y3368275D01*
X-25754958Y3368275D02*
X-25678768Y3444465D01*
X-25678768Y3444465D02*
X-25564482Y3482560D01*
X-25564482Y3482560D02*
X-25488291Y3482560D01*
X-25488291Y3482560D02*
X-25374006Y3444465D01*
X-25374006Y3444465D02*
X-25335910Y3406370D01*
X-25069244Y3482560D02*
X-24574006Y3482560D01*
X-24574006Y3482560D02*
X-24840672Y3177798D01*
X-24840672Y3177798D02*
X-24726387Y3177798D01*
X-24726387Y3177798D02*
X-24650196Y3139703D01*
X-24650196Y3139703D02*
X-24612101Y3101608D01*
X-24612101Y3101608D02*
X-24574006Y3025417D01*
X-24574006Y3025417D02*
X-24574006Y2834941D01*
X-24574006Y2834941D02*
X-24612101Y2758751D01*
X-24612101Y2758751D02*
X-24650196Y2720656D01*
X-24650196Y2720656D02*
X-24726387Y2682560D01*
X-24726387Y2682560D02*
X-24954958Y2682560D01*
X-24954958Y2682560D02*
X-25031149Y2720656D01*
X-25031149Y2720656D02*
X-25069244Y2758751D01*
X-29352094Y22898923D02*
X-29352094Y23698923D01*
X-29352094Y23698923D02*
X-29161618Y23698923D01*
X-29161618Y23698923D02*
X-29047332Y23660828D01*
X-29047332Y23660828D02*
X-28971142Y23584638D01*
X-28971142Y23584638D02*
X-28933047Y23508447D01*
X-28933047Y23508447D02*
X-28894951Y23356066D01*
X-28894951Y23356066D02*
X-28894951Y23241780D01*
X-28894951Y23241780D02*
X-28933047Y23089399D01*
X-28933047Y23089399D02*
X-28971142Y23013209D01*
X-28971142Y23013209D02*
X-29047332Y22937019D01*
X-29047332Y22937019D02*
X-29161618Y22898923D01*
X-29161618Y22898923D02*
X-29352094Y22898923D01*
X-28133047Y22898923D02*
X-28590190Y22898923D01*
X-28361618Y22898923D02*
X-28361618Y23698923D01*
X-28361618Y23698923D02*
X-28437809Y23584638D01*
X-28437809Y23584638D02*
X-28513999Y23508447D01*
X-28513999Y23508447D02*
X-28590190Y23470352D01*
X-41253723Y9612082D02*
X-41253723Y9231130D01*
X-41253723Y9231130D02*
X-42053723Y9231130D01*
X-41253723Y10297796D02*
X-41253723Y9840653D01*
X-41253723Y10069225D02*
X-42053723Y10069225D01*
X-42053723Y10069225D02*
X-41939438Y9993034D01*
X-41939438Y9993034D02*
X-41863247Y9916844D01*
X-41863247Y9916844D02*
X-41825152Y9840653D01*
X-35881148Y35387500D02*
X-36262101Y35120833D01*
X-35881148Y34930357D02*
X-36681148Y34930357D01*
X-36681148Y34930357D02*
X-36681148Y35235119D01*
X-36681148Y35235119D02*
X-36643053Y35311309D01*
X-36643053Y35311309D02*
X-36604958Y35349404D01*
X-36604958Y35349404D02*
X-36528767Y35387500D01*
X-36528767Y35387500D02*
X-36414482Y35387500D01*
X-36414482Y35387500D02*
X-36338291Y35349404D01*
X-36338291Y35349404D02*
X-36300196Y35311309D01*
X-36300196Y35311309D02*
X-36262101Y35235119D01*
X-36262101Y35235119D02*
X-36262101Y34930357D01*
X-36414482Y36073214D02*
X-35881148Y36073214D01*
X-36719244Y35882738D02*
X-36147815Y35692261D01*
X-36147815Y35692261D02*
X-36147815Y36187500D01*
X-34144981Y35387500D02*
X-34525934Y35120833D01*
X-34144981Y34930357D02*
X-34944981Y34930357D01*
X-34944981Y34930357D02*
X-34944981Y35235119D01*
X-34944981Y35235119D02*
X-34906886Y35311309D01*
X-34906886Y35311309D02*
X-34868791Y35349404D01*
X-34868791Y35349404D02*
X-34792600Y35387500D01*
X-34792600Y35387500D02*
X-34678315Y35387500D01*
X-34678315Y35387500D02*
X-34602124Y35349404D01*
X-34602124Y35349404D02*
X-34564029Y35311309D01*
X-34564029Y35311309D02*
X-34525934Y35235119D01*
X-34525934Y35235119D02*
X-34525934Y34930357D01*
X-34944981Y35654166D02*
X-34944981Y36149404D01*
X-34944981Y36149404D02*
X-34640219Y35882738D01*
X-34640219Y35882738D02*
X-34640219Y35997023D01*
X-34640219Y35997023D02*
X-34602124Y36073214D01*
X-34602124Y36073214D02*
X-34564029Y36111309D01*
X-34564029Y36111309D02*
X-34487838Y36149404D01*
X-34487838Y36149404D02*
X-34297362Y36149404D01*
X-34297362Y36149404D02*
X-34221172Y36111309D01*
X-34221172Y36111309D02*
X-34183077Y36073214D01*
X-34183077Y36073214D02*
X-34144981Y35997023D01*
X-34144981Y35997023D02*
X-34144981Y35768452D01*
X-34144981Y35768452D02*
X-34183077Y35692261D01*
X-34183077Y35692261D02*
X-34221172Y35654166D01*
X-37007167Y26184278D02*
X-36359548Y26184278D01*
X-36359548Y26184278D02*
X-36283358Y26222373D01*
X-36283358Y26222373D02*
X-36245263Y26260468D01*
X-36245263Y26260468D02*
X-36207167Y26336659D01*
X-36207167Y26336659D02*
X-36207167Y26489040D01*
X-36207167Y26489040D02*
X-36245263Y26565230D01*
X-36245263Y26565230D02*
X-36283358Y26603325D01*
X-36283358Y26603325D02*
X-36359548Y26641421D01*
X-36359548Y26641421D02*
X-37007167Y26641421D01*
X-36207167Y27441420D02*
X-36207167Y26984277D01*
X-36207167Y27212849D02*
X-37007167Y27212849D01*
X-37007167Y27212849D02*
X-36892882Y27136658D01*
X-36892882Y27136658D02*
X-36816691Y27060468D01*
X-36816691Y27060468D02*
X-36778596Y26984277D01*
X-33099722Y10024892D02*
X-32452103Y10024892D01*
X-32452103Y10024892D02*
X-32375913Y10062987D01*
X-32375913Y10062987D02*
X-32337818Y10101082D01*
X-32337818Y10101082D02*
X-32299722Y10177273D01*
X-32299722Y10177273D02*
X-32299722Y10329654D01*
X-32299722Y10329654D02*
X-32337818Y10405844D01*
X-32337818Y10405844D02*
X-32375913Y10443939D01*
X-32375913Y10443939D02*
X-32452103Y10482035D01*
X-32452103Y10482035D02*
X-33099722Y10482035D01*
X-32833056Y11205844D02*
X-32299722Y11205844D01*
X-33137818Y11015368D02*
X-32566389Y10824891D01*
X-32566389Y10824891D02*
X-32566389Y11320130D01*
X-27111814Y32533166D02*
X-27073719Y32495070D01*
X-27073719Y32495070D02*
X-27035623Y32380785D01*
X-27035623Y32380785D02*
X-27035623Y32304594D01*
X-27035623Y32304594D02*
X-27073719Y32190308D01*
X-27073719Y32190308D02*
X-27149909Y32114118D01*
X-27149909Y32114118D02*
X-27226099Y32076023D01*
X-27226099Y32076023D02*
X-27378480Y32037927D01*
X-27378480Y32037927D02*
X-27492766Y32037927D01*
X-27492766Y32037927D02*
X-27645147Y32076023D01*
X-27645147Y32076023D02*
X-27721338Y32114118D01*
X-27721338Y32114118D02*
X-27797528Y32190308D01*
X-27797528Y32190308D02*
X-27835623Y32304594D01*
X-27835623Y32304594D02*
X-27835623Y32380785D01*
X-27835623Y32380785D02*
X-27797528Y32495070D01*
X-27797528Y32495070D02*
X-27759433Y32533166D01*
X-27759433Y32837927D02*
X-27797528Y32876023D01*
X-27797528Y32876023D02*
X-27835623Y32952213D01*
X-27835623Y32952213D02*
X-27835623Y33142689D01*
X-27835623Y33142689D02*
X-27797528Y33218880D01*
X-27797528Y33218880D02*
X-27759433Y33256975D01*
X-27759433Y33256975D02*
X-27683242Y33295070D01*
X-27683242Y33295070D02*
X-27607052Y33295070D01*
X-27607052Y33295070D02*
X-27492766Y33256975D01*
X-27492766Y33256975D02*
X-27035623Y32799832D01*
X-27035623Y32799832D02*
X-27035623Y33295070D01*
X-27835623Y33980785D02*
X-27835623Y33828404D01*
X-27835623Y33828404D02*
X-27797528Y33752213D01*
X-27797528Y33752213D02*
X-27759433Y33714118D01*
X-27759433Y33714118D02*
X-27645147Y33637928D01*
X-27645147Y33637928D02*
X-27492766Y33599832D01*
X-27492766Y33599832D02*
X-27188004Y33599832D01*
X-27188004Y33599832D02*
X-27111814Y33637928D01*
X-27111814Y33637928D02*
X-27073719Y33676023D01*
X-27073719Y33676023D02*
X-27035623Y33752213D01*
X-27035623Y33752213D02*
X-27035623Y33904594D01*
X-27035623Y33904594D02*
X-27073719Y33980785D01*
X-27073719Y33980785D02*
X-27111814Y34018880D01*
X-27111814Y34018880D02*
X-27188004Y34056975D01*
X-27188004Y34056975D02*
X-27378480Y34056975D01*
X-27378480Y34056975D02*
X-27454671Y34018880D01*
X-27454671Y34018880D02*
X-27492766Y33980785D01*
X-27492766Y33980785D02*
X-27530861Y33904594D01*
X-27530861Y33904594D02*
X-27530861Y33752213D01*
X-27530861Y33752213D02*
X-27492766Y33676023D01*
X-27492766Y33676023D02*
X-27454671Y33637928D01*
X-27454671Y33637928D02*
X-27378480Y33599832D01*
X-25079814Y32533166D02*
X-25041719Y32495070D01*
X-25041719Y32495070D02*
X-25003623Y32380785D01*
X-25003623Y32380785D02*
X-25003623Y32304594D01*
X-25003623Y32304594D02*
X-25041719Y32190308D01*
X-25041719Y32190308D02*
X-25117909Y32114118D01*
X-25117909Y32114118D02*
X-25194099Y32076023D01*
X-25194099Y32076023D02*
X-25346480Y32037927D01*
X-25346480Y32037927D02*
X-25460766Y32037927D01*
X-25460766Y32037927D02*
X-25613147Y32076023D01*
X-25613147Y32076023D02*
X-25689338Y32114118D01*
X-25689338Y32114118D02*
X-25765528Y32190308D01*
X-25765528Y32190308D02*
X-25803623Y32304594D01*
X-25803623Y32304594D02*
X-25803623Y32380785D01*
X-25803623Y32380785D02*
X-25765528Y32495070D01*
X-25765528Y32495070D02*
X-25727433Y32533166D01*
X-25727433Y32837927D02*
X-25765528Y32876023D01*
X-25765528Y32876023D02*
X-25803623Y32952213D01*
X-25803623Y32952213D02*
X-25803623Y33142689D01*
X-25803623Y33142689D02*
X-25765528Y33218880D01*
X-25765528Y33218880D02*
X-25727433Y33256975D01*
X-25727433Y33256975D02*
X-25651242Y33295070D01*
X-25651242Y33295070D02*
X-25575052Y33295070D01*
X-25575052Y33295070D02*
X-25460766Y33256975D01*
X-25460766Y33256975D02*
X-25003623Y32799832D01*
X-25003623Y32799832D02*
X-25003623Y33295070D01*
X-25803623Y34018880D02*
X-25803623Y33637928D01*
X-25803623Y33637928D02*
X-25422671Y33599832D01*
X-25422671Y33599832D02*
X-25460766Y33637928D01*
X-25460766Y33637928D02*
X-25498861Y33714118D01*
X-25498861Y33714118D02*
X-25498861Y33904594D01*
X-25498861Y33904594D02*
X-25460766Y33980785D01*
X-25460766Y33980785D02*
X-25422671Y34018880D01*
X-25422671Y34018880D02*
X-25346480Y34056975D01*
X-25346480Y34056975D02*
X-25156004Y34056975D01*
X-25156004Y34056975D02*
X-25079814Y34018880D01*
X-25079814Y34018880D02*
X-25041719Y33980785D01*
X-25041719Y33980785D02*
X-25003623Y33904594D01*
X-25003623Y33904594D02*
X-25003623Y33714118D01*
X-25003623Y33714118D02*
X-25041719Y33637928D01*
X-25041719Y33637928D02*
X-25079814Y33599832D01*
X-21057521Y32570443D02*
X-21019426Y32532347D01*
X-21019426Y32532347D02*
X-20981330Y32418062D01*
X-20981330Y32418062D02*
X-20981330Y32341871D01*
X-20981330Y32341871D02*
X-21019426Y32227585D01*
X-21019426Y32227585D02*
X-21095616Y32151395D01*
X-21095616Y32151395D02*
X-21171806Y32113300D01*
X-21171806Y32113300D02*
X-21324187Y32075204D01*
X-21324187Y32075204D02*
X-21438473Y32075204D01*
X-21438473Y32075204D02*
X-21590854Y32113300D01*
X-21590854Y32113300D02*
X-21667045Y32151395D01*
X-21667045Y32151395D02*
X-21743235Y32227585D01*
X-21743235Y32227585D02*
X-21781330Y32341871D01*
X-21781330Y32341871D02*
X-21781330Y32418062D01*
X-21781330Y32418062D02*
X-21743235Y32532347D01*
X-21743235Y32532347D02*
X-21705140Y32570443D01*
X-21705140Y32875204D02*
X-21743235Y32913300D01*
X-21743235Y32913300D02*
X-21781330Y32989490D01*
X-21781330Y32989490D02*
X-21781330Y33179966D01*
X-21781330Y33179966D02*
X-21743235Y33256157D01*
X-21743235Y33256157D02*
X-21705140Y33294252D01*
X-21705140Y33294252D02*
X-21628949Y33332347D01*
X-21628949Y33332347D02*
X-21552759Y33332347D01*
X-21552759Y33332347D02*
X-21438473Y33294252D01*
X-21438473Y33294252D02*
X-20981330Y32837109D01*
X-20981330Y32837109D02*
X-20981330Y33332347D01*
X-21781330Y33599014D02*
X-21781330Y34132348D01*
X-21781330Y34132348D02*
X-20981330Y33789490D01*
X-17205814Y32660166D02*
X-17167719Y32622070D01*
X-17167719Y32622070D02*
X-17129623Y32507785D01*
X-17129623Y32507785D02*
X-17129623Y32431594D01*
X-17129623Y32431594D02*
X-17167719Y32317308D01*
X-17167719Y32317308D02*
X-17243909Y32241118D01*
X-17243909Y32241118D02*
X-17320099Y32203023D01*
X-17320099Y32203023D02*
X-17472480Y32164927D01*
X-17472480Y32164927D02*
X-17586766Y32164927D01*
X-17586766Y32164927D02*
X-17739147Y32203023D01*
X-17739147Y32203023D02*
X-17815338Y32241118D01*
X-17815338Y32241118D02*
X-17891528Y32317308D01*
X-17891528Y32317308D02*
X-17929623Y32431594D01*
X-17929623Y32431594D02*
X-17929623Y32507785D01*
X-17929623Y32507785D02*
X-17891528Y32622070D01*
X-17891528Y32622070D02*
X-17853433Y32660166D01*
X-17853433Y32964927D02*
X-17891528Y33003023D01*
X-17891528Y33003023D02*
X-17929623Y33079213D01*
X-17929623Y33079213D02*
X-17929623Y33269689D01*
X-17929623Y33269689D02*
X-17891528Y33345880D01*
X-17891528Y33345880D02*
X-17853433Y33383975D01*
X-17853433Y33383975D02*
X-17777242Y33422070D01*
X-17777242Y33422070D02*
X-17701052Y33422070D01*
X-17701052Y33422070D02*
X-17586766Y33383975D01*
X-17586766Y33383975D02*
X-17129623Y32926832D01*
X-17129623Y32926832D02*
X-17129623Y33422070D01*
X-17662957Y34107785D02*
X-17129623Y34107785D01*
X-17967719Y33917309D02*
X-17396290Y33726832D01*
X-17396290Y33726832D02*
X-17396290Y34222071D01*
X-29784293Y35464956D02*
X-30050960Y35845909D01*
X-30241436Y35464956D02*
X-30241436Y36264956D01*
X-30241436Y36264956D02*
X-29936674Y36264956D01*
X-29936674Y36264956D02*
X-29860484Y36226861D01*
X-29860484Y36226861D02*
X-29822389Y36188766D01*
X-29822389Y36188766D02*
X-29784293Y36112575D01*
X-29784293Y36112575D02*
X-29784293Y35998290D01*
X-29784293Y35998290D02*
X-29822389Y35922099D01*
X-29822389Y35922099D02*
X-29860484Y35884004D01*
X-29860484Y35884004D02*
X-29936674Y35845909D01*
X-29936674Y35845909D02*
X-30241436Y35845909D01*
X-29022389Y35464956D02*
X-29479532Y35464956D01*
X-29250960Y35464956D02*
X-29250960Y36264956D01*
X-29250960Y36264956D02*
X-29327151Y36150671D01*
X-29327151Y36150671D02*
X-29403341Y36074480D01*
X-29403341Y36074480D02*
X-29479532Y36036385D01*
X-28336674Y35998290D02*
X-28336674Y35464956D01*
X-28527150Y36303052D02*
X-28717627Y35731623D01*
X-28717627Y35731623D02*
X-28222388Y35731623D01*
X-21956144Y39981442D02*
X-22337097Y39714775D01*
X-21956144Y39524299D02*
X-22756144Y39524299D01*
X-22756144Y39524299D02*
X-22756144Y39829061D01*
X-22756144Y39829061D02*
X-22718049Y39905251D01*
X-22718049Y39905251D02*
X-22679954Y39943346D01*
X-22679954Y39943346D02*
X-22603763Y39981442D01*
X-22603763Y39981442D02*
X-22489478Y39981442D01*
X-22489478Y39981442D02*
X-22413287Y39943346D01*
X-22413287Y39943346D02*
X-22375192Y39905251D01*
X-22375192Y39905251D02*
X-22337097Y39829061D01*
X-22337097Y39829061D02*
X-22337097Y39524299D01*
X-21956144Y40743346D02*
X-21956144Y40286203D01*
X-21956144Y40514775D02*
X-22756144Y40514775D01*
X-22756144Y40514775D02*
X-22641859Y40438584D01*
X-22641859Y40438584D02*
X-22565668Y40362394D01*
X-22565668Y40362394D02*
X-22527573Y40286203D01*
X-22756144Y41467156D02*
X-22756144Y41086204D01*
X-22756144Y41086204D02*
X-22375192Y41048108D01*
X-22375192Y41048108D02*
X-22413287Y41086204D01*
X-22413287Y41086204D02*
X-22451382Y41162394D01*
X-22451382Y41162394D02*
X-22451382Y41352870D01*
X-22451382Y41352870D02*
X-22413287Y41429061D01*
X-22413287Y41429061D02*
X-22375192Y41467156D01*
X-22375192Y41467156D02*
X-22299001Y41505251D01*
X-22299001Y41505251D02*
X-22108525Y41505251D01*
X-22108525Y41505251D02*
X-22032335Y41467156D01*
X-22032335Y41467156D02*
X-21994240Y41429061D01*
X-21994240Y41429061D02*
X-21956144Y41352870D01*
X-21956144Y41352870D02*
X-21956144Y41162394D01*
X-21956144Y41162394D02*
X-21994240Y41086204D01*
X-21994240Y41086204D02*
X-22032335Y41048108D01*
X-28647287Y37538074D02*
X-28913954Y37919027D01*
X-29104430Y37538074D02*
X-29104430Y38338074D01*
X-29104430Y38338074D02*
X-28799668Y38338074D01*
X-28799668Y38338074D02*
X-28723478Y38299979D01*
X-28723478Y38299979D02*
X-28685383Y38261884D01*
X-28685383Y38261884D02*
X-28647287Y38185693D01*
X-28647287Y38185693D02*
X-28647287Y38071408D01*
X-28647287Y38071408D02*
X-28685383Y37995217D01*
X-28685383Y37995217D02*
X-28723478Y37957122D01*
X-28723478Y37957122D02*
X-28799668Y37919027D01*
X-28799668Y37919027D02*
X-29104430Y37919027D01*
X-27885383Y37538074D02*
X-28342526Y37538074D01*
X-28113954Y37538074D02*
X-28113954Y38338074D01*
X-28113954Y38338074D02*
X-28190145Y38223789D01*
X-28190145Y38223789D02*
X-28266335Y38147598D01*
X-28266335Y38147598D02*
X-28342526Y38109503D01*
X-27199668Y38338074D02*
X-27352049Y38338074D01*
X-27352049Y38338074D02*
X-27428240Y38299979D01*
X-27428240Y38299979D02*
X-27466335Y38261884D01*
X-27466335Y38261884D02*
X-27542525Y38147598D01*
X-27542525Y38147598D02*
X-27580621Y37995217D01*
X-27580621Y37995217D02*
X-27580621Y37690455D01*
X-27580621Y37690455D02*
X-27542525Y37614265D01*
X-27542525Y37614265D02*
X-27504430Y37576170D01*
X-27504430Y37576170D02*
X-27428240Y37538074D01*
X-27428240Y37538074D02*
X-27275859Y37538074D01*
X-27275859Y37538074D02*
X-27199668Y37576170D01*
X-27199668Y37576170D02*
X-27161573Y37614265D01*
X-27161573Y37614265D02*
X-27123478Y37690455D01*
X-27123478Y37690455D02*
X-27123478Y37880931D01*
X-27123478Y37880931D02*
X-27161573Y37957122D01*
X-27161573Y37957122D02*
X-27199668Y37995217D01*
X-27199668Y37995217D02*
X-27275859Y38033312D01*
X-27275859Y38033312D02*
X-27428240Y38033312D01*
X-27428240Y38033312D02*
X-27504430Y37995217D01*
X-27504430Y37995217D02*
X-27542525Y37957122D01*
X-27542525Y37957122D02*
X-27580621Y37880931D01*
X-23115019Y32509737D02*
X-23495972Y32243070D01*
X-23115019Y32052594D02*
X-23915019Y32052594D01*
X-23915019Y32052594D02*
X-23915019Y32357356D01*
X-23915019Y32357356D02*
X-23876924Y32433546D01*
X-23876924Y32433546D02*
X-23838829Y32471641D01*
X-23838829Y32471641D02*
X-23762638Y32509737D01*
X-23762638Y32509737D02*
X-23648353Y32509737D01*
X-23648353Y32509737D02*
X-23572162Y32471641D01*
X-23572162Y32471641D02*
X-23534067Y32433546D01*
X-23534067Y32433546D02*
X-23495972Y32357356D01*
X-23495972Y32357356D02*
X-23495972Y32052594D01*
X-23115019Y33271641D02*
X-23115019Y32814498D01*
X-23115019Y33043070D02*
X-23915019Y33043070D01*
X-23915019Y33043070D02*
X-23800734Y32966879D01*
X-23800734Y32966879D02*
X-23724543Y32890689D01*
X-23724543Y32890689D02*
X-23686448Y32814498D01*
X-23915019Y33538308D02*
X-23915019Y34071642D01*
X-23915019Y34071642D02*
X-23115019Y33728784D01*
X-15038662Y32572689D02*
X-15419615Y32306022D01*
X-15038662Y32115546D02*
X-15838662Y32115546D01*
X-15838662Y32115546D02*
X-15838662Y32420308D01*
X-15838662Y32420308D02*
X-15800567Y32496498D01*
X-15800567Y32496498D02*
X-15762472Y32534593D01*
X-15762472Y32534593D02*
X-15686281Y32572689D01*
X-15686281Y32572689D02*
X-15571996Y32572689D01*
X-15571996Y32572689D02*
X-15495805Y32534593D01*
X-15495805Y32534593D02*
X-15457710Y32496498D01*
X-15457710Y32496498D02*
X-15419615Y32420308D01*
X-15419615Y32420308D02*
X-15419615Y32115546D01*
X-15038662Y33334593D02*
X-15038662Y32877450D01*
X-15038662Y33106022D02*
X-15838662Y33106022D01*
X-15838662Y33106022D02*
X-15724377Y33029831D01*
X-15724377Y33029831D02*
X-15648186Y32953641D01*
X-15648186Y32953641D02*
X-15610091Y32877450D01*
X-15495805Y33791736D02*
X-15533900Y33715546D01*
X-15533900Y33715546D02*
X-15571996Y33677451D01*
X-15571996Y33677451D02*
X-15648186Y33639355D01*
X-15648186Y33639355D02*
X-15686281Y33639355D01*
X-15686281Y33639355D02*
X-15762472Y33677451D01*
X-15762472Y33677451D02*
X-15800567Y33715546D01*
X-15800567Y33715546D02*
X-15838662Y33791736D01*
X-15838662Y33791736D02*
X-15838662Y33944117D01*
X-15838662Y33944117D02*
X-15800567Y34020308D01*
X-15800567Y34020308D02*
X-15762472Y34058403D01*
X-15762472Y34058403D02*
X-15686281Y34096498D01*
X-15686281Y34096498D02*
X-15648186Y34096498D01*
X-15648186Y34096498D02*
X-15571996Y34058403D01*
X-15571996Y34058403D02*
X-15533900Y34020308D01*
X-15533900Y34020308D02*
X-15495805Y33944117D01*
X-15495805Y33944117D02*
X-15495805Y33791736D01*
X-15495805Y33791736D02*
X-15457710Y33715546D01*
X-15457710Y33715546D02*
X-15419615Y33677451D01*
X-15419615Y33677451D02*
X-15343424Y33639355D01*
X-15343424Y33639355D02*
X-15191043Y33639355D01*
X-15191043Y33639355D02*
X-15114853Y33677451D01*
X-15114853Y33677451D02*
X-15076758Y33715546D01*
X-15076758Y33715546D02*
X-15038662Y33791736D01*
X-15038662Y33791736D02*
X-15038662Y33944117D01*
X-15038662Y33944117D02*
X-15076758Y34020308D01*
X-15076758Y34020308D02*
X-15114853Y34058403D01*
X-15114853Y34058403D02*
X-15191043Y34096498D01*
X-15191043Y34096498D02*
X-15343424Y34096498D01*
X-15343424Y34096498D02*
X-15419615Y34058403D01*
X-15419615Y34058403D02*
X-15457710Y34020308D01*
X-15457710Y34020308D02*
X-15495805Y33944117D01*
X-25271554Y38898144D02*
X-25271554Y38250525D01*
X-25271554Y38250525D02*
X-25233459Y38174335D01*
X-25233459Y38174335D02*
X-25195364Y38136240D01*
X-25195364Y38136240D02*
X-25119173Y38098144D01*
X-25119173Y38098144D02*
X-24966792Y38098144D01*
X-24966792Y38098144D02*
X-24890602Y38136240D01*
X-24890602Y38136240D02*
X-24852507Y38174335D01*
X-24852507Y38174335D02*
X-24814411Y38250525D01*
X-24814411Y38250525D02*
X-24814411Y38898144D01*
X-24014412Y38098144D02*
X-24471555Y38098144D01*
X-24242983Y38098144D02*
X-24242983Y38898144D01*
X-24242983Y38898144D02*
X-24319174Y38783859D01*
X-24319174Y38783859D02*
X-24395364Y38707668D01*
X-24395364Y38707668D02*
X-24471555Y38669573D01*
X-23290602Y38898144D02*
X-23671554Y38898144D01*
X-23671554Y38898144D02*
X-23709650Y38517192D01*
X-23709650Y38517192D02*
X-23671554Y38555287D01*
X-23671554Y38555287D02*
X-23595364Y38593382D01*
X-23595364Y38593382D02*
X-23404888Y38593382D01*
X-23404888Y38593382D02*
X-23328697Y38555287D01*
X-23328697Y38555287D02*
X-23290602Y38517192D01*
X-23290602Y38517192D02*
X-23252507Y38441001D01*
X-23252507Y38441001D02*
X-23252507Y38250525D01*
X-23252507Y38250525D02*
X-23290602Y38174335D01*
X-23290602Y38174335D02*
X-23328697Y38136240D01*
X-23328697Y38136240D02*
X-23404888Y38098144D01*
X-23404888Y38098144D02*
X-23595364Y38098144D01*
X-23595364Y38098144D02*
X-23671554Y38136240D01*
X-23671554Y38136240D02*
X-23709650Y38174335D01*
X-19548071Y34720877D02*
X-19548071Y34073258D01*
X-19548071Y34073258D02*
X-19509976Y33997068D01*
X-19509976Y33997068D02*
X-19471881Y33958973D01*
X-19471881Y33958973D02*
X-19395690Y33920877D01*
X-19395690Y33920877D02*
X-19243309Y33920877D01*
X-19243309Y33920877D02*
X-19167119Y33958973D01*
X-19167119Y33958973D02*
X-19129024Y33997068D01*
X-19129024Y33997068D02*
X-19090928Y34073258D01*
X-19090928Y34073258D02*
X-19090928Y34720877D01*
X-18290929Y33920877D02*
X-18748072Y33920877D01*
X-18519500Y33920877D02*
X-18519500Y34720877D01*
X-18519500Y34720877D02*
X-18595691Y34606592D01*
X-18595691Y34606592D02*
X-18671881Y34530401D01*
X-18671881Y34530401D02*
X-18748072Y34492306D01*
X-17605214Y34720877D02*
X-17757595Y34720877D01*
X-17757595Y34720877D02*
X-17833786Y34682782D01*
X-17833786Y34682782D02*
X-17871881Y34644687D01*
X-17871881Y34644687D02*
X-17948071Y34530401D01*
X-17948071Y34530401D02*
X-17986167Y34378020D01*
X-17986167Y34378020D02*
X-17986167Y34073258D01*
X-17986167Y34073258D02*
X-17948071Y33997068D01*
X-17948071Y33997068D02*
X-17909976Y33958973D01*
X-17909976Y33958973D02*
X-17833786Y33920877D01*
X-17833786Y33920877D02*
X-17681405Y33920877D01*
X-17681405Y33920877D02*
X-17605214Y33958973D01*
X-17605214Y33958973D02*
X-17567119Y33997068D01*
X-17567119Y33997068D02*
X-17529024Y34073258D01*
X-17529024Y34073258D02*
X-17529024Y34263734D01*
X-17529024Y34263734D02*
X-17567119Y34339925D01*
X-17567119Y34339925D02*
X-17605214Y34378020D01*
X-17605214Y34378020D02*
X-17681405Y34416115D01*
X-17681405Y34416115D02*
X-17833786Y34416115D01*
X-17833786Y34416115D02*
X-17909976Y34378020D01*
X-17909976Y34378020D02*
X-17948071Y34339925D01*
X-17948071Y34339925D02*
X-17986167Y34263734D01*
X-56234710Y38773181D02*
X-56196615Y38735085D01*
X-56196615Y38735085D02*
X-56158519Y38620800D01*
X-56158519Y38620800D02*
X-56158519Y38544609D01*
X-56158519Y38544609D02*
X-56196615Y38430323D01*
X-56196615Y38430323D02*
X-56272805Y38354133D01*
X-56272805Y38354133D02*
X-56348995Y38316038D01*
X-56348995Y38316038D02*
X-56501376Y38277942D01*
X-56501376Y38277942D02*
X-56615662Y38277942D01*
X-56615662Y38277942D02*
X-56768043Y38316038D01*
X-56768043Y38316038D02*
X-56844234Y38354133D01*
X-56844234Y38354133D02*
X-56920424Y38430323D01*
X-56920424Y38430323D02*
X-56958519Y38544609D01*
X-56958519Y38544609D02*
X-56958519Y38620800D01*
X-56958519Y38620800D02*
X-56920424Y38735085D01*
X-56920424Y38735085D02*
X-56882329Y38773181D01*
X-56958519Y39496990D02*
X-56958519Y39116038D01*
X-56958519Y39116038D02*
X-56577567Y39077942D01*
X-56577567Y39077942D02*
X-56615662Y39116038D01*
X-56615662Y39116038D02*
X-56653757Y39192228D01*
X-56653757Y39192228D02*
X-56653757Y39382704D01*
X-56653757Y39382704D02*
X-56615662Y39458895D01*
X-56615662Y39458895D02*
X-56577567Y39496990D01*
X-56577567Y39496990D02*
X-56501376Y39535085D01*
X-56501376Y39535085D02*
X-56310900Y39535085D01*
X-56310900Y39535085D02*
X-56234710Y39496990D01*
X-56234710Y39496990D02*
X-56196615Y39458895D01*
X-56196615Y39458895D02*
X-56158519Y39382704D01*
X-56158519Y39382704D02*
X-56158519Y39192228D01*
X-56158519Y39192228D02*
X-56196615Y39116038D01*
X-56196615Y39116038D02*
X-56234710Y39077942D01*
X-45238220Y40818777D02*
X-45200125Y40780681D01*
X-45200125Y40780681D02*
X-45162029Y40666396D01*
X-45162029Y40666396D02*
X-45162029Y40590205D01*
X-45162029Y40590205D02*
X-45200125Y40475919D01*
X-45200125Y40475919D02*
X-45276315Y40399729D01*
X-45276315Y40399729D02*
X-45352505Y40361634D01*
X-45352505Y40361634D02*
X-45504886Y40323538D01*
X-45504886Y40323538D02*
X-45619172Y40323538D01*
X-45619172Y40323538D02*
X-45771553Y40361634D01*
X-45771553Y40361634D02*
X-45847744Y40399729D01*
X-45847744Y40399729D02*
X-45923934Y40475919D01*
X-45923934Y40475919D02*
X-45962029Y40590205D01*
X-45962029Y40590205D02*
X-45962029Y40666396D01*
X-45962029Y40666396D02*
X-45923934Y40780681D01*
X-45923934Y40780681D02*
X-45885839Y40818777D01*
X-45962029Y41504491D02*
X-45962029Y41352110D01*
X-45962029Y41352110D02*
X-45923934Y41275919D01*
X-45923934Y41275919D02*
X-45885839Y41237824D01*
X-45885839Y41237824D02*
X-45771553Y41161634D01*
X-45771553Y41161634D02*
X-45619172Y41123538D01*
X-45619172Y41123538D02*
X-45314410Y41123538D01*
X-45314410Y41123538D02*
X-45238220Y41161634D01*
X-45238220Y41161634D02*
X-45200125Y41199729D01*
X-45200125Y41199729D02*
X-45162029Y41275919D01*
X-45162029Y41275919D02*
X-45162029Y41428300D01*
X-45162029Y41428300D02*
X-45200125Y41504491D01*
X-45200125Y41504491D02*
X-45238220Y41542586D01*
X-45238220Y41542586D02*
X-45314410Y41580681D01*
X-45314410Y41580681D02*
X-45504886Y41580681D01*
X-45504886Y41580681D02*
X-45581077Y41542586D01*
X-45581077Y41542586D02*
X-45619172Y41504491D01*
X-45619172Y41504491D02*
X-45657267Y41428300D01*
X-45657267Y41428300D02*
X-45657267Y41275919D01*
X-45657267Y41275919D02*
X-45619172Y41199729D01*
X-45619172Y41199729D02*
X-45581077Y41161634D01*
X-45581077Y41161634D02*
X-45504886Y41123538D01*
X-39235937Y41424059D02*
X-39197842Y41385963D01*
X-39197842Y41385963D02*
X-39159746Y41271678D01*
X-39159746Y41271678D02*
X-39159746Y41195487D01*
X-39159746Y41195487D02*
X-39197842Y41081201D01*
X-39197842Y41081201D02*
X-39274032Y41005011D01*
X-39274032Y41005011D02*
X-39350222Y40966916D01*
X-39350222Y40966916D02*
X-39502603Y40928820D01*
X-39502603Y40928820D02*
X-39616889Y40928820D01*
X-39616889Y40928820D02*
X-39769270Y40966916D01*
X-39769270Y40966916D02*
X-39845461Y41005011D01*
X-39845461Y41005011D02*
X-39921651Y41081201D01*
X-39921651Y41081201D02*
X-39959746Y41195487D01*
X-39959746Y41195487D02*
X-39959746Y41271678D01*
X-39959746Y41271678D02*
X-39921651Y41385963D01*
X-39921651Y41385963D02*
X-39883556Y41424059D01*
X-39959746Y41690725D02*
X-39959746Y42224059D01*
X-39959746Y42224059D02*
X-39159746Y41881201D01*
X-49561102Y38534560D02*
X-49561102Y37886941D01*
X-49561102Y37886941D02*
X-49523007Y37810751D01*
X-49523007Y37810751D02*
X-49484912Y37772656D01*
X-49484912Y37772656D02*
X-49408721Y37734560D01*
X-49408721Y37734560D02*
X-49256340Y37734560D01*
X-49256340Y37734560D02*
X-49180150Y37772656D01*
X-49180150Y37772656D02*
X-49142055Y37810751D01*
X-49142055Y37810751D02*
X-49103959Y37886941D01*
X-49103959Y37886941D02*
X-49103959Y38534560D01*
X-48799198Y38534560D02*
X-48303960Y38534560D01*
X-48303960Y38534560D02*
X-48570626Y38229798D01*
X-48570626Y38229798D02*
X-48456341Y38229798D01*
X-48456341Y38229798D02*
X-48380150Y38191703D01*
X-48380150Y38191703D02*
X-48342055Y38153608D01*
X-48342055Y38153608D02*
X-48303960Y38077417D01*
X-48303960Y38077417D02*
X-48303960Y37886941D01*
X-48303960Y37886941D02*
X-48342055Y37810751D01*
X-48342055Y37810751D02*
X-48380150Y37772656D01*
X-48380150Y37772656D02*
X-48456341Y37734560D01*
X-48456341Y37734560D02*
X-48684912Y37734560D01*
X-48684912Y37734560D02*
X-48761103Y37772656D01*
X-48761103Y37772656D02*
X-48799198Y37810751D01*
X-46417863Y56796751D02*
X-46455959Y56758656D01*
X-46455959Y56758656D02*
X-46570244Y56720560D01*
X-46570244Y56720560D02*
X-46646435Y56720560D01*
X-46646435Y56720560D02*
X-46760721Y56758656D01*
X-46760721Y56758656D02*
X-46836911Y56834846D01*
X-46836911Y56834846D02*
X-46875006Y56911036D01*
X-46875006Y56911036D02*
X-46913102Y57063417D01*
X-46913102Y57063417D02*
X-46913102Y57177703D01*
X-46913102Y57177703D02*
X-46875006Y57330084D01*
X-46875006Y57330084D02*
X-46836911Y57406275D01*
X-46836911Y57406275D02*
X-46760721Y57482465D01*
X-46760721Y57482465D02*
X-46646435Y57520560D01*
X-46646435Y57520560D02*
X-46570244Y57520560D01*
X-46570244Y57520560D02*
X-46455959Y57482465D01*
X-46455959Y57482465D02*
X-46417863Y57444370D01*
X-46113102Y57444370D02*
X-46075006Y57482465D01*
X-46075006Y57482465D02*
X-45998816Y57520560D01*
X-45998816Y57520560D02*
X-45808340Y57520560D01*
X-45808340Y57520560D02*
X-45732149Y57482465D01*
X-45732149Y57482465D02*
X-45694054Y57444370D01*
X-45694054Y57444370D02*
X-45655959Y57368179D01*
X-45655959Y57368179D02*
X-45655959Y57291989D01*
X-45655959Y57291989D02*
X-45694054Y57177703D01*
X-45694054Y57177703D02*
X-46151197Y56720560D01*
X-46151197Y56720560D02*
X-45655959Y56720560D01*
X-45160720Y57520560D02*
X-45084530Y57520560D01*
X-45084530Y57520560D02*
X-45008339Y57482465D01*
X-45008339Y57482465D02*
X-44970244Y57444370D01*
X-44970244Y57444370D02*
X-44932149Y57368179D01*
X-44932149Y57368179D02*
X-44894054Y57215798D01*
X-44894054Y57215798D02*
X-44894054Y57025322D01*
X-44894054Y57025322D02*
X-44932149Y56872941D01*
X-44932149Y56872941D02*
X-44970244Y56796751D01*
X-44970244Y56796751D02*
X-45008339Y56758656D01*
X-45008339Y56758656D02*
X-45084530Y56720560D01*
X-45084530Y56720560D02*
X-45160720Y56720560D01*
X-45160720Y56720560D02*
X-45236911Y56758656D01*
X-45236911Y56758656D02*
X-45275006Y56796751D01*
X-45275006Y56796751D02*
X-45313101Y56872941D01*
X-45313101Y56872941D02*
X-45351197Y57025322D01*
X-45351197Y57025322D02*
X-45351197Y57215798D01*
X-45351197Y57215798D02*
X-45313101Y57368179D01*
X-45313101Y57368179D02*
X-45275006Y57444370D01*
X-45275006Y57444370D02*
X-45236911Y57482465D01*
X-45236911Y57482465D02*
X-45160720Y57520560D01*
X-43496863Y54510751D02*
X-43534959Y54472656D01*
X-43534959Y54472656D02*
X-43649244Y54434560D01*
X-43649244Y54434560D02*
X-43725435Y54434560D01*
X-43725435Y54434560D02*
X-43839721Y54472656D01*
X-43839721Y54472656D02*
X-43915911Y54548846D01*
X-43915911Y54548846D02*
X-43954006Y54625036D01*
X-43954006Y54625036D02*
X-43992102Y54777417D01*
X-43992102Y54777417D02*
X-43992102Y54891703D01*
X-43992102Y54891703D02*
X-43954006Y55044084D01*
X-43954006Y55044084D02*
X-43915911Y55120275D01*
X-43915911Y55120275D02*
X-43839721Y55196465D01*
X-43839721Y55196465D02*
X-43725435Y55234560D01*
X-43725435Y55234560D02*
X-43649244Y55234560D01*
X-43649244Y55234560D02*
X-43534959Y55196465D01*
X-43534959Y55196465D02*
X-43496863Y55158370D01*
X-42734959Y54434560D02*
X-43192102Y54434560D01*
X-42963530Y54434560D02*
X-42963530Y55234560D01*
X-42963530Y55234560D02*
X-43039721Y55120275D01*
X-43039721Y55120275D02*
X-43115911Y55044084D01*
X-43115911Y55044084D02*
X-43192102Y55005989D01*
X-42049244Y55234560D02*
X-42201625Y55234560D01*
X-42201625Y55234560D02*
X-42277816Y55196465D01*
X-42277816Y55196465D02*
X-42315911Y55158370D01*
X-42315911Y55158370D02*
X-42392101Y55044084D01*
X-42392101Y55044084D02*
X-42430197Y54891703D01*
X-42430197Y54891703D02*
X-42430197Y54586941D01*
X-42430197Y54586941D02*
X-42392101Y54510751D01*
X-42392101Y54510751D02*
X-42354006Y54472656D01*
X-42354006Y54472656D02*
X-42277816Y54434560D01*
X-42277816Y54434560D02*
X-42125435Y54434560D01*
X-42125435Y54434560D02*
X-42049244Y54472656D01*
X-42049244Y54472656D02*
X-42011149Y54510751D01*
X-42011149Y54510751D02*
X-41973054Y54586941D01*
X-41973054Y54586941D02*
X-41973054Y54777417D01*
X-41973054Y54777417D02*
X-42011149Y54853608D01*
X-42011149Y54853608D02*
X-42049244Y54891703D01*
X-42049244Y54891703D02*
X-42125435Y54929798D01*
X-42125435Y54929798D02*
X-42277816Y54929798D01*
X-42277816Y54929798D02*
X-42354006Y54891703D01*
X-42354006Y54891703D02*
X-42392101Y54853608D01*
X-42392101Y54853608D02*
X-42430197Y54777417D01*
X-43623864Y52796751D02*
X-43661960Y52758656D01*
X-43661960Y52758656D02*
X-43776245Y52720560D01*
X-43776245Y52720560D02*
X-43852436Y52720560D01*
X-43852436Y52720560D02*
X-43966722Y52758656D01*
X-43966722Y52758656D02*
X-44042912Y52834846D01*
X-44042912Y52834846D02*
X-44081007Y52911036D01*
X-44081007Y52911036D02*
X-44119103Y53063417D01*
X-44119103Y53063417D02*
X-44119103Y53177703D01*
X-44119103Y53177703D02*
X-44081007Y53330084D01*
X-44081007Y53330084D02*
X-44042912Y53406275D01*
X-44042912Y53406275D02*
X-43966722Y53482465D01*
X-43966722Y53482465D02*
X-43852436Y53520560D01*
X-43852436Y53520560D02*
X-43776245Y53520560D01*
X-43776245Y53520560D02*
X-43661960Y53482465D01*
X-43661960Y53482465D02*
X-43623864Y53444370D01*
X-43319103Y53444370D02*
X-43281007Y53482465D01*
X-43281007Y53482465D02*
X-43204817Y53520560D01*
X-43204817Y53520560D02*
X-43014341Y53520560D01*
X-43014341Y53520560D02*
X-42938150Y53482465D01*
X-42938150Y53482465D02*
X-42900055Y53444370D01*
X-42900055Y53444370D02*
X-42861960Y53368179D01*
X-42861960Y53368179D02*
X-42861960Y53291989D01*
X-42861960Y53291989D02*
X-42900055Y53177703D01*
X-42900055Y53177703D02*
X-43357198Y52720560D01*
X-43357198Y52720560D02*
X-42861960Y52720560D01*
X-42595293Y53520560D02*
X-42100055Y53520560D01*
X-42100055Y53520560D02*
X-42366721Y53215798D01*
X-42366721Y53215798D02*
X-42252436Y53215798D01*
X-42252436Y53215798D02*
X-42176245Y53177703D01*
X-42176245Y53177703D02*
X-42138150Y53139608D01*
X-42138150Y53139608D02*
X-42100055Y53063417D01*
X-42100055Y53063417D02*
X-42100055Y52872941D01*
X-42100055Y52872941D02*
X-42138150Y52796751D01*
X-42138150Y52796751D02*
X-42176245Y52758656D01*
X-42176245Y52758656D02*
X-42252436Y52720560D01*
X-42252436Y52720560D02*
X-42481007Y52720560D01*
X-42481007Y52720560D02*
X-42557198Y52758656D01*
X-42557198Y52758656D02*
X-42595293Y52796751D01*
X-38670863Y60429468D02*
X-38937530Y60810421D01*
X-39128006Y60429468D02*
X-39128006Y61229468D01*
X-39128006Y61229468D02*
X-38823244Y61229468D01*
X-38823244Y61229468D02*
X-38747054Y61191373D01*
X-38747054Y61191373D02*
X-38708959Y61153278D01*
X-38708959Y61153278D02*
X-38670863Y61077087D01*
X-38670863Y61077087D02*
X-38670863Y60962802D01*
X-38670863Y60962802D02*
X-38708959Y60886611D01*
X-38708959Y60886611D02*
X-38747054Y60848516D01*
X-38747054Y60848516D02*
X-38823244Y60810421D01*
X-38823244Y60810421D02*
X-39128006Y60810421D01*
X-37908959Y60429468D02*
X-38366102Y60429468D01*
X-38137530Y60429468D02*
X-38137530Y61229468D01*
X-38137530Y61229468D02*
X-38213721Y61115183D01*
X-38213721Y61115183D02*
X-38289911Y61038992D01*
X-38289911Y61038992D02*
X-38366102Y61000897D01*
X-37604197Y61153278D02*
X-37566101Y61191373D01*
X-37566101Y61191373D02*
X-37489911Y61229468D01*
X-37489911Y61229468D02*
X-37299435Y61229468D01*
X-37299435Y61229468D02*
X-37223244Y61191373D01*
X-37223244Y61191373D02*
X-37185149Y61153278D01*
X-37185149Y61153278D02*
X-37147054Y61077087D01*
X-37147054Y61077087D02*
X-37147054Y61000897D01*
X-37147054Y61000897D02*
X-37185149Y60886611D01*
X-37185149Y60886611D02*
X-37642292Y60429468D01*
X-37642292Y60429468D02*
X-37147054Y60429468D01*
X-38670863Y62054560D02*
X-38937530Y62435513D01*
X-39128006Y62054560D02*
X-39128006Y62854560D01*
X-39128006Y62854560D02*
X-38823244Y62854560D01*
X-38823244Y62854560D02*
X-38747054Y62816465D01*
X-38747054Y62816465D02*
X-38708959Y62778370D01*
X-38708959Y62778370D02*
X-38670863Y62702179D01*
X-38670863Y62702179D02*
X-38670863Y62587894D01*
X-38670863Y62587894D02*
X-38708959Y62511703D01*
X-38708959Y62511703D02*
X-38747054Y62473608D01*
X-38747054Y62473608D02*
X-38823244Y62435513D01*
X-38823244Y62435513D02*
X-39128006Y62435513D01*
X-37908959Y62054560D02*
X-38366102Y62054560D01*
X-38137530Y62054560D02*
X-38137530Y62854560D01*
X-38137530Y62854560D02*
X-38213721Y62740275D01*
X-38213721Y62740275D02*
X-38289911Y62664084D01*
X-38289911Y62664084D02*
X-38366102Y62625989D01*
X-37642292Y62854560D02*
X-37147054Y62854560D01*
X-37147054Y62854560D02*
X-37413720Y62549798D01*
X-37413720Y62549798D02*
X-37299435Y62549798D01*
X-37299435Y62549798D02*
X-37223244Y62511703D01*
X-37223244Y62511703D02*
X-37185149Y62473608D01*
X-37185149Y62473608D02*
X-37147054Y62397417D01*
X-37147054Y62397417D02*
X-37147054Y62206941D01*
X-37147054Y62206941D02*
X-37185149Y62130751D01*
X-37185149Y62130751D02*
X-37223244Y62092656D01*
X-37223244Y62092656D02*
X-37299435Y62054560D01*
X-37299435Y62054560D02*
X-37528006Y62054560D01*
X-37528006Y62054560D02*
X-37604197Y62092656D01*
X-37604197Y62092656D02*
X-37642292Y62130751D01*
X-38289910Y59578560D02*
X-38556577Y59959513D01*
X-38747053Y59578560D02*
X-38747053Y60378560D01*
X-38747053Y60378560D02*
X-38442291Y60378560D01*
X-38442291Y60378560D02*
X-38366101Y60340465D01*
X-38366101Y60340465D02*
X-38328006Y60302370D01*
X-38328006Y60302370D02*
X-38289910Y60226179D01*
X-38289910Y60226179D02*
X-38289910Y60111894D01*
X-38289910Y60111894D02*
X-38328006Y60035703D01*
X-38328006Y60035703D02*
X-38366101Y59997608D01*
X-38366101Y59997608D02*
X-38442291Y59959513D01*
X-38442291Y59959513D02*
X-38747053Y59959513D01*
X-38023244Y60378560D02*
X-37489910Y60378560D01*
X-37489910Y60378560D02*
X-37832768Y59578560D01*
X-6330245Y43868656D02*
X-6215959Y43830560D01*
X-6215959Y43830560D02*
X-6025483Y43830560D01*
X-6025483Y43830560D02*
X-5949292Y43868656D01*
X-5949292Y43868656D02*
X-5911197Y43906751D01*
X-5911197Y43906751D02*
X-5873102Y43982941D01*
X-5873102Y43982941D02*
X-5873102Y44059132D01*
X-5873102Y44059132D02*
X-5911197Y44135322D01*
X-5911197Y44135322D02*
X-5949292Y44173417D01*
X-5949292Y44173417D02*
X-6025483Y44211513D01*
X-6025483Y44211513D02*
X-6177864Y44249608D01*
X-6177864Y44249608D02*
X-6254054Y44287703D01*
X-6254054Y44287703D02*
X-6292149Y44325798D01*
X-6292149Y44325798D02*
X-6330245Y44401989D01*
X-6330245Y44401989D02*
X-6330245Y44478179D01*
X-6330245Y44478179D02*
X-6292149Y44554370D01*
X-6292149Y44554370D02*
X-6254054Y44592465D01*
X-6254054Y44592465D02*
X-6177864Y44630560D01*
X-6177864Y44630560D02*
X-5987387Y44630560D01*
X-5987387Y44630560D02*
X-5873102Y44592465D01*
X-5606435Y44630560D02*
X-5415959Y43830560D01*
X-5415959Y43830560D02*
X-5263578Y44401989D01*
X-5263578Y44401989D02*
X-5111197Y43830560D01*
X-5111197Y43830560D02*
X-4920721Y44630560D01*
X-4196911Y43830560D02*
X-4654054Y43830560D01*
X-4425482Y43830560D02*
X-4425482Y44630560D01*
X-4425482Y44630560D02*
X-4501673Y44516275D01*
X-4501673Y44516275D02*
X-4577863Y44440084D01*
X-4577863Y44440084D02*
X-4654054Y44401989D01*
X-6076246Y49075656D02*
X-5961960Y49037560D01*
X-5961960Y49037560D02*
X-5771484Y49037560D01*
X-5771484Y49037560D02*
X-5695293Y49075656D01*
X-5695293Y49075656D02*
X-5657198Y49113751D01*
X-5657198Y49113751D02*
X-5619103Y49189941D01*
X-5619103Y49189941D02*
X-5619103Y49266132D01*
X-5619103Y49266132D02*
X-5657198Y49342322D01*
X-5657198Y49342322D02*
X-5695293Y49380417D01*
X-5695293Y49380417D02*
X-5771484Y49418513D01*
X-5771484Y49418513D02*
X-5923865Y49456608D01*
X-5923865Y49456608D02*
X-6000055Y49494703D01*
X-6000055Y49494703D02*
X-6038150Y49532798D01*
X-6038150Y49532798D02*
X-6076246Y49608989D01*
X-6076246Y49608989D02*
X-6076246Y49685179D01*
X-6076246Y49685179D02*
X-6038150Y49761370D01*
X-6038150Y49761370D02*
X-6000055Y49799465D01*
X-6000055Y49799465D02*
X-5923865Y49837560D01*
X-5923865Y49837560D02*
X-5733388Y49837560D01*
X-5733388Y49837560D02*
X-5619103Y49799465D01*
X-5352436Y49837560D02*
X-5161960Y49037560D01*
X-5161960Y49037560D02*
X-5009579Y49608989D01*
X-5009579Y49608989D02*
X-4857198Y49037560D01*
X-4857198Y49037560D02*
X-4666722Y49837560D01*
X-4400055Y49761370D02*
X-4361959Y49799465D01*
X-4361959Y49799465D02*
X-4285769Y49837560D01*
X-4285769Y49837560D02*
X-4095293Y49837560D01*
X-4095293Y49837560D02*
X-4019102Y49799465D01*
X-4019102Y49799465D02*
X-3981007Y49761370D01*
X-3981007Y49761370D02*
X-3942912Y49685179D01*
X-3942912Y49685179D02*
X-3942912Y49608989D01*
X-3942912Y49608989D02*
X-3981007Y49494703D01*
X-3981007Y49494703D02*
X-4438150Y49037560D01*
X-4438150Y49037560D02*
X-3942912Y49037560D01*
X-45603373Y59073851D02*
X-45603373Y58426232D01*
X-45603373Y58426232D02*
X-45565278Y58350042D01*
X-45565278Y58350042D02*
X-45527183Y58311947D01*
X-45527183Y58311947D02*
X-45450992Y58273851D01*
X-45450992Y58273851D02*
X-45298611Y58273851D01*
X-45298611Y58273851D02*
X-45222421Y58311947D01*
X-45222421Y58311947D02*
X-45184326Y58350042D01*
X-45184326Y58350042D02*
X-45146230Y58426232D01*
X-45146230Y58426232D02*
X-45146230Y59073851D01*
X-44650993Y58730994D02*
X-44727183Y58769089D01*
X-44727183Y58769089D02*
X-44765278Y58807185D01*
X-44765278Y58807185D02*
X-44803374Y58883375D01*
X-44803374Y58883375D02*
X-44803374Y58921470D01*
X-44803374Y58921470D02*
X-44765278Y58997661D01*
X-44765278Y58997661D02*
X-44727183Y59035756D01*
X-44727183Y59035756D02*
X-44650993Y59073851D01*
X-44650993Y59073851D02*
X-44498612Y59073851D01*
X-44498612Y59073851D02*
X-44422421Y59035756D01*
X-44422421Y59035756D02*
X-44384326Y58997661D01*
X-44384326Y58997661D02*
X-44346231Y58921470D01*
X-44346231Y58921470D02*
X-44346231Y58883375D01*
X-44346231Y58883375D02*
X-44384326Y58807185D01*
X-44384326Y58807185D02*
X-44422421Y58769089D01*
X-44422421Y58769089D02*
X-44498612Y58730994D01*
X-44498612Y58730994D02*
X-44650993Y58730994D01*
X-44650993Y58730994D02*
X-44727183Y58692899D01*
X-44727183Y58692899D02*
X-44765278Y58654804D01*
X-44765278Y58654804D02*
X-44803374Y58578613D01*
X-44803374Y58578613D02*
X-44803374Y58426232D01*
X-44803374Y58426232D02*
X-44765278Y58350042D01*
X-44765278Y58350042D02*
X-44727183Y58311947D01*
X-44727183Y58311947D02*
X-44650993Y58273851D01*
X-44650993Y58273851D02*
X-44498612Y58273851D01*
X-44498612Y58273851D02*
X-44422421Y58311947D01*
X-44422421Y58311947D02*
X-44384326Y58350042D01*
X-44384326Y58350042D02*
X-44346231Y58426232D01*
X-44346231Y58426232D02*
X-44346231Y58578613D01*
X-44346231Y58578613D02*
X-44384326Y58654804D01*
X-44384326Y58654804D02*
X-44422421Y58692899D01*
X-44422421Y58692899D02*
X-44498612Y58730994D01*
X-46879722Y69968940D02*
X-46232103Y69968940D01*
X-46232103Y69968940D02*
X-46155913Y70007035D01*
X-46155913Y70007035D02*
X-46117818Y70045130D01*
X-46117818Y70045130D02*
X-46079722Y70121321D01*
X-46079722Y70121321D02*
X-46079722Y70273702D01*
X-46079722Y70273702D02*
X-46117818Y70349892D01*
X-46117818Y70349892D02*
X-46155913Y70387987D01*
X-46155913Y70387987D02*
X-46232103Y70426083D01*
X-46232103Y70426083D02*
X-46879722Y70426083D01*
X-46079722Y71226082D02*
X-46079722Y70768939D01*
X-46079722Y70997511D02*
X-46879722Y70997511D01*
X-46879722Y70997511D02*
X-46765437Y70921320D01*
X-46765437Y70921320D02*
X-46689246Y70845130D01*
X-46689246Y70845130D02*
X-46651151Y70768939D01*
X-46879722Y71492749D02*
X-46879722Y71987987D01*
X-46879722Y71987987D02*
X-46574960Y71721321D01*
X-46574960Y71721321D02*
X-46574960Y71835606D01*
X-46574960Y71835606D02*
X-46536865Y71911797D01*
X-46536865Y71911797D02*
X-46498770Y71949892D01*
X-46498770Y71949892D02*
X-46422579Y71987987D01*
X-46422579Y71987987D02*
X-46232103Y71987987D01*
X-46232103Y71987987D02*
X-46155913Y71949892D01*
X-46155913Y71949892D02*
X-46117818Y71911797D01*
X-46117818Y71911797D02*
X-46079722Y71835606D01*
X-46079722Y71835606D02*
X-46079722Y71607035D01*
X-46079722Y71607035D02*
X-46117818Y71530844D01*
X-46117818Y71530844D02*
X-46155913Y71492749D01*
X-40656722Y70095940D02*
X-40009103Y70095940D01*
X-40009103Y70095940D02*
X-39932913Y70134035D01*
X-39932913Y70134035D02*
X-39894818Y70172130D01*
X-39894818Y70172130D02*
X-39856722Y70248321D01*
X-39856722Y70248321D02*
X-39856722Y70400702D01*
X-39856722Y70400702D02*
X-39894818Y70476892D01*
X-39894818Y70476892D02*
X-39932913Y70514987D01*
X-39932913Y70514987D02*
X-40009103Y70553083D01*
X-40009103Y70553083D02*
X-40656722Y70553083D01*
X-39856722Y71353082D02*
X-39856722Y70895939D01*
X-39856722Y71124511D02*
X-40656722Y71124511D01*
X-40656722Y71124511D02*
X-40542437Y71048320D01*
X-40542437Y71048320D02*
X-40466246Y70972130D01*
X-40466246Y70972130D02*
X-40428151Y70895939D01*
X-40390056Y72038797D02*
X-39856722Y72038797D01*
X-40694818Y71848321D02*
X-40123389Y71657844D01*
X-40123389Y71657844D02*
X-40123389Y72153083D01*
X-50308819Y1420843D02*
X-50270723Y1535129D01*
X-50270723Y1535129D02*
X-50270723Y1725605D01*
X-50270723Y1725605D02*
X-50308819Y1801796D01*
X-50308819Y1801796D02*
X-50346914Y1839891D01*
X-50346914Y1839891D02*
X-50423104Y1877986D01*
X-50423104Y1877986D02*
X-50499295Y1877986D01*
X-50499295Y1877986D02*
X-50575485Y1839891D01*
X-50575485Y1839891D02*
X-50613580Y1801796D01*
X-50613580Y1801796D02*
X-50651676Y1725605D01*
X-50651676Y1725605D02*
X-50689771Y1573224D01*
X-50689771Y1573224D02*
X-50727866Y1497034D01*
X-50727866Y1497034D02*
X-50765961Y1458939D01*
X-50765961Y1458939D02*
X-50842152Y1420843D01*
X-50842152Y1420843D02*
X-50918342Y1420843D01*
X-50918342Y1420843D02*
X-50994533Y1458939D01*
X-50994533Y1458939D02*
X-51032628Y1497034D01*
X-51032628Y1497034D02*
X-51070723Y1573224D01*
X-51070723Y1573224D02*
X-51070723Y1763701D01*
X-51070723Y1763701D02*
X-51032628Y1877986D01*
X-50346914Y2677987D02*
X-50308819Y2639891D01*
X-50308819Y2639891D02*
X-50270723Y2525606D01*
X-50270723Y2525606D02*
X-50270723Y2449415D01*
X-50270723Y2449415D02*
X-50308819Y2335129D01*
X-50308819Y2335129D02*
X-50385009Y2258939D01*
X-50385009Y2258939D02*
X-50461199Y2220844D01*
X-50461199Y2220844D02*
X-50613580Y2182748D01*
X-50613580Y2182748D02*
X-50727866Y2182748D01*
X-50727866Y2182748D02*
X-50880247Y2220844D01*
X-50880247Y2220844D02*
X-50956438Y2258939D01*
X-50956438Y2258939D02*
X-51032628Y2335129D01*
X-51032628Y2335129D02*
X-51070723Y2449415D01*
X-51070723Y2449415D02*
X-51070723Y2525606D01*
X-51070723Y2525606D02*
X-51032628Y2639891D01*
X-51032628Y2639891D02*
X-50994533Y2677987D01*
X-50270723Y3477987D02*
X-50651676Y3211320D01*
X-50270723Y3020844D02*
X-51070723Y3020844D01*
X-51070723Y3020844D02*
X-51070723Y3325606D01*
X-51070723Y3325606D02*
X-51032628Y3401796D01*
X-51032628Y3401796D02*
X-50994533Y3439891D01*
X-50994533Y3439891D02*
X-50918342Y3477987D01*
X-50918342Y3477987D02*
X-50804057Y3477987D01*
X-50804057Y3477987D02*
X-50727866Y3439891D01*
X-50727866Y3439891D02*
X-50689771Y3401796D01*
X-50689771Y3401796D02*
X-50651676Y3325606D01*
X-50651676Y3325606D02*
X-50651676Y3020844D01*
X-50689771Y3820844D02*
X-50689771Y4087510D01*
X-50270723Y4201796D02*
X-50270723Y3820844D01*
X-50270723Y3820844D02*
X-51070723Y3820844D01*
X-51070723Y3820844D02*
X-51070723Y4201796D01*
X-51070723Y4468463D02*
X-50270723Y4658939D01*
X-50270723Y4658939D02*
X-50842152Y4811320D01*
X-50842152Y4811320D02*
X-50270723Y4963701D01*
X-50270723Y4963701D02*
X-51070723Y5154178D01*
X-50270723Y5877987D02*
X-50270723Y5420844D01*
X-50270723Y5649416D02*
X-51070723Y5649416D01*
X-51070723Y5649416D02*
X-50956438Y5573225D01*
X-50956438Y5573225D02*
X-50880247Y5497035D01*
X-50880247Y5497035D02*
X-50842152Y5420844D01*
X-50392021Y59431484D02*
X-50353925Y59545770D01*
X-50353925Y59545770D02*
X-50353925Y59736246D01*
X-50353925Y59736246D02*
X-50392021Y59812437D01*
X-50392021Y59812437D02*
X-50430116Y59850532D01*
X-50430116Y59850532D02*
X-50506306Y59888627D01*
X-50506306Y59888627D02*
X-50582497Y59888627D01*
X-50582497Y59888627D02*
X-50658687Y59850532D01*
X-50658687Y59850532D02*
X-50696782Y59812437D01*
X-50696782Y59812437D02*
X-50734878Y59736246D01*
X-50734878Y59736246D02*
X-50772973Y59583865D01*
X-50772973Y59583865D02*
X-50811068Y59507675D01*
X-50811068Y59507675D02*
X-50849163Y59469580D01*
X-50849163Y59469580D02*
X-50925354Y59431484D01*
X-50925354Y59431484D02*
X-51001544Y59431484D01*
X-51001544Y59431484D02*
X-51077735Y59469580D01*
X-51077735Y59469580D02*
X-51115830Y59507675D01*
X-51115830Y59507675D02*
X-51153925Y59583865D01*
X-51153925Y59583865D02*
X-51153925Y59774342D01*
X-51153925Y59774342D02*
X-51115830Y59888627D01*
X-50430116Y60688628D02*
X-50392021Y60650532D01*
X-50392021Y60650532D02*
X-50353925Y60536247D01*
X-50353925Y60536247D02*
X-50353925Y60460056D01*
X-50353925Y60460056D02*
X-50392021Y60345770D01*
X-50392021Y60345770D02*
X-50468211Y60269580D01*
X-50468211Y60269580D02*
X-50544401Y60231485D01*
X-50544401Y60231485D02*
X-50696782Y60193389D01*
X-50696782Y60193389D02*
X-50811068Y60193389D01*
X-50811068Y60193389D02*
X-50963449Y60231485D01*
X-50963449Y60231485D02*
X-51039640Y60269580D01*
X-51039640Y60269580D02*
X-51115830Y60345770D01*
X-51115830Y60345770D02*
X-51153925Y60460056D01*
X-51153925Y60460056D02*
X-51153925Y60536247D01*
X-51153925Y60536247D02*
X-51115830Y60650532D01*
X-51115830Y60650532D02*
X-51077735Y60688628D01*
X-50353925Y61488628D02*
X-50734878Y61221961D01*
X-50353925Y61031485D02*
X-51153925Y61031485D01*
X-51153925Y61031485D02*
X-51153925Y61336247D01*
X-51153925Y61336247D02*
X-51115830Y61412437D01*
X-51115830Y61412437D02*
X-51077735Y61450532D01*
X-51077735Y61450532D02*
X-51001544Y61488628D01*
X-51001544Y61488628D02*
X-50887259Y61488628D01*
X-50887259Y61488628D02*
X-50811068Y61450532D01*
X-50811068Y61450532D02*
X-50772973Y61412437D01*
X-50772973Y61412437D02*
X-50734878Y61336247D01*
X-50734878Y61336247D02*
X-50734878Y61031485D01*
X-50772973Y61831485D02*
X-50772973Y62098151D01*
X-50353925Y62212437D02*
X-50353925Y61831485D01*
X-50353925Y61831485D02*
X-51153925Y61831485D01*
X-51153925Y61831485D02*
X-51153925Y62212437D01*
X-51153925Y62479104D02*
X-50353925Y62669580D01*
X-50353925Y62669580D02*
X-50925354Y62821961D01*
X-50925354Y62821961D02*
X-50353925Y62974342D01*
X-50353925Y62974342D02*
X-51153925Y63164819D01*
X-51077735Y63431485D02*
X-51115830Y63469581D01*
X-51115830Y63469581D02*
X-51153925Y63545771D01*
X-51153925Y63545771D02*
X-51153925Y63736247D01*
X-51153925Y63736247D02*
X-51115830Y63812438D01*
X-51115830Y63812438D02*
X-51077735Y63850533D01*
X-51077735Y63850533D02*
X-51001544Y63888628D01*
X-51001544Y63888628D02*
X-50925354Y63888628D01*
X-50925354Y63888628D02*
X-50811068Y63850533D01*
X-50811068Y63850533D02*
X-50353925Y63393390D01*
X-50353925Y63393390D02*
X-50353925Y63888628D01*
X-1286818Y1547843D02*
X-1248722Y1662129D01*
X-1248722Y1662129D02*
X-1248722Y1852605D01*
X-1248722Y1852605D02*
X-1286818Y1928796D01*
X-1286818Y1928796D02*
X-1324913Y1966891D01*
X-1324913Y1966891D02*
X-1401103Y2004986D01*
X-1401103Y2004986D02*
X-1477294Y2004986D01*
X-1477294Y2004986D02*
X-1553484Y1966891D01*
X-1553484Y1966891D02*
X-1591579Y1928796D01*
X-1591579Y1928796D02*
X-1629675Y1852605D01*
X-1629675Y1852605D02*
X-1667770Y1700224D01*
X-1667770Y1700224D02*
X-1705865Y1624034D01*
X-1705865Y1624034D02*
X-1743960Y1585939D01*
X-1743960Y1585939D02*
X-1820151Y1547843D01*
X-1820151Y1547843D02*
X-1896341Y1547843D01*
X-1896341Y1547843D02*
X-1972532Y1585939D01*
X-1972532Y1585939D02*
X-2010627Y1624034D01*
X-2010627Y1624034D02*
X-2048722Y1700224D01*
X-2048722Y1700224D02*
X-2048722Y1890701D01*
X-2048722Y1890701D02*
X-2010627Y2004986D01*
X-1324913Y2804987D02*
X-1286818Y2766891D01*
X-1286818Y2766891D02*
X-1248722Y2652606D01*
X-1248722Y2652606D02*
X-1248722Y2576415D01*
X-1248722Y2576415D02*
X-1286818Y2462129D01*
X-1286818Y2462129D02*
X-1363008Y2385939D01*
X-1363008Y2385939D02*
X-1439198Y2347844D01*
X-1439198Y2347844D02*
X-1591579Y2309748D01*
X-1591579Y2309748D02*
X-1705865Y2309748D01*
X-1705865Y2309748D02*
X-1858246Y2347844D01*
X-1858246Y2347844D02*
X-1934437Y2385939D01*
X-1934437Y2385939D02*
X-2010627Y2462129D01*
X-2010627Y2462129D02*
X-2048722Y2576415D01*
X-2048722Y2576415D02*
X-2048722Y2652606D01*
X-2048722Y2652606D02*
X-2010627Y2766891D01*
X-2010627Y2766891D02*
X-1972532Y2804987D01*
X-1248722Y3604987D02*
X-1629675Y3338320D01*
X-1248722Y3147844D02*
X-2048722Y3147844D01*
X-2048722Y3147844D02*
X-2048722Y3452606D01*
X-2048722Y3452606D02*
X-2010627Y3528796D01*
X-2010627Y3528796D02*
X-1972532Y3566891D01*
X-1972532Y3566891D02*
X-1896341Y3604987D01*
X-1896341Y3604987D02*
X-1782056Y3604987D01*
X-1782056Y3604987D02*
X-1705865Y3566891D01*
X-1705865Y3566891D02*
X-1667770Y3528796D01*
X-1667770Y3528796D02*
X-1629675Y3452606D01*
X-1629675Y3452606D02*
X-1629675Y3147844D01*
X-1667770Y3947844D02*
X-1667770Y4214510D01*
X-1248722Y4328796D02*
X-1248722Y3947844D01*
X-1248722Y3947844D02*
X-2048722Y3947844D01*
X-2048722Y3947844D02*
X-2048722Y4328796D01*
X-2048722Y4595463D02*
X-1248722Y4785939D01*
X-1248722Y4785939D02*
X-1820151Y4938320D01*
X-1820151Y4938320D02*
X-1248722Y5090701D01*
X-1248722Y5090701D02*
X-2048722Y5281178D01*
X-2048722Y5509749D02*
X-2048722Y6004987D01*
X-2048722Y6004987D02*
X-1743960Y5738321D01*
X-1743960Y5738321D02*
X-1743960Y5852606D01*
X-1743960Y5852606D02*
X-1705865Y5928797D01*
X-1705865Y5928797D02*
X-1667770Y5966892D01*
X-1667770Y5966892D02*
X-1591579Y6004987D01*
X-1591579Y6004987D02*
X-1401103Y6004987D01*
X-1401103Y6004987D02*
X-1324913Y5966892D01*
X-1324913Y5966892D02*
X-1286818Y5928797D01*
X-1286818Y5928797D02*
X-1248722Y5852606D01*
X-1248722Y5852606D02*
X-1248722Y5624035D01*
X-1248722Y5624035D02*
X-1286818Y5547844D01*
X-1286818Y5547844D02*
X-1324913Y5509749D01*
X-1413818Y59459843D02*
X-1375722Y59574129D01*
X-1375722Y59574129D02*
X-1375722Y59764605D01*
X-1375722Y59764605D02*
X-1413818Y59840796D01*
X-1413818Y59840796D02*
X-1451913Y59878891D01*
X-1451913Y59878891D02*
X-1528103Y59916986D01*
X-1528103Y59916986D02*
X-1604294Y59916986D01*
X-1604294Y59916986D02*
X-1680484Y59878891D01*
X-1680484Y59878891D02*
X-1718579Y59840796D01*
X-1718579Y59840796D02*
X-1756675Y59764605D01*
X-1756675Y59764605D02*
X-1794770Y59612224D01*
X-1794770Y59612224D02*
X-1832865Y59536034D01*
X-1832865Y59536034D02*
X-1870960Y59497939D01*
X-1870960Y59497939D02*
X-1947151Y59459843D01*
X-1947151Y59459843D02*
X-2023341Y59459843D01*
X-2023341Y59459843D02*
X-2099532Y59497939D01*
X-2099532Y59497939D02*
X-2137627Y59536034D01*
X-2137627Y59536034D02*
X-2175722Y59612224D01*
X-2175722Y59612224D02*
X-2175722Y59802701D01*
X-2175722Y59802701D02*
X-2137627Y59916986D01*
X-1451913Y60716987D02*
X-1413818Y60678891D01*
X-1413818Y60678891D02*
X-1375722Y60564606D01*
X-1375722Y60564606D02*
X-1375722Y60488415D01*
X-1375722Y60488415D02*
X-1413818Y60374129D01*
X-1413818Y60374129D02*
X-1490008Y60297939D01*
X-1490008Y60297939D02*
X-1566198Y60259844D01*
X-1566198Y60259844D02*
X-1718579Y60221748D01*
X-1718579Y60221748D02*
X-1832865Y60221748D01*
X-1832865Y60221748D02*
X-1985246Y60259844D01*
X-1985246Y60259844D02*
X-2061437Y60297939D01*
X-2061437Y60297939D02*
X-2137627Y60374129D01*
X-2137627Y60374129D02*
X-2175722Y60488415D01*
X-2175722Y60488415D02*
X-2175722Y60564606D01*
X-2175722Y60564606D02*
X-2137627Y60678891D01*
X-2137627Y60678891D02*
X-2099532Y60716987D01*
X-1375722Y61516987D02*
X-1756675Y61250320D01*
X-1375722Y61059844D02*
X-2175722Y61059844D01*
X-2175722Y61059844D02*
X-2175722Y61364606D01*
X-2175722Y61364606D02*
X-2137627Y61440796D01*
X-2137627Y61440796D02*
X-2099532Y61478891D01*
X-2099532Y61478891D02*
X-2023341Y61516987D01*
X-2023341Y61516987D02*
X-1909056Y61516987D01*
X-1909056Y61516987D02*
X-1832865Y61478891D01*
X-1832865Y61478891D02*
X-1794770Y61440796D01*
X-1794770Y61440796D02*
X-1756675Y61364606D01*
X-1756675Y61364606D02*
X-1756675Y61059844D01*
X-1794770Y61859844D02*
X-1794770Y62126510D01*
X-1375722Y62240796D02*
X-1375722Y61859844D01*
X-1375722Y61859844D02*
X-2175722Y61859844D01*
X-2175722Y61859844D02*
X-2175722Y62240796D01*
X-2175722Y62507463D02*
X-1375722Y62697939D01*
X-1375722Y62697939D02*
X-1947151Y62850320D01*
X-1947151Y62850320D02*
X-1375722Y63002701D01*
X-1375722Y63002701D02*
X-2175722Y63193178D01*
X-1909056Y63840797D02*
X-1375722Y63840797D01*
X-2213818Y63650321D02*
X-1642389Y63459844D01*
X-1642389Y63459844D02*
X-1642389Y63955083D01*
X-27225438Y51346610D02*
X-27263534Y51308515D01*
X-27263534Y51308515D02*
X-27377819Y51270419D01*
X-27377819Y51270419D02*
X-27454010Y51270419D01*
X-27454010Y51270419D02*
X-27568296Y51308515D01*
X-27568296Y51308515D02*
X-27644486Y51384705D01*
X-27644486Y51384705D02*
X-27682581Y51460895D01*
X-27682581Y51460895D02*
X-27720677Y51613276D01*
X-27720677Y51613276D02*
X-27720677Y51727562D01*
X-27720677Y51727562D02*
X-27682581Y51879943D01*
X-27682581Y51879943D02*
X-27644486Y51956134D01*
X-27644486Y51956134D02*
X-27568296Y52032324D01*
X-27568296Y52032324D02*
X-27454010Y52070419D01*
X-27454010Y52070419D02*
X-27377819Y52070419D01*
X-27377819Y52070419D02*
X-27263534Y52032324D01*
X-27263534Y52032324D02*
X-27225438Y51994229D01*
X-26463534Y51270419D02*
X-26920677Y51270419D01*
X-26692105Y51270419D02*
X-26692105Y52070419D01*
X-26692105Y52070419D02*
X-26768296Y51956134D01*
X-26768296Y51956134D02*
X-26844486Y51879943D01*
X-26844486Y51879943D02*
X-26920677Y51841848D01*
X-26196867Y52070419D02*
X-25701629Y52070419D01*
X-25701629Y52070419D02*
X-25968295Y51765657D01*
X-25968295Y51765657D02*
X-25854010Y51765657D01*
X-25854010Y51765657D02*
X-25777819Y51727562D01*
X-25777819Y51727562D02*
X-25739724Y51689467D01*
X-25739724Y51689467D02*
X-25701629Y51613276D01*
X-25701629Y51613276D02*
X-25701629Y51422800D01*
X-25701629Y51422800D02*
X-25739724Y51346610D01*
X-25739724Y51346610D02*
X-25777819Y51308515D01*
X-25777819Y51308515D02*
X-25854010Y51270419D01*
X-25854010Y51270419D02*
X-26082581Y51270419D01*
X-26082581Y51270419D02*
X-26158772Y51308515D01*
X-26158772Y51308515D02*
X-26196867Y51346610D01*
X-12381864Y51589751D02*
X-12419960Y51551656D01*
X-12419960Y51551656D02*
X-12534245Y51513560D01*
X-12534245Y51513560D02*
X-12610436Y51513560D01*
X-12610436Y51513560D02*
X-12724722Y51551656D01*
X-12724722Y51551656D02*
X-12800912Y51627846D01*
X-12800912Y51627846D02*
X-12839007Y51704036D01*
X-12839007Y51704036D02*
X-12877103Y51856417D01*
X-12877103Y51856417D02*
X-12877103Y51970703D01*
X-12877103Y51970703D02*
X-12839007Y52123084D01*
X-12839007Y52123084D02*
X-12800912Y52199275D01*
X-12800912Y52199275D02*
X-12724722Y52275465D01*
X-12724722Y52275465D02*
X-12610436Y52313560D01*
X-12610436Y52313560D02*
X-12534245Y52313560D01*
X-12534245Y52313560D02*
X-12419960Y52275465D01*
X-12419960Y52275465D02*
X-12381864Y52237370D01*
X-11619960Y51513560D02*
X-12077103Y51513560D01*
X-11848531Y51513560D02*
X-11848531Y52313560D01*
X-11848531Y52313560D02*
X-11924722Y52199275D01*
X-11924722Y52199275D02*
X-12000912Y52123084D01*
X-12000912Y52123084D02*
X-12077103Y52084989D01*
X-10896150Y52313560D02*
X-11277102Y52313560D01*
X-11277102Y52313560D02*
X-11315198Y51932608D01*
X-11315198Y51932608D02*
X-11277102Y51970703D01*
X-11277102Y51970703D02*
X-11200912Y52008798D01*
X-11200912Y52008798D02*
X-11010436Y52008798D01*
X-11010436Y52008798D02*
X-10934245Y51970703D01*
X-10934245Y51970703D02*
X-10896150Y51932608D01*
X-10896150Y51932608D02*
X-10858055Y51856417D01*
X-10858055Y51856417D02*
X-10858055Y51665941D01*
X-10858055Y51665941D02*
X-10896150Y51589751D01*
X-10896150Y51589751D02*
X-10934245Y51551656D01*
X-10934245Y51551656D02*
X-11010436Y51513560D01*
X-11010436Y51513560D02*
X-11200912Y51513560D01*
X-11200912Y51513560D02*
X-11277102Y51551656D01*
X-11277102Y51551656D02*
X-11315198Y51589751D01*
X-42480864Y50700751D02*
X-42518960Y50662656D01*
X-42518960Y50662656D02*
X-42633245Y50624560D01*
X-42633245Y50624560D02*
X-42709436Y50624560D01*
X-42709436Y50624560D02*
X-42823722Y50662656D01*
X-42823722Y50662656D02*
X-42899912Y50738846D01*
X-42899912Y50738846D02*
X-42938007Y50815036D01*
X-42938007Y50815036D02*
X-42976103Y50967417D01*
X-42976103Y50967417D02*
X-42976103Y51081703D01*
X-42976103Y51081703D02*
X-42938007Y51234084D01*
X-42938007Y51234084D02*
X-42899912Y51310275D01*
X-42899912Y51310275D02*
X-42823722Y51386465D01*
X-42823722Y51386465D02*
X-42709436Y51424560D01*
X-42709436Y51424560D02*
X-42633245Y51424560D01*
X-42633245Y51424560D02*
X-42518960Y51386465D01*
X-42518960Y51386465D02*
X-42480864Y51348370D01*
X-41718960Y50624560D02*
X-42176103Y50624560D01*
X-41947531Y50624560D02*
X-41947531Y51424560D01*
X-41947531Y51424560D02*
X-42023722Y51310275D01*
X-42023722Y51310275D02*
X-42099912Y51234084D01*
X-42099912Y51234084D02*
X-42176103Y51195989D01*
X-41452293Y51424560D02*
X-40918959Y51424560D01*
X-40918959Y51424560D02*
X-41261817Y50624560D01*
X-54524722Y51807892D02*
X-55324722Y51807892D01*
X-54943770Y51807892D02*
X-54943770Y52265035D01*
X-54524722Y52265035D02*
X-55324722Y52265035D01*
X-54524722Y53065034D02*
X-54524722Y52607891D01*
X-54524722Y52836463D02*
X-55324722Y52836463D01*
X-55324722Y52836463D02*
X-55210437Y52760272D01*
X-55210437Y52760272D02*
X-55134246Y52684082D01*
X-55134246Y52684082D02*
X-55096151Y52607891D01*
X-14578958Y75148751D02*
X-14617054Y75110656D01*
X-14617054Y75110656D02*
X-14731339Y75072560D01*
X-14731339Y75072560D02*
X-14807530Y75072560D01*
X-14807530Y75072560D02*
X-14921816Y75110656D01*
X-14921816Y75110656D02*
X-14998006Y75186846D01*
X-14998006Y75186846D02*
X-15036101Y75263036D01*
X-15036101Y75263036D02*
X-15074197Y75415417D01*
X-15074197Y75415417D02*
X-15074197Y75529703D01*
X-15074197Y75529703D02*
X-15036101Y75682084D01*
X-15036101Y75682084D02*
X-14998006Y75758275D01*
X-14998006Y75758275D02*
X-14921816Y75834465D01*
X-14921816Y75834465D02*
X-14807530Y75872560D01*
X-14807530Y75872560D02*
X-14731339Y75872560D01*
X-14731339Y75872560D02*
X-14617054Y75834465D01*
X-14617054Y75834465D02*
X-14578958Y75796370D01*
X-14236101Y75072560D02*
X-14236101Y75872560D01*
X-14236101Y75872560D02*
X-13778958Y75072560D01*
X-13778958Y75072560D02*
X-13778958Y75872560D01*
X-12978959Y75072560D02*
X-13436102Y75072560D01*
X-13207530Y75072560D02*
X-13207530Y75872560D01*
X-13207530Y75872560D02*
X-13283721Y75758275D01*
X-13283721Y75758275D02*
X-13359911Y75682084D01*
X-13359911Y75682084D02*
X-13436102Y75643989D01*
X-30199958Y75148751D02*
X-30238054Y75110656D01*
X-30238054Y75110656D02*
X-30352339Y75072560D01*
X-30352339Y75072560D02*
X-30428530Y75072560D01*
X-30428530Y75072560D02*
X-30542816Y75110656D01*
X-30542816Y75110656D02*
X-30619006Y75186846D01*
X-30619006Y75186846D02*
X-30657101Y75263036D01*
X-30657101Y75263036D02*
X-30695197Y75415417D01*
X-30695197Y75415417D02*
X-30695197Y75529703D01*
X-30695197Y75529703D02*
X-30657101Y75682084D01*
X-30657101Y75682084D02*
X-30619006Y75758275D01*
X-30619006Y75758275D02*
X-30542816Y75834465D01*
X-30542816Y75834465D02*
X-30428530Y75872560D01*
X-30428530Y75872560D02*
X-30352339Y75872560D01*
X-30352339Y75872560D02*
X-30238054Y75834465D01*
X-30238054Y75834465D02*
X-30199958Y75796370D01*
X-29857101Y75072560D02*
X-29857101Y75872560D01*
X-29857101Y75872560D02*
X-29399958Y75072560D01*
X-29399958Y75072560D02*
X-29399958Y75872560D01*
X-29057102Y75796370D02*
X-29019006Y75834465D01*
X-29019006Y75834465D02*
X-28942816Y75872560D01*
X-28942816Y75872560D02*
X-28752340Y75872560D01*
X-28752340Y75872560D02*
X-28676149Y75834465D01*
X-28676149Y75834465D02*
X-28638054Y75796370D01*
X-28638054Y75796370D02*
X-28599959Y75720179D01*
X-28599959Y75720179D02*
X-28599959Y75643989D01*
X-28599959Y75643989D02*
X-28638054Y75529703D01*
X-28638054Y75529703D02*
X-29095197Y75072560D01*
X-29095197Y75072560D02*
X-28599959Y75072560D01*
X-46074958Y75148751D02*
X-46113054Y75110656D01*
X-46113054Y75110656D02*
X-46227339Y75072560D01*
X-46227339Y75072560D02*
X-46303530Y75072560D01*
X-46303530Y75072560D02*
X-46417816Y75110656D01*
X-46417816Y75110656D02*
X-46494006Y75186846D01*
X-46494006Y75186846D02*
X-46532101Y75263036D01*
X-46532101Y75263036D02*
X-46570197Y75415417D01*
X-46570197Y75415417D02*
X-46570197Y75529703D01*
X-46570197Y75529703D02*
X-46532101Y75682084D01*
X-46532101Y75682084D02*
X-46494006Y75758275D01*
X-46494006Y75758275D02*
X-46417816Y75834465D01*
X-46417816Y75834465D02*
X-46303530Y75872560D01*
X-46303530Y75872560D02*
X-46227339Y75872560D01*
X-46227339Y75872560D02*
X-46113054Y75834465D01*
X-46113054Y75834465D02*
X-46074958Y75796370D01*
X-45732101Y75072560D02*
X-45732101Y75872560D01*
X-45732101Y75872560D02*
X-45274958Y75072560D01*
X-45274958Y75072560D02*
X-45274958Y75872560D01*
X-44970197Y75872560D02*
X-44474959Y75872560D01*
X-44474959Y75872560D02*
X-44741625Y75567798D01*
X-44741625Y75567798D02*
X-44627340Y75567798D01*
X-44627340Y75567798D02*
X-44551149Y75529703D01*
X-44551149Y75529703D02*
X-44513054Y75491608D01*
X-44513054Y75491608D02*
X-44474959Y75415417D01*
X-44474959Y75415417D02*
X-44474959Y75224941D01*
X-44474959Y75224941D02*
X-44513054Y75148751D01*
X-44513054Y75148751D02*
X-44551149Y75110656D01*
X-44551149Y75110656D02*
X-44627340Y75072560D01*
X-44627340Y75072560D02*
X-44855911Y75072560D01*
X-44855911Y75072560D02*
X-44932102Y75110656D01*
X-44932102Y75110656D02*
X-44970197Y75148751D01*
M02*
