%TF.GenerationSoftware,KiCad,Pcbnew,10.99.0-unknown*%
%TF.CreationDate,2026-08-12T15:28:21+08:00*%
%TF.ProjectId,________,db6eeccb-6c11-40f6-962e-6b696361645f,rev?*%
%TF.SameCoordinates,Original*%
%TF.FileFunction,Legend,Bot*%
%TF.FilePolarity,Positive*%
%FSLAX46Y46*%
G04 Gerber Fmt 4.6, Leading zero omitted, Abs format (unit mm)*
G04 Created by KiCad (PCBNEW 10.99.0-unknown) date 2026-08-12 15:28:21*
%MOMM*%
%LPD*%
G01*
G04 APERTURE LIST*
%ADD10C,0.120000*%
G04 APERTURE END LIST*
D10*
X-14532914Y11644083D02*
X-14494819Y11605987D01*
X-14494819Y11605987D02*
X-14456723Y11491702D01*
X-14456723Y11491702D02*
X-14456723Y11415511D01*
X-14456723Y11415511D02*
X-14494819Y11301225D01*
X-14494819Y11301225D02*
X-14571009Y11225035D01*
X-14571009Y11225035D02*
X-14647199Y11186940D01*
X-14647199Y11186940D02*
X-14799580Y11148844D01*
X-14799580Y11148844D02*
X-14913866Y11148844D01*
X-14913866Y11148844D02*
X-15066247Y11186940D01*
X-15066247Y11186940D02*
X-15142438Y11225035D01*
X-15142438Y11225035D02*
X-15218628Y11301225D01*
X-15218628Y11301225D02*
X-15256723Y11415511D01*
X-15256723Y11415511D02*
X-15256723Y11491702D01*
X-15256723Y11491702D02*
X-15218628Y11605987D01*
X-15218628Y11605987D02*
X-15180533Y11644083D01*
X-14456723Y12405987D02*
X-14456723Y11948844D01*
X-14456723Y12177416D02*
X-15256723Y12177416D01*
X-15256723Y12177416D02*
X-15142438Y12101225D01*
X-15142438Y12101225D02*
X-15066247Y12025035D01*
X-15066247Y12025035D02*
X-15028152Y11948844D01*
X-22393722Y11644083D02*
X-22774675Y11377416D01*
X-22393722Y11186940D02*
X-23193722Y11186940D01*
X-23193722Y11186940D02*
X-23193722Y11491702D01*
X-23193722Y11491702D02*
X-23155627Y11567892D01*
X-23155627Y11567892D02*
X-23117532Y11605987D01*
X-23117532Y11605987D02*
X-23041341Y11644083D01*
X-23041341Y11644083D02*
X-22927056Y11644083D01*
X-22927056Y11644083D02*
X-22850865Y11605987D01*
X-22850865Y11605987D02*
X-22812770Y11567892D01*
X-22812770Y11567892D02*
X-22774675Y11491702D01*
X-22774675Y11491702D02*
X-22774675Y11186940D01*
X-22393722Y12405987D02*
X-22393722Y11948844D01*
X-22393722Y12177416D02*
X-23193722Y12177416D01*
X-23193722Y12177416D02*
X-23079437Y12101225D01*
X-23079437Y12101225D02*
X-23003246Y12025035D01*
X-23003246Y12025035D02*
X-22965151Y11948844D01*
X-16488723Y11644083D02*
X-16869676Y11377416D01*
X-16488723Y11186940D02*
X-17288723Y11186940D01*
X-17288723Y11186940D02*
X-17288723Y11491702D01*
X-17288723Y11491702D02*
X-17250628Y11567892D01*
X-17250628Y11567892D02*
X-17212533Y11605987D01*
X-17212533Y11605987D02*
X-17136342Y11644083D01*
X-17136342Y11644083D02*
X-17022057Y11644083D01*
X-17022057Y11644083D02*
X-16945866Y11605987D01*
X-16945866Y11605987D02*
X-16907771Y11567892D01*
X-16907771Y11567892D02*
X-16869676Y11491702D01*
X-16869676Y11491702D02*
X-16869676Y11186940D01*
X-17212533Y11948844D02*
X-17250628Y11986940D01*
X-17250628Y11986940D02*
X-17288723Y12063130D01*
X-17288723Y12063130D02*
X-17288723Y12253606D01*
X-17288723Y12253606D02*
X-17250628Y12329797D01*
X-17250628Y12329797D02*
X-17212533Y12367892D01*
X-17212533Y12367892D02*
X-17136342Y12405987D01*
X-17136342Y12405987D02*
X-17060152Y12405987D01*
X-17060152Y12405987D02*
X-16945866Y12367892D01*
X-16945866Y12367892D02*
X-16488723Y11910749D01*
X-16488723Y11910749D02*
X-16488723Y12405987D01*
X-40194863Y57177751D02*
X-40232959Y57139656D01*
X-40232959Y57139656D02*
X-40347244Y57101560D01*
X-40347244Y57101560D02*
X-40423435Y57101560D01*
X-40423435Y57101560D02*
X-40537721Y57139656D01*
X-40537721Y57139656D02*
X-40613911Y57215846D01*
X-40613911Y57215846D02*
X-40652006Y57292036D01*
X-40652006Y57292036D02*
X-40690102Y57444417D01*
X-40690102Y57444417D02*
X-40690102Y57558703D01*
X-40690102Y57558703D02*
X-40652006Y57711084D01*
X-40652006Y57711084D02*
X-40613911Y57787275D01*
X-40613911Y57787275D02*
X-40537721Y57863465D01*
X-40537721Y57863465D02*
X-40423435Y57901560D01*
X-40423435Y57901560D02*
X-40347244Y57901560D01*
X-40347244Y57901560D02*
X-40232959Y57863465D01*
X-40232959Y57863465D02*
X-40194863Y57825370D01*
X-39928197Y57901560D02*
X-39432959Y57901560D01*
X-39432959Y57901560D02*
X-39699625Y57596798D01*
X-39699625Y57596798D02*
X-39585340Y57596798D01*
X-39585340Y57596798D02*
X-39509149Y57558703D01*
X-39509149Y57558703D02*
X-39471054Y57520608D01*
X-39471054Y57520608D02*
X-39432959Y57444417D01*
X-39432959Y57444417D02*
X-39432959Y57253941D01*
X-39432959Y57253941D02*
X-39471054Y57177751D01*
X-39471054Y57177751D02*
X-39509149Y57139656D01*
X-39509149Y57139656D02*
X-39585340Y57101560D01*
X-39585340Y57101560D02*
X-39813911Y57101560D01*
X-39813911Y57101560D02*
X-39890102Y57139656D01*
X-39890102Y57139656D02*
X-39928197Y57177751D01*
X-39166292Y57901560D02*
X-38632958Y57901560D01*
X-38632958Y57901560D02*
X-38975816Y57101560D01*
X-36383335Y39998714D02*
X-36345240Y39960618D01*
X-36345240Y39960618D02*
X-36307144Y39846333D01*
X-36307144Y39846333D02*
X-36307144Y39770142D01*
X-36307144Y39770142D02*
X-36345240Y39655856D01*
X-36345240Y39655856D02*
X-36421430Y39579666D01*
X-36421430Y39579666D02*
X-36497620Y39541571D01*
X-36497620Y39541571D02*
X-36650001Y39503475D01*
X-36650001Y39503475D02*
X-36764287Y39503475D01*
X-36764287Y39503475D02*
X-36916668Y39541571D01*
X-36916668Y39541571D02*
X-36992859Y39579666D01*
X-36992859Y39579666D02*
X-37069049Y39655856D01*
X-37069049Y39655856D02*
X-37107144Y39770142D01*
X-37107144Y39770142D02*
X-37107144Y39846333D01*
X-37107144Y39846333D02*
X-37069049Y39960618D01*
X-37069049Y39960618D02*
X-37030954Y39998714D01*
X-37107144Y40265380D02*
X-37107144Y40760618D01*
X-37107144Y40760618D02*
X-36802382Y40493952D01*
X-36802382Y40493952D02*
X-36802382Y40608237D01*
X-36802382Y40608237D02*
X-36764287Y40684428D01*
X-36764287Y40684428D02*
X-36726192Y40722523D01*
X-36726192Y40722523D02*
X-36650001Y40760618D01*
X-36650001Y40760618D02*
X-36459525Y40760618D01*
X-36459525Y40760618D02*
X-36383335Y40722523D01*
X-36383335Y40722523D02*
X-36345240Y40684428D01*
X-36345240Y40684428D02*
X-36307144Y40608237D01*
X-36307144Y40608237D02*
X-36307144Y40379666D01*
X-36307144Y40379666D02*
X-36345240Y40303475D01*
X-36345240Y40303475D02*
X-36383335Y40265380D01*
X-36764287Y41217761D02*
X-36802382Y41141571D01*
X-36802382Y41141571D02*
X-36840478Y41103476D01*
X-36840478Y41103476D02*
X-36916668Y41065380D01*
X-36916668Y41065380D02*
X-36954763Y41065380D01*
X-36954763Y41065380D02*
X-37030954Y41103476D01*
X-37030954Y41103476D02*
X-37069049Y41141571D01*
X-37069049Y41141571D02*
X-37107144Y41217761D01*
X-37107144Y41217761D02*
X-37107144Y41370142D01*
X-37107144Y41370142D02*
X-37069049Y41446333D01*
X-37069049Y41446333D02*
X-37030954Y41484428D01*
X-37030954Y41484428D02*
X-36954763Y41522523D01*
X-36954763Y41522523D02*
X-36916668Y41522523D01*
X-36916668Y41522523D02*
X-36840478Y41484428D01*
X-36840478Y41484428D02*
X-36802382Y41446333D01*
X-36802382Y41446333D02*
X-36764287Y41370142D01*
X-36764287Y41370142D02*
X-36764287Y41217761D01*
X-36764287Y41217761D02*
X-36726192Y41141571D01*
X-36726192Y41141571D02*
X-36688097Y41103476D01*
X-36688097Y41103476D02*
X-36611906Y41065380D01*
X-36611906Y41065380D02*
X-36459525Y41065380D01*
X-36459525Y41065380D02*
X-36383335Y41103476D01*
X-36383335Y41103476D02*
X-36345240Y41141571D01*
X-36345240Y41141571D02*
X-36307144Y41217761D01*
X-36307144Y41217761D02*
X-36307144Y41370142D01*
X-36307144Y41370142D02*
X-36345240Y41446333D01*
X-36345240Y41446333D02*
X-36383335Y41484428D01*
X-36383335Y41484428D02*
X-36459525Y41522523D01*
X-36459525Y41522523D02*
X-36611906Y41522523D01*
X-36611906Y41522523D02*
X-36688097Y41484428D01*
X-36688097Y41484428D02*
X-36726192Y41446333D01*
X-36726192Y41446333D02*
X-36764287Y41370142D01*
X-18604864Y52161751D02*
X-18642960Y52123656D01*
X-18642960Y52123656D02*
X-18757245Y52085560D01*
X-18757245Y52085560D02*
X-18833436Y52085560D01*
X-18833436Y52085560D02*
X-18947722Y52123656D01*
X-18947722Y52123656D02*
X-19023912Y52199846D01*
X-19023912Y52199846D02*
X-19062007Y52276036D01*
X-19062007Y52276036D02*
X-19100103Y52428417D01*
X-19100103Y52428417D02*
X-19100103Y52542703D01*
X-19100103Y52542703D02*
X-19062007Y52695084D01*
X-19062007Y52695084D02*
X-19023912Y52771275D01*
X-19023912Y52771275D02*
X-18947722Y52847465D01*
X-18947722Y52847465D02*
X-18833436Y52885560D01*
X-18833436Y52885560D02*
X-18757245Y52885560D01*
X-18757245Y52885560D02*
X-18642960Y52847465D01*
X-18642960Y52847465D02*
X-18604864Y52809370D01*
X-18300103Y52809370D02*
X-18262007Y52847465D01*
X-18262007Y52847465D02*
X-18185817Y52885560D01*
X-18185817Y52885560D02*
X-17995341Y52885560D01*
X-17995341Y52885560D02*
X-17919150Y52847465D01*
X-17919150Y52847465D02*
X-17881055Y52809370D01*
X-17881055Y52809370D02*
X-17842960Y52733179D01*
X-17842960Y52733179D02*
X-17842960Y52656989D01*
X-17842960Y52656989D02*
X-17881055Y52542703D01*
X-17881055Y52542703D02*
X-18338198Y52085560D01*
X-18338198Y52085560D02*
X-17842960Y52085560D01*
X-17385817Y52542703D02*
X-17462007Y52580798D01*
X-17462007Y52580798D02*
X-17500102Y52618894D01*
X-17500102Y52618894D02*
X-17538198Y52695084D01*
X-17538198Y52695084D02*
X-17538198Y52733179D01*
X-17538198Y52733179D02*
X-17500102Y52809370D01*
X-17500102Y52809370D02*
X-17462007Y52847465D01*
X-17462007Y52847465D02*
X-17385817Y52885560D01*
X-17385817Y52885560D02*
X-17233436Y52885560D01*
X-17233436Y52885560D02*
X-17157245Y52847465D01*
X-17157245Y52847465D02*
X-17119150Y52809370D01*
X-17119150Y52809370D02*
X-17081055Y52733179D01*
X-17081055Y52733179D02*
X-17081055Y52695084D01*
X-17081055Y52695084D02*
X-17119150Y52618894D01*
X-17119150Y52618894D02*
X-17157245Y52580798D01*
X-17157245Y52580798D02*
X-17233436Y52542703D01*
X-17233436Y52542703D02*
X-17385817Y52542703D01*
X-17385817Y52542703D02*
X-17462007Y52504608D01*
X-17462007Y52504608D02*
X-17500102Y52466513D01*
X-17500102Y52466513D02*
X-17538198Y52390322D01*
X-17538198Y52390322D02*
X-17538198Y52237941D01*
X-17538198Y52237941D02*
X-17500102Y52161751D01*
X-17500102Y52161751D02*
X-17462007Y52123656D01*
X-17462007Y52123656D02*
X-17385817Y52085560D01*
X-17385817Y52085560D02*
X-17233436Y52085560D01*
X-17233436Y52085560D02*
X-17157245Y52123656D01*
X-17157245Y52123656D02*
X-17119150Y52161751D01*
X-17119150Y52161751D02*
X-17081055Y52237941D01*
X-17081055Y52237941D02*
X-17081055Y52390322D01*
X-17081055Y52390322D02*
X-17119150Y52466513D01*
X-17119150Y52466513D02*
X-17157245Y52504608D01*
X-17157245Y52504608D02*
X-17233436Y52542703D01*
X-38146105Y40028579D02*
X-38108010Y39990483D01*
X-38108010Y39990483D02*
X-38069914Y39876198D01*
X-38069914Y39876198D02*
X-38069914Y39800007D01*
X-38069914Y39800007D02*
X-38108010Y39685721D01*
X-38108010Y39685721D02*
X-38184200Y39609531D01*
X-38184200Y39609531D02*
X-38260390Y39571436D01*
X-38260390Y39571436D02*
X-38412771Y39533340D01*
X-38412771Y39533340D02*
X-38527057Y39533340D01*
X-38527057Y39533340D02*
X-38679438Y39571436D01*
X-38679438Y39571436D02*
X-38755629Y39609531D01*
X-38755629Y39609531D02*
X-38831819Y39685721D01*
X-38831819Y39685721D02*
X-38869914Y39800007D01*
X-38869914Y39800007D02*
X-38869914Y39876198D01*
X-38869914Y39876198D02*
X-38831819Y39990483D01*
X-38831819Y39990483D02*
X-38793724Y40028579D01*
X-38793724Y40333340D02*
X-38831819Y40371436D01*
X-38831819Y40371436D02*
X-38869914Y40447626D01*
X-38869914Y40447626D02*
X-38869914Y40638102D01*
X-38869914Y40638102D02*
X-38831819Y40714293D01*
X-38831819Y40714293D02*
X-38793724Y40752388D01*
X-38793724Y40752388D02*
X-38717533Y40790483D01*
X-38717533Y40790483D02*
X-38641343Y40790483D01*
X-38641343Y40790483D02*
X-38527057Y40752388D01*
X-38527057Y40752388D02*
X-38069914Y40295245D01*
X-38069914Y40295245D02*
X-38069914Y40790483D01*
X-38069914Y41171436D02*
X-38069914Y41323817D01*
X-38069914Y41323817D02*
X-38108010Y41400007D01*
X-38108010Y41400007D02*
X-38146105Y41438103D01*
X-38146105Y41438103D02*
X-38260390Y41514293D01*
X-38260390Y41514293D02*
X-38412771Y41552388D01*
X-38412771Y41552388D02*
X-38717533Y41552388D01*
X-38717533Y41552388D02*
X-38793724Y41514293D01*
X-38793724Y41514293D02*
X-38831819Y41476198D01*
X-38831819Y41476198D02*
X-38869914Y41400007D01*
X-38869914Y41400007D02*
X-38869914Y41247626D01*
X-38869914Y41247626D02*
X-38831819Y41171436D01*
X-38831819Y41171436D02*
X-38793724Y41133341D01*
X-38793724Y41133341D02*
X-38717533Y41095245D01*
X-38717533Y41095245D02*
X-38527057Y41095245D01*
X-38527057Y41095245D02*
X-38450867Y41133341D01*
X-38450867Y41133341D02*
X-38412771Y41171436D01*
X-38412771Y41171436D02*
X-38374676Y41247626D01*
X-38374676Y41247626D02*
X-38374676Y41400007D01*
X-38374676Y41400007D02*
X-38412771Y41476198D01*
X-38412771Y41476198D02*
X-38450867Y41514293D01*
X-38450867Y41514293D02*
X-38527057Y41552388D01*
X-40194863Y58955751D02*
X-40232959Y58917656D01*
X-40232959Y58917656D02*
X-40347244Y58879560D01*
X-40347244Y58879560D02*
X-40423435Y58879560D01*
X-40423435Y58879560D02*
X-40537721Y58917656D01*
X-40537721Y58917656D02*
X-40613911Y58993846D01*
X-40613911Y58993846D02*
X-40652006Y59070036D01*
X-40652006Y59070036D02*
X-40690102Y59222417D01*
X-40690102Y59222417D02*
X-40690102Y59336703D01*
X-40690102Y59336703D02*
X-40652006Y59489084D01*
X-40652006Y59489084D02*
X-40613911Y59565275D01*
X-40613911Y59565275D02*
X-40537721Y59641465D01*
X-40537721Y59641465D02*
X-40423435Y59679560D01*
X-40423435Y59679560D02*
X-40347244Y59679560D01*
X-40347244Y59679560D02*
X-40232959Y59641465D01*
X-40232959Y59641465D02*
X-40194863Y59603370D01*
X-39928197Y59679560D02*
X-39432959Y59679560D01*
X-39432959Y59679560D02*
X-39699625Y59374798D01*
X-39699625Y59374798D02*
X-39585340Y59374798D01*
X-39585340Y59374798D02*
X-39509149Y59336703D01*
X-39509149Y59336703D02*
X-39471054Y59298608D01*
X-39471054Y59298608D02*
X-39432959Y59222417D01*
X-39432959Y59222417D02*
X-39432959Y59031941D01*
X-39432959Y59031941D02*
X-39471054Y58955751D01*
X-39471054Y58955751D02*
X-39509149Y58917656D01*
X-39509149Y58917656D02*
X-39585340Y58879560D01*
X-39585340Y58879560D02*
X-39813911Y58879560D01*
X-39813911Y58879560D02*
X-39890102Y58917656D01*
X-39890102Y58917656D02*
X-39928197Y58955751D01*
X-38937720Y59679560D02*
X-38861530Y59679560D01*
X-38861530Y59679560D02*
X-38785339Y59641465D01*
X-38785339Y59641465D02*
X-38747244Y59603370D01*
X-38747244Y59603370D02*
X-38709149Y59527179D01*
X-38709149Y59527179D02*
X-38671054Y59374798D01*
X-38671054Y59374798D02*
X-38671054Y59184322D01*
X-38671054Y59184322D02*
X-38709149Y59031941D01*
X-38709149Y59031941D02*
X-38747244Y58955751D01*
X-38747244Y58955751D02*
X-38785339Y58917656D01*
X-38785339Y58917656D02*
X-38861530Y58879560D01*
X-38861530Y58879560D02*
X-38937720Y58879560D01*
X-38937720Y58879560D02*
X-39013911Y58917656D01*
X-39013911Y58917656D02*
X-39052006Y58955751D01*
X-39052006Y58955751D02*
X-39090101Y59031941D01*
X-39090101Y59031941D02*
X-39128197Y59184322D01*
X-39128197Y59184322D02*
X-39128197Y59374798D01*
X-39128197Y59374798D02*
X-39090101Y59527179D01*
X-39090101Y59527179D02*
X-39052006Y59603370D01*
X-39052006Y59603370D02*
X-39013911Y59641465D01*
X-39013911Y59641465D02*
X-38937720Y59679560D01*
X-15107129Y49754263D02*
X-15145225Y49716168D01*
X-15145225Y49716168D02*
X-15259510Y49678072D01*
X-15259510Y49678072D02*
X-15335701Y49678072D01*
X-15335701Y49678072D02*
X-15449987Y49716168D01*
X-15449987Y49716168D02*
X-15526177Y49792358D01*
X-15526177Y49792358D02*
X-15564272Y49868548D01*
X-15564272Y49868548D02*
X-15602368Y50020929D01*
X-15602368Y50020929D02*
X-15602368Y50135215D01*
X-15602368Y50135215D02*
X-15564272Y50287596D01*
X-15564272Y50287596D02*
X-15526177Y50363787D01*
X-15526177Y50363787D02*
X-15449987Y50439977D01*
X-15449987Y50439977D02*
X-15335701Y50478072D01*
X-15335701Y50478072D02*
X-15259510Y50478072D01*
X-15259510Y50478072D02*
X-15145225Y50439977D01*
X-15145225Y50439977D02*
X-15107129Y50401882D01*
X-14840463Y50478072D02*
X-14345225Y50478072D01*
X-14345225Y50478072D02*
X-14611891Y50173310D01*
X-14611891Y50173310D02*
X-14497606Y50173310D01*
X-14497606Y50173310D02*
X-14421415Y50135215D01*
X-14421415Y50135215D02*
X-14383320Y50097120D01*
X-14383320Y50097120D02*
X-14345225Y50020929D01*
X-14345225Y50020929D02*
X-14345225Y49830453D01*
X-14345225Y49830453D02*
X-14383320Y49754263D01*
X-14383320Y49754263D02*
X-14421415Y49716168D01*
X-14421415Y49716168D02*
X-14497606Y49678072D01*
X-14497606Y49678072D02*
X-14726177Y49678072D01*
X-14726177Y49678072D02*
X-14802368Y49716168D01*
X-14802368Y49716168D02*
X-14840463Y49754263D01*
X-13964272Y49678072D02*
X-13811891Y49678072D01*
X-13811891Y49678072D02*
X-13735701Y49716168D01*
X-13735701Y49716168D02*
X-13697605Y49754263D01*
X-13697605Y49754263D02*
X-13621415Y49868548D01*
X-13621415Y49868548D02*
X-13583320Y50020929D01*
X-13583320Y50020929D02*
X-13583320Y50325691D01*
X-13583320Y50325691D02*
X-13621415Y50401882D01*
X-13621415Y50401882D02*
X-13659510Y50439977D01*
X-13659510Y50439977D02*
X-13735701Y50478072D01*
X-13735701Y50478072D02*
X-13888082Y50478072D01*
X-13888082Y50478072D02*
X-13964272Y50439977D01*
X-13964272Y50439977D02*
X-14002367Y50401882D01*
X-14002367Y50401882D02*
X-14040463Y50325691D01*
X-14040463Y50325691D02*
X-14040463Y50135215D01*
X-14040463Y50135215D02*
X-14002367Y50059025D01*
X-14002367Y50059025D02*
X-13964272Y50020929D01*
X-13964272Y50020929D02*
X-13888082Y49982834D01*
X-13888082Y49982834D02*
X-13735701Y49982834D01*
X-13735701Y49982834D02*
X-13659510Y50020929D01*
X-13659510Y50020929D02*
X-13621415Y50059025D01*
X-13621415Y50059025D02*
X-13583320Y50135215D01*
X-23556335Y65017714D02*
X-23518240Y64979618D01*
X-23518240Y64979618D02*
X-23480144Y64865333D01*
X-23480144Y64865333D02*
X-23480144Y64789142D01*
X-23480144Y64789142D02*
X-23518240Y64674856D01*
X-23518240Y64674856D02*
X-23594430Y64598666D01*
X-23594430Y64598666D02*
X-23670620Y64560571D01*
X-23670620Y64560571D02*
X-23823001Y64522475D01*
X-23823001Y64522475D02*
X-23937287Y64522475D01*
X-23937287Y64522475D02*
X-24089668Y64560571D01*
X-24089668Y64560571D02*
X-24165859Y64598666D01*
X-24165859Y64598666D02*
X-24242049Y64674856D01*
X-24242049Y64674856D02*
X-24280144Y64789142D01*
X-24280144Y64789142D02*
X-24280144Y64865333D01*
X-24280144Y64865333D02*
X-24242049Y64979618D01*
X-24242049Y64979618D02*
X-24203954Y65017714D01*
X-24280144Y65284380D02*
X-24280144Y65779618D01*
X-24280144Y65779618D02*
X-23975382Y65512952D01*
X-23975382Y65512952D02*
X-23975382Y65627237D01*
X-23975382Y65627237D02*
X-23937287Y65703428D01*
X-23937287Y65703428D02*
X-23899192Y65741523D01*
X-23899192Y65741523D02*
X-23823001Y65779618D01*
X-23823001Y65779618D02*
X-23632525Y65779618D01*
X-23632525Y65779618D02*
X-23556335Y65741523D01*
X-23556335Y65741523D02*
X-23518240Y65703428D01*
X-23518240Y65703428D02*
X-23480144Y65627237D01*
X-23480144Y65627237D02*
X-23480144Y65398666D01*
X-23480144Y65398666D02*
X-23518240Y65322475D01*
X-23518240Y65322475D02*
X-23556335Y65284380D01*
X-24280144Y66465333D02*
X-24280144Y66312952D01*
X-24280144Y66312952D02*
X-24242049Y66236761D01*
X-24242049Y66236761D02*
X-24203954Y66198666D01*
X-24203954Y66198666D02*
X-24089668Y66122476D01*
X-24089668Y66122476D02*
X-23937287Y66084380D01*
X-23937287Y66084380D02*
X-23632525Y66084380D01*
X-23632525Y66084380D02*
X-23556335Y66122476D01*
X-23556335Y66122476D02*
X-23518240Y66160571D01*
X-23518240Y66160571D02*
X-23480144Y66236761D01*
X-23480144Y66236761D02*
X-23480144Y66389142D01*
X-23480144Y66389142D02*
X-23518240Y66465333D01*
X-23518240Y66465333D02*
X-23556335Y66503428D01*
X-23556335Y66503428D02*
X-23632525Y66541523D01*
X-23632525Y66541523D02*
X-23823001Y66541523D01*
X-23823001Y66541523D02*
X-23899192Y66503428D01*
X-23899192Y66503428D02*
X-23937287Y66465333D01*
X-23937287Y66465333D02*
X-23975382Y66389142D01*
X-23975382Y66389142D02*
X-23975382Y66236761D01*
X-23975382Y66236761D02*
X-23937287Y66160571D01*
X-23937287Y66160571D02*
X-23899192Y66122476D01*
X-23899192Y66122476D02*
X-23823001Y66084380D01*
X-16246913Y45934130D02*
X-16208818Y45896034D01*
X-16208818Y45896034D02*
X-16170722Y45781749D01*
X-16170722Y45781749D02*
X-16170722Y45705558D01*
X-16170722Y45705558D02*
X-16208818Y45591272D01*
X-16208818Y45591272D02*
X-16285008Y45515082D01*
X-16285008Y45515082D02*
X-16361198Y45476987D01*
X-16361198Y45476987D02*
X-16513579Y45438891D01*
X-16513579Y45438891D02*
X-16627865Y45438891D01*
X-16627865Y45438891D02*
X-16780246Y45476987D01*
X-16780246Y45476987D02*
X-16856437Y45515082D01*
X-16856437Y45515082D02*
X-16932627Y45591272D01*
X-16932627Y45591272D02*
X-16970722Y45705558D01*
X-16970722Y45705558D02*
X-16970722Y45781749D01*
X-16970722Y45781749D02*
X-16932627Y45896034D01*
X-16932627Y45896034D02*
X-16894532Y45934130D01*
X-16970722Y46200796D02*
X-16970722Y46696034D01*
X-16970722Y46696034D02*
X-16665960Y46429368D01*
X-16665960Y46429368D02*
X-16665960Y46543653D01*
X-16665960Y46543653D02*
X-16627865Y46619844D01*
X-16627865Y46619844D02*
X-16589770Y46657939D01*
X-16589770Y46657939D02*
X-16513579Y46696034D01*
X-16513579Y46696034D02*
X-16323103Y46696034D01*
X-16323103Y46696034D02*
X-16246913Y46657939D01*
X-16246913Y46657939D02*
X-16208818Y46619844D01*
X-16208818Y46619844D02*
X-16170722Y46543653D01*
X-16170722Y46543653D02*
X-16170722Y46315082D01*
X-16170722Y46315082D02*
X-16208818Y46238891D01*
X-16208818Y46238891D02*
X-16246913Y46200796D01*
X-16970722Y47419844D02*
X-16970722Y47038892D01*
X-16970722Y47038892D02*
X-16589770Y47000796D01*
X-16589770Y47000796D02*
X-16627865Y47038892D01*
X-16627865Y47038892D02*
X-16665960Y47115082D01*
X-16665960Y47115082D02*
X-16665960Y47305558D01*
X-16665960Y47305558D02*
X-16627865Y47381749D01*
X-16627865Y47381749D02*
X-16589770Y47419844D01*
X-16589770Y47419844D02*
X-16513579Y47457939D01*
X-16513579Y47457939D02*
X-16323103Y47457939D01*
X-16323103Y47457939D02*
X-16246913Y47419844D01*
X-16246913Y47419844D02*
X-16208818Y47381749D01*
X-16208818Y47381749D02*
X-16170722Y47305558D01*
X-16170722Y47305558D02*
X-16170722Y47115082D01*
X-16170722Y47115082D02*
X-16208818Y47038892D01*
X-16208818Y47038892D02*
X-16246913Y47000796D01*
X-23755285Y62037335D02*
X-23793381Y61999240D01*
X-23793381Y61999240D02*
X-23907666Y61961144D01*
X-23907666Y61961144D02*
X-23983857Y61961144D01*
X-23983857Y61961144D02*
X-24098143Y61999240D01*
X-24098143Y61999240D02*
X-24174333Y62075430D01*
X-24174333Y62075430D02*
X-24212428Y62151620D01*
X-24212428Y62151620D02*
X-24250524Y62304001D01*
X-24250524Y62304001D02*
X-24250524Y62418287D01*
X-24250524Y62418287D02*
X-24212428Y62570668D01*
X-24212428Y62570668D02*
X-24174333Y62646859D01*
X-24174333Y62646859D02*
X-24098143Y62723049D01*
X-24098143Y62723049D02*
X-23983857Y62761144D01*
X-23983857Y62761144D02*
X-23907666Y62761144D01*
X-23907666Y62761144D02*
X-23793381Y62723049D01*
X-23793381Y62723049D02*
X-23755285Y62684954D01*
X-23488619Y62761144D02*
X-22993381Y62761144D01*
X-22993381Y62761144D02*
X-23260047Y62456382D01*
X-23260047Y62456382D02*
X-23145762Y62456382D01*
X-23145762Y62456382D02*
X-23069571Y62418287D01*
X-23069571Y62418287D02*
X-23031476Y62380192D01*
X-23031476Y62380192D02*
X-22993381Y62304001D01*
X-22993381Y62304001D02*
X-22993381Y62113525D01*
X-22993381Y62113525D02*
X-23031476Y62037335D01*
X-23031476Y62037335D02*
X-23069571Y61999240D01*
X-23069571Y61999240D02*
X-23145762Y61961144D01*
X-23145762Y61961144D02*
X-23374333Y61961144D01*
X-23374333Y61961144D02*
X-23450524Y61999240D01*
X-23450524Y61999240D02*
X-23488619Y62037335D01*
X-22231476Y61961144D02*
X-22688619Y61961144D01*
X-22460047Y61961144D02*
X-22460047Y62761144D01*
X-22460047Y62761144D02*
X-22536238Y62646859D01*
X-22536238Y62646859D02*
X-22612428Y62570668D01*
X-22612428Y62570668D02*
X-22688619Y62532573D01*
X-18601089Y53916155D02*
X-18639185Y53878060D01*
X-18639185Y53878060D02*
X-18753470Y53839964D01*
X-18753470Y53839964D02*
X-18829661Y53839964D01*
X-18829661Y53839964D02*
X-18943947Y53878060D01*
X-18943947Y53878060D02*
X-19020137Y53954250D01*
X-19020137Y53954250D02*
X-19058232Y54030440D01*
X-19058232Y54030440D02*
X-19096328Y54182821D01*
X-19096328Y54182821D02*
X-19096328Y54297107D01*
X-19096328Y54297107D02*
X-19058232Y54449488D01*
X-19058232Y54449488D02*
X-19020137Y54525679D01*
X-19020137Y54525679D02*
X-18943947Y54601869D01*
X-18943947Y54601869D02*
X-18829661Y54639964D01*
X-18829661Y54639964D02*
X-18753470Y54639964D01*
X-18753470Y54639964D02*
X-18639185Y54601869D01*
X-18639185Y54601869D02*
X-18601089Y54563774D01*
X-18334423Y54639964D02*
X-17839185Y54639964D01*
X-17839185Y54639964D02*
X-18105851Y54335202D01*
X-18105851Y54335202D02*
X-17991566Y54335202D01*
X-17991566Y54335202D02*
X-17915375Y54297107D01*
X-17915375Y54297107D02*
X-17877280Y54259012D01*
X-17877280Y54259012D02*
X-17839185Y54182821D01*
X-17839185Y54182821D02*
X-17839185Y53992345D01*
X-17839185Y53992345D02*
X-17877280Y53916155D01*
X-17877280Y53916155D02*
X-17915375Y53878060D01*
X-17915375Y53878060D02*
X-17991566Y53839964D01*
X-17991566Y53839964D02*
X-18220137Y53839964D01*
X-18220137Y53839964D02*
X-18296328Y53878060D01*
X-18296328Y53878060D02*
X-18334423Y53916155D01*
X-17534423Y54563774D02*
X-17496327Y54601869D01*
X-17496327Y54601869D02*
X-17420137Y54639964D01*
X-17420137Y54639964D02*
X-17229661Y54639964D01*
X-17229661Y54639964D02*
X-17153470Y54601869D01*
X-17153470Y54601869D02*
X-17115375Y54563774D01*
X-17115375Y54563774D02*
X-17077280Y54487583D01*
X-17077280Y54487583D02*
X-17077280Y54411393D01*
X-17077280Y54411393D02*
X-17115375Y54297107D01*
X-17115375Y54297107D02*
X-17572518Y53839964D01*
X-17572518Y53839964D02*
X-17077280Y53839964D01*
X-18675285Y42543335D02*
X-18713381Y42505240D01*
X-18713381Y42505240D02*
X-18827666Y42467144D01*
X-18827666Y42467144D02*
X-18903857Y42467144D01*
X-18903857Y42467144D02*
X-19018143Y42505240D01*
X-19018143Y42505240D02*
X-19094333Y42581430D01*
X-19094333Y42581430D02*
X-19132428Y42657620D01*
X-19132428Y42657620D02*
X-19170524Y42810001D01*
X-19170524Y42810001D02*
X-19170524Y42924287D01*
X-19170524Y42924287D02*
X-19132428Y43076668D01*
X-19132428Y43076668D02*
X-19094333Y43152859D01*
X-19094333Y43152859D02*
X-19018143Y43229049D01*
X-19018143Y43229049D02*
X-18903857Y43267144D01*
X-18903857Y43267144D02*
X-18827666Y43267144D01*
X-18827666Y43267144D02*
X-18713381Y43229049D01*
X-18713381Y43229049D02*
X-18675285Y43190954D01*
X-18408619Y43267144D02*
X-17913381Y43267144D01*
X-17913381Y43267144D02*
X-18180047Y42962382D01*
X-18180047Y42962382D02*
X-18065762Y42962382D01*
X-18065762Y42962382D02*
X-17989571Y42924287D01*
X-17989571Y42924287D02*
X-17951476Y42886192D01*
X-17951476Y42886192D02*
X-17913381Y42810001D01*
X-17913381Y42810001D02*
X-17913381Y42619525D01*
X-17913381Y42619525D02*
X-17951476Y42543335D01*
X-17951476Y42543335D02*
X-17989571Y42505240D01*
X-17989571Y42505240D02*
X-18065762Y42467144D01*
X-18065762Y42467144D02*
X-18294333Y42467144D01*
X-18294333Y42467144D02*
X-18370524Y42505240D01*
X-18370524Y42505240D02*
X-18408619Y42543335D01*
X-17646714Y43267144D02*
X-17151476Y43267144D01*
X-17151476Y43267144D02*
X-17418142Y42962382D01*
X-17418142Y42962382D02*
X-17303857Y42962382D01*
X-17303857Y42962382D02*
X-17227666Y42924287D01*
X-17227666Y42924287D02*
X-17189571Y42886192D01*
X-17189571Y42886192D02*
X-17151476Y42810001D01*
X-17151476Y42810001D02*
X-17151476Y42619525D01*
X-17151476Y42619525D02*
X-17189571Y42543335D01*
X-17189571Y42543335D02*
X-17227666Y42505240D01*
X-17227666Y42505240D02*
X-17303857Y42467144D01*
X-17303857Y42467144D02*
X-17532428Y42467144D01*
X-17532428Y42467144D02*
X-17608619Y42505240D01*
X-17608619Y42505240D02*
X-17646714Y42543335D01*
X-25771913Y40092130D02*
X-25733818Y40054034D01*
X-25733818Y40054034D02*
X-25695722Y39939749D01*
X-25695722Y39939749D02*
X-25695722Y39863558D01*
X-25695722Y39863558D02*
X-25733818Y39749272D01*
X-25733818Y39749272D02*
X-25810008Y39673082D01*
X-25810008Y39673082D02*
X-25886198Y39634987D01*
X-25886198Y39634987D02*
X-26038579Y39596891D01*
X-26038579Y39596891D02*
X-26152865Y39596891D01*
X-26152865Y39596891D02*
X-26305246Y39634987D01*
X-26305246Y39634987D02*
X-26381437Y39673082D01*
X-26381437Y39673082D02*
X-26457627Y39749272D01*
X-26457627Y39749272D02*
X-26495722Y39863558D01*
X-26495722Y39863558D02*
X-26495722Y39939749D01*
X-26495722Y39939749D02*
X-26457627Y40054034D01*
X-26457627Y40054034D02*
X-26419532Y40092130D01*
X-26495722Y40358796D02*
X-26495722Y40854034D01*
X-26495722Y40854034D02*
X-26190960Y40587368D01*
X-26190960Y40587368D02*
X-26190960Y40701653D01*
X-26190960Y40701653D02*
X-26152865Y40777844D01*
X-26152865Y40777844D02*
X-26114770Y40815939D01*
X-26114770Y40815939D02*
X-26038579Y40854034D01*
X-26038579Y40854034D02*
X-25848103Y40854034D01*
X-25848103Y40854034D02*
X-25771913Y40815939D01*
X-25771913Y40815939D02*
X-25733818Y40777844D01*
X-25733818Y40777844D02*
X-25695722Y40701653D01*
X-25695722Y40701653D02*
X-25695722Y40473082D01*
X-25695722Y40473082D02*
X-25733818Y40396891D01*
X-25733818Y40396891D02*
X-25771913Y40358796D01*
X-26229056Y41539749D02*
X-25695722Y41539749D01*
X-26533818Y41349273D02*
X-25962389Y41158796D01*
X-25962389Y41158796D02*
X-25962389Y41654035D01*
X-15048863Y47589751D02*
X-15086959Y47551656D01*
X-15086959Y47551656D02*
X-15201244Y47513560D01*
X-15201244Y47513560D02*
X-15277435Y47513560D01*
X-15277435Y47513560D02*
X-15391721Y47551656D01*
X-15391721Y47551656D02*
X-15467911Y47627846D01*
X-15467911Y47627846D02*
X-15506006Y47704036D01*
X-15506006Y47704036D02*
X-15544102Y47856417D01*
X-15544102Y47856417D02*
X-15544102Y47970703D01*
X-15544102Y47970703D02*
X-15506006Y48123084D01*
X-15506006Y48123084D02*
X-15467911Y48199275D01*
X-15467911Y48199275D02*
X-15391721Y48275465D01*
X-15391721Y48275465D02*
X-15277435Y48313560D01*
X-15277435Y48313560D02*
X-15201244Y48313560D01*
X-15201244Y48313560D02*
X-15086959Y48275465D01*
X-15086959Y48275465D02*
X-15048863Y48237370D01*
X-14363149Y48046894D02*
X-14363149Y47513560D01*
X-14553625Y48351656D02*
X-14744102Y47780227D01*
X-14744102Y47780227D02*
X-14248863Y47780227D01*
X-13791720Y48313560D02*
X-13715530Y48313560D01*
X-13715530Y48313560D02*
X-13639339Y48275465D01*
X-13639339Y48275465D02*
X-13601244Y48237370D01*
X-13601244Y48237370D02*
X-13563149Y48161179D01*
X-13563149Y48161179D02*
X-13525054Y48008798D01*
X-13525054Y48008798D02*
X-13525054Y47818322D01*
X-13525054Y47818322D02*
X-13563149Y47665941D01*
X-13563149Y47665941D02*
X-13601244Y47589751D01*
X-13601244Y47589751D02*
X-13639339Y47551656D01*
X-13639339Y47551656D02*
X-13715530Y47513560D01*
X-13715530Y47513560D02*
X-13791720Y47513560D01*
X-13791720Y47513560D02*
X-13867911Y47551656D01*
X-13867911Y47551656D02*
X-13906006Y47589751D01*
X-13906006Y47589751D02*
X-13944101Y47665941D01*
X-13944101Y47665941D02*
X-13982197Y47818322D01*
X-13982197Y47818322D02*
X-13982197Y48008798D01*
X-13982197Y48008798D02*
X-13944101Y48161179D01*
X-13944101Y48161179D02*
X-13906006Y48237370D01*
X-13906006Y48237370D02*
X-13867911Y48275465D01*
X-13867911Y48275465D02*
X-13791720Y48313560D01*
X-22909144Y65017714D02*
X-23290097Y64751047D01*
X-22909144Y64560571D02*
X-23709144Y64560571D01*
X-23709144Y64560571D02*
X-23709144Y64865333D01*
X-23709144Y64865333D02*
X-23671049Y64941523D01*
X-23671049Y64941523D02*
X-23632954Y64979618D01*
X-23632954Y64979618D02*
X-23556763Y65017714D01*
X-23556763Y65017714D02*
X-23442478Y65017714D01*
X-23442478Y65017714D02*
X-23366287Y64979618D01*
X-23366287Y64979618D02*
X-23328192Y64941523D01*
X-23328192Y64941523D02*
X-23290097Y64865333D01*
X-23290097Y64865333D02*
X-23290097Y64560571D01*
X-23632954Y65322475D02*
X-23671049Y65360571D01*
X-23671049Y65360571D02*
X-23709144Y65436761D01*
X-23709144Y65436761D02*
X-23709144Y65627237D01*
X-23709144Y65627237D02*
X-23671049Y65703428D01*
X-23671049Y65703428D02*
X-23632954Y65741523D01*
X-23632954Y65741523D02*
X-23556763Y65779618D01*
X-23556763Y65779618D02*
X-23480573Y65779618D01*
X-23480573Y65779618D02*
X-23366287Y65741523D01*
X-23366287Y65741523D02*
X-22909144Y65284380D01*
X-22909144Y65284380D02*
X-22909144Y65779618D01*
X-23709144Y66046285D02*
X-23709144Y66541523D01*
X-23709144Y66541523D02*
X-23404382Y66274857D01*
X-23404382Y66274857D02*
X-23404382Y66389142D01*
X-23404382Y66389142D02*
X-23366287Y66465333D01*
X-23366287Y66465333D02*
X-23328192Y66503428D01*
X-23328192Y66503428D02*
X-23252001Y66541523D01*
X-23252001Y66541523D02*
X-23061525Y66541523D01*
X-23061525Y66541523D02*
X-22985335Y66503428D01*
X-22985335Y66503428D02*
X-22947240Y66465333D01*
X-22947240Y66465333D02*
X-22909144Y66389142D01*
X-22909144Y66389142D02*
X-22909144Y66160571D01*
X-22909144Y66160571D02*
X-22947240Y66084380D01*
X-22947240Y66084380D02*
X-22985335Y66046285D01*
X-30068914Y40028579D02*
X-30449867Y39761912D01*
X-30068914Y39571436D02*
X-30868914Y39571436D01*
X-30868914Y39571436D02*
X-30868914Y39876198D01*
X-30868914Y39876198D02*
X-30830819Y39952388D01*
X-30830819Y39952388D02*
X-30792724Y39990483D01*
X-30792724Y39990483D02*
X-30716533Y40028579D01*
X-30716533Y40028579D02*
X-30602248Y40028579D01*
X-30602248Y40028579D02*
X-30526057Y39990483D01*
X-30526057Y39990483D02*
X-30487962Y39952388D01*
X-30487962Y39952388D02*
X-30449867Y39876198D01*
X-30449867Y39876198D02*
X-30449867Y39571436D01*
X-30792724Y40333340D02*
X-30830819Y40371436D01*
X-30830819Y40371436D02*
X-30868914Y40447626D01*
X-30868914Y40447626D02*
X-30868914Y40638102D01*
X-30868914Y40638102D02*
X-30830819Y40714293D01*
X-30830819Y40714293D02*
X-30792724Y40752388D01*
X-30792724Y40752388D02*
X-30716533Y40790483D01*
X-30716533Y40790483D02*
X-30640343Y40790483D01*
X-30640343Y40790483D02*
X-30526057Y40752388D01*
X-30526057Y40752388D02*
X-30068914Y40295245D01*
X-30068914Y40295245D02*
X-30068914Y40790483D01*
X-30068914Y41552388D02*
X-30068914Y41095245D01*
X-30068914Y41323817D02*
X-30868914Y41323817D01*
X-30868914Y41323817D02*
X-30754629Y41247626D01*
X-30754629Y41247626D02*
X-30678438Y41171436D01*
X-30678438Y41171436D02*
X-30640343Y41095245D01*
X-18604864Y48338560D02*
X-18871531Y48719513D01*
X-19062007Y48338560D02*
X-19062007Y49138560D01*
X-19062007Y49138560D02*
X-18757245Y49138560D01*
X-18757245Y49138560D02*
X-18681055Y49100465D01*
X-18681055Y49100465D02*
X-18642960Y49062370D01*
X-18642960Y49062370D02*
X-18604864Y48986179D01*
X-18604864Y48986179D02*
X-18604864Y48871894D01*
X-18604864Y48871894D02*
X-18642960Y48795703D01*
X-18642960Y48795703D02*
X-18681055Y48757608D01*
X-18681055Y48757608D02*
X-18757245Y48719513D01*
X-18757245Y48719513D02*
X-19062007Y48719513D01*
X-17842960Y48338560D02*
X-18300103Y48338560D01*
X-18071531Y48338560D02*
X-18071531Y49138560D01*
X-18071531Y49138560D02*
X-18147722Y49024275D01*
X-18147722Y49024275D02*
X-18223912Y48948084D01*
X-18223912Y48948084D02*
X-18300103Y48909989D01*
X-17462007Y48338560D02*
X-17309626Y48338560D01*
X-17309626Y48338560D02*
X-17233436Y48376656D01*
X-17233436Y48376656D02*
X-17195340Y48414751D01*
X-17195340Y48414751D02*
X-17119150Y48529036D01*
X-17119150Y48529036D02*
X-17081055Y48681417D01*
X-17081055Y48681417D02*
X-17081055Y48986179D01*
X-17081055Y48986179D02*
X-17119150Y49062370D01*
X-17119150Y49062370D02*
X-17157245Y49100465D01*
X-17157245Y49100465D02*
X-17233436Y49138560D01*
X-17233436Y49138560D02*
X-17385817Y49138560D01*
X-17385817Y49138560D02*
X-17462007Y49100465D01*
X-17462007Y49100465D02*
X-17500102Y49062370D01*
X-17500102Y49062370D02*
X-17538198Y48986179D01*
X-17538198Y48986179D02*
X-17538198Y48795703D01*
X-17538198Y48795703D02*
X-17500102Y48719513D01*
X-17500102Y48719513D02*
X-17462007Y48681417D01*
X-17462007Y48681417D02*
X-17385817Y48643322D01*
X-17385817Y48643322D02*
X-17233436Y48643322D01*
X-17233436Y48643322D02*
X-17157245Y48681417D01*
X-17157245Y48681417D02*
X-17119150Y48719513D01*
X-17119150Y48719513D02*
X-17081055Y48795703D01*
X-14392723Y45934130D02*
X-14773676Y45667463D01*
X-14392723Y45476987D02*
X-15192723Y45476987D01*
X-15192723Y45476987D02*
X-15192723Y45781749D01*
X-15192723Y45781749D02*
X-15154628Y45857939D01*
X-15154628Y45857939D02*
X-15116533Y45896034D01*
X-15116533Y45896034D02*
X-15040342Y45934130D01*
X-15040342Y45934130D02*
X-14926057Y45934130D01*
X-14926057Y45934130D02*
X-14849866Y45896034D01*
X-14849866Y45896034D02*
X-14811771Y45857939D01*
X-14811771Y45857939D02*
X-14773676Y45781749D01*
X-14773676Y45781749D02*
X-14773676Y45476987D01*
X-15116533Y46238891D02*
X-15154628Y46276987D01*
X-15154628Y46276987D02*
X-15192723Y46353177D01*
X-15192723Y46353177D02*
X-15192723Y46543653D01*
X-15192723Y46543653D02*
X-15154628Y46619844D01*
X-15154628Y46619844D02*
X-15116533Y46657939D01*
X-15116533Y46657939D02*
X-15040342Y46696034D01*
X-15040342Y46696034D02*
X-14964152Y46696034D01*
X-14964152Y46696034D02*
X-14849866Y46657939D01*
X-14849866Y46657939D02*
X-14392723Y46200796D01*
X-14392723Y46200796D02*
X-14392723Y46696034D01*
X-15192723Y47191273D02*
X-15192723Y47267463D01*
X-15192723Y47267463D02*
X-15154628Y47343654D01*
X-15154628Y47343654D02*
X-15116533Y47381749D01*
X-15116533Y47381749D02*
X-15040342Y47419844D01*
X-15040342Y47419844D02*
X-14887961Y47457939D01*
X-14887961Y47457939D02*
X-14697485Y47457939D01*
X-14697485Y47457939D02*
X-14545104Y47419844D01*
X-14545104Y47419844D02*
X-14468914Y47381749D01*
X-14468914Y47381749D02*
X-14430819Y47343654D01*
X-14430819Y47343654D02*
X-14392723Y47267463D01*
X-14392723Y47267463D02*
X-14392723Y47191273D01*
X-14392723Y47191273D02*
X-14430819Y47115082D01*
X-14430819Y47115082D02*
X-14468914Y47076987D01*
X-14468914Y47076987D02*
X-14545104Y47038892D01*
X-14545104Y47038892D02*
X-14697485Y47000796D01*
X-14697485Y47000796D02*
X-14887961Y47000796D01*
X-14887961Y47000796D02*
X-15040342Y47038892D01*
X-15040342Y47038892D02*
X-15116533Y47076987D01*
X-15116533Y47076987D02*
X-15154628Y47115082D01*
X-15154628Y47115082D02*
X-15192723Y47191273D01*
X-21258144Y65017714D02*
X-21639097Y64751047D01*
X-21258144Y64560571D02*
X-22058144Y64560571D01*
X-22058144Y64560571D02*
X-22058144Y64865333D01*
X-22058144Y64865333D02*
X-22020049Y64941523D01*
X-22020049Y64941523D02*
X-21981954Y64979618D01*
X-21981954Y64979618D02*
X-21905763Y65017714D01*
X-21905763Y65017714D02*
X-21791478Y65017714D01*
X-21791478Y65017714D02*
X-21715287Y64979618D01*
X-21715287Y64979618D02*
X-21677192Y64941523D01*
X-21677192Y64941523D02*
X-21639097Y64865333D01*
X-21639097Y64865333D02*
X-21639097Y64560571D01*
X-21981954Y65322475D02*
X-22020049Y65360571D01*
X-22020049Y65360571D02*
X-22058144Y65436761D01*
X-22058144Y65436761D02*
X-22058144Y65627237D01*
X-22058144Y65627237D02*
X-22020049Y65703428D01*
X-22020049Y65703428D02*
X-21981954Y65741523D01*
X-21981954Y65741523D02*
X-21905763Y65779618D01*
X-21905763Y65779618D02*
X-21829573Y65779618D01*
X-21829573Y65779618D02*
X-21715287Y65741523D01*
X-21715287Y65741523D02*
X-21258144Y65284380D01*
X-21258144Y65284380D02*
X-21258144Y65779618D01*
X-21981954Y66084380D02*
X-22020049Y66122476D01*
X-22020049Y66122476D02*
X-22058144Y66198666D01*
X-22058144Y66198666D02*
X-22058144Y66389142D01*
X-22058144Y66389142D02*
X-22020049Y66465333D01*
X-22020049Y66465333D02*
X-21981954Y66503428D01*
X-21981954Y66503428D02*
X-21905763Y66541523D01*
X-21905763Y66541523D02*
X-21829573Y66541523D01*
X-21829573Y66541523D02*
X-21715287Y66503428D01*
X-21715287Y66503428D02*
X-21258144Y66046285D01*
X-21258144Y66046285D02*
X-21258144Y66541523D01*
X-27346231Y49966389D02*
X-26698612Y49966389D01*
X-26698612Y49966389D02*
X-26622422Y50004484D01*
X-26622422Y50004484D02*
X-26584327Y50042579D01*
X-26584327Y50042579D02*
X-26546231Y50118770D01*
X-26546231Y50118770D02*
X-26546231Y50271151D01*
X-26546231Y50271151D02*
X-26584327Y50347341D01*
X-26584327Y50347341D02*
X-26622422Y50385436D01*
X-26622422Y50385436D02*
X-26698612Y50423532D01*
X-26698612Y50423532D02*
X-27346231Y50423532D01*
X-26546231Y51223531D02*
X-26546231Y50766388D01*
X-26546231Y50994960D02*
X-27346231Y50994960D01*
X-27346231Y50994960D02*
X-27231946Y50918769D01*
X-27231946Y50918769D02*
X-27155755Y50842579D01*
X-27155755Y50842579D02*
X-27117660Y50766388D01*
X-27346231Y51490198D02*
X-27346231Y52023532D01*
X-27346231Y52023532D02*
X-26546231Y51680674D01*
X-20361976Y50395097D02*
X-19561976Y50928431D01*
X-20361976Y50928431D02*
X-19561976Y50395097D01*
X-19561976Y51652240D02*
X-19561976Y51195097D01*
X-19561976Y51423669D02*
X-20361976Y51423669D01*
X-20361976Y51423669D02*
X-20247691Y51347478D01*
X-20247691Y51347478D02*
X-20171500Y51271288D01*
X-20171500Y51271288D02*
X-20133405Y51195097D01*
X-51496335Y36658619D02*
X-51458240Y36620523D01*
X-51458240Y36620523D02*
X-51420144Y36506238D01*
X-51420144Y36506238D02*
X-51420144Y36430047D01*
X-51420144Y36430047D02*
X-51458240Y36315761D01*
X-51458240Y36315761D02*
X-51534430Y36239571D01*
X-51534430Y36239571D02*
X-51610620Y36201476D01*
X-51610620Y36201476D02*
X-51763001Y36163380D01*
X-51763001Y36163380D02*
X-51877287Y36163380D01*
X-51877287Y36163380D02*
X-52029668Y36201476D01*
X-52029668Y36201476D02*
X-52105859Y36239571D01*
X-52105859Y36239571D02*
X-52182049Y36315761D01*
X-52182049Y36315761D02*
X-52220144Y36430047D01*
X-52220144Y36430047D02*
X-52220144Y36506238D01*
X-52220144Y36506238D02*
X-52182049Y36620523D01*
X-52182049Y36620523D02*
X-52143954Y36658619D01*
X-51420144Y37001476D02*
X-52220144Y37001476D01*
X-52220144Y37001476D02*
X-51420144Y37458619D01*
X-51420144Y37458619D02*
X-52220144Y37458619D01*
X-51953478Y38182428D02*
X-51420144Y38182428D01*
X-52258240Y37991952D02*
X-51686811Y37801475D01*
X-51686811Y37801475D02*
X-51686811Y38296714D01*
M02*
