%TF.GenerationSoftware,KiCad,Pcbnew,10.99.0-unknown*%
%TF.CreationDate,2026-08-12T15:28:21+08:00*%
%TF.ProjectId,________,db6eeccb-6c11-40f6-962e-6b696361645f,rev?*%
%TF.SameCoordinates,Original*%
%TF.FileFunction,Copper,L4,Bot*%
%TF.FilePolarity,Positive*%
%FSLAX46Y46*%
G04 Gerber Fmt 4.6, Leading zero omitted, Abs format (unit mm)*
G04 Created by KiCad (PCBNEW 10.99.0-unknown) date 2026-08-12 15:28:21*
%MOMM*%
%LPD*%
G01*
G04 APERTURE LIST*
G04 Aperture macros list*
%AMRoundRect*
0 Rectangle with rounded corners*
0 $1 Rounding radius*
0 $2 $3 $4 $5 $6 $7 $8 $9 X,Y pos of 4 corners*
0 Add a 4 corners polygon primitive as box body*
4,1,4,$2,$3,$4,$5,$6,$7,$8,$9,$2,$3,0*
0 Add four circle primitives for the rounded corners*
1,1,$1+$1,$2,$3*
1,1,$1+$1,$4,$5*
1,1,$1+$1,$6,$7*
1,1,$1+$1,$8,$9*
0 Add four rect primitives between the rounded corners*
20,1,$1+$1,$2,$3,$4,$5,0*
20,1,$1+$1,$4,$5,$6,$7,0*
20,1,$1+$1,$6,$7,$8,$9,0*
20,1,$1+$1,$8,$9,$2,$3,0*%
G04 Aperture macros list end*
%TA.AperFunction,SMDPad,CuDef*%
%ADD10RoundRect,0.225000X-0.225000X-0.275000X0.225000X-0.275000X0.225000X0.275000X-0.225000X0.275000X0*%
%TD*%
%TA.AperFunction,SMDPad,CuDef*%
%ADD11RoundRect,0.225000X-0.225000X-0.275000X0.225000X-0.275000X0.225000X0.275000X-0.225000X0.275000X0*%
%TD*%
%TA.AperFunction,SMDPad,CuDef*%
%ADD12RoundRect,0.105000X0.345000X-0.105000X0.345000X0.105000X-0.345000X0.105000X-0.345000X-0.105000X0*%
%TD*%
%TA.AperFunction,SMDPad,CuDef*%
%ADD13RoundRect,0.105000X-0.105000X-0.345000X0.105000X-0.345000X0.105000X0.345000X-0.105000X0.345000X0*%
%TD*%
%TA.AperFunction,ComponentPad*%
%ADD14C,2.500000*%
%TD*%
%TA.AperFunction,SMDPad,CuDef*%
%ADD15C,0.750000*%
%TD*%
%TA.AperFunction,ViaPad*%
%ADD16C,0.457200*%
%TD*%
%TA.AperFunction,ViaPad*%
%ADD17C,0.610000*%
%TD*%
%TA.AperFunction,Conductor*%
%ADD18C,0.355600*%
%TD*%
%TA.AperFunction,Conductor*%
%ADD19C,0.254000*%
%TD*%
%TA.AperFunction,Conductor*%
%ADD20C,0.508000*%
%TD*%
G04 APERTURE END LIST*
D10*
%TO.P,C1,2*%
%TO.N,VM*%
X-16820579Y12477416D03*
%TO.P,C1,1*%
%TO.N,$1N5794*%
X-16820579Y11077416D03*
%TD*%
D11*
%TO.P,R1,2*%
%TO.N,$1N5794*%
X-20757578Y11077416D03*
%TO.P,R1,1*%
%TO.N,GND*%
X-20757578Y12477416D03*
%TD*%
D10*
%TO.P,R2,2*%
%TO.N,VM*%
X-18852579Y12477416D03*
%TO.P,R2,1*%
%TO.N,$1N5794*%
X-18852579Y11077416D03*
%TD*%
%TO.P,C37,2*%
%TO.N,$2N1889*%
X-40380578Y55465416D03*
%TO.P,C37,1*%
%TO.N,GND*%
X-38980578Y55465416D03*
%TD*%
D11*
%TO.P,C38,2*%
%TO.N,$2N1892*%
X-34671000Y39813000D03*
%TO.P,C38,1*%
%TO.N,GND*%
X-34671000Y41213000D03*
%TD*%
%TO.P,C28,2*%
%TO.N,3V3*%
X-17390579Y54449416D03*
%TO.P,C28,1*%
%TO.N,GND*%
X-18790579Y54449416D03*
%TD*%
%TO.P,C29,2*%
%TO.N,3V3*%
X-36433770Y39842865D03*
%TO.P,C29,1*%
%TO.N,GND*%
X-36433770Y41242865D03*
%TD*%
D10*
%TO.P,C30,2*%
%TO.N,3V3*%
X-40380578Y57243416D03*
%TO.P,C30,1*%
%TO.N,GND*%
X-38980578Y57243416D03*
%TD*%
D11*
%TO.P,C39,2*%
%TO.N,OSC_IN*%
X-13892844Y52041928D03*
%TO.P,C39,1*%
%TO.N,GND*%
X-15292844Y52041928D03*
%TD*%
%TO.P,C36,2*%
%TO.N,$2N1935*%
X-21844000Y64832000D03*
%TO.P,C36,1*%
%TO.N,3V3*%
X-21844000Y66232000D03*
%TD*%
%TO.P,C35,2*%
%TO.N,NRST*%
X-14534578Y45748416D03*
%TO.P,C35,1*%
%TO.N,GND*%
X-14534578Y47148416D03*
%TD*%
D10*
%TO.P,C31,2*%
%TO.N,3V3*%
X-23941000Y60325000D03*
%TO.P,C31,1*%
%TO.N,GND*%
X-22541000Y60325000D03*
%TD*%
D11*
%TO.P,C32,2*%
%TO.N,3V3*%
X-17386804Y56203820D03*
%TO.P,C32,1*%
%TO.N,GND*%
X-18786804Y56203820D03*
%TD*%
%TO.P,C33,2*%
%TO.N,3V3*%
X-17461000Y44831000D03*
%TO.P,C33,1*%
%TO.N,GND*%
X-18861000Y44831000D03*
%TD*%
%TO.P,C34,2*%
%TO.N,3V3*%
X-24059578Y39906416D03*
%TO.P,C34,1*%
%TO.N,GND*%
X-24059578Y41306416D03*
%TD*%
%TO.P,C40,2*%
%TO.N,OSC_OUT*%
X-13834578Y49877416D03*
%TO.P,C40,1*%
%TO.N,GND*%
X-15234578Y49877416D03*
%TD*%
D10*
%TO.P,R23,2*%
%TO.N,GND*%
X-25273000Y66232000D03*
%TO.P,R23,1*%
%TO.N,$2N1935*%
X-25273000Y64832000D03*
%TD*%
D11*
%TO.P,R21,2*%
%TO.N,$2N1885*%
X-28432770Y39842865D03*
%TO.P,R21,1*%
%TO.N,GND*%
X-28432770Y41242865D03*
%TD*%
D10*
%TO.P,R19,2*%
%TO.N,3V3*%
X-18790579Y46702416D03*
%TO.P,R19,1*%
%TO.N,$2N1987*%
X-17390579Y46702416D03*
%TD*%
D11*
%TO.P,R20,2*%
%TO.N,NRST*%
X-12756579Y45748416D03*
%TO.P,R20,1*%
%TO.N,3V3*%
X-12756579Y47148416D03*
%TD*%
D10*
%TO.P,R22,2*%
%TO.N,BOOT0*%
X-23622000Y66232000D03*
%TO.P,R22,1*%
%TO.N,$2N1935*%
X-23622000Y64832000D03*
%TD*%
D12*
%TO.P,U17,100*%
%TO.N,3V3*%
X-20385087Y58756865D03*
%TO.P,U17,99*%
%TO.N,GND*%
X-20385087Y58106865D03*
%TO.P,U17,98*%
%TO.N,N/C*%
X-20385087Y57456865D03*
%TO.P,U17,97*%
X-20385087Y56806865D03*
%TO.P,U17,96*%
X-20385087Y56156865D03*
%TO.P,U17,95*%
X-20385087Y55506865D03*
%TO.P,U17,94*%
%TO.N,BOOT0*%
X-20385087Y54856865D03*
%TO.P,U17,93*%
%TO.N,N/C*%
X-20385087Y54206865D03*
%TO.P,U17,92*%
%TO.N,STEP3*%
X-20385087Y53556865D03*
%TO.P,U17,91*%
%TO.N,DIR3*%
X-20385087Y52906865D03*
%TO.P,U17,90*%
%TO.N,STEP2*%
X-20385087Y52256865D03*
%TO.P,U17,89*%
%TO.N,DIR2*%
X-20385087Y51606865D03*
%TO.P,U17,88*%
%TO.N,N/C*%
X-20385087Y50956865D03*
%TO.P,U17,87*%
X-20385087Y50306865D03*
%TO.P,U17,86*%
X-20385087Y49656865D03*
%TO.P,U17,85*%
X-20385087Y49006865D03*
%TO.P,U17,84*%
X-20385087Y48356865D03*
%TO.P,U17,83*%
X-20385087Y47706865D03*
%TO.P,U17,82*%
X-20385087Y47056865D03*
%TO.P,U17,81*%
X-20385087Y46406865D03*
%TO.P,U17,80*%
X-20385087Y45756865D03*
%TO.P,U17,79*%
X-20385087Y45106865D03*
%TO.P,U17,78*%
%TO.N,DIR1*%
X-20385087Y44456865D03*
%TO.P,U17,77*%
%TO.N,STEP1*%
X-20385087Y43806865D03*
%TO.P,U17,76*%
%TO.N,SWCLK*%
X-20385087Y43156865D03*
D13*
%TO.P,U17,75*%
%TO.N,3V3*%
X-21110087Y42431865D03*
%TO.P,U17,74*%
%TO.N,GND*%
X-21760087Y42431865D03*
%TO.P,U17,73*%
%TO.N,$2N1889*%
X-22410087Y42431865D03*
%TO.P,U17,72*%
%TO.N,SWDIO*%
X-23060087Y42431865D03*
%TO.P,U17,71*%
%TO.N,N/C*%
X-23710087Y42431865D03*
%TO.P,U17,70*%
X-24360087Y42431865D03*
%TO.P,U17,69*%
%TO.N,USART1_RX*%
X-25010087Y42431865D03*
%TO.P,U17,68*%
%TO.N,USART1_TX*%
X-25660087Y42431865D03*
%TO.P,U17,67*%
%TO.N,N/C*%
X-26310087Y42431865D03*
%TO.P,U17,66*%
X-26960087Y42431865D03*
%TO.P,U17,65*%
X-27610087Y42431865D03*
%TO.P,U17,64*%
X-28260087Y42431865D03*
%TO.P,U17,63*%
X-28910087Y42431865D03*
%TO.P,U17,62*%
X-29560087Y42431865D03*
%TO.P,U17,61*%
X-30210087Y42431865D03*
%TO.P,U17,60*%
X-30860087Y42431865D03*
%TO.P,U17,59*%
X-31510087Y42431865D03*
%TO.P,U17,58*%
X-32160087Y42431865D03*
%TO.P,U17,57*%
X-32810087Y42431865D03*
%TO.P,U17,56*%
%TO.N,USART2_RX*%
X-33460087Y42431865D03*
%TO.P,U17,55*%
%TO.N,USART2_TX*%
X-34110087Y42431865D03*
%TO.P,U17,54*%
%TO.N,N/C*%
X-34760087Y42431865D03*
%TO.P,U17,53*%
X-35410087Y42431865D03*
%TO.P,U17,52*%
X-36060087Y42431865D03*
%TO.P,U17,51*%
X-36710087Y42431865D03*
D12*
%TO.P,U17,50*%
%TO.N,3V3*%
X-37435087Y43156865D03*
%TO.P,U17,49*%
%TO.N,$2N1892*%
X-37435087Y43806865D03*
%TO.P,U17,48*%
%TO.N,SDA*%
X-37435087Y44456865D03*
%TO.P,U17,47*%
%TO.N,SCL*%
X-37435087Y45106865D03*
%TO.P,U17,46*%
%TO.N,N/C*%
X-37435087Y45756865D03*
%TO.P,U17,45*%
X-37435087Y46406865D03*
%TO.P,U17,44*%
X-37435087Y47056865D03*
%TO.P,U17,43*%
X-37435087Y47706865D03*
%TO.P,U17,42*%
X-37435087Y48356865D03*
%TO.P,U17,41*%
X-37435087Y49006865D03*
%TO.P,U17,40*%
X-37435087Y49656865D03*
%TO.P,U17,39*%
X-37435087Y50306865D03*
%TO.P,U17,38*%
X-37435087Y50956865D03*
%TO.P,U17,37*%
%TO.N,$2N1885*%
X-37435087Y51606865D03*
%TO.P,U17,36*%
%TO.N,N/C*%
X-37435087Y52256865D03*
%TO.P,U17,35*%
X-37435087Y52906865D03*
%TO.P,U17,34*%
X-37435087Y53556865D03*
%TO.P,U17,33*%
X-37435087Y54206865D03*
%TO.P,U17,32*%
%TO.N,CS1*%
X-37435087Y54856865D03*
%TO.P,U17,31*%
%TO.N,N/C*%
X-37435087Y55506865D03*
%TO.P,U17,30*%
X-37435087Y56156865D03*
%TO.P,U17,29*%
X-37435087Y56806865D03*
%TO.P,U17,28*%
%TO.N,3V3*%
X-37435087Y57456865D03*
%TO.P,U17,27*%
%TO.N,GND*%
X-37435087Y58106865D03*
%TO.P,U17,26*%
%TO.N,CS2*%
X-37435087Y58756865D03*
D13*
%TO.P,U17,25*%
%TO.N,N/C*%
X-36710087Y59481865D03*
%TO.P,U17,24*%
X-36060087Y59481865D03*
%TO.P,U17,23*%
X-35410087Y59481865D03*
%TO.P,U17,22*%
%TO.N,3V3*%
X-34760087Y59481865D03*
%TO.P,U17,21*%
%TO.N,$2N1987*%
X-34110087Y59481865D03*
%TO.P,U17,20*%
%TO.N,GND*%
X-33460087Y59481865D03*
%TO.P,U17,19*%
%TO.N,3V3*%
X-32810087Y59481865D03*
%TO.P,U17,18*%
%TO.N,N/C*%
X-32160087Y59481865D03*
%TO.P,U17,17*%
X-31510087Y59481865D03*
%TO.P,U17,16*%
X-30860087Y59481865D03*
%TO.P,U17,15*%
X-30210087Y59481865D03*
%TO.P,U17,14*%
%TO.N,NRST*%
X-29560087Y59481865D03*
%TO.P,U17,13*%
%TO.N,OSC_OUT*%
X-28910087Y59481865D03*
%TO.P,U17,12*%
%TO.N,OSC_IN*%
X-28260087Y59481865D03*
%TO.P,U17,11*%
%TO.N,3V3*%
X-27610087Y59481865D03*
%TO.P,U17,10*%
%TO.N,GND*%
X-26960087Y59481865D03*
%TO.P,U17,9*%
%TO.N,N/C*%
X-26310087Y59481865D03*
%TO.P,U17,8*%
X-25660087Y59481865D03*
%TO.P,U17,7*%
X-25010087Y59481865D03*
%TO.P,U17,6*%
%TO.N,3V3*%
X-24360087Y59481865D03*
%TO.P,U17,5*%
%TO.N,N/C*%
X-23710087Y59481865D03*
%TO.P,U17,4*%
X-23060087Y59481865D03*
%TO.P,U17,3*%
X-22410087Y59481865D03*
%TO.P,U17,2*%
X-21760087Y59481865D03*
%TO.P,U17,1*%
X-21110087Y59481865D03*
%TD*%
D14*
%TO.P,SCREW1,1*%
%TO.N,N/C*%
X-52634579Y3649416D03*
%TD*%
%TO.P,SCREW2,1*%
%TO.N,N/C*%
X-52717781Y61660057D03*
%TD*%
%TO.P,SCREW3,1*%
%TO.N,N/C*%
X-3612578Y3776416D03*
%TD*%
%TO.P,SCREW4,1*%
%TO.N,N/C*%
X-3739578Y61688416D03*
%TD*%
D15*
%TO.P,X1,1*%
%TO.N,OSC_OUT*%
X-17925832Y52042717D03*
%TO.P,X1,2*%
%TO.N,GND*%
X-16925832Y51042717D03*
%TO.P,X1,3*%
%TO.N,OSC_IN*%
X-17925832Y50042717D03*
%TO.P,X1,4*%
%TO.N,GND*%
X-18925832Y51042717D03*
%TD*%
%TO.P,CN4,1*%
%TO.N,GND*%
X-49784000Y38531000D03*
%TO.P,CN4,2*%
%TO.N,USART2_RX*%
X-48640800Y37871000D03*
%TO.P,CN4,3*%
%TO.N,USART2_TX*%
X-48640800Y36551000D03*
%TO.P,CN4,4*%
%TO.N,3V3*%
X-49784000Y35891000D03*
%TO.P,CN4,6*%
%TO.N,N/C*%
X-50927200Y36551000D03*
%TO.P,CN4,5*%
X-50927200Y37871000D03*
%TD*%
D16*
%TO.N,$1N5794*%
X-17455600Y13555400D03*
X-12235900Y34002400D03*
%TO.N,$1N9581*%
X-32949600Y36161400D03*
X-25964600Y6443400D03*
D17*
%TO.N,VIN*%
X-55081600Y29042700D03*
X-55081600Y25359700D03*
X-55081600Y26629700D03*
X-55081600Y27899700D03*
X-53811600Y27899700D03*
X-53811600Y26629700D03*
X-53811600Y25359700D03*
X-53811600Y29042700D03*
X-52541600Y29042700D03*
X-52541600Y25359700D03*
X-52541600Y26629700D03*
X-52541600Y27899700D03*
X-51271600Y27899700D03*
X-51271600Y26629700D03*
X-51271600Y25359700D03*
X-51271600Y29042700D03*
X-7710600Y14183700D03*
X-7710600Y15453700D03*
X-7710600Y16723700D03*
X-6440600Y17739700D03*
X-6440600Y16723700D03*
X-6440600Y15453700D03*
X-6440600Y14183700D03*
X-5170600Y14183700D03*
X-5170600Y15453700D03*
X-5170600Y16723700D03*
X-5170600Y17739700D03*
X-3900600Y16723700D03*
X-3900600Y15453700D03*
X-3900600Y14183700D03*
D16*
%TO.N,GND*%
X-10470600Y72864400D03*
X-11258400Y72864400D03*
X-12046200Y72864400D03*
X-12833900Y72864400D03*
X-10470600Y72058400D03*
%TO.N,$1N1980*%
X-11258400Y72058400D03*
X-12046200Y72058400D03*
%TO.N,GND*%
X-12833900Y72058400D03*
X-18929900Y72102400D03*
X-18929900Y72908400D03*
X-18142200Y72908400D03*
%TO.N,$1N1985*%
X-18142200Y72102400D03*
X-17354400Y72102400D03*
%TO.N,GND*%
X-17354400Y72908400D03*
X-16566600Y72908400D03*
X-16566600Y72102400D03*
X-27946900Y71975400D03*
X-27946900Y72781400D03*
X-27159200Y72781400D03*
%TO.N,$1N7486*%
X-27159200Y71975400D03*
X-26371400Y71975400D03*
%TO.N,GND*%
X-26371400Y72781400D03*
X-25583600Y72781400D03*
X-25583600Y71975400D03*
X-34296900Y71848400D03*
X-34296900Y72654400D03*
X-33509200Y72654400D03*
%TO.N,$1N7487*%
X-33509200Y71848400D03*
X-32721400Y71848400D03*
%TO.N,GND*%
X-32721400Y72654400D03*
X-31933600Y72654400D03*
X-31933600Y71848400D03*
X-43567900Y71848400D03*
X-43567900Y72654400D03*
X-42780200Y72654400D03*
%TO.N,$1N12752*%
X-42780200Y71848400D03*
X-41992400Y71848400D03*
%TO.N,GND*%
X-41992400Y72654400D03*
X-41204600Y72654400D03*
X-41204600Y71848400D03*
X-49409900Y71721400D03*
X-49409900Y72527400D03*
X-48622200Y72527400D03*
%TO.N,$1N12754*%
X-48622200Y71721400D03*
X-47834400Y71721400D03*
%TO.N,GND*%
X-47834400Y72527400D03*
X-47046600Y72527400D03*
X-47046600Y71721400D03*
X-13264600Y56608400D03*
X-10851600Y55592400D03*
X-10851600Y53453600D03*
X-6533600Y60672400D03*
X-6533600Y58975500D03*
X-21011600Y60926400D03*
X-21317000Y59335000D03*
X-36251600Y60418400D03*
X-36251600Y58840600D03*
X-27996600Y57116400D03*
X-25936800Y55719400D03*
X-25675300Y53346400D03*
X-42474600Y56354400D03*
X-41012200Y54664400D03*
X-41077600Y52798400D03*
X-38664600Y50258400D03*
X-39827400Y50258400D03*
X-40823600Y50258400D03*
X-47314700Y64770000D03*
X-39934600Y52798400D03*
X-39934600Y54703400D03*
X-24635300Y53346400D03*
X-24821600Y55719400D03*
X-27234600Y57116400D03*
X-12375600Y56608400D03*
X-9952600Y55592400D03*
X-9835600Y53433400D03*
X-23603600Y50984500D03*
X-26438800Y51002500D03*
X-24600500Y51002400D03*
%TO.N,3V3*%
X-40041800Y42892400D03*
X-37394600Y42130400D03*
X-25329600Y41749400D03*
X-20184800Y42384400D03*
%TO.N,GND*%
X-12756600Y51782400D03*
X-23041100Y52488700D03*
X-12375600Y48734400D03*
X-11613600Y48480400D03*
X-12756600Y50928200D03*
X-17330100Y50928400D03*
X-18598600Y53306400D03*
X-19228000Y53293600D03*
X-16058600Y54322400D03*
X-23137400Y41891800D03*
X-37902600Y56354400D03*
X-36505600Y38574400D03*
X-34247200Y38574400D03*
%TO.N,NRST*%
X-8692600Y47201800D03*
%TO.N,$2N1935*%
X-8565600Y52417400D03*
%TO.N,3V3*%
X-1453600Y50385400D03*
%TO.N,STEP3*%
X-21971000Y68072000D03*
%TO.N,DIR3*%
X-22712400Y68707000D03*
%TO.N,DIR2*%
X-33401000Y62865000D03*
%TO.N,STEP2*%
X-32692400Y62230000D03*
%TO.N,STEP1*%
X-47879000Y65278000D03*
%TO.N,DIR1*%
X-48577500Y65341500D03*
%TO.N,SDA*%
X-32893000Y40132000D03*
%TO.N,SCL*%
X-31750000Y40132000D03*
%TO.N,SDA*%
X-19315500Y37797100D03*
X-26289000Y37846000D03*
%TO.N,CS2*%
X-21706100Y38735000D03*
%TO.N,CS1*%
X-23114000Y38660600D03*
%TO.N,GND*%
X-18557600Y36248200D03*
X-24646000Y36466100D03*
X-24003000Y36195000D03*
%TO.N,*%
X-50134100Y6282100D03*
%TO.N,GND*%
X-50007100Y42096100D03*
%TO.N,*%
X-50134100Y62162100D03*
%TO.N,GND*%
X-50134100Y72322100D03*
X-50134100Y82482100D03*
X-45054100Y26602100D03*
X-47467100Y60765100D03*
X-45054100Y82482100D03*
X-39974100Y11362100D03*
X-39974100Y36762100D03*
%TO.N,*%
X-39974100Y77402100D03*
%TO.N,GND*%
X-39974100Y82482100D03*
X-34894100Y11362100D03*
X-34894100Y52002100D03*
%TO.N,*%
X-34894100Y62162100D03*
X-34894100Y77402100D03*
%TO.N,GND*%
X-34894100Y82482100D03*
X-29814100Y11362100D03*
X-29814100Y31682100D03*
X-29814100Y36762100D03*
X-29814100Y41842100D03*
X-29814100Y82482100D03*
X-24734100Y11362100D03*
X-24734100Y16442100D03*
X-24734100Y21522100D03*
X-24734100Y26602100D03*
X-24607100Y52002100D03*
X-24734100Y72322100D03*
X-24734100Y82482100D03*
X-19654100Y21522100D03*
X-19654100Y26602100D03*
X-19654100Y62162100D03*
X-19654100Y72322100D03*
%TO.N,*%
X-19654100Y77402100D03*
%TO.N,GND*%
X-19654100Y82482100D03*
%TO.N,VIN*%
X-14574100Y11362100D03*
%TO.N,GND*%
X-14407600Y26856100D03*
X-14574100Y31682100D03*
X-14574100Y36762100D03*
X-14574100Y41842100D03*
X-14574100Y82482100D03*
X-9494100Y11362100D03*
X-9494100Y21522100D03*
X-9494100Y41842100D03*
X-9494100Y52002100D03*
X-9494100Y57082100D03*
X-9494100Y72322100D03*
X-9494100Y82482100D03*
X-4414100Y41842100D03*
X-4414100Y57082100D03*
X-4414100Y67242100D03*
X-4414100Y72322100D03*
X-4414100Y77402100D03*
X-4414100Y82482100D03*
X-24257000Y34671000D03*
X-26694200Y37022100D03*
X-20775400Y57785000D03*
%TO.N,3V3*%
X-23791000Y57023000D03*
%TO.N,GND*%
X-16383000Y43053000D03*
X-17197500Y43053000D03*
X-17907000Y43053000D03*
X-18550200Y43053000D03*
X-25273000Y63627000D03*
X-24472500Y63627000D03*
X-22479000Y63754000D03*
%TO.N,$2N1935*%
X-25273000Y59817000D03*
%TO.N,GND*%
X-53467000Y55245000D03*
X-53467000Y54537800D03*
%TO.N,USART1_TX*%
X-52761600Y54537800D03*
%TO.N,GND*%
X-52761600Y55225900D03*
X-47244000Y62103000D03*
X-43434000Y58928000D03*
X-43307000Y56388000D03*
X-41656000Y49276000D03*
X-41656000Y48499600D03*
X-37973000Y49276000D03*
X-37973000Y48467400D03*
X-48133000Y42164000D03*
X-49030500Y42164000D03*
X-49898700Y43053000D03*
X-48225500Y43053000D03*
X-49061500Y43053000D03*
X-54102000Y41910000D03*
X-55105700Y41910000D03*
X-55105700Y42864600D03*
X-54102000Y42799000D03*
X-44958000Y42418000D03*
X-44958000Y43348400D03*
X-45804500Y43348400D03*
X-45847000Y42418000D03*
X-46589300Y42418000D03*
X-46609000Y43434000D03*
X-42284800Y43434000D03*
X-41441700Y43394300D03*
X-40005000Y36068000D03*
X-39974100Y37562200D03*
X-38989000Y37338000D03*
X-38199900Y37338000D03*
X-37465000Y37338000D03*
X-34036000Y33274000D03*
X-34036000Y32390800D03*
X-33999000Y31438100D03*
X-33999000Y30584600D03*
X-33274000Y30607000D03*
X-33274000Y31530700D03*
X-33274000Y32401500D03*
X-33274000Y33274000D03*
X-50038000Y21971000D03*
%TO.N,VIN*%
X-50038000Y23003500D03*
X-49149000Y22987000D03*
%TO.N,GND*%
X-49149000Y21963400D03*
X-48304200Y21963400D03*
X-48260000Y22987000D03*
X-48260000Y20955000D03*
X-48260000Y20111400D03*
X-48260000Y19177000D03*
X-48260000Y18362200D03*
X-48260000Y17305300D03*
X-47371000Y17272000D03*
X-47371000Y18311400D03*
X-47371000Y19177000D03*
X-47371000Y20066000D03*
X-47371000Y20917800D03*
X-47371000Y21887400D03*
X-47371000Y22987000D03*
X-29337000Y13208000D03*
X-29337000Y14194200D03*
X-29337000Y15240000D03*
X-29337000Y16347100D03*
X-29337000Y17193800D03*
X-32004000Y17018000D03*
X-32004000Y16105200D03*
X-32004000Y15282800D03*
X-32004000Y14315100D03*
X-32004000Y13129800D03*
X-32004000Y12258900D03*
X-31042200Y12258900D03*
X-30141100Y12258900D03*
X-29337000Y12319000D03*
X-28575000Y12319000D03*
X-28575000Y13163400D03*
X-28575000Y14224000D03*
X-28575000Y15243800D03*
X-28575000Y16256000D03*
X-28575000Y17111400D03*
X-32258000Y29718000D03*
X-32258000Y28908700D03*
X-32258000Y28013700D03*
X-29845000Y27940000D03*
X-29845000Y28860300D03*
X-29845000Y29718000D03*
X-29845000Y30553700D03*
X-30716300Y30553700D03*
X-31466200Y30553700D03*
X-32264500Y30553700D03*
X-27432000Y29845000D03*
X-27432000Y29132500D03*
X-27432000Y28358400D03*
X-27432000Y27626600D03*
X-25273500Y27626600D03*
X-25273500Y28346300D03*
X-25273500Y29120400D03*
X-25273500Y29815900D03*
X-27432000Y30607000D03*
X-26452800Y30607000D03*
X-25370200Y30607000D03*
X-24907500Y6414000D03*
X-24130000Y6477000D03*
X-23457800Y6477000D03*
X-24130000Y7239000D03*
X-23457800Y7239000D03*
X-25400000Y31242000D03*
X-23241000Y31242000D03*
X-19303500Y31242000D03*
X-15113000Y30988000D03*
X-20193000Y35941000D03*
X-15748000Y26924000D03*
X-16503400Y26924000D03*
X-17253300Y26924000D03*
X-15021800Y26924000D03*
X-14351000Y27686000D03*
X-15094300Y27686000D03*
X-15836200Y27686000D03*
X-16522200Y27686000D03*
X-17266100Y27686000D03*
X-17907000Y26162000D03*
X-17907000Y25333900D03*
X-17907000Y24511000D03*
X-18865400Y24511000D03*
X-18865400Y25398400D03*
X-18796000Y26162000D03*
X-19558000Y17907000D03*
X-18792800Y17907000D03*
X-16658000Y17907000D03*
X-18796000Y18669000D03*
X-19534600Y18669000D03*
X-20276500Y18669000D03*
X-20320000Y17907000D03*
X-20320000Y17086300D03*
X-20320000Y16247700D03*
X-20320000Y15367000D03*
X-20320000Y14360800D03*
X-21209000Y14351000D03*
X-21209000Y15376800D03*
X-21209000Y16376700D03*
X-21209000Y17145000D03*
X-21209000Y17907000D03*
X-21209000Y18669000D03*
X-17422000Y17907000D03*
X-18067100Y17907000D03*
X-18034000Y18669000D03*
X-17399000Y18669000D03*
X-20701000Y7239000D03*
X-20828000Y6422300D03*
X-21844000Y6477000D03*
X-21717000Y7218600D03*
X-20828000Y8128000D03*
X-11557000Y6604000D03*
X-10795000Y7239000D03*
X-11557000Y7874000D03*
X-10668000Y8255000D03*
X-11557000Y8890000D03*
X-10727300Y9336700D03*
X-9779000Y9779000D03*
X-9779000Y8460400D03*
X-8890000Y10160000D03*
X-8890000Y9234500D03*
X-2667000Y10287000D03*
X-2667000Y8768800D03*
X-1905000Y10287000D03*
X-1905000Y9476400D03*
X-1905000Y8605500D03*
X-2667000Y7874000D03*
X-2667000Y9512700D03*
X-2794000Y11049000D03*
X-2794000Y11726100D03*
X-1905000Y11684000D03*
X-1905000Y10962700D03*
X-9652000Y37719000D03*
X-8924400Y37719000D03*
X-8890000Y38481000D03*
X-9625900Y38481000D03*
X-5588000Y40386000D03*
X-4572000Y40386000D03*
X-3348500Y40386000D03*
X-3348500Y39760800D03*
X-3348500Y38859700D03*
X-5715000Y39624000D03*
X-5715000Y38769000D03*
X-5715000Y38115900D03*
X-5715000Y37341800D03*
X-5715000Y36688600D03*
X-5715000Y36035500D03*
X-4546200Y35908500D03*
X-3429000Y36068000D03*
X-3429000Y36957000D03*
X-3431000Y38032300D03*
X-6350000Y35941000D03*
X-6350000Y36598600D03*
X-6350000Y37251700D03*
X-6350000Y38100000D03*
X-6350000Y38860400D03*
X-6350000Y39586100D03*
X-6350000Y40457000D03*
X-2667000Y36068000D03*
X-2667000Y37070300D03*
X-2667000Y38086300D03*
X-2667000Y38872900D03*
X-2667000Y39751000D03*
X-2667000Y40457000D03*
X-7874000Y44069000D03*
X-7107400Y44069000D03*
X-3429000Y44069000D03*
X-2672500Y44069000D03*
X-8636000Y48768000D03*
X-9478100Y48768000D03*
X-10316700Y48773400D03*
X-10977900Y48773400D03*
X-10922000Y50927000D03*
X-10010300Y50927000D03*
X-9208200Y50973800D03*
X-8268600Y50973800D03*
X-11557000Y50800000D03*
X-11557000Y49883900D03*
X-11557000Y49149000D03*
X-7973300Y49576900D03*
X-8001000Y48895000D03*
X-17272000Y65024000D03*
X-17168300Y62332100D03*
X-32004000Y62992000D03*
X-32512000Y65659000D03*
X-23495000Y48641000D03*
X-24644600Y48641000D03*
X-25687500Y48641000D03*
X-26457200Y49767700D03*
X-25536300Y51083900D03*
X-25536300Y52016000D03*
X-26471700Y52016000D03*
X-23622000Y51943000D03*
X-23622000Y53340400D03*
X-37846000Y50292000D03*
X-38481000Y51181000D03*
%TO.N,$2N1885*%
X-37719000Y51943000D03*
%TO.N,GND*%
X-41656000Y50165000D03*
X-41021000Y51943000D03*
X-39838900Y51943000D03*
X-41656000Y56261000D03*
X-41656000Y55084400D03*
X-35052000Y38608000D03*
X-37253300Y38608000D03*
X-40386000Y58547000D03*
X-35160100Y56071500D03*
X-34544000Y55372000D03*
X-24511000Y57023000D03*
X-25273000Y39116000D03*
X-22479000Y38862000D03*
X-22733000Y40005000D03*
X-29464000Y38862000D03*
X-28476700Y38862000D03*
X-27401600Y38862000D03*
X-14605000Y42799000D03*
X-15748000Y43434000D03*
X-16002000Y53594000D03*
X-16696900Y56696200D03*
X-20574000Y9906000D03*
X-19812000Y10160000D03*
X-19812000Y11095200D03*
X-22225000Y9144000D03*
X-31242000Y53213000D03*
X-31242000Y50419000D03*
X-31369000Y48895000D03*
X-22733000Y6477000D03*
X-22606000Y7230500D03*
X-21844000Y8128000D03*
X-23241000Y9271000D03*
X-22837100Y8128000D03*
%TD*%
%TO.N,$1N5794*%
D18*
X-16873900Y12530800D02*
X-16820600Y12477400D01*
X-20757600Y12530800D02*
X-18852600Y12530800D01*
X-18852600Y12530800D02*
X-16873900Y12530800D01*
X-16820600Y12477400D02*
X-16820600Y12920400D01*
X-16820600Y12920400D02*
X-17455600Y13555400D01*
X-18852600Y11024100D02*
X-16873900Y11024100D01*
X-16873900Y11024100D02*
X-16820600Y11077400D01*
X-13137600Y34002400D02*
X-12235900Y34002400D01*
X-18852600Y11024100D02*
X-18852600Y9627100D01*
%TO.N,OSC_OUT*%
D19*
X-19425800Y49942600D02*
X-18775800Y49942600D01*
%TO.N,OSC_IN*%
X-17075800Y52142800D02*
X-18198200Y51020400D01*
X-18198200Y51020400D02*
X-19741600Y51020400D01*
X-19741600Y51020400D02*
X-20177900Y51456700D01*
X-20177900Y51456700D02*
X-21360200Y51456700D01*
X-15292900Y52041900D02*
X-16975000Y52041900D01*
X-16975000Y52041900D02*
X-17075800Y52142800D01*
%TO.N,OSC_OUT*%
X-18710600Y49877400D02*
X-18775800Y49942600D01*
X-15234600Y49877400D02*
X-15445900Y49877400D01*
X-15445900Y49877400D02*
X-16360100Y48963200D01*
X-16360100Y48963200D02*
X-17791600Y48963200D01*
X-17791600Y48963200D02*
X-18705700Y49877400D01*
X-18705700Y49877400D02*
X-18710600Y49877400D01*
%TO.N,3V3*%
X-20533700Y54457000D02*
X-21360200Y54457000D01*
X-20511900Y46456700D02*
X-21360200Y46456700D01*
X-23910100Y43407000D02*
X-23910100Y41455900D01*
X-23910100Y41455900D02*
X-24059600Y41306400D01*
%TO.N,GND*%
X-28432800Y41296200D02*
X-28432800Y43384400D01*
X-28432800Y43384400D02*
X-28410200Y43407000D01*
%TO.N,USART1_TX*%
X-36460000Y53457000D02*
X-37371000Y53457000D01*
X-37371000Y53457000D02*
X-39426600Y51401400D01*
X-36460000Y53956900D02*
X-37633100Y53956900D01*
X-37633100Y53956900D02*
X-38283600Y53306400D01*
%TO.N,SWDIO*%
X-36460000Y55457000D02*
X-36530700Y55386300D01*
X-36530700Y55386300D02*
X-37287800Y55386300D01*
X-37287800Y55386300D02*
X-38605700Y54068400D01*
X-51237600Y54068400D02*
X-51618600Y53687400D01*
X-38605700Y54068400D02*
X-51237600Y54068400D01*
%TO.N,3V3*%
X-22910100Y58506800D02*
X-22910100Y59281900D01*
X-22910100Y59281900D02*
X-22408600Y59783400D01*
X-19995600Y52564300D02*
X-20603100Y51956900D01*
X-20603100Y51956900D02*
X-21360200Y51956900D01*
D18*
X-24378600Y41306400D02*
X-24059600Y41306400D01*
X-25329600Y41749400D02*
X-24821600Y41749400D01*
X-24821600Y41749400D02*
X-24378600Y41306400D01*
X-18786800Y56203800D02*
X-18790600Y56200000D01*
D19*
X-18790600Y56200000D02*
X-20533700Y54457000D01*
D20*
X-18790600Y54449400D02*
X-18790600Y56200000D01*
X-18790600Y56200000D02*
X-18790600Y56207600D01*
D18*
X-18790600Y56207600D02*
X-18786800Y56203800D01*
D20*
X-18790600Y56207600D02*
X-18790600Y58070400D01*
D19*
X-36460000Y56956900D02*
X-37362000Y56956900D01*
X-18790600Y54449400D02*
X-18979600Y54449400D01*
X-18979600Y54449400D02*
X-19995600Y53433400D01*
X-19995600Y53433400D02*
X-19995600Y52564300D01*
D20*
X-27361600Y49369400D02*
X-27361600Y55465400D01*
X-18790600Y58070400D02*
X-19991500Y59271300D01*
X-19991500Y59271300D02*
X-21011600Y60291400D01*
X-21011600Y60291400D02*
X-22219600Y60291400D01*
%TO.N,NRST*%
D19*
X-12756600Y47074800D02*
X-14460900Y47074800D01*
X-14460900Y47074800D02*
X-14534600Y47148400D01*
%TO.N,OSC_OUT*%
X-21360200Y50956900D02*
X-20440000Y50956900D01*
X-20440000Y50956900D02*
X-19425800Y49942600D01*
%TO.N,NRST*%
X-14534600Y47275400D02*
X-15739600Y48480400D01*
X-14534600Y47148400D02*
X-14534600Y47275400D01*
X-20249600Y50230500D02*
X-20531500Y50512400D01*
X-20531500Y50512400D02*
X-21161900Y50512400D01*
X-15739600Y48480400D02*
X-19487600Y48480400D01*
X-19487600Y48480400D02*
X-20249600Y49242400D01*
X-20249600Y49242400D02*
X-20249600Y50230500D01*
X-12756600Y47201800D02*
X-8692600Y47201800D01*
%TO.N,$2N1935*%
X-8565600Y52417400D02*
X-8565600Y65752400D01*
X-10343600Y67530400D02*
X-23043600Y67530400D01*
X-8565600Y65752400D02*
X-10343600Y67530400D01*
%TO.N,3V3*%
D20*
X-40041800Y42892400D02*
X-43470800Y46321400D01*
D18*
X-12756600Y45695100D02*
X-1952900Y45695100D01*
%TO.N,$1N9581*%
X-32949600Y36161400D02*
X-28631600Y36161400D01*
%TO.N,3V3*%
D19*
X-27361600Y55465400D02*
X-33711600Y55465400D01*
X-33711600Y55465400D02*
X-35870600Y57624400D01*
X-35870600Y57624400D02*
X-38599600Y57624400D01*
X-38599600Y57624400D02*
X-38980600Y57243400D01*
X-37362000Y56956900D02*
X-37394600Y56989400D01*
X-37394600Y56989400D02*
X-38726600Y56989400D01*
X-38726600Y56989400D02*
X-38980600Y57243400D01*
%TO.N,$2N1889*%
X-36460000Y55956900D02*
X-37538100Y55956900D01*
X-37538100Y55956900D02*
X-38029600Y55465400D01*
X-38029600Y55465400D02*
X-38980600Y55465400D01*
%TO.N,SWCLK*%
X-51618600Y56227400D02*
X-48292400Y59553600D01*
X-48292400Y59553600D02*
X-35296600Y59553600D01*
X-35296600Y59553600D02*
X-34910100Y59167100D01*
X-34910100Y59167100D02*
X-34910100Y58506800D01*
%TO.N,DIR3*%
X-27432000Y58528800D02*
X-27410000Y58506800D01*
%TO.N,DIR2*%
X-33401000Y60833000D02*
X-33401000Y62865000D01*
%TO.N,STEP2*%
X-27910100Y58506800D02*
X-27910100Y59274000D01*
X-27910100Y59274000D02*
X-28854400Y60218300D01*
%TO.N,DIR2*%
X-32258000Y59690000D02*
X-33401000Y60833000D01*
%TO.N,STEP2*%
X-28854400Y60218300D02*
X-32131000Y60218300D01*
%TO.N,DIR2*%
X-28829000Y59690000D02*
X-32258000Y59690000D01*
X-28410200Y58506800D02*
X-28410200Y59271200D01*
X-28410200Y59271200D02*
X-28829000Y59690000D01*
%TO.N,STEP2*%
X-32131000Y60218300D02*
X-32692400Y60779600D01*
X-32692400Y60779600D02*
X-32692400Y62230000D01*
%TO.N,STEP1*%
X-47879000Y65278000D02*
X-39878000Y65278000D01*
X-39878000Y65278000D02*
X-34410200Y59810200D01*
X-34410200Y59810200D02*
X-34410200Y58506800D01*
%TO.N,DIR1*%
X-33910100Y58506800D02*
X-33980800Y58577500D01*
X-39883100Y65786000D02*
X-48133000Y65786000D01*
X-48133000Y65786000D02*
X-48577500Y65341500D01*
X-33980800Y59883700D02*
X-39883100Y65786000D01*
X-33980800Y59883700D02*
X-33980800Y58577500D01*
%TO.N,3V3*%
X-34910100Y43407000D02*
X-34910100Y42559900D01*
X-36227100Y41242900D02*
X-36433800Y41242900D01*
X-34910100Y42559900D02*
X-36227100Y41242900D01*
D18*
X-37394600Y42130400D02*
X-37321300Y42130400D01*
X-37321300Y42130400D02*
X-36433800Y41242900D01*
%TO.N,$2N1892*%
D19*
X-34544000Y41086000D02*
X-34410200Y41219800D01*
X-34410200Y41219800D02*
X-34410200Y43407000D01*
%TO.N,SDA*%
X-32893000Y40132000D02*
X-33909000Y41148000D01*
X-33909000Y41148000D02*
X-33909000Y42648500D01*
%TO.N,SCL*%
X-33410200Y43407000D02*
X-33410200Y41792200D01*
X-33410200Y41792200D02*
X-31750000Y40132000D01*
%TO.N,SDA*%
X-19315500Y37797100D02*
X-26240100Y37797100D01*
X-26240100Y37797100D02*
X-26289000Y37846000D01*
%TO.N,CS2*%
X-22910100Y42669500D02*
X-22910100Y43407000D01*
X-21706100Y41465600D02*
X-22910100Y42669500D01*
X-21706100Y38735000D02*
X-21706100Y41465600D01*
%TO.N,CS1*%
X-25910100Y41456700D02*
X-25910100Y43407000D01*
X-23114000Y38660600D02*
X-23680400Y39227000D01*
X-23680400Y39227000D02*
X-24625300Y39227000D01*
X-24625300Y39227000D02*
X-24789000Y39390700D01*
X-24789000Y39390700D02*
X-24789000Y40335600D01*
X-24789000Y40335600D02*
X-25910100Y41456700D01*
%TO.N,GND*%
X-23749000Y35560000D02*
X-24003000Y35814000D01*
X-24003000Y35814000D02*
X-24003000Y36195000D01*
X-14605000Y36068000D02*
X-14605000Y36731200D01*
X-14605000Y36731200D02*
X-14574100Y36762100D01*
%TO.N,3V3*%
D20*
X-20482600Y59271300D02*
X-19991500Y59271300D01*
X-27361600Y55465400D02*
X-26472600Y56354400D01*
X-26472600Y56354400D02*
X-23399500Y56354400D01*
X-23399500Y56354400D02*
X-20482600Y59271300D01*
D19*
X-23410000Y58506800D02*
X-23410000Y57404000D01*
X-23410000Y57404000D02*
X-23791000Y57023000D01*
%TO.N,GND*%
X-23410000Y43407000D02*
X-23368000Y43365000D01*
X-23368000Y42122400D02*
X-23137400Y41891800D01*
X-23368000Y43365000D02*
X-23368000Y42122400D01*
X-36460000Y56457000D02*
X-37800000Y56457000D01*
X-37800000Y56457000D02*
X-37902600Y56354400D01*
X-21360200Y52457000D02*
X-23009400Y52457000D01*
X-23009400Y52457000D02*
X-23041100Y52488700D01*
%TO.N,3V3*%
X-19071400Y45016200D02*
X-20511900Y46456700D01*
X-21289500Y46886100D02*
X-21360200Y46956900D01*
X-18518900Y46886100D02*
X-21289500Y46886100D01*
X-20184800Y42384400D02*
X-16067200Y42384400D01*
X-16067200Y42384400D02*
X-12756600Y45695100D01*
D18*
X-20184800Y42384400D02*
X-18662100Y43907100D01*
X-18662100Y43907100D02*
X-18662100Y45241900D01*
D20*
X-20184800Y42384400D02*
X-20376600Y42384400D01*
X-20376600Y42384400D02*
X-27361600Y49369400D01*
D19*
X-18591700Y47956900D02*
X-21360200Y47956900D01*
X-17337200Y46702400D02*
X-17361200Y46726400D01*
X-17361200Y46726400D02*
X-18591700Y47956900D01*
X-21082000Y64070000D02*
X-21844000Y64832000D01*
X-22408600Y59783400D02*
X-22408600Y60291400D01*
X-21082000Y61807000D02*
X-21082000Y64070000D01*
%TO.N,$2N1935*%
X-21844000Y66232000D02*
X-21897300Y66285400D01*
X-21897300Y66285400D02*
X-23622000Y66285400D01*
X-23622000Y66285400D02*
X-24186600Y66285400D01*
X-24186600Y66285400D02*
X-25273000Y66285400D01*
X-24186600Y66387400D02*
X-24186600Y66285400D01*
X-23043600Y67530400D02*
X-24186600Y66387400D01*
%TO.N,STEP3*%
X-21971000Y68072000D02*
X-26585400Y68072000D01*
X-26585400Y68072000D02*
X-26839400Y67818000D01*
X-26839400Y67818000D02*
X-26839400Y58577500D01*
X-26839400Y58577500D02*
X-26910100Y58506800D01*
%TO.N,DIR3*%
X-22712400Y68707000D02*
X-27178000Y68707000D01*
X-27178000Y68707000D02*
X-27432000Y68453000D01*
X-27432000Y68453000D02*
X-27432000Y58528800D01*
%TO.N,3V3*%
X-22408600Y60480400D02*
X-21708600Y61180400D01*
X-21708600Y61180400D02*
X-21082000Y61807000D01*
X-23941000Y60325000D02*
X-23410000Y59793900D01*
X-23410000Y59793900D02*
X-23410000Y58506800D01*
%TO.N,$2N1935*%
X-23622000Y64778600D02*
X-23622000Y63373000D01*
X-23622000Y63373000D02*
X-25910100Y61084900D01*
X-25910100Y61084900D02*
X-25910100Y58506800D01*
%TO.N,$1N5794*%
D18*
X-21844000Y25296000D02*
X-13137600Y34002400D01*
%TO.N,$1N9581*%
X-28631600Y36161400D02*
X-24003000Y31532800D01*
X-24003000Y31532800D02*
X-24003000Y8405000D01*
X-24003000Y8405000D02*
X-25964600Y6443400D01*
%TO.N,GND*%
D19*
X-22936600Y47456700D02*
X-23114000Y47634100D01*
X-23114000Y47634100D02*
X-23114000Y48387000D01*
X-21360200Y47456700D02*
X-22936600Y47456700D01*
%TO.N,3V3*%
D18*
X-1952900Y45695100D02*
X-1453600Y46194400D01*
X-1453600Y46194400D02*
X-1453600Y50385400D01*
%TO.N,$1N5794*%
X-18852600Y9627100D02*
X-19589600Y8890000D01*
X-19589600Y8890000D02*
X-20828000Y8890000D01*
X-20828000Y8890000D02*
X-21844000Y9906000D01*
X-21844000Y9906000D02*
X-21844000Y25296000D01*
%TO.N,USART1_TX*%
D19*
X-38283600Y53306400D02*
X-49182600Y53306400D01*
X-49182600Y53306400D02*
X-51341600Y51147400D01*
X-51341600Y51147400D02*
X-51618600Y51147400D01*
X-39426600Y51401400D02*
X-48420600Y51401400D01*
X-48420600Y51401400D02*
X-51214600Y48607400D01*
X-51214600Y48607400D02*
X-51618600Y48607400D01*
%TO.N,3V3*%
D20*
X-52591000Y46321400D02*
X-54158600Y47889000D01*
X-54158600Y47889000D02*
X-54158600Y48607400D01*
%TO.N,USART2_TX*%
D18*
X-38100000Y41656000D02*
X-41529000Y38227000D01*
X-41529000Y38227000D02*
X-46149900Y38227000D01*
X-46149900Y38227000D02*
X-46384000Y38461000D01*
%TO.N,USART2_RX*%
X-46384000Y35941000D02*
X-48514000Y35941000D01*
X-41148000Y39751000D02*
X-38989000Y41910000D01*
X-38989000Y41910000D02*
X-38989000Y46482000D01*
X-36479900Y47476700D02*
X-36460000Y47456700D01*
X-38989000Y46482000D02*
X-37994300Y47476700D01*
X-37994300Y47476700D02*
X-36479900Y47476700D01*
%TO.N,USART2_TX*%
X-36460000Y46956900D02*
X-37371100Y46956900D01*
X-37371100Y46956900D02*
X-38100000Y46228000D01*
X-38100000Y46228000D02*
X-38100000Y41656000D01*
%TO.N,USART2_RX*%
X-48133000Y39751000D02*
X-41148000Y39751000D01*
X-48514000Y35941000D02*
X-49276000Y36703000D01*
X-49276000Y36703000D02*
X-49276000Y38608000D01*
X-49276000Y38608000D02*
X-48133000Y39751000D01*
%TO.N,3V3*%
D20*
X-43851100Y41619900D02*
X-44450000Y41021000D01*
X-44450000Y41021000D02*
X-46384000Y41021000D01*
X-43470800Y46321400D02*
X-43851100Y46321400D01*
X-43851100Y46321400D02*
X-52591000Y46321400D01*
X-43851100Y46321400D02*
X-43851100Y41619900D01*
D19*
X-17361200Y46726400D02*
X-19071400Y45016200D01*
%TO.N,*%
X-32910100Y43407000D02*
X-32893000Y43389900D01*
X-32893000Y43389900D02*
X-32893000Y42164000D01*
X-32893000Y42164000D02*
X-32321500Y41592500D01*
X-32410200Y43407000D02*
X-32385000Y43381800D01*
X-32385000Y43381800D02*
X-32385000Y42418000D01*
X-31910100Y43407000D02*
X-31877000Y43373900D01*
X-31877000Y43373900D02*
X-31877000Y42418000D01*
X-31410200Y43407000D02*
X-31369000Y43365800D01*
X-31369000Y43365800D02*
X-31369000Y42418000D01*
X-31369000Y42418000D02*
X-29527500Y40576500D01*
X-21360200Y44956900D02*
X-20701000Y44297700D01*
X-20701000Y44297700D02*
X-20701000Y44069000D01*
X-21360200Y45456700D02*
X-20437700Y45456700D01*
X-20437700Y45456700D02*
X-20066000Y45085000D01*
X-20066000Y45085000D02*
X-20066000Y44069000D01*
X-21360200Y56956900D02*
X-20386100Y56956900D01*
X-20386100Y56956900D02*
X-20066000Y57277000D01*
X-21360200Y56457000D02*
X-19997000Y56457000D01*
X-19997000Y56457000D02*
X-19685000Y56769000D01*
X-25908000Y40005000D02*
X-26410000Y40507000D01*
X-26410000Y40507000D02*
X-26410000Y43407000D01*
X-26543000Y39497000D02*
X-26910100Y39864100D01*
X-26910100Y39864100D02*
X-26910100Y43407000D01*
X-27410000Y40640000D02*
X-27410000Y43407000D01*
X-30353000Y40894000D02*
X-30353000Y40005000D01*
X-31877000Y42418000D02*
X-30353000Y40894000D01*
X-31115000Y41148000D02*
X-31115000Y39624000D01*
X-31115000Y41148000D02*
X-32385000Y42418000D01*
X-36460000Y44956900D02*
X-36449000Y44945900D01*
X-36449000Y44945900D02*
X-36449000Y44196000D01*
X-36460000Y45956900D02*
X-35415900Y45956900D01*
X-35052000Y45593000D02*
X-35052000Y44704000D01*
X-35415900Y45956900D02*
X-35052000Y45593000D01*
X-36587000Y45329700D02*
X-37592000Y45329700D01*
X-36460000Y45456800D02*
X-36587000Y45329700D01*
X-37592000Y45329700D02*
X-37693600Y45228100D01*
X-37693600Y45228100D02*
X-37693600Y44118000D01*
X-37693600Y44118000D02*
X-37173800Y43598200D01*
X-37173800Y43598200D02*
X-37211000Y43561000D01*
X-35941000Y43815000D02*
X-35941000Y43180000D01*
X-35941000Y43815000D02*
X-35052000Y44704000D01*
%TO.N,GND*%
X-18775800Y52142800D02*
X-18598600Y52320100D01*
X-18598600Y52320100D02*
X-18598600Y53306400D01*
X-18775800Y52142800D02*
X-18775800Y52841500D01*
X-18775800Y52841500D02*
X-19228000Y53293600D01*
X-17075800Y50674100D02*
X-17075800Y49942600D01*
X-17330100Y50928400D02*
X-17075800Y50674100D01*
X-17330100Y50928400D02*
X-14732000Y50928400D01*
%TD*%
M02*
