M48
; DRILL file KiCad 10.99.0-unknown date 2026-08-12T15:21:34
; FORMAT={-:-/ absolute / metric / decimal}
; #@! TF.CreationDate,2026-08-12T15:21:34+08:00
; #@! TF.GenerationSoftware,Kicad,Pcbnew,10.99.0-unknown
; #@! TF.FileFunction,MixedPlating,1,4
FMAT,2
METRIC
; #@! TA.AperFunction,Plated,PTH,ViaDrill
T1C0.305
; #@! TA.AperFunction,Plated,PTH,ComponentDrill
T2C1.200
%
G90
G05
T1
X0.841Y38.584
X0.943Y90.937
X0.943Y85.573
X0.943Y80.082
X0.943Y75.668
X0.943Y70.262
X0.943Y64.327
X0.943Y57.78
X0.943Y53.873
X0.943Y50.141
X1.019Y10.343
X1.019Y7.965
X1.019Y5.769
X1.019Y3.391
X1.07Y44.781
X1.527Y32.426
X1.527Y27.458
X3.215Y1.017
X4.712Y44.856
X4.712Y38.584
X5.593Y1.017
X7.172Y12.961
X7.789Y1.017
X7.789Y-1.179
X7.789Y-3.557
X7.789Y-5.753
X7.95Y48.784
X8.156Y66.752
X8.156Y60.135
X8.156Y52.374
X8.588Y44.934
X8.842Y70.08
X9.55Y12.961
X9.579Y16.613
X9.807Y45.619
X9.985Y-1.179
X9.985Y-3.557
X9.985Y-5.753
X10.112Y46.915
X10.167Y1.017
X10.188Y36.45
X10.396Y94.997
X10.987Y97.232
X11.001Y45.975
X11.227Y72.264
X11.611Y47.169
X11.746Y12.961
X11.865Y93.194
X11.966Y28.957
X12.363Y1.017
X12.363Y-1.179
X12.363Y-3.557
X12.363Y-5.753
X13.365Y97.232
X13.617Y16.613
X13.669Y94.997
X14.1Y45.061
X14.124Y12.961
X14.26Y93.194
X14.559Y-1.179
X14.559Y-3.557
X14.559Y-5.753
X14.741Y1.017
X15.116Y31.776
X15.561Y97.232
X15.813Y24.588
X15.813Y23.797
X16.284Y72.264
X16.333Y33.799
X16.36Y94.997
X16.585Y45.061
X16.792Y41.511
X16.816Y93.194
X16.937Y1.017
X16.937Y-1.179
X16.937Y-3.557
X16.937Y-5.753
X16.987Y7.233
X17.58Y27.254
X17.58Y23.623
X17.871Y36.755
X17.939Y97.232
X18.088Y11.075
X18.088Y10.379
X18.494Y28.398
X18.633Y31.624
X18.71Y33.799
X19.133Y-1.179
X19.133Y-3.557
X19.133Y-5.753
X19.18Y94.972
X19.314Y1.017
X19.408Y92.635
X19.688Y72.518
X20.018Y81.59
X20.018Y79.147
X20.043Y12.777
X20.069Y10.618
X20.135Y97.232
X20.248Y36.755
X20.309Y23.648
X20.436Y26.417
X20.487Y28.601
X20.871Y55.555
X20.871Y53.177
X20.871Y50.981
X20.871Y48.603
X20.882Y3.201
X20.907Y33.799
X21.011Y31.624
X21.245Y92.051
X21.245Y86.807
X21.415Y74.398
X21.511Y-1.179
X21.511Y-3.557
X21.511Y-5.753
X21.72Y76.328
X21.934Y80.417
X22.025Y20.677
X22.183Y12.777
X22.445Y36.755
X22.513Y97.232
X22.687Y23.648
X22.814Y26.417
X22.865Y28.601
X23.207Y31.624
X23.284Y33.799
X23.315Y79.097
X23.345Y83.999
X23.345Y81.586
X23.396Y60.732
X23.61Y3.201
X23.625Y95.276
X23.707Y-1.179
X23.707Y-3.557
X23.707Y-5.753
X24.018Y70.994
X24.672Y55.555
X24.672Y53.177
X24.672Y50.981
X24.672Y48.603
X24.709Y97.232
X24.819Y20.626
X24.822Y36.755
X24.883Y23.648
X24.92Y59.386
X24.95Y12.777
X25.01Y26.417
X25.061Y28.601
X25.089Y83.999
X25.481Y33.799
X25.584Y31.624
X25.784Y92.787
X25.806Y3.201
X25.809Y80.417
X25.86Y11.71
X25.941Y85.777
X25.999Y73.636
X26.085Y-1.179
X26.085Y-3.557
X26.085Y-5.753
X26.395Y70.994
X26.525Y83.999
X27.013Y90.65
X27.013Y88.425
X27.087Y97.232
X27.261Y23.648
X27.388Y26.417
X27.439Y28.601
X27.623Y81.586
X27.644Y79.097
X27.841Y94.565
X27.858Y33.799
X27.913Y19.274
X27.913Y14.277
X28.184Y3.201
X28.197Y85.777
X28.243Y43.601
X28.243Y39.562
X28.362Y83.999
X28.377Y73.636
X28.578Y60.377
X28.592Y70.994
X28.629Y55.297
X28.629Y52.53
X28.781Y46.407
X28.832Y66.32
X28.908Y92.787
X29.051Y9.628
X29.06Y5.31
X29.213Y1.957
X29.283Y97.232
X29.893Y1.957
X30.054Y33.799
X30.153Y28.834
X30.153Y26.456
X30.153Y24.26
X30.153Y21.882
X30.38Y3.201
X30.381Y14.544
X30.381Y12.347
X30.381Y9.97
X30.508Y67.59
X30.573Y73.636
X30.686Y94.845
X30.728Y83.999
X30.788Y81.865
X30.969Y70.994
X31.324Y92.787
X31.509Y79.097
X31.524Y48.261
X31.661Y97.232
X32.083Y56.668
X32.432Y42.947
X32.432Y40.57
X32.432Y38.373
X32.432Y35.996
X32.432Y33.799
X32.758Y3.201
X32.95Y73.636
X32.982Y86.384
X33.226Y28.758
X33.226Y26.38
X33.226Y24.184
X33.226Y21.806
X33.226Y14.432
X33.226Y12.054
X33.226Y9.858
X33.226Y7.48
X33.837Y81.865
X33.857Y97.232
X34.344Y32.742
X34.628Y42.947
X34.628Y40.57
X34.909Y79.097
X34.965Y44.934
X34.979Y51.207
X34.99Y67.198
X34.99Y66.484
X35.029Y33.529
X35.167Y86.384
X35.715Y32.234
X35.766Y13.162
X35.766Y10.784
X35.766Y8.588
X35.766Y6.21
X36.235Y97.232
X36.477Y32.869
X36.72Y81.865
X37.006Y42.947
X37.006Y40.57
X37.036Y4.959
X37.163Y33.808
X37.186Y73.672
X37.186Y71.68
X37.343Y44.934
X37.429Y63.298
X37.48Y60.504
X37.48Y58.307
X37.48Y55.93
X37.48Y53.733
X37.544Y84.329
X37.734Y66.168
X37.874Y32.538
X38.521Y48.286
X38.56Y33.681
X38.662Y13.187
X38.662Y10.81
X38.662Y8.614
X38.662Y6.236
X38.795Y79.097
X39.093Y87.021
X39.202Y42.947
X39.246Y33.046
X39.539Y44.934
X39.564Y73.672
X39.564Y71.68
X39.676Y58.307
X39.676Y55.93
X39.676Y53.733
X39.806Y63.298
X39.857Y60.504
X39.964Y32.543
X40.111Y66.168
X40.344Y87.707
X40.451Y68.556
X40.65Y33.173
X40.712Y81.865
X40.899Y48.286
X41.362Y34.215
X41.58Y42.947
X41.76Y73.672
X41.76Y71.68
X41.917Y44.934
X42.003Y63.298
X42.054Y60.504
X42.054Y58.307
X42.054Y55.93
X42.054Y53.733
X42.09Y87.707
X42.226Y33.953
X42.308Y66.168
X42.829Y68.556
X42.911Y31.903
X42.929Y1.957
X43.095Y48.286
X43.597Y31.319
X43.737Y79.097
X43.742Y1.957
X43.776Y42.947
X43.97Y87.707
X44.113Y44.934
X44.138Y73.672
X44.138Y71.68
X44.25Y58.307
X44.25Y55.93
X44.25Y53.733
X44.283Y30.557
X44.38Y63.298
X44.431Y60.504
X44.685Y66.168
X44.925Y83.522
X45.026Y68.556
X45.215Y81.941
X45.473Y48.286
X46.154Y42.947
X46.334Y73.672
X46.334Y71.68
X46.491Y44.934
X46.628Y58.307
X46.628Y55.93
X46.628Y53.733
X46.882Y66.168
X47.106Y25.68
X47.233Y-5.435
X47.403Y68.556
X47.665Y79.097
X47.669Y48.286
X47.704Y27.814
X47.716Y22.734
X47.818Y83.522
X48.35Y42.947
X48.42Y29.008
X48.517Y81.865
X48.687Y44.934
X48.712Y73.672
X48.712Y71.68
X49.154Y68.581
X49.259Y66.168
X49.484Y25.68
X49.533Y91.746
X49.611Y-5.435
X49.685Y93.879
X49.685Y60.635
X49.685Y58.257
X49.685Y56.061
X49.685Y53.683
X49.761Y29.008
X49.765Y27.814
X50.047Y48.286
X50.093Y22.734
X50.728Y42.947
X50.774Y85.294
X50.774Y83.522
X50.908Y73.672
X50.908Y71.68
X51.064Y44.934
X51.35Y68.581
X51.362Y94.972
X51.382Y79.097
X51.456Y66.168
X51.616Y92.813
X51.68Y25.68
X51.807Y-5.435
X52.243Y48.286
X52.29Y22.734
X52.474Y28.449
X52.632Y85.294
X52.907Y81.865
X53.285Y73.672
X53.285Y71.68
X53.343Y93.397
X53.728Y68.581
X53.833Y66.168
X53.987Y86.719
X54.038Y90.152
X54.058Y25.68
X54.079Y94.997
X54.185Y-5.435
X54.284Y27.814
X54.333Y85.296
X54.333Y83.694
X54.667Y22.734
X54.757Y46.401
X54.993Y79.097
X55.121Y6.224
X55.271Y5.104
X55.309Y14.24
X55.324Y3.07
X55.472Y3.933
X55.482Y73.672
X55.482Y71.68
X55.705Y0.661
X55.756Y93.473
X56.061Y15.52
X56.353Y6.034
X56.365Y34.331
X56.365Y32.861
X56.365Y31.392
X56.365Y29.922
X56.365Y2.058
X56.442Y-0.024
X56.518Y40.453
X56.518Y38.983
X56.518Y37.513
X56.518Y36.044
X56.594Y6.884
X56.67Y67.467
X56.67Y65.09
X56.67Y62.893
X56.67Y60.516
X56.696Y53.163
X56.95Y1.347
X56.998Y13.499
X57.585Y95.022
X57.585Y7.926
X57.684Y11.759
X57.773Y6.768
X57.859Y73.672
X57.859Y71.68
X57.968Y31.7
X58.177Y10.296
X58.245Y93.524
X58.327Y9.176
X58.68Y7.853
X58.855Y64.699
X58.855Y62.321
X58.855Y60.125
X58.855Y57.747
X58.883Y30.837
X59.428Y79.097
X59.566Y51.039
X59.566Y48.23
X59.566Y45.442
X59.693Y31.776
X60.056Y73.672
X60.056Y71.68
X60.226Y95.124
X60.379Y30.684
X60.521Y93.524
X60.683Y83.999
X60.709Y88.037
X61.09Y82.805
X61.141Y31.776
X61.161Y61.452
X61.161Y59.075
X61.161Y56.878
X61.161Y54.5
X61.43Y87.291
X61.826Y30.684
X61.852Y83.592
X62.433Y73.672
X62.433Y71.68
X62.512Y31.802
X62.759Y95.124
X62.903Y84.034
X62.903Y82.805
X63.198Y30.684
X63.325Y93.803
X63.401Y52.427
X63.477Y61.478
X63.477Y58.04
X63.554Y86.742
X63.554Y85.517
X63.96Y33.097
X64.011Y79.097
X64.036Y38.914
X64.138Y48.642
X64.163Y44.857
X64.417Y1.017
X64.717Y84.034
X64.717Y82.805
X64.883Y40.285
X65.744Y93.803
X66.195Y40.783
X66.195Y39.313
X66.195Y37.843
X66.195Y36.374
X66.531Y84.034
X66.531Y82.805
X66.779Y86.209
X66.805Y33.681
X66.83Y34.469
X66.906Y32.564
X67.033Y31.548
X67.44Y79.097
X67.516Y48.083
X67.546Y95.192
X67.592Y41.098
X68.345Y84.034
X68.345Y82.805
X68.461Y93.803
X68.507Y85.726
X68.761Y62.358
X69.396Y92.127
X69.446Y87.275
X69.777Y89.282
X69.853Y26.976
X70.005Y47.042
X70.031Y44.73
X70.081Y50.979
X70.158Y84.034
X70.158Y82.805
X70.377Y57.846
X70.805Y71.402
X71.291Y95.192
X71.402Y43.105
X71.421Y44.73
X71.604Y34.316
X71.604Y32.056
X71.713Y93.803
X71.834Y90.356
X71.834Y88.037
X71.846Y79.071
X71.961Y49.531
X71.972Y84.034
X71.972Y82.805
X72.08Y58.58
X72.266Y26.366
X72.681Y85.802
X72.748Y53.265
X73.104Y60.834
X73.183Y71.402
X73.372Y69.519
X73.421Y67.531
X73.573Y64.441
X73.786Y84.034
X73.786Y82.805
X73.841Y51.563
X73.901Y47.183
X74.73Y95.192
X74.73Y93.702
X75.009Y25.477
X75.161Y22.455
X75.238Y85.802
X75.314Y47.677
X75.379Y71.402
X75.599Y84.034
X75.599Y82.805
X75.749Y69.519
X75.798Y67.531
X75.822Y48.947
X75.898Y19.153
X75.951Y64.441
X76.355Y47.016
X76.392Y56.059
X76.519Y53.773
X76.519Y51.639
X76.635Y62.206
X76.685Y94.718
X76.685Y93.584
X77.346Y34.291
X77.413Y82.805
X77.59Y79.071
X77.727Y48.947
X77.757Y71.402
X77.905Y31.014
X77.946Y69.519
X77.995Y67.531
X78.147Y64.441
X78.336Y22.785
X78.387Y35.307
X78.498Y85.961
X78.734Y31.556
X78.77Y56.059
X78.897Y53.773
X78.897Y51.639
X79.581Y43.105
X79.86Y62.282
X79.898Y46.762
X79.953Y71.402
X80.323Y69.519
X80.373Y67.531
X80.394Y35.51
X80.462Y79.071
X80.525Y64.441
X80.684Y85.961
X80.826Y93.219
X80.966Y56.059
X81.06Y41.84
X81.093Y53.773
X81.093Y51.639
X81.283Y29.719
X81.33Y62.282
X82.275Y46.762
X82.331Y71.402
X82.52Y69.519
X82.569Y67.531
X82.721Y64.441
X82.8Y62.282
X82.869Y85.961
X82.985Y23.877
X83.035Y92.94
X83.323Y42.317
X83.344Y56.059
X83.416Y79.071
X83.471Y53.773
X83.471Y51.639
X84.026Y94.718
X84.178Y3.354
X84.269Y62.282
X84.472Y46.762
X84.527Y71.402
X84.597Y0.534
X84.644Y92.692
X84.712Y59.344
X84.763Y29.719
X84.897Y69.519
X84.946Y67.531
X85.099Y64.441
X85.55Y22.531
X85.626Y41.835
X85.626Y37.453
X85.626Y34.038
X85.626Y30.583
X86.033Y85.447
X86.033Y84.258
X86.033Y82.822
X86.033Y81.038
X86.033Y79.105
X86.058Y43.257
X86.672Y95.022
X86.849Y46.762
X86.904Y71.402
X87.094Y69.519
X87.143Y67.531
X87.295Y64.441
X87.811Y81.489
X87.861Y79.732
X87.887Y19.076
X88.127Y39.095
X88.127Y36.718
X88.127Y34.521
X88.127Y32.144
X88.127Y29.948
X88.573Y78.004
X88.573Y77.115
X88.573Y58.7
X88.573Y58.03
X88.623Y95.022
X88.655Y43.257
X89.182Y52.325
X89.182Y24.131
X89.473Y81.489
X89.473Y79.732
X89.631Y51.876
X89.672Y69.519
X89.672Y67.531
X89.672Y64.441
X90.071Y17.4
X90.324Y36.718
X90.324Y34.521
X90.324Y32.144
X90.439Y59.031
X90.489Y57.278
X90.505Y29.948
X90.554Y41.657
X91.544Y88.469
X91.582Y55.17
X91.621Y91.72
X91.849Y90.146
X91.869Y69.519
X91.869Y67.531
X91.869Y64.441
X91.951Y3.76
X92.027Y92.635
X92.179Y82.018
X92.179Y81.052
X92.383Y87.961
X92.687Y39.371
X92.701Y36.718
X92.701Y34.521
X92.701Y32.144
X92.701Y29.948
X92.816Y59.031
X92.867Y57.278
X92.941Y91.873
X93.068Y80.488
X93.094Y81.535
X93.145Y22.531
X93.322Y18.924
X93.334Y93.092
X93.63Y53.451
X93.959Y55.17
X94.135Y43.816
X94.161Y81.535
X94.161Y80.488
X94.161Y79.449
X94.246Y69.519
X94.246Y67.531
X94.246Y64.441
X94.582Y93.092
X94.898Y36.718
X94.898Y34.521
X94.898Y32.144
X94.923Y92.127
X95.013Y59.031
X95.063Y57.278
X95.075Y23.369
X95.079Y29.948
X95.087Y51.665
X95.253Y81.535
X95.253Y80.488
X95.253Y79.449
X96.008Y53.451
X96.093Y92.127
X96.156Y55.17
X96.32Y85.929
X96.443Y69.519
X96.443Y67.531
X96.443Y64.441
X96.572Y93.092
X97.182Y85.929
X97.275Y34.521
X97.275Y32.144
X97.39Y59.031
X97.437Y83.262
X97.441Y57.278
X97.465Y51.665
X97.513Y40.362
X97.539Y23.855
X97.539Y21.478
X97.539Y19.281
X97.539Y16.904
X97.726Y93.092
X97.869Y84.151
X98.204Y53.451
X98.402Y26.163
X98.402Y25.299
X98.533Y55.17
X98.82Y69.519
X98.82Y67.531
X98.82Y64.441
X99.04Y93.092
X99.139Y78.411
X99.545Y47.88
X99.587Y59.031
X99.661Y51.665
X99.799Y78.614
X100.206Y93.092
X100.485Y57.049
X100.582Y53.451
X100.587Y37.06
X100.765Y22.277
X101.49Y21.78
X101.628Y46.508
X101.964Y59.031
X101.984Y54.636
X102.009Y14.657
X102.035Y64.415
X102.038Y51.665
X102.111Y48.794
X102.314Y57.1
X102.517Y69.75
X102.517Y67.565
X102.619Y30.811
X102.619Y30.166
X102.807Y76.531
X102.847Y16.562
X103.176Y83.108
X103.305Y81.662
X103.305Y80.621
X103.305Y79.452
X103.305Y78.411
X103.458Y89.546
X103.458Y88.682
X103.508Y43.994
X103.533Y93.397
X103.66Y77.293
X103.836Y46.508
X103.889Y83.872
X103.889Y83.108
X103.99Y95.022
X104.055Y21.653
X104.16Y59.031
X104.194Y56.313
X104.219Y25.375
X104.27Y26.239
X104.371Y37.212
X104.371Y33.505
X104.6Y89.546
X104.6Y88.723
X104.602Y83.108
X104.621Y76.531
X105.057Y67.336
X105.329Y95.022
X105.35Y28.696
X105.492Y77.293
X105.908Y29.909
X106.226Y18.01
X106.302Y41.149
X106.434Y78.345
X106.434Y76.531
X106.48Y89.028
X106.505Y83.389
X106.505Y68.708
X107.089Y45.823
X107.103Y95.022
X107.323Y77.293
X107.496Y46.889
X107.496Y35.485
X107.496Y16.816
X107.546Y51.715
X107.775Y64.085
X107.864Y93.422
X107.877Y50.217
X108.181Y80.163
X108.248Y78.345
X108.248Y76.531
X108.592Y83.389
X108.74Y37.212
X108.761Y81.874
X108.867Y88.653
X108.867Y86.082
X108.893Y41.53
X109.126Y49.226
X109.172Y39.93
X109.172Y29.922
X109.254Y27.642
X109.263Y93.422
X109.384Y95.022
X109.528Y81.027
X109.528Y79.224
X109.75Y7.451
X110.163Y11.685
X110.188Y48.972
X110.663Y93.422
X110.772Y30.252
X110.975Y81.874
X110.975Y80.189
X111.153Y40.692
X111.407Y24.868
X111.407Y22.447
X111.419Y69.8
X111.475Y95.022
X111.534Y50.801
X111.632Y27.642
X111.632Y11.685
X111.763Y44.959
X111.763Y43.664
X111.814Y83.186
X112.023Y23.657
X112.062Y93.422
X112.068Y33.554
X112.068Y17.192
X112.068Y14.253
X112.068Y12.783
X112.105Y4.852
X112.128Y7.451
X112.347Y37.39
X112.449Y49.099
X112.626Y70.867
X112.638Y24.868
X112.638Y22.447
X112.753Y81.865
X112.753Y80.163
X113.102Y11.685
X113.261Y95.022
X113.462Y93.422
X113.668Y30.278
X113.828Y27.642
X114.125Y69.8
X114.227Y75.528
X114.227Y74.728
X114.324Y7.451
X114.483Y4.852
X114.572Y11.685
X114.785Y41.2
X114.862Y93.422
X114.912Y75.528
X114.912Y74.728
X114.919Y89.841
X115.344Y51.207
X115.42Y39.93
X115.522Y75.845
X115.522Y75.165
X115.71Y67.029
X115.725Y92.457
X115.801Y18.314
X115.819Y1.383
X115.954Y58.497
X116.005Y36.983
X116.055Y41.962
X116.182Y57.38
X116.206Y27.642
X116.233Y47.956
X116.309Y39.015
X116.36Y67.029
X116.665Y38.152
X116.679Y4.852
X116.702Y7.451
X116.826Y51.207
X116.826Y49.64
X117.198Y91.035
X117.757Y1.169
X117.757Y-0.659
X118.011Y75.134
X118.037Y72.62
X118.037Y70.003
X118.468Y49.887
X118.898Y7.451
X118.926Y89.46
X119.056Y4.852
X119.332Y57.761
X119.484Y40.641
X119.522Y72.645
X119.662Y86.107
X119.688Y84.989
X119.738Y83.211
X119.738Y74.423
X119.764Y81.789
X119.764Y79.782
X119.764Y76.074
X119.789Y78.335
X120.094Y26.693
X120.094Y24.69
X120.246Y22.199
X120.392Y1.383
X120.653Y66.193
X120.958Y49.76
X121.008Y72.645
X121.148Y86.132
X121.173Y85.015
X121.224Y83.237
X121.224Y74.448
X121.25Y81.814
X121.25Y79.808
X121.25Y76.099
X121.253Y4.852
X121.262Y68.073
X121.275Y78.36
X121.276Y7.451
X121.796Y63.49
X121.796Y46.268
X121.796Y34.864
X121.796Y16.195
X121.821Y22.683
X121.833Y98.959
X122.163Y97.131
X122.278Y48.617
X122.476Y66.193
X122.507Y27.916
X122.507Y25.2
X122.634Y86.132
X122.659Y85.015
X122.71Y83.237
X122.71Y74.448
X122.736Y81.814
X122.736Y79.808
X122.736Y76.099
X122.761Y78.36
X122.77Y1.383
X122.837Y40.844
X122.903Y56.963
X123.142Y60.239
X123.244Y23.979
X123.294Y30.405
X123.472Y7.451
X123.548Y53.273
X123.548Y51.233
X123.574Y26.62
X123.625Y20.956
X123.63Y4.852
X123.65Y43.613
X123.75Y15.444
X123.75Y13.931
X123.828Y62.434
X123.904Y71.096
X123.97Y88.114
X124.107Y17.451
X124.211Y98.959
X124.336Y79.782
X124.361Y83.237
X124.361Y81.814
X124.373Y11.914
X124.427Y87.369
X124.427Y86.421
X124.427Y85.472
X124.488Y78.462
X124.514Y56.338
X124.541Y97.131
X124.652Y94.489
X124.742Y57.507
X124.919Y88.114
X124.966Y1.383
X125.02Y84.888
X125.376Y87.369
X125.376Y86.421
X125.376Y85.472
X125.524Y15.444
X125.53Y31.929
X125.657Y21.972
X125.822Y79.808
X125.827Y4.852
X125.847Y83.262
X125.847Y81.84
X125.85Y7.451
X125.867Y88.114
X125.946Y13.931
X125.969Y84.888
X125.974Y78.487
X125.983Y56.338
X126.012Y54.865
X126.02Y47.3
X126.02Y44.922
X126.02Y42.726
X126.02Y40.348
X126.088Y32.767
X126.165Y29.567
X126.178Y17.451
X126.212Y57.507
X126.325Y87.369
X126.325Y86.421
X126.325Y85.472
X126.342Y58.827
X126.407Y98.959
X126.52Y61.52
X126.723Y60.199
X126.723Y35.586
X126.737Y97.131
X126.751Y11.914
X126.816Y88.114
X126.918Y84.888
X126.952Y65.965
X126.952Y54.128
X126.952Y26.265
X127.03Y94.489
X127.107Y15.444
X127.273Y87.369
X127.273Y86.421
X127.273Y85.472
X127.308Y79.808
X127.333Y83.262
X127.333Y81.84
X127.344Y1.383
X127.344Y-0.814
X127.344Y-3.191
X127.453Y56.338
X127.46Y78.487
X127.485Y74.855
X127.485Y68.098
X127.663Y20.702
X127.681Y57.507
X127.762Y47.3
X127.762Y44.922
X127.762Y42.726
X127.762Y40.348
X127.765Y88.114
X127.812Y58.827
X127.866Y84.888
X127.99Y61.52
X127.993Y16.892
X128.019Y71.197
X128.046Y7.451
X128.193Y60.199
X128.204Y4.852
X128.222Y87.369
X128.222Y86.421
X128.222Y85.472
X128.324Y13.931
X128.374Y31.776
X128.451Y53.366
X128.785Y98.959
X128.947Y11.914
X129.115Y97.131
X129.226Y94.489
X129.282Y58.827
X129.289Y57.507
X129.289Y56.095
X129.459Y61.52
X129.492Y15.444
X129.54Y1.383
X129.54Y-0.814
X129.54Y-3.191
X129.619Y30.329
X129.663Y60.199
X129.67Y35.586
X130.025Y77.192
X130.279Y71.502
X130.401Y4.852
X130.424Y7.451
X130.508Y18.362
X130.52Y13.931
X130.559Y73.432
X130.61Y79.325
X130.686Y59.074
X130.686Y57.605
X130.686Y56.135
X130.981Y98.959
X131.325Y11.914
X131.604Y94.489
X131.688Y15.444
X131.918Y1.383
X131.918Y-0.814
X131.918Y-3.191
X131.978Y18.362
X132.62Y7.451
X132.743Y20.778
X132.778Y4.852
X132.86Y18.764
X132.86Y17.752
X132.898Y13.931
X133.359Y98.959
X133.359Y96.763
X133.359Y94.385
X133.359Y92.189
X133.359Y89.812
X133.505Y22.124
X133.521Y11.914
X133.835Y80.722
X133.835Y79.413
X134.013Y84.202
X134.013Y82.449
X134.06Y32.052
X134.06Y30.583
X134.064Y75.033
X134.064Y73.563
X134.064Y72.093
X134.066Y15.444
X134.114Y1.383
X134.114Y-0.814
X134.114Y-3.191
X134.115Y60.493
X134.115Y59.023
X134.115Y57.554
X134.115Y56.084
X134.329Y18.764
X134.329Y17.752
X134.508Y35.282
X134.975Y4.852
X134.998Y7.451
X135.094Y13.931
X135.512Y22.378
X135.53Y32.052
X135.53Y30.583
X135.534Y75.033
X135.534Y73.563
X135.534Y72.093
X135.555Y98.959
X135.555Y96.763
X135.555Y94.385
X135.555Y92.189
X135.86Y84.202
X135.899Y11.914
X136.262Y15.444
X136.325Y55.322
X136.492Y1.383
X136.492Y-0.814
X136.492Y-3.191
X136.68Y39.473
X136.706Y57.176
X136.885Y35.282
X137.0Y32.052
X137.0Y30.583
X137.003Y75.033
X137.003Y73.563
X137.003Y72.093
X137.194Y7.451
X137.352Y4.852
X137.471Y13.931
X137.933Y98.959
X137.933Y96.763
X137.933Y94.385
X137.933Y92.189
X138.052Y54.23
X138.095Y11.914
X138.469Y32.052
X138.469Y30.583
X138.473Y75.033
X138.473Y73.563
X138.473Y72.093
X138.64Y15.444
X138.688Y1.383
X138.688Y-0.814
X138.688Y-3.191
X138.896Y18.206
X138.896Y17.193
X138.977Y55.475
X138.977Y54.245
X138.992Y56.719
X139.006Y57.964
X139.021Y59.208
X139.082Y35.282
X139.093Y79.071
X139.211Y49.758
X139.211Y48.289
X139.322Y19.784
X139.449Y80.595
X139.548Y4.852
X139.571Y7.451
X139.668Y13.931
X139.892Y69.775
X139.939Y32.052
X139.939Y30.583
X139.939Y29.113
X139.939Y27.643
X139.943Y75.033
X139.943Y73.563
X139.943Y72.093
X140.033Y55.475
X140.048Y56.719
X140.054Y54.23
X140.062Y57.964
X140.077Y59.208
X140.092Y60.453
X140.129Y98.959
X140.129Y96.763
X140.129Y94.385
X140.129Y92.189
X140.365Y18.206
X140.365Y17.193
X140.472Y11.914
X140.681Y49.758
X140.681Y48.289
X140.791Y19.784
X140.836Y15.444
X141.024Y80.671
X141.054Y79.071
X141.066Y1.383
X141.066Y-0.814
X141.066Y-3.191
X141.074Y82.018
X141.405Y55.449
X141.409Y32.052
X141.409Y30.583
X141.409Y29.113
X141.409Y27.643
X141.412Y75.033
X141.412Y73.563
X141.412Y72.093
X141.419Y56.694
X141.434Y57.938
X141.449Y59.183
X141.458Y18.735
X141.458Y17.193
X141.459Y35.282
X141.464Y60.428
X141.768Y7.451
X141.926Y4.852
X142.045Y13.931
X142.15Y49.758
X142.15Y48.289
X142.243Y63.08
X142.243Y42.447
X142.243Y83.713
X142.243Y65.601
X142.243Y44.968
X142.243Y21.813
X142.243Y86.234
X142.243Y24.334
X142.27Y69.775
X142.506Y98.959
X142.506Y96.763
X142.506Y94.385
X142.506Y92.189
X142.598Y56.465
X142.659Y79.071
X142.669Y11.914
X142.702Y80.595
X142.878Y32.052
X142.878Y30.583
X142.878Y29.113
X142.878Y27.643
X142.882Y75.033
X142.882Y73.563
X142.882Y72.093
X142.928Y18.735
X142.928Y17.193
X143.102Y64.34
X143.102Y43.707
X143.102Y84.974
X143.102Y23.074
X143.214Y15.444
X143.262Y1.383
X143.262Y-0.814
X143.262Y-3.191
X143.62Y49.758
X143.62Y48.289
X143.656Y35.282
X143.961Y65.601
X143.961Y63.08
X143.961Y44.968
X143.961Y42.447
X143.961Y86.234
X143.961Y83.713
X143.961Y24.334
X143.961Y21.813
X144.122Y4.852
X144.145Y7.451
X144.242Y13.931
X144.348Y32.052
X144.348Y30.583
X144.348Y29.113
X144.348Y27.643
X144.352Y75.033
X144.352Y73.563
X144.352Y72.093
X144.466Y69.775
X144.703Y98.959
X144.703Y96.763
X144.703Y94.385
X144.703Y92.189
X145.046Y11.914
X145.09Y51.228
X145.09Y49.758
X145.64Y1.383
X145.64Y-0.814
X145.64Y-3.191
X145.818Y32.052
X145.818Y30.583
X145.818Y29.113
X145.821Y75.033
X145.821Y73.563
X145.821Y72.093
X146.033Y35.282
X146.342Y7.451
X146.5Y4.852
X146.559Y51.228
X146.559Y49.758
X146.619Y13.931
X146.834Y8.662
X146.844Y69.775
X147.08Y98.959
X147.08Y96.763
X147.08Y94.385
X147.08Y92.189
X147.243Y11.914
X147.287Y32.052
X147.287Y30.583
X147.287Y29.113
X147.291Y75.033
X147.291Y73.563
X147.291Y72.093
X147.543Y38.808
X147.543Y37.338
X147.59Y18.544
X147.59Y17.507
X147.831Y80.439
X147.831Y78.97
X147.836Y1.383
X147.836Y-0.814
X147.836Y-3.191
X148.029Y51.228
X148.029Y49.758
X148.23Y35.282
X148.696Y4.852
X148.719Y7.451
X148.757Y32.052
X148.757Y30.583
X148.761Y75.033
X148.761Y73.563
X148.761Y72.093
X148.816Y13.931
X148.894Y54.633
X148.894Y53.163
X149.013Y38.808
X149.013Y37.338
X149.06Y18.544
X149.06Y17.507
X149.277Y98.959
X149.277Y96.763
X149.277Y94.385
X149.277Y92.189
X149.3Y80.439
X149.3Y78.97
X149.499Y51.228
X149.499Y49.758
X149.62Y11.914
X150.213Y1.383
X150.213Y-0.814
X150.213Y-3.191
X150.227Y32.052
X150.227Y30.583
X150.23Y75.033
X150.23Y73.563
X150.23Y72.093
X150.364Y54.633
X150.364Y53.163
X150.483Y41.747
X150.483Y40.278
X150.483Y38.808
X150.483Y37.338
X150.529Y18.544
X150.529Y17.507
X150.607Y35.282
X150.77Y80.439
X150.77Y78.97
X151.074Y4.852
X151.193Y13.931
X151.244Y15.266
X151.311Y84.075
X151.336Y8.256
X151.463Y82.678
X151.654Y98.959
X151.654Y96.763
X151.654Y94.385
X151.654Y92.189
X151.696Y32.052
X151.696Y30.583
X151.7Y75.033
X151.7Y73.563
X151.7Y72.093
X151.819Y49.387
X151.819Y28.754
X151.833Y54.633
X151.833Y53.163
X151.952Y41.747
X151.952Y40.278
X151.952Y38.808
X151.952Y37.338
X151.999Y19.557
X151.999Y18.544
X151.999Y17.507
X152.094Y11.914
X152.24Y80.439
X152.24Y78.97
X152.41Y1.383
X152.41Y-0.814
X152.41Y-3.191
X152.643Y59.691
X152.78Y84.075
X152.803Y35.282
X152.933Y82.678
X152.956Y62.783
X153.139Y51.563
X153.166Y32.052
X153.166Y30.583
X153.17Y75.033
X153.17Y73.563
X153.17Y72.093
X153.303Y54.633
X153.303Y53.163
X153.39Y13.931
X153.422Y41.747
X153.422Y40.278
X153.422Y38.808
X153.422Y37.338
X153.44Y15.266
X153.469Y19.557
X153.469Y18.544
X153.469Y17.507
X153.47Y21.718
X153.709Y80.439
X153.709Y78.97
X153.842Y8.256
X153.851Y98.959
X153.851Y96.763
X153.851Y94.385
X153.851Y92.189
X154.25Y84.075
X154.402Y82.678
X154.472Y11.914
X154.609Y51.563
X154.636Y32.052
X154.636Y30.583
X154.639Y75.033
X154.639Y73.563
X154.639Y72.093
X154.773Y54.633
X154.773Y53.163
X154.787Y1.383
X154.787Y-0.814
X154.787Y-3.191
X154.892Y41.747
X154.892Y40.278
X154.892Y38.808
X154.892Y37.338
X154.938Y19.557
X154.938Y18.544
X154.938Y17.507
X155.021Y59.691
X155.181Y35.282
X155.198Y80.439
X155.198Y78.97
X155.333Y62.783
X155.72Y84.075
X155.767Y13.931
X155.818Y15.266
X155.872Y82.678
X156.079Y51.563
X156.105Y32.052
X156.105Y30.583
X156.109Y75.033
X156.109Y73.563
X156.109Y72.093
X156.228Y98.959
X156.228Y96.763
X156.228Y94.385
X156.228Y92.189
X156.242Y54.633
X156.242Y53.163
X156.259Y49.387
X156.259Y45.79
X156.259Y28.754
X156.259Y25.157
X156.362Y41.747
X156.362Y40.278
X156.362Y38.808
X156.362Y37.338
X156.408Y19.557
X156.408Y18.544
X156.408Y17.507
X156.44Y8.256
X156.46Y21.718
X156.668Y80.439
X156.668Y78.97
X156.668Y11.914
X156.721Y82.653
X156.855Y84.075
X157.217Y59.691
X157.377Y35.282
X157.529Y62.783
X157.548Y51.563
X157.575Y32.052
X157.575Y30.583
X157.579Y75.033
X157.579Y73.563
X157.579Y72.093
X157.712Y54.633
X157.712Y53.163
X157.831Y41.747
X157.831Y40.278
X157.831Y38.808
X157.831Y37.338
X157.878Y19.557
X157.878Y18.544
X157.878Y17.507
X157.963Y13.931
X158.014Y15.266
X158.138Y80.439
X158.138Y78.97
X158.19Y82.653
X158.325Y84.075
X158.424Y98.959
X158.424Y96.763
X158.424Y94.385
X158.424Y92.189
X158.854Y51.512
X159.045Y32.052
X159.045Y30.583
X159.046Y11.914
X159.048Y75.033
X159.048Y73.563
X159.048Y72.093
X159.182Y54.633
X159.182Y53.163
X159.301Y41.747
X159.301Y40.278
X159.301Y38.808
X159.301Y37.338
X159.332Y21.718
X159.347Y19.557
X159.347Y18.544
X159.347Y17.507
X159.595Y59.691
X159.607Y80.439
X159.607Y78.97
X159.66Y82.653
X159.755Y35.282
X159.794Y84.075
X159.907Y62.783
X160.324Y51.512
X160.341Y13.931
X160.388Y49.387
X160.388Y28.754
X160.392Y15.266
X160.514Y32.052
X160.514Y30.583
X160.518Y75.033
X160.518Y73.563
X160.518Y72.093
X160.651Y54.633
X160.651Y53.163
X160.77Y41.747
X160.77Y40.278
X160.77Y38.808
X160.802Y98.959
X160.802Y96.763
X160.802Y94.385
X160.802Y92.189
X160.817Y19.557
X160.817Y18.544
X160.817Y17.507
X161.077Y80.439
X161.077Y78.97
X161.13Y82.653
X161.264Y84.075
X161.794Y51.512
X161.984Y32.052
X161.984Y30.583
X161.987Y75.033
X161.987Y73.563
X161.987Y72.093
X162.121Y54.633
X162.121Y53.163
X162.287Y19.557
X162.287Y18.544
X162.715Y10.745
X162.766Y83.734
X162.766Y82.264
X162.766Y80.795
X162.766Y79.325
X162.877Y7.854
X162.998Y98.959
X162.998Y96.763
X162.998Y94.385
X163.071Y28.779
X163.263Y51.512
X163.452Y33.961
X163.454Y32.052
X163.454Y30.583
X163.457Y75.033
X163.457Y73.563
X163.457Y72.093
X163.591Y54.633
X163.591Y53.163
X163.655Y11.736
X164.265Y10.313
X164.797Y84.453
X164.797Y63.82
X164.797Y43.187
X164.797Y22.553
X165.06Y54.633
X165.06Y53.163
X165.154Y12.955
X165.179Y8.739
X165.376Y98.959
X165.376Y96.763
X165.376Y94.385
X165.458Y11.329
X166.982Y84.453
X166.982Y63.82
X166.982Y43.187
X166.982Y22.553
X167.008Y8.485
X167.572Y98.959
X167.572Y96.763
X167.572Y94.385
X169.243Y72.794
X169.243Y71.324
X169.331Y11.305
X169.331Y8.485
X169.497Y52.118
X169.497Y50.649
X169.878Y32.136
X169.878Y30.666
X169.95Y98.959
X169.95Y96.763
X169.95Y94.385
X170.119Y77.319
X170.119Y56.686
X170.119Y15.131
X170.713Y72.794
X170.713Y71.324
X170.967Y52.118
X170.967Y50.649
X171.348Y32.136
X171.348Y30.666
X171.402Y11.583
X171.742Y15.131
X172.146Y98.959
X172.182Y72.794
X172.182Y71.324
X172.278Y77.319
X172.278Y56.686
X172.436Y52.118
X172.436Y50.649
X172.817Y30.666
X173.155Y32.136
X173.53Y15.263
X173.652Y72.794
X173.652Y71.324
X173.822Y11.583
X173.906Y52.118
X173.906Y50.649
X174.287Y30.9
X174.524Y98.959
X174.624Y32.136
X175.441Y11.594
X175.568Y58.192
X175.568Y56.723
X175.568Y55.253
X175.568Y53.783
X175.568Y52.314
X175.568Y39.422
X175.568Y37.952
X175.568Y36.483
X175.568Y35.013
X175.568Y33.543
X175.568Y32.073
X175.568Y30.604
X175.593Y79.249
X175.593Y77.779
X175.593Y76.31
X175.593Y74.84
X175.593Y73.37
X175.691Y15.263
X176.152Y17.806
X177.037Y58.192
X177.037Y56.723
X177.037Y55.253
X177.037Y53.783
X177.037Y52.314
X177.037Y39.422
X177.037Y37.952
X177.037Y36.483
X177.037Y35.013
X177.037Y33.543
X177.037Y32.073
X177.037Y30.604
X177.063Y79.249
X177.063Y77.779
X177.063Y76.31
X177.063Y74.84
X177.063Y73.37
X177.625Y11.634
X177.852Y15.263
X178.507Y55.253
X178.507Y53.783
X178.507Y52.314
X178.507Y37.952
X178.507Y36.483
X178.507Y35.013
X178.507Y33.543
X178.507Y32.073
X178.507Y30.604
X178.532Y76.31
X178.532Y74.84
X178.532Y73.37
X179.911Y79.253
X179.911Y76.875
X179.911Y74.679
X179.911Y72.301
X180.013Y58.907
X180.013Y56.53
X180.013Y54.334
X180.013Y51.956
X180.013Y38.274
X180.013Y35.897
X180.013Y33.7
X180.013Y31.323
X180.013Y17.641
X180.013Y15.263
X180.013Y13.067
T2
X60.404Y-3.25
X60.404Y-5.79
X62.944Y-3.25
X62.944Y-5.79
X65.484Y-3.25
X65.484Y-5.79
X68.024Y-3.25
X68.024Y-5.79
X70.564Y-3.25
X70.564Y-5.79
X73.104Y-3.25
X73.104Y-5.79
X75.644Y-3.25
X75.644Y-5.79
X78.184Y-3.25
X78.184Y-5.79
X80.724Y-3.25
X80.724Y-5.79
X83.264Y-3.25
X83.264Y-5.79
X85.804Y-3.25
X85.804Y-5.79
X88.344Y-3.25
X88.344Y-5.79
X90.884Y-3.25
X90.884Y-5.79
X93.424Y-3.25
X93.424Y-5.79
M30
