%TF.GenerationSoftware,KiCad,Pcbnew,10.99.0-unknown*%
%TF.CreationDate,2026-08-12T15:21:33+08:00*%
%TF.ProjectId,_____-____,70575241-902d-41f6-9ba1-122e6b696361,rev?*%
%TF.SameCoordinates,Original*%
%TF.FileFunction,Copper,L4,Bot*%
%TF.FilePolarity,Positive*%
%FSLAX46Y46*%
G04 Gerber Fmt 4.6, Leading zero omitted, Abs format (unit mm)*
G04 Created by KiCad (PCBNEW 10.99.0-unknown) date 2026-08-12 15:21:33*
%MOMM*%
%LPD*%
G01*
G04 APERTURE LIST*
%TA.AperFunction,ComponentPad*%
%ADD10R,1.800000X1.800000*%
%TD*%
%TA.AperFunction,ComponentPad*%
%ADD11C,1.800000*%
%TD*%
%TA.AperFunction,ComponentPad*%
%ADD12C,1.700000*%
%TD*%
%TA.AperFunction,ViaPad*%
%ADD13C,0.609600*%
%TD*%
%TA.AperFunction,Conductor*%
%ADD14C,0.254000*%
%TD*%
%TA.AperFunction,Conductor*%
%ADD15C,0.508000*%
%TD*%
%TA.AperFunction,Conductor*%
%ADD16C,0.762000*%
%TD*%
%TA.AperFunction,Conductor*%
%ADD17C,0.635000*%
%TD*%
G04 APERTURE END LIST*
D10*
%TO.P,H3,1*%
%TO.N,PA8*%
X93423999Y-3250199D03*
D11*
%TO.P,H3,2*%
%TO.N,PE6*%
X93423999Y-5790199D03*
D12*
%TO.P,H3,3*%
%TO.N,PC9*%
X90883999Y-3250199D03*
%TO.P,H3,4*%
%TO.N,PC8*%
X90883999Y-5790199D03*
%TO.P,H3,5*%
%TO.N,PD15*%
X88343999Y-3250199D03*
%TO.P,H3,6*%
%TO.N,PD14*%
X88343999Y-5790199D03*
%TO.P,H3,7*%
%TO.N,PD13*%
X85803999Y-3250199D03*
%TO.P,H3,8*%
%TO.N,N/C*%
X85803999Y-5790199D03*
%TO.P,H3,9*%
%TO.N,PD12*%
X83263999Y-3250199D03*
%TO.P,H3,10*%
%TO.N,PD11*%
X83263999Y-5790199D03*
%TO.P,H3,11*%
%TO.N,PD10*%
X80723999Y-3250199D03*
D11*
%TO.P,H3,12*%
%TO.N,PD9*%
X80723999Y-5790199D03*
D12*
%TO.P,H3,13*%
%TO.N,PD8*%
X78183999Y-3250199D03*
D11*
%TO.P,H3,14*%
%TO.N,PB15*%
X78183999Y-5790199D03*
D12*
%TO.P,H3,15*%
%TO.N,PC13*%
X75643999Y-3250199D03*
D11*
%TO.P,H3,16*%
%TO.N,PC4*%
X75643999Y-5790199D03*
D12*
%TO.P,H3,17*%
%TO.N,PC5*%
X73103999Y-3250199D03*
D11*
%TO.P,H3,18*%
%TO.N,PE9*%
X73103999Y-5790199D03*
D12*
%TO.P,H3,19*%
%TO.N,PE10*%
X70563999Y-3250199D03*
D11*
%TO.P,H3,20*%
%TO.N,PE11*%
X70563999Y-5790199D03*
D12*
%TO.P,H3,21*%
%TO.N,PE12*%
X68023999Y-3250199D03*
D11*
%TO.P,H3,22*%
%TO.N,PE13*%
X68023999Y-5790199D03*
D12*
%TO.P,H3,23*%
%TO.N,PE14*%
X65483999Y-3250199D03*
D11*
%TO.P,H3,24*%
%TO.N,PB14*%
X65483999Y-5790199D03*
%TO.P,H3,25*%
%TO.N,PB13*%
X62943999Y-3250199D03*
%TO.P,H3,26*%
%TO.N,PB12*%
X62943999Y-5790199D03*
D12*
%TO.P,H3,27*%
%TO.N,+5V*%
X60403999Y-3250199D03*
D11*
%TO.P,H3,28*%
X60403999Y-5790199D03*
%TD*%
D13*
%TO.N,$3N2289*%
X121795800Y63489700D03*
X107775000Y64085200D03*
%TO.N,$3N1635*%
X121795800Y46268500D03*
X107495600Y46889400D03*
%TO.N,$3N2784*%
X121795800Y34863900D03*
X107495600Y35484800D03*
%TO.N,$3N3279*%
X121795800Y16194900D03*
X107495600Y16815800D03*
%TO.N,+5V*%
X92382600Y87961200D03*
%TO.N,OUT1+*%
X123142000Y60238600D03*
X104193600Y56312800D03*
%TO.N,OUTUP1*%
X123827800Y62434200D03*
X107876600Y50216800D03*
%TO.N,OUT2+*%
X123548400Y51232800D03*
X123548400Y53273400D03*
%TO.N,FB2*%
X128450600Y53366400D03*
X120957600Y49759600D03*
%TO.N,ADC1*%
X122903000Y56962800D03*
X102110800Y48794400D03*
%TO.N,PWM2*%
X126012200Y54865000D03*
%TO.N,FA2*%
X126952000Y54128400D03*
%TO.N,$4N4765*%
X136680200Y39472600D03*
%TO.N,+5V*%
X116360200Y67028800D03*
X115710400Y67028800D03*
%TO.N,PWM2*%
X109125800Y49226200D03*
%TO.N,FA2*%
X110188000Y48972200D03*
%TO.N,DACINT2*%
X99545400Y47880000D03*
X84711800Y59344000D03*
%TO.N,GND*%
X78734100Y31556500D03*
X81282800Y29719000D03*
X84762600Y29719000D03*
X85626200Y30582600D03*
X85626200Y34038100D03*
X85626200Y37453200D03*
X85626200Y41834800D03*
X83323200Y42317400D03*
%TO.N,ADC2*%
X115420400Y39929800D03*
X109172000Y39929800D03*
%TO.N,FA3*%
X116665000Y38151800D03*
%TO.N,PWM3*%
X116309400Y39015400D03*
%TO.N,DACINT4*%
X120246400Y22198800D03*
X106225600Y18009600D03*
%TO.N,PWM3*%
X72080100Y58579700D03*
%TO.N,FA3*%
X70376700Y57846300D03*
%TO.N,ADC3*%
X109172000Y29922200D03*
%TO.N,GND*%
X81059900Y41840500D03*
%TO.N,ADC3*%
X105908100Y29909500D03*
%TO.N,ADC4*%
X102847400Y16561800D03*
X101489600Y21780400D03*
%TO.N,3.3V*%
X71402200Y43104800D03*
X79581000Y43104800D03*
X100764600Y22276800D03*
X102009200Y14656800D03*
%TO.N,SDA*%
X104219000Y25375500D03*
%TO.N,SCLK*%
X104269800Y26239100D03*
%TO.N,3.3V*%
X55309000Y14240000D03*
X56998100Y13498800D03*
%TO.N,SCLK*%
X98402400Y26163000D03*
%TO.N,SDA*%
X98402400Y25299400D03*
%TO.N,PA2*%
X67592200Y41098200D03*
%TO.N,$2N12002*%
X64882800Y40285400D03*
X68760600Y62358000D03*
%TO.N,PA15*%
X57683900Y11758900D03*
X56060600Y15520400D03*
%TO.N,PE6*%
X67033400Y31547800D03*
%TO.N,GND*%
X112022800Y23657400D03*
X111407200Y24867600D03*
X112638300Y24867600D03*
X112638300Y22447200D03*
%TO.N,12V*%
X111407300Y22447200D03*
%TO.N,3.3V*%
X52473600Y28449000D03*
%TO.N,PA8*%
X58176800Y10296000D03*
X44283000Y30557200D03*
%TO.N,PC9*%
X58326900Y9176100D03*
X43597200Y31319200D03*
%TO.N,PC8*%
X58680200Y7853000D03*
X42911400Y31903400D03*
%TO.N,PD15*%
X57584600Y7925800D03*
%TO.N,PD14*%
X57772800Y6767800D03*
%TO.N,PD13*%
X56594000Y6884400D03*
%TO.N,PD15*%
X42225600Y33952800D03*
%TO.N,PD14*%
X41362000Y34214800D03*
%TO.N,PD13*%
X40649700Y33173400D03*
%TO.N,PD12*%
X39963900Y32543200D03*
X56352700Y6033500D03*
%TO.N,PD11*%
X55120800Y6224000D03*
X39245800Y33046400D03*
%TO.N,PD10*%
X55270900Y5104100D03*
X38560000Y33681400D03*
%TO.N,PD9*%
X37874200Y32538400D03*
%TO.N,PD8*%
X37163000Y33808400D03*
%TO.N,PD9*%
X55471700Y3933300D03*
%TO.N,PD8*%
X55324000Y3069700D03*
%TO.N,PB15*%
X36477200Y32868600D03*
X56365400Y2058400D03*
%TO.N,PB14*%
X35715200Y32233600D03*
%TO.N,PB13*%
X35029400Y33529000D03*
%TO.N,PB12*%
X34343600Y32741600D03*
%TO.N,PB14*%
X56949600Y1347200D03*
%TO.N,PB13*%
X55705000Y661400D03*
%TO.N,PB12*%
X56441600Y-24400D03*
%TO.N,PE14*%
X57968400Y31700200D03*
%TO.N,PE13*%
X58882800Y30836600D03*
%TO.N,PE12*%
X59692800Y31776400D03*
%TO.N,PE11*%
X60378600Y30684200D03*
%TO.N,PE10*%
X61140600Y31776400D03*
%TO.N,PE9*%
X61826400Y30684200D03*
%TO.N,PC5*%
X62512200Y31801800D03*
%TO.N,PC4*%
X63198000Y30684200D03*
%TO.N,PC13*%
X66906400Y32563800D03*
%TO.N,3.3V*%
X29060400Y5309600D03*
X29051200Y9627600D03*
X27913500Y14277300D03*
X27913500Y19274300D03*
X37036000Y4959000D03*
X54757400Y46400700D03*
X73901400Y47182800D03*
X67516000Y48083200D03*
X28243200Y43600900D03*
X28243200Y39562300D03*
X15115800Y31776400D03*
X18494000Y28398200D03*
X105349600Y28696200D03*
X162876800Y7854300D03*
X95075000Y23369000D03*
X71603600Y34316400D03*
X71603600Y32056500D03*
%TO.N,+5V*%
X115522000Y75845400D03*
X115522000Y75165400D03*
X114912400Y74727800D03*
X114912400Y75528300D03*
X114226600Y75528300D03*
X114226600Y74727800D03*
X18087600Y11075400D03*
X15813100Y24588200D03*
%TO.N,3.3V*%
X28781000Y46406800D03*
%TO.N,+5V*%
X34989800Y67198200D03*
X42928800Y1956800D03*
X43741900Y1956800D03*
X29212800Y1956800D03*
X29893100Y1956800D03*
X115801400Y18314400D03*
X116004600Y36983400D03*
X114919000Y89840800D03*
X34989800Y66483900D03*
X18087600Y10379100D03*
X15813100Y23797500D03*
%TO.N,12V*%
X104055400Y21653000D03*
X146833700Y8662400D03*
X102618800Y30811200D03*
X102618800Y30166000D03*
X89182200Y52325000D03*
X89631300Y51875900D03*
X88572600Y58700400D03*
X88572600Y58029800D03*
X88572600Y77115400D03*
X88572600Y78004400D03*
%TO.N,GND*%
X143102100Y23073800D03*
X142242800Y24334200D03*
%TO.N,VCC*%
X143961400Y24334200D03*
%TO.N,$4N5768*%
X143961400Y21813300D03*
%TO.N,$4N5811*%
X142242700Y21813400D03*
%TO.N,GND*%
X143102000Y43707100D03*
X142242700Y44967500D03*
%TO.N,VCC*%
X143961300Y44967500D03*
%TO.N,$4N4769*%
X143961300Y42446600D03*
%TO.N,$4N4812*%
X142242600Y42446700D03*
%TO.N,GND*%
X143102000Y64340300D03*
X142242700Y65600800D03*
%TO.N,VCC*%
X143961300Y65600800D03*
%TO.N,$4N3770*%
X143961300Y63079900D03*
%TO.N,$4N3813*%
X142242600Y63079900D03*
%TO.N,GND*%
X143102100Y84973600D03*
X142242800Y86234000D03*
%TO.N,VCC*%
X143961400Y86234000D03*
%TO.N,$4N963*%
X143961400Y83713100D03*
%TO.N,$4N974*%
X142242700Y83713200D03*
%TO.N,VCC*%
X128222000Y85472000D03*
X128222000Y86420700D03*
X128222000Y87369300D03*
X127273300Y87369300D03*
X126324700Y87369300D03*
X125376000Y87369300D03*
X124427400Y87369300D03*
X124427400Y86420700D03*
X125376000Y86420700D03*
X126324700Y86420700D03*
X127273300Y86420700D03*
X127273300Y85472000D03*
X126324700Y85472000D03*
X125376000Y85472000D03*
X124427400Y85472000D03*
X127764800Y88113600D03*
X126816100Y88113600D03*
X125867500Y88113600D03*
X124918800Y88113600D03*
X123970200Y88113600D03*
X127866400Y84887800D03*
X126917700Y84887800D03*
X125969100Y84887800D03*
X125020400Y84887800D03*
%TO.N,GND*%
X103888800Y83871800D03*
X103888800Y83108000D03*
X104601700Y83108000D03*
X103175900Y83108000D03*
%TO.N,12V*%
X103304600Y81662000D03*
X103304600Y80620600D03*
X103304600Y79452200D03*
X103304600Y78410800D03*
%TO.N,GND*%
X97869000Y84151200D03*
X97437200Y83262200D03*
X94160600Y81535000D03*
X95252800Y81535000D03*
X95252800Y80488200D03*
X95252800Y79449100D03*
X94160600Y79449100D03*
X94160600Y80488200D03*
X93093800Y81535000D03*
X92179400Y82017600D03*
X92179400Y81052400D03*
X93068400Y80488200D03*
X100205800Y93092000D03*
X99040400Y93092000D03*
X97726400Y93092000D03*
X96571900Y93092000D03*
X94582000Y93092000D03*
X93333700Y93092000D03*
X92027000Y92634800D03*
X92941400Y91872800D03*
X94922600Y92126800D03*
X96093200Y92126800D03*
X104600000Y88723200D03*
X104600000Y89545700D03*
X103457700Y89545700D03*
X103457700Y88682200D03*
X99139000Y78410800D03*
X99799400Y78614000D03*
X86032600Y85446600D03*
X86032600Y84257800D03*
X86032600Y82821800D03*
X86032600Y81038400D03*
X86032600Y79104900D03*
X87861400Y79731600D03*
X89472700Y79731600D03*
X89472700Y81489000D03*
X87811400Y81489000D03*
X83416400Y79071200D03*
X80462100Y79071200D03*
X77589900Y79071200D03*
X71845700Y79071200D03*
X67439800Y79096600D03*
X64010600Y79096600D03*
X59427900Y79096600D03*
X54993000Y79096600D03*
X51381700Y79096600D03*
X47664800Y79096600D03*
X43736700Y79096600D03*
X38795000Y79096600D03*
X34909200Y79096600D03*
X31509100Y79096600D03*
X27644300Y79096600D03*
X23315000Y79096600D03*
X20018000Y79147400D03*
X20018000Y81589900D03*
X23345400Y81585800D03*
X27623200Y81585800D03*
X23345400Y83998800D03*
X25089000Y83998800D03*
X26525000Y83998800D03*
X28362400Y83998800D03*
X30727700Y83998800D03*
X30787600Y81865200D03*
X33837400Y81865200D03*
X36720100Y81865200D03*
X40711500Y81865200D03*
X45214800Y81941400D03*
X48516800Y81865200D03*
X52907500Y81865200D03*
X54333400Y83694000D03*
X54333400Y85296200D03*
X52631600Y85294200D03*
X50774500Y85294200D03*
X50774500Y83522200D03*
X47817900Y83522200D03*
X44924700Y83522200D03*
X43970200Y87707200D03*
X42090100Y87707200D03*
%TO.N,VCC*%
X40344300Y87707200D03*
%TO.N,GND*%
X39093400Y87021400D03*
X37544000Y84329000D03*
%TO.N,VCC*%
X35166800Y86383800D03*
X32981600Y86383800D03*
%TO.N,GND*%
X28196800Y85776800D03*
X25941400Y85776800D03*
X27012600Y88424900D03*
X27012600Y90649800D03*
X21245200Y86806900D03*
X21719800Y76328000D03*
X25809200Y80417400D03*
X21934200Y80417400D03*
X21415000Y74397600D03*
X19687800Y72518000D03*
X16284200Y72264000D03*
X11227000Y72264000D03*
X8842000Y70079600D03*
X8156200Y66752200D03*
X8156200Y60135200D03*
X8156200Y52374100D03*
X1069600Y44781200D03*
X841000Y38583600D03*
X4711900Y38583600D03*
X4711900Y44855800D03*
X7950200Y48783900D03*
X942600Y50140600D03*
X942600Y53873500D03*
X942600Y57780400D03*
X942600Y64327200D03*
X942600Y70261600D03*
X942600Y75667900D03*
X942600Y80081700D03*
X942600Y85572600D03*
X942600Y90936700D03*
%TO.N,$1N418*%
X21245200Y92050700D03*
%TO.N,GND*%
X25783800Y92787200D03*
X28908000Y92787200D03*
X31324100Y92787200D03*
X30686000Y94844600D03*
X27841200Y94565200D03*
X23624800Y95276400D03*
X19179800Y94971600D03*
X19408400Y92634800D03*
X16360400Y94997000D03*
X13668900Y94997000D03*
X10395500Y94997000D03*
X11864600Y93193600D03*
X14260200Y93193600D03*
X16815600Y93193600D03*
X49532800Y91745800D03*
X51615600Y92812600D03*
X53342800Y93396800D03*
X51361600Y94971600D03*
X49685200Y93879400D03*
X54079400Y94997000D03*
X55755800Y93473000D03*
X57584600Y95022400D03*
X58245000Y93523800D03*
X60520600Y93523800D03*
X60226200Y95124000D03*
X62759200Y95124000D03*
X63325000Y93803200D03*
X65744000Y93803200D03*
X68461200Y93803200D03*
X71713500Y93803200D03*
X74729600Y93701600D03*
X74729600Y95192100D03*
X71291100Y95192100D03*
X67546100Y95192100D03*
X69395600Y92126800D03*
%TO.N,$1N1413*%
X69776600Y89282000D03*
%TO.N,GND*%
X69446400Y87275400D03*
X66779400Y86208600D03*
X75237600Y85802200D03*
X72681400Y85802200D03*
X71834000Y88037400D03*
X71834000Y90355900D03*
X68506600Y85726000D03*
X61089800Y82805000D03*
X62903500Y82805000D03*
X64717200Y82805000D03*
X66530900Y82805000D03*
X68344600Y82805000D03*
X70158300Y82805000D03*
X71972000Y82805000D03*
X73785700Y82805000D03*
X75599400Y82805000D03*
X77413100Y82805000D03*
X62903500Y84034500D03*
X64717200Y84034500D03*
X66530900Y84034500D03*
X68344600Y84034500D03*
X70158300Y84034500D03*
X71972000Y84034500D03*
X73785700Y84034500D03*
X75599400Y84034500D03*
%TO.N,$1N1413*%
X60708800Y88037400D03*
X61429600Y87290600D03*
%TO.N,GND*%
X63553600Y86742000D03*
X63553600Y85516600D03*
X60683400Y83998800D03*
X61851800Y83592400D03*
X88623400Y95022400D03*
X86671700Y95022400D03*
X84026000Y94717600D03*
X84644300Y92692100D03*
X83035400Y92939600D03*
X80825600Y93219000D03*
X76685400Y94717600D03*
X76685400Y93583500D03*
X82868800Y85961100D03*
X80683600Y85961100D03*
X78498400Y85961100D03*
X102806900Y76531200D03*
X104620600Y76531200D03*
X106434300Y76531200D03*
X108248000Y76531200D03*
X108248000Y78344900D03*
X106434300Y78344900D03*
X103660200Y77293200D03*
X105492400Y77293200D03*
X107322700Y77293200D03*
X109527600Y79223600D03*
X112753400Y80163400D03*
X112753400Y81865200D03*
X110975400Y80188800D03*
X110975400Y81874200D03*
X108761100Y81874200D03*
X109527600Y81027000D03*
X108181400Y80163400D03*
X106505000Y83389200D03*
X108592100Y83389200D03*
X111813600Y83186000D03*
X108867200Y86081600D03*
X108867200Y88653200D03*
X106479600Y89028000D03*
X103533200Y93396800D03*
X103990400Y95022400D03*
X105329300Y95022400D03*
X107103300Y95022400D03*
X109384100Y95022400D03*
X111474800Y95022400D03*
X113261400Y95022400D03*
X114861600Y93422200D03*
X115725200Y92457000D03*
X117198400Y91034600D03*
X118925600Y89459800D03*
X122634000Y86132400D03*
X121148100Y86132400D03*
X119662200Y86107000D03*
X109263100Y93422200D03*
X112062400Y93422200D03*
X110662800Y93422200D03*
X107863500Y93422200D03*
X113462000Y93422200D03*
X91544400Y88469200D03*
X91849200Y90145600D03*
X91620600Y91720400D03*
X119687600Y84989400D03*
X121173500Y85014800D03*
X122659400Y85014800D03*
X119738400Y83211400D03*
X121224300Y83236800D03*
X122710200Y83236800D03*
X119763800Y81789000D03*
X121249700Y81814400D03*
X122735600Y81814400D03*
X119763800Y79782400D03*
X121249700Y79807800D03*
X122735600Y79807800D03*
X119789200Y78334600D03*
X121275100Y78360000D03*
X122761000Y78360000D03*
X119763800Y76074000D03*
X121249700Y76099400D03*
X122735600Y76099400D03*
X119738400Y74423000D03*
X121224300Y74448400D03*
X122710200Y74448400D03*
X118036600Y72619600D03*
X119522500Y72645000D03*
X121008400Y72645000D03*
X124361200Y83236800D03*
X125847100Y83262200D03*
X127333000Y83262200D03*
X124361200Y81814400D03*
X125847100Y81839800D03*
X127333000Y81839800D03*
X124335800Y79782400D03*
X125821700Y79807800D03*
X127307600Y79807800D03*
X124488200Y78461600D03*
X125974100Y78487000D03*
X127460000Y78487000D03*
X133835400Y80722200D03*
X133835400Y79413200D03*
X130609600Y79325200D03*
X139093200Y79071200D03*
X141054400Y79071200D03*
X142659400Y79071200D03*
X141023600Y80671400D03*
X139448800Y80595200D03*
X142701700Y80595200D03*
X141074400Y82017600D03*
X136324600Y55322200D03*
X136705600Y57176400D03*
X138051800Y54230000D03*
X140053900Y54230000D03*
X141404600Y55449200D03*
X142598400Y56465200D03*
X140033000Y55474600D03*
X138976900Y55474600D03*
X138976900Y54245100D03*
X138991600Y56719200D03*
X139006300Y57963800D03*
X139021100Y59208400D03*
X140047700Y56719200D03*
X140062500Y57963800D03*
X140077200Y59208400D03*
X140092000Y60453000D03*
X141419300Y56693800D03*
X141434100Y57938400D03*
X141448800Y59183000D03*
X141463600Y60427600D03*
X124513600Y56338200D03*
X125983300Y56338200D03*
X127452900Y56338200D03*
X127681500Y57506600D03*
X126211900Y57506600D03*
X124742200Y57506600D03*
X129281700Y58827400D03*
X127812100Y58827400D03*
X126342400Y58827400D03*
X129662700Y60199000D03*
X128193100Y60199000D03*
X126723400Y60199000D03*
X129459500Y61519800D03*
X127989900Y61519800D03*
X126520200Y61519800D03*
X130685800Y59074300D03*
X130685800Y57604700D03*
X130685800Y56135000D03*
X129288800Y57506600D03*
X129288800Y56095200D03*
X126952000Y65964800D03*
X127485400Y68098400D03*
X120652800Y66193400D03*
X122476000Y66193400D03*
X121262400Y68073000D03*
X123904000Y71095600D03*
X127485400Y74854800D03*
X130025400Y77191600D03*
X130558800Y73432400D03*
X130279400Y71502000D03*
X128018800Y71197200D03*
X137003300Y75032600D03*
X135533700Y75032600D03*
X134064000Y75032600D03*
X138473000Y75032600D03*
X139942600Y75032600D03*
X141412300Y75032600D03*
X142882000Y75032600D03*
X144351600Y75032600D03*
X145821300Y75032600D03*
X147290900Y75032600D03*
X148760600Y75032600D03*
X150230300Y75032600D03*
X151699900Y75032600D03*
X153169600Y75032600D03*
X154639200Y75032600D03*
X156108900Y75032600D03*
X157578600Y75032600D03*
X159048200Y75032600D03*
X160517900Y75032600D03*
X161987500Y75032600D03*
X163457200Y75032600D03*
X134064000Y73562900D03*
X134064000Y72093300D03*
X135533700Y73562900D03*
X137003300Y73562900D03*
X135533700Y72093300D03*
X137003300Y72093300D03*
X138473000Y72093300D03*
X139942600Y72093300D03*
X138473000Y73562900D03*
X139942600Y73562900D03*
X141412300Y72093300D03*
X142882000Y72093300D03*
X141412300Y73562900D03*
X142882000Y73562900D03*
X144351600Y72093300D03*
X145821300Y72093300D03*
X144351600Y73562900D03*
X145821300Y73562900D03*
X147290900Y72093300D03*
X148760600Y72093300D03*
X147290900Y73562900D03*
X148760600Y73562900D03*
X150230300Y72093300D03*
X151699900Y72093300D03*
X150230300Y73562900D03*
X151699900Y73562900D03*
X153169600Y72093300D03*
X154639200Y72093300D03*
X153169600Y73562900D03*
X154639200Y73562900D03*
X156108900Y72093300D03*
X157578600Y72093300D03*
X156108900Y73562900D03*
X157578600Y73562900D03*
X159048200Y72093300D03*
X160517900Y72093300D03*
X159048200Y73562900D03*
X160517900Y73562900D03*
X161987500Y72093300D03*
X163457200Y72093300D03*
X161987500Y73562900D03*
X163457200Y73562900D03*
X139211100Y48288600D03*
X140680800Y48288600D03*
X139211100Y49758300D03*
X140680800Y49758300D03*
X142150400Y48288600D03*
X143620100Y48288600D03*
X142150400Y49758300D03*
X143620100Y49758300D03*
X145089800Y49758300D03*
X146559400Y49758300D03*
X145089800Y51228000D03*
X146559400Y51228000D03*
X148029100Y49758300D03*
X149498700Y49758300D03*
X148029100Y51228000D03*
X149498700Y51228000D03*
X148894100Y53163200D03*
X150363700Y53163200D03*
X148894100Y54632900D03*
X150363700Y54632900D03*
X151833400Y53163200D03*
X153303000Y53163200D03*
X151833400Y54632900D03*
X153303000Y54632900D03*
X154772700Y53163200D03*
X156242400Y53163200D03*
X154772700Y54632900D03*
X156242400Y54632900D03*
X157712000Y53163200D03*
X159181700Y53163200D03*
X157712000Y54632900D03*
X159181700Y54632900D03*
X160651300Y53163200D03*
X162121000Y53163200D03*
X160651300Y54632900D03*
X162121000Y54632900D03*
X163590700Y53163200D03*
X165060300Y53163200D03*
X163590700Y54632900D03*
X165060300Y54632900D03*
X147543500Y37338400D03*
X149013200Y37338400D03*
X147543500Y38808100D03*
X149013200Y38808100D03*
X150482900Y37338400D03*
X151952500Y37338400D03*
X150482900Y38808100D03*
X151952500Y38808100D03*
X153422200Y37338400D03*
X154891800Y37338400D03*
X153422200Y38808100D03*
X154891800Y38808100D03*
X156361500Y37338400D03*
X157831200Y37338400D03*
X156361500Y38808100D03*
X157831200Y38808100D03*
X159300800Y37338400D03*
X159300800Y38808100D03*
X160770500Y38808100D03*
X151952500Y40277700D03*
X151952500Y41747400D03*
X150482900Y40277700D03*
X150482900Y41747400D03*
X154891800Y40277700D03*
X154891800Y41747400D03*
X153422200Y40277700D03*
X153422200Y41747400D03*
X157831200Y40277700D03*
X157831200Y41747400D03*
X156361500Y40277700D03*
X156361500Y41747400D03*
X160770500Y40277700D03*
X160770500Y41747400D03*
X159300800Y40277700D03*
X159300800Y41747400D03*
X134060500Y30582600D03*
X135530100Y30582600D03*
X134060500Y32052300D03*
X135530100Y32052300D03*
X136999800Y30582600D03*
X138469400Y30582600D03*
X136999800Y32052300D03*
X138469400Y32052300D03*
X139939100Y30582600D03*
X141408800Y30582600D03*
X139939100Y32052300D03*
X141408800Y32052300D03*
X142878400Y30582600D03*
X144348100Y30582600D03*
X142878400Y32052300D03*
X144348100Y32052300D03*
X145817700Y30582600D03*
X147287400Y30582600D03*
X145817700Y32052300D03*
X147287400Y32052300D03*
X148757100Y30582600D03*
X150226700Y30582600D03*
X148757100Y32052300D03*
X150226700Y32052300D03*
X151696400Y30582600D03*
X153166000Y30582600D03*
X151696400Y32052300D03*
X153166000Y32052300D03*
X154635700Y30582600D03*
X156105400Y30582600D03*
X154635700Y32052300D03*
X156105400Y32052300D03*
X157575000Y30582600D03*
X159044700Y30582600D03*
X157575000Y32052300D03*
X159044700Y32052300D03*
X160514300Y30582600D03*
X161984000Y30582600D03*
X160514300Y32052300D03*
X161984000Y32052300D03*
X163453600Y30582600D03*
X163453600Y32052300D03*
X163451800Y33960800D03*
X139939100Y29112900D03*
X139939100Y27643300D03*
X141408800Y29112900D03*
X141408800Y27643300D03*
X142878400Y29112900D03*
X142878400Y27643300D03*
X144348100Y29112900D03*
X144348100Y27643300D03*
X145817700Y29112900D03*
X147287400Y29112900D03*
X147590000Y17506700D03*
X149059700Y17506700D03*
X147590000Y18544500D03*
X149059700Y18544500D03*
X150529300Y18544500D03*
X150529300Y17506700D03*
X151999000Y18544500D03*
X151999000Y17506700D03*
X153468700Y18544500D03*
X153468700Y17506700D03*
X154938300Y18544500D03*
X154938300Y17506700D03*
X156408000Y18544500D03*
X156408000Y17506700D03*
X157877600Y18544500D03*
X157877600Y17506700D03*
X159347300Y18544500D03*
X159347300Y17506700D03*
X160817000Y18544500D03*
X160817000Y17506700D03*
X162286600Y18544500D03*
X160817000Y19557000D03*
X162286600Y19557000D03*
X159347300Y19557000D03*
X157877600Y19557000D03*
X156408000Y19557000D03*
X154938300Y19557000D03*
X153468700Y19557000D03*
X151999000Y19557000D03*
X153469600Y21718000D03*
X156459800Y21718000D03*
X159332000Y21718000D03*
X156259200Y25156600D03*
X151818600Y28753800D03*
X156259200Y28753800D03*
X160387900Y28753800D03*
X163070800Y28779200D03*
X124107200Y17450800D03*
X126178300Y17450800D03*
X127993400Y16892000D03*
X129492000Y15444200D03*
X127107500Y15444200D03*
X125523600Y15444200D03*
X123749700Y15444200D03*
X123749700Y13930900D03*
X125946000Y13930900D03*
X128323600Y13930900D03*
X131977700Y18361700D03*
X130508000Y18361700D03*
X134329400Y17752100D03*
X132859700Y17752100D03*
X134329400Y18764500D03*
X132859700Y18764500D03*
X140791500Y19784100D03*
X139321800Y19784100D03*
X140365400Y17193300D03*
X138895800Y17193300D03*
X142927800Y17193300D03*
X141458100Y17193300D03*
X140365400Y18205700D03*
X138895800Y18205700D03*
X142927800Y18735300D03*
X141458100Y18735300D03*
X132897500Y13930900D03*
X130519900Y13930900D03*
X137471400Y13930900D03*
X135093900Y13930900D03*
X142045400Y13930900D03*
X139667800Y13930900D03*
X146619300Y13930900D03*
X144241700Y13930900D03*
X151193200Y13930900D03*
X148815600Y13930900D03*
X155767100Y13930900D03*
X153389600Y13930900D03*
X160341100Y13930900D03*
X157963500Y13930900D03*
X126750700Y11913600D03*
X124373100Y11913600D03*
X131324600Y11913600D03*
X128947100Y11913600D03*
X135898600Y11913600D03*
X133521000Y11913600D03*
X140472500Y11913600D03*
X138094900Y11913600D03*
X145046400Y11913600D03*
X142668800Y11913600D03*
X149620300Y11913600D03*
X147242800Y11913600D03*
X154471900Y11913600D03*
X152094300Y11913600D03*
X159045800Y11913600D03*
X156668200Y11913600D03*
X158014300Y15266400D03*
X160391900Y15266400D03*
X153440400Y15266400D03*
X155817900Y15266400D03*
X151244000Y15266400D03*
X134065900Y15444200D03*
X131688300Y15444200D03*
X138639800Y15444200D03*
X136262300Y15444200D03*
X143213800Y15444200D03*
X140836200Y15444200D03*
X112127900Y7450700D03*
X109750300Y7450700D03*
X116701800Y7450700D03*
X114324200Y7450700D03*
X121275700Y7450700D03*
X118898200Y7450700D03*
X125849700Y7450700D03*
X123472100Y7450700D03*
X130423600Y7450700D03*
X128046000Y7450700D03*
X134997500Y7450700D03*
X132619900Y7450700D03*
X139571400Y7450700D03*
X137193800Y7450700D03*
X144145400Y7450700D03*
X141767800Y7450700D03*
X148719300Y7450700D03*
X146341700Y7450700D03*
X114482500Y4852400D03*
X112104900Y4852400D03*
X119056400Y4852400D03*
X116678900Y4852400D03*
X123630400Y4852400D03*
X121252800Y4852400D03*
X128204300Y4852400D03*
X125826700Y4852400D03*
X132778200Y4852400D03*
X130400600Y4852400D03*
X137352100Y4852400D03*
X134974600Y4852400D03*
X141926100Y4852400D03*
X139548500Y4852400D03*
X146500000Y4852400D03*
X144122400Y4852400D03*
X151073900Y4852400D03*
X148696300Y4852400D03*
X115818500Y1382600D03*
X122770000Y1382600D03*
X120392400Y1382600D03*
X127343900Y1382600D03*
X124966300Y1382600D03*
X131917800Y1382600D03*
X129540200Y1382600D03*
X136491700Y1382600D03*
X134114200Y1382600D03*
X141065700Y1382600D03*
X138688100Y1382600D03*
X145639600Y1382600D03*
X143262000Y1382600D03*
X150213500Y1382600D03*
X147835900Y1382600D03*
X154787400Y1382600D03*
X152409900Y1382600D03*
X127343900Y-3191400D03*
X127343900Y-813800D03*
X131917800Y-813800D03*
X129540200Y-813800D03*
X136491700Y-813800D03*
X134114200Y-813800D03*
X129540200Y-3191400D03*
X131917800Y-3191400D03*
X134114200Y-3191400D03*
X136491700Y-3191400D03*
X138688100Y-813800D03*
X141065700Y-813800D03*
X143262000Y-813800D03*
X145639600Y-813800D03*
X147835900Y-813800D03*
X150213500Y-813800D03*
X152409900Y-813800D03*
X154787400Y-813800D03*
X138688100Y-3191400D03*
X141065700Y-3191400D03*
X143262000Y-3191400D03*
X145639600Y-3191400D03*
X147835900Y-3191400D03*
X150213500Y-3191400D03*
X152409900Y-3191400D03*
X154787400Y-3191400D03*
X47704000Y27814000D03*
X49764700Y27814000D03*
X54284100Y27814000D03*
X49761400Y29007800D03*
X48420200Y29007800D03*
X47106300Y25680400D03*
X49483900Y25680400D03*
X51680300Y25680400D03*
X54057800Y25680400D03*
X47715900Y22734000D03*
X50093500Y22734000D03*
X52289900Y22734000D03*
X54667400Y22734000D03*
X33226000Y7480500D03*
X33226000Y9858100D03*
X33226000Y12054500D03*
X33226000Y14432000D03*
X16332700Y33799300D03*
X18710300Y33799300D03*
X20906600Y33799300D03*
X23284200Y33799300D03*
X18632900Y31624000D03*
X21010500Y31624000D03*
X23206900Y31624000D03*
X25584400Y31624000D03*
X25480600Y33799300D03*
X27858100Y33799300D03*
X30054500Y33799300D03*
X32432100Y33799300D03*
X32432100Y35995700D03*
X32432100Y38373300D03*
X32432100Y40569600D03*
X32432100Y42947200D03*
X34628400Y42947200D03*
X37006000Y42947200D03*
X39202300Y42947200D03*
X41579900Y42947200D03*
X43776300Y42947200D03*
X46153800Y42947200D03*
X48350200Y42947200D03*
X50727800Y42947200D03*
X34628400Y40569600D03*
X37006000Y40569600D03*
X34965100Y44933600D03*
X37342700Y44933600D03*
X39539100Y44933600D03*
X41916600Y44933600D03*
X44113000Y44933600D03*
X46490600Y44933600D03*
X48686900Y44933600D03*
X51064500Y44933600D03*
X61161400Y54500500D03*
X61161400Y56878100D03*
X61161400Y59074500D03*
X61161400Y61452100D03*
X58854600Y57747100D03*
X58854600Y60124700D03*
X58854600Y62321100D03*
X58854600Y64698600D03*
X56670200Y60515700D03*
X56670200Y62893300D03*
X56670200Y65089700D03*
X56670200Y67467200D03*
X37479700Y60503800D03*
X39857300Y60503800D03*
X42053700Y60503800D03*
X44431200Y60503800D03*
X37479700Y58307500D03*
X37479700Y55929900D03*
X37479700Y53733500D03*
X39676100Y58307500D03*
X42053700Y58307500D03*
X44250000Y58307500D03*
X46627600Y58307500D03*
X39676100Y55929900D03*
X42053700Y55929900D03*
X44250000Y55929900D03*
X46627600Y55929900D03*
X39676100Y53733500D03*
X42053700Y53733500D03*
X44250000Y53733500D03*
X46627600Y53733500D03*
X59565800Y45441600D03*
X59565800Y48230000D03*
X59565800Y51038800D03*
X56695600Y53163200D03*
X38521100Y48286400D03*
X40898700Y48286400D03*
X43095100Y48286400D03*
X45472600Y48286400D03*
X47669000Y48286400D03*
X50046600Y48286400D03*
X52242900Y48286400D03*
X49685200Y53683100D03*
X49685200Y56060700D03*
X49685200Y58257100D03*
X49685200Y60634600D03*
X23396200Y60732400D03*
X24920200Y59386200D03*
X28577800Y60376800D03*
%TO.N,$5N4058*%
X28831800Y66320400D03*
%TO.N,GND*%
X30508200Y67590400D03*
X24017700Y70994000D03*
X26395300Y70994000D03*
X28591700Y70994000D03*
X30969200Y70994000D03*
X25998900Y73635600D03*
X28376500Y73635600D03*
X30572900Y73635600D03*
X32950400Y73635600D03*
X37186100Y73672200D03*
X39563700Y73672200D03*
X41760000Y73672200D03*
X44137600Y73672200D03*
X46334000Y73672200D03*
X48711500Y73672200D03*
X50907900Y73672200D03*
X53285500Y73672200D03*
X55481800Y73672200D03*
X57859400Y73672200D03*
X60055700Y73672200D03*
X62433300Y73672200D03*
X37186100Y71680100D03*
X39563700Y71680100D03*
X41760000Y71680100D03*
X44137600Y71680100D03*
X46334000Y71680100D03*
X48711500Y71680100D03*
X50907900Y71680100D03*
X53285500Y71680100D03*
X55481800Y71680100D03*
X57859400Y71680100D03*
X60055700Y71680100D03*
X62433300Y71680100D03*
X37733700Y66168000D03*
X40111300Y66168000D03*
X42307700Y66168000D03*
X44685200Y66168000D03*
X46881600Y66168000D03*
X49259200Y66168000D03*
X51455500Y66168000D03*
X53833100Y66168000D03*
X40451500Y68555600D03*
X42829100Y68555600D03*
X45025500Y68555600D03*
X47403000Y68555600D03*
X49153700Y68581000D03*
X51350100Y68581000D03*
X53727600Y68581000D03*
X37428900Y63297800D03*
X39806500Y63297800D03*
X42002900Y63297800D03*
X44380400Y63297800D03*
X20871200Y48603100D03*
X20871200Y50980700D03*
X20871200Y53177100D03*
X20871200Y55554600D03*
X24672500Y48603100D03*
X24672500Y50980700D03*
X24672500Y53177100D03*
X24672500Y55554600D03*
X17870900Y36754800D03*
X20248500Y36754800D03*
X22444900Y36754800D03*
X24822400Y36754800D03*
X20487100Y28601400D03*
X22864700Y28601400D03*
X25061100Y28601400D03*
X27438600Y28601400D03*
X20436300Y26417000D03*
X22813900Y26417000D03*
X25010300Y26417000D03*
X27387800Y26417000D03*
X20309300Y23648400D03*
X22686900Y23648400D03*
X24883300Y23648400D03*
X27260800Y23648400D03*
X33226000Y21806100D03*
X33226000Y24183700D03*
X33226000Y26380100D03*
X33226000Y28757600D03*
X30152600Y21882300D03*
X30152600Y24259900D03*
X30152600Y26456300D03*
X30152600Y28833800D03*
X24818600Y20625800D03*
X22024600Y20676600D03*
X20043400Y12777200D03*
X22183400Y12777200D03*
X24949900Y12777200D03*
X20068800Y10618200D03*
X25860000Y11710400D03*
X7172200Y12960800D03*
X9549800Y12960800D03*
X11746100Y12960800D03*
X14123700Y12960800D03*
X1018800Y3391100D03*
X1018800Y5768700D03*
X1018800Y7965100D03*
X1018800Y10342600D03*
X3215100Y1017000D03*
X5592700Y1017000D03*
X7789100Y1017000D03*
X10166600Y1017000D03*
X12363000Y1017000D03*
X14740600Y1017000D03*
X16936900Y1017000D03*
X19314500Y1017000D03*
X7789100Y-1179300D03*
X7789100Y-3556900D03*
X7789100Y-5753300D03*
X9985400Y-1179300D03*
X12363000Y-1179300D03*
X14559300Y-1179300D03*
X16936900Y-1179300D03*
X9985400Y-3556900D03*
X12363000Y-3556900D03*
X14559300Y-3556900D03*
X16936900Y-3556900D03*
X9985400Y-5753300D03*
X12363000Y-5753300D03*
X14559300Y-5753300D03*
X16936900Y-5753300D03*
X19133200Y-5753300D03*
X21510800Y-5753300D03*
X23707200Y-5753300D03*
X26084800Y-5753300D03*
X19133200Y-3556900D03*
X21510800Y-3556900D03*
X23707200Y-3556900D03*
X26084800Y-3556900D03*
X19133200Y-1179300D03*
X21510800Y-1179300D03*
X23707200Y-1179300D03*
X26084800Y-1179300D03*
X47233300Y-5434600D03*
X49610900Y-5434600D03*
X51807300Y-5434600D03*
X54184800Y-5434600D03*
X64417200Y1017000D03*
X84178400Y3353800D03*
X91950800Y3760200D03*
X109254300Y27642000D03*
X111631800Y27642000D03*
X113828200Y27642000D03*
X116205800Y27642000D03*
X110772200Y30252400D03*
X112067600Y33554400D03*
X113667800Y30277800D03*
X104371400Y37212000D03*
X104371400Y33505200D03*
X108740200Y37212000D03*
X88127300Y29947600D03*
X90504900Y29947600D03*
X92701300Y29947600D03*
X95078800Y29947600D03*
X88127300Y32143900D03*
X88127300Y34521500D03*
X88127300Y36717900D03*
X88127300Y39095400D03*
X90323700Y32143900D03*
X92701300Y32143900D03*
X94897600Y32143900D03*
X97275200Y32143900D03*
X90323700Y34521500D03*
X92701300Y34521500D03*
X94897600Y34521500D03*
X97275200Y34521500D03*
X90323700Y36717900D03*
X92701300Y36717900D03*
X94897600Y36717900D03*
X86058000Y43257200D03*
X88654800Y43257200D03*
X90553800Y41657000D03*
X92687400Y39371000D03*
X100586800Y37059600D03*
X97513400Y40361600D03*
X94135200Y43816000D03*
X79897700Y46762400D03*
X82275300Y46762400D03*
X84471700Y46762400D03*
X86849200Y46762400D03*
X77726800Y48946800D03*
X75822300Y48946800D03*
X75313800Y47676800D03*
X76355200Y47016400D03*
%TO.N,PB12*%
X70030600Y44730400D03*
%TO.N,GND*%
X71420800Y44730400D03*
X70005200Y47041800D03*
X76392500Y56058800D03*
X78770100Y56058800D03*
X80966500Y56058800D03*
X83344000Y56058800D03*
X76519500Y53772800D03*
X78897100Y53772800D03*
X81093500Y53772800D03*
X83471000Y53772800D03*
X76519500Y51639200D03*
X78897100Y51639200D03*
X81093500Y51639200D03*
X83471000Y51639200D03*
X71961000Y49531000D03*
X73840600Y51563000D03*
X72748400Y53264800D03*
X70081400Y50978800D03*
X70805200Y71401800D03*
X73182700Y71401800D03*
X75379100Y71401800D03*
X77756700Y71401800D03*
X79953000Y71401800D03*
X82330600Y71401800D03*
X84526900Y71401800D03*
X86904500Y71401800D03*
X73371900Y69518900D03*
X75749400Y69518900D03*
X77945800Y69518900D03*
X80323400Y69518900D03*
X73420900Y67530900D03*
X75798500Y67530900D03*
X77994900Y67530900D03*
X80372500Y67530900D03*
X73573100Y64440800D03*
X75950700Y64440800D03*
X78147100Y64440800D03*
X80524600Y64440800D03*
X82721000Y64440800D03*
X85098600Y64440800D03*
X87294900Y64440800D03*
X89672500Y64440800D03*
X82568800Y67530900D03*
X84946400Y67530900D03*
X87142700Y67530900D03*
X89672500Y67530900D03*
X82519700Y69518900D03*
X84897300Y69518900D03*
X87093600Y69518900D03*
X89672500Y69518900D03*
X91868800Y64440800D03*
X94246400Y64440800D03*
X96442800Y64440800D03*
X98820300Y64440800D03*
X91868800Y67530900D03*
X94246400Y67530900D03*
X96442800Y67530900D03*
X98820300Y67530900D03*
X91868800Y69518900D03*
X94246400Y69518900D03*
X96442800Y69518900D03*
X98820300Y69518900D03*
X90438700Y59030600D03*
X92816300Y59030600D03*
X95012700Y59030600D03*
X97390200Y59030600D03*
X99586600Y59030600D03*
X101964200Y59030600D03*
X104160500Y59030600D03*
X90489500Y57278000D03*
X92867100Y57278000D03*
X95063500Y57278000D03*
X97441000Y57278000D03*
X91581700Y55169800D03*
X93959300Y55169800D03*
X96155700Y55169800D03*
X98533200Y55169800D03*
X95086900Y51664600D03*
X97464500Y51664600D03*
X99660900Y51664600D03*
X102038400Y51664600D03*
X93630300Y53451500D03*
X96007900Y53451500D03*
X98204200Y53451500D03*
X100581800Y53451500D03*
X100485200Y57049400D03*
X101983800Y54636400D03*
X102314000Y57100200D03*
X101628200Y46508400D03*
X103836300Y46508400D03*
X103507800Y43993800D03*
X106301800Y41149000D03*
X111153200Y40691800D03*
X108892600Y41530000D03*
%TO.N,$3N1633*%
X111762800Y43663600D03*
%TO.N,GND*%
X111762800Y44959000D03*
X112448600Y49099200D03*
X111534200Y50801000D03*
X107089200Y45822600D03*
X107546400Y51715400D03*
X115344200Y51207400D03*
X116825700Y51207400D03*
X116825700Y49640200D03*
X116233200Y47956200D03*
X118468400Y49886600D03*
X122278400Y48616600D03*
X114785400Y41199800D03*
X122837200Y40844200D03*
X123650000Y43612800D03*
X119484400Y40641000D03*
X116055400Y41961800D03*
X112347000Y37389800D03*
X126088400Y32767000D03*
X125529600Y31928800D03*
X123294400Y30404800D03*
X120094000Y24689800D03*
X120094000Y26692600D03*
X122507000Y27915600D03*
X122507000Y25200200D03*
X121821200Y22683200D03*
X123573800Y26620200D03*
X123243600Y23978600D03*
X123624600Y20956000D03*
X127663200Y20702000D03*
X125656600Y21972000D03*
X126952000Y26264600D03*
X126164600Y29566600D03*
X128374400Y31776400D03*
X129619000Y30328600D03*
X135511800Y22378400D03*
X133505200Y22124400D03*
X132743200Y20778200D03*
X134507700Y35281600D03*
X136885300Y35281600D03*
X139081700Y35281600D03*
X141459200Y35281600D03*
X143655600Y35281600D03*
X146033200Y35281600D03*
X148229500Y35281600D03*
X150607100Y35281600D03*
X152803400Y35281600D03*
X155181000Y35281600D03*
X157377400Y35281600D03*
X159754900Y35281600D03*
X126723400Y35586400D03*
X129669800Y35586400D03*
X126019900Y40348100D03*
X126019900Y42725700D03*
X126019900Y44922100D03*
X126019900Y47299600D03*
X127762100Y40348100D03*
X127762100Y42725700D03*
X127762100Y44922100D03*
X127762100Y47299600D03*
X152643300Y59691000D03*
X155020900Y59691000D03*
X157217300Y59691000D03*
X159594800Y59691000D03*
X152955500Y62782600D03*
X155333100Y62782600D03*
X157529400Y62782600D03*
X159907000Y62782600D03*
X139892500Y69774800D03*
X142270100Y69774800D03*
X144466500Y69774800D03*
X146844000Y69774800D03*
X180012600Y51955900D03*
X180012600Y54333500D03*
X180012600Y56529900D03*
X180012600Y58907400D03*
X179911000Y72301300D03*
X179911000Y74678900D03*
X179911000Y76875300D03*
X179911000Y79252800D03*
X121833100Y98959400D03*
X124210700Y98959400D03*
X126407100Y98959400D03*
X128784600Y98959400D03*
X130981000Y98959400D03*
X133358600Y98959400D03*
X135554900Y98959400D03*
X137932500Y98959400D03*
X140128800Y98959400D03*
X142506400Y98959400D03*
X144702800Y98959400D03*
X147080300Y98959400D03*
X149276700Y98959400D03*
X151654300Y98959400D03*
X153850600Y98959400D03*
X156228200Y98959400D03*
X158424500Y98959400D03*
X160802100Y98959400D03*
X162998500Y98959400D03*
X165376000Y98959400D03*
X133358600Y96763100D03*
X133358600Y94385500D03*
X133358600Y92189100D03*
X133358600Y89811600D03*
X135554900Y96763100D03*
X137932500Y96763100D03*
X140128800Y96763100D03*
X142506400Y96763100D03*
X135554900Y94385500D03*
X137932500Y94385500D03*
X140128800Y94385500D03*
X142506400Y94385500D03*
X135554900Y92189100D03*
X137932500Y92189100D03*
X140128800Y92189100D03*
X142506400Y92189100D03*
X144702800Y92189100D03*
X147080300Y92189100D03*
X149276700Y92189100D03*
X151654300Y92189100D03*
X144702800Y94385500D03*
X147080300Y94385500D03*
X149276700Y94385500D03*
X151654300Y94385500D03*
X144702800Y96763100D03*
X147080300Y96763100D03*
X149276700Y96763100D03*
X151654300Y96763100D03*
X153850600Y96763100D03*
X156228200Y96763100D03*
X158424500Y96763100D03*
X160802100Y96763100D03*
X153850600Y94385500D03*
X156228200Y94385500D03*
X158424500Y94385500D03*
X160802100Y94385500D03*
X153850600Y92189100D03*
X156228200Y92189100D03*
X158424500Y92189100D03*
X160802100Y92189100D03*
X162998500Y96763100D03*
X165376000Y96763100D03*
X167572400Y96763100D03*
X169950000Y96763100D03*
X162998500Y94385500D03*
X165376000Y94385500D03*
X167572400Y94385500D03*
X169950000Y94385500D03*
X167572400Y98959400D03*
X169950000Y98959400D03*
X172146300Y98959400D03*
X174523900Y98959400D03*
X122163300Y97130600D03*
X124540900Y97130600D03*
X126737300Y97130600D03*
X129114800Y97130600D03*
X124652500Y94489000D03*
X127030100Y94489000D03*
X129226500Y94489000D03*
X131604000Y94489000D03*
X53987400Y86719200D03*
X54038200Y90151800D03*
X10987500Y97232200D03*
X13365100Y97232200D03*
X15561500Y97232200D03*
X17939000Y97232200D03*
X20135400Y97232200D03*
X22513000Y97232200D03*
X24709300Y97232200D03*
X27086900Y97232200D03*
X29283200Y97232200D03*
X31660800Y97232200D03*
X33857200Y97232200D03*
X36234700Y97232200D03*
X31524200Y48261000D03*
X34978600Y51207400D03*
X32083000Y56668400D03*
X28628600Y55296800D03*
X28628600Y52530100D03*
X16792200Y41511300D03*
X10188200Y36450000D03*
X13617200Y16612600D03*
X9578600Y16612600D03*
X16986800Y7233200D03*
X20881600Y3201400D03*
X23609800Y3201400D03*
X25806200Y3201400D03*
X28183800Y3201400D03*
X30380100Y3201400D03*
X32757700Y3201400D03*
X35766000Y6210500D03*
X35766000Y8588100D03*
X35766000Y10784500D03*
X35766000Y13162000D03*
X38661600Y6235900D03*
X38661600Y8613500D03*
X38661600Y10809900D03*
X38661600Y13187400D03*
X30381200Y9969700D03*
X30381200Y12347300D03*
X30381200Y14543700D03*
%TO.N,PA2*%
X69852800Y26975800D03*
%TO.N,GND*%
X72265800Y26366200D03*
X75009000Y25477200D03*
X75161400Y22454600D03*
X75898000Y19152600D03*
X78336400Y22784800D03*
X82984600Y23877000D03*
X85550000Y22530800D03*
X89182200Y24131000D03*
X93144600Y22530800D03*
X87886800Y19076400D03*
X90071200Y17400000D03*
X93322400Y18924000D03*
X97538800Y16903900D03*
X97538800Y19281500D03*
X97538800Y21477900D03*
X97538800Y23855400D03*
X180012600Y38274200D03*
X180012600Y35896600D03*
X180012600Y33700300D03*
X180012600Y31322700D03*
X180012600Y17640900D03*
X180012600Y15263300D03*
X180012600Y13067000D03*
X162715200Y10745200D03*
X163655000Y11735800D03*
X165153600Y12955000D03*
X165458400Y11329400D03*
X164264600Y10313400D03*
X165179000Y8738600D03*
X167007800Y8484600D03*
X169330600Y8484600D03*
X169330600Y11305200D03*
X171402000Y11583400D03*
X173821800Y11583400D03*
%TO.N,$4N8351*%
X170119500Y15131200D03*
X171741600Y15131200D03*
%TO.N,GND*%
X173529600Y15263300D03*
X175690600Y15263300D03*
X175440600Y11594000D03*
X177625000Y11634200D03*
X177851600Y15263300D03*
X166982200Y22553400D03*
X164797000Y22553400D03*
X176151800Y17806400D03*
X177037300Y39421800D03*
X177037300Y37952100D03*
X175567600Y37952100D03*
X175567600Y39421800D03*
X175567600Y36482500D03*
X177037300Y36482500D03*
X175567600Y35012800D03*
X177037300Y35012800D03*
X175567600Y33543200D03*
X177037300Y33543200D03*
X175567600Y32073500D03*
X177037300Y32073500D03*
X175567600Y30603800D03*
X177037300Y30603800D03*
X178506900Y30603800D03*
X178506900Y32073500D03*
X178506900Y33543200D03*
X178506900Y35012800D03*
X178506900Y36482500D03*
X178506900Y37952100D03*
X169878000Y32135500D03*
X171347700Y32135500D03*
X169878000Y30665900D03*
X171347700Y30665900D03*
X172817300Y30665900D03*
X173154600Y32135500D03*
X174624300Y32135500D03*
X174287000Y30900200D03*
X164797000Y43186700D03*
X166982200Y43186700D03*
X170119500Y56685600D03*
X172277700Y56685600D03*
X166982200Y63819900D03*
X164797000Y63819900D03*
X177037300Y58192400D03*
X175567600Y58192400D03*
X175567600Y56722700D03*
X177037300Y56722700D03*
X175567600Y55253100D03*
X177037300Y55253100D03*
X178506900Y55253100D03*
X178506900Y53783400D03*
X177037300Y53783400D03*
X175567600Y53783400D03*
X175567600Y52313800D03*
X177037300Y52313800D03*
X178506900Y52313800D03*
X169497000Y52118300D03*
X169497000Y50648600D03*
X170966700Y50648600D03*
X170966700Y52118300D03*
X172436300Y50648600D03*
X172436300Y52118300D03*
X173906000Y52118300D03*
X173906000Y50648600D03*
X177062700Y79249000D03*
X175593000Y79249000D03*
X175593000Y77779300D03*
X177062700Y77779300D03*
X175593000Y76309700D03*
X177062700Y76309700D03*
X178532300Y76309700D03*
X178532300Y74840000D03*
X177062700Y74840000D03*
X175593000Y74840000D03*
X175593000Y73370400D03*
X177062700Y73370400D03*
X178532300Y73370400D03*
X169243000Y72793900D03*
X169243000Y71324200D03*
X170712700Y71324200D03*
X170712700Y72793900D03*
X172182300Y71324200D03*
X172182300Y72793900D03*
X173652000Y72793900D03*
X173652000Y71324200D03*
X170119500Y77318900D03*
X172277700Y77318900D03*
X164797000Y84453200D03*
X166982200Y84453200D03*
X147830800Y80439300D03*
X147830800Y78969600D03*
X149300500Y78969600D03*
X149300500Y80439300D03*
X150770100Y78969600D03*
X150770100Y80439300D03*
X152239800Y80439300D03*
X152239800Y78969600D03*
X153709400Y78969600D03*
X153709400Y80439300D03*
X155198400Y80439300D03*
X155198400Y78969600D03*
X156668000Y78969600D03*
X156668000Y80439300D03*
X158137700Y78969600D03*
X158137700Y80439300D03*
X159607300Y80439300D03*
X159607300Y78969600D03*
X161077000Y78969600D03*
X161077000Y80439300D03*
X155719600Y84075000D03*
X154249900Y84075000D03*
X152780300Y84075000D03*
X151310600Y84075000D03*
X161264000Y84075000D03*
X159794300Y84075000D03*
X158324700Y84075000D03*
X156855000Y84075000D03*
X155872000Y82678000D03*
X154402300Y82678000D03*
X152932700Y82678000D03*
X151463000Y82678000D03*
X161129800Y82652600D03*
X159660100Y82652600D03*
X158190500Y82652600D03*
X156720800Y82652600D03*
X162766000Y83734200D03*
X162766000Y82264500D03*
X162766000Y80794900D03*
X162766000Y79325200D03*
X157548400Y51563000D03*
X156078700Y51563000D03*
X154609100Y51563000D03*
X153139400Y51563000D03*
X163263400Y51512200D03*
X161793700Y51512200D03*
X160324100Y51512200D03*
X158854400Y51512200D03*
X63401200Y52426600D03*
X63477400Y58040000D03*
X63477400Y61477900D03*
X73104000Y60834000D03*
X76634600Y62205600D03*
X84269400Y62281800D03*
X82799700Y62281800D03*
X81330100Y62281800D03*
X79860400Y62281800D03*
X134114800Y60493200D03*
X134114800Y59023500D03*
X134114800Y57553900D03*
X134114800Y56084200D03*
X114571600Y11685000D03*
X113101900Y11685000D03*
X111632300Y11685000D03*
X110162600Y11685000D03*
%TO.N,+5V*%
X112067600Y17192300D03*
%TO.N,GND*%
X112067600Y14253000D03*
%TO.N,$3N3277*%
X112067600Y12783400D03*
%TO.N,GND*%
X96319600Y85929200D03*
X97181800Y85929200D03*
X116182400Y57379600D03*
X115953800Y58497200D03*
X119332000Y57760600D03*
X77904600Y31014400D03*
X77345800Y34291000D03*
X78387200Y35307000D03*
X80393800Y35510200D03*
X66804800Y33681400D03*
X66830200Y34468800D03*
X64036200Y38913800D03*
X63960000Y33097200D03*
X56365400Y34331200D03*
X56365400Y32861500D03*
X56365400Y31391900D03*
X56365400Y29922200D03*
X56517800Y40452600D03*
X56517800Y38982900D03*
X56517800Y37513300D03*
X56517800Y36043600D03*
X66195200Y40782800D03*
X66195200Y39313100D03*
X66195200Y37843500D03*
X66195200Y36373800D03*
X64163200Y44857400D03*
X64137800Y48642000D03*
X84597100Y534400D03*
X117757200Y1169400D03*
X117757200Y-658800D03*
X156259200Y49387100D03*
X156259200Y45789900D03*
X151818600Y49387100D03*
X160387900Y49387100D03*
X102034600Y64415400D03*
X102517200Y67565000D03*
X102517200Y69750200D03*
X106505000Y68708000D03*
X105057200Y67336400D03*
X114125000Y69800200D03*
X111418700Y69800200D03*
X112626400Y70867000D03*
X118011200Y75134200D03*
X118036600Y70003400D03*
X151336000Y8256000D03*
X153842300Y8256000D03*
X156439900Y8256000D03*
X8588000Y44933600D03*
X9807200Y45619400D03*
X11610600Y47168800D03*
X10112000Y46914800D03*
X11001000Y45975000D03*
X14099800Y45060600D03*
X16585400Y45060600D03*
X134013200Y84202000D03*
X135860000Y84202000D03*
X134013200Y82449400D03*
X1526800Y27458400D03*
X1526800Y32425600D03*
X17579600Y23623000D03*
X17579600Y27254200D03*
X11966200Y28957000D03*
%TD*%
%TO.N,$3N2289*%
D14*
X111316900Y63489700D02*
X121795800Y63489700D01*
%TO.N,$3N1635*%
X107495600Y46889400D02*
X110696000Y46889400D01*
X110696000Y46889400D02*
X111316900Y46268500D01*
X111316900Y46268500D02*
X121795800Y46268500D01*
%TO.N,$3N3279*%
X107495600Y16815800D02*
X110696000Y16815800D01*
X110696000Y16815800D02*
X111316900Y16194900D01*
X111316900Y16194900D02*
X121795800Y16194900D01*
%TO.N,OUTUP1*%
X123827800Y62434200D02*
X123827800Y59157600D01*
X123827800Y59157600D02*
X120449600Y55779400D01*
%TO.N,OUT1+*%
X123142000Y60238600D02*
X123142000Y59157600D01*
X123142000Y59157600D02*
X120297200Y56312800D01*
X120297200Y56312800D02*
X104193600Y56312800D01*
%TO.N,FB2*%
X123472200Y49759600D02*
X120957600Y49759600D01*
%TO.N,ADC1*%
X122903000Y56962800D02*
X121262400Y55322200D01*
%TO.N,PWM2*%
X126012200Y54865000D02*
X111229400Y54865000D01*
%TO.N,OUT2+*%
X123548400Y51232800D02*
X123548400Y53273400D01*
%TO.N,PWM2*%
X111229400Y54865000D02*
X109553000Y53188600D01*
%TO.N,OUTUP1*%
X108384600Y50724800D02*
X107876600Y50216800D01*
%TO.N,ADC1*%
X108943400Y50013600D02*
X107724200Y48794400D01*
X107724200Y48794400D02*
X102110800Y48794400D01*
%TO.N,PWM2*%
X109553000Y53188600D02*
X109553000Y49653300D01*
X109553000Y49653300D02*
X109125800Y49226200D01*
%TO.N,ADC2*%
X109172000Y39929800D02*
X115420400Y39929800D01*
%TO.N,FA3*%
X116665000Y38151800D02*
X105108000Y38151800D01*
%TO.N,DACINT4*%
X106225600Y19051000D02*
X106225600Y18009600D01*
%TO.N,ADC3*%
X105908100Y29909500D02*
X109159300Y29909500D01*
X109159300Y29909500D02*
X109172000Y29922200D01*
%TO.N,3.3V*%
X71402200Y43104800D02*
X79581000Y43104800D01*
%TO.N,PE6*%
X93424000Y-5790200D02*
X94744800Y-4469400D01*
%TO.N,DACINT4*%
X107927400Y20752800D02*
X106225600Y19051000D01*
%TO.N,PA15*%
X57683900Y11758900D02*
X57683900Y15014700D01*
X57683900Y15014700D02*
X57178200Y15520400D01*
X57178200Y15520400D02*
X56060600Y15520400D01*
%TO.N,PD15*%
X57584600Y7925800D02*
X57584600Y8038700D01*
X57584600Y8038700D02*
X42225600Y23397600D01*
X42225600Y23397600D02*
X42225600Y33952800D01*
%TO.N,PD14*%
X57772800Y6767800D02*
X41362000Y23178500D01*
X41362000Y23178500D02*
X41362000Y34214800D01*
%TO.N,PC9*%
X43597200Y31319200D02*
X43597200Y23905800D01*
X43597200Y23905800D02*
X58326900Y9176100D01*
%TO.N,PC8*%
X42911400Y31903400D02*
X42911400Y23621700D01*
X42911400Y23621700D02*
X58680200Y7853000D01*
%TO.N,PA8*%
X44283000Y24189800D02*
X44283000Y30557200D01*
X58176800Y10296000D02*
X44283000Y24189800D01*
%TO.N,3.3V*%
X55309000Y14240000D02*
X55766200Y14240000D01*
X55766200Y14240000D02*
X56507400Y13498800D01*
X56507400Y13498800D02*
X56998100Y13498800D01*
%TO.N,PD13*%
X40642800Y22835600D02*
X56594000Y6884400D01*
%TO.N,PD11*%
X55120800Y6224000D02*
X39245800Y22099000D01*
X39245800Y22099000D02*
X39245800Y33046400D01*
%TO.N,PD12*%
X39963900Y32543200D02*
X39963900Y22422300D01*
X39963900Y22422300D02*
X56352700Y6033500D01*
%TO.N,PD13*%
X40649700Y32259100D02*
X40642800Y32252200D01*
X40642800Y32252200D02*
X40642800Y22835600D01*
X40649700Y33173400D02*
X40649700Y32259100D01*
%TO.N,PD10*%
X55270900Y5104100D02*
X38560000Y21814900D01*
X38560000Y21814900D02*
X38560000Y33681400D01*
%TO.N,PD9*%
X37874200Y32538400D02*
X37874200Y21530900D01*
X37874200Y21530900D02*
X55471700Y3933300D01*
%TO.N,PD8*%
X37163000Y33808400D02*
X37163000Y21230700D01*
X37163000Y21230700D02*
X55324000Y3069700D01*
%TO.N,PB15*%
X36477200Y32868600D02*
X36477200Y20752800D01*
X36477200Y20752800D02*
X55171600Y2058400D01*
X55171600Y2058400D02*
X56365400Y2058400D01*
%TO.N,PB14*%
X35715200Y32233600D02*
X35715200Y20752800D01*
X35715200Y20752800D02*
X55120800Y1347200D01*
X55120800Y1347200D02*
X56949600Y1347200D01*
%TO.N,PB13*%
X35029400Y33529000D02*
X35029400Y20473400D01*
X35029400Y20473400D02*
X54841400Y661400D01*
X54841400Y661400D02*
X55705000Y661400D01*
%TO.N,PB12*%
X34343600Y32741600D02*
X34343600Y20117800D01*
X34343600Y20117800D02*
X54485800Y-24400D01*
X54485800Y-24400D02*
X56441600Y-24400D01*
%TO.N,PE13*%
X66754000Y-4520200D02*
X68024000Y-5790200D01*
%TO.N,PE11*%
X70564000Y-5790200D02*
X69294000Y-4520200D01*
%TO.N,PE9*%
X71873000Y-2740300D02*
X71884800Y-2728500D01*
X73104000Y-5790200D02*
X71873000Y-4559200D01*
X71873000Y-4559200D02*
X71873000Y-2740300D01*
X71884800Y-2728500D02*
X71884800Y19000200D01*
%TO.N,PC4*%
X75644000Y-5790200D02*
X74399400Y-4545600D01*
%TO.N,PC5*%
X73104000Y-3250200D02*
X73104000Y18355700D01*
%TO.N,PC4*%
X74399400Y-4545600D02*
X74399400Y17635100D01*
%TO.N,PC13*%
X75644000Y16965200D02*
X75644000Y-3250200D01*
X66144400Y26464800D02*
X75644000Y16965200D01*
%TO.N,PE10*%
X70564000Y-3250200D02*
X70564000Y19746300D01*
%TO.N,PE11*%
X69294000Y-4520200D02*
X69294000Y20441500D01*
%TO.N,PE12*%
X68024000Y-3250200D02*
X68024000Y21136800D01*
%TO.N,PE13*%
X66754000Y21832100D02*
X66754000Y-4520200D01*
%TO.N,PE14*%
X65484000Y-3250200D02*
X65484000Y22527300D01*
%TO.N,PE11*%
X60378600Y29356900D02*
X60378600Y30684200D01*
X69294000Y20441500D02*
X60378600Y29356900D01*
%TO.N,PE10*%
X61140600Y29169700D02*
X61140600Y31776400D01*
X70564000Y19746300D02*
X61140600Y29169700D01*
%TO.N,PE9*%
X71884800Y19000200D02*
X61826400Y29058600D01*
X61826400Y29058600D02*
X61826400Y30684200D01*
%TO.N,PC5*%
X73104000Y18355700D02*
X62512200Y28947500D01*
X62512200Y28947500D02*
X62512200Y31801800D01*
%TO.N,PC4*%
X74399400Y17635100D02*
X63198000Y28836500D01*
X63198000Y28836500D02*
X63198000Y30684200D01*
%TO.N,PE13*%
X58882800Y29703300D02*
X66754000Y21832100D01*
%TO.N,PE14*%
X65484000Y22527300D02*
X57968400Y30042900D01*
X57968400Y30042900D02*
X57968400Y31700200D01*
%TO.N,PE12*%
X68024000Y21136800D02*
X59692800Y29468000D01*
X59692800Y29468000D02*
X59692800Y31776400D01*
%TO.N,PE13*%
X58882800Y29703300D02*
X58882800Y30836600D01*
%TO.N,3.3V*%
D15*
X29051200Y9627600D02*
X29060400Y9618400D01*
X29060400Y9618400D02*
X29060400Y5309600D01*
X27913500Y19274300D02*
X27913500Y14277300D01*
X37036000Y4959000D02*
X29411000Y4959000D01*
X29411000Y4959000D02*
X29060400Y5309600D01*
X54751300Y46406800D02*
X54757400Y46400700D01*
X73001000Y48083200D02*
X73901400Y47182800D01*
%TO.N,$2N12002*%
D14*
X64882800Y40285400D02*
X64882800Y58480200D01*
X64882800Y58480200D02*
X68760600Y62358000D01*
%TO.N,3.3V*%
D15*
X56086000Y69901800D02*
X65001400Y69901800D01*
X72215000Y68479400D02*
X70792600Y69901800D01*
X70792600Y69901800D02*
X67541400Y69901800D01*
X28243200Y39562300D02*
X28243200Y43600900D01*
X28243200Y43600900D02*
X28243200Y45869000D01*
%TO.N,PE6*%
D14*
X71707000Y27534600D02*
X67693800Y31547800D01*
X67693800Y31547800D02*
X67033400Y31547800D01*
%TO.N,PA2*%
X71859400Y28042600D02*
X67592200Y32309800D01*
X67592200Y32309800D02*
X67592200Y41098200D01*
%TO.N,PC13*%
X66906400Y32563800D02*
X66144400Y31801800D01*
X66144400Y31801800D02*
X66144400Y26464800D01*
%TO.N,3.3V*%
D15*
X71603600Y34316400D02*
X71603600Y32056500D01*
X71603600Y34316400D02*
X71603600Y41125400D01*
X71603600Y41125400D02*
X67516000Y45213000D01*
X162876800Y7854300D02*
X162876800Y-2783800D01*
X162876800Y-2783800D02*
X159870400Y-5790200D01*
X159870400Y-5790200D02*
X124134000Y-5790200D01*
X105317400Y28703000D02*
X105362000Y28658400D01*
X105362000Y28658400D02*
X105362000Y28683800D01*
X105362000Y28683800D02*
X105349600Y28696200D01*
%TO.N,DACINT4*%
D14*
X120246400Y22198800D02*
X118365000Y22198800D01*
X118365000Y22198800D02*
X116919000Y20752800D01*
X116919000Y20752800D02*
X107927400Y20752800D01*
%TO.N,+5V*%
D16*
X18087600Y11075400D02*
X18087600Y18441400D01*
X18087600Y18441400D02*
X15801600Y20727400D01*
X15801600Y20727400D02*
X15801600Y24588200D01*
%TO.N,3.3V*%
D15*
X28243200Y45869000D02*
X28781000Y46406800D01*
%TO.N,+5V*%
D16*
X15813100Y24588200D02*
X15813100Y27827900D01*
X15813100Y27827900D02*
X12118600Y31522400D01*
X42928800Y1956800D02*
X29893100Y1956800D01*
X29893100Y1956800D02*
X29212800Y1956800D01*
X60404000Y-3250200D02*
X58905400Y-1751600D01*
X46154600Y1956800D02*
X43741900Y1956800D01*
X43741900Y1956800D02*
X42928800Y1956800D01*
X58905400Y-1751600D02*
X49863000Y-1751600D01*
X49863000Y-1751600D02*
X46154600Y1956800D01*
D17*
X115801400Y18314400D02*
X119128800Y18314400D01*
X124615200Y23800800D02*
X124615200Y35027600D01*
X119128800Y18314400D02*
X124615200Y23800800D01*
X124615200Y35027600D02*
X122659400Y36983400D01*
X122659400Y36983400D02*
X116004600Y36983400D01*
D15*
X114919000Y89840800D02*
X113776000Y90983800D01*
X113776000Y90983800D02*
X94414600Y90983800D01*
D16*
X34989800Y66483900D02*
X34989800Y67198200D01*
X34989800Y56070000D02*
X34989800Y66483900D01*
%TO.N,3.3V*%
D15*
X105362000Y14148800D02*
X105362000Y28658400D01*
%TO.N,12V*%
X104055400Y21653000D02*
X104055400Y14033000D01*
X104055400Y14033000D02*
X109426000Y8662400D01*
X109426000Y8662400D02*
X146833700Y8662400D01*
%TO.N,SDA*%
D14*
X104219000Y25375500D02*
X104142800Y25299300D01*
X104142800Y25299300D02*
X98402400Y25299300D01*
%TO.N,SCLK*%
X104269800Y26239100D02*
X104193600Y26162900D01*
X104193600Y26162900D02*
X98402400Y26162900D01*
%TO.N,3.3V*%
X100764600Y22276800D02*
X100764600Y15901400D01*
X100764600Y15901400D02*
X102009200Y14656800D01*
%TO.N,ADC4*%
X101489600Y21780400D02*
X101489600Y17919600D01*
X101489600Y17919600D02*
X102847400Y16561800D01*
%TO.N,12V*%
D16*
X102618800Y30166000D02*
X102618800Y30811200D01*
X89631300Y51875900D02*
X89182200Y52325000D01*
X102618800Y30811200D02*
X102618800Y38888400D01*
X102618800Y38888400D02*
X89631300Y51875900D01*
%TO.N,PWM3*%
D14*
X116309400Y39015400D02*
X105031800Y39015400D01*
%TO.N,DACINT2*%
X99545400Y47880000D02*
X97005400Y47880000D01*
X97005400Y47880000D02*
X85541400Y59344000D01*
X85541400Y59344000D02*
X84711800Y59344000D01*
%TO.N,12V*%
D16*
X88572600Y58029800D02*
X88572600Y58700400D01*
X88572600Y58700400D02*
X88572600Y77115400D01*
X88572600Y77115400D02*
X88572600Y78004400D01*
%TO.N,$3N2289*%
D14*
X107775000Y64085200D02*
X110721400Y64085200D01*
X110721400Y64085200D02*
X111316900Y63489700D01*
%TO.N,PA2*%
X159603100Y2660800D02*
X107858400Y2660800D01*
X107858400Y2660800D02*
X82476600Y28042600D01*
X82476600Y28042600D02*
X71859400Y28042600D01*
%TO.N,PE6*%
X94744800Y-4469400D02*
X94744800Y15114000D01*
X94744800Y15114000D02*
X82324200Y27534600D01*
X82324200Y27534600D02*
X71707000Y27534600D01*
%TO.N,PWM3*%
X105031800Y39015400D02*
X85467500Y58579700D01*
X85467500Y58579700D02*
X72080100Y58579700D01*
%TO.N,FA3*%
X105108000Y38151800D02*
X85413500Y57846300D01*
X85413500Y57846300D02*
X70376700Y57846300D01*
%TO.N,3.3V*%
D15*
X67516000Y59233800D02*
X72215000Y63932800D01*
X72215000Y63932800D02*
X72215000Y68479400D01*
X95075000Y28229500D02*
X94601400Y28703000D01*
X95075000Y28703000D02*
X95075000Y28229500D01*
X94601400Y28703000D02*
X95075000Y28703000D01*
X95075000Y28229500D02*
X95075000Y23369000D01*
X95075000Y28229500D02*
X95548500Y28703000D01*
X95548500Y28703000D02*
X95577600Y28703000D01*
X95075000Y28703000D02*
X95548500Y28703000D01*
X95548500Y28703000D02*
X105317400Y28703000D01*
X71603600Y32056500D02*
X71603600Y29593800D01*
X71603600Y29593800D02*
X72494400Y28703000D01*
X72494400Y28703000D02*
X94601400Y28703000D01*
%TO.N,$3N2784*%
D14*
X107495600Y35484800D02*
X119992400Y35484800D01*
X119992400Y35484800D02*
X120613300Y34863900D01*
X120613300Y34863900D02*
X121795800Y34863900D01*
%TO.N,3.3V*%
D15*
X68010800Y48083200D02*
X67516000Y48578000D01*
X67516000Y48083200D02*
X68010800Y48083200D01*
X67516000Y48083200D02*
X67516000Y48578000D01*
X67516000Y48578000D02*
X67516000Y59233800D01*
X68010800Y48083200D02*
X73001000Y48083200D01*
X68010800Y48083200D02*
X67516000Y47588400D01*
X67516000Y47588400D02*
X67516000Y48083200D01*
X67516000Y47588400D02*
X67516000Y45213000D01*
X52473600Y45532300D02*
X51703300Y46302700D01*
X51703300Y46302700D02*
X51703300Y46406800D01*
X52473600Y28449000D02*
X52473600Y45532300D01*
X52473600Y46406800D02*
X52473600Y45532300D01*
X28781000Y46406800D02*
X51703300Y46406800D01*
X51703300Y46406800D02*
X52473600Y46406800D01*
X52473600Y45532300D02*
X53311400Y46370100D01*
X53311400Y46370100D02*
X53311400Y46406800D01*
X52473600Y46406800D02*
X53311400Y46406800D01*
X53311400Y46406800D02*
X54751300Y46406800D01*
X54757400Y46400700D02*
X54765200Y46408500D01*
X54765200Y46408500D02*
X54765200Y68581000D01*
X54765200Y68581000D02*
X56086000Y69901800D01*
%TO.N,ADC1*%
D14*
X121262400Y55322200D02*
X110924600Y55322200D01*
X110924600Y55322200D02*
X108943400Y53341000D01*
X108943400Y53341000D02*
X108943400Y50013600D01*
%TO.N,OUTUP1*%
X120449600Y55779400D02*
X110670600Y55779400D01*
X110670600Y55779400D02*
X108384600Y53493400D01*
X108384600Y53493400D02*
X108384600Y50724800D01*
%TO.N,FA2*%
X126952000Y54128400D02*
X111280200Y54128400D01*
X111280200Y54128400D02*
X110188000Y53036200D01*
X110188000Y53036200D02*
X110188000Y48972200D01*
%TO.N,+5V*%
D15*
X94414600Y90983800D02*
X92382600Y88951800D01*
X92382600Y88951800D02*
X92382600Y87961200D01*
%TO.N,FB2*%
D14*
X128450600Y53366400D02*
X127079000Y53366400D01*
X127079000Y53366400D02*
X123472200Y49759600D01*
%TO.N,3.3V*%
D15*
X110035600Y9475200D02*
X105362000Y14148800D01*
X162876800Y7854300D02*
X162876800Y8572800D01*
X162876800Y8572800D02*
X161974400Y9475200D01*
X161974400Y9475200D02*
X110035600Y9475200D01*
%TO.N,+5V*%
D16*
X12118600Y31522400D02*
X12118600Y40564800D01*
X12118600Y40564800D02*
X15039600Y43485800D01*
X15039600Y43485800D02*
X22405600Y43485800D01*
X22405600Y43485800D02*
X34989800Y56070000D01*
%TO.N,3.3V*%
D15*
X18494000Y28398200D02*
X15115800Y31776400D01*
%TD*%
M02*
