%TF.GenerationSoftware,KiCad,Pcbnew,10.99.0-unknown*%
%TF.CreationDate,2026-08-12T15:27:21+08:00*%
%TF.ProjectId,______12_____,c335d1a4-082b-4313-92fc-549ffd092e6b,rev?*%
%TF.SameCoordinates,Original*%
%TF.FileFunction,Copper,L4,Bot*%
%TF.FilePolarity,Positive*%
%FSLAX46Y46*%
G04 Gerber Fmt 4.6, Leading zero omitted, Abs format (unit mm)*
G04 Created by KiCad (PCBNEW 10.99.0-unknown) date 2026-08-12 15:27:21*
%MOMM*%
%LPD*%
G01*
G04 APERTURE LIST*
G04 Aperture macros list*
%AMRoundRect*
0 Rectangle with rounded corners*
0 $1 Rounding radius*
0 $2 $3 $4 $5 $6 $7 $8 $9 X,Y pos of 4 corners*
0 Add a 4 corners polygon primitive as box body*
4,1,4,$2,$3,$4,$5,$6,$7,$8,$9,$2,$3,0*
0 Add four circle primitives for the rounded corners*
1,1,$1+$1,$2,$3*
1,1,$1+$1,$4,$5*
1,1,$1+$1,$6,$7*
1,1,$1+$1,$8,$9*
0 Add four rect primitives between the rounded corners*
20,1,$1+$1,$2,$3,$4,$5,0*
20,1,$1+$1,$4,$5,$6,$7,0*
20,1,$1+$1,$6,$7,$8,$9,0*
20,1,$1+$1,$8,$9,$2,$3,0*%
G04 Aperture macros list end*
%TA.AperFunction,SMDPad,CuDef*%
%ADD10RoundRect,0.105000X0.345000X-0.105000X0.345000X0.105000X-0.345000X0.105000X-0.345000X-0.105000X0*%
%TD*%
%TA.AperFunction,SMDPad,CuDef*%
%ADD11RoundRect,0.105000X-0.105000X-0.345000X0.105000X-0.345000X0.105000X0.345000X-0.105000X0.345000X0*%
%TD*%
%TA.AperFunction,SMDPad,CuDef*%
%ADD12RoundRect,0.225000X-0.225000X-0.275000X0.225000X-0.275000X0.225000X0.275000X-0.225000X0.275000X0*%
%TD*%
%TA.AperFunction,SMDPad,CuDef*%
%ADD13RoundRect,0.225000X-0.225000X-0.275000X0.225000X-0.275000X0.225000X0.275000X-0.225000X0.275000X0*%
%TD*%
%TA.AperFunction,SMDPad,CuDef*%
%ADD14C,0.750000*%
%TD*%
%TA.AperFunction,SMDPad,CuDef*%
%ADD15RoundRect,0.105000X-0.105000X-0.345000X0.105000X-0.345000X0.105000X0.345000X-0.105000X0.345000X0*%
%TD*%
%TA.AperFunction,SMDPad,CuDef*%
%ADD16RoundRect,0.105000X0.345000X-0.105000X0.345000X0.105000X-0.345000X0.105000X-0.345000X-0.105000X0*%
%TD*%
%TA.AperFunction,ViaPad*%
%ADD17C,0.500000*%
%TD*%
%TA.AperFunction,Conductor*%
%ADD18C,0.152400*%
%TD*%
%TA.AperFunction,Conductor*%
%ADD19C,1.524000*%
%TD*%
%TA.AperFunction,Conductor*%
%ADD20C,0.635000*%
%TD*%
%TA.AperFunction,Conductor*%
%ADD21C,0.609600*%
%TD*%
%TA.AperFunction,Conductor*%
%ADD22C,0.254000*%
%TD*%
%TA.AperFunction,Conductor*%
%ADD23C,1.016000*%
%TD*%
%TA.AperFunction,Conductor*%
%ADD24C,0.508000*%
%TD*%
%TA.AperFunction,Conductor*%
%ADD25C,0.381000*%
%TD*%
%TA.AperFunction,Conductor*%
%ADD26C,0.762000*%
%TD*%
%TA.AperFunction,Conductor*%
%ADD27C,0.203200*%
%TD*%
%TA.AperFunction,Conductor*%
%ADD28C,0.304800*%
%TD*%
G04 APERTURE END LIST*
D10*
%TO.P,DSUB1,1*%
%TO.N,C2*%
X12560000Y65862000D03*
%TO.P,DSUB1,2*%
%TO.N,C3*%
X12560000Y65062000D03*
%TO.P,DSUB1,3*%
%TO.N,C4*%
X12560000Y64262000D03*
%TO.P,DSUB1,4*%
%TO.N,C5*%
X12560000Y63462000D03*
%TO.P,DSUB1,5*%
%TO.N,C6*%
X12560000Y62662000D03*
D11*
%TO.P,DSUB1,6*%
%TO.N,GND*%
X11760000Y61862000D03*
%TO.P,DSUB1,7*%
X10960000Y61862000D03*
%TO.P,DSUB1,8*%
X10160000Y61862000D03*
%TO.P,DSUB1,9*%
%TO.N,RA*%
X9360000Y61862000D03*
%TO.P,DSUB1,10*%
%TO.N,LA*%
X8560000Y61862000D03*
D10*
%TO.P,DSUB1,11*%
%TO.N,LL*%
X7760000Y62662000D03*
%TO.P,DSUB1,12*%
%TO.N,C1*%
X7760000Y63462000D03*
%TO.P,DSUB1,13*%
%TO.N,REV1-C*%
X7760000Y64262000D03*
%TO.P,DSUB1,14*%
%TO.N,RL*%
X7760000Y65062000D03*
%TO.P,DSUB1,15*%
%TO.N,REV2-C*%
X7760000Y65862000D03*
D11*
%TO.P,DSUB1,16*%
%TO.N,GND*%
X8560000Y66662000D03*
%TO.P,DSUB1,17*%
X9360000Y66662000D03*
%TD*%
D12*
%TO.P,C1,2*%
%TO.N,AGND*%
X24068000Y68326000D03*
%TO.P,C1,1*%
%TO.N,II+*%
X22668000Y68326000D03*
%TD*%
D13*
%TO.P,C186,2*%
%TO.N,II-*%
X22733621Y73459350D03*
%TO.P,C186,1*%
%TO.N,AGND*%
X24133621Y73459350D03*
%TD*%
D12*
%TO.P,C188,2*%
%TO.N,AGND*%
X23941986Y55227736D03*
%TO.P,C188,1*%
%TO.N,III+*%
X22541986Y55227736D03*
%TD*%
%TO.P,C189,2*%
%TO.N,V1*%
X23987252Y43008688D03*
%TO.P,C189,1*%
%TO.N,AGND*%
X23987252Y44408688D03*
%TD*%
D13*
%TO.P,C191,2*%
%TO.N,V3*%
X36743447Y66777851D03*
%TO.P,C191,1*%
%TO.N,AGND*%
X36743447Y65377851D03*
%TD*%
D12*
%TO.P,C192,2*%
%TO.N,V4*%
X36707950Y61796720D03*
%TO.P,C192,1*%
%TO.N,AGND*%
X36707950Y63196720D03*
%TD*%
%TO.P,C194,2*%
%TO.N,V6*%
X24688112Y50003678D03*
%TO.P,C194,1*%
%TO.N,AGND*%
X24688112Y51403678D03*
%TD*%
%TO.P,C19,2*%
%TO.N,$1N3912*%
X58993000Y42037000D03*
%TO.P,C19,1*%
%TO.N,AGND*%
X57593000Y42037000D03*
%TD*%
D13*
%TO.P,C20,2*%
%TO.N,VCAP2*%
X60452000Y61279000D03*
%TO.P,C20,1*%
%TO.N,AGND*%
X60452000Y59879000D03*
%TD*%
%TO.P,C21,2*%
%TO.N,VCAP4*%
X57150000Y61279000D03*
%TO.P,C21,1*%
%TO.N,AGND*%
X57150000Y59879000D03*
%TD*%
%TO.P,C22,2*%
%TO.N,VCAP1*%
X58801000Y61279000D03*
%TO.P,C22,1*%
%TO.N,AGND*%
X58801000Y59879000D03*
%TD*%
%TO.P,C23,2*%
%TO.N,VREFP*%
X55504410Y61317583D03*
%TO.P,C23,1*%
%TO.N,AGND*%
X55504410Y59917583D03*
%TD*%
%TO.P,C24,2*%
%TO.N,VREFP*%
X53917609Y61317583D03*
%TO.P,C24,1*%
%TO.N,AGND*%
X53917609Y59917583D03*
%TD*%
%TO.P,C25,2*%
%TO.N,RLDINV*%
X53211487Y40156930D03*
%TO.P,C25,1*%
%TO.N,$1N6305*%
X54611487Y40156930D03*
%TD*%
D12*
%TO.P,C26,2*%
%TO.N,3.3V*%
X62168000Y40513000D03*
%TO.P,C26,1*%
%TO.N,GND*%
X60768000Y40513000D03*
%TD*%
%TO.P,C27,2*%
%TO.N,3.3V*%
X62185183Y42137127D03*
%TO.P,C27,1*%
%TO.N,GND*%
X60785183Y42137127D03*
%TD*%
%TO.P,C28,2*%
%TO.N,AGND*%
X49468000Y45085000D03*
%TO.P,C28,1*%
%TO.N,$1N2542*%
X48068000Y45085000D03*
%TD*%
D13*
%TO.P,C34,2*%
%TO.N,A3.3*%
X50927000Y61279000D03*
%TO.P,C34,1*%
%TO.N,AGND*%
X50927000Y59879000D03*
%TD*%
%TO.P,C37,2*%
%TO.N,A3.3*%
X49276000Y61279000D03*
%TO.P,C37,1*%
%TO.N,AGND*%
X49276000Y59879000D03*
%TD*%
D14*
%TO.P,SW2,1*%
%TO.N,N/C*%
X102512647Y97080794D03*
%TO.P,SW2,4*%
X101512647Y96080794D03*
%TO.P,SW2,2*%
%TO.N,GND*%
X100512647Y97080794D03*
%TO.P,SW2,3*%
%TO.N,MCU_RESET*%
X101512647Y98080794D03*
%TD*%
D12*
%TO.P,C47,2*%
%TO.N,A3.3*%
X114675590Y97432537D03*
%TO.P,C47,1*%
%TO.N,AGND*%
X114675590Y98832537D03*
%TD*%
D10*
%TO.P,USB1,1*%
%TO.N,GND*%
X2064000Y140532000D03*
%TO.P,USB1,2*%
%TO.N,5V*%
X2064000Y141332000D03*
%TO.P,USB1,3*%
%TO.N,N/C*%
X2064000Y142132000D03*
%TO.P,USB1,4*%
%TO.N,$2N198*%
X2064000Y142932000D03*
D15*
%TO.P,USB1,5*%
%TO.N,D-*%
X2864000Y143732000D03*
%TO.P,USB1,6*%
%TO.N,D+*%
X3664000Y143732000D03*
%TO.P,USB1,7*%
%TO.N,D-*%
X4464000Y143732000D03*
%TO.P,USB1,8*%
%TO.N,D+*%
X5264000Y143732000D03*
D10*
%TO.P,USB1,9*%
%TO.N,N/C*%
X6064000Y142932000D03*
%TO.P,USB1,10*%
%TO.N,$2N200*%
X6064000Y142132000D03*
%TO.P,USB1,11*%
%TO.N,5V*%
X6064000Y141332000D03*
%TO.P,USB1,12*%
%TO.N,GND*%
X6064000Y140532000D03*
D15*
%TO.P,USB1,13*%
X5264000Y139732000D03*
%TO.P,USB1,14*%
X4464000Y139732000D03*
%TO.P,USB1,13*%
X3664000Y139732000D03*
%TO.P,USB1,14*%
X2864000Y139732000D03*
%TD*%
D10*
%TO.P,U5,33*%
%TO.N,GND*%
X20063948Y145622344D03*
%TO.P,U5,32*%
%TO.N,L1*%
X20063948Y144822344D03*
%TO.P,U5,31*%
%TO.N,GND*%
X20063948Y144022344D03*
%TO.P,U5,30*%
%TO.N,N/C*%
X20063948Y143222344D03*
%TO.P,U5,29*%
X20063948Y142422344D03*
%TO.P,U5,28*%
X20063948Y141622344D03*
%TO.P,U5,27*%
X20063948Y140822344D03*
%TO.P,U5,26*%
X20063948Y140022344D03*
%TO.P,U5,25*%
X20063948Y139222344D03*
D11*
%TO.P,U5,24*%
%TO.N,5V*%
X19263948Y138422344D03*
%TO.P,U5,23*%
X18463948Y138422344D03*
%TO.P,U5,22*%
%TO.N,5V_OUT*%
X17663948Y138422344D03*
%TO.P,U5,21*%
X16863948Y138422344D03*
%TO.P,U5,20*%
X16063948Y138422344D03*
%TO.P,U5,19*%
X15263948Y138422344D03*
%TO.P,U5,18*%
%TO.N,$2N1140*%
X14463948Y138422344D03*
%TO.P,U5,17*%
X13663948Y138422344D03*
%TO.P,U5,16*%
X12863948Y138422344D03*
D10*
%TO.P,U5,15*%
X12063948Y139222344D03*
%TO.P,U5,14*%
X12063948Y140022344D03*
%TO.P,U5,13*%
%TO.N,N/C*%
X12063948Y140822344D03*
%TO.P,U5,12*%
X12063948Y141622344D03*
%TO.P,U5,11*%
X12063948Y142422344D03*
%TO.P,U5,10*%
X12063948Y143222344D03*
%TO.P,U5,9*%
%TO.N,$2N1172*%
X12063948Y144022344D03*
%TO.P,U5,8*%
%TO.N,$2N9177*%
X12063948Y144822344D03*
%TO.P,U5,7*%
%TO.N,GND*%
X12063948Y145622344D03*
D11*
%TO.P,U5,6*%
%TO.N,$2N826*%
X12863948Y146422344D03*
%TO.P,U5,5*%
%TO.N,$2N1088*%
X13663948Y146422344D03*
%TO.P,U5,4*%
%TO.N,N/C*%
X14463948Y146422344D03*
%TO.P,U5,3*%
X15263948Y146422344D03*
%TO.P,U5,2*%
%TO.N,L3*%
X16063948Y146422344D03*
%TO.P,U5,1*%
%TO.N,L2*%
X16863948Y146422344D03*
%TD*%
D13*
%TO.P,C41,2*%
%TO.N,$2N1172*%
X16826000Y132715000D03*
%TO.P,C41,1*%
%TO.N,GND*%
X18226000Y132715000D03*
%TD*%
%TO.P,L1,1*%
%TO.N,$2N1172*%
X16318000Y136525000D03*
%TO.P,L1,2*%
%TO.N,$2N1140*%
X17718000Y136525000D03*
%TD*%
%TO.P,U6,1*%
%TO.N,GND*%
X16891000Y61660000D03*
%TO.P,U6,2*%
%TO.N,LA*%
X16891000Y60260000D03*
%TD*%
%TO.P,U7,1*%
%TO.N,GND*%
X16877121Y75353760D03*
%TO.P,U7,2*%
%TO.N,RA*%
X16877121Y73953760D03*
%TD*%
D12*
%TO.P,U8,1*%
%TO.N,GND*%
X10098000Y41275000D03*
%TO.P,U8,2*%
%TO.N,RL*%
X8698000Y41275000D03*
%TD*%
%TO.P,U9,1*%
%TO.N,GND*%
X16891000Y66737000D03*
%TO.P,U9,2*%
%TO.N,LL*%
X16891000Y68137000D03*
%TD*%
D13*
%TO.P,U10,1*%
%TO.N,GND*%
X16891000Y47563000D03*
%TO.P,U10,2*%
%TO.N,C1*%
X16891000Y46163000D03*
%TD*%
%TO.P,U11,1*%
%TO.N,GND*%
X27940000Y80456000D03*
%TO.P,U11,2*%
%TO.N,C2*%
X27940000Y79056000D03*
%TD*%
%TO.P,U12,1*%
%TO.N,GND*%
X29845000Y68518000D03*
%TO.P,U12,2*%
%TO.N,C3*%
X29845000Y67118000D03*
%TD*%
D12*
%TO.P,U13,1*%
%TO.N,GND*%
X29845000Y60006000D03*
%TO.P,U13,2*%
%TO.N,C4*%
X29845000Y61406000D03*
%TD*%
D13*
%TO.P,U14,1*%
%TO.N,GND*%
X30607000Y54929000D03*
%TO.P,U14,2*%
%TO.N,C5*%
X30607000Y53529000D03*
%TD*%
%TO.P,U15,1*%
%TO.N,GND*%
X16891000Y54675000D03*
%TO.P,U15,2*%
%TO.N,C6*%
X16891000Y53275000D03*
%TD*%
%TO.P,LED1,2*%
%TO.N,$2N1654*%
X1181327Y134929291D03*
%TO.P,LED1,1*%
%TO.N,$2N1635*%
X2581327Y134929291D03*
%TD*%
D12*
%TO.P,LED2,2*%
%TO.N,$2N1635*%
X2605000Y133223000D03*
%TO.P,LED2,1*%
%TO.N,$2N1654*%
X1205000Y133223000D03*
%TD*%
D13*
%TO.P,LED3,1*%
%TO.N,$2N1635*%
X1205000Y131445000D03*
%TO.P,LED3,2*%
%TO.N,$2N1670*%
X2605000Y131445000D03*
%TD*%
D12*
%TO.P,LED4,1*%
%TO.N,$2N1670*%
X2609191Y129639522D03*
%TO.P,LED4,2*%
%TO.N,$2N1635*%
X1209191Y129639522D03*
%TD*%
%TO.P,C42,2*%
%TO.N,5V_OUT*%
X8320000Y124460000D03*
%TO.P,C42,1*%
%TO.N,GND*%
X6920000Y124460000D03*
%TD*%
D13*
%TO.P,C43,2*%
%TO.N,3.3V*%
X4634000Y111887000D03*
%TO.P,C43,1*%
%TO.N,GND*%
X6034000Y111887000D03*
%TD*%
D12*
%TO.P,C44,2*%
%TO.N,5V_OUT*%
X8320000Y126492000D03*
%TO.P,C44,1*%
%TO.N,GND*%
X6920000Y126492000D03*
%TD*%
D13*
%TO.P,C45,2*%
%TO.N,3.3V*%
X4634000Y110109000D03*
%TO.P,C45,1*%
%TO.N,GND*%
X6034000Y110109000D03*
%TD*%
D14*
%TO.P,X2,1*%
%TO.N,$3N2471*%
X109347000Y93869000D03*
%TO.P,X2,4*%
%TO.N,GND*%
X108347000Y94869000D03*
%TO.P,X2,3*%
%TO.N,$3N2377*%
X109347000Y95869000D03*
%TO.P,X2,2*%
%TO.N,GND*%
X110347000Y94869000D03*
%TD*%
D12*
%TO.P,C48,2*%
%TO.N,$3N2284*%
X111125000Y84263000D03*
%TO.P,C48,1*%
%TO.N,GND*%
X111125000Y85663000D03*
%TD*%
D13*
%TO.P,C49,2*%
%TO.N,$3N2281*%
X111252000Y89092000D03*
%TO.P,C49,1*%
%TO.N,GND*%
X111252000Y87692000D03*
%TD*%
D12*
%TO.P,C50,2*%
%TO.N,GND*%
X108777000Y92329000D03*
%TO.P,C50,1*%
%TO.N,$3N2377*%
X107377000Y92329000D03*
%TD*%
%TO.P,C51,2*%
%TO.N,GND*%
X109982000Y97725000D03*
%TO.P,C51,1*%
%TO.N,$3N2471*%
X109982000Y99125000D03*
%TD*%
%TO.P,C46,2*%
%TO.N,A3.3*%
X112887653Y97432537D03*
%TO.P,C46,1*%
%TO.N,AGND*%
X112887653Y98832537D03*
%TD*%
%TO.P,X1,2*%
%TO.N,$3N2281*%
X108966000Y86422000D03*
%TO.P,X1,1*%
%TO.N,$3N2284*%
X108966000Y87822000D03*
%TD*%
D14*
%TO.P,Q1,2*%
%TO.N,GND*%
X88189694Y46295694D03*
%TO.P,Q1,3*%
%TO.N,$3N86409*%
X87323694Y47795694D03*
%TO.P,Q1,1*%
%TO.N,$3N10389*%
X89055694Y47795694D03*
%TD*%
D13*
%TO.P,C52,2*%
%TO.N,LCD_LED*%
X93280000Y46228000D03*
%TO.P,C52,1*%
%TO.N,GND*%
X94680000Y46228000D03*
%TD*%
D14*
%TO.P,U18,3*%
%TO.N,FB*%
X5198923Y99060635D03*
%TO.P,U18,2*%
%TO.N,GND*%
X4055723Y99720635D03*
%TO.P,U18,1*%
%TO.N,$2N4501*%
X4055723Y101040635D03*
%TO.P,U18,6*%
%TO.N,3.3V*%
X5198923Y101700635D03*
%TO.P,U18,5*%
%TO.N,LCD_10V*%
X6342123Y101040635D03*
%TO.P,U18,4*%
%TO.N,3.3V*%
X6342123Y99720635D03*
%TD*%
D13*
%TO.P,L2,1*%
%TO.N,$2N4501*%
X11115919Y101879838D03*
%TO.P,L2,2*%
%TO.N,3.3V*%
X11115919Y100479838D03*
%TD*%
D12*
%TO.P,D1,2*%
%TO.N,$2N4501*%
X8373923Y97140635D03*
%TO.P,D1,1*%
%TO.N,LCD_10V*%
X8373923Y98540635D03*
%TD*%
D14*
%TO.P,D2,1*%
%TO.N,$2N5230*%
X19976567Y93523565D03*
%TO.P,D2,2*%
%TO.N,GND*%
X19110567Y95023565D03*
%TO.P,D2,3*%
%TO.N,$2N4652*%
X20842567Y95023565D03*
%TD*%
%TO.P,D3,1*%
%TO.N,LCD_10V*%
X14485923Y91998635D03*
%TO.P,D3,2*%
%TO.N,$2N4895*%
X15985923Y92864635D03*
%TO.P,D3,3*%
%TO.N,$2N4625*%
X15985923Y91132635D03*
%TD*%
D13*
%TO.P,C53,2*%
%TO.N,$2N4652*%
X18350000Y97409000D03*
%TO.P,C53,1*%
%TO.N,$2N4501*%
X19750000Y97409000D03*
%TD*%
%TO.P,C54,2*%
%TO.N,$2N4625*%
X16628923Y97651635D03*
%TO.P,C54,1*%
%TO.N,$2N4501*%
X16628923Y96251635D03*
%TD*%
D12*
%TO.P,C55,2*%
%TO.N,GND*%
X6025923Y104698635D03*
%TO.P,C55,1*%
%TO.N,3.3V*%
X4625923Y104698635D03*
%TD*%
D13*
%TO.P,C56,2*%
%TO.N,LCD_10V*%
X7038923Y94792635D03*
%TO.P,C56,1*%
%TO.N,GND*%
X8438923Y94792635D03*
%TD*%
%TO.P,C57,2*%
%TO.N,LCD_16V*%
X14404923Y80695635D03*
%TO.P,C57,1*%
%TO.N,GND*%
X15804923Y80695635D03*
%TD*%
%TO.P,D5,2*%
%TO.N,LCD_-7.5V*%
X18595923Y85013635D03*
%TO.P,D5,1*%
%TO.N,GND*%
X19995923Y85013635D03*
%TD*%
%TO.P,C58,2*%
%TO.N,$2N5230*%
X19230923Y91236635D03*
%TO.P,C58,1*%
%TO.N,GND*%
X20630923Y91236635D03*
%TD*%
%TO.P,C59,2*%
%TO.N,LCD_-7.5V*%
X19357923Y79552635D03*
%TO.P,C59,1*%
%TO.N,GND*%
X20757923Y79552635D03*
%TD*%
D12*
%TO.P,D6,2*%
%TO.N,GND*%
X15169923Y84886635D03*
%TO.P,D6,1*%
%TO.N,LCD_16V*%
X13769923Y84886635D03*
%TD*%
D13*
%TO.P,C60,2*%
%TO.N,LCD_3.9V*%
X8435923Y88188635D03*
%TO.P,C60,1*%
%TO.N,GND*%
X9835923Y88188635D03*
%TD*%
D10*
%TO.P,U19,1*%
%TO.N,NAND_D2*%
X146228000Y74384000D03*
%TO.P,U19,2*%
%TO.N,NAND_D3*%
X146228000Y75184000D03*
%TO.P,U19,3*%
%TO.N,NAND_CLK*%
X146228000Y75984000D03*
D15*
%TO.P,U19,4*%
%TO.N,GND*%
X147028000Y76784000D03*
%TO.P,U19,5*%
%TO.N,NAND_CMD*%
X147828000Y76784000D03*
%TO.P,U19,6*%
%TO.N,NAND_D0*%
X148628000Y76784000D03*
D10*
%TO.P,U19,7*%
%TO.N,NAND_D1*%
X149428000Y75984000D03*
%TO.P,U19,8*%
%TO.N,3.3V*%
X149428000Y75184000D03*
%TO.P,U19,9*%
%TO.N,GND*%
X149428000Y74384000D03*
%TD*%
D12*
%TO.P,C102,2*%
%TO.N,GND*%
X258510000Y13081000D03*
%TO.P,C102,1*%
%TO.N,5V_OUT*%
X257110000Y13081000D03*
%TD*%
%TO.P,C103,2*%
%TO.N,GND*%
X258510000Y14859000D03*
%TO.P,C103,1*%
%TO.N,$3N9090*%
X257110000Y14859000D03*
%TD*%
D10*
%TO.P,U29,1*%
%TO.N,3.3V*%
X101759000Y65602000D03*
%TO.P,U29,2*%
%TO.N,X1*%
X101759000Y66402000D03*
%TO.P,U29,3*%
%TO.N,Y1*%
X101759000Y67202000D03*
%TO.P,U29,4*%
%TO.N,X2*%
X101759000Y68002000D03*
D15*
%TO.P,U29,5*%
%TO.N,Y2*%
X102559000Y68802000D03*
%TO.P,U29,6*%
%TO.N,GND*%
X103359000Y68802000D03*
%TO.P,U29,7*%
X104159000Y68802000D03*
%TO.P,U29,8*%
X104959000Y68802000D03*
D10*
%TO.P,U29,16*%
%TO.N,TOUCH_CLK*%
X105759000Y68002000D03*
%TO.P,U29,15*%
%TO.N,TOUCH_CS*%
X105759000Y67202000D03*
%TO.P,U29,14*%
%TO.N,TOUCH_DIN*%
X105759000Y66402000D03*
%TO.P,U29,13*%
%TO.N,N/C*%
X105759000Y65602000D03*
D15*
%TO.P,U29,12*%
%TO.N,TOUCH_DOUT*%
X104959000Y64802000D03*
%TO.P,U29,11*%
%TO.N,TOUCH_IRQ*%
X104159000Y64802000D03*
%TO.P,U29,10*%
%TO.N,3.3V*%
X103359000Y64802000D03*
%TO.P,U29,9*%
X102559000Y64802000D03*
%TD*%
D14*
%TO.P,CN1,1*%
%TO.N,PRINT_MB-*%
X118788064Y134973911D03*
%TO.P,CN1,2*%
%TO.N,PRINT_MA+*%
X119788064Y135973911D03*
%TO.P,CN1,3*%
%TO.N,PRINT_MB+*%
X120788064Y134973911D03*
%TO.P,CN1,4*%
%TO.N,PRINT_MA-*%
X119788064Y133973911D03*
%TD*%
%TO.P,U31,5*%
%TO.N,GND*%
X109431000Y134381027D03*
%TO.P,U31,3*%
X108670900Y133334827D03*
%TO.P,U31,2*%
%TO.N,PRINT_PAPER*%
X107441100Y133734427D03*
%TO.P,U31,1*%
%TO.N,$3N38319*%
X107441100Y135027627D03*
%TO.P,U31,4*%
%TO.N,GND*%
X108670900Y135427227D03*
%TD*%
D10*
%TO.P,U32,1*%
%TO.N,12VP*%
X120888385Y129733368D03*
%TO.P,U32,2*%
%TO.N,PRINT_MA+*%
X121688385Y129733368D03*
%TO.P,U32,3*%
%TO.N,PRINT_MA-*%
X122488385Y129733368D03*
D11*
%TO.P,U32,4*%
%TO.N,GND*%
X123288385Y128933368D03*
%TO.P,U32,5*%
%TO.N,PRINT_SIGA*%
X123288385Y128133368D03*
%TO.P,U32,6*%
%TO.N,PRINT_PHA*%
X123288385Y127333368D03*
D10*
%TO.P,U32,7*%
%TO.N,$3N12468*%
X122488385Y126533368D03*
%TO.P,U32,8*%
%TO.N,3.3V*%
X121688385Y126533368D03*
%TO.P,U32,9*%
%TO.N,GND*%
X120888385Y126533368D03*
%TD*%
%TO.P,U33,1*%
%TO.N,12VP*%
X117441643Y129732606D03*
%TO.P,U33,2*%
%TO.N,PRINT_MB+*%
X118241643Y129732606D03*
%TO.P,U33,3*%
%TO.N,PRINT_MB-*%
X119041643Y129732606D03*
D11*
%TO.P,U33,4*%
%TO.N,GND*%
X119841643Y128932606D03*
%TO.P,U33,5*%
%TO.N,PRINT_SIGB*%
X119841643Y128132606D03*
%TO.P,U33,6*%
%TO.N,PRINT_PHB*%
X119841643Y127332606D03*
D10*
%TO.P,U33,7*%
%TO.N,$3N12589*%
X119041643Y126532606D03*
%TO.P,U33,8*%
%TO.N,3.3V*%
X118241643Y126532606D03*
%TO.P,U33,9*%
%TO.N,GND*%
X117441643Y126532606D03*
%TD*%
D14*
%TO.P,U30,1*%
%TO.N,$2N10979*%
X16909000Y113030000D03*
%TO.P,U30,2*%
%TO.N,GND*%
X17424500Y114274500D03*
%TO.P,U30,3*%
%TO.N,$2N18236*%
X18669000Y114790000D03*
%TO.P,U30,4*%
%TO.N,GND*%
X19913500Y114274500D03*
%TO.P,U30,8*%
%TO.N,$2N10742*%
X20429000Y113030000D03*
%TO.P,U30,7*%
%TO.N,$2N10757*%
X19913500Y111785500D03*
%TO.P,U30,6*%
%TO.N,5V_OUT*%
X18669000Y111270000D03*
%TO.P,U30,5*%
%TO.N,$2N10612*%
X17424500Y111785500D03*
%TD*%
D12*
%TO.P,C104,2*%
%TO.N,GND*%
X17702506Y120009590D03*
%TO.P,C104,1*%
%TO.N,5V_OUT*%
X16302506Y120009590D03*
%TD*%
%TO.P,C105,2*%
%TO.N,GND*%
X17702506Y118231590D03*
%TO.P,C105,1*%
%TO.N,5V_OUT*%
X16302506Y118231590D03*
%TD*%
%TO.P,R81,2*%
%TO.N,$2N10757*%
X21655000Y118237000D03*
%TO.P,R81,1*%
%TO.N,5V_OUT*%
X20255000Y118237000D03*
%TD*%
D13*
%TO.P,L3,1*%
%TO.N,$2N10757*%
X29337000Y108904000D03*
%TO.P,L3,2*%
%TO.N,$2N10979*%
X29337000Y107504000D03*
%TD*%
%TO.P,C106,2*%
%TO.N,$2N18236*%
X16699000Y107823000D03*
%TO.P,C106,1*%
%TO.N,GND*%
X18099000Y107823000D03*
%TD*%
D12*
%TO.P,D7,2*%
%TO.N,$2N10979*%
X21082000Y102551000D03*
%TO.P,D7,1*%
%TO.N,12V*%
X21082000Y103951000D03*
%TD*%
D13*
%TO.P,C107,2*%
%TO.N,GND*%
X18542000Y101157000D03*
%TO.P,C107,1*%
%TO.N,12V*%
X18542000Y99757000D03*
%TD*%
%TO.P,C108,2*%
%TO.N,GND*%
X16730919Y101184257D03*
%TO.P,C108,1*%
%TO.N,12V*%
X16730919Y99784257D03*
%TD*%
D12*
%TO.P,C62,2*%
%TO.N,AGND*%
X55945000Y138938000D03*
%TO.P,C62,1*%
%TO.N,MII+*%
X54545000Y138938000D03*
%TD*%
D13*
%TO.P,C63,2*%
%TO.N,MII-*%
X54560494Y134366000D03*
%TO.P,C63,1*%
%TO.N,AGND*%
X55960494Y134366000D03*
%TD*%
D12*
%TO.P,C65,2*%
%TO.N,AGND*%
X56072000Y130556000D03*
%TO.P,C65,1*%
%TO.N,MIII+*%
X54672000Y130556000D03*
%TD*%
D13*
%TO.P,C66,2*%
%TO.N,MIII-*%
X54672000Y125984000D03*
%TO.P,C66,1*%
%TO.N,AGND*%
X56072000Y125984000D03*
%TD*%
D12*
%TO.P,C69,2*%
%TO.N,MV*%
X55880000Y119061000D03*
%TO.P,C69,1*%
%TO.N,AGND*%
X55880000Y120461000D03*
%TD*%
D13*
%TO.P,C80,2*%
%TO.N,$4N2324*%
X75881000Y118110000D03*
%TO.P,C80,1*%
%TO.N,AGND*%
X77281000Y118110000D03*
%TD*%
%TO.P,C81,2*%
%TO.N,VCAP2M*%
X80645000Y136717000D03*
%TO.P,C81,1*%
%TO.N,AGND*%
X80645000Y135317000D03*
%TD*%
%TO.P,C82,2*%
%TO.N,VCAP4M*%
X77343000Y136717000D03*
%TO.P,C82,1*%
%TO.N,AGND*%
X77343000Y135317000D03*
%TD*%
%TO.P,C83,2*%
%TO.N,VCAP1M*%
X78994000Y136717000D03*
%TO.P,C83,1*%
%TO.N,AGND*%
X78994000Y135317000D03*
%TD*%
%TO.P,C84,2*%
%TO.N,VREFPM*%
X74041000Y136717000D03*
%TO.P,C84,1*%
%TO.N,AGND*%
X74041000Y135317000D03*
%TD*%
%TO.P,C85,2*%
%TO.N,VREFPM*%
X75692000Y136717000D03*
%TO.P,C85,1*%
%TO.N,AGND*%
X75692000Y135317000D03*
%TD*%
%TO.P,C86,2*%
%TO.N,RLDINVM*%
X72599757Y117343103D03*
%TO.P,C86,1*%
%TO.N,$4N2370*%
X73999757Y117343103D03*
%TD*%
D12*
%TO.P,C87,2*%
%TO.N,3.3V*%
X80804252Y118934997D03*
%TO.P,C87,1*%
%TO.N,GND*%
X79404252Y118934997D03*
%TD*%
%TO.P,C88,2*%
%TO.N,3.3V*%
X80804252Y117355587D03*
%TO.P,C88,1*%
%TO.N,GND*%
X79404252Y117355587D03*
%TD*%
%TO.P,C89,2*%
%TO.N,AGND*%
X70035833Y120112254D03*
%TO.P,C89,1*%
%TO.N,$4N2284*%
X68635833Y120112254D03*
%TD*%
%TO.P,U21,1*%
%TO.N,GND*%
X48895000Y124268000D03*
%TO.P,U21,2*%
%TO.N,MLA*%
X48895000Y125668000D03*
%TD*%
%TO.P,U22,1*%
%TO.N,GND*%
X48895000Y132523000D03*
%TO.P,U22,2*%
%TO.N,MRA*%
X48895000Y133923000D03*
%TD*%
D13*
%TO.P,U23,1*%
%TO.N,GND*%
X64008000Y119064000D03*
%TO.P,U23,2*%
%TO.N,MRL*%
X64008000Y117664000D03*
%TD*%
%TO.P,U24,1*%
%TO.N,GND*%
X48895000Y140781000D03*
%TO.P,U24,2*%
%TO.N,MLL*%
X48895000Y139381000D03*
%TD*%
D12*
%TO.P,U25,1*%
%TO.N,GND*%
X48895000Y117283000D03*
%TO.P,U25,2*%
%TO.N,MC*%
X48895000Y118683000D03*
%TD*%
D13*
%TO.P,U26,1*%
%TO.N,GND*%
X48895000Y112206000D03*
%TO.P,U26,2*%
%TO.N,PDL_XJ*%
X48895000Y110806000D03*
%TD*%
D12*
%TO.P,U27,1*%
%TO.N,GND*%
X48895000Y101789000D03*
%TO.P,U27,2*%
%TO.N,PDL_XD*%
X48895000Y103189000D03*
%TD*%
%TO.P,C99,2*%
%TO.N,AGND*%
X56326000Y110109000D03*
%TO.P,C99,1*%
%TO.N,PDL+*%
X54926000Y110109000D03*
%TD*%
D13*
%TO.P,C100,2*%
%TO.N,PDL-*%
X54926000Y104013000D03*
%TO.P,C100,1*%
%TO.N,AGND*%
X56326000Y104013000D03*
%TD*%
D12*
%TO.P,C61,2*%
%TO.N,GND*%
X101858624Y90030328D03*
%TO.P,C61,1*%
%TO.N,MCU_RESET*%
X100458624Y90030328D03*
%TD*%
D10*
%TO.P,U28,21*%
%TO.N,GND*%
X257377326Y16513410D03*
%TO.P,U28,20*%
%TO.N,N/C*%
X257377326Y17313410D03*
%TO.P,U28,19*%
X257377326Y18113410D03*
%TO.P,U28,18*%
%TO.N,$3N9090*%
X257377326Y18913410D03*
%TO.P,U28,17*%
%TO.N,5V_OUT*%
X257377326Y19713410D03*
%TO.P,U28,16*%
%TO.N,$3N8713*%
X257377326Y20513410D03*
D15*
%TO.P,U28,15*%
%TO.N,GND*%
X258177326Y21313410D03*
%TO.P,U28,14*%
%TO.N,$3N8719*%
X258977326Y21313410D03*
%TO.P,U28,13*%
%TO.N,N/C*%
X259777326Y21313410D03*
%TO.P,U28,12*%
%TO.N,SDA*%
X260577326Y21313410D03*
%TO.P,U28,11*%
%TO.N,SCL*%
X261377326Y21313410D03*
%TO.P,U28,10*%
%TO.N,I2S_SCK*%
X262177326Y21313410D03*
D10*
%TO.P,U28,9*%
X262977326Y20513410D03*
%TO.P,U28,8*%
%TO.N,I2S_WS*%
X262977326Y19713410D03*
%TO.P,U28,7*%
%TO.N,I2S_SD*%
X262977326Y18913410D03*
%TO.P,U28,6*%
%TO.N,N/C*%
X262977326Y18113410D03*
%TO.P,U28,5*%
%TO.N,GND*%
X262977326Y17313410D03*
%TO.P,U28,4*%
%TO.N,3.3V*%
X262977326Y16513410D03*
D15*
%TO.P,U28,3*%
%TO.N,AGND*%
X262177326Y15713410D03*
%TO.P,U28,2*%
%TO.N,A3.3*%
X261377326Y15713410D03*
%TO.P,U28,1*%
%TO.N,N/C*%
X260577326Y15713410D03*
%TD*%
D13*
%TO.P,C109,2*%
%TO.N,PRINT_PAPER*%
X106855015Y130346508D03*
%TO.P,C109,1*%
%TO.N,GND*%
X108255015Y130346508D03*
%TD*%
D12*
%TO.P,R93,2*%
%TO.N,VREF*%
X57844361Y88667133D03*
%TO.P,R93,1*%
%TO.N,$4N6571*%
X56444361Y88667133D03*
%TD*%
D13*
%TO.P,C110,2*%
%TO.N,GND*%
X56444361Y91842133D03*
%TO.P,C110,1*%
%TO.N,VREF*%
X57844361Y91842133D03*
%TD*%
%TO.P,C111,2*%
%TO.N,GND*%
X56444361Y90191133D03*
%TO.P,C111,1*%
%TO.N,VREF*%
X57844361Y90191133D03*
%TD*%
D12*
%TO.P,L81,1*%
%TO.N,A3.3*%
X65278000Y78675000D03*
%TO.P,L81,2*%
%TO.N,$4N6579*%
X65278000Y80075000D03*
%TD*%
%TO.P,C113,2*%
%TO.N,$4N6579*%
X63881000Y78675000D03*
%TO.P,C113,1*%
%TO.N,GND*%
X63881000Y80075000D03*
%TD*%
%TO.P,C114,2*%
%TO.N,$4N6583*%
X63754000Y75119000D03*
%TO.P,C114,1*%
%TO.N,$4N6584*%
X63754000Y76519000D03*
%TD*%
D13*
%TO.P,C115,2*%
%TO.N,$4N6583*%
X69912000Y78613000D03*
%TO.P,C115,1*%
%TO.N,$4N6582*%
X71312000Y78613000D03*
%TD*%
%TO.P,R94,2*%
%TO.N,$4N6583*%
X69912000Y80137000D03*
%TO.P,R94,1*%
%TO.N,$4N6582*%
X71312000Y80137000D03*
%TD*%
D12*
%TO.P,R95,2*%
%TO.N,$4N6585*%
X62230000Y75119000D03*
%TO.P,R95,1*%
%TO.N,$4N6584*%
X62230000Y76519000D03*
%TD*%
D13*
%TO.P,R96,2*%
%TO.N,$4N6584*%
X60833000Y76519000D03*
%TO.P,R96,1*%
%TO.N,$4N6586*%
X60833000Y75119000D03*
%TD*%
D14*
%TO.P,Q80,1*%
%TO.N,SPO2_CAP*%
X58039000Y74565000D03*
%TO.P,Q80,2*%
%TO.N,VREF*%
X57173000Y76065000D03*
%TO.P,Q80,3*%
%TO.N,$4N6586*%
X58905000Y76065000D03*
%TD*%
D12*
%TO.P,C119,2*%
%TO.N,$4N6602*%
X61238253Y79418452D03*
%TO.P,C119,1*%
%TO.N,$4N6599*%
X59838253Y79418452D03*
%TD*%
%TO.P,R87,2*%
%TO.N,$4N6602*%
X61222226Y80908228D03*
%TO.P,R87,1*%
%TO.N,$4N6599*%
X59822226Y80908228D03*
%TD*%
D13*
%TO.P,R89,2*%
%TO.N,$4N6602*%
X56704000Y79375000D03*
%TO.P,R89,1*%
%TO.N,SPO2_VSIG*%
X58104000Y79375000D03*
%TD*%
D12*
%TO.P,R98,2*%
%TO.N,$4N6582*%
X68199000Y78675000D03*
%TO.P,R98,1*%
%TO.N,PD+*%
X68199000Y80075000D03*
%TD*%
%TO.P,R99,2*%
%TO.N,$4N6596*%
X66802000Y78675000D03*
%TO.P,R99,1*%
%TO.N,PD-*%
X66802000Y80075000D03*
%TD*%
D14*
%TO.P,U35,5*%
%TO.N,$4N7475*%
X41021000Y86022000D03*
%TO.P,U35,4*%
%TO.N,$4N7480*%
X39974800Y86782100D03*
%TO.P,U35,3*%
%TO.N,$4N7497*%
X40374400Y88011900D03*
%TO.P,U35,2*%
%TO.N,GND*%
X41667600Y88011900D03*
%TO.P,U35,1*%
%TO.N,$4N7496*%
X42067200Y86782100D03*
%TD*%
D13*
%TO.P,L61,1*%
%TO.N,$4N7475*%
X39802015Y80686293D03*
%TO.P,L61,2*%
%TO.N,3V3SGM*%
X41202015Y80686293D03*
%TD*%
%TO.P,C121,2*%
%TO.N,$4N7481*%
X37465000Y86044000D03*
%TO.P,C121,1*%
%TO.N,$4N7480*%
X37465000Y84644000D03*
%TD*%
D12*
%TO.P,R105,2*%
%TO.N,GND*%
X49087000Y83185000D03*
%TO.P,R105,1*%
%TO.N,SPO2_IR_CS*%
X47687000Y83185000D03*
%TD*%
D13*
%TO.P,R106,2*%
%TO.N,SPO2_RED_CS*%
X49911000Y92521000D03*
%TO.P,R106,1*%
%TO.N,GND*%
X49911000Y91121000D03*
%TD*%
D12*
%TO.P,C122,2*%
%TO.N,GND*%
X37588505Y88327000D03*
%TO.P,C122,1*%
%TO.N,$4N7475*%
X37588505Y89727000D03*
%TD*%
%TO.P,C123,2*%
%TO.N,GND*%
X47436000Y78867000D03*
%TO.P,C123,1*%
%TO.N,3V3SGM*%
X46036000Y78867000D03*
%TD*%
D13*
%TO.P,C125,2*%
%TO.N,3.3V*%
X51370000Y71882000D03*
%TO.P,C125,1*%
%TO.N,GND*%
X52770000Y71882000D03*
%TD*%
D12*
%TO.P,L60,1*%
%TO.N,3.3V*%
X52770000Y73533000D03*
%TO.P,L60,2*%
%TO.N,3V3SGM*%
X51370000Y73533000D03*
%TD*%
%TO.P,C126,2*%
%TO.N,3V3SGM*%
X52770000Y76835000D03*
%TO.P,C126,1*%
%TO.N,GND*%
X51370000Y76835000D03*
%TD*%
%TO.P,C127,2*%
%TO.N,GND*%
X52770000Y70104000D03*
%TO.P,C127,1*%
%TO.N,3.3V*%
X51370000Y70104000D03*
%TD*%
D13*
%TO.P,C128,2*%
%TO.N,GND*%
X51370000Y75184000D03*
%TO.P,C128,1*%
%TO.N,3V3SGM*%
X52770000Y75184000D03*
%TD*%
D16*
%TO.P,U34,8*%
%TO.N,$4N6571*%
X66605000Y83598000D03*
%TO.P,U34,9*%
%TO.N,VREF*%
X65805000Y83598000D03*
%TO.P,U34,10*%
%TO.N,$4N6575*%
X65005000Y83598000D03*
%TO.P,U34,11*%
%TO.N,GND*%
X64205000Y83598000D03*
D15*
%TO.P,U34,12*%
X63405000Y84398000D03*
%TO.P,U34,13*%
%TO.N,$4N6569*%
X63405000Y85198000D03*
%TO.P,U34,14*%
X63405000Y85998000D03*
%TO.P,U34,7*%
%TO.N,$4N6602*%
X63405000Y86798000D03*
D16*
%TO.P,U34,6*%
%TO.N,$4N6599*%
X64205000Y87598000D03*
%TO.P,U34,5*%
%TO.N,$4N6585*%
X65005000Y87598000D03*
%TO.P,U34,4*%
%TO.N,$4N6579*%
X65805000Y87598000D03*
%TO.P,U34,3*%
%TO.N,$4N6596*%
X66605000Y87598000D03*
D15*
%TO.P,U34,2*%
%TO.N,$4N6582*%
X67405000Y86798000D03*
%TO.P,U34,1*%
%TO.N,$4N6583*%
X67405000Y85998000D03*
%TD*%
D13*
%TO.P,C129,2*%
%TO.N,AGND*%
X85914000Y105410000D03*
%TO.P,C129,1*%
%TO.N,$4N12606*%
X87314000Y105410000D03*
%TD*%
D12*
%TO.P,C130,2*%
%TO.N,$4N12574*%
X75565000Y102678000D03*
%TO.P,C130,1*%
%TO.N,AGND*%
X75565000Y104078000D03*
%TD*%
D13*
%TO.P,C131,2*%
%TO.N,VREFPR*%
X85890557Y108391707D03*
%TO.P,C131,1*%
%TO.N,AGND*%
X85890557Y106991707D03*
%TD*%
%TO.P,C132,2*%
%TO.N,VREFPR*%
X87503000Y108391707D03*
%TO.P,C132,1*%
%TO.N,AGND*%
X87503000Y106991707D03*
%TD*%
D12*
%TO.P,C133,2*%
%TO.N,$4N12860*%
X82996000Y110490000D03*
%TO.P,C133,1*%
%TO.N,$4N12868*%
X81596000Y110490000D03*
%TD*%
%TO.P,C135,2*%
%TO.N,$4N13252*%
X71120000Y104725443D03*
%TO.P,C135,1*%
%TO.N,$4N13314*%
X71120000Y106125443D03*
%TD*%
%TO.P,C136,2*%
%TO.N,$4N13256*%
X71120000Y108281443D03*
%TO.P,C136,1*%
%TO.N,$4N13340*%
X71120000Y109681443D03*
%TD*%
D13*
%TO.P,C137,2*%
%TO.N,$4N13059*%
X67818000Y106125443D03*
%TO.P,C137,1*%
%TO.N,$4N13252*%
X67818000Y104725443D03*
%TD*%
%TO.P,C138,2*%
%TO.N,$4N13071*%
X67945000Y109665949D03*
%TO.P,C138,1*%
%TO.N,$4N13256*%
X67945000Y108265949D03*
%TD*%
%TO.P,C139,2*%
%TO.N,MLL*%
X69596000Y109665949D03*
%TO.P,C139,1*%
%TO.N,$4N13256*%
X69596000Y108265949D03*
%TD*%
%TO.P,C140,2*%
%TO.N,MLA*%
X69469000Y106125443D03*
%TO.P,C140,1*%
%TO.N,$4N13252*%
X69469000Y104725443D03*
%TD*%
%TO.P,R113,2*%
%TO.N,3.3V*%
X84709000Y89981000D03*
%TO.P,R113,1*%
%TO.N,SCL*%
X84709000Y88581000D03*
%TD*%
D12*
%TO.P,R114,2*%
%TO.N,SDA*%
X86233000Y88581000D03*
%TO.P,R114,1*%
%TO.N,3.3V*%
X86233000Y89981000D03*
%TD*%
D14*
%TO.P,U40,3*%
%TO.N,$4N14062*%
X131080000Y57658000D03*
%TO.P,U40,2*%
%TO.N,GND*%
X132580000Y58524000D03*
%TO.P,U40,1*%
%TO.N,PLRE_DUMP*%
X132580000Y56792000D03*
%TD*%
%TO.P,Q81,1*%
%TO.N,$4N14062*%
X134785557Y57351703D03*
%TO.P,Q81,2*%
%TO.N,5V_OUT*%
X135651557Y55851703D03*
%TO.P,Q81,3*%
%TO.N,$4N14495*%
X133919557Y55851703D03*
%TD*%
D12*
%TO.P,D8,1*%
%TO.N,$4N14495*%
X131129000Y53340000D03*
%TO.P,D8,2*%
%TO.N,GND*%
X129729000Y53340000D03*
%TD*%
%TO.P,C142,2*%
%TO.N,5V_OUT*%
X137414000Y56196000D03*
%TO.P,C142,1*%
%TO.N,GND*%
X137414000Y57596000D03*
%TD*%
D14*
%TO.P,U41,3*%
%TO.N,$4N14471*%
X144034000Y57912000D03*
%TO.P,U41,2*%
%TO.N,GND*%
X145534000Y58778000D03*
%TO.P,U41,1*%
%TO.N,PLRE_VLVE*%
X145534000Y57046000D03*
%TD*%
%TO.P,Q82,1*%
%TO.N,$4N14471*%
X148082000Y57642000D03*
%TO.P,Q82,2*%
%TO.N,5V_OUT*%
X148948000Y56142000D03*
%TO.P,Q82,3*%
%TO.N,$4N14511*%
X147216000Y56142000D03*
%TD*%
D12*
%TO.P,D9,1*%
%TO.N,$4N14511*%
X146242000Y53086000D03*
%TO.P,D9,2*%
%TO.N,GND*%
X144842000Y53086000D03*
%TD*%
%TO.P,C143,2*%
%TO.N,5V_OUT*%
X150622000Y56450000D03*
%TO.P,C143,1*%
%TO.N,GND*%
X150622000Y57850000D03*
%TD*%
D10*
%TO.P,U37,1*%
%TO.N,$4N12858*%
X84245000Y107829000D03*
%TO.P,U37,2*%
%TO.N,$4N12864*%
X84245000Y107029000D03*
%TO.P,U37,3*%
%TO.N,$4N13059*%
X84245000Y106229000D03*
%TO.P,U37,4*%
%TO.N,$4N13071*%
X84245000Y105429000D03*
%TO.P,U37,5*%
%TO.N,N/C*%
X84245000Y104629000D03*
%TO.P,U37,6*%
X84245000Y103829000D03*
%TO.P,U37,7*%
%TO.N,$4N12860*%
X84245000Y103029000D03*
%TO.P,U37,8*%
%TO.N,$4N12868*%
X84245000Y102229000D03*
D11*
%TO.P,U37,9*%
%TO.N,VREFPR*%
X83445000Y101429000D03*
%TO.P,U37,10*%
%TO.N,AGND*%
X82645000Y101429000D03*
%TO.P,U37,11*%
%TO.N,$4N12606*%
X81845000Y101429000D03*
%TO.P,U37,12*%
%TO.N,A3.3*%
X81045000Y101429000D03*
%TO.P,U37,13*%
%TO.N,AGND*%
X80245000Y101429000D03*
%TO.P,U37,14*%
%TO.N,3.3V*%
X79445000Y101429000D03*
%TO.P,U37,15*%
%TO.N,RECG_RESET*%
X78645000Y101429000D03*
%TO.P,U37,16*%
%TO.N,RECG_START*%
X77845000Y101429000D03*
D10*
%TO.P,U37,17*%
%TO.N,GND*%
X77045000Y102229000D03*
%TO.P,U37,18*%
%TO.N,RECG_CS*%
X77045000Y103029000D03*
%TO.P,U37,19*%
%TO.N,RECG_MOSI*%
X77045000Y103829000D03*
%TO.P,U37,20*%
%TO.N,RECG_CLK*%
X77045000Y104629000D03*
%TO.P,U37,21*%
%TO.N,RECG_MISO*%
X77045000Y105429000D03*
%TO.P,U37,22*%
%TO.N,N/C*%
X77045000Y106229000D03*
%TO.P,U37,23*%
%TO.N,3.3V*%
X77045000Y107029000D03*
%TO.P,U37,24*%
%TO.N,GND*%
X77045000Y107829000D03*
D11*
%TO.P,U37,25*%
%TO.N,N/C*%
X77845000Y108629000D03*
%TO.P,U37,26*%
X78645000Y108629000D03*
%TO.P,U37,27*%
%TO.N,$4N12574*%
X79445000Y108629000D03*
%TO.P,U37,28*%
%TO.N,A3.3*%
X80245000Y108629000D03*
%TO.P,U37,29*%
X81045000Y108629000D03*
%TO.P,U37,30*%
%TO.N,N/C*%
X81845000Y108629000D03*
%TO.P,U37,31*%
%TO.N,RESPP*%
X82645000Y108629000D03*
%TO.P,U37,32*%
%TO.N,RESPN*%
X83445000Y108629000D03*
%TD*%
D12*
%TO.P,C161,2*%
%TO.N,3.3V*%
X153543000Y79564000D03*
%TO.P,C161,1*%
%TO.N,GND*%
X153543000Y80964000D03*
%TD*%
D13*
%TO.P,B1,1*%
%TO.N,GND*%
X89470000Y75819000D03*
%TO.P,B1,2*%
%TO.N,VRTC*%
X90870000Y75819000D03*
%TD*%
D12*
%TO.P,U48,1*%
%TO.N,$3N19253*%
X106364000Y77343000D03*
%TO.P,U48,2*%
%TO.N,VRTC*%
X104964000Y77343000D03*
%TD*%
%TO.P,U49,1*%
%TO.N,$3N19253*%
X106364000Y80772000D03*
%TO.P,U49,2*%
%TO.N,3.3V*%
X104964000Y80772000D03*
%TD*%
D14*
%TO.P,H1,1*%
%TO.N,3.3V*%
X139208000Y65151000D03*
%TO.P,H1,2*%
%TO.N,SWD_DIO*%
X140208000Y66151000D03*
%TO.P,H1,3*%
%TO.N,SWD_CLK*%
X141208000Y65151000D03*
%TO.P,H1,4*%
%TO.N,GND*%
X140208000Y64151000D03*
%TD*%
D10*
%TO.P,P1,1*%
%TO.N,N/C*%
X105193000Y47805000D03*
%TO.P,P1,2*%
X105843000Y47805000D03*
%TO.P,P1,3*%
%TO.N,GND*%
X106493000Y47805000D03*
%TO.P,P1,4*%
%TO.N,$3N4978*%
X107143000Y47805000D03*
%TO.P,P1,5*%
%TO.N,LCD_3.9V*%
X107793000Y47805000D03*
%TO.P,P1,6*%
%TO.N,N/C*%
X108443000Y47805000D03*
%TO.P,P1,7*%
%TO.N,LCD_RST*%
X109093000Y47805000D03*
%TO.P,P1,8*%
%TO.N,LCD_10V*%
X109743000Y47805000D03*
%TO.P,P1,9*%
%TO.N,LCD_-7.5V*%
X110393000Y47805000D03*
%TO.P,P1,10*%
%TO.N,LCD_16V*%
X111043000Y47805000D03*
%TO.P,P1,11*%
%TO.N,GND*%
X111693000Y47805000D03*
%TO.P,P1,12*%
%TO.N,3.3V*%
X112343000Y47805000D03*
%TO.P,P1,13*%
%TO.N,GND*%
X112993000Y47805000D03*
D11*
%TO.P,P1,14*%
%TO.N,LCD_CLK*%
X113718000Y47080000D03*
%TO.P,P1,15*%
%TO.N,GND*%
X113718000Y46430000D03*
%TO.P,P1,16*%
X113718000Y45780000D03*
%TO.P,P1,17*%
X113718000Y45130000D03*
%TO.P,P1,18*%
X113718000Y44480000D03*
%TO.P,P1,19*%
%TO.N,RGB_R3*%
X113718000Y43830000D03*
%TO.P,P1,20*%
%TO.N,RGB_R4*%
X113718000Y43180000D03*
%TO.P,P1,21*%
%TO.N,RGB_R5*%
X113718000Y42530000D03*
%TO.P,P1,22*%
%TO.N,RGB_R6*%
X113718000Y41880000D03*
%TO.P,P1,23*%
%TO.N,RGB_R7*%
X113718000Y41230000D03*
%TO.P,P1,24*%
%TO.N,GND*%
X113718000Y40580000D03*
%TO.P,P1,25*%
X113718000Y39930000D03*
%TO.P,P1,26*%
%TO.N,RGB_G2*%
X113718000Y39280000D03*
D10*
%TO.P,P1,27*%
%TO.N,RGB_G3*%
X112993000Y38555000D03*
%TO.P,P1,28*%
%TO.N,RGB_G4*%
X112343000Y38555000D03*
%TO.P,P1,29*%
%TO.N,RGB_G5*%
X111693000Y38555000D03*
%TO.P,P1,30*%
%TO.N,RGB_G6*%
X111043000Y38555000D03*
%TO.P,P1,31*%
%TO.N,RGB_G7*%
X110393000Y38555000D03*
%TO.P,P1,32*%
%TO.N,GND*%
X109743000Y38555000D03*
%TO.P,P1,33*%
X109093000Y38555000D03*
%TO.P,P1,34*%
X108443000Y38555000D03*
%TO.P,P1,35*%
%TO.N,RGB_B3*%
X107793000Y38555000D03*
%TO.P,P1,36*%
%TO.N,RGB_B4*%
X107143000Y38555000D03*
%TO.P,P1,37*%
%TO.N,RGB_B5*%
X106493000Y38555000D03*
%TO.P,P1,38*%
%TO.N,RGB_B6*%
X105843000Y38555000D03*
%TO.P,P1,39*%
%TO.N,RGB_B7*%
X105193000Y38555000D03*
D11*
%TO.P,P1,40*%
%TO.N,RGB_HSYNC*%
X104468000Y39280000D03*
%TO.P,P1,41*%
%TO.N,RGB_VSYNC*%
X104468000Y39930000D03*
%TO.P,P1,42*%
%TO.N,RGB_DE*%
X104468000Y40580000D03*
%TO.P,P1,43*%
%TO.N,$3N4920*%
X104468000Y41230000D03*
%TO.P,P1,44*%
%TO.N,3.3V*%
X104468000Y41880000D03*
%TO.P,P1,45*%
%TO.N,LCD_3.9V*%
X104468000Y42530000D03*
%TO.P,P1,46*%
%TO.N,GND*%
X104468000Y43180000D03*
%TO.P,P1,47*%
X104468000Y43830000D03*
%TO.P,P1,48*%
X104468000Y44480000D03*
%TO.P,P1,49*%
%TO.N,LCD_LED*%
X104468000Y45130000D03*
%TO.P,P1,50*%
X104468000Y45780000D03*
%TO.P,P1,52*%
%TO.N,GND*%
X104468000Y46430000D03*
%TO.P,P1,51*%
X104468000Y47080000D03*
%TD*%
D14*
%TO.P,X3,1*%
%TO.N,Y2*%
X107138000Y59436000D03*
%TO.P,X3,2*%
%TO.N,X2*%
X107798000Y60579200D03*
%TO.P,X3,3*%
%TO.N,Y1*%
X109118000Y60579200D03*
%TO.P,X3,4*%
%TO.N,X1*%
X109778000Y59436000D03*
%TO.P,X3,5*%
%TO.N,GND*%
X109118000Y58292800D03*
%TO.P,X3,6*%
X107798000Y58292800D03*
%TD*%
D16*
%TO.P,FPC4,28*%
%TO.N,12VP*%
X148450000Y134849000D03*
%TO.P,FPC4,27*%
X147650000Y134849000D03*
%TO.P,FPC4,26*%
X146850000Y134849000D03*
%TO.P,FPC4,25*%
%TO.N,N/C*%
X146050000Y134849000D03*
%TO.P,FPC4,24*%
%TO.N,PRINT_DI_D*%
X145250000Y134849000D03*
%TO.P,FPC4,23*%
%TO.N,PRINT_CLK_D*%
X144450000Y134849000D03*
%TO.P,FPC4,22*%
%TO.N,PRINT_LAT_D*%
X143650000Y134849000D03*
D15*
%TO.P,FPC4,21*%
%TO.N,PRINT_STB1_D*%
X142850000Y135649000D03*
%TO.P,FPC4,20*%
%TO.N,PRINT_STB2_D*%
X142850000Y136449000D03*
%TO.P,FPC4,19*%
%TO.N,N/C*%
X142850000Y137249000D03*
%TO.P,FPC4,18*%
%TO.N,GND*%
X142850000Y138049000D03*
%TO.P,FPC4,17*%
X142850000Y138849000D03*
%TO.P,FPC4,16*%
X142850000Y139649000D03*
%TO.P,FPC4,15*%
X142850000Y140449000D03*
D16*
%TO.P,FPC4,14*%
X143650000Y141249000D03*
%TO.P,FPC4,13*%
X144450000Y141249000D03*
%TO.P,FPC4,12*%
X145250000Y141249000D03*
%TO.P,FPC4,11*%
X146050000Y141249000D03*
%TO.P,FPC4,10*%
%TO.N,N/C*%
X146850000Y141249000D03*
%TO.P,FPC4,9*%
%TO.N,5V_OUT*%
X147650000Y141249000D03*
%TO.P,FPC4,8*%
%TO.N,PRINT_STB3_D*%
X148450000Y141249000D03*
D15*
%TO.P,FPC4,7*%
%TO.N,PRINT_STB4_D*%
X149250000Y140449000D03*
%TO.P,FPC4,6*%
%TO.N,N/C*%
X149250000Y139649000D03*
%TO.P,FPC4,5*%
%TO.N,PRINT_DI1_D*%
X149250000Y138849000D03*
%TO.P,FPC4,4*%
%TO.N,12VP*%
X149250000Y138049000D03*
%TO.P,FPC4,3*%
X149250000Y137249000D03*
%TO.P,FPC4,2*%
X149250000Y136449000D03*
%TO.P,FPC4,1*%
X149250000Y135649000D03*
%TD*%
D14*
%TO.P,U53,6*%
%TO.N,ADC_REF3.3*%
X115422741Y106912357D03*
%TO.P,U53,4*%
%TO.N,A3.3*%
X114762741Y105769157D03*
%TO.P,U53,3*%
%TO.N,$3N43045*%
X113442741Y105769157D03*
%TO.P,U53,2*%
%TO.N,AGND*%
X112782741Y106912357D03*
%TO.P,U53,1*%
X113442741Y108055557D03*
%TO.P,U53,5*%
%TO.N,ADC_REF3.3*%
X114762741Y108055557D03*
%TD*%
D13*
%TO.P,C181,2*%
%TO.N,ADC_REF3.3*%
X113435979Y104300231D03*
%TO.P,C181,1*%
%TO.N,AGND*%
X114835979Y104300231D03*
%TD*%
D10*
%TO.P,U54,6*%
%TO.N,PRINT_STB1_D*%
X143796000Y131832000D03*
%TO.P,U54,5*%
%TO.N,PRINT_LAT_D*%
X144596000Y131832000D03*
%TO.P,U54,4*%
%TO.N,PRINT_CLK_D*%
X145396000Y131832000D03*
%TO.P,U54,3*%
%TO.N,PRINT_DI_D*%
X146196000Y131832000D03*
%TO.P,U54,2*%
%TO.N,GND*%
X146996000Y131832000D03*
%TO.P,U54,1*%
%TO.N,5V_OUT*%
X147796000Y131832000D03*
D11*
%TO.P,U54,7*%
%TO.N,PRINT_STB2_D*%
X148596000Y131032000D03*
%TO.P,U54,12*%
%TO.N,GND*%
X148596000Y130232000D03*
%TO.P,U54,11*%
X148596000Y129432000D03*
%TO.P,U54,10*%
%TO.N,PRINT_DI1_D*%
X148596000Y128632000D03*
%TO.P,U54,9*%
%TO.N,PRINT_STB4_D*%
X148596000Y127832000D03*
%TO.P,U54,8*%
%TO.N,PRINT_STB3_D*%
X148596000Y127032000D03*
D10*
%TO.P,U54,20*%
%TO.N,PRINT_CLK*%
X147796000Y126232000D03*
%TO.P,U54,21*%
%TO.N,PRINT_DI2*%
X146996000Y126232000D03*
%TO.P,U54,22*%
%TO.N,GND*%
X146196000Y126232000D03*
%TO.P,U54,23*%
%TO.N,3.3V*%
X145396000Y126232000D03*
%TO.P,U54,24*%
X144596000Y126232000D03*
%TO.P,U54,19*%
%TO.N,PRINT_LAT*%
X143796000Y126232000D03*
D11*
%TO.P,U54,13*%
%TO.N,GND*%
X142996000Y127032000D03*
%TO.P,U54,14*%
%TO.N,PRINT_DI1*%
X142996000Y127832000D03*
%TO.P,U54,15*%
%TO.N,PRINT_STB4*%
X142996000Y128632000D03*
%TO.P,U54,16*%
%TO.N,PRINT_STB3*%
X142996000Y129432000D03*
%TO.P,U54,17*%
%TO.N,PRINT_STB2*%
X142996000Y130232000D03*
%TO.P,U54,18*%
%TO.N,PRINT_STB1*%
X142996000Y131032000D03*
%TD*%
D14*
%TO.P,Q91,1*%
%TO.N,PRINER_12V_CON*%
X138668000Y120269000D03*
%TO.P,Q91,2*%
%TO.N,GND*%
X137168000Y119403000D03*
%TO.P,Q91,3*%
%TO.N,$3N43809*%
X137168000Y121135000D03*
%TD*%
D13*
%TO.P,C182,2*%
%TO.N,GND*%
X132080000Y120207000D03*
%TO.P,C182,1*%
%TO.N,12V*%
X132080000Y118807000D03*
%TD*%
D12*
%TO.P,U55,1*%
%TO.N,12V*%
X129097000Y120142000D03*
%TO.P,U55,2*%
%TO.N,GND*%
X127697000Y120142000D03*
%TD*%
%TO.P,C183,2*%
%TO.N,12VP*%
X139446000Y129094000D03*
%TO.P,C183,1*%
%TO.N,GND*%
X139446000Y130494000D03*
%TD*%
D14*
%TO.P,U56,3*%
%TO.N,RD+*%
X64813000Y67945000D03*
%TO.P,U56,2*%
%TO.N,PD-*%
X65573100Y68991200D03*
%TO.P,U56,1*%
%TO.N,PD+*%
X66802900Y68591600D03*
%TO.P,U56,4*%
%TO.N,RD-*%
X66802900Y67298400D03*
%TO.P,U56,5*%
%TO.N,GND*%
X65573100Y66898800D03*
%TD*%
%TO.P,U57,6*%
%TO.N,MRA*%
X41402000Y127939000D03*
%TO.P,U57,5*%
%TO.N,MLA*%
X42545200Y127279000D03*
%TO.P,U57,4*%
%TO.N,MLL*%
X42545200Y125959000D03*
%TO.P,U57,3*%
%TO.N,MC*%
X41402000Y125299000D03*
%TO.P,U57,2*%
%TO.N,$4N64521*%
X40258800Y125959000D03*
%TO.P,U57,1*%
%TO.N,MRL*%
X40258800Y127279000D03*
%TD*%
%TO.P,U58,1*%
%TO.N,A3.3*%
X75308147Y93458906D03*
%TO.P,U58,2*%
%TO.N,3.3V*%
X75968147Y94602106D03*
%TO.P,U58,3*%
%TO.N,N/C*%
X77288147Y94602106D03*
%TO.P,U58,4*%
%TO.N,GND*%
X77948147Y93458906D03*
%TO.P,U58,5*%
%TO.N,SDA*%
X77288147Y92315706D03*
%TO.P,U58,6*%
%TO.N,SCL*%
X75968147Y92315706D03*
%TD*%
D13*
%TO.P,C184,2*%
%TO.N,3.3V*%
X69586749Y94839131D03*
%TO.P,C184,1*%
%TO.N,GND*%
X69586749Y93439131D03*
%TD*%
D12*
%TO.P,C185,2*%
%TO.N,A3.3*%
X72972543Y88631669D03*
%TO.P,C185,1*%
%TO.N,AGND*%
X71572543Y88631669D03*
%TD*%
D14*
%TO.P,Q92,2*%
%TO.N,12VP*%
X134404557Y128217703D03*
%TO.P,Q92,1*%
%TO.N,$3N43809*%
X135270557Y126717703D03*
%TO.P,Q92,3*%
%TO.N,12V*%
X133538557Y126717703D03*
%TD*%
D12*
%TO.P,U60,1*%
%TO.N,GND*%
X29275000Y125857000D03*
%TO.P,U60,2*%
%TO.N,$2N1172*%
X27875000Y125857000D03*
%TD*%
D14*
%TO.P,U61,2*%
%TO.N,3.3V*%
X7350000Y120142000D03*
%TO.P,U61,3*%
%TO.N,5V_OUT*%
X5850000Y119276000D03*
%TO.P,U61,1*%
%TO.N,GND*%
X5850000Y121008000D03*
%TD*%
%TO.P,CN2,2*%
%TO.N,GND*%
X146574000Y47371000D03*
%TO.P,CN2,1*%
%TO.N,$4N14511*%
X147574000Y48371000D03*
%TO.P,CN2,3*%
%TO.N,GND*%
X148574000Y47371000D03*
%TO.P,CN2,4*%
X147574000Y46371000D03*
%TD*%
D13*
%TO.P,C187,2*%
%TO.N,III-*%
X22725252Y60436905D03*
%TO.P,C187,1*%
%TO.N,AGND*%
X24125252Y60436905D03*
%TD*%
D12*
%TO.P,C190,2*%
%TO.N,V2*%
X31102851Y73909119D03*
%TO.P,C190,1*%
%TO.N,AGND*%
X31102851Y75309119D03*
%TD*%
%TO.P,C193,2*%
%TO.N,V5*%
X37459851Y50162713D03*
%TO.P,C193,1*%
%TO.N,AGND*%
X37459851Y51562713D03*
%TD*%
D13*
%TO.P,C197,1*%
%TO.N,12V*%
X28601763Y93831004D03*
%TO.P,C197,2*%
%TO.N,GND*%
X30001763Y93831004D03*
%TD*%
D12*
%TO.P,C198,2*%
%TO.N,3.3V*%
X108041065Y70586526D03*
%TO.P,C198,1*%
%TO.N,GND*%
X106641065Y70586526D03*
%TD*%
D13*
%TO.P,C199,2*%
%TO.N,3.3V*%
X98513551Y62983443D03*
%TO.P,C199,1*%
%TO.N,GND*%
X99913551Y62983443D03*
%TD*%
D10*
%TO.P,U62,1*%
%TO.N,LINE_ADCH2*%
X223389484Y87015241D03*
%TO.P,U62,2*%
%TO.N,LINE_BE53*%
X223389484Y86215241D03*
%TO.P,U62,3*%
%TO.N,$6N33304*%
X223389484Y85415241D03*
%TO.P,U62,4*%
X223389484Y84615241D03*
D11*
%TO.P,U62,5*%
%TO.N,LINE_CF1S*%
X222589484Y83815241D03*
%TO.P,U62,6*%
%TO.N,KEYBOARD_IRQ*%
X221789484Y83815241D03*
%TO.P,U62,7*%
%TO.N,GND*%
X220989484Y83815241D03*
%TO.P,U62,14*%
%TO.N,3.3V*%
X220189484Y83815241D03*
D10*
%TO.P,U62,13*%
%TO.N,N/C*%
X219389484Y84615241D03*
%TO.P,U62,12*%
X219389484Y85415241D03*
%TO.P,U62,11*%
X219389484Y86215241D03*
%TO.P,U62,10*%
X219389484Y87015241D03*
D11*
%TO.P,U62,9*%
X220189484Y87815241D03*
%TO.P,U62,8*%
X220989484Y87815241D03*
%TD*%
D13*
%TO.P,C200,2*%
%TO.N,GND*%
X218616272Y91270772D03*
%TO.P,C200,1*%
%TO.N,3.3V*%
X220016272Y91270772D03*
%TD*%
%TO.P,C201,2*%
%TO.N,3.3V*%
X98254546Y109313118D03*
%TO.P,C201,1*%
%TO.N,GND*%
X98254546Y107913118D03*
%TD*%
D10*
%TO.P,U63,1*%
%TO.N,GND*%
X103142717Y112794287D03*
%TO.P,U63,2*%
%TO.N,MRX*%
X103942717Y112794287D03*
%TO.P,U63,3*%
%TO.N,MTX*%
X104742717Y112794287D03*
%TO.P,U63,4*%
%TO.N,3.3V*%
X105542717Y112794287D03*
D11*
%TO.P,U63,5*%
%TO.N,D+*%
X106342717Y111994287D03*
%TO.P,U63,6*%
%TO.N,D-*%
X106342717Y111194287D03*
%TO.P,U63,7*%
%TO.N,N/C*%
X106342717Y110394287D03*
%TO.P,U63,8*%
X106342717Y109594287D03*
D10*
%TO.P,U63,16*%
%TO.N,3.3V*%
X105542717Y108794287D03*
%TO.P,U63,15*%
%TO.N,N/C*%
X104742717Y108794287D03*
%TO.P,U63,14*%
X103942717Y108794287D03*
%TO.P,U63,13*%
X103142717Y108794287D03*
D11*
%TO.P,U63,12*%
X102342717Y109594287D03*
%TO.P,U63,11*%
X102342717Y110394287D03*
%TO.P,U63,10*%
X102342717Y111194287D03*
%TO.P,U63,9*%
X102342717Y111994287D03*
%TD*%
D13*
%TO.P,R1,2*%
%TO.N,II+*%
X20890000Y69977000D03*
%TO.P,R1,1*%
%TO.N,LL*%
X22290000Y69977000D03*
%TD*%
D12*
%TO.P,R11,2*%
%TO.N,RL*%
X53151000Y43180000D03*
%TO.P,R11,1*%
%TO.N,$1N6305*%
X51751000Y43180000D03*
%TD*%
D13*
%TO.P,R12,2*%
%TO.N,RLDINV*%
X53267215Y41698113D03*
%TO.P,R12,1*%
%TO.N,$1N6305*%
X54667215Y41698113D03*
%TD*%
D12*
%TO.P,R41,2*%
%TO.N,$2N826*%
X22163000Y141605000D03*
%TO.P,R41,1*%
%TO.N,GND*%
X20763000Y141605000D03*
%TD*%
D13*
%TO.P,R42,2*%
%TO.N,GND*%
X20763000Y143256000D03*
%TO.P,R42,1*%
%TO.N,$2N1088*%
X22163000Y143256000D03*
%TD*%
D12*
%TO.P,R43,2*%
%TO.N,$2N1635*%
X2605000Y127762000D03*
%TO.P,R43,1*%
%TO.N,L3*%
X1205000Y127762000D03*
%TD*%
%TO.P,R44,2*%
%TO.N,$2N1654*%
X8946364Y134992364D03*
%TO.P,R44,1*%
%TO.N,L1*%
X7546364Y134992364D03*
%TD*%
%TO.P,R45,2*%
%TO.N,$2N1670*%
X8955000Y129540000D03*
%TO.P,R45,1*%
%TO.N,L2*%
X7555000Y129540000D03*
%TD*%
%TO.P,R46,2*%
%TO.N,3.3V*%
X47625000Y59948395D03*
%TO.P,R46,1*%
%TO.N,A3.3*%
X47625000Y61348395D03*
%TD*%
D13*
%TO.P,R48,2*%
%TO.N,GND*%
X34798000Y134558000D03*
%TO.P,R48,1*%
%TO.N,AGND*%
X34798000Y133158000D03*
%TD*%
%TO.P,R49,2*%
%TO.N,$3N4920*%
X100457000Y49087000D03*
%TO.P,R49,1*%
%TO.N,3.3V*%
X100457000Y47687000D03*
%TD*%
D12*
%TO.P,R50,2*%
%TO.N,$3N4978*%
X122112000Y46736000D03*
%TO.P,R50,1*%
%TO.N,3.3V*%
X120712000Y46736000D03*
%TD*%
%TO.P,R51,2*%
%TO.N,$3N86579*%
X94665443Y48409527D03*
%TO.P,R51,1*%
%TO.N,LCD_LED*%
X93265443Y48409527D03*
%TD*%
%TO.P,R53,2*%
%TO.N,$3N10389*%
X88900000Y42861000D03*
%TO.P,R53,1*%
%TO.N,LCD_LEDCON*%
X88900000Y44261000D03*
%TD*%
%TO.P,R54,2*%
%TO.N,LCD_10V*%
X4120923Y97078635D03*
%TO.P,R54,1*%
%TO.N,FB*%
X2720923Y97078635D03*
%TD*%
D13*
%TO.P,R55,2*%
%TO.N,FB*%
X2720923Y95427635D03*
%TO.P,R55,1*%
%TO.N,GND*%
X4120923Y95427635D03*
%TD*%
D12*
%TO.P,R56,2*%
%TO.N,$2N4895*%
X17201923Y87934635D03*
%TO.P,R56,1*%
%TO.N,LCD_16V*%
X15801923Y87934635D03*
%TD*%
D13*
%TO.P,R57,2*%
%TO.N,LCD_16V*%
X14404923Y82600635D03*
%TO.P,R57,1*%
%TO.N,GND*%
X15804923Y82600635D03*
%TD*%
D12*
%TO.P,R58,2*%
%TO.N,$2N5230*%
X20819923Y86980635D03*
%TO.P,R58,1*%
%TO.N,LCD_-7.5V*%
X20819923Y88380635D03*
%TD*%
D13*
%TO.P,R59,2*%
%TO.N,LCD_-7.5V*%
X19384344Y82106513D03*
%TO.P,R59,1*%
%TO.N,GND*%
X20784344Y82106513D03*
%TD*%
D12*
%TO.P,R60,2*%
%TO.N,LCD_10V*%
X9835923Y91490635D03*
%TO.P,R60,1*%
%TO.N,LCD_3.9V*%
X8435923Y91490635D03*
%TD*%
D13*
%TO.P,R61,2*%
%TO.N,LCD_3.9V*%
X8435923Y89839635D03*
%TO.P,R61,1*%
%TO.N,GND*%
X9835923Y89839635D03*
%TD*%
D12*
%TO.P,R62,2*%
%TO.N,MCU_RESET*%
X103825624Y88441328D03*
%TO.P,R62,1*%
%TO.N,3.3V*%
X103825624Y89841328D03*
%TD*%
D13*
%TO.P,R63,2*%
%TO.N,MII+*%
X53021000Y137414000D03*
%TO.P,R63,1*%
%TO.N,MLL*%
X54421000Y137414000D03*
%TD*%
%TO.P,R64,2*%
%TO.N,MII-*%
X53021000Y135890000D03*
%TO.P,R64,1*%
%TO.N,MRA*%
X54421000Y135890000D03*
%TD*%
%TO.P,R65,2*%
%TO.N,MIII+*%
X53021000Y129032000D03*
%TO.P,R65,1*%
%TO.N,MLL*%
X54421000Y129032000D03*
%TD*%
%TO.P,R66,2*%
%TO.N,MIII-*%
X53021000Y127508000D03*
%TO.P,R66,1*%
%TO.N,MLA*%
X54421000Y127508000D03*
%TD*%
%TO.P,R67,2*%
%TO.N,MV*%
X52894000Y120523000D03*
%TO.P,R67,1*%
%TO.N,MC*%
X54294000Y120523000D03*
%TD*%
D12*
%TO.P,R73,2*%
%TO.N,MRL*%
X72328000Y115824000D03*
%TO.P,R73,1*%
%TO.N,$4N2370*%
X70928000Y115824000D03*
%TD*%
D13*
%TO.P,R74,2*%
%TO.N,RLDINVM*%
X72595464Y118922516D03*
%TO.P,R74,1*%
%TO.N,$4N2370*%
X73995464Y118922516D03*
%TD*%
%TO.P,R75,2*%
%TO.N,PDL+*%
X53402000Y108585000D03*
%TO.P,R75,1*%
%TO.N,PDL_XJ*%
X54802000Y108585000D03*
%TD*%
%TO.P,R76,2*%
%TO.N,PDL-*%
X53402000Y106045000D03*
%TO.P,R76,1*%
%TO.N,PDL_XD*%
X54802000Y106045000D03*
%TD*%
D12*
%TO.P,R77,2*%
%TO.N,TOUCH_IRQ*%
X110150797Y68008094D03*
%TO.P,R77,1*%
%TO.N,3.3V*%
X108750797Y68008094D03*
%TD*%
%TO.P,R78,2*%
%TO.N,$3N10389*%
X91059000Y44766000D03*
%TO.P,R78,1*%
%TO.N,GND*%
X91059000Y46166000D03*
%TD*%
D13*
%TO.P,R79,2*%
%TO.N,$2N10612*%
X12802874Y115148134D03*
%TO.P,R79,1*%
%TO.N,GND*%
X14202874Y115148134D03*
%TD*%
D12*
%TO.P,R80,2*%
%TO.N,12V*%
X14185355Y113659168D03*
%TO.P,R80,1*%
%TO.N,$2N10612*%
X12785355Y113659168D03*
%TD*%
D13*
%TO.P,R82,2*%
%TO.N,$2N10757*%
X23049000Y116205000D03*
%TO.P,R82,1*%
%TO.N,$2N10742*%
X24449000Y116205000D03*
%TD*%
%TO.P,R83,2*%
%TO.N,$3N12468*%
X120104064Y125067911D03*
%TO.P,R83,1*%
%TO.N,3.3V*%
X121504064Y125067911D03*
%TD*%
%TO.P,R84,2*%
%TO.N,$3N12589*%
X116675064Y125067911D03*
%TO.P,R84,1*%
%TO.N,3.3V*%
X118075064Y125067911D03*
%TD*%
D12*
%TO.P,R85,2*%
%TO.N,$3N38319*%
X103505000Y128855027D03*
%TO.P,R85,1*%
%TO.N,3.3V*%
X103505000Y130255027D03*
%TD*%
D13*
%TO.P,R86,2*%
%TO.N,PRINT_PAPER*%
X106811954Y128678813D03*
%TO.P,R86,1*%
%TO.N,3.3V*%
X108211954Y128678813D03*
%TD*%
D12*
%TO.P,R107,2*%
%TO.N,3.3V*%
X66421000Y108337222D03*
%TO.P,R107,1*%
%TO.N,$4N13071*%
X66421000Y109737222D03*
%TD*%
D13*
%TO.P,R108,2*%
%TO.N,$4N13059*%
X66294000Y106252443D03*
%TO.P,R108,1*%
%TO.N,3.3V*%
X66294000Y104852443D03*
%TD*%
D12*
%TO.P,R109,2*%
%TO.N,AGND*%
X64897000Y108337222D03*
%TO.P,R109,1*%
%TO.N,$4N13071*%
X64897000Y109737222D03*
%TD*%
D13*
%TO.P,R110,2*%
%TO.N,$4N13059*%
X64770000Y106252443D03*
%TO.P,R110,1*%
%TO.N,AGND*%
X64770000Y104852443D03*
%TD*%
%TO.P,R111,2*%
%TO.N,$4N13314*%
X72644000Y106125443D03*
%TO.P,R111,1*%
%TO.N,RESPP*%
X72644000Y104725443D03*
%TD*%
%TO.P,R112,2*%
%TO.N,$4N13340*%
X72644000Y109737222D03*
%TO.P,R112,1*%
%TO.N,RESPN*%
X72644000Y108337222D03*
%TD*%
%TO.P,R115,2*%
%TO.N,5V_OUT*%
X134174000Y59055000D03*
%TO.P,R115,1*%
%TO.N,$4N14062*%
X135574000Y59055000D03*
%TD*%
%TO.P,R116,2*%
%TO.N,5V_OUT*%
X147509000Y59563000D03*
%TO.P,R116,1*%
%TO.N,$4N14471*%
X148909000Y59563000D03*
%TD*%
%TO.P,R143,2*%
%TO.N,MCU_BOOT0*%
X121728000Y76327000D03*
%TO.P,R143,1*%
%TO.N,GND*%
X123128000Y76327000D03*
%TD*%
D12*
%TO.P,R144,2*%
%TO.N,$3N43045*%
X114795766Y109450373D03*
%TO.P,R144,1*%
%TO.N,A3.3*%
X113395766Y109450373D03*
%TD*%
D13*
%TO.P,R145,2*%
%TO.N,$3N43809*%
X133666000Y120269000D03*
%TO.P,R145,1*%
%TO.N,12V*%
X135066000Y120269000D03*
%TD*%
D12*
%TO.P,R146,2*%
%TO.N,GND*%
X138684000Y122744000D03*
%TO.P,R146,1*%
%TO.N,PRINER_12V_CON*%
X138684000Y124144000D03*
%TD*%
D13*
%TO.P,R147,2*%
%TO.N,II-*%
X20887899Y71678256D03*
%TO.P,R147,1*%
%TO.N,RA*%
X22287899Y71678256D03*
%TD*%
%TO.P,R148,2*%
%TO.N,III+*%
X20891643Y56707260D03*
%TO.P,R148,1*%
%TO.N,LL*%
X22291643Y56707260D03*
%TD*%
%TO.P,R149,2*%
%TO.N,III-*%
X20824430Y58395913D03*
%TO.P,R149,1*%
%TO.N,LA*%
X22224430Y58395913D03*
%TD*%
%TO.P,R150,2*%
%TO.N,V2*%
X28176696Y75328313D03*
%TO.P,R150,1*%
%TO.N,C2*%
X29576696Y75328313D03*
%TD*%
%TO.P,R151,2*%
%TO.N,V1*%
X20902530Y44325139D03*
%TO.P,R151,1*%
%TO.N,C1*%
X22302530Y44325139D03*
%TD*%
%TO.P,R152,2*%
%TO.N,V3*%
X33635829Y65421850D03*
%TO.P,R152,1*%
%TO.N,C3*%
X35035829Y65421850D03*
%TD*%
%TO.P,R153,2*%
%TO.N,V4*%
X33657757Y63350935D03*
%TO.P,R153,1*%
%TO.N,C4*%
X35057757Y63350935D03*
%TD*%
%TO.P,R154,2*%
%TO.N,V5*%
X34434941Y51581840D03*
%TO.P,R154,1*%
%TO.N,C5*%
X35834941Y51581840D03*
%TD*%
%TO.P,R155,2*%
%TO.N,V6*%
X20987371Y51414517D03*
%TO.P,R155,1*%
%TO.N,C6*%
X22387371Y51414517D03*
%TD*%
D12*
%TO.P,R156,2*%
%TO.N,LINE_CF1S*%
X264470476Y81298242D03*
%TO.P,R156,1*%
%TO.N,GND*%
X263070476Y81298242D03*
%TD*%
%TO.P,R157,2*%
%TO.N,LINE_BE53*%
X263806103Y61043304D03*
%TO.P,R157,1*%
%TO.N,GND*%
X262406103Y61043304D03*
%TD*%
%TO.P,R158,2*%
%TO.N,LINE_ADCH2*%
X240726784Y66202359D03*
%TO.P,R158,1*%
%TO.N,GND*%
X239326784Y66202359D03*
%TD*%
D10*
%TO.P,U17,1*%
%TO.N,MECG_CLK*%
X116941256Y79816974D03*
%TO.P,U17,2*%
%TO.N,MECG_START*%
X116941256Y80466974D03*
%TO.P,U17,3*%
%TO.N,MECG_CS*%
X116941256Y81116974D03*
%TO.P,U17,4*%
%TO.N,MECG_MISO*%
X116941256Y81766974D03*
%TO.P,U17,5*%
%TO.N,MECG_MOSI*%
X116941256Y82416974D03*
%TO.P,U17,6*%
%TO.N,$3N19253*%
X116941256Y83066974D03*
%TO.P,U17,7*%
%TO.N,MECG_RESET*%
X116941256Y83716974D03*
%TO.P,U17,8*%
%TO.N,$3N2284*%
X116941256Y84366974D03*
%TO.P,U17,9*%
%TO.N,$3N2281*%
X116941256Y85016974D03*
%TO.P,U17,10*%
%TO.N,SDA*%
X116941256Y85666974D03*
%TO.P,U17,11*%
%TO.N,SCL*%
X116941256Y86316974D03*
%TO.P,U17,12*%
%TO.N,N/C*%
X116941256Y86966974D03*
%TO.P,U17,13*%
X116941256Y87616974D03*
%TO.P,U17,14*%
%TO.N,ECG_RESET*%
X116941256Y88266974D03*
%TO.P,U17,15*%
%TO.N,ECG_START*%
X116941256Y88916974D03*
%TO.P,U17,16*%
%TO.N,GND*%
X116941256Y89566974D03*
%TO.P,U17,17*%
%TO.N,3.3V*%
X116941256Y90216974D03*
%TO.P,U17,18*%
%TO.N,ECG_CS*%
X116941256Y90866974D03*
%TO.P,U17,19*%
%TO.N,ECG_CLK*%
X116941256Y91516974D03*
%TO.P,U17,20*%
%TO.N,ECG_MISO*%
X116941256Y92166974D03*
%TO.P,U17,21*%
%TO.N,ECG_MOSI*%
X116941256Y92816974D03*
%TO.P,U17,22*%
%TO.N,RGB_DE*%
X116941256Y93466974D03*
%TO.P,U17,23*%
%TO.N,$3N2377*%
X116941256Y94116974D03*
%TO.P,U17,24*%
%TO.N,$3N2471*%
X116941256Y94766974D03*
%TO.P,U17,25*%
%TO.N,MCU_RESET*%
X116941256Y95416974D03*
%TO.P,U17,26*%
%TO.N,N/C*%
X116941256Y96066974D03*
%TO.P,U17,27*%
%TO.N,TOUCH_IRQ*%
X116941256Y96716974D03*
%TO.P,U17,28*%
%TO.N,DEF_L*%
X116941256Y97366974D03*
%TO.P,U17,29*%
%TO.N,I2S_SD*%
X116941256Y98016974D03*
%TO.P,U17,30*%
%TO.N,3.3V*%
X116941256Y98666974D03*
%TO.P,U17,31*%
%TO.N,AGND*%
X116941256Y99316974D03*
%TO.P,U17,32*%
%TO.N,ADC_REF3.3*%
X116941256Y99966974D03*
%TO.P,U17,33*%
%TO.N,A3.3*%
X116941256Y100616974D03*
%TO.P,U17,34*%
%TO.N,N/C*%
X116941256Y101266974D03*
%TO.P,U17,35*%
%TO.N,SPO2_VSIG*%
X116941256Y101916974D03*
%TO.P,U17,36*%
%TO.N,DEF_R*%
X116941256Y102566974D03*
D15*
%TO.P,U17,37*%
%TO.N,RGB_B5*%
X117666256Y103291974D03*
%TO.P,U17,38*%
%TO.N,GND*%
X118316256Y103291974D03*
%TO.P,U17,39*%
%TO.N,3.3V*%
X118966256Y103291974D03*
%TO.P,U17,40*%
%TO.N,RGB_VSYNC*%
X119616256Y103291974D03*
%TO.P,U17,41*%
%TO.N,SPO2_DA1*%
X120266256Y103291974D03*
%TO.P,U17,42*%
%TO.N,RGB_G2*%
X120916256Y103291974D03*
%TO.P,U17,43*%
%TO.N,PRINER_12V_CON*%
X121566256Y103291974D03*
%TO.P,U17,44*%
%TO.N,KEYBOARD_IRQ*%
X122216256Y103291974D03*
%TO.P,U17,45*%
%TO.N,PRINT_PAPER*%
X122866256Y103291974D03*
%TO.P,U17,46*%
%TO.N,RGB_R3*%
X123516256Y103291974D03*
%TO.P,U17,47*%
%TO.N,PRINT_PHA*%
X124166256Y103291974D03*
%TO.P,U17,48*%
%TO.N,PRINT_SIGA*%
X124816256Y103291974D03*
%TO.P,U17,49*%
%TO.N,PRINT_PHB*%
X125466256Y103291974D03*
%TO.P,U17,50*%
%TO.N,PRINT_SIGB*%
X126116256Y103291974D03*
%TO.P,U17,51*%
%TO.N,GND*%
X126766256Y103291974D03*
%TO.P,U17,52*%
%TO.N,3.3V*%
X127416256Y103291974D03*
%TO.P,U17,53*%
%TO.N,ROW_ABC*%
X128066256Y103291974D03*
%TO.P,U17,54*%
%TO.N,ROW_DEF*%
X128716256Y103291974D03*
%TO.P,U17,55*%
%TO.N,ROW_C51*%
X129366256Y103291974D03*
%TO.P,U17,56*%
%TO.N,ROW_23S*%
X130016256Y103291974D03*
%TO.P,U17,57*%
%TO.N,LINE_ADCH2*%
X130666256Y103291974D03*
%TO.P,U17,58*%
%TO.N,LINE_BE53*%
X131316256Y103291974D03*
%TO.P,U17,59*%
%TO.N,LINE_CF1S*%
X131966256Y103291974D03*
%TO.P,U17,60*%
%TO.N,KEY_CFM*%
X132616256Y103291974D03*
%TO.P,U17,61*%
%TO.N,GND*%
X133266256Y103291974D03*
%TO.P,U17,62*%
%TO.N,3.3V*%
X133916256Y103291974D03*
%TO.P,U17,63*%
%TO.N,MODE_JH*%
X134566256Y103291974D03*
%TO.P,U17,64*%
%TO.N,MODE_CC*%
X135216256Y103291974D03*
%TO.P,U17,65*%
%TO.N,MODE_12D*%
X135866256Y103291974D03*
%TO.P,U17,66*%
%TO.N,MODE_SYS*%
X136516256Y103291974D03*
%TO.P,U17,67*%
%TO.N,C_SA*%
X137166256Y103291974D03*
%TO.P,U17,68*%
%TO.N,C_SB*%
X137816256Y103291974D03*
%TO.P,U17,69*%
%TO.N,RGB_G4*%
X138466256Y103291974D03*
%TO.P,U17,70*%
%TO.N,RGB_G5*%
X139116256Y103291974D03*
%TO.P,U17,71*%
%TO.N,N/C*%
X139766256Y103291974D03*
%TO.P,U17,72*%
%TO.N,3.3V*%
X140416256Y103291974D03*
D10*
%TO.P,U17,73*%
%TO.N,I2S_SCK*%
X141141256Y102566974D03*
%TO.P,U17,74*%
%TO.N,I2S_CK*%
X141141256Y101916974D03*
%TO.P,U17,75*%
%TO.N,RECG_MISO*%
X141141256Y101266974D03*
%TO.P,U17,76*%
%TO.N,RECG_MOSI*%
X141141256Y100616974D03*
%TO.P,U17,77*%
%TO.N,RECG_CS*%
X141141256Y99966974D03*
%TO.P,U17,78*%
%TO.N,SPO2_CAP*%
X141141256Y99316974D03*
%TO.P,U17,79*%
%TO.N,SPO2_RED_CS*%
X141141256Y98666974D03*
%TO.P,U17,80*%
%TO.N,SPO2_IR_CS*%
X141141256Y98016974D03*
%TO.P,U17,81*%
%TO.N,LCD_RST*%
X141141256Y97366974D03*
%TO.P,U17,82*%
%TO.N,LCD_LEDCON*%
X141141256Y96716974D03*
%TO.P,U17,83*%
%TO.N,GND*%
X141141256Y96066974D03*
%TO.P,U17,84*%
%TO.N,3.3V*%
X141141256Y95416974D03*
%TO.P,U17,85*%
%TO.N,KEY-CHARGEC*%
X141141256Y94766974D03*
%TO.P,U17,86*%
%TO.N,KEY_AS*%
X141141256Y94116974D03*
%TO.P,U17,87*%
%TO.N,KEY_SA*%
X141141256Y93466974D03*
%TO.P,U17,88*%
%TO.N,PRINT_STB2*%
X141141256Y92816974D03*
%TO.P,U17,89*%
%TO.N,PRINT_STB1*%
X141141256Y92166974D03*
%TO.P,U17,90*%
%TO.N,PRINT_LAT*%
X141141256Y91516974D03*
%TO.P,U17,91*%
%TO.N,RGB_R7*%
X141141256Y90866974D03*
%TO.P,U17,92*%
%TO.N,LCD_CLK*%
X141141256Y90216974D03*
%TO.P,U17,93*%
%TO.N,N/C*%
X141141256Y89566974D03*
%TO.P,U17,94*%
%TO.N,GND*%
X141141256Y88916974D03*
%TO.P,U17,95*%
%TO.N,3.3V*%
X141141256Y88266974D03*
%TO.P,U17,96*%
%TO.N,RGB_HSYNC*%
X141141256Y87616974D03*
%TO.P,U17,97*%
%TO.N,RGB_G6*%
X141141256Y86966974D03*
%TO.P,U17,98*%
%TO.N,NAND_D0*%
X141141256Y86316974D03*
%TO.P,U17,99*%
%TO.N,NAND_D1*%
X141141256Y85666974D03*
%TO.P,U17,100*%
%TO.N,RGB_R6*%
X141141256Y85016974D03*
%TO.P,U17,101*%
%TO.N,RECG_CLK*%
X141141256Y84366974D03*
%TO.P,U17,102*%
%TO.N,MRX*%
X141141256Y83716974D03*
%TO.P,U17,103*%
%TO.N,RGB_R4*%
X141141256Y83066974D03*
%TO.P,U17,104*%
%TO.N,RGB_R5*%
X141141256Y82416974D03*
%TO.P,U17,105*%
%TO.N,SWD_DIO*%
X141141256Y81766974D03*
%TO.P,U17,106*%
%TO.N,N/C*%
X141141256Y81116974D03*
%TO.P,U17,107*%
%TO.N,GND*%
X141141256Y80466974D03*
%TO.P,U17,108*%
%TO.N,3.3V*%
X141141256Y79816974D03*
D15*
%TO.P,U17,109*%
%TO.N,SWD_CLK*%
X140416256Y79091974D03*
%TO.P,U17,110*%
%TO.N,MTX*%
X139766256Y79091974D03*
%TO.P,U17,111*%
%TO.N,NAND_D2*%
X139116256Y79091974D03*
%TO.P,U17,112*%
%TO.N,NAND_D3*%
X138466256Y79091974D03*
%TO.P,U17,113*%
%TO.N,NAND_CLK*%
X137816256Y79091974D03*
%TO.P,U17,114*%
%TO.N,TOUCH_CS*%
X137166256Y79091974D03*
%TO.P,U17,115*%
%TO.N,I2S_WS*%
X136516256Y79091974D03*
%TO.P,U17,116*%
%TO.N,NAND_CMD*%
X135866256Y79091974D03*
%TO.P,U17,117*%
%TO.N,RGB_G7*%
X135216256Y79091974D03*
%TO.P,U17,118*%
%TO.N,RECG_START*%
X134566256Y79091974D03*
%TO.P,U17,119*%
%TO.N,RECG_RESET*%
X133916256Y79091974D03*
%TO.P,U17,120*%
%TO.N,GND*%
X133266256Y79091974D03*
%TO.P,U17,121*%
%TO.N,3.3V*%
X132616256Y79091974D03*
%TO.P,U17,122*%
%TO.N,WARN*%
X131966256Y79091974D03*
%TO.P,U17,123*%
%TO.N,SERIOUS*%
X131316256Y79091974D03*
%TO.P,U17,124*%
%TO.N,INFO*%
X130666256Y79091974D03*
%TO.P,U17,125*%
%TO.N,RGB_G3*%
X130016256Y79091974D03*
%TO.P,U17,126*%
%TO.N,RGB_B3*%
X129366256Y79091974D03*
%TO.P,U17,127*%
%TO.N,RGB_B4*%
X128716256Y79091974D03*
%TO.P,U17,128*%
%TO.N,PRINT_DI1*%
X128066256Y79091974D03*
%TO.P,U17,129*%
%TO.N,PRINT_STB4*%
X127416256Y79091974D03*
%TO.P,U17,130*%
%TO.N,GND*%
X126766256Y79091974D03*
%TO.P,U17,131*%
%TO.N,3.3V*%
X126116256Y79091974D03*
%TO.P,U17,132*%
%TO.N,PRINT_STB3*%
X125466256Y79091974D03*
%TO.P,U17,133*%
%TO.N,TOUCH_CLK*%
X124816256Y79091974D03*
%TO.P,U17,134*%
%TO.N,TOUCH_DOUT*%
X124166256Y79091974D03*
%TO.P,U17,135*%
%TO.N,TOUCH_DIN*%
X123516256Y79091974D03*
%TO.P,U17,136*%
%TO.N,PRINT_CLK*%
X122866256Y79091974D03*
%TO.P,U17,137*%
%TO.N,PRINT_DI2*%
X122216256Y79091974D03*
%TO.P,U17,138*%
%TO.N,MCU_BOOT0*%
X121566256Y79091974D03*
%TO.P,U17,139*%
%TO.N,RGB_B6*%
X120916256Y79091974D03*
%TO.P,U17,140*%
%TO.N,RGB_B7*%
X120266256Y79091974D03*
%TO.P,U17,141*%
%TO.N,PLRE_VLVE*%
X119616256Y79091974D03*
%TO.P,U17,142*%
%TO.N,PLRE_DUMP*%
X118966256Y79091974D03*
%TO.P,U17,143*%
%TO.N,3.3V*%
X118316256Y79091974D03*
%TO.P,U17,144*%
X117666256Y79091974D03*
%TD*%
D14*
%TO.P,Q93,1*%
%TO.N,$4N7481*%
X44077024Y85262049D03*
%TO.P,Q93,2*%
%TO.N,$4N7497*%
X45577024Y86128049D03*
%TO.P,Q93,3*%
%TO.N,$4N7483*%
X45577024Y84396049D03*
%TD*%
D12*
%TO.P,R159,2*%
%TO.N,$4N7474*%
X40228002Y90103476D03*
%TO.P,R159,1*%
%TO.N,SPO2_DA1*%
X40228002Y91503476D03*
%TD*%
D13*
%TO.P,R161,2*%
%TO.N,$4N7497*%
X44021753Y89201588D03*
%TO.P,R161,1*%
%TO.N,GND*%
X44021753Y87801588D03*
%TD*%
%TO.P,R162,2*%
%TO.N,$4N7479*%
X35766136Y84389378D03*
%TO.P,R162,1*%
%TO.N,$4N7481*%
X35766136Y82989378D03*
%TD*%
%TO.P,R163,2*%
%TO.N,$4N7496*%
X42126997Y91504967D03*
%TO.P,R163,1*%
%TO.N,$4N7474*%
X42126997Y90104967D03*
%TD*%
%TO.P,R164,2*%
%TO.N,$4N7479*%
X34381824Y84376129D03*
%TO.P,R164,1*%
%TO.N,$4N7480*%
X34381824Y82976129D03*
%TD*%
D16*
%TO.P,U64,1*%
%TO.N,3V3SGM*%
X50751074Y85791288D03*
%TO.P,U64,2*%
X49951074Y85791288D03*
%TO.P,U64,3*%
%TO.N,RD-*%
X49151074Y85791288D03*
D15*
%TO.P,U64,4*%
%TO.N,SPO2_IR_CS*%
X48351074Y86591288D03*
%TO.P,U64,5*%
%TO.N,$4N7483*%
X48351074Y87391288D03*
%TO.P,U64,10*%
%TO.N,3V3SGM*%
X48351074Y88191288D03*
D16*
%TO.P,U64,9*%
%TO.N,RD+*%
X49151074Y88991288D03*
%TO.P,U64,8*%
%TO.N,SPO2_RED_CS*%
X49951074Y88991288D03*
%TO.P,U64,7*%
%TO.N,$4N7483*%
X50751074Y88991288D03*
D15*
%TO.P,U64,6*%
%TO.N,GND*%
X51551074Y88191288D03*
%TD*%
D14*
%TO.P,Q94,2*%
%TO.N,LCD_10V*%
X90131341Y51873891D03*
%TO.P,Q94,3*%
%TO.N,$3N86579*%
X90997341Y50373891D03*
%TO.P,Q94,1*%
%TO.N,$3N86567*%
X89265341Y50373891D03*
%TD*%
D12*
%TO.P,R165,2*%
%TO.N,$3N86567*%
X86344948Y49413956D03*
%TO.P,R165,1*%
%TO.N,$3N86409*%
X86344948Y50813956D03*
%TD*%
D13*
%TO.P,R166,2*%
%TO.N,$3N86567*%
X92590897Y51938869D03*
%TO.P,R166,1*%
%TO.N,LCD_10V*%
X92590897Y50538869D03*
%TD*%
D17*
%TO.N,GND*%
X14999200Y143573400D03*
X15980000Y143573400D03*
%TO.N,$2N9177*%
X16954600Y143573400D03*
X15011500Y142358200D03*
X15998500Y142339700D03*
X16966900Y142327400D03*
X16966900Y141303400D03*
X16004700Y141254100D03*
X14974500Y141260200D03*
%TO.N,$2N200*%
X5649600Y143487800D03*
%TO.N,GND*%
X5655700Y140477700D03*
%TO.N,D+*%
X5447700Y141985300D03*
%TO.N,D-*%
X7493000Y141732000D03*
%TO.N,L1*%
X17811700Y145731400D03*
%TO.N,L2*%
X19440800Y144363400D03*
%TO.N,$2N1635*%
X19434700Y143684800D03*
%TO.N,L1*%
X9022700Y134100800D03*
%TO.N,L2*%
X9733100Y130397700D03*
%TO.N,$2N1635*%
X3247000Y126965000D03*
%TO.N,PRINT_MA+*%
X121398100Y130814500D03*
%TO.N,PRINT_MA-*%
X122250700Y130140700D03*
%TO.N,III+*%
X20619800Y55874000D03*
%TO.N,II+*%
X49420600Y55478700D03*
%TO.N,II-*%
X49411400Y54655200D03*
%TO.N,III+*%
X49411400Y53850200D03*
%TO.N,III-*%
X49381600Y53097200D03*
%TO.N,II-*%
X25247500Y71509400D03*
%TO.N,II+*%
X24714800Y68334700D03*
%TO.N,III-*%
X23138300Y58393600D03*
%TO.N,III+*%
X25598300Y55355000D03*
%TO.N,MLL*%
X69622100Y107513900D03*
%TO.N,$4N13071*%
X64258600Y111928900D03*
X64465300Y108653500D03*
%TO.N,$4N6575*%
X64143100Y89206300D03*
%TO.N,$4N6596*%
X66675600Y83842300D03*
%TO.N,VREF*%
X62883000Y87483700D03*
X56487900Y84835800D03*
X62845300Y83811000D03*
%TO.N,SPO2_VSIG*%
X56681300Y79878300D03*
%TO.N,RD-*%
X49913900Y83947300D03*
%TO.N,3V3SGM*%
X50902200Y88178100D03*
%TO.N,$4N12864*%
X78873500Y106761200D03*
X79786100Y106781800D03*
%TO.N,AGND*%
X74794000Y129915100D03*
%TO.N,PD-*%
X66805400Y77597100D03*
%TO.N,PD+*%
X68067300Y77621600D03*
%TO.N,$4N6582*%
X70906500Y77270700D03*
X67983100Y81130000D03*
%TO.N,ROW_23S*%
X247550200Y63929400D03*
%TO.N,LINE_ADCH2*%
X247409900Y40855100D03*
%TO.N,I2S_WS*%
X259207000Y21590000D03*
%TO.N,I2S_SCK*%
X260893700Y21601800D03*
%TO.N,SCL*%
X263917600Y18556800D03*
%TO.N,I2S_SD*%
X257697500Y20333800D03*
%TO.N,SWD_DIO*%
X138430000Y83947000D03*
%TO.N,SWD_CLK*%
X138299000Y79037300D03*
%TO.N,RGB_G7*%
X110236000Y65151000D03*
X135292600Y79057400D03*
X133798500Y81776300D03*
%TO.N,RGB_R6*%
X138243900Y86432900D03*
%TO.N,RGB_HSYNC*%
X123825000Y88646000D03*
%TO.N,RGB_G6*%
X138211700Y87935200D03*
%TO.N,LCD_10V*%
X138249400Y91224100D03*
%TO.N,LCD_CLK*%
X138192700Y90285700D03*
%TO.N,RGB_G5*%
X137047000Y100568700D03*
%TO.N,RGB_G4*%
X136270200Y100590200D03*
%TO.N,RGB_B5*%
X120144000Y101261000D03*
%TO.N,RGB_VSYNC*%
X121785900Y100451400D03*
%TO.N,RGB_G2*%
X122775800Y100451400D03*
%TO.N,RGB_R3*%
X124809900Y100451400D03*
%TO.N,RGB_DE*%
X119676600Y92894700D03*
%TO.N,RGB_B6*%
X122997200Y81733500D03*
%TO.N,RGB_B7*%
X122146400Y81718100D03*
%TO.N,LCD_CLK*%
X114808000Y46101000D03*
%TO.N,RGB_R3*%
X112395000Y46228000D03*
%TO.N,LCD_10V*%
X109728000Y51689000D03*
%TO.N,RGB_R6*%
X110871000Y47117000D03*
%TO.N,RGB_R5*%
X111379000Y46228000D03*
%TO.N,RGB_R4*%
X111887000Y47117000D03*
%TO.N,RGB_G7*%
X106315900Y45751300D03*
%TO.N,RGB_G6*%
X106807000Y46482000D03*
%TO.N,RGB_G5*%
X107315000Y48768000D03*
%TO.N,RGB_G4*%
X107823000Y47879000D03*
%TO.N,RGB_G2*%
X108839000Y46228000D03*
%TO.N,RGB_DE*%
X100871800Y45751300D03*
%TO.N,RGB_VSYNC*%
X101289500Y46386300D03*
%TO.N,RGB_HSYNC*%
X101832800Y45756500D03*
%TO.N,RGB_B7*%
X102325800Y46391500D03*
%TO.N,RGB_B6*%
X102800200Y45751300D03*
%TO.N,RGB_B5*%
X103336400Y46386300D03*
%TO.N,PRINT_SIGA*%
X122809000Y126365000D03*
X125857000Y106426000D03*
%TO.N,PRINT_PHB*%
X126365000Y103505000D03*
%TO.N,PRINT_SIGB*%
X127127000Y103505000D03*
%TO.N,PRINT_PHB*%
X118618000Y126111000D03*
%TO.N,PRINT_SIGB*%
X119126000Y122936000D03*
%TO.N,LCD_10V*%
X84963000Y46871600D03*
X12060400Y92011700D03*
X12507900Y91564100D03*
X84295800Y46863000D03*
%TO.N,MECG_CLK*%
X119507000Y82423000D03*
%TO.N,MECG_START*%
X120015000Y82902500D03*
%TO.N,MECG_CS*%
X119634000Y83439000D03*
%TO.N,MECG_MISO*%
X120303100Y83947000D03*
%TO.N,MECG_MOSI*%
X119435400Y84455000D03*
%TO.N,MECG_RESET*%
X119507000Y85471000D03*
%TO.N,AGND*%
X55753000Y43815000D03*
X58420000Y43688000D03*
%TO.N,RECG_MISO*%
X82881400Y99732200D03*
%TO.N,RECG_CLK*%
X82423000Y97282000D03*
%TO.N,RECG_MOSI*%
X83073400Y96991700D03*
%TO.N,RECG_CS*%
X83810400Y96980600D03*
%TO.N,RECG_MISO*%
X141605000Y98933000D03*
%TO.N,RECG_MOSI*%
X137137200Y97539200D03*
%TO.N,RECG_CS*%
X141732000Y97155000D03*
%TO.N,MECG_RESET*%
X92456000Y89789000D03*
%TO.N,MECG_MOSI*%
X92964000Y89281000D03*
%TO.N,MECG_MISO*%
X90678000Y89154000D03*
%TO.N,MECG_CS*%
X91694000Y88646000D03*
%TO.N,MECG_START*%
X92202000Y88138000D03*
%TO.N,MECG_CLK*%
X91186000Y87630000D03*
%TO.N,LCD_3.9V*%
X98806000Y45974000D03*
X10287000Y85473000D03*
%TO.N,LCD_16V*%
X116713000Y45974000D03*
%TO.N,LCD_-7.5V*%
X117348000Y46863000D03*
%TO.N,LCD_10V*%
X117983000Y45974000D03*
%TO.N,LCD_16V*%
X15884500Y86425300D03*
%TO.N,LCD_-7.5V*%
X20828000Y83439000D03*
%TO.N,RECG_CLK*%
X142113000Y86360000D03*
%TO.N,SCL*%
X119888000Y87757000D03*
%TO.N,SDA*%
X120523000Y86868000D03*
%TO.N,SCL*%
X84334800Y91550300D03*
%TO.N,SDA*%
X85796600Y92795400D03*
%TO.N,D-*%
X28575000Y147599400D03*
%TO.N,D+*%
X28575000Y146939000D03*
%TO.N,5V_OUT*%
X15875000Y123063000D03*
X16468000Y122447200D03*
X139431700Y57596000D03*
X140397000Y57596000D03*
%TO.N,SPO2_VSIG*%
X115697000Y99187000D03*
%TO.N,PRINT_DI2*%
X123698000Y82550000D03*
%TO.N,PRINT_CLK*%
X124333000Y82042000D03*
%TO.N,PRINT_STB3*%
X132334000Y107823000D03*
%TO.N,PRINT_STB4*%
X133096000Y107823000D03*
%TO.N,PRINT_DI1*%
X133350000Y107188000D03*
%TO.N,PRINT_STB3*%
X126238000Y82296000D03*
%TO.N,PRINT_STB4*%
X127762000Y81915000D03*
%TO.N,PRINT_DI1*%
X128397000Y82804000D03*
%TO.N,PRINT_STB2*%
X137668000Y93599000D03*
%TO.N,GND*%
X137668000Y92710000D03*
%TO.N,PRINT_LAT*%
X137668000Y91821000D03*
%TO.N,SPO2_CAP*%
X136398000Y96012000D03*
%TO.N,GND*%
X136398000Y95236200D03*
X136398000Y94449300D03*
X49530000Y82042000D03*
X50673000Y91313000D03*
%TO.N,SPO2_CAP*%
X60198000Y73787000D03*
%TO.N,RECG_RESET*%
X132461000Y82423000D03*
%TO.N,$4N12860*%
X133223000Y82423000D03*
X89027000Y92202000D03*
%TO.N,RECG_RESET*%
X89535000Y90932000D03*
%TO.N,MCU_RESET*%
X115697000Y94361000D03*
X104775000Y94107000D03*
%TO.N,SPO2_DA1*%
X121666000Y104775000D03*
X38989000Y90043000D03*
%TO.N,LCD_LEDCON*%
X87757000Y42799000D03*
%TO.N,GND*%
X119380000Y46355000D03*
X141351000Y95885000D03*
%TO.N,LCD_LEDCON*%
X141351000Y94996000D03*
%TO.N,12VP*%
X116459000Y129032000D03*
X120015000Y128397000D03*
%TO.N,PLRE_DUMP*%
X130429000Y57150000D03*
%TO.N,PLRE_VLVE*%
X142748000Y57912000D03*
%TO.N,PLRE_DUMP*%
X121285000Y78232000D03*
%TO.N,PLRE_VLVE*%
X122555000Y78232000D03*
%TO.N,I2S_WS*%
X134366000Y78105000D03*
%TO.N,I2S_SD*%
X113792000Y96139000D03*
%TO.N,I2S_SCK*%
X231902000Y25781000D03*
%TO.N,5V_OUT*%
X148463000Y57277000D03*
X147986800Y56831900D03*
X260223000Y14732000D03*
%TO.N,KEY_CFM*%
X135636000Y104394000D03*
X131826000Y104013000D03*
%TO.N,ROW_ABC*%
X121158000Y99187000D03*
%TO.N,ROW_C51*%
X129229000Y105283000D03*
%TO.N,ROW_23S*%
X131826000Y105156000D03*
%TO.N,LINE_CF1S*%
X131343300Y104521000D03*
X222377000Y77724000D03*
%TO.N,I2S_CK*%
X141097000Y101727000D03*
%TO.N,LINE_BE53*%
X140335000Y102235000D03*
%TO.N,ROW_DEF*%
X126111000Y98679000D03*
%TO.N,GND*%
X35687000Y135636000D03*
%TO.N,A3.3*%
X256540000Y17145000D03*
%TO.N,AGND*%
X254762000Y18542000D03*
%TO.N,3.3V*%
X256921000Y19431000D03*
%TO.N,AGND*%
X61722000Y62484000D03*
%TO.N,A3.3*%
X54610000Y57912000D03*
%TO.N,AGND*%
X57277000Y54737000D03*
%TO.N,A3.3*%
X46101000Y61341000D03*
%TO.N,AGND*%
X56769000Y43688000D03*
X33819700Y72668200D03*
X35557000Y70930900D03*
X24147000Y74549000D03*
X25655700Y74549000D03*
X27432000Y73787000D03*
X29351300Y73787000D03*
X52480000Y61279000D03*
%TO.N,III-*%
X23284200Y60458300D03*
%TO.N,III+*%
X21661700Y54384700D03*
%TO.N,V6*%
X23958100Y49989100D03*
%TO.N,V1*%
X24837800Y42976500D03*
%TO.N,GND*%
X14732000Y46609000D03*
X18034000Y47244000D03*
X20320000Y47244000D03*
X20320000Y48260000D03*
X21971000Y47244000D03*
X21971000Y48257500D03*
%TO.N,3.3V*%
X150114000Y82169000D03*
%TO.N,RGB_R4*%
X141478000Y82931000D03*
%TO.N,RGB_R5*%
X141732000Y82169000D03*
%TO.N,GND*%
X138176000Y89408000D03*
%TO.N,AGND*%
X120269000Y96139000D03*
%TO.N,$3N4978*%
X123190000Y46863000D03*
%TO.N,3.3V*%
X116078000Y47879000D03*
%TO.N,$3N4920*%
X99441000Y48260000D03*
%TO.N,$4N6575*%
X64615400Y92731900D03*
%TO.N,$4N6576*%
X61341000Y90551000D03*
%TO.N,A3.3*%
X64897000Y77724000D03*
%TO.N,SPO2_VSIG*%
X58499700Y81420400D03*
%TO.N,3.3V*%
X52765600Y70819400D03*
X113030000Y68199000D03*
%TO.N,V5*%
X38094100Y50100000D03*
%TO.N,$1N2542*%
X47371000Y43942000D03*
%TO.N,GND*%
X16891000Y60960000D03*
X15235000Y60960000D03*
X18321000Y60960000D03*
X15612200Y53975000D03*
X17452400Y53975000D03*
%TO.N,PDL+*%
X54864000Y111252000D03*
%TO.N,MV*%
X56774700Y119061000D03*
%TO.N,MIII-*%
X53340000Y125984000D03*
%TO.N,AGND*%
X54610000Y133350000D03*
X54560500Y131903100D03*
%TO.N,MII+*%
X53467000Y140208000D03*
%TO.N,PDL-*%
X53975000Y102997000D03*
%TO.N,$4N13059*%
X64382700Y106797400D03*
%TO.N,$4N13071*%
X65278000Y109347000D03*
%TO.N,GND*%
X15494000Y130048000D03*
X16510000Y130048000D03*
X17526000Y130048000D03*
X15494000Y129159000D03*
X16510000Y129159000D03*
X17526000Y129159000D03*
X15494000Y128270000D03*
X16510000Y128270000D03*
X17526000Y128270000D03*
X21844000Y130937000D03*
X21844000Y131826000D03*
X21844000Y132715000D03*
X22860000Y132715000D03*
X22860000Y131826000D03*
X22860000Y130937000D03*
X23876000Y130937000D03*
X23876000Y131826000D03*
X23876000Y132715000D03*
%TO.N,$2N9177*%
X28575000Y138557000D03*
X28575000Y139446000D03*
X28575000Y140335000D03*
X29591000Y140335000D03*
X29591000Y139446000D03*
X29591000Y138557000D03*
X30607000Y138557000D03*
X30607000Y139446000D03*
X30607000Y140335000D03*
%TO.N,$3N12589*%
X115824000Y125984000D03*
%TO.N,3.3V*%
X120015000Y123952000D03*
%TO.N,$3N38319*%
X104521000Y127889000D03*
%TO.N,PRINT_PAPER*%
X105791000Y128651000D03*
%TO.N,3V3SGM*%
X51816000Y87503000D03*
X48133000Y89408000D03*
%TO.N,GND*%
X59272900Y43649400D03*
%TO.N,3.3V*%
X38308800Y39669700D03*
X37419800Y39669700D03*
X36530800Y39669700D03*
X36530800Y40685700D03*
X37419800Y40685700D03*
X38308800Y40685700D03*
X38308800Y41701700D03*
X37419800Y41701700D03*
X36530800Y41701700D03*
X39197800Y33319700D03*
X40086800Y33319700D03*
X40975800Y33319700D03*
X40975800Y34335700D03*
X40086800Y34335700D03*
X39197800Y34335700D03*
X39197800Y35351700D03*
X40086800Y35351700D03*
X40975800Y35351700D03*
%TO.N,GND*%
X69850000Y75692000D03*
X66167000Y75692000D03*
X63886600Y77676900D03*
%TO.N,3.3V*%
X70859100Y94128700D03*
X85478900Y88527600D03*
X77216000Y100584000D03*
%TO.N,GND*%
X26184400Y79756000D03*
X27522300Y79756000D03*
X26162000Y78613000D03*
X27559000Y78613000D03*
X30480000Y68326000D03*
X31833400Y68326000D03*
X31877000Y67437000D03*
X30480000Y67437000D03*
%TO.N,AGND*%
X37454600Y66740000D03*
%TO.N,V4*%
X37403200Y61784000D03*
%TO.N,GND*%
X99949000Y64516000D03*
%TO.N,3.3V*%
X104394000Y81788000D03*
%TO.N,MCU_RESET*%
X95631000Y92202000D03*
%TO.N,GND*%
X110744000Y94107000D03*
X101512600Y93396900D03*
%TO.N,$4N2324*%
X75830900Y119445900D03*
%TO.N,AGND*%
X76581000Y122428000D03*
%TO.N,A3.3*%
X78613000Y122555000D03*
%TO.N,$4N2284*%
X68326000Y119634000D03*
%TO.N,GND*%
X79830900Y119670900D03*
%TO.N,3.3V*%
X83439000Y122682000D03*
%TO.N,AGND*%
X73406000Y133350000D03*
X74863900Y136717000D03*
X78278600Y136712600D03*
%TO.N,A3.3*%
X76835000Y130556000D03*
%TO.N,AGND*%
X81407000Y133731000D03*
%TO.N,A3.3*%
X76073000Y105283000D03*
X84963000Y105283000D03*
X78740000Y105283000D03*
%TO.N,AGND*%
X81537000Y104075000D03*
%TO.N,$4N13071*%
X66421000Y109347000D03*
%TO.N,$4N13059*%
X66744000Y106747400D03*
%TO.N,$4N12574*%
X75970600Y102282300D03*
%TO.N,VREFPR*%
X86699100Y108391700D03*
%TO.N,AGND*%
X88519000Y105283000D03*
%TO.N,A3.3*%
X112395000Y98552000D03*
%TO.N,$4N13059*%
X82677000Y106299000D03*
X81915000Y105283000D03*
%TO.N,$4N6576*%
X59182000Y90551000D03*
%TO.N,II+*%
X23099400Y67925800D03*
%TO.N,3.3V*%
X64389000Y47879000D03*
%TO.N,AGND*%
X51435000Y56515000D03*
X61341000Y57912000D03*
%TO.N,GND*%
X65151000Y51308000D03*
X64135000Y54737000D03*
%TO.N,3.3V*%
X139192000Y103124000D03*
X128143000Y104267000D03*
X120650000Y105283000D03*
X132461000Y105918000D03*
X120269000Y93980000D03*
X143256000Y94869000D03*
X141478000Y88392000D03*
%TO.N,WARN*%
X132334000Y77597000D03*
%TO.N,GND*%
X126365000Y77978000D03*
%TO.N,RGB_B7*%
X119634000Y77724000D03*
%TO.N,GND*%
X132334000Y100457000D03*
X136779000Y105664000D03*
%TO.N,PRINT_DI2*%
X127635000Y106045000D03*
%TO.N,PRINT_CLK*%
X128651000Y106045000D03*
%TO.N,PRINT_STB2*%
X146812000Y124079000D03*
%TO.N,12VP*%
X130810000Y133350000D03*
X130086400Y133350000D03*
X130302000Y132608500D03*
%TO.N,GND*%
X146050000Y124079000D03*
%TO.N,PRINT_LAT*%
X145288000Y123825000D03*
%TO.N,3.3V*%
X141478000Y125349000D03*
%TO.N,5V_OUT*%
X142213300Y133448800D03*
X142752600Y60007000D03*
X142772100Y60671600D03*
X142748000Y71501000D03*
X142748000Y70866000D03*
%TO.N,AGND*%
X113439900Y103490600D03*
%TO.N,A3.3*%
X115218100Y108563900D03*
%TO.N,AGND*%
X71623900Y89744300D03*
%TO.N,A3.3*%
X73787300Y87651900D03*
%TO.N,RD+*%
X51181000Y90678000D03*
%TO.N,5V_OUT*%
X155123100Y132588000D03*
X155871400Y132588000D03*
X156619700Y132588000D03*
X157524500Y132588000D03*
%TO.N,$4N2370*%
X68509700Y115760800D03*
%TO.N,MV*%
X52066100Y120610500D03*
%TO.N,3.3V*%
X6096000Y108746100D03*
X6096000Y107961700D03*
X6096000Y107108800D03*
%TO.N,GND*%
X44196000Y132334000D03*
X45212000Y132334000D03*
X44196000Y131064000D03*
X45212000Y131064000D03*
X53467000Y123317000D03*
X54229000Y123317000D03*
X53467000Y122428000D03*
X54229000Y122428000D03*
X52959000Y118237000D03*
X53848000Y118237000D03*
X52959000Y117348000D03*
X53848000Y117348000D03*
X138684000Y121898400D03*
%TO.N,MTX*%
X134739200Y83102000D03*
X137065300Y82787900D03*
X137287000Y81534000D03*
%TO.N,MLL*%
X53563700Y129596500D03*
%TO.N,TOUCH_IRQ*%
X107489600Y67754100D03*
X121435800Y85799300D03*
%TO.N,3.3V*%
X8473400Y121796200D03*
X9978200Y121761200D03*
X11465400Y121761200D03*
X11500400Y120379000D03*
X11482900Y118856700D03*
X9925700Y118891700D03*
X8420900Y118874200D03*
X8420900Y120291500D03*
X10048100Y120291500D03*
X9260800Y120973900D03*
X10765500Y121026300D03*
X10853000Y119521600D03*
X9208300Y119609100D03*
%TO.N,TOUCH_IRQ*%
X112509800Y95999600D03*
X97308200Y90293800D03*
X116400100Y90006700D03*
%TO.N,LINE_ADCH2*%
X222842500Y71544000D03*
%TO.N,GND*%
X218208300Y91732700D03*
%TO.N,TOUCH_CLK*%
X116499300Y67571600D03*
X110237100Y65864900D03*
%TO.N,RGB_R3*%
X123330900Y105252100D03*
X227389200Y85666800D03*
%TO.N,12V*%
X130060200Y119410200D03*
X130460400Y118907500D03*
%TO.N,GND*%
X5815500Y92677000D03*
X6725400Y92653600D03*
X5807800Y93423500D03*
X4533400Y89945500D03*
X5412100Y89945500D03*
X5435500Y89121200D03*
X4525600Y89136800D03*
%TO.N,SDA*%
X263131200Y19023900D03*
%TO.N,RGB_R4*%
X138084400Y85156300D03*
%TO.N,RGB_R5*%
X138026600Y84470800D03*
%TO.N,GND*%
X97836400Y107532300D03*
%TO.N,3.3V*%
X103727400Y115191900D03*
%TO.N,RGB_R3*%
X128686700Y109460800D03*
X122408400Y105786700D03*
%TO.N,MTX*%
X122019000Y110714100D03*
%TO.N,RGB_B5*%
X117430400Y103698100D03*
%TO.N,GND*%
X116309100Y103753800D03*
X120131400Y98210900D03*
X117093300Y100991200D03*
%TO.N,DEF_L*%
X116665600Y95997700D03*
%TO.N,GND*%
X79461600Y98328000D03*
X86537800Y98764700D03*
X93857900Y98748400D03*
X55660400Y94895600D03*
X53904100Y94914200D03*
X57307400Y96840000D03*
X62650600Y96867900D03*
X68616300Y96858600D03*
X76189600Y96951500D03*
X55597600Y86409300D03*
X54017900Y91868600D03*
X55397900Y91638600D03*
X55428100Y88504800D03*
X52789000Y80931500D03*
X55586000Y83205800D03*
X59016500Y78302500D03*
X57434200Y68924600D03*
X57434200Y71043300D03*
X66173700Y71893500D03*
X69532900Y71823800D03*
%TO.N,AGND*%
X69282000Y69760900D03*
%TO.N,GND*%
X69003200Y74681200D03*
%TO.N,LCD_10V*%
X91865500Y51942600D03*
%TD*%
%TO.N,$4N2284*%
D18*
X72830900Y120942100D02*
X72830900Y127194100D01*
X72830900Y127194100D02*
X72283100Y127741900D01*
X72283100Y127741900D02*
X71031100Y127741900D01*
%TO.N,$1N2542*%
X51533000Y46863000D02*
X51473100Y46922900D01*
X53272900Y51502100D02*
X52852100Y51922900D01*
X52852100Y51922900D02*
X51473100Y51922900D01*
X53092900Y50922900D02*
X51473100Y50922900D01*
X53272400Y50925200D02*
X53272900Y51038500D01*
X53272400Y50925200D02*
X53272400Y51037900D01*
X53092900Y50922900D02*
X53092900Y50885300D01*
X53092900Y50885300D02*
X53272400Y50705800D01*
X53272400Y50705800D02*
X53272400Y50925200D01*
X53272900Y51038500D02*
X53251700Y51059800D01*
X53272900Y51038500D02*
X53272900Y51502100D01*
X53092900Y50922900D02*
X53257100Y51087200D01*
X53092900Y50922900D02*
X53103100Y50912700D01*
X53103100Y50912700D02*
X53256100Y50912700D01*
X53265100Y49922900D02*
X53270800Y49917300D01*
X53272700Y49691500D02*
X53063600Y49900600D01*
X53272600Y50134200D02*
X53061300Y49922900D01*
X53061300Y49922900D02*
X53057100Y49918800D01*
X51473100Y49922900D02*
X53061300Y49922900D01*
X53061300Y49922900D02*
X53265100Y49922900D01*
X53272400Y50705800D02*
X53272600Y50134200D01*
X53272600Y50134200D02*
X53272700Y49691500D01*
X53063600Y49918800D02*
X53063600Y49900600D01*
X51473100Y48922900D02*
X53110100Y48922900D01*
X53272900Y48760100D02*
X53110100Y48922900D01*
X53272700Y49691500D02*
X53272900Y48920500D01*
X53272900Y48760100D02*
X53272900Y49114600D01*
X53110100Y48922900D02*
X53255200Y49068100D01*
X53043900Y47918400D02*
X53048500Y47922900D01*
X53048500Y47922900D02*
X53269200Y48143700D01*
X51473100Y47922900D02*
X53048500Y47922900D01*
X53272900Y47689300D02*
X53063400Y47898900D01*
X53063400Y47898900D02*
X53057200Y47898900D01*
X53063400Y47898900D02*
X53258200Y47898900D01*
X53272900Y47577100D02*
X53275300Y47574800D01*
X53272900Y47689300D02*
X53272900Y47577100D01*
X53272900Y48760100D02*
X53272900Y47689300D01*
X53028600Y46863000D02*
X53241800Y46649800D01*
X53241800Y46649800D02*
X53272900Y46649800D01*
X53028600Y46863000D02*
X51533000Y46863000D01*
X53028600Y46863000D02*
X53040700Y46863000D01*
X53040700Y46863000D02*
X53266200Y47088500D01*
X53272900Y46526200D02*
X53267400Y46520700D01*
X53272900Y46649800D02*
X53272900Y46526200D01*
X53272900Y45123100D02*
X53272900Y46526200D01*
X53272900Y46650300D02*
X53270700Y46652500D01*
X53272900Y47577100D02*
X53272900Y46650300D01*
X53244500Y46863000D02*
X53249000Y46858500D01*
X53040700Y46863000D02*
X53244500Y46863000D01*
%TO.N,GND*%
D19*
X19118600Y132715000D02*
X19045900Y132787600D01*
X19045900Y132787600D02*
X19045900Y136525000D01*
%TO.N,$2N1140*%
X14965700Y136525000D02*
X14612900Y136902200D01*
X14605000Y136910100D02*
X14605000Y139573000D01*
%TO.N,5V_OUT*%
X7436400Y128011600D02*
X6784100Y127359300D01*
X10004800Y128011600D02*
X11418700Y129425500D01*
X20207500Y120945500D02*
X22275500Y118877500D01*
X18847400Y120567700D02*
X18847400Y120945500D01*
X18847400Y120945500D02*
X18847400Y120969000D01*
X17776700Y120945500D02*
X18847400Y120945500D01*
X18847400Y120945500D02*
X20207500Y120945500D01*
X18847400Y120567700D02*
X17932900Y119653200D01*
%TO.N,5V*%
D20*
X6497400Y139326200D02*
X8819800Y139326200D01*
X8819800Y139326200D02*
X9374900Y139881300D01*
X9374900Y144082000D02*
X9402700Y144109800D01*
X9374900Y143435400D02*
X9406800Y143435400D01*
X9406800Y143435400D02*
X10089400Y144118000D01*
X9374900Y139881300D02*
X9374900Y143435400D01*
X8689700Y144119600D02*
X9341000Y143468300D01*
X9374900Y144082000D02*
X9374900Y143435400D01*
%TO.N,5V_OUT*%
X18069100Y115847700D02*
X18069100Y117827700D01*
X18069100Y117827700D02*
X17776700Y118120200D01*
D19*
X17776700Y120945500D02*
X17776700Y118120200D01*
X17776700Y118120200D02*
X17776700Y118048300D01*
%TO.N,$2N10757*%
X28210700Y114254100D02*
X26503600Y114254100D01*
X26503600Y114254100D02*
X24821600Y115936100D01*
%TO.N,$2N10979*%
X21188000Y105243200D02*
X21188000Y105257100D01*
X21188000Y105257100D02*
X21063100Y105257100D01*
X21188000Y105257100D02*
X21035400Y105409800D01*
X28835300Y102675700D02*
X27849900Y102675700D01*
X27849900Y102675700D02*
X25268400Y105257100D01*
X21035400Y107009300D02*
X22742500Y105302200D01*
X21035400Y105409800D02*
X21035400Y107009300D01*
X21035400Y107009300D02*
X21035400Y110780900D01*
X21188000Y105257100D02*
X25268400Y105257100D01*
%TO.N,$2N10757*%
X24821600Y115936100D02*
X24816600Y115936100D01*
X22770200Y116072200D02*
X22825700Y116127700D01*
X22727400Y116115000D02*
X22770200Y116072200D01*
X22727400Y116115000D02*
X20998300Y116115000D01*
%TO.N,GND*%
X19118600Y130512600D02*
X19118600Y132715000D01*
%TO.N,3.3V*%
D21*
X6162700Y104807300D02*
X6116400Y104853600D01*
%TO.N,LCD_10V*%
X5230500Y101793300D02*
X5230500Y100923600D01*
X5230500Y100923600D02*
X4629100Y100322200D01*
X4629100Y100322200D02*
X3194900Y100322200D01*
X3194900Y100322200D02*
X2676800Y99804000D01*
X2676800Y99804000D02*
X2676800Y97074500D01*
X2676800Y97074500D02*
X2695300Y97056000D01*
%TO.N,FB*%
X4231200Y99036100D02*
X4231200Y95409000D01*
X4231200Y95409000D02*
X4194200Y95372000D01*
%TO.N,$2N4501*%
X6155700Y99040700D02*
X11947800Y99040700D01*
%TO.N,GND*%
D22*
X18538600Y142157200D02*
X19546100Y142157200D01*
X19546100Y142157200D02*
X20627700Y143238800D01*
X18546900Y141684300D02*
X20640000Y141684300D01*
X20640000Y141684300D02*
X20685200Y141639100D01*
%TO.N,$2N1635*%
X1171500Y127774100D02*
X1171500Y134880100D01*
X1171500Y134880100D02*
X1088300Y134963400D01*
%TO.N,$2N1670*%
X2823100Y129675500D02*
X7375400Y129675500D01*
X7375400Y129675500D02*
X7500300Y129550600D01*
%TO.N,$2N1654*%
X2739900Y134921700D02*
X7444800Y134921700D01*
X7444800Y134921700D02*
X7458700Y134907800D01*
%TO.N,$2N10757*%
D19*
X26939600Y112299200D02*
X26398300Y112840500D01*
X26398300Y112840500D02*
X19715600Y112840500D01*
%TO.N,LCD_10V*%
D21*
X8420600Y91382000D02*
X8399500Y91403100D01*
%TO.N,LCD_3.9V*%
X9961100Y91550900D02*
X9961100Y88201400D01*
X9961100Y88201400D02*
X9877800Y88118200D01*
%TO.N,LCD_10V*%
X2676800Y97074500D02*
X1610700Y96008400D01*
X1610700Y96008400D02*
X1610700Y93135400D01*
X1610700Y93135400D02*
X3266900Y91479200D01*
X3266900Y91479200D02*
X8374300Y91479200D01*
%TO.N,LCD_3.9V*%
X9961100Y88201400D02*
X9961100Y87012700D01*
X9961100Y87012700D02*
X10208800Y86765000D01*
%TO.N,$2N4501*%
X11988400Y99101700D02*
X13528900Y97561200D01*
X13528900Y97561200D02*
X18525300Y97561200D01*
%TO.N,$2N4625*%
X16630900Y96291300D02*
X16630900Y92127600D01*
X16630900Y92127600D02*
X16735000Y92023500D01*
%TO.N,LCD_10V*%
X8399500Y94756600D02*
X8379900Y94776200D01*
X8399500Y96690500D02*
X8399500Y94756600D01*
X8399500Y91403100D02*
X8399500Y94756600D01*
X8463200Y94692900D02*
X8399500Y94756600D01*
X14264500Y91028900D02*
X13043200Y91028900D01*
%TO.N,3.3V*%
X6162700Y104807300D02*
X9222800Y104807300D01*
X9222800Y104807300D02*
X10686100Y103344000D01*
%TO.N,$2N4895*%
X14257600Y93003100D02*
X15631600Y91629100D01*
X15631600Y91629100D02*
X15631600Y87798600D01*
%TO.N,LCD_16V*%
X17404200Y87945100D02*
X15884500Y86425300D01*
X15884500Y86425300D02*
X15884500Y80533700D01*
X15849800Y80700300D02*
X15849800Y79479000D01*
X15849800Y79479000D02*
X16127400Y79201400D01*
%TO.N,LCD_-7.5V*%
X20821900Y87025200D02*
X20821900Y79489000D01*
X20821900Y79489000D02*
X20877400Y79433500D01*
%TO.N,$2N5230*%
X20901700Y93320400D02*
X20901700Y88511400D01*
X20901700Y88511400D02*
X20797600Y88407300D01*
%TO.N,$2N4501*%
X19934800Y95705300D02*
X19934800Y97454000D01*
X19934800Y97454000D02*
X19888500Y97500300D01*
%TO.N,LCD_-7.5V*%
X20821900Y79489000D02*
X20821900Y78989000D01*
X20821900Y78989000D02*
X21521600Y78289200D01*
%TO.N,$2N200*%
D18*
X5649600Y143487800D02*
X6309600Y143487800D01*
X6309600Y143487800D02*
X6314400Y143483000D01*
%TO.N,GND*%
X5655700Y140477700D02*
X6204700Y140477700D01*
X6204700Y140477700D02*
X6208100Y140481100D01*
%TO.N,D+*%
X6105700Y142482200D02*
X5704700Y142482200D01*
X5704700Y142482200D02*
X5507300Y142284800D01*
X5507300Y142284800D02*
X5507300Y141637200D01*
X5507300Y141637200D02*
X5686200Y141458300D01*
X5686200Y141458300D02*
X6136500Y141458300D01*
X6136500Y141458300D02*
X6148800Y141470600D01*
%TO.N,D-*%
X6734800Y140989500D02*
X6716300Y140971000D01*
X7388000Y141114200D02*
X7263300Y140989500D01*
X7263300Y140989500D02*
X6734800Y140989500D01*
X6796500Y141982600D02*
X7241300Y141982600D01*
X7241300Y141982600D02*
X7388000Y141835900D01*
X7388000Y141835900D02*
X7388000Y141114200D01*
%TO.N,L1*%
X17811700Y145731400D02*
X17811700Y144843100D01*
X17811700Y144843100D02*
X17809000Y144840400D01*
%TO.N,L2*%
X19440800Y144363400D02*
X19240000Y144162500D01*
X19240000Y144162500D02*
X18527900Y144162500D01*
%TO.N,$2N1635*%
X19434700Y143684800D02*
X19423000Y143696500D01*
X19423000Y143696500D02*
X18516900Y143696500D01*
%TO.N,L1*%
X9022700Y134100800D02*
X9022700Y134924300D01*
X9022700Y134924300D02*
X8985700Y134961300D01*
%TO.N,L2*%
X9733100Y130397700D02*
X9247800Y129912500D01*
X9247800Y129912500D02*
X9247800Y129382000D01*
%TO.N,$2N1635*%
X3247000Y126965000D02*
X3247000Y127129500D01*
X3247000Y127129500D02*
X2667200Y127709300D01*
%TO.N,$2N9177*%
X18573900Y140695400D02*
X21058200Y140695400D01*
X21058200Y140695400D02*
X21488400Y140265200D01*
%TO.N,$3N2471*%
X109963700Y97655800D02*
X109982200Y97674300D01*
%TO.N,$3N2377*%
X108862600Y94028800D02*
X108862600Y93797500D01*
X108862600Y93797500D02*
X109538100Y93122000D01*
X109538100Y93122000D02*
X111325000Y93122000D01*
X111325000Y93122000D02*
X111630400Y93427400D01*
X111630400Y93427400D02*
X117486000Y93427400D01*
X108771700Y92261000D02*
X108771700Y93901800D01*
X108771700Y93901800D02*
X108839500Y93969700D01*
%TO.N,$3N2284*%
X108981000Y85816200D02*
X111025800Y85816200D01*
X111025800Y85816200D02*
X111136900Y85705200D01*
X111136900Y85705200D02*
X112059200Y85705200D01*
X112059200Y85705200D02*
X112290500Y85936500D01*
X112290500Y85936500D02*
X117780200Y85936500D01*
%TO.N,GND*%
X107199900Y88943600D02*
X107199900Y84974300D01*
X107199900Y84974300D02*
X107935500Y84238700D01*
X107935500Y84238700D02*
X111252500Y84238700D01*
X111252500Y84238700D02*
X111280300Y84210900D01*
X108920900Y99214000D02*
X107394200Y97687300D01*
X107394200Y97687300D02*
X107394200Y92413300D01*
X107394200Y92413300D02*
X107324800Y92343900D01*
X111946500Y92135700D02*
X111946500Y92954600D01*
X111044300Y99214000D02*
X108920900Y99214000D01*
X111849300Y94300800D02*
X111849300Y98409000D01*
X111849300Y98409000D02*
X111044300Y99214000D01*
%TO.N,3.3V*%
X107025800Y60701700D02*
X107025800Y61034800D01*
X102908400Y65152200D02*
X101289200Y65152200D01*
X107025800Y61034800D02*
X102908400Y65152200D01*
%TO.N,Y1*%
X107988000Y60785000D02*
X107988000Y61000500D01*
X107988000Y61000500D02*
X103151700Y65836900D01*
X103151700Y65836900D02*
X101020800Y65836900D01*
%TO.N,X2*%
X108978100Y60849700D02*
X108978100Y61488200D01*
X108617200Y61849000D02*
X107571700Y61849000D01*
X107571700Y61849000D02*
X102982400Y66438300D01*
X102982400Y66438300D02*
X100882100Y66438300D01*
X108978100Y61488200D02*
X108617200Y61849000D01*
%TO.N,Y2*%
X102741800Y67104500D02*
X100928300Y67104500D01*
X109829300Y62172900D02*
X107673400Y62172900D01*
X107673400Y62172900D02*
X102741800Y67104500D01*
X110023600Y60748000D02*
X110038200Y60762600D01*
X110038200Y60762600D02*
X110038200Y61963900D01*
X110038200Y61963900D02*
X109829300Y62172900D01*
%TO.N,$3N2281*%
X107852200Y77180400D02*
X107852200Y80650100D01*
X107852200Y80650100D02*
X107810600Y80691700D01*
%TO.N,VRTC*%
X100121700Y75750800D02*
X101898200Y75750800D01*
X101898200Y75750800D02*
X103466500Y77319100D01*
%TO.N,LCD_LED*%
D23*
X94627200Y46199200D02*
X95645000Y46199200D01*
X95645000Y46199200D02*
X96995800Y44848300D01*
X94747500Y48253300D02*
X94747500Y46338000D01*
X94747500Y46338000D02*
X94840000Y46245400D01*
%TO.N,$3N10389*%
X89223700Y46245400D02*
X88872100Y45893800D01*
X88872100Y45893800D02*
X88872100Y44376400D01*
X89251400Y46282500D02*
X89270000Y46263900D01*
X89270000Y46263900D02*
X91074200Y46263900D01*
%TO.N,$4N14495*%
X132877900Y48806400D02*
X132877900Y53240700D01*
X132877900Y53240700D02*
X134689100Y55051900D01*
%TO.N,$4N14511*%
X148262600Y48390000D02*
X148262600Y55343300D01*
X148262600Y55343300D02*
X148116900Y55489100D01*
%TO.N,5V_OUT*%
X150686800Y57855400D02*
X149224900Y57855400D01*
X149141600Y59483900D02*
X149132400Y59493100D01*
X137404000Y57563200D02*
X137366900Y57600200D01*
X137366900Y57600200D02*
X135898900Y57600200D01*
X135812500Y57600200D02*
X135812500Y58963400D01*
X135812500Y58963400D02*
X135787800Y58988100D01*
D24*
X147510300Y59587700D02*
X147158700Y59236100D01*
X147158700Y59236100D02*
X147158700Y57718700D01*
X147158700Y57709400D02*
X145881800Y57709400D01*
X145881800Y57709400D02*
X145724500Y57866700D01*
X134158800Y58949300D02*
X134158800Y57885200D01*
X134158800Y57885200D02*
X133927500Y57653900D01*
X133927500Y57653900D02*
X132770900Y57653900D01*
%TO.N,PRINT_MB+*%
D25*
X117997900Y129037700D02*
X117997900Y134108100D01*
X117997900Y134108100D02*
X118849200Y134959300D01*
%TO.N,PRINT_MB-*%
X118488300Y128991400D02*
X118488300Y130656900D01*
X118488300Y130656900D02*
X122753800Y134922300D01*
%TO.N,$3N12468*%
X121439100Y127270400D02*
X121439100Y125074500D01*
X121439100Y125074500D02*
X121457600Y125056000D01*
%TO.N,$3N12589*%
X117991000Y127258100D02*
X117991000Y125043700D01*
X117991000Y125043700D02*
X117941600Y124994300D01*
%TO.N,PRINT_MA+*%
X121398100Y130814500D02*
X121437100Y130775400D01*
%TO.N,PRINT_MA-*%
X121938800Y129040600D02*
X121938800Y129828800D01*
X121938800Y129828800D02*
X122250700Y130140700D01*
%TO.N,RA*%
D22*
X8359500Y72331700D02*
X13911000Y72331700D01*
X13911000Y72331700D02*
X14547200Y71695600D01*
%TO.N,II-*%
X18499200Y71652800D02*
X20747500Y71652800D01*
X20747500Y71652800D02*
X20789200Y71611100D01*
%TO.N,II+*%
X17902400Y70028900D02*
X20733700Y70028900D01*
X20733700Y70028900D02*
X20789200Y70084500D01*
%TO.N,II-*%
X22468500Y71541700D02*
X23981300Y71541700D01*
X23981300Y71541700D02*
X24022900Y71583400D01*
X24106200Y71472300D02*
X24106200Y73248800D01*
X24106200Y73248800D02*
X24050700Y73304400D01*
%TO.N,GND*%
X8856800Y67003400D02*
X8856800Y67979500D01*
X8856800Y67979500D02*
X10711900Y69834600D01*
X14450000Y69834600D02*
X14477800Y69806900D01*
X10711900Y69834600D02*
X14450000Y69834600D01*
%TO.N,C2*%
X11417500Y74116300D02*
X12479200Y75178000D01*
X12479200Y75178000D02*
X28061700Y75178000D01*
X28061700Y75178000D02*
X28061700Y77148800D01*
X28061700Y77148800D02*
X27885900Y77324600D01*
%TO.N,V2*%
X29593000Y75204600D02*
X32646300Y75204600D01*
X32646300Y75204600D02*
X32715700Y75135200D01*
%TO.N,GND*%
X11476700Y68415200D02*
X13631400Y66260500D01*
X24498600Y66260500D02*
X27340300Y63418800D01*
X13631400Y66260500D02*
X24498600Y66260500D01*
%TO.N,C3*%
X11590100Y71047600D02*
X20010100Y71047600D01*
X20010100Y71047600D02*
X20260800Y70796900D01*
X20260800Y70796900D02*
X20316300Y70852400D01*
X24928300Y70852400D02*
X25819300Y69961400D01*
X25819300Y67150600D02*
X27619700Y65350200D01*
X20316300Y70852400D02*
X24928300Y70852400D01*
X25819300Y69961400D02*
X25819300Y67150600D01*
%TO.N,C5*%
X13804400Y57439200D02*
X13827900Y57462800D01*
X20233700Y57462800D02*
X20322100Y57551200D01*
X20322100Y57551200D02*
X25960800Y57551200D01*
X26587700Y56924300D02*
X26587700Y53301900D01*
X26587700Y53301900D02*
X27878400Y52011200D01*
X27878400Y52011200D02*
X28315600Y52011200D01*
X13827900Y57462800D02*
X20233700Y57462800D01*
X25960800Y57551200D02*
X26587700Y56924300D01*
%TO.N,V5*%
X31953400Y51625700D02*
X33995100Y51625700D01*
X33995100Y51625700D02*
X34007400Y51613300D01*
X36107800Y51426700D02*
X38828000Y51426700D01*
X38828000Y51426700D02*
X38883500Y51482300D01*
%TO.N,III-*%
X17002400Y58536800D02*
X20652500Y58536800D01*
X20652500Y58536800D02*
X20721900Y58467400D01*
%TO.N,RL*%
X9039400Y58446600D02*
X6697300Y56104500D01*
X6697300Y56104500D02*
X6697300Y41076300D01*
%TO.N,GND*%
X8945700Y64184600D02*
X9972700Y63157600D01*
X9972700Y63157600D02*
X9972700Y50978900D01*
X9972700Y50978900D02*
X10733500Y50218100D01*
X10733500Y50218100D02*
X12700800Y50218100D01*
X13325300Y45752600D02*
X14512000Y44566000D01*
X12700800Y50218100D02*
X13325300Y49593600D01*
X13325300Y49593600D02*
X13325300Y45752600D01*
%TO.N,V1*%
X17307400Y44458400D02*
X17437000Y44328900D01*
X17437000Y44328900D02*
X20693900Y44328900D01*
X25588500Y44375100D02*
X25616200Y44402900D01*
%TO.N,V6*%
X17208000Y51429100D02*
X20863900Y51429100D01*
X20863900Y51429100D02*
X20898600Y51394400D01*
X22281800Y51459100D02*
X25404600Y51459100D01*
%TO.N,GND*%
X14424300Y51607800D02*
X12814400Y53217800D01*
X12814400Y53217800D02*
X12814400Y61110200D01*
X12814400Y61110200D02*
X11443800Y62480700D01*
%TO.N,C5*%
X11646200Y65201000D02*
X13258500Y63588700D01*
X13258500Y63588700D02*
X13258500Y57985100D01*
X13258500Y57985100D02*
X13804400Y57439200D01*
%TO.N,LA*%
X8991100Y69522500D02*
X7367300Y67898600D01*
X7367300Y67898600D02*
X7367300Y65983400D01*
X7367300Y65983400D02*
X7866900Y65483700D01*
X7866900Y65483700D02*
X9823800Y65483700D01*
X9823800Y65483700D02*
X11114600Y66774400D01*
X11114600Y66774400D02*
X12134700Y66774400D01*
X12134700Y66774400D02*
X13654400Y65254700D01*
X13654400Y59474400D02*
X14228300Y58900500D01*
X13654400Y65254700D02*
X13654400Y59474400D01*
%TO.N,V3*%
X30190400Y65267600D02*
X33451900Y65267600D01*
X33451900Y65267600D02*
X33535200Y65184400D01*
%TO.N,V4*%
X30898200Y63324600D02*
X33271500Y63324600D01*
X33271500Y63324600D02*
X33354800Y63241300D01*
%TO.N,V3*%
X34812100Y65323100D02*
X38032000Y65323100D01*
X38032000Y65323100D02*
X38087500Y65267600D01*
%TO.N,V1*%
X25588500Y44375100D02*
X43615100Y44375100D01*
X43615100Y44375100D02*
X46665100Y47425100D01*
X46665100Y47425100D02*
X51356100Y47425100D01*
%TO.N,V6*%
X25236100Y51394500D02*
X25680300Y51394500D01*
X28645200Y48429500D02*
X25680300Y51394500D01*
X51061100Y48429500D02*
X51073200Y48417400D01*
X51061100Y48429500D02*
X28645200Y48429500D01*
%TO.N,V5*%
X38828000Y51426700D02*
X40843800Y49410900D01*
X40843800Y49410900D02*
X51562800Y49410900D01*
%TO.N,V4*%
X42228100Y50423000D02*
X51409000Y50423000D01*
X40510600Y52140500D02*
X42228100Y50423000D01*
X40510600Y62258200D02*
X40510600Y52140500D01*
%TO.N,V3*%
X42248900Y51377200D02*
X51492200Y51377200D01*
%TO.N,V2*%
X51523100Y52435100D02*
X41939700Y52435100D01*
X41939700Y52435100D02*
X41292800Y53082000D01*
X41292800Y53082000D02*
X41292800Y66683500D01*
X41292800Y66683500D02*
X32781400Y75194900D01*
%TO.N,V3*%
X38231000Y65256100D02*
X40911900Y62575100D01*
X40911900Y62575100D02*
X40911900Y52714200D01*
X40911900Y52714200D02*
X42248900Y51377200D01*
%TO.N,AGND*%
X49544700Y45172300D02*
X49544700Y45783000D01*
X49544700Y45783000D02*
X50655000Y46893300D01*
%TO.N,$1N6305*%
X53757000Y45105300D02*
X53757000Y43800600D01*
X53757000Y43800600D02*
X53238800Y43282500D01*
X53238800Y43282500D02*
X53238800Y40053400D01*
X53238800Y40053400D02*
X53192600Y40007100D01*
X54580400Y40127400D02*
X54580400Y41589300D01*
X54580400Y41589300D02*
X54682200Y41691100D01*
X7441800Y38501100D02*
X8639700Y37303200D01*
X8639700Y37303200D02*
X48924800Y37303200D01*
X48924800Y37303200D02*
X51766500Y40144900D01*
X51766500Y40144900D02*
X51766500Y43205200D01*
%TO.N,III+*%
X20703000Y56720600D02*
X20703000Y55957300D01*
X20703000Y55957300D02*
X20619800Y55874000D01*
%TO.N,AGND*%
X57779500Y45151700D02*
X57779500Y41987300D01*
X56798800Y56282600D02*
X56798800Y58642000D01*
X56798800Y58642000D02*
X55636000Y59804700D01*
X55497200Y59888000D02*
X54053800Y59888000D01*
X57232100Y59804700D02*
X57759500Y59277300D01*
X57759500Y59277300D02*
X57759500Y56182300D01*
X58744900Y59915700D02*
X58744900Y56695800D01*
X60479700Y59790800D02*
X59771900Y59083000D01*
X59771900Y59083000D02*
X59771900Y56390500D01*
%TO.N,III-*%
X49381600Y53097200D02*
X49627800Y53097200D01*
X49627800Y53097200D02*
X49809300Y52915700D01*
X49809300Y52915700D02*
X50836300Y52915700D01*
%TO.N,III+*%
X49411400Y53850200D02*
X49855500Y53406100D01*
X49855500Y53406100D02*
X51049100Y53406100D01*
%TO.N,II-*%
X49411400Y54655200D02*
X50151600Y53915000D01*
X50151600Y53915000D02*
X51178600Y53915000D01*
%TO.N,II+*%
X50512400Y54386900D02*
X51178600Y54386900D01*
X49420600Y55478700D02*
X50512400Y54386900D01*
%TO.N,II-*%
X25247500Y71509400D02*
X24262300Y71509400D01*
X24262300Y71509400D02*
X24243000Y71528700D01*
%TO.N,MII+*%
X55954700Y137466400D02*
X56019500Y137401600D01*
X56019500Y137401600D02*
X56019500Y137355400D01*
%TO.N,MII-*%
X56065800Y134459300D02*
X56139800Y134385300D01*
X52744100Y135736200D02*
X52864400Y135856400D01*
%TO.N,MIII-*%
X52822700Y127522200D02*
X53030900Y127314000D01*
%TO.N,MIII+*%
X56174500Y130644900D02*
X56174500Y129062700D01*
X55945500Y129041900D02*
X54446600Y129041900D01*
%TO.N,MIII-*%
X55945500Y127459700D02*
X56091200Y127605500D01*
X56091200Y125960800D02*
X56174500Y125877500D01*
%TO.N,MV*%
X52718700Y120610500D02*
X52760300Y120652200D01*
X54134300Y120527200D02*
X57340300Y120527200D01*
X57340300Y120527200D02*
X57444400Y120423200D01*
%TO.N,PDL+*%
X49498800Y108948800D02*
X52885200Y108948800D01*
X52885200Y108948800D02*
X53204400Y108629600D01*
%TO.N,PDL-*%
X55161300Y105645600D02*
X55161300Y105213900D01*
X55161300Y105213900D02*
X56354900Y104020300D01*
%TO.N,PDL_XJ*%
X44116800Y110985900D02*
X44699800Y110985900D01*
X44699800Y110985900D02*
X46739900Y108945700D01*
%TO.N,PDL_XD*%
X44304200Y105094300D02*
X44325000Y105073500D01*
X44325000Y105073500D02*
X48967500Y105073500D01*
%TO.N,PDL-*%
X49841900Y104886200D02*
X52173500Y104886200D01*
X52173500Y104886200D02*
X53214400Y105927100D01*
%TO.N,MII+*%
X56019500Y137355400D02*
X63158100Y130216800D01*
X63158100Y130216800D02*
X70977600Y130216800D01*
%TO.N,MIII+*%
X55945500Y129041900D02*
X56153700Y129041900D01*
X56174500Y129062700D02*
X56153700Y129041900D01*
X56153700Y129041900D02*
X56049600Y128937800D01*
%TO.N,MV*%
X57559100Y120503900D02*
X65324300Y128269100D01*
X65324300Y128269100D02*
X71465700Y128269100D01*
%TO.N,MIII-*%
X65083800Y128748000D02*
X70799500Y128748000D01*
%TO.N,MIII+*%
X64970400Y129238300D02*
X70873500Y129238300D01*
X56153700Y129041900D02*
X56299400Y128896200D01*
X56299400Y128896200D02*
X64628300Y128896200D01*
X64628300Y128896200D02*
X64970400Y129238300D01*
%TO.N,PDL-*%
X71172500Y125755300D02*
X64052700Y125755300D01*
X64052700Y125755300D02*
X59680800Y121383500D01*
X59680800Y121383500D02*
X59680800Y110315100D01*
%TO.N,$4N2370*%
X70853300Y115760800D02*
X70936600Y115844100D01*
X72539600Y115635900D02*
X72539600Y119029300D01*
X72539600Y119029300D02*
X72435500Y119133400D01*
X72435500Y119133400D02*
X73336900Y120034700D01*
X73336900Y120034700D02*
X73336900Y120191300D01*
X74077100Y117347600D02*
X74077100Y119170400D01*
X74077100Y119170400D02*
X74336100Y119429500D01*
X74336100Y119429500D02*
X74336100Y120456500D01*
%TO.N,AGND*%
X77327800Y118160300D02*
X77327800Y121003900D01*
X77327800Y121003900D02*
X77315500Y121016300D01*
X74034500Y135305300D02*
X75658300Y135305300D01*
X75658300Y135305300D02*
X75699900Y135347000D01*
X75699900Y135347000D02*
X76324500Y134722400D01*
X76324500Y134722400D02*
X76324500Y132293600D01*
X77337600Y135291500D02*
X77337600Y132612800D01*
X77337600Y132612800D02*
X77379300Y132571200D01*
X79003100Y135069400D02*
X78336900Y134403200D01*
X78336900Y134403200D02*
X78336900Y132446300D01*
X80599200Y135208200D02*
X79350100Y133959100D01*
X79350100Y133959100D02*
X79350100Y132293600D01*
X70230500Y119758300D02*
X72432600Y119758300D01*
X72432600Y119758300D02*
X72852100Y120177800D01*
%TO.N,$4N13071*%
X64910600Y108269200D02*
X67778900Y108269200D01*
X67778900Y108269200D02*
X67834400Y108324700D01*
%TO.N,$4N13256*%
X67954700Y109592300D02*
X70952500Y109592300D01*
X70952500Y109592300D02*
X71054300Y109694100D01*
%TO.N,$4N13340*%
X71109800Y108260000D02*
X72553200Y108260000D01*
X72553200Y108260000D02*
X72599400Y108213700D01*
%TO.N,$4N13059*%
X64799500Y104716200D02*
X67621600Y104716200D01*
X67621600Y104716200D02*
X67658600Y104679200D01*
%TO.N,$4N13252*%
X67806600Y106122600D02*
X70943200Y106122600D01*
X70943200Y106122600D02*
X70980200Y106085600D01*
%TO.N,$4N13314*%
X71156000Y104734700D02*
X72571700Y104734700D01*
X72571700Y104734700D02*
X72590200Y104716200D01*
X72692000Y106141100D02*
X74324400Y106141100D01*
X74324400Y106141100D02*
X74481700Y106298400D01*
X74481700Y106298400D02*
X77105400Y106298400D01*
%TO.N,RESPN*%
X72655000Y109765700D02*
X75649800Y106771000D01*
X75649800Y106771000D02*
X77367700Y106771000D01*
%TO.N,MLL*%
X69622100Y107513900D02*
X69617300Y107518700D01*
X69617300Y107518700D02*
X69617300Y108109500D01*
%TO.N,$4N13059*%
X64754800Y104762300D02*
X63589000Y105928100D01*
X63589000Y105928100D02*
X63589000Y110799600D01*
X63589000Y110799600D02*
X64144100Y111354800D01*
X64144100Y111354800D02*
X75219500Y111354800D01*
X75219500Y111354800D02*
X77162500Y109411700D01*
X79506000Y109411700D02*
X79874000Y109043700D01*
X79874000Y109043700D02*
X79874000Y108315800D01*
X79874000Y108315800D02*
X79911000Y108278800D01*
X77162500Y109411700D02*
X79506000Y109411700D01*
%TO.N,$4N13071*%
X80392000Y108520900D02*
X80392000Y109432900D01*
X80392000Y109432900D02*
X79846800Y109978200D01*
X79846800Y109978200D02*
X77338700Y109978200D01*
X77338700Y109978200D02*
X75395700Y111921200D01*
X75395700Y111921200D02*
X64257100Y111921200D01*
X64257100Y111921200D02*
X64252500Y111916600D01*
%TO.N,VREFPR*%
X87532800Y106879500D02*
X84017700Y106879500D01*
X84017700Y106879500D02*
X83878500Y106740300D01*
%TO.N,$4N12868*%
X83024600Y110483600D02*
X83024600Y109478100D01*
X83024600Y109478100D02*
X82374900Y108828500D01*
X81903100Y110212900D02*
X81903100Y108635100D01*
X81903100Y108635100D02*
X81926300Y108611900D01*
%TO.N,AGND*%
X77489500Y104249300D02*
X75715900Y104249300D01*
X75715900Y104249300D02*
X75690100Y104223500D01*
%TO.N,$4N7480*%
X34473400Y84551300D02*
X35989300Y86067100D01*
X35989300Y86067100D02*
X37358200Y86067100D01*
%TO.N,$4N7481*%
X35795900Y84458400D02*
X37257600Y84458400D01*
X37257600Y84458400D02*
X37365900Y84566700D01*
%TO.N,$4N7479*%
X34202700Y82927100D02*
X35896500Y82927100D01*
%TO.N,$4N7475*%
X37458700Y88186200D02*
X39539200Y88186200D01*
X39539200Y88186200D02*
X39632000Y88093400D01*
%TO.N,$4N7480*%
X37528300Y86082600D02*
X39701600Y86082600D01*
X39701600Y86082600D02*
X39763400Y86144500D01*
%TO.N,$4N7474*%
X40065100Y91480900D02*
X42052700Y91480900D01*
X42052700Y91480900D02*
X42137800Y91395800D01*
X42214200Y90036600D02*
X42214200Y88141800D01*
X42214200Y88141800D02*
X42167700Y88095400D01*
%TO.N,GND*%
X43946600Y87600400D02*
X43946600Y86123200D01*
X43946600Y86123200D02*
X43938800Y86115500D01*
X43946600Y86123200D02*
X42229600Y86123200D01*
X42229600Y86123200D02*
X42214200Y86138700D01*
%TO.N,$4N7483*%
X45818200Y85148700D02*
X48857600Y85148700D01*
X48857600Y85148700D02*
X48880900Y85125500D01*
%TO.N,$4N7481*%
X44132200Y84220600D02*
X37983700Y84220600D01*
X37983700Y84220600D02*
X37751600Y84452600D01*
%TO.N,3V3SGM*%
X50443100Y84954400D02*
X50443100Y78956700D01*
X50443100Y78956700D02*
X50385100Y78898700D01*
X50907200Y85299800D02*
X50921300Y85285700D01*
X41284800Y80617100D02*
X46540000Y80617100D01*
X46540000Y80617100D02*
X47967000Y79190100D01*
%TO.N,$4N7475*%
X39875300Y80773700D02*
X34045800Y80773700D01*
X34045800Y80773700D02*
X32705900Y82113600D01*
X37299800Y88308500D02*
X37352100Y88360700D01*
%TO.N,GND*%
X49970100Y91042500D02*
X49970100Y89673600D01*
X49970100Y89673600D02*
X49962300Y89665800D01*
%TO.N,VREF*%
X56513000Y91815900D02*
X56513000Y88701000D01*
X56513000Y88701000D02*
X56495600Y88683600D01*
X58096500Y88718400D02*
X61455000Y88718400D01*
X61455000Y88718400D02*
X61559400Y88614000D01*
%TO.N,$4N7483*%
X49465400Y89078100D02*
X49465400Y87674300D01*
X49465400Y87674300D02*
X48931800Y87140700D01*
X48931800Y87140700D02*
X48931800Y85296100D01*
X48931800Y85296100D02*
X48873800Y85238100D01*
%TO.N,$4N6602*%
X62928400Y82915000D02*
X62928400Y82567000D01*
X62928400Y82567000D02*
X61408600Y81047300D01*
X61292600Y80850100D02*
X61292600Y79399900D01*
X61292600Y79399900D02*
X61234600Y79341900D01*
X58195200Y79376700D02*
X59714900Y79376700D01*
X59714900Y79376700D02*
X59830900Y79492700D01*
X59830900Y79492700D02*
X59830900Y80780500D01*
%TO.N,$4N6584*%
X64239300Y82520600D02*
X62183700Y80465000D01*
X62183700Y80465000D02*
X62183700Y76505500D01*
X60884400Y75104700D02*
X63459800Y75104700D01*
X63459800Y75104700D02*
X63610600Y74953900D01*
%TO.N,$4N6586*%
X60780000Y76531600D02*
X58181400Y76531600D01*
X58181400Y76531600D02*
X58158200Y76554800D01*
%TO.N,3V3SGM*%
X51394800Y76844800D02*
X51394800Y73492100D01*
X51394800Y73492100D02*
X51464400Y73422500D01*
%TO.N,3.3V*%
X52752100Y73550100D02*
X52763700Y73538500D01*
%TO.N,VREF*%
X56495600Y88683600D02*
X56495600Y81496100D01*
X56495600Y81496100D02*
X55527700Y80528100D01*
X55527700Y80528100D02*
X55527700Y76264800D01*
X55527700Y76264800D02*
X56919800Y74872600D01*
%TO.N,$4N6583*%
X63845600Y76491000D02*
X64698200Y76491000D01*
X66036200Y79170800D02*
X66237300Y79371900D01*
X66237300Y79371900D02*
X70632100Y79371900D01*
X70632100Y79371900D02*
X71073000Y78931100D01*
X64698200Y76491000D02*
X66036200Y77829000D01*
X66036200Y77829000D02*
X66036200Y79170800D01*
%TO.N,PD-*%
D25*
X66805700Y72254700D02*
X68371900Y70688600D01*
%TO.N,PD+*%
X68006400Y78571400D02*
X68076000Y78501800D01*
%TO.N,$4N6583*%
D22*
X71218000Y78544400D02*
X71388100Y78714500D01*
X71388100Y78714500D02*
X71388100Y80245800D01*
%TO.N,$4N6582*%
X68240400Y80098900D02*
X69663400Y80098900D01*
X69663400Y80098900D02*
X69678900Y80083400D01*
X68023800Y80207200D02*
X67977400Y80253600D01*
X67977400Y80253600D02*
X67977400Y82790300D01*
%TO.N,PD-*%
X66716800Y80114400D02*
X66716800Y82836700D01*
X66716800Y82836700D02*
X66732300Y82852200D01*
%TO.N,$4N6579*%
X65456200Y82581500D02*
X65456200Y80222600D01*
X65456200Y80222600D02*
X65247300Y80013800D01*
X65247300Y80013800D02*
X64156800Y80013800D01*
X64156800Y80013800D02*
X64125900Y80044800D01*
%TO.N,$4N6583*%
X69253900Y82052800D02*
X69381500Y82052800D01*
X69381500Y82052800D02*
X71098500Y80335900D01*
%TO.N,$4N6602*%
X61607800Y81999400D02*
X61244300Y81635900D01*
X60440000Y81635900D02*
X60053300Y81249200D01*
X61244300Y81635900D02*
X60440000Y81635900D01*
%TO.N,GND*%
X49413500Y84743400D02*
X49374800Y84704800D01*
X49374800Y84704800D02*
X49374800Y83188900D01*
%TO.N,RD-*%
X49898400Y84999100D02*
X49898400Y83962700D01*
X49898400Y83962700D02*
X49913900Y83947300D01*
%TO.N,$4N12864*%
X78863200Y107709900D02*
X78863200Y106771500D01*
X78863200Y106771500D02*
X78873500Y106761200D01*
X79384000Y108076000D02*
X79384000Y107184000D01*
X79384000Y107184000D02*
X79786100Y106781800D01*
%TO.N,AGND*%
X74794000Y129915100D02*
X74824900Y129946000D01*
X74824900Y129946000D02*
X74824900Y131585600D01*
X73809200Y131817600D02*
X73809200Y130446100D01*
X73809200Y130446100D02*
X74335100Y129920200D01*
X74335100Y129920200D02*
X74788800Y129920200D01*
X74788800Y129920200D02*
X74794000Y129915100D01*
%TO.N,PD-*%
D25*
X66805700Y78641000D02*
X66805700Y77597100D01*
X66805700Y77597100D02*
X66805700Y72254700D01*
%TO.N,$4N6582*%
D22*
X69908900Y78477200D02*
X70906500Y77479500D01*
X70906500Y77479500D02*
X70906500Y77270700D01*
%TO.N,A3.3*%
X261174000Y16489100D02*
X261174000Y13055200D01*
X261174000Y13055200D02*
X261205000Y13024200D01*
%TO.N,$3N8719*%
X262148500Y17981700D02*
X266063800Y17981700D01*
X266063800Y17981700D02*
X271301700Y12743900D01*
%TO.N,TOUCH_IRQ*%
D18*
X107015000Y67758000D02*
X108592700Y67758000D01*
X108592700Y67758000D02*
X108631400Y67796700D01*
%TO.N,PRINT_STB2*%
X139814700Y92936300D02*
X144652300Y92936300D01*
X144652300Y92936300D02*
X145673200Y91915400D01*
%TO.N,KEY_SA*%
X139872700Y93446700D02*
X144791500Y93446700D01*
X144791500Y93446700D02*
X145487600Y94142800D01*
%TO.N,KEY-CHARGEC*%
X139814700Y93945600D02*
X143445800Y93945600D01*
X145731200Y96230900D02*
X145731200Y96289000D01*
X143445800Y93945600D02*
X145731200Y96230900D01*
%TO.N,MCU_RESET*%
X102051700Y90012900D02*
X103644900Y90012900D01*
X103644900Y90012900D02*
X103699100Y89958800D01*
X103699100Y89958800D02*
X103699100Y92263500D01*
X103699100Y92263500D02*
X103730000Y92294400D01*
%TO.N,$3N2281*%
X107810600Y80691700D02*
X110306000Y80691700D01*
X110306000Y80691700D02*
X114529500Y84915200D01*
X114529500Y84915200D02*
X117789400Y84915200D01*
X117789400Y84915200D02*
X117847400Y84973200D01*
%TO.N,SERIOUS*%
X132710700Y73077600D02*
X131301200Y74487100D01*
X131301200Y74487100D02*
X131301200Y80334000D01*
%TO.N,INFO*%
X127699100Y72851400D02*
X130257100Y75409400D01*
X130257100Y75409400D02*
X130257100Y80421000D01*
%TO.N,MCU_BOOT0*%
X123290300Y79699100D02*
X123290300Y76435400D01*
X123290300Y76435400D02*
X123305700Y76419900D01*
%TO.N,SCL*%
X82811300Y91567000D02*
X84334800Y91550300D01*
X84334800Y91550300D02*
X84690600Y91194500D01*
X84690600Y91194500D02*
X84690600Y90220000D01*
X84690600Y90220000D02*
X84667400Y90196800D01*
%TO.N,SDA*%
X82741600Y92795400D02*
X85796600Y92795400D01*
X85796600Y92795400D02*
X86221900Y92370100D01*
X86221900Y92370100D02*
X86221900Y90088500D01*
X86221900Y90088500D02*
X86260600Y90049900D01*
%TO.N,INFO*%
X130187500Y72712100D02*
X130187500Y73303800D01*
X130187500Y73303800D02*
X130761800Y73878000D01*
X130761800Y73878000D02*
X130761800Y80386200D01*
%TO.N,5V_OUT*%
D25*
X258589200Y13043400D02*
X260685100Y15139300D01*
X260685100Y15139300D02*
X260685100Y16446400D01*
%TO.N,GND*%
X258573700Y14922800D02*
X259347100Y14922800D01*
X259347100Y14922800D02*
X260166900Y15742600D01*
X260166900Y15742600D02*
X260166900Y16624300D01*
X260166900Y16624300D02*
X260182400Y16639700D01*
%TO.N,ROW_C51*%
D26*
X253847500Y79085900D02*
X249354600Y74593000D01*
X249354600Y74593000D02*
X249354600Y39147300D01*
X249354600Y39147300D02*
X251141500Y37360400D01*
%TO.N,LINE_ADCH2*%
X232765500Y63522600D02*
X232898300Y63389900D01*
X236542900Y63389900D02*
X232898300Y63389900D01*
D18*
X232898300Y63389900D02*
X232705900Y63389900D01*
%TO.N,ROW_23S*%
D26*
X233051000Y81360300D02*
X244705600Y81360300D01*
X244705600Y81360300D02*
X247563800Y78502100D01*
X247563800Y78502100D02*
X247563800Y63943000D01*
X247563800Y63943000D02*
X247550200Y63929400D01*
%TO.N,LINE_ADCH2*%
X80915100Y13691200D02*
X88843600Y5762700D01*
X247409900Y40855100D02*
X247409900Y37331300D01*
X247409900Y37331300D02*
X215841300Y5762700D01*
X215841300Y5762700D02*
X88843600Y5762700D01*
%TO.N,ROW_23S*%
X101523000Y14461000D02*
X103395000Y16333000D01*
%TO.N,I2S_SCK*%
D18*
X260658300Y20424500D02*
X260658300Y21366300D01*
X260658300Y21366300D02*
X260893700Y21601800D01*
%TO.N,SWD_CLK*%
X138299000Y79037300D02*
X137846600Y79489700D01*
X137846600Y79489700D02*
X137765400Y79489700D01*
%TO.N,SWD_DIO*%
X138430000Y83947000D02*
X139368800Y83947000D01*
X139368800Y83947000D02*
X139389500Y83967700D01*
%TO.N,RGB_B3*%
X104375900Y44785500D02*
X104339300Y44748900D01*
X105131800Y52495600D02*
X104375900Y51739700D01*
X104375900Y51739700D02*
X104375900Y44785500D01*
%TO.N,RGB_B4*%
X105027000Y52750000D02*
X103881400Y51604400D01*
X103881400Y51604400D02*
X103881400Y44736600D01*
%TO.N,RGB_G3*%
X108989000Y52241200D02*
X108341200Y51593500D01*
X108341200Y51593500D02*
X108341200Y44281500D01*
%TO.N,RGB_B4*%
X128829500Y80293600D02*
X128829500Y77819300D01*
%TO.N,RGB_G3*%
X129789000Y79873300D02*
X129789000Y78034500D01*
%TO.N,RGB_B3*%
X129262200Y79659000D02*
X129262200Y77874300D01*
%TO.N,RGB_B4*%
X128829500Y77819300D02*
X123866000Y72855800D01*
%TO.N,RGB_G3*%
X129789000Y78034500D02*
X124374800Y72620200D01*
%TO.N,RGB_B3*%
X129262200Y77874300D02*
X124120800Y72732800D01*
%TO.N,RGB_B4*%
X123866000Y72855800D02*
X123866000Y54749200D01*
X123866000Y54749200D02*
X121866800Y52750000D01*
X121866800Y52750000D02*
X105027000Y52750000D01*
%TO.N,RGB_G3*%
X124374800Y72620200D02*
X124374800Y54538400D01*
X124374800Y54538400D02*
X122077600Y52241200D01*
X122077600Y52241200D02*
X108989000Y52241200D01*
%TO.N,RGB_B3*%
X124120800Y72732800D02*
X124120800Y54644200D01*
X124120800Y54644200D02*
X121972200Y52495600D01*
X121972200Y52495600D02*
X105131800Y52495600D01*
%TO.N,TOUCH_CLK*%
X124773900Y80396900D02*
X124773900Y74859900D01*
X122871800Y72957800D02*
X124773900Y74859900D01*
X122871800Y68202800D02*
X122871800Y72957800D01*
%TO.N,PRINT_STB3*%
X107033900Y67120900D02*
X107068300Y67155300D01*
%TO.N,TOUCH_CLK*%
X121824200Y67155300D02*
X122871800Y68202800D01*
%TO.N,PRINT_STB3*%
X125743200Y80460600D02*
X125743200Y75092900D01*
X123380600Y67992100D02*
X122035000Y66646500D01*
X125743200Y75092900D02*
X123380600Y72730300D01*
X123380600Y72730300D02*
X123380600Y67992100D01*
X122035000Y66646500D02*
X113758000Y66646500D01*
X113758000Y66646500D02*
X111625300Y64513700D01*
X111625300Y64513700D02*
X106814800Y64513700D01*
%TO.N,RGB_G7*%
X135292600Y79057400D02*
X135272000Y79078000D01*
X135272000Y79078000D02*
X135272000Y79727700D01*
X133815900Y80896900D02*
X133815900Y81759000D01*
X133815900Y81759000D02*
X133798500Y81776300D01*
%TO.N,RGB_R5*%
X137999000Y84478700D02*
X139010900Y84478700D01*
X139010900Y84478700D02*
X139060800Y84428800D01*
%TO.N,RGB_R4*%
X137993900Y85145100D02*
X138230800Y84908300D01*
X138230800Y84908300D02*
X139617700Y84908300D01*
%TO.N,RGB_R6*%
X138243900Y86432900D02*
X139383400Y86432900D01*
X139383400Y86432900D02*
X139406300Y86409900D01*
%TO.N,RGB_HSYNC*%
X123825000Y88646000D02*
X124039900Y88431100D01*
X124039900Y88431100D02*
X139751700Y88431100D01*
%TO.N,RGB_G6*%
X138211700Y87935200D02*
X139778500Y87935200D01*
X139778500Y87935200D02*
X139798100Y87915500D01*
%TO.N,LCD_CLK*%
X138192700Y90285700D02*
X138342500Y90435500D01*
X138342500Y90435500D02*
X139312200Y90435500D01*
%TO.N,LCD_10V*%
X138249400Y91224100D02*
X138517200Y90956200D01*
X138517200Y90956200D02*
X139539100Y90956200D01*
%TO.N,RGB_G4*%
X136297000Y101176900D02*
X136297000Y100617000D01*
X136297000Y100617000D02*
X136270200Y100590200D01*
%TO.N,RGB_G5*%
X136761100Y101238800D02*
X136761100Y100854600D01*
X136761100Y100854600D02*
X137047000Y100568700D01*
%TO.N,RGB_R3*%
X124784100Y101403400D02*
X124784100Y100595200D01*
X124784100Y100595200D02*
X124809900Y100569400D01*
%TO.N,RGB_B5*%
X120144000Y101261000D02*
X120144000Y101341800D01*
X120144000Y101341800D02*
X120293200Y101491000D01*
%TO.N,RGB_VSYNC*%
X121785900Y100451400D02*
X121785900Y101725600D01*
X121785900Y101725600D02*
X121778200Y101733300D01*
%TO.N,RGB_G2*%
X122775800Y100451400D02*
X122742300Y100484900D01*
X122742300Y100484900D02*
X122742300Y101393000D01*
%TO.N,RGB_DE*%
X119676600Y92894700D02*
X119666300Y92905000D01*
X119666300Y92905000D02*
X118590300Y92905000D01*
%TO.N,RGB_B7*%
X122146400Y81718100D02*
X122294800Y81569700D01*
X122294800Y81569700D02*
X122294800Y80801300D01*
%TO.N,RGB_B6*%
X122997200Y81733500D02*
X122797500Y81533900D01*
X122797500Y81533900D02*
X122797500Y80538300D01*
%TO.N,RGB_G7*%
X106355200Y44726500D02*
X106355200Y45712000D01*
X106355200Y45712000D02*
X106315900Y45751300D01*
%TO.N,RGB_G6*%
X106807000Y46482000D02*
X106807000Y44945000D01*
X106807000Y44945000D02*
X106834700Y44917200D01*
%TO.N,RGB_G5*%
X107315000Y48768000D02*
X107315000Y44828800D01*
X107315000Y44828800D02*
X107350300Y44793500D01*
%TO.N,RGB_G4*%
X107823000Y47879000D02*
X107823000Y44650800D01*
X107823000Y44650800D02*
X107840200Y44633600D01*
%TO.N,RGB_G2*%
X108839000Y46228000D02*
X108839000Y44629900D01*
X108839000Y44629900D02*
X108881700Y44587200D01*
%TO.N,RGB_R6*%
X110871900Y47116100D02*
X110871900Y44314000D01*
%TO.N,RGB_R5*%
X111379000Y46228000D02*
X111379000Y44764400D01*
X111379000Y44764400D02*
X111335900Y44721300D01*
%TO.N,RGB_R4*%
X111887000Y47117000D02*
X111861800Y47091800D01*
X111861800Y47091800D02*
X111861800Y44530500D01*
%TO.N,RGB_R3*%
X112395000Y46228000D02*
X112395000Y44646100D01*
X112395000Y44646100D02*
X112362000Y44613000D01*
%TO.N,LCD_CLK*%
X114808000Y46101000D02*
X114808000Y44849400D01*
X114808000Y44849400D02*
X114851000Y44806400D01*
%TO.N,RGB_DE*%
X100870400Y45749900D02*
X100870400Y44618900D01*
X100870400Y44618900D02*
X100896200Y44593100D01*
%TO.N,RGB_VSYNC*%
X101289500Y46386300D02*
X101349900Y46325900D01*
X101349900Y46325900D02*
X101349900Y44696200D01*
%TO.N,RGB_HSYNC*%
X101832800Y45756500D02*
X101855200Y45734000D01*
X101855200Y45734000D02*
X101855200Y44747800D01*
%TO.N,RGB_B7*%
X102325800Y46391500D02*
X102314100Y46379700D01*
X102314100Y46379700D02*
X102314100Y44304400D01*
%TO.N,RGB_B6*%
X102800200Y45751300D02*
X102824500Y45727000D01*
X102824500Y45727000D02*
X102824500Y44716900D01*
%TO.N,RGB_B5*%
X103336400Y46386300D02*
X103371100Y46351700D01*
X103371100Y46351700D02*
X103371100Y44655000D01*
%TO.N,RGB_G7*%
X106624800Y65176900D02*
X110210100Y65176900D01*
X110210100Y65176900D02*
X110236000Y65151000D01*
%TO.N,PRINT_PHA*%
X125281900Y101986100D02*
X125281900Y123130100D01*
X125281900Y123130100D02*
X121920000Y126492000D01*
X121920000Y126492000D02*
X121920000Y127214900D01*
X121920000Y127214900D02*
X121938400Y127233300D01*
%TO.N,PRINT_SIGA*%
X122438300Y127233300D02*
X122809000Y126862600D01*
X122809000Y126862600D02*
X122809000Y126365000D01*
X125857000Y106426000D02*
X125857000Y102061000D01*
X125857000Y102061000D02*
X125782100Y101986100D01*
%TO.N,PRINT_PHB*%
X126365000Y103505000D02*
X126365000Y102069100D01*
X126365000Y102069100D02*
X126281900Y101986100D01*
%TO.N,PRINT_SIGB*%
X127127000Y103505000D02*
X126782100Y103160100D01*
X126782100Y103160100D02*
X126782100Y101986100D01*
%TO.N,PRINT_PHB*%
X118491700Y127232600D02*
X118491700Y126237300D01*
X118491700Y126237300D02*
X118618000Y126111000D01*
%TO.N,PRINT_SIGB*%
X118991600Y127232600D02*
X119126000Y127098100D01*
X119126000Y127098100D02*
X119126000Y122936000D01*
%TO.N,LCD_10V*%
D21*
X13043200Y91028900D02*
X12507900Y91564100D01*
%TO.N,MECG_RESET*%
D18*
X119507000Y85471000D02*
X119471900Y85435900D01*
X119471900Y85435900D02*
X118231900Y85435900D01*
%TO.N,MECG_MOSI*%
X119435400Y84455000D02*
X118251000Y84455000D01*
X118251000Y84455000D02*
X118231900Y84435900D01*
%TO.N,MECG_MISO*%
X120303100Y83947000D02*
X118242800Y83947000D01*
%TO.N,MECG_CS*%
X119634000Y83439000D02*
X118235000Y83439000D01*
X118235000Y83439000D02*
X118231900Y83436000D01*
%TO.N,MECG_START*%
X120015000Y82902500D02*
X118265500Y82902500D01*
X118265500Y82902500D02*
X118231900Y82936100D01*
%TO.N,MECG_CLK*%
X119507000Y82423000D02*
X118244900Y82423000D01*
X118244900Y82423000D02*
X118231900Y82436000D01*
%TO.N,GND*%
X107394200Y92413300D02*
X107394200Y91465400D01*
X107394200Y91465400D02*
X107546600Y91313000D01*
X107546600Y91313000D02*
X111123700Y91313000D01*
X111123700Y91313000D02*
X111946500Y92135700D01*
%TO.N,ECG_MISO*%
X118231900Y92435900D02*
X112628900Y92435900D01*
X105156000Y90424000D02*
X105156000Y88011000D01*
X105156000Y88011000D02*
X104267000Y87122000D01*
X75057000Y54864000D02*
X74168000Y53975000D01*
X74168000Y53975000D02*
X62625000Y53975000D01*
X62625000Y53975000D02*
X62572900Y53922900D01*
X112628900Y92435900D02*
X111226600Y91033600D01*
X118231900Y91936100D02*
X112510100Y91936100D01*
X105410400Y87905600D02*
X104372400Y86867600D01*
X105410400Y90170400D02*
X105410400Y87905600D01*
X112510100Y91936100D02*
X111353600Y90779600D01*
X111353600Y90779600D02*
X106019600Y90779600D01*
X106019600Y90779600D02*
X105410400Y90170400D01*
X105765600Y91033600D02*
X105156000Y90424000D01*
X111226600Y91033600D02*
X105765600Y91033600D01*
X62593000Y49403000D02*
X62572900Y49423100D01*
X71120000Y49403000D02*
X62593000Y49403000D01*
%TO.N,ECG_CLK*%
X62572900Y50922900D02*
X61596700Y50922900D01*
X61596700Y50922900D02*
X61214000Y50540200D01*
X104477800Y86613200D02*
X105664800Y87800200D01*
X105664800Y87800200D02*
X105664800Y90065000D01*
X112395000Y91440000D02*
X118227900Y91440000D01*
X118227900Y91440000D02*
X118231900Y91435900D01*
%TO.N,ECG_CS*%
X112268000Y90936100D02*
X118231900Y90936100D01*
%TO.N,GND*%
X110911900Y89408000D02*
X107664300Y89408000D01*
X107664300Y89408000D02*
X107199900Y88943600D01*
%TO.N,ECG_CS*%
X105919200Y87694900D02*
X105919200Y89917200D01*
X62572900Y51423100D02*
X62561000Y51435000D01*
X61468000Y51435000D02*
X60959600Y50926600D01*
X62561000Y51435000D02*
X61468000Y51435000D01*
%TO.N,ECG_CLK*%
X105664800Y90065000D02*
X106125400Y90525600D01*
X106125400Y90525600D02*
X111480600Y90525600D01*
X111480600Y90525600D02*
X112395000Y91440000D01*
%TO.N,ECG_CS*%
X105919200Y89917200D02*
X106273600Y90271600D01*
X106273600Y90271600D02*
X111603500Y90271600D01*
X111603500Y90271600D02*
X112268000Y90936100D01*
%TO.N,GND*%
X118231900Y89435900D02*
X114780100Y89435900D01*
X106426000Y90017200D02*
X106173600Y89764800D01*
X106173600Y89764800D02*
X106173600Y87589500D01*
X106173600Y87589500D02*
X104688500Y86104400D01*
X60705200Y51561200D02*
X61087000Y51943000D01*
X61087000Y51943000D02*
X62552800Y51943000D01*
X62552800Y51943000D02*
X62572900Y51922900D01*
X104688500Y86104400D02*
X77701200Y86104400D01*
%TO.N,ECG_MISO*%
X75311000Y53594000D02*
X71120000Y49403000D01*
%TO.N,ECG_CLK*%
X68072000Y45974000D02*
X75565000Y53467000D01*
%TO.N,ECG_CS*%
X68177400Y45719600D02*
X75819000Y53361200D01*
X75819000Y53361200D02*
X75819000Y84582000D01*
%TO.N,GND*%
X77701200Y86104400D02*
X76073000Y84476200D01*
X76073000Y84476200D02*
X76073000Y53255500D01*
X76073000Y53255500D02*
X68282800Y45465200D01*
X114780100Y89435900D02*
X114198800Y90017200D01*
X114198800Y90017200D02*
X106426000Y90017200D01*
%TO.N,ECG_START*%
X118231900Y88936100D02*
X114771900Y88936100D01*
X114771900Y88936100D02*
X113945200Y89762800D01*
%TO.N,$3N2281*%
X112582100Y86426900D02*
X118261300Y86426900D01*
X108990300Y88462500D02*
X109441700Y88011000D01*
X109441700Y88011000D02*
X110998000Y88011000D01*
X110998000Y88011000D02*
X112582100Y86426900D01*
%TO.N,ECG_START*%
X106531400Y89762800D02*
X106428000Y89659400D01*
X113945200Y89762800D02*
X106531400Y89762800D01*
X106428000Y89659400D02*
X106428000Y87484100D01*
X106428000Y87484100D02*
X104793900Y85850000D01*
X76327400Y53150100D02*
X68388100Y45210800D01*
X104793900Y85850000D02*
X77806600Y85850000D01*
X77806600Y85850000D02*
X76327400Y84370800D01*
X76327400Y84370800D02*
X76327400Y53150100D01*
X68388100Y45210800D02*
X61925600Y45210800D01*
%TO.N,ECG_CS*%
X60959600Y50926600D02*
X60959600Y46895800D01*
X60959600Y46895800D02*
X62135800Y45719600D01*
X62135800Y45719600D02*
X68177400Y45719600D01*
%TO.N,GND*%
X68282800Y45465200D02*
X62030900Y45465200D01*
X62030900Y45465200D02*
X60705200Y46790900D01*
X60705200Y46790900D02*
X60705200Y51561200D01*
%TO.N,ECG_CLK*%
X61214000Y50540200D02*
X61214000Y47000600D01*
X61214000Y47000600D02*
X62240600Y45974000D01*
X62240600Y45974000D02*
X68072000Y45974000D01*
%TO.N,ECG_START*%
X60450800Y52576800D02*
X60833000Y52959000D01*
X60833000Y52959000D02*
X62536800Y52959000D01*
X62536800Y52959000D02*
X62572900Y52922900D01*
X61925600Y45210800D02*
X60450800Y46685600D01*
X60450800Y46685600D02*
X60450800Y52576800D01*
%TO.N,ECG_CLK*%
X75565000Y53467000D02*
X75565000Y84709000D01*
X75565000Y84709000D02*
X77469200Y86613200D01*
X77469200Y86613200D02*
X104477800Y86613200D01*
%TO.N,ECG_MISO*%
X104372400Y86867600D02*
X77364400Y86867600D01*
X77364400Y86867600D02*
X75311000Y84814200D01*
X75311000Y84814200D02*
X75311000Y53594000D01*
X104267000Y87122000D02*
X77259600Y87122000D01*
X77259600Y87122000D02*
X75057000Y84919400D01*
X75057000Y84919400D02*
X75057000Y54864000D01*
%TO.N,$1N6305*%
D22*
X54682200Y41691100D02*
X54682200Y44005300D01*
X54682200Y44005300D02*
X54773100Y44096100D01*
X54773100Y44096100D02*
X54773100Y45123100D01*
%TO.N,AGND*%
X55773100Y45123100D02*
X55773100Y43835100D01*
X55773100Y43835100D02*
X55753000Y43815000D01*
X58272900Y45123100D02*
X58272900Y43835100D01*
X58272900Y43835100D02*
X58420000Y43688000D01*
%TO.N,RECG_MISO*%
D18*
X82881400Y99732200D02*
X81242800Y99732200D01*
X81242800Y99732200D02*
X80391000Y100584000D01*
X80391000Y100584000D02*
X80391000Y101840000D01*
X80391000Y101840000D02*
X80395100Y101844100D01*
%TO.N,RECG_CLK*%
X82936900Y98575900D02*
X83444900Y99083900D01*
X80904900Y100861900D02*
X80904900Y101864000D01*
X80904900Y101864000D02*
X80900800Y101868000D01*
%TO.N,RECG_MOSI*%
X83073400Y96991700D02*
X83820000Y97738200D01*
X81395100Y101844100D02*
X81395100Y100976900D01*
%TO.N,RECG_CS*%
X83810400Y96980600D02*
X84201000Y97371200D01*
X140951000Y97936100D02*
X139832100Y97936100D01*
X141732000Y97155000D02*
X140951000Y97936100D01*
%TO.N,RECG_MOSI*%
X138033900Y98435900D02*
X139832100Y98435900D01*
X137137200Y97539200D02*
X138033900Y98435900D01*
%TO.N,RECG_MISO*%
X141605000Y98933000D02*
X139835100Y98933000D01*
X139835100Y98933000D02*
X139832100Y98936000D01*
%TO.N,ECG_CS*%
X75819000Y84582000D02*
X77596200Y86359200D01*
X77596200Y86359200D02*
X104583500Y86359200D01*
X104583500Y86359200D02*
X105919200Y87694900D01*
%TO.N,MECG_MISO*%
X82151000Y125222000D02*
X82130900Y125242100D01*
%TO.N,MECG_CLK*%
X88138000Y126746000D02*
X82135000Y126746000D01*
X82135000Y126746000D02*
X82130900Y126741900D01*
%TO.N,MECG_CS*%
X88011000Y127254000D02*
X82142800Y127254000D01*
X82142800Y127254000D02*
X82130900Y127242100D01*
%TO.N,MECG_START*%
X82151000Y127762000D02*
X87884000Y127762000D01*
X82130900Y127741900D02*
X82151000Y127762000D01*
%TO.N,MECG_RESET*%
X82167000Y128778000D02*
X82130900Y128741900D01*
%TO.N,LCD_3.9V*%
D25*
X98806000Y45974000D02*
X99342100Y45437900D01*
X99342100Y45437900D02*
X99342100Y44533800D01*
X99342100Y44533800D02*
X99342100Y43405900D01*
X119344300Y43434000D02*
X119344300Y44536900D01*
%TO.N,LCD_10V*%
D22*
X117983000Y45974000D02*
X117844200Y45835200D01*
X117844200Y45835200D02*
X117844200Y44536900D01*
%TO.N,LCD_16V*%
X116713000Y45974000D02*
X116844200Y45842800D01*
X116844200Y45842800D02*
X116844200Y44536900D01*
%TO.N,LCD_-7.5V*%
X117348000Y46863000D02*
X117348000Y44540600D01*
%TO.N,RECG_CLK*%
D18*
X141689100Y85936100D02*
X139832100Y85936100D01*
X142113000Y86360000D02*
X141689100Y85936100D01*
%TO.N,5V_OUT*%
D26*
X140397000Y57596000D02*
X141351000Y56642000D01*
X141351000Y56642000D02*
X147796900Y56642000D01*
%TO.N,SDA*%
D18*
X118231900Y86936100D02*
X120454900Y86936100D01*
X120454900Y86936100D02*
X120523000Y86868000D01*
%TO.N,SCL*%
X118231900Y87435900D02*
X119566900Y87435900D01*
X119566900Y87435900D02*
X119888000Y87757000D01*
%TO.N,PRINT_PAPER*%
D22*
X124333000Y121158000D02*
X124333000Y102037100D01*
X124333000Y102037100D02*
X124281900Y101986100D01*
%TO.N,LCD_10V*%
D18*
X110351100Y46112900D02*
X110351100Y44592400D01*
X109728000Y46736000D02*
X110351100Y46112900D01*
X109728000Y51689000D02*
X109728000Y46736000D01*
%TO.N,5V_OUT*%
D19*
X15875000Y123040200D02*
X16468000Y122447200D01*
D26*
X137414000Y57596000D02*
X139431700Y57596000D01*
X139431700Y57596000D02*
X140397000Y57596000D01*
%TO.N,MII-*%
D22*
X52744100Y135736200D02*
X44441200Y135736200D01*
%TO.N,SPO2_VSIG*%
X115945900Y99435900D02*
X118231900Y99435900D01*
X115697000Y99187000D02*
X115945900Y99435900D01*
%TO.N,PRINT_CLK*%
D18*
X124333000Y82042000D02*
X124333000Y80437000D01*
X124333000Y80437000D02*
X124281900Y80385900D01*
%TO.N,PRINT_DI2*%
X123698000Y82550000D02*
X123698000Y81597000D01*
X123698000Y81597000D02*
X123782100Y81512900D01*
X123782100Y81512900D02*
X123782100Y80385900D01*
%TO.N,PRINT_STB3*%
X126238000Y82296000D02*
X126238000Y80429900D01*
X126238000Y80429900D02*
X126281900Y80385900D01*
%TO.N,PRINT_STB4*%
X127762000Y81915000D02*
X127762000Y80406000D01*
X127762000Y80406000D02*
X127782100Y80385900D01*
%TO.N,PRINT_DI1*%
X128397000Y82804000D02*
X128397000Y81628000D01*
X128397000Y81628000D02*
X128281900Y81512900D01*
X128281900Y81512900D02*
X128281900Y80385900D01*
%TO.N,PRINT_LAT*%
X137668000Y91821000D02*
X138370800Y91821000D01*
X138370800Y91821000D02*
X138755900Y91435900D01*
X138755900Y91435900D02*
X139832100Y91435900D01*
%TO.N,GND*%
X137668000Y92710000D02*
X137922000Y92710000D01*
X138695900Y91936100D02*
X139832100Y91936100D01*
X137922000Y92710000D02*
X138695900Y91936100D01*
X133281900Y101986100D02*
X133281900Y105849900D01*
X133281900Y105849900D02*
X156718000Y129286000D01*
X156718000Y129286000D02*
X234823000Y129286000D01*
X234823000Y129286000D02*
X236728000Y127381000D01*
X236728000Y127381000D02*
X239134900Y127381000D01*
X239134900Y127381000D02*
X240919000Y129165100D01*
%TO.N,3.3V*%
X156845000Y128905000D02*
X234569000Y128905000D01*
X234569000Y128905000D02*
X236474000Y127000000D01*
X241293900Y127000000D02*
X243459000Y129165100D01*
X236474000Y127000000D02*
X241293900Y127000000D01*
%TO.N,MODE_JH*%
X134281900Y101986100D02*
X134281900Y105833900D01*
X134281900Y105833900D02*
X156972000Y128524000D01*
X156972000Y128524000D02*
X234315000Y128524000D01*
X134782100Y101986100D02*
X134782100Y105826100D01*
X234315000Y128524000D02*
X236220000Y126619000D01*
X236220000Y126619000D02*
X243452900Y126619000D01*
X243452900Y126619000D02*
X245999000Y129165100D01*
X235966000Y126238000D02*
X245611900Y126238000D01*
X245611900Y126238000D02*
X248539000Y129165100D01*
X134782100Y105826100D02*
X157099000Y128143000D01*
X157099000Y128143000D02*
X234061000Y128143000D01*
X234061000Y128143000D02*
X235966000Y126238000D01*
%TO.N,GND*%
X138384600Y96435900D02*
X139832100Y96435900D01*
X136398000Y94449300D02*
X138384600Y96435900D01*
X138097800Y96936100D02*
X139832100Y96936100D01*
X136398000Y95236200D02*
X138097800Y96936100D01*
%TO.N,SPO2_CAP*%
X137821900Y97435900D02*
X139832100Y97435900D01*
X136398000Y96012000D02*
X137821900Y97435900D01*
%TO.N,GND*%
X49140400Y83185000D02*
X49140400Y82431600D01*
X49140400Y82431600D02*
X49530000Y82042000D01*
X49911000Y91067600D02*
X50156400Y91313000D01*
X50156400Y91313000D02*
X50673000Y91313000D01*
%TO.N,SPO2_CAP*%
X58989000Y74565000D02*
X58989000Y74234000D01*
X58989000Y74234000D02*
X59436000Y73787000D01*
X59436000Y73787000D02*
X60198000Y73787000D01*
%TO.N,$4N12860*%
X133223000Y82423000D02*
X133223000Y80444800D01*
X133223000Y80444800D02*
X133281900Y80385900D01*
%TO.N,RECG_RESET*%
X132461000Y82423000D02*
X132782100Y82101900D01*
X132782100Y82101900D02*
X132782100Y80385900D01*
%TO.N,$4N12860*%
X83829900Y103278900D02*
X88618100Y103278900D01*
X89027000Y102870000D02*
X88618100Y103278900D01*
X89027000Y92202000D02*
X89027000Y102870000D01*
%TO.N,RECG_RESET*%
X89535000Y90932000D02*
X89535000Y103251000D01*
X89535000Y103251000D02*
X89027000Y103759000D01*
X89027000Y103759000D02*
X83850000Y103759000D01*
X83850000Y103759000D02*
X83829900Y103779100D01*
%TO.N,$3N2471*%
X118466800Y93936300D02*
X118383800Y93853200D01*
%TO.N,MCU_RESET*%
X118231900Y94435900D02*
X115771900Y94435900D01*
X115771900Y94435900D02*
X115697000Y94361000D01*
X104775000Y94107000D02*
X104775000Y93853000D01*
X104775000Y93853000D02*
X103762600Y92840600D01*
X103762600Y92840600D02*
X103762600Y92437700D01*
%TO.N,SPO2_DA1*%
X121666000Y104775000D02*
X122282000Y104159100D01*
X122282000Y104159100D02*
X122282000Y101986100D01*
X38989000Y90043000D02*
X40148600Y90043000D01*
X40148600Y90043000D02*
X40181400Y90010200D01*
%TO.N,3V3SGM*%
D22*
X49406000Y78866900D02*
X50546100Y78866900D01*
X50546100Y78866900D02*
X51370000Y78043000D01*
X51370000Y78043000D02*
X51370000Y76835000D01*
%TO.N,3.3V*%
D27*
X100457000Y47633600D02*
X100330000Y47506600D01*
X100330000Y44545900D02*
X100342100Y44533800D01*
X100330000Y47506600D02*
X100330000Y44545900D01*
X120658600Y46736000D02*
X119844200Y45921500D01*
X119844200Y45921500D02*
X119844200Y44536900D01*
%TO.N,LCD_LEDCON*%
X87757000Y42799000D02*
X88891400Y42799000D01*
X88891400Y42799000D02*
X88900000Y42807600D01*
%TO.N,GND*%
X119380000Y46355000D02*
X119126000Y46355000D01*
X119126000Y46355000D02*
X118344300Y45573300D01*
X118344300Y45573300D02*
X118344300Y44536900D01*
X141351000Y95885000D02*
X139883100Y95885000D01*
X139883100Y95885000D02*
X139832100Y95936100D01*
%TO.N,LCD_LEDCON*%
X139832100Y95435900D02*
X140911100Y95435900D01*
X140911100Y95435900D02*
X141351000Y94996000D01*
%TO.N,LCD_3.9V*%
D21*
X10287000Y85473000D02*
X10287000Y86692500D01*
X10287000Y86692500D02*
X10233300Y86746200D01*
%TO.N,MLL*%
D22*
X52967600Y129032000D02*
X53721000Y129785400D01*
X53721000Y129785400D02*
X53721000Y136652000D01*
X52967600Y137405400D02*
X52967600Y137409400D01*
X52967600Y137409400D02*
X52967600Y137414000D01*
X52967600Y137409400D02*
X52812300Y137564700D01*
%TO.N,PLRE_VLVE*%
D18*
X144389100Y57412100D02*
X143247900Y57412100D01*
X143247900Y57412100D02*
X142748000Y57912000D01*
%TO.N,PLRE_DUMP*%
X131435100Y57158100D02*
X130437100Y57158100D01*
X130437100Y57158100D02*
X130429000Y57150000D01*
X121282000Y78235000D02*
X121282000Y80385900D01*
X121285000Y78232000D02*
X121282000Y78235000D01*
%TO.N,PLRE_VLVE*%
X121782100Y79004900D02*
X121782100Y80385900D01*
X122555000Y78232000D02*
X121782100Y79004900D01*
%TO.N,I2S_WS*%
X134782100Y80385900D02*
X134782100Y78521100D01*
X134782100Y78521100D02*
X134366000Y78105000D01*
%TO.N,ROW_23S*%
D26*
X103395000Y16333000D02*
X224740000Y16333000D01*
X230124000Y62738000D02*
X230124000Y70485000D01*
X230124000Y70485000D02*
X232918000Y73279000D01*
X232918000Y73279000D02*
X232918000Y81026000D01*
X232918000Y81026000D02*
X232664000Y81280000D01*
%TO.N,LINE_ADCH2*%
X232898300Y63389900D02*
X247409900Y48878200D01*
X247409900Y48878200D02*
X247409900Y40855100D01*
%TO.N,ROW_23S*%
X224740000Y16333000D02*
X244475000Y36068000D01*
X244475000Y36068000D02*
X244475000Y48387000D01*
X244475000Y48387000D02*
X230124000Y62738000D01*
%TO.N,C_SB*%
D18*
X135782100Y101986100D02*
X135782100Y103062300D01*
%TO.N,C_SA*%
X135281900Y101986100D02*
X135281900Y103062300D01*
X135281900Y103062300D02*
X136486600Y104267000D01*
X165735000Y28702000D02*
X167640000Y26797000D01*
X224079100Y26797000D02*
X225211000Y27929000D01*
X167640000Y26797000D02*
X224079100Y26797000D01*
X136486600Y104267000D02*
X162814000Y104267000D01*
X162814000Y104267000D02*
X165735000Y101346000D01*
X165735000Y101346000D02*
X165735000Y28702000D01*
%TO.N,C_SB*%
X135782100Y103062300D02*
X136478800Y103759000D01*
X136478800Y103759000D02*
X162687000Y103759000D01*
X162687000Y103759000D02*
X165227000Y101219000D01*
X165227000Y101219000D02*
X165227000Y28575000D01*
X165227000Y28575000D02*
X167513000Y26289000D01*
X167513000Y26289000D02*
X228571000Y26289000D01*
X228571000Y26289000D02*
X230211000Y27929000D01*
%TO.N,I2S_SCK*%
X139832100Y99936000D02*
X164224000Y99936000D01*
X164224000Y99936000D02*
X164719000Y99441000D01*
X164719000Y28448000D02*
X167386000Y25781000D01*
X167386000Y25781000D02*
X231902000Y25781000D01*
X164719000Y99441000D02*
X164719000Y28448000D01*
%TO.N,I2S_WS*%
X259207000Y21590000D02*
X259461000Y21590000D01*
X259461000Y21590000D02*
X260171000Y20880000D01*
X260171000Y20880000D02*
X260171000Y20440000D01*
%TO.N,5V_OUT*%
D23*
X149141600Y57836900D02*
X149141600Y59483900D01*
X149224900Y57855400D02*
X149150900Y57929400D01*
D26*
X147796900Y56642000D02*
X147986800Y56831900D01*
X147986800Y56831900D02*
X149032000Y57877100D01*
%TO.N,KEY_CFM*%
D18*
X135636000Y104394000D02*
X136042400Y104800400D01*
X166243000Y101600000D02*
X163042600Y104800400D01*
X136042400Y104800400D02*
X163042600Y104800400D01*
X225211000Y42278900D02*
X168033100Y42278900D01*
X168033100Y42278900D02*
X166243000Y44069000D01*
X166243000Y44069000D02*
X166243000Y101600000D01*
X131782100Y103969100D02*
X131782100Y101986100D01*
X131826000Y104013000D02*
X131782100Y103969100D01*
%TO.N,ROW_ABC*%
X128281900Y101986100D02*
X128281900Y99960900D01*
X127508000Y99187000D02*
X128281900Y99960900D01*
X121158000Y99187000D02*
X127508000Y99187000D01*
%TO.N,ROW_C51*%
X129229000Y105283000D02*
X129281900Y105230000D01*
X129281900Y105230000D02*
X129281900Y101986100D01*
%TO.N,ROW_23S*%
X131826000Y105156000D02*
X130937000Y105156000D01*
X130937000Y105156000D02*
X129782100Y104001100D01*
X129782100Y104001100D02*
X129782100Y101986100D01*
%TO.N,LINE_CF1S*%
X131281900Y104459600D02*
X131281900Y101986100D01*
X131343300Y104521000D02*
X131281900Y104459600D01*
%TO.N,LINE_BE53*%
X130782100Y101986100D02*
X130782100Y100909900D01*
X130782100Y100909900D02*
X131742900Y99949000D01*
X131742900Y99949000D02*
X137160000Y99949000D01*
%TO.N,I2S_CK*%
X130281900Y101986100D02*
X130281900Y100858100D01*
X130281900Y100858100D02*
X131572000Y99568000D01*
X131572000Y99568000D02*
X137287000Y99568000D01*
X139446000Y101727000D02*
X137287000Y99568000D01*
X141097000Y101727000D02*
X139446000Y101727000D01*
%TO.N,LINE_BE53*%
X139446000Y102235000D02*
X140335000Y102235000D01*
X139446000Y102235000D02*
X137160000Y99949000D01*
%TO.N,LINE_CF1S*%
D26*
X100965000Y11811000D02*
X109982000Y11811000D01*
X109982000Y11811000D02*
X112268000Y14097000D01*
X112268000Y14097000D02*
X121497000Y14097000D01*
%TO.N,ROW_DEF*%
D18*
X126111000Y98679000D02*
X128270000Y98679000D01*
X128270000Y98679000D02*
X128778000Y99187000D01*
X128778000Y99187000D02*
X128778000Y101982000D01*
X128778000Y101982000D02*
X128782100Y101986100D01*
%TO.N,GND*%
D22*
X60785200Y42137100D02*
X60785200Y40530200D01*
X60785200Y40530200D02*
X60768000Y40513000D01*
X59272900Y45123100D02*
X59272900Y43649400D01*
X59272900Y43649400D02*
X60785200Y42137100D01*
X60272900Y45123100D02*
X60272900Y44248100D01*
X60272900Y44248100D02*
X60833000Y43688000D01*
X60833000Y43688000D02*
X60833000Y42185000D01*
X60833000Y42185000D02*
X60785200Y42137100D01*
X35687000Y135636000D02*
X34798000Y134747000D01*
X34798000Y134747000D02*
X34798000Y134611400D01*
%TO.N,3.3V*%
D23*
X6096000Y104768700D02*
X6025900Y104698600D01*
%TO.N,GND*%
D25*
X259677200Y19013500D02*
X260177300Y18513400D01*
X259177300Y19513400D02*
X259677200Y19013500D01*
X259177300Y19513400D02*
X259661500Y19513400D01*
X259661500Y19513400D02*
X259677200Y19529100D01*
%TO.N,A3.3*%
X256540000Y17145000D02*
X257408500Y18013500D01*
X257408500Y18013500D02*
X258269800Y18013500D01*
%TO.N,3.3V*%
X256921000Y19431000D02*
X257329300Y19431000D01*
X258269800Y19013500D02*
X258252800Y19030500D01*
X258252800Y19030500D02*
X257729800Y19030500D01*
X257729800Y19030500D02*
X257329300Y19431000D01*
%TO.N,AGND*%
X254762000Y18542000D02*
X257718200Y18542000D01*
X257718200Y18542000D02*
X257746800Y18513400D01*
X257746800Y18513400D02*
X258269800Y18513400D01*
X49276000Y61279000D02*
X50927000Y61279000D01*
X57150000Y61279000D02*
X58801000Y61279000D01*
X58801000Y61279000D02*
X60452000Y61279000D01*
X60452000Y61279000D02*
X60517000Y61279000D01*
X60517000Y61279000D02*
X61722000Y62484000D01*
X57277000Y54737000D02*
X57277000Y56218800D01*
X57277000Y56218800D02*
X57272900Y56222900D01*
%TO.N,A3.3*%
X47625000Y59895000D02*
X50910900Y59895000D01*
X50910900Y59895000D02*
X50927000Y59879000D01*
X46101000Y61341000D02*
X47564200Y61341000D01*
X47564200Y61341000D02*
X47625000Y61401800D01*
X52894000Y57912000D02*
X50927000Y59879000D01*
X54610000Y57912000D02*
X52894000Y57912000D01*
%TO.N,AGND*%
X56769000Y43688000D02*
X56769000Y41021000D01*
X56769000Y41021000D02*
X57150000Y40640000D01*
X57150000Y40640000D02*
X58801000Y40640000D01*
X58801000Y40640000D02*
X59055000Y40894000D01*
X59055000Y40894000D02*
X59055000Y41975000D01*
X59055000Y41975000D02*
X58993000Y42037000D01*
X31115000Y73722000D02*
X32766000Y73722000D01*
X36576000Y69912000D02*
X36576000Y66740000D01*
X22668000Y73406000D02*
X22668000Y73976000D01*
X22668000Y73976000D02*
X23241000Y74549000D01*
X26670000Y74549000D02*
X27432000Y73787000D01*
X31050000Y73787000D02*
X31115000Y73722000D01*
X32766000Y73722000D02*
X33819700Y72668200D01*
X33819700Y72668200D02*
X35557000Y70930900D01*
X35557000Y70930900D02*
X36576000Y69912000D01*
X23241000Y74549000D02*
X24147000Y74549000D01*
X24147000Y74549000D02*
X25655700Y74549000D01*
X25655700Y74549000D02*
X26670000Y74549000D01*
X27432000Y73787000D02*
X29351300Y73787000D01*
X29351300Y73787000D02*
X31050000Y73787000D01*
X50927000Y61279000D02*
X52480000Y61279000D01*
X52480000Y61279000D02*
X57150000Y61279000D01*
%TO.N,III+*%
X21661700Y54384700D02*
X22395000Y55118000D01*
X22395000Y55118000D02*
X22541000Y55118000D01*
%TO.N,V1*%
X23933300Y42976500D02*
X24837800Y42976500D01*
%TO.N,GND*%
D26*
X149733000Y81196900D02*
X153310100Y81196900D01*
X153310100Y81196900D02*
X153543000Y80964000D01*
%TO.N,RGB_R4*%
D25*
X141478000Y82931000D02*
X139837200Y82931000D01*
X139837200Y82931000D02*
X139832100Y82936100D01*
%TO.N,RGB_R5*%
X141732000Y82169000D02*
X140099000Y82169000D01*
X140099000Y82169000D02*
X139832100Y82436000D01*
%TO.N,GND*%
X138176000Y89408000D02*
X138613600Y89408000D01*
X138613600Y89408000D02*
X138641600Y89435900D01*
%TO.N,AGND*%
X112887700Y97432500D02*
X112891100Y97435900D01*
X119861100Y97435900D02*
X120269000Y97028000D01*
X120269000Y97028000D02*
X120269000Y96139000D01*
%TO.N,GND*%
X120344300Y44536900D02*
X120344300Y42469700D01*
X120344300Y42469700D02*
X120396000Y42418000D01*
%TO.N,3.3V*%
X116078000Y47879000D02*
X116078000Y45711200D01*
X116078000Y45711200D02*
X115844200Y45477400D01*
X115844200Y45477400D02*
X115844200Y44536900D01*
%TO.N,$3N4978*%
X123190000Y46863000D02*
X122292400Y46863000D01*
%TO.N,$3N4920*%
X99842200Y46207800D02*
X99842200Y44533800D01*
X99441000Y46609000D02*
X99842200Y46207800D01*
X99441000Y48260000D02*
X99441000Y46609000D01*
X100457000Y49140400D02*
X100194400Y49140400D01*
X100194400Y49140400D02*
X99441000Y48387000D01*
X99441000Y48387000D02*
X99441000Y48260000D01*
%TO.N,A3.3*%
X64897000Y77724000D02*
X65278000Y78105000D01*
X65278000Y78105000D02*
X65278000Y78675100D01*
%TO.N,3.3V*%
D22*
X52763700Y73538500D02*
X52763700Y70819400D01*
X52763700Y70819400D02*
X52763700Y70000200D01*
D25*
X113030000Y68199000D02*
X110395100Y68199000D01*
X110395100Y68199000D02*
X110204200Y68008100D01*
%TO.N,LCD_-7.5V*%
D22*
X117348000Y44540600D02*
X117344300Y44536900D01*
%TO.N,PRINT_PAPER*%
X108262000Y128713900D02*
X111626900Y125349000D01*
X113919000Y125349000D02*
X117221000Y122047000D01*
X117221000Y122047000D02*
X123444000Y122047000D01*
X123444000Y122047000D02*
X124333000Y121158000D01*
%TO.N,$3N4978*%
D25*
X122292400Y46863000D02*
X122165400Y46736000D01*
%TO.N,V5*%
X37211000Y50100000D02*
X38094100Y50100000D01*
%TO.N,$1N2542*%
X47371000Y43942000D02*
X47371000Y44448200D01*
X47371000Y44448200D02*
X48007800Y45085000D01*
X48007800Y45085000D02*
X48068000Y45085000D01*
%TO.N,ROW_23S*%
D26*
X41673000Y14097000D02*
X47388000Y19812000D01*
X47388000Y19812000D02*
X95826000Y19812000D01*
X95826000Y19812000D02*
X101541000Y14097000D01*
%TO.N,LINE_CF1S*%
X61629000Y14097000D02*
X66201000Y18669000D01*
X66201000Y18669000D02*
X94107000Y18669000D01*
X94107000Y18669000D02*
X100965000Y11811000D01*
%TO.N,PDL+*%
D25*
X54926000Y110109000D02*
X54926000Y111190000D01*
X54926000Y111190000D02*
X54864000Y111252000D01*
%TO.N,MV*%
X57531000Y119061000D02*
X56774700Y119061000D01*
X56774700Y119061000D02*
X55880000Y119061000D01*
%TO.N,MIII-*%
X53340000Y125984000D02*
X54672000Y125984000D01*
%TO.N,AGND*%
X54560500Y130667500D02*
X54672000Y130556000D01*
X54610000Y133350000D02*
X54610000Y134316500D01*
X54610000Y133350000D02*
X54610000Y131952600D01*
X54560500Y131903100D02*
X54560500Y130667500D01*
X54610000Y134316500D02*
X54560500Y134366000D01*
X54610000Y131952600D02*
X54560500Y131903100D01*
%TO.N,MII+*%
X53467000Y140208000D02*
X54545000Y139130000D01*
X54545000Y139130000D02*
X54545000Y138938000D01*
%TO.N,PDL-*%
X53975000Y102997000D02*
X54926000Y103948000D01*
X54926000Y103948000D02*
X54926000Y104013000D01*
%TO.N,$2N9177*%
X17313900Y144922200D02*
X17313900Y143672300D01*
X17313900Y143672300D02*
X16063900Y142422300D01*
X18563800Y141173700D02*
X17312600Y141173700D01*
X17312600Y141173700D02*
X16063900Y142422300D01*
%TO.N,$3N12589*%
X115824000Y125984000D02*
X116621700Y125186300D01*
X116621700Y125186300D02*
X116621700Y125067900D01*
%TO.N,3.3V*%
X120050700Y123987700D02*
X120050700Y125067900D01*
X120015000Y123952000D02*
X120050700Y123987700D01*
%TO.N,$3N38319*%
X104521000Y127889000D02*
X103608300Y128801700D01*
X103608300Y128801700D02*
X103505000Y128801700D01*
%TO.N,PRINT_PAPER*%
X105791000Y128651000D02*
X106730800Y128651000D01*
X106730800Y128651000D02*
X106758600Y128678800D01*
%TO.N,$3N12589*%
X117491700Y127232600D02*
X117072600Y127232600D01*
X117072600Y127232600D02*
X115824000Y125984000D01*
%TO.N,3.3V*%
X120938500Y127233300D02*
X120050700Y126345600D01*
X120050700Y126345600D02*
X120050700Y125067900D01*
%TO.N,AGND*%
X57272900Y45123100D02*
X57272900Y46350900D01*
X57272900Y46350900D02*
X57404000Y46482000D01*
X57404000Y46482000D02*
X58039000Y46482000D01*
X58039000Y46482000D02*
X58166000Y46355000D01*
X58166000Y46355000D02*
X58166000Y46320500D01*
X58166000Y46320500D02*
X58272900Y46213600D01*
X58272900Y46213600D02*
X58272900Y45123100D01*
%TO.N,3.3V*%
X86233000Y88527600D02*
X85478900Y88527600D01*
X85478900Y88527600D02*
X84709000Y88527600D01*
X79377800Y101826900D02*
X79395100Y101844100D01*
X77216000Y100584000D02*
X78994000Y100584000D01*
X78994000Y100584000D02*
X79377800Y100967800D01*
X79377800Y100967800D02*
X79377800Y101826900D01*
%TO.N,AGND*%
X36576000Y66740000D02*
X37454600Y66740000D01*
%TO.N,V4*%
X36576000Y61784000D02*
X37403200Y61784000D01*
%TO.N,MCU_RESET*%
X95631000Y92202000D02*
X95631000Y89662000D01*
X95631000Y89662000D02*
X96647000Y88646000D01*
X96647000Y88646000D02*
X103567600Y88646000D01*
X103567600Y88646000D02*
X103825600Y88388000D01*
%TO.N,LCD_3.9V*%
X99342100Y43405900D02*
X100076000Y42672000D01*
X100076000Y42672000D02*
X118582300Y42672000D01*
X118582300Y42672000D02*
X119344300Y43434000D01*
%TO.N,GND*%
X116344300Y44536900D02*
X116344300Y43307000D01*
X115344300Y44536900D02*
X115344300Y43307000D01*
%TO.N,$3N2471*%
D18*
X118383800Y93853200D02*
X111797400Y93853200D01*
X111797400Y93853200D02*
X109963700Y95686900D01*
X109963700Y95686900D02*
X109963700Y97655800D01*
%TO.N,GND*%
D25*
X118231900Y89936100D02*
X120142000Y89936100D01*
X132281900Y103198900D02*
X132334000Y103251000D01*
%TO.N,$4N2324*%
X75830900Y118160000D02*
X75881000Y118110000D01*
X75830900Y120942100D02*
X75830900Y119445900D01*
X75830900Y119445900D02*
X75830900Y118160000D01*
%TO.N,AGND*%
X75331100Y120942100D02*
X75331100Y121940100D01*
X75819000Y122428000D02*
X75331100Y121940100D01*
X76830900Y122385300D02*
X76788300Y122428000D01*
X76581000Y122428000D02*
X76830900Y122178100D01*
X76581000Y122428000D02*
X76788300Y122428000D01*
X76830900Y120942100D02*
X76830900Y122091300D01*
X76581000Y122428000D02*
X75819000Y122428000D01*
X76830900Y122091300D02*
X77167700Y122428000D01*
X76788300Y122428000D02*
X77167700Y122428000D01*
X77167700Y122428000D02*
X77597000Y122428000D01*
X77597000Y122428000D02*
X77830900Y122194100D01*
X77830900Y122194100D02*
X77830900Y120942100D01*
%TO.N,A3.3*%
X78331100Y122273100D02*
X78331100Y120942100D01*
X78613000Y122555000D02*
X78331100Y122273100D01*
%TO.N,AGND*%
X76830900Y122178100D02*
X76830900Y122091300D01*
X76830900Y122178100D02*
X76830900Y122385300D01*
%TO.N,GND*%
X79830900Y119361700D02*
X79404200Y118935000D01*
X79404200Y118935000D02*
X79404200Y117355600D01*
X78830900Y119508300D02*
X79404200Y118935000D01*
X78830900Y120942100D02*
X78830900Y119508300D01*
X79830900Y120942100D02*
X79830900Y119670900D01*
X79830900Y119670900D02*
X79830900Y119361700D01*
%TO.N,3.3V*%
X83439000Y122682000D02*
X82190800Y122682000D01*
X82190800Y122682000D02*
X82130900Y122741900D01*
%TO.N,GND*%
X79830900Y132041900D02*
X79830900Y133170900D01*
X79830900Y133170900D02*
X80137000Y133477000D01*
%TO.N,AGND*%
X74331100Y132041900D02*
X74331100Y133059900D01*
X74331100Y133059900D02*
X74041000Y133350000D01*
X74041000Y133350000D02*
X73406000Y133350000D01*
X80645000Y136717000D02*
X78994000Y136717000D01*
X78994000Y136717000D02*
X77343000Y136717000D01*
X77343000Y136717000D02*
X75692000Y136717000D01*
X75692000Y136717000D02*
X74863900Y136717000D01*
X74863900Y136717000D02*
X74041000Y136717000D01*
%TO.N,A3.3*%
X76830900Y130560100D02*
X76835000Y130556000D01*
X76830900Y130931000D02*
X76455900Y130556000D01*
X76455900Y130556000D02*
X76835000Y130556000D01*
X76830900Y132041900D02*
X76830900Y130931000D01*
X76830900Y130931000D02*
X76830900Y130560100D01*
X75830900Y132041900D02*
X75830900Y130798100D01*
X75830900Y130798100D02*
X76073000Y130556000D01*
X76073000Y130556000D02*
X76455900Y130556000D01*
%TO.N,AGND*%
X81407000Y133731000D02*
X80331100Y132655100D01*
X80331100Y132655100D02*
X80331100Y132041900D01*
%TO.N,GND*%
X82130900Y126242100D02*
X80395100Y126242100D01*
X80395100Y126242100D02*
X80391000Y126238000D01*
X82130900Y128242100D02*
X80545900Y128242100D01*
X80545900Y128242100D02*
X80518000Y128270000D01*
X82130900Y130242100D02*
X80577900Y130242100D01*
X80577900Y130242100D02*
X80518000Y130302000D01*
%TO.N,A3.3*%
X76073000Y105283000D02*
X77456000Y105283000D01*
X77456000Y105283000D02*
X77460100Y105278900D01*
%TO.N,AGND*%
D22*
X83859200Y105782600D02*
X83936100Y105859500D01*
X83936100Y105859500D02*
X85457900Y105859500D01*
X85457900Y105859500D02*
X85617400Y105700100D01*
%TO.N,A3.3*%
D25*
X84963000Y105283000D02*
X83834000Y105283000D01*
X83834000Y105283000D02*
X83829900Y105278900D01*
X77460100Y105278900D02*
X78735900Y105278900D01*
X78735900Y105278900D02*
X78740000Y105283000D01*
%TO.N,VREFPR*%
X85890600Y108391700D02*
X86699100Y108391700D01*
X86699100Y108391700D02*
X87503000Y108391700D01*
%TO.N,AGND*%
X88519000Y105283000D02*
X87441000Y105283000D01*
X87441000Y105283000D02*
X87314000Y105410000D01*
%TO.N,A3.3*%
X112887700Y98832600D02*
X114675600Y98832600D01*
X118221000Y98425000D02*
X118231900Y98435900D01*
X112395000Y98552000D02*
X112607100Y98552000D01*
X112607100Y98552000D02*
X112887700Y98832600D01*
%TO.N,$4N13059*%
X82677000Y106299000D02*
X82834300Y106299000D01*
X82834300Y106299000D02*
X82854400Y106278900D01*
X82854400Y106278900D02*
X83829900Y106278900D01*
X82677000Y106299000D02*
X82677000Y104902000D01*
X82677000Y104902000D02*
X82804000Y104775000D01*
X82804000Y104775000D02*
X83825800Y104775000D01*
X83825800Y104775000D02*
X83829900Y104779100D01*
X82841300Y104292000D02*
X82854400Y104278900D01*
X82854400Y104278900D02*
X83829900Y104278900D01*
X81915000Y105283000D02*
X81915000Y104902000D01*
X81915000Y104902000D02*
X82525000Y104292000D01*
X82525000Y104292000D02*
X82841300Y104292000D01*
%TO.N,RECG_RESET*%
X78894900Y101844100D02*
X78894900Y103251000D01*
%TO.N,RECG_CS*%
D18*
X84201000Y97371200D02*
X84201000Y100584000D01*
%TO.N,RECG_CLK*%
X81546400Y100220400D02*
X80904900Y100861900D01*
X83444900Y99083900D02*
X83444900Y99857900D01*
X83444900Y99857900D02*
X83082400Y100220400D01*
X83082400Y100220400D02*
X81546400Y100220400D01*
%TO.N,RECG_MOSI*%
X81395100Y100976900D02*
X81888100Y100483900D01*
X81888100Y100483900D02*
X83412100Y100483900D01*
X83412100Y100483900D02*
X83820000Y100076000D01*
X83820000Y97738200D02*
X83820000Y100076000D01*
%TO.N,RECG_CS*%
X84001300Y100783700D02*
X84201000Y100584000D01*
X81894900Y100985100D02*
X81894900Y101844100D01*
X82096300Y100783700D02*
X84001300Y100783700D01*
X82096300Y100783700D02*
X81894900Y100985100D01*
%TO.N,GND*%
X79331100Y120942100D02*
X79331100Y122257100D01*
X79331100Y122257100D02*
X79502000Y122428000D01*
%TO.N,A3.3*%
D25*
X114675600Y98832600D02*
X115083200Y98425000D01*
X115083200Y98425000D02*
X118221000Y98425000D01*
%TO.N,GND*%
D18*
X59773100Y45123100D02*
X59773100Y47033900D01*
X59773100Y47033900D02*
X59563000Y47244000D01*
%TO.N,3.3V*%
X64389000Y47879000D02*
X64389000Y47371000D01*
X64389000Y47371000D02*
X63940900Y46922900D01*
X63940900Y46922900D02*
X62572900Y46922900D01*
%TO.N,GND*%
X60272900Y56222900D02*
X60272900Y57859900D01*
X60272900Y57859900D02*
X60452000Y58039000D01*
%TO.N,A3.3*%
X54272900Y56222900D02*
X54272900Y54947100D01*
X54272900Y54947100D02*
X54610000Y54610000D01*
X54610000Y54610000D02*
X55372000Y54610000D01*
X55372000Y54610000D02*
X55773100Y55011100D01*
X55773100Y55011100D02*
X55773100Y56222900D01*
%TO.N,AGND*%
X54773100Y56222900D02*
X54773100Y57113900D01*
X54773100Y57113900D02*
X54483000Y57404000D01*
X54483000Y57404000D02*
X54006400Y57404000D01*
X54006400Y57404000D02*
X53773100Y57170700D01*
X53773100Y57170700D02*
X53773100Y56222900D01*
X61341000Y57912000D02*
X60773100Y57344100D01*
X60773100Y57344100D02*
X60773100Y56222900D01*
X56272900Y56222900D02*
X56272900Y55106100D01*
X56272900Y55106100D02*
X56642000Y54737000D01*
X56642000Y54737000D02*
X57277000Y54737000D01*
%TO.N,GND*%
X62572900Y50423100D02*
X64266100Y50423100D01*
X64266100Y50423100D02*
X65151000Y51308000D01*
X62572900Y52423100D02*
X64543900Y52423100D01*
X64543900Y52423100D02*
X64643000Y52324000D01*
X139832100Y94936100D02*
X138430000Y94936100D01*
%TO.N,RGB_R4*%
D25*
X139832100Y82936100D02*
X138303000Y82936100D01*
%TO.N,GND*%
X132281900Y80385900D02*
X132281900Y81713100D01*
X132281900Y81713100D02*
X132207000Y81788000D01*
X127281900Y80385900D02*
X127281900Y81506100D01*
X127281900Y81506100D02*
X127127000Y81661000D01*
%TO.N,3.3V*%
X139192000Y103124000D02*
X138049000Y103124000D01*
X138049000Y103124000D02*
X137782000Y102857000D01*
X137782000Y102857000D02*
X137782000Y101986100D01*
X128143000Y104267000D02*
X128143000Y103728200D01*
X128143000Y103728200D02*
X127782100Y103367300D01*
X127782100Y103367300D02*
X127782100Y101986100D01*
X120650000Y105283000D02*
X120650000Y104775000D01*
X120650000Y104775000D02*
X121282000Y104143000D01*
X121282000Y104143000D02*
X121282000Y101986100D01*
X132842000Y103045200D02*
X132842000Y105537000D01*
X132842000Y105537000D02*
X132461000Y105918000D01*
X118231900Y96936100D02*
X119344900Y96936100D01*
X119344900Y96936100D02*
X119634000Y96647000D01*
X119634000Y96647000D02*
X119634000Y94615000D01*
X119634000Y94615000D02*
X120269000Y93980000D01*
X118231900Y90435900D02*
X119422400Y90435900D01*
X119422400Y90435900D02*
X120396000Y91409500D01*
X120396000Y93853000D02*
X120269000Y93980000D01*
X120396000Y91409500D02*
X120396000Y93853000D01*
X139832100Y94435900D02*
X141022600Y94435900D01*
X141022600Y94435900D02*
X141097500Y94361000D01*
X141097500Y94361000D02*
X142748000Y94361000D01*
X142748000Y94361000D02*
X143256000Y94869000D01*
X139832100Y88936100D02*
X140933900Y88936100D01*
X140933900Y88936100D02*
X141478000Y88392000D01*
%TO.N,WARN*%
X131782100Y80385900D02*
X131782100Y78148900D01*
X131782100Y78148900D02*
X132334000Y77597000D01*
%TO.N,GND*%
X126365000Y77978000D02*
X126782100Y78395100D01*
X126782100Y78395100D02*
X126782100Y80385900D01*
%TO.N,RGB_B7*%
X120282000Y80385900D02*
X120282000Y78372000D01*
X120282000Y78372000D02*
X119634000Y77724000D01*
%TO.N,3.3V*%
D21*
X4249000Y101730600D02*
X4249000Y102547000D01*
X4249000Y102547000D02*
X4699000Y102997000D01*
X6093000Y102997000D02*
X6162700Y102927300D01*
X5527300Y102997000D02*
X6088700Y102435600D01*
X6088700Y102435600D02*
X6162700Y102435600D01*
X4699000Y102997000D02*
X5527300Y102997000D01*
X6162700Y101659200D02*
X6162700Y102435600D01*
X6162700Y102435600D02*
X6162700Y102927300D01*
X5527300Y102997000D02*
X5592000Y102997000D01*
X5592000Y102997000D02*
X6162700Y103567700D01*
X5592000Y102997000D02*
X6093000Y102997000D01*
X6162700Y102927300D02*
X6162700Y103567700D01*
X6162700Y103567700D02*
X6162700Y104807300D01*
%TO.N,GND*%
D25*
X127281900Y101986100D02*
X127281900Y100611900D01*
X121285000Y99822000D02*
X120782100Y100324900D01*
X126492000Y99822000D02*
X127281900Y100611900D01*
X132281900Y100509100D02*
X132334000Y100457000D01*
X121285000Y99822000D02*
X126492000Y99822000D01*
%TO.N,PRINT_STB2*%
D18*
X138831100Y92435900D02*
X139832100Y92435900D01*
X137668000Y93599000D02*
X138831100Y92435900D01*
%TO.N,PRINT_CLK*%
X128651000Y106553000D02*
X128651000Y106045000D01*
X132715000Y110617000D02*
X128651000Y106553000D01*
%TO.N,12VP*%
D19*
X159174900Y139298900D02*
X156487900Y141986000D01*
X131674900Y139298900D02*
X131674900Y139802900D01*
X131674900Y139802900D02*
X133858000Y141986000D01*
X133858000Y141986000D02*
X156487900Y141986000D01*
%TO.N,$2N1670*%
D22*
X2954200Y131437300D02*
X2954200Y129925300D01*
%TO.N,$2N1654*%
D26*
X2680800Y134925900D02*
X2680800Y133243200D01*
X2680800Y133243200D02*
X2704500Y133219600D01*
%TO.N,12VP*%
D25*
X116459000Y129032000D02*
X117491100Y129032000D01*
X120015000Y128397000D02*
X120651400Y129033400D01*
X120651400Y129033400D02*
X120938500Y129033400D01*
%TO.N,PRINT_PAPER*%
D22*
X111626900Y125349000D02*
X113919000Y125349000D01*
%TO.N,3.3V*%
D25*
X103505000Y130308400D02*
X104895600Y131699000D01*
X104895600Y131699000D02*
X106172000Y131699000D01*
X106172000Y131699000D02*
X107081100Y132608100D01*
X107081100Y132608100D02*
X107081100Y132930900D01*
%TO.N,PRINT_PAPER*%
X108255000Y130346500D02*
X108255000Y132854900D01*
X108255000Y132854900D02*
X108331100Y132930900D01*
%TO.N,GND*%
D26*
X139446000Y130494000D02*
X134420200Y130494000D01*
X134420200Y130494000D02*
X134404600Y130509700D01*
%TO.N,$3N43809*%
X135119400Y120269000D02*
X136668000Y120269000D01*
X136668000Y120269000D02*
X136668000Y123916400D01*
X136668000Y123916400D02*
X136677300Y123925700D01*
%TO.N,GND*%
X138684000Y121235000D02*
X138668000Y121219000D01*
X131318000Y134366000D02*
X134404600Y131279400D01*
X134404600Y131279400D02*
X134404600Y130509700D01*
%TO.N,PRINT_STB2*%
D27*
X146812000Y124079000D02*
X146812000Y125968500D01*
X146812000Y125968500D02*
X146771100Y126009400D01*
%TO.N,GND*%
D18*
X146120900Y124149900D02*
X146120900Y126009400D01*
X146050000Y124079000D02*
X146120900Y124149900D01*
%TO.N,PRINT_DI1*%
X133350000Y107188000D02*
X148721100Y122559100D01*
X148721100Y122559100D02*
X148721100Y126009400D01*
%TO.N,PRINT_STB4*%
X133096000Y107823000D02*
X133858000Y108585000D01*
X133858000Y108585000D02*
X134239000Y108585000D01*
X134239000Y108585000D02*
X148071100Y122417100D01*
X148071100Y122417100D02*
X148071100Y126009400D01*
%TO.N,PRINT_STB3*%
X132334000Y107823000D02*
X133604000Y109093000D01*
X133604000Y109093000D02*
X134239000Y109093000D01*
X134239000Y109093000D02*
X147421100Y122275100D01*
X147421100Y122275100D02*
X147421100Y126009400D01*
%TO.N,3.3V*%
X133782100Y105842100D02*
X156845000Y128905000D01*
X133782100Y101986100D02*
X133782100Y105842100D01*
%TO.N,PRINT_LAT*%
X145471100Y126009400D02*
X145471100Y124008100D01*
X145471100Y124008100D02*
X145288000Y123825000D01*
%TO.N,PRINT_CLK*%
X132715000Y110617000D02*
X134747000Y110617000D01*
X134747000Y110617000D02*
X144780000Y120650000D01*
X144780000Y120650000D02*
X144780000Y125968300D01*
X144780000Y125968300D02*
X144821100Y126009400D01*
%TO.N,PRINT_DI2*%
X132588000Y110998000D02*
X134620000Y110998000D01*
X134620000Y110998000D02*
X144171200Y120549200D01*
X144171200Y120549200D02*
X144171200Y126009400D01*
X132588000Y110998000D02*
X127635000Y106045000D01*
%TO.N,3.3V*%
D25*
X141478000Y125349000D02*
X141986000Y125349000D01*
%TO.N,PRINT_CLK_D*%
D22*
X135424900Y136799100D02*
X137096000Y135128000D01*
X137096000Y135128000D02*
X143637000Y135128000D01*
X143637000Y135128000D02*
X144171200Y134593800D01*
X144171200Y134593800D02*
X144171200Y132054600D01*
%TO.N,PRINT_DI_D*%
X143521200Y132054600D02*
X143521200Y134354800D01*
X143521200Y134354800D02*
X143129000Y134747000D01*
X143129000Y134747000D02*
X135382000Y134747000D01*
X135382000Y134747000D02*
X134239000Y135890000D01*
X134239000Y135890000D02*
X134239000Y139234900D01*
X134239000Y139234900D02*
X134175000Y139298900D01*
%TO.N,PRINT_LAT_D*%
X144821100Y132054600D02*
X144821100Y134705900D01*
X144821100Y134705900D02*
X144018000Y135509000D01*
X144018000Y135509000D02*
X137414000Y135509000D01*
X137414000Y135509000D02*
X136652000Y136271000D01*
X136652000Y136271000D02*
X136652000Y139275800D01*
X136652000Y139275800D02*
X136675100Y139298900D01*
%TO.N,PRINT_STB1_D*%
X145471100Y132054600D02*
X145471100Y134817900D01*
X145471100Y134817900D02*
X144272000Y136017000D01*
X144272000Y136017000D02*
X144272000Y137160000D01*
%TO.N,PRINT_STB2_D*%
X146120900Y135833900D02*
X146120900Y132054600D01*
X146685000Y137541000D02*
X146685000Y136398000D01*
X146685000Y136398000D02*
X146120900Y135833900D01*
%TO.N,PRINT_STB1_D*%
X144272000Y137160000D02*
X143591500Y137840500D01*
X143591500Y137840500D02*
X138966400Y137840500D01*
X138966400Y137840500D02*
X138140900Y137014900D01*
%TO.N,PRINT_STB2_D*%
X139209700Y139052400D02*
X139326400Y139052400D01*
X139326400Y139052400D02*
X140130100Y138248600D01*
X140130100Y138248600D02*
X145977400Y138248600D01*
X145977400Y138248600D02*
X146685000Y137541000D01*
%TO.N,PRINT_STB3_D*%
X146780500Y132070500D02*
X146780500Y133022500D01*
X146780500Y133022500D02*
X149397800Y135639800D01*
X151574900Y137352100D02*
X153510700Y139287900D01*
X153510700Y139287900D02*
X153870000Y139287900D01*
%TO.N,PRINT_STB4_D*%
X147343300Y132700400D02*
X147343300Y133003700D01*
X147343300Y133003700D02*
X149523600Y135184000D01*
X149523600Y135184000D02*
X153800600Y135184000D01*
X153800600Y135184000D02*
X155107000Y136490400D01*
X155107000Y136490400D02*
X155107000Y136544800D01*
%TO.N,PRINT_STB3_D*%
X149397800Y135639800D02*
X150978800Y135639800D01*
X150978800Y135639800D02*
X151574900Y136236000D01*
X151574900Y136236000D02*
X151574900Y137352100D01*
%TO.N,PRINT_DI1_D*%
X148030500Y132495300D02*
X148030500Y133120300D01*
X155834100Y134787400D02*
X157811300Y136764500D01*
X148030500Y133120300D02*
X149697600Y134787400D01*
X149697600Y134787400D02*
X155834100Y134787400D01*
%TO.N,5V_OUT*%
X142213300Y133448800D02*
X142213300Y131884700D01*
X142213300Y131884700D02*
X142182200Y131853600D01*
D25*
X142772100Y60671600D02*
X142772100Y60026500D01*
X142772100Y60026500D02*
X142752600Y60007000D01*
X142772100Y60671600D02*
X142772100Y60686800D01*
X142772100Y60686800D02*
X145603300Y63518000D01*
X145603300Y63518000D02*
X145603300Y67113900D01*
X142748000Y69969200D02*
X145603300Y67113900D01*
%TO.N,ADC_REF3.3*%
D22*
X115364800Y105774600D02*
X115205200Y105934300D01*
X115692800Y105774600D02*
X115364800Y105774600D01*
X116839600Y104627900D02*
X115692800Y105774600D01*
X116839600Y102071600D02*
X116839600Y104627900D01*
X118318300Y100592900D02*
X116839600Y102071600D01*
X119140600Y97934200D02*
X119154100Y97920700D01*
X118831700Y97934200D02*
X119130200Y97934200D01*
X119130200Y97934200D02*
X119145000Y97948900D01*
X119130200Y97934200D02*
X119140600Y97934200D01*
X114899400Y104296600D02*
X114899400Y105851800D01*
X114899400Y105851800D02*
X114890700Y105860400D01*
%TO.N,AGND*%
X113369200Y104327400D02*
X113369200Y105891300D01*
X113369200Y105891300D02*
X113346000Y105914500D01*
%TO.N,$3N43045*%
X112971000Y107861400D02*
X112971000Y109008200D01*
X112971000Y109008200D02*
X113046300Y109083500D01*
%TO.N,A3.3*%
X115200900Y107809300D02*
X115200900Y109037200D01*
X115200900Y109037200D02*
X114998200Y109239900D01*
%TO.N,AGND*%
X113375700Y104155300D02*
X113439900Y104091100D01*
X113439900Y104091100D02*
X113439900Y103490600D01*
%TO.N,GND*%
X69576200Y93523700D02*
X71127100Y93523700D01*
X71127100Y93523700D02*
X71231300Y93419400D01*
X69602300Y93302100D02*
X71166200Y93302100D01*
X71166200Y93302100D02*
X71218300Y93250000D01*
%TO.N,AGND*%
X71413800Y90630500D02*
X71413800Y88623500D01*
X71413800Y88623500D02*
X71439900Y88597400D01*
X71609300Y90395900D02*
X71609300Y88623500D01*
X71609300Y88623500D02*
X71635300Y88597400D01*
X71791700Y90395900D02*
X71791700Y88558300D01*
X71791700Y88558300D02*
X71700500Y88467100D01*
%TO.N,GND*%
X69862900Y93132700D02*
X70931600Y93132700D01*
X70931600Y93132700D02*
X70944600Y93145700D01*
%TO.N,A3.3*%
X73787300Y87651900D02*
X73787300Y87698200D01*
X73787300Y87698200D02*
X73122700Y88362900D01*
%TO.N,SDA*%
X81984500Y92990000D02*
X82584000Y92990000D01*
X82584000Y92990000D02*
X82740400Y92833600D01*
X82740400Y92833600D02*
X85758400Y92833600D01*
X85758400Y92833600D02*
X85796600Y92795400D01*
%TO.N,SCL*%
X81633200Y90918800D02*
X82028800Y90918800D01*
X82028800Y90918800D02*
X82677000Y91567000D01*
X84318100Y91567000D02*
X84334800Y91550300D01*
X82677000Y91567000D02*
X82811300Y91567000D01*
X82811300Y91567000D02*
X84318100Y91567000D01*
%TO.N,PD-*%
D25*
X68371900Y70688600D02*
X68371900Y67986200D01*
X68371900Y67986200D02*
X68413100Y67945000D01*
%TO.N,PD+*%
X68076000Y72132000D02*
X70866000Y69342000D01*
X70866000Y69342000D02*
X70866000Y67992000D01*
X70866000Y67992000D02*
X70913000Y67945000D01*
X68076000Y72132000D02*
X68076000Y78501800D01*
%TO.N,RD+*%
D28*
X50410900Y89359000D02*
X50410900Y90288900D01*
X50410900Y90288900D02*
X50800000Y90678000D01*
X50800000Y90678000D02*
X51181000Y90678000D01*
%TO.N,PRINT_PAPER*%
X108255000Y128689100D02*
X108265300Y128678800D01*
X108255000Y130346500D02*
X108255000Y128706900D01*
X108255000Y128706900D02*
X108255000Y128689100D01*
D22*
X108262000Y128713900D02*
X108255000Y128706900D01*
%TO.N,GND*%
D19*
X24746300Y125628200D02*
X24003000Y125628200D01*
X24003000Y125628200D02*
X19118600Y130512600D01*
X24746300Y125628200D02*
X24975100Y125857000D01*
%TO.N,MV*%
D22*
X48997500Y120610500D02*
X48895000Y120508000D01*
%TO.N,MIII-*%
X41402000Y130368900D02*
X44248700Y127522200D01*
X44248700Y127522200D02*
X52822700Y127522200D01*
%TO.N,MII-*%
X41574100Y132869100D02*
X41402000Y132869100D01*
X41574100Y132869100D02*
X44441200Y135736200D01*
%TO.N,MLL*%
X40913900Y127869100D02*
X41402000Y127869100D01*
X40005000Y128778000D02*
X40913900Y127869100D01*
X52965600Y137407400D02*
X52967600Y137405400D01*
X52967600Y137405400D02*
X53721000Y136652000D01*
X52812300Y137564700D02*
X44473700Y137564700D01*
X44473700Y137564700D02*
X40005000Y133096000D01*
X40005000Y133096000D02*
X40005000Y128778000D01*
%TO.N,$4N2370*%
X63795900Y115760800D02*
X68509700Y115760800D01*
X68509700Y115760800D02*
X70853300Y115760800D01*
%TO.N,MV*%
X48997500Y120610500D02*
X52066100Y120610500D01*
X52066100Y120610500D02*
X52718700Y120610500D01*
%TO.N,5V_OUT*%
D19*
X6784100Y124460000D02*
X6784100Y127359300D01*
X6920000Y124460000D02*
X4888000Y122428000D01*
X4888000Y122428000D02*
X3522000Y122428000D01*
%TO.N,3.3V*%
D23*
X6096000Y112649000D02*
X6096000Y108746100D01*
X6096000Y108746100D02*
X6096000Y107961700D01*
X6096000Y107961700D02*
X6096000Y107108800D01*
X6096000Y107108800D02*
X6096000Y104768700D01*
X10565800Y120116600D02*
X9940000Y120116600D01*
X10702000Y119980300D02*
X10565800Y120116600D01*
X10702000Y117255000D02*
X10702000Y119980300D01*
X10702000Y119980300D02*
X10702000Y120116600D01*
X7600000Y118311700D02*
X7327500Y118039200D01*
X7327500Y114100800D02*
X7359700Y114068700D01*
X7555300Y115147000D02*
X9499600Y117091400D01*
X9499600Y117091400D02*
X9499600Y117327800D01*
X7327500Y116198000D02*
X9000400Y117870900D01*
X9000400Y117870900D02*
X9000400Y117879600D01*
X7327500Y114100800D02*
X7327500Y116198000D01*
X7327500Y116198000D02*
X7327500Y118039200D01*
X11654200Y118207200D02*
X11654200Y118457700D01*
X10702000Y117255000D02*
X11654200Y118207200D01*
X7303900Y113856900D02*
X11052100Y117430800D01*
X11052100Y117430800D02*
X11052100Y117483300D01*
X10702000Y117255000D02*
X7303900Y113856900D01*
X7303900Y113856900D02*
X6096000Y112649000D01*
%TO.N,$2N10612*%
X16528500Y115927700D02*
X15757700Y115157000D01*
X15757700Y115157000D02*
X15757700Y115133600D01*
X12581300Y115762300D02*
X12472300Y115871300D01*
X12472300Y115871300D02*
X12472300Y115334100D01*
X12472300Y115334100D02*
X11195500Y114057300D01*
X13702400Y116564200D02*
X14013800Y116564200D01*
X12581300Y115225100D02*
X12581300Y115443100D01*
X12581300Y115443100D02*
X12581300Y115762300D01*
X12472300Y115334100D02*
X12581300Y115443100D01*
X12581300Y115443100D02*
X13702400Y116564200D01*
%TO.N,5V_OUT*%
D19*
X16468000Y122447200D02*
X17776700Y121138500D01*
X17776700Y121138500D02*
X17776700Y120945500D01*
X15875000Y123063000D02*
X15875000Y123040200D01*
X15875000Y124333000D02*
X15875000Y123063000D01*
X12171500Y128011600D02*
X12183900Y128024100D01*
X10004800Y128011600D02*
X11467900Y128011600D01*
X11467900Y128011600D02*
X11552600Y128011600D01*
X11552600Y128011600D02*
X12171500Y128011600D01*
X11552600Y128011600D02*
X11874500Y128333500D01*
X11467900Y142425600D02*
X11467900Y128011600D01*
X11874500Y128333500D02*
X12183900Y128024100D01*
X12183900Y128024100D02*
X15875000Y124333000D01*
X10004800Y128011600D02*
X7436400Y128011600D01*
%TO.N,12V*%
X12772800Y107369200D02*
X12772800Y113365200D01*
X18884800Y101257200D02*
X12772800Y107369200D01*
X21117500Y101257200D02*
X18884800Y101257200D01*
%TO.N,$2N18236*%
X16699000Y107823000D02*
X15621000Y107823000D01*
X15621000Y107823000D02*
X15367000Y108077000D01*
X15367000Y108077000D02*
X16445000Y108077000D01*
X16445000Y108077000D02*
X16699000Y107823000D01*
X16699000Y107823000D02*
X16699000Y106996000D01*
X16699000Y106996000D02*
X16637000Y106934000D01*
%TO.N,12V*%
X15240000Y99568000D02*
X19050000Y99568000D01*
X19050000Y99568000D02*
X19431000Y99187000D01*
%TO.N,$2N1172*%
D24*
X12827000Y143764000D02*
X12192000Y143764000D01*
X12192000Y143764000D02*
X11811000Y144145000D01*
%TO.N,MII-*%
D22*
X56756300Y135902700D02*
X62941800Y129717200D01*
X62941800Y129717200D02*
X71060900Y129717200D01*
%TO.N,MIII-*%
X56091200Y127605500D02*
X56861500Y128375800D01*
X56861500Y128375800D02*
X64711600Y128375800D01*
X64711600Y128375800D02*
X65083800Y128748000D01*
%TO.N,MECG_CS*%
D18*
X91694000Y88646000D02*
X91410600Y88929400D01*
X91410600Y88929400D02*
X91410600Y123854400D01*
X91410600Y123854400D02*
X88011000Y127254000D01*
%TO.N,MECG_CLK*%
X91186000Y87630000D02*
X91156600Y87659400D01*
X91156600Y87659400D02*
X91156600Y123727400D01*
X91156600Y123727400D02*
X88138000Y126746000D01*
%TO.N,MECG_START*%
X92202000Y88138000D02*
X92172600Y88167400D01*
X92202000Y89027000D02*
X91665000Y89564000D01*
X92202000Y88138000D02*
X92202000Y89027000D01*
%TO.N,MECG_RESET*%
X92456000Y89789000D02*
X91948000Y90297000D01*
%TO.N,MECG_MOSI*%
X92202000Y90932000D02*
X92964000Y90170000D01*
%TO.N,MECG_START*%
X87884000Y127762000D02*
X91665000Y123981000D01*
X91665000Y89564000D02*
X91665000Y123981000D01*
%TO.N,MECG_RESET*%
X91948000Y90297000D02*
X91948000Y124079000D01*
X91948000Y124079000D02*
X87249000Y128778000D01*
X87249000Y128778000D02*
X82167000Y128778000D01*
%TO.N,MECG_MOSI*%
X92202000Y124206000D02*
X92202000Y90932000D01*
%TO.N,MECG_MISO*%
X89281000Y125222000D02*
X82151000Y125222000D01*
%TO.N,MECG_MOSI*%
X82130900Y129741900D02*
X86666100Y129741900D01*
X86666100Y129741900D02*
X92202000Y124206000D01*
%TO.N,MECG_MISO*%
X90678000Y89154000D02*
X90902600Y89378600D01*
X90902600Y89378600D02*
X90902600Y123600400D01*
X90902600Y123600400D02*
X89281000Y125222000D01*
%TO.N,MECG_MOSI*%
X92964000Y90170000D02*
X92964000Y89281000D01*
%TO.N,RECG_CLK*%
X82936900Y97795900D02*
X82936900Y98575900D01*
X82423000Y97282000D02*
X82936900Y97795900D01*
%TO.N,GND*%
X258445000Y20193000D02*
X258445000Y19688600D01*
X258445000Y19688600D02*
X258269800Y19513400D01*
X258588900Y20193000D02*
X258588900Y19529000D01*
X258588900Y19529000D02*
X258604500Y19513400D01*
D25*
X258269800Y19513400D02*
X258604500Y19513400D01*
D18*
X258699000Y20066000D02*
X258699000Y19607900D01*
X258699000Y19607900D02*
X258604500Y19513400D01*
%TO.N,NAND_D2*%
X149514800Y69182700D02*
X149514800Y71465200D01*
X149514800Y71465200D02*
X148445500Y72534500D01*
%TO.N,5V_OUT*%
D25*
X142748000Y71501000D02*
X142748000Y70866000D01*
X142748000Y70866000D02*
X142748000Y69969200D01*
%TO.N,NAND_D3*%
D18*
X148511900Y69488400D02*
X148511900Y71792300D01*
X148511900Y71792300D02*
X148053900Y72250300D01*
X148053900Y72250300D02*
X143538700Y72250300D01*
X143538700Y72250300D02*
X143255400Y72533500D01*
X143255400Y72533500D02*
X143039900Y72533500D01*
X143039900Y72533500D02*
X142942400Y72436000D01*
X142942400Y72436000D02*
X142726900Y72436000D01*
X142726900Y72436000D02*
X141864800Y73298100D01*
X141864800Y73298100D02*
X141864800Y73513700D01*
X141864800Y73513700D02*
X141962300Y73611200D01*
X141962300Y73611200D02*
X141962300Y73826700D01*
X141962300Y73826700D02*
X137335400Y78453600D01*
X137335400Y78453600D02*
X137119900Y78453600D01*
X137119900Y78453600D02*
X136259200Y79314300D01*
X136259200Y79314300D02*
X136259200Y79529800D01*
%TO.N,NAND_CMD*%
X147320600Y69372800D02*
X147320600Y71704400D01*
X147320600Y71704400D02*
X147029200Y71995900D01*
X147029200Y71995900D02*
X142634100Y71995900D01*
X142634100Y71995900D02*
X141442900Y73187100D01*
X141442900Y73187100D02*
X141442900Y73402600D01*
X141442900Y73402600D02*
X141511000Y73470600D01*
X141511000Y73470600D02*
X141511000Y73686100D01*
X141511000Y73686100D02*
X140648900Y74548200D01*
X140648900Y74548200D02*
X140433300Y74548200D01*
X140433300Y74548200D02*
X140365300Y74480200D01*
X140365300Y74480200D02*
X140149800Y74480200D01*
X140149800Y74480200D02*
X139287700Y75342300D01*
X139287700Y75342300D02*
X139287700Y75557800D01*
X139287700Y75557800D02*
X139399400Y75669600D01*
X139399400Y75669600D02*
X139399400Y75885100D01*
X139399400Y75885100D02*
X138537300Y76747200D01*
X138537300Y76747200D02*
X138321800Y76747200D01*
X138321800Y76747200D02*
X138210100Y76635500D01*
X138210100Y76635500D02*
X137994500Y76635500D01*
X135787300Y78842700D02*
X135787300Y79423400D01*
X137994500Y76635500D02*
X135787300Y78842700D01*
%TO.N,RGB_HSYNC*%
X140206300Y87478500D02*
X140229500Y87455300D01*
X140229500Y87455300D02*
X140977400Y87455300D01*
X140977400Y87455300D02*
X141104400Y87582300D01*
X141104400Y87582300D02*
X142247400Y87582300D01*
X142247400Y87582300D02*
X142374400Y87455300D01*
X142374400Y87455300D02*
X142462700Y87455300D01*
X142462700Y87455300D02*
X142615100Y87607700D01*
X142615100Y87607700D02*
X142615100Y88112600D01*
X142615100Y88112600D02*
X142767500Y88265000D01*
X142767500Y88265000D02*
X143732700Y88265000D01*
X143732700Y88265000D02*
X143885100Y88112600D01*
X143885100Y88112600D02*
X143885100Y87607700D01*
X143885100Y87607700D02*
X144037500Y87455300D01*
X144037500Y87455300D02*
X145002700Y87455300D01*
X145002700Y87455300D02*
X145155100Y87607700D01*
X145155100Y87607700D02*
X145155100Y88112600D01*
X145155100Y88112600D02*
X145307500Y88265000D01*
X145307500Y88265000D02*
X146272700Y88265000D01*
X146272700Y88265000D02*
X146425100Y88112600D01*
X146425100Y88112600D02*
X146425100Y87607700D01*
X146425100Y87607700D02*
X146577500Y87455300D01*
X146577500Y87455300D02*
X147367700Y87455300D01*
X147367700Y87455300D02*
X147574000Y87249000D01*
X147574000Y87249000D02*
X147574000Y86487000D01*
X147574000Y86487000D02*
X147466300Y86379300D01*
X147466300Y86379300D02*
X146958400Y86379300D01*
X146958400Y86379300D02*
X146806000Y86226900D01*
X146806000Y86226900D02*
X146806000Y85261700D01*
X146806000Y85261700D02*
X146958400Y85109300D01*
X146958400Y85109300D02*
X147427700Y85109300D01*
X147427700Y85109300D02*
X147574000Y84963000D01*
X147574000Y84963000D02*
X147574000Y83947000D01*
X147574000Y83947000D02*
X147466300Y83839300D01*
X147466300Y83839300D02*
X146958400Y83839300D01*
X146958400Y83839300D02*
X146806000Y83686900D01*
X146806000Y83686900D02*
X146806000Y82721700D01*
X146806000Y82721700D02*
X146958400Y82569300D01*
X146958400Y82569300D02*
X147118900Y82569300D01*
X147118900Y82569300D02*
X147271300Y82416900D01*
X147193000Y81196900D02*
X147271300Y81196900D01*
X147271300Y81196900D02*
X147271300Y82416900D01*
%TO.N,SWD_DIO*%
X145996300Y81635400D02*
X145415700Y81635400D01*
X145415700Y81635400D02*
X145263300Y81483000D01*
X145263300Y81483000D02*
X145263300Y81000200D01*
X145263300Y81000200D02*
X145110900Y80847800D01*
X145110900Y80847800D02*
X144145700Y80847800D01*
X144145700Y80847800D02*
X143993300Y81000200D01*
X143993300Y81000200D02*
X143993300Y81483000D01*
X143993300Y81483000D02*
X143840900Y81635400D01*
X143840900Y81635400D02*
X142875700Y81635400D01*
X142875700Y81635400D02*
X142723300Y81483000D01*
X142723300Y81483000D02*
X142723300Y81000200D01*
X142723300Y81000200D02*
X142570900Y80847800D01*
X142570900Y80847800D02*
X141605700Y80847800D01*
X141605700Y80847800D02*
X141453300Y81000200D01*
X141453300Y81000200D02*
X141453300Y81483000D01*
X141453300Y81483000D02*
X141300900Y81635400D01*
X141300900Y81635400D02*
X140335700Y81635400D01*
X140335700Y81635400D02*
X140183300Y81483000D01*
X140183300Y81483000D02*
X140183300Y81000200D01*
X140183300Y81000200D02*
X140030900Y80847800D01*
X140030900Y80847800D02*
X139065700Y80847800D01*
X139065700Y80847800D02*
X138913300Y81000200D01*
X138913300Y81000200D02*
X138913300Y81483000D01*
%TO.N,RGB_G6*%
X148181300Y80244200D02*
X147722500Y79785400D01*
X147722500Y79785400D02*
X146845900Y79785400D01*
X146845900Y79785400D02*
X146551600Y80079700D01*
X146551600Y80079700D02*
X146551600Y82301000D01*
X146551600Y82301000D02*
X146399200Y82453400D01*
X146399200Y82453400D02*
X145948400Y82453400D01*
X145948400Y82453400D02*
X145796000Y82605800D01*
X145796000Y82605800D02*
X145796000Y83571000D01*
X145796000Y83571000D02*
X145948400Y83723400D01*
X145948400Y83723400D02*
X146399200Y83723400D01*
X146399200Y83723400D02*
X146551600Y83875800D01*
X146551600Y83875800D02*
X146551600Y84841000D01*
X146551600Y84841000D02*
X146399200Y84993400D01*
X146399200Y84993400D02*
X145948400Y84993400D01*
X145948400Y84993400D02*
X145796000Y85145800D01*
X145796000Y85145800D02*
X145796000Y86111000D01*
X145796000Y86111000D02*
X145948400Y86263400D01*
X145948400Y86263400D02*
X146399200Y86263400D01*
X146399200Y86263400D02*
X146551600Y86415800D01*
X146551600Y86415800D02*
X146551600Y86493400D01*
X146551600Y86493400D02*
X146146500Y86898500D01*
X146146500Y86898500D02*
X145558800Y86898500D01*
X145558800Y86898500D02*
X145406400Y86746100D01*
X145406400Y86746100D02*
X145406400Y86369400D01*
X145406400Y86369400D02*
X145254000Y86217000D01*
X145254000Y86217000D02*
X144288800Y86217000D01*
X144288800Y86217000D02*
X144136400Y86369400D01*
X144136400Y86369400D02*
X144136400Y86746100D01*
X144136400Y86746100D02*
X143984000Y86898500D01*
X143984000Y86898500D02*
X139974300Y86898500D01*
%TO.N,GND*%
D26*
X138684000Y122690600D02*
X138684000Y121898400D01*
X138684000Y121898400D02*
X138684000Y121235000D01*
%TO.N,MTX*%
D18*
X134739200Y83102000D02*
X135053300Y82787900D01*
X135053300Y82787900D02*
X137065300Y82787900D01*
%TO.N,NAND_D2*%
X136732400Y79550200D02*
X136732400Y79415800D01*
X136732400Y79415800D02*
X143613700Y72534500D01*
X143613700Y72534500D02*
X148445500Y72534500D01*
%TO.N,SWD_DIO*%
X138913300Y81483000D02*
X138354300Y82042000D01*
X138354300Y82042000D02*
X135010700Y82042000D01*
X135010700Y82042000D02*
X134279300Y81310600D01*
%TO.N,$4N7475*%
D22*
X32705900Y82113600D02*
X32705900Y86631600D01*
X32705900Y86631600D02*
X34382700Y88308500D01*
X34382700Y88308500D02*
X37299800Y88308500D01*
%TO.N,12V*%
D19*
X23280100Y98875000D02*
X28390900Y93764300D01*
X28390900Y93764300D02*
X26723500Y93764300D01*
X26723500Y93764300D02*
X26632900Y93854900D01*
X22103100Y100271600D02*
X22855700Y99226900D01*
X22855700Y99226900D02*
X22860000Y99222700D01*
X22860000Y99222700D02*
X23207600Y98875000D01*
X22860000Y99060000D02*
X22860000Y99222700D01*
X23207600Y98875000D02*
X23280100Y98875000D01*
X22855700Y98875000D02*
X22855700Y99226900D01*
X21117500Y101257200D02*
X22103100Y100271600D01*
X22103100Y100271600D02*
X22860000Y99514700D01*
X23179700Y98875000D02*
X22855700Y98875000D01*
X24313100Y97741600D02*
X23179700Y98875000D01*
X23179700Y98875000D02*
X23207600Y98875000D01*
X22860000Y99222700D02*
X22860000Y99514700D01*
X24313100Y97769500D02*
X23207600Y98875000D01*
X24313100Y97741600D02*
X24313100Y97769500D01*
X22687200Y97925800D02*
X22687200Y98875000D01*
X22687200Y98875000D02*
X22687200Y99430100D01*
X22682000Y98875000D02*
X22687200Y98875000D01*
X22687200Y98875000D02*
X22855700Y98875000D01*
%TO.N,GND*%
X31603900Y93902500D02*
X31386400Y94120000D01*
X31386400Y94120000D02*
X30915200Y94120000D01*
X30915200Y94120000D02*
X30915200Y93721300D01*
X30915200Y93721300D02*
X31440700Y93195700D01*
X31440700Y93195700D02*
X31767000Y93195700D01*
X31767000Y93195700D02*
X32310700Y93739400D01*
X32310700Y93739400D02*
X32310700Y93975000D01*
X32310700Y93975000D02*
X31567600Y94718000D01*
%TO.N,$4N13252*%
D22*
X69424800Y104544400D02*
X63143700Y98263300D01*
X42820200Y98263300D02*
X41483600Y99599900D01*
X41483600Y99599900D02*
X41483600Y115414600D01*
X41483600Y115414600D02*
X45053500Y118984500D01*
X63143700Y98263300D02*
X42820200Y98263300D01*
X45053500Y125821500D02*
X46459600Y127227500D01*
X45053500Y125821500D02*
X45053500Y118984500D01*
%TO.N,V4*%
X39609400Y63159400D02*
X40510600Y62258200D01*
X35048000Y63158000D02*
X39609400Y63159400D01*
%TO.N,III-*%
X23284200Y60458300D02*
X22689200Y60458300D01*
X22689200Y60458300D02*
X22658400Y60489100D01*
%TO.N,II+*%
X22297400Y69992300D02*
X22426300Y69992300D01*
X22426300Y69992300D02*
X24090900Y68327700D01*
X24714800Y68334700D02*
X24684200Y68304100D01*
X24684200Y68304100D02*
X24344300Y68304100D01*
%TO.N,V6*%
X23958100Y49989100D02*
X24667200Y49989100D01*
X24667200Y49989100D02*
X24679700Y50001600D01*
%TO.N,III+*%
X22361700Y56548000D02*
X22528200Y56548000D01*
X22528200Y56548000D02*
X24021000Y55055200D01*
X25598300Y55355000D02*
X25549600Y55306200D01*
X25549600Y55306200D02*
X24005900Y55306200D01*
%TO.N,III-*%
X22409700Y58505300D02*
X24052900Y60148500D01*
X24052900Y60148500D02*
X24052900Y60414300D01*
X23138300Y58393600D02*
X23110700Y58365900D01*
X23110700Y58365900D02*
X22474400Y58365900D01*
%TO.N,3.3V*%
D25*
X106624800Y69077100D02*
X109135200Y69077100D01*
X109135200Y69077100D02*
X110204200Y68008100D01*
%TO.N,MECG_MISO*%
D18*
X118242800Y83947000D02*
X118231900Y83936100D01*
%TO.N,MIII-*%
D22*
X55685200Y127459700D02*
X56079000Y127065900D01*
X54654800Y127459700D02*
X55685200Y127459700D01*
X55685200Y127459700D02*
X55945500Y127459700D01*
X56091200Y127605500D02*
X56091200Y125960800D01*
%TO.N,MIII+*%
X56299400Y128896200D02*
X56087200Y128896200D01*
X56089200Y128898200D02*
X56049600Y128937800D01*
X56049600Y128937800D02*
X55945500Y129041900D01*
X55945500Y129041900D02*
X55945500Y129119900D01*
X55945500Y129119900D02*
X56118600Y129293000D01*
X56174500Y129062700D02*
X56299400Y128937800D01*
X56299400Y128937800D02*
X56299400Y128896200D01*
%TO.N,MII+*%
X56019500Y137355400D02*
X55970200Y137404700D01*
X55680600Y137466400D02*
X55992100Y137777800D01*
X54474300Y137466400D02*
X55680600Y137466400D01*
X55680600Y137466400D02*
X55954700Y137466400D01*
X55992100Y137777800D02*
X56019500Y137777800D01*
X56019500Y137777800D02*
X56024300Y137777800D01*
X56019500Y137401600D02*
X56019500Y137777800D01*
X56019500Y137777800D02*
X56019500Y138937600D01*
%TO.N,MII-*%
X56065800Y135654600D02*
X56313900Y135902700D01*
X56313900Y135902700D02*
X56316400Y135905200D01*
X56065800Y135902700D02*
X56065800Y135654600D01*
X56065800Y135902700D02*
X56313900Y135902700D01*
X56316400Y135902700D02*
X56756300Y135902700D01*
X55797600Y135902700D02*
X56065800Y135634500D01*
X56065800Y135634500D02*
X56069700Y135630600D01*
X54520600Y135902700D02*
X55797600Y135902700D01*
X55797600Y135902700D02*
X56065800Y135902700D01*
X56065800Y135654600D02*
X56065800Y135634500D01*
X56065800Y135634500D02*
X56065800Y134459300D01*
%TO.N,PDL+*%
X63948600Y126192500D02*
X71172500Y126192500D01*
X59181200Y121425100D02*
X63948600Y126192500D01*
X59181200Y112927000D02*
X59181200Y121425100D01*
X56368800Y110114600D02*
X59181200Y112927000D01*
X56256600Y110040500D02*
X54839000Y108622900D01*
X54839000Y108622900D02*
X54839000Y108542300D01*
%TO.N,PDL-*%
X59680800Y110315100D02*
X59553500Y110315100D01*
X59553500Y110315100D02*
X55494700Y106256300D01*
X55494700Y106256300D02*
X54939300Y106256300D01*
%TO.N,TOUCH_IRQ*%
D18*
X113102700Y95406700D02*
X117940500Y95406700D01*
X112509800Y95999600D02*
X113102700Y95406700D01*
%TO.N,12V*%
D19*
X26783100Y93830000D02*
X22687200Y97925800D01*
%TO.N,3.3V*%
D22*
X106608900Y70769600D02*
X106608900Y69055200D01*
X106608900Y69055200D02*
X106581000Y69027300D01*
%TO.N,GND*%
X99884900Y62957700D02*
X99884900Y64451900D01*
X99884900Y64451900D02*
X99949000Y64516000D01*
%TO.N,LINE_CF1S*%
X222377000Y77724000D02*
X222377000Y83612000D01*
X222377000Y83612000D02*
X223279400Y84514400D01*
%TO.N,ROW_23S*%
X224260400Y88387600D02*
X231348100Y88387600D01*
X231348100Y88387600D02*
X232665300Y87070400D01*
X232665300Y87070400D02*
X232665300Y81822500D01*
X232665300Y81822500D02*
X232749000Y81738900D01*
%TO.N,LINE_ADCH2*%
X223936300Y89558400D02*
X222790300Y89558400D01*
X222790300Y89558400D02*
X221615500Y88383700D01*
X221615500Y72790300D02*
X222859500Y71546300D01*
X221615500Y88383700D02*
X221615500Y72790300D01*
%TO.N,GND*%
D24*
X218598600Y91258800D02*
X218635800Y91221600D01*
X218635800Y91221600D02*
X218635800Y89632600D01*
%TO.N,PRINT_STB3*%
D18*
X125261000Y80157500D02*
X125261000Y74976200D01*
X125261000Y74976200D02*
X123126200Y72841400D01*
X123126200Y72841400D02*
X123126200Y68097500D01*
X123126200Y68097500D02*
X121929600Y66900900D01*
X109189800Y66900900D02*
X121929600Y66900900D01*
X109189800Y66900900D02*
X108970900Y67119700D01*
X108970900Y67119700D02*
X106694800Y67119700D01*
X106694800Y67119700D02*
X106663500Y67088400D01*
%TO.N,TOUCH_CLK*%
X121824200Y67155300D02*
X116859800Y67155300D01*
X116859800Y67155300D02*
X116480700Y67534400D01*
X110222600Y65850400D02*
X107060100Y65850400D01*
X110237100Y65864900D02*
X110222600Y65850400D01*
%TO.N,RGB_R3*%
X123786200Y102575900D02*
X123786200Y104796800D01*
X123786200Y104796800D02*
X123330900Y105252100D01*
X224276700Y83271700D02*
X226692700Y83271700D01*
X226692700Y83271700D02*
X227405100Y83984100D01*
X227405100Y83984100D02*
X227405100Y85650900D01*
X227405100Y85650900D02*
X227389200Y85666800D01*
%TO.N,PRINT_MB+*%
D25*
X118533900Y134354800D02*
X118168400Y133989400D01*
X118168400Y131073200D02*
X118028500Y130933300D01*
X118168400Y131073200D02*
X118168400Y133989400D01*
%TO.N,PRINT_MB-*%
X122398800Y134253800D02*
X118666100Y130521100D01*
X118666100Y129580200D02*
X118533900Y129448000D01*
X118666100Y129580200D02*
X118666100Y130521100D01*
%TO.N,PRINT_MA-*%
X122250700Y130140700D02*
X122250700Y129735700D01*
X122250700Y129735700D02*
X122055100Y129540200D01*
%TO.N,PRINT_MA+*%
X121398100Y130814500D02*
X121311500Y130727900D01*
X121311500Y129551100D02*
X121437100Y129425500D01*
X121437100Y129425500D02*
X121455800Y129406800D01*
X121437100Y130775400D02*
X121437100Y129425500D01*
X121311500Y129551100D02*
X121311500Y130727900D01*
X121437100Y129425500D02*
X121437100Y129040600D01*
%TO.N,I2S_SCK*%
D18*
X261217000Y20514500D02*
X261177800Y20553700D01*
X261177800Y20553700D02*
X261177800Y21317700D01*
X261177800Y21317700D02*
X260893700Y21601800D01*
%TO.N,I2S_SD*%
X257697500Y20333800D02*
X258370400Y21006800D01*
X258370400Y21006800D02*
X259490900Y21006800D01*
X259490900Y21006800D02*
X259693100Y20804600D01*
X259693100Y20804600D02*
X259693100Y20571300D01*
%TO.N,SDA*%
X262096700Y19019300D02*
X262981500Y19019300D01*
X262981500Y19019300D02*
X262986100Y19023900D01*
%TO.N,SCL*%
X262097300Y19499400D02*
X262289800Y19499400D01*
X262289800Y19499400D02*
X262506000Y19715600D01*
X262506000Y19715600D02*
X263623000Y19715600D01*
X263623000Y19715600D02*
X263891000Y19447500D01*
X263891000Y19447500D02*
X263891000Y18583400D01*
X263891000Y18583400D02*
X263917600Y18556800D01*
%TO.N,GND*%
X261406000Y17659000D02*
X261463000Y17602000D01*
X261463000Y17602000D02*
X261871700Y17602000D01*
X261016300Y17565700D02*
X261897600Y17565700D01*
X261897600Y17565700D02*
X261975400Y17487900D01*
X261016300Y17565700D02*
X261156300Y17425700D01*
X261156300Y17425700D02*
X262115400Y17425700D01*
X260751900Y17581200D02*
X260845200Y17581200D01*
X260845200Y17581200D02*
X261130400Y17296100D01*
X261130400Y17296100D02*
X262353800Y17296100D01*
X262353800Y17296100D02*
X262369400Y17311600D01*
X262369400Y17311600D02*
X262369400Y17513800D01*
X262369400Y17513800D02*
X262333100Y17550100D01*
X261003900Y18019300D02*
X261322700Y17700500D01*
X261322700Y17700500D02*
X261322700Y17659000D01*
X261322700Y17659000D02*
X261322700Y17583800D01*
X260990400Y17659000D02*
X261322700Y17659000D01*
X261322700Y17659000D02*
X261406000Y17659000D01*
D25*
X258922400Y19513400D02*
X259276800Y19159000D01*
X259276800Y19159000D02*
X259316400Y19159000D01*
X258604500Y19513400D02*
X258922400Y19513400D01*
X258922400Y19513400D02*
X259177300Y19513400D01*
X260213100Y19513400D02*
X260370500Y19356000D01*
X259661500Y19513400D02*
X259677200Y19513400D01*
X259677200Y19513400D02*
X259677200Y19013500D01*
X259703900Y19502400D02*
X259703900Y19427800D01*
X259677200Y19529100D02*
X259692900Y19513400D01*
X259692900Y19513400D02*
X259703900Y19502400D01*
X259677200Y19513400D02*
X259692900Y19513400D01*
X259692900Y19513400D02*
X260213100Y19513400D01*
X98251500Y107910100D02*
X99849800Y107910100D01*
X99849800Y107910100D02*
X99880800Y107879200D01*
X98282500Y107674700D02*
X99806400Y107674700D01*
X99806400Y107674700D02*
X99825000Y107656100D01*
%TO.N,3.3V*%
X103727400Y115191900D02*
X103727400Y113779400D01*
X103727400Y113779400D02*
X103662400Y113714400D01*
%TO.N,RGB_R3*%
D18*
X139140900Y120995100D02*
X140423300Y119712700D01*
X140423300Y119712700D02*
X140423300Y117245600D01*
X140423300Y117245600D02*
X134520300Y111342600D01*
X134520300Y111342600D02*
X132456500Y111342600D01*
X132456500Y111342600D02*
X130584400Y109470500D01*
X130584400Y109470500D02*
X128721100Y109470500D01*
X122408400Y105786700D02*
X122408400Y105205400D01*
X122408400Y105205400D02*
X123307700Y104306100D01*
X123307700Y104306100D02*
X123307700Y102233900D01*
X123307700Y102233900D02*
X123270500Y102196800D01*
%TO.N,D+*%
X99364500Y143622000D02*
X99364500Y128537800D01*
X105251200Y114423600D02*
X105095700Y114423600D01*
X105537200Y114709600D02*
X105251200Y114423600D01*
X105537200Y115224300D02*
X105537200Y114709600D01*
X99364500Y128537800D02*
X105689600Y122212800D01*
X105689600Y122212800D02*
X105689600Y115376700D01*
X105689600Y115376700D02*
X105537200Y115224300D01*
%TO.N,D-*%
X28575000Y147599400D02*
X28901200Y147599400D01*
X28901200Y147599400D02*
X29079000Y147421600D01*
X29079000Y147421600D02*
X29609600Y147421600D01*
X29609600Y147421600D02*
X29762000Y147574000D01*
X29762000Y147574000D02*
X29762000Y147609400D01*
X29762000Y147609400D02*
X29914400Y147761800D01*
X29914400Y147761800D02*
X30879600Y147761800D01*
X30879600Y147761800D02*
X31032000Y147609400D01*
X31032000Y147609400D02*
X31032000Y147574000D01*
X99669300Y143748200D02*
X99669300Y128664100D01*
X99669300Y128664100D02*
X105994400Y122339100D01*
X105994400Y122339100D02*
X105994400Y115250500D01*
X105994400Y115250500D02*
X105842000Y115098100D01*
X105842000Y115098100D02*
X105842000Y114709600D01*
X105842000Y114709600D02*
X106190200Y114361400D01*
X106190200Y114361400D02*
X106190200Y114336900D01*
%TO.N,MTX*%
X122019000Y110714100D02*
X120458500Y112274600D01*
X120458500Y112274600D02*
X103193700Y112274600D01*
X103193700Y112274600D02*
X102503700Y112964600D01*
X102503700Y112964600D02*
X102503700Y113152800D01*
%TO.N,MRX*%
X139817300Y85475400D02*
X138741100Y85475400D01*
X138741100Y85475400D02*
X138388000Y85828500D01*
X118368500Y110971300D02*
X117385800Y111954000D01*
X117385800Y111954000D02*
X101945400Y111954000D01*
X101945400Y111954000D02*
X101150900Y112748500D01*
X101150900Y112748500D02*
X101150900Y113605700D01*
X138388000Y85828500D02*
X123221100Y85828500D01*
X123221100Y85828500D02*
X122005600Y87044000D01*
X118368500Y102359700D02*
X118368500Y110971300D01*
X122005600Y87044000D02*
X122005600Y97437800D01*
X122005600Y97437800D02*
X120413900Y99029500D01*
X120413900Y99029500D02*
X120413900Y100314300D01*
X120413900Y100314300D02*
X118368500Y102359700D01*
%TO.N,I2S_SD*%
X115769300Y96139000D02*
X113792000Y96139000D01*
X118231900Y96435900D02*
X118132800Y96535000D01*
X118132800Y96535000D02*
X116165300Y96535000D01*
X116165300Y96535000D02*
X115769300Y96139000D01*
%TO.N,DEF_L*%
X117799300Y95948200D02*
X116715200Y95948200D01*
X116715200Y95948200D02*
X116665600Y95997700D01*
%TO.N,ADC_REF3.3*%
X118210500Y99919100D02*
X111475300Y99919100D01*
X111475300Y99919100D02*
X110563500Y100830900D01*
X110563500Y100830900D02*
X107822800Y100830900D01*
X107822800Y100830900D02*
X106524800Y99532900D01*
X106524800Y99532900D02*
X97246900Y99532900D01*
X97246900Y99532900D02*
X96023800Y100756000D01*
%TO.N,D+*%
X28575000Y146939000D02*
X30770800Y144743200D01*
X30770800Y144743200D02*
X98243300Y144743200D01*
X98243300Y144743200D02*
X99364500Y143622000D01*
%TO.N,D-*%
X31032000Y147574000D02*
X33558100Y145048000D01*
X33558100Y145048000D02*
X98369600Y145048000D01*
X98369600Y145048000D02*
X99669300Y143748200D01*
%TO.N,V1*%
D22*
X22350100Y44375100D02*
X25588500Y44375100D01*
%TO.N,AGND*%
D25*
X112891100Y97435900D02*
X118234700Y97435900D01*
X118234700Y97435900D02*
X119861100Y97435900D01*
%TO.N,GND*%
X138641600Y89435900D02*
X139834900Y89435900D01*
X139834900Y89435900D02*
X142494000Y89435900D01*
X120782100Y103251000D02*
X120782100Y101970500D01*
X120782100Y101970500D02*
X120782100Y100324900D01*
X132281900Y103198900D02*
X132281900Y101970500D01*
X132281900Y101970500D02*
X132281900Y100509100D01*
%TO.N,ADC_REF3.3*%
D22*
X119092900Y100592900D02*
X118318300Y100592900D01*
X119206500Y97920900D02*
X119602400Y98316800D01*
X119602400Y98316800D02*
X119602400Y100083500D01*
X119602400Y100083500D02*
X119092900Y100592900D01*
%TO.N,GND*%
D25*
X260035600Y63146800D02*
X261974300Y61208100D01*
X261974300Y61208100D02*
X262192200Y61208100D01*
X260062800Y81227500D02*
X262742200Y81227500D01*
X262742200Y81227500D02*
X262829400Y81140400D01*
%TO.N,LCD_10V*%
D21*
X12507900Y91564100D02*
X12060400Y92011700D01*
X12060400Y92011700D02*
X9379200Y94692900D01*
X9379200Y94692900D02*
X8463200Y94692900D01*
D24*
X84963000Y46871600D02*
X85725000Y46871600D01*
X84963000Y46871600D02*
X84304400Y46871600D01*
X84304400Y46871600D02*
X84295800Y46863000D01*
%TO.N,$4N6569*%
X67927900Y88768700D02*
X67927900Y89410200D01*
X67922300Y88763100D02*
X67927900Y88768700D01*
X67927900Y89410200D02*
X68262000Y89744300D01*
X68262000Y89744300D02*
X68964800Y89744300D01*
X68964800Y89744300D02*
X69188200Y89520900D01*
X69188200Y89520900D02*
X69188200Y88802500D01*
%TO.N,ECG_RESET*%
D22*
X63779100Y53038000D02*
X63678700Y52937600D01*
X63678700Y52937600D02*
X63249200Y52937600D01*
X63165500Y53406100D02*
X63171100Y53411700D01*
X63249200Y52937600D02*
X63243600Y52932000D01*
X63171100Y53411700D02*
X63667500Y53411700D01*
X63667500Y53411700D02*
X63779100Y53300100D01*
X63779100Y53300100D02*
X63779100Y53038000D01*
%TO.N,ROW_C51*%
D26*
X251141500Y37360400D02*
X253635400Y37360400D01*
%TO.N,LINE_ADCH2*%
X239205300Y66052300D02*
X236542900Y63389900D01*
%TO.N,3.3V*%
D28*
X106524800Y69050400D02*
X105425900Y69050400D01*
X105425900Y69050400D02*
X105280800Y68905400D01*
X105280800Y68905400D02*
X105280800Y68593000D01*
X105280800Y68593000D02*
X105470500Y68403300D01*
X105470500Y68403300D02*
X106301600Y68403300D01*
X106301600Y68403300D02*
X106323900Y68425600D01*
%TO.N,A3.3*%
D25*
X54610000Y57912000D02*
X54908800Y57912000D01*
D28*
X55767100Y56964200D02*
X55767100Y57451400D01*
X55767100Y57451400D02*
X55670400Y57548100D01*
X55294800Y57548100D02*
X55283800Y57537000D01*
X55283800Y57537000D02*
X55253900Y57507200D01*
D25*
X54908800Y57912000D02*
X55283800Y57537000D01*
X55283800Y57537000D02*
X55289800Y57531000D01*
D28*
X55488200Y57549300D02*
X55486900Y57548100D01*
X55486900Y57548100D02*
X55337000Y57398100D01*
X55670400Y57548100D02*
X55486900Y57548100D01*
X55486900Y57548100D02*
X55294800Y57548100D01*
D25*
X55289800Y55693500D02*
X55289800Y57531000D01*
%TO.N,AGND*%
D18*
X51435000Y56515000D02*
X53250900Y56515000D01*
X53250900Y56515000D02*
X53257800Y56522000D01*
D28*
X53263400Y55445400D02*
X53263400Y55261300D01*
X53263400Y55261300D02*
X53419600Y55105100D01*
X53419600Y55105100D02*
X53598100Y55105100D01*
X53598100Y55105100D02*
X53782200Y55289200D01*
X53782200Y55289200D02*
X53782200Y55953000D01*
X53782200Y55953000D02*
X53793300Y55964200D01*
%TO.N,$1N6305*%
D22*
X53800300Y45736600D02*
X53800300Y46216300D01*
X53800300Y46216300D02*
X53930500Y46346500D01*
X53930500Y46346500D02*
X54131300Y46346500D01*
X54131300Y46346500D02*
X54281900Y46195900D01*
X54281900Y46195900D02*
X54281900Y45794200D01*
X54281900Y45794200D02*
X54272600Y45784900D01*
%TO.N,AGND*%
D25*
X56703900Y47111400D02*
X56291900Y46699400D01*
X58773100Y45123100D02*
X58755900Y45140200D01*
X58755900Y45140200D02*
X58755900Y46413700D01*
X58755900Y46413700D02*
X58649000Y46520600D01*
X58649000Y46520600D02*
X58649000Y46555100D01*
X58649000Y46555100D02*
X58092600Y47111400D01*
X58092600Y47111400D02*
X56703900Y47111400D01*
X56291900Y46699400D02*
X56291900Y44114000D01*
X56291900Y44114000D02*
X56717900Y43688000D01*
X56717900Y43688000D02*
X56769000Y43688000D01*
D22*
X56811400Y43711300D02*
X56811400Y44388100D01*
X56811400Y44388100D02*
X56770500Y44429000D01*
X56763100Y44109200D02*
X56547400Y43893500D01*
X56547400Y43893500D02*
X56525100Y43893500D01*
%TO.N,A3.3*%
X78792000Y105238700D02*
X78792000Y104900300D01*
X78661800Y104770100D02*
X77996200Y104770100D01*
X78792000Y104900300D02*
X78661800Y104770100D01*
%TO.N,3.3V*%
X120788600Y81224500D02*
X120788600Y81525700D01*
X120788600Y81525700D02*
X120654700Y81659600D01*
X120654700Y81659600D02*
X120420400Y81659600D01*
X120275400Y81514600D02*
X120275400Y81023700D01*
X120420400Y81659600D02*
X120275400Y81514600D01*
%TO.N,$6N33304*%
D20*
X224257000Y87080600D02*
X225160600Y87080600D01*
X225160600Y87080600D02*
X225625000Y86616200D01*
X225625000Y86616200D02*
X225625000Y86214600D01*
X225625000Y86214600D02*
X225204600Y85794100D01*
X225204600Y85794100D02*
X224633500Y85794100D01*
%TO.N,3.3V*%
D25*
X142170400Y126461900D02*
X142170400Y127114500D01*
X142170400Y127114500D02*
X142371200Y127315300D01*
X142371200Y127315300D02*
X142685000Y127315300D01*
X142885800Y127114500D02*
X142885800Y126487000D01*
X142685000Y127315300D02*
X142885800Y127114500D01*
%TO.N,MECG_RESET*%
D22*
X82108800Y128712100D02*
X81071300Y128712100D01*
X81071300Y128712100D02*
X80937400Y128846000D01*
X80937400Y128846000D02*
X80937400Y129046800D01*
X81138200Y129247600D02*
X81763000Y129247600D01*
X80937400Y129046800D02*
X81138200Y129247600D01*
%TO.N,$4N2324*%
X75859800Y119418600D02*
X76224200Y119418600D01*
X76224200Y119418600D02*
X76313500Y119507800D01*
X76313500Y119507800D02*
X76313500Y120474700D01*
X76313500Y120474700D02*
X76332100Y120493300D01*
%TO.N,$4N2370*%
X73365400Y121626600D02*
X73365400Y121950100D01*
X73365400Y121950100D02*
X73499300Y122084000D01*
X73499300Y122084000D02*
X73718700Y122084000D01*
X73718700Y122084000D02*
X73837700Y121965000D01*
X73837700Y121965000D02*
X73837700Y121403500D01*
%TO.N,AGND*%
D25*
X73406000Y133165900D02*
X73336100Y133096000D01*
X73406000Y133350000D02*
X73406000Y133165900D01*
X73336100Y132186100D02*
X73348400Y132173800D01*
X73336100Y133096000D02*
X73336100Y132186100D01*
D22*
X73434400Y133433900D02*
X72988200Y133433900D01*
X72988200Y133433900D02*
X72837600Y133283300D01*
X72837600Y133283300D02*
X72837600Y132284800D01*
X72837600Y132284800D02*
X72832000Y132279300D01*
X75224500Y130720400D02*
X75336100Y130832000D01*
X75336100Y130832000D02*
X75336100Y131460500D01*
X75336100Y131460500D02*
X75332300Y131464200D01*
X74871200Y130884000D02*
X74982800Y130772500D01*
X74982800Y130772500D02*
X74982800Y130768800D01*
X74882400Y130601400D02*
X74837700Y130601400D01*
X75031100Y130750200D02*
X75001400Y130720400D01*
X75001400Y130720400D02*
X74882400Y130601400D01*
X74845200Y130720400D02*
X75001400Y130720400D01*
X75001400Y130720400D02*
X75224500Y130720400D01*
%TO.N,3V3SGM*%
X50457300Y85868400D02*
X50457300Y86710700D01*
X50457300Y86710700D02*
X50563300Y86816700D01*
X50825500Y86816700D02*
X50836600Y86805500D01*
X50669300Y86811100D02*
X50674900Y86816700D01*
X50674900Y86816700D02*
X50858900Y87000800D01*
X50563300Y86816700D02*
X50674900Y86816700D01*
X50689700Y86829300D02*
X50702300Y86816700D01*
X50674900Y86816700D02*
X50702300Y86816700D01*
X50724600Y86816700D02*
X50907200Y86634200D01*
X50702300Y86816700D02*
X50724600Y86816700D01*
X50724600Y86816700D02*
X50825500Y86816700D01*
X50907200Y89307300D02*
X50907200Y86634200D01*
X50907200Y85299800D02*
X50907200Y86634200D01*
%TO.N,LCD_LED*%
D20*
X90261000Y49520400D02*
X91428200Y48353100D01*
X91428200Y48353100D02*
X93172800Y48353100D01*
%TO.N,$3N86567*%
X92595500Y50348700D02*
X92080900Y50863300D01*
X90060200Y50863300D02*
X89206700Y51716800D01*
X92080900Y50863300D02*
X90060200Y50863300D01*
%TO.N,LCD_10V*%
X92507600Y51955300D02*
X91403100Y51955300D01*
X91403100Y51955300D02*
X91315300Y52043100D01*
%TO.N,$3N86567*%
X89118900Y51867400D02*
X87336700Y51867400D01*
X87336700Y51867400D02*
X86533400Y51064100D01*
X86470700Y49332100D02*
X87299000Y48503800D01*
X87299000Y48503800D02*
X88102300Y48503800D01*
%TD*%
M02*
