%TF.GenerationSoftware,KiCad,Pcbnew,10.99.0-unknown*%
%TF.CreationDate,2026-08-12T15:27:21+08:00*%
%TF.ProjectId,______12_____,c335d1a4-082b-4313-92fc-549ffd092e6b,rev?*%
%TF.SameCoordinates,Original*%
%TF.FileFunction,Other,User*%
%FSLAX46Y46*%
G04 Gerber Fmt 4.6, Leading zero omitted, Abs format (unit mm)*
G04 Created by KiCad (PCBNEW 10.99.0-unknown) date 2026-08-12 15:27:21*
%MOMM*%
%LPD*%
G01*
G04 APERTURE LIST*
%ADD10C,0.050000*%
G04 APERTURE END LIST*
%TO.C,DSUB1*%
D10*
X6960000Y67222000D02*
X13360000Y67222000D01*
X13360000Y61302000D01*
X6960000Y61302000D01*
X6960000Y67222000D01*
%TO.C,C1*%
X21868000Y69176000D02*
X24868000Y69176000D01*
X24868000Y67476000D01*
X21868000Y67476000D01*
X21868000Y69176000D01*
%TO.C,C186*%
X21933621Y74309350D02*
X24933621Y74309350D01*
X24933621Y72609350D01*
X21933621Y72609350D01*
X21933621Y74309350D01*
%TO.C,C188*%
X21741986Y56077736D02*
X24741986Y56077736D01*
X24741986Y54377736D01*
X21741986Y54377736D01*
X21741986Y56077736D01*
%TO.C,C189*%
X23137252Y45208688D02*
X24837252Y45208688D01*
X24837252Y42208688D01*
X23137252Y42208688D01*
X23137252Y45208688D01*
%TO.C,C191*%
X35893447Y67577851D02*
X37593447Y67577851D01*
X37593447Y64577851D01*
X35893447Y64577851D01*
X35893447Y67577851D01*
%TO.C,C192*%
X35857950Y63996720D02*
X37557950Y63996720D01*
X37557950Y60996720D01*
X35857950Y60996720D01*
X35857950Y63996720D01*
%TO.C,C194*%
X23838112Y52203678D02*
X25538112Y52203678D01*
X25538112Y49203678D01*
X23838112Y49203678D01*
X23838112Y52203678D01*
%TO.C,C19*%
X56793000Y42887000D02*
X59793000Y42887000D01*
X59793000Y41187000D01*
X56793000Y41187000D01*
X56793000Y42887000D01*
%TO.C,C20*%
X59602000Y62079000D02*
X61302000Y62079000D01*
X61302000Y59079000D01*
X59602000Y59079000D01*
X59602000Y62079000D01*
%TO.C,C21*%
X56300000Y62079000D02*
X58000000Y62079000D01*
X58000000Y59079000D01*
X56300000Y59079000D01*
X56300000Y62079000D01*
%TO.C,C22*%
X57951000Y62079000D02*
X59651000Y62079000D01*
X59651000Y59079000D01*
X57951000Y59079000D01*
X57951000Y62079000D01*
%TO.C,C23*%
X54654410Y62117583D02*
X56354410Y62117583D01*
X56354410Y59117583D01*
X54654410Y59117583D01*
X54654410Y62117583D01*
%TO.C,C24*%
X53067609Y62117583D02*
X54767609Y62117583D01*
X54767609Y59117583D01*
X53067609Y59117583D01*
X53067609Y62117583D01*
%TO.C,C25*%
X52411487Y41006930D02*
X55411487Y41006930D01*
X55411487Y39306930D01*
X52411487Y39306930D01*
X52411487Y41006930D01*
%TO.C,C26*%
X59968000Y41363000D02*
X62968000Y41363000D01*
X62968000Y39663000D01*
X59968000Y39663000D01*
X59968000Y41363000D01*
%TO.C,C27*%
X59985183Y42987127D02*
X62985183Y42987127D01*
X62985183Y41287127D01*
X59985183Y41287127D01*
X59985183Y42987127D01*
%TO.C,C28*%
X47268000Y45935000D02*
X50268000Y45935000D01*
X50268000Y44235000D01*
X47268000Y44235000D01*
X47268000Y45935000D01*
%TO.C,C34*%
X50077000Y62079000D02*
X51777000Y62079000D01*
X51777000Y59079000D01*
X50077000Y59079000D01*
X50077000Y62079000D01*
%TO.C,C37*%
X48426000Y62079000D02*
X50126000Y62079000D01*
X50126000Y59079000D01*
X48426000Y59079000D01*
X48426000Y62079000D01*
%TO.C,SW2*%
X99787647Y98805794D02*
X103237647Y98805794D01*
X103237647Y95355794D01*
X99787647Y95355794D01*
X99787647Y98805794D01*
%TO.C,C47*%
X113825590Y99632537D02*
X115525590Y99632537D01*
X115525590Y96632537D01*
X113825590Y96632537D01*
X113825590Y99632537D01*
%TO.C,USB1*%
X1264000Y144292000D02*
X6864000Y144292000D01*
X6864000Y139172000D01*
X1264000Y139172000D01*
X1264000Y144292000D01*
%TO.C,U5*%
X11263948Y146982344D02*
X20863948Y146982344D01*
X20863948Y137862344D01*
X11263948Y137862344D01*
X11263948Y146982344D01*
%TO.C,C41*%
X16026000Y133565000D02*
X19026000Y133565000D01*
X19026000Y131865000D01*
X16026000Y131865000D01*
X16026000Y133565000D01*
%TO.C,L1*%
X15518000Y137375000D02*
X18518000Y137375000D01*
X18518000Y135675000D01*
X15518000Y135675000D01*
X15518000Y137375000D01*
%TO.C,U6*%
X16041000Y62460000D02*
X17741000Y62460000D01*
X17741000Y59460000D01*
X16041000Y59460000D01*
X16041000Y62460000D01*
%TO.C,U7*%
X16027121Y76153760D02*
X17727121Y76153760D01*
X17727121Y73153760D01*
X16027121Y73153760D01*
X16027121Y76153760D01*
%TO.C,U8*%
X7898000Y42125000D02*
X10898000Y42125000D01*
X10898000Y40425000D01*
X7898000Y40425000D01*
X7898000Y42125000D01*
%TO.C,U9*%
X16041000Y68937000D02*
X17741000Y68937000D01*
X17741000Y65937000D01*
X16041000Y65937000D01*
X16041000Y68937000D01*
%TO.C,U10*%
X16041000Y48363000D02*
X17741000Y48363000D01*
X17741000Y45363000D01*
X16041000Y45363000D01*
X16041000Y48363000D01*
%TO.C,U11*%
X27090000Y81256000D02*
X28790000Y81256000D01*
X28790000Y78256000D01*
X27090000Y78256000D01*
X27090000Y81256000D01*
%TO.C,U12*%
X28995000Y69318000D02*
X30695000Y69318000D01*
X30695000Y66318000D01*
X28995000Y66318000D01*
X28995000Y69318000D01*
%TO.C,U13*%
X28995000Y62206000D02*
X30695000Y62206000D01*
X30695000Y59206000D01*
X28995000Y59206000D01*
X28995000Y62206000D01*
%TO.C,U14*%
X29757000Y55729000D02*
X31457000Y55729000D01*
X31457000Y52729000D01*
X29757000Y52729000D01*
X29757000Y55729000D01*
%TO.C,U15*%
X16041000Y55475000D02*
X17741000Y55475000D01*
X17741000Y52475000D01*
X16041000Y52475000D01*
X16041000Y55475000D01*
%TO.C,LED1*%
X381327Y135779291D02*
X3381327Y135779291D01*
X3381327Y134079291D01*
X381327Y134079291D01*
X381327Y135779291D01*
%TO.C,LED2*%
X405000Y134073000D02*
X3405000Y134073000D01*
X3405000Y132373000D01*
X405000Y132373000D01*
X405000Y134073000D01*
%TO.C,LED3*%
X405000Y132295000D02*
X3405000Y132295000D01*
X3405000Y130595000D01*
X405000Y130595000D01*
X405000Y132295000D01*
%TO.C,LED4*%
X409191Y130489522D02*
X3409191Y130489522D01*
X3409191Y128789522D01*
X409191Y128789522D01*
X409191Y130489522D01*
%TO.C,C42*%
X6120000Y125310000D02*
X9120000Y125310000D01*
X9120000Y123610000D01*
X6120000Y123610000D01*
X6120000Y125310000D01*
%TO.C,C43*%
X3834000Y112737000D02*
X6834000Y112737000D01*
X6834000Y111037000D01*
X3834000Y111037000D01*
X3834000Y112737000D01*
%TO.C,C44*%
X6120000Y127342000D02*
X9120000Y127342000D01*
X9120000Y125642000D01*
X6120000Y125642000D01*
X6120000Y127342000D01*
%TO.C,C45*%
X3834000Y110959000D02*
X6834000Y110959000D01*
X6834000Y109259000D01*
X3834000Y109259000D01*
X3834000Y110959000D01*
%TO.C,X2*%
X107622000Y96594000D02*
X111072000Y96594000D01*
X111072000Y93144000D01*
X107622000Y93144000D01*
X107622000Y96594000D01*
%TO.C,C48*%
X110275000Y86463000D02*
X111975000Y86463000D01*
X111975000Y83463000D01*
X110275000Y83463000D01*
X110275000Y86463000D01*
%TO.C,C49*%
X110402000Y89892000D02*
X112102000Y89892000D01*
X112102000Y86892000D01*
X110402000Y86892000D01*
X110402000Y89892000D01*
%TO.C,C50*%
X106577000Y93179000D02*
X109577000Y93179000D01*
X109577000Y91479000D01*
X106577000Y91479000D01*
X106577000Y93179000D01*
%TO.C,C51*%
X109132000Y99925000D02*
X110832000Y99925000D01*
X110832000Y96925000D01*
X109132000Y96925000D01*
X109132000Y99925000D01*
%TO.C,C46*%
X112037653Y99632537D02*
X113737653Y99632537D01*
X113737653Y96632537D01*
X112037653Y96632537D01*
X112037653Y99632537D01*
%TO.C,X1*%
X108116000Y88622000D02*
X109816000Y88622000D01*
X109816000Y85622000D01*
X108116000Y85622000D01*
X108116000Y88622000D01*
%TO.C,Q1*%
X86598694Y48520694D02*
X89780694Y48520694D01*
X89780694Y45570694D01*
X86598694Y45570694D01*
X86598694Y48520694D01*
%TO.C,C52*%
X92480000Y47078000D02*
X95480000Y47078000D01*
X95480000Y45378000D01*
X92480000Y45378000D01*
X92480000Y47078000D01*
%TO.C,U18*%
X3330723Y102425635D02*
X7067123Y102425635D01*
X7067123Y98335635D01*
X3330723Y98335635D01*
X3330723Y102425635D01*
%TO.C,L2*%
X10265919Y102679838D02*
X11965919Y102679838D01*
X11965919Y99679838D01*
X10265919Y99679838D01*
X10265919Y102679838D01*
%TO.C,D1*%
X7523923Y99340635D02*
X9223923Y99340635D01*
X9223923Y96340635D01*
X7523923Y96340635D01*
X7523923Y99340635D01*
%TO.C,D2*%
X18385567Y95748565D02*
X21567567Y95748565D01*
X21567567Y92798565D01*
X18385567Y92798565D01*
X18385567Y95748565D01*
%TO.C,D3*%
X13760923Y93589635D02*
X16710923Y93589635D01*
X16710923Y90407635D01*
X13760923Y90407635D01*
X13760923Y93589635D01*
%TO.C,C53*%
X17550000Y98259000D02*
X20550000Y98259000D01*
X20550000Y96559000D01*
X17550000Y96559000D01*
X17550000Y98259000D01*
%TO.C,C54*%
X15778923Y98451635D02*
X17478923Y98451635D01*
X17478923Y95451635D01*
X15778923Y95451635D01*
X15778923Y98451635D01*
%TO.C,C55*%
X3825923Y105548635D02*
X6825923Y105548635D01*
X6825923Y103848635D01*
X3825923Y103848635D01*
X3825923Y105548635D01*
%TO.C,C56*%
X6238923Y95642635D02*
X9238923Y95642635D01*
X9238923Y93942635D01*
X6238923Y93942635D01*
X6238923Y95642635D01*
%TO.C,C57*%
X13604923Y81545635D02*
X16604923Y81545635D01*
X16604923Y79845635D01*
X13604923Y79845635D01*
X13604923Y81545635D01*
%TO.C,D5*%
X17795923Y85863635D02*
X20795923Y85863635D01*
X20795923Y84163635D01*
X17795923Y84163635D01*
X17795923Y85863635D01*
%TO.C,C58*%
X18430923Y92086635D02*
X21430923Y92086635D01*
X21430923Y90386635D01*
X18430923Y90386635D01*
X18430923Y92086635D01*
%TO.C,C59*%
X18557923Y80402635D02*
X21557923Y80402635D01*
X21557923Y78702635D01*
X18557923Y78702635D01*
X18557923Y80402635D01*
%TO.C,-7.5V*%
X19731923Y80132635D02*
X23431923Y80132635D01*
X23431923Y76432635D01*
X19731923Y76432635D01*
X19731923Y80132635D01*
%TO.C,16V*%
X14285477Y81044665D02*
X17985477Y81044665D01*
X17985477Y77344665D01*
X14285477Y77344665D01*
X14285477Y81044665D01*
%TO.C,10V*%
X11045207Y92891924D02*
X14745207Y92891924D01*
X14745207Y89191924D01*
X11045207Y89191924D01*
X11045207Y92891924D01*
%TO.C,D6*%
X12969923Y85736635D02*
X15969923Y85736635D01*
X15969923Y84036635D01*
X12969923Y84036635D01*
X12969923Y85736635D01*
%TO.C,C60*%
X7635923Y89038635D02*
X10635923Y89038635D01*
X10635923Y87338635D01*
X7635923Y87338635D01*
X7635923Y89038635D01*
%TO.C,U19*%
X145428000Y77344000D02*
X150228000Y77344000D01*
X150228000Y73824000D01*
X145428000Y73824000D01*
X145428000Y77344000D01*
%TO.C,C102*%
X256310000Y13931000D02*
X259310000Y13931000D01*
X259310000Y12231000D01*
X256310000Y12231000D01*
X256310000Y13931000D01*
%TO.C,C103*%
X256310000Y15709000D02*
X259310000Y15709000D01*
X259310000Y14009000D01*
X256310000Y14009000D01*
X256310000Y15709000D01*
%TO.C,INFO*%
X125800560Y74734348D02*
X129500560Y74734348D01*
X129500560Y71034348D01*
X125800560Y71034348D01*
X125800560Y74734348D01*
%TO.C,WARN*%
X130869661Y74540152D02*
X134569661Y74540152D01*
X134569661Y70840152D01*
X130869661Y70840152D01*
X130869661Y74540152D01*
%TO.C,SERIOUS*%
X128197426Y74820962D02*
X131897426Y74820962D01*
X131897426Y71120962D01*
X128197426Y71120962D01*
X128197426Y74820962D01*
%TO.C,GND*%
X134167000Y74621000D02*
X137867000Y74621000D01*
X137867000Y70921000D01*
X134167000Y70921000D01*
X134167000Y74621000D01*
%TO.C,U29*%
X100959000Y69362000D02*
X106559000Y69362000D01*
X106559000Y64242000D01*
X100959000Y64242000D01*
X100959000Y69362000D01*
%TO.C,CN1*%
X118063064Y136698911D02*
X121513064Y136698911D01*
X121513064Y133248911D01*
X118063064Y133248911D01*
X118063064Y136698911D01*
%TO.C,U31*%
X106716100Y136152227D02*
X110156000Y136152227D01*
X110156000Y132609827D01*
X106716100Y132609827D01*
X106716100Y136152227D01*
%TO.C,U32*%
X120328385Y130533368D02*
X123848385Y130533368D01*
X123848385Y125733368D01*
X120328385Y125733368D01*
X120328385Y130533368D01*
%TO.C,U33*%
X116881643Y130532606D02*
X120401643Y130532606D01*
X120401643Y125732606D01*
X116881643Y125732606D01*
X116881643Y130532606D01*
%TO.C,KEY+*%
X20895279Y140878896D02*
X26595279Y140878896D01*
X26595279Y137178896D01*
X20895279Y137178896D01*
X20895279Y140878896D01*
%TO.C,KEY-*%
X20835901Y136821579D02*
X26535901Y136821579D01*
X26535901Y133121579D01*
X20835901Y133121579D01*
X20835901Y136821579D01*
%TO.C,U30*%
X16184000Y115515000D02*
X21154000Y115515000D01*
X21154000Y110545000D01*
X16184000Y110545000D01*
X16184000Y115515000D01*
%TO.C,C104*%
X15502506Y120859590D02*
X18502506Y120859590D01*
X18502506Y119159590D01*
X15502506Y119159590D01*
X15502506Y120859590D01*
%TO.C,C105*%
X15502506Y119081590D02*
X18502506Y119081590D01*
X18502506Y117381590D01*
X15502506Y117381590D01*
X15502506Y119081590D01*
%TO.C,R81*%
X19455000Y119087000D02*
X22455000Y119087000D01*
X22455000Y117387000D01*
X19455000Y117387000D01*
X19455000Y119087000D01*
%TO.C,L3*%
X28487000Y109704000D02*
X30187000Y109704000D01*
X30187000Y106704000D01*
X28487000Y106704000D01*
X28487000Y109704000D01*
%TO.C,C106*%
X15899000Y108673000D02*
X18899000Y108673000D01*
X18899000Y106973000D01*
X15899000Y106973000D01*
X15899000Y108673000D01*
%TO.C,D7*%
X20232000Y104751000D02*
X21932000Y104751000D01*
X21932000Y101751000D01*
X20232000Y101751000D01*
X20232000Y104751000D01*
%TO.C,C107*%
X17692000Y101957000D02*
X19392000Y101957000D01*
X19392000Y98957000D01*
X17692000Y98957000D01*
X17692000Y101957000D01*
%TO.C,C108*%
X15880919Y101984257D02*
X17580919Y101984257D01*
X17580919Y98984257D01*
X15880919Y98984257D01*
X15880919Y101984257D01*
%TO.C,12V*%
X10783894Y114756904D02*
X14483894Y114756904D01*
X14483894Y111056904D01*
X10783894Y111056904D01*
X10783894Y114756904D01*
%TO.C,3.9V*%
X8383279Y88596225D02*
X12083279Y88596225D01*
X12083279Y84896225D01*
X8383279Y84896225D01*
X8383279Y88596225D01*
%TO.C,5V_OUT*%
X9197608Y144825282D02*
X12897608Y144825282D01*
X12897608Y141125282D01*
X9197608Y141125282D01*
X9197608Y144825282D01*
%TO.C,U20*%
X69781100Y133291900D02*
X83380900Y133291900D01*
X83380900Y119692100D01*
X69781100Y119692100D01*
X69781100Y133291900D01*
%TO.C,C62*%
X53745000Y139788000D02*
X56745000Y139788000D01*
X56745000Y138088000D01*
X53745000Y138088000D01*
X53745000Y139788000D01*
%TO.C,C63*%
X53760494Y135216000D02*
X56760494Y135216000D01*
X56760494Y133516000D01*
X53760494Y133516000D01*
X53760494Y135216000D01*
%TO.C,C65*%
X53872000Y131406000D02*
X56872000Y131406000D01*
X56872000Y129706000D01*
X53872000Y129706000D01*
X53872000Y131406000D01*
%TO.C,C66*%
X53872000Y126834000D02*
X56872000Y126834000D01*
X56872000Y125134000D01*
X53872000Y125134000D01*
X53872000Y126834000D01*
%TO.C,C69*%
X55030000Y121261000D02*
X56730000Y121261000D01*
X56730000Y118261000D01*
X55030000Y118261000D01*
X55030000Y121261000D01*
%TO.C,C80*%
X75081000Y118960000D02*
X78081000Y118960000D01*
X78081000Y117260000D01*
X75081000Y117260000D01*
X75081000Y118960000D01*
%TO.C,C81*%
X79795000Y137517000D02*
X81495000Y137517000D01*
X81495000Y134517000D01*
X79795000Y134517000D01*
X79795000Y137517000D01*
%TO.C,C82*%
X76493000Y137517000D02*
X78193000Y137517000D01*
X78193000Y134517000D01*
X76493000Y134517000D01*
X76493000Y137517000D01*
%TO.C,C83*%
X78144000Y137517000D02*
X79844000Y137517000D01*
X79844000Y134517000D01*
X78144000Y134517000D01*
X78144000Y137517000D01*
%TO.C,C84*%
X73191000Y137517000D02*
X74891000Y137517000D01*
X74891000Y134517000D01*
X73191000Y134517000D01*
X73191000Y137517000D01*
%TO.C,C85*%
X74842000Y137517000D02*
X76542000Y137517000D01*
X76542000Y134517000D01*
X74842000Y134517000D01*
X74842000Y137517000D01*
%TO.C,C86*%
X71799757Y118193103D02*
X74799757Y118193103D01*
X74799757Y116493103D01*
X71799757Y116493103D01*
X71799757Y118193103D01*
%TO.C,C87*%
X78604252Y119784997D02*
X81604252Y119784997D01*
X81604252Y118084997D01*
X78604252Y118084997D01*
X78604252Y119784997D01*
%TO.C,C88*%
X78604252Y118205587D02*
X81604252Y118205587D01*
X81604252Y116505587D01*
X78604252Y116505587D01*
X78604252Y118205587D01*
%TO.C,C89*%
X67835833Y120962254D02*
X70835833Y120962254D01*
X70835833Y119262254D01*
X67835833Y119262254D01*
X67835833Y120962254D01*
%TO.C,U21*%
X48045000Y126468000D02*
X49745000Y126468000D01*
X49745000Y123468000D01*
X48045000Y123468000D01*
X48045000Y126468000D01*
%TO.C,U22*%
X48045000Y134723000D02*
X49745000Y134723000D01*
X49745000Y131723000D01*
X48045000Y131723000D01*
X48045000Y134723000D01*
%TO.C,U23*%
X63158000Y119864000D02*
X64858000Y119864000D01*
X64858000Y116864000D01*
X63158000Y116864000D01*
X63158000Y119864000D01*
%TO.C,U24*%
X48045000Y141581000D02*
X49745000Y141581000D01*
X49745000Y138581000D01*
X48045000Y138581000D01*
X48045000Y141581000D01*
%TO.C,U25*%
X48045000Y119483000D02*
X49745000Y119483000D01*
X49745000Y116483000D01*
X48045000Y116483000D01*
X48045000Y119483000D01*
%TO.C,U26*%
X48045000Y113006000D02*
X49745000Y113006000D01*
X49745000Y110006000D01*
X48045000Y110006000D01*
X48045000Y113006000D01*
%TO.C,U27*%
X48045000Y103989000D02*
X49745000Y103989000D01*
X49745000Y100989000D01*
X48045000Y100989000D01*
X48045000Y103989000D01*
%TO.C,C99*%
X54126000Y110959000D02*
X57126000Y110959000D01*
X57126000Y109259000D01*
X54126000Y109259000D01*
X54126000Y110959000D01*
%TO.C,C100*%
X54126000Y104863000D02*
X57126000Y104863000D01*
X57126000Y103163000D01*
X54126000Y103163000D01*
X54126000Y104863000D01*
%TO.C,C61*%
X99658624Y90880328D02*
X102658624Y90880328D01*
X102658624Y89180328D01*
X99658624Y89180328D01*
X99658624Y90880328D01*
%TO.C,U28*%
X256577326Y21873410D02*
X263777326Y21873410D01*
X263777326Y15153410D01*
X256577326Y15153410D01*
X256577326Y21873410D01*
%TO.C,C109*%
X106055015Y131196508D02*
X109055015Y131196508D01*
X109055015Y129496508D01*
X106055015Y129496508D01*
X106055015Y131196508D01*
%TO.C,R93*%
X55644361Y89517133D02*
X58644361Y89517133D01*
X58644361Y87817133D01*
X55644361Y87817133D01*
X55644361Y89517133D01*
%TO.C,C110*%
X55644361Y92692133D02*
X58644361Y92692133D01*
X58644361Y90992133D01*
X55644361Y90992133D01*
X55644361Y92692133D01*
%TO.C,C111*%
X55644361Y91041133D02*
X58644361Y91041133D01*
X58644361Y89341133D01*
X55644361Y89341133D01*
X55644361Y91041133D01*
%TO.C,L81*%
X64428000Y80875000D02*
X66128000Y80875000D01*
X66128000Y77875000D01*
X64428000Y77875000D01*
X64428000Y80875000D01*
%TO.C,C113*%
X63031000Y80875000D02*
X64731000Y80875000D01*
X64731000Y77875000D01*
X63031000Y77875000D01*
X63031000Y80875000D01*
%TO.C,C114*%
X62904000Y77319000D02*
X64604000Y77319000D01*
X64604000Y74319000D01*
X62904000Y74319000D01*
X62904000Y77319000D01*
%TO.C,C115*%
X69112000Y79463000D02*
X72112000Y79463000D01*
X72112000Y77763000D01*
X69112000Y77763000D01*
X69112000Y79463000D01*
%TO.C,R94*%
X69112000Y80987000D02*
X72112000Y80987000D01*
X72112000Y79287000D01*
X69112000Y79287000D01*
X69112000Y80987000D01*
%TO.C,R95*%
X61380000Y77319000D02*
X63080000Y77319000D01*
X63080000Y74319000D01*
X61380000Y74319000D01*
X61380000Y77319000D01*
%TO.C,R96*%
X59983000Y77319000D02*
X61683000Y77319000D01*
X61683000Y74319000D01*
X59983000Y74319000D01*
X59983000Y77319000D01*
%TO.C,Q80*%
X56448000Y76790000D02*
X59630000Y76790000D01*
X59630000Y73840000D01*
X56448000Y73840000D01*
X56448000Y76790000D01*
%TO.C,C119*%
X59038253Y80268452D02*
X62038253Y80268452D01*
X62038253Y78568452D01*
X59038253Y78568452D01*
X59038253Y80268452D01*
%TO.C,R87*%
X59022226Y81758228D02*
X62022226Y81758228D01*
X62022226Y80058228D01*
X59022226Y80058228D01*
X59022226Y81758228D01*
%TO.C,R89*%
X55904000Y80225000D02*
X58904000Y80225000D01*
X58904000Y78525000D01*
X55904000Y78525000D01*
X55904000Y80225000D01*
%TO.C,R98*%
X67349000Y80875000D02*
X69049000Y80875000D01*
X69049000Y77875000D01*
X67349000Y77875000D01*
X67349000Y80875000D01*
%TO.C,R99*%
X65952000Y80875000D02*
X67652000Y80875000D01*
X67652000Y77875000D01*
X65952000Y77875000D01*
X65952000Y80875000D01*
%TO.C,U35*%
X39249800Y88736900D02*
X42792200Y88736900D01*
X42792200Y85297000D01*
X39249800Y85297000D01*
X39249800Y88736900D01*
%TO.C,L61*%
X39002015Y81536293D02*
X42002015Y81536293D01*
X42002015Y79836293D01*
X39002015Y79836293D01*
X39002015Y81536293D01*
%TO.C,C121*%
X36615000Y86844000D02*
X38315000Y86844000D01*
X38315000Y83844000D01*
X36615000Y83844000D01*
X36615000Y86844000D01*
%TO.C,R105*%
X46887000Y84035000D02*
X49887000Y84035000D01*
X49887000Y82335000D01*
X46887000Y82335000D01*
X46887000Y84035000D01*
%TO.C,R106*%
X49061000Y93321000D02*
X50761000Y93321000D01*
X50761000Y90321000D01*
X49061000Y90321000D01*
X49061000Y93321000D01*
%TO.C,C122*%
X36738505Y90527000D02*
X38438505Y90527000D01*
X38438505Y87527000D01*
X36738505Y87527000D01*
X36738505Y90527000D01*
%TO.C,C123*%
X45236000Y79717000D02*
X48236000Y79717000D01*
X48236000Y78017000D01*
X45236000Y78017000D01*
X45236000Y79717000D01*
%TO.C,C125*%
X50570000Y72732000D02*
X53570000Y72732000D01*
X53570000Y71032000D01*
X50570000Y71032000D01*
X50570000Y72732000D01*
%TO.C,L60*%
X50570000Y74383000D02*
X53570000Y74383000D01*
X53570000Y72683000D01*
X50570000Y72683000D01*
X50570000Y74383000D01*
%TO.C,C126*%
X50570000Y77685000D02*
X53570000Y77685000D01*
X53570000Y75985000D01*
X50570000Y75985000D01*
X50570000Y77685000D01*
%TO.C,C127*%
X50570000Y70954000D02*
X53570000Y70954000D01*
X53570000Y69254000D01*
X50570000Y69254000D01*
X50570000Y70954000D01*
%TO.C,C128*%
X50570000Y76034000D02*
X53570000Y76034000D01*
X53570000Y74334000D01*
X50570000Y74334000D01*
X50570000Y76034000D01*
%TO.C,U34*%
X62845000Y88398000D02*
X67965000Y88398000D01*
X67965000Y82798000D01*
X62845000Y82798000D01*
X62845000Y88398000D01*
%TO.C,C129*%
X85114000Y106260000D02*
X88114000Y106260000D01*
X88114000Y104560000D01*
X85114000Y104560000D01*
X85114000Y106260000D01*
%TO.C,C130*%
X74715000Y104878000D02*
X76415000Y104878000D01*
X76415000Y101878000D01*
X74715000Y101878000D01*
X74715000Y104878000D01*
%TO.C,C131*%
X85040557Y109191707D02*
X86740557Y109191707D01*
X86740557Y106191707D01*
X85040557Y106191707D01*
X85040557Y109191707D01*
%TO.C,C132*%
X86653000Y109191707D02*
X88353000Y109191707D01*
X88353000Y106191707D01*
X86653000Y106191707D01*
X86653000Y109191707D01*
%TO.C,C133*%
X80796000Y111340000D02*
X83796000Y111340000D01*
X83796000Y109640000D01*
X80796000Y109640000D01*
X80796000Y111340000D01*
%TO.C,C135*%
X70270000Y106925443D02*
X71970000Y106925443D01*
X71970000Y103925443D01*
X70270000Y103925443D01*
X70270000Y106925443D01*
%TO.C,C136*%
X70270000Y110481443D02*
X71970000Y110481443D01*
X71970000Y107481443D01*
X70270000Y107481443D01*
X70270000Y110481443D01*
%TO.C,C137*%
X66968000Y106925443D02*
X68668000Y106925443D01*
X68668000Y103925443D01*
X66968000Y103925443D01*
X66968000Y106925443D01*
%TO.C,C138*%
X67095000Y110465949D02*
X68795000Y110465949D01*
X68795000Y107465949D01*
X67095000Y107465949D01*
X67095000Y110465949D01*
%TO.C,C139*%
X68746000Y110465949D02*
X70446000Y110465949D01*
X70446000Y107465949D01*
X68746000Y107465949D01*
X68746000Y110465949D01*
%TO.C,C140*%
X68619000Y106925443D02*
X70319000Y106925443D01*
X70319000Y103925443D01*
X68619000Y103925443D01*
X68619000Y106925443D01*
%TO.C,R113*%
X83859000Y90781000D02*
X85559000Y90781000D01*
X85559000Y87781000D01*
X83859000Y87781000D01*
X83859000Y90781000D01*
%TO.C,R114*%
X85383000Y90781000D02*
X87083000Y90781000D01*
X87083000Y87781000D01*
X85383000Y87781000D01*
X85383000Y90781000D01*
%TO.C,U40*%
X130355000Y59249000D02*
X133305000Y59249000D01*
X133305000Y56067000D01*
X130355000Y56067000D01*
X130355000Y59249000D01*
%TO.C,Q81*%
X133194557Y58076703D02*
X136376557Y58076703D01*
X136376557Y55126703D01*
X133194557Y55126703D01*
X133194557Y58076703D01*
%TO.C,D8*%
X128929000Y54190000D02*
X131929000Y54190000D01*
X131929000Y52490000D01*
X128929000Y52490000D01*
X128929000Y54190000D01*
%TO.C,C142*%
X136564000Y58396000D02*
X138264000Y58396000D01*
X138264000Y55396000D01*
X136564000Y55396000D01*
X136564000Y58396000D01*
%TO.C,U41*%
X143309000Y59503000D02*
X146259000Y59503000D01*
X146259000Y56321000D01*
X143309000Y56321000D01*
X143309000Y59503000D01*
%TO.C,Q82*%
X146491000Y58367000D02*
X149673000Y58367000D01*
X149673000Y55417000D01*
X146491000Y55417000D01*
X146491000Y58367000D01*
%TO.C,D9*%
X144042000Y53936000D02*
X147042000Y53936000D01*
X147042000Y52236000D01*
X144042000Y52236000D01*
X144042000Y53936000D01*
%TO.C,C143*%
X149772000Y58650000D02*
X151472000Y58650000D01*
X151472000Y55650000D01*
X149772000Y55650000D01*
X149772000Y58650000D01*
%TO.C,U37*%
X76245000Y109189000D02*
X85045000Y109189000D01*
X85045000Y100869000D01*
X76245000Y100869000D01*
X76245000Y109189000D01*
%TO.C,C161*%
X152693000Y81764000D02*
X154393000Y81764000D01*
X154393000Y78764000D01*
X152693000Y78764000D01*
X152693000Y81764000D01*
%TO.C,B1*%
X88670000Y76669000D02*
X91670000Y76669000D01*
X91670000Y74969000D01*
X88670000Y74969000D01*
X88670000Y76669000D01*
%TO.C,U48*%
X104164000Y78193000D02*
X107164000Y78193000D01*
X107164000Y76493000D01*
X104164000Y76493000D01*
X104164000Y78193000D01*
%TO.C,U49*%
X104164000Y81622000D02*
X107164000Y81622000D01*
X107164000Y79922000D01*
X104164000Y79922000D01*
X104164000Y81622000D01*
%TO.C,H1*%
X138483000Y66876000D02*
X141933000Y66876000D01*
X141933000Y63426000D01*
X138483000Y63426000D01*
X138483000Y66876000D01*
%TO.C,DUMP+*%
X130776557Y50962703D02*
X134476557Y50962703D01*
X134476557Y47262703D01*
X130776557Y47262703D01*
X130776557Y50962703D01*
%TO.C,DUMP-*%
X126077557Y50962703D02*
X129777557Y50962703D01*
X129777557Y47262703D01*
X126077557Y47262703D01*
X126077557Y50962703D01*
%TO.C,P1*%
X103908000Y48605000D02*
X114278000Y48605000D01*
X114278000Y37755000D01*
X103908000Y37755000D01*
X103908000Y48605000D01*
%TO.C,X3*%
X106413000Y61304200D02*
X110503000Y61304200D01*
X110503000Y57567800D01*
X106413000Y57567800D01*
X106413000Y61304200D01*
%TO.C,U1*%
X50223100Y57472900D02*
X63822900Y57472900D01*
X63822900Y43873100D01*
X50223100Y43873100D01*
X50223100Y57472900D01*
%TO.C,FPC4*%
X142290000Y142049000D02*
X149810000Y142049000D01*
X149810000Y134049000D01*
X142290000Y134049000D01*
X142290000Y142049000D01*
%TO.C,U53*%
X112057741Y108780557D02*
X116147741Y108780557D01*
X116147741Y105044157D01*
X112057741Y105044157D01*
X112057741Y108780557D01*
%TO.C,C181*%
X112635979Y105150231D02*
X115635979Y105150231D01*
X115635979Y103450231D01*
X112635979Y103450231D01*
X112635979Y105150231D01*
%TO.C,U54*%
X142436000Y132632000D02*
X149156000Y132632000D01*
X149156000Y125432000D01*
X142436000Y125432000D01*
X142436000Y132632000D01*
%TO.C,Q91*%
X136443000Y121860000D02*
X139393000Y121860000D01*
X139393000Y118678000D01*
X136443000Y118678000D01*
X136443000Y121860000D01*
%TO.C,C182*%
X131230000Y121007000D02*
X132930000Y121007000D01*
X132930000Y118007000D01*
X131230000Y118007000D01*
X131230000Y121007000D01*
%TO.C,U55*%
X126897000Y120992000D02*
X129897000Y120992000D01*
X129897000Y119292000D01*
X126897000Y119292000D01*
X126897000Y120992000D01*
%TO.C,C183*%
X138596000Y131294000D02*
X140296000Y131294000D01*
X140296000Y128294000D01*
X138596000Y128294000D01*
X138596000Y131294000D01*
%TO.C,U56*%
X64088000Y69716200D02*
X67527900Y69716200D01*
X67527900Y66173800D01*
X64088000Y66173800D01*
X64088000Y69716200D01*
%TO.C,U57*%
X39533800Y128664000D02*
X43270200Y128664000D01*
X43270200Y124574000D01*
X39533800Y124574000D01*
X39533800Y128664000D01*
%TO.C,U58*%
X74583147Y95327106D02*
X78673147Y95327106D01*
X78673147Y91590706D01*
X74583147Y91590706D01*
X74583147Y95327106D01*
%TO.C,C184*%
X68736749Y95639131D02*
X70436749Y95639131D01*
X70436749Y92639131D01*
X68736749Y92639131D01*
X68736749Y95639131D01*
%TO.C,C185*%
X70772543Y89481669D02*
X73772543Y89481669D01*
X73772543Y87781669D01*
X70772543Y87781669D01*
X70772543Y89481669D01*
%TO.C,Q92*%
X132813557Y128942703D02*
X135995557Y128942703D01*
X135995557Y125992703D01*
X132813557Y125992703D01*
X132813557Y128942703D01*
%TO.C,U60*%
X27075000Y126707000D02*
X30075000Y126707000D01*
X30075000Y125007000D01*
X27075000Y125007000D01*
X27075000Y126707000D01*
%TO.C,U61*%
X5125000Y121733000D02*
X8075000Y121733000D01*
X8075000Y118551000D01*
X5125000Y118551000D01*
X5125000Y121733000D01*
%TO.C,CN2*%
X145849000Y49096000D02*
X149299000Y49096000D01*
X149299000Y45646000D01*
X145849000Y45646000D01*
X145849000Y49096000D01*
%TO.C,C187*%
X21925252Y61286905D02*
X24925252Y61286905D01*
X24925252Y59586905D01*
X21925252Y59586905D01*
X21925252Y61286905D01*
%TO.C,C190*%
X30252851Y76109119D02*
X31952851Y76109119D01*
X31952851Y73109119D01*
X30252851Y73109119D01*
X30252851Y76109119D01*
%TO.C,C193*%
X36609851Y52362713D02*
X38309851Y52362713D01*
X38309851Y49362713D01*
X36609851Y49362713D01*
X36609851Y52362713D01*
%TO.C,C197*%
X27801763Y94681004D02*
X30801763Y94681004D01*
X30801763Y92981004D01*
X27801763Y92981004D01*
X27801763Y94681004D01*
%TO.C,C198*%
X105841065Y71436526D02*
X108841065Y71436526D01*
X108841065Y69736526D01*
X105841065Y69736526D01*
X105841065Y71436526D01*
%TO.C,C199*%
X97713551Y63833443D02*
X100713551Y63833443D01*
X100713551Y62133443D01*
X97713551Y62133443D01*
X97713551Y63833443D01*
%TO.C,U62*%
X218589484Y88375241D02*
X224189484Y88375241D01*
X224189484Y83255241D01*
X218589484Y83255241D01*
X218589484Y88375241D01*
%TO.C,C200*%
X217816272Y92120772D02*
X220816272Y92120772D01*
X220816272Y90420772D01*
X217816272Y90420772D01*
X217816272Y92120772D01*
%TO.C,C201*%
X97404546Y110113118D02*
X99104546Y110113118D01*
X99104546Y107113118D01*
X97404546Y107113118D01*
X97404546Y110113118D01*
%TO.C,U63*%
X101782717Y113594287D02*
X106902717Y113594287D01*
X106902717Y107994287D01*
X101782717Y107994287D01*
X101782717Y113594287D01*
%TO.C,R1*%
X20090000Y70827000D02*
X23090000Y70827000D01*
X23090000Y69127000D01*
X20090000Y69127000D01*
X20090000Y70827000D01*
%TO.C,R11*%
X50951000Y44030000D02*
X53951000Y44030000D01*
X53951000Y42330000D01*
X50951000Y42330000D01*
X50951000Y44030000D01*
%TO.C,R12*%
X52467215Y42548113D02*
X55467215Y42548113D01*
X55467215Y40848113D01*
X52467215Y40848113D01*
X52467215Y42548113D01*
%TO.C,R41*%
X19963000Y142455000D02*
X22963000Y142455000D01*
X22963000Y140755000D01*
X19963000Y140755000D01*
X19963000Y142455000D01*
%TO.C,R42*%
X19963000Y144106000D02*
X22963000Y144106000D01*
X22963000Y142406000D01*
X19963000Y142406000D01*
X19963000Y144106000D01*
%TO.C,R43*%
X405000Y128612000D02*
X3405000Y128612000D01*
X3405000Y126912000D01*
X405000Y126912000D01*
X405000Y128612000D01*
%TO.C,R44*%
X6746364Y135842364D02*
X9746364Y135842364D01*
X9746364Y134142364D01*
X6746364Y134142364D01*
X6746364Y135842364D01*
%TO.C,R45*%
X6755000Y130390000D02*
X9755000Y130390000D01*
X9755000Y128690000D01*
X6755000Y128690000D01*
X6755000Y130390000D01*
%TO.C,R46*%
X46775000Y62148395D02*
X48475000Y62148395D01*
X48475000Y59148395D01*
X46775000Y59148395D01*
X46775000Y62148395D01*
%TO.C,R48*%
X33948000Y135358000D02*
X35648000Y135358000D01*
X35648000Y132358000D01*
X33948000Y132358000D01*
X33948000Y135358000D01*
%TO.C,R49*%
X99607000Y49887000D02*
X101307000Y49887000D01*
X101307000Y46887000D01*
X99607000Y46887000D01*
X99607000Y49887000D01*
%TO.C,R50*%
X119912000Y47586000D02*
X122912000Y47586000D01*
X122912000Y45886000D01*
X119912000Y45886000D01*
X119912000Y47586000D01*
%TO.C,R51*%
X92465443Y49259527D02*
X95465443Y49259527D01*
X95465443Y47559527D01*
X92465443Y47559527D01*
X92465443Y49259527D01*
%TO.C,R53*%
X88050000Y45061000D02*
X89750000Y45061000D01*
X89750000Y42061000D01*
X88050000Y42061000D01*
X88050000Y45061000D01*
%TO.C,R54*%
X1920923Y97928635D02*
X4920923Y97928635D01*
X4920923Y96228635D01*
X1920923Y96228635D01*
X1920923Y97928635D01*
%TO.C,R55*%
X1920923Y96277635D02*
X4920923Y96277635D01*
X4920923Y94577635D01*
X1920923Y94577635D01*
X1920923Y96277635D01*
%TO.C,R56*%
X15001923Y88784635D02*
X18001923Y88784635D01*
X18001923Y87084635D01*
X15001923Y87084635D01*
X15001923Y88784635D01*
%TO.C,R57*%
X13604923Y83450635D02*
X16604923Y83450635D01*
X16604923Y81750635D01*
X13604923Y81750635D01*
X13604923Y83450635D01*
%TO.C,R58*%
X19969923Y89180635D02*
X21669923Y89180635D01*
X21669923Y86180635D01*
X19969923Y86180635D01*
X19969923Y89180635D01*
%TO.C,R59*%
X18584344Y82956513D02*
X21584344Y82956513D01*
X21584344Y81256513D01*
X18584344Y81256513D01*
X18584344Y82956513D01*
%TO.C,R60*%
X7635923Y92340635D02*
X10635923Y92340635D01*
X10635923Y90640635D01*
X7635923Y90640635D01*
X7635923Y92340635D01*
%TO.C,R61*%
X7635923Y90689635D02*
X10635923Y90689635D01*
X10635923Y88989635D01*
X7635923Y88989635D01*
X7635923Y90689635D01*
%TO.C,R62*%
X102975624Y90641328D02*
X104675624Y90641328D01*
X104675624Y87641328D01*
X102975624Y87641328D01*
X102975624Y90641328D01*
%TO.C,R63*%
X52221000Y138264000D02*
X55221000Y138264000D01*
X55221000Y136564000D01*
X52221000Y136564000D01*
X52221000Y138264000D01*
%TO.C,R64*%
X52221000Y136740000D02*
X55221000Y136740000D01*
X55221000Y135040000D01*
X52221000Y135040000D01*
X52221000Y136740000D01*
%TO.C,R65*%
X52221000Y129882000D02*
X55221000Y129882000D01*
X55221000Y128182000D01*
X52221000Y128182000D01*
X52221000Y129882000D01*
%TO.C,R66*%
X52221000Y128358000D02*
X55221000Y128358000D01*
X55221000Y126658000D01*
X52221000Y126658000D01*
X52221000Y128358000D01*
%TO.C,R67*%
X52094000Y121373000D02*
X55094000Y121373000D01*
X55094000Y119673000D01*
X52094000Y119673000D01*
X52094000Y121373000D01*
%TO.C,R73*%
X70128000Y116674000D02*
X73128000Y116674000D01*
X73128000Y114974000D01*
X70128000Y114974000D01*
X70128000Y116674000D01*
%TO.C,R74*%
X71795464Y119772516D02*
X74795464Y119772516D01*
X74795464Y118072516D01*
X71795464Y118072516D01*
X71795464Y119772516D01*
%TO.C,R75*%
X52602000Y109435000D02*
X55602000Y109435000D01*
X55602000Y107735000D01*
X52602000Y107735000D01*
X52602000Y109435000D01*
%TO.C,R76*%
X52602000Y106895000D02*
X55602000Y106895000D01*
X55602000Y105195000D01*
X52602000Y105195000D01*
X52602000Y106895000D01*
%TO.C,R77*%
X107950797Y68858094D02*
X110950797Y68858094D01*
X110950797Y67158094D01*
X107950797Y67158094D01*
X107950797Y68858094D01*
%TO.C,R78*%
X90209000Y46966000D02*
X91909000Y46966000D01*
X91909000Y43966000D01*
X90209000Y43966000D01*
X90209000Y46966000D01*
%TO.C,R79*%
X12002874Y115998134D02*
X15002874Y115998134D01*
X15002874Y114298134D01*
X12002874Y114298134D01*
X12002874Y115998134D01*
%TO.C,R80*%
X11985355Y114509168D02*
X14985355Y114509168D01*
X14985355Y112809168D01*
X11985355Y112809168D01*
X11985355Y114509168D01*
%TO.C,R82*%
X22249000Y117055000D02*
X25249000Y117055000D01*
X25249000Y115355000D01*
X22249000Y115355000D01*
X22249000Y117055000D01*
%TO.C,R83*%
X119304064Y125917911D02*
X122304064Y125917911D01*
X122304064Y124217911D01*
X119304064Y124217911D01*
X119304064Y125917911D01*
%TO.C,R84*%
X115875064Y125917911D02*
X118875064Y125917911D01*
X118875064Y124217911D01*
X115875064Y124217911D01*
X115875064Y125917911D01*
%TO.C,R85*%
X102655000Y131055027D02*
X104355000Y131055027D01*
X104355000Y128055027D01*
X102655000Y128055027D01*
X102655000Y131055027D01*
%TO.C,R86*%
X106011954Y129528813D02*
X109011954Y129528813D01*
X109011954Y127828813D01*
X106011954Y127828813D01*
X106011954Y129528813D01*
%TO.C,R107*%
X65571000Y110537222D02*
X67271000Y110537222D01*
X67271000Y107537222D01*
X65571000Y107537222D01*
X65571000Y110537222D01*
%TO.C,R108*%
X65444000Y107052443D02*
X67144000Y107052443D01*
X67144000Y104052443D01*
X65444000Y104052443D01*
X65444000Y107052443D01*
%TO.C,R109*%
X64047000Y110537222D02*
X65747000Y110537222D01*
X65747000Y107537222D01*
X64047000Y107537222D01*
X64047000Y110537222D01*
%TO.C,R110*%
X63920000Y107052443D02*
X65620000Y107052443D01*
X65620000Y104052443D01*
X63920000Y104052443D01*
X63920000Y107052443D01*
%TO.C,R111*%
X71794000Y106925443D02*
X73494000Y106925443D01*
X73494000Y103925443D01*
X71794000Y103925443D01*
X71794000Y106925443D01*
%TO.C,R112*%
X71794000Y110537222D02*
X73494000Y110537222D01*
X73494000Y107537222D01*
X71794000Y107537222D01*
X71794000Y110537222D01*
%TO.C,R115*%
X133374000Y59905000D02*
X136374000Y59905000D01*
X136374000Y58205000D01*
X133374000Y58205000D01*
X133374000Y59905000D01*
%TO.C,R116*%
X146709000Y60413000D02*
X149709000Y60413000D01*
X149709000Y58713000D01*
X146709000Y58713000D01*
X146709000Y60413000D01*
%TO.C,R143*%
X120928000Y77177000D02*
X123928000Y77177000D01*
X123928000Y75477000D01*
X120928000Y75477000D01*
X120928000Y77177000D01*
%TO.C,R144*%
X112595766Y110300373D02*
X115595766Y110300373D01*
X115595766Y108600373D01*
X112595766Y108600373D01*
X112595766Y110300373D01*
%TO.C,R145*%
X132866000Y121119000D02*
X135866000Y121119000D01*
X135866000Y119419000D01*
X132866000Y119419000D01*
X132866000Y121119000D01*
%TO.C,R146*%
X137834000Y124944000D02*
X139534000Y124944000D01*
X139534000Y121944000D01*
X137834000Y121944000D01*
X137834000Y124944000D01*
%TO.C,R147*%
X20087899Y72528256D02*
X23087899Y72528256D01*
X23087899Y70828256D01*
X20087899Y70828256D01*
X20087899Y72528256D01*
%TO.C,R148*%
X20091643Y57557260D02*
X23091643Y57557260D01*
X23091643Y55857260D01*
X20091643Y55857260D01*
X20091643Y57557260D01*
%TO.C,R149*%
X20024430Y59245913D02*
X23024430Y59245913D01*
X23024430Y57545913D01*
X20024430Y57545913D01*
X20024430Y59245913D01*
%TO.C,R150*%
X27376696Y76178313D02*
X30376696Y76178313D01*
X30376696Y74478313D01*
X27376696Y74478313D01*
X27376696Y76178313D01*
%TO.C,R151*%
X20102530Y45175139D02*
X23102530Y45175139D01*
X23102530Y43475139D01*
X20102530Y43475139D01*
X20102530Y45175139D01*
%TO.C,R152*%
X32835829Y66271850D02*
X35835829Y66271850D01*
X35835829Y64571850D01*
X32835829Y64571850D01*
X32835829Y66271850D01*
%TO.C,R153*%
X32857757Y64200935D02*
X35857757Y64200935D01*
X35857757Y62500935D01*
X32857757Y62500935D01*
X32857757Y64200935D01*
%TO.C,R154*%
X33634941Y52431840D02*
X36634941Y52431840D01*
X36634941Y50731840D01*
X33634941Y50731840D01*
X33634941Y52431840D01*
%TO.C,R155*%
X20187371Y52264517D02*
X23187371Y52264517D01*
X23187371Y50564517D01*
X20187371Y50564517D01*
X20187371Y52264517D01*
%TO.C,R156*%
X262270476Y82148242D02*
X265270476Y82148242D01*
X265270476Y80448242D01*
X262270476Y80448242D01*
X262270476Y82148242D01*
%TO.C,R157*%
X261606103Y61893304D02*
X264606103Y61893304D01*
X264606103Y60193304D01*
X261606103Y60193304D01*
X261606103Y61893304D01*
%TO.C,R158*%
X238526784Y67052359D02*
X241526784Y67052359D01*
X241526784Y65352359D01*
X238526784Y65352359D01*
X238526784Y67052359D01*
%TO.C,U17*%
X116141256Y103851974D02*
X141941256Y103851974D01*
X141941256Y78531974D01*
X116141256Y78531974D01*
X116141256Y103851974D01*
%TO.C,Q93*%
X43352024Y86853049D02*
X46302024Y86853049D01*
X46302024Y83671049D01*
X43352024Y83671049D01*
X43352024Y86853049D01*
%TO.C,R159*%
X39378002Y92303476D02*
X41078002Y92303476D01*
X41078002Y89303476D01*
X39378002Y89303476D01*
X39378002Y92303476D01*
%TO.C,R161*%
X43171753Y90001588D02*
X44871753Y90001588D01*
X44871753Y87001588D01*
X43171753Y87001588D01*
X43171753Y90001588D01*
%TO.C,R162*%
X34916136Y85189378D02*
X36616136Y85189378D01*
X36616136Y82189378D01*
X34916136Y82189378D01*
X34916136Y85189378D01*
%TO.C,R163*%
X41276997Y92304967D02*
X42976997Y92304967D01*
X42976997Y89304967D01*
X41276997Y89304967D01*
X41276997Y92304967D01*
%TO.C,R164*%
X33531824Y85176129D02*
X35231824Y85176129D01*
X35231824Y82176129D01*
X33531824Y82176129D01*
X33531824Y85176129D01*
%TO.C,U64*%
X47791074Y89791288D02*
X52111074Y89791288D01*
X52111074Y84991288D01*
X47791074Y84991288D01*
X47791074Y89791288D01*
%TO.C,Q94*%
X88540341Y52598891D02*
X91722341Y52598891D01*
X91722341Y49648891D01*
X88540341Y49648891D01*
X88540341Y52598891D01*
%TO.C,R165*%
X85494948Y51613956D02*
X87194948Y51613956D01*
X87194948Y48613956D01*
X85494948Y48613956D01*
X85494948Y51613956D01*
%TO.C,R166*%
X91740897Y52738869D02*
X93440897Y52738869D01*
X93440897Y49738869D01*
X91740897Y49738869D01*
X91740897Y52738869D01*
%TD*%
M02*
