M48
; DRILL file KiCad 10.99.0-unknown date 2026-08-12T15:27:22
; FORMAT={-:-/ absolute / metric / decimal}
; #@! TF.CreationDate,2026-08-12T15:27:22+08:00
; #@! TF.GenerationSoftware,Kicad,Pcbnew,10.99.0-unknown
; #@! TF.FileFunction,MixedPlating,1,4
FMAT,2
METRIC
; #@! TA.AperFunction,Plated,PTH,ViaDrill
T1C0.305
%
G90
G05
T1
X3.247Y126.965
X4.526Y89.137
X4.533Y89.945
X5.412Y89.945
X5.435Y89.121
X5.448Y141.985
X5.65Y143.488
X5.656Y140.478
X5.808Y93.423
X5.816Y92.677
X6.096Y108.746
X6.096Y107.962
X6.096Y107.109
X6.725Y92.654
X7.493Y141.732
X8.421Y120.291
X8.421Y118.874
X8.473Y121.796
X9.023Y134.101
X9.208Y119.609
X9.261Y120.974
X9.733Y130.398
X9.926Y118.892
X9.978Y121.761
X10.048Y120.291
X10.287Y85.473
X10.765Y121.026
X10.853Y119.522
X11.465Y121.761
X11.483Y118.857
X11.5Y120.379
X12.06Y92.012
X12.508Y91.564
X14.732Y46.609
X14.974Y141.26
X14.999Y143.573
X15.011Y142.358
X15.235Y60.96
X15.494Y130.048
X15.494Y129.159
X15.494Y128.27
X15.612Y53.975
X15.875Y123.063
X15.884Y86.425
X15.98Y143.573
X15.998Y142.34
X16.005Y141.254
X16.468Y122.447
X16.51Y130.048
X16.51Y129.159
X16.51Y128.27
X16.891Y60.96
X16.955Y143.573
X16.967Y142.327
X16.967Y141.303
X17.452Y53.975
X17.526Y130.048
X17.526Y129.159
X17.526Y128.27
X17.812Y145.731
X18.034Y47.244
X18.321Y60.96
X19.435Y143.685
X19.441Y144.363
X20.32Y48.26
X20.32Y47.244
X20.62Y55.874
X20.828Y83.439
X21.662Y54.385
X21.844Y132.715
X21.844Y131.826
X21.844Y130.937
X21.971Y48.258
X21.971Y47.244
X22.86Y132.715
X22.86Y131.826
X22.86Y130.937
X23.099Y67.926
X23.138Y58.394
X23.284Y60.458
X23.876Y132.715
X23.876Y131.826
X23.876Y130.937
X23.958Y49.989
X24.147Y74.549
X24.715Y68.335
X24.838Y42.977
X25.247Y71.509
X25.598Y55.355
X25.656Y74.549
X26.162Y78.613
X26.184Y79.756
X27.432Y73.787
X27.522Y79.756
X27.559Y78.613
X28.575Y147.599
X28.575Y146.939
X28.575Y140.335
X28.575Y139.446
X28.575Y138.557
X29.351Y73.787
X29.591Y140.335
X29.591Y139.446
X29.591Y138.557
X30.48Y68.326
X30.48Y67.437
X30.607Y140.335
X30.607Y139.446
X30.607Y138.557
X31.833Y68.326
X31.877Y67.437
X33.82Y72.668
X35.557Y70.931
X35.687Y135.636
X36.531Y41.702
X36.531Y40.686
X36.531Y39.67
X37.403Y61.784
X37.42Y41.702
X37.42Y40.686
X37.42Y39.67
X37.455Y66.74
X38.094Y50.1
X38.309Y41.702
X38.309Y40.686
X38.309Y39.67
X38.989Y90.043
X39.198Y35.352
X39.198Y34.336
X39.198Y33.32
X40.087Y35.352
X40.087Y34.336
X40.087Y33.32
X40.976Y35.352
X40.976Y34.336
X40.976Y33.32
X44.196Y132.334
X44.196Y131.064
X45.212Y132.334
X45.212Y131.064
X46.101Y61.341
X47.371Y43.942
X48.133Y89.408
X49.382Y53.097
X49.411Y54.655
X49.411Y53.85
X49.421Y55.479
X49.53Y82.042
X49.914Y83.947
X50.673Y91.313
X50.902Y88.178
X51.181Y90.678
X51.435Y56.515
X51.816Y87.503
X52.066Y120.61
X52.48Y61.279
X52.766Y70.819
X52.789Y80.931
X52.959Y118.237
X52.959Y117.348
X53.34Y125.984
X53.467Y140.208
X53.467Y123.317
X53.467Y122.428
X53.564Y129.596
X53.848Y118.237
X53.848Y117.348
X53.904Y94.914
X53.975Y102.997
X54.018Y91.869
X54.229Y123.317
X54.229Y122.428
X54.56Y131.903
X54.61Y133.35
X54.61Y57.912
X54.864Y111.252
X55.398Y91.639
X55.428Y88.505
X55.586Y83.206
X55.598Y86.409
X55.66Y94.896
X55.753Y43.815
X56.488Y84.836
X56.681Y79.878
X56.769Y43.688
X56.775Y119.061
X57.277Y54.737
X57.307Y96.84
X57.434Y71.043
X57.434Y68.925
X58.42Y43.688
X58.5Y81.42
X59.017Y78.302
X59.182Y90.551
X59.273Y43.649
X60.198Y73.787
X61.341Y90.551
X61.341Y57.912
X61.722Y62.484
X62.651Y96.868
X62.845Y83.811
X62.883Y87.484
X63.887Y77.677
X64.135Y54.737
X64.143Y89.206
X64.259Y111.929
X64.383Y106.797
X64.389Y47.879
X64.465Y108.653
X64.615Y92.732
X64.897Y77.724
X65.151Y51.308
X65.278Y109.347
X66.167Y75.692
X66.174Y71.894
X66.421Y109.347
X66.676Y83.842
X66.744Y106.747
X66.805Y77.597
X67.983Y81.13
X68.067Y77.622
X68.326Y119.634
X68.51Y115.761
X68.616Y96.859
X69.003Y74.681
X69.282Y69.761
X69.533Y71.824
X69.622Y107.514
X69.85Y75.692
X70.859Y94.129
X70.906Y77.271
X71.624Y89.744
X73.406Y133.35
X73.787Y87.652
X74.794Y129.915
X74.864Y136.717
X75.831Y119.446
X75.971Y102.282
X76.073Y105.283
X76.19Y96.951
X76.581Y122.428
X76.835Y130.556
X77.216Y100.584
X78.279Y136.713
X78.613Y122.555
X78.74Y105.283
X78.873Y106.761
X79.462Y98.328
X79.786Y106.782
X79.831Y119.671
X81.407Y133.731
X81.537Y104.075
X81.915Y105.283
X82.423Y97.282
X82.677Y106.299
X82.881Y99.732
X83.073Y96.992
X83.439Y122.682
X83.81Y96.981
X84.296Y46.863
X84.335Y91.55
X84.963Y105.283
X84.963Y46.872
X85.479Y88.528
X85.797Y92.795
X86.538Y98.765
X86.699Y108.392
X87.757Y42.799
X88.519Y105.283
X89.027Y92.202
X89.535Y90.932
X90.678Y89.154
X91.186Y87.63
X91.694Y88.646
X91.865Y51.943
X92.202Y88.138
X92.456Y89.789
X92.964Y89.281
X93.858Y98.748
X95.631Y92.202
X97.308Y90.294
X97.836Y107.532
X98.806Y45.974
X99.441Y48.26
X99.949Y64.516
X100.872Y45.751
X101.289Y46.386
X101.513Y93.397
X101.833Y45.756
X102.326Y46.392
X102.8Y45.751
X103.336Y46.386
X103.727Y115.192
X104.394Y81.788
X104.521Y127.889
X104.775Y94.107
X105.791Y128.651
X106.316Y45.751
X106.807Y46.482
X107.315Y48.768
X107.49Y67.754
X107.823Y47.879
X108.839Y46.228
X109.728Y51.689
X110.236Y65.151
X110.237Y65.865
X110.744Y94.107
X110.871Y47.117
X111.379Y46.228
X111.887Y47.117
X112.395Y98.552
X112.395Y46.228
X112.51Y96.0
X113.03Y68.199
X113.44Y103.491
X113.792Y96.139
X114.808Y46.101
X115.218Y108.564
X115.697Y99.187
X115.697Y94.361
X115.824Y125.984
X116.078Y47.879
X116.309Y103.754
X116.4Y90.007
X116.459Y129.032
X116.499Y67.572
X116.666Y95.998
X116.713Y45.974
X117.093Y100.991
X117.348Y46.863
X117.43Y103.698
X117.983Y45.974
X118.618Y126.111
X119.126Y122.936
X119.38Y46.355
X119.435Y84.455
X119.507Y85.471
X119.507Y82.423
X119.634Y83.439
X119.634Y77.724
X119.677Y92.895
X119.888Y87.757
X120.015Y128.397
X120.015Y123.952
X120.015Y82.902
X120.131Y98.211
X120.144Y101.261
X120.269Y96.139
X120.269Y93.98
X120.303Y83.947
X120.523Y86.868
X120.65Y105.283
X121.158Y99.187
X121.285Y78.232
X121.398Y130.814
X121.436Y85.799
X121.666Y104.775
X121.786Y100.451
X122.019Y110.714
X122.146Y81.718
X122.251Y130.141
X122.408Y105.787
X122.555Y78.232
X122.776Y100.451
X122.809Y126.365
X122.997Y81.733
X123.19Y46.863
X123.331Y105.252
X123.698Y82.55
X123.825Y88.646
X124.333Y82.042
X124.81Y100.451
X125.857Y106.426
X126.111Y98.679
X126.238Y82.296
X126.365Y103.505
X126.365Y77.978
X127.127Y103.505
X127.635Y106.045
X127.762Y81.915
X128.143Y104.267
X128.397Y82.804
X128.651Y106.045
X128.687Y109.461
X129.229Y105.283
X130.06Y119.41
X130.086Y133.35
X130.302Y132.608
X130.429Y57.15
X130.46Y118.907
X130.81Y133.35
X131.343Y104.521
X131.826Y105.156
X131.826Y104.013
X132.334Y107.823
X132.334Y100.457
X132.334Y77.597
X132.461Y105.918
X132.461Y82.423
X133.096Y107.823
X133.223Y82.423
X133.35Y107.188
X133.798Y81.776
X134.366Y78.105
X134.739Y83.102
X135.293Y79.057
X135.636Y104.394
X136.27Y100.59
X136.398Y96.012
X136.398Y95.236
X136.398Y94.449
X136.779Y105.664
X137.047Y100.569
X137.065Y82.788
X137.137Y97.539
X137.287Y81.534
X137.668Y93.599
X137.668Y92.71
X137.668Y91.821
X138.027Y84.471
X138.084Y85.156
X138.176Y89.408
X138.193Y90.286
X138.212Y87.935
X138.244Y86.433
X138.249Y91.224
X138.299Y79.037
X138.43Y83.947
X138.684Y121.898
X139.192Y103.124
X139.432Y57.596
X140.335Y102.235
X140.397Y57.596
X141.097Y101.727
X141.351Y95.885
X141.351Y94.996
X141.478Y125.349
X141.478Y88.392
X141.478Y82.931
X141.605Y98.933
X141.732Y97.155
X141.732Y82.169
X142.113Y86.36
X142.213Y133.449
X142.748Y71.501
X142.748Y70.866
X142.748Y57.912
X142.753Y60.007
X142.772Y60.672
X143.256Y94.869
X145.288Y123.825
X146.05Y124.079
X146.812Y124.079
X147.987Y56.832
X148.463Y57.277
X150.114Y82.169
X155.123Y132.588
X155.871Y132.588
X156.62Y132.588
X157.524Y132.588
X218.208Y91.733
X222.377Y77.724
X222.843Y71.544
X227.389Y85.667
X231.902Y25.781
X247.41Y40.855
X247.55Y63.929
X254.762Y18.542
X256.54Y17.145
X256.921Y19.431
X257.697Y20.334
X259.207Y21.59
X260.223Y14.732
X260.894Y21.602
X263.131Y19.024
X263.918Y18.557
M30
