%TF.GenerationSoftware,KiCad,Pcbnew,10.99.0-unknown*%
%TF.CreationDate,2026-08-12T15:27:21+08:00*%
%TF.ProjectId,______12_____,c335d1a4-082b-4313-92fc-549ffd092e6b,rev?*%
%TF.SameCoordinates,Original*%
%TF.FileFunction,Copper,L1,Top*%
%TF.FilePolarity,Positive*%
%FSLAX46Y46*%
G04 Gerber Fmt 4.6, Leading zero omitted, Abs format (unit mm)*
G04 Created by KiCad (PCBNEW 10.99.0-unknown) date 2026-08-12 15:27:21*
%MOMM*%
%LPD*%
G01*
G04 APERTURE LIST*
G04 Aperture macros list*
%AMRoundRect*
0 Rectangle with rounded corners*
0 $1 Rounding radius*
0 $2 $3 $4 $5 $6 $7 $8 $9 X,Y pos of 4 corners*
0 Add a 4 corners polygon primitive as box body*
4,1,4,$2,$3,$4,$5,$6,$7,$8,$9,$2,$3,0*
0 Add four circle primitives for the rounded corners*
1,1,$1+$1,$2,$3*
1,1,$1+$1,$4,$5*
1,1,$1+$1,$6,$7*
1,1,$1+$1,$8,$9*
0 Add four rect primitives between the rounded corners*
20,1,$1+$1,$2,$3,$4,$5,0*
20,1,$1+$1,$4,$5,$6,$7,0*
20,1,$1+$1,$6,$7,$8,$9,0*
20,1,$1+$1,$8,$9,$2,$3,0*%
G04 Aperture macros list end*
%TA.AperFunction,SMDPad,CuDef*%
%ADD10RoundRect,0.225000X-0.225000X-0.275000X0.225000X-0.275000X0.225000X0.275000X-0.225000X0.275000X0*%
%TD*%
%TA.AperFunction,SMDPad,CuDef*%
%ADD11R,3.000000X3.000000*%
%TD*%
%TA.AperFunction,SMDPad,CuDef*%
%ADD12RoundRect,0.225000X-0.225000X-0.275000X0.225000X-0.275000X0.225000X0.275000X-0.225000X0.275000X0*%
%TD*%
%TA.AperFunction,SMDPad,CuDef*%
%ADD13R,3.000000X5.000000*%
%TD*%
%TA.AperFunction,SMDPad,CuDef*%
%ADD14O,1.800000X0.280000*%
%TD*%
%TA.AperFunction,SMDPad,CuDef*%
%ADD15O,1.700000X0.280000*%
%TD*%
%TA.AperFunction,SMDPad,CuDef*%
%ADD16O,0.280000X1.800000*%
%TD*%
%TA.AperFunction,SMDPad,CuDef*%
%ADD17RoundRect,0.105000X0.345000X-0.105000X0.345000X0.105000X-0.345000X0.105000X-0.345000X-0.105000X0*%
%TD*%
%TA.AperFunction,SMDPad,CuDef*%
%ADD18RoundRect,0.105000X-0.105000X-0.345000X0.105000X-0.345000X0.105000X0.345000X-0.105000X0.345000X0*%
%TD*%
%TA.AperFunction,SMDPad,CuDef*%
%ADD19C,0.750000*%
%TD*%
%TA.AperFunction,ViaPad*%
%ADD20C,0.500000*%
%TD*%
%TA.AperFunction,Conductor*%
%ADD21C,0.762000*%
%TD*%
%TA.AperFunction,Conductor*%
%ADD22C,0.152400*%
%TD*%
%TA.AperFunction,Conductor*%
%ADD23C,0.254000*%
%TD*%
%TA.AperFunction,Conductor*%
%ADD24C,0.508000*%
%TD*%
%TA.AperFunction,Conductor*%
%ADD25C,0.381000*%
%TD*%
%TA.AperFunction,Conductor*%
%ADD26C,1.016000*%
%TD*%
%TA.AperFunction,Conductor*%
%ADD27C,1.524000*%
%TD*%
%TA.AperFunction,Conductor*%
%ADD28C,1.270000*%
%TD*%
%TA.AperFunction,Conductor*%
%ADD29C,2.540000*%
%TD*%
G04 APERTURE END LIST*
D10*
%TO.P,C31,2*%
%TO.N,A3.3*%
X57215000Y57785000D03*
%TO.P,C31,1*%
%TO.N,AGND*%
X55815000Y57785000D03*
%TD*%
%TO.P,C32,2*%
%TO.N,A3.3*%
X60009000Y42545000D03*
%TO.P,C32,1*%
%TO.N,AGND*%
X58609000Y42545000D03*
%TD*%
%TO.P,C33,2*%
%TO.N,A3.3*%
X56961000Y42545000D03*
%TO.P,C33,1*%
%TO.N,AGND*%
X55561000Y42545000D03*
%TD*%
%TO.P,C35,2*%
%TO.N,A3.3*%
X56961000Y40894000D03*
%TO.P,C35,1*%
%TO.N,AGND*%
X55561000Y40894000D03*
%TD*%
%TO.P,C36,2*%
%TO.N,A3.3*%
X57215000Y59309000D03*
%TO.P,C36,1*%
%TO.N,AGND*%
X55815000Y59309000D03*
%TD*%
D11*
%TO.P,-7.5V,1*%
%TO.N,LCD_-7.5V*%
X21581923Y78282635D03*
%TD*%
%TO.P,16V,1*%
%TO.N,LCD_16V*%
X16135477Y79194665D03*
%TD*%
%TO.P,10V,1*%
%TO.N,LCD_10V*%
X12895207Y91041924D03*
%TD*%
D12*
%TO.P,SPK1,1*%
%TO.N,$3N8713*%
X265619000Y12700000D03*
%TO.P,SPK1,2*%
%TO.N,$3N8719*%
X267019000Y12700000D03*
%TD*%
D11*
%TO.P,INFO,1*%
%TO.N,INFO*%
X127650560Y72884348D03*
%TD*%
%TO.P,WARN,1*%
%TO.N,WARN*%
X132719661Y72690152D03*
%TD*%
%TO.P,SERIOUS,1*%
%TO.N,SERIOUS*%
X130047426Y72970962D03*
%TD*%
%TO.P,GND,1*%
%TO.N,GND*%
X136017000Y72771000D03*
%TD*%
D13*
%TO.P,KEY+,1*%
%TO.N,$2N9177*%
X23745279Y139028896D03*
%TD*%
%TO.P,KEY-,1*%
%TO.N,GND*%
X23685901Y134971579D03*
%TD*%
D11*
%TO.P,12V,1*%
%TO.N,12V*%
X12633894Y112906904D03*
%TD*%
%TO.P,3.9V,1*%
%TO.N,LCD_3.9V*%
X10233279Y86746225D03*
%TD*%
%TO.P,5V_OUT,1*%
%TO.N,5V_OUT*%
X11047608Y142975282D03*
%TD*%
D14*
%TO.P,U20,64*%
%TO.N,$4N2284*%
X80331100Y120942100D03*
%TO.P,U20,63*%
%TO.N,$4N2370*%
X79830900Y120942100D03*
%TO.P,U20,62*%
X79331100Y120942100D03*
%TO.P,U20,61*%
%TO.N,RLDINVM*%
X78830900Y120942100D03*
%TO.P,U20,60*%
%TO.N,N/C*%
X78331100Y120942100D03*
%TO.P,U20,59*%
%TO.N,A3.3*%
X77830900Y120942100D03*
%TO.P,U20,58*%
%TO.N,AGND*%
X77331100Y120942100D03*
%TO.P,U20,57*%
X76830900Y120942100D03*
%TO.P,U20,56*%
%TO.N,A3.3*%
X76331100Y120942100D03*
%TO.P,U20,55*%
%TO.N,$4N2324*%
X75830900Y120942100D03*
%TO.P,U20,54*%
%TO.N,A3.3*%
X75331100Y120942100D03*
%TO.P,U20,53*%
%TO.N,AGND*%
X74830900Y120942100D03*
%TO.P,U20,52*%
%TO.N,3.3V*%
X74331100Y120942100D03*
%TO.P,U20,51*%
%TO.N,GND*%
X73830900Y120942100D03*
%TO.P,U20,50*%
%TO.N,3.3V*%
X73331100Y120942100D03*
D15*
%TO.P,U20,49*%
%TO.N,GND*%
X72830900Y120892100D03*
D16*
%TO.P,U20,48*%
%TO.N,3.3V*%
X71031100Y122741900D03*
%TO.P,U20,47*%
%TO.N,MECG_READY*%
X71031100Y123242100D03*
%TO.P,U20,46*%
%TO.N,N/C*%
X71031100Y123741900D03*
%TO.P,U20,45*%
X71031100Y124242100D03*
%TO.P,U20,44*%
X71031100Y124741900D03*
%TO.P,U20,43*%
%TO.N,MECG_MISO*%
X71031100Y125242100D03*
%TO.P,U20,42*%
%TO.N,N/C*%
X71031100Y125741900D03*
%TO.P,U20,41*%
%TO.N,GND*%
X71031100Y126242100D03*
%TO.P,U20,40*%
%TO.N,MECG_CLK*%
X71031100Y126741900D03*
%TO.P,U20,39*%
%TO.N,MECG_CS*%
X71031100Y127242100D03*
%TO.P,U20,38*%
%TO.N,MECG_START*%
X71031100Y127741900D03*
%TO.P,U20,37*%
%TO.N,GND*%
X71031100Y128242100D03*
%TO.P,U20,36*%
%TO.N,MECG_RESET*%
X71031100Y128741900D03*
%TO.P,U20,35*%
X71031100Y129242100D03*
%TO.P,U20,34*%
%TO.N,MECG_MOSI*%
X71031100Y129741900D03*
%TO.P,U20,33*%
%TO.N,GND*%
X71031100Y130242100D03*
D14*
%TO.P,U20,32*%
%TO.N,AGND*%
X72830900Y132041900D03*
%TO.P,U20,31*%
%TO.N,GND*%
X73331100Y132041900D03*
%TO.P,U20,30*%
%TO.N,VCAP2M*%
X73830900Y132041900D03*
%TO.P,U20,29*%
%TO.N,N/C*%
X74331100Y132041900D03*
%TO.P,U20,28*%
%TO.N,VCAP1M*%
X74830900Y132041900D03*
%TO.P,U20,27*%
%TO.N,N/C*%
X75331100Y132041900D03*
%TO.P,U20,26*%
%TO.N,VCAP4M*%
X75830900Y132041900D03*
%TO.P,U20,25*%
%TO.N,AGND*%
X76331100Y132041900D03*
%TO.P,U20,24*%
%TO.N,VREFPM*%
X76830900Y132041900D03*
%TO.P,U20,23*%
%TO.N,AGND*%
X77331100Y132041900D03*
%TO.P,U20,22*%
%TO.N,A3.3*%
X77830900Y132041900D03*
%TO.P,U20,21*%
X78331100Y132041900D03*
%TO.P,U20,20*%
%TO.N,AGND*%
X78830900Y132041900D03*
%TO.P,U20,19*%
%TO.N,A3.3*%
X79331100Y132041900D03*
%TO.P,U20,18*%
%TO.N,AGND*%
X79830900Y132041900D03*
%TO.P,U20,17*%
X80331100Y132041900D03*
D16*
%TO.P,U20,16*%
%TO.N,MII+*%
X82130900Y130242100D03*
%TO.P,U20,15*%
%TO.N,MII-*%
X82130900Y129741900D03*
%TO.P,U20,14*%
%TO.N,MIII+*%
X82130900Y129242100D03*
%TO.P,U20,13*%
%TO.N,MIII-*%
X82130900Y128741900D03*
%TO.P,U20,12*%
%TO.N,MV*%
X82130900Y128242100D03*
%TO.P,U20,11*%
%TO.N,$4N2284*%
X82130900Y127741900D03*
%TO.P,U20,10*%
%TO.N,N/C*%
X82130900Y127242100D03*
%TO.P,U20,9*%
X82130900Y126741900D03*
%TO.P,U20,8*%
%TO.N,PDL+*%
X82130900Y126242100D03*
%TO.P,U20,7*%
%TO.N,PDL-*%
X82130900Y125741900D03*
%TO.P,U20,6*%
%TO.N,N/C*%
X82130900Y125242100D03*
%TO.P,U20,5*%
X82130900Y124741900D03*
%TO.P,U20,4*%
X82130900Y124242100D03*
%TO.P,U20,3*%
X82130900Y123741900D03*
%TO.P,U20,2*%
X82130900Y123242100D03*
%TO.P,U20,1*%
X82130900Y122741900D03*
%TD*%
D10*
%TO.P,C91,2*%
%TO.N,A3.3*%
X78424000Y122936000D03*
%TO.P,C91,1*%
%TO.N,AGND*%
X77024000Y122936000D03*
%TD*%
%TO.P,C92,2*%
%TO.N,A3.3*%
X80710000Y104902000D03*
%TO.P,C92,1*%
%TO.N,AGND*%
X79310000Y104902000D03*
%TD*%
%TO.P,C93,2*%
%TO.N,A3.3*%
X76900000Y129921000D03*
%TO.P,C93,1*%
%TO.N,AGND*%
X75500000Y129921000D03*
%TD*%
%TO.P,C94,2*%
%TO.N,A3.3*%
X87249000Y104075000D03*
%TO.P,C94,1*%
%TO.N,AGND*%
X87249000Y105475000D03*
%TD*%
%TO.P,C95,2*%
%TO.N,A3.3*%
X85725000Y104075000D03*
%TO.P,C95,1*%
%TO.N,AGND*%
X85725000Y105475000D03*
%TD*%
%TO.P,C98,2*%
%TO.N,A3.3*%
X76900000Y128143000D03*
%TO.P,C98,1*%
%TO.N,AGND*%
X75500000Y128143000D03*
%TD*%
D12*
%TO.P,R92,2*%
%TO.N,$4N6575*%
X62553139Y92351633D03*
%TO.P,R92,1*%
%TO.N,$4N6576*%
X62553139Y90951633D03*
%TD*%
D10*
%TO.P,C112,2*%
%TO.N,GND*%
X64204139Y90951633D03*
%TO.P,C112,1*%
%TO.N,$4N6575*%
X64204139Y92351633D03*
%TD*%
%TO.P,R91,2*%
%TO.N,$4N6576*%
X59632139Y90951633D03*
%TO.P,R91,1*%
%TO.N,GND*%
X59632139Y92351633D03*
%TD*%
D12*
%TO.P,R90,2*%
%TO.N,A3.3*%
X61029139Y92351633D03*
%TO.P,R90,1*%
%TO.N,$4N6576*%
X61029139Y90951633D03*
%TD*%
D10*
%TO.P,C116,2*%
%TO.N,PD+*%
X69850000Y76897000D03*
%TO.P,C116,1*%
%TO.N,GND*%
X69850000Y78297000D03*
%TD*%
%TO.P,C117,2*%
%TO.N,PD-*%
X66802000Y75754000D03*
%TO.P,C117,1*%
%TO.N,GND*%
X66802000Y77154000D03*
%TD*%
D12*
%TO.P,R97,2*%
%TO.N,$4N6596*%
X66800870Y86154973D03*
%TO.P,R97,1*%
%TO.N,VREF*%
X66800870Y84754973D03*
%TD*%
%TO.P,C118,2*%
%TO.N,$4N6596*%
X68326000Y86083751D03*
%TO.P,C118,1*%
%TO.N,VREF*%
X68326000Y84683751D03*
%TD*%
D10*
%TO.P,R88,2*%
%TO.N,VREF*%
X62676000Y84709000D03*
%TO.P,R88,1*%
%TO.N,$4N6599*%
X61276000Y84709000D03*
%TD*%
%TO.P,C120,2*%
%TO.N,SPO2_VSIG*%
X58104000Y81026000D03*
%TO.P,C120,1*%
%TO.N,GND*%
X56704000Y81026000D03*
%TD*%
D12*
%TO.P,C124,2*%
%TO.N,GND*%
X52070000Y89219000D03*
%TO.P,C124,1*%
%TO.N,3V3SGM*%
X52070000Y87819000D03*
%TD*%
D10*
%TO.P,C134,2*%
%TO.N,$4N12858*%
X79765206Y110513914D03*
%TO.P,C134,1*%
%TO.N,$4N12864*%
X78365206Y110513914D03*
%TD*%
D17*
%TO.P,SW3,1*%
%TO.N,GND*%
X244259000Y118415000D03*
%TO.P,SW3,2*%
%TO.N,MODE_JH*%
X243459000Y118415000D03*
%TO.P,SW3,3*%
%TO.N,MODE_CC*%
X242659000Y118415000D03*
D18*
%TO.P,SW3,4*%
%TO.N,MODE_12D*%
X241859000Y119215000D03*
%TO.P,SW3,5*%
%TO.N,MODE_SYS*%
X241859000Y120015000D03*
%TO.P,SW3,6*%
%TO.N,N/C*%
X241859000Y120815000D03*
D17*
%TO.P,SW3,7*%
X242659000Y121615000D03*
%TO.P,SW3,8*%
X243459000Y121615000D03*
%TO.P,SW3,9*%
X244259000Y121615000D03*
D18*
%TO.P,SW3,10*%
X245059000Y120815000D03*
%TO.P,SW3,11*%
%TO.N,GND*%
X245059000Y120015000D03*
%TO.P,SW3,12*%
X245059000Y119215000D03*
%TD*%
D19*
%TO.P,SW4,A*%
%TO.N,C_SA*%
X229251000Y35179000D03*
%TO.P,SW4,C*%
%TO.N,GND*%
X228671200Y33975000D03*
%TO.P,SW4,B*%
%TO.N,C_SB*%
X227368300Y33677600D03*
%TO.P,SW4,E*%
%TO.N,GND*%
X226323500Y34510800D03*
%TO.P,SW4,D*%
%TO.N,KEY_CFM*%
X226323500Y35847200D03*
%TO.P,SW4,6*%
%TO.N,GND*%
X227368300Y36680400D03*
%TO.P,SW4,7*%
X228671200Y36383000D03*
%TD*%
D12*
%TO.P,A,1*%
%TO.N,ROW_ABC*%
X17842000Y12827000D03*
%TO.P,A,2*%
%TO.N,LINE_ADCH2*%
X19242000Y12827000D03*
%TD*%
%TO.P,D,1*%
%TO.N,ROW_DEF*%
X77709998Y12827000D03*
%TO.P,D,2*%
%TO.N,LINE_ADCH2*%
X79109998Y12827000D03*
%TD*%
%TO.P,E,1*%
%TO.N,ROW_DEF*%
X97665998Y12827000D03*
%TO.P,E,2*%
%TO.N,LINE_BE53*%
X99065998Y12827000D03*
%TD*%
%TO.P,B,1*%
%TO.N,ROW_ABC*%
X37798000Y12827000D03*
%TO.P,B,2*%
%TO.N,LINE_BE53*%
X39198000Y12827000D03*
%TD*%
%TO.P,C38,1*%
%TO.N,ROW_ABC*%
X57754000Y12827000D03*
%TO.P,C38,2*%
%TO.N,LINE_CF1S*%
X59154000Y12827000D03*
%TD*%
%TO.P,F,1*%
%TO.N,ROW_DEF*%
X117621999Y12827000D03*
%TO.P,F,2*%
%TO.N,LINE_CF1S*%
X119021999Y12827000D03*
%TD*%
%TO.P,Charge,1*%
%TO.N,ROW_C51*%
X256221000Y38735000D03*
%TO.P,Charge,2*%
%TO.N,LINE_ADCH2*%
X257621000Y38735000D03*
%TD*%
%TO.P,50J,1*%
%TO.N,ROW_C51*%
X228789000Y80010000D03*
%TO.P,50J,2*%
%TO.N,LINE_BE53*%
X230189000Y80010000D03*
%TD*%
%TO.P,200J,1*%
%TO.N,ROW_23S*%
X228789000Y62103000D03*
%TO.P,200J,2*%
%TO.N,LINE_ADCH2*%
X230189000Y62103000D03*
%TD*%
%TO.P,360J,1*%
%TO.N,ROW_23S*%
X256094000Y62103000D03*
%TO.P,360J,2*%
%TO.N,LINE_BE53*%
X257494000Y62103000D03*
%TD*%
%TO.P,150J,1*%
%TO.N,ROW_C51*%
X256094000Y80010000D03*
%TO.P,150J,2*%
%TO.N,LINE_CF1S*%
X257494000Y80010000D03*
%TD*%
%TO.P,SCR,1*%
%TO.N,ROW_23S*%
X199325000Y12827000D03*
%TO.P,SCR,2*%
%TO.N,LINE_CF1S*%
X200725000Y12827000D03*
%TD*%
%TO.P,C160,2*%
%TO.N,GND*%
X227011000Y44323000D03*
%TO.P,C160,1*%
%TO.N,KEY_CFM*%
X228411000Y44323000D03*
%TD*%
D19*
%TO.P,RN1,5*%
%TO.N,MODE_JH*%
X242842000Y135255000D03*
%TO.P,RN1,4*%
%TO.N,3.3V*%
X243357500Y136499500D03*
%TO.P,RN1,6*%
%TO.N,MODE_CC*%
X244602000Y137015000D03*
%TO.P,RN1,3*%
%TO.N,3.3V*%
X245846500Y136499500D03*
%TO.P,RN1,7*%
%TO.N,MODE_12D*%
X246362000Y135255000D03*
%TO.P,RN1,2*%
%TO.N,3.3V*%
X245846500Y134010500D03*
%TO.P,RN1,8*%
%TO.N,MODE_SYS*%
X244602000Y133495000D03*
%TO.P,RN1,1*%
%TO.N,3.3V*%
X243357500Y134010500D03*
%TD*%
D10*
%TO.P,C162,2*%
%TO.N,LINE_BE53*%
X90043000Y11619000D03*
%TO.P,C162,1*%
%TO.N,ROW_DEF*%
X90043000Y13019000D03*
%TD*%
%TO.P,C163,2*%
%TO.N,LINE_ADCH2*%
X69977000Y11746000D03*
%TO.P,C163,1*%
%TO.N,ROW_DEF*%
X69977000Y13146000D03*
%TD*%
%TO.P,C164,2*%
%TO.N,LINE_ADCH2*%
X10033000Y12254000D03*
%TO.P,C164,1*%
%TO.N,ROW_ABC*%
X10033000Y13654000D03*
%TD*%
%TO.P,C165,2*%
%TO.N,LINE_BE53*%
X30226000Y12762000D03*
%TO.P,C165,1*%
%TO.N,ROW_ABC*%
X30226000Y14162000D03*
%TD*%
%TO.P,C166,2*%
%TO.N,LINE_CF1S*%
X50165000Y13651000D03*
%TO.P,C166,1*%
%TO.N,ROW_ABC*%
X50165000Y15051000D03*
%TD*%
%TO.P,C167,2*%
%TO.N,LINE_CF1S*%
X109855000Y12254000D03*
%TO.P,C167,1*%
%TO.N,ROW_DEF*%
X109855000Y13654000D03*
%TD*%
%TO.P,C168,2*%
%TO.N,LINE_CF1S*%
X248285000Y79183000D03*
%TO.P,C168,1*%
%TO.N,ROW_C51*%
X248285000Y80583000D03*
%TD*%
%TO.P,C169,2*%
%TO.N,LINE_BE53*%
X240792000Y79183000D03*
%TO.P,C169,1*%
%TO.N,ROW_C51*%
X240792000Y80583000D03*
%TD*%
%TO.P,C170,2*%
%TO.N,LINE_ADCH2*%
X248285000Y38543000D03*
%TO.P,C170,1*%
%TO.N,ROW_C51*%
X248285000Y39943000D03*
%TD*%
%TO.P,C171,2*%
%TO.N,LINE_ADCH2*%
X240284000Y61530000D03*
%TO.P,C171,1*%
%TO.N,ROW_23S*%
X240284000Y62930000D03*
%TD*%
%TO.P,C172,2*%
%TO.N,LINE_BE53*%
X248412000Y61530000D03*
%TO.P,C172,1*%
%TO.N,ROW_23S*%
X248412000Y62930000D03*
%TD*%
%TO.P,C173,2*%
%TO.N,LINE_CF1S*%
X191516000Y11619000D03*
%TO.P,C173,1*%
%TO.N,ROW_23S*%
X191516000Y13019000D03*
%TD*%
D11*
%TO.P,DUMP+,1*%
%TO.N,$4N14495*%
X132626557Y49112703D03*
%TD*%
%TO.P,DUMP-,1*%
%TO.N,GND*%
X127927557Y49112703D03*
%TD*%
D14*
%TO.P,U1,64*%
%TO.N,$1N2542*%
X60773100Y45123100D03*
%TO.P,U1,63*%
%TO.N,$1N6305*%
X60272900Y45123100D03*
%TO.P,U1,62*%
X59773100Y45123100D03*
%TO.P,U1,61*%
%TO.N,RLDINV*%
X59272900Y45123100D03*
%TO.P,U1,60*%
%TO.N,N/C*%
X58773100Y45123100D03*
%TO.P,U1,59*%
%TO.N,A3.3*%
X58272900Y45123100D03*
%TO.P,U1,58*%
%TO.N,AGND*%
X57773100Y45123100D03*
%TO.P,U1,57*%
X57272900Y45123100D03*
%TO.P,U1,56*%
%TO.N,A3.3*%
X56773100Y45123100D03*
%TO.P,U1,55*%
%TO.N,$1N3912*%
X56272900Y45123100D03*
%TO.P,U1,54*%
%TO.N,A3.3*%
X55773100Y45123100D03*
%TO.P,U1,53*%
%TO.N,AGND*%
X55272900Y45123100D03*
%TO.P,U1,52*%
%TO.N,3.3V*%
X54773100Y45123100D03*
%TO.P,U1,51*%
%TO.N,GND*%
X54272900Y45123100D03*
%TO.P,U1,50*%
%TO.N,3.3V*%
X53773100Y45123100D03*
D15*
%TO.P,U1,49*%
%TO.N,GND*%
X53272900Y45073100D03*
D16*
%TO.P,U1,48*%
%TO.N,3.3V*%
X51473100Y46922900D03*
%TO.P,U1,47*%
%TO.N,ECG_READY*%
X51473100Y47423100D03*
%TO.P,U1,46*%
%TO.N,N/C*%
X51473100Y47922900D03*
%TO.P,U1,45*%
X51473100Y48423100D03*
%TO.P,U1,44*%
X51473100Y48922900D03*
%TO.P,U1,43*%
%TO.N,ECG_MISO*%
X51473100Y49423100D03*
%TO.P,U1,42*%
%TO.N,N/C*%
X51473100Y49922900D03*
%TO.P,U1,41*%
%TO.N,GND*%
X51473100Y50423100D03*
%TO.P,U1,40*%
%TO.N,ECG_CLK*%
X51473100Y50922900D03*
%TO.P,U1,39*%
%TO.N,ECG_CS*%
X51473100Y51423100D03*
%TO.P,U1,38*%
%TO.N,ECG_START*%
X51473100Y51922900D03*
%TO.P,U1,37*%
%TO.N,GND*%
X51473100Y52423100D03*
%TO.P,U1,36*%
%TO.N,ECG_RESET*%
X51473100Y52922900D03*
%TO.P,U1,35*%
X51473100Y53423100D03*
%TO.P,U1,34*%
%TO.N,ECG_MOSI*%
X51473100Y53922900D03*
%TO.P,U1,33*%
%TO.N,GND*%
X51473100Y54423100D03*
D14*
%TO.P,U1,32*%
%TO.N,AGND*%
X53272900Y56222900D03*
%TO.P,U1,31*%
%TO.N,GND*%
X53773100Y56222900D03*
%TO.P,U1,30*%
%TO.N,VCAP2*%
X54272900Y56222900D03*
%TO.P,U1,29*%
%TO.N,N/C*%
X54773100Y56222900D03*
%TO.P,U1,28*%
%TO.N,VCAP1*%
X55272900Y56222900D03*
%TO.P,U1,27*%
%TO.N,N/C*%
X55773100Y56222900D03*
%TO.P,U1,26*%
%TO.N,VCAP4*%
X56272900Y56222900D03*
%TO.P,U1,25*%
%TO.N,AGND*%
X56773100Y56222900D03*
%TO.P,U1,24*%
%TO.N,VREFP*%
X57272900Y56222900D03*
%TO.P,U1,23*%
%TO.N,AGND*%
X57773100Y56222900D03*
%TO.P,U1,22*%
%TO.N,A3.3*%
X58272900Y56222900D03*
%TO.P,U1,21*%
X58773100Y56222900D03*
%TO.P,U1,20*%
%TO.N,AGND*%
X59272900Y56222900D03*
%TO.P,U1,19*%
%TO.N,A3.3*%
X59773100Y56222900D03*
%TO.P,U1,18*%
%TO.N,AGND*%
X60272900Y56222900D03*
%TO.P,U1,17*%
X60773100Y56222900D03*
D16*
%TO.P,U1,16*%
%TO.N,II+*%
X62572900Y54423100D03*
%TO.P,U1,15*%
%TO.N,II-*%
X62572900Y53922900D03*
%TO.P,U1,14*%
%TO.N,III+*%
X62572900Y53423100D03*
%TO.P,U1,13*%
%TO.N,III-*%
X62572900Y52922900D03*
%TO.P,U1,12*%
%TO.N,V2*%
X62572900Y52423100D03*
%TO.P,U1,11*%
%TO.N,$1N2542*%
X62572900Y51922900D03*
%TO.P,U1,10*%
%TO.N,V3*%
X62572900Y51423100D03*
%TO.P,U1,9*%
%TO.N,$1N2542*%
X62572900Y50922900D03*
%TO.P,U1,8*%
%TO.N,V4*%
X62572900Y50423100D03*
%TO.P,U1,7*%
%TO.N,$1N2542*%
X62572900Y49922900D03*
%TO.P,U1,6*%
%TO.N,V5*%
X62572900Y49423100D03*
%TO.P,U1,5*%
%TO.N,$1N2542*%
X62572900Y48922900D03*
%TO.P,U1,4*%
%TO.N,V6*%
X62572900Y48423100D03*
%TO.P,U1,3*%
%TO.N,$1N2542*%
X62572900Y47922900D03*
%TO.P,U1,2*%
%TO.N,V1*%
X62572900Y47423100D03*
%TO.P,U1,1*%
%TO.N,$1N2542*%
X62572900Y46922900D03*
%TD*%
D10*
%TO.P,C196,2*%
%TO.N,5V_OUT*%
X153463744Y132963350D03*
%TO.P,C196,1*%
%TO.N,GND*%
X153463744Y134363350D03*
%TD*%
%TO.P,R39,2*%
%TO.N,$2N198*%
X3683000Y138873000D03*
%TO.P,R39,1*%
%TO.N,GND*%
X3683000Y140273000D03*
%TD*%
D12*
%TO.P,R40,2*%
%TO.N,$2N200*%
X3810000Y144972000D03*
%TO.P,R40,1*%
%TO.N,GND*%
X3810000Y143572000D03*
%TD*%
%TO.P,R121,2*%
%TO.N,C_SA*%
X223582000Y24892000D03*
%TO.P,R121,1*%
%TO.N,3.3V*%
X224982000Y24892000D03*
%TD*%
%TO.P,R122,2*%
%TO.N,3.3V*%
X230378000Y24957000D03*
%TO.P,R122,1*%
%TO.N,C_SB*%
X230378000Y23557000D03*
%TD*%
D10*
%TO.P,R123,2*%
%TO.N,KEY_CFM*%
X228411000Y45974000D03*
%TO.P,R123,1*%
%TO.N,3.3V*%
X227011000Y45974000D03*
%TD*%
D20*
%TO.N,GND*%
X14999200Y143573400D03*
X15980000Y143573400D03*
%TO.N,$2N9177*%
X16954600Y143573400D03*
X15011500Y142358200D03*
X15998500Y142339700D03*
X16966900Y142327400D03*
X16966900Y141303400D03*
X16004700Y141254100D03*
X14974500Y141260200D03*
%TO.N,$2N200*%
X5649600Y143487800D03*
%TO.N,GND*%
X5655700Y140477700D03*
%TO.N,D+*%
X5447700Y141985300D03*
%TO.N,D-*%
X7493000Y141732000D03*
%TO.N,L1*%
X17811700Y145731400D03*
%TO.N,L2*%
X19440800Y144363400D03*
%TO.N,$2N1635*%
X19434700Y143684800D03*
%TO.N,L1*%
X9022700Y134100800D03*
%TO.N,L2*%
X9733100Y130397700D03*
%TO.N,$2N1635*%
X3247000Y126965000D03*
%TO.N,PRINT_MA+*%
X121398100Y130814500D03*
%TO.N,PRINT_MA-*%
X122250700Y130140700D03*
%TO.N,III+*%
X20619800Y55874000D03*
%TO.N,II+*%
X49420600Y55478700D03*
%TO.N,II-*%
X49411400Y54655200D03*
%TO.N,III+*%
X49411400Y53850200D03*
%TO.N,III-*%
X49381600Y53097200D03*
%TO.N,II-*%
X25247500Y71509400D03*
%TO.N,II+*%
X24714800Y68334700D03*
%TO.N,III-*%
X23138300Y58393600D03*
%TO.N,III+*%
X25598300Y55355000D03*
%TO.N,MLL*%
X69622100Y107513900D03*
%TO.N,$4N13071*%
X64258600Y111928900D03*
X64465300Y108653500D03*
%TO.N,$4N6575*%
X64143100Y89206300D03*
%TO.N,$4N6596*%
X66675600Y83842300D03*
%TO.N,VREF*%
X62883000Y87483700D03*
X56487900Y84835800D03*
X62845300Y83811000D03*
%TO.N,SPO2_VSIG*%
X56681300Y79878300D03*
%TO.N,RD-*%
X49913900Y83947300D03*
%TO.N,3V3SGM*%
X50902200Y88178100D03*
%TO.N,$4N12864*%
X78873500Y106761200D03*
X79786100Y106781800D03*
%TO.N,AGND*%
X74794000Y129915100D03*
%TO.N,PD-*%
X66805400Y77597100D03*
%TO.N,PD+*%
X68067300Y77621600D03*
%TO.N,$4N6582*%
X70906500Y77270700D03*
X67983100Y81130000D03*
%TO.N,ROW_23S*%
X247550200Y63929400D03*
%TO.N,LINE_ADCH2*%
X247409900Y40855100D03*
%TO.N,I2S_WS*%
X259207000Y21590000D03*
%TO.N,I2S_SCK*%
X260893700Y21601800D03*
%TO.N,SCL*%
X263917600Y18556800D03*
%TO.N,I2S_SD*%
X257697500Y20333800D03*
%TO.N,SWD_DIO*%
X138430000Y83947000D03*
%TO.N,SWD_CLK*%
X138299000Y79037300D03*
%TO.N,RGB_G7*%
X110236000Y65151000D03*
X135292600Y79057400D03*
X133798500Y81776300D03*
%TO.N,RGB_R6*%
X138243900Y86432900D03*
%TO.N,RGB_HSYNC*%
X123825000Y88646000D03*
%TO.N,RGB_G6*%
X138211700Y87935200D03*
%TO.N,LCD_10V*%
X138249400Y91224100D03*
%TO.N,LCD_CLK*%
X138192700Y90285700D03*
%TO.N,RGB_G5*%
X137047000Y100568700D03*
%TO.N,RGB_G4*%
X136270200Y100590200D03*
%TO.N,RGB_B5*%
X120144000Y101261000D03*
%TO.N,RGB_VSYNC*%
X121785900Y100451400D03*
%TO.N,RGB_G2*%
X122775800Y100451400D03*
%TO.N,RGB_R3*%
X124809900Y100451400D03*
%TO.N,RGB_DE*%
X119676600Y92894700D03*
%TO.N,RGB_B6*%
X122997200Y81733500D03*
%TO.N,RGB_B7*%
X122146400Y81718100D03*
%TO.N,LCD_CLK*%
X114808000Y46101000D03*
%TO.N,RGB_R3*%
X112395000Y46228000D03*
%TO.N,LCD_10V*%
X109728000Y51689000D03*
%TO.N,RGB_R6*%
X110871000Y47117000D03*
%TO.N,RGB_R5*%
X111379000Y46228000D03*
%TO.N,RGB_R4*%
X111887000Y47117000D03*
%TO.N,RGB_G7*%
X106315900Y45751300D03*
%TO.N,RGB_G6*%
X106807000Y46482000D03*
%TO.N,RGB_G5*%
X107315000Y48768000D03*
%TO.N,RGB_G4*%
X107823000Y47879000D03*
%TO.N,RGB_G2*%
X108839000Y46228000D03*
%TO.N,RGB_DE*%
X100871800Y45751300D03*
%TO.N,RGB_VSYNC*%
X101289500Y46386300D03*
%TO.N,RGB_HSYNC*%
X101832800Y45756500D03*
%TO.N,RGB_B7*%
X102325800Y46391500D03*
%TO.N,RGB_B6*%
X102800200Y45751300D03*
%TO.N,RGB_B5*%
X103336400Y46386300D03*
%TO.N,PRINT_SIGA*%
X122809000Y126365000D03*
X125857000Y106426000D03*
%TO.N,PRINT_PHB*%
X126365000Y103505000D03*
%TO.N,PRINT_SIGB*%
X127127000Y103505000D03*
%TO.N,PRINT_PHB*%
X118618000Y126111000D03*
%TO.N,PRINT_SIGB*%
X119126000Y122936000D03*
%TO.N,LCD_10V*%
X84963000Y46871600D03*
X12060400Y92011700D03*
X12507900Y91564100D03*
X84295800Y46863000D03*
%TO.N,MECG_CLK*%
X119507000Y82423000D03*
%TO.N,MECG_START*%
X120015000Y82902500D03*
%TO.N,MECG_CS*%
X119634000Y83439000D03*
%TO.N,MECG_MISO*%
X120303100Y83947000D03*
%TO.N,MECG_MOSI*%
X119435400Y84455000D03*
%TO.N,MECG_RESET*%
X119507000Y85471000D03*
%TO.N,AGND*%
X55753000Y43815000D03*
X58420000Y43688000D03*
%TO.N,RECG_MISO*%
X82881400Y99732200D03*
%TO.N,RECG_CLK*%
X82423000Y97282000D03*
%TO.N,RECG_MOSI*%
X83073400Y96991700D03*
%TO.N,RECG_CS*%
X83810400Y96980600D03*
%TO.N,RECG_MISO*%
X141605000Y98933000D03*
%TO.N,RECG_MOSI*%
X137137200Y97539200D03*
%TO.N,RECG_CS*%
X141732000Y97155000D03*
%TO.N,MECG_RESET*%
X92456000Y89789000D03*
%TO.N,MECG_MOSI*%
X92964000Y89281000D03*
%TO.N,MECG_MISO*%
X90678000Y89154000D03*
%TO.N,MECG_CS*%
X91694000Y88646000D03*
%TO.N,MECG_START*%
X92202000Y88138000D03*
%TO.N,MECG_CLK*%
X91186000Y87630000D03*
%TO.N,LCD_3.9V*%
X98806000Y45974000D03*
X10287000Y85473000D03*
%TO.N,LCD_16V*%
X116713000Y45974000D03*
%TO.N,LCD_-7.5V*%
X117348000Y46863000D03*
%TO.N,LCD_10V*%
X117983000Y45974000D03*
%TO.N,LCD_16V*%
X15884500Y86425300D03*
%TO.N,LCD_-7.5V*%
X20828000Y83439000D03*
%TO.N,RECG_CLK*%
X142113000Y86360000D03*
%TO.N,SCL*%
X119888000Y87757000D03*
%TO.N,SDA*%
X120523000Y86868000D03*
%TO.N,SCL*%
X84334800Y91550300D03*
%TO.N,SDA*%
X85796600Y92795400D03*
%TO.N,D-*%
X28575000Y147599400D03*
%TO.N,D+*%
X28575000Y146939000D03*
%TO.N,5V_OUT*%
X15875000Y123063000D03*
X16468000Y122447200D03*
X139431700Y57596000D03*
X140397000Y57596000D03*
%TO.N,SPO2_VSIG*%
X115697000Y99187000D03*
%TO.N,PRINT_DI2*%
X123698000Y82550000D03*
%TO.N,PRINT_CLK*%
X124333000Y82042000D03*
%TO.N,PRINT_STB3*%
X132334000Y107823000D03*
%TO.N,PRINT_STB4*%
X133096000Y107823000D03*
%TO.N,PRINT_DI1*%
X133350000Y107188000D03*
%TO.N,PRINT_STB3*%
X126238000Y82296000D03*
%TO.N,PRINT_STB4*%
X127762000Y81915000D03*
%TO.N,PRINT_DI1*%
X128397000Y82804000D03*
%TO.N,PRINT_STB2*%
X137668000Y93599000D03*
%TO.N,GND*%
X137668000Y92710000D03*
%TO.N,PRINT_LAT*%
X137668000Y91821000D03*
%TO.N,SPO2_CAP*%
X136398000Y96012000D03*
%TO.N,GND*%
X136398000Y95236200D03*
X136398000Y94449300D03*
X49530000Y82042000D03*
X50673000Y91313000D03*
%TO.N,SPO2_CAP*%
X60198000Y73787000D03*
%TO.N,RECG_RESET*%
X132461000Y82423000D03*
%TO.N,$4N12860*%
X133223000Y82423000D03*
X89027000Y92202000D03*
%TO.N,RECG_RESET*%
X89535000Y90932000D03*
%TO.N,MCU_RESET*%
X115697000Y94361000D03*
X104775000Y94107000D03*
%TO.N,SPO2_DA1*%
X121666000Y104775000D03*
X38989000Y90043000D03*
%TO.N,LCD_LEDCON*%
X87757000Y42799000D03*
%TO.N,GND*%
X119380000Y46355000D03*
X141351000Y95885000D03*
%TO.N,LCD_LEDCON*%
X141351000Y94996000D03*
%TO.N,12VP*%
X116459000Y129032000D03*
X120015000Y128397000D03*
%TO.N,PLRE_DUMP*%
X130429000Y57150000D03*
%TO.N,PLRE_VLVE*%
X142748000Y57912000D03*
%TO.N,PLRE_DUMP*%
X121285000Y78232000D03*
%TO.N,PLRE_VLVE*%
X122555000Y78232000D03*
%TO.N,I2S_WS*%
X134366000Y78105000D03*
%TO.N,I2S_SD*%
X113792000Y96139000D03*
%TO.N,I2S_SCK*%
X231902000Y25781000D03*
%TO.N,5V_OUT*%
X148463000Y57277000D03*
X147986800Y56831900D03*
X260223000Y14732000D03*
%TO.N,KEY_CFM*%
X135636000Y104394000D03*
X131826000Y104013000D03*
%TO.N,ROW_ABC*%
X121158000Y99187000D03*
%TO.N,ROW_C51*%
X129229000Y105283000D03*
%TO.N,ROW_23S*%
X131826000Y105156000D03*
%TO.N,LINE_CF1S*%
X131343300Y104521000D03*
X222377000Y77724000D03*
%TO.N,I2S_CK*%
X141097000Y101727000D03*
%TO.N,LINE_BE53*%
X140335000Y102235000D03*
%TO.N,ROW_DEF*%
X126111000Y98679000D03*
%TO.N,GND*%
X35687000Y135636000D03*
%TO.N,A3.3*%
X256540000Y17145000D03*
%TO.N,AGND*%
X254762000Y18542000D03*
%TO.N,3.3V*%
X256921000Y19431000D03*
%TO.N,AGND*%
X61722000Y62484000D03*
%TO.N,A3.3*%
X54610000Y57912000D03*
%TO.N,AGND*%
X57277000Y54737000D03*
%TO.N,A3.3*%
X46101000Y61341000D03*
%TO.N,AGND*%
X56769000Y43688000D03*
X33819700Y72668200D03*
X35557000Y70930900D03*
X24147000Y74549000D03*
X25655700Y74549000D03*
X27432000Y73787000D03*
X29351300Y73787000D03*
X52480000Y61279000D03*
%TO.N,III-*%
X23284200Y60458300D03*
%TO.N,III+*%
X21661700Y54384700D03*
%TO.N,V6*%
X23958100Y49989100D03*
%TO.N,V1*%
X24837800Y42976500D03*
%TO.N,GND*%
X14732000Y46609000D03*
X18034000Y47244000D03*
X20320000Y47244000D03*
X20320000Y48260000D03*
X21971000Y47244000D03*
X21971000Y48257500D03*
%TO.N,3.3V*%
X150114000Y82169000D03*
%TO.N,RGB_R4*%
X141478000Y82931000D03*
%TO.N,RGB_R5*%
X141732000Y82169000D03*
%TO.N,GND*%
X138176000Y89408000D03*
%TO.N,AGND*%
X120269000Y96139000D03*
%TO.N,$3N4978*%
X123190000Y46863000D03*
%TO.N,3.3V*%
X116078000Y47879000D03*
%TO.N,$3N4920*%
X99441000Y48260000D03*
%TO.N,$4N6575*%
X64615400Y92731900D03*
%TO.N,$4N6576*%
X61341000Y90551000D03*
%TO.N,A3.3*%
X64897000Y77724000D03*
%TO.N,SPO2_VSIG*%
X58499700Y81420400D03*
%TO.N,3.3V*%
X52765600Y70819400D03*
X113030000Y68199000D03*
%TO.N,V5*%
X38094100Y50100000D03*
%TO.N,$1N2542*%
X47371000Y43942000D03*
%TO.N,GND*%
X16891000Y60960000D03*
X15235000Y60960000D03*
X18321000Y60960000D03*
X15612200Y53975000D03*
X17452400Y53975000D03*
%TO.N,PDL+*%
X54864000Y111252000D03*
%TO.N,MV*%
X56774700Y119061000D03*
%TO.N,MIII-*%
X53340000Y125984000D03*
%TO.N,AGND*%
X54610000Y133350000D03*
X54560500Y131903100D03*
%TO.N,MII+*%
X53467000Y140208000D03*
%TO.N,PDL-*%
X53975000Y102997000D03*
%TO.N,$4N13059*%
X64382700Y106797400D03*
%TO.N,$4N13071*%
X65278000Y109347000D03*
%TO.N,GND*%
X15494000Y130048000D03*
X16510000Y130048000D03*
X17526000Y130048000D03*
X15494000Y129159000D03*
X16510000Y129159000D03*
X17526000Y129159000D03*
X15494000Y128270000D03*
X16510000Y128270000D03*
X17526000Y128270000D03*
X21844000Y130937000D03*
X21844000Y131826000D03*
X21844000Y132715000D03*
X22860000Y132715000D03*
X22860000Y131826000D03*
X22860000Y130937000D03*
X23876000Y130937000D03*
X23876000Y131826000D03*
X23876000Y132715000D03*
%TO.N,$2N9177*%
X28575000Y138557000D03*
X28575000Y139446000D03*
X28575000Y140335000D03*
X29591000Y140335000D03*
X29591000Y139446000D03*
X29591000Y138557000D03*
X30607000Y138557000D03*
X30607000Y139446000D03*
X30607000Y140335000D03*
%TO.N,$3N12589*%
X115824000Y125984000D03*
%TO.N,3.3V*%
X120015000Y123952000D03*
%TO.N,$3N38319*%
X104521000Y127889000D03*
%TO.N,PRINT_PAPER*%
X105791000Y128651000D03*
%TO.N,3V3SGM*%
X51816000Y87503000D03*
X48133000Y89408000D03*
%TO.N,GND*%
X59272900Y43649400D03*
%TO.N,3.3V*%
X38308800Y39669700D03*
X37419800Y39669700D03*
X36530800Y39669700D03*
X36530800Y40685700D03*
X37419800Y40685700D03*
X38308800Y40685700D03*
X38308800Y41701700D03*
X37419800Y41701700D03*
X36530800Y41701700D03*
X39197800Y33319700D03*
X40086800Y33319700D03*
X40975800Y33319700D03*
X40975800Y34335700D03*
X40086800Y34335700D03*
X39197800Y34335700D03*
X39197800Y35351700D03*
X40086800Y35351700D03*
X40975800Y35351700D03*
%TO.N,GND*%
X69850000Y75692000D03*
X66167000Y75692000D03*
X63886600Y77676900D03*
%TO.N,3.3V*%
X70859100Y94128700D03*
X85478900Y88527600D03*
X77216000Y100584000D03*
%TO.N,GND*%
X26184400Y79756000D03*
X27522300Y79756000D03*
X26162000Y78613000D03*
X27559000Y78613000D03*
X30480000Y68326000D03*
X31833400Y68326000D03*
X31877000Y67437000D03*
X30480000Y67437000D03*
%TO.N,AGND*%
X37454600Y66740000D03*
%TO.N,V4*%
X37403200Y61784000D03*
%TO.N,GND*%
X99949000Y64516000D03*
%TO.N,3.3V*%
X104394000Y81788000D03*
%TO.N,MCU_RESET*%
X95631000Y92202000D03*
%TO.N,GND*%
X110744000Y94107000D03*
X101512600Y93396900D03*
%TO.N,$4N2324*%
X75830900Y119445900D03*
%TO.N,AGND*%
X76581000Y122428000D03*
%TO.N,A3.3*%
X78613000Y122555000D03*
%TO.N,$4N2284*%
X68326000Y119634000D03*
%TO.N,GND*%
X79830900Y119670900D03*
%TO.N,3.3V*%
X83439000Y122682000D03*
%TO.N,AGND*%
X73406000Y133350000D03*
X74863900Y136717000D03*
X78278600Y136712600D03*
%TO.N,A3.3*%
X76835000Y130556000D03*
%TO.N,AGND*%
X81407000Y133731000D03*
%TO.N,A3.3*%
X76073000Y105283000D03*
X84963000Y105283000D03*
X78740000Y105283000D03*
%TO.N,AGND*%
X81537000Y104075000D03*
%TO.N,$4N13071*%
X66421000Y109347000D03*
%TO.N,$4N13059*%
X66744000Y106747400D03*
%TO.N,$4N12574*%
X75970600Y102282300D03*
%TO.N,VREFPR*%
X86699100Y108391700D03*
%TO.N,AGND*%
X88519000Y105283000D03*
%TO.N,A3.3*%
X112395000Y98552000D03*
%TO.N,$4N13059*%
X82677000Y106299000D03*
X81915000Y105283000D03*
%TO.N,$4N6576*%
X59182000Y90551000D03*
%TO.N,II+*%
X23099400Y67925800D03*
%TO.N,3.3V*%
X64389000Y47879000D03*
%TO.N,AGND*%
X51435000Y56515000D03*
X61341000Y57912000D03*
%TO.N,GND*%
X65151000Y51308000D03*
X64135000Y54737000D03*
%TO.N,3.3V*%
X139192000Y103124000D03*
X128143000Y104267000D03*
X120650000Y105283000D03*
X132461000Y105918000D03*
X120269000Y93980000D03*
X143256000Y94869000D03*
X141478000Y88392000D03*
%TO.N,WARN*%
X132334000Y77597000D03*
%TO.N,GND*%
X126365000Y77978000D03*
%TO.N,RGB_B7*%
X119634000Y77724000D03*
%TO.N,GND*%
X132334000Y100457000D03*
X136779000Y105664000D03*
%TO.N,PRINT_DI2*%
X127635000Y106045000D03*
%TO.N,PRINT_CLK*%
X128651000Y106045000D03*
%TO.N,PRINT_STB2*%
X146812000Y124079000D03*
%TO.N,12VP*%
X130810000Y133350000D03*
X130086400Y133350000D03*
X130302000Y132608500D03*
%TO.N,GND*%
X146050000Y124079000D03*
%TO.N,PRINT_LAT*%
X145288000Y123825000D03*
%TO.N,3.3V*%
X141478000Y125349000D03*
%TO.N,5V_OUT*%
X142213300Y133448800D03*
X142752600Y60007000D03*
X142772100Y60671600D03*
X142748000Y71501000D03*
X142748000Y70866000D03*
%TO.N,AGND*%
X113439900Y103490600D03*
%TO.N,A3.3*%
X115218100Y108563900D03*
%TO.N,AGND*%
X71623900Y89744300D03*
%TO.N,A3.3*%
X73787300Y87651900D03*
%TO.N,RD+*%
X51181000Y90678000D03*
%TO.N,5V_OUT*%
X155123100Y132588000D03*
X155871400Y132588000D03*
X156619700Y132588000D03*
X157524500Y132588000D03*
%TO.N,$4N2370*%
X68509700Y115760800D03*
%TO.N,MV*%
X52066100Y120610500D03*
%TO.N,3.3V*%
X6096000Y108746100D03*
X6096000Y107961700D03*
X6096000Y107108800D03*
%TO.N,GND*%
X44196000Y132334000D03*
X45212000Y132334000D03*
X44196000Y131064000D03*
X45212000Y131064000D03*
X53467000Y123317000D03*
X54229000Y123317000D03*
X53467000Y122428000D03*
X54229000Y122428000D03*
X52959000Y118237000D03*
X53848000Y118237000D03*
X52959000Y117348000D03*
X53848000Y117348000D03*
X138684000Y121898400D03*
%TO.N,MTX*%
X134739200Y83102000D03*
X137065300Y82787900D03*
X137287000Y81534000D03*
%TO.N,MLL*%
X53563700Y129596500D03*
%TO.N,TOUCH_IRQ*%
X107489600Y67754100D03*
X121435800Y85799300D03*
%TO.N,3.3V*%
X8473400Y121796200D03*
X9978200Y121761200D03*
X11465400Y121761200D03*
X11500400Y120379000D03*
X11482900Y118856700D03*
X9925700Y118891700D03*
X8420900Y118874200D03*
X8420900Y120291500D03*
X10048100Y120291500D03*
X9260800Y120973900D03*
X10765500Y121026300D03*
X10853000Y119521600D03*
X9208300Y119609100D03*
%TO.N,TOUCH_IRQ*%
X112509800Y95999600D03*
X97308200Y90293800D03*
X116400100Y90006700D03*
%TO.N,LINE_ADCH2*%
X222842500Y71544000D03*
%TO.N,GND*%
X218208300Y91732700D03*
%TO.N,TOUCH_CLK*%
X116499300Y67571600D03*
X110237100Y65864900D03*
%TO.N,RGB_R3*%
X123330900Y105252100D03*
X227389200Y85666800D03*
%TO.N,12V*%
X130060200Y119410200D03*
X130460400Y118907500D03*
%TO.N,GND*%
X5815500Y92677000D03*
X6725400Y92653600D03*
X5807800Y93423500D03*
X4533400Y89945500D03*
X5412100Y89945500D03*
X5435500Y89121200D03*
X4525600Y89136800D03*
%TO.N,SDA*%
X263131200Y19023900D03*
%TO.N,RGB_R4*%
X138084400Y85156300D03*
%TO.N,RGB_R5*%
X138026600Y84470800D03*
%TO.N,GND*%
X97836400Y107532300D03*
%TO.N,3.3V*%
X103727400Y115191900D03*
%TO.N,RGB_R3*%
X128686700Y109460800D03*
X122408400Y105786700D03*
%TO.N,MTX*%
X122019000Y110714100D03*
%TO.N,RGB_B5*%
X117430400Y103698100D03*
%TO.N,GND*%
X116309100Y103753800D03*
X120131400Y98210900D03*
X117093300Y100991200D03*
%TO.N,DEF_L*%
X116665600Y95997700D03*
%TO.N,GND*%
X79461600Y98328000D03*
X86537800Y98764700D03*
X93857900Y98748400D03*
X55660400Y94895600D03*
X53904100Y94914200D03*
X57307400Y96840000D03*
X62650600Y96867900D03*
X68616300Y96858600D03*
X76189600Y96951500D03*
X55597600Y86409300D03*
X54017900Y91868600D03*
X55397900Y91638600D03*
X55428100Y88504800D03*
X52789000Y80931500D03*
X55586000Y83205800D03*
X59016500Y78302500D03*
X57434200Y68924600D03*
X57434200Y71043300D03*
X66173700Y71893500D03*
X69532900Y71823800D03*
%TO.N,AGND*%
X69282000Y69760900D03*
%TO.N,GND*%
X69003200Y74681200D03*
%TO.N,LCD_10V*%
X91865500Y51942600D03*
%TD*%
%TO.N,ROW_ABC*%
D21*
X15367000Y11557000D02*
X15367000Y7874000D01*
X15367000Y7874000D02*
X17526000Y5715000D01*
X17526000Y5715000D02*
X29481000Y5715000D01*
X29481000Y5715000D02*
X35323000Y11557000D01*
X35323000Y11557000D02*
X35704000Y11938000D01*
X54898000Y11938000D02*
X55279000Y11557000D01*
X35704000Y11938000D02*
X54898000Y11938000D01*
%TO.N,ROW_DEF*%
X75235000Y11557000D02*
X75235000Y7442000D01*
X75235000Y7442000D02*
X76962000Y5715000D01*
X76962000Y5715000D02*
X89349000Y5715000D01*
X89349000Y5715000D02*
X95191000Y11557000D01*
X95191000Y11557000D02*
X95826000Y12192000D01*
X95826000Y12192000D02*
X113538000Y12192000D01*
X113538000Y12192000D02*
X114173000Y11557000D01*
X114173000Y11557000D02*
X115147000Y11557000D01*
%TO.N,ROW_C51*%
X226314000Y78740000D02*
X226695000Y79121000D01*
X253238000Y79121000D02*
X253619000Y78740000D01*
X226695000Y79121000D02*
X253238000Y79121000D01*
%TO.N,ROW_23S*%
X226314000Y60833000D02*
X226949000Y61468000D01*
X252984000Y61468000D02*
X253619000Y60833000D01*
X226949000Y61468000D02*
X252984000Y61468000D01*
%TO.N,ROW_ABC*%
X10033000Y12254000D02*
X14670000Y12254000D01*
X14670000Y12254000D02*
X15367000Y11557000D01*
%TO.N,LINE_ADCH2*%
X10033000Y13654000D02*
X21274000Y13654000D01*
X21274000Y13654000D02*
X21717000Y14097000D01*
%TO.N,ROW_ABC*%
X30226000Y12762000D02*
X34118000Y12762000D01*
X34118000Y12762000D02*
X35323000Y11557000D01*
X30226000Y14162000D02*
X41608000Y14162000D01*
X41608000Y14162000D02*
X41673000Y14097000D01*
X50165000Y13651000D02*
X50227000Y13589000D01*
X50227000Y13589000D02*
X54229000Y13589000D01*
X54229000Y13589000D02*
X55279000Y12539000D01*
X55279000Y12539000D02*
X55279000Y11557000D01*
X50165000Y15051000D02*
X60675000Y15051000D01*
X60675000Y15051000D02*
X61629000Y14097000D01*
%TO.N,ROW_DEF*%
X69977000Y11746000D02*
X75046000Y11746000D01*
X75046000Y11746000D02*
X75235000Y11557000D01*
%TO.N,LINE_ADCH2*%
X69977000Y13146000D02*
X74233000Y13146000D01*
X74233000Y13146000D02*
X75438000Y14351000D01*
X75438000Y14351000D02*
X81331000Y14351000D01*
%TO.N,ROW_DEF*%
X90043000Y11619000D02*
X95129000Y11619000D01*
X95129000Y11619000D02*
X95191000Y11557000D01*
X90043000Y13019000D02*
X94045000Y13019000D01*
X94045000Y13019000D02*
X94869000Y13843000D01*
X94869000Y13843000D02*
X101287000Y13843000D01*
X101287000Y13843000D02*
X101541000Y14097000D01*
%TO.N,LINE_CF1S*%
X109855000Y13654000D02*
X121054000Y13654000D01*
X121054000Y13654000D02*
X121497000Y14097000D01*
%TO.N,ROW_23S*%
X191516000Y11619000D02*
X196788000Y11619000D01*
X196788000Y11619000D02*
X196850000Y11557000D01*
%TO.N,LINE_CF1S*%
X191516000Y13019000D02*
X195391000Y13019000D01*
X195391000Y13019000D02*
X195961000Y13589000D01*
X195961000Y13589000D02*
X202692000Y13589000D01*
X202692000Y13589000D02*
X203200000Y14097000D01*
%TO.N,LINE_ADCH2*%
X248285000Y38543000D02*
X252668000Y38543000D01*
X252668000Y38543000D02*
X253746000Y37465000D01*
X248285000Y39943000D02*
X260034000Y39943000D01*
X260034000Y39943000D02*
X260096000Y40005000D01*
%TO.N,ROW_C51*%
X240792000Y80583000D02*
X240095000Y81280000D01*
X240095000Y81280000D02*
X232664000Y81280000D01*
%TO.N,LINE_CF1S*%
X248285000Y80583000D02*
X259272000Y80583000D01*
X259272000Y80583000D02*
X259969000Y81280000D01*
%TO.N,LINE_ADCH2*%
X240284000Y62930000D02*
X239841000Y63373000D01*
X239841000Y63373000D02*
X232664000Y63373000D01*
%TO.N,ROW_23S*%
X248412000Y62930000D02*
X248855000Y63373000D01*
X248855000Y63373000D02*
X259969000Y63373000D01*
%TO.N,KEY_CFM*%
X227011000Y44323000D02*
X225211000Y42523000D01*
X225211000Y42523000D02*
X225211000Y42278900D01*
%TO.N,LINE_ADCH2*%
X21717000Y14097000D02*
X23749000Y16129000D01*
X23749000Y16129000D02*
X23749000Y16256000D01*
X23749000Y16256000D02*
X81153000Y16256000D01*
X81153000Y16256000D02*
X81534000Y15875000D01*
X81534000Y15875000D02*
X81534000Y14148000D01*
X81534000Y14148000D02*
X81585000Y14097000D01*
X81331000Y14351000D02*
X81534000Y14148000D01*
%TO.N,LINE_CF1S*%
X121497000Y14097000D02*
X190438000Y14097000D01*
X190438000Y14097000D02*
X191516000Y13019000D01*
%TO.N,$2N200*%
D22*
X3816200Y143519000D02*
X5618400Y143519000D01*
X5618400Y143519000D02*
X5649600Y143487800D01*
%TO.N,GND*%
X5655700Y140477700D02*
X5636900Y140496500D01*
X5636900Y140496500D02*
X3695900Y140496500D01*
%TO.N,L1*%
X17811700Y145731400D02*
X16014400Y145731400D01*
X16014400Y145731400D02*
X8990300Y138707300D01*
X8990300Y138707300D02*
X8990300Y134133200D01*
X8990300Y134133200D02*
X9022700Y134100800D01*
%TO.N,L2*%
X9733100Y130397700D02*
X9733100Y139012900D01*
X9733100Y139012900D02*
X15090100Y144369900D01*
X15090100Y144369900D02*
X19434300Y144369900D01*
X19434300Y144369900D02*
X19440800Y144363400D01*
%TO.N,$2N1635*%
X3247000Y126965000D02*
X7053400Y126965000D01*
X7053400Y126965000D02*
X10385100Y130296700D01*
X10385100Y130296700D02*
X10385100Y139201700D01*
X10385100Y139201700D02*
X14236500Y143053100D01*
X14236500Y143053100D02*
X18802900Y143053100D01*
X18802900Y143053100D02*
X19434700Y143684800D01*
%TO.N,PRINT_MA+*%
D21*
X121398100Y130814500D02*
X120762300Y131450200D01*
X120762300Y131450200D02*
X120762300Y134941200D01*
%TO.N,3.3V*%
D22*
X240770100Y129114700D02*
X243282200Y131626800D01*
X243282200Y131626800D02*
X243282200Y134374800D01*
%TO.N,MODE_CC*%
X243587500Y129031500D02*
X243587500Y133288000D01*
X243587500Y133288000D02*
X244170400Y133870900D01*
X244170400Y133870900D02*
X244170400Y134347100D01*
%TO.N,MODE_SYS*%
X246238400Y129267400D02*
X245003100Y130502600D01*
X245003100Y130502600D02*
X245003100Y134333200D01*
%TO.N,3.3V*%
X248514500Y129225800D02*
X245794200Y131946000D01*
X245794200Y131946000D02*
X245794200Y134388700D01*
%TO.N,III+*%
D23*
X20619800Y55874000D02*
X11019100Y55874000D01*
X11019100Y55874000D02*
X9933000Y56960000D01*
X9933000Y56960000D02*
X9933000Y65859800D01*
X9933000Y65859800D02*
X8871300Y66921600D01*
%TO.N,II-*%
X49411400Y54655200D02*
X50067800Y55311600D01*
X50067800Y55311600D02*
X50067800Y56034600D01*
X50067800Y56034600D02*
X49568200Y56534300D01*
X49568200Y56534300D02*
X39294300Y56534300D01*
X39294300Y56534300D02*
X25247500Y70581100D01*
X25247500Y70581100D02*
X25247500Y71509400D01*
%TO.N,III-*%
X23992900Y57539000D02*
X23992900Y56159600D01*
X23138300Y58393600D02*
X23992900Y57539000D01*
%TO.N,MLL*%
X57216300Y119919800D02*
X69622100Y107513900D01*
%TO.N,$4N13071*%
X64258600Y111928900D02*
X64258600Y108823200D01*
X64258600Y108823200D02*
X64520800Y108561000D01*
%TO.N,$4N6575*%
X64143100Y89206300D02*
X64143100Y90897500D01*
X64143100Y90897500D02*
X64168900Y90923300D01*
X64168900Y90923300D02*
X64148300Y90943900D01*
X64148300Y90943900D02*
X62586000Y90943900D01*
%TO.N,$4N6576*%
X59670300Y92434600D02*
X62446800Y92434600D01*
X62446800Y92434600D02*
X62470000Y92411400D01*
%TO.N,$4N6596*%
X66675600Y83842300D02*
X66730600Y83897300D01*
X66730600Y83897300D02*
X66730600Y84677600D01*
X66730600Y84677600D02*
X68267100Y84677600D01*
X68267100Y84677600D02*
X68277400Y84687900D01*
%TO.N,VREF*%
X68219400Y86149600D02*
X66780900Y86149600D01*
X66780900Y86149600D02*
X66711300Y86219200D01*
X66780900Y86149600D02*
X64182300Y86149600D01*
X64182300Y86149600D02*
X62894600Y87437300D01*
X62883000Y87483700D02*
X61525600Y87483700D01*
X61525600Y87483700D02*
X61224000Y87182100D01*
X61224000Y84641500D02*
X61235600Y84629900D01*
X56557500Y84812600D02*
X56511100Y84766200D01*
X61224000Y84812600D02*
X56557500Y84812600D01*
X61224000Y87182100D02*
X61224000Y84812600D01*
X61224000Y84812600D02*
X61224000Y84641500D01*
X62845300Y83811000D02*
X62845300Y84685000D01*
X62845300Y84685000D02*
X62829800Y84700500D01*
%TO.N,SPO2_VSIG*%
X56681300Y79878300D02*
X56735400Y79932400D01*
X56735400Y79932400D02*
X56735400Y80999700D01*
%TO.N,3V3SGM*%
X50902200Y88178100D02*
X51000200Y88178100D01*
X51000200Y88178100D02*
X51969500Y89147400D01*
%TO.N,$4N12864*%
X78873500Y106761200D02*
X78873500Y109875400D01*
X78873500Y109875400D02*
X78492000Y110256900D01*
X79786100Y106781800D02*
X79786100Y110262100D01*
X79786100Y110262100D02*
X79801600Y110277600D01*
%TO.N,AGND*%
X74794000Y129915100D02*
X75468100Y129915100D01*
X75531300Y128147800D02*
X75531300Y129934400D01*
X75468100Y129915100D02*
X75420400Y129962700D01*
X75468100Y129915100D02*
X75506800Y129876400D01*
%TO.N,PD+*%
X68067300Y77621600D02*
X69114000Y77621600D01*
X69114000Y77621600D02*
X69614100Y78121800D01*
%TO.N,$4N6582*%
X67983100Y81130000D02*
X68006300Y81106800D01*
X69893400Y81106800D02*
X70922000Y80078200D01*
X70922000Y80078200D02*
X70922000Y77286200D01*
X70922000Y77286200D02*
X70906500Y77270700D01*
X68006300Y81106800D02*
X69893400Y81106800D01*
%TO.N,ROW_23S*%
D21*
X196661300Y11194600D02*
X197464000Y11997200D01*
X214681600Y11997200D02*
X217126300Y14441900D01*
X217126300Y14441900D02*
X217126300Y51838200D01*
X217126300Y51838200D02*
X226244100Y60956000D01*
X197464000Y11997200D02*
X214681600Y11997200D01*
%TO.N,LINE_CF1S*%
X259947800Y81651000D02*
X258411600Y83187100D01*
X258411600Y83187100D02*
X227919700Y83187100D01*
X227919700Y83187100D02*
X214661400Y69928800D01*
X214661400Y25624400D02*
X203429300Y14392300D01*
X214661400Y69928800D02*
X214661400Y25624400D01*
%TO.N,ROW_23S*%
X247550200Y63929400D02*
X247550200Y63606400D01*
X247550200Y63606400D02*
X248088600Y63068000D01*
%TO.N,LINE_ADCH2*%
X247409900Y40855100D02*
X248219100Y40045900D01*
X248219100Y40045900D02*
X248284400Y40045900D01*
%TO.N,KEY_CFM*%
X227022700Y44351200D02*
X227022700Y45836100D01*
X227022700Y45836100D02*
X226953100Y45905700D01*
%TO.N,3.3V*%
X225065100Y24826800D02*
X225065100Y27680600D01*
X230378300Y25012400D02*
X230378300Y27761800D01*
X230378300Y27761800D02*
X230331900Y27808200D01*
%TO.N,SWD_CLK*%
D22*
X138299000Y79037300D02*
X138299000Y66006500D01*
X138299000Y66006500D02*
X139024100Y65281400D01*
%TO.N,SWD_DIO*%
X138430000Y83947000D02*
X141469000Y80908000D01*
X141469000Y80908000D02*
X141469000Y65156700D01*
%TO.N,RGB_G7*%
X135292600Y79057400D02*
X129158600Y79057400D01*
X115252200Y65151000D02*
X129158600Y79057400D01*
X110236000Y65151000D02*
X115252200Y65151000D01*
%TO.N,LCD_10V*%
X138249400Y91224100D02*
X136905600Y89880200D01*
X136905600Y89880200D02*
X136905600Y84073600D01*
X136905600Y84073600D02*
X133604000Y80772000D01*
X133604000Y80772000D02*
X112014000Y80772000D01*
X112014000Y80772000D02*
X109728000Y78486000D01*
X109728000Y51689000D02*
X109728000Y78486000D01*
%TO.N,PRINT_SIGA*%
X122809000Y109474000D02*
X122809000Y126365000D01*
X125857000Y106426000D02*
X122809000Y109474000D01*
%TO.N,PRINT_SIGB*%
X126365000Y104267000D02*
X127127000Y103505000D01*
%TO.N,PRINT_PHB*%
X118618000Y126111000D02*
X118618000Y104521000D01*
X118618000Y104521000D02*
X119634000Y103505000D01*
X119634000Y103505000D02*
X126365000Y103505000D01*
%TO.N,PRINT_SIGB*%
X119126000Y122936000D02*
X119126000Y104775000D01*
X119126000Y104775000D02*
X119634000Y104267000D01*
X119634000Y104267000D02*
X126365000Y104267000D01*
%TO.N,AGND*%
D23*
X55561000Y42545000D02*
X55753000Y42737000D01*
X55753000Y42737000D02*
X55753000Y43815000D01*
X55753000Y42737000D02*
X55753000Y41086000D01*
X55753000Y41086000D02*
X55561000Y40894000D01*
X58609000Y42545000D02*
X58609000Y43499000D01*
X58609000Y43499000D02*
X58420000Y43688000D01*
%TO.N,LCD_3.9V*%
D24*
X17145000Y45974000D02*
X98806000Y45974000D01*
X12446000Y50673000D02*
X17145000Y45974000D01*
X9525000Y50673000D02*
X12446000Y50673000D01*
X5080000Y55118000D02*
X9525000Y50673000D01*
X10287000Y85473000D02*
X5080000Y80266000D01*
X5080000Y80266000D02*
X5080000Y55118000D01*
X10287000Y85473000D02*
X10287000Y86741000D01*
%TO.N,LCD_16V*%
D25*
X116713000Y45974000D02*
X115570000Y44831000D01*
X8509000Y44831000D02*
X3810000Y49530000D01*
X3810000Y49530000D02*
X3810000Y81915000D01*
X3810000Y81915000D02*
X10033000Y88138000D01*
X10033000Y88138000D02*
X14097000Y88138000D01*
X14097000Y88138000D02*
X15875000Y86360000D01*
X115570000Y44831000D02*
X8509000Y44831000D01*
%TO.N,LCD_10V*%
D24*
X12507900Y91564100D02*
X15369900Y91564100D01*
X15369900Y91564100D02*
X22098000Y84836000D01*
X22098000Y84836000D02*
X22098000Y55118000D01*
%TO.N,LCD_-7.5V*%
D25*
X117348000Y46863000D02*
X117348000Y45593000D01*
X117348000Y45593000D02*
X116078000Y44323000D01*
X67691000Y44323000D02*
X61976000Y38608000D01*
X61976000Y38608000D02*
X13462000Y38608000D01*
X13462000Y38608000D02*
X2921000Y49149000D01*
X2921000Y49149000D02*
X2921000Y82296000D01*
X2921000Y82296000D02*
X9652000Y89027000D01*
X9652000Y89027000D02*
X15240000Y89027000D01*
X15240000Y89027000D02*
X20828000Y83439000D01*
X116078000Y44323000D02*
X67691000Y44323000D01*
%TO.N,RECG_CLK*%
D22*
X142113000Y96139000D02*
X142113000Y86360000D01*
%TO.N,D+*%
D23*
X28575000Y146939000D02*
X28198000Y146939000D01*
X28198000Y146939000D02*
X28071000Y147066000D01*
X11049000Y147066000D02*
X8763000Y144780000D01*
X8763000Y144780000D02*
X8763000Y141097000D01*
%TO.N,D-*%
X28575000Y147599400D02*
X28198000Y147599400D01*
X28198000Y147599400D02*
X28071000Y147472400D01*
X8356600Y144948300D02*
X8356600Y141265300D01*
X8356600Y141265300D02*
X7840600Y140749400D01*
%TO.N,D+*%
X8009000Y140343000D02*
X7545300Y140343000D01*
X7545300Y140343000D02*
X7093000Y140795300D01*
X7093000Y140795300D02*
X6564500Y140795300D01*
X6564500Y140795300D02*
X6236600Y141123200D01*
X6236600Y141895500D02*
X6146800Y141985300D01*
X6146800Y141985300D02*
X5447700Y141985300D01*
%TO.N,D-*%
X7840600Y140749400D02*
X7713600Y140749400D01*
X7713600Y140749400D02*
X7261300Y141201700D01*
X7261300Y141201700D02*
X6732800Y141201700D01*
X6732800Y141201700D02*
X6643000Y141291500D01*
X6643000Y141291500D02*
X6643000Y141418500D01*
X6956500Y141732000D02*
X6643000Y141418500D01*
X7493000Y141732000D02*
X6956500Y141732000D01*
%TO.N,D+*%
X28071000Y147066000D02*
X11049000Y147066000D01*
X8763000Y141097000D02*
X8009000Y140343000D01*
%TO.N,D-*%
X28071000Y147472400D02*
X10880700Y147472400D01*
X10880700Y147472400D02*
X8356600Y144948300D01*
%TO.N,D+*%
X6236600Y141123200D02*
X6236600Y141895500D01*
%TO.N,5V_OUT*%
D21*
X15875000Y123040200D02*
X16468000Y122447200D01*
X16468000Y122447200D02*
X17653000Y121262200D01*
X131953000Y50038000D02*
X139446000Y57531000D01*
X140397000Y57596000D02*
X139431700Y57596000D01*
%TO.N,SPO2_VSIG*%
D23*
X54864000Y82866000D02*
X56704000Y81026000D01*
X55880000Y97790000D02*
X54864000Y96774000D01*
X54864000Y96774000D02*
X54864000Y82866000D01*
%TO.N,RECG_CLK*%
D22*
X82423000Y97282000D02*
X82296000Y97155000D01*
%TO.N,GND*%
X136398000Y95236200D02*
X75170200Y95236200D01*
X49530000Y73660000D02*
X49530000Y82042000D01*
X54356000Y90297000D02*
X53340000Y91313000D01*
X53340000Y91313000D02*
X50673000Y91313000D01*
X75170200Y95236200D02*
X72898000Y92964000D01*
X74803000Y88900000D02*
X74803000Y75184000D01*
X72898000Y92964000D02*
X72898000Y74676000D01*
X72898000Y74676000D02*
X71501000Y73279000D01*
X71501000Y73279000D02*
X55753000Y73279000D01*
X55753000Y73279000D02*
X54356000Y74676000D01*
X54356000Y74676000D02*
X54356000Y90297000D01*
%TO.N,SPO2_CAP*%
X72390000Y93091000D02*
X72390000Y75057000D01*
X72390000Y75057000D02*
X71120000Y73787000D01*
X71120000Y73787000D02*
X60198000Y73787000D01*
%TO.N,GND*%
X74803000Y75184000D02*
X72517000Y72898000D01*
X72517000Y72898000D02*
X50292000Y72898000D01*
X50292000Y72898000D02*
X49530000Y73660000D01*
X136398000Y94449300D02*
X135978300Y94869000D01*
X135978300Y94869000D02*
X80772000Y94869000D01*
X80772000Y94869000D02*
X74803000Y88900000D01*
%TO.N,MECG_CLK*%
X114300000Y87630000D02*
X119507000Y82423000D01*
X91186000Y87630000D02*
X114300000Y87630000D01*
%TO.N,RECG_RESET*%
X132461000Y82423000D02*
X132461000Y86868000D01*
%TO.N,$4N12860*%
X133223000Y82423000D02*
X133223000Y86614000D01*
X133223000Y86614000D02*
X128397000Y91440000D01*
X89789000Y91440000D02*
X128397000Y91440000D01*
X89027000Y92202000D02*
X89789000Y91440000D01*
%TO.N,12VP*%
D26*
X116459000Y129032000D02*
X117094000Y128397000D01*
D25*
X129667000Y133350000D02*
X129921000Y133604000D01*
X129921000Y133604000D02*
X130810000Y133604000D01*
X130810000Y133604000D02*
X131191000Y133223000D01*
X131191000Y132842000D02*
X130556000Y132207000D01*
X131191000Y133223000D02*
X131191000Y132842000D01*
%TO.N,KEY_CFM*%
X228411000Y44323000D02*
X230211000Y42523000D01*
X230211000Y42523000D02*
X230211000Y42429000D01*
%TO.N,AGND*%
X57277000Y54737000D02*
X57277000Y59247000D01*
%TO.N,A3.3*%
X55815000Y57785000D02*
X55815000Y59309000D01*
%TO.N,AGND*%
X57277000Y59247000D02*
X57215000Y59309000D01*
%TO.N,A3.3*%
X54610000Y57912000D02*
X55688000Y57912000D01*
%TO.N,AGND*%
X56961000Y42545000D02*
X56961000Y43496000D01*
X56961000Y43496000D02*
X56769000Y43688000D01*
X56961000Y42545000D02*
X56961000Y40894000D01*
X56961000Y40894000D02*
X59563000Y40894000D01*
X59563000Y40894000D02*
X60071000Y41402000D01*
X60071000Y41402000D02*
X60071000Y42483000D01*
X60071000Y42483000D02*
X60009000Y42545000D01*
%TO.N,$2N200*%
X3810000Y145025400D02*
X4841600Y146057000D01*
X4841600Y146057000D02*
X5889100Y146057000D01*
%TO.N,$2N198*%
X1689000Y137407000D02*
X2270400Y137407000D01*
X2270400Y137407000D02*
X3683000Y138819600D01*
%TO.N,$2N9177*%
D27*
X21844000Y139446000D02*
X19685000Y141605000D01*
X19685000Y141605000D02*
X14986000Y141605000D01*
X30607000Y139446000D02*
X29591000Y139446000D01*
X29591000Y139446000D02*
X28575000Y139446000D01*
X28575000Y139446000D02*
X21844000Y139446000D01*
%TO.N,3V3SGM*%
D25*
X51816000Y87503000D02*
X50038000Y87503000D01*
X50038000Y87503000D02*
X48133000Y89408000D01*
%TO.N,GND*%
D21*
X65278000Y75692000D02*
X63881000Y77089000D01*
X63881000Y77089000D02*
X63881000Y77671200D01*
X63881000Y77671200D02*
X63886600Y77676900D01*
X69850000Y75692000D02*
X66167000Y75692000D01*
X66167000Y75692000D02*
X65278000Y75692000D01*
X69850000Y76897000D02*
X69850000Y75692000D01*
D25*
X101512600Y93396900D02*
X110033900Y93396900D01*
X110033900Y93396900D02*
X110744000Y94107000D01*
%TO.N,A3.3*%
X76900000Y128143000D02*
X76900000Y129921000D01*
X76900000Y128143000D02*
X78424000Y126619000D01*
X78424000Y126619000D02*
X78424000Y122936000D01*
X78613000Y122555000D02*
X78613000Y122747000D01*
X78613000Y122747000D02*
X78424000Y122936000D01*
X84963000Y105283000D02*
X87057000Y105283000D01*
X87057000Y105283000D02*
X87249000Y105475000D01*
X78740000Y105283000D02*
X78929000Y105283000D01*
X78929000Y105283000D02*
X79310000Y104902000D01*
%TO.N,AGND*%
X87249000Y104075000D02*
X85725000Y104075000D01*
X85725000Y104075000D02*
X81537000Y104075000D01*
X81537000Y104075000D02*
X80710000Y104902000D01*
X88519000Y105283000D02*
X87311000Y104075000D01*
X87311000Y104075000D02*
X87249000Y104075000D01*
%TO.N,RECG_CLK*%
D22*
X82296000Y97155000D02*
X82296000Y96799400D01*
X113284000Y96646600D02*
X141605400Y96646600D01*
X141605400Y96646600D02*
X142113000Y96139000D01*
%TO.N,A3.3*%
D25*
X55688000Y57912000D02*
X55815000Y57785000D01*
%TO.N,GND*%
D22*
X64135000Y54737000D02*
X64135000Y52324000D01*
X64135000Y52324000D02*
X65151000Y51308000D01*
%TO.N,RECG_MISO*%
X140805800Y99732200D02*
X141605000Y98933000D01*
X82881400Y99732200D02*
X140805800Y99732200D01*
%TO.N,GND*%
D25*
X132334000Y100457000D02*
X133604000Y100457000D01*
X133604000Y100457000D02*
X136779000Y103632000D01*
X136779000Y103632000D02*
X136779000Y105664000D01*
%TO.N,12VP*%
D26*
X128905000Y133350000D02*
X123952000Y128397000D01*
X117094000Y128397000D02*
X120015000Y128397000D01*
X120015000Y128397000D02*
X123952000Y128397000D01*
D25*
X129560500Y133350000D02*
X129667000Y133350000D01*
D26*
X129560500Y133350000D02*
X128905000Y133350000D01*
D21*
X130302000Y132608500D02*
X130302000Y132871200D01*
X130302000Y132871200D02*
X130810000Y132871200D01*
X130810000Y133350000D02*
X130365500Y133350000D01*
X130302000Y132871200D02*
X130302000Y133286500D01*
D25*
X129667000Y133350000D02*
X130086400Y133350000D01*
X130086400Y133350000D02*
X130365500Y133350000D01*
X130556000Y132207000D02*
X130048000Y132207000D01*
X130048000Y132207000D02*
X129794000Y132461000D01*
X129794000Y133223000D02*
X129667000Y133350000D01*
X129794000Y132461000D02*
X129794000Y133116500D01*
X129794000Y133116500D02*
X129794000Y133223000D01*
X129560500Y133350000D02*
X129794000Y133116500D01*
X129794000Y133116500D02*
X130302000Y132608500D01*
%TO.N,5V_OUT*%
X142213300Y133448800D02*
X149540400Y133448800D01*
X149540400Y133448800D02*
X152824600Y136733000D01*
X140397000Y57596000D02*
X142793100Y59992200D01*
X142793100Y88758900D02*
X144171300Y90137100D01*
X144171300Y90137100D02*
X144171300Y126635300D01*
X141381300Y129425400D02*
X141381300Y132622000D01*
X141381300Y132622000D02*
X142208100Y133448800D01*
X142208100Y133448800D02*
X142213300Y133448800D01*
X142752600Y60007000D02*
X142752600Y60652100D01*
X142752600Y60652100D02*
X142772100Y60671600D01*
X142793100Y88758900D02*
X142793100Y70979700D01*
X142793100Y70979700D02*
X142798100Y70974700D01*
%TO.N,12V*%
D28*
X130302000Y119237000D02*
X129397000Y120142000D01*
%TO.N,5V_OUT*%
D21*
X15875000Y123063000D02*
X15875000Y123040200D01*
%TO.N,12V*%
D28*
X22860000Y98679000D02*
X23114000Y98933000D01*
X23114000Y98933000D02*
X77470000Y98933000D01*
%TO.N,GND*%
D29*
X48260000Y123063000D02*
X53594000Y123063000D01*
X53594000Y123063000D02*
X54229000Y122428000D01*
X54229000Y122428000D02*
X54229000Y118745000D01*
X54229000Y118745000D02*
X53340000Y117856000D01*
X45085000Y126238000D02*
X48260000Y123063000D01*
X45085000Y126238000D02*
X45085000Y132080000D01*
%TO.N,MECG_START*%
D22*
X92202000Y88138000D02*
X92456000Y87884000D01*
%TO.N,MECG_CS*%
X91694000Y88646000D02*
X91723400Y88616600D01*
X92370800Y88646000D02*
X91694000Y88646000D01*
X92878800Y88138000D02*
X92370800Y88646000D01*
%TO.N,MECG_MISO*%
X90678000Y89154000D02*
X90707400Y89124600D01*
X90678000Y89154000D02*
X92329000Y89154000D01*
X92329000Y89154000D02*
X93090600Y88392400D01*
%TO.N,MECG_START*%
X92456000Y87884000D02*
X114427000Y87884000D01*
X114427000Y87884000D02*
X119408500Y82902500D01*
X119408500Y82902500D02*
X120015000Y82902500D01*
%TO.N,MECG_CS*%
X119634000Y83439000D02*
X119231200Y83439000D01*
X119231200Y83439000D02*
X114532200Y88138000D01*
X114532200Y88138000D02*
X92878800Y88138000D01*
%TO.N,MECG_MISO*%
X93090600Y88392400D02*
X114637000Y88392400D01*
X119082400Y83947000D02*
X114637000Y88392400D01*
X120303100Y83947000D02*
X119082400Y83947000D01*
%TO.N,MECG_MOSI*%
X119435400Y84455000D02*
X118933600Y84455000D01*
X92964000Y89281000D02*
X93598600Y88646400D01*
X93598600Y88646400D02*
X114742200Y88646400D01*
X118933600Y84455000D02*
X114742200Y88646400D01*
%TO.N,MECG_RESET*%
X92456000Y89789000D02*
X92426600Y89759600D01*
X92456000Y89789000D02*
X93218000Y89789000D01*
X93218000Y89789000D02*
X94106200Y88900800D01*
X119507000Y85471000D02*
X118276800Y85471000D01*
X118276800Y85471000D02*
X114847000Y88900800D01*
X114847000Y88900800D02*
X94106200Y88900800D01*
X92426600Y89759600D02*
X92358400Y89759600D01*
%TO.N,RECG_RESET*%
X89535000Y90932000D02*
X89789000Y91186000D01*
X89789000Y91186000D02*
X128143000Y91186000D01*
X128143000Y91186000D02*
X132461000Y86868000D01*
%TO.N,5V_OUT*%
D25*
X144171300Y126635300D02*
X141381300Y129425400D01*
%TO.N,MLL*%
D23*
X53590300Y129620100D02*
X57216300Y125994100D01*
X57216300Y125994100D02*
X57216300Y119919800D01*
%TO.N,II+*%
X49420600Y55478700D02*
X48719900Y56179400D01*
X48719900Y56179400D02*
X39146300Y56179400D01*
X26991100Y68334700D02*
X39146300Y56179400D01*
X24714800Y68334700D02*
X26991100Y68334700D01*
%TO.N,III+*%
X25598300Y55355000D02*
X25598300Y55057000D01*
X25598300Y55057000D02*
X26805100Y53850200D01*
X26805100Y53850200D02*
X49411400Y53850200D01*
%TO.N,III-*%
X49381600Y53097200D02*
X49003000Y53475700D01*
X49003000Y53475700D02*
X26676700Y53475700D01*
X26676700Y53475700D02*
X23992900Y56159600D01*
%TO.N,5V_OUT*%
D21*
X17653000Y121262200D02*
X17653000Y92310300D01*
X17653000Y92310300D02*
X59925300Y50038000D01*
X59925300Y50038000D02*
X131953000Y50038000D01*
%TO.N,SPO2_CAP*%
D22*
X136398000Y96012000D02*
X135900400Y95514400D01*
X135900400Y95514400D02*
X74813400Y95514400D01*
X74813400Y95514400D02*
X72390000Y93091000D01*
%TO.N,5V_OUT*%
D25*
X152993800Y136624000D02*
X153437100Y136180800D01*
X153437100Y136180800D02*
X153437100Y134302800D01*
X153408500Y133047400D02*
X153867900Y132588000D01*
X153867900Y132588000D02*
X155123100Y132588000D01*
X155123100Y132588000D02*
X155871400Y132588000D01*
X155871400Y132588000D02*
X156619700Y132588000D01*
X156619700Y132588000D02*
X157524500Y132588000D01*
%TO.N,LINE_ADCH2*%
D23*
X222842500Y71544000D02*
X231032200Y63354300D01*
X231032200Y63354300D02*
X232681600Y63354300D01*
%TO.N,TOUCH_CLK*%
D22*
X116499300Y67571600D02*
X114769300Y65841700D01*
X114769300Y65841700D02*
X110380600Y65841700D01*
%TO.N,12V*%
D28*
X130302000Y103916500D02*
X130302000Y119237000D01*
X128694400Y102308900D02*
X130302000Y103916500D01*
X80845900Y102308900D02*
X128694400Y102308900D01*
X77470000Y98933000D02*
X80845900Y102308900D01*
%TO.N,PRINT_MA-*%
D21*
X122250700Y130140700D02*
X121743600Y129633600D01*
X121743600Y129633600D02*
X118217800Y129633600D01*
X118217800Y129633600D02*
X116783000Y131068300D01*
X116783000Y131068300D02*
X116783000Y134906000D01*
%TO.N,12VP*%
D25*
X129794000Y132461000D02*
X129499900Y132755100D01*
X129499900Y132755100D02*
X128755100Y132755100D01*
%TO.N,GND*%
X6488600Y90270800D02*
X6488600Y90177400D01*
X6488600Y90177400D02*
X6125700Y89814600D01*
X4703500Y90671000D02*
X5281800Y91249300D01*
X5281800Y91249300D02*
X5330200Y91249300D01*
X5210400Y90809200D02*
X5139000Y90737800D01*
X5139000Y90737800D02*
X4927000Y90737800D01*
%TO.N,RECG_CLK*%
D22*
X82296000Y96799400D02*
X82601200Y96494200D01*
X82601200Y96494200D02*
X113131200Y96494200D01*
X113131200Y96494200D02*
X113283600Y96646600D01*
%TO.N,RECG_MOSI*%
X84017600Y97465400D02*
X83547200Y97465400D01*
X83547200Y97465400D02*
X83073400Y96991700D01*
%TO.N,RECG_CS*%
X83810400Y96980600D02*
X83890300Y96900600D01*
X83890300Y96900600D02*
X141477600Y96900600D01*
X141477600Y96900600D02*
X141732000Y97155000D01*
%TO.N,RECG_MOSI*%
X137137200Y97539200D02*
X136752600Y97154600D01*
X136752600Y97154600D02*
X84328400Y97154600D01*
X84328400Y97154600D02*
X84017600Y97465400D01*
%TO.N,SPO2_VSIG*%
D23*
X115695900Y99188100D02*
X115579600Y99304400D01*
X115579600Y99304400D02*
X83221800Y99304400D01*
X83221800Y99304400D02*
X81707400Y97790000D01*
X81707400Y97790000D02*
X55880000Y97790000D01*
%TO.N,LCD_10V*%
D24*
X12060400Y92011700D02*
X12507900Y91564100D01*
X22098000Y55118000D02*
X30353000Y46863000D01*
X30353000Y46863000D02*
X84295800Y46863000D01*
X84295800Y46863000D02*
X84304400Y46871600D01*
X84304400Y46871600D02*
X84963000Y46871600D01*
%TD*%
M02*
