%TF.GenerationSoftware,KiCad,Pcbnew,10.99.0-unknown*%
%TF.CreationDate,2026-08-12T15:27:21+08:00*%
%TF.ProjectId,______12_____,c335d1a4-082b-4313-92fc-549ffd092e6b,rev?*%
%TF.SameCoordinates,Original*%
%TF.FileFunction,Soldermask,Bot*%
%TF.FilePolarity,Negative*%
%FSLAX46Y46*%
G04 Gerber Fmt 4.6, Leading zero omitted, Abs format (unit mm)*
G04 Created by KiCad (PCBNEW 10.99.0-unknown) date 2026-08-12 15:27:21*
%MOMM*%
%LPD*%
G01*
G04 APERTURE LIST*
G04 Aperture macros list*
%AMRoundRect*
0 Rectangle with rounded corners*
0 $1 Rounding radius*
0 $2 $3 $4 $5 $6 $7 $8 $9 X,Y pos of 4 corners*
0 Add a 4 corners polygon primitive as box body*
4,1,4,$2,$3,$4,$5,$6,$7,$8,$9,$2,$3,0*
0 Add four circle primitives for the rounded corners*
1,1,$1+$1,$2,$3*
1,1,$1+$1,$4,$5*
1,1,$1+$1,$6,$7*
1,1,$1+$1,$8,$9*
0 Add four rect primitives between the rounded corners*
20,1,$1+$1,$2,$3,$4,$5,0*
20,1,$1+$1,$4,$5,$6,$7,0*
20,1,$1+$1,$6,$7,$8,$9,0*
20,1,$1+$1,$8,$9,$2,$3,0*%
G04 Aperture macros list end*
%ADD10RoundRect,0.155000X0.345000X-0.105000X0.345000X0.105000X-0.345000X0.105000X-0.345000X-0.105000X0*%
%ADD11RoundRect,0.155000X-0.105000X-0.345000X0.105000X-0.345000X0.105000X0.345000X-0.105000X0.345000X0*%
%ADD12RoundRect,0.275000X-0.225000X-0.275000X0.225000X-0.275000X0.225000X0.275000X-0.225000X0.275000X0*%
%ADD13RoundRect,0.275000X-0.225000X-0.275000X0.225000X-0.275000X0.225000X0.275000X-0.225000X0.275000X0*%
%ADD14C,0.850000*%
%ADD15RoundRect,0.155000X-0.105000X-0.345000X0.105000X-0.345000X0.105000X0.345000X-0.105000X0.345000X0*%
%ADD16RoundRect,0.155000X0.345000X-0.105000X0.345000X0.105000X-0.345000X0.105000X-0.345000X-0.105000X0*%
G04 APERTURE END LIST*
D10*
%TO.C,DSUB1*%
X12560000Y65862000D03*
X12560000Y65062000D03*
X12560000Y64262000D03*
X12560000Y63462000D03*
X12560000Y62662000D03*
D11*
X11760000Y61862000D03*
X10960000Y61862000D03*
X10160000Y61862000D03*
X9360000Y61862000D03*
X8560000Y61862000D03*
D10*
X7760000Y62662000D03*
X7760000Y63462000D03*
X7760000Y64262000D03*
X7760000Y65062000D03*
X7760000Y65862000D03*
D11*
X8560000Y66662000D03*
X9360000Y66662000D03*
%TD*%
D12*
%TO.C,C1*%
X24068000Y68326000D03*
X22668000Y68326000D03*
%TD*%
D13*
%TO.C,C186*%
X22733621Y73459350D03*
X24133621Y73459350D03*
%TD*%
D12*
%TO.C,C188*%
X23941986Y55227736D03*
X22541986Y55227736D03*
%TD*%
%TO.C,C189*%
X23987252Y43008688D03*
X23987252Y44408688D03*
%TD*%
D13*
%TO.C,C191*%
X36743447Y66777851D03*
X36743447Y65377851D03*
%TD*%
D12*
%TO.C,C192*%
X36707950Y61796720D03*
X36707950Y63196720D03*
%TD*%
%TO.C,C194*%
X24688112Y50003678D03*
X24688112Y51403678D03*
%TD*%
%TO.C,C19*%
X58993000Y42037000D03*
X57593000Y42037000D03*
%TD*%
D13*
%TO.C,C20*%
X60452000Y61279000D03*
X60452000Y59879000D03*
%TD*%
%TO.C,C21*%
X57150000Y61279000D03*
X57150000Y59879000D03*
%TD*%
%TO.C,C22*%
X58801000Y61279000D03*
X58801000Y59879000D03*
%TD*%
%TO.C,C23*%
X55504410Y61317583D03*
X55504410Y59917583D03*
%TD*%
%TO.C,C24*%
X53917609Y61317583D03*
X53917609Y59917583D03*
%TD*%
%TO.C,C25*%
X53211487Y40156930D03*
X54611487Y40156930D03*
%TD*%
D12*
%TO.C,C26*%
X62168000Y40513000D03*
X60768000Y40513000D03*
%TD*%
%TO.C,C27*%
X62185183Y42137127D03*
X60785183Y42137127D03*
%TD*%
%TO.C,C28*%
X49468000Y45085000D03*
X48068000Y45085000D03*
%TD*%
D13*
%TO.C,C34*%
X50927000Y61279000D03*
X50927000Y59879000D03*
%TD*%
%TO.C,C37*%
X49276000Y61279000D03*
X49276000Y59879000D03*
%TD*%
D14*
%TO.C,SW2*%
X102512647Y97080794D03*
X101512647Y96080794D03*
X100512647Y97080794D03*
X101512647Y98080794D03*
%TD*%
D12*
%TO.C,C47*%
X114675590Y97432537D03*
X114675590Y98832537D03*
%TD*%
D10*
%TO.C,USB1*%
X2064000Y140532000D03*
X2064000Y141332000D03*
X2064000Y142132000D03*
X2064000Y142932000D03*
D15*
X2864000Y143732000D03*
X3664000Y143732000D03*
X4464000Y143732000D03*
X5264000Y143732000D03*
D10*
X6064000Y142932000D03*
X6064000Y142132000D03*
X6064000Y141332000D03*
X6064000Y140532000D03*
D15*
X5264000Y139732000D03*
X4464000Y139732000D03*
X3664000Y139732000D03*
X2864000Y139732000D03*
%TD*%
D10*
%TO.C,U5*%
X20063948Y145622344D03*
X20063948Y144822344D03*
X20063948Y144022344D03*
X20063948Y143222344D03*
X20063948Y142422344D03*
X20063948Y141622344D03*
X20063948Y140822344D03*
X20063948Y140022344D03*
X20063948Y139222344D03*
D11*
X19263948Y138422344D03*
X18463948Y138422344D03*
X17663948Y138422344D03*
X16863948Y138422344D03*
X16063948Y138422344D03*
X15263948Y138422344D03*
X14463948Y138422344D03*
X13663948Y138422344D03*
X12863948Y138422344D03*
D10*
X12063948Y139222344D03*
X12063948Y140022344D03*
X12063948Y140822344D03*
X12063948Y141622344D03*
X12063948Y142422344D03*
X12063948Y143222344D03*
X12063948Y144022344D03*
X12063948Y144822344D03*
X12063948Y145622344D03*
D11*
X12863948Y146422344D03*
X13663948Y146422344D03*
X14463948Y146422344D03*
X15263948Y146422344D03*
X16063948Y146422344D03*
X16863948Y146422344D03*
%TD*%
D13*
%TO.C,C41*%
X16826000Y132715000D03*
X18226000Y132715000D03*
%TD*%
%TO.C,L1*%
X16318000Y136525000D03*
X17718000Y136525000D03*
%TD*%
%TO.C,U6*%
X16891000Y61660000D03*
X16891000Y60260000D03*
%TD*%
%TO.C,U7*%
X16877121Y75353760D03*
X16877121Y73953760D03*
%TD*%
D12*
%TO.C,U8*%
X10098000Y41275000D03*
X8698000Y41275000D03*
%TD*%
%TO.C,U9*%
X16891000Y66737000D03*
X16891000Y68137000D03*
%TD*%
D13*
%TO.C,U10*%
X16891000Y47563000D03*
X16891000Y46163000D03*
%TD*%
%TO.C,U11*%
X27940000Y80456000D03*
X27940000Y79056000D03*
%TD*%
%TO.C,U12*%
X29845000Y68518000D03*
X29845000Y67118000D03*
%TD*%
D12*
%TO.C,U13*%
X29845000Y60006000D03*
X29845000Y61406000D03*
%TD*%
D13*
%TO.C,U14*%
X30607000Y54929000D03*
X30607000Y53529000D03*
%TD*%
%TO.C,U15*%
X16891000Y54675000D03*
X16891000Y53275000D03*
%TD*%
%TO.C,LED1*%
X1181327Y134929291D03*
X2581327Y134929291D03*
%TD*%
D12*
%TO.C,LED2*%
X2605000Y133223000D03*
X1205000Y133223000D03*
%TD*%
D13*
%TO.C,LED3*%
X1205000Y131445000D03*
X2605000Y131445000D03*
%TD*%
D12*
%TO.C,LED4*%
X2609191Y129639522D03*
X1209191Y129639522D03*
%TD*%
%TO.C,C42*%
X8320000Y124460000D03*
X6920000Y124460000D03*
%TD*%
D13*
%TO.C,C43*%
X4634000Y111887000D03*
X6034000Y111887000D03*
%TD*%
D12*
%TO.C,C44*%
X8320000Y126492000D03*
X6920000Y126492000D03*
%TD*%
D13*
%TO.C,C45*%
X4634000Y110109000D03*
X6034000Y110109000D03*
%TD*%
D14*
%TO.C,X2*%
X109347000Y93869000D03*
X108347000Y94869000D03*
X109347000Y95869000D03*
X110347000Y94869000D03*
%TD*%
D12*
%TO.C,C48*%
X111125000Y84263000D03*
X111125000Y85663000D03*
%TD*%
D13*
%TO.C,C49*%
X111252000Y89092000D03*
X111252000Y87692000D03*
%TD*%
D12*
%TO.C,C50*%
X108777000Y92329000D03*
X107377000Y92329000D03*
%TD*%
%TO.C,C51*%
X109982000Y97725000D03*
X109982000Y99125000D03*
%TD*%
%TO.C,C46*%
X112887653Y97432537D03*
X112887653Y98832537D03*
%TD*%
%TO.C,X1*%
X108966000Y86422000D03*
X108966000Y87822000D03*
%TD*%
D14*
%TO.C,Q1*%
X88189694Y46295694D03*
X87323694Y47795694D03*
X89055694Y47795694D03*
%TD*%
D13*
%TO.C,C52*%
X93280000Y46228000D03*
X94680000Y46228000D03*
%TD*%
D14*
%TO.C,U18*%
X5198923Y99060635D03*
X4055723Y99720635D03*
X4055723Y101040635D03*
X5198923Y101700635D03*
X6342123Y101040635D03*
X6342123Y99720635D03*
%TD*%
D13*
%TO.C,L2*%
X11115919Y101879838D03*
X11115919Y100479838D03*
%TD*%
D12*
%TO.C,D1*%
X8373923Y97140635D03*
X8373923Y98540635D03*
%TD*%
D14*
%TO.C,D2*%
X19976567Y93523565D03*
X19110567Y95023565D03*
X20842567Y95023565D03*
%TD*%
%TO.C,D3*%
X14485923Y91998635D03*
X15985923Y92864635D03*
X15985923Y91132635D03*
%TD*%
D13*
%TO.C,C53*%
X18350000Y97409000D03*
X19750000Y97409000D03*
%TD*%
%TO.C,C54*%
X16628923Y97651635D03*
X16628923Y96251635D03*
%TD*%
D12*
%TO.C,C55*%
X6025923Y104698635D03*
X4625923Y104698635D03*
%TD*%
D13*
%TO.C,C56*%
X7038923Y94792635D03*
X8438923Y94792635D03*
%TD*%
%TO.C,C57*%
X14404923Y80695635D03*
X15804923Y80695635D03*
%TD*%
%TO.C,D5*%
X18595923Y85013635D03*
X19995923Y85013635D03*
%TD*%
%TO.C,C58*%
X19230923Y91236635D03*
X20630923Y91236635D03*
%TD*%
%TO.C,C59*%
X19357923Y79552635D03*
X20757923Y79552635D03*
%TD*%
D12*
%TO.C,D6*%
X15169923Y84886635D03*
X13769923Y84886635D03*
%TD*%
D13*
%TO.C,C60*%
X8435923Y88188635D03*
X9835923Y88188635D03*
%TD*%
D10*
%TO.C,U19*%
X146228000Y74384000D03*
X146228000Y75184000D03*
X146228000Y75984000D03*
D15*
X147028000Y76784000D03*
X147828000Y76784000D03*
X148628000Y76784000D03*
D10*
X149428000Y75984000D03*
X149428000Y75184000D03*
X149428000Y74384000D03*
%TD*%
D12*
%TO.C,C102*%
X258510000Y13081000D03*
X257110000Y13081000D03*
%TD*%
%TO.C,C103*%
X258510000Y14859000D03*
X257110000Y14859000D03*
%TD*%
D10*
%TO.C,U29*%
X101759000Y65602000D03*
X101759000Y66402000D03*
X101759000Y67202000D03*
X101759000Y68002000D03*
D15*
X102559000Y68802000D03*
X103359000Y68802000D03*
X104159000Y68802000D03*
X104959000Y68802000D03*
D10*
X105759000Y68002000D03*
X105759000Y67202000D03*
X105759000Y66402000D03*
X105759000Y65602000D03*
D15*
X104959000Y64802000D03*
X104159000Y64802000D03*
X103359000Y64802000D03*
X102559000Y64802000D03*
%TD*%
D14*
%TO.C,CN1*%
X118788064Y134973911D03*
X119788064Y135973911D03*
X120788064Y134973911D03*
X119788064Y133973911D03*
%TD*%
%TO.C,U31*%
X109431000Y134381027D03*
X108670900Y133334827D03*
X107441100Y133734427D03*
X107441100Y135027627D03*
X108670900Y135427227D03*
%TD*%
D10*
%TO.C,U32*%
X120888385Y129733368D03*
X121688385Y129733368D03*
X122488385Y129733368D03*
D11*
X123288385Y128933368D03*
X123288385Y128133368D03*
X123288385Y127333368D03*
D10*
X122488385Y126533368D03*
X121688385Y126533368D03*
X120888385Y126533368D03*
%TD*%
%TO.C,U33*%
X117441643Y129732606D03*
X118241643Y129732606D03*
X119041643Y129732606D03*
D11*
X119841643Y128932606D03*
X119841643Y128132606D03*
X119841643Y127332606D03*
D10*
X119041643Y126532606D03*
X118241643Y126532606D03*
X117441643Y126532606D03*
%TD*%
D14*
%TO.C,U30*%
X16909000Y113030000D03*
X17424500Y114274500D03*
X18669000Y114790000D03*
X19913500Y114274500D03*
X20429000Y113030000D03*
X19913500Y111785500D03*
X18669000Y111270000D03*
X17424500Y111785500D03*
%TD*%
D12*
%TO.C,C104*%
X17702506Y120009590D03*
X16302506Y120009590D03*
%TD*%
%TO.C,C105*%
X17702506Y118231590D03*
X16302506Y118231590D03*
%TD*%
%TO.C,R81*%
X21655000Y118237000D03*
X20255000Y118237000D03*
%TD*%
D13*
%TO.C,L3*%
X29337000Y108904000D03*
X29337000Y107504000D03*
%TD*%
%TO.C,C106*%
X16699000Y107823000D03*
X18099000Y107823000D03*
%TD*%
D12*
%TO.C,D7*%
X21082000Y102551000D03*
X21082000Y103951000D03*
%TD*%
D13*
%TO.C,C107*%
X18542000Y101157000D03*
X18542000Y99757000D03*
%TD*%
%TO.C,C108*%
X16730919Y101184257D03*
X16730919Y99784257D03*
%TD*%
D12*
%TO.C,C62*%
X55945000Y138938000D03*
X54545000Y138938000D03*
%TD*%
D13*
%TO.C,C63*%
X54560494Y134366000D03*
X55960494Y134366000D03*
%TD*%
D12*
%TO.C,C65*%
X56072000Y130556000D03*
X54672000Y130556000D03*
%TD*%
D13*
%TO.C,C66*%
X54672000Y125984000D03*
X56072000Y125984000D03*
%TD*%
D12*
%TO.C,C69*%
X55880000Y119061000D03*
X55880000Y120461000D03*
%TD*%
D13*
%TO.C,C80*%
X75881000Y118110000D03*
X77281000Y118110000D03*
%TD*%
%TO.C,C81*%
X80645000Y136717000D03*
X80645000Y135317000D03*
%TD*%
%TO.C,C82*%
X77343000Y136717000D03*
X77343000Y135317000D03*
%TD*%
%TO.C,C83*%
X78994000Y136717000D03*
X78994000Y135317000D03*
%TD*%
%TO.C,C84*%
X74041000Y136717000D03*
X74041000Y135317000D03*
%TD*%
%TO.C,C85*%
X75692000Y136717000D03*
X75692000Y135317000D03*
%TD*%
%TO.C,C86*%
X72599757Y117343103D03*
X73999757Y117343103D03*
%TD*%
D12*
%TO.C,C87*%
X80804252Y118934997D03*
X79404252Y118934997D03*
%TD*%
%TO.C,C88*%
X80804252Y117355587D03*
X79404252Y117355587D03*
%TD*%
%TO.C,C89*%
X70035833Y120112254D03*
X68635833Y120112254D03*
%TD*%
%TO.C,U21*%
X48895000Y124268000D03*
X48895000Y125668000D03*
%TD*%
%TO.C,U22*%
X48895000Y132523000D03*
X48895000Y133923000D03*
%TD*%
D13*
%TO.C,U23*%
X64008000Y119064000D03*
X64008000Y117664000D03*
%TD*%
%TO.C,U24*%
X48895000Y140781000D03*
X48895000Y139381000D03*
%TD*%
D12*
%TO.C,U25*%
X48895000Y117283000D03*
X48895000Y118683000D03*
%TD*%
D13*
%TO.C,U26*%
X48895000Y112206000D03*
X48895000Y110806000D03*
%TD*%
D12*
%TO.C,U27*%
X48895000Y101789000D03*
X48895000Y103189000D03*
%TD*%
%TO.C,C99*%
X56326000Y110109000D03*
X54926000Y110109000D03*
%TD*%
D13*
%TO.C,C100*%
X54926000Y104013000D03*
X56326000Y104013000D03*
%TD*%
D12*
%TO.C,C61*%
X101858624Y90030328D03*
X100458624Y90030328D03*
%TD*%
D10*
%TO.C,U28*%
X257377326Y16513410D03*
X257377326Y17313410D03*
X257377326Y18113410D03*
X257377326Y18913410D03*
X257377326Y19713410D03*
X257377326Y20513410D03*
D15*
X258177326Y21313410D03*
X258977326Y21313410D03*
X259777326Y21313410D03*
X260577326Y21313410D03*
X261377326Y21313410D03*
X262177326Y21313410D03*
D10*
X262977326Y20513410D03*
X262977326Y19713410D03*
X262977326Y18913410D03*
X262977326Y18113410D03*
X262977326Y17313410D03*
X262977326Y16513410D03*
D15*
X262177326Y15713410D03*
X261377326Y15713410D03*
X260577326Y15713410D03*
%TD*%
D13*
%TO.C,C109*%
X106855015Y130346508D03*
X108255015Y130346508D03*
%TD*%
D12*
%TO.C,R93*%
X57844361Y88667133D03*
X56444361Y88667133D03*
%TD*%
D13*
%TO.C,C110*%
X56444361Y91842133D03*
X57844361Y91842133D03*
%TD*%
%TO.C,C111*%
X56444361Y90191133D03*
X57844361Y90191133D03*
%TD*%
D12*
%TO.C,L81*%
X65278000Y78675000D03*
X65278000Y80075000D03*
%TD*%
%TO.C,C113*%
X63881000Y78675000D03*
X63881000Y80075000D03*
%TD*%
%TO.C,C114*%
X63754000Y75119000D03*
X63754000Y76519000D03*
%TD*%
D13*
%TO.C,C115*%
X69912000Y78613000D03*
X71312000Y78613000D03*
%TD*%
%TO.C,R94*%
X69912000Y80137000D03*
X71312000Y80137000D03*
%TD*%
D12*
%TO.C,R95*%
X62230000Y75119000D03*
X62230000Y76519000D03*
%TD*%
D13*
%TO.C,R96*%
X60833000Y76519000D03*
X60833000Y75119000D03*
%TD*%
D14*
%TO.C,Q80*%
X58039000Y74565000D03*
X57173000Y76065000D03*
X58905000Y76065000D03*
%TD*%
D12*
%TO.C,C119*%
X61238253Y79418452D03*
X59838253Y79418452D03*
%TD*%
%TO.C,R87*%
X61222226Y80908228D03*
X59822226Y80908228D03*
%TD*%
D13*
%TO.C,R89*%
X56704000Y79375000D03*
X58104000Y79375000D03*
%TD*%
D12*
%TO.C,R98*%
X68199000Y78675000D03*
X68199000Y80075000D03*
%TD*%
%TO.C,R99*%
X66802000Y78675000D03*
X66802000Y80075000D03*
%TD*%
D14*
%TO.C,U35*%
X41021000Y86022000D03*
X39974800Y86782100D03*
X40374400Y88011900D03*
X41667600Y88011900D03*
X42067200Y86782100D03*
%TD*%
D13*
%TO.C,L61*%
X39802015Y80686293D03*
X41202015Y80686293D03*
%TD*%
%TO.C,C121*%
X37465000Y86044000D03*
X37465000Y84644000D03*
%TD*%
D12*
%TO.C,R105*%
X49087000Y83185000D03*
X47687000Y83185000D03*
%TD*%
D13*
%TO.C,R106*%
X49911000Y92521000D03*
X49911000Y91121000D03*
%TD*%
D12*
%TO.C,C122*%
X37588505Y88327000D03*
X37588505Y89727000D03*
%TD*%
%TO.C,C123*%
X47436000Y78867000D03*
X46036000Y78867000D03*
%TD*%
D13*
%TO.C,C125*%
X51370000Y71882000D03*
X52770000Y71882000D03*
%TD*%
D12*
%TO.C,L60*%
X52770000Y73533000D03*
X51370000Y73533000D03*
%TD*%
%TO.C,C126*%
X52770000Y76835000D03*
X51370000Y76835000D03*
%TD*%
%TO.C,C127*%
X52770000Y70104000D03*
X51370000Y70104000D03*
%TD*%
D13*
%TO.C,C128*%
X51370000Y75184000D03*
X52770000Y75184000D03*
%TD*%
D16*
%TO.C,U34*%
X66605000Y83598000D03*
X65805000Y83598000D03*
X65005000Y83598000D03*
X64205000Y83598000D03*
D15*
X63405000Y84398000D03*
X63405000Y85198000D03*
X63405000Y85998000D03*
X63405000Y86798000D03*
D16*
X64205000Y87598000D03*
X65005000Y87598000D03*
X65805000Y87598000D03*
X66605000Y87598000D03*
D15*
X67405000Y86798000D03*
X67405000Y85998000D03*
%TD*%
D13*
%TO.C,C129*%
X85914000Y105410000D03*
X87314000Y105410000D03*
%TD*%
D12*
%TO.C,C130*%
X75565000Y102678000D03*
X75565000Y104078000D03*
%TD*%
D13*
%TO.C,C131*%
X85890557Y108391707D03*
X85890557Y106991707D03*
%TD*%
%TO.C,C132*%
X87503000Y108391707D03*
X87503000Y106991707D03*
%TD*%
D12*
%TO.C,C133*%
X82996000Y110490000D03*
X81596000Y110490000D03*
%TD*%
%TO.C,C135*%
X71120000Y104725443D03*
X71120000Y106125443D03*
%TD*%
%TO.C,C136*%
X71120000Y108281443D03*
X71120000Y109681443D03*
%TD*%
D13*
%TO.C,C137*%
X67818000Y106125443D03*
X67818000Y104725443D03*
%TD*%
%TO.C,C138*%
X67945000Y109665949D03*
X67945000Y108265949D03*
%TD*%
%TO.C,C139*%
X69596000Y109665949D03*
X69596000Y108265949D03*
%TD*%
%TO.C,C140*%
X69469000Y106125443D03*
X69469000Y104725443D03*
%TD*%
%TO.C,R113*%
X84709000Y89981000D03*
X84709000Y88581000D03*
%TD*%
D12*
%TO.C,R114*%
X86233000Y88581000D03*
X86233000Y89981000D03*
%TD*%
D14*
%TO.C,U40*%
X131080000Y57658000D03*
X132580000Y58524000D03*
X132580000Y56792000D03*
%TD*%
%TO.C,Q81*%
X134785557Y57351703D03*
X135651557Y55851703D03*
X133919557Y55851703D03*
%TD*%
D12*
%TO.C,D8*%
X131129000Y53340000D03*
X129729000Y53340000D03*
%TD*%
%TO.C,C142*%
X137414000Y56196000D03*
X137414000Y57596000D03*
%TD*%
D14*
%TO.C,U41*%
X144034000Y57912000D03*
X145534000Y58778000D03*
X145534000Y57046000D03*
%TD*%
%TO.C,Q82*%
X148082000Y57642000D03*
X148948000Y56142000D03*
X147216000Y56142000D03*
%TD*%
D12*
%TO.C,D9*%
X146242000Y53086000D03*
X144842000Y53086000D03*
%TD*%
%TO.C,C143*%
X150622000Y56450000D03*
X150622000Y57850000D03*
%TD*%
D10*
%TO.C,U37*%
X84245000Y107829000D03*
X84245000Y107029000D03*
X84245000Y106229000D03*
X84245000Y105429000D03*
X84245000Y104629000D03*
X84245000Y103829000D03*
X84245000Y103029000D03*
X84245000Y102229000D03*
D11*
X83445000Y101429000D03*
X82645000Y101429000D03*
X81845000Y101429000D03*
X81045000Y101429000D03*
X80245000Y101429000D03*
X79445000Y101429000D03*
X78645000Y101429000D03*
X77845000Y101429000D03*
D10*
X77045000Y102229000D03*
X77045000Y103029000D03*
X77045000Y103829000D03*
X77045000Y104629000D03*
X77045000Y105429000D03*
X77045000Y106229000D03*
X77045000Y107029000D03*
X77045000Y107829000D03*
D11*
X77845000Y108629000D03*
X78645000Y108629000D03*
X79445000Y108629000D03*
X80245000Y108629000D03*
X81045000Y108629000D03*
X81845000Y108629000D03*
X82645000Y108629000D03*
X83445000Y108629000D03*
%TD*%
D12*
%TO.C,C161*%
X153543000Y79564000D03*
X153543000Y80964000D03*
%TD*%
D13*
%TO.C,B1*%
X89470000Y75819000D03*
X90870000Y75819000D03*
%TD*%
D12*
%TO.C,U48*%
X106364000Y77343000D03*
X104964000Y77343000D03*
%TD*%
%TO.C,U49*%
X106364000Y80772000D03*
X104964000Y80772000D03*
%TD*%
D14*
%TO.C,H1*%
X139208000Y65151000D03*
X140208000Y66151000D03*
X141208000Y65151000D03*
X140208000Y64151000D03*
%TD*%
D10*
%TO.C,P1*%
X105193000Y47805000D03*
X105843000Y47805000D03*
X106493000Y47805000D03*
X107143000Y47805000D03*
X107793000Y47805000D03*
X108443000Y47805000D03*
X109093000Y47805000D03*
X109743000Y47805000D03*
X110393000Y47805000D03*
X111043000Y47805000D03*
X111693000Y47805000D03*
X112343000Y47805000D03*
X112993000Y47805000D03*
D11*
X113718000Y47080000D03*
X113718000Y46430000D03*
X113718000Y45780000D03*
X113718000Y45130000D03*
X113718000Y44480000D03*
X113718000Y43830000D03*
X113718000Y43180000D03*
X113718000Y42530000D03*
X113718000Y41880000D03*
X113718000Y41230000D03*
X113718000Y40580000D03*
X113718000Y39930000D03*
X113718000Y39280000D03*
D10*
X112993000Y38555000D03*
X112343000Y38555000D03*
X111693000Y38555000D03*
X111043000Y38555000D03*
X110393000Y38555000D03*
X109743000Y38555000D03*
X109093000Y38555000D03*
X108443000Y38555000D03*
X107793000Y38555000D03*
X107143000Y38555000D03*
X106493000Y38555000D03*
X105843000Y38555000D03*
X105193000Y38555000D03*
D11*
X104468000Y39280000D03*
X104468000Y39930000D03*
X104468000Y40580000D03*
X104468000Y41230000D03*
X104468000Y41880000D03*
X104468000Y42530000D03*
X104468000Y43180000D03*
X104468000Y43830000D03*
X104468000Y44480000D03*
X104468000Y45130000D03*
X104468000Y45780000D03*
X104468000Y46430000D03*
X104468000Y47080000D03*
%TD*%
D14*
%TO.C,X3*%
X107138000Y59436000D03*
X107798000Y60579200D03*
X109118000Y60579200D03*
X109778000Y59436000D03*
X109118000Y58292800D03*
X107798000Y58292800D03*
%TD*%
D16*
%TO.C,FPC4*%
X148450000Y134849000D03*
X147650000Y134849000D03*
X146850000Y134849000D03*
X146050000Y134849000D03*
X145250000Y134849000D03*
X144450000Y134849000D03*
X143650000Y134849000D03*
D15*
X142850000Y135649000D03*
X142850000Y136449000D03*
X142850000Y137249000D03*
X142850000Y138049000D03*
X142850000Y138849000D03*
X142850000Y139649000D03*
X142850000Y140449000D03*
D16*
X143650000Y141249000D03*
X144450000Y141249000D03*
X145250000Y141249000D03*
X146050000Y141249000D03*
X146850000Y141249000D03*
X147650000Y141249000D03*
X148450000Y141249000D03*
D15*
X149250000Y140449000D03*
X149250000Y139649000D03*
X149250000Y138849000D03*
X149250000Y138049000D03*
X149250000Y137249000D03*
X149250000Y136449000D03*
X149250000Y135649000D03*
%TD*%
D14*
%TO.C,U53*%
X115422741Y106912357D03*
X114762741Y105769157D03*
X113442741Y105769157D03*
X112782741Y106912357D03*
X113442741Y108055557D03*
X114762741Y108055557D03*
%TD*%
D13*
%TO.C,C181*%
X113435979Y104300231D03*
X114835979Y104300231D03*
%TD*%
D10*
%TO.C,U54*%
X143796000Y131832000D03*
X144596000Y131832000D03*
X145396000Y131832000D03*
X146196000Y131832000D03*
X146996000Y131832000D03*
X147796000Y131832000D03*
D11*
X148596000Y131032000D03*
X148596000Y130232000D03*
X148596000Y129432000D03*
X148596000Y128632000D03*
X148596000Y127832000D03*
X148596000Y127032000D03*
D10*
X147796000Y126232000D03*
X146996000Y126232000D03*
X146196000Y126232000D03*
X145396000Y126232000D03*
X144596000Y126232000D03*
X143796000Y126232000D03*
D11*
X142996000Y127032000D03*
X142996000Y127832000D03*
X142996000Y128632000D03*
X142996000Y129432000D03*
X142996000Y130232000D03*
X142996000Y131032000D03*
%TD*%
D14*
%TO.C,Q91*%
X138668000Y120269000D03*
X137168000Y119403000D03*
X137168000Y121135000D03*
%TD*%
D13*
%TO.C,C182*%
X132080000Y120207000D03*
X132080000Y118807000D03*
%TD*%
D12*
%TO.C,U55*%
X129097000Y120142000D03*
X127697000Y120142000D03*
%TD*%
%TO.C,C183*%
X139446000Y129094000D03*
X139446000Y130494000D03*
%TD*%
D14*
%TO.C,U56*%
X64813000Y67945000D03*
X65573100Y68991200D03*
X66802900Y68591600D03*
X66802900Y67298400D03*
X65573100Y66898800D03*
%TD*%
%TO.C,U57*%
X41402000Y127939000D03*
X42545200Y127279000D03*
X42545200Y125959000D03*
X41402000Y125299000D03*
X40258800Y125959000D03*
X40258800Y127279000D03*
%TD*%
%TO.C,U58*%
X75308147Y93458906D03*
X75968147Y94602106D03*
X77288147Y94602106D03*
X77948147Y93458906D03*
X77288147Y92315706D03*
X75968147Y92315706D03*
%TD*%
D13*
%TO.C,C184*%
X69586749Y94839131D03*
X69586749Y93439131D03*
%TD*%
D12*
%TO.C,C185*%
X72972543Y88631669D03*
X71572543Y88631669D03*
%TD*%
D14*
%TO.C,Q92*%
X134404557Y128217703D03*
X135270557Y126717703D03*
X133538557Y126717703D03*
%TD*%
D12*
%TO.C,U60*%
X29275000Y125857000D03*
X27875000Y125857000D03*
%TD*%
D14*
%TO.C,U61*%
X7350000Y120142000D03*
X5850000Y119276000D03*
X5850000Y121008000D03*
%TD*%
%TO.C,CN2*%
X146574000Y47371000D03*
X147574000Y48371000D03*
X148574000Y47371000D03*
X147574000Y46371000D03*
%TD*%
D13*
%TO.C,C187*%
X22725252Y60436905D03*
X24125252Y60436905D03*
%TD*%
D12*
%TO.C,C190*%
X31102851Y73909119D03*
X31102851Y75309119D03*
%TD*%
%TO.C,C193*%
X37459851Y50162713D03*
X37459851Y51562713D03*
%TD*%
D13*
%TO.C,C197*%
X28601763Y93831004D03*
X30001763Y93831004D03*
%TD*%
D12*
%TO.C,C198*%
X108041065Y70586526D03*
X106641065Y70586526D03*
%TD*%
D13*
%TO.C,C199*%
X98513551Y62983443D03*
X99913551Y62983443D03*
%TD*%
D10*
%TO.C,U62*%
X223389484Y87015241D03*
X223389484Y86215241D03*
X223389484Y85415241D03*
X223389484Y84615241D03*
D11*
X222589484Y83815241D03*
X221789484Y83815241D03*
X220989484Y83815241D03*
X220189484Y83815241D03*
D10*
X219389484Y84615241D03*
X219389484Y85415241D03*
X219389484Y86215241D03*
X219389484Y87015241D03*
D11*
X220189484Y87815241D03*
X220989484Y87815241D03*
%TD*%
D13*
%TO.C,C200*%
X218616272Y91270772D03*
X220016272Y91270772D03*
%TD*%
%TO.C,C201*%
X98254546Y109313118D03*
X98254546Y107913118D03*
%TD*%
D10*
%TO.C,U63*%
X103142717Y112794287D03*
X103942717Y112794287D03*
X104742717Y112794287D03*
X105542717Y112794287D03*
D11*
X106342717Y111994287D03*
X106342717Y111194287D03*
X106342717Y110394287D03*
X106342717Y109594287D03*
D10*
X105542717Y108794287D03*
X104742717Y108794287D03*
X103942717Y108794287D03*
X103142717Y108794287D03*
D11*
X102342717Y109594287D03*
X102342717Y110394287D03*
X102342717Y111194287D03*
X102342717Y111994287D03*
%TD*%
D13*
%TO.C,R1*%
X20890000Y69977000D03*
X22290000Y69977000D03*
%TD*%
D12*
%TO.C,R11*%
X53151000Y43180000D03*
X51751000Y43180000D03*
%TD*%
D13*
%TO.C,R12*%
X53267215Y41698113D03*
X54667215Y41698113D03*
%TD*%
D12*
%TO.C,R41*%
X22163000Y141605000D03*
X20763000Y141605000D03*
%TD*%
D13*
%TO.C,R42*%
X20763000Y143256000D03*
X22163000Y143256000D03*
%TD*%
D12*
%TO.C,R43*%
X2605000Y127762000D03*
X1205000Y127762000D03*
%TD*%
%TO.C,R44*%
X8946364Y134992364D03*
X7546364Y134992364D03*
%TD*%
%TO.C,R45*%
X8955000Y129540000D03*
X7555000Y129540000D03*
%TD*%
%TO.C,R46*%
X47625000Y59948395D03*
X47625000Y61348395D03*
%TD*%
D13*
%TO.C,R48*%
X34798000Y134558000D03*
X34798000Y133158000D03*
%TD*%
%TO.C,R49*%
X100457000Y49087000D03*
X100457000Y47687000D03*
%TD*%
D12*
%TO.C,R50*%
X122112000Y46736000D03*
X120712000Y46736000D03*
%TD*%
%TO.C,R51*%
X94665443Y48409527D03*
X93265443Y48409527D03*
%TD*%
%TO.C,R53*%
X88900000Y42861000D03*
X88900000Y44261000D03*
%TD*%
%TO.C,R54*%
X4120923Y97078635D03*
X2720923Y97078635D03*
%TD*%
D13*
%TO.C,R55*%
X2720923Y95427635D03*
X4120923Y95427635D03*
%TD*%
D12*
%TO.C,R56*%
X17201923Y87934635D03*
X15801923Y87934635D03*
%TD*%
D13*
%TO.C,R57*%
X14404923Y82600635D03*
X15804923Y82600635D03*
%TD*%
D12*
%TO.C,R58*%
X20819923Y86980635D03*
X20819923Y88380635D03*
%TD*%
D13*
%TO.C,R59*%
X19384344Y82106513D03*
X20784344Y82106513D03*
%TD*%
D12*
%TO.C,R60*%
X9835923Y91490635D03*
X8435923Y91490635D03*
%TD*%
D13*
%TO.C,R61*%
X8435923Y89839635D03*
X9835923Y89839635D03*
%TD*%
D12*
%TO.C,R62*%
X103825624Y88441328D03*
X103825624Y89841328D03*
%TD*%
D13*
%TO.C,R63*%
X53021000Y137414000D03*
X54421000Y137414000D03*
%TD*%
%TO.C,R64*%
X53021000Y135890000D03*
X54421000Y135890000D03*
%TD*%
%TO.C,R65*%
X53021000Y129032000D03*
X54421000Y129032000D03*
%TD*%
%TO.C,R66*%
X53021000Y127508000D03*
X54421000Y127508000D03*
%TD*%
%TO.C,R67*%
X52894000Y120523000D03*
X54294000Y120523000D03*
%TD*%
D12*
%TO.C,R73*%
X72328000Y115824000D03*
X70928000Y115824000D03*
%TD*%
D13*
%TO.C,R74*%
X72595464Y118922516D03*
X73995464Y118922516D03*
%TD*%
%TO.C,R75*%
X53402000Y108585000D03*
X54802000Y108585000D03*
%TD*%
%TO.C,R76*%
X53402000Y106045000D03*
X54802000Y106045000D03*
%TD*%
D12*
%TO.C,R77*%
X110150797Y68008094D03*
X108750797Y68008094D03*
%TD*%
%TO.C,R78*%
X91059000Y44766000D03*
X91059000Y46166000D03*
%TD*%
D13*
%TO.C,R79*%
X12802874Y115148134D03*
X14202874Y115148134D03*
%TD*%
D12*
%TO.C,R80*%
X14185355Y113659168D03*
X12785355Y113659168D03*
%TD*%
D13*
%TO.C,R82*%
X23049000Y116205000D03*
X24449000Y116205000D03*
%TD*%
%TO.C,R83*%
X120104064Y125067911D03*
X121504064Y125067911D03*
%TD*%
%TO.C,R84*%
X116675064Y125067911D03*
X118075064Y125067911D03*
%TD*%
D12*
%TO.C,R85*%
X103505000Y128855027D03*
X103505000Y130255027D03*
%TD*%
D13*
%TO.C,R86*%
X106811954Y128678813D03*
X108211954Y128678813D03*
%TD*%
D12*
%TO.C,R107*%
X66421000Y108337222D03*
X66421000Y109737222D03*
%TD*%
D13*
%TO.C,R108*%
X66294000Y106252443D03*
X66294000Y104852443D03*
%TD*%
D12*
%TO.C,R109*%
X64897000Y108337222D03*
X64897000Y109737222D03*
%TD*%
D13*
%TO.C,R110*%
X64770000Y106252443D03*
X64770000Y104852443D03*
%TD*%
%TO.C,R111*%
X72644000Y106125443D03*
X72644000Y104725443D03*
%TD*%
%TO.C,R112*%
X72644000Y109737222D03*
X72644000Y108337222D03*
%TD*%
%TO.C,R115*%
X134174000Y59055000D03*
X135574000Y59055000D03*
%TD*%
%TO.C,R116*%
X147509000Y59563000D03*
X148909000Y59563000D03*
%TD*%
%TO.C,R143*%
X121728000Y76327000D03*
X123128000Y76327000D03*
%TD*%
D12*
%TO.C,R144*%
X114795766Y109450373D03*
X113395766Y109450373D03*
%TD*%
D13*
%TO.C,R145*%
X133666000Y120269000D03*
X135066000Y120269000D03*
%TD*%
D12*
%TO.C,R146*%
X138684000Y122744000D03*
X138684000Y124144000D03*
%TD*%
D13*
%TO.C,R147*%
X20887899Y71678256D03*
X22287899Y71678256D03*
%TD*%
%TO.C,R148*%
X20891643Y56707260D03*
X22291643Y56707260D03*
%TD*%
%TO.C,R149*%
X20824430Y58395913D03*
X22224430Y58395913D03*
%TD*%
%TO.C,R150*%
X28176696Y75328313D03*
X29576696Y75328313D03*
%TD*%
%TO.C,R151*%
X20902530Y44325139D03*
X22302530Y44325139D03*
%TD*%
%TO.C,R152*%
X33635829Y65421850D03*
X35035829Y65421850D03*
%TD*%
%TO.C,R153*%
X33657757Y63350935D03*
X35057757Y63350935D03*
%TD*%
%TO.C,R154*%
X34434941Y51581840D03*
X35834941Y51581840D03*
%TD*%
%TO.C,R155*%
X20987371Y51414517D03*
X22387371Y51414517D03*
%TD*%
D12*
%TO.C,R156*%
X264470476Y81298242D03*
X263070476Y81298242D03*
%TD*%
%TO.C,R157*%
X263806103Y61043304D03*
X262406103Y61043304D03*
%TD*%
%TO.C,R158*%
X240726784Y66202359D03*
X239326784Y66202359D03*
%TD*%
D10*
%TO.C,U17*%
X116941256Y79816974D03*
X116941256Y80466974D03*
X116941256Y81116974D03*
X116941256Y81766974D03*
X116941256Y82416974D03*
X116941256Y83066974D03*
X116941256Y83716974D03*
X116941256Y84366974D03*
X116941256Y85016974D03*
X116941256Y85666974D03*
X116941256Y86316974D03*
X116941256Y86966974D03*
X116941256Y87616974D03*
X116941256Y88266974D03*
X116941256Y88916974D03*
X116941256Y89566974D03*
X116941256Y90216974D03*
X116941256Y90866974D03*
X116941256Y91516974D03*
X116941256Y92166974D03*
X116941256Y92816974D03*
X116941256Y93466974D03*
X116941256Y94116974D03*
X116941256Y94766974D03*
X116941256Y95416974D03*
X116941256Y96066974D03*
X116941256Y96716974D03*
X116941256Y97366974D03*
X116941256Y98016974D03*
X116941256Y98666974D03*
X116941256Y99316974D03*
X116941256Y99966974D03*
X116941256Y100616974D03*
X116941256Y101266974D03*
X116941256Y101916974D03*
X116941256Y102566974D03*
D15*
X117666256Y103291974D03*
X118316256Y103291974D03*
X118966256Y103291974D03*
X119616256Y103291974D03*
X120266256Y103291974D03*
X120916256Y103291974D03*
X121566256Y103291974D03*
X122216256Y103291974D03*
X122866256Y103291974D03*
X123516256Y103291974D03*
X124166256Y103291974D03*
X124816256Y103291974D03*
X125466256Y103291974D03*
X126116256Y103291974D03*
X126766256Y103291974D03*
X127416256Y103291974D03*
X128066256Y103291974D03*
X128716256Y103291974D03*
X129366256Y103291974D03*
X130016256Y103291974D03*
X130666256Y103291974D03*
X131316256Y103291974D03*
X131966256Y103291974D03*
X132616256Y103291974D03*
X133266256Y103291974D03*
X133916256Y103291974D03*
X134566256Y103291974D03*
X135216256Y103291974D03*
X135866256Y103291974D03*
X136516256Y103291974D03*
X137166256Y103291974D03*
X137816256Y103291974D03*
X138466256Y103291974D03*
X139116256Y103291974D03*
X139766256Y103291974D03*
X140416256Y103291974D03*
D10*
X141141256Y102566974D03*
X141141256Y101916974D03*
X141141256Y101266974D03*
X141141256Y100616974D03*
X141141256Y99966974D03*
X141141256Y99316974D03*
X141141256Y98666974D03*
X141141256Y98016974D03*
X141141256Y97366974D03*
X141141256Y96716974D03*
X141141256Y96066974D03*
X141141256Y95416974D03*
X141141256Y94766974D03*
X141141256Y94116974D03*
X141141256Y93466974D03*
X141141256Y92816974D03*
X141141256Y92166974D03*
X141141256Y91516974D03*
X141141256Y90866974D03*
X141141256Y90216974D03*
X141141256Y89566974D03*
X141141256Y88916974D03*
X141141256Y88266974D03*
X141141256Y87616974D03*
X141141256Y86966974D03*
X141141256Y86316974D03*
X141141256Y85666974D03*
X141141256Y85016974D03*
X141141256Y84366974D03*
X141141256Y83716974D03*
X141141256Y83066974D03*
X141141256Y82416974D03*
X141141256Y81766974D03*
X141141256Y81116974D03*
X141141256Y80466974D03*
X141141256Y79816974D03*
D15*
X140416256Y79091974D03*
X139766256Y79091974D03*
X139116256Y79091974D03*
X138466256Y79091974D03*
X137816256Y79091974D03*
X137166256Y79091974D03*
X136516256Y79091974D03*
X135866256Y79091974D03*
X135216256Y79091974D03*
X134566256Y79091974D03*
X133916256Y79091974D03*
X133266256Y79091974D03*
X132616256Y79091974D03*
X131966256Y79091974D03*
X131316256Y79091974D03*
X130666256Y79091974D03*
X130016256Y79091974D03*
X129366256Y79091974D03*
X128716256Y79091974D03*
X128066256Y79091974D03*
X127416256Y79091974D03*
X126766256Y79091974D03*
X126116256Y79091974D03*
X125466256Y79091974D03*
X124816256Y79091974D03*
X124166256Y79091974D03*
X123516256Y79091974D03*
X122866256Y79091974D03*
X122216256Y79091974D03*
X121566256Y79091974D03*
X120916256Y79091974D03*
X120266256Y79091974D03*
X119616256Y79091974D03*
X118966256Y79091974D03*
X118316256Y79091974D03*
X117666256Y79091974D03*
%TD*%
D14*
%TO.C,Q93*%
X44077024Y85262049D03*
X45577024Y86128049D03*
X45577024Y84396049D03*
%TD*%
D12*
%TO.C,R159*%
X40228002Y90103476D03*
X40228002Y91503476D03*
%TD*%
D13*
%TO.C,R161*%
X44021753Y89201588D03*
X44021753Y87801588D03*
%TD*%
%TO.C,R162*%
X35766136Y84389378D03*
X35766136Y82989378D03*
%TD*%
%TO.C,R163*%
X42126997Y91504967D03*
X42126997Y90104967D03*
%TD*%
%TO.C,R164*%
X34381824Y84376129D03*
X34381824Y82976129D03*
%TD*%
D16*
%TO.C,U64*%
X50751074Y85791288D03*
X49951074Y85791288D03*
X49151074Y85791288D03*
D15*
X48351074Y86591288D03*
X48351074Y87391288D03*
X48351074Y88191288D03*
D16*
X49151074Y88991288D03*
X49951074Y88991288D03*
X50751074Y88991288D03*
D15*
X51551074Y88191288D03*
%TD*%
D14*
%TO.C,Q94*%
X90131341Y51873891D03*
X90997341Y50373891D03*
X89265341Y50373891D03*
%TD*%
D12*
%TO.C,R165*%
X86344948Y49413956D03*
X86344948Y50813956D03*
%TD*%
D13*
%TO.C,R166*%
X92590897Y51938869D03*
X92590897Y50538869D03*
%TD*%
M02*
