%TF.GenerationSoftware,KiCad,Pcbnew,10.99.0-unknown*%
%TF.CreationDate,2026-08-12T15:31:36+08:00*%
%TF.ProjectId,AD9361+__FPGA_SDR_______AD9363,41443933-3631-42bd-9891-465047415f53,rev?*%
%TF.SameCoordinates,Original*%
%TF.FileFunction,Profile,NP*%
%FSLAX46Y46*%
G04 Gerber Fmt 4.6, Leading zero omitted, Abs format (unit mm)*
G04 Created by KiCad (PCBNEW 10.99.0-unknown) date 2026-08-12 15:31:36*
%MOMM*%
%LPD*%
G01*
G04 APERTURE LIST*
%TA.AperFunction,Profile*%
%ADD10C,0.254000*%
%TD*%
G04 APERTURE END LIST*
D10*
X100000000Y-2540000D02*
X100000000Y-2540000D01*
X100000000Y-2540000D02*
X100000000Y-57460000D01*
X97460000Y-60000000D02*
X97460000Y-60000000D01*
X97460000Y-60000000D02*
X2540000Y-60000000D01*
X0Y-57460000D02*
X0Y-57460000D01*
X0Y-57460000D02*
X0Y-2540000D01*
X2540000Y0D02*
X2222500Y-316900D01*
X2222500Y-316900D02*
X1905000Y-634000D01*
X1905000Y-634000D02*
X1587500Y-951300D01*
X1587500Y-951300D02*
X1270000Y-1268700D01*
X1270000Y-1268700D02*
X952500Y-1586300D01*
X952500Y-1586300D02*
X635000Y-1904000D01*
X635000Y-1904000D02*
X317500Y-2221900D01*
X317500Y-2221900D02*
X0Y-2540000D01*
X100000000Y-2540000D02*
X99682500Y-2221900D01*
X99682500Y-2221900D02*
X99365000Y-1904000D01*
X99365000Y-1904000D02*
X99047500Y-1586300D01*
X99047500Y-1586300D02*
X98730000Y-1268700D01*
X98730000Y-1268700D02*
X98412500Y-951300D01*
X98412500Y-951300D02*
X98095000Y-634000D01*
X98095000Y-634000D02*
X97777500Y-316900D01*
X97777500Y-316900D02*
X97460000Y0D01*
X97460000Y-60000000D02*
X97777500Y-59681900D01*
X97777500Y-59681900D02*
X98095000Y-59364000D01*
X98095000Y-59364000D02*
X98412500Y-59046300D01*
X98412500Y-59046300D02*
X98730000Y-58728700D01*
X98730000Y-58728700D02*
X99047500Y-58411300D01*
X99047500Y-58411300D02*
X99365000Y-58094000D01*
X99365000Y-58094000D02*
X99682500Y-57776900D01*
X99682500Y-57776900D02*
X100000000Y-57460000D01*
X0Y-57460000D02*
X317500Y-57776900D01*
X317500Y-57776900D02*
X635000Y-58094000D01*
X635000Y-58094000D02*
X952500Y-58411300D01*
X952500Y-58411300D02*
X1270000Y-58728700D01*
X1270000Y-58728700D02*
X1587500Y-59046300D01*
X1587500Y-59046300D02*
X1905000Y-59364000D01*
X1905000Y-59364000D02*
X2222500Y-59681900D01*
X2222500Y-59681900D02*
X2540000Y-60000000D01*
X2540000Y0D02*
X2540000Y0D01*
X2540000Y0D02*
X7186100Y0D01*
X22017000Y9000D02*
X22017000Y9000D01*
X22017000Y9000D02*
X97460000Y4000D01*
X22017000Y9000D02*
X22017000Y9000D01*
X22017000Y9000D02*
X22017000Y-2046000D01*
X22017000Y-2046000D02*
X21405100Y-2046000D01*
X7186100Y0D02*
X7186100Y0D01*
X7186100Y0D02*
X7186100Y-2046000D01*
X7186100Y-2046000D02*
X7805100Y-2046000D01*
M02*
