%TF.GenerationSoftware,KiCad,Pcbnew,10.99.0-unknown*%
%TF.CreationDate,2026-08-12T15:31:36+08:00*%
%TF.ProjectId,AD9361+__FPGA_SDR_______AD9363,41443933-3631-42bd-9891-465047415f53,rev?*%
%TF.SameCoordinates,Original*%
%TF.FileFunction,Other,User*%
%FSLAX46Y46*%
G04 Gerber Fmt 4.6, Leading zero omitted, Abs format (unit mm)*
G04 Created by KiCad (PCBNEW 10.99.0-unknown) date 2026-08-12 15:31:36*
%MOMM*%
%LPD*%
G01*
G04 APERTURE LIST*
%ADD10C,0.050000*%
G04 APERTURE END LIST*
%TO.C,C57*%
D10*
X74461000Y-22249000D02*
X76161000Y-22249000D01*
X76161000Y-25249000D01*
X74461000Y-25249000D01*
X74461000Y-22249000D01*
%TO.C,C58*%
X81827000Y-27964000D02*
X83527000Y-27964000D01*
X83527000Y-30964000D01*
X81827000Y-30964000D01*
X81827000Y-27964000D01*
%TO.C,C59*%
X81685000Y-30519000D02*
X84685000Y-30519000D01*
X84685000Y-32219000D01*
X81685000Y-32219000D01*
X81685000Y-30519000D01*
%TO.C,C61*%
X81812000Y-26709000D02*
X84812000Y-26709000D01*
X84812000Y-28409000D01*
X81812000Y-28409000D01*
X81812000Y-26709000D01*
%TO.C,C62*%
X81819155Y-25542965D02*
X84819155Y-25542965D01*
X84819155Y-27242965D01*
X81819155Y-27242965D01*
X81819155Y-25542965D01*
%TO.C,C63*%
X71144000Y-32551000D02*
X74144000Y-32551000D01*
X74144000Y-34251000D01*
X71144000Y-34251000D01*
X71144000Y-32551000D01*
%TO.C,C65*%
X71144000Y-33694000D02*
X74144000Y-33694000D01*
X74144000Y-35394000D01*
X71144000Y-35394000D01*
X71144000Y-33694000D01*
%TO.C,C67*%
X81812000Y-24296000D02*
X84812000Y-24296000D01*
X84812000Y-25996000D01*
X81812000Y-25996000D01*
X81812000Y-24296000D01*
%TO.C,C68*%
X75683371Y-22279875D02*
X78683371Y-22279875D01*
X78683371Y-23979875D01*
X75683371Y-23979875D01*
X75683371Y-22279875D01*
%TO.C,C69*%
X75683371Y-23548478D02*
X78683371Y-23548478D01*
X78683371Y-25248478D01*
X75683371Y-25248478D01*
X75683371Y-23548478D01*
%TO.C,C70*%
X81939000Y-31789000D02*
X84939000Y-31789000D01*
X84939000Y-33489000D01*
X81939000Y-33489000D01*
X81939000Y-31789000D01*
%TO.C,C72*%
X73684000Y-33948000D02*
X76684000Y-33948000D01*
X76684000Y-35648000D01*
X73684000Y-35648000D01*
X73684000Y-33948000D01*
%TO.C,C73*%
X73659908Y-35136471D02*
X76659908Y-35136471D01*
X76659908Y-36836471D01*
X73659908Y-36836471D01*
X73659908Y-35136471D01*
%TO.C,C74*%
X81812000Y-23153000D02*
X84812000Y-23153000D01*
X84812000Y-24853000D01*
X81812000Y-24853000D01*
X81812000Y-23153000D01*
%TO.C,C75*%
X81939000Y-32932000D02*
X84939000Y-32932000D01*
X84939000Y-34632000D01*
X81939000Y-34632000D01*
X81939000Y-32932000D01*
%TO.C,C76*%
X71652000Y-23661000D02*
X74652000Y-23661000D01*
X74652000Y-25361000D01*
X71652000Y-25361000D01*
X71652000Y-23661000D01*
%TO.C,C79*%
X71652000Y-24804000D02*
X74652000Y-24804000D01*
X74652000Y-26504000D01*
X71652000Y-26504000D01*
X71652000Y-24804000D01*
%TO.C,C81*%
X71652000Y-22264000D02*
X74652000Y-22264000D01*
X74652000Y-23964000D01*
X71652000Y-23964000D01*
X71652000Y-22264000D01*
%TO.C,C85*%
X81965378Y-38740937D02*
X84965378Y-38740937D01*
X84965378Y-40440937D01*
X81965378Y-40440937D01*
X81965378Y-38740937D01*
%TO.C,C86*%
X81964728Y-37567327D02*
X84964728Y-37567327D01*
X84964728Y-39267327D01*
X81964728Y-39267327D01*
X81964728Y-37567327D01*
%TO.C,C87*%
X81939000Y-36361000D02*
X84939000Y-36361000D01*
X84939000Y-38061000D01*
X81939000Y-38061000D01*
X81939000Y-36361000D01*
%TO.C,C109*%
X9041000Y-41822000D02*
X12041000Y-41822000D01*
X12041000Y-43522000D01*
X9041000Y-43522000D01*
X9041000Y-41822000D01*
%TO.C,C131*%
X19290916Y-57607084D02*
X22290916Y-57607084D01*
X22290916Y-59307084D01*
X19290916Y-59307084D01*
X19290916Y-57607084D01*
%TO.C,C132*%
X19328000Y-56046000D02*
X22328000Y-56046000D01*
X22328000Y-57746000D01*
X19328000Y-57746000D01*
X19328000Y-56046000D01*
%TO.C,C138*%
X8056177Y-28851110D02*
X9756177Y-28851110D01*
X9756177Y-31851110D01*
X8056177Y-31851110D01*
X8056177Y-28851110D01*
%TO.C,C139*%
X14093638Y-28865131D02*
X15793638Y-28865131D01*
X15793638Y-31865131D01*
X14093638Y-31865131D01*
X14093638Y-28865131D01*
%TO.C,D3*%
X1130000Y-47534800D02*
X5220000Y-47534800D01*
X5220000Y-51271200D01*
X1130000Y-51271200D01*
X1130000Y-47534800D01*
%TO.C,D4*%
X4728499Y-22582237D02*
X7728499Y-22582237D01*
X7728499Y-24282237D01*
X4728499Y-24282237D01*
X4728499Y-22582237D01*
%TO.C,D5*%
X9806078Y-21169194D02*
X12806078Y-21169194D01*
X12806078Y-22869194D01*
X9806078Y-22869194D01*
X9806078Y-21169194D01*
%TO.C,D6*%
X12345568Y-22488732D02*
X15345568Y-22488732D01*
X15345568Y-24188732D01*
X12345568Y-24188732D01*
X12345568Y-22488732D01*
%TO.C,D7*%
X17421105Y-22434335D02*
X20421105Y-22434335D01*
X20421105Y-24134335D01*
X17421105Y-24134335D01*
X17421105Y-22434335D01*
%TO.C,R21*%
X79020140Y-21941233D02*
X80720140Y-21941233D01*
X80720140Y-24941233D01*
X79020140Y-24941233D01*
X79020140Y-21941233D01*
%TO.C,R22*%
X80338913Y-21897500D02*
X82038913Y-21897500D01*
X82038913Y-24897500D01*
X80338913Y-24897500D01*
X80338913Y-21897500D01*
%TO.C,R23*%
X69766053Y-7585028D02*
X72766053Y-7585028D01*
X72766053Y-9285028D01*
X69766053Y-9285028D01*
X69766053Y-7585028D01*
%TO.C,R34*%
X73777243Y-39086484D02*
X76777243Y-39086484D01*
X76777243Y-40786484D01*
X73777243Y-40786484D01*
X73777243Y-39086484D01*
%TO.C,R35*%
X73776969Y-36606120D02*
X76776969Y-36606120D01*
X76776969Y-38306120D01*
X73776969Y-38306120D01*
X73776969Y-36606120D01*
%TO.C,R36*%
X73790464Y-37829585D02*
X76790464Y-37829585D01*
X76790464Y-39529585D01*
X73790464Y-39529585D01*
X73790464Y-37829585D01*
%TO.C,R40*%
X73760055Y-40314797D02*
X76760055Y-40314797D01*
X76760055Y-42014797D01*
X73760055Y-42014797D01*
X73760055Y-40314797D01*
%TO.C,R42*%
X50316000Y-55284000D02*
X53316000Y-55284000D01*
X53316000Y-56984000D01*
X50316000Y-56984000D01*
X50316000Y-55284000D01*
%TO.C,R43*%
X50316000Y-54141000D02*
X53316000Y-54141000D01*
X53316000Y-55841000D01*
X50316000Y-55841000D01*
X50316000Y-54141000D01*
%TO.C,R44*%
X50316000Y-52998000D02*
X53316000Y-52998000D01*
X53316000Y-54698000D01*
X50316000Y-54698000D01*
X50316000Y-52998000D01*
%TO.C,R45*%
X50316000Y-51855000D02*
X53316000Y-51855000D01*
X53316000Y-53555000D01*
X50316000Y-53555000D01*
X50316000Y-51855000D01*
%TO.C,R47*%
X30110605Y-45747331D02*
X33110605Y-45747331D01*
X33110605Y-47447331D01*
X30110605Y-47447331D01*
X30110605Y-45747331D01*
%TO.C,R48*%
X30096396Y-44555807D02*
X33096396Y-44555807D01*
X33096396Y-46255807D01*
X30096396Y-46255807D01*
X30096396Y-44555807D01*
%TO.C,R61*%
X1294000Y-5881000D02*
X4294000Y-5881000D01*
X4294000Y-7581000D01*
X1294000Y-7581000D01*
X1294000Y-5881000D01*
%TO.C,R62*%
X1267421Y-7556585D02*
X4267421Y-7556585D01*
X4267421Y-9256585D01*
X1267421Y-9256585D01*
X1267421Y-7556585D01*
%TO.C,R63*%
X1274066Y-9167318D02*
X4274066Y-9167318D01*
X4274066Y-10867318D01*
X1274066Y-10867318D01*
X1274066Y-9167318D01*
%TO.C,R64*%
X23761319Y-40431383D02*
X26761319Y-40431383D01*
X26761319Y-42131383D01*
X23761319Y-42131383D01*
X23761319Y-40431383D01*
%TO.C,R65*%
X23755799Y-41563131D02*
X26755799Y-41563131D01*
X26755799Y-43263131D01*
X23755799Y-43263131D01*
X23755799Y-41563131D01*
%TO.C,R66*%
X23773000Y-39282000D02*
X26773000Y-39282000D01*
X26773000Y-40982000D01*
X23773000Y-40982000D01*
X23773000Y-39282000D01*
%TO.C,R67*%
X30200549Y-40387814D02*
X33200549Y-40387814D01*
X33200549Y-42087814D01*
X30200549Y-42087814D01*
X30200549Y-40387814D01*
%TO.C,R68*%
X30201334Y-36901812D02*
X33201334Y-36901812D01*
X33201334Y-38601812D01*
X30201334Y-38601812D01*
X30201334Y-36901812D01*
%TO.C,R69*%
X25294812Y-34742445D02*
X26994812Y-34742445D01*
X26994812Y-37742445D01*
X25294812Y-37742445D01*
X25294812Y-34742445D01*
%TO.C,R70*%
X30223312Y-39220357D02*
X33223312Y-39220357D01*
X33223312Y-40920357D01*
X30223312Y-40920357D01*
X30223312Y-39220357D01*
%TO.C,R71*%
X30203122Y-38047794D02*
X33203122Y-38047794D01*
X33203122Y-39747794D01*
X30203122Y-39747794D01*
X30203122Y-38047794D01*
%TO.C,R72*%
X24123206Y-34733481D02*
X25823206Y-34733481D01*
X25823206Y-37733481D01*
X24123206Y-37733481D01*
X24123206Y-34733481D01*
%TO.C,R85*%
X9997493Y-31703750D02*
X12997493Y-31703750D01*
X12997493Y-33403750D01*
X9997493Y-33403750D01*
X9997493Y-31703750D01*
%TO.C,X4*%
X10080298Y-28167468D02*
X13530298Y-28167468D01*
X13530298Y-31617468D01*
X10080298Y-31617468D01*
X10080298Y-28167468D01*
%TO.C,C145*%
X13501000Y-50189000D02*
X15201000Y-50189000D01*
X15201000Y-53189000D01*
X13501000Y-53189000D01*
X13501000Y-50189000D01*
%TO.C,C149*%
X10199000Y-32917000D02*
X11899000Y-32917000D01*
X11899000Y-35917000D01*
X10199000Y-35917000D01*
X10199000Y-32917000D01*
%TO.C,C150*%
X7771000Y-34964000D02*
X10771000Y-34964000D01*
X10771000Y-36664000D01*
X7771000Y-36664000D01*
X7771000Y-34964000D01*
%TO.C,C151*%
X7771000Y-36996000D02*
X10771000Y-36996000D01*
X10771000Y-38696000D01*
X7771000Y-38696000D01*
X7771000Y-36996000D01*
%TO.C,R86*%
X31522468Y-56513597D02*
X33222468Y-56513597D01*
X33222468Y-59513597D01*
X31522468Y-59513597D01*
X31522468Y-56513597D01*
%TO.C,R87*%
X49892083Y-56484573D02*
X51592083Y-56484573D01*
X51592083Y-59484573D01*
X49892083Y-59484573D01*
X49892083Y-56484573D01*
%TO.C,R88*%
X30371375Y-56518375D02*
X32071375Y-56518375D01*
X32071375Y-59518375D01*
X30371375Y-59518375D01*
X30371375Y-56518375D01*
%TO.C,R89*%
X33901145Y-56503923D02*
X35601145Y-56503923D01*
X35601145Y-59503923D01*
X33901145Y-59503923D01*
X33901145Y-56503923D01*
%TO.C,R90*%
X32688033Y-56503923D02*
X34388033Y-56503923D01*
X34388033Y-59503923D01*
X32688033Y-59503923D01*
X32688033Y-56503923D01*
%TO.C,C152*%
X69112000Y-24804000D02*
X72112000Y-24804000D01*
X72112000Y-26504000D01*
X69112000Y-26504000D01*
X69112000Y-24804000D01*
%TO.C,C153*%
X57555000Y-55538000D02*
X60555000Y-55538000D01*
X60555000Y-57238000D01*
X57555000Y-57238000D01*
X57555000Y-55538000D01*
%TO.C,C154*%
X57555000Y-57951000D02*
X60555000Y-57951000D01*
X60555000Y-59651000D01*
X57555000Y-59651000D01*
X57555000Y-57951000D01*
%TO.C,Q1*%
X72450000Y-55933000D02*
X75632000Y-55933000D01*
X75632000Y-58883000D01*
X72450000Y-58883000D01*
X72450000Y-55933000D01*
%TO.C,Q2*%
X60878000Y-3362000D02*
X63828000Y-3362000D01*
X63828000Y-6544000D01*
X60878000Y-6544000D01*
X60878000Y-3362000D01*
%TO.C,Q3*%
X56814000Y-3362000D02*
X59764000Y-3362000D01*
X59764000Y-6544000D01*
X56814000Y-6544000D01*
X56814000Y-3362000D01*
%TO.C,Q4*%
X1133655Y-14854640D02*
X4315655Y-14854640D01*
X4315655Y-17804640D01*
X1133655Y-17804640D01*
X1133655Y-14854640D01*
%TO.C,Q5*%
X1107869Y-11151767D02*
X4289869Y-11151767D01*
X4289869Y-14101767D01*
X1107869Y-14101767D01*
X1107869Y-11151767D01*
%TO.C,Q6*%
X21777000Y-14912000D02*
X24959000Y-14912000D01*
X24959000Y-17862000D01*
X21777000Y-17862000D01*
X21777000Y-14912000D01*
%TO.C,Q7*%
X1185088Y-18656197D02*
X4367088Y-18656197D01*
X4367088Y-21606197D01*
X1185088Y-21606197D01*
X1185088Y-18656197D01*
%TO.C,R91*%
X58952000Y-54141000D02*
X61952000Y-54141000D01*
X61952000Y-55841000D01*
X58952000Y-55841000D01*
X58952000Y-54141000D01*
%TO.C,C155*%
X39775000Y-6262000D02*
X42775000Y-6262000D01*
X42775000Y-7962000D01*
X39775000Y-7962000D01*
X39775000Y-6262000D01*
%TO.C,C156*%
X52856000Y-6262000D02*
X55856000Y-6262000D01*
X55856000Y-7962000D01*
X52856000Y-7962000D01*
X52856000Y-6262000D01*
%TO.C,C157*%
X46252000Y-6262000D02*
X49252000Y-6262000D01*
X49252000Y-7962000D01*
X46252000Y-7962000D01*
X46252000Y-6262000D01*
%TO.C,R92*%
X28360000Y-41426000D02*
X30060000Y-41426000D01*
X30060000Y-44426000D01*
X28360000Y-44426000D01*
X28360000Y-41426000D01*
%TD*%
M02*
