M48
; DRILL file KiCad 10.99.0-unknown date 2026-08-12T15:31:37
; FORMAT={-:-/ absolute / metric / decimal}
; #@! TF.CreationDate,2026-08-12T15:31:37+08:00
; #@! TF.GenerationSoftware,Kicad,Pcbnew,10.99.0-unknown
; #@! TF.FileFunction,MixedPlating,1,4
FMAT,2
METRIC
; #@! TA.AperFunction,Plated,PTH,ViaDrill
T1C0.300
; #@! TA.AperFunction,Plated,PTH,ViaDrill
T2C0.300
%
G90
G05
T1
X0.599Y-30.263
X0.613Y-29.652
X0.613Y-36.562
X0.616Y-29.042
X0.621Y-30.918
X0.628Y-37.303
X0.635Y-7.239
X0.642Y-31.523
X0.642Y-32.739
X0.642Y-35.893
X0.648Y-32.138
X0.649Y-34.59
X0.657Y-33.351
X0.671Y-33.956
X0.671Y-37.908
X0.7Y-35.187
X0.7Y-38.535
X0.762Y-18.796
X0.981Y-28.564
X1.016Y-5.588
X1.092Y-39.022
X1.116Y-46.41
X1.318Y-52.191
X1.413Y-28.111
X1.416Y-26.197
X1.43Y-24.802
X1.437Y-42.072
X1.492Y-39.477
X1.493Y-43.216
X1.524Y-11.303
X1.734Y-15.645
X1.749Y-12.446
X1.826Y-22.225
X1.905Y-30.607
X1.905Y-31.367
X1.905Y-32.053
X1.905Y-32.696
X1.905Y-33.344
X1.905Y-34.066
X1.905Y-34.765
X1.905Y-35.48
X1.905Y-36.166
X1.905Y-37.063
X1.912Y-29.916
X1.938Y-27.585
X1.967Y-39.989
X2.229Y-29.337
X2.361Y-5.588
X2.399Y-40.449
X2.413Y-37.846
X2.572Y-27.484
X2.598Y-16.379
X2.738Y-28.828
X2.762Y-43.202
X2.769Y-46.41
X2.818Y-42.044
X2.921Y-38.354
X2.931Y-40.752
X2.955Y-23.341
X3.012Y-31.732
X3.026Y-32.404
X3.031Y-33.062
X3.041Y-34.49
X3.045Y-33.715
X3.06Y-31.066
X3.156Y-35.195
X3.204Y-8.378
X3.207Y-10.017
X3.227Y-27.47
X3.227Y-6.731
X3.257Y-52.177
X3.319Y-30.49
X3.383Y-26.169
X3.538Y-28.697
X3.556Y-38.735
X3.565Y-40.78
X3.649Y-13.377
X3.66Y-35.886
X3.675Y-17.08
X3.726Y-19.431
X3.804Y-30.067
X3.882Y-27.492
X3.937Y-12.192
X3.957Y-49.403
X3.996Y-24.118
X4.152Y-28.678
X4.191Y-40.795
X4.216Y-32.211
X4.236Y-32.825
X4.26Y-33.44
X4.284Y-31.587
X4.308Y-36.383
X4.317Y-22.264
X4.351Y-38.735
X4.432Y-30.01
X4.509Y-27.48
X4.526Y-34.006
X4.689Y-49.403
X4.749Y-18.108
X4.749Y-19.195
X4.778Y-31.165
X4.805Y-28.678
X4.825Y-40.795
X4.869Y-36.7
X5.023Y-34.352
X5.023Y-23.432
X5.069Y-27.247
X5.074Y-43.562
X5.2Y-29.966
X5.232Y-7.876
X5.232Y-8.564
X5.232Y-9.235
X5.232Y-10.078
X5.271Y-7.132
X5.416Y-28.71
X5.467Y-26.773
X5.503Y-31.1
X5.582Y-16.664
X5.614Y-22.152
X5.682Y-20.207
X5.8Y-29.952
X5.975Y-7.876
X5.975Y-8.564
X5.975Y-9.235
X5.975Y-10.078
X6.008Y-28.41
X6.014Y-7.132
X6.213Y-31.112
X6.317Y-19.238
X6.318Y-42.016
X6.339Y-18.193
X6.361Y-27.906
X6.374Y-42.978
X6.429Y-29.947
X6.56Y-28.745
X6.681Y-49.772
X6.735Y-27.402
X6.778Y-48.272
X6.797Y-7.876
X6.797Y-8.564
X6.797Y-9.235
X6.797Y-10.078
X6.837Y-7.132
X6.846Y-31.122
X6.852Y-16.664
X6.883Y-22.124
X7.038Y-29.933
X7.111Y-26.862
X7.141Y-40.752
X7.156Y-54.864
X7.197Y-34.925
X7.208Y-33.972
X7.239Y-58.485
X7.253Y-38.67
X7.286Y-37.229
X7.297Y-39.381
X7.317Y-36.09
X7.381Y-28.744
X7.411Y-32.244
X7.433Y-23.432
X7.488Y-31.112
X7.619Y-34.466
X7.638Y-29.947
X7.653Y-36.658
X7.793Y-38.309
X7.854Y-40.73
X7.874Y-42.836
X8.025Y-32.215
X8.068Y-32.893
X8.128Y-55.626
X8.133Y-31.115
X8.183Y-28.744
X8.243Y-29.947
X8.285Y-53.691
X8.329Y-40.233
X8.447Y-51.859
X8.488Y-51.245
X8.516Y-39.65
X8.536Y-33.455
X8.585Y-52.45
X8.636Y-35.797
X8.636Y-37.798
X8.687Y-32.225
X8.743Y-47.092
X8.763Y-58.33
X8.781Y-34.182
X8.808Y-31.115
X8.862Y-39.132
X8.994Y-28.744
X9.048Y-53.703
X9.059Y-51.869
X9.143Y-51.264
X9.144Y-41.746
X9.144Y-42.771
X9.297Y-32.206
X9.362Y-46.21
X9.421Y-49.51
X9.446Y-52.423
X9.458Y-48.828
X9.466Y-47.095
X9.469Y-47.761
X9.485Y-31.105
X9.525Y-33.782
X9.698Y-51.859
X9.785Y-51.26
X9.906Y-43.942
X9.983Y-32.187
X10.033Y-41.529
X10.039Y-46.207
X10.075Y-47.074
X10.079Y-47.779
X10.101Y-22.019
X10.152Y-31.1
X10.154Y-48.814
X10.168Y-49.487
X10.232Y-37.737
X10.243Y-38.352
X10.247Y-52.473
X10.253Y-37.121
X10.286Y-36.516
X10.297Y-35.89
X10.306Y-35.277
X10.404Y-51.272
X10.406Y-51.872
X10.541Y-41.148
X10.64Y-26.829
X10.664Y-28.067
X10.678Y-27.448
X10.709Y-57.302
X10.733Y-56.661
X10.752Y-31.1
X10.825Y-33.528
X10.859Y-48.814
X10.877Y-49.474
X10.903Y-37.737
X10.914Y-38.352
X10.925Y-37.121
X10.957Y-36.516
X10.968Y-35.89
X10.977Y-35.277
X11.034Y-41.538
X11.035Y-12.896
X11.065Y-32.554
X11.287Y-54.468
X11.294Y-53.174
X11.294Y-53.803
X11.36Y-31.109
X11.469Y-57.302
X11.481Y-56.661
X11.507Y-41.153
X11.529Y-37.732
X11.54Y-38.348
X11.551Y-37.117
X11.573Y-18.431
X11.583Y-36.512
X11.594Y-35.886
X11.601Y-48.787
X11.604Y-35.273
X11.624Y-45.639
X11.624Y-47.095
X11.628Y-49.506
X11.631Y-46.374
X11.658Y-47.913
X11.883Y-28.163
X11.89Y-27.551
X11.895Y-54.491
X11.902Y-53.197
X11.902Y-53.826
X11.904Y-26.94
X11.93Y-32.554
X12.027Y-41.656
X12.055Y-12.896
X12.065Y-33.528
X12.065Y-50.927
X12.14Y-37.737
X12.151Y-38.352
X12.162Y-37.121
X12.194Y-36.516
X12.205Y-35.89
X12.215Y-35.277
X12.45Y-40.96
X12.508Y-54.496
X12.511Y-22.019
X12.515Y-53.202
X12.515Y-53.831
X12.525Y-33.075
X12.599Y-45.745
X12.64Y-46.388
X12.641Y-23.339
X12.689Y-47.068
X12.716Y-47.892
X12.752Y-50.809
X12.792Y-37.741
X12.803Y-38.356
X12.814Y-37.125
X12.846Y-36.521
X12.857Y-35.894
X12.866Y-35.282
X12.879Y-58.287
X12.888Y-58.983
X12.959Y-41.288
X13.035Y-32.165
X13.075Y-12.896
X13.102Y-29.538
X13.202Y-16.664
X13.217Y-27.007
X13.226Y-33.147
X13.253Y-27.633
X13.253Y-28.267
X13.261Y-28.886
X13.281Y-40.381
X13.354Y-50.8
X13.403Y-37.737
X13.414Y-38.352
X13.425Y-37.121
X13.457Y-36.516
X13.468Y-35.89
X13.478Y-35.277
X13.589Y-46.863
X13.662Y-58.269
X13.68Y-58.979
X13.881Y-40.453
X14.046Y-43.739
X14.091Y-48.313
X14.093Y-48.94
X14.102Y-49.544
X14.351Y-52.234
X14.441Y-51.054
X14.472Y-16.664
X14.477Y-27.309
X14.499Y-28.533
X14.501Y-27.914
X14.506Y-29.819
X14.52Y-29.15
X14.701Y-48.945
X14.703Y-48.332
X14.71Y-49.567
X14.922Y-59.118
X15.05Y-23.339
X15.314Y-48.95
X15.323Y-49.572
X15.326Y-48.318
X15.367Y-46.609
X15.501Y-32.689
X15.583Y-58.147
X15.588Y-38.471
X15.748Y-52.206
X15.766Y-54.028
X15.873Y-31.123
X15.875Y-51.206
X16.069Y-37.997
X16.129Y-50.165
X16.129Y-52.959
X16.135Y-12.896
X16.256Y-51.707
X16.259Y-36.198
X16.359Y-37.038
X16.541Y-32.187
X16.569Y-31.079
X16.764Y-43.815
X16.807Y-36.596
X16.891Y-55.768
X16.902Y-39.94
X16.946Y-58.11
X17.034Y-37.472
X17.135Y-30.883
X17.239Y-32.187
X17.439Y-40.755
X17.543Y-30.441
X17.716Y-23.284
X17.78Y-47.969
X17.78Y-49.059
X17.837Y-32.007
X17.905Y-35.839
X17.99Y-30.028
X18.034Y-57.658
X18.107Y-40.77
X18.161Y-51.562
X18.239Y-52.211
X18.239Y-52.954
X18.239Y-53.653
X18.239Y-54.389
X18.29Y-31.553
X18.349Y-27.048
X18.369Y-27.653
X18.369Y-28.315
X18.378Y-29.553
X18.393Y-28.944
X18.631Y-35.83
X18.746Y-40.776
X18.773Y-51.562
X18.78Y-31.1
X18.851Y-52.211
X18.851Y-52.954
X18.851Y-53.653
X18.851Y-54.389
X19.05Y-58.457
X19.262Y-30.624
X19.297Y-43.9
X19.361Y-35.819
X19.546Y-51.562
X19.558Y-46.228
X19.586Y-29.278
X19.601Y-29.969
X19.615Y-28.623
X19.624Y-52.211
X19.624Y-52.954
X19.624Y-53.653
X19.624Y-54.389
X19.673Y-27.32
X19.878Y-55.454
X19.903Y-27.91
X19.993Y-43.9
X20.126Y-23.284
X20.243Y-51.562
X20.28Y-40.375
X20.297Y-46.228
X20.322Y-52.211
X20.322Y-52.954
X20.322Y-53.653
X20.322Y-54.389
X20.607Y-47.243
X20.608Y-48.095
X20.615Y-48.964
X20.828Y-59.309
X20.941Y-51.562
X20.953Y-40.375
X21.02Y-52.211
X21.02Y-52.954
X21.02Y-53.653
X21.02Y-54.389
X21.048Y-46.232
X21.082Y-49.403
X21.09Y-47.702
X21.131Y-48.575
X21.209Y-43.561
X21.336Y-58.457
X21.59Y-27.395
X21.59Y-28.329
X21.59Y-28.977
X21.59Y-29.74
X21.59Y-30.618
X21.68Y-34.417
X21.697Y-33.677
X21.711Y-32.83
X21.845Y-43.561
X21.872Y-46.228
X22.297Y-17.713
X22.363Y-39.676
X22.618Y-58.293
X22.684Y-7.132
X22.712Y-3.81
X22.733Y-46.228
X22.736Y-33.179
X22.77Y-27.305
X22.77Y-28.448
X22.77Y-29.591
X22.77Y-34.417
X22.77Y-35.8
X23.368Y-15.113
X23.427Y-7.132
X23.456Y-3.81
X23.487Y-51.15
X23.495Y-52.204
X23.495Y-53.204
X23.706Y-46.232
X23.876Y-39.624
X23.982Y-2.413
X24.183Y-51.171
X24.249Y-7.132
X24.278Y-3.81
X24.438Y-46.232
X24.511Y-14.605
X24.718Y-55.877
X24.726Y-2.413
X25.4Y-13.97
X25.515Y-44.099
X25.654Y-26.65
X25.889Y-7.865
X25.889Y-8.846
X25.91Y-7.017
X25.939Y-5.807
X25.972Y-4.888
X26.087Y-53.657
X26.162Y-55.499
X26.938Y-7.865
X26.938Y-8.846
X26.96Y-7.017
X26.967Y-55.499
X26.989Y-5.807
X27.022Y-4.888
X27.178Y-19.558
X27.178Y-22.044
X27.291Y-24.321
X27.504Y-43.057
X27.505Y-40.216
X27.51Y-39.428
X27.515Y-45.081
X27.515Y-45.86
X27.52Y-42.295
X27.739Y-58.962
X27.793Y-26.185
X28.111Y-7.865
X28.111Y-8.846
X28.133Y-7.017
X28.145Y-43.459
X28.147Y-41.913
X28.147Y-45.464
X28.154Y-39.063
X28.155Y-39.852
X28.156Y-44.671
X28.162Y-5.807
X28.195Y-4.888
X28.252Y-46.281
X28.321Y-57.658
X28.328Y-35.81
X28.341Y-49.929
X28.596Y-58.941
X29.243Y-57.658
X29.503Y-10.2
X29.718Y-58.801
X29.803Y-29.26
X29.816Y-29.911
X29.829Y-30.642
X29.845Y-19.558
X29.845Y-22.044
X29.859Y-26.849
X29.871Y-27.453
X29.89Y-28.122
X29.912Y-41.438
X29.972Y-33.45
X29.972Y-35.85
X29.972Y-37.05
X30.035Y-40.549
X30.226Y-46.25
X30.353Y-42.183
X30.48Y-34.29
X30.555Y-26.864
X30.573Y-29.937
X30.574Y-27.465
X30.585Y-28.107
X30.593Y-29.246
X30.593Y-30.615
X30.597Y-40.954
X30.743Y-24.227
X31.166Y-10.231
X31.496Y-48.895
X31.623Y-48.26
X31.75Y-49.53
X32.133Y-41.238
X32.134Y-37.752
X32.924Y-10.231
X33.147Y-2.46
X33.147Y-3.895
X33.147Y-5.836
X33.147Y-7.925
X33.274Y-38.481
X33.401Y-47.371
X33.401Y-59.436
X33.528Y-57.531
X33.724Y-27.522
X34.751Y-57.579
X34.751Y-58.437
X35.262Y-24.29
X35.419Y-34.74
X35.687Y-56.388
X35.9Y-47.371
X36.438Y-44.688
X37.27Y-27.396
X37.5Y-47.371
X37.584Y-41.989
X37.709Y-38.129
X37.788Y-10.168
X38.7Y-47.371
X39.31Y-44.782
X39.435Y-24.258
X39.495Y-47.627
X39.639Y-10.137
X39.677Y-50.328
X39.87Y-47.075
X39.906Y-34.897
X40.273Y-47.639
X40.308Y-52.086
X40.693Y-47.067
X40.785Y-38.003
X40.984Y-52.105
X41.088Y-47.633
X41.224Y-41.832
X41.506Y-27.365
X41.697Y-52.012
X41.783Y-47.117
X41.82Y-7.112
X42.288Y-47.625
X42.295Y-52.119
X42.401Y-10.137
X42.458Y-52.781
X42.713Y-47.067
X43.098Y-47.642
X43.103Y-52.046
X43.494Y-52.625
X43.511Y-47.072
X43.672Y-24.352
X43.882Y-3.171
X43.882Y-6.247
X43.908Y-51.99
X43.913Y-1.791
X43.913Y-4.615
X43.941Y-47.638
X44.268Y-34.865
X44.321Y-50.166
X44.325Y-47.067
X44.425Y-38.129
X44.519Y-41.549
X44.577Y-53.721
X44.7Y-52.009
X44.701Y-47.642
X45.025Y-49.269
X45.1Y-10.137
X45.109Y-47.076
X45.806Y-27.334
X45.901Y-49.247
X46.3Y-42.037
X46.863Y-52.451
X47.343Y-24.321
X47.491Y-52.247
X47.5Y-42.037
X47.891Y-52.789
X48.253Y-34.802
X48.297Y-7.112
X48.312Y-52.269
X48.912Y-38.066
X48.991Y-9.98
X49.004Y-47.449
X49.018Y-50.179
X49.169Y-52.708
X49.607Y-47.442
X49.634Y-50.219
X50.073Y-27.334
X50.284Y-6.205
X50.304Y-4.489
X50.325Y-3.025
X50.409Y-1.644
X50.742Y-58.417
X50.775Y-52.07
X51.721Y-10.043
X51.779Y-41.703
X51.956Y-24.509
X52.324Y-52.705
X52.324Y-53.848
X52.324Y-54.991
X52.324Y-56.134
X52.381Y-41.696
X53.34Y-57.912
X53.963Y-57.912
X54.065Y-52.07
X54.356Y-50.673
X54.528Y-31.801
X54.53Y-31.182
X54.61Y-32.639
X54.623Y-50.025
X54.737Y-26.65
X54.737Y-27.813
X54.737Y-29.05
X54.737Y-30.25
X54.737Y-37.45
X54.737Y-39.05
X54.737Y-40.25
X54.737Y-41.45
X54.891Y-42.973
X54.897Y-43.589
X54.901Y-7.112
X54.991Y-44.323
X55.074Y-22.225
X55.118Y-24.892
X55.133Y-23.229
X55.133Y-24.13
X55.245Y-49.911
X55.626Y-57.379
X55.626Y-58.039
X55.644Y-9.917
X55.837Y-49.717
X55.911Y-4.469
X55.911Y-6.184
X55.94Y-24.892
X55.953Y-1.561
X55.953Y-2.962
X55.972Y-23.229
X55.988Y-22.225
X56.004Y-24.13
X56.007Y-55.118
X56.501Y-49.759
X56.509Y-38.64
X56.53Y-37.822
X56.698Y-24.892
X56.741Y-24.13
X56.769Y-6.604
X56.769Y-22.225
X56.769Y-23.241
X56.769Y-44.831
X56.896Y-45.466
X57.023Y-42.65
X57.023Y-43.561
X57.034Y-38.241
X57.15Y-39.243
X57.15Y-46.25
X57.153Y-1.983
X57.156Y-44.266
X57.188Y-26.185
X57.192Y-30.988
X57.531Y-39.85
X57.574Y-24.892
X57.579Y-24.13
X57.601Y-23.241
X57.653Y-33.132
X57.655Y-33.854
X57.658Y-6.223
X57.658Y-26.65
X57.658Y-27.85
X57.658Y-35.05
X57.658Y-58.801
X57.912Y-55.118
X58.178Y-23.495
X58.42Y-24.13
X58.42Y-53.721
X58.439Y-24.892
X58.547Y-50.165
X58.547Y-54.991
X58.688Y-9.98
X59.182Y-37.45
X59.182Y-41.05
X59.182Y-54.991
X59.309Y-36.25
X59.436Y-29.05
X59.436Y-30.25
X59.436Y-38.65
X59.486Y-51.104
X59.563Y-42.25
X59.563Y-43.45
X59.69Y-50.165
X60.012Y-1.686
X60.033Y-2.753
X60.197Y-10.193
X60.197Y-10.966
X60.197Y-11.813
X60.197Y-12.676
X60.197Y-13.563
X60.197Y-14.369
X60.226Y-9.174
X60.354Y-44.399
X60.36Y-43.786
X60.378Y-43.172
X60.381Y-42.568
X60.579Y-58.293
X60.631Y-23.495
X60.688Y-56.451
X61.106Y-9.184
X61.126Y-10.284
X61.176Y-1.97
X61.177Y-11.697
X61.177Y-12.695
X61.177Y-13.458
X61.177Y-14.337
X61.259Y-11.015
X61.348Y-44.971
X61.348Y-45.581
X61.583Y-53.696
X61.751Y-21.171
X61.762Y-20.434
X61.783Y-23.749
X62.084Y-21.913
X62.23Y-44.704
X62.344Y-12.196
X62.349Y-10.888
X62.506Y-9.575
X62.547Y-20.424
X62.552Y-21.085
X62.832Y-40.79
X62.838Y-40.18
X62.865Y-55.155
X62.869Y-21.886
X62.945Y-37.794
X62.945Y-38.401
X62.95Y-35.381
X62.954Y-35.985
X62.962Y-15.477
X62.962Y-16.184
X62.992Y-14.732
X63.095Y-32.947
X63.095Y-33.548
X63.202Y-28.197
X63.246Y-4.953
X63.246Y-28.956
X63.246Y-29.667
X63.649Y-15.477
X63.649Y-16.184
X63.678Y-14.732
X63.754Y-38.735
X63.754Y-39.878
X63.881Y-11.407
X63.881Y-29.845
X63.882Y-2.586
X63.945Y-1.079
X64.151Y-49.53
X64.151Y-50.292
X64.151Y-51.816
X64.251Y-51.072
X64.262Y-53.34
X64.278Y-52.578
X64.394Y-15.477
X64.394Y-16.184
X64.423Y-14.732
X64.585Y-29.845
X64.651Y-55.245
X64.77Y-10.287
X64.848Y-49.53
X64.848Y-50.292
X64.848Y-51.816
X64.948Y-51.072
X64.959Y-53.34
X64.975Y-52.578
X65.096Y-2.544
X65.513Y-49.53
X65.513Y-50.292
X65.513Y-51.816
X65.613Y-51.072
X65.624Y-53.34
X65.64Y-52.578
X65.913Y-19.177
X66.129Y-55.248
X66.23Y-46.291
X66.243Y-49.53
X66.243Y-50.292
X66.243Y-51.816
X66.343Y-51.072
X66.353Y-53.34
X66.37Y-52.578
X66.791Y-15.956
X66.802Y-17.399
X66.802Y-46.609
X66.988Y-49.53
X66.988Y-50.292
X66.988Y-51.816
X67.038Y-11.938
X67.081Y-11.114
X67.083Y-10.314
X67.088Y-51.072
X67.099Y-53.34
X67.115Y-52.578
X67.246Y-44.005
X67.355Y-3.715
X67.376Y-4.51
X67.525Y-23.514
X67.725Y-11.114
X67.727Y-12.009
X67.782Y-49.53
X67.782Y-50.292
X67.782Y-51.816
X67.882Y-51.072
X67.883Y-10.33
X67.893Y-53.34
X67.909Y-52.578
X68.072Y-44.196
X68.383Y-20.687
X68.4Y-21.623
X68.437Y-49.53
X68.437Y-50.292
X68.437Y-51.816
X68.507Y-24.303
X68.537Y-51.072
X68.547Y-53.34
X68.564Y-52.578
X68.607Y-23.496
X68.695Y-10.839
X68.752Y-12.284
X68.834Y-46.482
X68.834Y-57.531
X68.863Y-9.62
X69.15Y-21.574
X69.19Y-20.687
X69.294Y-14.718
X69.294Y-15.493
X69.294Y-16.184
X69.387Y-27.062
X69.443Y-55.228
X69.575Y-24.97
X69.584Y-24.294
X69.596Y-46.736
X69.601Y-23.474
X69.635Y-1.372
X69.892Y-54.5
X69.98Y-14.718
X69.98Y-15.493
X69.98Y-16.184
X70.015Y-26.682
X70.016Y-27.305
X70.104Y-11.43
X70.104Y-45.72
X70.104Y-47.625
X70.133Y-20.695
X70.222Y-21.655
X70.231Y-36.576
X70.388Y-1.372
X70.485Y-35.687
X70.485Y-38.227
X70.612Y-39.243
X70.612Y-49.823
X70.612Y-50.824
X70.657Y-23.431
X70.661Y-24.312
X70.725Y-14.718
X70.725Y-15.493
X70.725Y-16.184
X70.735Y-25.001
X70.739Y-40.259
X70.739Y-41.165
X70.805Y-26.692
X70.824Y-27.305
X70.835Y-20.647
X70.866Y-48.387
X70.929Y-47.307
X70.993Y-34.544
X70.996Y-21.639
X71.247Y-48.895
X71.488Y-26.702
X71.501Y-52.197
X71.501Y-53.079
X71.509Y-27.301
X71.546Y-24.264
X71.555Y-25.005
X71.564Y-23.418
X71.755Y-36.322
X71.882Y-20.193
X71.956Y-20.937
X72.009Y-45.466
X72.012Y-21.615
X72.136Y-19.304
X72.136Y-56.515
X72.15Y-27.312
X72.188Y-10.541
X72.233Y-26.696
X72.517Y-36.703
X72.517Y-37.973
X72.517Y-56.007
X72.607Y-24.638
X72.899Y-3.548
X72.941Y-4.594
X73.152Y-17.272
X73.406Y-55.499
X73.66Y-44.021
X73.66Y-44.652
X73.728Y-30.133
X73.824Y-10.668
X73.875Y-50.764
X73.914Y-15.949
X73.914Y-16.85
X73.914Y-50.038
X74.041Y-21.717
X74.041Y-25.908
X74.079Y-58.924
X74.295Y-56.515
X74.422Y-22.258
X74.422Y-48.461
X74.721Y-25.699
X74.721Y-27.299
X74.721Y-28.099
X74.721Y-28.899
X74.721Y-30.499
X74.721Y-32.099
X74.721Y-34.499
X75.025Y-13.263
X75.2Y-3.339
X75.221Y-4.845
X75.224Y-11.599
X75.263Y-6.268
X75.305Y-7.628
X75.521Y-28.099
X75.521Y-29.699
X75.521Y-27.299
X75.521Y-28.899
X75.521Y-30.499
X75.946Y-42.926
X76.321Y-25.699
X76.321Y-27.299
X76.321Y-34.499
X76.321Y-28.099
X76.321Y-28.899
X76.321Y-31.299
X76.321Y-33.699
X76.389Y-47.371
X76.581Y-18.923
X76.59Y-6.374
X76.592Y-14.921
X76.6Y-5.557
X76.61Y-9.823
X76.62Y-8.159
X76.62Y-10.62
X76.63Y-9.016
X76.64Y-7.341
X76.646Y-12.587
X76.653Y-11.823
X76.792Y-14.049
X76.935Y-15.689
X76.961Y-16.367
X77.041Y-16.998
X77.12Y-17.664
X77.121Y-27.299
X77.121Y-28.099
X77.121Y-30.499
X77.121Y-32.099
X77.121Y-34.499
X77.245Y-18.302
X77.364Y-18.949
X77.44Y-3.2
X77.44Y-3.916
X77.44Y-4.63
X77.45Y-57.93
X77.45Y-58.647
X77.45Y-59.361
X77.456Y-6.727
X77.456Y-7.73
X77.46Y-0.768
X77.46Y-1.486
X77.46Y-2.243
X77.47Y-55.499
X77.47Y-56.217
X77.47Y-56.974
X77.488Y-19.604
X77.626Y-20.256
X77.634Y-45.847
X77.634Y-23.888
X77.705Y-20.991
X77.732Y-23.139
X77.767Y-21.717
X77.767Y-22.404
X77.921Y-29.699
X77.921Y-32.899
X77.921Y-27.299
X77.921Y-28.099
X77.921Y-28.899
X77.921Y-33.699
X78.062Y-14.036
X78.063Y-16.425
X78.089Y-15.721
X78.181Y-11.763
X78.182Y-17.183
X78.194Y-12.521
X78.249Y-17.953
X78.315Y-18.591
X78.495Y-19.402
X78.521Y-23.893
X78.647Y-23.149
X78.721Y-27.299
X78.721Y-28.099
X78.721Y-28.899
X78.721Y-29.699
X78.721Y-30.499
X78.721Y-32.899
X78.726Y-7.725
X78.726Y-9.938
X78.726Y-10.649
X78.74Y-6.731
X78.74Y-22.425
X78.767Y-21.575
X78.78Y-20.08
X78.793Y-20.837
X78.818Y-0.634
X78.838Y-3.634
X78.848Y-1.431
X78.848Y-2.139
X78.858Y-2.896
X78.858Y-4.371
X78.868Y-5.139
X78.877Y-59.227
X78.897Y-55.539
X78.897Y-58.43
X78.91Y-56.297
X78.91Y-57.021
X78.91Y-57.745
X78.943Y-54.669
X79.022Y-52.723
X79.029Y-48.449
X79.032Y-50.627
X79.032Y-51.325
X79.042Y-49.194
X79.042Y-49.949
X79.042Y-51.973
X79.148Y-47.738
X79.206Y-19.41
X79.285Y-11.713
X79.299Y-18.63
X79.315Y-45.187
X79.316Y-12.497
X79.321Y-45.798
X79.334Y-46.429
X79.347Y-14.021
X79.374Y-47.127
X79.387Y-17.899
X79.396Y-5.846
X79.452Y-17.133
X79.471Y-53.242
X79.478Y-16.367
X79.481Y-54.089
X79.492Y-15.68
X79.521Y-26.499
X79.521Y-28.899
X79.521Y-29.699
X79.521Y-25.699
X79.521Y-27.299
X79.521Y-28.099
X79.521Y-34.499
X79.577Y-43.574
X79.782Y-22.351
X79.87Y-23.008
X79.888Y-21.667
X80.028Y-20.929
X80.048Y-39.835
X80.16Y-20.252
X80.294Y-40.407
X80.307Y-19.448
X80.321Y-27.299
X80.321Y-28.099
X80.321Y-28.899
X80.321Y-31.299
X80.321Y-26.499
X80.321Y-29.699
X80.433Y-18.743
X80.512Y-53.232
X80.533Y-42.873
X80.546Y-18.019
X80.552Y-54.099
X80.553Y-41.044
X80.563Y-43.661
X80.592Y-16.504
X80.605Y-21.844
X80.606Y-15.806
X80.612Y-17.315
X80.755Y-13.972
X80.772Y-37.592
X80.772Y-44.958
X80.772Y-45.714
X80.772Y-46.489
X80.772Y-47.251
X80.811Y-10.598
X80.825Y-39.144
X80.831Y-11.695
X80.848Y-12.59
X80.851Y-9.87
X80.861Y-5.511
X80.861Y-9.053
X80.865Y-14.92
X80.871Y-8.305
X80.874Y-6.309
X80.88Y-7.319
X80.947Y-21.118
X81.121Y-25.699
X81.121Y-26.499
X81.121Y-27.299
X81.121Y-28.099
X81.121Y-28.899
X81.121Y-32.899
X81.121Y-34.499
X81.13Y-0.504
X81.137Y-39.729
X81.141Y-54.594
X81.15Y-2.916
X81.15Y-4.561
X81.16Y-2.019
X81.17Y-1.291
X81.17Y-3.693
X81.221Y-55.381
X81.221Y-56.109
X81.221Y-56.827
X81.221Y-57.599
X81.221Y-58.294
X81.221Y-59.193
X81.264Y-42.167
X81.277Y-52.292
X81.28Y-48.133
X81.28Y-49.103
X81.28Y-51.308
X81.43Y-40.334
X81.473Y-38.508
X81.602Y-42.712
X81.826Y-39.072
X81.848Y-47.319
X81.858Y-45.624
X81.858Y-46.461
X81.888Y-44.827
X81.915Y-43.33
X81.915Y-35.941
X81.921Y-32.099
X81.921Y-33.699
X81.921Y-26.499
X81.921Y-27.299
X81.921Y-30.499
X81.921Y-32.899
X82.059Y-21.063
X82.068Y-41.543
X82.144Y-39.604
X82.292Y-37.853
X82.33Y-35.179
X82.38Y-42.061
X82.54Y-3.2
X82.54Y-3.916
X82.54Y-4.63
X82.54Y-57.795
X82.54Y-58.512
X82.54Y-59.226
X82.55Y-51.308
X82.55Y-52.304
X82.56Y-0.768
X82.56Y-1.486
X82.56Y-2.243
X82.56Y-55.364
X82.56Y-56.082
X82.56Y-56.839
X82.586Y-35.854
X82.679Y-42.626
X82.721Y-28.899
X82.721Y-30.499
X82.721Y-31.299
X82.909Y-40.481
X82.911Y-43.31
X82.931Y-37.211
X82.937Y-36.38
X83.187Y-22.359
X83.222Y-18.569
X83.242Y-15.914
X83.244Y-45.126
X83.294Y-40.946
X83.304Y-45.863
X83.334Y-46.621
X83.373Y-47.299
X83.439Y-44.196
X83.521Y-26.499
X83.521Y-27.299
X83.521Y-28.099
X83.521Y-28.899
X83.521Y-29.699
X83.521Y-30.499
X83.521Y-31.299
X83.521Y-32.099
X83.532Y-15.317
X83.558Y-17.789
X83.573Y-21.775
X83.612Y-48.245
X83.632Y-50.648
X83.632Y-52.152
X83.632Y-52.95
X83.642Y-49.083
X83.642Y-49.94
X83.642Y-51.425
X83.719Y-41.438
X83.738Y-23.378
X83.859Y-17.142
X83.895Y-14.644
X83.945Y-21.216
X83.945Y-38.417
X83.984Y-32.639
X84.01Y-39.591
X84.024Y-22.793
X84.105Y-41.956
X84.128Y-34.769
X84.17Y-16.491
X84.214Y-14.055
X84.306Y-40.453
X84.429Y-22.235
X84.457Y-42.501
X84.467Y-35.295
X84.476Y-20.751
X84.497Y-13.408
X84.528Y-15.805
X84.61Y-23.72
X84.614Y-26.502
X84.669Y-43.159
X84.685Y-24.583
X84.727Y-34.608
X84.765Y-40.982
X84.776Y-43.843
X84.827Y-23.006
X84.838Y-12.828
X84.838Y-15.193
X84.895Y-33.973
X84.901Y-21.784
X84.915Y-44.514
X84.969Y-25.428
X84.983Y-37.204
X85.035Y-45.152
X85.096Y-20.353
X85.108Y-45.843
X85.143Y-41.52
X85.193Y-12.305
X85.216Y-36.158
X85.224Y-14.52
X85.254Y-46.508
X85.288Y-26.541
X85.34Y-21.358
X85.344Y-28.067
X85.362Y-33.542
X85.372Y-22.524
X85.394Y-47.145
X85.482Y-42.108
X85.556Y-11.561
X85.556Y-13.869
X85.57Y-35.64
X85.586Y-47.856
X85.673Y-24.14
X85.689Y-37.411
X85.717Y-35.055
X85.731Y-42.786
X85.775Y-26.12
X85.786Y-48.528
X85.801Y-20.122
X85.853Y-13.222
X85.866Y-11.02
X85.917Y-24.756
X85.917Y-43.497
X85.957Y-21.471
X85.991Y-33.373
X85.995Y-22.447
X86.017Y-44.188
X86.028Y-25.39
X86.032Y-49.152
X86.15Y-44.918
X86.185Y-10.453
X86.19Y-12.505
X86.228Y-35.78
X86.298Y-24.078
X86.331Y-49.81
X86.343Y-45.636
X86.387Y-37.443
X86.39Y-34.909
X86.412Y-20.1
X86.482Y-11.898
X86.509Y-46.287
X86.524Y-31.877
X86.599Y-33.359
X86.614Y-22.457
X86.614Y-30.517
X86.619Y-9.979
X86.62Y-21.48
X86.695Y-46.972
X86.752Y-11.322
X86.816Y-50.282
X86.909Y-24.074
X86.914Y-47.61
X86.919Y-35.776
X87.028Y-20.1
X87.091Y-37.43
X87.12Y-48.261
X87.139Y-34.891
X87.168Y-10.79
X87.182Y-9.705
X87.21Y-33.356
X87.231Y-21.467
X87.238Y-22.462
X87.299Y-48.885
X87.427Y-50.654
X87.52Y-24.061
X87.655Y-35.816
X87.697Y-20.087
X87.738Y-49.377
X87.782Y-37.443
X87.811Y-9.563
X87.816Y-33.365
X87.816Y-34.887
X87.824Y-10.547
X87.854Y-21.453
X87.863Y-22.467
X88.038Y-50.76
X88.194Y-24.185
X88.421Y-33.332
X88.435Y-9.386
X88.445Y-20.06
X88.462Y-10.724
X88.509Y-49.297
X88.54Y-37.563
X88.646Y-22.098
X88.75Y-35.362
X88.763Y-50.76
X88.894Y-24.282
X89.038Y-9.337
X89.069Y-10.75
X89.074Y-33.268
X89.105Y-19.803
X89.138Y-37.596
X89.173Y-49.284
X89.387Y-50.8
X89.558Y-24.289
X89.596Y-22.098
X89.627Y-35.362
X89.649Y-9.346
X89.694Y-10.759
X89.718Y-33.255
X89.725Y-19.79
X89.818Y-49.277
X89.862Y-37.589
X90.098Y-50.78
X90.242Y-24.289
X90.309Y-9.328
X90.314Y-10.759
X90.346Y-19.781
X90.37Y-33.255
X90.436Y-49.271
X90.6Y-37.576
X90.723Y-50.8
X90.916Y-10.746
X90.96Y-24.296
X90.996Y-9.328
X91.05Y-19.781
X91.054Y-33.242
X91.074Y-49.271
X91.244Y-37.583
X91.434Y-50.793
X91.618Y-24.302
X91.651Y-10.777
X91.672Y-33.248
X91.727Y-9.306
X91.768Y-19.75
X91.778Y-49.271
X91.87Y-22.098
X91.889Y-37.596
X91.926Y-35.362
X91.933Y-20.786
X91.948Y-34.163
X92.131Y-50.793
X92.302Y-24.309
X92.316Y-10.777
X92.387Y-9.297
X92.423Y-33.246
X92.428Y-19.732
X92.469Y-49.244
X92.56Y-37.616
X92.773Y-22.098
X92.809Y-35.362
X92.821Y-34.163
X92.862Y-20.786
X92.869Y-50.773
X92.976Y-10.781
X93.013Y-24.309
X93.02Y-9.293
X93.12Y-19.753
X93.22Y-49.264
X93.241Y-37.617
X93.273Y-33.228
X93.627Y-50.879
X93.631Y-22.707
X93.631Y-23.917
X93.637Y-36.054
X93.64Y-37.139
X93.654Y-10.804
X93.737Y-9.135
X93.851Y-49.244
X93.986Y-33.206
X94.407Y-37.139
X94.409Y-22.694
X94.413Y-36.054
X94.435Y-23.91
X94.483Y-50.823
X94.522Y-49.065
X94.531Y-11.021
X94.686Y-8.956
X95.03Y-35.474
X95.073Y-24.561
X95.077Y-37.786
X95.093Y-22.156
X95.191Y-51.062
X95.213Y-48.852
X95.257Y-11.153
X95.351Y-7.44
X95.351Y-12.54
X95.351Y-20.773
X95.351Y-25.873
X95.351Y-34.106
X95.351Y-39.206
X95.351Y-47.44
X95.351Y-52.54
X95.425Y-8.934
X95.748Y-35.493
X95.771Y-22.169
X95.777Y-24.561
X95.834Y-37.773
X95.944Y-48.839
X96.032Y-11.14
X96.069Y-7.44
X96.069Y-12.54
X96.069Y-20.773
X96.069Y-25.873
X96.069Y-34.106
X96.069Y-39.206
X96.069Y-47.44
X96.069Y-52.54
X96.078Y-51.062
X96.191Y-8.942
X96.488Y-24.555
X96.499Y-35.487
X96.508Y-22.176
X96.565Y-37.766
X96.648Y-48.832
X96.684Y-11.136
X96.826Y-7.44
X96.826Y-12.54
X96.826Y-20.773
X96.826Y-25.873
X96.826Y-34.106
X96.826Y-39.206
X96.826Y-47.44
X96.826Y-52.54
X96.876Y-51.092
X96.935Y-8.942
X97.193Y-24.548
X97.219Y-22.163
X97.27Y-37.786
X97.276Y-35.487
X97.326Y-48.839
X97.352Y-11.122
X97.613Y-8.928
X97.653Y-51.092
X97.782Y-7.46
X97.782Y-12.56
X97.782Y-20.793
X97.782Y-25.893
X97.782Y-34.126
X97.782Y-39.226
X97.782Y-47.46
X97.782Y-52.56
X97.97Y-24.541
X97.987Y-37.766
X98.01Y-22.169
X98.034Y-35.474
X98.05Y-48.826
X98.101Y-11.114
X98.477Y-8.909
X98.49Y-51.092
X98.499Y-7.46
X98.499Y-12.56
X98.499Y-20.793
X98.499Y-25.893
X98.499Y-34.126
X98.499Y-39.226
X98.499Y-47.46
X98.499Y-52.56
X98.688Y-24.535
X98.721Y-22.129
X98.735Y-48.806
X98.745Y-37.766
X98.778Y-35.474
X98.805Y-11.109
X99.213Y-7.46
X99.213Y-12.56
X99.213Y-20.793
X99.213Y-25.893
X99.213Y-34.126
X99.213Y-39.226
X99.213Y-47.46
X99.213Y-52.56
X99.228Y-51.062
X99.241Y-8.895
X99.386Y-48.779
X99.399Y-22.123
X99.399Y-24.561
X99.423Y-37.786
X99.462Y-35.46
X99.483Y-11.096
T2
X75.521Y-31.299
X76.321Y-32.099
X77.121Y-31.299
X77.921Y-31.299
X77.921Y-32.099
X78.721Y-32.099
M30
