%TF.GenerationSoftware,KiCad,Pcbnew,10.99.0-unknown*%
%TF.CreationDate,2026-08-12T15:31:36+08:00*%
%TF.ProjectId,AD9361+__FPGA_SDR_______AD9363,41443933-3631-42bd-9891-465047415f53,rev?*%
%TF.SameCoordinates,Original*%
%TF.FileFunction,Other,User*%
%FSLAX46Y46*%
G04 Gerber Fmt 4.6, Leading zero omitted, Abs format (unit mm)*
G04 Created by KiCad (PCBNEW 10.99.0-unknown) date 2026-08-12 15:31:36*
%MOMM*%
%LPD*%
G01*
G04 APERTURE LIST*
%ADD10C,0.050000*%
G04 APERTURE END LIST*
%TO.C,C1*%
D10*
X63793000Y-44093000D02*
X65493000Y-44093000D01*
X65493000Y-47093000D01*
X63793000Y-47093000D01*
X63793000Y-44093000D01*
%TO.C,C2*%
X71497827Y-47610848D02*
X74497827Y-47610848D01*
X74497827Y-49310848D01*
X71497827Y-49310848D01*
X71497827Y-47610848D01*
%TO.C,C3*%
X71525000Y-53506000D02*
X74525000Y-53506000D01*
X74525000Y-55206000D01*
X71525000Y-55206000D01*
X71525000Y-53506000D01*
%TO.C,C4*%
X67080000Y-55030000D02*
X70080000Y-55030000D01*
X70080000Y-56730000D01*
X67080000Y-56730000D01*
X67080000Y-55030000D01*
%TO.C,C5*%
X62520765Y-44132327D02*
X64220765Y-44132327D01*
X64220765Y-47132327D01*
X62520765Y-47132327D01*
X62520765Y-44132327D01*
%TO.C,C6*%
X60618000Y-53110000D02*
X62318000Y-53110000D01*
X62318000Y-56110000D01*
X60618000Y-56110000D01*
X60618000Y-53110000D01*
%TO.C,C8*%
X53110000Y-53252000D02*
X56110000Y-53252000D01*
X56110000Y-54952000D01*
X53110000Y-54952000D01*
X53110000Y-53252000D01*
%TO.C,C10*%
X71025432Y-24951418D02*
X72725432Y-24951418D01*
X72725432Y-27951418D01*
X71025432Y-27951418D01*
X71025432Y-24951418D01*
%TO.C,C11*%
X69002756Y-24949622D02*
X70702756Y-24949622D01*
X70702756Y-27949622D01*
X69002756Y-27949622D01*
X69002756Y-24949622D01*
%TO.C,C15*%
X71020159Y-20873857D02*
X72720159Y-20873857D01*
X72720159Y-23873857D01*
X71020159Y-23873857D01*
X71020159Y-20873857D01*
%TO.C,C16*%
X68988159Y-20866262D02*
X70688159Y-20866262D01*
X70688159Y-23866262D01*
X68988159Y-23866262D01*
X68988159Y-20866262D01*
%TO.C,C17*%
X66918998Y-20876994D02*
X68618998Y-20876994D01*
X68618998Y-23876994D01*
X66918998Y-23876994D01*
X66918998Y-20876994D01*
%TO.C,C19*%
X62508000Y-17946000D02*
X65508000Y-17946000D01*
X65508000Y-19646000D01*
X62508000Y-19646000D01*
X62508000Y-17946000D01*
%TO.C,C20*%
X65941050Y-13975580D02*
X67641050Y-13975580D01*
X67641050Y-16975580D01*
X65941050Y-16975580D01*
X65941050Y-13975580D01*
%TO.C,C21*%
X60306158Y-8724560D02*
X63306158Y-8724560D01*
X63306158Y-10424560D01*
X60306158Y-10424560D01*
X60306158Y-8724560D01*
%TO.C,C24*%
X60303732Y-10165020D02*
X63303732Y-10165020D01*
X63303732Y-11865020D01*
X60303732Y-11865020D01*
X60303732Y-10165020D01*
%TO.C,C26*%
X60298647Y-11346067D02*
X63298647Y-11346067D01*
X63298647Y-13046067D01*
X60298647Y-13046067D01*
X60298647Y-11346067D01*
%TO.C,C27*%
X62077998Y-22161994D02*
X65077998Y-22161994D01*
X65077998Y-23861994D01*
X62077998Y-23861994D01*
X62077998Y-22161994D01*
%TO.C,C28*%
X59850931Y-27532420D02*
X62850931Y-27532420D01*
X62850931Y-29232420D01*
X59850931Y-29232420D01*
X59850931Y-27532420D01*
%TO.C,C29*%
X68544788Y-17970227D02*
X71544788Y-17970227D01*
X71544788Y-19670227D01*
X68544788Y-19670227D01*
X68544788Y-17970227D01*
%TO.C,C30*%
X72270501Y-13904170D02*
X73970501Y-13904170D01*
X73970501Y-16904170D01*
X72270501Y-16904170D01*
X72270501Y-13904170D01*
%TO.C,C31*%
X66663265Y-8770250D02*
X69663265Y-8770250D01*
X69663265Y-10470250D01*
X66663265Y-10470250D01*
X66663265Y-8770250D01*
%TO.C,C34*%
X66705401Y-10264128D02*
X69705401Y-10264128D01*
X69705401Y-11964128D01*
X66705401Y-11964128D01*
X66705401Y-10264128D01*
%TO.C,C36*%
X66706706Y-11433732D02*
X69706706Y-11433732D01*
X69706706Y-13133732D01*
X66706706Y-13133732D01*
X66706706Y-11433732D01*
%TO.C,C37*%
X72518916Y-35419916D02*
X74218916Y-35419916D01*
X74218916Y-38419916D01*
X72518916Y-38419916D01*
X72518916Y-35419916D01*
%TO.C,C38*%
X73811000Y-36742000D02*
X76811000Y-36742000D01*
X76811000Y-38442000D01*
X73811000Y-38442000D01*
X73811000Y-36742000D01*
%TO.C,C39*%
X84479000Y-31027000D02*
X87479000Y-31027000D01*
X87479000Y-32727000D01*
X84479000Y-32727000D01*
X84479000Y-31027000D01*
%TO.C,C40*%
X85764000Y-28472000D02*
X87464000Y-28472000D01*
X87464000Y-31472000D01*
X85764000Y-31472000D01*
X85764000Y-28472000D01*
%TO.C,C55*%
X73713464Y-15999588D02*
X76713464Y-15999588D01*
X76713464Y-17699588D01*
X73713464Y-17699588D01*
X73713464Y-15999588D01*
%TO.C,C56*%
X73772222Y-23231001D02*
X76772222Y-23231001D01*
X76772222Y-24931001D01*
X73772222Y-24931001D01*
X73772222Y-23231001D01*
%TO.C,C66*%
X70910706Y-32523052D02*
X73910706Y-32523052D01*
X73910706Y-34223052D01*
X70910706Y-34223052D01*
X70910706Y-32523052D01*
%TO.C,C71*%
X70890000Y-33694000D02*
X73890000Y-33694000D01*
X73890000Y-35394000D01*
X70890000Y-35394000D01*
X70890000Y-33694000D01*
%TO.C,C82*%
X72287000Y-39282000D02*
X75287000Y-39282000D01*
X75287000Y-40982000D01*
X72287000Y-40982000D01*
X72287000Y-39282000D01*
%TO.C,C83*%
X70270000Y-42061000D02*
X71970000Y-42061000D01*
X71970000Y-45061000D01*
X70270000Y-45061000D01*
X70270000Y-42061000D01*
%TO.C,C84*%
X68492000Y-42057952D02*
X70192000Y-42057952D01*
X70192000Y-45057952D01*
X68492000Y-45057952D01*
X68492000Y-42057952D01*
%TO.C,C88*%
X85300233Y-19945219D02*
X88300233Y-19945219D01*
X88300233Y-21645219D01*
X85300233Y-21645219D01*
X85300233Y-19945219D01*
%TO.C,C89*%
X85301053Y-22482003D02*
X88301053Y-22482003D01*
X88301053Y-24182003D01*
X85301053Y-24182003D01*
X85301053Y-22482003D01*
%TO.C,C90*%
X85287185Y-33241603D02*
X88287185Y-33241603D01*
X88287185Y-34941603D01*
X85287185Y-34941603D01*
X85287185Y-33241603D01*
%TO.C,C91*%
X85297924Y-35773000D02*
X88297924Y-35773000D01*
X88297924Y-37473000D01*
X85297924Y-37473000D01*
X85297924Y-35773000D01*
%TO.C,C92*%
X79151763Y-11360767D02*
X80851763Y-11360767D01*
X80851763Y-14360767D01*
X79151763Y-14360767D01*
X79151763Y-11360767D01*
%TO.C,C93*%
X76604056Y-11361011D02*
X78304056Y-11361011D01*
X78304056Y-14361011D01*
X76604056Y-14361011D01*
X76604056Y-11361011D01*
%TO.C,C94*%
X73024014Y-10749106D02*
X76024014Y-10749106D01*
X76024014Y-12449106D01*
X73024014Y-12449106D01*
X73024014Y-10749106D01*
%TO.C,C95*%
X72979612Y-12413303D02*
X75979612Y-12413303D01*
X75979612Y-14113303D01*
X72979612Y-14113303D01*
X72979612Y-12413303D01*
%TO.C,C96*%
X79157717Y-44721993D02*
X80857717Y-44721993D01*
X80857717Y-47721993D01*
X79157717Y-47721993D01*
X79157717Y-44721993D01*
%TO.C,C97*%
X81698565Y-44725188D02*
X83398565Y-44725188D01*
X83398565Y-47725188D01*
X81698565Y-47725188D01*
X81698565Y-44725188D01*
%TO.C,C98*%
X75589000Y-46521000D02*
X78589000Y-46521000D01*
X78589000Y-48221000D01*
X75589000Y-48221000D01*
X75589000Y-46521000D01*
%TO.C,C99*%
X75589000Y-44997000D02*
X78589000Y-44997000D01*
X78589000Y-46697000D01*
X75589000Y-46697000D01*
X75589000Y-44997000D01*
%TO.C,C100*%
X88097636Y-9149436D02*
X91097636Y-9149436D01*
X91097636Y-10849436D01*
X88097636Y-10849436D01*
X88097636Y-9149436D01*
%TO.C,C101*%
X87852379Y-49168607D02*
X90852379Y-49168607D01*
X90852379Y-50868607D01*
X87852379Y-50868607D01*
X87852379Y-49168607D01*
%TO.C,C106*%
X6389000Y-56285000D02*
X8089000Y-56285000D01*
X8089000Y-59285000D01*
X6389000Y-59285000D01*
X6389000Y-56285000D01*
%TO.C,C107*%
X20691010Y-32328689D02*
X23691010Y-32328689D01*
X23691010Y-34028689D01*
X20691010Y-34028689D01*
X20691010Y-32328689D01*
%TO.C,C108*%
X20725000Y-33567000D02*
X23725000Y-33567000D01*
X23725000Y-35267000D01*
X20725000Y-35267000D01*
X20725000Y-33567000D01*
%TO.C,C110*%
X8294000Y-40791000D02*
X9994000Y-40791000D01*
X9994000Y-43791000D01*
X8294000Y-43791000D01*
X8294000Y-40791000D01*
%TO.C,C111*%
X7024000Y-40791000D02*
X8724000Y-40791000D01*
X8724000Y-43791000D01*
X7024000Y-43791000D01*
X7024000Y-40791000D01*
%TO.C,C112*%
X20725000Y-35218000D02*
X23725000Y-35218000D01*
X23725000Y-36918000D01*
X20725000Y-36918000D01*
X20725000Y-35218000D01*
%TO.C,C113*%
X20725000Y-36488000D02*
X23725000Y-36488000D01*
X23725000Y-38188000D01*
X20725000Y-38188000D01*
X20725000Y-36488000D01*
%TO.C,C114*%
X14136000Y-39013000D02*
X15836000Y-39013000D01*
X15836000Y-42013000D01*
X14136000Y-42013000D01*
X14136000Y-39013000D01*
%TO.C,C115*%
X20725000Y-28741000D02*
X23725000Y-28741000D01*
X23725000Y-30441000D01*
X20725000Y-30441000D01*
X20725000Y-28741000D01*
%TO.C,C116*%
X20725000Y-27598000D02*
X23725000Y-27598000D01*
X23725000Y-29298000D01*
X20725000Y-29298000D01*
X20725000Y-27598000D01*
%TO.C,C117*%
X20725000Y-26455000D02*
X23725000Y-26455000D01*
X23725000Y-28155000D01*
X20725000Y-28155000D01*
X20725000Y-26455000D01*
%TO.C,C119*%
X17170264Y-35251082D02*
X18870264Y-35251082D01*
X18870264Y-38251082D01*
X17170264Y-38251082D01*
X17170264Y-35251082D01*
%TO.C,C120*%
X18335583Y-35244435D02*
X20035583Y-35244435D01*
X20035583Y-38244435D01*
X18335583Y-38244435D01*
X18335583Y-35244435D01*
%TO.C,C121*%
X14639624Y-42459968D02*
X16339624Y-42459968D01*
X16339624Y-45459968D01*
X14639624Y-45459968D01*
X14639624Y-42459968D01*
%TO.C,C122*%
X22365161Y-42418612D02*
X24065161Y-42418612D01*
X24065161Y-45418612D01*
X22365161Y-45418612D01*
X22365161Y-42418612D01*
%TO.C,C123*%
X20555962Y-42407814D02*
X22255962Y-42407814D01*
X22255962Y-45407814D01*
X20555962Y-45407814D01*
X20555962Y-42407814D01*
%TO.C,C124*%
X21513331Y-38875738D02*
X23213331Y-38875738D01*
X23213331Y-41875738D01*
X21513331Y-41875738D01*
X21513331Y-38875738D01*
%TO.C,C125*%
X15526086Y-38993409D02*
X17226086Y-38993409D01*
X17226086Y-41993409D01*
X15526086Y-41993409D01*
X15526086Y-38993409D01*
%TO.C,C126*%
X2105435Y-21296419D02*
X3805435Y-21296419D01*
X3805435Y-24296419D01*
X2105435Y-24296419D01*
X2105435Y-21296419D01*
%TO.C,C127*%
X31647000Y-2833000D02*
X34647000Y-2833000D01*
X34647000Y-4533000D01*
X31647000Y-4533000D01*
X31647000Y-2833000D01*
%TO.C,C130*%
X18200000Y-56412000D02*
X19900000Y-56412000D01*
X19900000Y-59412000D01*
X18200000Y-59412000D01*
X18200000Y-56412000D01*
%TO.C,C133*%
X23868010Y-54921719D02*
X25568010Y-54921719D01*
X25568010Y-57921719D01*
X23868010Y-57921719D01*
X23868010Y-54921719D01*
%TO.C,C134*%
X29884000Y-54888000D02*
X31584000Y-54888000D01*
X31584000Y-57888000D01*
X29884000Y-57888000D01*
X29884000Y-54888000D01*
%TO.C,C135*%
X22645000Y-48919000D02*
X24345000Y-48919000D01*
X24345000Y-51919000D01*
X22645000Y-51919000D01*
X22645000Y-48919000D01*
%TO.C,C136*%
X16930000Y-47014000D02*
X18630000Y-47014000D01*
X18630000Y-50014000D01*
X16930000Y-50014000D01*
X16930000Y-47014000D01*
%TO.C,C137*%
X14898000Y-52983000D02*
X16598000Y-52983000D01*
X16598000Y-55983000D01*
X14898000Y-55983000D01*
X14898000Y-52983000D01*
%TO.C,D8*%
X5246000Y-11581000D02*
X6946000Y-11581000D01*
X6946000Y-14581000D01*
X5246000Y-14581000D01*
X5246000Y-11581000D01*
%TO.C,F1*%
X9183000Y-46252000D02*
X10883000Y-46252000D01*
X10883000Y-49252000D01*
X9183000Y-49252000D01*
X9183000Y-46252000D01*
%TO.C,H1*%
X64569000Y-56695000D02*
X68019000Y-56695000D01*
X68019000Y-60145000D01*
X64569000Y-60145000D01*
X64569000Y-56695000D01*
%TO.C,H2*%
X39917000Y-1929000D02*
X41617000Y-1929000D01*
X41617000Y-4929000D01*
X39917000Y-4929000D01*
X39917000Y-1929000D01*
%TO.C,H3*%
X52998000Y-1929000D02*
X54698000Y-1929000D01*
X54698000Y-4929000D01*
X52998000Y-4929000D01*
X52998000Y-1929000D01*
%TO.C,H4*%
X46457500Y-1929000D02*
X48157500Y-1929000D01*
X48157500Y-4929000D01*
X46457500Y-4929000D01*
X46457500Y-1929000D01*
%TO.C,L10*%
X73733672Y-17182834D02*
X76733672Y-17182834D01*
X76733672Y-18882834D01*
X73733672Y-18882834D01*
X73733672Y-17182834D01*
%TO.C,L11*%
X88875982Y-20010618D02*
X92612382Y-20010618D01*
X92612382Y-24100618D01*
X88875982Y-24100618D01*
X88875982Y-20010618D01*
%TO.C,L12*%
X88920564Y-33316603D02*
X92656964Y-33316603D01*
X92656964Y-37406603D01*
X88920564Y-37406603D01*
X88920564Y-33316603D01*
%TO.C,L13*%
X76680705Y-6953621D02*
X80770705Y-6953621D01*
X80770705Y-10690021D01*
X76680705Y-10690021D01*
X76680705Y-6953621D01*
%TO.C,L14*%
X78931541Y-14070143D02*
X81931541Y-14070143D01*
X81931541Y-15770143D01*
X78931541Y-15770143D01*
X78931541Y-14070143D01*
%TO.C,L15*%
X75525429Y-14071502D02*
X78525429Y-14071502D01*
X78525429Y-15771502D01*
X75525429Y-15771502D01*
X75525429Y-14071502D01*
%TO.C,L16*%
X79232008Y-48424692D02*
X83322008Y-48424692D01*
X83322008Y-52161092D01*
X79232008Y-52161092D01*
X79232008Y-48424692D01*
%TO.C,L17*%
X78076699Y-43333742D02*
X81076699Y-43333742D01*
X81076699Y-45033742D01*
X78076699Y-45033742D01*
X78076699Y-43333742D01*
%TO.C,L18*%
X81482539Y-43337737D02*
X84482539Y-43337737D01*
X84482539Y-45037737D01*
X81482539Y-45037737D01*
X81482539Y-43337737D01*
%TO.C,L19*%
X17677000Y-32932000D02*
X20677000Y-32932000D01*
X20677000Y-34632000D01*
X17677000Y-34632000D01*
X17677000Y-32932000D01*
%TO.C,L20*%
X9638916Y-41986084D02*
X12638916Y-41986084D01*
X12638916Y-43686084D01*
X9638916Y-43686084D01*
X9638916Y-41986084D01*
%TO.C,L21*%
X23280000Y-35203000D02*
X24980000Y-35203000D01*
X24980000Y-38203000D01*
X23280000Y-38203000D01*
X23280000Y-35203000D01*
%TO.C,L22*%
X19547597Y-35198946D02*
X21247597Y-35198946D01*
X21247597Y-38198946D01*
X19547597Y-38198946D01*
X19547597Y-35198946D01*
%TO.C,L23*%
X9207153Y-17539323D02*
X15927153Y-17539323D01*
X15927153Y-24739323D01*
X9207153Y-24739323D01*
X9207153Y-17539323D01*
%TO.C,PG B*%
X60476000Y-1182000D02*
X63476000Y-1182000D01*
X63476000Y-2882000D01*
X60476000Y-2882000D01*
X60476000Y-1182000D01*
%TO.C,PG A*%
X56453321Y-1194758D02*
X59453321Y-1194758D01*
X59453321Y-2894758D01*
X56453321Y-2894758D01*
X56453321Y-1194758D01*
%TO.C,10M*%
X913000Y-5881000D02*
X3913000Y-5881000D01*
X3913000Y-7581000D01*
X913000Y-7581000D01*
X913000Y-5881000D01*
%TO.C,100M*%
X904140Y-7531114D02*
X3904140Y-7531114D01*
X3904140Y-9231114D01*
X904140Y-9231114D01*
X904140Y-7531114D01*
%TO.C,1000M*%
X903033Y-9178116D02*
X3903033Y-9178116D01*
X3903033Y-10878116D01*
X903033Y-10878116D01*
X903033Y-9178116D01*
%TO.C,ACT*%
X21741000Y-11850000D02*
X24741000Y-11850000D01*
X24741000Y-13550000D01*
X21741000Y-13550000D01*
X21741000Y-11850000D01*
%TO.C,ARM*%
X71779000Y-58078000D02*
X74779000Y-58078000D01*
X74779000Y-59778000D01*
X71779000Y-59778000D01*
X71779000Y-58078000D01*
%TO.C,NC*%
X13567989Y-31838606D02*
X16567989Y-31838606D01*
X16567989Y-33538606D01*
X13567989Y-33538606D01*
X13567989Y-31838606D01*
%TO.C,OSC1*%
X73613247Y-19460152D02*
X77063247Y-19460152D01*
X77063247Y-22910152D01*
X73613247Y-22910152D01*
X73613247Y-19460152D01*
%TO.C,R1*%
X55650000Y-53252000D02*
X58650000Y-53252000D01*
X58650000Y-54952000D01*
X55650000Y-54952000D01*
X55650000Y-53252000D01*
%TO.C,R8*%
X62346998Y-26210994D02*
X64046998Y-26210994D01*
X64046998Y-29210994D01*
X62346998Y-29210994D01*
X62346998Y-26210994D01*
%TO.C,R9*%
X60045998Y-26352994D02*
X63045998Y-26352994D01*
X63045998Y-28052994D01*
X60045998Y-28052994D01*
X60045998Y-26352994D01*
%TO.C,R10*%
X59780758Y-23290878D02*
X61480758Y-23290878D01*
X61480758Y-26290878D01*
X59780758Y-26290878D01*
X59780758Y-23290878D01*
%TO.C,R11*%
X65951914Y-16270056D02*
X67651914Y-16270056D01*
X67651914Y-19270056D01*
X65951914Y-19270056D01*
X65951914Y-16270056D01*
%TO.C,R12*%
X63749917Y-10340126D02*
X65449917Y-10340126D01*
X65449917Y-13340126D01*
X63749917Y-13340126D01*
X63749917Y-10340126D01*
%TO.C,R13*%
X64917473Y-10351759D02*
X66617473Y-10351759D01*
X66617473Y-13351759D01*
X64917473Y-13351759D01*
X64917473Y-10351759D01*
%TO.C,R14*%
X62092998Y-23289994D02*
X63792998Y-23289994D01*
X63792998Y-26289994D01*
X62092998Y-26289994D01*
X62092998Y-23289994D01*
%TO.C,R15*%
X60933270Y-23294182D02*
X62633270Y-23294182D01*
X62633270Y-26294182D01*
X60933270Y-26294182D01*
X60933270Y-23294182D01*
%TO.C,R16*%
X72299463Y-16190026D02*
X73999463Y-16190026D01*
X73999463Y-19190026D01*
X72299463Y-19190026D01*
X72299463Y-16190026D01*
%TO.C,R17*%
X70164191Y-10329473D02*
X71864191Y-10329473D01*
X71864191Y-13329473D01*
X70164191Y-13329473D01*
X70164191Y-10329473D01*
%TO.C,R18*%
X71337867Y-10325404D02*
X73037867Y-10325404D01*
X73037867Y-13325404D01*
X71337867Y-13325404D01*
X71337867Y-10325404D01*
%TO.C,R19*%
X73557000Y-35472000D02*
X76557000Y-35472000D01*
X76557000Y-37172000D01*
X73557000Y-37172000D01*
X73557000Y-35472000D01*
%TO.C,R20*%
X84494000Y-28599000D02*
X86194000Y-28599000D01*
X86194000Y-31599000D01*
X84494000Y-31599000D01*
X84494000Y-28599000D01*
%TO.C,R24*%
X60505647Y-3098359D02*
X63505647Y-3098359D01*
X63505647Y-4798359D01*
X60505647Y-4798359D01*
X60505647Y-3098359D01*
%TO.C,R25*%
X56476689Y-3098359D02*
X59476689Y-3098359D01*
X59476689Y-4798359D01*
X56476689Y-4798359D01*
X56476689Y-3098359D01*
%TO.C,R26*%
X92887199Y-8068134D02*
X94587199Y-8068134D01*
X94587199Y-11068134D01*
X92887199Y-11068134D01*
X92887199Y-8068134D01*
%TO.C,R27*%
X90449654Y-9150938D02*
X93449654Y-9150938D01*
X93449654Y-10850938D01*
X90449654Y-10850938D01*
X90449654Y-9150938D01*
%TO.C,R28*%
X92776767Y-48945853D02*
X94476767Y-48945853D01*
X94476767Y-51945853D01*
X92776767Y-51945853D01*
X92776767Y-48945853D01*
%TO.C,R29*%
X90288143Y-49161668D02*
X93288143Y-49161668D01*
X93288143Y-50861668D01*
X90288143Y-50861668D01*
X90288143Y-49161668D01*
%TO.C,R30*%
X5231000Y-54014000D02*
X8231000Y-54014000D01*
X8231000Y-55714000D01*
X5231000Y-55714000D01*
X5231000Y-54014000D01*
%TO.C,R31*%
X3148213Y-42711610D02*
X6148213Y-42711610D01*
X6148213Y-44411610D01*
X3148213Y-44411610D01*
X3148213Y-42711610D01*
%TO.C,R32*%
X63763048Y-38543575D02*
X65463048Y-38543575D01*
X65463048Y-41543575D01*
X63763048Y-41543575D01*
X63763048Y-38543575D01*
%TO.C,R33*%
X63788232Y-36151596D02*
X65488232Y-36151596D01*
X65488232Y-39151596D01*
X63788232Y-39151596D01*
X63788232Y-36151596D01*
%TO.C,R46*%
X9310000Y-31266000D02*
X11010000Y-31266000D01*
X11010000Y-34266000D01*
X9310000Y-34266000D01*
X9310000Y-31266000D01*
%TO.C,R49*%
X12993000Y-41426000D02*
X14693000Y-41426000D01*
X14693000Y-44426000D01*
X12993000Y-44426000D01*
X12993000Y-41426000D01*
%TO.C,R50*%
X20740000Y-29869000D02*
X22440000Y-29869000D01*
X22440000Y-32869000D01*
X20740000Y-32869000D01*
X20740000Y-29869000D01*
%TO.C,R51*%
X4483247Y-39855098D02*
X7483247Y-39855098D01*
X7483247Y-41555098D01*
X4483247Y-41555098D01*
X4483247Y-39855098D01*
%TO.C,R52*%
X4483247Y-38698488D02*
X7483247Y-38698488D01*
X7483247Y-40398488D01*
X4483247Y-40398488D01*
X4483247Y-38698488D01*
%TO.C,R53*%
X4483247Y-37541876D02*
X7483247Y-37541876D01*
X7483247Y-39241876D01*
X4483247Y-39241876D01*
X4483247Y-37541876D01*
%TO.C,R54*%
X4483247Y-36385267D02*
X7483247Y-36385267D01*
X7483247Y-38085267D01*
X4483247Y-38085267D01*
X4483247Y-36385267D01*
%TO.C,R55*%
X4483247Y-35228658D02*
X7483247Y-35228658D01*
X7483247Y-36928658D01*
X4483247Y-36928658D01*
X4483247Y-35228658D01*
%TO.C,R56*%
X4483247Y-34072049D02*
X7483247Y-34072049D01*
X7483247Y-35772049D01*
X4483247Y-35772049D01*
X4483247Y-34072049D01*
%TO.C,R57*%
X4483247Y-32915437D02*
X7483247Y-32915437D01*
X7483247Y-34615437D01*
X4483247Y-34615437D01*
X4483247Y-32915437D01*
%TO.C,R58*%
X4483247Y-31758827D02*
X7483247Y-31758827D01*
X7483247Y-33458827D01*
X4483247Y-33458827D01*
X4483247Y-31758827D01*
%TO.C,R59*%
X21629000Y-16280000D02*
X23329000Y-16280000D01*
X23329000Y-19280000D01*
X21629000Y-19280000D01*
X21629000Y-16280000D01*
%TO.C,R60*%
X26201000Y-2437000D02*
X27901000Y-2437000D01*
X27901000Y-5437000D01*
X26201000Y-5437000D01*
X26201000Y-2437000D01*
%TO.C,R73*%
X659000Y-17946000D02*
X3659000Y-17946000D01*
X3659000Y-19646000D01*
X659000Y-19646000D01*
X659000Y-17946000D01*
%TO.C,R74*%
X659000Y-16676000D02*
X3659000Y-16676000D01*
X3659000Y-18376000D01*
X659000Y-18376000D01*
X659000Y-16676000D01*
%TO.C,R75*%
X659000Y-15406000D02*
X3659000Y-15406000D01*
X3659000Y-17106000D01*
X659000Y-17106000D01*
X659000Y-15406000D01*
%TO.C,R76*%
X21868000Y-13374000D02*
X24868000Y-13374000D01*
X24868000Y-15074000D01*
X21868000Y-15074000D01*
X21868000Y-13374000D01*
%TO.C,R77*%
X21487000Y-47410000D02*
X24487000Y-47410000D01*
X24487000Y-49110000D01*
X21487000Y-49110000D01*
X21487000Y-47410000D01*
%TO.C,R78*%
X19470000Y-56285000D02*
X21170000Y-56285000D01*
X21170000Y-59285000D01*
X19470000Y-59285000D01*
X19470000Y-56285000D01*
%TO.C,R80*%
X21756000Y-56285000D02*
X23456000Y-56285000D01*
X23456000Y-59285000D01*
X21756000Y-59285000D01*
X21756000Y-56285000D01*
%TO.C,R81*%
X22772000Y-53364000D02*
X24472000Y-53364000D01*
X24472000Y-56364000D01*
X22772000Y-56364000D01*
X22772000Y-53364000D01*
%TO.C,R84*%
X71271000Y-56427000D02*
X74271000Y-56427000D01*
X74271000Y-58127000D01*
X71271000Y-58127000D01*
X71271000Y-56427000D01*
%TO.C,RF1*%
X68362100Y-2292800D02*
X71802000Y-2292800D01*
X71802000Y-5835200D01*
X68362100Y-5835200D01*
X68362100Y-2292800D01*
%TO.C,RF2*%
X95667100Y-21561799D02*
X99107000Y-21561799D01*
X99107000Y-25104199D01*
X95667100Y-25104199D01*
X95667100Y-21561799D01*
%TO.C,RF3*%
X95667100Y-34894800D02*
X99107000Y-34894800D01*
X99107000Y-38437200D01*
X95667100Y-38437200D01*
X95667100Y-34894800D01*
%TO.C,RF4*%
X78228800Y-874390D02*
X81771200Y-874390D01*
X81771200Y-4314290D01*
X78228800Y-4314290D01*
X78228800Y-874390D01*
%TO.C,RF5*%
X78228800Y-55680218D02*
X81771200Y-55680218D01*
X81771200Y-59120118D01*
X78228800Y-59120118D01*
X78228800Y-55680218D01*
%TO.C,RF6*%
X95667100Y-8228800D02*
X99107000Y-8228800D01*
X99107000Y-11771200D01*
X95667100Y-11771200D01*
X95667100Y-8228800D01*
%TO.C,RF7*%
X95667100Y-48228799D02*
X99107000Y-48228799D01*
X99107000Y-51771199D01*
X95667100Y-51771199D01*
X95667100Y-48228799D01*
%TO.C,ARM RST*%
X54028000Y-55044000D02*
X57478000Y-55044000D01*
X57478000Y-58494000D01*
X54028000Y-58494000D01*
X54028000Y-55044000D01*
%TO.C,U1*%
X60968830Y-45887595D02*
X71818830Y-45887595D01*
X71818830Y-56257595D01*
X60968830Y-56257595D01*
X60968830Y-45887595D01*
%TO.C,U2*%
X66461000Y-17199000D02*
X91781000Y-17199000D01*
X91781000Y-42999000D01*
X66461000Y-42999000D01*
X66461000Y-17199000D01*
%TO.C,U3*%
X63224541Y-23825857D02*
X68194541Y-23825857D01*
X68194541Y-28795857D01*
X63224541Y-28795857D01*
X63224541Y-23825857D01*
%TO.C,U4*%
X63728998Y-20129994D02*
X66728998Y-20129994D01*
X66728998Y-21829994D01*
X63728998Y-21829994D01*
X63728998Y-20129994D01*
%TO.C,U5*%
X60718242Y-12276977D02*
X66638242Y-12276977D01*
X66638242Y-18676977D01*
X60718242Y-18676977D01*
X60718242Y-12276977D01*
%TO.C,U6*%
X67049446Y-12292910D02*
X72969446Y-12292910D01*
X72969446Y-18692910D01*
X67049446Y-18692910D01*
X67049446Y-12292910D01*
%TO.C,U7*%
X71888800Y-41438100D02*
X75431200Y-41438100D01*
X75431200Y-44878000D01*
X71888800Y-44878000D01*
X71888800Y-41438100D01*
%TO.C,U9*%
X7051222Y-32262310D02*
X16601222Y-32262310D01*
X16601222Y-41332310D01*
X7051222Y-41332310D01*
X7051222Y-32262310D01*
%TO.C,U10*%
X11481487Y-45958470D02*
X17881487Y-45958470D01*
X17881487Y-51878470D01*
X11481487Y-51878470D01*
X11481487Y-45958470D01*
%TO.C,U11*%
X8918132Y-50627998D02*
X14838132Y-50627998D01*
X14838132Y-57027998D01*
X8918132Y-57027998D01*
X8918132Y-50627998D01*
%TO.C,U12*%
X16729394Y-42128402D02*
X20169294Y-42128402D01*
X20169294Y-45670802D01*
X16729394Y-45670802D01*
X16729394Y-42128402D01*
%TO.C,U13*%
X17710416Y-38603390D02*
X21150316Y-38603390D01*
X21150316Y-42145790D01*
X17710416Y-42145790D01*
X17710416Y-38603390D01*
%TO.C,U15*%
X15069577Y-48154238D02*
X24189577Y-48154238D01*
X24189577Y-57754238D01*
X15069577Y-57754238D01*
X15069577Y-48154238D01*
%TO.C,USB1*%
X2153000Y-46462000D02*
X7753000Y-46462000D01*
X7753000Y-51582000D01*
X2153000Y-51582000D01*
X2153000Y-46462000D01*
%TO.C,X1*%
X71300000Y-49837000D02*
X74750000Y-49837000D01*
X74750000Y-53287000D01*
X71300000Y-53287000D01*
X71300000Y-49837000D01*
%TO.C,X2*%
X10467000Y-56060000D02*
X13917000Y-56060000D01*
X13917000Y-59510000D01*
X10467000Y-59510000D01*
X10467000Y-56060000D01*
%TO.C,X3*%
X25961000Y-54663000D02*
X29411000Y-54663000D01*
X29411000Y-58113000D01*
X25961000Y-58113000D01*
X25961000Y-54663000D01*
%TO.C,SCREW1*%
X2049999Y-2049999D02*
X3949999Y-2049999D01*
X3949999Y-3949999D01*
X2049999Y-3949999D01*
X2049999Y-2049999D01*
%TO.C,SCREW2*%
X96049999Y-2049999D02*
X97949999Y-2049999D01*
X97949999Y-3949999D01*
X96049999Y-3949999D01*
X96049999Y-2049999D01*
%TO.C,SCREW3*%
X96049999Y-56050000D02*
X97949999Y-56050000D01*
X97949999Y-57950000D01*
X96049999Y-57950000D01*
X96049999Y-56050000D01*
%TO.C,SCREW4*%
X2049999Y-56050000D02*
X3949999Y-56050000D01*
X3949999Y-57950000D01*
X2049999Y-57950000D01*
X2049999Y-56050000D01*
%TO.C,CN1*%
X40056723Y-54806515D02*
X44376723Y-54806515D01*
X44376723Y-59606515D01*
X40056723Y-59606515D01*
X40056723Y-54806515D01*
%TO.C,C140*%
X11708000Y-44997000D02*
X14708000Y-44997000D01*
X14708000Y-46697000D01*
X11708000Y-46697000D01*
X11708000Y-44997000D01*
%TO.C,C141*%
X11215000Y-48411000D02*
X12915000Y-48411000D01*
X12915000Y-51411000D01*
X11215000Y-51411000D01*
X11215000Y-48411000D01*
%TO.C,C144*%
X8167000Y-52729000D02*
X9867000Y-52729000D01*
X9867000Y-55729000D01*
X8167000Y-55729000D01*
X8167000Y-52729000D01*
%TO.C,C146*%
X7913000Y-56285000D02*
X9613000Y-56285000D01*
X9613000Y-59285000D01*
X7913000Y-59285000D01*
X7913000Y-56285000D01*
%TO.C,C147*%
X67418845Y-24955606D02*
X69118845Y-24955606D01*
X69118845Y-27955606D01*
X67418845Y-27955606D01*
X67418845Y-24955606D01*
%TO.C,C148*%
X64910817Y-27672359D02*
X67910817Y-27672359D01*
X67910817Y-29372359D01*
X64910817Y-29372359D01*
X64910817Y-27672359D01*
%TO.C,U16*%
X57205000Y-54411000D02*
X62175000Y-54411000D01*
X62175000Y-59381000D01*
X57205000Y-59381000D01*
X57205000Y-54411000D01*
%TO.C,U14*%
X12445000Y-6871000D02*
X16765000Y-6871000D01*
X16765000Y-11671000D01*
X12445000Y-11671000D01*
X12445000Y-6871000D01*
%TO.C,R93*%
X25872874Y-52808270D02*
X28872874Y-52808270D01*
X28872874Y-54508270D01*
X25872874Y-54508270D01*
X25872874Y-52808270D01*
%TO.C,CN2*%
X18475300Y-27364000D02*
X37125300Y-27364000D01*
X37125300Y-45534000D01*
X18475300Y-45534000D01*
X18475300Y-27364000D01*
%TO.C,CN3*%
X47875800Y-27364000D02*
X66525800Y-27364000D01*
X66525800Y-45534000D01*
X47875800Y-45534000D01*
X47875800Y-27364000D01*
%TO.C,U17*%
X35040550Y-42076380D02*
X49960550Y-42076380D01*
X49960550Y-57476380D01*
X35040550Y-57476380D01*
X35040550Y-42076380D01*
%TD*%
M02*
