%TF.GenerationSoftware,KiCad,Pcbnew,10.99.0-unknown*%
%TF.CreationDate,2026-08-12T15:26:02+08:00*%
%TF.ProjectId,__AR__,00904152-3c5c-42e6-9b69-6361645f7063,rev?*%
%TF.SameCoordinates,Original*%
%TF.FileFunction,AssemblyDrawing,Bot*%
%FSLAX46Y46*%
G04 Gerber Fmt 4.6, Leading zero omitted, Abs format (unit mm)*
G04 Created by KiCad (PCBNEW 10.99.0-unknown) date 2026-08-12 15:26:02*
%MOMM*%
%LPD*%
G01*
G04 APERTURE LIST*
%ADD10C,0.100000*%
G04 APERTURE END LIST*
%TO.C,C58*%
D10*
X25627200Y29933000D02*
X28627200Y29933000D01*
X28627200Y28233000D01*
X25627200Y28233000D01*
X25627200Y29933000D01*
%TO.C,C59*%
X18758800Y33808800D02*
X20458800Y33808800D01*
X20458800Y30808800D01*
X18758800Y30808800D01*
X18758800Y33808800D01*
%TO.C,C60*%
X18758800Y31853000D02*
X20458800Y31853000D01*
X20458800Y28853000D01*
X18758800Y28853000D01*
X18758800Y31853000D01*
%TO.C,C30*%
X28853000Y27037400D02*
X31853000Y27037400D01*
X31853000Y25337400D01*
X28853000Y25337400D01*
X28853000Y27037400D01*
%TO.C,C31*%
X18616762Y28688489D02*
X21616762Y28688489D01*
X21616762Y26988489D01*
X18616762Y26988489D01*
X18616762Y28688489D01*
%TO.C,C33*%
X18616800Y29679000D02*
X21616800Y29679000D01*
X21616800Y27979000D01*
X18616800Y27979000D01*
X18616800Y29679000D01*
%TO.C,C34*%
X18616800Y34581200D02*
X21616800Y34581200D01*
X21616800Y32881200D01*
X18616800Y32881200D01*
X18616800Y34581200D01*
%TO.C,C37*%
X18616800Y27723200D02*
X21616800Y27723200D01*
X21616800Y26023200D01*
X18616800Y26023200D01*
X18616800Y27723200D01*
%TO.C,C38*%
X18616800Y25818200D02*
X21616800Y25818200D01*
X21616800Y24118200D01*
X18616800Y24118200D01*
X18616800Y25818200D01*
%TO.C,C39*%
X28853000Y28002600D02*
X31853000Y28002600D01*
X31853000Y26302600D01*
X28853000Y26302600D01*
X28853000Y28002600D01*
%TO.C,C40*%
X18616546Y36435400D02*
X21616546Y36435400D01*
X21616546Y34735400D01*
X18616546Y34735400D01*
X18616546Y36435400D01*
%TO.C,C41*%
X25627200Y32650800D02*
X28627200Y32650800D01*
X28627200Y30950800D01*
X25627200Y30950800D01*
X25627200Y32650800D01*
%TO.C,C61*%
X18616546Y26758000D02*
X21616546Y26758000D01*
X21616546Y25058000D01*
X18616546Y25058000D01*
X18616546Y26758000D01*
%TO.C,C62*%
X25627200Y30847400D02*
X28627200Y30847400D01*
X28627200Y29147400D01*
X25627200Y29147400D01*
X25627200Y30847400D01*
%TO.C,C63*%
X25627200Y31736400D02*
X28627200Y31736400D01*
X28627200Y30036400D01*
X25627200Y30036400D01*
X25627200Y31736400D01*
%TO.C,C64*%
X18616800Y35521000D02*
X21616800Y35521000D01*
X21616800Y33821000D01*
X18616800Y33821000D01*
X18616800Y35521000D01*
%TO.C,C65*%
X29894400Y34784400D02*
X32894400Y34784400D01*
X32894400Y33084400D01*
X29894400Y33084400D01*
X29894400Y34784400D01*
%TO.C,C97*%
X41946101Y29491819D02*
X39824781Y27370499D01*
X38622699Y28572581D01*
X40744019Y30693901D01*
X41946101Y29491819D01*
%TO.C,C98*%
X41095800Y31177600D02*
X44095800Y31177600D01*
X44095800Y29477600D01*
X41095800Y29477600D01*
X41095800Y31177600D01*
%TO.C,C92*%
X36219000Y26580200D02*
X39219000Y26580200D01*
X39219000Y24880200D01*
X36219000Y24880200D01*
X36219000Y26580200D01*
%TO.C,C93*%
X36219000Y27596200D02*
X39219000Y27596200D01*
X39219000Y25896200D01*
X36219000Y25896200D01*
X36219000Y27596200D01*
%TO.C,C95*%
X40298000Y27255600D02*
X41998000Y27255600D01*
X41998000Y24255600D01*
X40298000Y24255600D01*
X40298000Y27255600D01*
%TO.C,C96*%
X41070400Y27393000D02*
X44070400Y27393000D01*
X44070400Y25693000D01*
X41070400Y25693000D01*
X41070400Y27393000D01*
%TO.C,C44*%
X25479195Y39908801D02*
X27179195Y39908801D01*
X27179195Y36908801D01*
X25479195Y36908801D01*
X25479195Y39908801D01*
%TO.C,C45*%
X28853000Y28967800D02*
X31853000Y28967800D01*
X31853000Y27267800D01*
X28853000Y27267800D01*
X28853000Y28967800D01*
%TO.C,C46*%
X18591146Y37451400D02*
X21591146Y37451400D01*
X21591146Y35751400D01*
X18591146Y35751400D01*
X18591146Y37451400D01*
%TO.C,C47*%
X29894400Y33920800D02*
X32894400Y33920800D01*
X32894400Y32220800D01*
X29894400Y32220800D01*
X29894400Y33920800D01*
%TO.C,C51*%
X26639594Y39908801D02*
X28339594Y39908801D01*
X28339594Y36908801D01*
X26639594Y36908801D01*
X26639594Y39908801D01*
%TO.C,C52*%
X28853000Y29882200D02*
X31853000Y29882200D01*
X31853000Y28182200D01*
X28853000Y28182200D01*
X28853000Y29882200D01*
%TO.C,C14*%
X38164400Y24817200D02*
X39864400Y24817200D01*
X39864400Y21817200D01*
X38164400Y21817200D01*
X38164400Y24817200D01*
%TO.C,C15*%
X37199200Y24791800D02*
X38899200Y24791800D01*
X38899200Y21791800D01*
X37199200Y21791800D01*
X37199200Y24791800D01*
%TO.C,C16*%
X34862400Y29059000D02*
X36562400Y29059000D01*
X36562400Y26059000D01*
X34862400Y26059000D01*
X34862400Y29059000D01*
%TO.C,C17*%
X28852365Y30847664D02*
X31852365Y30847664D01*
X31852365Y29147664D01*
X28852365Y29147664D01*
X28852365Y30847664D01*
%TO.C,C18*%
X33754311Y31279464D02*
X36754311Y31279464D01*
X36754311Y29579464D01*
X33754311Y29579464D01*
X33754311Y31279464D01*
%TO.C,C19*%
X28853635Y31836994D02*
X31853635Y31836994D01*
X31853635Y30136994D01*
X28853635Y30136994D01*
X28853635Y31836994D01*
%TO.C,C20*%
X33754311Y32270064D02*
X36754311Y32270064D01*
X36754311Y30570064D01*
X33754311Y30570064D01*
X33754311Y32270064D01*
%TO.C,C26*%
X41095800Y28663000D02*
X44095800Y28663000D01*
X44095800Y26963000D01*
X41095800Y26963000D01*
X41095800Y28663000D01*
%TO.C,C27*%
X39053400Y35434400D02*
X40753400Y35434400D01*
X40753400Y32434400D01*
X39053400Y32434400D01*
X39053400Y35434400D01*
%TO.C,C29*%
X41095800Y29653600D02*
X44095800Y29653600D01*
X44095800Y27953600D01*
X41095800Y27953600D01*
X41095800Y29653600D01*
%TO.C,C21*%
X38098600Y32142800D02*
X41098600Y32142800D01*
X41098600Y30442800D01*
X38098600Y30442800D01*
X38098600Y32142800D01*
%TO.C,C22*%
X38098600Y31203000D02*
X41098600Y31203000D01*
X41098600Y29503000D01*
X38098600Y29503000D01*
X38098600Y31203000D01*
%TO.C,C23*%
X38098600Y33108000D02*
X41098600Y33108000D01*
X41098600Y31408000D01*
X38098600Y31408000D01*
X38098600Y33108000D01*
%TO.C,C24*%
X38534219Y28335699D02*
X36412899Y30457019D01*
X37614981Y31659101D01*
X39736301Y29537781D01*
X38534219Y28335699D01*
%TO.C,C25*%
X35507800Y33565200D02*
X38507800Y33565200D01*
X38507800Y31865200D01*
X35507800Y31865200D01*
X35507800Y33565200D01*
%TO.C,D2*%
X3554600Y37248200D02*
X6554600Y37248200D01*
X6554600Y35548200D01*
X3554600Y35548200D01*
X3554600Y37248200D01*
%TO.C,D3*%
X3554600Y38315000D02*
X6554600Y38315000D01*
X6554600Y36615000D01*
X3554600Y36615000D01*
X3554600Y38315000D01*
%TO.C,D4*%
X3554600Y39458000D02*
X6554600Y39458000D01*
X6554600Y37758000D01*
X3554600Y37758000D01*
X3554600Y39458000D01*
%TO.C,D5*%
X3300600Y41337600D02*
X6300600Y41337600D01*
X6300600Y39637600D01*
X3300600Y39637600D01*
X3300600Y41337600D01*
%TO.C,D6*%
X3300600Y42150400D02*
X6300600Y42150400D01*
X6300600Y40450400D01*
X3300600Y40450400D01*
X3300600Y42150400D01*
%TO.C,D7*%
X3300600Y42988600D02*
X6300600Y42988600D01*
X6300600Y41288600D01*
X3300600Y41288600D01*
X3300600Y42988600D01*
%TO.C,D9*%
X25689373Y8408058D02*
X27389373Y8408058D01*
X27389373Y5408058D01*
X25689373Y5408058D01*
X25689373Y8408058D01*
%TO.C,D11*%
X26841771Y8408058D02*
X28541771Y8408058D01*
X28541771Y5408058D01*
X26841771Y5408058D01*
X26841771Y8408058D01*
%TO.C,D13*%
X7684400Y27818007D02*
X9384400Y27818007D01*
X9384400Y24818007D01*
X7684400Y24818007D01*
X7684400Y27818007D01*
%TO.C,D14*%
X7647214Y25604600D02*
X9347214Y25604600D01*
X9347214Y22604600D01*
X7647214Y22604600D01*
X7647214Y25604600D01*
%TO.C,D15*%
X13192573Y8408058D02*
X14892573Y8408058D01*
X14892573Y5408058D01*
X13192573Y5408058D01*
X13192573Y8408058D01*
%TO.C,D16*%
X14344971Y8408058D02*
X16044971Y8408058D01*
X16044971Y5408058D01*
X14344971Y5408058D01*
X14344971Y8408058D01*
%TO.C,R?*%
X55715800Y35586800D02*
X57415800Y35586800D01*
X57415800Y32586800D01*
X55715800Y32586800D01*
X55715800Y35586800D01*
X54649000Y35586800D02*
X56349000Y35586800D01*
X56349000Y32586800D01*
X54649000Y32586800D01*
X54649000Y35586800D01*
X38047800Y28485200D02*
X41047800Y28485200D01*
X41047800Y26785200D01*
X38047800Y26785200D01*
X38047800Y28485200D01*
X19774800Y33783400D02*
X21474800Y33783400D01*
X21474800Y30783400D01*
X19774800Y30783400D01*
X19774800Y33783400D01*
X19774800Y31878400D02*
X21474800Y31878400D01*
X21474800Y28878400D01*
X19774800Y28878400D01*
X19774800Y31878400D01*
X26401301Y30736419D02*
X24279981Y28615099D01*
X23077899Y29817181D01*
X25199219Y31938501D01*
X26401301Y30736419D01*
X47943400Y13438000D02*
X49643400Y13438000D01*
X49643400Y10438000D01*
X47943400Y10438000D01*
X47943400Y13438000D01*
X46800400Y13438000D02*
X48500400Y13438000D01*
X48500400Y10438000D01*
X46800400Y10438000D01*
X46800400Y13438000D01*
X40511600Y36689400D02*
X43511600Y36689400D01*
X43511600Y34989400D01*
X40511600Y34989400D01*
X40511600Y36689400D01*
X45581200Y13438000D02*
X47281200Y13438000D01*
X47281200Y10438000D01*
X45581200Y10438000D01*
X45581200Y13438000D01*
X36269800Y28485200D02*
X39269800Y28485200D01*
X39269800Y26785200D01*
X36269800Y26785200D01*
X36269800Y28485200D01*
X36117400Y29552000D02*
X39117400Y29552000D01*
X39117400Y27852000D01*
X36117400Y27852000D01*
X36117400Y29552000D01*
%TD*%
M02*
