%TF.GenerationSoftware,KiCad,Pcbnew,10.99.0-unknown*%
%TF.CreationDate,2026-08-12T15:26:02+08:00*%
%TF.ProjectId,__AR__,00904152-3c5c-42e6-9b69-6361645f7063,rev?*%
%TF.SameCoordinates,Original*%
%TF.FileFunction,Profile,NP*%
%FSLAX46Y46*%
G04 Gerber Fmt 4.6, Leading zero omitted, Abs format (unit mm)*
G04 Created by KiCad (PCBNEW 10.99.0-unknown) date 2026-08-12 15:26:02*
%MOMM*%
%LPD*%
G01*
G04 APERTURE LIST*
%TA.AperFunction,Profile*%
%ADD10C,0.127000*%
%TD*%
G04 APERTURE END LIST*
D10*
X9563300Y50993800D02*
X10085400Y44602700D01*
X10085400Y44602700D02*
X10607500Y38211400D01*
X10607500Y38211400D02*
X11129600Y31820000D01*
X11129600Y31820000D02*
X11651700Y25428400D01*
X11651700Y25428400D02*
X12173800Y19036600D01*
X12173800Y19036600D02*
X12695900Y12644700D01*
X12695900Y12644700D02*
X13218000Y6252600D01*
X13218000Y6252600D02*
X13740000Y-139700D01*
X55540100Y-147600D02*
X56063800Y6245300D01*
X56063800Y6245300D02*
X56587600Y12637900D01*
X56587600Y12637900D02*
X57111400Y19030400D01*
X57111400Y19030400D02*
X57635200Y25422800D01*
X57635200Y25422800D02*
X58158900Y31814900D01*
X58158900Y31814900D02*
X58682700Y38206900D01*
X58682700Y38206900D02*
X59206500Y44598800D01*
X59206500Y44598800D02*
X59730300Y50990400D01*
X9563300Y50993800D02*
X9563300Y50993800D01*
X9563300Y50993800D02*
X59730300Y50990400D01*
X13740000Y-139700D02*
X13740000Y-139700D01*
X13740000Y-139700D02*
X55540100Y-147600D01*
X13740000Y-5139700D02*
X13740000Y-5139700D01*
X13740000Y-5139700D02*
X13740000Y-139700D01*
X13740000Y-5139700D02*
X13740000Y-5139700D01*
X13740000Y-5139700D02*
X55540100Y-5147600D01*
X55540100Y-5147600D02*
X55540100Y-5147600D01*
X55540100Y-5147600D02*
X55540100Y-147600D01*
X9563300Y55993800D02*
X9563300Y55993800D01*
X9563300Y55993800D02*
X9563300Y50993800D01*
X9563300Y55993800D02*
X9563300Y55993800D01*
X9563300Y55993800D02*
X59730300Y55990400D01*
X59730300Y55990400D02*
X59730300Y55990400D01*
X59730300Y55990400D02*
X59730300Y50990400D01*
M02*
