%TF.GenerationSoftware,KiCad,Pcbnew,10.99.0-unknown*%
%TF.CreationDate,2026-08-12T15:26:02+08:00*%
%TF.ProjectId,__AR__,00904152-3c5c-42e6-9b69-6361645f7063,rev?*%
%TF.SameCoordinates,Original*%
%TF.FileFunction,Legend,Bot*%
%TF.FilePolarity,Positive*%
%FSLAX46Y46*%
G04 Gerber Fmt 4.6, Leading zero omitted, Abs format (unit mm)*
G04 Created by KiCad (PCBNEW 10.99.0-unknown) date 2026-08-12 15:26:02*
%MOMM*%
%LPD*%
G01*
G04 APERTURE LIST*
%ADD10C,0.120000*%
G04 APERTURE END LIST*
D10*
X26612914Y26795335D02*
X26574818Y26757240D01*
X26574818Y26757240D02*
X26460533Y26719144D01*
X26460533Y26719144D02*
X26384342Y26719144D01*
X26384342Y26719144D02*
X26270056Y26757240D01*
X26270056Y26757240D02*
X26193866Y26833430D01*
X26193866Y26833430D02*
X26155771Y26909620D01*
X26155771Y26909620D02*
X26117675Y27062001D01*
X26117675Y27062001D02*
X26117675Y27176287D01*
X26117675Y27176287D02*
X26155771Y27328668D01*
X26155771Y27328668D02*
X26193866Y27404859D01*
X26193866Y27404859D02*
X26270056Y27481049D01*
X26270056Y27481049D02*
X26384342Y27519144D01*
X26384342Y27519144D02*
X26460533Y27519144D01*
X26460533Y27519144D02*
X26574818Y27481049D01*
X26574818Y27481049D02*
X26612914Y27442954D01*
X27336723Y27519144D02*
X26955771Y27519144D01*
X26955771Y27519144D02*
X26917675Y27138192D01*
X26917675Y27138192D02*
X26955771Y27176287D01*
X26955771Y27176287D02*
X27031961Y27214382D01*
X27031961Y27214382D02*
X27222437Y27214382D01*
X27222437Y27214382D02*
X27298628Y27176287D01*
X27298628Y27176287D02*
X27336723Y27138192D01*
X27336723Y27138192D02*
X27374818Y27062001D01*
X27374818Y27062001D02*
X27374818Y26871525D01*
X27374818Y26871525D02*
X27336723Y26795335D01*
X27336723Y26795335D02*
X27298628Y26757240D01*
X27298628Y26757240D02*
X27222437Y26719144D01*
X27222437Y26719144D02*
X27031961Y26719144D01*
X27031961Y26719144D02*
X26955771Y26757240D01*
X26955771Y26757240D02*
X26917675Y26795335D01*
X27831961Y27176287D02*
X27755771Y27214382D01*
X27755771Y27214382D02*
X27717676Y27252478D01*
X27717676Y27252478D02*
X27679580Y27328668D01*
X27679580Y27328668D02*
X27679580Y27366763D01*
X27679580Y27366763D02*
X27717676Y27442954D01*
X27717676Y27442954D02*
X27755771Y27481049D01*
X27755771Y27481049D02*
X27831961Y27519144D01*
X27831961Y27519144D02*
X27984342Y27519144D01*
X27984342Y27519144D02*
X28060533Y27481049D01*
X28060533Y27481049D02*
X28098628Y27442954D01*
X28098628Y27442954D02*
X28136723Y27366763D01*
X28136723Y27366763D02*
X28136723Y27328668D01*
X28136723Y27328668D02*
X28098628Y27252478D01*
X28098628Y27252478D02*
X28060533Y27214382D01*
X28060533Y27214382D02*
X27984342Y27176287D01*
X27984342Y27176287D02*
X27831961Y27176287D01*
X27831961Y27176287D02*
X27755771Y27138192D01*
X27755771Y27138192D02*
X27717676Y27100097D01*
X27717676Y27100097D02*
X27679580Y27023906D01*
X27679580Y27023906D02*
X27679580Y26871525D01*
X27679580Y26871525D02*
X27717676Y26795335D01*
X27717676Y26795335D02*
X27755771Y26757240D01*
X27755771Y26757240D02*
X27831961Y26719144D01*
X27831961Y26719144D02*
X27984342Y26719144D01*
X27984342Y26719144D02*
X28060533Y26757240D01*
X28060533Y26757240D02*
X28098628Y26795335D01*
X28098628Y26795335D02*
X28136723Y26871525D01*
X28136723Y26871525D02*
X28136723Y27023906D01*
X28136723Y27023906D02*
X28098628Y27100097D01*
X28098628Y27100097D02*
X28060533Y27138192D01*
X28060533Y27138192D02*
X27984342Y27176287D01*
X21896464Y31794514D02*
X21934560Y31756418D01*
X21934560Y31756418D02*
X21972655Y31642133D01*
X21972655Y31642133D02*
X21972655Y31565942D01*
X21972655Y31565942D02*
X21934560Y31451656D01*
X21934560Y31451656D02*
X21858369Y31375466D01*
X21858369Y31375466D02*
X21782179Y31337371D01*
X21782179Y31337371D02*
X21629798Y31299275D01*
X21629798Y31299275D02*
X21515512Y31299275D01*
X21515512Y31299275D02*
X21363131Y31337371D01*
X21363131Y31337371D02*
X21286940Y31375466D01*
X21286940Y31375466D02*
X21210750Y31451656D01*
X21210750Y31451656D02*
X21172655Y31565942D01*
X21172655Y31565942D02*
X21172655Y31642133D01*
X21172655Y31642133D02*
X21210750Y31756418D01*
X21210750Y31756418D02*
X21248845Y31794514D01*
X21172655Y32518323D02*
X21172655Y32137371D01*
X21172655Y32137371D02*
X21553607Y32099275D01*
X21553607Y32099275D02*
X21515512Y32137371D01*
X21515512Y32137371D02*
X21477417Y32213561D01*
X21477417Y32213561D02*
X21477417Y32404037D01*
X21477417Y32404037D02*
X21515512Y32480228D01*
X21515512Y32480228D02*
X21553607Y32518323D01*
X21553607Y32518323D02*
X21629798Y32556418D01*
X21629798Y32556418D02*
X21820274Y32556418D01*
X21820274Y32556418D02*
X21896464Y32518323D01*
X21896464Y32518323D02*
X21934560Y32480228D01*
X21934560Y32480228D02*
X21972655Y32404037D01*
X21972655Y32404037D02*
X21972655Y32213561D01*
X21972655Y32213561D02*
X21934560Y32137371D01*
X21934560Y32137371D02*
X21896464Y32099275D01*
X21972655Y32937371D02*
X21972655Y33089752D01*
X21972655Y33089752D02*
X21934560Y33165942D01*
X21934560Y33165942D02*
X21896464Y33204038D01*
X21896464Y33204038D02*
X21782179Y33280228D01*
X21782179Y33280228D02*
X21629798Y33318323D01*
X21629798Y33318323D02*
X21325036Y33318323D01*
X21325036Y33318323D02*
X21248845Y33280228D01*
X21248845Y33280228D02*
X21210750Y33242133D01*
X21210750Y33242133D02*
X21172655Y33165942D01*
X21172655Y33165942D02*
X21172655Y33013561D01*
X21172655Y33013561D02*
X21210750Y32937371D01*
X21210750Y32937371D02*
X21248845Y32899276D01*
X21248845Y32899276D02*
X21325036Y32861180D01*
X21325036Y32861180D02*
X21515512Y32861180D01*
X21515512Y32861180D02*
X21591702Y32899276D01*
X21591702Y32899276D02*
X21629798Y32937371D01*
X21629798Y32937371D02*
X21667893Y33013561D01*
X21667893Y33013561D02*
X21667893Y33165942D01*
X21667893Y33165942D02*
X21629798Y33242133D01*
X21629798Y33242133D02*
X21591702Y33280228D01*
X21591702Y33280228D02*
X21515512Y33318323D01*
X17896464Y29838714D02*
X17934560Y29800618D01*
X17934560Y29800618D02*
X17972655Y29686333D01*
X17972655Y29686333D02*
X17972655Y29610142D01*
X17972655Y29610142D02*
X17934560Y29495856D01*
X17934560Y29495856D02*
X17858369Y29419666D01*
X17858369Y29419666D02*
X17782179Y29381571D01*
X17782179Y29381571D02*
X17629798Y29343475D01*
X17629798Y29343475D02*
X17515512Y29343475D01*
X17515512Y29343475D02*
X17363131Y29381571D01*
X17363131Y29381571D02*
X17286940Y29419666D01*
X17286940Y29419666D02*
X17210750Y29495856D01*
X17210750Y29495856D02*
X17172655Y29610142D01*
X17172655Y29610142D02*
X17172655Y29686333D01*
X17172655Y29686333D02*
X17210750Y29800618D01*
X17210750Y29800618D02*
X17248845Y29838714D01*
X17172655Y30524428D02*
X17172655Y30372047D01*
X17172655Y30372047D02*
X17210750Y30295856D01*
X17210750Y30295856D02*
X17248845Y30257761D01*
X17248845Y30257761D02*
X17363131Y30181571D01*
X17363131Y30181571D02*
X17515512Y30143475D01*
X17515512Y30143475D02*
X17820274Y30143475D01*
X17820274Y30143475D02*
X17896464Y30181571D01*
X17896464Y30181571D02*
X17934560Y30219666D01*
X17934560Y30219666D02*
X17972655Y30295856D01*
X17972655Y30295856D02*
X17972655Y30448237D01*
X17972655Y30448237D02*
X17934560Y30524428D01*
X17934560Y30524428D02*
X17896464Y30562523D01*
X17896464Y30562523D02*
X17820274Y30600618D01*
X17820274Y30600618D02*
X17629798Y30600618D01*
X17629798Y30600618D02*
X17553607Y30562523D01*
X17553607Y30562523D02*
X17515512Y30524428D01*
X17515512Y30524428D02*
X17477417Y30448237D01*
X17477417Y30448237D02*
X17477417Y30295856D01*
X17477417Y30295856D02*
X17515512Y30219666D01*
X17515512Y30219666D02*
X17553607Y30181571D01*
X17553607Y30181571D02*
X17629798Y30143475D01*
X17172655Y31095857D02*
X17172655Y31172047D01*
X17172655Y31172047D02*
X17210750Y31248238D01*
X17210750Y31248238D02*
X17248845Y31286333D01*
X17248845Y31286333D02*
X17325036Y31324428D01*
X17325036Y31324428D02*
X17477417Y31362523D01*
X17477417Y31362523D02*
X17667893Y31362523D01*
X17667893Y31362523D02*
X17820274Y31324428D01*
X17820274Y31324428D02*
X17896464Y31286333D01*
X17896464Y31286333D02*
X17934560Y31248238D01*
X17934560Y31248238D02*
X17972655Y31172047D01*
X17972655Y31172047D02*
X17972655Y31095857D01*
X17972655Y31095857D02*
X17934560Y31019666D01*
X17934560Y31019666D02*
X17896464Y30981571D01*
X17896464Y30981571D02*
X17820274Y30943476D01*
X17820274Y30943476D02*
X17667893Y30905380D01*
X17667893Y30905380D02*
X17477417Y30905380D01*
X17477417Y30905380D02*
X17325036Y30943476D01*
X17325036Y30943476D02*
X17248845Y30981571D01*
X17248845Y30981571D02*
X17210750Y31019666D01*
X17210750Y31019666D02*
X17172655Y31095857D01*
X29838714Y23899735D02*
X29800618Y23861640D01*
X29800618Y23861640D02*
X29686333Y23823544D01*
X29686333Y23823544D02*
X29610142Y23823544D01*
X29610142Y23823544D02*
X29495856Y23861640D01*
X29495856Y23861640D02*
X29419666Y23937830D01*
X29419666Y23937830D02*
X29381571Y24014020D01*
X29381571Y24014020D02*
X29343475Y24166401D01*
X29343475Y24166401D02*
X29343475Y24280687D01*
X29343475Y24280687D02*
X29381571Y24433068D01*
X29381571Y24433068D02*
X29419666Y24509259D01*
X29419666Y24509259D02*
X29495856Y24585449D01*
X29495856Y24585449D02*
X29610142Y24623544D01*
X29610142Y24623544D02*
X29686333Y24623544D01*
X29686333Y24623544D02*
X29800618Y24585449D01*
X29800618Y24585449D02*
X29838714Y24547354D01*
X30105380Y24623544D02*
X30600618Y24623544D01*
X30600618Y24623544D02*
X30333952Y24318782D01*
X30333952Y24318782D02*
X30448237Y24318782D01*
X30448237Y24318782D02*
X30524428Y24280687D01*
X30524428Y24280687D02*
X30562523Y24242592D01*
X30562523Y24242592D02*
X30600618Y24166401D01*
X30600618Y24166401D02*
X30600618Y23975925D01*
X30600618Y23975925D02*
X30562523Y23899735D01*
X30562523Y23899735D02*
X30524428Y23861640D01*
X30524428Y23861640D02*
X30448237Y23823544D01*
X30448237Y23823544D02*
X30219666Y23823544D01*
X30219666Y23823544D02*
X30143475Y23861640D01*
X30143475Y23861640D02*
X30105380Y23899735D01*
X31095857Y24623544D02*
X31172047Y24623544D01*
X31172047Y24623544D02*
X31248238Y24585449D01*
X31248238Y24585449D02*
X31286333Y24547354D01*
X31286333Y24547354D02*
X31324428Y24471163D01*
X31324428Y24471163D02*
X31362523Y24318782D01*
X31362523Y24318782D02*
X31362523Y24128306D01*
X31362523Y24128306D02*
X31324428Y23975925D01*
X31324428Y23975925D02*
X31286333Y23899735D01*
X31286333Y23899735D02*
X31248238Y23861640D01*
X31248238Y23861640D02*
X31172047Y23823544D01*
X31172047Y23823544D02*
X31095857Y23823544D01*
X31095857Y23823544D02*
X31019666Y23861640D01*
X31019666Y23861640D02*
X30981571Y23899735D01*
X30981571Y23899735D02*
X30943476Y23975925D01*
X30943476Y23975925D02*
X30905380Y24128306D01*
X30905380Y24128306D02*
X30905380Y24318782D01*
X30905380Y24318782D02*
X30943476Y24471163D01*
X30943476Y24471163D02*
X30981571Y24547354D01*
X30981571Y24547354D02*
X31019666Y24585449D01*
X31019666Y24585449D02*
X31095857Y24623544D01*
X19602476Y29550824D02*
X19564380Y29512729D01*
X19564380Y29512729D02*
X19450095Y29474633D01*
X19450095Y29474633D02*
X19373904Y29474633D01*
X19373904Y29474633D02*
X19259618Y29512729D01*
X19259618Y29512729D02*
X19183428Y29588919D01*
X19183428Y29588919D02*
X19145333Y29665109D01*
X19145333Y29665109D02*
X19107237Y29817490D01*
X19107237Y29817490D02*
X19107237Y29931776D01*
X19107237Y29931776D02*
X19145333Y30084157D01*
X19145333Y30084157D02*
X19183428Y30160348D01*
X19183428Y30160348D02*
X19259618Y30236538D01*
X19259618Y30236538D02*
X19373904Y30274633D01*
X19373904Y30274633D02*
X19450095Y30274633D01*
X19450095Y30274633D02*
X19564380Y30236538D01*
X19564380Y30236538D02*
X19602476Y30198443D01*
X19869142Y30274633D02*
X20364380Y30274633D01*
X20364380Y30274633D02*
X20097714Y29969871D01*
X20097714Y29969871D02*
X20211999Y29969871D01*
X20211999Y29969871D02*
X20288190Y29931776D01*
X20288190Y29931776D02*
X20326285Y29893681D01*
X20326285Y29893681D02*
X20364380Y29817490D01*
X20364380Y29817490D02*
X20364380Y29627014D01*
X20364380Y29627014D02*
X20326285Y29550824D01*
X20326285Y29550824D02*
X20288190Y29512729D01*
X20288190Y29512729D02*
X20211999Y29474633D01*
X20211999Y29474633D02*
X19983428Y29474633D01*
X19983428Y29474633D02*
X19907237Y29512729D01*
X19907237Y29512729D02*
X19869142Y29550824D01*
X21126285Y29474633D02*
X20669142Y29474633D01*
X20897714Y29474633D02*
X20897714Y30274633D01*
X20897714Y30274633D02*
X20821523Y30160348D01*
X20821523Y30160348D02*
X20745333Y30084157D01*
X20745333Y30084157D02*
X20669142Y30046062D01*
X19602514Y30541335D02*
X19564418Y30503240D01*
X19564418Y30503240D02*
X19450133Y30465144D01*
X19450133Y30465144D02*
X19373942Y30465144D01*
X19373942Y30465144D02*
X19259656Y30503240D01*
X19259656Y30503240D02*
X19183466Y30579430D01*
X19183466Y30579430D02*
X19145371Y30655620D01*
X19145371Y30655620D02*
X19107275Y30808001D01*
X19107275Y30808001D02*
X19107275Y30922287D01*
X19107275Y30922287D02*
X19145371Y31074668D01*
X19145371Y31074668D02*
X19183466Y31150859D01*
X19183466Y31150859D02*
X19259656Y31227049D01*
X19259656Y31227049D02*
X19373942Y31265144D01*
X19373942Y31265144D02*
X19450133Y31265144D01*
X19450133Y31265144D02*
X19564418Y31227049D01*
X19564418Y31227049D02*
X19602514Y31188954D01*
X19869180Y31265144D02*
X20364418Y31265144D01*
X20364418Y31265144D02*
X20097752Y30960382D01*
X20097752Y30960382D02*
X20212037Y30960382D01*
X20212037Y30960382D02*
X20288228Y30922287D01*
X20288228Y30922287D02*
X20326323Y30884192D01*
X20326323Y30884192D02*
X20364418Y30808001D01*
X20364418Y30808001D02*
X20364418Y30617525D01*
X20364418Y30617525D02*
X20326323Y30541335D01*
X20326323Y30541335D02*
X20288228Y30503240D01*
X20288228Y30503240D02*
X20212037Y30465144D01*
X20212037Y30465144D02*
X19983466Y30465144D01*
X19983466Y30465144D02*
X19907275Y30503240D01*
X19907275Y30503240D02*
X19869180Y30541335D01*
X20631085Y31265144D02*
X21126323Y31265144D01*
X21126323Y31265144D02*
X20859657Y30960382D01*
X20859657Y30960382D02*
X20973942Y30960382D01*
X20973942Y30960382D02*
X21050133Y30922287D01*
X21050133Y30922287D02*
X21088228Y30884192D01*
X21088228Y30884192D02*
X21126323Y30808001D01*
X21126323Y30808001D02*
X21126323Y30617525D01*
X21126323Y30617525D02*
X21088228Y30541335D01*
X21088228Y30541335D02*
X21050133Y30503240D01*
X21050133Y30503240D02*
X20973942Y30465144D01*
X20973942Y30465144D02*
X20745371Y30465144D01*
X20745371Y30465144D02*
X20669180Y30503240D01*
X20669180Y30503240D02*
X20631085Y30541335D01*
X19602514Y35443535D02*
X19564418Y35405440D01*
X19564418Y35405440D02*
X19450133Y35367344D01*
X19450133Y35367344D02*
X19373942Y35367344D01*
X19373942Y35367344D02*
X19259656Y35405440D01*
X19259656Y35405440D02*
X19183466Y35481630D01*
X19183466Y35481630D02*
X19145371Y35557820D01*
X19145371Y35557820D02*
X19107275Y35710201D01*
X19107275Y35710201D02*
X19107275Y35824487D01*
X19107275Y35824487D02*
X19145371Y35976868D01*
X19145371Y35976868D02*
X19183466Y36053059D01*
X19183466Y36053059D02*
X19259656Y36129249D01*
X19259656Y36129249D02*
X19373942Y36167344D01*
X19373942Y36167344D02*
X19450133Y36167344D01*
X19450133Y36167344D02*
X19564418Y36129249D01*
X19564418Y36129249D02*
X19602514Y36091154D01*
X19869180Y36167344D02*
X20364418Y36167344D01*
X20364418Y36167344D02*
X20097752Y35862582D01*
X20097752Y35862582D02*
X20212037Y35862582D01*
X20212037Y35862582D02*
X20288228Y35824487D01*
X20288228Y35824487D02*
X20326323Y35786392D01*
X20326323Y35786392D02*
X20364418Y35710201D01*
X20364418Y35710201D02*
X20364418Y35519725D01*
X20364418Y35519725D02*
X20326323Y35443535D01*
X20326323Y35443535D02*
X20288228Y35405440D01*
X20288228Y35405440D02*
X20212037Y35367344D01*
X20212037Y35367344D02*
X19983466Y35367344D01*
X19983466Y35367344D02*
X19907275Y35405440D01*
X19907275Y35405440D02*
X19869180Y35443535D01*
X21050133Y35900678D02*
X21050133Y35367344D01*
X20859657Y36205440D02*
X20669180Y35634011D01*
X20669180Y35634011D02*
X21164419Y35634011D01*
X19602514Y28585535D02*
X19564418Y28547440D01*
X19564418Y28547440D02*
X19450133Y28509344D01*
X19450133Y28509344D02*
X19373942Y28509344D01*
X19373942Y28509344D02*
X19259656Y28547440D01*
X19259656Y28547440D02*
X19183466Y28623630D01*
X19183466Y28623630D02*
X19145371Y28699820D01*
X19145371Y28699820D02*
X19107275Y28852201D01*
X19107275Y28852201D02*
X19107275Y28966487D01*
X19107275Y28966487D02*
X19145371Y29118868D01*
X19145371Y29118868D02*
X19183466Y29195059D01*
X19183466Y29195059D02*
X19259656Y29271249D01*
X19259656Y29271249D02*
X19373942Y29309344D01*
X19373942Y29309344D02*
X19450133Y29309344D01*
X19450133Y29309344D02*
X19564418Y29271249D01*
X19564418Y29271249D02*
X19602514Y29233154D01*
X19869180Y29309344D02*
X20364418Y29309344D01*
X20364418Y29309344D02*
X20097752Y29004582D01*
X20097752Y29004582D02*
X20212037Y29004582D01*
X20212037Y29004582D02*
X20288228Y28966487D01*
X20288228Y28966487D02*
X20326323Y28928392D01*
X20326323Y28928392D02*
X20364418Y28852201D01*
X20364418Y28852201D02*
X20364418Y28661725D01*
X20364418Y28661725D02*
X20326323Y28585535D01*
X20326323Y28585535D02*
X20288228Y28547440D01*
X20288228Y28547440D02*
X20212037Y28509344D01*
X20212037Y28509344D02*
X19983466Y28509344D01*
X19983466Y28509344D02*
X19907275Y28547440D01*
X19907275Y28547440D02*
X19869180Y28585535D01*
X20631085Y29309344D02*
X21164419Y29309344D01*
X21164419Y29309344D02*
X20821561Y28509344D01*
X19602514Y26680535D02*
X19564418Y26642440D01*
X19564418Y26642440D02*
X19450133Y26604344D01*
X19450133Y26604344D02*
X19373942Y26604344D01*
X19373942Y26604344D02*
X19259656Y26642440D01*
X19259656Y26642440D02*
X19183466Y26718630D01*
X19183466Y26718630D02*
X19145371Y26794820D01*
X19145371Y26794820D02*
X19107275Y26947201D01*
X19107275Y26947201D02*
X19107275Y27061487D01*
X19107275Y27061487D02*
X19145371Y27213868D01*
X19145371Y27213868D02*
X19183466Y27290059D01*
X19183466Y27290059D02*
X19259656Y27366249D01*
X19259656Y27366249D02*
X19373942Y27404344D01*
X19373942Y27404344D02*
X19450133Y27404344D01*
X19450133Y27404344D02*
X19564418Y27366249D01*
X19564418Y27366249D02*
X19602514Y27328154D01*
X19869180Y27404344D02*
X20364418Y27404344D01*
X20364418Y27404344D02*
X20097752Y27099582D01*
X20097752Y27099582D02*
X20212037Y27099582D01*
X20212037Y27099582D02*
X20288228Y27061487D01*
X20288228Y27061487D02*
X20326323Y27023392D01*
X20326323Y27023392D02*
X20364418Y26947201D01*
X20364418Y26947201D02*
X20364418Y26756725D01*
X20364418Y26756725D02*
X20326323Y26680535D01*
X20326323Y26680535D02*
X20288228Y26642440D01*
X20288228Y26642440D02*
X20212037Y26604344D01*
X20212037Y26604344D02*
X19983466Y26604344D01*
X19983466Y26604344D02*
X19907275Y26642440D01*
X19907275Y26642440D02*
X19869180Y26680535D01*
X20821561Y27061487D02*
X20745371Y27099582D01*
X20745371Y27099582D02*
X20707276Y27137678D01*
X20707276Y27137678D02*
X20669180Y27213868D01*
X20669180Y27213868D02*
X20669180Y27251963D01*
X20669180Y27251963D02*
X20707276Y27328154D01*
X20707276Y27328154D02*
X20745371Y27366249D01*
X20745371Y27366249D02*
X20821561Y27404344D01*
X20821561Y27404344D02*
X20973942Y27404344D01*
X20973942Y27404344D02*
X21050133Y27366249D01*
X21050133Y27366249D02*
X21088228Y27328154D01*
X21088228Y27328154D02*
X21126323Y27251963D01*
X21126323Y27251963D02*
X21126323Y27213868D01*
X21126323Y27213868D02*
X21088228Y27137678D01*
X21088228Y27137678D02*
X21050133Y27099582D01*
X21050133Y27099582D02*
X20973942Y27061487D01*
X20973942Y27061487D02*
X20821561Y27061487D01*
X20821561Y27061487D02*
X20745371Y27023392D01*
X20745371Y27023392D02*
X20707276Y26985297D01*
X20707276Y26985297D02*
X20669180Y26909106D01*
X20669180Y26909106D02*
X20669180Y26756725D01*
X20669180Y26756725D02*
X20707276Y26680535D01*
X20707276Y26680535D02*
X20745371Y26642440D01*
X20745371Y26642440D02*
X20821561Y26604344D01*
X20821561Y26604344D02*
X20973942Y26604344D01*
X20973942Y26604344D02*
X21050133Y26642440D01*
X21050133Y26642440D02*
X21088228Y26680535D01*
X21088228Y26680535D02*
X21126323Y26756725D01*
X21126323Y26756725D02*
X21126323Y26909106D01*
X21126323Y26909106D02*
X21088228Y26985297D01*
X21088228Y26985297D02*
X21050133Y27023392D01*
X21050133Y27023392D02*
X20973942Y27061487D01*
X29838714Y24864935D02*
X29800618Y24826840D01*
X29800618Y24826840D02*
X29686333Y24788744D01*
X29686333Y24788744D02*
X29610142Y24788744D01*
X29610142Y24788744D02*
X29495856Y24826840D01*
X29495856Y24826840D02*
X29419666Y24903030D01*
X29419666Y24903030D02*
X29381571Y24979220D01*
X29381571Y24979220D02*
X29343475Y25131601D01*
X29343475Y25131601D02*
X29343475Y25245887D01*
X29343475Y25245887D02*
X29381571Y25398268D01*
X29381571Y25398268D02*
X29419666Y25474459D01*
X29419666Y25474459D02*
X29495856Y25550649D01*
X29495856Y25550649D02*
X29610142Y25588744D01*
X29610142Y25588744D02*
X29686333Y25588744D01*
X29686333Y25588744D02*
X29800618Y25550649D01*
X29800618Y25550649D02*
X29838714Y25512554D01*
X30105380Y25588744D02*
X30600618Y25588744D01*
X30600618Y25588744D02*
X30333952Y25283982D01*
X30333952Y25283982D02*
X30448237Y25283982D01*
X30448237Y25283982D02*
X30524428Y25245887D01*
X30524428Y25245887D02*
X30562523Y25207792D01*
X30562523Y25207792D02*
X30600618Y25131601D01*
X30600618Y25131601D02*
X30600618Y24941125D01*
X30600618Y24941125D02*
X30562523Y24864935D01*
X30562523Y24864935D02*
X30524428Y24826840D01*
X30524428Y24826840D02*
X30448237Y24788744D01*
X30448237Y24788744D02*
X30219666Y24788744D01*
X30219666Y24788744D02*
X30143475Y24826840D01*
X30143475Y24826840D02*
X30105380Y24864935D01*
X30981571Y24788744D02*
X31133952Y24788744D01*
X31133952Y24788744D02*
X31210142Y24826840D01*
X31210142Y24826840D02*
X31248238Y24864935D01*
X31248238Y24864935D02*
X31324428Y24979220D01*
X31324428Y24979220D02*
X31362523Y25131601D01*
X31362523Y25131601D02*
X31362523Y25436363D01*
X31362523Y25436363D02*
X31324428Y25512554D01*
X31324428Y25512554D02*
X31286333Y25550649D01*
X31286333Y25550649D02*
X31210142Y25588744D01*
X31210142Y25588744D02*
X31057761Y25588744D01*
X31057761Y25588744D02*
X30981571Y25550649D01*
X30981571Y25550649D02*
X30943476Y25512554D01*
X30943476Y25512554D02*
X30905380Y25436363D01*
X30905380Y25436363D02*
X30905380Y25245887D01*
X30905380Y25245887D02*
X30943476Y25169697D01*
X30943476Y25169697D02*
X30981571Y25131601D01*
X30981571Y25131601D02*
X31057761Y25093506D01*
X31057761Y25093506D02*
X31210142Y25093506D01*
X31210142Y25093506D02*
X31286333Y25131601D01*
X31286333Y25131601D02*
X31324428Y25169697D01*
X31324428Y25169697D02*
X31362523Y25245887D01*
X19602260Y37297735D02*
X19564164Y37259640D01*
X19564164Y37259640D02*
X19449879Y37221544D01*
X19449879Y37221544D02*
X19373688Y37221544D01*
X19373688Y37221544D02*
X19259402Y37259640D01*
X19259402Y37259640D02*
X19183212Y37335830D01*
X19183212Y37335830D02*
X19145117Y37412020D01*
X19145117Y37412020D02*
X19107021Y37564401D01*
X19107021Y37564401D02*
X19107021Y37678687D01*
X19107021Y37678687D02*
X19145117Y37831068D01*
X19145117Y37831068D02*
X19183212Y37907259D01*
X19183212Y37907259D02*
X19259402Y37983449D01*
X19259402Y37983449D02*
X19373688Y38021544D01*
X19373688Y38021544D02*
X19449879Y38021544D01*
X19449879Y38021544D02*
X19564164Y37983449D01*
X19564164Y37983449D02*
X19602260Y37945354D01*
X20287974Y37754878D02*
X20287974Y37221544D01*
X20097498Y38059640D02*
X19907021Y37488211D01*
X19907021Y37488211D02*
X20402260Y37488211D01*
X20859403Y38021544D02*
X20935593Y38021544D01*
X20935593Y38021544D02*
X21011784Y37983449D01*
X21011784Y37983449D02*
X21049879Y37945354D01*
X21049879Y37945354D02*
X21087974Y37869163D01*
X21087974Y37869163D02*
X21126069Y37716782D01*
X21126069Y37716782D02*
X21126069Y37526306D01*
X21126069Y37526306D02*
X21087974Y37373925D01*
X21087974Y37373925D02*
X21049879Y37297735D01*
X21049879Y37297735D02*
X21011784Y37259640D01*
X21011784Y37259640D02*
X20935593Y37221544D01*
X20935593Y37221544D02*
X20859403Y37221544D01*
X20859403Y37221544D02*
X20783212Y37259640D01*
X20783212Y37259640D02*
X20745117Y37297735D01*
X20745117Y37297735D02*
X20707022Y37373925D01*
X20707022Y37373925D02*
X20668926Y37526306D01*
X20668926Y37526306D02*
X20668926Y37716782D01*
X20668926Y37716782D02*
X20707022Y37869163D01*
X20707022Y37869163D02*
X20745117Y37945354D01*
X20745117Y37945354D02*
X20783212Y37983449D01*
X20783212Y37983449D02*
X20859403Y38021544D01*
X26612914Y29513135D02*
X26574818Y29475040D01*
X26574818Y29475040D02*
X26460533Y29436944D01*
X26460533Y29436944D02*
X26384342Y29436944D01*
X26384342Y29436944D02*
X26270056Y29475040D01*
X26270056Y29475040D02*
X26193866Y29551230D01*
X26193866Y29551230D02*
X26155771Y29627420D01*
X26155771Y29627420D02*
X26117675Y29779801D01*
X26117675Y29779801D02*
X26117675Y29894087D01*
X26117675Y29894087D02*
X26155771Y30046468D01*
X26155771Y30046468D02*
X26193866Y30122659D01*
X26193866Y30122659D02*
X26270056Y30198849D01*
X26270056Y30198849D02*
X26384342Y30236944D01*
X26384342Y30236944D02*
X26460533Y30236944D01*
X26460533Y30236944D02*
X26574818Y30198849D01*
X26574818Y30198849D02*
X26612914Y30160754D01*
X27298628Y29970278D02*
X27298628Y29436944D01*
X27108152Y30275040D02*
X26917675Y29703611D01*
X26917675Y29703611D02*
X27412914Y29703611D01*
X28136723Y29436944D02*
X27679580Y29436944D01*
X27908152Y29436944D02*
X27908152Y30236944D01*
X27908152Y30236944D02*
X27831961Y30122659D01*
X27831961Y30122659D02*
X27755771Y30046468D01*
X27755771Y30046468D02*
X27679580Y30008373D01*
X19602260Y27620335D02*
X19564164Y27582240D01*
X19564164Y27582240D02*
X19449879Y27544144D01*
X19449879Y27544144D02*
X19373688Y27544144D01*
X19373688Y27544144D02*
X19259402Y27582240D01*
X19259402Y27582240D02*
X19183212Y27658430D01*
X19183212Y27658430D02*
X19145117Y27734620D01*
X19145117Y27734620D02*
X19107021Y27887001D01*
X19107021Y27887001D02*
X19107021Y28001287D01*
X19107021Y28001287D02*
X19145117Y28153668D01*
X19145117Y28153668D02*
X19183212Y28229859D01*
X19183212Y28229859D02*
X19259402Y28306049D01*
X19259402Y28306049D02*
X19373688Y28344144D01*
X19373688Y28344144D02*
X19449879Y28344144D01*
X19449879Y28344144D02*
X19564164Y28306049D01*
X19564164Y28306049D02*
X19602260Y28267954D01*
X20287974Y28344144D02*
X20135593Y28344144D01*
X20135593Y28344144D02*
X20059402Y28306049D01*
X20059402Y28306049D02*
X20021307Y28267954D01*
X20021307Y28267954D02*
X19945117Y28153668D01*
X19945117Y28153668D02*
X19907021Y28001287D01*
X19907021Y28001287D02*
X19907021Y27696525D01*
X19907021Y27696525D02*
X19945117Y27620335D01*
X19945117Y27620335D02*
X19983212Y27582240D01*
X19983212Y27582240D02*
X20059402Y27544144D01*
X20059402Y27544144D02*
X20211783Y27544144D01*
X20211783Y27544144D02*
X20287974Y27582240D01*
X20287974Y27582240D02*
X20326069Y27620335D01*
X20326069Y27620335D02*
X20364164Y27696525D01*
X20364164Y27696525D02*
X20364164Y27887001D01*
X20364164Y27887001D02*
X20326069Y27963192D01*
X20326069Y27963192D02*
X20287974Y28001287D01*
X20287974Y28001287D02*
X20211783Y28039382D01*
X20211783Y28039382D02*
X20059402Y28039382D01*
X20059402Y28039382D02*
X19983212Y28001287D01*
X19983212Y28001287D02*
X19945117Y27963192D01*
X19945117Y27963192D02*
X19907021Y27887001D01*
X21126069Y27544144D02*
X20668926Y27544144D01*
X20897498Y27544144D02*
X20897498Y28344144D01*
X20897498Y28344144D02*
X20821307Y28229859D01*
X20821307Y28229859D02*
X20745117Y28153668D01*
X20745117Y28153668D02*
X20668926Y28115573D01*
X26612914Y31709735D02*
X26574818Y31671640D01*
X26574818Y31671640D02*
X26460533Y31633544D01*
X26460533Y31633544D02*
X26384342Y31633544D01*
X26384342Y31633544D02*
X26270056Y31671640D01*
X26270056Y31671640D02*
X26193866Y31747830D01*
X26193866Y31747830D02*
X26155771Y31824020D01*
X26155771Y31824020D02*
X26117675Y31976401D01*
X26117675Y31976401D02*
X26117675Y32090687D01*
X26117675Y32090687D02*
X26155771Y32243068D01*
X26155771Y32243068D02*
X26193866Y32319259D01*
X26193866Y32319259D02*
X26270056Y32395449D01*
X26270056Y32395449D02*
X26384342Y32433544D01*
X26384342Y32433544D02*
X26460533Y32433544D01*
X26460533Y32433544D02*
X26574818Y32395449D01*
X26574818Y32395449D02*
X26612914Y32357354D01*
X27298628Y32433544D02*
X27146247Y32433544D01*
X27146247Y32433544D02*
X27070056Y32395449D01*
X27070056Y32395449D02*
X27031961Y32357354D01*
X27031961Y32357354D02*
X26955771Y32243068D01*
X26955771Y32243068D02*
X26917675Y32090687D01*
X26917675Y32090687D02*
X26917675Y31785925D01*
X26917675Y31785925D02*
X26955771Y31709735D01*
X26955771Y31709735D02*
X26993866Y31671640D01*
X26993866Y31671640D02*
X27070056Y31633544D01*
X27070056Y31633544D02*
X27222437Y31633544D01*
X27222437Y31633544D02*
X27298628Y31671640D01*
X27298628Y31671640D02*
X27336723Y31709735D01*
X27336723Y31709735D02*
X27374818Y31785925D01*
X27374818Y31785925D02*
X27374818Y31976401D01*
X27374818Y31976401D02*
X27336723Y32052592D01*
X27336723Y32052592D02*
X27298628Y32090687D01*
X27298628Y32090687D02*
X27222437Y32128782D01*
X27222437Y32128782D02*
X27070056Y32128782D01*
X27070056Y32128782D02*
X26993866Y32090687D01*
X26993866Y32090687D02*
X26955771Y32052592D01*
X26955771Y32052592D02*
X26917675Y31976401D01*
X27679580Y32357354D02*
X27717676Y32395449D01*
X27717676Y32395449D02*
X27793866Y32433544D01*
X27793866Y32433544D02*
X27984342Y32433544D01*
X27984342Y32433544D02*
X28060533Y32395449D01*
X28060533Y32395449D02*
X28098628Y32357354D01*
X28098628Y32357354D02*
X28136723Y32281163D01*
X28136723Y32281163D02*
X28136723Y32204973D01*
X28136723Y32204973D02*
X28098628Y32090687D01*
X28098628Y32090687D02*
X27641485Y31633544D01*
X27641485Y31633544D02*
X28136723Y31633544D01*
X26612914Y32598735D02*
X26574818Y32560640D01*
X26574818Y32560640D02*
X26460533Y32522544D01*
X26460533Y32522544D02*
X26384342Y32522544D01*
X26384342Y32522544D02*
X26270056Y32560640D01*
X26270056Y32560640D02*
X26193866Y32636830D01*
X26193866Y32636830D02*
X26155771Y32713020D01*
X26155771Y32713020D02*
X26117675Y32865401D01*
X26117675Y32865401D02*
X26117675Y32979687D01*
X26117675Y32979687D02*
X26155771Y33132068D01*
X26155771Y33132068D02*
X26193866Y33208259D01*
X26193866Y33208259D02*
X26270056Y33284449D01*
X26270056Y33284449D02*
X26384342Y33322544D01*
X26384342Y33322544D02*
X26460533Y33322544D01*
X26460533Y33322544D02*
X26574818Y33284449D01*
X26574818Y33284449D02*
X26612914Y33246354D01*
X27298628Y33322544D02*
X27146247Y33322544D01*
X27146247Y33322544D02*
X27070056Y33284449D01*
X27070056Y33284449D02*
X27031961Y33246354D01*
X27031961Y33246354D02*
X26955771Y33132068D01*
X26955771Y33132068D02*
X26917675Y32979687D01*
X26917675Y32979687D02*
X26917675Y32674925D01*
X26917675Y32674925D02*
X26955771Y32598735D01*
X26955771Y32598735D02*
X26993866Y32560640D01*
X26993866Y32560640D02*
X27070056Y32522544D01*
X27070056Y32522544D02*
X27222437Y32522544D01*
X27222437Y32522544D02*
X27298628Y32560640D01*
X27298628Y32560640D02*
X27336723Y32598735D01*
X27336723Y32598735D02*
X27374818Y32674925D01*
X27374818Y32674925D02*
X27374818Y32865401D01*
X27374818Y32865401D02*
X27336723Y32941592D01*
X27336723Y32941592D02*
X27298628Y32979687D01*
X27298628Y32979687D02*
X27222437Y33017782D01*
X27222437Y33017782D02*
X27070056Y33017782D01*
X27070056Y33017782D02*
X26993866Y32979687D01*
X26993866Y32979687D02*
X26955771Y32941592D01*
X26955771Y32941592D02*
X26917675Y32865401D01*
X27641485Y33322544D02*
X28136723Y33322544D01*
X28136723Y33322544D02*
X27870057Y33017782D01*
X27870057Y33017782D02*
X27984342Y33017782D01*
X27984342Y33017782D02*
X28060533Y32979687D01*
X28060533Y32979687D02*
X28098628Y32941592D01*
X28098628Y32941592D02*
X28136723Y32865401D01*
X28136723Y32865401D02*
X28136723Y32674925D01*
X28136723Y32674925D02*
X28098628Y32598735D01*
X28098628Y32598735D02*
X28060533Y32560640D01*
X28060533Y32560640D02*
X27984342Y32522544D01*
X27984342Y32522544D02*
X27755771Y32522544D01*
X27755771Y32522544D02*
X27679580Y32560640D01*
X27679580Y32560640D02*
X27641485Y32598735D01*
X19602514Y36383335D02*
X19564418Y36345240D01*
X19564418Y36345240D02*
X19450133Y36307144D01*
X19450133Y36307144D02*
X19373942Y36307144D01*
X19373942Y36307144D02*
X19259656Y36345240D01*
X19259656Y36345240D02*
X19183466Y36421430D01*
X19183466Y36421430D02*
X19145371Y36497620D01*
X19145371Y36497620D02*
X19107275Y36650001D01*
X19107275Y36650001D02*
X19107275Y36764287D01*
X19107275Y36764287D02*
X19145371Y36916668D01*
X19145371Y36916668D02*
X19183466Y36992859D01*
X19183466Y36992859D02*
X19259656Y37069049D01*
X19259656Y37069049D02*
X19373942Y37107144D01*
X19373942Y37107144D02*
X19450133Y37107144D01*
X19450133Y37107144D02*
X19564418Y37069049D01*
X19564418Y37069049D02*
X19602514Y37030954D01*
X20288228Y37107144D02*
X20135847Y37107144D01*
X20135847Y37107144D02*
X20059656Y37069049D01*
X20059656Y37069049D02*
X20021561Y37030954D01*
X20021561Y37030954D02*
X19945371Y36916668D01*
X19945371Y36916668D02*
X19907275Y36764287D01*
X19907275Y36764287D02*
X19907275Y36459525D01*
X19907275Y36459525D02*
X19945371Y36383335D01*
X19945371Y36383335D02*
X19983466Y36345240D01*
X19983466Y36345240D02*
X20059656Y36307144D01*
X20059656Y36307144D02*
X20212037Y36307144D01*
X20212037Y36307144D02*
X20288228Y36345240D01*
X20288228Y36345240D02*
X20326323Y36383335D01*
X20326323Y36383335D02*
X20364418Y36459525D01*
X20364418Y36459525D02*
X20364418Y36650001D01*
X20364418Y36650001D02*
X20326323Y36726192D01*
X20326323Y36726192D02*
X20288228Y36764287D01*
X20288228Y36764287D02*
X20212037Y36802382D01*
X20212037Y36802382D02*
X20059656Y36802382D01*
X20059656Y36802382D02*
X19983466Y36764287D01*
X19983466Y36764287D02*
X19945371Y36726192D01*
X19945371Y36726192D02*
X19907275Y36650001D01*
X21050133Y36840478D02*
X21050133Y36307144D01*
X20859657Y37145240D02*
X20669180Y36573811D01*
X20669180Y36573811D02*
X21164419Y36573811D01*
X30880114Y31646735D02*
X30842018Y31608640D01*
X30842018Y31608640D02*
X30727733Y31570544D01*
X30727733Y31570544D02*
X30651542Y31570544D01*
X30651542Y31570544D02*
X30537256Y31608640D01*
X30537256Y31608640D02*
X30461066Y31684830D01*
X30461066Y31684830D02*
X30422971Y31761020D01*
X30422971Y31761020D02*
X30384875Y31913401D01*
X30384875Y31913401D02*
X30384875Y32027687D01*
X30384875Y32027687D02*
X30422971Y32180068D01*
X30422971Y32180068D02*
X30461066Y32256259D01*
X30461066Y32256259D02*
X30537256Y32332449D01*
X30537256Y32332449D02*
X30651542Y32370544D01*
X30651542Y32370544D02*
X30727733Y32370544D01*
X30727733Y32370544D02*
X30842018Y32332449D01*
X30842018Y32332449D02*
X30880114Y32294354D01*
X31565828Y32370544D02*
X31413447Y32370544D01*
X31413447Y32370544D02*
X31337256Y32332449D01*
X31337256Y32332449D02*
X31299161Y32294354D01*
X31299161Y32294354D02*
X31222971Y32180068D01*
X31222971Y32180068D02*
X31184875Y32027687D01*
X31184875Y32027687D02*
X31184875Y31722925D01*
X31184875Y31722925D02*
X31222971Y31646735D01*
X31222971Y31646735D02*
X31261066Y31608640D01*
X31261066Y31608640D02*
X31337256Y31570544D01*
X31337256Y31570544D02*
X31489637Y31570544D01*
X31489637Y31570544D02*
X31565828Y31608640D01*
X31565828Y31608640D02*
X31603923Y31646735D01*
X31603923Y31646735D02*
X31642018Y31722925D01*
X31642018Y31722925D02*
X31642018Y31913401D01*
X31642018Y31913401D02*
X31603923Y31989592D01*
X31603923Y31989592D02*
X31565828Y32027687D01*
X31565828Y32027687D02*
X31489637Y32065782D01*
X31489637Y32065782D02*
X31337256Y32065782D01*
X31337256Y32065782D02*
X31261066Y32027687D01*
X31261066Y32027687D02*
X31222971Y31989592D01*
X31222971Y31989592D02*
X31184875Y31913401D01*
X32365828Y32370544D02*
X31984876Y32370544D01*
X31984876Y32370544D02*
X31946780Y31989592D01*
X31946780Y31989592D02*
X31984876Y32027687D01*
X31984876Y32027687D02*
X32061066Y32065782D01*
X32061066Y32065782D02*
X32251542Y32065782D01*
X32251542Y32065782D02*
X32327733Y32027687D01*
X32327733Y32027687D02*
X32365828Y31989592D01*
X32365828Y31989592D02*
X32403923Y31913401D01*
X32403923Y31913401D02*
X32403923Y31722925D01*
X32403923Y31722925D02*
X32365828Y31646735D01*
X32365828Y31646735D02*
X32327733Y31608640D01*
X32327733Y31608640D02*
X32251542Y31570544D01*
X32251542Y31570544D02*
X32061066Y31570544D01*
X32061066Y31570544D02*
X31984876Y31608640D01*
X31984876Y31608640D02*
X31946780Y31646735D01*
X41538367Y27050921D02*
X41538367Y26997046D01*
X41538367Y26997046D02*
X41484492Y26889296D01*
X41484492Y26889296D02*
X41430618Y26835422D01*
X41430618Y26835422D02*
X41322868Y26781547D01*
X41322868Y26781547D02*
X41215118Y26781547D01*
X41215118Y26781547D02*
X41134306Y26808484D01*
X41134306Y26808484D02*
X40999619Y26889296D01*
X40999619Y26889296D02*
X40918807Y26970109D01*
X40918807Y26970109D02*
X40837995Y27104796D01*
X40837995Y27104796D02*
X40811057Y27185608D01*
X40811057Y27185608D02*
X40811057Y27293357D01*
X40811057Y27293357D02*
X40864932Y27401107D01*
X40864932Y27401107D02*
X40918807Y27454982D01*
X40918807Y27454982D02*
X41026556Y27508857D01*
X41026556Y27508857D02*
X41080431Y27508857D01*
X41861616Y27266420D02*
X41969366Y27374170D01*
X41969366Y27374170D02*
X41996303Y27454982D01*
X41996303Y27454982D02*
X41996303Y27508857D01*
X41996303Y27508857D02*
X41969366Y27643544D01*
X41969366Y27643544D02*
X41888553Y27778231D01*
X41888553Y27778231D02*
X41673054Y27993730D01*
X41673054Y27993730D02*
X41592242Y28020667D01*
X41592242Y28020667D02*
X41538367Y28020667D01*
X41538367Y28020667D02*
X41457555Y27993730D01*
X41457555Y27993730D02*
X41349805Y27885980D01*
X41349805Y27885980D02*
X41322868Y27805168D01*
X41322868Y27805168D02*
X41322868Y27751293D01*
X41322868Y27751293D02*
X41349805Y27670481D01*
X41349805Y27670481D02*
X41484492Y27535794D01*
X41484492Y27535794D02*
X41565305Y27508857D01*
X41565305Y27508857D02*
X41619179Y27508857D01*
X41619179Y27508857D02*
X41699992Y27535794D01*
X41699992Y27535794D02*
X41807741Y27643544D01*
X41807741Y27643544D02*
X41834679Y27724356D01*
X41834679Y27724356D02*
X41834679Y27778231D01*
X41834679Y27778231D02*
X41807741Y27859043D01*
X41753866Y28290041D02*
X42130990Y28667165D01*
X42130990Y28667165D02*
X42454239Y27859043D01*
X42081514Y32039935D02*
X42043418Y32001840D01*
X42043418Y32001840D02*
X41929133Y31963744D01*
X41929133Y31963744D02*
X41852942Y31963744D01*
X41852942Y31963744D02*
X41738656Y32001840D01*
X41738656Y32001840D02*
X41662466Y32078030D01*
X41662466Y32078030D02*
X41624371Y32154220D01*
X41624371Y32154220D02*
X41586275Y32306601D01*
X41586275Y32306601D02*
X41586275Y32420887D01*
X41586275Y32420887D02*
X41624371Y32573268D01*
X41624371Y32573268D02*
X41662466Y32649459D01*
X41662466Y32649459D02*
X41738656Y32725649D01*
X41738656Y32725649D02*
X41852942Y32763744D01*
X41852942Y32763744D02*
X41929133Y32763744D01*
X41929133Y32763744D02*
X42043418Y32725649D01*
X42043418Y32725649D02*
X42081514Y32687554D01*
X42462466Y31963744D02*
X42614847Y31963744D01*
X42614847Y31963744D02*
X42691037Y32001840D01*
X42691037Y32001840D02*
X42729133Y32039935D01*
X42729133Y32039935D02*
X42805323Y32154220D01*
X42805323Y32154220D02*
X42843418Y32306601D01*
X42843418Y32306601D02*
X42843418Y32611363D01*
X42843418Y32611363D02*
X42805323Y32687554D01*
X42805323Y32687554D02*
X42767228Y32725649D01*
X42767228Y32725649D02*
X42691037Y32763744D01*
X42691037Y32763744D02*
X42538656Y32763744D01*
X42538656Y32763744D02*
X42462466Y32725649D01*
X42462466Y32725649D02*
X42424371Y32687554D01*
X42424371Y32687554D02*
X42386275Y32611363D01*
X42386275Y32611363D02*
X42386275Y32420887D01*
X42386275Y32420887D02*
X42424371Y32344697D01*
X42424371Y32344697D02*
X42462466Y32306601D01*
X42462466Y32306601D02*
X42538656Y32268506D01*
X42538656Y32268506D02*
X42691037Y32268506D01*
X42691037Y32268506D02*
X42767228Y32306601D01*
X42767228Y32306601D02*
X42805323Y32344697D01*
X42805323Y32344697D02*
X42843418Y32420887D01*
X43300561Y32420887D02*
X43224371Y32458982D01*
X43224371Y32458982D02*
X43186276Y32497078D01*
X43186276Y32497078D02*
X43148180Y32573268D01*
X43148180Y32573268D02*
X43148180Y32611363D01*
X43148180Y32611363D02*
X43186276Y32687554D01*
X43186276Y32687554D02*
X43224371Y32725649D01*
X43224371Y32725649D02*
X43300561Y32763744D01*
X43300561Y32763744D02*
X43452942Y32763744D01*
X43452942Y32763744D02*
X43529133Y32725649D01*
X43529133Y32725649D02*
X43567228Y32687554D01*
X43567228Y32687554D02*
X43605323Y32611363D01*
X43605323Y32611363D02*
X43605323Y32573268D01*
X43605323Y32573268D02*
X43567228Y32497078D01*
X43567228Y32497078D02*
X43529133Y32458982D01*
X43529133Y32458982D02*
X43452942Y32420887D01*
X43452942Y32420887D02*
X43300561Y32420887D01*
X43300561Y32420887D02*
X43224371Y32382792D01*
X43224371Y32382792D02*
X43186276Y32344697D01*
X43186276Y32344697D02*
X43148180Y32268506D01*
X43148180Y32268506D02*
X43148180Y32116125D01*
X43148180Y32116125D02*
X43186276Y32039935D01*
X43186276Y32039935D02*
X43224371Y32001840D01*
X43224371Y32001840D02*
X43300561Y31963744D01*
X43300561Y31963744D02*
X43452942Y31963744D01*
X43452942Y31963744D02*
X43529133Y32001840D01*
X43529133Y32001840D02*
X43567228Y32039935D01*
X43567228Y32039935D02*
X43605323Y32116125D01*
X43605323Y32116125D02*
X43605323Y32268506D01*
X43605323Y32268506D02*
X43567228Y32344697D01*
X43567228Y32344697D02*
X43529133Y32382792D01*
X43529133Y32382792D02*
X43452942Y32420887D01*
X37204714Y23442535D02*
X37166618Y23404440D01*
X37166618Y23404440D02*
X37052333Y23366344D01*
X37052333Y23366344D02*
X36976142Y23366344D01*
X36976142Y23366344D02*
X36861856Y23404440D01*
X36861856Y23404440D02*
X36785666Y23480630D01*
X36785666Y23480630D02*
X36747571Y23556820D01*
X36747571Y23556820D02*
X36709475Y23709201D01*
X36709475Y23709201D02*
X36709475Y23823487D01*
X36709475Y23823487D02*
X36747571Y23975868D01*
X36747571Y23975868D02*
X36785666Y24052059D01*
X36785666Y24052059D02*
X36861856Y24128249D01*
X36861856Y24128249D02*
X36976142Y24166344D01*
X36976142Y24166344D02*
X37052333Y24166344D01*
X37052333Y24166344D02*
X37166618Y24128249D01*
X37166618Y24128249D02*
X37204714Y24090154D01*
X37585666Y23366344D02*
X37738047Y23366344D01*
X37738047Y23366344D02*
X37814237Y23404440D01*
X37814237Y23404440D02*
X37852333Y23442535D01*
X37852333Y23442535D02*
X37928523Y23556820D01*
X37928523Y23556820D02*
X37966618Y23709201D01*
X37966618Y23709201D02*
X37966618Y24013963D01*
X37966618Y24013963D02*
X37928523Y24090154D01*
X37928523Y24090154D02*
X37890428Y24128249D01*
X37890428Y24128249D02*
X37814237Y24166344D01*
X37814237Y24166344D02*
X37661856Y24166344D01*
X37661856Y24166344D02*
X37585666Y24128249D01*
X37585666Y24128249D02*
X37547571Y24090154D01*
X37547571Y24090154D02*
X37509475Y24013963D01*
X37509475Y24013963D02*
X37509475Y23823487D01*
X37509475Y23823487D02*
X37547571Y23747297D01*
X37547571Y23747297D02*
X37585666Y23709201D01*
X37585666Y23709201D02*
X37661856Y23671106D01*
X37661856Y23671106D02*
X37814237Y23671106D01*
X37814237Y23671106D02*
X37890428Y23709201D01*
X37890428Y23709201D02*
X37928523Y23747297D01*
X37928523Y23747297D02*
X37966618Y23823487D01*
X38271380Y24090154D02*
X38309476Y24128249D01*
X38309476Y24128249D02*
X38385666Y24166344D01*
X38385666Y24166344D02*
X38576142Y24166344D01*
X38576142Y24166344D02*
X38652333Y24128249D01*
X38652333Y24128249D02*
X38690428Y24090154D01*
X38690428Y24090154D02*
X38728523Y24013963D01*
X38728523Y24013963D02*
X38728523Y23937773D01*
X38728523Y23937773D02*
X38690428Y23823487D01*
X38690428Y23823487D02*
X38233285Y23366344D01*
X38233285Y23366344D02*
X38728523Y23366344D01*
X37204714Y24458535D02*
X37166618Y24420440D01*
X37166618Y24420440D02*
X37052333Y24382344D01*
X37052333Y24382344D02*
X36976142Y24382344D01*
X36976142Y24382344D02*
X36861856Y24420440D01*
X36861856Y24420440D02*
X36785666Y24496630D01*
X36785666Y24496630D02*
X36747571Y24572820D01*
X36747571Y24572820D02*
X36709475Y24725201D01*
X36709475Y24725201D02*
X36709475Y24839487D01*
X36709475Y24839487D02*
X36747571Y24991868D01*
X36747571Y24991868D02*
X36785666Y25068059D01*
X36785666Y25068059D02*
X36861856Y25144249D01*
X36861856Y25144249D02*
X36976142Y25182344D01*
X36976142Y25182344D02*
X37052333Y25182344D01*
X37052333Y25182344D02*
X37166618Y25144249D01*
X37166618Y25144249D02*
X37204714Y25106154D01*
X37585666Y24382344D02*
X37738047Y24382344D01*
X37738047Y24382344D02*
X37814237Y24420440D01*
X37814237Y24420440D02*
X37852333Y24458535D01*
X37852333Y24458535D02*
X37928523Y24572820D01*
X37928523Y24572820D02*
X37966618Y24725201D01*
X37966618Y24725201D02*
X37966618Y25029963D01*
X37966618Y25029963D02*
X37928523Y25106154D01*
X37928523Y25106154D02*
X37890428Y25144249D01*
X37890428Y25144249D02*
X37814237Y25182344D01*
X37814237Y25182344D02*
X37661856Y25182344D01*
X37661856Y25182344D02*
X37585666Y25144249D01*
X37585666Y25144249D02*
X37547571Y25106154D01*
X37547571Y25106154D02*
X37509475Y25029963D01*
X37509475Y25029963D02*
X37509475Y24839487D01*
X37509475Y24839487D02*
X37547571Y24763297D01*
X37547571Y24763297D02*
X37585666Y24725201D01*
X37585666Y24725201D02*
X37661856Y24687106D01*
X37661856Y24687106D02*
X37814237Y24687106D01*
X37814237Y24687106D02*
X37890428Y24725201D01*
X37890428Y24725201D02*
X37928523Y24763297D01*
X37928523Y24763297D02*
X37966618Y24839487D01*
X38233285Y25182344D02*
X38728523Y25182344D01*
X38728523Y25182344D02*
X38461857Y24877582D01*
X38461857Y24877582D02*
X38576142Y24877582D01*
X38576142Y24877582D02*
X38652333Y24839487D01*
X38652333Y24839487D02*
X38690428Y24801392D01*
X38690428Y24801392D02*
X38728523Y24725201D01*
X38728523Y24725201D02*
X38728523Y24534725D01*
X38728523Y24534725D02*
X38690428Y24458535D01*
X38690428Y24458535D02*
X38652333Y24420440D01*
X38652333Y24420440D02*
X38576142Y24382344D01*
X38576142Y24382344D02*
X38347571Y24382344D01*
X38347571Y24382344D02*
X38271380Y24420440D01*
X38271380Y24420440D02*
X38233285Y24458535D01*
X39435664Y25241314D02*
X39473760Y25203218D01*
X39473760Y25203218D02*
X39511855Y25088933D01*
X39511855Y25088933D02*
X39511855Y25012742D01*
X39511855Y25012742D02*
X39473760Y24898456D01*
X39473760Y24898456D02*
X39397569Y24822266D01*
X39397569Y24822266D02*
X39321379Y24784171D01*
X39321379Y24784171D02*
X39168998Y24746075D01*
X39168998Y24746075D02*
X39054712Y24746075D01*
X39054712Y24746075D02*
X38902331Y24784171D01*
X38902331Y24784171D02*
X38826140Y24822266D01*
X38826140Y24822266D02*
X38749950Y24898456D01*
X38749950Y24898456D02*
X38711855Y25012742D01*
X38711855Y25012742D02*
X38711855Y25088933D01*
X38711855Y25088933D02*
X38749950Y25203218D01*
X38749950Y25203218D02*
X38788045Y25241314D01*
X39511855Y25622266D02*
X39511855Y25774647D01*
X39511855Y25774647D02*
X39473760Y25850837D01*
X39473760Y25850837D02*
X39435664Y25888933D01*
X39435664Y25888933D02*
X39321379Y25965123D01*
X39321379Y25965123D02*
X39168998Y26003218D01*
X39168998Y26003218D02*
X38864236Y26003218D01*
X38864236Y26003218D02*
X38788045Y25965123D01*
X38788045Y25965123D02*
X38749950Y25927028D01*
X38749950Y25927028D02*
X38711855Y25850837D01*
X38711855Y25850837D02*
X38711855Y25698456D01*
X38711855Y25698456D02*
X38749950Y25622266D01*
X38749950Y25622266D02*
X38788045Y25584171D01*
X38788045Y25584171D02*
X38864236Y25546075D01*
X38864236Y25546075D02*
X39054712Y25546075D01*
X39054712Y25546075D02*
X39130902Y25584171D01*
X39130902Y25584171D02*
X39168998Y25622266D01*
X39168998Y25622266D02*
X39207093Y25698456D01*
X39207093Y25698456D02*
X39207093Y25850837D01*
X39207093Y25850837D02*
X39168998Y25927028D01*
X39168998Y25927028D02*
X39130902Y25965123D01*
X39130902Y25965123D02*
X39054712Y26003218D01*
X38711855Y26727028D02*
X38711855Y26346076D01*
X38711855Y26346076D02*
X39092807Y26307980D01*
X39092807Y26307980D02*
X39054712Y26346076D01*
X39054712Y26346076D02*
X39016617Y26422266D01*
X39016617Y26422266D02*
X39016617Y26612742D01*
X39016617Y26612742D02*
X39054712Y26688933D01*
X39054712Y26688933D02*
X39092807Y26727028D01*
X39092807Y26727028D02*
X39168998Y26765123D01*
X39168998Y26765123D02*
X39359474Y26765123D01*
X39359474Y26765123D02*
X39435664Y26727028D01*
X39435664Y26727028D02*
X39473760Y26688933D01*
X39473760Y26688933D02*
X39511855Y26612742D01*
X39511855Y26612742D02*
X39511855Y26422266D01*
X39511855Y26422266D02*
X39473760Y26346076D01*
X39473760Y26346076D02*
X39435664Y26307980D01*
X42056114Y24255335D02*
X42018018Y24217240D01*
X42018018Y24217240D02*
X41903733Y24179144D01*
X41903733Y24179144D02*
X41827542Y24179144D01*
X41827542Y24179144D02*
X41713256Y24217240D01*
X41713256Y24217240D02*
X41637066Y24293430D01*
X41637066Y24293430D02*
X41598971Y24369620D01*
X41598971Y24369620D02*
X41560875Y24522001D01*
X41560875Y24522001D02*
X41560875Y24636287D01*
X41560875Y24636287D02*
X41598971Y24788668D01*
X41598971Y24788668D02*
X41637066Y24864859D01*
X41637066Y24864859D02*
X41713256Y24941049D01*
X41713256Y24941049D02*
X41827542Y24979144D01*
X41827542Y24979144D02*
X41903733Y24979144D01*
X41903733Y24979144D02*
X42018018Y24941049D01*
X42018018Y24941049D02*
X42056114Y24902954D01*
X42437066Y24179144D02*
X42589447Y24179144D01*
X42589447Y24179144D02*
X42665637Y24217240D01*
X42665637Y24217240D02*
X42703733Y24255335D01*
X42703733Y24255335D02*
X42779923Y24369620D01*
X42779923Y24369620D02*
X42818018Y24522001D01*
X42818018Y24522001D02*
X42818018Y24826763D01*
X42818018Y24826763D02*
X42779923Y24902954D01*
X42779923Y24902954D02*
X42741828Y24941049D01*
X42741828Y24941049D02*
X42665637Y24979144D01*
X42665637Y24979144D02*
X42513256Y24979144D01*
X42513256Y24979144D02*
X42437066Y24941049D01*
X42437066Y24941049D02*
X42398971Y24902954D01*
X42398971Y24902954D02*
X42360875Y24826763D01*
X42360875Y24826763D02*
X42360875Y24636287D01*
X42360875Y24636287D02*
X42398971Y24560097D01*
X42398971Y24560097D02*
X42437066Y24522001D01*
X42437066Y24522001D02*
X42513256Y24483906D01*
X42513256Y24483906D02*
X42665637Y24483906D01*
X42665637Y24483906D02*
X42741828Y24522001D01*
X42741828Y24522001D02*
X42779923Y24560097D01*
X42779923Y24560097D02*
X42818018Y24636287D01*
X43503733Y24979144D02*
X43351352Y24979144D01*
X43351352Y24979144D02*
X43275161Y24941049D01*
X43275161Y24941049D02*
X43237066Y24902954D01*
X43237066Y24902954D02*
X43160876Y24788668D01*
X43160876Y24788668D02*
X43122780Y24636287D01*
X43122780Y24636287D02*
X43122780Y24331525D01*
X43122780Y24331525D02*
X43160876Y24255335D01*
X43160876Y24255335D02*
X43198971Y24217240D01*
X43198971Y24217240D02*
X43275161Y24179144D01*
X43275161Y24179144D02*
X43427542Y24179144D01*
X43427542Y24179144D02*
X43503733Y24217240D01*
X43503733Y24217240D02*
X43541828Y24255335D01*
X43541828Y24255335D02*
X43579923Y24331525D01*
X43579923Y24331525D02*
X43579923Y24522001D01*
X43579923Y24522001D02*
X43541828Y24598192D01*
X43541828Y24598192D02*
X43503733Y24636287D01*
X43503733Y24636287D02*
X43427542Y24674382D01*
X43427542Y24674382D02*
X43275161Y24674382D01*
X43275161Y24674382D02*
X43198971Y24636287D01*
X43198971Y24636287D02*
X43160876Y24598192D01*
X43160876Y24598192D02*
X43122780Y24522001D01*
X28616859Y37894515D02*
X28654955Y37856419D01*
X28654955Y37856419D02*
X28693050Y37742134D01*
X28693050Y37742134D02*
X28693050Y37665943D01*
X28693050Y37665943D02*
X28654955Y37551657D01*
X28654955Y37551657D02*
X28578764Y37475467D01*
X28578764Y37475467D02*
X28502574Y37437372D01*
X28502574Y37437372D02*
X28350193Y37399276D01*
X28350193Y37399276D02*
X28235907Y37399276D01*
X28235907Y37399276D02*
X28083526Y37437372D01*
X28083526Y37437372D02*
X28007335Y37475467D01*
X28007335Y37475467D02*
X27931145Y37551657D01*
X27931145Y37551657D02*
X27893050Y37665943D01*
X27893050Y37665943D02*
X27893050Y37742134D01*
X27893050Y37742134D02*
X27931145Y37856419D01*
X27931145Y37856419D02*
X27969240Y37894515D01*
X28159716Y38580229D02*
X28693050Y38580229D01*
X27854955Y38389753D02*
X28426383Y38199276D01*
X28426383Y38199276D02*
X28426383Y38694515D01*
X28159716Y39342134D02*
X28693050Y39342134D01*
X27854955Y39151658D02*
X28426383Y38961181D01*
X28426383Y38961181D02*
X28426383Y39456420D01*
X29838714Y25830135D02*
X29800618Y25792040D01*
X29800618Y25792040D02*
X29686333Y25753944D01*
X29686333Y25753944D02*
X29610142Y25753944D01*
X29610142Y25753944D02*
X29495856Y25792040D01*
X29495856Y25792040D02*
X29419666Y25868230D01*
X29419666Y25868230D02*
X29381571Y25944420D01*
X29381571Y25944420D02*
X29343475Y26096801D01*
X29343475Y26096801D02*
X29343475Y26211087D01*
X29343475Y26211087D02*
X29381571Y26363468D01*
X29381571Y26363468D02*
X29419666Y26439659D01*
X29419666Y26439659D02*
X29495856Y26515849D01*
X29495856Y26515849D02*
X29610142Y26553944D01*
X29610142Y26553944D02*
X29686333Y26553944D01*
X29686333Y26553944D02*
X29800618Y26515849D01*
X29800618Y26515849D02*
X29838714Y26477754D01*
X30524428Y26287278D02*
X30524428Y25753944D01*
X30333952Y26592040D02*
X30143475Y26020611D01*
X30143475Y26020611D02*
X30638714Y26020611D01*
X31324428Y26553944D02*
X30943476Y26553944D01*
X30943476Y26553944D02*
X30905380Y26172992D01*
X30905380Y26172992D02*
X30943476Y26211087D01*
X30943476Y26211087D02*
X31019666Y26249182D01*
X31019666Y26249182D02*
X31210142Y26249182D01*
X31210142Y26249182D02*
X31286333Y26211087D01*
X31286333Y26211087D02*
X31324428Y26172992D01*
X31324428Y26172992D02*
X31362523Y26096801D01*
X31362523Y26096801D02*
X31362523Y25906325D01*
X31362523Y25906325D02*
X31324428Y25830135D01*
X31324428Y25830135D02*
X31286333Y25792040D01*
X31286333Y25792040D02*
X31210142Y25753944D01*
X31210142Y25753944D02*
X31019666Y25753944D01*
X31019666Y25753944D02*
X30943476Y25792040D01*
X30943476Y25792040D02*
X30905380Y25830135D01*
X19576860Y38313735D02*
X19538764Y38275640D01*
X19538764Y38275640D02*
X19424479Y38237544D01*
X19424479Y38237544D02*
X19348288Y38237544D01*
X19348288Y38237544D02*
X19234002Y38275640D01*
X19234002Y38275640D02*
X19157812Y38351830D01*
X19157812Y38351830D02*
X19119717Y38428020D01*
X19119717Y38428020D02*
X19081621Y38580401D01*
X19081621Y38580401D02*
X19081621Y38694687D01*
X19081621Y38694687D02*
X19119717Y38847068D01*
X19119717Y38847068D02*
X19157812Y38923259D01*
X19157812Y38923259D02*
X19234002Y38999449D01*
X19234002Y38999449D02*
X19348288Y39037544D01*
X19348288Y39037544D02*
X19424479Y39037544D01*
X19424479Y39037544D02*
X19538764Y38999449D01*
X19538764Y38999449D02*
X19576860Y38961354D01*
X20262574Y38770878D02*
X20262574Y38237544D01*
X20072098Y39075640D02*
X19881621Y38504211D01*
X19881621Y38504211D02*
X20376860Y38504211D01*
X21024479Y39037544D02*
X20872098Y39037544D01*
X20872098Y39037544D02*
X20795907Y38999449D01*
X20795907Y38999449D02*
X20757812Y38961354D01*
X20757812Y38961354D02*
X20681622Y38847068D01*
X20681622Y38847068D02*
X20643526Y38694687D01*
X20643526Y38694687D02*
X20643526Y38389925D01*
X20643526Y38389925D02*
X20681622Y38313735D01*
X20681622Y38313735D02*
X20719717Y38275640D01*
X20719717Y38275640D02*
X20795907Y38237544D01*
X20795907Y38237544D02*
X20948288Y38237544D01*
X20948288Y38237544D02*
X21024479Y38275640D01*
X21024479Y38275640D02*
X21062574Y38313735D01*
X21062574Y38313735D02*
X21100669Y38389925D01*
X21100669Y38389925D02*
X21100669Y38580401D01*
X21100669Y38580401D02*
X21062574Y38656592D01*
X21062574Y38656592D02*
X21024479Y38694687D01*
X21024479Y38694687D02*
X20948288Y38732782D01*
X20948288Y38732782D02*
X20795907Y38732782D01*
X20795907Y38732782D02*
X20719717Y38694687D01*
X20719717Y38694687D02*
X20681622Y38656592D01*
X20681622Y38656592D02*
X20643526Y38580401D01*
X30880114Y30783135D02*
X30842018Y30745040D01*
X30842018Y30745040D02*
X30727733Y30706944D01*
X30727733Y30706944D02*
X30651542Y30706944D01*
X30651542Y30706944D02*
X30537256Y30745040D01*
X30537256Y30745040D02*
X30461066Y30821230D01*
X30461066Y30821230D02*
X30422971Y30897420D01*
X30422971Y30897420D02*
X30384875Y31049801D01*
X30384875Y31049801D02*
X30384875Y31164087D01*
X30384875Y31164087D02*
X30422971Y31316468D01*
X30422971Y31316468D02*
X30461066Y31392659D01*
X30461066Y31392659D02*
X30537256Y31468849D01*
X30537256Y31468849D02*
X30651542Y31506944D01*
X30651542Y31506944D02*
X30727733Y31506944D01*
X30727733Y31506944D02*
X30842018Y31468849D01*
X30842018Y31468849D02*
X30880114Y31430754D01*
X31565828Y31240278D02*
X31565828Y30706944D01*
X31375352Y31545040D02*
X31184875Y30973611D01*
X31184875Y30973611D02*
X31680114Y30973611D01*
X31908685Y31506944D02*
X32442019Y31506944D01*
X32442019Y31506944D02*
X32099161Y30706944D01*
X29777258Y37894515D02*
X29815354Y37856419D01*
X29815354Y37856419D02*
X29853449Y37742134D01*
X29853449Y37742134D02*
X29853449Y37665943D01*
X29853449Y37665943D02*
X29815354Y37551657D01*
X29815354Y37551657D02*
X29739163Y37475467D01*
X29739163Y37475467D02*
X29662973Y37437372D01*
X29662973Y37437372D02*
X29510592Y37399276D01*
X29510592Y37399276D02*
X29396306Y37399276D01*
X29396306Y37399276D02*
X29243925Y37437372D01*
X29243925Y37437372D02*
X29167734Y37475467D01*
X29167734Y37475467D02*
X29091544Y37551657D01*
X29091544Y37551657D02*
X29053449Y37665943D01*
X29053449Y37665943D02*
X29053449Y37742134D01*
X29053449Y37742134D02*
X29091544Y37856419D01*
X29091544Y37856419D02*
X29129639Y37894515D01*
X29053449Y38618324D02*
X29053449Y38237372D01*
X29053449Y38237372D02*
X29434401Y38199276D01*
X29434401Y38199276D02*
X29396306Y38237372D01*
X29396306Y38237372D02*
X29358211Y38313562D01*
X29358211Y38313562D02*
X29358211Y38504038D01*
X29358211Y38504038D02*
X29396306Y38580229D01*
X29396306Y38580229D02*
X29434401Y38618324D01*
X29434401Y38618324D02*
X29510592Y38656419D01*
X29510592Y38656419D02*
X29701068Y38656419D01*
X29701068Y38656419D02*
X29777258Y38618324D01*
X29777258Y38618324D02*
X29815354Y38580229D01*
X29815354Y38580229D02*
X29853449Y38504038D01*
X29853449Y38504038D02*
X29853449Y38313562D01*
X29853449Y38313562D02*
X29815354Y38237372D01*
X29815354Y38237372D02*
X29777258Y38199276D01*
X29853449Y39418324D02*
X29853449Y38961181D01*
X29853449Y39189753D02*
X29053449Y39189753D01*
X29053449Y39189753D02*
X29167734Y39113562D01*
X29167734Y39113562D02*
X29243925Y39037372D01*
X29243925Y39037372D02*
X29282020Y38961181D01*
X29838714Y26744535D02*
X29800618Y26706440D01*
X29800618Y26706440D02*
X29686333Y26668344D01*
X29686333Y26668344D02*
X29610142Y26668344D01*
X29610142Y26668344D02*
X29495856Y26706440D01*
X29495856Y26706440D02*
X29419666Y26782630D01*
X29419666Y26782630D02*
X29381571Y26858820D01*
X29381571Y26858820D02*
X29343475Y27011201D01*
X29343475Y27011201D02*
X29343475Y27125487D01*
X29343475Y27125487D02*
X29381571Y27277868D01*
X29381571Y27277868D02*
X29419666Y27354059D01*
X29419666Y27354059D02*
X29495856Y27430249D01*
X29495856Y27430249D02*
X29610142Y27468344D01*
X29610142Y27468344D02*
X29686333Y27468344D01*
X29686333Y27468344D02*
X29800618Y27430249D01*
X29800618Y27430249D02*
X29838714Y27392154D01*
X30562523Y27468344D02*
X30181571Y27468344D01*
X30181571Y27468344D02*
X30143475Y27087392D01*
X30143475Y27087392D02*
X30181571Y27125487D01*
X30181571Y27125487D02*
X30257761Y27163582D01*
X30257761Y27163582D02*
X30448237Y27163582D01*
X30448237Y27163582D02*
X30524428Y27125487D01*
X30524428Y27125487D02*
X30562523Y27087392D01*
X30562523Y27087392D02*
X30600618Y27011201D01*
X30600618Y27011201D02*
X30600618Y26820725D01*
X30600618Y26820725D02*
X30562523Y26744535D01*
X30562523Y26744535D02*
X30524428Y26706440D01*
X30524428Y26706440D02*
X30448237Y26668344D01*
X30448237Y26668344D02*
X30257761Y26668344D01*
X30257761Y26668344D02*
X30181571Y26706440D01*
X30181571Y26706440D02*
X30143475Y26744535D01*
X30905380Y27392154D02*
X30943476Y27430249D01*
X30943476Y27430249D02*
X31019666Y27468344D01*
X31019666Y27468344D02*
X31210142Y27468344D01*
X31210142Y27468344D02*
X31286333Y27430249D01*
X31286333Y27430249D02*
X31324428Y27392154D01*
X31324428Y27392154D02*
X31362523Y27315963D01*
X31362523Y27315963D02*
X31362523Y27239773D01*
X31362523Y27239773D02*
X31324428Y27125487D01*
X31324428Y27125487D02*
X30867285Y26668344D01*
X30867285Y26668344D02*
X31362523Y26668344D01*
X37302064Y22802914D02*
X37340160Y22764818D01*
X37340160Y22764818D02*
X37378255Y22650533D01*
X37378255Y22650533D02*
X37378255Y22574342D01*
X37378255Y22574342D02*
X37340160Y22460056D01*
X37340160Y22460056D02*
X37263969Y22383866D01*
X37263969Y22383866D02*
X37187779Y22345771D01*
X37187779Y22345771D02*
X37035398Y22307675D01*
X37035398Y22307675D02*
X36921112Y22307675D01*
X36921112Y22307675D02*
X36768731Y22345771D01*
X36768731Y22345771D02*
X36692540Y22383866D01*
X36692540Y22383866D02*
X36616350Y22460056D01*
X36616350Y22460056D02*
X36578255Y22574342D01*
X36578255Y22574342D02*
X36578255Y22650533D01*
X36578255Y22650533D02*
X36616350Y22764818D01*
X36616350Y22764818D02*
X36654445Y22802914D01*
X37378255Y23564818D02*
X37378255Y23107675D01*
X37378255Y23336247D02*
X36578255Y23336247D01*
X36578255Y23336247D02*
X36692540Y23260056D01*
X36692540Y23260056D02*
X36768731Y23183866D01*
X36768731Y23183866D02*
X36806826Y23107675D01*
X36844921Y24250533D02*
X37378255Y24250533D01*
X36540160Y24060057D02*
X37111588Y23869580D01*
X37111588Y23869580D02*
X37111588Y24364819D01*
X36336864Y22777514D02*
X36374960Y22739418D01*
X36374960Y22739418D02*
X36413055Y22625133D01*
X36413055Y22625133D02*
X36413055Y22548942D01*
X36413055Y22548942D02*
X36374960Y22434656D01*
X36374960Y22434656D02*
X36298769Y22358466D01*
X36298769Y22358466D02*
X36222579Y22320371D01*
X36222579Y22320371D02*
X36070198Y22282275D01*
X36070198Y22282275D02*
X35955912Y22282275D01*
X35955912Y22282275D02*
X35803531Y22320371D01*
X35803531Y22320371D02*
X35727340Y22358466D01*
X35727340Y22358466D02*
X35651150Y22434656D01*
X35651150Y22434656D02*
X35613055Y22548942D01*
X35613055Y22548942D02*
X35613055Y22625133D01*
X35613055Y22625133D02*
X35651150Y22739418D01*
X35651150Y22739418D02*
X35689245Y22777514D01*
X36413055Y23539418D02*
X36413055Y23082275D01*
X36413055Y23310847D02*
X35613055Y23310847D01*
X35613055Y23310847D02*
X35727340Y23234656D01*
X35727340Y23234656D02*
X35803531Y23158466D01*
X35803531Y23158466D02*
X35841626Y23082275D01*
X35613055Y24263228D02*
X35613055Y23882276D01*
X35613055Y23882276D02*
X35994007Y23844180D01*
X35994007Y23844180D02*
X35955912Y23882276D01*
X35955912Y23882276D02*
X35917817Y23958466D01*
X35917817Y23958466D02*
X35917817Y24148942D01*
X35917817Y24148942D02*
X35955912Y24225133D01*
X35955912Y24225133D02*
X35994007Y24263228D01*
X35994007Y24263228D02*
X36070198Y24301323D01*
X36070198Y24301323D02*
X36260674Y24301323D01*
X36260674Y24301323D02*
X36336864Y24263228D01*
X36336864Y24263228D02*
X36374960Y24225133D01*
X36374960Y24225133D02*
X36413055Y24148942D01*
X36413055Y24148942D02*
X36413055Y23958466D01*
X36413055Y23958466D02*
X36374960Y23882276D01*
X36374960Y23882276D02*
X36336864Y23844180D01*
X34000064Y27044714D02*
X34038160Y27006618D01*
X34038160Y27006618D02*
X34076255Y26892333D01*
X34076255Y26892333D02*
X34076255Y26816142D01*
X34076255Y26816142D02*
X34038160Y26701856D01*
X34038160Y26701856D02*
X33961969Y26625666D01*
X33961969Y26625666D02*
X33885779Y26587571D01*
X33885779Y26587571D02*
X33733398Y26549475D01*
X33733398Y26549475D02*
X33619112Y26549475D01*
X33619112Y26549475D02*
X33466731Y26587571D01*
X33466731Y26587571D02*
X33390540Y26625666D01*
X33390540Y26625666D02*
X33314350Y26701856D01*
X33314350Y26701856D02*
X33276255Y26816142D01*
X33276255Y26816142D02*
X33276255Y26892333D01*
X33276255Y26892333D02*
X33314350Y27006618D01*
X33314350Y27006618D02*
X33352445Y27044714D01*
X34076255Y27806618D02*
X34076255Y27349475D01*
X34076255Y27578047D02*
X33276255Y27578047D01*
X33276255Y27578047D02*
X33390540Y27501856D01*
X33390540Y27501856D02*
X33466731Y27425666D01*
X33466731Y27425666D02*
X33504826Y27349475D01*
X33276255Y28492333D02*
X33276255Y28339952D01*
X33276255Y28339952D02*
X33314350Y28263761D01*
X33314350Y28263761D02*
X33352445Y28225666D01*
X33352445Y28225666D02*
X33466731Y28149476D01*
X33466731Y28149476D02*
X33619112Y28111380D01*
X33619112Y28111380D02*
X33923874Y28111380D01*
X33923874Y28111380D02*
X34000064Y28149476D01*
X34000064Y28149476D02*
X34038160Y28187571D01*
X34038160Y28187571D02*
X34076255Y28263761D01*
X34076255Y28263761D02*
X34076255Y28416142D01*
X34076255Y28416142D02*
X34038160Y28492333D01*
X34038160Y28492333D02*
X34000064Y28530428D01*
X34000064Y28530428D02*
X33923874Y28568523D01*
X33923874Y28568523D02*
X33733398Y28568523D01*
X33733398Y28568523D02*
X33657207Y28530428D01*
X33657207Y28530428D02*
X33619112Y28492333D01*
X33619112Y28492333D02*
X33581017Y28416142D01*
X33581017Y28416142D02*
X33581017Y28263761D01*
X33581017Y28263761D02*
X33619112Y28187571D01*
X33619112Y28187571D02*
X33657207Y28149476D01*
X33657207Y28149476D02*
X33733398Y28111380D01*
X29838079Y27709999D02*
X29799983Y27671904D01*
X29799983Y27671904D02*
X29685698Y27633808D01*
X29685698Y27633808D02*
X29609507Y27633808D01*
X29609507Y27633808D02*
X29495221Y27671904D01*
X29495221Y27671904D02*
X29419031Y27748094D01*
X29419031Y27748094D02*
X29380936Y27824284D01*
X29380936Y27824284D02*
X29342840Y27976665D01*
X29342840Y27976665D02*
X29342840Y28090951D01*
X29342840Y28090951D02*
X29380936Y28243332D01*
X29380936Y28243332D02*
X29419031Y28319523D01*
X29419031Y28319523D02*
X29495221Y28395713D01*
X29495221Y28395713D02*
X29609507Y28433808D01*
X29609507Y28433808D02*
X29685698Y28433808D01*
X29685698Y28433808D02*
X29799983Y28395713D01*
X29799983Y28395713D02*
X29838079Y28357618D01*
X30599983Y27633808D02*
X30142840Y27633808D01*
X30371412Y27633808D02*
X30371412Y28433808D01*
X30371412Y28433808D02*
X30295221Y28319523D01*
X30295221Y28319523D02*
X30219031Y28243332D01*
X30219031Y28243332D02*
X30142840Y28205237D01*
X30866650Y28433808D02*
X31399984Y28433808D01*
X31399984Y28433808D02*
X31057126Y27633808D01*
X34740025Y32141799D02*
X34701929Y32103704D01*
X34701929Y32103704D02*
X34587644Y32065608D01*
X34587644Y32065608D02*
X34511453Y32065608D01*
X34511453Y32065608D02*
X34397167Y32103704D01*
X34397167Y32103704D02*
X34320977Y32179894D01*
X34320977Y32179894D02*
X34282882Y32256084D01*
X34282882Y32256084D02*
X34244786Y32408465D01*
X34244786Y32408465D02*
X34244786Y32522751D01*
X34244786Y32522751D02*
X34282882Y32675132D01*
X34282882Y32675132D02*
X34320977Y32751323D01*
X34320977Y32751323D02*
X34397167Y32827513D01*
X34397167Y32827513D02*
X34511453Y32865608D01*
X34511453Y32865608D02*
X34587644Y32865608D01*
X34587644Y32865608D02*
X34701929Y32827513D01*
X34701929Y32827513D02*
X34740025Y32789418D01*
X35501929Y32065608D02*
X35044786Y32065608D01*
X35273358Y32065608D02*
X35273358Y32865608D01*
X35273358Y32865608D02*
X35197167Y32751323D01*
X35197167Y32751323D02*
X35120977Y32675132D01*
X35120977Y32675132D02*
X35044786Y32637037D01*
X35959072Y32522751D02*
X35882882Y32560846D01*
X35882882Y32560846D02*
X35844787Y32598942D01*
X35844787Y32598942D02*
X35806691Y32675132D01*
X35806691Y32675132D02*
X35806691Y32713227D01*
X35806691Y32713227D02*
X35844787Y32789418D01*
X35844787Y32789418D02*
X35882882Y32827513D01*
X35882882Y32827513D02*
X35959072Y32865608D01*
X35959072Y32865608D02*
X36111453Y32865608D01*
X36111453Y32865608D02*
X36187644Y32827513D01*
X36187644Y32827513D02*
X36225739Y32789418D01*
X36225739Y32789418D02*
X36263834Y32713227D01*
X36263834Y32713227D02*
X36263834Y32675132D01*
X36263834Y32675132D02*
X36225739Y32598942D01*
X36225739Y32598942D02*
X36187644Y32560846D01*
X36187644Y32560846D02*
X36111453Y32522751D01*
X36111453Y32522751D02*
X35959072Y32522751D01*
X35959072Y32522751D02*
X35882882Y32484656D01*
X35882882Y32484656D02*
X35844787Y32446561D01*
X35844787Y32446561D02*
X35806691Y32370370D01*
X35806691Y32370370D02*
X35806691Y32217989D01*
X35806691Y32217989D02*
X35844787Y32141799D01*
X35844787Y32141799D02*
X35882882Y32103704D01*
X35882882Y32103704D02*
X35959072Y32065608D01*
X35959072Y32065608D02*
X36111453Y32065608D01*
X36111453Y32065608D02*
X36187644Y32103704D01*
X36187644Y32103704D02*
X36225739Y32141799D01*
X36225739Y32141799D02*
X36263834Y32217989D01*
X36263834Y32217989D02*
X36263834Y32370370D01*
X36263834Y32370370D02*
X36225739Y32446561D01*
X36225739Y32446561D02*
X36187644Y32484656D01*
X36187644Y32484656D02*
X36111453Y32522751D01*
X29839349Y28699329D02*
X29801253Y28661234D01*
X29801253Y28661234D02*
X29686968Y28623138D01*
X29686968Y28623138D02*
X29610777Y28623138D01*
X29610777Y28623138D02*
X29496491Y28661234D01*
X29496491Y28661234D02*
X29420301Y28737424D01*
X29420301Y28737424D02*
X29382206Y28813614D01*
X29382206Y28813614D02*
X29344110Y28965995D01*
X29344110Y28965995D02*
X29344110Y29080281D01*
X29344110Y29080281D02*
X29382206Y29232662D01*
X29382206Y29232662D02*
X29420301Y29308853D01*
X29420301Y29308853D02*
X29496491Y29385043D01*
X29496491Y29385043D02*
X29610777Y29423138D01*
X29610777Y29423138D02*
X29686968Y29423138D01*
X29686968Y29423138D02*
X29801253Y29385043D01*
X29801253Y29385043D02*
X29839349Y29346948D01*
X30601253Y28623138D02*
X30144110Y28623138D01*
X30372682Y28623138D02*
X30372682Y29423138D01*
X30372682Y29423138D02*
X30296491Y29308853D01*
X30296491Y29308853D02*
X30220301Y29232662D01*
X30220301Y29232662D02*
X30144110Y29194567D01*
X30982206Y28623138D02*
X31134587Y28623138D01*
X31134587Y28623138D02*
X31210777Y28661234D01*
X31210777Y28661234D02*
X31248873Y28699329D01*
X31248873Y28699329D02*
X31325063Y28813614D01*
X31325063Y28813614D02*
X31363158Y28965995D01*
X31363158Y28965995D02*
X31363158Y29270757D01*
X31363158Y29270757D02*
X31325063Y29346948D01*
X31325063Y29346948D02*
X31286968Y29385043D01*
X31286968Y29385043D02*
X31210777Y29423138D01*
X31210777Y29423138D02*
X31058396Y29423138D01*
X31058396Y29423138D02*
X30982206Y29385043D01*
X30982206Y29385043D02*
X30944111Y29346948D01*
X30944111Y29346948D02*
X30906015Y29270757D01*
X30906015Y29270757D02*
X30906015Y29080281D01*
X30906015Y29080281D02*
X30944111Y29004091D01*
X30944111Y29004091D02*
X30982206Y28965995D01*
X30982206Y28965995D02*
X31058396Y28927900D01*
X31058396Y28927900D02*
X31210777Y28927900D01*
X31210777Y28927900D02*
X31286968Y28965995D01*
X31286968Y28965995D02*
X31325063Y29004091D01*
X31325063Y29004091D02*
X31363158Y29080281D01*
X34740025Y33132399D02*
X34701929Y33094304D01*
X34701929Y33094304D02*
X34587644Y33056208D01*
X34587644Y33056208D02*
X34511453Y33056208D01*
X34511453Y33056208D02*
X34397167Y33094304D01*
X34397167Y33094304D02*
X34320977Y33170494D01*
X34320977Y33170494D02*
X34282882Y33246684D01*
X34282882Y33246684D02*
X34244786Y33399065D01*
X34244786Y33399065D02*
X34244786Y33513351D01*
X34244786Y33513351D02*
X34282882Y33665732D01*
X34282882Y33665732D02*
X34320977Y33741923D01*
X34320977Y33741923D02*
X34397167Y33818113D01*
X34397167Y33818113D02*
X34511453Y33856208D01*
X34511453Y33856208D02*
X34587644Y33856208D01*
X34587644Y33856208D02*
X34701929Y33818113D01*
X34701929Y33818113D02*
X34740025Y33780018D01*
X35044786Y33780018D02*
X35082882Y33818113D01*
X35082882Y33818113D02*
X35159072Y33856208D01*
X35159072Y33856208D02*
X35349548Y33856208D01*
X35349548Y33856208D02*
X35425739Y33818113D01*
X35425739Y33818113D02*
X35463834Y33780018D01*
X35463834Y33780018D02*
X35501929Y33703827D01*
X35501929Y33703827D02*
X35501929Y33627637D01*
X35501929Y33627637D02*
X35463834Y33513351D01*
X35463834Y33513351D02*
X35006691Y33056208D01*
X35006691Y33056208D02*
X35501929Y33056208D01*
X35997168Y33856208D02*
X36073358Y33856208D01*
X36073358Y33856208D02*
X36149549Y33818113D01*
X36149549Y33818113D02*
X36187644Y33780018D01*
X36187644Y33780018D02*
X36225739Y33703827D01*
X36225739Y33703827D02*
X36263834Y33551446D01*
X36263834Y33551446D02*
X36263834Y33360970D01*
X36263834Y33360970D02*
X36225739Y33208589D01*
X36225739Y33208589D02*
X36187644Y33132399D01*
X36187644Y33132399D02*
X36149549Y33094304D01*
X36149549Y33094304D02*
X36073358Y33056208D01*
X36073358Y33056208D02*
X35997168Y33056208D01*
X35997168Y33056208D02*
X35920977Y33094304D01*
X35920977Y33094304D02*
X35882882Y33132399D01*
X35882882Y33132399D02*
X35844787Y33208589D01*
X35844787Y33208589D02*
X35806691Y33360970D01*
X35806691Y33360970D02*
X35806691Y33551446D01*
X35806691Y33551446D02*
X35844787Y33703827D01*
X35844787Y33703827D02*
X35882882Y33780018D01*
X35882882Y33780018D02*
X35920977Y33818113D01*
X35920977Y33818113D02*
X35997168Y33856208D01*
X42081514Y25525335D02*
X42043418Y25487240D01*
X42043418Y25487240D02*
X41929133Y25449144D01*
X41929133Y25449144D02*
X41852942Y25449144D01*
X41852942Y25449144D02*
X41738656Y25487240D01*
X41738656Y25487240D02*
X41662466Y25563430D01*
X41662466Y25563430D02*
X41624371Y25639620D01*
X41624371Y25639620D02*
X41586275Y25792001D01*
X41586275Y25792001D02*
X41586275Y25906287D01*
X41586275Y25906287D02*
X41624371Y26058668D01*
X41624371Y26058668D02*
X41662466Y26134859D01*
X41662466Y26134859D02*
X41738656Y26211049D01*
X41738656Y26211049D02*
X41852942Y26249144D01*
X41852942Y26249144D02*
X41929133Y26249144D01*
X41929133Y26249144D02*
X42043418Y26211049D01*
X42043418Y26211049D02*
X42081514Y26172954D01*
X42386275Y26172954D02*
X42424371Y26211049D01*
X42424371Y26211049D02*
X42500561Y26249144D01*
X42500561Y26249144D02*
X42691037Y26249144D01*
X42691037Y26249144D02*
X42767228Y26211049D01*
X42767228Y26211049D02*
X42805323Y26172954D01*
X42805323Y26172954D02*
X42843418Y26096763D01*
X42843418Y26096763D02*
X42843418Y26020573D01*
X42843418Y26020573D02*
X42805323Y25906287D01*
X42805323Y25906287D02*
X42348180Y25449144D01*
X42348180Y25449144D02*
X42843418Y25449144D01*
X43529133Y26249144D02*
X43376752Y26249144D01*
X43376752Y26249144D02*
X43300561Y26211049D01*
X43300561Y26211049D02*
X43262466Y26172954D01*
X43262466Y26172954D02*
X43186276Y26058668D01*
X43186276Y26058668D02*
X43148180Y25906287D01*
X43148180Y25906287D02*
X43148180Y25601525D01*
X43148180Y25601525D02*
X43186276Y25525335D01*
X43186276Y25525335D02*
X43224371Y25487240D01*
X43224371Y25487240D02*
X43300561Y25449144D01*
X43300561Y25449144D02*
X43452942Y25449144D01*
X43452942Y25449144D02*
X43529133Y25487240D01*
X43529133Y25487240D02*
X43567228Y25525335D01*
X43567228Y25525335D02*
X43605323Y25601525D01*
X43605323Y25601525D02*
X43605323Y25792001D01*
X43605323Y25792001D02*
X43567228Y25868192D01*
X43567228Y25868192D02*
X43529133Y25906287D01*
X43529133Y25906287D02*
X43452942Y25944382D01*
X43452942Y25944382D02*
X43300561Y25944382D01*
X43300561Y25944382D02*
X43224371Y25906287D01*
X43224371Y25906287D02*
X43186276Y25868192D01*
X43186276Y25868192D02*
X43148180Y25792001D01*
X42191064Y33420114D02*
X42229160Y33382018D01*
X42229160Y33382018D02*
X42267255Y33267733D01*
X42267255Y33267733D02*
X42267255Y33191542D01*
X42267255Y33191542D02*
X42229160Y33077256D01*
X42229160Y33077256D02*
X42152969Y33001066D01*
X42152969Y33001066D02*
X42076779Y32962971D01*
X42076779Y32962971D02*
X41924398Y32924875D01*
X41924398Y32924875D02*
X41810112Y32924875D01*
X41810112Y32924875D02*
X41657731Y32962971D01*
X41657731Y32962971D02*
X41581540Y33001066D01*
X41581540Y33001066D02*
X41505350Y33077256D01*
X41505350Y33077256D02*
X41467255Y33191542D01*
X41467255Y33191542D02*
X41467255Y33267733D01*
X41467255Y33267733D02*
X41505350Y33382018D01*
X41505350Y33382018D02*
X41543445Y33420114D01*
X41543445Y33724875D02*
X41505350Y33762971D01*
X41505350Y33762971D02*
X41467255Y33839161D01*
X41467255Y33839161D02*
X41467255Y34029637D01*
X41467255Y34029637D02*
X41505350Y34105828D01*
X41505350Y34105828D02*
X41543445Y34143923D01*
X41543445Y34143923D02*
X41619636Y34182018D01*
X41619636Y34182018D02*
X41695826Y34182018D01*
X41695826Y34182018D02*
X41810112Y34143923D01*
X41810112Y34143923D02*
X42267255Y33686780D01*
X42267255Y33686780D02*
X42267255Y34182018D01*
X41467255Y34448685D02*
X41467255Y34982019D01*
X41467255Y34982019D02*
X42267255Y34639161D01*
X42081514Y26515935D02*
X42043418Y26477840D01*
X42043418Y26477840D02*
X41929133Y26439744D01*
X41929133Y26439744D02*
X41852942Y26439744D01*
X41852942Y26439744D02*
X41738656Y26477840D01*
X41738656Y26477840D02*
X41662466Y26554030D01*
X41662466Y26554030D02*
X41624371Y26630220D01*
X41624371Y26630220D02*
X41586275Y26782601D01*
X41586275Y26782601D02*
X41586275Y26896887D01*
X41586275Y26896887D02*
X41624371Y27049268D01*
X41624371Y27049268D02*
X41662466Y27125459D01*
X41662466Y27125459D02*
X41738656Y27201649D01*
X41738656Y27201649D02*
X41852942Y27239744D01*
X41852942Y27239744D02*
X41929133Y27239744D01*
X41929133Y27239744D02*
X42043418Y27201649D01*
X42043418Y27201649D02*
X42081514Y27163554D01*
X42386275Y27163554D02*
X42424371Y27201649D01*
X42424371Y27201649D02*
X42500561Y27239744D01*
X42500561Y27239744D02*
X42691037Y27239744D01*
X42691037Y27239744D02*
X42767228Y27201649D01*
X42767228Y27201649D02*
X42805323Y27163554D01*
X42805323Y27163554D02*
X42843418Y27087363D01*
X42843418Y27087363D02*
X42843418Y27011173D01*
X42843418Y27011173D02*
X42805323Y26896887D01*
X42805323Y26896887D02*
X42348180Y26439744D01*
X42348180Y26439744D02*
X42843418Y26439744D01*
X43224371Y26439744D02*
X43376752Y26439744D01*
X43376752Y26439744D02*
X43452942Y26477840D01*
X43452942Y26477840D02*
X43491038Y26515935D01*
X43491038Y26515935D02*
X43567228Y26630220D01*
X43567228Y26630220D02*
X43605323Y26782601D01*
X43605323Y26782601D02*
X43605323Y27087363D01*
X43605323Y27087363D02*
X43567228Y27163554D01*
X43567228Y27163554D02*
X43529133Y27201649D01*
X43529133Y27201649D02*
X43452942Y27239744D01*
X43452942Y27239744D02*
X43300561Y27239744D01*
X43300561Y27239744D02*
X43224371Y27201649D01*
X43224371Y27201649D02*
X43186276Y27163554D01*
X43186276Y27163554D02*
X43148180Y27087363D01*
X43148180Y27087363D02*
X43148180Y26896887D01*
X43148180Y26896887D02*
X43186276Y26820697D01*
X43186276Y26820697D02*
X43224371Y26782601D01*
X43224371Y26782601D02*
X43300561Y26744506D01*
X43300561Y26744506D02*
X43452942Y26744506D01*
X43452942Y26744506D02*
X43529133Y26782601D01*
X43529133Y26782601D02*
X43567228Y26820697D01*
X43567228Y26820697D02*
X43605323Y26896887D01*
X39084314Y29005135D02*
X39046218Y28967040D01*
X39046218Y28967040D02*
X38931933Y28928944D01*
X38931933Y28928944D02*
X38855742Y28928944D01*
X38855742Y28928944D02*
X38741456Y28967040D01*
X38741456Y28967040D02*
X38665266Y29043230D01*
X38665266Y29043230D02*
X38627171Y29119420D01*
X38627171Y29119420D02*
X38589075Y29271801D01*
X38589075Y29271801D02*
X38589075Y29386087D01*
X38589075Y29386087D02*
X38627171Y29538468D01*
X38627171Y29538468D02*
X38665266Y29614659D01*
X38665266Y29614659D02*
X38741456Y29690849D01*
X38741456Y29690849D02*
X38855742Y29728944D01*
X38855742Y29728944D02*
X38931933Y29728944D01*
X38931933Y29728944D02*
X39046218Y29690849D01*
X39046218Y29690849D02*
X39084314Y29652754D01*
X39389075Y29652754D02*
X39427171Y29690849D01*
X39427171Y29690849D02*
X39503361Y29728944D01*
X39503361Y29728944D02*
X39693837Y29728944D01*
X39693837Y29728944D02*
X39770028Y29690849D01*
X39770028Y29690849D02*
X39808123Y29652754D01*
X39808123Y29652754D02*
X39846218Y29576563D01*
X39846218Y29576563D02*
X39846218Y29500373D01*
X39846218Y29500373D02*
X39808123Y29386087D01*
X39808123Y29386087D02*
X39350980Y28928944D01*
X39350980Y28928944D02*
X39846218Y28928944D01*
X40608123Y28928944D02*
X40150980Y28928944D01*
X40379552Y28928944D02*
X40379552Y29728944D01*
X40379552Y29728944D02*
X40303361Y29614659D01*
X40303361Y29614659D02*
X40227171Y29538468D01*
X40227171Y29538468D02*
X40150980Y29500373D01*
X39084314Y28065335D02*
X39046218Y28027240D01*
X39046218Y28027240D02*
X38931933Y27989144D01*
X38931933Y27989144D02*
X38855742Y27989144D01*
X38855742Y27989144D02*
X38741456Y28027240D01*
X38741456Y28027240D02*
X38665266Y28103430D01*
X38665266Y28103430D02*
X38627171Y28179620D01*
X38627171Y28179620D02*
X38589075Y28332001D01*
X38589075Y28332001D02*
X38589075Y28446287D01*
X38589075Y28446287D02*
X38627171Y28598668D01*
X38627171Y28598668D02*
X38665266Y28674859D01*
X38665266Y28674859D02*
X38741456Y28751049D01*
X38741456Y28751049D02*
X38855742Y28789144D01*
X38855742Y28789144D02*
X38931933Y28789144D01*
X38931933Y28789144D02*
X39046218Y28751049D01*
X39046218Y28751049D02*
X39084314Y28712954D01*
X39389075Y28712954D02*
X39427171Y28751049D01*
X39427171Y28751049D02*
X39503361Y28789144D01*
X39503361Y28789144D02*
X39693837Y28789144D01*
X39693837Y28789144D02*
X39770028Y28751049D01*
X39770028Y28751049D02*
X39808123Y28712954D01*
X39808123Y28712954D02*
X39846218Y28636763D01*
X39846218Y28636763D02*
X39846218Y28560573D01*
X39846218Y28560573D02*
X39808123Y28446287D01*
X39808123Y28446287D02*
X39350980Y27989144D01*
X39350980Y27989144D02*
X39846218Y27989144D01*
X40150980Y28712954D02*
X40189076Y28751049D01*
X40189076Y28751049D02*
X40265266Y28789144D01*
X40265266Y28789144D02*
X40455742Y28789144D01*
X40455742Y28789144D02*
X40531933Y28751049D01*
X40531933Y28751049D02*
X40570028Y28712954D01*
X40570028Y28712954D02*
X40608123Y28636763D01*
X40608123Y28636763D02*
X40608123Y28560573D01*
X40608123Y28560573D02*
X40570028Y28446287D01*
X40570028Y28446287D02*
X40112885Y27989144D01*
X40112885Y27989144D02*
X40608123Y27989144D01*
X39084314Y29970335D02*
X39046218Y29932240D01*
X39046218Y29932240D02*
X38931933Y29894144D01*
X38931933Y29894144D02*
X38855742Y29894144D01*
X38855742Y29894144D02*
X38741456Y29932240D01*
X38741456Y29932240D02*
X38665266Y30008430D01*
X38665266Y30008430D02*
X38627171Y30084620D01*
X38627171Y30084620D02*
X38589075Y30237001D01*
X38589075Y30237001D02*
X38589075Y30351287D01*
X38589075Y30351287D02*
X38627171Y30503668D01*
X38627171Y30503668D02*
X38665266Y30579859D01*
X38665266Y30579859D02*
X38741456Y30656049D01*
X38741456Y30656049D02*
X38855742Y30694144D01*
X38855742Y30694144D02*
X38931933Y30694144D01*
X38931933Y30694144D02*
X39046218Y30656049D01*
X39046218Y30656049D02*
X39084314Y30617954D01*
X39389075Y30617954D02*
X39427171Y30656049D01*
X39427171Y30656049D02*
X39503361Y30694144D01*
X39503361Y30694144D02*
X39693837Y30694144D01*
X39693837Y30694144D02*
X39770028Y30656049D01*
X39770028Y30656049D02*
X39808123Y30617954D01*
X39808123Y30617954D02*
X39846218Y30541763D01*
X39846218Y30541763D02*
X39846218Y30465573D01*
X39846218Y30465573D02*
X39808123Y30351287D01*
X39808123Y30351287D02*
X39350980Y29894144D01*
X39350980Y29894144D02*
X39846218Y29894144D01*
X40112885Y30694144D02*
X40608123Y30694144D01*
X40608123Y30694144D02*
X40341457Y30389382D01*
X40341457Y30389382D02*
X40455742Y30389382D01*
X40455742Y30389382D02*
X40531933Y30351287D01*
X40531933Y30351287D02*
X40570028Y30313192D01*
X40570028Y30313192D02*
X40608123Y30237001D01*
X40608123Y30237001D02*
X40608123Y30046525D01*
X40608123Y30046525D02*
X40570028Y29970335D01*
X40570028Y29970335D02*
X40531933Y29932240D01*
X40531933Y29932240D02*
X40455742Y29894144D01*
X40455742Y29894144D02*
X40227171Y29894144D01*
X40227171Y29894144D02*
X40150980Y29932240D01*
X40150980Y29932240D02*
X40112885Y29970335D01*
X36093321Y28743431D02*
X36039446Y28743431D01*
X36039446Y28743431D02*
X35931696Y28797306D01*
X35931696Y28797306D02*
X35877822Y28851180D01*
X35877822Y28851180D02*
X35823947Y28958930D01*
X35823947Y28958930D02*
X35823947Y29066680D01*
X35823947Y29066680D02*
X35850884Y29147492D01*
X35850884Y29147492D02*
X35931696Y29282179D01*
X35931696Y29282179D02*
X36012509Y29362991D01*
X36012509Y29362991D02*
X36147196Y29443803D01*
X36147196Y29443803D02*
X36228008Y29470741D01*
X36228008Y29470741D02*
X36335757Y29470741D01*
X36335757Y29470741D02*
X36443507Y29416866D01*
X36443507Y29416866D02*
X36497382Y29362991D01*
X36497382Y29362991D02*
X36551257Y29255242D01*
X36551257Y29255242D02*
X36551257Y29201367D01*
X36766756Y28985867D02*
X36820631Y28985867D01*
X36820631Y28985867D02*
X36901443Y28958930D01*
X36901443Y28958930D02*
X37036130Y28824243D01*
X37036130Y28824243D02*
X37063067Y28743431D01*
X37063067Y28743431D02*
X37063067Y28689556D01*
X37063067Y28689556D02*
X37036130Y28608744D01*
X37036130Y28608744D02*
X36982255Y28554869D01*
X36982255Y28554869D02*
X36874505Y28500994D01*
X36874505Y28500994D02*
X36228008Y28500994D01*
X36228008Y28500994D02*
X36578194Y28150808D01*
X37440191Y28043058D02*
X37063067Y27665935D01*
X37521003Y28393244D02*
X36982255Y28123870D01*
X36982255Y28123870D02*
X37332441Y27773684D01*
X36493514Y34427535D02*
X36455418Y34389440D01*
X36455418Y34389440D02*
X36341133Y34351344D01*
X36341133Y34351344D02*
X36264942Y34351344D01*
X36264942Y34351344D02*
X36150656Y34389440D01*
X36150656Y34389440D02*
X36074466Y34465630D01*
X36074466Y34465630D02*
X36036371Y34541820D01*
X36036371Y34541820D02*
X35998275Y34694201D01*
X35998275Y34694201D02*
X35998275Y34808487D01*
X35998275Y34808487D02*
X36036371Y34960868D01*
X36036371Y34960868D02*
X36074466Y35037059D01*
X36074466Y35037059D02*
X36150656Y35113249D01*
X36150656Y35113249D02*
X36264942Y35151344D01*
X36264942Y35151344D02*
X36341133Y35151344D01*
X36341133Y35151344D02*
X36455418Y35113249D01*
X36455418Y35113249D02*
X36493514Y35075154D01*
X36798275Y35075154D02*
X36836371Y35113249D01*
X36836371Y35113249D02*
X36912561Y35151344D01*
X36912561Y35151344D02*
X37103037Y35151344D01*
X37103037Y35151344D02*
X37179228Y35113249D01*
X37179228Y35113249D02*
X37217323Y35075154D01*
X37217323Y35075154D02*
X37255418Y34998963D01*
X37255418Y34998963D02*
X37255418Y34922773D01*
X37255418Y34922773D02*
X37217323Y34808487D01*
X37217323Y34808487D02*
X36760180Y34351344D01*
X36760180Y34351344D02*
X37255418Y34351344D01*
X37979228Y35151344D02*
X37598276Y35151344D01*
X37598276Y35151344D02*
X37560180Y34770392D01*
X37560180Y34770392D02*
X37598276Y34808487D01*
X37598276Y34808487D02*
X37674466Y34846582D01*
X37674466Y34846582D02*
X37864942Y34846582D01*
X37864942Y34846582D02*
X37941133Y34808487D01*
X37941133Y34808487D02*
X37979228Y34770392D01*
X37979228Y34770392D02*
X38017323Y34694201D01*
X38017323Y34694201D02*
X38017323Y34503725D01*
X38017323Y34503725D02*
X37979228Y34427535D01*
X37979228Y34427535D02*
X37941133Y34389440D01*
X37941133Y34389440D02*
X37864942Y34351344D01*
X37864942Y34351344D02*
X37674466Y34351344D01*
X37674466Y34351344D02*
X37598276Y34389440D01*
X37598276Y34389440D02*
X37560180Y34427535D01*
X4464124Y38034344D02*
X4464124Y38834344D01*
X4464124Y38834344D02*
X4654600Y38834344D01*
X4654600Y38834344D02*
X4768886Y38796249D01*
X4768886Y38796249D02*
X4845076Y38720059D01*
X4845076Y38720059D02*
X4883171Y38643868D01*
X4883171Y38643868D02*
X4921267Y38491487D01*
X4921267Y38491487D02*
X4921267Y38377201D01*
X4921267Y38377201D02*
X4883171Y38224820D01*
X4883171Y38224820D02*
X4845076Y38148630D01*
X4845076Y38148630D02*
X4768886Y38072440D01*
X4768886Y38072440D02*
X4654600Y38034344D01*
X4654600Y38034344D02*
X4464124Y38034344D01*
X5226028Y38758154D02*
X5264124Y38796249D01*
X5264124Y38796249D02*
X5340314Y38834344D01*
X5340314Y38834344D02*
X5530790Y38834344D01*
X5530790Y38834344D02*
X5606981Y38796249D01*
X5606981Y38796249D02*
X5645076Y38758154D01*
X5645076Y38758154D02*
X5683171Y38681963D01*
X5683171Y38681963D02*
X5683171Y38605773D01*
X5683171Y38605773D02*
X5645076Y38491487D01*
X5645076Y38491487D02*
X5187933Y38034344D01*
X5187933Y38034344D02*
X5683171Y38034344D01*
X4464124Y39101144D02*
X4464124Y39901144D01*
X4464124Y39901144D02*
X4654600Y39901144D01*
X4654600Y39901144D02*
X4768886Y39863049D01*
X4768886Y39863049D02*
X4845076Y39786859D01*
X4845076Y39786859D02*
X4883171Y39710668D01*
X4883171Y39710668D02*
X4921267Y39558287D01*
X4921267Y39558287D02*
X4921267Y39444001D01*
X4921267Y39444001D02*
X4883171Y39291620D01*
X4883171Y39291620D02*
X4845076Y39215430D01*
X4845076Y39215430D02*
X4768886Y39139240D01*
X4768886Y39139240D02*
X4654600Y39101144D01*
X4654600Y39101144D02*
X4464124Y39101144D01*
X5187933Y39901144D02*
X5683171Y39901144D01*
X5683171Y39901144D02*
X5416505Y39596382D01*
X5416505Y39596382D02*
X5530790Y39596382D01*
X5530790Y39596382D02*
X5606981Y39558287D01*
X5606981Y39558287D02*
X5645076Y39520192D01*
X5645076Y39520192D02*
X5683171Y39444001D01*
X5683171Y39444001D02*
X5683171Y39253525D01*
X5683171Y39253525D02*
X5645076Y39177335D01*
X5645076Y39177335D02*
X5606981Y39139240D01*
X5606981Y39139240D02*
X5530790Y39101144D01*
X5530790Y39101144D02*
X5302219Y39101144D01*
X5302219Y39101144D02*
X5226028Y39139240D01*
X5226028Y39139240D02*
X5187933Y39177335D01*
X4464124Y40244144D02*
X4464124Y41044144D01*
X4464124Y41044144D02*
X4654600Y41044144D01*
X4654600Y41044144D02*
X4768886Y41006049D01*
X4768886Y41006049D02*
X4845076Y40929859D01*
X4845076Y40929859D02*
X4883171Y40853668D01*
X4883171Y40853668D02*
X4921267Y40701287D01*
X4921267Y40701287D02*
X4921267Y40587001D01*
X4921267Y40587001D02*
X4883171Y40434620D01*
X4883171Y40434620D02*
X4845076Y40358430D01*
X4845076Y40358430D02*
X4768886Y40282240D01*
X4768886Y40282240D02*
X4654600Y40244144D01*
X4654600Y40244144D02*
X4464124Y40244144D01*
X5606981Y40777478D02*
X5606981Y40244144D01*
X5416505Y41082240D02*
X5226028Y40510811D01*
X5226028Y40510811D02*
X5721267Y40510811D01*
X4210124Y42123744D02*
X4210124Y42923744D01*
X4210124Y42923744D02*
X4400600Y42923744D01*
X4400600Y42923744D02*
X4514886Y42885649D01*
X4514886Y42885649D02*
X4591076Y42809459D01*
X4591076Y42809459D02*
X4629171Y42733268D01*
X4629171Y42733268D02*
X4667267Y42580887D01*
X4667267Y42580887D02*
X4667267Y42466601D01*
X4667267Y42466601D02*
X4629171Y42314220D01*
X4629171Y42314220D02*
X4591076Y42238030D01*
X4591076Y42238030D02*
X4514886Y42161840D01*
X4514886Y42161840D02*
X4400600Y42123744D01*
X4400600Y42123744D02*
X4210124Y42123744D01*
X5391076Y42923744D02*
X5010124Y42923744D01*
X5010124Y42923744D02*
X4972028Y42542792D01*
X4972028Y42542792D02*
X5010124Y42580887D01*
X5010124Y42580887D02*
X5086314Y42618982D01*
X5086314Y42618982D02*
X5276790Y42618982D01*
X5276790Y42618982D02*
X5352981Y42580887D01*
X5352981Y42580887D02*
X5391076Y42542792D01*
X5391076Y42542792D02*
X5429171Y42466601D01*
X5429171Y42466601D02*
X5429171Y42276125D01*
X5429171Y42276125D02*
X5391076Y42199935D01*
X5391076Y42199935D02*
X5352981Y42161840D01*
X5352981Y42161840D02*
X5276790Y42123744D01*
X5276790Y42123744D02*
X5086314Y42123744D01*
X5086314Y42123744D02*
X5010124Y42161840D01*
X5010124Y42161840D02*
X4972028Y42199935D01*
X4210124Y42936544D02*
X4210124Y43736544D01*
X4210124Y43736544D02*
X4400600Y43736544D01*
X4400600Y43736544D02*
X4514886Y43698449D01*
X4514886Y43698449D02*
X4591076Y43622259D01*
X4591076Y43622259D02*
X4629171Y43546068D01*
X4629171Y43546068D02*
X4667267Y43393687D01*
X4667267Y43393687D02*
X4667267Y43279401D01*
X4667267Y43279401D02*
X4629171Y43127020D01*
X4629171Y43127020D02*
X4591076Y43050830D01*
X4591076Y43050830D02*
X4514886Y42974640D01*
X4514886Y42974640D02*
X4400600Y42936544D01*
X4400600Y42936544D02*
X4210124Y42936544D01*
X5352981Y43736544D02*
X5200600Y43736544D01*
X5200600Y43736544D02*
X5124409Y43698449D01*
X5124409Y43698449D02*
X5086314Y43660354D01*
X5086314Y43660354D02*
X5010124Y43546068D01*
X5010124Y43546068D02*
X4972028Y43393687D01*
X4972028Y43393687D02*
X4972028Y43088925D01*
X4972028Y43088925D02*
X5010124Y43012735D01*
X5010124Y43012735D02*
X5048219Y42974640D01*
X5048219Y42974640D02*
X5124409Y42936544D01*
X5124409Y42936544D02*
X5276790Y42936544D01*
X5276790Y42936544D02*
X5352981Y42974640D01*
X5352981Y42974640D02*
X5391076Y43012735D01*
X5391076Y43012735D02*
X5429171Y43088925D01*
X5429171Y43088925D02*
X5429171Y43279401D01*
X5429171Y43279401D02*
X5391076Y43355592D01*
X5391076Y43355592D02*
X5352981Y43393687D01*
X5352981Y43393687D02*
X5276790Y43431782D01*
X5276790Y43431782D02*
X5124409Y43431782D01*
X5124409Y43431782D02*
X5048219Y43393687D01*
X5048219Y43393687D02*
X5010124Y43355592D01*
X5010124Y43355592D02*
X4972028Y43279401D01*
X4210124Y43774744D02*
X4210124Y44574744D01*
X4210124Y44574744D02*
X4400600Y44574744D01*
X4400600Y44574744D02*
X4514886Y44536649D01*
X4514886Y44536649D02*
X4591076Y44460459D01*
X4591076Y44460459D02*
X4629171Y44384268D01*
X4629171Y44384268D02*
X4667267Y44231887D01*
X4667267Y44231887D02*
X4667267Y44117601D01*
X4667267Y44117601D02*
X4629171Y43965220D01*
X4629171Y43965220D02*
X4591076Y43889030D01*
X4591076Y43889030D02*
X4514886Y43812840D01*
X4514886Y43812840D02*
X4400600Y43774744D01*
X4400600Y43774744D02*
X4210124Y43774744D01*
X4933933Y44574744D02*
X5467267Y44574744D01*
X5467267Y44574744D02*
X5124409Y43774744D01*
X28903228Y6317582D02*
X28103228Y6317582D01*
X28103228Y6317582D02*
X28103228Y6508058D01*
X28103228Y6508058D02*
X28141323Y6622344D01*
X28141323Y6622344D02*
X28217513Y6698534D01*
X28217513Y6698534D02*
X28293704Y6736629D01*
X28293704Y6736629D02*
X28446085Y6774725D01*
X28446085Y6774725D02*
X28560371Y6774725D01*
X28560371Y6774725D02*
X28712752Y6736629D01*
X28712752Y6736629D02*
X28788942Y6698534D01*
X28788942Y6698534D02*
X28865133Y6622344D01*
X28865133Y6622344D02*
X28903228Y6508058D01*
X28903228Y6508058D02*
X28903228Y6317582D01*
X28903228Y7155677D02*
X28903228Y7308058D01*
X28903228Y7308058D02*
X28865133Y7384248D01*
X28865133Y7384248D02*
X28827037Y7422344D01*
X28827037Y7422344D02*
X28712752Y7498534D01*
X28712752Y7498534D02*
X28560371Y7536629D01*
X28560371Y7536629D02*
X28255609Y7536629D01*
X28255609Y7536629D02*
X28179418Y7498534D01*
X28179418Y7498534D02*
X28141323Y7460439D01*
X28141323Y7460439D02*
X28103228Y7384248D01*
X28103228Y7384248D02*
X28103228Y7231867D01*
X28103228Y7231867D02*
X28141323Y7155677D01*
X28141323Y7155677D02*
X28179418Y7117582D01*
X28179418Y7117582D02*
X28255609Y7079486D01*
X28255609Y7079486D02*
X28446085Y7079486D01*
X28446085Y7079486D02*
X28522275Y7117582D01*
X28522275Y7117582D02*
X28560371Y7155677D01*
X28560371Y7155677D02*
X28598466Y7231867D01*
X28598466Y7231867D02*
X28598466Y7384248D01*
X28598466Y7384248D02*
X28560371Y7460439D01*
X28560371Y7460439D02*
X28522275Y7498534D01*
X28522275Y7498534D02*
X28446085Y7536629D01*
X30055626Y5936629D02*
X29255626Y5936629D01*
X29255626Y5936629D02*
X29255626Y6127105D01*
X29255626Y6127105D02*
X29293721Y6241391D01*
X29293721Y6241391D02*
X29369911Y6317581D01*
X29369911Y6317581D02*
X29446102Y6355676D01*
X29446102Y6355676D02*
X29598483Y6393772D01*
X29598483Y6393772D02*
X29712769Y6393772D01*
X29712769Y6393772D02*
X29865150Y6355676D01*
X29865150Y6355676D02*
X29941340Y6317581D01*
X29941340Y6317581D02*
X30017531Y6241391D01*
X30017531Y6241391D02*
X30055626Y6127105D01*
X30055626Y6127105D02*
X30055626Y5936629D01*
X30055626Y7155676D02*
X30055626Y6698533D01*
X30055626Y6927105D02*
X29255626Y6927105D01*
X29255626Y6927105D02*
X29369911Y6850914D01*
X29369911Y6850914D02*
X29446102Y6774724D01*
X29446102Y6774724D02*
X29484197Y6698533D01*
X30055626Y7917581D02*
X30055626Y7460438D01*
X30055626Y7689010D02*
X29255626Y7689010D01*
X29255626Y7689010D02*
X29369911Y7612819D01*
X29369911Y7612819D02*
X29446102Y7536629D01*
X29446102Y7536629D02*
X29484197Y7460438D01*
X6898255Y25346578D02*
X6098255Y25346578D01*
X6098255Y25346578D02*
X6098255Y25537054D01*
X6098255Y25537054D02*
X6136350Y25651340D01*
X6136350Y25651340D02*
X6212540Y25727530D01*
X6212540Y25727530D02*
X6288731Y25765625D01*
X6288731Y25765625D02*
X6441112Y25803721D01*
X6441112Y25803721D02*
X6555398Y25803721D01*
X6555398Y25803721D02*
X6707779Y25765625D01*
X6707779Y25765625D02*
X6783969Y25727530D01*
X6783969Y25727530D02*
X6860160Y25651340D01*
X6860160Y25651340D02*
X6898255Y25537054D01*
X6898255Y25537054D02*
X6898255Y25346578D01*
X6898255Y26565625D02*
X6898255Y26108482D01*
X6898255Y26337054D02*
X6098255Y26337054D01*
X6098255Y26337054D02*
X6212540Y26260863D01*
X6212540Y26260863D02*
X6288731Y26184673D01*
X6288731Y26184673D02*
X6326826Y26108482D01*
X6098255Y26832292D02*
X6098255Y27327530D01*
X6098255Y27327530D02*
X6403017Y27060864D01*
X6403017Y27060864D02*
X6403017Y27175149D01*
X6403017Y27175149D02*
X6441112Y27251340D01*
X6441112Y27251340D02*
X6479207Y27289435D01*
X6479207Y27289435D02*
X6555398Y27327530D01*
X6555398Y27327530D02*
X6745874Y27327530D01*
X6745874Y27327530D02*
X6822064Y27289435D01*
X6822064Y27289435D02*
X6860160Y27251340D01*
X6860160Y27251340D02*
X6898255Y27175149D01*
X6898255Y27175149D02*
X6898255Y26946578D01*
X6898255Y26946578D02*
X6860160Y26870387D01*
X6860160Y26870387D02*
X6822064Y26832292D01*
X10861069Y23133171D02*
X10061069Y23133171D01*
X10061069Y23133171D02*
X10061069Y23323647D01*
X10061069Y23323647D02*
X10099164Y23437933D01*
X10099164Y23437933D02*
X10175354Y23514123D01*
X10175354Y23514123D02*
X10251545Y23552218D01*
X10251545Y23552218D02*
X10403926Y23590314D01*
X10403926Y23590314D02*
X10518212Y23590314D01*
X10518212Y23590314D02*
X10670593Y23552218D01*
X10670593Y23552218D02*
X10746783Y23514123D01*
X10746783Y23514123D02*
X10822974Y23437933D01*
X10822974Y23437933D02*
X10861069Y23323647D01*
X10861069Y23323647D02*
X10861069Y23133171D01*
X10861069Y24352218D02*
X10861069Y23895075D01*
X10861069Y24123647D02*
X10061069Y24123647D01*
X10061069Y24123647D02*
X10175354Y24047456D01*
X10175354Y24047456D02*
X10251545Y23971266D01*
X10251545Y23971266D02*
X10289640Y23895075D01*
X10327735Y25037933D02*
X10861069Y25037933D01*
X10022974Y24847457D02*
X10594402Y24656980D01*
X10594402Y24656980D02*
X10594402Y25152219D01*
X16406428Y5936629D02*
X15606428Y5936629D01*
X15606428Y5936629D02*
X15606428Y6127105D01*
X15606428Y6127105D02*
X15644523Y6241391D01*
X15644523Y6241391D02*
X15720713Y6317581D01*
X15720713Y6317581D02*
X15796904Y6355676D01*
X15796904Y6355676D02*
X15949285Y6393772D01*
X15949285Y6393772D02*
X16063571Y6393772D01*
X16063571Y6393772D02*
X16215952Y6355676D01*
X16215952Y6355676D02*
X16292142Y6317581D01*
X16292142Y6317581D02*
X16368333Y6241391D01*
X16368333Y6241391D02*
X16406428Y6127105D01*
X16406428Y6127105D02*
X16406428Y5936629D01*
X16406428Y7155676D02*
X16406428Y6698533D01*
X16406428Y6927105D02*
X15606428Y6927105D01*
X15606428Y6927105D02*
X15720713Y6850914D01*
X15720713Y6850914D02*
X15796904Y6774724D01*
X15796904Y6774724D02*
X15834999Y6698533D01*
X15606428Y7879486D02*
X15606428Y7498534D01*
X15606428Y7498534D02*
X15987380Y7460438D01*
X15987380Y7460438D02*
X15949285Y7498534D01*
X15949285Y7498534D02*
X15911190Y7574724D01*
X15911190Y7574724D02*
X15911190Y7765200D01*
X15911190Y7765200D02*
X15949285Y7841391D01*
X15949285Y7841391D02*
X15987380Y7879486D01*
X15987380Y7879486D02*
X16063571Y7917581D01*
X16063571Y7917581D02*
X16254047Y7917581D01*
X16254047Y7917581D02*
X16330237Y7879486D01*
X16330237Y7879486D02*
X16368333Y7841391D01*
X16368333Y7841391D02*
X16406428Y7765200D01*
X16406428Y7765200D02*
X16406428Y7574724D01*
X16406428Y7574724D02*
X16368333Y7498534D01*
X16368333Y7498534D02*
X16330237Y7460438D01*
X17558826Y5936629D02*
X16758826Y5936629D01*
X16758826Y5936629D02*
X16758826Y6127105D01*
X16758826Y6127105D02*
X16796921Y6241391D01*
X16796921Y6241391D02*
X16873111Y6317581D01*
X16873111Y6317581D02*
X16949302Y6355676D01*
X16949302Y6355676D02*
X17101683Y6393772D01*
X17101683Y6393772D02*
X17215969Y6393772D01*
X17215969Y6393772D02*
X17368350Y6355676D01*
X17368350Y6355676D02*
X17444540Y6317581D01*
X17444540Y6317581D02*
X17520731Y6241391D01*
X17520731Y6241391D02*
X17558826Y6127105D01*
X17558826Y6127105D02*
X17558826Y5936629D01*
X17558826Y7155676D02*
X17558826Y6698533D01*
X17558826Y6927105D02*
X16758826Y6927105D01*
X16758826Y6927105D02*
X16873111Y6850914D01*
X16873111Y6850914D02*
X16949302Y6774724D01*
X16949302Y6774724D02*
X16987397Y6698533D01*
X16758826Y7841391D02*
X16758826Y7689010D01*
X16758826Y7689010D02*
X16796921Y7612819D01*
X16796921Y7612819D02*
X16835016Y7574724D01*
X16835016Y7574724D02*
X16949302Y7498534D01*
X16949302Y7498534D02*
X17101683Y7460438D01*
X17101683Y7460438D02*
X17406445Y7460438D01*
X17406445Y7460438D02*
X17482635Y7498534D01*
X17482635Y7498534D02*
X17520731Y7536629D01*
X17520731Y7536629D02*
X17558826Y7612819D01*
X17558826Y7612819D02*
X17558826Y7765200D01*
X17558826Y7765200D02*
X17520731Y7841391D01*
X17520731Y7841391D02*
X17482635Y7879486D01*
X17482635Y7879486D02*
X17406445Y7917581D01*
X17406445Y7917581D02*
X17215969Y7917581D01*
X17215969Y7917581D02*
X17139778Y7879486D01*
X17139778Y7879486D02*
X17101683Y7841391D01*
X17101683Y7841391D02*
X17063588Y7765200D01*
X17063588Y7765200D02*
X17063588Y7612819D01*
X17063588Y7612819D02*
X17101683Y7536629D01*
X17101683Y7536629D02*
X17139778Y7498534D01*
X17139778Y7498534D02*
X17215969Y7460438D01*
X54929655Y33991562D02*
X54548702Y33724895D01*
X54929655Y33534419D02*
X54129655Y33534419D01*
X54129655Y33534419D02*
X54129655Y33839181D01*
X54129655Y33839181D02*
X54167750Y33915371D01*
X54167750Y33915371D02*
X54205845Y33953466D01*
X54205845Y33953466D02*
X54282036Y33991562D01*
X54282036Y33991562D02*
X54396321Y33991562D01*
X54396321Y33991562D02*
X54472512Y33953466D01*
X54472512Y33953466D02*
X54510607Y33915371D01*
X54510607Y33915371D02*
X54548702Y33839181D01*
X54548702Y33839181D02*
X54548702Y33534419D01*
X54853464Y34448704D02*
X54891560Y34486800D01*
X54891560Y34486800D02*
X54929655Y34448704D01*
X54929655Y34448704D02*
X54891560Y34410609D01*
X54891560Y34410609D02*
X54853464Y34448704D01*
X54853464Y34448704D02*
X54929655Y34448704D01*
X54167750Y34296323D02*
X54129655Y34372514D01*
X54129655Y34372514D02*
X54129655Y34562990D01*
X54129655Y34562990D02*
X54167750Y34639181D01*
X54167750Y34639181D02*
X54243940Y34677276D01*
X54243940Y34677276D02*
X54320131Y34677276D01*
X54320131Y34677276D02*
X54396321Y34639181D01*
X54396321Y34639181D02*
X54434417Y34601085D01*
X54434417Y34601085D02*
X54472512Y34524895D01*
X54472512Y34524895D02*
X54510607Y34486800D01*
X54510607Y34486800D02*
X54586798Y34448704D01*
X54586798Y34448704D02*
X54624893Y34448704D01*
X53862855Y33991562D02*
X53481902Y33724895D01*
X53862855Y33534419D02*
X53062855Y33534419D01*
X53062855Y33534419D02*
X53062855Y33839181D01*
X53062855Y33839181D02*
X53100950Y33915371D01*
X53100950Y33915371D02*
X53139045Y33953466D01*
X53139045Y33953466D02*
X53215236Y33991562D01*
X53215236Y33991562D02*
X53329521Y33991562D01*
X53329521Y33991562D02*
X53405712Y33953466D01*
X53405712Y33953466D02*
X53443807Y33915371D01*
X53443807Y33915371D02*
X53481902Y33839181D01*
X53481902Y33839181D02*
X53481902Y33534419D01*
X53786664Y34448704D02*
X53824760Y34486800D01*
X53824760Y34486800D02*
X53862855Y34448704D01*
X53862855Y34448704D02*
X53824760Y34410609D01*
X53824760Y34410609D02*
X53786664Y34448704D01*
X53786664Y34448704D02*
X53862855Y34448704D01*
X53100950Y34296323D02*
X53062855Y34372514D01*
X53062855Y34372514D02*
X53062855Y34562990D01*
X53062855Y34562990D02*
X53100950Y34639181D01*
X53100950Y34639181D02*
X53177140Y34677276D01*
X53177140Y34677276D02*
X53253331Y34677276D01*
X53253331Y34677276D02*
X53329521Y34639181D01*
X53329521Y34639181D02*
X53367617Y34601085D01*
X53367617Y34601085D02*
X53405712Y34524895D01*
X53405712Y34524895D02*
X53443807Y34486800D01*
X53443807Y34486800D02*
X53519998Y34448704D01*
X53519998Y34448704D02*
X53558093Y34448704D01*
X39452562Y25271344D02*
X39185895Y25652297D01*
X38995419Y25271344D02*
X38995419Y26071344D01*
X38995419Y26071344D02*
X39300181Y26071344D01*
X39300181Y26071344D02*
X39376371Y26033249D01*
X39376371Y26033249D02*
X39414466Y25995154D01*
X39414466Y25995154D02*
X39452562Y25918963D01*
X39452562Y25918963D02*
X39452562Y25804678D01*
X39452562Y25804678D02*
X39414466Y25728487D01*
X39414466Y25728487D02*
X39376371Y25690392D01*
X39376371Y25690392D02*
X39300181Y25652297D01*
X39300181Y25652297D02*
X38995419Y25652297D01*
X39909704Y25347535D02*
X39947800Y25309440D01*
X39947800Y25309440D02*
X39909704Y25271344D01*
X39909704Y25271344D02*
X39871609Y25309440D01*
X39871609Y25309440D02*
X39909704Y25347535D01*
X39909704Y25347535D02*
X39909704Y25271344D01*
X39757323Y26033249D02*
X39833514Y26071344D01*
X39833514Y26071344D02*
X40023990Y26071344D01*
X40023990Y26071344D02*
X40100181Y26033249D01*
X40100181Y26033249D02*
X40138276Y25957059D01*
X40138276Y25957059D02*
X40138276Y25880868D01*
X40138276Y25880868D02*
X40100181Y25804678D01*
X40100181Y25804678D02*
X40062085Y25766582D01*
X40062085Y25766582D02*
X39985895Y25728487D01*
X39985895Y25728487D02*
X39947800Y25690392D01*
X39947800Y25690392D02*
X39909704Y25614201D01*
X39909704Y25614201D02*
X39909704Y25576106D01*
X18988655Y32188162D02*
X18607702Y31921495D01*
X18988655Y31731019D02*
X18188655Y31731019D01*
X18188655Y31731019D02*
X18188655Y32035781D01*
X18188655Y32035781D02*
X18226750Y32111971D01*
X18226750Y32111971D02*
X18264845Y32150066D01*
X18264845Y32150066D02*
X18341036Y32188162D01*
X18341036Y32188162D02*
X18455321Y32188162D01*
X18455321Y32188162D02*
X18531512Y32150066D01*
X18531512Y32150066D02*
X18569607Y32111971D01*
X18569607Y32111971D02*
X18607702Y32035781D01*
X18607702Y32035781D02*
X18607702Y31731019D01*
X18912464Y32645304D02*
X18950560Y32683400D01*
X18950560Y32683400D02*
X18988655Y32645304D01*
X18988655Y32645304D02*
X18950560Y32607209D01*
X18950560Y32607209D02*
X18912464Y32645304D01*
X18912464Y32645304D02*
X18988655Y32645304D01*
X18226750Y32492923D02*
X18188655Y32569114D01*
X18188655Y32569114D02*
X18188655Y32759590D01*
X18188655Y32759590D02*
X18226750Y32835781D01*
X18226750Y32835781D02*
X18302940Y32873876D01*
X18302940Y32873876D02*
X18379131Y32873876D01*
X18379131Y32873876D02*
X18455321Y32835781D01*
X18455321Y32835781D02*
X18493417Y32797685D01*
X18493417Y32797685D02*
X18531512Y32721495D01*
X18531512Y32721495D02*
X18569607Y32683400D01*
X18569607Y32683400D02*
X18645798Y32645304D01*
X18645798Y32645304D02*
X18683893Y32645304D01*
X18988655Y30283162D02*
X18607702Y30016495D01*
X18988655Y29826019D02*
X18188655Y29826019D01*
X18188655Y29826019D02*
X18188655Y30130781D01*
X18188655Y30130781D02*
X18226750Y30206971D01*
X18226750Y30206971D02*
X18264845Y30245066D01*
X18264845Y30245066D02*
X18341036Y30283162D01*
X18341036Y30283162D02*
X18455321Y30283162D01*
X18455321Y30283162D02*
X18531512Y30245066D01*
X18531512Y30245066D02*
X18569607Y30206971D01*
X18569607Y30206971D02*
X18607702Y30130781D01*
X18607702Y30130781D02*
X18607702Y29826019D01*
X18912464Y30740304D02*
X18950560Y30778400D01*
X18950560Y30778400D02*
X18988655Y30740304D01*
X18988655Y30740304D02*
X18950560Y30702209D01*
X18950560Y30702209D02*
X18912464Y30740304D01*
X18912464Y30740304D02*
X18988655Y30740304D01*
X18226750Y30587923D02*
X18188655Y30664114D01*
X18188655Y30664114D02*
X18188655Y30854590D01*
X18188655Y30854590D02*
X18226750Y30930781D01*
X18226750Y30930781D02*
X18302940Y30968876D01*
X18302940Y30968876D02*
X18379131Y30968876D01*
X18379131Y30968876D02*
X18455321Y30930781D01*
X18455321Y30930781D02*
X18493417Y30892685D01*
X18493417Y30892685D02*
X18531512Y30816495D01*
X18531512Y30816495D02*
X18569607Y30778400D01*
X18569607Y30778400D02*
X18645798Y30740304D01*
X18645798Y30740304D02*
X18683893Y30740304D01*
X26343754Y28537958D02*
X25885818Y28618770D01*
X26020505Y28214709D02*
X25454819Y28780394D01*
X25454819Y28780394D02*
X25670319Y28995893D01*
X25670319Y28995893D02*
X25751131Y29022831D01*
X25751131Y29022831D02*
X25805006Y29022831D01*
X25805006Y29022831D02*
X25885818Y28995893D01*
X25885818Y28995893D02*
X25966630Y28915081D01*
X25966630Y28915081D02*
X25993567Y28834269D01*
X25993567Y28834269D02*
X25993567Y28780394D01*
X25993567Y28780394D02*
X25966630Y28699582D01*
X25966630Y28699582D02*
X25751131Y28484083D01*
X26613128Y28915081D02*
X26667002Y28915081D01*
X26667002Y28915081D02*
X26667002Y28861206D01*
X26667002Y28861206D02*
X26613128Y28861206D01*
X26613128Y28861206D02*
X26613128Y28915081D01*
X26613128Y28915081D02*
X26667002Y28861206D01*
X26020505Y29292205D02*
X26047442Y29373017D01*
X26047442Y29373017D02*
X26182129Y29507704D01*
X26182129Y29507704D02*
X26262941Y29534641D01*
X26262941Y29534641D02*
X26343754Y29507704D01*
X26343754Y29507704D02*
X26397628Y29453829D01*
X26397628Y29453829D02*
X26424566Y29373017D01*
X26424566Y29373017D02*
X26424566Y29319142D01*
X26424566Y29319142D02*
X26397628Y29238330D01*
X26397628Y29238330D02*
X26397628Y29184455D01*
X26397628Y29184455D02*
X26424566Y29103643D01*
X26424566Y29103643D02*
X26451503Y29076706D01*
X51157255Y11842762D02*
X50776302Y11576095D01*
X51157255Y11385619D02*
X50357255Y11385619D01*
X50357255Y11385619D02*
X50357255Y11690381D01*
X50357255Y11690381D02*
X50395350Y11766571D01*
X50395350Y11766571D02*
X50433445Y11804666D01*
X50433445Y11804666D02*
X50509636Y11842762D01*
X50509636Y11842762D02*
X50623921Y11842762D01*
X50623921Y11842762D02*
X50700112Y11804666D01*
X50700112Y11804666D02*
X50738207Y11766571D01*
X50738207Y11766571D02*
X50776302Y11690381D01*
X50776302Y11690381D02*
X50776302Y11385619D01*
X51081064Y12299904D02*
X51119160Y12338000D01*
X51119160Y12338000D02*
X51157255Y12299904D01*
X51157255Y12299904D02*
X51119160Y12261809D01*
X51119160Y12261809D02*
X51081064Y12299904D01*
X51081064Y12299904D02*
X51157255Y12299904D01*
X50395350Y12147523D02*
X50357255Y12223714D01*
X50357255Y12223714D02*
X50357255Y12414190D01*
X50357255Y12414190D02*
X50395350Y12490381D01*
X50395350Y12490381D02*
X50471540Y12528476D01*
X50471540Y12528476D02*
X50547731Y12528476D01*
X50547731Y12528476D02*
X50623921Y12490381D01*
X50623921Y12490381D02*
X50662017Y12452285D01*
X50662017Y12452285D02*
X50700112Y12376095D01*
X50700112Y12376095D02*
X50738207Y12338000D01*
X50738207Y12338000D02*
X50814398Y12299904D01*
X50814398Y12299904D02*
X50852493Y12299904D01*
X50014255Y11842762D02*
X49633302Y11576095D01*
X50014255Y11385619D02*
X49214255Y11385619D01*
X49214255Y11385619D02*
X49214255Y11690381D01*
X49214255Y11690381D02*
X49252350Y11766571D01*
X49252350Y11766571D02*
X49290445Y11804666D01*
X49290445Y11804666D02*
X49366636Y11842762D01*
X49366636Y11842762D02*
X49480921Y11842762D01*
X49480921Y11842762D02*
X49557112Y11804666D01*
X49557112Y11804666D02*
X49595207Y11766571D01*
X49595207Y11766571D02*
X49633302Y11690381D01*
X49633302Y11690381D02*
X49633302Y11385619D01*
X49938064Y12299904D02*
X49976160Y12338000D01*
X49976160Y12338000D02*
X50014255Y12299904D01*
X50014255Y12299904D02*
X49976160Y12261809D01*
X49976160Y12261809D02*
X49938064Y12299904D01*
X49938064Y12299904D02*
X50014255Y12299904D01*
X49252350Y12147523D02*
X49214255Y12223714D01*
X49214255Y12223714D02*
X49214255Y12414190D01*
X49214255Y12414190D02*
X49252350Y12490381D01*
X49252350Y12490381D02*
X49328540Y12528476D01*
X49328540Y12528476D02*
X49404731Y12528476D01*
X49404731Y12528476D02*
X49480921Y12490381D01*
X49480921Y12490381D02*
X49519017Y12452285D01*
X49519017Y12452285D02*
X49557112Y12376095D01*
X49557112Y12376095D02*
X49595207Y12338000D01*
X49595207Y12338000D02*
X49671398Y12299904D01*
X49671398Y12299904D02*
X49709493Y12299904D01*
X41916362Y37475544D02*
X41649695Y37856497D01*
X41459219Y37475544D02*
X41459219Y38275544D01*
X41459219Y38275544D02*
X41763981Y38275544D01*
X41763981Y38275544D02*
X41840171Y38237449D01*
X41840171Y38237449D02*
X41878266Y38199354D01*
X41878266Y38199354D02*
X41916362Y38123163D01*
X41916362Y38123163D02*
X41916362Y38008878D01*
X41916362Y38008878D02*
X41878266Y37932687D01*
X41878266Y37932687D02*
X41840171Y37894592D01*
X41840171Y37894592D02*
X41763981Y37856497D01*
X41763981Y37856497D02*
X41459219Y37856497D01*
X42373504Y37551735D02*
X42411600Y37513640D01*
X42411600Y37513640D02*
X42373504Y37475544D01*
X42373504Y37475544D02*
X42335409Y37513640D01*
X42335409Y37513640D02*
X42373504Y37551735D01*
X42373504Y37551735D02*
X42373504Y37475544D01*
X42221123Y38237449D02*
X42297314Y38275544D01*
X42297314Y38275544D02*
X42487790Y38275544D01*
X42487790Y38275544D02*
X42563981Y38237449D01*
X42563981Y38237449D02*
X42602076Y38161259D01*
X42602076Y38161259D02*
X42602076Y38085068D01*
X42602076Y38085068D02*
X42563981Y38008878D01*
X42563981Y38008878D02*
X42525885Y37970782D01*
X42525885Y37970782D02*
X42449695Y37932687D01*
X42449695Y37932687D02*
X42411600Y37894592D01*
X42411600Y37894592D02*
X42373504Y37818401D01*
X42373504Y37818401D02*
X42373504Y37780306D01*
X48795055Y11842762D02*
X48414102Y11576095D01*
X48795055Y11385619D02*
X47995055Y11385619D01*
X47995055Y11385619D02*
X47995055Y11690381D01*
X47995055Y11690381D02*
X48033150Y11766571D01*
X48033150Y11766571D02*
X48071245Y11804666D01*
X48071245Y11804666D02*
X48147436Y11842762D01*
X48147436Y11842762D02*
X48261721Y11842762D01*
X48261721Y11842762D02*
X48337912Y11804666D01*
X48337912Y11804666D02*
X48376007Y11766571D01*
X48376007Y11766571D02*
X48414102Y11690381D01*
X48414102Y11690381D02*
X48414102Y11385619D01*
X48718864Y12299904D02*
X48756960Y12338000D01*
X48756960Y12338000D02*
X48795055Y12299904D01*
X48795055Y12299904D02*
X48756960Y12261809D01*
X48756960Y12261809D02*
X48718864Y12299904D01*
X48718864Y12299904D02*
X48795055Y12299904D01*
X48033150Y12147523D02*
X47995055Y12223714D01*
X47995055Y12223714D02*
X47995055Y12414190D01*
X47995055Y12414190D02*
X48033150Y12490381D01*
X48033150Y12490381D02*
X48109340Y12528476D01*
X48109340Y12528476D02*
X48185531Y12528476D01*
X48185531Y12528476D02*
X48261721Y12490381D01*
X48261721Y12490381D02*
X48299817Y12452285D01*
X48299817Y12452285D02*
X48337912Y12376095D01*
X48337912Y12376095D02*
X48376007Y12338000D01*
X48376007Y12338000D02*
X48452198Y12299904D01*
X48452198Y12299904D02*
X48490293Y12299904D01*
X37674562Y25271344D02*
X37407895Y25652297D01*
X37217419Y25271344D02*
X37217419Y26071344D01*
X37217419Y26071344D02*
X37522181Y26071344D01*
X37522181Y26071344D02*
X37598371Y26033249D01*
X37598371Y26033249D02*
X37636466Y25995154D01*
X37636466Y25995154D02*
X37674562Y25918963D01*
X37674562Y25918963D02*
X37674562Y25804678D01*
X37674562Y25804678D02*
X37636466Y25728487D01*
X37636466Y25728487D02*
X37598371Y25690392D01*
X37598371Y25690392D02*
X37522181Y25652297D01*
X37522181Y25652297D02*
X37217419Y25652297D01*
X38131704Y25347535D02*
X38169800Y25309440D01*
X38169800Y25309440D02*
X38131704Y25271344D01*
X38131704Y25271344D02*
X38093609Y25309440D01*
X38093609Y25309440D02*
X38131704Y25347535D01*
X38131704Y25347535D02*
X38131704Y25271344D01*
X37979323Y26033249D02*
X38055514Y26071344D01*
X38055514Y26071344D02*
X38245990Y26071344D01*
X38245990Y26071344D02*
X38322181Y26033249D01*
X38322181Y26033249D02*
X38360276Y25957059D01*
X38360276Y25957059D02*
X38360276Y25880868D01*
X38360276Y25880868D02*
X38322181Y25804678D01*
X38322181Y25804678D02*
X38284085Y25766582D01*
X38284085Y25766582D02*
X38207895Y25728487D01*
X38207895Y25728487D02*
X38169800Y25690392D01*
X38169800Y25690392D02*
X38131704Y25614201D01*
X38131704Y25614201D02*
X38131704Y25576106D01*
X37522162Y30338144D02*
X37255495Y30719097D01*
X37065019Y30338144D02*
X37065019Y31138144D01*
X37065019Y31138144D02*
X37369781Y31138144D01*
X37369781Y31138144D02*
X37445971Y31100049D01*
X37445971Y31100049D02*
X37484066Y31061954D01*
X37484066Y31061954D02*
X37522162Y30985763D01*
X37522162Y30985763D02*
X37522162Y30871478D01*
X37522162Y30871478D02*
X37484066Y30795287D01*
X37484066Y30795287D02*
X37445971Y30757192D01*
X37445971Y30757192D02*
X37369781Y30719097D01*
X37369781Y30719097D02*
X37065019Y30719097D01*
X37979304Y30414335D02*
X38017400Y30376240D01*
X38017400Y30376240D02*
X37979304Y30338144D01*
X37979304Y30338144D02*
X37941209Y30376240D01*
X37941209Y30376240D02*
X37979304Y30414335D01*
X37979304Y30414335D02*
X37979304Y30338144D01*
X37826923Y31100049D02*
X37903114Y31138144D01*
X37903114Y31138144D02*
X38093590Y31138144D01*
X38093590Y31138144D02*
X38169781Y31100049D01*
X38169781Y31100049D02*
X38207876Y31023859D01*
X38207876Y31023859D02*
X38207876Y30947668D01*
X38207876Y30947668D02*
X38169781Y30871478D01*
X38169781Y30871478D02*
X38131685Y30833382D01*
X38131685Y30833382D02*
X38055495Y30795287D01*
X38055495Y30795287D02*
X38017400Y30757192D01*
X38017400Y30757192D02*
X37979304Y30681001D01*
X37979304Y30681001D02*
X37979304Y30642906D01*
M02*
