M48
; DRILL file KiCad 10.99.0-unknown date 2026-08-12T15:26:03
; FORMAT={-:-/ absolute / metric / decimal}
; #@! TF.CreationDate,2026-08-12T15:26:03+08:00
; #@! TF.GenerationSoftware,Kicad,Pcbnew,10.99.0-unknown
; #@! TF.FileFunction,MixedPlating,1,4
FMAT,2
METRIC
; #@! TA.AperFunction,Plated,PTH,ViaDrill
T1C0.201
; #@! TA.AperFunction,Plated,PTH,ViaDrill
T2C0.203
; #@! TA.AperFunction,Plated,PTH,ViaDrill
T3C0.305
; #@! TA.AperFunction,Plated,PTH,ViaDrill
T4C0.381
%
G90
G05
T1
X5.385Y32.487
X5.639Y40.513
X5.842Y38.506
X5.867Y37.389
X5.867Y36.373
X5.944Y39.522
X6.375Y42.977
X6.833Y44.094
X8.477Y25.783
X8.763Y24.765
X9.449Y32.512
X9.931Y15.113
X10.922Y24.435
X11.506Y14.275
X11.684Y40.818
X11.938Y9.169
X12.37Y15.062
X12.721Y15.799
X12.78Y43.372
X13.665Y10.82
X13.868Y13.868
X13.894Y13.03
X14.278Y13.435
X14.278Y13.435
X14.376Y8.204
X14.656Y13.868
X14.681Y13.056
X14.986Y16.332
X14.986Y8.179
X15.215Y16.993
X15.875Y16.993
X15.914Y15.175
X16.304Y15.565
X16.342Y14.748
X16.535Y11.049
X16.549Y16.993
X16.743Y15.148
X16.916Y24.409
X17.526Y26.822
X18.593Y36.424
X18.593Y35.384
X18.593Y34.325
X18.593Y33.25
X18.593Y31.122
X18.593Y28.997
X18.593Y26.886
X18.593Y25.829
X19.075Y7.95
X19.71Y6.147
X20.98Y33.096
X21.031Y29.21
X21.209Y37.46
X21.26Y35.154
X21.261Y31.332
X21.285Y25.629
X21.311Y27.661
X21.33Y32.301
X21.336Y34.29
X21.336Y6.147
X21.397Y28.715
X21.438Y24.79
X21.495Y36.615
X21.717Y37.973
X21.844Y24.232
X22.047Y30.201
X22.047Y30.201
X22.2Y36.713
X22.218Y28.707
X22.22Y35.093
X22.232Y27.922
X22.276Y38.532
X22.86Y39.091
X22.911Y23.165
X22.948Y31.889
X22.987Y32.69
X22.994Y27.119
X23.012Y36.728
X23.012Y30.302
X23.013Y31.103
X23.018Y26.294
X23.019Y35.909
X23.019Y27.869
X23.485Y39.395
X23.807Y25.482
X23.832Y31.922
X23.881Y33.907
X23.972Y30.701
X23.972Y30.701
X23.978Y28.245
X24.105Y22.25
X24.178Y9.878
X24.232Y27.076
X24.365Y27.674
X24.384Y35.839
X24.397Y39.395
X24.486Y31.42
X24.486Y31.42
X24.689Y29.921
X24.765Y12.954
X24.79Y34.9
X24.933Y27.561
X24.994Y30.556
X25.146Y22.2
X25.153Y28.995
X25.197Y29.566
X25.273Y34.519
X25.303Y39.395
X25.425Y24.968
X25.425Y24.968
X25.603Y35.916
X25.661Y27.903
X25.661Y27.903
X25.705Y34.163
X25.73Y29.159
X25.737Y26.201
X25.737Y26.201
X25.762Y31.095
X25.772Y9.975
X25.915Y33.051
X25.915Y33.051
X26.143Y26.887
X26.143Y26.887
X26.143Y26.887
X26.181Y32.301
X26.22Y35.929
X26.231Y34.282
X26.231Y34.282
X26.248Y39.395
X26.416Y22.225
X26.873Y8.052
X26.916Y34.32
X26.924Y37.846
X26.982Y27.141
X27.0Y36.728
X27.0Y36.728
X27.0Y26.314
X27.007Y25.506
X27.007Y25.506
X27.007Y25.506
X27.007Y25.506
X27.007Y25.506
X27.014Y39.395
X27.102Y44.171
X27.457Y8.052
X27.534Y22.225
X27.757Y39.395
X27.811Y32.301
X27.818Y26.294
X27.818Y26.294
X27.818Y26.294
X27.82Y30.29
X28.296Y10.236
X28.524Y44.171
X28.556Y25.109
X28.6Y22.225
X28.607Y39.395
X28.626Y26.746
X28.887Y28.682
X29.083Y34.569
X29.129Y31.501
X29.134Y35.611
X29.205Y25.901
X29.337Y26.822
X29.489Y44.196
X29.535Y39.395
X29.693Y22.225
X29.972Y34.696
X30.004Y25.05
X30.004Y25.05
X30.03Y36.412
X30.055Y32.271
X30.43Y39.395
X30.606Y36.988
X30.683Y36.271
X30.861Y22.2
X30.969Y31.509
X31.039Y34.595
X31.242Y36.297
X31.432Y39.395
X31.604Y32.297
X31.604Y32.297
X31.75Y34.722
X32.055Y22.2
X32.138Y28.631
X32.138Y28.631
X32.279Y26.051
X32.279Y26.051
X32.309Y29.616
X32.316Y34.829
X32.316Y34.829
X32.316Y27.031
X32.316Y27.031
X32.316Y27.031
X32.334Y39.395
X32.334Y35.484
X32.944Y36.119
X32.944Y36.119
X32.966Y27.031
X32.966Y27.031
X32.966Y27.031
X32.966Y27.031
X32.966Y27.031
X32.969Y36.805
X32.969Y28.321
X32.969Y28.321
X32.976Y34.829
X32.976Y34.829
X32.976Y34.829
X32.976Y34.829
X32.976Y24.441
X32.976Y24.441
X33.001Y25.116
X33.045Y22.2
X33.071Y26.238
X33.071Y26.238
X33.126Y39.395
X33.147Y29.261
X33.611Y25.101
X33.611Y25.101
X33.625Y24.44
X33.625Y24.44
X33.63Y36.779
X33.63Y36.779
X33.63Y35.484
X33.63Y35.484
X33.63Y28.321
X33.63Y28.321
X33.639Y34.854
X33.731Y26.238
X33.731Y26.238
X33.782Y29.312
X34.087Y23.52
X34.138Y39.395
X34.258Y34.165
X34.265Y36.779
X34.271Y35.466
X34.271Y25.066
X34.29Y28.321
X34.297Y36.073
X34.341Y30.429
X34.417Y26.695
X34.417Y26.695
X34.595Y28.804
X34.747Y39.065
X34.9Y34.188
X34.9Y34.188
X34.9Y28.321
X34.9Y27.661
X34.9Y27.661
X34.9Y24.435
X34.906Y35.464
X34.906Y35.464
X34.911Y32.227
X34.912Y25.075
X34.935Y36.15
X34.942Y25.695
X35.052Y26.645
X35.052Y26.645
X35.484Y32.639
X35.535Y29.642
X35.56Y36.119
X35.56Y35.484
X35.585Y28.778
X35.89Y26.822
X35.992Y18.644
X36.144Y31.598
X36.144Y30.912
X36.144Y30.251
X36.17Y29.591
X36.17Y28.956
X36.17Y28.321
X36.195Y25.73
X36.195Y21.184
X36.22Y25.07
X36.246Y34.849
X36.246Y34.214
X36.246Y24.486
X36.271Y33.579
X36.398Y22.962
X36.398Y14.935
X36.601Y22.352
X36.627Y21.717
X36.805Y27.483
X36.855Y28.321
X36.881Y31.572
X36.881Y30.912
X36.881Y30.261
X36.881Y29.642
X36.906Y34.874
X36.906Y34.214
X36.906Y33.553
X37.49Y29.643
X37.51Y31.578
X37.51Y30.933
X37.51Y26.424
X37.516Y25.07
X37.516Y25.756
X37.541Y33.553
X37.541Y24.46
X38.125Y34.823
X38.151Y30.912
X38.157Y31.571
X38.16Y32.224
X38.16Y28.324
X38.176Y33.528
X38.176Y26.365
X38.176Y24.435
X38.181Y25.095
X38.329Y20.93
X38.456Y15.494
X38.506Y33.045
X38.811Y34.188
X38.811Y33.528
X38.837Y34.823
X38.837Y32.207
X38.837Y30.912
X38.862Y31.572
X38.862Y30.251
X39.395Y17.526
X39.446Y35.458
X39.446Y29.616
X39.446Y26.416
X39.451Y25.08
X39.46Y28.324
X40.081Y25.095
X40.107Y25.73
X40.742Y33.553
X40.742Y32.868
X40.767Y35.458
X40.767Y34.823
X40.767Y34.163
X40.792Y31.541
X41.377Y28.29
X41.377Y26.975
X41.402Y34.823
X41.402Y32.207
X41.402Y31.572
X41.402Y30.277
X41.402Y28.981
X41.402Y27.661
X41.402Y26.391
X41.402Y25.095
X41.427Y34.163
X41.427Y29.616
X41.783Y11.633
X42.037Y37.389
X42.037Y32.897
X42.037Y25.756
X42.062Y34.798
X42.062Y32.207
X42.062Y29.616
X42.062Y27.026
X42.596Y21.133
X42.672Y34.138
X42.672Y27.051
X42.689Y25.095
X42.723Y25.73
X43.256Y13.233
X43.586Y31.217
X43.612Y42.291
X43.815Y33.376
X43.866Y26.975
X43.891Y22.174
X43.917Y29.591
X43.942Y34.341
X44.018Y20.269
X44.247Y31.242
X44.399Y29.997
X44.399Y26.086
X44.552Y29.388
X44.552Y20.803
X44.653Y28.626
X44.78Y23.444
X44.831Y22.073
X44.907Y38.532
X44.907Y32.944
X44.933Y26.619
X45.136Y41.123
X45.136Y10.795
X45.187Y22.581
X45.415Y37.033
X45.491Y29.231
X45.568Y9.195
X45.593Y26.848
X45.618Y27.686
X45.695Y35.916
X45.72Y25.527
X45.999Y36.5
X47.193Y38.202
X47.676Y27.127
X47.932Y10.92
X48.006Y37.313
X48.381Y25.583
X48.387Y24.308
X48.489Y23.47
X48.489Y17.45
X48.489Y20.295
X48.514Y36.779
X48.514Y22.708
X48.539Y35.789
X48.666Y21.971
X48.768Y21.361
X49.02Y10.967
X49.047Y17.932
X49.276Y35.814
X49.606Y33.757
X49.657Y37.821
X49.708Y25.883
X50.013Y35.509
X50.19Y18.517
X50.394Y37.414
X50.444Y34.011
X50.8Y13.132
X50.8Y10.973
X52.149Y18.753
X52.299Y28.626
X52.883Y28.118
X53.162Y36.144
X53.518Y31.369
X53.623Y28.626
X53.721Y18.999
X53.772Y13.106
X53.772Y10.947
X54.204Y35.687
X54.432Y15.9
X54.661Y31.217
X55.093Y18.212
X55.194Y35.687
X55.22Y15.799
X55.347Y25.679
X55.69Y37.164
X55.702Y15.621
X55.804Y21.26
X55.931Y15.088
X56.032Y35.662
X56.058Y33.02
X56.159Y23.089
X56.21Y21.996
X56.363Y14.58
X56.413Y31.674
X56.693Y37.44
X56.693Y35.89
X56.744Y36.652
X56.947Y27.635
X57.074Y24.587
X57.861Y27.635
X58.039Y24.663
X58.217Y26.391
X58.242Y30.937
X58.638Y35.164
X58.674Y35.89
X58.699Y34.392
X58.75Y27.838
X58.826Y22.022
X58.832Y27.026
X58.877Y23.063
X58.903Y28.829
X58.928Y29.54
X58.977Y24.663
X59.106Y30.531
X59.207Y23.851
X59.309Y26.391
X59.614Y29.82
X59.766Y27.915
X59.817Y22.784
X59.848Y27.026
X59.868Y21.615
X60.122Y28.905
X60.223Y23.673
X60.485Y26.365
X60.579Y30.556
X60.731Y29.82
X60.884Y27.94
X60.909Y28.956
X60.985Y21.869
X61.094Y27.026
X61.112Y22.784
X61.316Y23.825
X61.392Y24.841
X61.849Y28.963
X61.849Y27.991
X61.951Y30.226
X62.154Y30.886
X62.357Y23.063
X62.408Y24.079
X62.611Y43.993
X62.814Y29.413
X63.322Y30.378
X63.652Y24.003
X63.729Y22.962
X63.932Y30.836
X64.059Y29.515
X64.541Y30.429
X64.872Y24.003
X64.999Y22.86
X65.049Y29.591
T2
X3.708Y35.306
X3.708Y26.162
X3.708Y23.114
X3.708Y20.066
X3.708Y17.018
X3.708Y13.97
X6.756Y20.066
X9.804Y44.45
X9.804Y29.21
X9.804Y26.162
X12.852Y35.306
X12.852Y32.258
X12.852Y29.21
X12.852Y26.162
X12.852Y23.114
X12.852Y1.778
X15.697Y44.044
X15.85Y33.02
X15.9Y38.354
X15.9Y35.306
X15.9Y26.162
X15.9Y1.778
X17.424Y36.474
X17.526Y34.163
X18.771Y21.336
X18.923Y44.018
X18.948Y38.354
X18.948Y20.066
X21.996Y13.97
X25.044Y7.874
X25.044Y4.826
X25.044Y1.778
X27.737Y17.577
X28.092Y4.826
X28.092Y1.778
X31.14Y44.45
X31.14Y7.874
X31.293Y17.577
X34.011Y13.589
X34.188Y4.826
X37.236Y4.826
X42.393Y10.16
X42.393Y8.28
X43.332Y13.97
X43.332Y10.922
X43.332Y4.826
X46.38Y44.45
X46.38Y1.778
X49.428Y44.45
X49.428Y38.354
X49.428Y20.066
X49.428Y17.018
X49.428Y1.778
X51.156Y23.647
X51.156Y22.885
X51.156Y22.123
X51.156Y21.361
X51.511Y1.727
X51.918Y23.647
X51.918Y22.885
X51.918Y22.123
X51.918Y21.361
X52.68Y23.647
X52.68Y22.885
X52.68Y22.123
X52.68Y21.361
X53.442Y23.647
X53.442Y22.885
X53.442Y22.123
X53.442Y21.361
X55.524Y44.45
X55.524Y41.402
X55.524Y32.258
X55.524Y17.018
X55.524Y10.922
X55.524Y7.874
X55.524Y1.778
X57.887Y3.708
X58.572Y44.45
X58.572Y41.402
X58.572Y32.258
X58.572Y20.066
X58.572Y10.922
X61.62Y44.45
X61.62Y41.402
X61.62Y38.354
X61.62Y32.258
X61.62Y23.114
X61.62Y17.018
X61.62Y13.97
X61.62Y7.874
X64.008Y43.688
X64.668Y41.402
X64.668Y38.354
X64.668Y35.306
X64.668Y32.258
X64.668Y17.018
X64.668Y13.97
T3
X15.385Y11.005
X16.916Y12.344
T4
X2.007Y27.127
X10.643Y19.939
X10.643Y19.228
X18.136Y10.541
X18.999Y17.272
X19.152Y10.541
X19.941Y17.272
X20.117Y10.541
X20.772Y17.272
X21.057Y10.541
X21.726Y17.272
X21.92Y10.541
X24.308Y7.899
X29.21Y7.899
M30
