%TF.GenerationSoftware,KiCad,Pcbnew,10.99.0-unknown*%
%TF.CreationDate,2026-08-12T15:26:02+08:00*%
%TF.ProjectId,__AR__,00904152-3c5c-42e6-9b69-6361645f7063,rev?*%
%TF.SameCoordinates,Original*%
%TF.FileFunction,Copper,L1,Top*%
%TF.FilePolarity,Positive*%
%FSLAX46Y46*%
G04 Gerber Fmt 4.6, Leading zero omitted, Abs format (unit mm)*
G04 Created by KiCad (PCBNEW 10.99.0-unknown) date 2026-08-12 15:26:02*
%MOMM*%
%LPD*%
G01*
G04 APERTURE LIST*
G04 Aperture macros list*
%AMRoundRect*
0 Rectangle with rounded corners*
0 $1 Rounding radius*
0 $2 $3 $4 $5 $6 $7 $8 $9 X,Y pos of 4 corners*
0 Add a 4 corners polygon primitive as box body*
4,1,4,$2,$3,$4,$5,$6,$7,$8,$9,$2,$3,0*
0 Add four circle primitives for the rounded corners*
1,1,$1+$1,$2,$3*
1,1,$1+$1,$4,$5*
1,1,$1+$1,$6,$7*
1,1,$1+$1,$8,$9*
0 Add four rect primitives between the rounded corners*
20,1,$1+$1,$2,$3,$4,$5,0*
20,1,$1+$1,$4,$5,$6,$7,0*
20,1,$1+$1,$6,$7,$8,$9,0*
20,1,$1+$1,$8,$9,$2,$3,0*%
G04 Aperture macros list end*
%TA.AperFunction,SMDPad,CuDef*%
%ADD10RoundRect,0.105000X0.345000X-0.105000X0.345000X0.105000X-0.345000X0.105000X-0.345000X-0.105000X0*%
%TD*%
%TA.AperFunction,SMDPad,CuDef*%
%ADD11RoundRect,0.105000X-0.105000X-0.345000X0.105000X-0.345000X0.105000X0.345000X-0.105000X0.345000X0*%
%TD*%
%TA.AperFunction,SMDPad,CuDef*%
%ADD12RoundRect,0.225000X-0.225000X-0.275000X0.225000X-0.275000X0.225000X0.275000X-0.225000X0.275000X0*%
%TD*%
%TA.AperFunction,SMDPad,CuDef*%
%ADD13RoundRect,0.225000X-0.225000X-0.275000X0.225000X-0.275000X0.225000X0.275000X-0.225000X0.275000X0*%
%TD*%
%TA.AperFunction,SMDPad,CuDef*%
%ADD14RoundRect,0.105000X0.345000X-0.105000X0.345000X0.105000X-0.345000X0.105000X-0.345000X-0.105000X0*%
%TD*%
%TA.AperFunction,SMDPad,CuDef*%
%ADD15RoundRect,0.105000X-0.105000X-0.345000X0.105000X-0.345000X0.105000X0.345000X-0.105000X0.345000X0*%
%TD*%
%TA.AperFunction,SMDPad,CuDef*%
%ADD16C,0.750000*%
%TD*%
%TA.AperFunction,ViaPad*%
%ADD17C,0.449600*%
%TD*%
%TA.AperFunction,ViaPad*%
%ADD18C,0.609600*%
%TD*%
%TA.AperFunction,ViaPad*%
%ADD19C,0.457200*%
%TD*%
%TA.AperFunction,Conductor*%
%ADD20C,0.304800*%
%TD*%
%TA.AperFunction,Conductor*%
%ADD21C,0.152400*%
%TD*%
%TA.AperFunction,Conductor*%
%ADD22C,0.101600*%
%TD*%
%TA.AperFunction,Conductor*%
%ADD23C,0.114300*%
%TD*%
%TA.AperFunction,Conductor*%
%ADD24C,0.254000*%
%TD*%
%TA.AperFunction,Conductor*%
%ADD25C,0.203200*%
%TD*%
%TA.AperFunction,Conductor*%
%ADD26C,0.111800*%
%TD*%
%TA.AperFunction,Conductor*%
%ADD27C,0.330200*%
%TD*%
%TA.AperFunction,Conductor*%
%ADD28C,0.177800*%
%TD*%
%TA.AperFunction,Conductor*%
%ADD29C,0.228600*%
%TD*%
%TA.AperFunction,Conductor*%
%ADD30C,0.088900*%
%TD*%
%TA.AperFunction,Conductor*%
%ADD31C,0.127000*%
%TD*%
%TA.AperFunction,Conductor*%
%ADD32C,0.137200*%
%TD*%
%TA.AperFunction,Conductor*%
%ADD33C,0.381000*%
%TD*%
%TA.AperFunction,Conductor*%
%ADD34C,0.584200*%
%TD*%
%TA.AperFunction,Conductor*%
%ADD35C,0.431800*%
%TD*%
%TA.AperFunction,Conductor*%
%ADD36C,0.457200*%
%TD*%
%TA.AperFunction,Conductor*%
%ADD37C,1.000000*%
%TD*%
%TA.AperFunction,Conductor*%
%ADD38C,0.500000*%
%TD*%
%TA.AperFunction,Conductor*%
%ADD39C,0.508000*%
%TD*%
G04 APERTURE END LIST*
D10*
%TO.P,U2,A1*%
%TO.N,VCC_DRAM*%
X17588867Y39179803D03*
%TO.P,U2,A2*%
%TO.N,SDQ0*%
X18238867Y39179803D03*
%TO.P,U2,A3*%
%TO.N,SDQ7*%
X18888867Y39179803D03*
%TO.P,U2,A7*%
%TO.N,SDQ6*%
X19538867Y39179803D03*
%TO.P,U2,A8*%
%TO.N,VCC_DRAM*%
X20188867Y39179803D03*
%TO.P,U2,A9*%
%TO.N,GND*%
X20838867Y39179803D03*
%TO.P,U2,B1*%
X21488867Y39179803D03*
%TO.P,U2,B2*%
%TO.N,VCC_DRAM*%
X22138867Y39179803D03*
%TO.P,U2,B3*%
%TO.N,GND*%
X22788867Y39179803D03*
%TO.P,U2,B7*%
%TO.N,SDQS0N*%
X23438867Y39179803D03*
%TO.P,U2,B8*%
%TO.N,SDQ4*%
X24088867Y39179803D03*
%TO.P,U2,B9*%
%TO.N,GND*%
X24738867Y39179803D03*
%TO.P,U2,C1*%
%TO.N,VCC_DRAM*%
X25388867Y39179803D03*
%TO.P,U2,C2*%
%TO.N,SDQ2*%
X26038867Y39179803D03*
%TO.P,U2,C3*%
%TO.N,SDQ5*%
X26688867Y39179803D03*
%TO.P,U2,C7*%
%TO.N,SDQS0P*%
X27338867Y39179803D03*
%TO.P,U2,C8*%
%TO.N,SDQ1*%
X27988867Y39179803D03*
%TO.P,U2,C9*%
%TO.N,VCC_DRAM*%
X28638867Y39179803D03*
%TO.P,U2,D1*%
%TO.N,GND*%
X29288867Y39179803D03*
%TO.P,U2,D2*%
%TO.N,VCC_DRAM*%
X29938867Y39179803D03*
%TO.P,U2,D3*%
%TO.N,SDQM0*%
X30588867Y39179803D03*
%TO.P,U2,D7*%
%TO.N,SDQ3*%
X31238867Y39179803D03*
%TO.P,U2,D8*%
%TO.N,GND*%
X31888867Y39179803D03*
%TO.P,U2,D9*%
%TO.N,VCC_DRAM*%
X32538867Y39179803D03*
D11*
%TO.P,U2,E1*%
%TO.N,GND*%
X33263867Y38454803D03*
%TO.P,U2,E2*%
X33263867Y37804803D03*
%TO.P,U2,E3*%
%TO.N,SDQ11*%
X33263867Y37154803D03*
%TO.P,U2,E7*%
%TO.N,SDQM1*%
X33263867Y36504803D03*
%TO.P,U2,E8*%
%TO.N,GND*%
X33263867Y35854803D03*
%TO.P,U2,E9*%
%TO.N,VCC_DRAM*%
X33263867Y35204803D03*
%TO.P,U2,F1*%
X33263867Y34554803D03*
%TO.P,U2,F2*%
%TO.N,SDQ10*%
X33263867Y33904803D03*
%TO.P,U2,F3*%
%TO.N,SDQS1P*%
X33263867Y33254803D03*
%TO.P,U2,F7*%
%TO.N,SDQ9*%
X33263867Y32604803D03*
%TO.P,U2,F8*%
%TO.N,SDQ14*%
X33263867Y31954803D03*
%TO.P,U2,F9*%
%TO.N,GND*%
X33263867Y31304803D03*
%TO.P,U2,G1*%
X33263867Y30654803D03*
%TO.P,U2,G2*%
%TO.N,SDQ8*%
X33263867Y30004803D03*
%TO.P,U2,G3*%
%TO.N,SDQS1N*%
X33263867Y29354803D03*
%TO.P,U2,G7*%
%TO.N,VCC_DRAM*%
X33263867Y28704803D03*
%TO.P,U2,G8*%
%TO.N,GND*%
X33263867Y28054803D03*
%TO.P,U2,G9*%
X33263867Y27404803D03*
%TO.P,U2,H1*%
%TO.N,SVREF*%
X33263867Y26754803D03*
%TO.P,U2,H2*%
%TO.N,VCC_DRAM*%
X33263867Y26104803D03*
%TO.P,U2,H3*%
%TO.N,SDQ13*%
X33263867Y25454803D03*
%TO.P,U2,H7*%
%TO.N,SDQ15*%
X33263867Y24804803D03*
%TO.P,U2,H8*%
%TO.N,SDQ12*%
X33263867Y24154803D03*
%TO.P,U2,H9*%
%TO.N,VCC_DRAM*%
X33263867Y23504803D03*
D10*
%TO.P,U2,J1*%
%TO.N,SODT1*%
X32538867Y22779803D03*
%TO.P,U2,J2*%
%TO.N,GND*%
X31888867Y22779803D03*
%TO.P,U2,J3*%
%TO.N,SRAS*%
X31238867Y22779803D03*
%TO.P,U2,J7*%
%TO.N,SCKP*%
X30588867Y22779803D03*
%TO.P,U2,J8*%
%TO.N,GND*%
X29938867Y22779803D03*
%TO.P,U2,J9*%
%TO.N,SCKE1*%
X29288867Y22779803D03*
%TO.P,U2,K1*%
%TO.N,SODT0*%
X28638867Y22779803D03*
%TO.P,U2,K2*%
%TO.N,VCC_DRAM*%
X27988867Y22779803D03*
%TO.P,U2,K3*%
%TO.N,SCAS*%
X27338867Y22779803D03*
%TO.P,U2,K7*%
%TO.N,SCKN*%
X26688867Y22779803D03*
%TO.P,U2,K8*%
%TO.N,VCC_DRAM*%
X26038867Y22779803D03*
%TO.P,U2,K9*%
%TO.N,SCKE0*%
X25388867Y22779803D03*
%TO.P,U2,L1*%
%TO.N,SCS1*%
X24738867Y22779803D03*
%TO.P,U2,L2*%
%TO.N,SCS0*%
X24088867Y22779803D03*
%TO.P,U2,L3*%
%TO.N,SWE*%
X23438867Y22779803D03*
%TO.P,U2,L7*%
%TO.N,SA10*%
X22788867Y22779803D03*
%TO.P,U2,L8*%
%TO.N,$2N2224*%
X22138867Y22779803D03*
%TO.P,U2,L9*%
%TO.N,$2N2223*%
X21488867Y22779803D03*
%TO.P,U2,M1*%
%TO.N,GND*%
X20838867Y22779803D03*
%TO.P,U2,M2*%
%TO.N,SBA0*%
X20188867Y22779803D03*
%TO.P,U2,M3*%
%TO.N,SBA2*%
X19538867Y22779803D03*
%TO.P,U2,M7*%
%TO.N,SA15*%
X18888867Y22779803D03*
%TO.P,U2,M8*%
%TO.N,SVREF*%
X18238867Y22779803D03*
%TO.P,U2,M9*%
%TO.N,GND*%
X17588867Y22779803D03*
D11*
%TO.P,U2,N1*%
%TO.N,VCC_DRAM*%
X16863867Y23504803D03*
%TO.P,U2,N2*%
%TO.N,SA3*%
X16863867Y24154803D03*
%TO.P,U2,N3*%
%TO.N,SA0*%
X16863867Y24804803D03*
%TO.P,U2,N7*%
%TO.N,SA12*%
X16863867Y25454803D03*
%TO.P,U2,N8*%
%TO.N,SBA1*%
X16863867Y26104803D03*
%TO.P,U2,N9*%
%TO.N,VCC_DRAM*%
X16863867Y26754803D03*
%TO.P,U2,P1*%
%TO.N,GND*%
X16863867Y27404803D03*
%TO.P,U2,P2*%
%TO.N,SA5*%
X16863867Y28054803D03*
%TO.P,U2,P3*%
%TO.N,SA2*%
X16863867Y28704803D03*
%TO.P,U2,P7*%
%TO.N,SA1*%
X16863867Y29354803D03*
%TO.P,U2,P8*%
%TO.N,SA4*%
X16863867Y30004803D03*
%TO.P,U2,P9*%
%TO.N,GND*%
X16863867Y30654803D03*
%TO.P,U2,R1*%
%TO.N,VCC_DRAM*%
X16863867Y31304803D03*
%TO.P,U2,R2*%
%TO.N,SA7*%
X16863867Y31954803D03*
%TO.P,U2,R3*%
%TO.N,SA9*%
X16863867Y32604803D03*
%TO.P,U2,R7*%
%TO.N,SA11*%
X16863867Y33254803D03*
%TO.P,U2,R8*%
%TO.N,SA6*%
X16863867Y33904803D03*
%TO.P,U2,R9*%
%TO.N,VCC_DRAM*%
X16863867Y34554803D03*
%TO.P,U2,T1*%
%TO.N,GND*%
X16863867Y35204803D03*
%TO.P,U2,T2*%
%TO.N,SRST*%
X16863867Y35854803D03*
%TO.P,U2,T3*%
%TO.N,SA13*%
X16863867Y36504803D03*
%TO.P,U2,T7*%
%TO.N,SA14*%
X16863867Y37154803D03*
%TO.P,U2,T8*%
%TO.N,SA8*%
X16863867Y37804803D03*
%TO.P,U2,T9*%
%TO.N,GND*%
X16863867Y38454803D03*
%TD*%
D12*
%TO.P,C32,1*%
%TO.N,GND*%
X31205400Y27025600D03*
%TO.P,C32,2*%
%TO.N,VCC_DRAM*%
X29805400Y27025600D03*
%TD*%
%TO.P,L1,1*%
%TO.N,$1N16368*%
X18349963Y11422760D03*
%TO.P,L1,2*%
%TO.N,VDD_GPU*%
X18349963Y12822760D03*
%TD*%
D13*
%TO.P,L2,1*%
%TO.N,$1N16426*%
X18324563Y16124760D03*
%TO.P,L2,2*%
%TO.N,VDD_CPU*%
X18324563Y14724760D03*
%TD*%
%TO.P,L3,1*%
%TO.N,$1N16541*%
X12485640Y17955892D03*
%TO.P,L3,2*%
%TO.N,VCC_DRAM*%
X13885640Y17955892D03*
%TD*%
D14*
%TO.P,D19,10*%
%TO.N,HDMI_2P*%
X54571800Y10439600D03*
%TO.P,D19,9*%
%TO.N,HDMI_2N*%
X53771800Y10439600D03*
%TO.P,D19,8*%
%TO.N,GND*%
X52971800Y10439600D03*
D15*
%TO.P,D19,7*%
%TO.N,HDMI_1P*%
X52171800Y11239600D03*
%TO.P,D19,6*%
%TO.N,HDMI_1N*%
X52171800Y12039600D03*
%TO.P,D19,5*%
X52171800Y12839600D03*
D14*
%TO.P,D19,4*%
%TO.N,HDMI_1P*%
X52971800Y13639600D03*
%TO.P,D19,3*%
%TO.N,GND*%
X53771800Y13639600D03*
%TO.P,D19,2*%
%TO.N,HDMI_2N*%
X54571800Y13639600D03*
D15*
%TO.P,D19,1*%
%TO.N,HDMI_2P*%
X55371800Y12839600D03*
%TD*%
D14*
%TO.P,D21,10*%
%TO.N,HDMI_0P*%
X51589840Y10447220D03*
%TO.P,D21,9*%
%TO.N,HDMI_0N*%
X50789840Y10447220D03*
%TO.P,D21,8*%
%TO.N,GND*%
X49989840Y10447220D03*
D15*
%TO.P,D21,7*%
%TO.N,HDMI_CP*%
X49189840Y11247220D03*
%TO.P,D21,6*%
%TO.N,HDMI_CN*%
X49189840Y12047220D03*
%TO.P,D21,5*%
X49189840Y12847220D03*
D14*
%TO.P,D21,4*%
%TO.N,HDMI_CP*%
X49989840Y13647220D03*
%TO.P,D21,3*%
%TO.N,GND*%
X50789840Y13647220D03*
%TO.P,D21,2*%
%TO.N,HDMI_0N*%
X51589840Y13647220D03*
D15*
%TO.P,D21,1*%
%TO.N,HDMI_0P*%
X52389840Y12847220D03*
%TD*%
D10*
%TO.P,USB1,A1B12*%
%TO.N,GND*%
X25571600Y6140200D03*
%TO.P,USB1,B1A12*%
X26371600Y6140200D03*
%TO.P,USB1,A4B9*%
%TO.N,PS*%
X27171600Y6140200D03*
%TO.P,USB1,B8*%
%TO.N,N/C*%
X27971600Y6140200D03*
D11*
%TO.P,USB1,A5*%
%TO.N,USB0_ID*%
X28771600Y5340200D03*
%TO.P,USB1,B7*%
%TO.N,D0-*%
X28771600Y4540200D03*
%TO.P,USB1,A6*%
%TO.N,D0+*%
X28771600Y3740200D03*
%TO.P,USB1,A7*%
%TO.N,D0-*%
X28771600Y2940200D03*
D10*
%TO.P,USB1,B6*%
%TO.N,D0+*%
X27971600Y2140200D03*
%TO.P,USB1,A8*%
%TO.N,N/C*%
X27171600Y2140200D03*
%TO.P,USB1,B5*%
%TO.N,USB0_ID*%
X26371600Y2140200D03*
%TO.P,USB1,B4A9*%
%TO.N,PS*%
X25571600Y2140200D03*
D11*
%TO.P,USB1,12*%
%TO.N,GND*%
X24771600Y2940200D03*
%TO.P,USB1,13*%
X24771600Y3740200D03*
%TO.P,USB1,14*%
X24771600Y4540200D03*
%TO.P,USB1,15*%
X24771600Y5340200D03*
%TD*%
D10*
%TO.P,H1,1*%
%TO.N,3V3*%
X30938590Y52710800D03*
%TO.P,H1,2*%
%TO.N,PS*%
X31738590Y52710800D03*
%TO.P,H1,3*%
%TO.N,PI10*%
X32538590Y52710800D03*
%TO.P,H1,4*%
%TO.N,PS*%
X33338590Y52710800D03*
%TO.P,H1,5*%
%TO.N,PI15*%
X34138590Y52710800D03*
%TO.P,H1,6*%
%TO.N,GND*%
X34938590Y52710800D03*
%TO.P,H1,7*%
%TO.N,PI12*%
X35738590Y52710800D03*
%TO.P,H1,8*%
%TO.N,PI11*%
X36538590Y52710800D03*
%TO.P,H1,9*%
%TO.N,GND*%
X37338590Y52710800D03*
%TO.P,H1,10*%
%TO.N,PI5*%
X38138590Y52710800D03*
D11*
%TO.P,H1,11*%
%TO.N,PI4*%
X38938590Y51910800D03*
%TO.P,H1,12*%
%TO.N,PI6*%
X38938590Y51110800D03*
%TO.P,H1,13*%
%TO.N,PI7*%
X38938590Y50310800D03*
%TO.P,H1,14*%
%TO.N,GND*%
X38938590Y49510800D03*
%TO.P,H1,15*%
%TO.N,PI16*%
X38938590Y48710800D03*
%TO.P,H1,16*%
%TO.N,PI14*%
X38938590Y47910800D03*
%TO.P,H1,17*%
%TO.N,3V3*%
X38938590Y47110800D03*
%TO.P,H1,18*%
%TO.N,PI0*%
X38938590Y46310800D03*
%TO.P,H1,19*%
%TO.N,PI2*%
X38938590Y45510800D03*
%TO.P,H1,20*%
%TO.N,GND*%
X38938590Y44710800D03*
D10*
%TO.P,H1,21*%
%TO.N,PH8*%
X38138590Y43910800D03*
%TO.P,H1,22*%
%TO.N,PH1*%
X37338590Y43910800D03*
%TO.P,H1,23*%
%TO.N,PH0*%
X36538590Y43910800D03*
%TO.P,H1,24*%
%TO.N,PH7*%
X35738590Y43910800D03*
%TO.P,H1,25*%
%TO.N,GND*%
X34938590Y43910800D03*
%TO.P,H1,26*%
%TO.N,PH10*%
X34138590Y43910800D03*
%TO.P,H1,27*%
%TO.N,PH5*%
X33338590Y43910800D03*
%TO.P,H1,28*%
%TO.N,PH9*%
X32538590Y43910800D03*
%TO.P,H1,29*%
%TO.N,PI3*%
X31738590Y43910800D03*
%TO.P,H1,30*%
%TO.N,GND*%
X30938590Y43910800D03*
D11*
%TO.P,H1,31*%
%TO.N,PI9*%
X30138590Y44710800D03*
%TO.P,H1,32*%
%TO.N,PI1*%
X30138590Y45510800D03*
%TO.P,H1,33*%
%TO.N,PI13*%
X30138590Y46310800D03*
%TO.P,H1,34*%
%TO.N,GND*%
X30138590Y47110800D03*
%TO.P,H1,35*%
%TO.N,PH4*%
X30138590Y47910800D03*
%TO.P,H1,36*%
%TO.N,PI8*%
X30138590Y48710800D03*
%TO.P,H1,37*%
%TO.N,PH2*%
X30138590Y49510800D03*
%TO.P,H1,38*%
%TO.N,PH6*%
X30138590Y50310800D03*
%TO.P,H1,39*%
%TO.N,GND*%
X30138590Y51110800D03*
%TO.P,H1,40*%
%TO.N,PH3*%
X30138590Y51910800D03*
%TD*%
D12*
%TO.P,C1,1*%
%TO.N,GND*%
X15722600Y9053600D03*
%TO.P,C1,2*%
%TO.N,1V8*%
X15722600Y10453600D03*
%TD*%
%TO.P,C3,1*%
%TO.N,GND*%
X13676363Y9060560D03*
%TO.P,C3,2*%
%TO.N,3V3*%
X13676363Y10460560D03*
%TD*%
D13*
%TO.P,C5,1*%
%TO.N,GND*%
X9714000Y12420600D03*
%TO.P,C5,2*%
%TO.N,$1N24681*%
X11114000Y12420600D03*
%TD*%
D10*
%TO.P,U4,A1*%
%TO.N,N/C*%
X41865200Y25064200D03*
%TO.P,U4,A2*%
X41865200Y25714200D03*
%TO.P,U4,A3*%
%TO.N,SDC2_D0*%
X41865200Y26364200D03*
%TO.P,U4,A4*%
%TO.N,SDC2_D1*%
X41865200Y27014200D03*
%TO.P,U4,A5*%
%TO.N,SDC2_D2*%
X41865200Y27664200D03*
%TO.P,U4,A6*%
%TO.N,GND*%
X41865200Y28314200D03*
%TO.P,U4,A7*%
%TO.N,N/C*%
X41865200Y28964200D03*
%TO.P,U4,A8*%
X41865200Y29614200D03*
%TO.P,U4,A9*%
X41865200Y30264200D03*
%TO.P,U4,A10*%
X41865200Y30914200D03*
%TO.P,U4,A11*%
X41865200Y31564200D03*
%TO.P,U4,A12*%
X41865200Y32214200D03*
%TO.P,U4,A13*%
X41865200Y32864200D03*
%TO.P,U4,A14*%
X41865200Y33514200D03*
%TO.P,U4,B1*%
X41865200Y34164200D03*
%TO.P,U4,B2*%
%TO.N,SDC2_D3*%
X41865200Y34814200D03*
%TO.P,U4,B3*%
%TO.N,SDC2_D4*%
X41865200Y35464200D03*
%TO.P,U4,B4*%
%TO.N,SDC2_D5*%
X41865200Y36114200D03*
%TO.P,U4,B5*%
%TO.N,SDC2_D6*%
X41865200Y36764200D03*
%TO.P,U4,B6*%
%TO.N,SDC2_D7*%
X41865200Y37414200D03*
%TO.P,U4,B7*%
%TO.N,N/C*%
X41865200Y38064200D03*
%TO.P,U4,B8*%
X41865200Y38714200D03*
%TO.P,U4,B9*%
X41865200Y39364200D03*
%TO.P,U4,B10*%
X41865200Y40014200D03*
%TO.P,U4,B11*%
X41865200Y40664200D03*
%TO.P,U4,B12*%
X41865200Y41314200D03*
%TO.P,U4,B13*%
X41865200Y41964200D03*
%TO.P,U4,B14*%
X41865200Y42614200D03*
%TO.P,U4,C1*%
X41865200Y43264200D03*
%TO.P,U4,C2*%
%TO.N,$3N2117*%
X41865200Y43914200D03*
%TO.P,U4,C3*%
%TO.N,N/C*%
X41865200Y44564200D03*
%TO.P,U4,C4*%
%TO.N,GND*%
X41865200Y45214200D03*
%TO.P,U4,C5*%
%TO.N,N/C*%
X41865200Y45864200D03*
%TO.P,U4,C6*%
%TO.N,3V3*%
X41865200Y46514200D03*
%TO.P,U4,C7*%
%TO.N,N/C*%
X41865200Y47164200D03*
%TO.P,U4,C8*%
X41865200Y47814200D03*
%TO.P,U4,C9*%
X41865200Y48464200D03*
%TO.P,U4,C10*%
X41865200Y49114200D03*
%TO.P,U4,C11*%
X41865200Y49764200D03*
D15*
%TO.P,U4,C12*%
X42590200Y50489200D03*
%TO.P,U4,C13*%
X43240200Y50489200D03*
%TO.P,U4,C14*%
X43890200Y50489200D03*
%TO.P,U4,D1*%
X44540200Y50489200D03*
%TO.P,U4,D2*%
X45190200Y50489200D03*
%TO.P,U4,D3*%
X45840200Y50489200D03*
%TO.P,U4,D4*%
X46490200Y50489200D03*
%TO.P,U4,D12*%
X47140200Y50489200D03*
%TO.P,U4,D13*%
X47790200Y50489200D03*
%TO.P,U4,D14*%
X48440200Y50489200D03*
%TO.P,U4,E1*%
X49090200Y50489200D03*
%TO.P,U4,E2*%
X49740200Y50489200D03*
%TO.P,U4,E3*%
X50390200Y50489200D03*
%TO.P,U4,E5*%
X51040200Y50489200D03*
%TO.P,U4,E6*%
%TO.N,3V3*%
X51690200Y50489200D03*
%TO.P,U4,E7*%
%TO.N,GND*%
X52340200Y50489200D03*
%TO.P,U4,E8*%
%TO.N,N/C*%
X52990200Y50489200D03*
%TO.P,U4,E9*%
X53640200Y50489200D03*
%TO.P,U4,E10*%
X54290200Y50489200D03*
%TO.P,U4,E12*%
X54940200Y50489200D03*
%TO.P,U4,E13*%
X55590200Y50489200D03*
%TO.P,U4,E14*%
X56240200Y50489200D03*
%TO.P,U4,F1*%
X56890200Y50489200D03*
%TO.P,U4,F2*%
X57540200Y50489200D03*
%TO.P,U4,F3*%
X58190200Y50489200D03*
%TO.P,U4,F5*%
%TO.N,3V3*%
X58840200Y50489200D03*
%TO.P,U4,F10*%
%TO.N,N/C*%
X59490200Y50489200D03*
%TO.P,U4,F12*%
X60140200Y50489200D03*
%TO.P,U4,F13*%
X60790200Y50489200D03*
%TO.P,U4,F14*%
X61440200Y50489200D03*
%TO.P,U4,G1*%
X62090200Y50489200D03*
%TO.P,U4,G2*%
X62740200Y50489200D03*
%TO.P,U4,G3*%
X63390200Y50489200D03*
%TO.P,U4,G5*%
%TO.N,GND*%
X64040200Y50489200D03*
%TO.P,U4,G10*%
%TO.N,N/C*%
X64690200Y50489200D03*
%TO.P,U4,G12*%
X65340200Y50489200D03*
%TO.P,U4,G13*%
X65990200Y50489200D03*
%TO.P,U4,G14*%
X66640200Y50489200D03*
%TO.P,U4,H1*%
X67290200Y50489200D03*
D10*
%TO.P,U4,H2*%
X68015200Y49764200D03*
%TO.P,U4,H3*%
X68015200Y49114200D03*
%TO.P,U4,H5*%
%TO.N,SDC2_DS*%
X68015200Y48464200D03*
%TO.P,U4,H10*%
%TO.N,GND*%
X68015200Y47814200D03*
%TO.P,U4,H12*%
%TO.N,N/C*%
X68015200Y47164200D03*
%TO.P,U4,H13*%
X68015200Y46514200D03*
%TO.P,U4,H14*%
X68015200Y45864200D03*
%TO.P,U4,J1*%
X68015200Y45214200D03*
%TO.P,U4,J2*%
X68015200Y44564200D03*
%TO.P,U4,J3*%
X68015200Y43914200D03*
%TO.P,U4,J5*%
%TO.N,GND*%
X68015200Y43264200D03*
%TO.P,U4,J10*%
%TO.N,3V3*%
X68015200Y42614200D03*
%TO.P,U4,J12*%
%TO.N,N/C*%
X68015200Y41964200D03*
%TO.P,U4,J13*%
X68015200Y41314200D03*
%TO.P,U4,J14*%
X68015200Y40664200D03*
%TO.P,U4,K1*%
X68015200Y40014200D03*
%TO.P,U4,K2*%
X68015200Y39364200D03*
%TO.P,U4,K3*%
X68015200Y38714200D03*
%TO.P,U4,K5*%
%TO.N,SDC2_RST*%
X68015200Y38064200D03*
%TO.P,U4,K6*%
%TO.N,N/C*%
X68015200Y37414200D03*
%TO.P,U4,K7*%
X68015200Y36764200D03*
%TO.P,U4,K8*%
%TO.N,GND*%
X68015200Y36114200D03*
%TO.P,U4,K9*%
%TO.N,3V3*%
X68015200Y35464200D03*
%TO.P,U4,K10*%
%TO.N,N/C*%
X68015200Y34814200D03*
%TO.P,U4,K12*%
X68015200Y34164200D03*
%TO.P,U4,K13*%
X68015200Y33514200D03*
%TO.P,U4,K14*%
X68015200Y32864200D03*
%TO.P,U4,L1*%
X68015200Y32214200D03*
%TO.P,U4,L2*%
X68015200Y31564200D03*
%TO.P,U4,L3*%
X68015200Y30914200D03*
%TO.P,U4,L12*%
X68015200Y30264200D03*
%TO.P,U4,L13*%
X68015200Y29614200D03*
%TO.P,U4,L14*%
X68015200Y28964200D03*
%TO.P,U4,M1*%
X68015200Y28314200D03*
%TO.P,U4,M2*%
X68015200Y27664200D03*
%TO.P,U4,M3*%
X68015200Y27014200D03*
%TO.P,U4,M4*%
%TO.N,3V3*%
X68015200Y26364200D03*
%TO.P,U4,M5*%
%TO.N,SDC2_CMD*%
X68015200Y25714200D03*
%TO.P,U4,M6*%
%TO.N,SDC2_CLK*%
X68015200Y25064200D03*
D15*
%TO.P,U4,M7*%
%TO.N,N/C*%
X67290200Y24339200D03*
%TO.P,U4,M8*%
X66640200Y24339200D03*
%TO.P,U4,M9*%
X65990200Y24339200D03*
%TO.P,U4,M10*%
X65340200Y24339200D03*
%TO.P,U4,M11*%
X64690200Y24339200D03*
%TO.P,U4,M12*%
X64040200Y24339200D03*
%TO.P,U4,M13*%
X63390200Y24339200D03*
%TO.P,U4,M14*%
X62740200Y24339200D03*
%TO.P,U4,N1*%
X62090200Y24339200D03*
%TO.P,U4,N2*%
%TO.N,GND*%
X61440200Y24339200D03*
%TO.P,U4,N3*%
%TO.N,N/C*%
X60790200Y24339200D03*
%TO.P,U4,N4*%
%TO.N,3V3*%
X60140200Y24339200D03*
%TO.P,U4,N5*%
%TO.N,GND*%
X59490200Y24339200D03*
%TO.P,U4,N6*%
%TO.N,N/C*%
X58840200Y24339200D03*
%TO.P,U4,N7*%
X58190200Y24339200D03*
%TO.P,U4,N8*%
X57540200Y24339200D03*
%TO.P,U4,N9*%
X56890200Y24339200D03*
%TO.P,U4,N10*%
X56240200Y24339200D03*
%TO.P,U4,N11*%
X55590200Y24339200D03*
%TO.P,U4,N12*%
X54940200Y24339200D03*
%TO.P,U4,N13*%
X54290200Y24339200D03*
%TO.P,U4,N14*%
X53640200Y24339200D03*
%TO.P,U4,P1*%
X52990200Y24339200D03*
%TO.P,U4,P2*%
X52340200Y24339200D03*
%TO.P,U4,P3*%
%TO.N,3V3*%
X51690200Y24339200D03*
%TO.P,U4,P4*%
%TO.N,GND*%
X51040200Y24339200D03*
%TO.P,U4,P5*%
%TO.N,3V3*%
X50390200Y24339200D03*
%TO.P,U4,P6*%
%TO.N,GND*%
X49740200Y24339200D03*
%TO.P,U4,P7*%
%TO.N,N/C*%
X49090200Y24339200D03*
%TO.P,U4,P8*%
X48440200Y24339200D03*
%TO.P,U4,P9*%
X47790200Y24339200D03*
%TO.P,U4,P10*%
X47140200Y24339200D03*
%TO.P,U4,P11*%
X46490200Y24339200D03*
%TO.P,U4,P12*%
X45840200Y24339200D03*
%TO.P,U4,P13*%
X45190200Y24339200D03*
%TO.P,U4,P14*%
X44540200Y24339200D03*
%TD*%
D10*
%TO.P,SIM1,10*%
%TO.N,GND*%
X13938000Y40708488D03*
%TO.P,SIM1,9*%
X13938000Y39908488D03*
%TO.P,SIM1,14*%
X13938000Y39108488D03*
%TO.P,SIM1,13*%
X13938000Y38308488D03*
D11*
%TO.P,SIM1,12*%
X13138000Y37508488D03*
%TO.P,SIM1,11*%
%TO.N,$3N3551*%
X12338000Y37508488D03*
%TO.P,SIM1,8*%
%TO.N,SDC0_D1*%
X11538000Y37508488D03*
%TO.P,SIM1,7*%
%TO.N,SDC0_D0*%
X10738000Y37508488D03*
D10*
%TO.P,SIM1,6*%
%TO.N,GND*%
X9938000Y38308488D03*
%TO.P,SIM1,5*%
%TO.N,SDC0_CLK*%
X9938000Y39108488D03*
%TO.P,SIM1,4*%
%TO.N,3V3*%
X9938000Y39908488D03*
%TO.P,SIM1,3*%
%TO.N,SDC0_CMD*%
X9938000Y40708488D03*
D11*
%TO.P,SIM1,2*%
%TO.N,SDC0_D3*%
X10738000Y41508488D03*
%TO.P,SIM1,1*%
%TO.N,SDC0_D2*%
X11538000Y41508488D03*
%TD*%
D16*
%TO.P,JP1,1*%
%TO.N,$3N5547*%
X63195200Y27695400D03*
%TO.P,JP1,3*%
%TO.N,GND*%
X64061200Y26195400D03*
%TO.P,JP1,2*%
X62329200Y26195400D03*
%TD*%
D12*
%TO.P,C86,1*%
%TO.N,GND*%
X57977000Y22783800D03*
%TO.P,C86,2*%
%TO.N,3V3*%
X56577000Y22783800D03*
%TD*%
D16*
%TO.P,FAN1,2*%
%TO.N,GND*%
X26533600Y13766800D03*
%TO.P,FAN1,1*%
%TO.N,PS*%
X27533600Y14766800D03*
%TO.P,FAN1,4*%
%TO.N,GND*%
X28533600Y13766800D03*
%TO.P,FAN1,3*%
X27533600Y12766800D03*
%TD*%
D13*
%TO.P,C12,1*%
%TO.N,GND*%
X9714000Y11404600D03*
%TO.P,C12,2*%
%TO.N,$1N30789*%
X11114000Y11404600D03*
%TD*%
D12*
%TO.P,C75,1*%
%TO.N,GND*%
X63772152Y34177770D03*
%TO.P,C75,2*%
%TO.N,3V3*%
X62372152Y34177770D03*
%TD*%
%TO.P,C76,1*%
%TO.N,GND*%
X63772152Y35160369D03*
%TO.P,C76,2*%
%TO.N,3V3*%
X62372152Y35160369D03*
%TD*%
%TO.P,C77,1*%
%TO.N,GND*%
X63772152Y36193768D03*
%TO.P,C77,2*%
%TO.N,3V3*%
X62372152Y36193768D03*
%TD*%
%TO.P,C81,1*%
%TO.N,GND*%
X63772152Y37227167D03*
%TO.P,C81,2*%
%TO.N,3V3*%
X62372152Y37227167D03*
%TD*%
%TO.P,C67,1*%
%TO.N,GND*%
X60325000Y24344400D03*
%TO.P,C67,2*%
%TO.N,$3N5547*%
X60325000Y25744400D03*
%TD*%
%TO.P,C82,1*%
%TO.N,GND*%
X52754207Y29320407D03*
%TO.P,C82,2*%
%TO.N,$3N2117*%
X52754207Y30720407D03*
%TD*%
%TO.P,C83,1*%
%TO.N,GND*%
X53668061Y29324393D03*
%TO.P,C83,2*%
%TO.N,$3N2117*%
X53668061Y30724393D03*
%TD*%
%TO.P,C74,1*%
%TO.N,$3N5562*%
X48071000Y18364200D03*
%TO.P,C74,2*%
%TO.N,GND*%
X46671000Y18364200D03*
%TD*%
%TO.P,C78,1*%
%TO.N,$3N5562*%
X56159400Y26427200D03*
%TO.P,C78,2*%
%TO.N,GND*%
X56159400Y27827200D03*
%TD*%
D13*
%TO.P,C79,1*%
%TO.N,$3N5562*%
X56577000Y21869400D03*
%TO.P,C79,2*%
%TO.N,GND*%
X57977000Y21869400D03*
%TD*%
%TO.P,C84,1*%
%TO.N,$3N5562*%
X54178200Y18353000D03*
%TO.P,C84,2*%
%TO.N,GND*%
X54178200Y16953000D03*
%TD*%
%TO.P,C72,1*%
%TO.N,$3N5561*%
X53162200Y18353000D03*
%TO.P,C72,2*%
%TO.N,GND*%
X53162200Y16953000D03*
%TD*%
D12*
%TO.P,C73,1*%
%TO.N,$3N5552*%
X48071000Y19278600D03*
%TO.P,C73,2*%
%TO.N,GND*%
X46671000Y19278600D03*
%TD*%
%TO.P,C70,1*%
%TO.N,$3N5553*%
X55219600Y26427200D03*
%TO.P,C70,2*%
%TO.N,GND*%
X55219600Y27827200D03*
%TD*%
D13*
%TO.P,C71,1*%
%TO.N,$3N5554*%
X56577000Y23749000D03*
%TO.P,C71,2*%
%TO.N,GND*%
X57977000Y23749000D03*
%TD*%
D12*
%TO.P,C68,1*%
%TO.N,3V3*%
X48045346Y26593800D03*
%TO.P,C68,2*%
%TO.N,GND*%
X46645346Y26593800D03*
%TD*%
D13*
%TO.P,C69,1*%
%TO.N,3V3*%
X52146200Y18353000D03*
%TO.P,C69,2*%
%TO.N,GND*%
X52146200Y16953000D03*
%TD*%
%TO.P,C66,1*%
%TO.N,GND*%
X57404000Y26760400D03*
%TO.P,C66,2*%
%TO.N,$3N5546*%
X57404000Y25360400D03*
%TD*%
D12*
%TO.P,D20,2*%
%TO.N,USB0_ID*%
X27116000Y8839200D03*
%TO.P,D20,1*%
%TO.N,$4N12583*%
X25716000Y8839200D03*
%TD*%
D13*
%TO.P,C94,1*%
%TO.N,HXIN*%
X47548800Y31434000D03*
%TO.P,C94,2*%
%TO.N,GND*%
X47548800Y30034000D03*
%TD*%
D12*
%TO.P,C99,1*%
%TO.N,HXOUT*%
X46699400Y28702000D03*
%TO.P,C99,2*%
%TO.N,GND*%
X45299400Y28702000D03*
%TD*%
D16*
%TO.P,X2,1*%
%TO.N,HXIN*%
X45999400Y29505400D03*
%TO.P,X2,2*%
%TO.N,GND*%
X44999400Y30505400D03*
%TO.P,X2,3*%
%TO.N,HXOUT*%
X45999400Y31505400D03*
%TO.P,X2,4*%
%TO.N,GND*%
X46999400Y30505400D03*
%TD*%
D12*
%TO.P,D22,2*%
%TO.N,PS*%
X44286400Y11595100D03*
%TO.P,D22,1*%
%TO.N,H5V*%
X42886400Y11595100D03*
%TD*%
%TO.P,D23,2*%
%TO.N,3V3*%
X44286400Y13233400D03*
%TO.P,D23,1*%
%TO.N,$4N26086*%
X42886400Y13233400D03*
%TD*%
D13*
%TO.P,D1,2*%
%TO.N,PS*%
X29957800Y11201400D03*
%TO.P,D1,1*%
X31357800Y11201400D03*
%TD*%
%TO.P,C91,1*%
%TO.N,LR*%
X37866372Y16374019D03*
%TO.P,C91,2*%
%TO.N,$4N34203*%
X39266372Y16374019D03*
%TD*%
D12*
%TO.P,C89,1*%
%TO.N,LL*%
X37081972Y16374019D03*
%TO.P,C89,2*%
%TO.N,$4N34315*%
X35681972Y16374019D03*
%TD*%
D13*
%TO.P,C88,1*%
%TO.N,GND*%
X36889972Y20401419D03*
%TO.P,C88,2*%
%TO.N,$4N36516*%
X36889972Y19001419D03*
%TD*%
%TO.P,C90,1*%
%TO.N,GND*%
X38058372Y20401419D03*
%TO.P,C90,2*%
%TO.N,$4N36638*%
X38058372Y19001419D03*
%TD*%
%TO.P,D8,2*%
%TO.N,$4N34315*%
X38455600Y15152600D03*
%TO.P,D8,1*%
%TO.N,GND*%
X38455600Y13752600D03*
%TD*%
%TO.P,D10,2*%
%TO.N,$4N34203*%
X39979600Y15152600D03*
%TO.P,D10,1*%
%TO.N,GND*%
X39979600Y13752600D03*
%TD*%
%TO.P,D12,2*%
%TO.N,TV_OUT*%
X36982400Y15152600D03*
%TO.P,D12,1*%
%TO.N,GND*%
X36982400Y13752600D03*
%TD*%
D16*
%TO.P,RESET,1*%
%TO.N,$4N42572*%
X14944600Y28702000D03*
%TO.P,RESET,2*%
X13944600Y27702000D03*
%TO.P,RESET,3*%
%TO.N,GND*%
X12944600Y28702000D03*
%TO.P,RESET,4*%
X13944600Y29702000D03*
%TD*%
D12*
%TO.P,R28,2*%
%TO.N,$4N42572*%
X17526000Y27240000D03*
%TO.P,R28,1*%
%TO.N,RESET*%
X17526000Y28640000D03*
%TD*%
%TO.P,C87,1*%
%TO.N,$4N42572*%
X17526000Y29221200D03*
%TO.P,C87,2*%
%TO.N,GND*%
X17526000Y30621200D03*
%TD*%
D16*
%TO.P,FEL,1*%
%TO.N,FEL*%
X14919200Y23342600D03*
%TO.P,FEL,2*%
X13919200Y22342600D03*
%TO.P,FEL,3*%
%TO.N,GND*%
X12919200Y23342600D03*
%TO.P,FEL,4*%
X13919200Y24342600D03*
%TD*%
D13*
%TO.P,C48,1*%
%TO.N,GND*%
X18400800Y25292538D03*
%TO.P,C48,2*%
%TO.N,VCC_DRAM*%
X19800800Y25292538D03*
%TD*%
%TO.P,C49,1*%
%TO.N,GND*%
X18400800Y31658169D03*
%TO.P,C49,2*%
%TO.N,VCC_DRAM*%
X19800800Y31658169D03*
%TD*%
%TO.P,C50,1*%
%TO.N,GND*%
X18400800Y27414416D03*
%TO.P,C50,2*%
%TO.N,VCC_DRAM*%
X19800800Y27414416D03*
%TD*%
%TO.P,C42,1*%
%TO.N,GND*%
X18400800Y33780047D03*
%TO.P,C42,2*%
%TO.N,VCC_DRAM*%
X19800800Y33780047D03*
%TD*%
%TO.P,C43,1*%
%TO.N,GND*%
X18400800Y35901922D03*
%TO.P,C43,2*%
%TO.N,VCC_DRAM*%
X19800800Y35901922D03*
%TD*%
%TO.P,C35,1*%
%TO.N,GND*%
X18400800Y32719107D03*
%TO.P,C35,2*%
%TO.N,VCC_DRAM*%
X19800800Y32719107D03*
%TD*%
%TO.P,C36,1*%
%TO.N,GND*%
X18400800Y34840984D03*
%TO.P,C36,2*%
%TO.N,VCC_DRAM*%
X19800800Y34840984D03*
%TD*%
%TO.P,C53,1*%
%TO.N,GND*%
X18400800Y36962862D03*
%TO.P,C53,2*%
%TO.N,VCC_DRAM*%
X19800800Y36962862D03*
%TD*%
%TO.P,C54,1*%
%TO.N,GND*%
X18400800Y26353478D03*
%TO.P,C54,2*%
%TO.N,VCC_DRAM*%
X19800800Y26353478D03*
%TD*%
%TO.P,C55,1*%
%TO.N,GND*%
X18400800Y30597231D03*
%TO.P,C55,2*%
%TO.N,VCC_DRAM*%
X19800800Y30597231D03*
%TD*%
%TO.P,C56,1*%
%TO.N,GND*%
X18400800Y29536293D03*
%TO.P,C56,2*%
%TO.N,VCC_DRAM*%
X19800800Y29536293D03*
%TD*%
%TO.P,C57,1*%
%TO.N,GND*%
X18400800Y28475353D03*
%TO.P,C57,2*%
%TO.N,VCC_DRAM*%
X19800800Y28475353D03*
%TD*%
%TO.P,C85,1*%
%TO.N,WHXO*%
X57110400Y30099000D03*
%TO.P,C85,2*%
%TO.N,GND*%
X58510400Y30099000D03*
%TD*%
D16*
%TO.P,X1,1*%
%TO.N,WHXI*%
X55727600Y30438600D03*
%TO.P,X1,2*%
%TO.N,GND*%
X56727600Y29438600D03*
%TO.P,X1,3*%
%TO.N,WHXO*%
X55727600Y28438600D03*
%TO.P,X1,4*%
%TO.N,GND*%
X54727600Y29438600D03*
%TD*%
D13*
%TO.P,C80,1*%
%TO.N,WHXI*%
X57085000Y28752800D03*
%TO.P,C80,2*%
%TO.N,GND*%
X58485000Y28752800D03*
%TD*%
D12*
%TO.P,C28,1*%
%TO.N,GND*%
X7151854Y31496000D03*
%TO.P,C28,2*%
%TO.N,3V3*%
X5751854Y31496000D03*
%TD*%
%TO.P,LED1,1*%
%TO.N,$1N53902*%
X61137800Y45755218D03*
%TO.P,LED1,2*%
%TO.N,GND*%
X61137800Y47155218D03*
%TD*%
%TO.P,C100,1*%
%TO.N,GND*%
X20888174Y7400671D03*
%TO.P,C100,2*%
%TO.N,RESET*%
X19488174Y7400671D03*
%TD*%
D16*
%TO.P,CN2,1*%
%TO.N,GND*%
X5945365Y16443200D03*
%TO.P,CN2,2*%
%TO.N,PS*%
X6945365Y15443200D03*
%TO.P,CN2,3*%
%TO.N,D2+*%
X5945365Y14443200D03*
%TO.P,CN2,4*%
%TO.N,D2-*%
X4945365Y15443200D03*
%TD*%
%TO.P,CN3,1*%
%TO.N,GND*%
X14392400Y4622800D03*
%TO.P,CN3,2*%
%TO.N,PS*%
X15392400Y5622800D03*
%TO.P,CN3,3*%
%TO.N,D3+*%
X16392400Y4622800D03*
%TO.P,CN3,4*%
%TO.N,D3-*%
X15392400Y3622800D03*
%TD*%
%TO.P,CN4,1*%
%TO.N,GND*%
X5969000Y25185169D03*
%TO.P,CN4,2*%
%TO.N,PS*%
X6969000Y24185169D03*
%TO.P,CN4,3*%
%TO.N,D1+*%
X5969000Y23185169D03*
%TO.P,CN4,4*%
%TO.N,D1-*%
X4969000Y24185169D03*
%TD*%
D10*
%TO.P,CN5,19*%
%TO.N,HDHPD*%
X46069335Y7143400D03*
%TO.P,CN5,18*%
%TO.N,H5V*%
X46869335Y7143400D03*
%TO.P,CN5,17*%
%TO.N,GND*%
X47669335Y7143400D03*
%TO.P,CN5,16*%
%TO.N,HDSDA*%
X48469335Y7143400D03*
%TO.P,CN5,15*%
%TO.N,HDSCL*%
X49269335Y7143400D03*
%TO.P,CN5,14*%
%TO.N,N/C*%
X50069335Y7143400D03*
D11*
%TO.P,CN5,13*%
%TO.N,HDCEC*%
X50869335Y6343400D03*
%TO.P,CN5,12*%
%TO.N,HDMI_CN*%
X50869335Y5543400D03*
%TO.P,CN5,11*%
%TO.N,GND*%
X50869335Y4743400D03*
%TO.P,CN5,10*%
%TO.N,HDMI_CP*%
X50869335Y3943400D03*
%TO.P,CN5,9*%
%TO.N,HDMI_0N*%
X50869335Y3143400D03*
%TO.P,CN5,8*%
%TO.N,GND*%
X50869335Y2343400D03*
D10*
%TO.P,CN5,7*%
%TO.N,HDMI_0P*%
X50069335Y1543400D03*
%TO.P,CN5,6*%
%TO.N,HDMI_1N*%
X49269335Y1543400D03*
%TO.P,CN5,5*%
%TO.N,GND*%
X48469335Y1543400D03*
%TO.P,CN5,4*%
%TO.N,HDMI_1P*%
X47669335Y1543400D03*
%TO.P,CN5,3*%
%TO.N,HDMI_2N*%
X46869335Y1543400D03*
%TO.P,CN5,2*%
%TO.N,GND*%
X46069335Y1543400D03*
D11*
%TO.P,CN5,1*%
%TO.N,HDMI_2P*%
X45269335Y2343400D03*
%TO.P,CN5,20*%
%TO.N,GND*%
X45269335Y3143400D03*
%TO.P,CN5,22*%
X45269335Y3943400D03*
%TO.P,CN5,23*%
X45269335Y4743400D03*
%TO.P,CN5,21*%
X45269335Y5543400D03*
%TD*%
D16*
%TO.P,H3,1*%
%TO.N,$4N34315*%
X40132940Y3876800D03*
%TO.P,H3,2*%
%TO.N,$4N34203*%
X39132940Y4876800D03*
%TO.P,H3,3*%
%TO.N,TV_OUT*%
X40132940Y5876800D03*
%TO.P,H3,4*%
%TO.N,GND*%
X41132940Y4876800D03*
%TD*%
%TO.P,H4,1*%
%TO.N,GND*%
X58267600Y10845571D03*
%TO.P,H4,2*%
%TO.N,EPHY_TXP*%
X57124400Y11505571D03*
%TO.P,H4,3*%
%TO.N,EPHY_TXN*%
X57124400Y12825571D03*
%TO.P,H4,4*%
%TO.N,GND*%
X58267600Y13485571D03*
%TO.P,H4,5*%
%TO.N,EPHY_RXP*%
X59410800Y12825571D03*
%TO.P,H4,6*%
%TO.N,EPHY_RXN*%
X59410800Y11505571D03*
%TD*%
D14*
%TO.P,U3,41*%
%TO.N,GND*%
X55599400Y18529400D03*
%TO.P,U3,1*%
%TO.N,$3N5562*%
X54949400Y18529400D03*
%TO.P,U3,2*%
%TO.N,$3N5553*%
X54299400Y18529400D03*
%TO.P,U3,3*%
%TO.N,WHXI*%
X53649400Y18529400D03*
%TO.P,U3,4*%
%TO.N,WHXO*%
X52999400Y18529400D03*
%TO.P,U3,5*%
%TO.N,$3N5565*%
X52349400Y18529400D03*
%TO.P,U3,6*%
%TO.N,$3N5564*%
X51699400Y18529400D03*
%TO.P,U3,7*%
%TO.N,UART1_CTS*%
X51049400Y18529400D03*
%TO.P,U3,8*%
%TO.N,UART1_RTS*%
X50399400Y18529400D03*
%TO.P,U3,9*%
%TO.N,UART1_TX*%
X49749400Y18529400D03*
%TO.P,U3,10*%
%TO.N,UART1_RX*%
X49099400Y18529400D03*
D15*
%TO.P,U3,21*%
%TO.N,$3N5552*%
X48374400Y19254400D03*
%TO.P,U3,22*%
%TO.N,$3N5562*%
X48374400Y19904400D03*
%TO.P,U3,23*%
%TO.N,BT_RSTN*%
X48374400Y20554400D03*
%TO.P,U3,24*%
%TO.N,WL_REG_ON*%
X48374400Y21204400D03*
%TO.P,U3,25*%
%TO.N,3V3*%
X48374400Y21854400D03*
%TO.P,U3,26*%
%TO.N,$3N5561*%
X48374400Y22504400D03*
%TO.P,U3,27*%
%TO.N,N/C*%
X48374400Y23154400D03*
%TO.P,U3,28*%
%TO.N,$3N5562*%
X48374400Y23804400D03*
%TO.P,U3,29*%
%TO.N,N/C*%
X48374400Y24454400D03*
%TO.P,U3,30*%
%TO.N,3V3*%
X48374400Y25104400D03*
%TO.P,U3,40*%
%TO.N,$3N5546*%
X48374400Y25754400D03*
D14*
%TO.P,U3,39*%
%TO.N,N/C*%
X49099400Y26479400D03*
%TO.P,U3,38*%
%TO.N,$3N5554*%
X49749400Y26479400D03*
%TO.P,U3,37*%
%TO.N,3V3*%
X50399400Y26479400D03*
%TO.P,U3,36*%
%TO.N,$3N5562*%
X51049400Y26479400D03*
%TO.P,U3,35*%
%TO.N,AP_REG_ON*%
X51699400Y26479400D03*
%TO.P,U3,34*%
%TO.N,N/C*%
X52349400Y26479400D03*
%TO.P,U3,33*%
X52999400Y26479400D03*
%TO.P,U3,32*%
X53649400Y26479400D03*
%TO.P,U3,31*%
X54299400Y26479400D03*
%TO.P,U3,20*%
%TO.N,LPCLK*%
X54949400Y26479400D03*
%TO.P,U3,19*%
%TO.N,GND*%
X55599400Y26479400D03*
D15*
%TO.P,U3,18*%
%TO.N,N/C*%
X56324400Y25754400D03*
%TO.P,U3,17*%
%TO.N,SDC1_D2*%
X56324400Y25104400D03*
%TO.P,U3,16*%
%TO.N,SDC1_CLK*%
X56324400Y24454400D03*
%TO.P,U3,15*%
%TO.N,SDC1_D3*%
X56324400Y23804400D03*
%TO.P,U3,14*%
%TO.N,SDC1_D1*%
X56324400Y23154400D03*
%TO.P,U3,13*%
%TO.N,SDC1_D0*%
X56324400Y22504400D03*
%TO.P,U3,12*%
%TO.N,SDC1_CMD*%
X56324400Y21854400D03*
%TO.P,U3,11*%
%TO.N,3V3*%
X56324400Y21204400D03*
%TD*%
D10*
%TO.P,U5,V21*%
%TO.N,GND*%
X60984867Y53348803D03*
%TO.P,U5,V20*%
%TO.N,SWE*%
X60984867Y52698803D03*
%TO.P,U5,V19*%
%TO.N,GND*%
X60984867Y52048803D03*
%TO.P,U5,V17*%
%TO.N,SA8*%
X60984867Y51398803D03*
%TO.P,U5,V15*%
%TO.N,SCKE0*%
X60984867Y50748803D03*
%TO.P,U5,V12*%
%TO.N,GND*%
X60984867Y50098803D03*
%TO.P,U5,V10*%
%TO.N,N/C*%
X60984867Y49448803D03*
%TO.P,U5,V8*%
X60984867Y48798803D03*
%TO.P,U5,V5*%
%TO.N,GND*%
X60984867Y48148803D03*
%TO.P,U5,V3*%
%TO.N,SDQ9*%
X60984867Y47498803D03*
%TO.P,U5,V2*%
%TO.N,SDQS1N*%
X60984867Y46848803D03*
%TO.P,U5,V1*%
%TO.N,GND*%
X60984867Y46198803D03*
%TO.P,U5,U21*%
%TO.N,SRST*%
X60984867Y45548803D03*
%TO.P,U5,U20*%
%TO.N,SBA2*%
X60984867Y44898803D03*
%TO.P,U5,U19*%
%TO.N,SA10*%
X60984867Y44248803D03*
%TO.P,U5,U18*%
%TO.N,SA15*%
X60984867Y43598803D03*
%TO.P,U5,U17*%
%TO.N,SA11*%
X60984867Y42948803D03*
%TO.P,U5,U16*%
%TO.N,SA4*%
X60984867Y42298803D03*
%TO.P,U5,U15*%
%TO.N,SBA1*%
X60984867Y41648803D03*
%TO.P,U5,U14*%
%TO.N,SCKN*%
X60984867Y40998803D03*
%TO.P,U5,U13*%
%TO.N,GND*%
X60984867Y40348803D03*
%TO.P,U5,U12*%
%TO.N,N/C*%
X60984867Y39698803D03*
%TO.P,U5,U11*%
X60984867Y39048803D03*
%TO.P,U5,U10*%
X60984867Y38398803D03*
%TO.P,U5,U9*%
X60984867Y37748803D03*
%TO.P,U5,U8*%
X60984867Y37098803D03*
%TO.P,U5,U6*%
%TO.N,GND*%
X60984867Y36448803D03*
%TO.P,U5,U5*%
%TO.N,N/C*%
X60984867Y35798803D03*
%TO.P,U5,U4*%
%TO.N,SDQ1*%
X60984867Y35148803D03*
%TO.P,U5,U3*%
%TO.N,SDQ4*%
X60984867Y34498803D03*
%TO.P,U5,U2*%
%TO.N,SDQS1P*%
X60984867Y33848803D03*
%TO.P,U5,U1*%
%TO.N,SDQM0*%
X60984867Y33198803D03*
%TO.P,U5,T21*%
%TO.N,SA7*%
X60984867Y32548803D03*
%TO.P,U5,T20*%
%TO.N,SA9*%
X60984867Y31898803D03*
%TO.P,U5,T18*%
%TO.N,SA2*%
X60984867Y31248803D03*
%TO.P,U5,T17*%
%TO.N,GND*%
X60984867Y30598803D03*
%TO.P,U5,T16*%
%TO.N,SRAS*%
X60984867Y29948803D03*
%TO.P,U5,T15*%
%TO.N,GND*%
X60984867Y29298803D03*
%TO.P,U5,T14*%
%TO.N,SCKP*%
X60984867Y28648803D03*
%TO.P,U5,T12*%
%TO.N,N/C*%
X60984867Y27998803D03*
%TO.P,U5,T11*%
X60984867Y27348803D03*
%TO.P,U5,T10*%
%TO.N,GND*%
X60984867Y26698803D03*
%TO.P,U5,T9*%
%TO.N,N/C*%
X60984867Y26048803D03*
%TO.P,U5,T8*%
%TO.N,GND*%
X60984867Y25398803D03*
%TO.P,U5,T7*%
%TO.N,N/C*%
X60984867Y24748803D03*
%TO.P,U5,T6*%
X60984867Y24098803D03*
%TO.P,U5,T5*%
X60984867Y23448803D03*
%TO.P,U5,T4*%
%TO.N,SDQ3*%
X60984867Y22798803D03*
%TO.P,U5,T3*%
%TO.N,GND*%
X60984867Y22148803D03*
%TO.P,U5,T2*%
%TO.N,SDQ6*%
X60984867Y21498803D03*
%TO.P,U5,T1*%
%TO.N,GND*%
X60984867Y20848803D03*
%TO.P,U5,R21*%
X60984867Y20198803D03*
%TO.P,U5,R20*%
%TO.N,SA5*%
X60984867Y19548803D03*
%TO.P,U5,R19*%
%TO.N,SA3*%
X60984867Y18898803D03*
%TO.P,U5,R18*%
%TO.N,SA13*%
X60984867Y18248803D03*
%TO.P,U5,R15*%
%TO.N,SA1*%
X60984867Y17598803D03*
%TO.P,U5,R12*%
%TO.N,N/C*%
X60984867Y16948803D03*
%TO.P,U5,R9*%
X60984867Y16298803D03*
%TO.P,U5,R6*%
%TO.N,SDQ12*%
X60984867Y15648803D03*
%TO.P,U5,R5*%
%TO.N,GND*%
X60984867Y14998803D03*
%TO.P,U5,R4*%
%TO.N,SDQ11*%
X60984867Y14348803D03*
%TO.P,U5,R3*%
%TO.N,SDQM1*%
X60984867Y13698803D03*
%TO.P,U5,R2*%
%TO.N,SDQS0P*%
X60984867Y13048803D03*
%TO.P,U5,R1*%
%TO.N,SDQS0N*%
X60984867Y12398803D03*
%TO.P,U5,P21*%
%TO.N,SCS0*%
X60984867Y11748803D03*
%TO.P,U5,P20*%
%TO.N,SBA0*%
X60984867Y11098803D03*
%TO.P,U5,P18*%
%TO.N,SA0*%
X60984867Y10448803D03*
%TO.P,U5,P16*%
%TO.N,SA12*%
X60984867Y9798803D03*
%TO.P,U5,P15*%
%TO.N,SA14*%
X60984867Y9148803D03*
%TO.P,U5,P13*%
%TO.N,SCKE1*%
X60984867Y8498803D03*
%TO.P,U5,P12*%
%TO.N,N/C*%
X60984867Y7848803D03*
D11*
%TO.P,U5,P10*%
X60259867Y7123803D03*
%TO.P,U5,P9*%
X59609867Y7123803D03*
%TO.P,U5,P7*%
X58959867Y7123803D03*
%TO.P,U5,P6*%
%TO.N,SDQ14*%
X58309867Y7123803D03*
%TO.P,U5,P5*%
%TO.N,SDQ8*%
X57659867Y7123803D03*
%TO.P,U5,P4*%
%TO.N,SDQ10*%
X57009867Y7123803D03*
%TO.P,U5,P3*%
%TO.N,GND*%
X56359867Y7123803D03*
%TO.P,U5,P2*%
%TO.N,SDQ7*%
X55709867Y7123803D03*
%TO.P,U5,P1*%
%TO.N,SDQ5*%
X55059867Y7123803D03*
%TO.P,U5,N21*%
%TO.N,SODT1*%
X54409867Y7123803D03*
%TO.P,U5,N20*%
%TO.N,SODT0*%
X53759867Y7123803D03*
%TO.P,U5,N19*%
%TO.N,SCS1*%
X53109867Y7123803D03*
%TO.P,U5,N18*%
%TO.N,GND*%
X52459867Y7123803D03*
%TO.P,U5,N16*%
%TO.N,SCAS*%
X51809867Y7123803D03*
%TO.P,U5,N15*%
%TO.N,GND*%
X51159867Y7123803D03*
%TO.P,U5,N13*%
%TO.N,SA6*%
X50509867Y7123803D03*
%TO.P,U5,N12*%
%TO.N,GND*%
X49859867Y7123803D03*
%TO.P,U5,N10*%
%TO.N,N/C*%
X49209867Y7123803D03*
%TO.P,U5,N9*%
%TO.N,GND*%
X48559867Y7123803D03*
%TO.P,U5,N7*%
%TO.N,N/C*%
X47909867Y7123803D03*
%TO.P,U5,N6*%
%TO.N,GND*%
X47259867Y7123803D03*
%TO.P,U5,N5*%
%TO.N,SDQ15*%
X46609867Y7123803D03*
%TO.P,U5,N4*%
%TO.N,SDQ13*%
X45959867Y7123803D03*
%TO.P,U5,N3*%
%TO.N,SDQ0*%
X45309867Y7123803D03*
%TO.P,U5,N2*%
%TO.N,SDQ2*%
X44659867Y7123803D03*
%TO.P,U5,M20*%
%TO.N,D1+*%
X44009867Y7123803D03*
%TO.P,U5,M19*%
%TO.N,D1-*%
X43359867Y7123803D03*
%TO.P,U5,M18*%
%TO.N,3V3*%
X42709867Y7123803D03*
%TO.P,U5,M3*%
%TO.N,GND*%
X42059867Y7123803D03*
%TO.P,U5,M2*%
X41409867Y7123803D03*
%TO.P,U5,M1*%
X40759867Y7123803D03*
%TO.P,U5,L21*%
X40109867Y7123803D03*
%TO.P,U5,L20*%
%TO.N,D2+*%
X39459867Y7123803D03*
%TO.P,U5,L19*%
%TO.N,D2-*%
X38809867Y7123803D03*
%TO.P,U5,L18*%
%TO.N,N/C*%
X38159867Y7123803D03*
%TO.P,U5,L15*%
%TO.N,$2N2062*%
X37509867Y7123803D03*
%TO.P,U5,L14*%
%TO.N,1V8*%
X36859867Y7123803D03*
%TO.P,U5,L13*%
%TO.N,VCC_DRAM*%
X36209867Y7123803D03*
%TO.P,U5,L12*%
X35559867Y7123803D03*
%TO.P,U5,L11*%
X34909867Y7123803D03*
%TO.P,U5,L10*%
X34259867Y7123803D03*
%TO.P,U5,L9*%
X33609867Y7123803D03*
%TO.P,U5,L8*%
%TO.N,VDD_CPU*%
X32959867Y7123803D03*
%TO.P,U5,L6*%
%TO.N,PI14*%
X32309867Y7123803D03*
%TO.P,U5,L5*%
%TO.N,PI10*%
X31659867Y7123803D03*
%TO.P,U5,L4*%
%TO.N,PI15*%
X31009867Y7123803D03*
%TO.P,U5,L3*%
%TO.N,SDC0_D2*%
X30359867Y7123803D03*
%TO.P,U5,L2*%
%TO.N,SDC0_D3*%
X29709867Y7123803D03*
%TO.P,U5,K20*%
%TO.N,D3+*%
X29059867Y7123803D03*
%TO.P,U5,K19*%
%TO.N,D3-*%
X28409867Y7123803D03*
%TO.P,U5,K18*%
%TO.N,$4N2209*%
X27759867Y7123803D03*
%TO.P,U5,K15*%
%TO.N,GND*%
X27109867Y7123803D03*
%TO.P,U5,K14*%
X26459867Y7123803D03*
%TO.P,U5,K13*%
X25809867Y7123803D03*
%TO.P,U5,K12*%
X25159867Y7123803D03*
%TO.P,U5,K11*%
X24509867Y7123803D03*
%TO.P,U5,K10*%
X23859867Y7123803D03*
%TO.P,U5,K9*%
X23209867Y7123803D03*
%TO.P,U5,K8*%
X22559867Y7123803D03*
%TO.P,U5,K6*%
%TO.N,PI16*%
X21909867Y7123803D03*
%TO.P,U5,K5*%
%TO.N,PI12*%
X21259867Y7123803D03*
%TO.P,U5,K4*%
%TO.N,PI11*%
X20609867Y7123803D03*
%TO.P,U5,K3*%
%TO.N,SDC0_CMD*%
X19959867Y7123803D03*
%TO.P,U5,K2*%
%TO.N,SDC0_DET*%
X19309867Y7123803D03*
%TO.P,U5,K1*%
%TO.N,$3N9917*%
X18659867Y7123803D03*
%TO.P,U5,J21*%
%TO.N,TV_OUT*%
X18009867Y7123803D03*
%TO.P,U5,J20*%
%TO.N,D0+*%
X17359867Y7123803D03*
%TO.P,U5,J19*%
%TO.N,D0-*%
X16709867Y7123803D03*
%TO.P,U5,J18*%
%TO.N,$4N2198*%
X16059867Y7123803D03*
%TO.P,U5,J17*%
%TO.N,$4N2208*%
X15409867Y7123803D03*
%TO.P,U5,J15*%
%TO.N,GND*%
X14759867Y7123803D03*
D10*
%TO.P,U5,J14*%
X14034867Y7848803D03*
%TO.P,U5,J13*%
X14034867Y8498803D03*
%TO.P,U5,J12*%
X14034867Y9148803D03*
%TO.P,U5,J11*%
%TO.N,VDD_CPU*%
X14034867Y9798803D03*
%TO.P,U5,J10*%
X14034867Y10448803D03*
%TO.P,U5,J9*%
X14034867Y11098803D03*
%TO.P,U5,J8*%
X14034867Y11748803D03*
%TO.P,U5,J6*%
%TO.N,3V3*%
X14034867Y12398803D03*
%TO.P,U5,J3*%
%TO.N,SDC0_D0*%
X14034867Y13048803D03*
%TO.P,U5,J2*%
%TO.N,SDC0_D1*%
X14034867Y13698803D03*
%TO.P,U5,H20*%
%TO.N,1V8*%
X14034867Y14348803D03*
%TO.P,U5,H19*%
%TO.N,GND*%
X14034867Y14998803D03*
%TO.P,U5,H18*%
%TO.N,AGND*%
X14034867Y15648803D03*
%TO.P,U5,H17*%
%TO.N,1V8*%
X14034867Y16298803D03*
%TO.P,U5,H15*%
%TO.N,GND*%
X14034867Y16948803D03*
%TO.P,U5,H14*%
X14034867Y17598803D03*
%TO.P,U5,H13*%
X14034867Y18248803D03*
%TO.P,U5,H12*%
X14034867Y18898803D03*
%TO.P,U5,H11*%
X14034867Y19548803D03*
%TO.P,U5,H10*%
X14034867Y20198803D03*
%TO.P,U5,H9*%
%TO.N,VDD_CPU*%
X14034867Y20848803D03*
%TO.P,U5,H8*%
X14034867Y21498803D03*
%TO.P,U5,H6*%
%TO.N,PI0*%
X14034867Y22148803D03*
%TO.P,U5,H5*%
%TO.N,PI6*%
X14034867Y22798803D03*
%TO.P,U5,H4*%
%TO.N,PI5*%
X14034867Y23448803D03*
%TO.P,U5,H3*%
%TO.N,SDC2_D7*%
X14034867Y24098803D03*
%TO.P,U5,H2*%
%TO.N,SDC2_D2*%
X14034867Y24748803D03*
%TO.P,U5,H1*%
%TO.N,SDC2_D6*%
X14034867Y25398803D03*
%TO.P,U5,G21*%
%TO.N,HSDA*%
X14034867Y26048803D03*
%TO.P,U5,G20*%
%TO.N,LR*%
X14034867Y26698803D03*
%TO.P,U5,G19*%
%TO.N,LL*%
X14034867Y27348803D03*
%TO.P,U5,G18*%
%TO.N,HHPD*%
X14034867Y27998803D03*
%TO.P,U5,G17*%
%TO.N,HCEC*%
X14034867Y28648803D03*
%TO.P,U5,G15*%
%TO.N,GND*%
X14034867Y29298803D03*
%TO.P,U5,G14*%
X14034867Y29948803D03*
%TO.P,U5,G13*%
X14034867Y30598803D03*
%TO.P,U5,G12*%
%TO.N,VDD_GPU*%
X14034867Y31248803D03*
%TO.P,U5,G11*%
X14034867Y31898803D03*
%TO.P,U5,G10*%
X14034867Y32548803D03*
%TO.P,U5,G9*%
X14034867Y33198803D03*
%TO.P,U5,G8*%
X14034867Y33848803D03*
%TO.P,U5,G6*%
%TO.N,PI2*%
X14034867Y34498803D03*
%TO.P,U5,G5*%
%TO.N,PI4*%
X14034867Y35148803D03*
%TO.P,U5,G4*%
%TO.N,PI7*%
X14034867Y35798803D03*
%TO.P,U5,G3*%
%TO.N,SDC2_D1*%
X14034867Y36448803D03*
%TO.P,U5,G2*%
%TO.N,N/C*%
X14034867Y37098803D03*
%TO.P,U5,F21*%
%TO.N,HDMI_CN*%
X14034867Y37748803D03*
%TO.P,U5,F20*%
%TO.N,HDMI_CP*%
X14034867Y38398803D03*
%TO.P,U5,F19*%
%TO.N,HSCL*%
X14034867Y39048803D03*
%TO.P,U5,F18*%
%TO.N,1V8*%
X14034867Y39698803D03*
%TO.P,U5,F15*%
%TO.N,GND*%
X14034867Y40348803D03*
%TO.P,U5,F14*%
X14034867Y40998803D03*
%TO.P,U5,F13*%
%TO.N,VDD_GPU*%
X14034867Y41648803D03*
%TO.P,U5,F12*%
X14034867Y42298803D03*
%TO.P,U5,F11*%
X14034867Y42948803D03*
%TO.P,U5,F10*%
X14034867Y43598803D03*
%TO.P,U5,F9*%
X14034867Y44248803D03*
%TO.P,U5,F8*%
X14034867Y44898803D03*
%TO.P,U5,F5*%
%TO.N,3V3*%
X14034867Y45548803D03*
%TO.P,U5,F4*%
%TO.N,N/C*%
X14034867Y46198803D03*
%TO.P,U5,F3*%
%TO.N,SDC2_D5*%
X14034867Y46848803D03*
%TO.P,U5,F2*%
%TO.N,SDC2_D0*%
X14034867Y47498803D03*
%TO.P,U5,F1*%
%TO.N,SDC2_D4*%
X14034867Y48148803D03*
%TO.P,U5,E20*%
%TO.N,HDMI_0N*%
X14034867Y48798803D03*
%TO.P,U5,E19*%
%TO.N,HDMI_0P*%
X14034867Y49448803D03*
%TO.P,U5,E18*%
%TO.N,3V3*%
X14034867Y50098803D03*
%TO.P,U5,E6*%
%TO.N,PI8*%
X14034867Y50748803D03*
%TO.P,U5,E5*%
%TO.N,PI13*%
X14034867Y51398803D03*
%TO.P,U5,E4*%
%TO.N,PI3*%
X14034867Y52048803D03*
%TO.P,U5,E3*%
%TO.N,SDC2_D3*%
X14034867Y52698803D03*
%TO.P,U5,E2*%
%TO.N,SDC2_CMD*%
X14034867Y53348803D03*
D11*
%TO.P,U5,D21*%
%TO.N,HDMI_1N*%
X14759867Y54073803D03*
%TO.P,U5,D20*%
%TO.N,HDMI_1P*%
X15409867Y54073803D03*
%TO.P,U5,D19*%
%TO.N,GND*%
X16059867Y54073803D03*
%TO.P,U5,D18*%
%TO.N,$4N2219*%
X16709867Y54073803D03*
%TO.P,U5,D16*%
%TO.N,PH0*%
X17359867Y54073803D03*
%TO.P,U5,D15*%
%TO.N,PH1*%
X18009867Y54073803D03*
%TO.P,U5,D14*%
%TO.N,N/C*%
X18659867Y54073803D03*
%TO.P,U5,D13*%
%TO.N,$4N2243*%
X19309867Y54073803D03*
%TO.P,U5,D12*%
%TO.N,1V8*%
X19959867Y54073803D03*
%TO.P,U5,D11*%
X20609867Y54073803D03*
%TO.P,U5,D10*%
%TO.N,3V3*%
X21259867Y54073803D03*
%TO.P,U5,D7*%
X21909867Y54073803D03*
%TO.P,U5,D5*%
%TO.N,PI9*%
X22559867Y54073803D03*
%TO.P,U5,D4*%
%TO.N,PI1*%
X23209867Y54073803D03*
%TO.P,U5,D3*%
%TO.N,$3N2831*%
X23859867Y54073803D03*
%TO.P,U5,D2*%
%TO.N,$3N73904*%
X24509867Y54073803D03*
%TO.P,U5,D1*%
%TO.N,N/C*%
X25159867Y54073803D03*
%TO.P,U5,C20*%
%TO.N,HDMI_2N*%
X25809867Y54073803D03*
%TO.P,U5,C19*%
%TO.N,HDMI_2P*%
X26459867Y54073803D03*
%TO.P,U5,C18*%
%TO.N,PMU_SCK*%
X27109867Y54073803D03*
%TO.P,U5,C17*%
%TO.N,$4N2220*%
X27759867Y54073803D03*
%TO.P,U5,C16*%
%TO.N,N/C*%
X28409867Y54073803D03*
%TO.P,U5,C15*%
%TO.N,PH3*%
X29059867Y54073803D03*
%TO.P,U5,C14*%
%TO.N,PH6*%
X29709867Y54073803D03*
%TO.P,U5,C13*%
%TO.N,PH8*%
X30359867Y54073803D03*
%TO.P,U5,C12*%
%TO.N,HXOUT*%
X31009867Y54073803D03*
%TO.P,U5,C11*%
%TO.N,N/C*%
X31659867Y54073803D03*
%TO.P,U5,C10*%
%TO.N,BT_RSTN*%
X32309867Y54073803D03*
%TO.P,U5,C9*%
%TO.N,AP_REG_ON*%
X32959867Y54073803D03*
%TO.P,U5,C8*%
%TO.N,LPCLK*%
X33609867Y54073803D03*
%TO.P,U5,C7*%
%TO.N,SDC1_CMD*%
X34259867Y54073803D03*
%TO.P,U5,C6*%
%TO.N,SDC1_D0*%
X34909867Y54073803D03*
%TO.P,U5,C5*%
%TO.N,SDC1_D2*%
X35559867Y54073803D03*
%TO.P,U5,C4*%
%TO.N,UART1_RTS*%
X36209867Y54073803D03*
%TO.P,U5,C3*%
%TO.N,N/C*%
X36859867Y54073803D03*
%TO.P,U5,C2*%
%TO.N,SDC2_RST*%
X37509867Y54073803D03*
%TO.P,U5,C1*%
%TO.N,IRQ*%
X38159867Y54073803D03*
%TO.P,U5,B21*%
%TO.N,EPHY_RXN*%
X38809867Y54073803D03*
%TO.P,U5,B20*%
%TO.N,EPHY_RXP*%
X39459867Y54073803D03*
%TO.P,U5,B19*%
%TO.N,EPHY_RTX*%
X40109867Y54073803D03*
%TO.P,U5,B18*%
%TO.N,PMU_SDA*%
X40759867Y54073803D03*
%TO.P,U5,B17*%
%TO.N,FEL*%
X41409867Y54073803D03*
%TO.P,U5,B16*%
%TO.N,GND*%
X42059867Y54073803D03*
%TO.P,U5,B15*%
%TO.N,PH2*%
X42709867Y54073803D03*
%TO.P,U5,B14*%
%TO.N,PH5*%
X43359867Y54073803D03*
%TO.P,U5,B13*%
%TO.N,PH10*%
X44009867Y54073803D03*
%TO.P,U5,B12*%
%TO.N,PH7*%
X44659867Y54073803D03*
%TO.P,U5,B11*%
%TO.N,HXIN*%
X45309867Y54073803D03*
%TO.P,U5,B10*%
%TO.N,WL_REG_ON*%
X45959867Y54073803D03*
%TO.P,U5,B9*%
%TO.N,N/C*%
X46609867Y54073803D03*
%TO.P,U5,B8*%
X47259867Y54073803D03*
%TO.P,U5,B7*%
%TO.N,SDC1_D3*%
X47909867Y54073803D03*
%TO.P,U5,B6*%
%TO.N,GND*%
X48559867Y54073803D03*
%TO.P,U5,B5*%
%TO.N,SDC1_D1*%
X49209867Y54073803D03*
%TO.P,U5,B4*%
%TO.N,UART1_RX*%
X49859867Y54073803D03*
%TO.P,U5,B3*%
%TO.N,UART1_CTS*%
X50509867Y54073803D03*
%TO.P,U5,B2*%
%TO.N,N/C*%
X51159867Y54073803D03*
%TO.P,U5,B1*%
%TO.N,SDC2_DS*%
X51809867Y54073803D03*
%TO.P,U5,A21*%
%TO.N,GND*%
X52459867Y54073803D03*
%TO.P,U5,A20*%
%TO.N,EPHY_TXN*%
X53109867Y54073803D03*
%TO.P,U5,A19*%
%TO.N,EPHY_TXP*%
X53759867Y54073803D03*
%TO.P,U5,A18*%
%TO.N,GND*%
X54409867Y54073803D03*
%TO.P,U5,A16*%
%TO.N,RESET*%
X55059867Y54073803D03*
%TO.P,U5,A14*%
%TO.N,PH4*%
X55709867Y54073803D03*
%TO.P,U5,A12*%
%TO.N,PH9*%
X56359867Y54073803D03*
%TO.P,U5,A10*%
%TO.N,GND*%
X57009867Y54073803D03*
%TO.P,U5,A8*%
%TO.N,N/C*%
X57659867Y54073803D03*
%TO.P,U5,A6*%
%TO.N,$3N12389*%
X58309867Y54073803D03*
%TO.P,U5,A4*%
%TO.N,UART1_TX*%
X58959867Y54073803D03*
%TO.P,U5,A2*%
%TO.N,USB_ID*%
X59609867Y54073803D03*
%TO.P,U5,A1*%
%TO.N,GND*%
X60259867Y54073803D03*
%TD*%
D13*
%TO.P,C2,2*%
%TO.N,GND*%
X29627600Y9575800D03*
%TO.P,C2,1*%
%TO.N,PS*%
X31027600Y9575800D03*
%TD*%
D12*
%TO.P,C7,2*%
%TO.N,GND*%
X17130763Y17975934D03*
%TO.P,C7,1*%
%TO.N,PS*%
X17130763Y19375934D03*
%TD*%
%TO.P,C10,2*%
%TO.N,GND*%
X15682963Y17975934D03*
%TO.P,C10,1*%
%TO.N,PS*%
X15682963Y19375934D03*
%TD*%
%TO.P,C4,2*%
%TO.N,GND*%
X22024840Y11363092D03*
%TO.P,C4,1*%
%TO.N,VDD_GPU*%
X22024840Y12763092D03*
%TD*%
%TO.P,C6,2*%
%TO.N,GND*%
X20483563Y11346560D03*
%TO.P,C6,1*%
%TO.N,VDD_GPU*%
X20483563Y12746560D03*
%TD*%
D13*
%TO.P,C8,2*%
%TO.N,GND*%
X20483563Y16302560D03*
%TO.P,C8,1*%
%TO.N,VDD_CPU*%
X20483563Y14902560D03*
%TD*%
%TO.P,C9,2*%
%TO.N,GND*%
X22024840Y16293692D03*
%TO.P,C9,1*%
%TO.N,VDD_CPU*%
X22024840Y14893692D03*
%TD*%
%TO.P,C11,2*%
%TO.N,GND*%
X10668000Y18327600D03*
%TO.P,C11,1*%
%TO.N,VCC_DRAM*%
X10668000Y16927600D03*
%TD*%
%TO.P,C13,2*%
%TO.N,GND*%
X12330200Y19964400D03*
%TO.P,C13,1*%
%TO.N,VCC_DRAM*%
X13730200Y19964400D03*
%TD*%
%TO.P,R?,2*%
%TO.N,SDC1_CMD*%
X46645600Y25654000D03*
%TO.P,R?,1*%
%TO.N,3V3*%
X48045600Y25654000D03*
%TD*%
%TO.P,R?,2*%
%TO.N,$3N5565*%
X53340000Y27852600D03*
%TO.P,R?,1*%
%TO.N,3V3*%
X53340000Y26452600D03*
%TD*%
%TO.P,R?,2*%
%TO.N,$3N3551*%
X5751600Y32512000D03*
%TO.P,R?,1*%
%TO.N,3V3*%
X7151600Y32512000D03*
%TD*%
%TO.P,R?,2*%
%TO.N,SDC1_D3*%
X46645600Y22529800D03*
%TO.P,R?,1*%
%TO.N,3V3*%
X48045600Y22529800D03*
%TD*%
%TO.P,R?,2*%
%TO.N,LPCLK*%
X46645600Y20294600D03*
%TO.P,R?,1*%
%TO.N,3V3*%
X48045600Y20294600D03*
%TD*%
%TO.P,R?,2*%
%TO.N,$3N5564*%
X52425600Y27852600D03*
%TO.P,R?,1*%
%TO.N,3V3*%
X52425600Y26452600D03*
%TD*%
%TO.P,R?,2*%
%TO.N,SDC1_D0*%
X46645600Y24688800D03*
%TO.P,R?,1*%
%TO.N,3V3*%
X48045600Y24688800D03*
%TD*%
%TO.P,R?,2*%
%TO.N,SDC1_D1*%
X46645600Y23647400D03*
%TO.P,R?,1*%
%TO.N,3V3*%
X48045600Y23647400D03*
%TD*%
%TO.P,R?,2*%
%TO.N,SDC1_D2*%
X46645600Y21361400D03*
%TO.P,R?,1*%
%TO.N,3V3*%
X48045600Y21361400D03*
%TD*%
D12*
%TO.P,R?,2*%
%TO.N,$1N28880*%
X12660363Y9060560D03*
%TO.P,R?,1*%
%TO.N,IRQ*%
X12660363Y10460560D03*
%TD*%
%TO.P,R?,2*%
%TO.N,$1N28962*%
X14666963Y9060560D03*
%TO.P,R?,1*%
%TO.N,RESET*%
X14666963Y10460560D03*
%TD*%
D13*
%TO.P,R?,2*%
%TO.N,$3N5547*%
X58177200Y25552400D03*
%TO.P,R?,1*%
%TO.N,$3N5546*%
X59577200Y25552400D03*
%TD*%
D14*
%TO.P,U?,1*%
%TO.N,VDD_CPU*%
X16277840Y10634692D03*
%TO.P,U?,2*%
%TO.N,PS*%
X15477840Y10634692D03*
%TO.P,U?,3*%
%TO.N,$1N16541*%
X14677840Y10634692D03*
%TO.P,U?,4*%
%TO.N,VCC_DRAM*%
X13877840Y10634692D03*
%TO.P,U?,5*%
%TO.N,PMU_SDA*%
X13077840Y10634692D03*
%TO.P,U?,6*%
%TO.N,PMU_SCK*%
X12277840Y10634692D03*
D15*
%TO.P,U?,7*%
%TO.N,$1N24681*%
X11477840Y11434692D03*
%TO.P,U?,8*%
%TO.N,$1N30789*%
X11477840Y12234692D03*
%TO.P,U?,9*%
%TO.N,GND*%
X11477840Y13034692D03*
%TO.P,U?,10*%
%TO.N,N/C*%
X11477840Y13834692D03*
%TO.P,U?,11*%
%TO.N,$1N28880*%
X11477840Y14634692D03*
%TO.P,U?,12*%
%TO.N,3V3*%
X11477840Y15434692D03*
D14*
%TO.P,U?,13*%
%TO.N,$1N28962*%
X12277840Y16234692D03*
%TO.P,U?,14*%
%TO.N,N/C*%
X13077840Y16234692D03*
%TO.P,U?,15*%
%TO.N,1V8*%
X13877840Y16234692D03*
%TO.P,U?,16*%
%TO.N,VDD_GPU*%
X14677840Y16234692D03*
%TO.P,U?,17*%
%TO.N,PS*%
X15477840Y16234692D03*
%TO.P,U?,18*%
%TO.N,$1N16368*%
X16277840Y16234692D03*
D15*
%TO.P,U?,19*%
%TO.N,$1N16426*%
X17077840Y15434692D03*
%TO.P,U?,20*%
%TO.N,PS*%
X17077840Y14634692D03*
%TO.P,U?,21*%
%TO.N,GND*%
X17077840Y13834692D03*
%TD*%
D13*
%TO.P,R?,2*%
%TO.N,PMU_SDA*%
X9699763Y15627960D03*
%TO.P,R?,1*%
%TO.N,1V8*%
X11099763Y15627960D03*
%TD*%
%TO.P,R?,2*%
%TO.N,PMU_SCK*%
X9699763Y14586560D03*
%TO.P,R?,1*%
%TO.N,1V8*%
X11099763Y14586560D03*
%TD*%
D12*
%TO.P,R?,2*%
%TO.N,$3N12389*%
X47690102Y32715352D03*
%TO.P,R?,1*%
%TO.N,SDC1_CLK*%
X46290102Y32715352D03*
%TD*%
D13*
%TO.P,R?,2*%
%TO.N,$3N9917*%
X37160200Y40222400D03*
%TO.P,R?,1*%
%TO.N,SDC0_CLK*%
X37160200Y38822400D03*
%TD*%
D12*
%TO.P,R?,2*%
%TO.N,$3N2831*%
X47639200Y35255200D03*
%TO.P,R?,1*%
%TO.N,SDC2_CLK*%
X46239200Y35255200D03*
%TD*%
D13*
%TO.P,R?,2*%
%TO.N,HDSDA*%
X42099000Y14706600D03*
%TO.P,R?,1*%
%TO.N,HSDA*%
X43499000Y14706600D03*
%TD*%
D12*
%TO.P,R?,2*%
%TO.N,3V3*%
X27462349Y9974763D03*
%TO.P,R?,1*%
%TO.N,$4N12583*%
X26062349Y9974763D03*
%TD*%
D13*
%TO.P,R?,2*%
%TO.N,$1N24681*%
X9699763Y13519760D03*
%TO.P,R?,1*%
%TO.N,GND*%
X11099763Y13519760D03*
%TD*%
%TO.P,R?,2*%
%TO.N,HDCEC*%
X48767848Y12587302D03*
%TO.P,R?,1*%
%TO.N,$4N26086*%
X48767848Y11187302D03*
%TD*%
%TO.P,R?,2*%
%TO.N,HDSCL*%
X47650400Y12587200D03*
%TO.P,R?,1*%
%TO.N,H5V*%
X47650400Y11187200D03*
%TD*%
%TO.P,R?,2*%
%TO.N,HDSDA*%
X46532800Y12587200D03*
%TO.P,R?,1*%
%TO.N,H5V*%
X46532800Y11187200D03*
%TD*%
%TO.P,R?,2*%
%TO.N,1V8*%
X19493000Y8509000D03*
%TO.P,R?,1*%
%TO.N,RESET*%
X20893000Y8509000D03*
%TD*%
%TO.P,R?,2*%
%TO.N,TV_OUT*%
X35814000Y15203400D03*
%TO.P,R?,1*%
%TO.N,GND*%
X35814000Y13803400D03*
%TD*%
%TO.P,R?,2*%
%TO.N,3V3*%
X62602151Y45810400D03*
%TO.P,R?,1*%
%TO.N,$1N53902*%
X62602151Y44410400D03*
%TD*%
%TO.P,R?,2*%
%TO.N,LL*%
X36889972Y18496419D03*
%TO.P,R?,1*%
%TO.N,$4N36516*%
X36889972Y17096419D03*
%TD*%
%TO.P,R?,2*%
%TO.N,LR*%
X38058372Y18496419D03*
%TO.P,R?,1*%
%TO.N,$4N36638*%
X38058372Y17096419D03*
%TD*%
%TO.P,R?,2*%
%TO.N,$4N12583*%
X28321000Y9996400D03*
%TO.P,R?,1*%
%TO.N,USB_ID*%
X28321000Y8596400D03*
%TD*%
D12*
%TO.P,R?,2*%
%TO.N,$3N3551*%
X9082000Y32512000D03*
%TO.P,R?,1*%
%TO.N,SDC0_DET*%
X7682000Y32512000D03*
%TD*%
%TO.P,R?,2*%
%TO.N,$2N2224*%
X31256200Y29006800D03*
%TO.P,R?,1*%
%TO.N,GND*%
X29856200Y29006800D03*
%TD*%
%TO.P,R?,2*%
%TO.N,$2N2223*%
X31256200Y28016200D03*
%TO.P,R?,1*%
%TO.N,GND*%
X29856200Y28016200D03*
%TD*%
D17*
%TO.N,SDQM1*%
X26230800Y34281900D03*
%TO.N,VCC_DRAM*%
X27819800Y30290300D03*
%TO.N,SCAS*%
X25762400Y31095100D03*
%TO.N,GND*%
X23013200Y31103100D03*
%TO.N,SODT1*%
X23012400Y30302200D03*
%TO.N,SCKN*%
X24688800Y29921200D03*
%TO.N,SCKP*%
X24993600Y30556200D03*
%TO.N,SVREF*%
X21261400Y31331700D03*
%TO.N,SDQ13*%
X23832000Y31921900D03*
%TO.N,SRAS*%
X23971800Y30701300D03*
%TO.N,SDQ8*%
X22947600Y31888700D03*
%TO.N,VCC_DRAM*%
X21031200Y29210000D03*
%TO.N,SA10*%
X25730200Y29159200D03*
%TO.N,SCS1*%
X25196800Y29565600D03*
%TO.N,SWE*%
X23977600Y28244800D03*
%TO.N,SCS0*%
X22217600Y28707500D03*
%TO.N,SBA0*%
X22231800Y27921700D03*
%TO.N,SDQ0*%
X35560000Y36118800D03*
%TO.N,GND*%
X30969400Y31509500D03*
%TO.N,VCC_DRAM*%
X29129100Y31501300D03*
%TO.N,SCKP*%
X33782000Y29311600D03*
%TO.N,SCKN*%
X33147000Y29260800D03*
%TO.N,SA15*%
X24933100Y27561100D03*
%TO.N,SA12*%
X26981600Y27140700D03*
%TO.N,SWE*%
X30004200Y25049900D03*
%TO.N,SODT1*%
X34899600Y24434800D03*
%TO.N,SCS0*%
X34086800Y23520400D03*
%TO.N,SA15*%
X32279300Y26051400D03*
%TO.N,SA13*%
X33731200Y26238200D03*
%TO.N,SA2*%
X33070800Y26238200D03*
%TO.N,SA11*%
X32966100Y27031100D03*
%TO.N,SA4*%
X32316100Y27031100D03*
%TO.N,GND*%
X32308800Y29616400D03*
%TO.N,SRAS*%
X32137800Y28631300D03*
%TO.N,SA14*%
X34290000Y28321000D03*
%TO.N,SDQS0P*%
X34264600Y36779200D03*
%TO.N,GND*%
X30029600Y36411700D03*
%TO.N,SBA2*%
X33001400Y25116500D03*
%TO.N,SODT0*%
X34912400Y25075300D03*
%TO.N,SBA0*%
X34271400Y25066400D03*
%TO.N,SA3*%
X33610600Y25100700D03*
%TO.N,SA5*%
X33625200Y24440300D03*
%TO.N,SA9*%
X32976000Y24441100D03*
%TO.N,GND*%
X21495200Y36614900D03*
X23019200Y35909100D03*
%TO.N,SDQ0*%
X23012400Y36728400D03*
%TO.N,GND*%
X28556400Y25108700D03*
%TO.N,SA9*%
X25425400Y24968200D03*
%TO.N,SA2*%
X24231600Y27076400D03*
%TO.N,GND*%
X28886600Y28682100D03*
%TO.N,VCC_DRAM*%
X29204600Y25901300D03*
%TO.N,GND*%
X28625800Y26746200D03*
%TO.N,VCC_DRAM*%
X29337000Y26822400D03*
%TO.N,SA11*%
X27007000Y25505700D03*
%TO.N,SA4*%
X27818200Y26294500D03*
%TO.N,SVREF*%
X25152800Y28994900D03*
%TO.N,SBA2*%
X23019200Y27869300D03*
%TO.N,SA3*%
X22993800Y27118900D03*
%TO.N,SA5*%
X23018200Y26294500D03*
%TO.N,SA13*%
X23806600Y25481700D03*
%TO.N,SODT0*%
X22047200Y30200600D03*
%TO.N,GND*%
X21397200Y28715500D03*
%TO.N,SA1*%
X26143400Y26886700D03*
%TO.N,SA0*%
X24365400Y27674100D03*
%TO.N,SBA1*%
X25660800Y27902700D03*
%TO.N,SA6*%
X27000200Y26314400D03*
%TO.N,SA14*%
X25737000Y26200900D03*
%TO.N,SDQ2*%
X34934800Y36149700D03*
%TO.N,SDQ8*%
X34899600Y34188400D03*
%TO.N,SDQS0N*%
X33629600Y36779200D03*
%TO.N,GND*%
X34296800Y36073500D03*
%TO.N,SDQ4*%
X32334200Y35483800D03*
%TO.N,SDQ6*%
X32943800Y36118800D03*
%TO.N,GND*%
X32969200Y36804600D03*
%TO.N,SDQS1N*%
X31242000Y36296600D03*
%TO.N,SDQ1*%
X32315600Y34828900D03*
%TO.N,SDQ13*%
X34906400Y35463900D03*
%TO.N,SDQ10*%
X34271400Y35466200D03*
%TO.N,SDQ11*%
X33639400Y34854300D03*
%TO.N,SDQ3*%
X32976000Y34828900D03*
%TO.N,SDQM1*%
X33629600Y35483800D03*
%TO.N,SDQ12*%
X31604400Y32296900D03*
X30055000Y32271500D03*
%TO.N,GND*%
X34340800Y30429200D03*
X34910900Y32226700D03*
X21329800Y32301300D03*
%TO.N,SDQS1P*%
X30683200Y36271200D03*
%TO.N,SDQ1*%
X29083000Y34569400D03*
%TO.N,SDQ3*%
X26916400Y34319900D03*
%TO.N,SDQS0N*%
X26219600Y35929100D03*
%TO.N,SDQS0P*%
X25603200Y35915600D03*
%TO.N,SDQ6*%
X27000200Y36728400D03*
%TO.N,GND*%
X31750000Y34721800D03*
%TO.N,VCC_DRAM*%
X31038800Y34594800D03*
X29972000Y34696400D03*
%TO.N,SDQ4*%
X29133800Y35610800D03*
%TO.N,SDQ14*%
X25914800Y33050900D03*
%TO.N,GND*%
X21336000Y34290000D03*
%TO.N,SDQ2*%
X24384000Y35839400D03*
%TO.N,GND*%
X25704800Y34163000D03*
%TO.N,VCC_DRAM*%
X26181200Y32301300D03*
%TO.N,GND*%
X27811400Y32301300D03*
%TO.N,SCAS*%
X35585400Y28778200D03*
%TO.N,SDQS1N*%
X25273000Y34518600D03*
%TO.N,SDQ11*%
X23880600Y33907500D03*
%TO.N,SDQS1P*%
X24790400Y34899600D03*
%TO.N,SDQ10*%
X22987000Y32689800D03*
%TO.N,SCS1*%
X34942300Y25695500D03*
%TO.N,SA12*%
X34899600Y27660600D03*
%TO.N,SA6*%
X34594800Y28803600D03*
%TO.N,SA10*%
X34417000Y26695400D03*
%TO.N,GND*%
X35890200Y26822400D03*
%TO.N,SA0*%
X35052000Y26644600D03*
%TO.N,VCC_DRAM*%
X26924000Y37846000D03*
%TO.N,SDQ1*%
X32315600Y34828900D03*
%TO.N,SDQ6*%
X32943800Y36118800D03*
X27000200Y36728400D03*
%TO.N,SDQM1*%
X33629600Y35483800D03*
X26230800Y34281900D03*
%TO.N,SDQ3*%
X32976000Y34828900D03*
X32976000Y34828900D03*
%TO.N,SDQ12*%
X31604400Y32296900D03*
%TO.N,SDQS0N*%
X33629600Y36779200D03*
%TO.N,SRAS*%
X32137800Y28631300D03*
X23971800Y30701300D03*
%TO.N,SDQ14*%
X34257700Y34165000D03*
X25914800Y33050900D03*
%TO.N,SDQ8*%
X34899600Y34188400D03*
%TO.N,SDQ13*%
X34906400Y35463900D03*
%TO.N,SA1*%
X33629600Y28321000D03*
X26143400Y26886700D03*
X26143400Y26886700D03*
%TO.N,SBA1*%
X32969200Y28321000D03*
%TO.N,SA14*%
X25737000Y26200900D03*
%TO.N,SA0*%
X35052000Y26644600D03*
%TO.N,SA3*%
X33610600Y25100700D03*
%TO.N,SWE*%
X30004200Y25049900D03*
%TO.N,SA15*%
X32279300Y26051400D03*
%TO.N,SA2*%
X33070800Y26238200D03*
%TO.N,SA10*%
X34417000Y26695400D03*
%TO.N,SA9*%
X25425400Y24968200D03*
X32976000Y24441100D03*
%TO.N,SA13*%
X33731200Y26238200D03*
%TO.N,SA5*%
X33625200Y24440300D03*
%TO.N,SA11*%
X27007000Y25505700D03*
X32966100Y27031100D03*
X27007000Y25505700D03*
X32966100Y27031100D03*
%TO.N,SDQ15*%
X24485600Y31419800D03*
X24485600Y31419800D03*
X35483800Y32639000D03*
%TO.N,SDQ3*%
X32976000Y34828900D03*
%TO.N,VCC_DRAM*%
X21310600Y27660600D03*
X20980400Y33096200D03*
X21285200Y25628600D03*
%TO.N,GND*%
X21437600Y24790400D03*
%TO.N,VCC_DRAM*%
X21259800Y35153600D03*
%TO.N,SBA1*%
X32969200Y28321000D03*
%TO.N,SA1*%
X33629600Y28321000D03*
%TO.N,SBA1*%
X25660800Y27902700D03*
%TO.N,VCC_DRAM*%
X22199500Y36713200D03*
X22219700Y35093000D03*
%TO.N,PS*%
X16342100Y14747600D03*
X16742600Y15147800D03*
D18*
X16916400Y12344400D03*
D17*
X15214600Y16992600D03*
X14986000Y16332200D03*
X15875000Y16992600D03*
X16548900Y16992600D03*
%TO.N,PMU_SDA*%
X12721300Y15798800D03*
%TO.N,PMU_SCK*%
X11506200Y14274800D03*
%TO.N,GND*%
X12369800Y15062200D03*
%TO.N,3V3*%
X13665200Y10820400D03*
D18*
%TO.N,1V8*%
X15385300Y11005300D03*
D17*
%TO.N,SDC2_D1*%
X50012600Y35509200D03*
%TO.N,SDC2_D4*%
X49276000Y35814000D03*
%TO.N,SDC2_D0*%
X48539400Y35788600D03*
%TO.N,SDC2_D7*%
X49657000Y37820600D03*
%TO.N,GND*%
X50393600Y37414200D03*
%TO.N,SDC2_CMD*%
X56692800Y35890200D03*
%TO.N,SDC2_CLK*%
X50444400Y34010600D03*
X56743600Y36652200D03*
%TO.N,SDC2_RST*%
X56032400Y35661600D03*
%TO.N,3V3*%
X55194200Y35687000D03*
X54203600Y35687000D03*
X58638100Y35164100D03*
%TO.N,GND*%
X58674000Y35890200D03*
X55690100Y37164100D03*
%TO.N,3V3*%
X56692800Y37439600D03*
%TO.N,SDC1_D1*%
X43942000Y34340800D03*
%TO.N,SDC1_CLK*%
X48666400Y21971000D03*
X49707800Y25882600D03*
%TO.N,GND*%
X42672000Y34137600D03*
%TO.N,SDC1_D2*%
X42062400Y34798000D03*
%TO.N,SDC1_CMD*%
X48381400Y25583400D03*
%TO.N,SDC1_D0*%
X48387000Y24307800D03*
%TO.N,SDC1_D1*%
X48488600Y23469600D03*
%TO.N,SDC1_D2*%
X48768000Y21361400D03*
%TO.N,LPCLK*%
X48488700Y20294700D03*
%TO.N,SDC1_D0*%
X43815000Y33375600D03*
%TO.N,SDC1_CMD*%
X42037000Y32896600D03*
%TO.N,SDC1_D3*%
X44907200Y32943800D03*
X48514000Y22707600D03*
%TO.N,$3N5562*%
X50190400Y18516600D03*
%TO.N,3V3*%
X52149500Y18752900D03*
X56159400Y23088600D03*
%TO.N,$3N5562*%
X56210200Y21996400D03*
X55346600Y25679400D03*
D19*
%TO.N,GND*%
X51155600Y23647400D03*
X51917600Y23647400D03*
X52679600Y23647400D03*
X53441600Y23647400D03*
X51155600Y22885400D03*
X51917600Y22885400D03*
X52679600Y22885400D03*
X53441600Y22885400D03*
X51155600Y22123400D03*
X51917600Y22123400D03*
X52679600Y22123400D03*
X53441600Y22123400D03*
X51155600Y21361400D03*
X51917600Y21361400D03*
X52679600Y21361400D03*
X53441600Y21361400D03*
D17*
%TO.N,$3N5562*%
X53721000Y18999200D03*
%TO.N,3V3*%
X47675800Y27127200D03*
%TO.N,AP_REG_ON*%
X55803800Y21259800D03*
%TO.N,1V8*%
X9931400Y15113000D03*
D18*
%TO.N,VDD_CPU*%
X18999200Y17272000D03*
X19940700Y17272000D03*
X20772200Y17272000D03*
X21726000Y17272000D03*
%TO.N,VDD_GPU*%
X18135600Y10541000D03*
X19151600Y10541000D03*
X20116800Y10541000D03*
X21056600Y10541000D03*
X21920200Y10541000D03*
%TO.N,VCC_DRAM*%
X10642600Y19939000D03*
X10642600Y19227800D03*
D17*
%TO.N,BT_RSTN*%
X49047400Y17932400D03*
%TO.N,WL_REG_ON*%
X48488600Y17449800D03*
%TO.N,LPCLK*%
X42062400Y32207200D03*
%TO.N,GND*%
X53162200Y36144200D03*
%TO.N,$4N12583*%
X25771700Y9974800D03*
D18*
%TO.N,PS*%
X29210000Y7899400D03*
%TO.N,GND*%
X24307800Y7899400D03*
D17*
%TO.N,3V3*%
X52882800Y28117800D03*
%TO.N,D2-*%
X36220400Y25069800D03*
%TO.N,VCC_DRAM*%
X36169600Y29591000D03*
X36169600Y28956000D03*
X36144200Y30251400D03*
X36144200Y30911800D03*
X36144200Y31597600D03*
%TO.N,1V8*%
X36169600Y28321000D03*
%TO.N,$2N2062*%
X36855400Y28321000D03*
%TO.N,VDD_CPU*%
X38160000Y32223800D03*
X37509900Y31578500D03*
X37509900Y30933100D03*
%TO.N,GND*%
X36880800Y31572200D03*
X36880800Y30911800D03*
X36880800Y30261500D03*
X36880800Y29641800D03*
X38150800Y30911800D03*
%TO.N,VDD_GPU*%
X38836600Y32207200D03*
X38862000Y31572200D03*
X38836600Y30911800D03*
X38862000Y30251400D03*
%TO.N,VDD_CPU*%
X38156800Y31570600D03*
%TO.N,D2+*%
X36245800Y24485600D03*
%TO.N,SDC0_DET*%
X11684000Y40817800D03*
%TO.N,GND*%
X21209000Y37459700D03*
X21717000Y37973000D03*
X22275800Y38531800D03*
X22860000Y39090600D03*
X23485100Y39395400D03*
X24396800Y39395400D03*
X25303000Y39395400D03*
X26248500Y39395400D03*
X27013900Y39395400D03*
X27756800Y39395400D03*
X28606600Y39395400D03*
X29535200Y39395400D03*
X30430100Y39395400D03*
X31431900Y39395400D03*
X32334200Y39395400D03*
X33125900Y39395400D03*
X34137600Y39395400D03*
X34747200Y39065200D03*
%TO.N,SDC0_DET*%
X9448700Y32511900D03*
%TO.N,GND*%
X36601400Y22352000D03*
X36626800Y21717000D03*
X33045400Y22199600D03*
X32054800Y22199600D03*
X30861000Y22199600D03*
X29692600Y22225000D03*
X28600400Y22225000D03*
X27533600Y22225000D03*
X26416000Y22225000D03*
X25146000Y22199600D03*
X24104600Y22250400D03*
X22910800Y23164800D03*
X21844000Y24231600D03*
%TO.N,VDD_GPU*%
X39446200Y29616400D03*
%TO.N,GND*%
X58699400Y34391600D03*
X14376400Y8204200D03*
X14986000Y8178800D03*
X36398200Y22961600D03*
%TO.N,D0+*%
X37541200Y24460200D03*
%TO.N,GND*%
X37515800Y25069800D03*
X26873200Y8051800D03*
%TO.N,D0+*%
X27457400Y8051800D03*
%TO.N,GND*%
X35560000Y35483800D03*
X35534600Y29641800D03*
X34899600Y28321000D03*
%TO.N,AP_REG_ON*%
X41402000Y32207200D03*
%TO.N,BT_RSTN*%
X41402000Y31572200D03*
%TO.N,GND*%
X49606200Y33756600D03*
%TO.N,3V3*%
X55092600Y18211800D03*
%TO.N,WL_REG_ON*%
X44246800Y31242000D03*
%TO.N,GND*%
X50800000Y10972800D03*
X53771800Y10947400D03*
%TO.N,PS*%
X15914400Y15175300D03*
X16304200Y15565100D03*
%TO.N,VDD_CPU*%
X16535400Y11049000D03*
%TO.N,GND*%
X13868400Y13868400D03*
X14655800Y13868400D03*
X13893800Y13030200D03*
X14681200Y13055600D03*
X14277800Y13434700D03*
X14277800Y13434700D03*
X43586400Y31216600D03*
%TO.N,PH8*%
X41402000Y28981400D03*
%TO.N,GND*%
X38160000Y28323900D03*
X39460000Y28323900D03*
%TO.N,$4N2219*%
X41402000Y26390600D03*
%TO.N,$4N2243*%
X41427400Y29616400D03*
%TO.N,$4N2220*%
X42062400Y27025600D03*
%TO.N,1V8*%
X41402000Y30276800D03*
%TO.N,$4N2198*%
X37515900Y25755600D03*
%TO.N,$4N2208*%
X37509900Y26423600D03*
D18*
%TO.N,PS*%
X2006600Y27127200D03*
D17*
%TO.N,$4N2209*%
X36804600Y27482800D03*
%TO.N,AGND*%
X38176200Y26365200D03*
%TO.N,GND*%
X38181300Y25095200D03*
%TO.N,1V8*%
X38176200Y24434800D03*
%TO.N,GND*%
X50800000Y13131800D03*
X53771800Y13106400D03*
X41402000Y25095200D03*
%TO.N,HHPD*%
X39450600Y25080400D03*
%TO.N,HSCL*%
X40081200Y25095200D03*
%TO.N,HDCEC*%
X39446200Y26416000D03*
%TO.N,1V8*%
X40106600Y25730200D03*
%TO.N,GND*%
X36195000Y21183600D03*
X24765000Y12954000D03*
X30605800Y36987900D03*
%TO.N,$4N26086*%
X43256200Y13233400D03*
%TO.N,HDHPD*%
X45135800Y10795000D03*
%TO.N,HDSCL*%
X47932000Y10919800D03*
%TO.N,HDCEC*%
X49020200Y10967300D03*
%TO.N,EPHY_RXN*%
X44018200Y20269200D03*
%TO.N,EPHY_RXP*%
X44551600Y20802600D03*
%TO.N,GND*%
X43891200Y22174200D03*
%TO.N,EPHY_TXN*%
X44831000Y22072600D03*
%TO.N,EPHY_TXP*%
X45186600Y22580600D03*
%TO.N,GND*%
X54432200Y15900400D03*
X55219600Y15798800D03*
X55702200Y15621000D03*
X55930800Y15087600D03*
X56362600Y14579600D03*
%TO.N,PMU_SDA*%
X42722800Y25730200D03*
%TO.N,PMU_SCK*%
X42037000Y25755600D03*
%TO.N,EPHY_RTX*%
X42688600Y25095200D03*
%TO.N,PS*%
X41783000Y11633200D03*
%TO.N,GND*%
X38328600Y20929600D03*
X35991800Y18643600D03*
%TO.N,$4N42572*%
X17525900Y26822500D03*
%TO.N,FEL*%
X16916400Y24409400D03*
X10922000Y24434800D03*
%TO.N,RESET*%
X19075400Y7950200D03*
%TO.N,GND*%
X43865800Y26974800D03*
%TO.N,FEL*%
X44399200Y26085800D03*
%TO.N,GND*%
X44780200Y23444200D03*
X36398200Y14935200D03*
%TO.N,$4N34315*%
X38455600Y15494000D03*
%TO.N,$4N34203*%
X39395400Y17526000D03*
%TO.N,GND*%
X19710400Y6146800D03*
X21336000Y6146800D03*
%TO.N,3V3*%
X5384800Y32486600D03*
%TO.N,SDC2_D7*%
X47193200Y38201600D03*
%TO.N,SDC2_D1*%
X48006000Y37312600D03*
%TO.N,SDC2_D4*%
X48514000Y36779200D03*
%TO.N,SDC2_D0*%
X43611800Y42291000D03*
%TO.N,SDC2_CMD*%
X45135800Y41122600D03*
%TO.N,3V3*%
X44907200Y38531800D03*
%TO.N,SDC2_RST*%
X45999400Y36499800D03*
%TO.N,GND*%
X45415200Y37033200D03*
%TO.N,PI15*%
X36245800Y34848800D03*
%TO.N,PI10*%
X36245800Y34213800D03*
%TO.N,PI14*%
X36271200Y33578800D03*
%TO.N,PI16*%
X36906200Y33553400D03*
%TO.N,PI12*%
X36906200Y34213800D03*
%TO.N,PI11*%
X36906200Y34874200D03*
%TO.N,PI0*%
X38176200Y33528000D03*
%TO.N,PI6*%
X38836600Y34823400D03*
%TO.N,PI5*%
X38125400Y34823400D03*
%TO.N,PI4*%
X38811200Y34188400D03*
%TO.N,PI7*%
X39446200Y35458400D03*
%TO.N,PI2*%
X38811200Y33528000D03*
%TO.N,PI8*%
X40741600Y33553400D03*
%TO.N,PI13*%
X40767000Y34163000D03*
%TO.N,PI3*%
X40767000Y34823400D03*
%TO.N,PI1*%
X41402000Y34823400D03*
%TO.N,PI9*%
X41427400Y34163000D03*
%TO.N,3V3*%
X40741600Y32867600D03*
X37541200Y33553400D03*
%TO.N,PI16*%
X28524200Y44170600D03*
%TO.N,PI14*%
X27101800Y44170600D03*
%TO.N,PI0*%
X29489400Y44196000D03*
%TO.N,PH7*%
X42062400Y29616400D03*
%TO.N,PH9*%
X44399200Y29997400D03*
%TO.N,PH10*%
X43916600Y29591000D03*
%TO.N,PH5*%
X44551600Y29387800D03*
%TO.N,PH4*%
X44653200Y28625800D03*
%TO.N,PH6*%
X45618400Y27686000D03*
%TO.N,PH2*%
X45593000Y26847800D03*
%TO.N,GND*%
X42672000Y27051000D03*
%TO.N,PH3*%
X44932600Y26619200D03*
%TO.N,3V3*%
X40792400Y31541300D03*
%TO.N,PH1*%
X41376600Y28290500D03*
%TO.N,PH0*%
X41402000Y27660600D03*
%TO.N,3V3*%
X41376600Y26974800D03*
X36195000Y25730200D03*
%TO.N,GND*%
X12779600Y43372200D03*
X56946700Y27635300D03*
X57861200Y27635200D03*
X58832500Y27025600D03*
X59848400Y27025600D03*
X61094500Y27025600D03*
X58216800Y26390600D03*
X59309000Y26390600D03*
X60484900Y26365200D03*
X58750200Y27838400D03*
X59766200Y27914600D03*
X60883800Y27940000D03*
X61849000Y27990800D03*
X61849000Y28963500D03*
X62814200Y29413200D03*
X64058800Y29514800D03*
X65049400Y29591000D03*
X64541400Y30429200D03*
X63931800Y30835600D03*
X63322200Y30378400D03*
X61950600Y30226000D03*
X60909200Y28956000D03*
X60121800Y28905200D03*
X58902600Y28829000D03*
X58928000Y29540200D03*
X59105800Y30530800D03*
X58242200Y30937200D03*
X56413400Y31673800D03*
X54660800Y31216600D03*
%TO.N,$3N2117*%
X53517800Y31369000D03*
%TO.N,GND*%
X52298600Y28625800D03*
X53623100Y28625800D03*
X59613800Y29819600D03*
X60579000Y30556200D03*
%TO.N,SRAS*%
X60731400Y29819600D03*
%TO.N,GND*%
X62153800Y30886400D03*
X57073800Y24587200D03*
X58039000Y24663400D03*
X58976700Y24663400D03*
X59207400Y23850600D03*
X60223400Y23672800D03*
X61315600Y23825200D03*
X61391800Y24841200D03*
X62407800Y24079200D03*
X63652400Y24003000D03*
X62357000Y23063200D03*
%TO.N,SDQ3*%
X61112400Y22783800D03*
%TO.N,GND*%
X59817000Y22783800D03*
X58877200Y23063200D03*
X64871600Y24003000D03*
X63728600Y22961600D03*
X64998600Y22860000D03*
X60985400Y21869400D03*
X59867800Y21615400D03*
X58826400Y22021800D03*
X42595800Y21132800D03*
X37490200Y29643300D03*
X38506400Y33045400D03*
X18592900Y25828700D03*
X18592900Y26886500D03*
X18592900Y36424100D03*
X18592900Y35384200D03*
X18592900Y34325400D03*
X18592900Y33249600D03*
X18592900Y31122100D03*
X18592900Y28997500D03*
%TO.N,SDC0_D1*%
X6832600Y44094400D03*
%TO.N,D1-*%
X8477400Y25782600D03*
%TO.N,D1+*%
X8763000Y24765000D03*
D19*
%TO.N,GND*%
X3708400Y13970000D03*
X3708400Y17018000D03*
X3708400Y20066000D03*
X3708400Y23114000D03*
X3708400Y26162000D03*
X3708400Y35306000D03*
X6756400Y20066000D03*
X9804400Y26162000D03*
X9804400Y29210000D03*
X9804400Y44450000D03*
X12852400Y1778000D03*
X12852400Y23114000D03*
X12852400Y26162000D03*
X12852400Y29210000D03*
X12852400Y32258000D03*
X12852400Y35306000D03*
X15900400Y1778000D03*
X15900400Y26162000D03*
X15849600Y33020000D03*
X15900400Y35306000D03*
X15900400Y38354000D03*
X15697200Y44043600D03*
X18948400Y20066000D03*
X18948400Y38354000D03*
X18923000Y44018200D03*
X21996400Y13970000D03*
%TO.N,PS*%
X25044400Y1778000D03*
%TO.N,GND*%
X25044400Y4826000D03*
X25044400Y7874000D03*
%TO.N,D0+*%
X28092400Y1778000D03*
%TO.N,GND*%
X28092400Y4826000D03*
X31140400Y7874000D03*
X31140400Y44450000D03*
X34188400Y4826000D03*
X37236400Y4826000D03*
X43332400Y4826000D03*
X43332400Y10922000D03*
X43332400Y13970000D03*
X46380400Y1778000D03*
X46380400Y44450000D03*
X49428400Y1778000D03*
X49428400Y17018000D03*
X49428400Y20066000D03*
X49428400Y38354000D03*
X49428400Y44450000D03*
X51511200Y1727200D03*
X55524400Y1778000D03*
X55524400Y7874000D03*
X55524400Y10922000D03*
X55524400Y17018000D03*
X55524400Y32258000D03*
X55524400Y41402000D03*
X55524400Y44450000D03*
X57886600Y3708400D03*
X58572400Y10922000D03*
X58572400Y20066000D03*
X58572400Y32258000D03*
X58572400Y41402000D03*
X58572400Y44450000D03*
X61620400Y7874000D03*
X61620400Y13970000D03*
X61620400Y17018000D03*
X61620400Y23114000D03*
X61620400Y32258000D03*
X61620400Y38354000D03*
%TO.N,SBA1*%
X61620400Y41402000D03*
%TO.N,SA10*%
X61620400Y44450000D03*
%TO.N,GND*%
X64668400Y13970000D03*
X64668400Y17018000D03*
X64668400Y32258000D03*
X64668400Y35306000D03*
X64668400Y38354000D03*
X64668400Y41402000D03*
X64008000Y43688000D03*
D17*
%TO.N,SA4*%
X27818200Y26294500D03*
X32316100Y27031100D03*
%TO.N,SA11*%
X32966100Y27031100D03*
X27007000Y25505700D03*
%TO.N,SA4*%
X32316100Y27031100D03*
X27818200Y26294500D03*
%TO.N,SA11*%
X32966100Y27031100D03*
%TO.N,SA12*%
X34899600Y27660600D03*
%TO.N,SA11*%
X27007000Y25505700D03*
%TO.N,SODT0*%
X22047200Y30200600D03*
%TO.N,IRQ*%
X42037000Y37388800D03*
%TO.N,USB_ID*%
X45694600Y35915600D03*
%TO.N,$4N12583*%
X28295600Y10236200D03*
%TO.N,$1N28880*%
X11938000Y9169400D03*
%TO.N,$1N53902*%
X62611000Y43992800D03*
%TO.N,RESET*%
X24177900Y9877700D03*
%TO.N,3V3*%
X56057800Y33020000D03*
%TO.N,GND*%
X40767000Y35458400D03*
X45491400Y29230800D03*
X45720000Y25527000D03*
D19*
X27736800Y17576800D03*
X31292800Y17576800D03*
X34010600Y13589000D03*
X42392600Y10160000D03*
X42392600Y8280400D03*
X18770600Y21336000D03*
X17424400Y36474400D03*
X17526000Y34163000D03*
D17*
%TO.N,3V3*%
X5943600Y39522400D03*
%TO.N,GND*%
X5842000Y38506400D03*
X5867400Y37388800D03*
X5867400Y36372800D03*
%TO.N,SDC0_CLK*%
X5638800Y40513000D03*
%TO.N,SDQ0*%
X45567600Y9194800D03*
%TO.N,SDC0_D0*%
X6375400Y42976800D03*
%TD*%
%TO.N,GND*%
D20*
X23411400Y36301300D02*
X23019200Y35909100D01*
X21497800Y36614900D02*
X21495200Y36614900D01*
X21811400Y36301300D02*
X21497800Y36614900D01*
%TO.N,VCC_DRAM*%
X30046800Y31501300D02*
X29129100Y31501300D01*
%TO.N,GND*%
X21811400Y34701300D02*
X21811400Y33901300D01*
%TO.N,VCC_DRAM*%
D21*
X22427000Y29901300D02*
X22028600Y29502900D01*
%TO.N,SDQ4*%
D22*
X28107200Y35895700D02*
X27701600Y36301300D01*
X27701600Y36301300D02*
X27411400Y36301300D01*
%TO.N,SDQ13*%
D23*
X34923600Y35463900D02*
X34906400Y35463900D01*
X35236300Y35151200D02*
X34923600Y35463900D01*
%TO.N,SDQ10*%
D22*
X34586300Y35151200D02*
X34271400Y35466200D01*
%TO.N,SDQ3*%
X32976000Y34840900D02*
X32976000Y34828900D01*
X33286300Y35151200D02*
X32976000Y34840900D01*
%TO.N,SDQ1*%
X32636300Y35151200D02*
X32315600Y34830500D01*
%TO.N,GND*%
D24*
X34314000Y36073500D02*
X34296800Y36073500D01*
X34586300Y35801200D02*
X34314000Y36073500D01*
D20*
X21811400Y32301300D02*
X21329800Y32301300D01*
X27811400Y32301300D02*
X27411400Y32301300D01*
%TO.N,SDQ14*%
D22*
X26270400Y32695300D02*
X25914800Y33050900D01*
X27005400Y32695300D02*
X26270400Y32695300D01*
X27411400Y33101300D02*
X27005400Y32695300D01*
%TO.N,VCC_DRAM*%
D24*
X26611400Y32301300D02*
X26181200Y32301300D01*
%TO.N,SDQM1*%
D22*
X26611400Y33901300D02*
X26230800Y34281900D01*
%TO.N,VCC_DRAM*%
D21*
X22611400Y29901300D02*
X22427000Y29901300D01*
%TO.N,SDQ13*%
D23*
X23832000Y31921900D02*
X23411400Y31501300D01*
%TO.N,SDQ8*%
D22*
X22947600Y31888700D02*
X22528800Y32307500D01*
%TO.N,SRAS*%
X23971800Y30701300D02*
X23411400Y30701300D01*
%TO.N,SBA0*%
X22611400Y28301300D02*
X22231800Y27921700D01*
%TO.N,SBA2*%
X23411400Y28301300D02*
X23019200Y27909100D01*
X23019200Y27909100D02*
X23019200Y27869300D01*
%TO.N,SCS0*%
D23*
X22611400Y29101300D02*
X22217600Y28707500D01*
%TO.N,SBA2*%
D22*
X33001400Y25116500D02*
X32636300Y24751500D01*
%TO.N,SDQS0N*%
X26611400Y36117700D02*
X26422800Y35929100D01*
%TO.N,SDQ3*%
X26916400Y34319900D02*
X26611400Y34624900D01*
X26611400Y34701300D02*
X26611400Y34624900D01*
%TO.N,SA13*%
X23791800Y25481700D02*
X23411400Y25101300D01*
%TO.N,SODT1*%
X35236300Y24101200D02*
X34897200Y24440300D01*
%TO.N,GND*%
D20*
X28886600Y28682100D02*
X28592200Y28682100D01*
D25*
X23013200Y31103100D02*
X22611400Y30701300D01*
D20*
X28549000Y25101300D02*
X28211400Y25101300D01*
X28592200Y28682100D02*
X28211400Y28301300D01*
%TO.N,SA14*%
D23*
X26611400Y25101300D02*
X25737000Y25975700D01*
%TO.N,VCC_DRAM*%
D20*
X29129100Y31501300D02*
X28211400Y31501300D01*
D21*
X27819800Y30290300D02*
X27800400Y30290300D01*
X27800400Y30290300D02*
X27411400Y29901300D01*
%TO.N,SA11*%
D22*
X32966100Y27031100D02*
X32636300Y26701400D01*
%TO.N,GND*%
D25*
X31986400Y37101500D02*
X31872800Y36987900D01*
%TO.N,SODT0*%
D22*
X35236300Y24751500D02*
X34912400Y25075300D01*
%TO.N,SBA0*%
X34586300Y24751500D02*
X34271400Y25066400D01*
%TO.N,SA5*%
X33936300Y24751500D02*
X33625200Y24440300D01*
%TO.N,SA9*%
X33286300Y24751500D02*
X32976000Y24441100D01*
%TO.N,SA10*%
X34294100Y25936200D02*
X34093600Y25735700D01*
%TO.N,SCAS*%
D23*
X35592200Y27707300D02*
X35236300Y27351400D01*
%TO.N,SA10*%
D22*
X34294100Y26172500D02*
X34294100Y25936200D01*
%TO.N,SCKN*%
D26*
X26611400Y29901300D02*
X26330700Y30182000D01*
%TO.N,GND*%
D20*
X27411400Y34701300D02*
X27411400Y33901300D01*
D25*
X27021800Y35090900D02*
X26397400Y35090900D01*
X27411400Y34701300D02*
X27021800Y35090900D01*
%TO.N,SDQS0N*%
D22*
X26611400Y36301300D02*
X26611400Y36117700D01*
%TO.N,SDQ12*%
X31604400Y32669900D02*
X31604400Y32296900D01*
%TO.N,VCC_DRAM*%
D25*
X22206400Y32706300D02*
X21811400Y33101300D01*
%TO.N,GND*%
D20*
X22611400Y33901300D02*
X21811400Y33901300D01*
%TO.N,SA11*%
D22*
X27007000Y25505700D02*
X26611400Y25901300D01*
%TO.N,SA3*%
D23*
X22993800Y27118900D02*
X22611400Y27501300D01*
%TO.N,SA5*%
D22*
X23018200Y26294500D02*
X22611400Y26701300D01*
%TO.N,SA13*%
X23806600Y25481700D02*
X23791800Y25481700D01*
%TO.N,SCKP*%
D26*
X26611400Y30701300D02*
X26330700Y30420700D01*
%TO.N,SA10*%
D22*
X34093600Y25735700D02*
X33331600Y25735700D01*
%TO.N,GND*%
D21*
X33725300Y27562500D02*
X33725300Y27140400D01*
%TO.N,SRAS*%
D22*
X33286300Y27351400D02*
X32938200Y27699500D01*
X32938200Y27699500D02*
X32518800Y27699500D01*
%TO.N,SA4*%
X32438800Y27506500D02*
X32423600Y27521700D01*
%TO.N,GND*%
D20*
X28556400Y25108700D02*
X28549000Y25101300D01*
D21*
X33725300Y27140400D02*
X33286300Y26701400D01*
X33725300Y27562500D02*
X33286300Y28001400D01*
%TO.N,SA14*%
D23*
X25737000Y26200900D02*
X25737000Y25975700D01*
%TO.N,SA6*%
D22*
X27411400Y25901300D02*
X27402600Y25901300D01*
%TO.N,SA4*%
X32214000Y27521700D02*
X31934600Y27242300D01*
X31934600Y27242300D02*
X31934600Y27089900D01*
X32423600Y27521700D02*
X32214000Y27521700D01*
X31993400Y27031100D02*
X31934600Y27089900D01*
%TO.N,SBA1*%
D23*
X27411400Y27501300D02*
X27010000Y27902700D01*
%TO.N,SA1*%
D22*
X26328800Y26701300D02*
X26143400Y26886700D01*
X26611400Y26701300D02*
X26328800Y26701300D01*
%TO.N,SA4*%
X32481300Y27506500D02*
X32438800Y27506500D01*
X32636300Y27351400D02*
X32481300Y27506500D01*
X27738500Y26701300D02*
X27411400Y26701300D01*
X27832500Y26607300D02*
X27738500Y26701300D01*
X27832500Y26308800D02*
X27818200Y26294500D01*
X27832500Y26607300D02*
X27832500Y26308800D01*
X32316100Y27031100D02*
X31993400Y27031100D01*
%TO.N,SA12*%
X26981600Y27140700D02*
X26621000Y27501300D01*
X26621000Y27501300D02*
X26611400Y27501300D01*
%TO.N,SVREF*%
D25*
X25440200Y28707500D02*
X25152800Y28994900D01*
X27005200Y28707500D02*
X25440200Y28707500D01*
%TO.N,SDQ2*%
D22*
X35236300Y36451200D02*
X34934800Y36149700D01*
%TO.N,SDQ12*%
X33618600Y33533500D02*
X32468000Y33533500D01*
X33936300Y33851300D02*
X33618600Y33533500D01*
X32468000Y33533500D02*
X31604400Y32669900D01*
%TO.N,SDQS1P*%
X32636300Y36451200D02*
X32334900Y36149700D01*
%TO.N,GND*%
D20*
X28211400Y32301300D02*
X27811400Y32301300D01*
%TO.N,SCS1*%
D22*
X35236300Y25401500D02*
X34942300Y25695500D01*
%TO.N,SA3*%
D23*
X33936300Y25401500D02*
X33635600Y25100700D01*
%TO.N,SA10*%
D22*
X33331600Y25735700D02*
X33128400Y25532500D01*
X33128400Y25532500D02*
X32767400Y25532500D01*
X32767400Y25532500D02*
X32636300Y25401500D01*
%TO.N,SA15*%
X32636300Y26051400D02*
X32279300Y26051400D01*
%TO.N,GND*%
D20*
X21811400Y28301300D02*
X21397200Y28715500D01*
%TO.N,SA15*%
D22*
X25178200Y27064500D02*
X25178200Y26759700D01*
X25254400Y26683500D02*
X25178200Y26759700D01*
X25178200Y27064500D02*
X24933100Y27309600D01*
X24933100Y27561100D02*
X24933100Y27309600D01*
%TO.N,SA0*%
X24192600Y27501300D02*
X23411400Y27501300D01*
X24365400Y27674100D02*
X24192600Y27501300D01*
%TO.N,SCKP*%
D26*
X26330700Y30420700D02*
X24894700Y30420700D01*
%TO.N,SCS1*%
D22*
X22109600Y29101300D02*
X21811400Y29101300D01*
%TO.N,SDQS0N*%
X26422800Y35929100D02*
X26219600Y35929100D01*
%TO.N,SDQ1*%
X28302800Y35114500D02*
X27798200Y35114500D01*
X27798200Y35114500D02*
X27411400Y35501300D01*
%TO.N,SDQS1P*%
X23044600Y33109700D02*
X22993800Y33160500D01*
X22993800Y33338300D02*
X22993800Y33160500D01*
%TO.N,SDQ11*%
X23880600Y33907500D02*
X23328800Y33907500D01*
%TO.N,SDQS1N*%
X24721000Y34131300D02*
X24721000Y33643100D01*
%TO.N,SDQS1P*%
X24492400Y34297800D02*
X24492400Y33744700D01*
%TO.N,SVREF*%
D20*
X21811400Y31501300D02*
X21641800Y31331700D01*
%TO.N,SCS1*%
D22*
X22503200Y29494900D02*
X22109600Y29101300D01*
%TO.N,SDQM0*%
X23411400Y34707500D02*
X23328800Y34701300D01*
X23411400Y34701300D02*
X23328800Y34701300D01*
%TO.N,VCC_DRAM*%
D25*
X22206400Y32706300D02*
X22206400Y31906300D01*
X22611400Y31501300D02*
X22206400Y31906300D01*
%TO.N,SBA1*%
D23*
X25660800Y27902700D02*
X27010000Y27902700D01*
%TO.N,SA3*%
X33635600Y25100700D02*
X33585600Y25100700D01*
%TO.N,SVREF*%
D20*
X21641800Y31331700D02*
X21261400Y31331700D01*
%TO.N,SDQ11*%
D22*
X33936300Y35151200D02*
X33639400Y34854300D01*
%TO.N,GND*%
X24549700Y36817900D02*
X24693400Y36817900D01*
X24693400Y36817900D02*
X24892600Y36618700D01*
X24892600Y36618700D02*
X25036300Y36618700D01*
X25036300Y36618700D02*
X25108200Y36690600D01*
X25108200Y36690600D02*
X25108200Y36834200D01*
X25108200Y36834200D02*
X24908900Y37033500D01*
X24908900Y37033500D02*
X24908900Y37177100D01*
X24908900Y37177100D02*
X24980800Y37249000D01*
X24980800Y37249000D02*
X25124500Y37249000D01*
X25124500Y37249000D02*
X25323700Y37049800D01*
X25323700Y37049800D02*
X25467400Y37049800D01*
X25467400Y37049800D02*
X25539200Y37121600D01*
X25539200Y37121600D02*
X25539200Y37265300D01*
X25539200Y37265300D02*
X25340000Y37464500D01*
X25340000Y37464500D02*
X25340000Y37608200D01*
X25340000Y37608200D02*
X25411800Y37680000D01*
X25411800Y37680000D02*
X25555500Y37680000D01*
%TO.N,SDQM0*%
X26148500Y37324500D02*
X26148500Y37180800D01*
X26148500Y37180800D02*
X26195800Y37133400D01*
X26195800Y37133400D02*
X26195800Y36989800D01*
X26195800Y36989800D02*
X26124000Y36917900D01*
X26124000Y36917900D02*
X25980300Y36917900D01*
X25980300Y36917900D02*
X25933000Y36965300D01*
X25933000Y36965300D02*
X25789300Y36965300D01*
X25789300Y36965300D02*
X25717400Y36893400D01*
X25717400Y36893400D02*
X25717400Y36749700D01*
X25717400Y36749700D02*
X25887600Y36579600D01*
X25887600Y36579600D02*
X25887600Y36435900D01*
X25887600Y36435900D02*
X25815800Y36364000D01*
X25815800Y36364000D02*
X25672100Y36364000D01*
X25672100Y36364000D02*
X25501900Y36534200D01*
X25501900Y36534200D02*
X25358200Y36534200D01*
X24379600Y34747200D02*
X24379600Y34603500D01*
X24379600Y34603500D02*
X24307800Y34531700D01*
X24307800Y34531700D02*
X24164100Y34531700D01*
X24164100Y34531700D02*
X24073000Y34622700D01*
X24073000Y34622700D02*
X23929300Y34622700D01*
X23929300Y34622700D02*
X23810000Y34503400D01*
X23810000Y34503400D02*
X23806600Y34506700D01*
X23806600Y34506700D02*
X23552600Y34252700D01*
X23552600Y34252700D02*
X23060000Y34252700D01*
X23060000Y34252700D02*
X22943000Y34369700D01*
X22943000Y34369700D02*
X22943000Y34506700D01*
X22943000Y34506700D02*
X23137600Y34701300D01*
X23137600Y34701300D02*
X23328800Y34701300D01*
X25019000Y35915600D02*
X25019000Y36195000D01*
X25019000Y36195000D02*
X25358200Y36534200D01*
X26212800Y37388800D02*
X26148500Y37324500D01*
X26212800Y37947600D02*
X26212800Y37388800D01*
%TO.N,GND*%
X25933400Y38049200D02*
X26466800Y38582600D01*
X25933400Y37592000D02*
X25933400Y38049200D01*
X25555500Y37680000D02*
X25719700Y37515800D01*
X25719700Y37515800D02*
X25857200Y37515800D01*
X25857200Y37515800D02*
X25933400Y37592000D01*
%TO.N,SDQ0*%
X23012400Y36728400D02*
X22639500Y37101300D01*
X22639500Y37101300D02*
X22611400Y37101300D01*
%TO.N,GND*%
D25*
X23019200Y35909100D02*
X22203600Y35909100D01*
X22203600Y35909100D02*
X21811400Y36301300D01*
D22*
X24434800Y36703000D02*
X24549700Y36817900D01*
X24434800Y36296600D02*
X24434800Y36703000D01*
X23402700Y35511200D02*
X24111900Y36220400D01*
X24111900Y36220400D02*
X24358600Y36220400D01*
X24358600Y36220400D02*
X24434800Y36296600D01*
%TO.N,SDQ2*%
X22984500Y35128200D02*
X22611400Y35501300D01*
%TO.N,SDQM0*%
X25450800Y35077400D02*
X25552400Y35077400D01*
X25552400Y35077400D02*
X25654000Y35179000D01*
X25654000Y35179000D02*
X25654000Y35280600D01*
X25654000Y35280600D02*
X25019000Y35915600D01*
%TO.N,SDQS1P*%
X24492400Y33744700D02*
X24250200Y33502600D01*
X24250200Y33502600D02*
X23158000Y33502600D01*
X23158000Y33502600D02*
X22993800Y33338300D01*
%TO.N,GND*%
D25*
X30605800Y36987900D02*
X30029600Y36411700D01*
%TO.N,SDQS1P*%
D22*
X32334900Y36149700D02*
X31704700Y36149700D01*
X31704700Y36149700D02*
X31419800Y35864800D01*
%TO.N,SDQS1N*%
X31242000Y36296600D02*
X31396600Y36451200D01*
X31396600Y36451200D02*
X31986400Y36451200D01*
%TO.N,SDQS1P*%
X30683200Y36271200D02*
X31089600Y35864800D01*
X31089600Y35864800D02*
X31419800Y35864800D01*
%TO.N,SDQM0*%
X25095200Y35433000D02*
X25450800Y35077400D01*
%TO.N,SDQ2*%
X24384000Y35839400D02*
X23672800Y35128200D01*
X23672800Y35128200D02*
X22984500Y35128200D01*
%TO.N,SDQM0*%
X24434800Y35433000D02*
X25095200Y35433000D01*
X24379600Y34747200D02*
X24180800Y34946000D01*
X24180800Y34946000D02*
X24180800Y35179000D01*
X24180800Y35179000D02*
X24434800Y35433000D01*
%TO.N,SDQS1P*%
X24790400Y34595800D02*
X24492400Y34297800D01*
%TO.N,SDQS1N*%
X25273000Y34518600D02*
X25108300Y34518600D01*
X25108300Y34518600D02*
X24721000Y34131300D01*
X24721000Y33614100D02*
X24721000Y33634000D01*
X24333200Y32308800D02*
X24587200Y32308800D01*
X24587200Y32308800D02*
X24714200Y32435800D01*
X24714200Y32435800D02*
X24714200Y32613600D01*
%TO.N,SDQ8*%
X34899600Y34188400D02*
X34586700Y34501300D01*
%TO.N,SDQS1P*%
X24790400Y34899600D02*
X24790400Y34595800D01*
%TO.N,SDQS1N*%
X24231600Y32410400D02*
X24333200Y32308800D01*
X23679600Y32855700D02*
X24040300Y32855700D01*
X24040300Y32855700D02*
X24231600Y32664400D01*
X24231600Y32664400D02*
X24231600Y32410400D01*
X23402700Y32578900D02*
X23402700Y32310800D01*
X23402700Y32578900D02*
X23679600Y32855700D01*
X24714200Y32613600D02*
X24434800Y32893000D01*
X24434800Y32893000D02*
X24434800Y33328000D01*
X24434800Y33328000D02*
X24721000Y33614100D01*
%TO.N,GND*%
D20*
X28211400Y33101300D02*
X28211400Y32301300D01*
%TO.N,VCC_DRAM*%
D27*
X26924000Y37846000D02*
X27403200Y37366800D01*
X27403200Y37366800D02*
X27403200Y37111400D01*
D25*
X28993100Y35103400D02*
X28595200Y35501300D01*
X28595200Y35501300D02*
X28211400Y35501300D01*
D21*
X28211400Y35501300D02*
X28095200Y35501300D01*
%TO.N,SODT1*%
D22*
X34899600Y24434800D02*
X34897200Y24437200D01*
X34897200Y24437200D02*
X34897200Y24440300D01*
%TO.N,SDQS0N*%
X33629600Y36779200D02*
X33629600Y36794700D01*
X33629600Y36794700D02*
X33936300Y37101500D01*
%TO.N,GND*%
D21*
X32308600Y36779200D02*
X31986400Y37101500D01*
D25*
X32969200Y36804600D02*
X33266100Y37101500D01*
X33266100Y37101500D02*
X33286300Y37101500D01*
D21*
X32969200Y36804600D02*
X32943800Y36779200D01*
X32943800Y36779200D02*
X32308600Y36779200D01*
%TO.N,SDQM1*%
D22*
X33629600Y35483800D02*
X33936300Y35790500D01*
X33936300Y35790500D02*
X33936300Y35801200D01*
%TO.N,SDQ0*%
X35560000Y36118800D02*
X35242400Y35801200D01*
X35242400Y35801200D02*
X35236300Y35801200D01*
%TO.N,SDQ4*%
X29133800Y35610800D02*
X28848900Y35895700D01*
X28848900Y35895700D02*
X28107200Y35895700D01*
%TO.N,SDQ6*%
X32943800Y36118800D02*
X32953900Y36118800D01*
X32953900Y36118800D02*
X33286300Y36451200D01*
%TO.N,SA12*%
X34899600Y27660600D02*
X34895500Y27660600D01*
X34895500Y27660600D02*
X34586300Y27351400D01*
%TO.N,SA2*%
D23*
X33070800Y26238200D02*
X33257600Y26051400D01*
X33257600Y26051400D02*
X33286300Y26051400D01*
%TO.N,SA13*%
D22*
X33731200Y26238200D02*
X33918000Y26051400D01*
X33918000Y26051400D02*
X33936300Y26051400D01*
%TO.N,GND*%
D21*
X35890200Y26822400D02*
X35890200Y26705300D01*
X35890200Y26705300D02*
X35236300Y26051400D01*
%TO.N,SA10*%
D22*
X34417000Y26695400D02*
X34417000Y26295400D01*
X34417000Y26295400D02*
X34294100Y26172500D01*
%TO.N,SA0*%
X35052000Y26644600D02*
X35052000Y26517100D01*
X35052000Y26517100D02*
X34586300Y26051400D01*
%TO.N,SCKP*%
D26*
X24993600Y30556200D02*
X24993600Y30519600D01*
X24993600Y30519600D02*
X24894700Y30420700D01*
%TO.N,SCS1*%
D22*
X25196800Y29565600D02*
X25126100Y29494900D01*
X25126100Y29494900D02*
X22503200Y29494900D01*
%TO.N,SCAS*%
D23*
X23761400Y30251400D02*
X23411400Y29901300D01*
X25762400Y31095100D02*
X24999100Y31095100D01*
X24999100Y31095100D02*
X24155400Y30251400D01*
X24155400Y30251400D02*
X23761400Y30251400D01*
%TO.N,SDQ6*%
D22*
X27000200Y36728400D02*
X26621100Y37107500D01*
X26621100Y37107500D02*
X26582600Y37107500D01*
%TO.N,SCKN*%
D26*
X24688800Y29921200D02*
X25044400Y29921200D01*
X25044400Y29921200D02*
X25305200Y30182000D01*
X25305200Y30182000D02*
X26330700Y30182000D01*
%TO.N,SA10*%
D22*
X25730200Y29159200D02*
X25788100Y29101300D01*
X25788100Y29101300D02*
X26611400Y29101300D01*
%TO.N,SCKE1*%
X34586300Y29301400D02*
X34931800Y29646800D01*
X32544200Y31585700D02*
X32290200Y31331700D01*
X32290200Y31331700D02*
X32290200Y31128500D01*
X32290200Y31128500D02*
X32112400Y30950700D01*
X32112400Y30950700D02*
X31646800Y30950700D01*
X31646800Y30950700D02*
X30845800Y30149800D01*
X30845800Y30149800D02*
X30736900Y30149800D01*
X30736900Y30149800D02*
X30636900Y30249800D01*
X30636900Y30249800D02*
X30636900Y30994000D01*
X30636900Y30994000D02*
X30536900Y31094000D01*
X29822500Y31094000D02*
X29722500Y30994000D01*
X29722500Y30994000D02*
X29722500Y30249800D01*
X29722500Y30249800D02*
X29622500Y30149800D01*
X29622500Y30149800D02*
X29517700Y30149800D01*
X29517700Y30149800D02*
X29417700Y30249800D01*
X29417700Y30249800D02*
X29417700Y30994000D01*
X29417700Y30994000D02*
X29317700Y31094000D01*
X29317700Y31094000D02*
X29212900Y31094000D01*
X29212900Y31094000D02*
X29112900Y30994000D01*
X29112900Y30994000D02*
X29112900Y30249800D01*
X29112900Y30249800D02*
X29012900Y30149800D01*
X29012900Y30149800D02*
X28764100Y30149800D01*
X28764100Y30149800D02*
X28203300Y30710600D01*
%TO.N,SCKE0*%
X31986400Y27649700D02*
X31986400Y28001400D01*
%TO.N,SA9*%
X25425400Y24968200D02*
X25341600Y25052000D01*
X25341600Y25052000D02*
X25197900Y25052000D01*
X25197900Y25052000D02*
X24909800Y24763900D01*
X24909800Y24763900D02*
X24766100Y24763900D01*
X24766100Y24763900D02*
X24694300Y24835700D01*
X24694300Y24835700D02*
X24694300Y24979400D01*
X24694300Y24979400D02*
X25414200Y25699300D01*
X25414200Y25699300D02*
X25414200Y25843000D01*
X25414200Y25843000D02*
X25342400Y25914800D01*
X25342400Y25914800D02*
X25198700Y25914800D01*
X25198700Y25914800D02*
X24478800Y25194900D01*
X24478800Y25194900D02*
X24335100Y25194900D01*
X24335100Y25194900D02*
X24263300Y25266700D01*
X24263300Y25266700D02*
X24263300Y25410400D01*
X24263300Y25410400D02*
X24551400Y25698500D01*
X24551400Y25698500D02*
X24551400Y25842200D01*
X24551400Y25842200D02*
X24483600Y25910000D01*
X24483600Y25910000D02*
X24368000Y25910000D01*
X24368000Y25910000D02*
X24266400Y26011600D01*
X24266400Y26011600D02*
X24266400Y26365200D01*
X24266400Y26365200D02*
X24164800Y26466800D01*
X24164800Y26466800D02*
X24063200Y26466800D01*
X24063200Y26466800D02*
X23961600Y26365200D01*
X23961600Y26365200D02*
X23961600Y26011600D01*
X23961600Y26011600D02*
X23860000Y25910000D01*
X23860000Y25910000D02*
X23402700Y25910000D01*
%TO.N,SVREF*%
D25*
X27005200Y28707500D02*
X27402800Y28309900D01*
%TO.N,SA2*%
D23*
X24231600Y27076400D02*
X23856500Y26701300D01*
X23856500Y26701300D02*
X23411400Y26701300D01*
%TO.N,SODT1*%
D22*
X23012400Y30302200D02*
X22961600Y30353000D01*
X22130700Y30701300D02*
X21811400Y30701300D01*
X22479000Y30353000D02*
X22130700Y30701300D01*
X22961600Y30353000D02*
X22479000Y30353000D01*
%TO.N,SODT0*%
X22047200Y30200600D02*
X22047200Y30137200D01*
X22047200Y30137200D02*
X21811400Y29901300D01*
%TO.N,GND*%
X35890200Y26822400D02*
X35652700Y27059900D01*
X35652700Y27059900D02*
X33805700Y27059900D01*
X33805700Y27059900D02*
X33725300Y27140400D01*
%TO.N,SA6*%
X27000200Y26314400D02*
X27000200Y26303700D01*
X27000200Y26303700D02*
X27402600Y25901300D01*
%TO.N,SDQS0P*%
X25603200Y35915600D02*
X26007600Y35511200D01*
X26007600Y35511200D02*
X26603100Y35511200D01*
X34264600Y36778500D02*
X33934800Y36448700D01*
%TO.N,SWE*%
X23977600Y28244800D02*
X23977600Y28535100D01*
X23977600Y28535100D02*
X23411400Y29101300D01*
%TO.N,SDQ10*%
X22987000Y32689800D02*
X22607000Y33069800D01*
X22607000Y33069800D02*
X22607000Y33107500D01*
%TO.N,SDQS1P*%
X23401600Y33109700D02*
X23044600Y33109700D01*
%TO.N,GND*%
D25*
X25704800Y34163000D02*
X25704800Y34398400D01*
X25704800Y34398400D02*
X26397400Y35090900D01*
%TO.N,SA15*%
D22*
X25254400Y26683500D02*
X25489700Y26683500D01*
X25489700Y26683500D02*
X25679400Y26873200D01*
X25679400Y26873200D02*
X25679400Y27355800D01*
%TO.N,SDQ12*%
X30055000Y32271500D02*
X29660400Y31877000D01*
X29660400Y31877000D02*
X27787000Y31877000D01*
X27787000Y31877000D02*
X27411400Y31501300D01*
%TO.N,VCC_DRAM*%
D20*
X31038800Y34594800D02*
X31038800Y32493400D01*
X31038800Y32493400D02*
X30046800Y31501300D01*
%TO.N,SDQ9*%
D22*
X26603100Y33110900D02*
X26426700Y33110900D01*
X26426700Y33110900D02*
X26060400Y33477200D01*
X26060400Y33477200D02*
X25603200Y33477200D01*
X25603200Y33477200D02*
X25323800Y33197800D01*
X25323800Y33197800D02*
X25323800Y32969200D01*
X25323800Y32969200D02*
X25679400Y32613600D01*
X25679400Y32613600D02*
X25679400Y32385000D01*
X25679400Y32385000D02*
X25552400Y32258000D01*
X25552400Y32258000D02*
X25196800Y32258000D01*
X25196800Y32258000D02*
X25044400Y32410400D01*
X25044400Y32410400D02*
X25044400Y33350200D01*
X25044400Y33350200D02*
X25450800Y33756600D01*
X25450800Y33756600D02*
X26162000Y33756600D01*
X26162000Y33756600D02*
X26416000Y33502600D01*
X26416000Y33502600D02*
X28440800Y33502600D01*
X28440800Y33502600D02*
X28625800Y33317600D01*
X28625800Y33317600D02*
X28625800Y32893000D01*
X28625800Y32893000D02*
X28803600Y32715200D01*
X28901300Y32715200D02*
X29002900Y32816800D01*
X29002900Y32816800D02*
X29002900Y33050900D01*
X29002900Y33050900D02*
X29104500Y33152500D01*
X29104500Y33152500D02*
X29282300Y33152500D01*
X29282300Y33152500D02*
X29383900Y33050900D01*
X29383900Y33050900D02*
X29383900Y32816800D01*
X29383900Y32816800D02*
X29485500Y32715200D01*
X29485500Y32715200D02*
X29663300Y32715200D01*
X29663300Y32715200D02*
X29764900Y32816800D01*
X29764900Y32816800D02*
X29764900Y33050900D01*
X29764900Y33050900D02*
X29866500Y33152500D01*
X29866500Y33152500D02*
X30044300Y33152500D01*
X30044300Y33152500D02*
X30145900Y33050900D01*
X30145900Y33050900D02*
X30145900Y32816800D01*
X30145900Y32816800D02*
X30247500Y32715200D01*
X30247500Y32715200D02*
X30353000Y32715200D01*
X30353000Y32715200D02*
X30530800Y32893000D01*
X30530800Y32893000D02*
X30530800Y35241300D01*
X30530800Y35241300D02*
X30738100Y35448600D01*
X30738100Y35448600D02*
X30994000Y35448600D01*
X30994000Y35448600D02*
X31083300Y35537900D01*
X31083300Y35537900D02*
X31083300Y35619500D01*
X31083300Y35619500D02*
X31121400Y35657600D01*
X31121400Y35657600D02*
X31299200Y35657600D01*
X31299200Y35657600D02*
X31337300Y35619500D01*
X31337300Y35619500D02*
X31337300Y35165200D01*
X31337300Y35165200D02*
X31375400Y35127100D01*
X31375400Y35127100D02*
X31553200Y35127100D01*
X31553200Y35127100D02*
X31591300Y35165200D01*
X28803600Y32715200D02*
X28901300Y32715200D01*
%TO.N,VCC_DRAM*%
D20*
X28211400Y33911000D02*
X28211400Y33901300D01*
D27*
X28203300Y33911000D02*
X28211400Y33911000D01*
D20*
X28211400Y34701300D02*
X28211400Y33911000D01*
D27*
X29491400Y33911000D02*
X28211400Y33911000D01*
%TO.N,SA1*%
D22*
X33629600Y28321000D02*
X33936300Y28014300D01*
X33936300Y28014300D02*
X33936300Y28001400D01*
%TO.N,SA14*%
D23*
X34290000Y28321000D02*
X34586300Y28024700D01*
X34586300Y28024700D02*
X34586300Y28001400D01*
%TO.N,VCC_DRAM*%
D24*
X29204600Y25901300D02*
X29195900Y25910000D01*
X29195900Y25910000D02*
X28203300Y25910000D01*
%TO.N,GND*%
X34910900Y32226700D02*
X35234800Y31902800D01*
X35234800Y31902800D02*
X35234800Y31898800D01*
X34910900Y32226700D02*
X34588800Y32548800D01*
X32623100Y33848700D02*
X32634800Y33848700D01*
D21*
X32634800Y33848700D02*
X32949100Y34163000D01*
X32949100Y34163000D02*
X33599100Y34163000D01*
X33599100Y34163000D02*
X33934800Y34498700D01*
X27403200Y30710600D02*
X26974800Y31139000D01*
X26974800Y31864800D02*
X27411400Y32301300D01*
X26974800Y31139000D02*
X26974800Y31864800D01*
%TO.N,SDQ15*%
D22*
X26603100Y31510700D02*
X26179400Y31510700D01*
X26179400Y31510700D02*
X26077800Y31612300D01*
X26077800Y31612300D02*
X26077800Y31820300D01*
X26077800Y31820300D02*
X25976200Y31921900D01*
X25976200Y31921900D02*
X25798400Y31921900D01*
X25798400Y31921900D02*
X25696800Y31820300D01*
X25696800Y31820300D02*
X25696800Y31612300D01*
X25696800Y31612300D02*
X25595200Y31510700D01*
X25595200Y31510700D02*
X25417400Y31510700D01*
X25417400Y31510700D02*
X25315800Y31612300D01*
X25315800Y31612300D02*
X25315800Y31820300D01*
X25315800Y31820300D02*
X25214200Y31921900D01*
X25214200Y31921900D02*
X25036400Y31921900D01*
X25036400Y31921900D02*
X24934800Y31820300D01*
X24934800Y31820300D02*
X24934800Y31612300D01*
X24934800Y31612300D02*
X24833200Y31510700D01*
X24576500Y31510700D02*
X24485600Y31419800D01*
X24833200Y31510700D02*
X24576500Y31510700D01*
%TO.N,SDQ1*%
X29083000Y34569400D02*
X28848000Y34569400D01*
X28848000Y34569400D02*
X28302800Y35114500D01*
%TO.N,VCC_DRAM*%
D27*
X29972000Y34696400D02*
X29972000Y34391600D01*
X29972000Y34391600D02*
X29491400Y33911000D01*
D20*
X29972000Y34696400D02*
X29565000Y35103400D01*
X29565000Y35103400D02*
X28993100Y35103400D01*
%TO.N,SDQM0*%
D22*
X26593800Y38328600D02*
X26212800Y37947600D01*
%TO.N,GND*%
D25*
X27807600Y29514800D02*
X27403200Y29110400D01*
X29184500Y29514800D02*
X27807600Y29514800D01*
X28625800Y26746200D02*
X28580900Y26701300D01*
X28580900Y26701300D02*
X28211400Y26701300D01*
%TO.N,VCC_DRAM*%
X29131700Y27510200D02*
X28203300Y27510200D01*
%TO.N,GND*%
X29692500Y29006700D02*
X29184500Y29514800D01*
X28203300Y29110400D02*
X27813000Y28720100D01*
X27813000Y28720100D02*
X27813000Y28143200D01*
X27813000Y28143200D02*
X28041600Y27914600D01*
X29591000Y27914600D02*
X29692500Y28016100D01*
X28041600Y27914600D02*
X29591000Y27914600D01*
D28*
X21811400Y26701300D02*
X22199600Y26313100D01*
%TO.N,VCC_DRAM*%
D24*
X21310600Y27660600D02*
X21461000Y27510200D01*
X21461000Y27510200D02*
X21802500Y27510200D01*
D21*
X21031200Y29210000D02*
X21324100Y29502900D01*
X21324100Y29502900D02*
X22028600Y29502900D01*
D29*
X20980400Y33096200D02*
X21787800Y33096200D01*
X21787800Y33096200D02*
X21802500Y33110900D01*
%TO.N,GND*%
X21437600Y24790400D02*
X21483000Y24790400D01*
X21483000Y24790400D02*
X21802500Y25109900D01*
X21802500Y34711100D02*
X21381400Y34290000D01*
X21381400Y34290000D02*
X21336000Y34290000D01*
%TO.N,VCC_DRAM*%
X21802500Y35511200D02*
X21444900Y35153600D01*
X21444900Y35153600D02*
X21259800Y35153600D01*
%TO.N,SCKE1*%
D22*
X29927300Y31094000D02*
X29822500Y31094000D01*
X30027300Y30994000D02*
X29927300Y31094000D01*
X30027300Y30249800D02*
X30027300Y30994000D01*
X30127300Y30149800D02*
X30027300Y30249800D01*
X30232100Y30149800D02*
X30127300Y30149800D01*
X30332100Y30249800D02*
X30232100Y30149800D01*
X30332100Y30994000D02*
X30332100Y30249800D01*
X30432100Y31094000D02*
X30332100Y30994000D01*
X30536900Y31094000D02*
X30432100Y31094000D01*
%TO.N,SRAS*%
X32137800Y28631300D02*
X32251600Y28517500D01*
X32251600Y28517500D02*
X32251600Y27966700D01*
X32251600Y27966700D02*
X32518800Y27699500D01*
%TO.N,VCC_DRAM*%
D20*
X22611400Y36301300D02*
X22199500Y36713200D01*
X22199500Y36713200D02*
X21811400Y37101300D01*
X22611400Y34701300D02*
X22219700Y35093000D01*
X22219700Y35093000D02*
X21811400Y35501300D01*
%TO.N,SA15*%
D22*
X25679400Y27355800D02*
X25247600Y27787600D01*
X25247600Y27787600D02*
X25247600Y28092400D01*
X25247600Y28092400D02*
X25456500Y28301300D01*
X25456500Y28301300D02*
X26611400Y28301300D01*
%TO.N,GND*%
X34586300Y36451200D02*
X34877000Y36741900D01*
X34877000Y36741900D02*
X34881000Y36741900D01*
X34881000Y36741900D02*
X34925000Y36786000D01*
X26060400Y38836600D02*
X25982800Y38759000D01*
X25982800Y38759000D02*
X25839100Y38759000D01*
X25839100Y38759000D02*
X25716100Y38882000D01*
X25716100Y38882000D02*
X25572400Y38882000D01*
X25572400Y38882000D02*
X25482600Y38792200D01*
X25482600Y38792200D02*
X25482600Y38648500D01*
X25482600Y38648500D02*
X25605600Y38525500D01*
X25605600Y38525500D02*
X25605600Y38381800D01*
X25605600Y38381800D02*
X25515800Y38292000D01*
X25515800Y38292000D02*
X25372100Y38292000D01*
X25372100Y38292000D02*
X25249100Y38415000D01*
X25249100Y38415000D02*
X25105400Y38415000D01*
X25105400Y38415000D02*
X25015600Y38325200D01*
X25015600Y38325200D02*
X25015600Y38181600D01*
X25015600Y38181600D02*
X25138700Y38058500D01*
X25138700Y38058500D02*
X25138700Y37914900D01*
X25138700Y37914900D02*
X25048900Y37825100D01*
X25048900Y37825100D02*
X24905200Y37825100D01*
X24905200Y37825100D02*
X24782200Y37948100D01*
X24782200Y37948100D02*
X24638500Y37948100D01*
X24638500Y37948100D02*
X24548700Y37858300D01*
X24548700Y37858300D02*
X24548700Y37714600D01*
X24548700Y37714600D02*
X24671700Y37591600D01*
X24671700Y37591600D02*
X24671700Y37447900D01*
X24325100Y37101300D02*
X23411400Y37101300D01*
X24671700Y37447900D02*
X24325100Y37101300D01*
D21*
X34296800Y36073500D02*
X34251500Y36118800D01*
X33604900Y36118800D02*
X33284800Y35798700D01*
X34251500Y36118800D02*
X33604900Y36118800D01*
%TO.N,SDQ4*%
D22*
X32334200Y35483800D02*
X32636300Y35785900D01*
X32636300Y35785900D02*
X32636300Y35801200D01*
%TO.N,VCC_DRAM*%
D21*
X13879100Y14935800D02*
X13879100Y15432500D01*
X13309600Y17003900D02*
X12357600Y17955900D01*
X13879100Y15432500D02*
X13309600Y16002000D01*
X13309600Y16002000D02*
X13309600Y17003900D01*
%TO.N,VDD_CPU*%
X15077900Y14935800D02*
X15077900Y15408100D01*
X15077900Y15408100D02*
X15925800Y16256000D01*
X15925800Y16256000D02*
X18321400Y16256000D01*
X18321400Y16256000D02*
X18324600Y16252800D01*
%TO.N,$1N16368*%
X15779000Y12634600D02*
X16194400Y12634600D01*
X16194400Y12634600D02*
X16306800Y12522200D01*
X16306800Y12522200D02*
X16306800Y12014200D01*
%TO.N,PMU_SDA*%
X13477700Y14935800D02*
X13477700Y15351300D01*
X11027800Y15798800D02*
X10857000Y15628000D01*
X13477700Y15351300D02*
X13030200Y15798800D01*
X13030200Y15798800D02*
X12721300Y15798800D01*
X12721300Y15798800D02*
X11027800Y15798800D01*
%TO.N,$1N24681*%
X12776700Y13833500D02*
X11801500Y13833500D01*
%TO.N,$1N30789*%
X12776700Y13434700D02*
X12063100Y13434700D01*
X12063100Y13434700D02*
X11709400Y13081000D01*
X11709400Y13081000D02*
X11709400Y11861800D01*
X11709400Y11861800D02*
X11252200Y11404600D01*
X11252200Y11404600D02*
X10922100Y11404600D01*
%TO.N,PMU_SCK*%
X11506200Y14274800D02*
X11194400Y14586600D01*
X11194400Y14586600D02*
X10857000Y14586600D01*
X11506200Y14274800D02*
X11546200Y14234800D01*
X11546200Y14234800D02*
X12776700Y14234800D01*
%TO.N,$1N28880*%
X13477700Y11933600D02*
X13477700Y11369500D01*
X12660300Y10552100D02*
X12660300Y10217800D01*
X13477700Y11369500D02*
X12660300Y10552100D01*
%TO.N,3V3*%
X13665200Y10279900D02*
X13676400Y10268700D01*
D25*
X13879100Y11933600D02*
X13879100Y11034300D01*
X13879100Y11034300D02*
X13665200Y10820400D01*
D21*
X13665200Y10820400D02*
X13665200Y10279900D01*
%TO.N,$1N28962*%
X14277800Y11933600D02*
X14277800Y11046000D01*
X14277800Y11046000D02*
X14666900Y10656900D01*
X14666900Y10656900D02*
X14666900Y10217800D01*
%TO.N,$1N24681*%
X10922100Y12954100D02*
X10922100Y12420600D01*
X11172400Y13204400D02*
X10857000Y13519800D01*
X11172400Y13204400D02*
X10922100Y12954100D01*
X11801500Y13833500D02*
X11172400Y13204400D01*
%TO.N,SDC2_D4*%
D30*
X52190300Y35164100D02*
X51946800Y35407600D01*
%TO.N,$3N2117*%
X52690100Y34664300D02*
X52451000Y34425100D01*
X52451000Y34425100D02*
X52451000Y33807400D01*
X52690100Y34664300D02*
X52933600Y34420800D01*
X52933600Y33782000D02*
X52705000Y33553400D01*
X52933600Y34420800D02*
X52933600Y33782000D01*
%TO.N,SDC2_D1*%
X51690100Y35664300D02*
X51687500Y35661600D01*
%TO.N,SDC2_D0*%
X52190300Y35664300D02*
X51938900Y35915600D01*
%TO.N,SDC2_D7*%
X49657000Y37820600D02*
X50546000Y37820600D01*
%TO.N,GND*%
X51690100Y36664300D02*
X51295900Y36664300D01*
X51295900Y36664300D02*
X50546000Y37414200D01*
X50393600Y37414200D02*
X50546000Y37414200D01*
%TO.N,SDC2_D0*%
X50190400Y35915600D02*
X49784000Y36322000D01*
X50190400Y35915600D02*
X51938900Y35915600D01*
%TO.N,SDC2_D4*%
X50622200Y35407600D02*
X50292000Y35077400D01*
X50292000Y35077400D02*
X49860200Y35077400D01*
X49276000Y35661600D02*
X49276000Y35814000D01*
X49860200Y35077400D02*
X49276000Y35661600D01*
X51946800Y35407600D02*
X50622200Y35407600D01*
%TO.N,SDC2_D1*%
X50012600Y35509200D02*
X50165000Y35661600D01*
X50165000Y35661600D02*
X51687500Y35661600D01*
%TO.N,SDC2_D0*%
X51690100Y35164100D02*
X50734300Y35164100D01*
X50734300Y35164100D02*
X50419000Y34848800D01*
X50419000Y34848800D02*
X49403000Y34848800D01*
%TO.N,$3N2117*%
X50368200Y36398200D02*
X50602300Y36164100D01*
X50602300Y36164100D02*
X51690100Y36164100D01*
%TO.N,SDC2_CMD*%
X56692800Y35890200D02*
X56966700Y36164100D01*
X56966700Y36164100D02*
X57190300Y36164100D01*
%TO.N,SDC2_D3*%
X47675800Y36017200D02*
X49123600Y34569400D01*
%TO.N,SDC2_D0*%
X48539400Y35788600D02*
X48539400Y35712400D01*
X48539400Y35712400D02*
X49403000Y34848800D01*
%TO.N,SDC2_CLK*%
X47396300Y35255100D02*
X47904500Y35255100D01*
X48920400Y34239200D02*
X47904500Y35255100D01*
X56743600Y36652200D02*
X57178200Y36652200D01*
X57178200Y36652200D02*
X57190300Y36664300D01*
%TO.N,SDC2_RST*%
X56032400Y35661600D02*
X56190300Y35819500D01*
X56190300Y35819500D02*
X56190300Y36164100D01*
%TO.N,3V3*%
X55194200Y35687000D02*
X55194200Y36160200D01*
X55194200Y36160200D02*
X55190300Y36164100D01*
%TO.N,GND*%
D25*
X55690100Y36164100D02*
X55690100Y37164100D01*
X55690100Y37164100D02*
X56190300Y37664300D01*
X55690100Y37164100D02*
X54690100Y36164100D01*
X54690100Y36164100D02*
X53690100Y37164100D01*
%TO.N,3V3*%
X54190300Y36164100D02*
X53690100Y36664300D01*
X53690100Y36664300D02*
X52690100Y36664300D01*
X54203600Y35687000D02*
X54190300Y35700300D01*
X54190300Y35700300D02*
X54190300Y36164100D01*
%TO.N,GND*%
X56190300Y37664300D02*
X55190300Y38664300D01*
%TO.N,3V3*%
X56190300Y38164100D02*
X55690100Y38664300D01*
X57190300Y35664300D02*
X57690100Y35664300D01*
D21*
X57690100Y35664300D02*
X58190000Y36164100D01*
X57690100Y35664300D02*
X58190300Y35164100D01*
%TO.N,GND*%
X57690100Y36164100D02*
X58190300Y36664300D01*
%TO.N,3V3*%
D25*
X58190300Y35164100D02*
X58638100Y35164100D01*
X58638100Y35164100D02*
X58648600Y35153600D01*
%TO.N,GND*%
X58674000Y35890200D02*
X58448100Y35664300D01*
X58448100Y35664300D02*
X58190300Y35664300D01*
D21*
X58674000Y35890200D02*
X58674000Y36180500D01*
X58674000Y36180500D02*
X58190300Y36664300D01*
%TO.N,3V3*%
D25*
X56692800Y37439600D02*
X56692800Y37661600D01*
X56692800Y37661600D02*
X56190300Y38164100D01*
%TO.N,UART1_CTS*%
D22*
X51749500Y30902100D02*
X51749500Y25003800D01*
%TO.N,UART1_RTS*%
X42044600Y35458400D02*
X41734900Y35148700D01*
%TO.N,UART1_TX*%
X44404100Y35148700D02*
X43034900Y35148700D01*
%TO.N,UART1_RTS*%
X44475400Y35458400D02*
X42044600Y35458400D01*
X51349400Y25003800D02*
X51349400Y30819600D01*
%TO.N,UART1_TX*%
X50949400Y25003800D02*
X50949400Y30737000D01*
%TO.N,UART1_RX*%
X42384900Y35148700D02*
X42710200Y34823400D01*
X50549300Y30679900D02*
X50549300Y25003800D01*
X47929800Y33299400D02*
X50549300Y30679900D01*
%TO.N,UART1_TX*%
X50949400Y30737000D02*
X48006000Y33680400D01*
X48006000Y33680400D02*
X45872400Y33680400D01*
X45872400Y33680400D02*
X44404100Y35148700D01*
%TO.N,UART1_RTS*%
X51349400Y30819600D02*
X48107600Y34061400D01*
X48107600Y34061400D02*
X45872400Y34061400D01*
X45872400Y34061400D02*
X44475400Y35458400D01*
%TO.N,UART1_CTS*%
X48234600Y34417000D02*
X51749500Y30902100D01*
%TO.N,SDC1_D0*%
D31*
X47802900Y24638100D02*
X48056700Y24638100D01*
X48056700Y24638100D02*
X48387000Y24307800D01*
%TO.N,SDC1_CMD*%
X49850000Y23904400D02*
X49222200Y23904400D01*
X48310700Y25654100D02*
X47802900Y25654100D01*
%TO.N,SDC1_CLK*%
X47447300Y32715300D02*
X47929700Y32715300D01*
X47929700Y32715300D02*
X50139600Y30505400D01*
%TO.N,GND*%
X42672000Y34137600D02*
X42384900Y33850500D01*
%TO.N,SDC1_D1*%
X42384900Y34498700D02*
X42404800Y34518600D01*
X43764200Y34518600D02*
X43942000Y34340800D01*
X42404800Y34518600D02*
X43764200Y34518600D01*
%TO.N,SDC1_CMD*%
X49222200Y23904400D02*
X48971200Y24155400D01*
X48971200Y24155400D02*
X48971200Y24993600D01*
X48971200Y24993600D02*
X48310700Y25654100D01*
%TO.N,LPCLK*%
X47802900Y20294700D02*
X48488700Y20294700D01*
%TO.N,SDC1_CMD*%
X41734900Y33198700D02*
X42037000Y32896600D01*
X42037000Y32896600D02*
X42037000Y32893000D01*
%TO.N,SDC1_D2*%
X48768000Y21361400D02*
X47828300Y21361400D01*
X47828300Y21361400D02*
X47802900Y21386800D01*
X48768000Y21361400D02*
X49311100Y21904500D01*
X49311100Y21904500D02*
X49850000Y21904500D01*
%TO.N,SDC1_CLK*%
X48666400Y21971000D02*
X48999900Y22304500D01*
X48999900Y22304500D02*
X49850000Y22304500D01*
%TO.N,SDC1_D0*%
X49850000Y23504400D02*
X49114200Y23504400D01*
X49114200Y23504400D02*
X48387000Y24231600D01*
X48387000Y24231600D02*
X48387000Y24307800D01*
%TO.N,SDC1_D1*%
X49850000Y23104300D02*
X48853900Y23104300D01*
X48853900Y23104300D02*
X48361500Y23596700D01*
X48361500Y23596700D02*
X47802900Y23596700D01*
%TO.N,SDC1_D3*%
X48514000Y22707600D02*
X49846700Y22707600D01*
X49846700Y22707600D02*
X49850000Y22704300D01*
X48514000Y22707600D02*
X48285500Y22479100D01*
X48285500Y22479100D02*
X47802900Y22479100D01*
%TO.N,$3N5552*%
D25*
X50549300Y20005000D02*
X50549300Y19510500D01*
X50549300Y19510500D02*
X50190400Y19151600D01*
X50190400Y19151600D02*
X48031400Y19151600D01*
X48031400Y19151600D02*
X47879000Y19304000D01*
%TO.N,$3N5562*%
X50952400Y20002000D02*
X50949400Y20005000D01*
X50952400Y19354800D02*
X50952400Y20002000D01*
X50317400Y18719800D02*
X50952400Y19354800D01*
%TO.N,3V3*%
X52149500Y18138900D02*
X52146200Y18135600D01*
%TO.N,$3N5561*%
X52549300Y20005000D02*
X52549300Y19154900D01*
X53136800Y18567400D02*
X53136800Y18135600D01*
X52549300Y19154900D02*
X53136800Y18567400D01*
%TO.N,3V3*%
X52149500Y20005000D02*
X52149500Y18752900D01*
X52149500Y18752900D02*
X52149500Y18138900D01*
%TO.N,$3N5562*%
X53349400Y20005000D02*
X53349400Y19370800D01*
X54152800Y18567400D02*
X54152800Y18135600D01*
%TO.N,$3N5554*%
X56819800Y23749000D02*
X56057800Y23749000D01*
X56057800Y23749000D02*
X55813200Y23504400D01*
X55813200Y23504400D02*
X54848800Y23504400D01*
%TO.N,3V3*%
X54848800Y23104300D02*
X56143700Y23104300D01*
X56143700Y23104300D02*
X56159400Y23088600D01*
X56159400Y23088600D02*
X56540400Y23088600D01*
X56540400Y23088600D02*
X56819800Y22809200D01*
%TO.N,$3N5562*%
X56210200Y21996400D02*
X56388000Y21818600D01*
X56388000Y21818600D02*
X56819800Y21818600D01*
X56210200Y21996400D02*
X56210200Y22275800D01*
X56210200Y22275800D02*
X55781700Y22704300D01*
X55781700Y22704300D02*
X54848800Y22704300D01*
X53349400Y19370800D02*
X53721000Y18999200D01*
X53721000Y18999200D02*
X54152800Y18567400D01*
%TO.N,$3N5564*%
D21*
X52425700Y26669900D02*
X52425700Y26162100D01*
X52425700Y26162100D02*
X52149500Y25885900D01*
X52149500Y25885900D02*
X52149500Y25003800D01*
%TO.N,$3N5565*%
X52549300Y25003800D02*
X52549300Y25650700D01*
X52549300Y25650700D02*
X53340100Y26441500D01*
X53340100Y26441500D02*
X53340100Y26695300D01*
%TO.N,$3N3551*%
X7924700Y32511900D02*
X7924700Y33722300D01*
X7924700Y33722300D02*
X8104800Y33902300D01*
%TO.N,3V3*%
D25*
X49850000Y24304500D02*
X49507900Y24304500D01*
X49507900Y24304500D02*
X49352200Y24460200D01*
X49352200Y24460200D02*
X49352200Y25425400D01*
X46888500Y25654100D02*
X47828200Y26593800D01*
X47828200Y26593800D02*
X47853200Y26593800D01*
X48183800Y26593800D02*
X47853200Y26593800D01*
X48183800Y26593800D02*
X49352200Y25425400D01*
%TO.N,AP_REG_ON*%
D31*
X54848800Y22304500D02*
X55521100Y22304500D01*
X55521100Y22304500D02*
X55753000Y22072600D01*
%TO.N,1V8*%
D25*
X9931400Y15113000D02*
X9931400Y14597800D01*
X9931400Y14597800D02*
X9942600Y14586600D01*
X9931400Y15113000D02*
X9931400Y15616800D01*
X9931400Y15616800D02*
X9942600Y15628000D01*
%TO.N,$1N16368*%
D21*
X18350000Y11294700D02*
X17909900Y11734800D01*
X17909900Y11734800D02*
X16586200Y11734800D01*
X16586200Y11734800D02*
X16306800Y12014200D01*
%TO.N,LPCLK*%
D31*
X42062400Y32207200D02*
X42062400Y32221300D01*
X42062400Y32221300D02*
X41734900Y32548800D01*
%TO.N,SDC1_CLK*%
X49707800Y25882600D02*
X50139600Y26314400D01*
X50139600Y26314400D02*
X50139600Y30505400D01*
%TO.N,SDC1_D2*%
X42062400Y34798000D02*
X41763100Y34498700D01*
X41763100Y34498700D02*
X41734900Y34498700D01*
%TO.N,GND*%
X53162200Y36144200D02*
X53162200Y36136300D01*
X53162200Y36136300D02*
X52690100Y35664300D01*
%TO.N,$3N2117*%
D25*
X53668100Y30532500D02*
X53664100Y30528500D01*
X53664100Y30528500D02*
X52754200Y30528500D01*
D30*
X52451000Y33807400D02*
X52654200Y33604200D01*
D25*
X52754200Y30528500D02*
X52754200Y33504200D01*
X52754200Y33504200D02*
X52705000Y33553400D01*
X52654200Y33604200D02*
X52705000Y33553400D01*
%TO.N,SDC1_CLK*%
D31*
X43034900Y33848700D02*
X44713500Y33848700D01*
X44713500Y33848700D02*
X45846900Y32715300D01*
X45846900Y32715300D02*
X46532900Y32715300D01*
%TO.N,UART1_RX*%
D22*
X42710200Y34823400D02*
X44272200Y34823400D01*
X44272200Y34823400D02*
X45796200Y33299400D01*
X45796200Y33299400D02*
X47929800Y33299400D01*
%TO.N,UART1_CTS*%
X42384900Y35798700D02*
X44566900Y35798700D01*
X44566900Y35798700D02*
X45948600Y34417000D01*
X45948600Y34417000D02*
X48234600Y34417000D01*
%TO.N,$4N12583*%
D31*
X25771700Y9974800D02*
X26305000Y9974800D01*
%TO.N,GND*%
D32*
X27025600Y6692900D02*
X27020500Y6687800D01*
%TO.N,D0+*%
X27355800Y5613400D02*
X27508200Y5765800D01*
X27508200Y5765800D02*
X27508200Y6675100D01*
X27508200Y6675100D02*
X27520900Y6687800D01*
X26522700Y6687800D02*
X26522700Y5760700D01*
X26522700Y5760700D02*
X26670000Y5613400D01*
X26670000Y5613400D02*
X27355800Y5613400D01*
%TO.N,GND*%
X26022300Y6687800D02*
X26022300Y7556500D01*
X26022300Y7556500D02*
X26263600Y7797800D01*
X26263600Y7797800D02*
X26746200Y7797800D01*
X27025600Y7518400D02*
X27025600Y6692900D01*
%TO.N,USB0_ID*%
X28524200Y6685300D02*
X28521700Y6687800D01*
X28041600Y5232400D02*
X28524200Y5715000D01*
X28524200Y5715000D02*
X28524200Y6685300D01*
%TO.N,PS*%
D33*
X29210000Y7899400D02*
X29222700Y7886700D01*
%TO.N,USB0_ID*%
D32*
X25521900Y6687800D02*
X25521900Y5770900D01*
X25521900Y5770900D02*
X26060400Y5232400D01*
X26060400Y5232400D02*
X28041600Y5232400D01*
%TO.N,GND*%
D33*
X24307800Y7899400D02*
X24320500Y7886700D01*
X24320500Y7886700D02*
X24320500Y6687800D01*
%TO.N,$4N12583*%
D28*
X28321000Y8839200D02*
X27216100Y8839200D01*
X27216100Y8839200D02*
X27216100Y9971300D01*
X27216100Y9971300D02*
X27219500Y9974700D01*
%TO.N,3V3*%
X52882800Y28067000D02*
X53340100Y27609700D01*
X52882800Y28066900D02*
X52425700Y27609700D01*
X52882800Y28117800D02*
X52882800Y28067000D01*
%TO.N,D1-*%
D31*
X35884800Y25398900D02*
X35560000Y25074100D01*
X8477400Y25782600D02*
X8477400Y25213000D01*
%TO.N,USB0_ID*%
X25521900Y6687800D02*
X25521900Y8745200D01*
X25521900Y8745200D02*
X25615900Y8839200D01*
%TO.N,HDMI_CP*%
X50289500Y11607800D02*
X50289500Y12486600D01*
%TO.N,HDMI_CN*%
X49789100Y11607800D02*
X49789100Y12486600D01*
%TO.N,HDMI_0N*%
X51290200Y11607800D02*
X51290200Y12486600D01*
%TO.N,HDMI_0P*%
X51790600Y11607800D02*
X51790600Y12486600D01*
%TO.N,HDMI_1P*%
X53271400Y11600200D02*
X53271400Y12479000D01*
%TO.N,HDMI_1N*%
X52771000Y11600200D02*
X52771000Y12479000D01*
%TO.N,HDMI_2N*%
X54272200Y11600200D02*
X54272200Y12479000D01*
%TO.N,HDMI_2P*%
X54772600Y11600200D02*
X54772600Y12479000D01*
%TO.N,VCC_DRAM*%
D25*
X36534800Y29948800D02*
X36232200Y30251400D01*
X36242600Y29591000D02*
X36534800Y29298800D01*
X36534800Y29948800D02*
X36176900Y29591000D01*
X36169600Y29591000D02*
X36176900Y29591000D01*
X36176900Y29591000D02*
X36242600Y29591000D01*
X36534800Y29298800D02*
X36191900Y28956000D01*
X36191900Y28956000D02*
X36169600Y28956000D01*
X36534800Y30598800D02*
X36187400Y30251400D01*
X36232200Y30251400D02*
X36187400Y30251400D01*
X36187400Y30251400D02*
X36144200Y30251400D01*
X36534800Y30598800D02*
X36221800Y30911800D01*
X36221800Y30911800D02*
X36144200Y30911800D01*
X36144200Y30911800D02*
X36481200Y31248800D01*
X36481200Y31248800D02*
X36534800Y31248800D01*
X36185900Y31597600D02*
X36534800Y31248800D01*
X36534800Y31898800D02*
X36233600Y31597600D01*
X36233600Y31597600D02*
X36185900Y31597600D01*
X36185900Y31597600D02*
X36144200Y31597600D01*
%TO.N,1V8*%
X36169600Y28321000D02*
X36206900Y28321000D01*
X36206900Y28321000D02*
X36534800Y28648800D01*
%TO.N,$2N2062*%
X36534800Y27998900D02*
X36855400Y28319500D01*
%TO.N,VDD_CPU*%
X38485000Y32548800D02*
X38160000Y32223800D01*
X37835000Y32548800D02*
X38160000Y32223800D01*
X38160000Y32223800D02*
X38485000Y31898800D01*
X37509900Y30933100D02*
X37519300Y30933100D01*
X37519300Y30933100D02*
X37835000Y31248800D01*
X37509900Y30933100D02*
X37835000Y30608000D01*
X37835000Y30608000D02*
X37835000Y30598800D01*
X37509900Y31578500D02*
X37835000Y31253400D01*
X37835000Y31253400D02*
X37835000Y31248800D01*
X37514700Y31578500D02*
X37509900Y31578500D01*
%TO.N,GND*%
X36880800Y31572200D02*
X37184700Y31876100D01*
X37184700Y31876100D02*
X37184700Y32548800D01*
X36880800Y31572200D02*
X36855400Y31572200D01*
X37184700Y31268300D02*
X36880800Y31572200D01*
X37184700Y29298800D02*
X37184700Y29337900D01*
X37184700Y29337900D02*
X36880800Y29641800D01*
X37184700Y29945700D02*
X36880800Y29641800D01*
X36880800Y30261500D02*
X37184700Y29957600D01*
X37184700Y30565500D02*
X36880800Y30261500D01*
X36880800Y30911800D02*
X37184700Y30607900D01*
X37184700Y30607900D02*
X37184700Y30565500D01*
X37184700Y31215700D02*
X36880800Y30911800D01*
X37184700Y29298800D02*
X37509900Y28973700D01*
X37835000Y29298800D02*
X37509900Y28973700D01*
X37509900Y28973700D02*
X37185000Y28648800D01*
X37509900Y28973700D02*
X37834700Y28648800D01*
%TO.N,VDD_CPU*%
X37835000Y31898800D02*
X37514700Y31578500D01*
X38160000Y32223800D02*
X37835000Y31898800D01*
%TO.N,GND*%
X37184700Y31248800D02*
X37184700Y31215700D01*
X37184700Y31248800D02*
X37184700Y31268300D01*
X37835000Y27998900D02*
X38160000Y28323900D01*
X38160000Y28323900D02*
X38485000Y28648800D01*
X37835000Y28648800D02*
X38160000Y28323900D01*
X38160000Y28323900D02*
X38485000Y27998900D01*
X39135000Y28648800D02*
X38810000Y28323900D01*
X38810000Y28323900D02*
X38485000Y27998900D01*
X38485000Y28648800D02*
X38810000Y28323900D01*
X38810000Y28323900D02*
X39135000Y27998900D01*
X39784900Y28648800D02*
X39460000Y28323900D01*
X39460000Y28323900D02*
X39135000Y27998900D01*
X39135000Y28648800D02*
X39460000Y28323900D01*
X39460000Y28323900D02*
X39784900Y27998900D01*
X37184700Y27998900D02*
X37509700Y28323900D01*
X37509700Y28323900D02*
X37834700Y28648800D01*
X37509700Y28323900D02*
X37834700Y27998900D01*
X38485000Y29948800D02*
X38160000Y29623800D01*
X38160000Y29623800D02*
X37835000Y29298800D01*
X37835000Y29948800D02*
X38160000Y29623800D01*
X38160000Y29623800D02*
X38485000Y29298800D01*
X39135000Y29298800D02*
X38810000Y28973800D01*
X38810000Y28973800D02*
X38485000Y28648800D01*
X38485000Y29298800D02*
X38810000Y28973800D01*
X38810000Y28973800D02*
X39135000Y28648800D01*
X37835000Y29298800D02*
X38160000Y28973800D01*
X38160000Y28973800D02*
X38485000Y28648800D01*
X38485000Y29298800D02*
X38160000Y28973800D01*
X38160000Y28973800D02*
X37835000Y28648800D01*
X37835000Y29948800D02*
X37795700Y29948800D01*
X37184700Y29948800D02*
X37490200Y29643300D01*
X37490200Y29643300D02*
X37834700Y29298800D01*
X37795700Y29948800D02*
X37490200Y29643300D01*
X37490200Y29643300D02*
X37184700Y29337900D01*
X37184700Y29957600D02*
X37184700Y29948800D01*
X37184700Y29948800D02*
X37184700Y29945700D01*
X38150800Y30911800D02*
X38485000Y31246000D01*
X38485000Y31246000D02*
X38485000Y31248800D01*
X38150800Y30911800D02*
X38463800Y30598800D01*
X38463800Y30598800D02*
X38485000Y30598800D01*
%TO.N,VDD_CPU*%
X36534800Y32548800D02*
X36879000Y32893000D01*
X37490700Y32893000D02*
X37835000Y32548800D01*
X36879000Y32893000D02*
X37490700Y32893000D01*
X37835000Y31248800D02*
X38156800Y31570600D01*
X38156800Y31570600D02*
X38485000Y31898800D01*
%TO.N,D2-*%
D31*
X36534800Y25398900D02*
X36534800Y25384200D01*
X36534800Y25384200D02*
X36220400Y25069800D01*
%TO.N,SDC0_CLK*%
D22*
X37184700Y37098900D02*
X37184700Y39040700D01*
X37184700Y39040700D02*
X37160300Y39065100D01*
%TO.N,SDC0_D0*%
X37835000Y35798700D02*
X37515800Y36117900D01*
%TO.N,SDC0_D1*%
X37835000Y37962000D02*
X37835000Y36448700D01*
X38252400Y38379400D02*
X37835000Y37962000D01*
X38252400Y40462200D02*
X38252400Y38379400D01*
%TO.N,SDC0_D0*%
X37515800Y36117900D02*
X37515800Y38176200D01*
X37515800Y38176200D02*
X37947600Y38608000D01*
X37947600Y38608000D02*
X37947600Y40259000D01*
%TO.N,SDC0_DET*%
X36855400Y38201600D02*
X36499800Y38557200D01*
X36499800Y38557200D02*
X36499800Y39547800D01*
%TO.N,SDC0_D1*%
X36753800Y41960800D02*
X38252400Y40462200D01*
%TO.N,SDC0_D0*%
X37947600Y40259000D02*
X36576000Y41630600D01*
%TO.N,SDC0_DET*%
X35128200Y40919400D02*
X36499800Y39547800D01*
%TO.N,GND*%
X35884800Y37098900D02*
X35255200Y37728500D01*
X21209000Y36901100D02*
X21495200Y36614900D01*
X24396800Y39395400D02*
X23485100Y39395400D01*
X25303000Y39395400D02*
X24396800Y39395400D01*
X26248500Y39395400D02*
X25303000Y39395400D01*
X27013900Y39395400D02*
X26248500Y39395400D01*
X27756800Y39395400D02*
X27013900Y39395400D01*
X28606600Y39395400D02*
X27756800Y39395400D01*
X29535200Y39395400D02*
X28606600Y39395400D01*
X30430100Y39395400D02*
X29535200Y39395400D01*
X31431900Y39395400D02*
X30430100Y39395400D01*
X32334200Y39395400D02*
X31431900Y39395400D01*
X33125900Y39395400D02*
X32334200Y39395400D01*
%TO.N,SDC0_CLK*%
X37160300Y39979500D02*
X35864800Y41275000D01*
%TO.N,SDC0_CMD*%
X34950400Y40563800D02*
X36169600Y39344600D01*
X36169600Y39344600D02*
X36169600Y38404800D01*
X36169600Y38404800D02*
X36576000Y37998400D01*
X36880800Y36626800D02*
X36880800Y36102600D01*
X36880800Y36102600D02*
X37184700Y35798700D01*
%TO.N,SDC0_D3*%
X34798000Y40208200D02*
X35864800Y39141400D01*
X35864800Y39141400D02*
X35864800Y38227000D01*
X35864800Y38227000D02*
X36347400Y37744400D01*
%TO.N,SDC0_D2*%
X35560000Y38938200D02*
X34620200Y39878000D01*
X35560000Y38036500D02*
X35560000Y38938200D01*
X36156900Y37439600D02*
X35560000Y38036500D01*
D30*
X36169600Y37426900D02*
X36169600Y36569800D01*
X36220400Y36113100D02*
X36534800Y35798700D01*
%TO.N,$3N3551*%
D22*
X7924600Y32512100D02*
X6908900Y32512100D01*
%TO.N,SDC0_DET*%
X8839100Y32511900D02*
X9448700Y32511900D01*
%TO.N,GND*%
D31*
X37184700Y25398900D02*
X36855400Y25069600D01*
%TO.N,SCS0*%
D23*
X34586300Y24100000D02*
X34586300Y24019900D01*
X34586300Y24019900D02*
X34086800Y23520400D01*
%TO.N,VDD_GPU*%
D25*
X39135000Y29948800D02*
X39446200Y29637600D01*
X39446200Y29637600D02*
X39446200Y29616400D01*
X39784900Y29948800D02*
X39452500Y29616400D01*
X39452500Y29616400D02*
X39446200Y29616400D01*
X39446200Y29616400D02*
X39763800Y29298800D01*
X39763800Y29298800D02*
X39784900Y29298800D01*
%TO.N,GND*%
D30*
X57690100Y34664300D02*
X57937400Y34417000D01*
X58674000Y34417000D02*
X58699400Y34391600D01*
X57937400Y34417000D02*
X58674000Y34417000D01*
%TO.N,3V3*%
D25*
X58638100Y35164100D02*
X62560300Y35164100D01*
X62560300Y35164100D02*
X62564000Y35160400D01*
X62564000Y34177800D02*
X62564000Y35160400D01*
X62564000Y35160400D02*
X62564000Y36193800D01*
X62564000Y36193800D02*
X62564000Y37227200D01*
%TO.N,D0+*%
D31*
X37835000Y24748900D02*
X37546300Y24460200D01*
X37546300Y24460200D02*
X37541200Y24460200D01*
%TO.N,GND*%
X37184700Y24748900D02*
X37084000Y24648200D01*
X37835000Y25398900D02*
X37835000Y25389000D01*
X37835000Y25389000D02*
X37515800Y25069800D01*
X36601400Y22352000D02*
X36855400Y22606000D01*
X36855400Y22606000D02*
X36855400Y25069600D01*
X36626800Y21717000D02*
X37084000Y22174200D01*
X37084000Y22174200D02*
X37084000Y24648200D01*
%TO.N,D0+*%
X27457400Y8051800D02*
X27520900Y7988300D01*
X27520900Y7988300D02*
X27520900Y6687800D01*
%TO.N,GND*%
D32*
X26873200Y7670800D02*
X26873200Y8051800D01*
X26746200Y7797800D02*
X26873200Y7670800D01*
X26873200Y7670800D02*
X27025600Y7518400D01*
%TO.N,SDQ9*%
D22*
X31986400Y35796400D02*
X31591300Y35401300D01*
X31591300Y35401300D02*
X31591300Y35165200D01*
%TO.N,SDC2_D6*%
D30*
X52190300Y36164100D02*
X51930800Y36423600D01*
%TO.N,SDC2_D7*%
X50546000Y37820600D02*
X51460400Y36906200D01*
X51460400Y36906200D02*
X51948300Y36906200D01*
X51948300Y36906200D02*
X52190300Y36664300D01*
%TO.N,VCC_DRAM*%
D29*
X21285200Y25628600D02*
X21521100Y25628600D01*
X21521100Y25628600D02*
X21802500Y25910000D01*
%TO.N,D2+*%
D31*
X36245800Y24485600D02*
X36509100Y24748900D01*
X36509100Y24748900D02*
X36534800Y24748900D01*
%TO.N,SDC0_D2*%
D30*
X36156900Y37439600D02*
X36169600Y37426900D01*
X36169600Y36569800D02*
X36220400Y36519000D01*
%TO.N,GND*%
D31*
X35884800Y35798700D02*
X35991800Y35905700D01*
X35991800Y36341700D02*
X35884800Y36448700D01*
X35991800Y35905700D02*
X35991800Y36341700D01*
X35884800Y36448700D02*
X35884800Y37098900D01*
X35884800Y35798700D02*
X35569900Y35483800D01*
X35569900Y35483800D02*
X35560000Y35483800D01*
%TO.N,SCKP*%
D22*
X33782000Y29311600D02*
X33782000Y29146000D01*
X33782000Y29146000D02*
X33284800Y28648800D01*
%TO.N,SCKN*%
X33147000Y29260800D02*
X33147000Y29161000D01*
X33147000Y29161000D02*
X32634800Y28648800D01*
%TO.N,GND*%
D31*
X32634800Y33848700D02*
X31984900Y34498700D01*
X31750000Y34721800D02*
X31761800Y34721800D01*
X31761800Y34721800D02*
X31984900Y34498700D01*
X33934800Y34498700D02*
X34234100Y34798000D01*
X34234100Y34798000D02*
X35356800Y34798000D01*
X35356800Y34798000D02*
X35560000Y35001200D01*
X35560000Y35001200D02*
X35560000Y35483800D01*
D24*
X34588800Y32548800D02*
X33284800Y32548800D01*
D25*
X33284800Y32548800D02*
X34264100Y33528000D01*
X34914100Y33528000D02*
X35234800Y33848700D01*
X34264100Y33528000D02*
X34914100Y33528000D01*
X35234800Y27998900D02*
X34912600Y28321000D01*
X34912600Y28321000D02*
X34899600Y28321000D01*
%TO.N,SA6*%
D22*
X34594800Y28803600D02*
X34738500Y28803600D01*
X34738500Y28803600D02*
X35236300Y29301400D01*
%TO.N,SCAS*%
D23*
X35585400Y28778200D02*
X35592200Y28771400D01*
X35592200Y28771400D02*
X35592200Y27707300D01*
%TO.N,SBA1*%
X32969200Y28321000D02*
X32647100Y27998900D01*
X32647100Y27998900D02*
X32634800Y27998900D01*
%TO.N,D1+*%
D31*
X35884800Y24748900D02*
X35814000Y24678200D01*
%TO.N,AP_REG_ON*%
D23*
X41734900Y31898800D02*
X41426500Y32207200D01*
X41426500Y32207200D02*
X41402000Y32207200D01*
%TO.N,BT_RSTN*%
D22*
X41734900Y31248800D02*
X41411500Y31572200D01*
X41411500Y31572200D02*
X41402000Y31572200D01*
%TO.N,3V3*%
D25*
X54149500Y20005000D02*
X54149500Y19459700D01*
%TO.N,WL_REG_ON*%
D22*
X51749500Y20005000D02*
X51749500Y18805700D01*
%TO.N,BT_RSTN*%
X51349400Y20005000D02*
X51349400Y18939000D01*
%TO.N,$3N5562*%
D25*
X50190400Y18516600D02*
X48056800Y18516600D01*
X48056800Y18516600D02*
X47879000Y18338800D01*
X50190400Y18516600D02*
X50317400Y18643600D01*
X50317400Y18643600D02*
X50317400Y18719800D01*
%TO.N,WL_REG_ON*%
D22*
X48488600Y17449800D02*
X50393600Y17449800D01*
X50393600Y17449800D02*
X51749500Y18805700D01*
%TO.N,BT_RSTN*%
X49047400Y17932400D02*
X49174400Y17805400D01*
X49174400Y17805400D02*
X50215800Y17805400D01*
X50215800Y17805400D02*
X51349400Y18939000D01*
%TO.N,WL_REG_ON*%
X42384900Y31248800D02*
X42759100Y31623000D01*
%TO.N,AP_REG_ON*%
D31*
X55803800Y21259800D02*
X55753000Y21310600D01*
X55753000Y21310600D02*
X55753000Y22072600D01*
%TO.N,LPCLK*%
X48488700Y20294700D02*
X48920500Y20294700D01*
X48920500Y20294700D02*
X49330100Y20704300D01*
X49330100Y20704300D02*
X49850000Y20704300D01*
%TO.N,GND*%
D22*
X50789800Y11607800D02*
X50789800Y12486600D01*
X50800000Y10972800D02*
X50789800Y10983000D01*
X50789800Y10983000D02*
X50789800Y11607800D01*
X53771800Y11600200D02*
X53771800Y12479000D01*
X53771800Y11600200D02*
X53771800Y10947400D01*
X34925000Y36786000D02*
X34925000Y37388800D01*
X34925000Y37388800D02*
X33477200Y38836600D01*
X33477200Y38836600D02*
X26060400Y38836600D01*
X26466800Y38582600D02*
X33324800Y38582600D01*
X33324800Y38582600D02*
X34584800Y37322600D01*
X34584800Y37322600D02*
X34584800Y37098900D01*
%TO.N,SDQM0*%
X32636300Y37101500D02*
X31409200Y38328600D01*
X31409200Y38328600D02*
X26593800Y38328600D01*
%TO.N,GND*%
D25*
X37184700Y28648800D02*
X37509700Y28323900D01*
X13893800Y13030200D02*
X13888100Y13035900D01*
X13888100Y13035900D02*
X12776700Y13035900D01*
%TO.N,$4N2219*%
X41402000Y26390600D02*
X41402000Y26366000D01*
X41402000Y26366000D02*
X41084900Y26048900D01*
%TO.N,$4N2243*%
X41084900Y29298800D02*
X41109800Y29298800D01*
X41109800Y29298800D02*
X41427400Y29616400D01*
%TO.N,$4N2220*%
X42062400Y27025600D02*
X41735700Y26698900D01*
%TO.N,1V8*%
X41084900Y29948800D02*
X41402000Y30265900D01*
X41402000Y30265900D02*
X41402000Y30276800D01*
%TO.N,$4N2198*%
X37515900Y25755600D02*
X37541700Y25755600D01*
X37541700Y25755600D02*
X37835000Y26048900D01*
%TO.N,$4N2208*%
X37509900Y26423600D02*
X37559700Y26423600D01*
X37559700Y26423600D02*
X37835000Y26698900D01*
%TO.N,GND*%
D22*
X43586400Y31216600D02*
X43561000Y31242000D01*
X43067100Y31216600D02*
X43034900Y31248800D01*
X43586400Y31216600D02*
X43067100Y31216600D01*
%TO.N,3V3*%
D25*
X47675800Y27127200D02*
X47853200Y26949800D01*
X47853200Y26949800D02*
X47853200Y26593800D01*
%TO.N,WL_REG_ON*%
D22*
X44246800Y31242000D02*
X43865800Y31623000D01*
X43865800Y31623000D02*
X42759100Y31623000D01*
%TO.N,$4N2209*%
D25*
X37184700Y26048900D02*
X36982400Y26251200D01*
X36982400Y27305000D02*
X36804600Y27482800D01*
X36982400Y26251200D02*
X36982400Y27305000D01*
%TO.N,AGND*%
X38485000Y26056400D02*
X38485000Y26048900D01*
X38176200Y26365200D02*
X38485000Y26056400D01*
%TO.N,GND*%
X38485000Y25398900D02*
X38181300Y25095200D01*
X38181300Y25095200D02*
X38176200Y25095200D01*
%TO.N,1V8*%
X38176200Y24434800D02*
X38176200Y24440200D01*
X38176200Y24440200D02*
X38485000Y24748900D01*
%TO.N,HDMI_2P*%
D22*
X41734900Y25398900D02*
X42062400Y25071400D01*
X53170200Y16179800D02*
X54624000Y14726000D01*
%TO.N,HDMI_1P*%
X53271400Y12479000D02*
X53271400Y12895600D01*
X53271400Y12895600D02*
X53145500Y13021500D01*
X53145500Y13021500D02*
X53145500Y14342300D01*
%TO.N,HDMI_2P*%
X54624000Y14726000D02*
X54624000Y13016200D01*
X54624000Y13016200D02*
X54772600Y12867600D01*
X54772600Y12867600D02*
X54772600Y12479000D01*
%TO.N,HDMI_0P*%
X51790600Y12486600D02*
X51790600Y12903200D01*
X51790600Y12903200D02*
X51638200Y13055600D01*
X51638200Y13055600D02*
X51638200Y13876400D01*
X40741600Y25092200D02*
X40434900Y25398900D01*
%TO.N,HDMI_CP*%
X39784900Y24748900D02*
X40081200Y24452700D01*
X45880400Y13766800D02*
X49741200Y13766800D01*
X49741200Y13766800D02*
X50139600Y13368400D01*
X50289500Y12486600D02*
X50289500Y12905700D01*
X50289500Y12905700D02*
X50139600Y13055600D01*
X50139600Y13055600D02*
X50139600Y13368400D01*
%TO.N,GND*%
X50800000Y13131800D02*
X50800000Y12496800D01*
X50800000Y12496800D02*
X50789800Y12486600D01*
X53771800Y13106400D02*
X53771800Y12479000D01*
%TO.N,HDMI_0P*%
X50960400Y14554200D02*
X51638200Y13876400D01*
%TO.N,HDMI_1P*%
X46413800Y15367000D02*
X52120800Y15367000D01*
X52120800Y15367000D02*
X53145500Y14342300D01*
%TO.N,HDMI_CP*%
X40081200Y24452700D02*
X40081200Y19566000D01*
X45880400Y13766800D02*
X40081200Y19566000D01*
%TO.N,HDMI_0P*%
X50960400Y14554200D02*
X46159800Y14554200D01*
X46159800Y14554200D02*
X40741600Y19972400D01*
X40741600Y19972400D02*
X40741600Y25092200D01*
%TO.N,HDMI_1P*%
X46413800Y15367000D02*
X41376600Y20404200D01*
%TO.N,HDMI_2P*%
X42062400Y25071400D02*
X42062400Y20861400D01*
X42062400Y20861400D02*
X46744000Y16179800D01*
X46744000Y16179800D02*
X53170200Y16179800D01*
%TO.N,HDMI_2N*%
X54272200Y12479000D02*
X54272200Y12844800D01*
X54272200Y12844800D02*
X54420800Y12993400D01*
X54420800Y12993400D02*
X54420800Y14641800D01*
X54420800Y14641800D02*
X54186200Y14876400D01*
X54186200Y14876400D02*
X54042500Y14876400D01*
X54042500Y14876400D02*
X53983000Y14816900D01*
X53983000Y14816900D02*
X53839300Y14816900D01*
X53839300Y14816900D02*
X53749500Y14906700D01*
X53749500Y14906700D02*
X53749500Y15050400D01*
X53749500Y15050400D02*
X53809000Y15109900D01*
X53809000Y15109900D02*
X53809000Y15253600D01*
X53809000Y15253600D02*
X53719200Y15343400D01*
X53719200Y15343400D02*
X53575500Y15343400D01*
X53575500Y15343400D02*
X53516000Y15283900D01*
X53516000Y15283900D02*
X53372300Y15283900D01*
X53372300Y15283900D02*
X53282500Y15373700D01*
X53282500Y15373700D02*
X53282500Y15517400D01*
X53282500Y15517400D02*
X53342000Y15576900D01*
X53342000Y15576900D02*
X53342000Y15720600D01*
X53086000Y15976600D02*
X46659800Y15976600D01*
X46659800Y15976600D02*
X41859200Y20777200D01*
X41859200Y20777200D02*
X41859200Y24624600D01*
X41859200Y24624600D02*
X41734900Y24748900D01*
X53342000Y15720600D02*
X53086000Y15976600D01*
%TO.N,HDMI_1N*%
X41084900Y24098700D02*
X41160700Y24022900D01*
X41160700Y24022900D02*
X41160700Y20332700D01*
X41160700Y20332700D02*
X46329600Y15163800D01*
X46329600Y15163800D02*
X52036600Y15163800D01*
X52438300Y14762200D02*
X52438300Y14618500D01*
X52438300Y14618500D02*
X52281100Y14461300D01*
X52281100Y14461300D02*
X52281100Y14317700D01*
X52281100Y14317700D02*
X52370900Y14227900D01*
X52370900Y14227900D02*
X52514600Y14227900D01*
X52514600Y14227900D02*
X52671800Y14385000D01*
X52671800Y14385000D02*
X52815400Y14385000D01*
X52815400Y14385000D02*
X52942300Y14258100D01*
X52942300Y14258100D02*
X52942300Y13038900D01*
X52942300Y13038900D02*
X52771000Y12867600D01*
X52771000Y12867600D02*
X52771000Y12479000D01*
X52036600Y15163800D02*
X52438300Y14762200D01*
%TO.N,HDMI_0N*%
X40434900Y24748900D02*
X40538400Y24645500D01*
X40538400Y24645500D02*
X40538400Y19888200D01*
X40538400Y19888200D02*
X46075600Y14351000D01*
X46075600Y14351000D02*
X50174800Y14351000D01*
X50174800Y14351000D02*
X50276400Y14249400D01*
X50276400Y14249400D02*
X50276400Y13995400D01*
X50276400Y13995400D02*
X50378000Y13893800D01*
X50378000Y13893800D02*
X50505000Y13893800D01*
X50505000Y13893800D02*
X50606600Y13995400D01*
X50606600Y13995400D02*
X50606600Y14249400D01*
X50606600Y14249400D02*
X50708200Y14351000D01*
X50708200Y14351000D02*
X50876200Y14351000D01*
X50876200Y14351000D02*
X51435000Y13792200D01*
X51435000Y13792200D02*
X51435000Y13055600D01*
X51435000Y13055600D02*
X51290200Y12910800D01*
X51290200Y12910800D02*
X51290200Y12486600D01*
%TO.N,HDMI_CN*%
X49789100Y12486600D02*
X49789100Y12908300D01*
X49789100Y12908300D02*
X49936400Y13055600D01*
X49936400Y13055600D02*
X49936400Y13284200D01*
X49936400Y13284200D02*
X49657000Y13563600D01*
X49657000Y13563600D02*
X49245700Y13563600D01*
X49245700Y13563600D02*
X49144100Y13462000D01*
X49144100Y13462000D02*
X49144100Y13411200D01*
X49144100Y13411200D02*
X49042500Y13309600D01*
X49042500Y13309600D02*
X48915500Y13309600D01*
X48915500Y13309600D02*
X48813900Y13411200D01*
X48813900Y13411200D02*
X48813900Y13462000D01*
X48813900Y13462000D02*
X48712300Y13563600D01*
X48712300Y13563600D02*
X48585300Y13563600D01*
X48585300Y13563600D02*
X48483700Y13462000D01*
X48483700Y13462000D02*
X48483700Y13411200D01*
X48483700Y13411200D02*
X48382100Y13309600D01*
X48382100Y13309600D02*
X48255100Y13309600D01*
X48255100Y13309600D02*
X48153500Y13411200D01*
X48153500Y13411200D02*
X48153500Y13462000D01*
X48153500Y13462000D02*
X48051900Y13563600D01*
X48051900Y13563600D02*
X47924900Y13563600D01*
X47924900Y13563600D02*
X47823300Y13462000D01*
X47823300Y13462000D02*
X47823300Y13411200D01*
X47823300Y13411200D02*
X47721700Y13309600D01*
X47721700Y13309600D02*
X47594700Y13309600D01*
X47594700Y13309600D02*
X47493100Y13411200D01*
X47493100Y13411200D02*
X47493100Y13462000D01*
X47493100Y13462000D02*
X47391500Y13563600D01*
X45796200Y13563600D02*
X39878000Y19481800D01*
X39878000Y19481800D02*
X39878000Y24005600D01*
X39878000Y24005600D02*
X39784900Y24098700D01*
X47391500Y13563600D02*
X45796200Y13563600D01*
%TO.N,HDMI_1P*%
X41084900Y24748900D02*
X41376600Y24457200D01*
X41376600Y24457200D02*
X41376600Y20404200D01*
%TO.N,GND*%
X41402000Y25095200D02*
X41098300Y25398900D01*
X41098300Y25398900D02*
X41084900Y25398900D01*
%TO.N,HDSDA*%
X39135000Y24098700D02*
X39522400Y23711200D01*
%TO.N,HSCL*%
X40081200Y25095200D02*
X40081200Y25102700D01*
X40081200Y25102700D02*
X39784900Y25398900D01*
X40081200Y25095200D02*
X39784900Y25391500D01*
X39784900Y25391500D02*
X39784900Y25398900D01*
%TO.N,HDCEC*%
X39163300Y26698900D02*
X39135000Y26698900D01*
X39446200Y26416000D02*
X39420800Y26416000D01*
X39163300Y26698900D02*
X39150600Y26711600D01*
X39446200Y26416000D02*
X39163300Y26698900D01*
%TO.N,GND*%
X52146200Y17144900D02*
X53162200Y17144900D01*
X53162200Y17144900D02*
X54178200Y17144900D01*
%TO.N,VCC_DRAM*%
D25*
X29578200Y27063600D02*
X29337000Y26822400D01*
X29131700Y27510200D02*
X29578200Y27063600D01*
%TO.N,GND*%
D22*
X21717000Y37973000D02*
X21209000Y37465000D01*
X21209000Y37465000D02*
X21209000Y36901100D01*
X22275800Y38531800D02*
X21717000Y37973000D01*
X22860000Y39090600D02*
X23164800Y39395400D01*
X23164800Y39395400D02*
X23485100Y39395400D01*
X22860000Y39090600D02*
X22834600Y39090600D01*
X22834600Y39090600D02*
X22275800Y38531800D01*
X34137600Y39395400D02*
X33125900Y39395400D01*
X34747200Y39065200D02*
X35255200Y38557200D01*
X35255200Y38557200D02*
X35255200Y37728500D01*
X34747200Y39065200D02*
X34417000Y39395400D01*
X34417000Y39395400D02*
X34137600Y39395400D01*
D25*
X31872800Y36987900D02*
X30605800Y36987900D01*
X30605800Y36987900D02*
X30482300Y37111400D01*
X30482300Y37111400D02*
X28203300Y37111400D01*
D24*
X30029600Y36411700D02*
X28303800Y36411700D01*
X28303800Y36411700D02*
X28203300Y36311300D01*
%TO.N,$4N26086*%
D31*
X48767900Y12344500D02*
X48767900Y12700100D01*
X48767900Y12700100D02*
X48488600Y12979400D01*
X44683700Y13233400D02*
X45415200Y13233400D01*
X45415200Y13233400D02*
X45669200Y12979400D01*
X45669200Y12979400D02*
X48488600Y12979400D01*
%TO.N,H5V*%
D24*
X44683700Y11595100D02*
X45432900Y12344300D01*
X44683700Y11595100D02*
X45351700Y11595100D01*
%TO.N,$4N26086*%
X43256200Y13233400D02*
X42564200Y13233400D01*
D31*
X42489100Y13233400D02*
X42564200Y13233400D01*
%TO.N,HDSDA*%
D22*
X39522400Y19024600D02*
X42341900Y16205100D01*
X39522400Y19024600D02*
X39522400Y23711200D01*
X42341900Y16205100D02*
X42341900Y14706700D01*
D21*
X43891200Y14071700D02*
X43256300Y14706700D01*
%TO.N,HDSCL*%
D31*
X47650500Y11201300D02*
X47650500Y11429900D01*
X48020200Y10831600D02*
X47650500Y11201300D01*
%TO.N,EPHY_RXN*%
X44018200Y20269200D02*
X44018200Y20523200D01*
%TO.N,EPHY_RXP*%
X42384900Y24748900D02*
X42697400Y24436400D01*
%TO.N,EPHY_RXN*%
X44018200Y20523200D02*
X42384900Y22156500D01*
X42384900Y24098700D02*
X42384900Y22156500D01*
%TO.N,EPHY_RXP*%
X42697400Y22275800D02*
X42697400Y24436400D01*
X44551600Y20802600D02*
X44170600Y20802600D01*
X44170600Y20802600D02*
X42697400Y22275800D01*
%TO.N,EPHY_TXN*%
X44831000Y22072600D02*
X44831000Y22250400D01*
%TO.N,EPHY_TXP*%
X45186600Y22580600D02*
X44907200Y22580600D01*
X43738800Y24695000D02*
X43034900Y25398900D01*
X44907200Y22580600D02*
X43738800Y23749000D01*
X43738800Y23749000D02*
X43738800Y24695000D01*
%TO.N,GND*%
X43891200Y22174200D02*
X43034900Y23030500D01*
X43034900Y23030500D02*
X43034900Y24098700D01*
%TO.N,1V8*%
D24*
X38485000Y26698900D02*
X38913300Y27127200D01*
X39522400Y27127200D02*
X39979600Y26670000D01*
X39979600Y26670000D02*
X39979600Y26243600D01*
X39979600Y26243600D02*
X39784900Y26048900D01*
X38913300Y27127200D02*
X39522400Y27127200D01*
X40106600Y25730200D02*
X40103600Y25730200D01*
X40103600Y25730200D02*
X39784900Y26048900D01*
%TO.N,PMU_SDA*%
D25*
X42722800Y25730200D02*
X42404100Y26048900D01*
X42404100Y26048900D02*
X42384900Y26048900D01*
%TO.N,PMU_SCK*%
X41734900Y26048900D02*
X42028200Y25755600D01*
X42028200Y25755600D02*
X42037000Y25755600D01*
%TO.N,EPHY_RTX*%
X42384900Y25398900D02*
X42688600Y25095200D01*
X42688600Y25095200D02*
X42697400Y25095200D01*
%TO.N,PS*%
D34*
X29222700Y6687800D02*
X29222700Y7886700D01*
X29222700Y7886700D02*
X29222700Y7962900D01*
X29222700Y7962900D02*
X29577600Y8317800D01*
X29577600Y8317800D02*
X29577600Y9575800D01*
D35*
X29577600Y9575800D02*
X31203200Y11201400D01*
X31203200Y11201400D02*
X31755100Y11201400D01*
X29560500Y11201400D02*
X28422600Y11201400D01*
X28422600Y11201400D02*
X28163500Y11460500D01*
X28163500Y11460500D02*
X28163500Y12316500D01*
D20*
X41783000Y11633200D02*
X41821100Y11595100D01*
X41821100Y11595100D02*
X42489100Y11595100D01*
%TO.N,$4N34315*%
D24*
X39662100Y9157600D02*
X39662100Y11366500D01*
%TO.N,$4N34203*%
X39979600Y12192000D02*
X39979600Y14036000D01*
%TO.N,$4N34315*%
X38455600Y14036000D02*
X39217600Y13274000D01*
X39217600Y13274000D02*
X39217600Y11811000D01*
X39217600Y11811000D02*
X39662100Y11366500D01*
%TO.N,TV_OUT*%
X36982400Y12674600D02*
X36982400Y14036000D01*
X38608000Y11049000D02*
X36982400Y12674600D01*
X36982400Y14036000D02*
X35824200Y14036000D01*
%TO.N,$4N34315*%
X38455600Y14036000D02*
X37744400Y14747200D01*
X37744400Y14747200D02*
X37744400Y15316200D01*
X37744400Y15316200D02*
X37338000Y15722600D01*
X37338000Y15722600D02*
X36423600Y15722600D01*
X36423600Y15722600D02*
X35873800Y16272400D01*
X35873800Y16272400D02*
X35873800Y16374000D01*
%TO.N,$4N34203*%
X39979600Y14036000D02*
X39268400Y14747200D01*
X39268400Y16180100D02*
X39074500Y16374000D01*
X39268400Y14747200D02*
X39268400Y16180100D01*
%TO.N,LR*%
X38058400Y17339200D02*
X38058400Y16374100D01*
%TO.N,LL*%
X36890000Y17339200D02*
X36890000Y16374200D01*
X36890000Y17339200D02*
X37490400Y17939500D01*
D22*
X39135000Y25398900D02*
X38760400Y25024400D01*
X38506400Y24206200D02*
X38506400Y23825200D01*
X38760400Y25024400D02*
X38760400Y24460200D01*
X38760400Y24460200D02*
X38506400Y24206200D01*
%TO.N,LR*%
X39135000Y24748900D02*
X39135000Y24479200D01*
X38811200Y24155400D02*
X38811200Y23825200D01*
X39135000Y24479200D02*
X38811200Y24155400D01*
%TO.N,$4N36638*%
D24*
X38058400Y19193300D02*
X38058400Y18253600D01*
%TO.N,$4N36516*%
X36890000Y19193300D02*
X36890000Y18253600D01*
%TO.N,LR*%
X38058400Y17339200D02*
X38709600Y17990300D01*
D22*
X38811200Y23825200D02*
X38968100Y23668300D01*
%TO.N,GND*%
D24*
X38328600Y20929600D02*
X38058400Y20659400D01*
X38058400Y20659400D02*
X38058400Y20209300D01*
X36890000Y20209300D02*
X35991800Y19311100D01*
X35991800Y19311100D02*
X35991800Y18643600D01*
%TO.N,TV_OUT*%
X35052000Y14808200D02*
X35052000Y19380200D01*
X37835000Y24098700D02*
X37835000Y22163200D01*
X37835000Y22163200D02*
X35052000Y19380200D01*
%TO.N,LL*%
X37490400Y17939500D02*
X37490400Y20802600D01*
X37490400Y20802600D02*
X38506400Y21818600D01*
X38506400Y21818600D02*
X38506400Y23825200D01*
%TO.N,LR*%
X38709600Y17990300D02*
X38709600Y20574000D01*
X38709600Y20574000D02*
X38938200Y20802600D01*
X38938200Y20802600D02*
X38938200Y23668300D01*
%TO.N,D1-*%
D31*
X14859000Y23393400D02*
X21996400Y23393400D01*
X12700000Y25552400D02*
X14859000Y23393400D01*
%TO.N,$4N42572*%
D24*
X17526000Y29413300D02*
X17526000Y28397300D01*
X17526000Y29413300D02*
X17162900Y29776400D01*
X17162900Y29776400D02*
X16045200Y29776400D01*
X16045200Y29776400D02*
X11844000Y29776400D01*
X17525900Y27482900D02*
X17525900Y26822500D01*
%TO.N,FEL*%
X16019800Y24417000D02*
X16908800Y24417000D01*
X16908800Y24417000D02*
X16916400Y24409400D01*
X11818600Y24417000D02*
X11800800Y24434800D01*
X11800800Y24434800D02*
X10922000Y24434800D01*
%TO.N,RESET*%
D21*
X14666900Y9303400D02*
X14666900Y9005900D01*
X14666900Y9005900D02*
X15011400Y8661400D01*
X15011400Y8661400D02*
X18364200Y8661400D01*
X18364200Y8661400D02*
X19075400Y7950200D01*
%TO.N,$4N34315*%
D31*
X38455600Y15494000D02*
X38455600Y14869200D01*
%TO.N,GND*%
X35905500Y14869200D02*
X35814100Y14960500D01*
X36982400Y14869200D02*
X35905500Y14869200D01*
%TO.N,$4N34203*%
X39395400Y17526000D02*
X39979600Y16941800D01*
X39979600Y16941800D02*
X39979600Y14869200D01*
%TO.N,3V3*%
D24*
X5384800Y32486600D02*
X5410300Y32512100D01*
X5410300Y32512100D02*
X5994500Y32512100D01*
%TO.N,SDC2_D6*%
D22*
X38485000Y37098900D02*
X38485000Y38027800D01*
D30*
X49352200Y37185600D02*
X49428400Y37109400D01*
X49428400Y37109400D02*
X50063400Y37109400D01*
X50063400Y37109400D02*
X50266600Y36906200D01*
%TO.N,$3N2117*%
D22*
X49326800Y36779200D02*
X49987200Y36779200D01*
X49987200Y36779200D02*
X50368200Y36398200D01*
%TO.N,SDC2_D6*%
D30*
X51930800Y36423600D02*
X50876200Y36423600D01*
X50876200Y36423600D02*
X50393600Y36906200D01*
X50393600Y36906200D02*
X50266600Y36906200D01*
%TO.N,$3N2117*%
D22*
X38485000Y36448700D02*
X38485000Y36656200D01*
X38485000Y36656200D02*
X38811200Y36982400D01*
X38811200Y36982400D02*
X38811200Y37871400D01*
%TO.N,SDC2_D4*%
X39784900Y37098900D02*
X39784900Y37448100D01*
X39784900Y37448100D02*
X39903400Y37566600D01*
%TO.N,SDC2_D0*%
D30*
X47909600Y36322000D02*
X49784000Y36322000D01*
D22*
X39784900Y36448700D02*
X39784900Y36660700D01*
%TO.N,SDC2_D6*%
X38485000Y38027800D02*
X38658800Y38201600D01*
%TO.N,$3N2117*%
X38938200Y37998400D02*
X38811200Y37871400D01*
%TO.N,SDC2_D6*%
X38658800Y38201600D02*
X38658800Y42392600D01*
%TO.N,$3N2117*%
X38938200Y42214800D02*
X38938200Y37998400D01*
%TO.N,SDC2_D7*%
X38485000Y35798700D02*
X38811200Y36124900D01*
X38811200Y36576000D02*
X38811200Y36124900D01*
X38811200Y36576000D02*
X39116000Y36880800D01*
X39116000Y36880800D02*
X39116000Y37719000D01*
X39116000Y37719000D02*
X39243000Y37846000D01*
X39243000Y37846000D02*
X39243000Y42037000D01*
%TO.N,SDC2_D1*%
X39135000Y35798700D02*
X39420800Y36084500D01*
X39420800Y37541200D02*
X39573200Y37693600D01*
X39573200Y37693600D02*
X39573200Y41859200D01*
X39420800Y36084500D02*
X39420800Y37541200D01*
%TO.N,SDC2_D4*%
X39903400Y41605200D02*
X39903400Y37566600D01*
X47421800Y36779200D02*
X48514000Y36779200D01*
%TO.N,SDC2_D1*%
X47447200Y37312600D02*
X48006000Y37312600D01*
%TO.N,SDC2_D6*%
X38658800Y42392600D02*
X40462200Y44196000D01*
%TO.N,$3N2117*%
X45059600Y43865800D02*
X40589200Y43865800D01*
X40589200Y43865800D02*
X38938200Y42214800D01*
%TO.N,SDC2_D7*%
X39243000Y42037000D02*
X40741600Y43535600D01*
X40741600Y43535600D02*
X44881800Y43535600D01*
%TO.N,SDC2_D1*%
X39573200Y41859200D02*
X40894000Y43180000D01*
X40894000Y43180000D02*
X44780200Y43180000D01*
%TO.N,SDC2_D4*%
X44627800Y42824400D02*
X41122600Y42824400D01*
X41122600Y42824400D02*
X39903400Y41605200D01*
%TO.N,SDC2_D0*%
X43967400Y41935400D02*
X43611800Y42291000D01*
D30*
X39784900Y36660700D02*
X40233600Y37109400D01*
D22*
X43078400Y38811200D02*
X43967400Y39700200D01*
X43967400Y39700200D02*
X43967400Y41935400D01*
D30*
X40233600Y37109400D02*
X40233600Y38049200D01*
X40233600Y38049200D02*
X40995600Y38811200D01*
D22*
X40995600Y38811200D02*
X43078400Y38811200D01*
%TO.N,SDC2_CMD*%
D30*
X40434900Y36448700D02*
X40767000Y36780700D01*
X40767000Y37744400D02*
X41198800Y38176200D01*
D22*
X41198800Y38176200D02*
X43434000Y38176200D01*
D30*
X40767000Y36780700D02*
X40767000Y37744400D01*
D22*
X43434000Y38176200D02*
X44627800Y39370000D01*
%TO.N,SDC2_D3*%
X41757600Y37896800D02*
X43586400Y37896800D01*
%TO.N,SDC2_D6*%
X40462200Y44196000D02*
X45237400Y44196000D01*
%TO.N,SDC2_D3*%
X47675800Y36017200D02*
X47193200Y36017200D01*
%TO.N,SDC2_D0*%
X47909600Y36322000D02*
X47833400Y36398200D01*
X47833400Y36398200D02*
X47294800Y36398200D01*
%TO.N,3V3*%
X42384900Y37098900D02*
X42827200Y37541200D01*
X42827200Y37541200D02*
X43713400Y37541200D01*
%TO.N,SDC2_D3*%
X44907200Y40411400D02*
X45034200Y40538400D01*
X44907200Y39217600D02*
X43586400Y37896800D01*
X44907200Y39217600D02*
X44907200Y40411400D01*
%TO.N,3V3*%
X44907200Y38531800D02*
X44704000Y38531800D01*
X44704000Y38531800D02*
X43713400Y37541200D01*
%TO.N,SDC2_RST*%
X41734900Y36448700D02*
X42040000Y36753800D01*
%TO.N,SDC2_D0*%
X44297600Y39547800D02*
X44297600Y41351200D01*
X44297600Y41351200D02*
X44678600Y41732200D01*
X44678600Y41732200D02*
X45186600Y41732200D01*
%TO.N,PI15*%
X36534800Y35148700D02*
X36245800Y34859700D01*
X36245800Y34859700D02*
X36245800Y34848800D01*
%TO.N,PI10*%
X36534800Y34498700D02*
X36249800Y34213800D01*
X36249800Y34213800D02*
X36245800Y34213800D01*
%TO.N,SDQ15*%
D23*
X35483800Y32639000D02*
X35661600Y32816800D01*
X35661600Y34071900D02*
X35234800Y34498700D01*
X35661600Y32816800D02*
X35661600Y34071900D01*
%TO.N,PI14*%
X36271200Y33578800D02*
X36271200Y33585200D01*
X36271200Y33585200D02*
X36534800Y33848700D01*
%TO.N,PI16*%
X36906200Y33553400D02*
X36906200Y33570200D01*
X36906200Y33570200D02*
X37184700Y33848700D01*
%TO.N,PI12*%
X37184700Y34498700D02*
X36906200Y34220200D01*
X36906200Y34220200D02*
X36906200Y34213800D01*
%TO.N,PI11*%
X37184700Y35148700D02*
X36910200Y34874200D01*
X36910200Y34874200D02*
X36906200Y34874200D01*
%TO.N,PI0*%
X38176200Y33528000D02*
X38176200Y33540000D01*
X38176200Y33540000D02*
X38485000Y33848700D01*
%TO.N,PI5*%
X38125400Y34823400D02*
X38450700Y35148700D01*
X38450700Y35148700D02*
X38485000Y35148700D01*
%TO.N,PI4*%
X39135000Y34498700D02*
X38824600Y34188400D01*
X38824600Y34188400D02*
X38811200Y34188400D01*
%TO.N,PI2*%
X38811200Y33528000D02*
X39131900Y33848700D01*
X39131900Y33848700D02*
X39135000Y33848700D01*
%TO.N,PI9*%
X41427400Y34163000D02*
X41091700Y34498700D01*
X41091700Y34498700D02*
X41084900Y34498700D01*
%TO.N,PI1*%
X41402000Y34823400D02*
X41084900Y35140500D01*
X41084900Y35140500D02*
X41084900Y35148700D01*
%TO.N,PI8*%
X40741600Y33553400D02*
X40730300Y33553400D01*
X40730300Y33553400D02*
X40434900Y33848700D01*
%TO.N,PI13*%
X40767000Y34163000D02*
X40767000Y34166600D01*
X40767000Y34166600D02*
X40434900Y34498700D01*
%TO.N,PI3*%
X40767000Y34823400D02*
X40441700Y35148700D01*
X40441700Y35148700D02*
X40434900Y35148700D01*
%TO.N,3V3*%
D24*
X39784900Y34498700D02*
X39784900Y33494100D01*
X40906200Y33020000D02*
X41084900Y33198700D01*
X37541200Y33553400D02*
X37835000Y33847200D01*
%TO.N,PI7*%
D23*
X39446200Y35458400D02*
X39135000Y35147200D01*
%TO.N,PI6*%
X38836600Y34823400D02*
X38809700Y34823400D01*
X38809700Y34823400D02*
X38485000Y34498700D01*
%TO.N,PH7*%
D31*
X42062400Y29616400D02*
X42062400Y29626300D01*
X42062400Y29626300D02*
X42384900Y29948800D01*
%TO.N,PH9*%
X43034900Y29948800D02*
X43261300Y30175200D01*
X44399200Y29997400D02*
X44221400Y30175200D01*
X44221400Y30175200D02*
X43261300Y30175200D01*
%TO.N,PH5*%
X42384900Y28648800D02*
X42717400Y28981400D01*
%TO.N,PH10*%
X43916600Y29591000D02*
X43624400Y29298800D01*
X43624400Y29298800D02*
X42384900Y29298800D01*
%TO.N,PH4*%
X44653200Y28625800D02*
X44630200Y28648800D01*
X44630200Y28648800D02*
X43034900Y28648800D01*
%TO.N,PH5*%
X44551600Y29387800D02*
X44145200Y28981400D01*
X44145200Y28981400D02*
X42717400Y28981400D01*
%TO.N,PH6*%
D22*
X45618400Y27686000D02*
X44704000Y27686000D01*
%TO.N,PH2*%
D31*
X42384900Y27998900D02*
X43883100Y27998900D01*
X43883100Y27998900D02*
X44653200Y27228800D01*
X44653200Y27228800D02*
X45212000Y27228800D01*
X45212000Y27228800D02*
X45593000Y26847800D01*
%TO.N,FEL*%
D25*
X42384900Y26698900D02*
X42566200Y26517600D01*
X42566200Y26517600D02*
X43510200Y26517600D01*
%TO.N,GND*%
D31*
X42672000Y27051000D02*
X42384900Y27338100D01*
X42384900Y27338100D02*
X42384900Y27348900D01*
D25*
X43865800Y26974800D02*
X43491700Y27348900D01*
X43491700Y27348900D02*
X43034900Y27348900D01*
%TO.N,PH3*%
D31*
X41734900Y27998900D02*
X42047800Y27686000D01*
X42047800Y27686000D02*
X43713400Y27686000D01*
%TO.N,GND*%
D25*
X44780200Y23444200D02*
X44119800Y24104600D01*
X44119800Y24104600D02*
X44119800Y24964000D01*
X44119800Y24964000D02*
X43034900Y26048900D01*
%TO.N,FEL*%
X44399200Y26085800D02*
X43942000Y26085800D01*
X43942000Y26085800D02*
X43510200Y26517600D01*
%TO.N,PH3*%
D31*
X44932600Y26619200D02*
X44780200Y26619200D01*
X44780200Y26619200D02*
X43713400Y27686000D01*
%TO.N,1V8*%
D25*
X41402000Y30276800D02*
X41402000Y30281700D01*
X41402000Y30281700D02*
X41084900Y30598800D01*
%TO.N,3V3*%
X41084900Y31248800D02*
X40792400Y31541300D01*
%TO.N,PH1*%
X41084900Y27998900D02*
X41376600Y28290500D01*
X41376600Y28290500D02*
X41376600Y28295600D01*
%TO.N,3V3*%
X41376600Y26974800D02*
X40944800Y26974800D01*
X40434900Y26464900D02*
X40434900Y26048900D01*
%TO.N,GND*%
X37835000Y29948800D02*
X38485000Y30598800D01*
%TO.N,VDD_GPU*%
X39135000Y29978400D02*
X39135000Y29948800D01*
X38862000Y30251400D02*
X39135000Y29978400D01*
X38862000Y30251400D02*
X39135000Y30524400D01*
X39135000Y31210200D02*
X39173600Y31248800D01*
X38836600Y30911800D02*
X39135000Y31210200D01*
X38836600Y30911800D02*
X39084200Y30664200D01*
X39084200Y30664200D02*
X39135000Y30664200D01*
X38862000Y31572200D02*
X39135000Y31845200D01*
X39135000Y31845200D02*
X39188600Y31898800D01*
X38862000Y31572200D02*
X39135000Y31299200D01*
X39135000Y31299200D02*
X39185400Y31248800D01*
X39173600Y31248800D02*
X39185400Y31248800D01*
X39135000Y31210200D02*
X39135000Y31299200D01*
X39135000Y32480200D02*
X39135000Y32548800D01*
X39135000Y31934200D02*
X39170400Y31898800D01*
X39135000Y31845200D02*
X39135000Y31934200D01*
X38836600Y32207200D02*
X39109600Y32480200D01*
X39109600Y32480200D02*
X39135000Y32480200D01*
X38836600Y32207200D02*
X39109600Y31934200D01*
X39109600Y31934200D02*
X39135000Y31934200D01*
X39135000Y30524400D02*
X39135000Y30598800D01*
X39135000Y30598800D02*
X39135000Y30664200D01*
X39135000Y30524400D02*
X39172200Y30561600D01*
X39102200Y30631500D02*
X39135000Y30598800D01*
X39172200Y30561600D02*
X39135000Y30598800D01*
X39784900Y30598800D02*
X39135000Y30598800D01*
X39784900Y31248800D02*
X39185400Y31248800D01*
X39784900Y31898800D02*
X39188600Y31898800D01*
X39188600Y31898800D02*
X39170400Y31898800D01*
X39135000Y32548800D02*
X39784900Y32548800D01*
%TO.N,3V3*%
D36*
X40462200Y26958200D02*
X40695200Y26725200D01*
D25*
X40944800Y26974800D02*
X40695200Y26725200D01*
X40695200Y26725200D02*
X40434900Y26464900D01*
D36*
X40462200Y31211100D02*
X40462200Y26958200D01*
D24*
X36195000Y25730200D02*
X36195000Y25738700D01*
X36195000Y25738700D02*
X35884800Y26048900D01*
%TO.N,SDC2_D4*%
D22*
X44627800Y42824400D02*
X46151800Y41300400D01*
X46151800Y41300400D02*
X46151800Y38049200D01*
X46151800Y38049200D02*
X47421800Y36779200D01*
%TO.N,SDC2_D0*%
X45186600Y41732200D02*
X45770800Y41148000D01*
X45770800Y41148000D02*
X45770800Y37922200D01*
X45770800Y37922200D02*
X47294800Y36398200D01*
%TO.N,SDC2_D3*%
X45415200Y37795200D02*
X47193200Y36017200D01*
X45034200Y40538400D02*
X45288200Y40538400D01*
X45288200Y40538400D02*
X45415200Y40411400D01*
X45415200Y40411400D02*
X45415200Y37795200D01*
%TO.N,SDC2_CLK*%
D30*
X50444400Y34010600D02*
X50215800Y34239200D01*
X50215800Y34239200D02*
X48920400Y34239200D01*
%TO.N,$3N2831*%
X44754800Y36093400D02*
X45593100Y35255100D01*
X45593100Y35255100D02*
X46481900Y35255100D01*
%TO.N,SDC0_D2*%
D22*
X34620200Y39878000D02*
X12623800Y39878000D01*
%TO.N,SDC0_DET*%
X11684000Y40817800D02*
X11785600Y40919400D01*
X11785600Y40919400D02*
X35128200Y40919400D01*
%TO.N,SDC0_D0*%
X36576000Y41630600D02*
X9372600Y41630600D01*
X9372600Y41630600D02*
X7866000Y43137200D01*
%TO.N,GND*%
D24*
X36398200Y22961600D02*
X36398200Y23962100D01*
X36398200Y23962100D02*
X36534800Y24098700D01*
X22910800Y23164800D02*
X21844000Y24231600D01*
X21844000Y24231600D02*
X21437600Y24638000D01*
X21437600Y24638000D02*
X21437600Y24790400D01*
D25*
X29692500Y28016100D02*
X30098900Y28016100D01*
X29692500Y29006700D02*
X30098900Y29006700D01*
%TO.N,SCKE0*%
D22*
X31844800Y27508200D02*
X31673800Y27508200D01*
X31673800Y27508200D02*
X31546800Y27635200D01*
X31546800Y29946600D02*
X31877000Y30276800D01*
X33959800Y30708600D02*
X33731200Y30937200D01*
X33731200Y30937200D02*
X32512000Y30937200D01*
X31844800Y27508200D02*
X31986400Y27649700D01*
X31546800Y27635200D02*
X31546800Y29946600D01*
X28128800Y29907500D02*
X31050500Y29907500D01*
X31050500Y29907500D02*
X31750000Y30607000D01*
X31750000Y30607000D02*
X32181800Y30607000D01*
X32181800Y30607000D02*
X32512000Y30937200D01*
X31877000Y30276800D02*
X33782000Y30276800D01*
X33782000Y30276800D02*
X33959800Y30454600D01*
X33959800Y30454600D02*
X33959800Y30708600D01*
%TO.N,VCC_DRAM*%
D25*
X29578200Y27063600D02*
X29959200Y27063600D01*
X29959200Y27063600D02*
X29997300Y27025600D01*
%TO.N,GND*%
X31013300Y27025600D02*
X30378300Y26390600D01*
X28981400Y26390600D02*
X28625800Y26746200D01*
X30378300Y26390600D02*
X28981400Y26390600D01*
%TO.N,SA8*%
D22*
X27403200Y24787000D02*
X27403200Y25109900D01*
X27403200Y24787000D02*
X27178000Y24561800D01*
X23672800Y24257000D02*
X23799800Y24130000D01*
X23672800Y24257000D02*
X23672800Y24434800D01*
X23672800Y24434800D02*
X23799800Y24561800D01*
X23799800Y24561800D02*
X27178000Y24561800D01*
X27355800Y24130000D02*
X23799800Y24130000D01*
%TO.N,SA7*%
X33286300Y24101200D02*
X32629300Y23444200D01*
%TO.N,SA8*%
X28016200Y25476200D02*
X27813000Y25273000D01*
X27813000Y25273000D02*
X27813000Y24587200D01*
X27813000Y24587200D02*
X27355800Y24130000D01*
X31984900Y26698900D02*
X31724600Y26438600D01*
X31724600Y26438600D02*
X31724600Y25857200D01*
X31724600Y25857200D02*
X31343600Y25476200D01*
X31343600Y25476200D02*
X28016200Y25476200D01*
%TO.N,SWE*%
X30004200Y25049900D02*
X30305200Y24748900D01*
X30305200Y24748900D02*
X31984900Y24748900D01*
%TO.N,GND*%
D24*
X31984900Y24098700D02*
X31801100Y24282400D01*
X29367900Y24282400D02*
X28549000Y25101300D01*
X31801100Y24282400D02*
X29367900Y24282400D01*
D25*
X31984900Y25398900D02*
X32308800Y25075000D01*
X32308800Y24422600D02*
X31984900Y24098700D01*
X32308800Y25075000D02*
X32308800Y24422600D01*
%TO.N,SA7*%
D22*
X32629300Y23444200D02*
X23368000Y23444200D01*
X23368000Y23444200D02*
X22206400Y24605800D01*
%TO.N,GND*%
D28*
X21811400Y25101300D02*
X21811400Y25367400D01*
X21811400Y25367400D02*
X22199600Y25755600D01*
X22199600Y25755600D02*
X22199600Y26313100D01*
%TO.N,SA7*%
D22*
X22206400Y25381400D02*
X22206400Y24605800D01*
X22611400Y25901300D02*
X22611400Y25786400D01*
X22611400Y25786400D02*
X22206400Y25381400D01*
%TO.N,SRST*%
X22602600Y25109900D02*
X22602600Y24819200D01*
X22602600Y24819200D02*
X23612800Y23809000D01*
X27794900Y23809000D02*
X27896500Y23910600D01*
X27896500Y23910600D02*
X27896500Y24180800D01*
X27896500Y24180800D02*
X27998100Y24282400D01*
X27998100Y24282400D02*
X28099700Y24282400D01*
X28099700Y24282400D02*
X28201300Y24180800D01*
X28201300Y24180800D02*
X28201300Y23910600D01*
X28201300Y23910600D02*
X28302900Y23809000D01*
X28302900Y23809000D02*
X28404500Y23809000D01*
X28404500Y23809000D02*
X28506100Y23910600D01*
X28506100Y23910600D02*
X28506100Y24180800D01*
X28506100Y24180800D02*
X28607700Y24282400D01*
X28607700Y24282400D02*
X28709300Y24282400D01*
X28709300Y24282400D02*
X28810900Y24180800D01*
X28810900Y24180800D02*
X28810900Y23910600D01*
X28810900Y23910600D02*
X28912500Y23809000D01*
X28912500Y23809000D02*
X32344100Y23809000D01*
X32344100Y23809000D02*
X32636300Y24101200D01*
X23612800Y23809000D02*
X27794900Y23809000D01*
%TO.N,D1+*%
D31*
X14764300Y23164800D02*
X21901700Y23164800D01*
X14764300Y23164800D02*
X12630700Y25298400D01*
%TO.N,VCC_DRAM*%
D27*
X20350800Y36962900D02*
X19608900Y36962900D01*
X21802500Y35511200D02*
X20350800Y36962900D01*
X19608900Y36962900D02*
X19608900Y35901900D01*
X21259800Y35153600D02*
X20947200Y34841000D01*
X20947200Y34841000D02*
X19608900Y34841000D01*
X19608900Y34841000D02*
X19608900Y33780000D01*
X19608900Y32719100D02*
X20019100Y32719100D01*
X20019100Y32719100D02*
X20396200Y33096200D01*
X20396200Y33096200D02*
X20980400Y33096200D01*
X19608900Y31658200D02*
X19608900Y32719100D01*
X19608900Y30597200D02*
X19608900Y29536300D01*
X21031200Y29210000D02*
X20704900Y29536300D01*
X20704900Y29536300D02*
X19608900Y29536300D01*
X19608900Y28475400D02*
X19608900Y27414400D01*
X21310600Y27660600D02*
X19855100Y27660600D01*
X19855100Y27660600D02*
X19608900Y27414400D01*
X19608900Y26353500D02*
X19608900Y25292500D01*
X19608900Y25292500D02*
X19945000Y25628600D01*
X19945000Y25628600D02*
X21285200Y25628600D01*
%TO.N,$3N5553*%
D21*
X54813200Y26162000D02*
X55295800Y26644600D01*
X53749400Y25003800D02*
X53749400Y25377600D01*
X53749400Y25377600D02*
X54533800Y26162000D01*
X54533800Y26162000D02*
X54813200Y26162000D01*
%TO.N,WHXI*%
D22*
X53349400Y25409400D02*
X53349400Y25003800D01*
%TO.N,GND*%
D24*
X55219600Y27635300D02*
X56159400Y27635300D01*
X56159400Y27635300D02*
X56946700Y27635300D01*
%TO.N,D0+*%
X17475200Y6687800D02*
X18389600Y5773400D01*
X18389600Y5773400D02*
X18569900Y5773400D01*
X16916500Y8051900D02*
X17475200Y7493100D01*
X17475200Y7493100D02*
X17475200Y6687800D01*
%TO.N,GND*%
D31*
X42595800Y21132800D02*
X42595800Y20853400D01*
X45085000Y18364200D02*
X46862900Y18364200D01*
X42595800Y20853400D02*
X45085000Y18364200D01*
D25*
X35234800Y29948800D02*
X35534600Y29649000D01*
X35534600Y29649000D02*
X35534600Y29641800D01*
%TO.N,SCKE1*%
D22*
X34931800Y29646800D02*
X34931800Y30422400D01*
X34931800Y30422400D02*
X33768500Y31585700D01*
X33768500Y31585700D02*
X32544200Y31585700D01*
%TO.N,GND*%
X34340800Y30429200D02*
X34340800Y30683200D01*
X34340800Y30683200D02*
X33775200Y31248800D01*
X33775200Y31248800D02*
X33284800Y31248800D01*
%TO.N,EPHY_TXN*%
D31*
X44831000Y22250400D02*
X43314300Y23767100D01*
X43314300Y23767100D02*
X43314300Y24469500D01*
X43314300Y24469500D02*
X43034900Y24748900D01*
%TO.N,PH8*%
D22*
X41402000Y28981400D02*
X41719400Y29298800D01*
X41719400Y29298800D02*
X41734900Y29298800D01*
%TO.N,3V3*%
D20*
X5943700Y31496000D02*
X5943700Y32461400D01*
X5943700Y32461400D02*
X5994500Y32512100D01*
%TO.N,GND*%
D25*
X49850000Y21104400D02*
X50898600Y21104400D01*
X50898600Y21104400D02*
X51155600Y21361400D01*
D31*
X50898600Y21104400D02*
X50949400Y21104400D01*
X50949400Y21104400D02*
X52349400Y22504400D01*
%TO.N,$3N5562*%
D25*
X55346600Y25679400D02*
X54508400Y25679400D01*
X54508400Y25679400D02*
X54149500Y25320500D01*
X54149500Y25320500D02*
X54149500Y25003800D01*
%TO.N,GND*%
X18592900Y25292500D02*
X18592900Y25828700D01*
X18592900Y25828700D02*
X18592900Y26353500D01*
X18592900Y26353500D02*
X18592900Y26886500D01*
X18592900Y26886500D02*
X18592900Y27414400D01*
X18592900Y35901900D02*
X18592900Y36424100D01*
X18592900Y36424100D02*
X18592900Y36962900D01*
X18592900Y34841000D02*
X18592900Y35384200D01*
X18592900Y35384200D02*
X18592900Y35901900D01*
X18592900Y33780000D02*
X18592900Y34325400D01*
X18592900Y34325400D02*
X18592900Y34841000D01*
X18592900Y32719100D02*
X18592900Y33249600D01*
X18592900Y33249600D02*
X18592900Y33780000D01*
X18592900Y30597200D02*
X18592900Y31122100D01*
X18592900Y31122100D02*
X18592900Y31658200D01*
X18592900Y28475400D02*
X18592900Y28997500D01*
X18592900Y28997500D02*
X18592900Y29536300D01*
%TO.N,$3N2831*%
D30*
X41084900Y35798700D02*
X41201800Y35915600D01*
X41201800Y35915600D02*
X41325800Y35915600D01*
X41325800Y35915600D02*
X41503600Y36093400D01*
X41503600Y36093400D02*
X44754800Y36093400D01*
%TO.N,SDC2_CMD*%
D22*
X45135800Y41122600D02*
X44881800Y41122600D01*
X44881800Y41122600D02*
X44627800Y40868600D01*
X44627800Y40868600D02*
X44627800Y39370000D01*
%TO.N,SDC1_D3*%
D31*
X42384900Y33198700D02*
X42639800Y32943800D01*
X42639800Y32943800D02*
X44907200Y32943800D01*
%TO.N,SDC1_D0*%
X41734900Y33848700D02*
X42055600Y33528000D01*
X42055600Y33528000D02*
X42697400Y33528000D01*
%TO.N,3V3*%
D24*
X41072700Y33198700D02*
X41084900Y33198700D01*
X40894000Y33020000D02*
X40906200Y33020000D01*
X40741600Y32867600D02*
X40894000Y33020000D01*
X40894000Y33020000D02*
X41072700Y33198700D01*
X40741600Y32867600D02*
X40411400Y32867600D01*
X40411400Y32867600D02*
X39784900Y33494100D01*
D36*
X40741600Y31490500D02*
X40741600Y32867600D01*
X40792400Y31541300D02*
X40741600Y31490500D01*
X40741600Y31490500D02*
X40462200Y31211100D01*
%TO.N,SDC1_D0*%
D31*
X43815000Y33375600D02*
X42849800Y33375600D01*
X42849800Y33375600D02*
X42697400Y33528000D01*
%TO.N,SDC2_D1*%
D22*
X44780200Y43180000D02*
X46507400Y41452800D01*
X46507400Y41452800D02*
X46507400Y38252400D01*
X46507400Y38252400D02*
X47447200Y37312600D01*
%TO.N,SDC2_D7*%
X44881800Y43535600D02*
X46888400Y41529000D01*
X46888400Y41529000D02*
X46888400Y38506400D01*
X46888400Y38506400D02*
X47193200Y38201600D01*
%TO.N,$3N2117*%
X49326800Y36779200D02*
X47294800Y38811200D01*
X47294800Y38811200D02*
X47294800Y41630600D01*
X47294800Y41630600D02*
X45059600Y43865800D01*
%TO.N,SDC2_D6*%
X49352200Y37185600D02*
X47701200Y38836600D01*
X47701200Y38836600D02*
X47701200Y41732200D01*
X47701200Y41732200D02*
X45237400Y44196000D01*
%TO.N,D1+*%
D31*
X8763000Y24765000D02*
X9296400Y25298400D01*
X9296400Y25298400D02*
X12630700Y25298400D01*
X8763000Y24765000D02*
X8496300Y24498300D01*
%TO.N,D1-*%
X8477400Y25213000D02*
X8779200Y25213000D01*
X8779200Y25213000D02*
X9118600Y25552400D01*
X9118600Y25552400D02*
X12700000Y25552400D01*
%TO.N,GND*%
D25*
X9906100Y11404600D02*
X9942600Y11441100D01*
%TO.N,PH0*%
X41402000Y27660600D02*
X41396600Y27660600D01*
X41396600Y27660600D02*
X41084900Y27348900D01*
%TO.N,HHPD*%
D22*
X39450600Y25080400D02*
X39450600Y25733200D01*
X39450600Y25733200D02*
X39135000Y26048900D01*
%TO.N,SDQ14*%
X34257700Y34165000D02*
X34571400Y33851300D01*
X34571400Y33851300D02*
X34586300Y33851300D01*
%TO.N,3V3*%
D25*
X54149500Y19459700D02*
X55092600Y18516600D01*
X55092600Y18516600D02*
X55092600Y18211800D01*
%TO.N,GND*%
X18592900Y28475400D02*
X18592900Y27414400D01*
X18592900Y29536300D02*
X18592900Y30597200D01*
X18592900Y32719100D02*
X18592900Y31658200D01*
%TO.N,D1+*%
D31*
X23984500Y21082000D02*
X21901700Y23164800D01*
%TO.N,D1-*%
X24079200Y21310600D02*
X21996400Y23393400D01*
X34246100Y21310600D02*
X24079200Y21310600D01*
X35560000Y25074100D02*
X35560000Y22624500D01*
X34246100Y21310600D02*
X35560000Y22624500D01*
%TO.N,D1+*%
X35814000Y24678200D02*
X35814000Y22555200D01*
X35814000Y22555200D02*
X34340800Y21082000D01*
X34340800Y21082000D02*
X23984500Y21082000D01*
%TO.N,GND*%
D24*
X33045400Y22199600D02*
X33045400Y23209300D01*
X33045400Y23209300D02*
X33934800Y24098700D01*
X32054800Y22199600D02*
X33045400Y22199600D01*
X30861000Y22199600D02*
X32054800Y22199600D01*
X29692600Y22225000D02*
X29718000Y22199600D01*
X29718000Y22199600D02*
X30861000Y22199600D01*
X28600400Y22225000D02*
X29692600Y22225000D01*
X27533600Y22225000D02*
X28600400Y22225000D01*
X26416000Y22225000D02*
X27533600Y22225000D01*
X25146000Y22199600D02*
X25171400Y22225000D01*
X25171400Y22225000D02*
X26416000Y22225000D01*
X24104600Y22250400D02*
X23825200Y22250400D01*
X23825200Y22250400D02*
X22910800Y23164800D01*
X24104600Y22250400D02*
X24155400Y22199600D01*
X24155400Y22199600D02*
X25146000Y22199600D01*
%TO.N,SDC2_D0*%
D22*
X43256200Y38506400D02*
X44297600Y39547800D01*
X41097200Y38506400D02*
X43256200Y38506400D01*
%TO.N,IRQ*%
D31*
X41734900Y37098900D02*
X42024800Y37388800D01*
X42024800Y37388800D02*
X42037000Y37388800D01*
%TO.N,GND*%
X45415200Y37033200D02*
X45349500Y37098900D01*
X45349500Y37098900D02*
X43034900Y37098900D01*
%TO.N,SDC2_RST*%
D22*
X45999400Y36499800D02*
X45262800Y36499800D01*
X45262800Y36499800D02*
X45008800Y36753800D01*
X45008800Y36753800D02*
X42040000Y36753800D01*
%TO.N,USB_ID*%
D31*
X45694600Y35915600D02*
X45415200Y35915600D01*
X45415200Y35915600D02*
X44882100Y36448700D01*
X44882100Y36448700D02*
X43034900Y36448700D01*
%TO.N,$4N12583*%
X28295600Y10236200D02*
X28321100Y10210700D01*
X28321100Y10210700D02*
X28321100Y9753500D01*
%TO.N,$1N28880*%
X11938000Y9169400D02*
X12526300Y9169400D01*
X12526300Y9169400D02*
X12660300Y9303400D01*
%TO.N,GND*%
D25*
X9942600Y11441100D02*
X9942600Y13519800D01*
%TO.N,RESET*%
D24*
X19735900Y8509100D02*
X19735900Y7456500D01*
X19735900Y7456500D02*
X19680000Y7400700D01*
X19735900Y8509100D02*
X19177000Y7950200D01*
X19177000Y7950200D02*
X19075400Y7950200D01*
X20650300Y8509100D02*
X22809300Y8509100D01*
X22809300Y8509100D02*
X24177900Y9877700D01*
%TO.N,WHXO*%
D22*
X52949300Y25003800D02*
X52949300Y25466500D01*
X55219600Y30073600D02*
X54813200Y30073600D01*
%TO.N,WHXI*%
X54610000Y26670000D02*
X53349400Y25409400D01*
%TO.N,WHXO*%
X52949300Y25466500D02*
X54356000Y26873200D01*
X54356000Y26873200D02*
X54356000Y29616400D01*
X54356000Y29616400D02*
X54813200Y30073600D01*
%TO.N,WHXI*%
X54864000Y29413200D02*
X55702200Y29413200D01*
X55702200Y29413200D02*
X56235600Y28879800D01*
X56235600Y28879800D02*
X56235600Y28803600D01*
X54610000Y29159200D02*
X54610000Y26670000D01*
X54610000Y29159200D02*
X54864000Y29413200D01*
X57302500Y28752800D02*
X56286400Y28752800D01*
X56286400Y28752800D02*
X56235600Y28803600D01*
%TO.N,WHXO*%
X57302500Y30099000D02*
X57302500Y30327500D01*
X57302500Y30327500D02*
X56743600Y30886400D01*
X56743600Y30886400D02*
X56032400Y30886400D01*
X56032400Y30886400D02*
X55219600Y30073600D01*
%TO.N,GND*%
X55219600Y28803600D02*
X55219600Y27635300D01*
X56235600Y30073600D02*
X56870600Y29438600D01*
X58826400Y29438600D02*
X58928000Y29540200D01*
X56870600Y29438600D02*
X58826400Y29438600D01*
%TO.N,SDC2_D0*%
D30*
X39784900Y35798700D02*
X39784900Y36071500D01*
X39784900Y36071500D02*
X40106600Y36393200D01*
X40106600Y36393200D02*
X40106600Y36626800D01*
%TO.N,GND*%
D22*
X40309800Y35458400D02*
X40132000Y35636200D01*
X40767000Y35458400D02*
X40309800Y35458400D01*
X40132000Y35941000D02*
X40132000Y35636200D01*
X41084900Y36448700D02*
X40919100Y36448700D01*
%TO.N,SDC2_D3*%
D30*
X40995600Y36144200D02*
X41198800Y36144200D01*
%TO.N,GND*%
D22*
X40919100Y36448700D02*
X40614600Y36144200D01*
X40614600Y36144200D02*
X40335200Y36144200D01*
X40335200Y36144200D02*
X40132000Y35941000D01*
%TO.N,HXOUT*%
X41734900Y29948800D02*
X42037500Y30251400D01*
X42037500Y30251400D02*
X43002200Y30251400D01*
X43002200Y30251400D02*
X43256200Y30505400D01*
%TO.N,HXIN*%
X42384900Y30598800D02*
X42529100Y30454600D01*
X42529100Y30454600D02*
X42875200Y30454600D01*
X42875200Y30454600D02*
X43154600Y30734000D01*
X47548800Y31241900D02*
X47548800Y31470600D01*
X47548800Y31470600D02*
X47091600Y31927800D01*
X47091600Y31927800D02*
X45821600Y31927800D01*
X45821600Y31927800D02*
X45491400Y31597600D01*
X45491400Y31597600D02*
X45491400Y31140400D01*
%TO.N,HXOUT*%
X46507400Y29870400D02*
X46507400Y28702100D01*
%TO.N,GND*%
X45491400Y29870400D02*
X45491400Y29230800D01*
X45491400Y29230800D02*
X45491400Y28702100D01*
%TO.N,HXOUT*%
X45872400Y30505400D02*
X46507400Y29870400D01*
X45872400Y30505400D02*
X43256200Y30505400D01*
%TO.N,HXIN*%
X43154600Y30734000D02*
X45085000Y30734000D01*
X45085000Y30734000D02*
X45491400Y31140400D01*
%TO.N,GND*%
X47548800Y30225900D02*
X46634300Y31140400D01*
X46634300Y31140400D02*
X46507400Y31140400D01*
%TO.N,SDC2_D3*%
D30*
X40741600Y35890200D02*
X40995600Y36144200D01*
D22*
X40434900Y35798700D02*
X40526400Y35890200D01*
D30*
X40526400Y35890200D02*
X40741600Y35890200D01*
%TO.N,SDC0_D3*%
X36534800Y36617200D02*
X36534800Y36448700D01*
X36347400Y37744400D02*
X36372800Y37719000D01*
X36372800Y37719000D02*
X36372800Y36779200D01*
X36372800Y36779200D02*
X36534800Y36617200D01*
%TO.N,SDC0_D2*%
X36220400Y36113100D02*
X36220400Y36519000D01*
%TO.N,SDC0_DET*%
X37184700Y36448700D02*
X37184700Y36678500D01*
X37184700Y36678500D02*
X36855400Y37007800D01*
X36855400Y37007800D02*
X36855400Y38201600D01*
%TO.N,SDC0_CMD*%
X36576000Y37998400D02*
X36601400Y37973000D01*
X36601400Y37973000D02*
X36601400Y36906200D01*
X36601400Y36906200D02*
X36880800Y36626800D01*
%TO.N,SDC2_D3*%
X41198800Y36144200D02*
X41427400Y36372800D01*
X41427400Y36372800D02*
X41427400Y37566600D01*
D22*
X41427400Y37566600D02*
X41757600Y37896800D01*
%TO.N,SDC2_D0*%
D30*
X40106600Y36626800D02*
X40513000Y37033200D01*
X40513000Y37033200D02*
X40513000Y37922200D01*
X40513000Y37922200D02*
X41097200Y38506400D01*
%TO.N,PH6*%
D22*
X41734900Y28648800D02*
X42062700Y28321000D01*
X42062700Y28321000D02*
X44069000Y28321000D01*
X44069000Y28321000D02*
X44704000Y27686000D01*
%TO.N,SDC2_D3*%
D30*
X52190300Y34664300D02*
X51943400Y34911200D01*
X49123600Y34569400D02*
X50520600Y34569400D01*
X50520600Y34569400D02*
X50862400Y34911200D01*
X50862400Y34911200D02*
X51943400Y34911200D01*
%TO.N,D1+*%
D31*
X6223000Y24810300D02*
X5911000Y24498300D01*
%TO.N,SDC0_D1*%
D22*
X6832600Y44094400D02*
X7040500Y43886500D01*
X7040500Y43886500D02*
X9834500Y43886500D01*
X9834500Y43886500D02*
X11760200Y41960800D01*
X11760200Y41960800D02*
X36753800Y41960800D01*
%TO.N,TV_OUT*%
D24*
X38608000Y5106300D02*
X40132900Y3581400D01*
X38608000Y5106300D02*
X38608000Y11049000D01*
%TO.N,$4N34203*%
X39662100Y5803900D02*
X41859200Y8001000D01*
X41859200Y8001000D02*
X41859200Y10312400D01*
X41859200Y10312400D02*
X39979600Y12192000D01*
%TO.N,$4N34315*%
X39662100Y9157600D02*
X40132900Y8686800D01*
%TO.N,GND*%
D31*
X13517100Y4622800D02*
X13517100Y7344900D01*
X13517100Y7344900D02*
X14376400Y8204200D01*
X14767300Y4622800D02*
X14767300Y7960100D01*
X14767300Y7960100D02*
X14986000Y8178800D01*
%TO.N,$1N53902*%
X61137800Y45540800D02*
X62575500Y45540800D01*
X62575500Y45540800D02*
X62602200Y45567500D01*
X62611000Y43992800D02*
X62611000Y44644400D01*
X62611000Y44644400D02*
X62602200Y44653100D01*
%TO.N,SDC0_D0*%
D22*
X7866000Y43137200D02*
X6491500Y43137200D01*
%TO.N,SDC0_D2*%
X11150600Y36626800D02*
X11150600Y36931600D01*
X11252200Y36525200D02*
X11150600Y36626800D01*
X11150600Y36931600D02*
X11049000Y37033200D01*
X11049000Y37033200D02*
X10744200Y37033200D01*
X10744200Y37033200D02*
X10642600Y36931600D01*
X10642600Y36931600D02*
X10642600Y36626800D01*
X10642600Y36626800D02*
X10541000Y36525200D01*
X10541000Y36525200D02*
X10236200Y36525200D01*
X10236200Y36525200D02*
X10134600Y36626800D01*
X10134600Y36626800D02*
X10134600Y36931600D01*
X10134600Y36931600D02*
X10033000Y37033200D01*
X10033000Y37033200D02*
X9728200Y37033200D01*
X9728200Y37033200D02*
X9626600Y36931600D01*
X9626600Y36931600D02*
X9626600Y36626800D01*
X9626600Y36626800D02*
X9525000Y36525200D01*
X9525000Y36525200D02*
X9220200Y36525200D01*
X9220200Y36525200D02*
X9118600Y36626800D01*
X9118600Y36626800D02*
X9118600Y36931600D01*
X9118600Y36931600D02*
X9017000Y37033200D01*
X9017000Y37033200D02*
X8712200Y37033200D01*
X8712200Y37033200D02*
X8610600Y36931600D01*
X8610600Y36931600D02*
X8610600Y36626800D01*
X8610600Y36626800D02*
X8509000Y36525200D01*
X8509000Y36525200D02*
X8204200Y36525200D01*
X8204200Y36525200D02*
X8102600Y36626800D01*
X8102600Y36626800D02*
X8102600Y36931600D01*
X8102600Y36931600D02*
X8001000Y37033200D01*
X8001000Y37033200D02*
X7696200Y37033200D01*
X7696200Y37033200D02*
X7594600Y36931600D01*
X7594600Y36931600D02*
X7594600Y36626800D01*
X7594600Y36626800D02*
X7493000Y36525200D01*
X7493000Y36525200D02*
X6764600Y36525200D01*
%TO.N,SDC0_D3*%
X11176000Y38150800D02*
X11176000Y37744400D01*
X11176000Y37744400D02*
X11277600Y37642800D01*
X11074400Y38252400D02*
X11176000Y38150800D01*
X10769600Y38252400D02*
X11074400Y38252400D01*
X10668000Y38150800D02*
X10769600Y38252400D01*
X10668000Y37744400D02*
X10668000Y38150800D01*
X10566400Y37642800D02*
X10668000Y37744400D01*
X10261600Y37642800D02*
X10566400Y37642800D01*
X10160000Y37744400D02*
X10261600Y37642800D01*
X10160000Y38150800D02*
X10160000Y37744400D01*
X10058400Y38252400D02*
X10160000Y38150800D01*
X9753600Y38252400D02*
X10058400Y38252400D01*
X9652000Y38150800D02*
X9753600Y38252400D01*
X9652000Y37744400D02*
X9652000Y38150800D01*
X9550400Y37642800D02*
X9652000Y37744400D01*
X9245600Y37642800D02*
X9550400Y37642800D01*
X9144000Y37744400D02*
X9245600Y37642800D01*
X9144000Y38150800D02*
X9144000Y37744400D01*
X9042400Y38252400D02*
X9144000Y38150800D01*
X8737600Y38252400D02*
X9042400Y38252400D01*
X8636000Y38150800D02*
X8737600Y38252400D01*
X8636000Y37744400D02*
X8636000Y38150800D01*
X8534400Y37642800D02*
X8636000Y37744400D01*
X8229600Y37642800D02*
X8534400Y37642800D01*
X8128000Y37744400D02*
X8229600Y37642800D01*
X8128000Y38150800D02*
X8128000Y37744400D01*
X8026400Y38252400D02*
X8128000Y38150800D01*
X7721600Y38252400D02*
X8026400Y38252400D01*
X7620000Y38150800D02*
X7721600Y38252400D01*
X7620000Y37642800D02*
X7620000Y38150800D01*
X6680500Y37642800D02*
X7620000Y37642800D01*
X6485200Y37447500D02*
X6680500Y37642800D01*
%TO.N,SDC0_CMD*%
X11176000Y38989000D02*
X11176000Y38684200D01*
X11074400Y39090600D02*
X11176000Y38989000D01*
X11176000Y38684200D02*
X11277600Y38582600D01*
X10769600Y39090600D02*
X11074400Y39090600D01*
X10668000Y38989000D02*
X10769600Y39090600D01*
X10668000Y38684200D02*
X10668000Y38989000D01*
X10566400Y38582600D02*
X10668000Y38684200D01*
X10261600Y38582600D02*
X10566400Y38582600D01*
X10160000Y38684200D02*
X10261600Y38582600D01*
X10160000Y38989000D02*
X10160000Y38684200D01*
X10058400Y39090600D02*
X10160000Y38989000D01*
X9753600Y39090600D02*
X10058400Y39090600D01*
X9652000Y38989000D02*
X9753600Y39090600D01*
X9652000Y38684200D02*
X9652000Y38989000D01*
X9550400Y38582600D02*
X9652000Y38684200D01*
X9245600Y38582600D02*
X9550400Y38582600D01*
X9144000Y38684200D02*
X9245600Y38582600D01*
X9144000Y38989000D02*
X9144000Y38684200D01*
X9042400Y39090600D02*
X9144000Y38989000D01*
X8737600Y39090600D02*
X9042400Y39090600D01*
X8636000Y38989000D02*
X8737600Y39090600D01*
X8636000Y38684200D02*
X8636000Y38989000D01*
X8534400Y38582600D02*
X8636000Y38684200D01*
X8229600Y38582600D02*
X8534400Y38582600D01*
X8128000Y38684200D02*
X8229600Y38582600D01*
X8128000Y38989000D02*
X8128000Y38684200D01*
X8026400Y39090600D02*
X8128000Y38989000D01*
X7721600Y39090600D02*
X8026400Y39090600D01*
X7620000Y38989000D02*
X7721600Y39090600D01*
X7620000Y38684200D02*
X7620000Y38989000D01*
X7518400Y38582600D02*
X7620000Y38684200D01*
%TO.N,SDC0_D2*%
X12623800Y39878000D02*
X12471400Y39725600D01*
X12471400Y39725600D02*
X12471400Y36763100D01*
X12471400Y36763100D02*
X12233500Y36525200D01*
X12233500Y36525200D02*
X11252200Y36525200D01*
%TO.N,SDC0_D3*%
X12141200Y37973000D02*
X12141200Y40106600D01*
X12242800Y40208200D02*
X34798000Y40208200D01*
X12141200Y40106600D02*
X12242800Y40208200D01*
X12141200Y37973000D02*
X11811000Y37642800D01*
X11811000Y37642800D02*
X11277600Y37642800D01*
%TO.N,SDC0_CMD*%
X11887200Y40182800D02*
X12268200Y40563800D01*
X12268200Y40563800D02*
X34950400Y40563800D01*
X11887200Y40182800D02*
X11887200Y38836600D01*
X11887200Y38836600D02*
X11633200Y38582600D01*
X11633200Y38582600D02*
X11277600Y38582600D01*
%TO.N,SDC0_D0*%
X6491500Y43137200D02*
X6346600Y42992300D01*
%TO.N,SDC0_CLK*%
X7370900Y40723900D02*
X7480000Y40614800D01*
X7480000Y40266700D02*
X7480000Y40614800D01*
X7581600Y40165100D02*
X7480000Y40266700D01*
X7886400Y40165100D02*
X7581600Y40165100D01*
X7988000Y40266700D02*
X7886400Y40165100D01*
X7988000Y41166100D02*
X7988000Y40266700D01*
X8089600Y41267700D02*
X7988000Y41166100D01*
X8394400Y41267700D02*
X8089600Y41267700D01*
X8496000Y41166100D02*
X8394400Y41267700D01*
X8496000Y40266700D02*
X8496000Y41166100D01*
X8597600Y40165100D02*
X8496000Y40266700D01*
X8902400Y40165100D02*
X8597600Y40165100D01*
X9004000Y40266700D02*
X8902400Y40165100D01*
X9004000Y41166100D02*
X9004000Y40266700D01*
X9105600Y41267700D02*
X9004000Y41166100D01*
X9410400Y41267700D02*
X9105600Y41267700D01*
X9512000Y41166100D02*
X9410400Y41267700D01*
X9512000Y40266700D02*
X9512000Y41166100D01*
X9613600Y40165100D02*
X9512000Y40266700D01*
X9918400Y40165100D02*
X9613600Y40165100D01*
X10020000Y40266700D02*
X9918400Y40165100D01*
X10020000Y41166100D02*
X10020000Y40266700D01*
X10121600Y41267700D02*
X10020000Y41166100D01*
X10426400Y41267700D02*
X10121600Y41267700D01*
X10528000Y41166100D02*
X10426400Y41267700D01*
X10528000Y40266700D02*
X10528000Y41166100D01*
X10629600Y40165100D02*
X10528000Y40266700D01*
X10934400Y40165100D02*
X10629600Y40165100D01*
X11036000Y40266700D02*
X10934400Y40165100D01*
%TO.N,HDMI_2N*%
D31*
X50850800Y7187000D02*
X50869400Y7168400D01*
%TO.N,HDMI_2P*%
X53611600Y8026400D02*
X51796300Y8026400D01*
X51796300Y8026400D02*
X51669300Y7899400D01*
X51669300Y7899400D02*
X51669300Y7168400D01*
%TO.N,HDMI_2N*%
X53492400Y8255000D02*
X50977800Y8255000D01*
X50977800Y8255000D02*
X50850800Y8128000D01*
X50850800Y8128000D02*
X50850800Y7187000D01*
%TO.N,HDMI_1P*%
X50469400Y7168400D02*
X50444400Y7193400D01*
%TO.N,HDMI_1N*%
X49657000Y7180700D02*
X49669300Y7168400D01*
%TO.N,HDSDA*%
D21*
X44145200Y6146800D02*
X43891200Y6400800D01*
X43891200Y6400800D02*
X43891200Y14071700D01*
X45491400Y6146800D02*
X44145200Y6146800D01*
%TO.N,SDC0_CLK*%
D22*
X11036000Y41008000D02*
X11303000Y41275000D01*
X11036000Y41008000D02*
X11036000Y40266700D01*
X11303000Y41275000D02*
X35864800Y41275000D01*
X7370900Y40723900D02*
X6516600Y40723900D01*
X6516600Y40723900D02*
X6448200Y40792400D01*
X5638800Y40513000D02*
X6168800Y40513000D01*
X6168800Y40513000D02*
X6448200Y40792400D01*
%TO.N,HDMI_CP*%
D31*
X48056800Y7180900D02*
X48069300Y7168400D01*
%TO.N,HDHPD*%
D22*
X44500800Y7199800D02*
X44500800Y10160000D01*
X44500800Y10160000D02*
X45135800Y10795000D01*
X44500800Y7199800D02*
X44469400Y7168400D01*
%TO.N,H5V*%
D24*
X45351700Y11595100D02*
X45796200Y11150600D01*
%TO.N,HDSDA*%
D21*
X46532900Y11429900D02*
X46228000Y11125100D01*
X46228000Y11125100D02*
X46228000Y9071700D01*
X46228000Y9071700D02*
X45669200Y8512900D01*
X45669200Y6324600D02*
X45491400Y6146800D01*
X45669200Y8512900D02*
X45669200Y7168400D01*
X45669200Y7168400D02*
X45669200Y6324600D01*
%TO.N,HDMI_1N*%
D31*
X52771000Y11600200D02*
X52771000Y11054300D01*
X52771000Y11054300D02*
X53035200Y10790100D01*
%TO.N,HDMI_1P*%
X53271400Y11600200D02*
X53263800Y11592600D01*
X53263800Y11592600D02*
X53263800Y9074700D01*
%TO.N,HDMI_2P*%
X54772600Y11600200D02*
X54635400Y11463000D01*
%TO.N,HDMI_2N*%
X54272200Y11600200D02*
X54406800Y11465500D01*
X54406800Y11465500D02*
X54406800Y9169400D01*
X54406800Y9169400D02*
X53492400Y8255000D01*
%TO.N,HDMI_2P*%
X54635400Y9050200D02*
X53611600Y8026400D01*
X54635400Y11463000D02*
X54635400Y9050200D01*
%TO.N,HDSCL*%
X46069300Y7168400D02*
X46069300Y8528100D01*
X46069300Y8528100D02*
X48020200Y10479000D01*
X48020200Y10479000D02*
X48020200Y10831600D01*
%TO.N,HDCEC*%
X48767900Y11430100D02*
X48995700Y11202300D01*
X48995700Y11202300D02*
X48995700Y11022700D01*
X48995700Y11022700D02*
X46869400Y8896400D01*
X46869400Y8896400D02*
X46869400Y7168400D01*
%TO.N,HDMI_CN*%
X49789100Y11028700D02*
X49789100Y11607800D01*
%TO.N,HDMI_CP*%
X50289500Y11607800D02*
X50289500Y10972800D01*
X50289500Y10972800D02*
X50162500Y10845800D01*
X50162500Y10845800D02*
X49982900Y10845800D01*
%TO.N,HDMI_0P*%
X51790600Y11428200D02*
X51612800Y11250400D01*
X51790600Y11607800D02*
X51790600Y11428200D01*
X51257900Y9652000D02*
X50266600Y9652000D01*
X51612800Y10006900D02*
X51257900Y9652000D01*
X51612800Y11250400D02*
X51612800Y10006900D01*
%TO.N,HDMI_1N*%
X53035200Y10790100D02*
X53035200Y9194800D01*
X53035200Y9194800D02*
X52908200Y9067800D01*
%TO.N,HDMI_1P*%
X53263800Y9074700D02*
X53028300Y8839200D01*
%TO.N,GND*%
X51269200Y7168400D02*
X51269200Y6311200D01*
X51269200Y6311200D02*
X50927000Y5969000D01*
X47879000Y5969000D02*
X47650400Y6197600D01*
X47650400Y6197600D02*
X47650400Y7149500D01*
X47650400Y7149500D02*
X47669300Y7168400D01*
X48869400Y7168400D02*
X48869400Y5978500D01*
X48869400Y5978500D02*
X48859900Y5969000D01*
X48859900Y5969000D02*
X47879000Y5969000D01*
X50069300Y7168400D02*
X50069300Y5977300D01*
X50069300Y5977300D02*
X50061000Y5969000D01*
X50927000Y5969000D02*
X50061000Y5969000D01*
X50061000Y5969000D02*
X48859900Y5969000D01*
%TO.N,SDQ0*%
X45269200Y7168400D02*
X45269200Y8820200D01*
X45269200Y8820200D02*
X45567600Y9118600D01*
%TO.N,H5V*%
D24*
X45796200Y11150600D02*
X45796200Y10388600D01*
X45796200Y10388600D02*
X44869400Y9461800D01*
X44869400Y9461800D02*
X44869400Y7168400D01*
%TO.N,D1+*%
D31*
X8496300Y24498300D02*
X5911000Y24498300D01*
%TO.N,D1-*%
X6500800Y25782600D02*
X8477400Y25782600D01*
X6500800Y25782600D02*
X6223000Y26060500D01*
%TO.N,$3N3551*%
D21*
X8104800Y33902300D02*
X12434200Y33902300D01*
X12434200Y33902300D02*
X12600600Y33736000D01*
%TO.N,PS*%
D37*
X5969000Y23560100D02*
X4913300Y23560100D01*
X3759200Y24714200D02*
X2209800Y24714200D01*
X2209800Y24714200D02*
X2006600Y24917400D01*
X2006600Y24917400D02*
X2006600Y27127200D01*
X4913300Y23560100D02*
X3759200Y24714200D01*
%TO.N,HDMI_CP*%
D31*
X47823900Y8686800D02*
X47802800Y8686800D01*
X47802800Y8686800D02*
X47802800Y8178800D01*
X48069300Y7912300D02*
X48069300Y7168400D01*
X47823900Y8686800D02*
X49982900Y10845800D01*
X47802800Y8178800D02*
X48069300Y7912300D01*
%TO.N,HDMI_CN*%
X47548800Y8788400D02*
X47548800Y8204200D01*
X47548800Y8204200D02*
X47294800Y7950200D01*
X47294800Y7950200D02*
X47294800Y7194000D01*
X47294800Y7194000D02*
X47269200Y7168400D01*
X47548800Y8788400D02*
X49789100Y11028700D01*
%TO.N,HDMI_0N*%
X51290200Y11607800D02*
X51290200Y11334600D01*
X51290200Y11334600D02*
X51384200Y11240600D01*
X51384200Y11240600D02*
X51384200Y10101600D01*
X51384200Y10101600D02*
X51163200Y9880600D01*
X51163200Y9880600D02*
X50114200Y9880600D01*
X48469400Y7931000D02*
X48469400Y7168400D01*
%TO.N,HDMI_0P*%
X49269200Y7804600D02*
X49269200Y7168400D01*
X50266600Y9652000D02*
X48945800Y8331200D01*
X48945800Y8331200D02*
X48945800Y8128000D01*
X48945800Y8128000D02*
X49269200Y7804600D01*
%TO.N,HDMI_0N*%
X50114200Y9880600D02*
X48717200Y8483600D01*
X48717200Y8483600D02*
X48717200Y8178800D01*
X48717200Y8178800D02*
X48469400Y7931000D01*
%TO.N,HDMI_1P*%
X50393600Y8839200D02*
X50241200Y8686800D01*
X53028300Y8839200D02*
X50393600Y8839200D01*
%TO.N,HDMI_1N*%
X50298900Y9067800D02*
X50012600Y8781500D01*
X52908200Y9067800D02*
X50298900Y9067800D01*
X49657000Y7797800D02*
X49657000Y7180700D01*
X50012600Y8153400D02*
X49657000Y7797800D01*
X50012600Y8781500D02*
X50012600Y8153400D01*
%TO.N,HDMI_1P*%
X50241200Y8686800D02*
X50241200Y8135500D01*
X50241200Y8135500D02*
X50469400Y7907300D01*
X50469400Y7907300D02*
X50469400Y7168400D01*
%TO.N,SDC0_CMD*%
D22*
X6531000Y38582600D02*
X7518400Y38582600D01*
%TO.N,SDC0_D2*%
X6764600Y36525200D02*
X6485300Y36245900D01*
%TO.N,GND*%
D25*
X32634800Y29298800D02*
X31984900Y29948800D01*
%TO.N,3V3*%
X46888500Y25654100D02*
X46888500Y20294700D01*
%TO.N,H5V*%
D24*
X45432900Y12344300D02*
X47650500Y12344300D01*
%TO.N,TV_OUT*%
X35824200Y14036000D02*
X35052000Y14808200D01*
%TO.N,GND*%
D25*
X31013300Y29006700D02*
X31013300Y27025700D01*
%TO.N,PS*%
D38*
X29577600Y9575800D02*
X29577600Y11184300D01*
X29577600Y11184300D02*
X29560500Y11201400D01*
%TO.N,$3N5562*%
D25*
X55346600Y25679400D02*
X55448200Y25806100D01*
X55448200Y25806100D02*
X55549800Y25930100D01*
X55549800Y25930100D02*
X55651400Y26051600D01*
X55651400Y26051600D02*
X55753000Y26170400D01*
X55753000Y26170400D02*
X55854600Y26286600D01*
X55854600Y26286600D02*
X55956200Y26400100D01*
X55956200Y26400100D02*
X56057800Y26511000D01*
X56057800Y26511000D02*
X56159400Y26619300D01*
%TO.N,$3N5546*%
D39*
X57404000Y25552300D02*
X57531000Y25552600D01*
X57531000Y25552600D02*
X57658000Y25552800D01*
X57658000Y25552800D02*
X57785000Y25553100D01*
X57785000Y25553100D02*
X57912000Y25553300D01*
X57912000Y25553300D02*
X58039000Y25553600D01*
X58039000Y25553600D02*
X58166000Y25553800D01*
X58166000Y25553800D02*
X58293000Y25554100D01*
X58293000Y25554100D02*
X58420000Y25554300D01*
%TO.N,$3N5547*%
X59334500Y25552500D02*
X59458300Y25552700D01*
X59458300Y25552700D02*
X59582100Y25553000D01*
X59582100Y25553000D02*
X59705900Y25553300D01*
X59705900Y25553300D02*
X59829700Y25553500D01*
X59829700Y25553500D02*
X59953500Y25553700D01*
X59953500Y25553700D02*
X60077400Y25554000D01*
X60077400Y25554000D02*
X60201200Y25554200D01*
X60201200Y25554200D02*
X60325000Y25554400D01*
X62541800Y26695400D02*
X62264700Y26548600D01*
X62264700Y26548600D02*
X61987600Y26402900D01*
X61987600Y26402900D02*
X61710500Y26258400D01*
X61710500Y26258400D02*
X61433400Y26115000D01*
X61433400Y26115000D02*
X61156300Y25972700D01*
X61156300Y25972700D02*
X60879200Y25831500D01*
X60879200Y25831500D02*
X60602100Y25691400D01*
X60602100Y25691400D02*
X60325000Y25552500D01*
%TO.N,$3N5546*%
X57404000Y25552300D02*
X57273800Y25494600D01*
X57273800Y25494600D02*
X57143700Y25435200D01*
X57143700Y25435200D02*
X57013500Y25374200D01*
X57013500Y25374200D02*
X56883300Y25311500D01*
X56883300Y25311500D02*
X56753100Y25247200D01*
X56753100Y25247200D02*
X56622900Y25181300D01*
X56622900Y25181300D02*
X56492800Y25113700D01*
X56492800Y25113700D02*
X56362600Y25044400D01*
X56362600Y25044400D02*
X56289600Y24972700D01*
X56289600Y24972700D02*
X56216600Y24901500D01*
X56216600Y24901500D02*
X56143500Y24830900D01*
X56143500Y24830900D02*
X56070500Y24760800D01*
X56070500Y24760800D02*
X55997500Y24691200D01*
X55997500Y24691200D02*
X55924500Y24622100D01*
X55924500Y24622100D02*
X55851400Y24553600D01*
X55851400Y24553600D02*
X55778400Y24485600D01*
D25*
X54848800Y24304500D02*
X54965000Y24329600D01*
X54965000Y24329600D02*
X55081200Y24354000D01*
X55081200Y24354000D02*
X55197400Y24377700D01*
X55197400Y24377700D02*
X55313600Y24400600D01*
X55313600Y24400600D02*
X55429800Y24422900D01*
X55429800Y24422900D02*
X55546000Y24444500D01*
X55546000Y24444500D02*
X55662200Y24465400D01*
X55662200Y24465400D02*
X55778400Y24485600D01*
%TD*%
M02*
