M48
; DRILL file KiCad 10.99.0-unknown date 2026-08-12T15:28:45
; FORMAT={-:-/ absolute / metric / decimal}
; #@! TF.CreationDate,2026-08-12T15:28:45+08:00
; #@! TF.GenerationSoftware,Kicad,Pcbnew,10.99.0-unknown
; #@! TF.FileFunction,MixedPlating,1,4
FMAT,2
METRIC
; #@! TA.AperFunction,Plated,PTH,ViaDrill
T1C0.305
; #@! TA.AperFunction,Plated,PTH,ViaDrill
T2C0.305
%
G90
G05
T1
X1.803Y-5.74
X1.803Y-10.82
X1.803Y-15.9
X1.803Y-20.98
X1.803Y-26.06
X1.803Y-31.14
X1.803Y-46.38
X1.803Y-61.62
X1.803Y-66.7
X1.803Y-71.78
X1.803Y-117.5
X1.803Y-122.58
X5.791Y-48.565
X6.883Y-5.74
X6.883Y-15.9
X6.883Y-20.98
X6.883Y-31.14
X6.883Y-46.38
X6.883Y-56.54
X6.883Y-61.62
X6.883Y-71.78
X6.883Y-81.94
X6.883Y-97.18
X6.883Y-102.26
X6.883Y-107.34
X6.883Y-122.58
X7.188Y-84.43
X10.871Y-48.565
X11.963Y-5.74
X11.963Y-10.82
X11.963Y-15.9
X11.963Y-20.98
X11.963Y-26.06
X11.963Y-36.22
X11.963Y-41.3
X11.963Y-56.54
X11.963Y-61.62
X11.963Y-66.7
X11.963Y-71.78
X11.963Y-81.94
X11.963Y-97.18
X11.963Y-107.34
X11.963Y-122.58
X14.707Y-11.151
X16.18Y-43.536
X17.043Y-15.9
X17.043Y-20.98
X17.043Y-26.06
X17.043Y-31.14
X17.043Y-36.22
X17.043Y-66.7
X17.043Y-71.78
X17.043Y-81.94
X17.043Y-97.18
X17.043Y-107.34
X17.043Y-122.58
X17.12Y-86.335
X22.123Y-20.98
X22.123Y-31.14
X22.123Y-36.22
X22.123Y-61.62
X22.123Y-66.7
X22.123Y-71.78
X22.123Y-81.94
X22.123Y-97.18
X22.123Y-107.34
X22.123Y-122.58
X22.454Y-84.379
X22.987Y-11.405
X25.781Y-85.065
X27.203Y-20.98
X27.203Y-31.14
X27.203Y-36.22
X27.203Y-56.54
X27.203Y-71.78
X27.203Y-81.94
X27.203Y-97.18
X27.203Y-107.34
X27.203Y-122.58
X32.283Y-20.98
X32.283Y-26.06
X32.283Y-36.22
X32.283Y-71.78
X32.283Y-81.94
X32.283Y-97.18
X32.283Y-102.26
X32.283Y-122.58
X33.884Y-85.827
X37.363Y-26.06
X37.363Y-97.18
X37.363Y-102.26
X37.363Y-122.58
X47.523Y-61.62
X47.523Y-66.7
X47.523Y-71.78
X47.523Y-102.26
X49.708Y-115.621
X52.603Y-20.98
X52.603Y-36.22
X52.603Y-41.3
X52.603Y-46.38
X52.603Y-61.62
X52.603Y-66.7
X52.603Y-71.78
X53.67Y-111.049
X57.683Y-10.82
X57.683Y-20.98
X57.683Y-36.22
X57.683Y-66.7
X62.763Y-5.74
X62.763Y-10.82
X62.763Y-20.98
X62.763Y-36.22
X62.763Y-41.3
X62.763Y-46.38
X62.763Y-66.7
X62.763Y-71.78
X62.763Y-117.5
X67.259Y-93.955
X67.843Y-15.9
X67.843Y-20.98
X67.843Y-36.22
X67.843Y-41.3
X67.843Y-61.62
X67.843Y-66.7
X67.843Y-71.78
X67.843Y-76.86
X67.843Y-117.5
X72.923Y-15.9
X72.923Y-20.98
X72.923Y-36.22
X72.923Y-51.46
X78.003Y-10.82
X78.003Y-15.9
X78.003Y-122.58
X82.956Y-20.98
X83.083Y-10.82
X83.083Y-15.9
X83.083Y-122.58
X88.163Y-10.82
X88.163Y-15.9
X88.163Y-46.38
X88.163Y-102.26
X88.163Y-107.34
X88.163Y-112.42
X88.163Y-117.5
X90.881Y-21.031
X93.243Y-10.82
X93.243Y-15.9
X95.885Y-14.808
X98.323Y-10.82
X98.323Y-15.9
X100.635Y-20.904
X102.54Y-13.335
X103.403Y-26.06
X103.403Y-36.22
X103.403Y-46.38
X108.483Y-26.06
X108.483Y-36.22
X108.483Y-66.7
X109.271Y-13.157
X110.49Y-15.062
X113.563Y-15.9
X113.563Y-20.98
X113.563Y-46.38
X113.563Y-51.46
X113.563Y-61.62
X113.919Y-12.979
X118.643Y-5.74
X118.643Y-10.82
X118.643Y-15.9
X118.643Y-20.98
X118.643Y-46.38
X118.643Y-61.62
X118.643Y-66.7
X118.643Y-71.78
X123.723Y-5.74
X123.723Y-10.82
X123.723Y-15.9
X123.723Y-20.98
X123.723Y-71.78
X123.723Y-76.86
X123.723Y-81.94
X123.723Y-87.02
X123.723Y-92.1
X123.723Y-97.18
X123.723Y-102.26
X128.803Y-5.74
X128.803Y-10.82
X128.803Y-15.9
X128.803Y-20.98
X128.803Y-26.06
X128.803Y-56.54
X128.803Y-66.7
X128.803Y-71.78
X128.803Y-92.1
X128.803Y-97.18
X128.803Y-102.26
X128.803Y-107.34
X128.803Y-112.42
X128.803Y-122.58
X133.883Y-5.74
X133.883Y-10.82
X133.883Y-15.9
X133.883Y-20.98
X133.883Y-26.06
X133.883Y-97.18
X133.883Y-102.26
X138.963Y-5.74
X138.963Y-10.82
X138.963Y-15.9
X138.963Y-20.98
X138.963Y-26.06
X138.963Y-56.54
X138.963Y-87.02
X138.963Y-97.18
X138.963Y-112.42
X138.963Y-122.58
X144.043Y-10.82
X144.043Y-15.9
X144.043Y-20.98
X144.043Y-26.06
X144.043Y-46.38
X144.043Y-66.7
X144.043Y-76.86
X144.043Y-87.02
X144.043Y-107.34
X144.043Y-112.42
X144.043Y-122.58
X149.123Y-66.7
X149.123Y-71.78
X149.123Y-97.18
X149.123Y-122.58
X154.203Y-66.7
X154.203Y-97.18
X154.203Y-122.58
X159.283Y-10.82
X159.283Y-15.9
X159.283Y-20.98
X159.283Y-26.06
X159.283Y-36.22
X159.283Y-92.1
X159.283Y-122.58
X164.363Y-5.74
X164.363Y-10.82
X164.363Y-15.9
X164.363Y-20.98
X164.363Y-26.06
X164.363Y-31.14
X164.363Y-36.22
X164.363Y-56.54
X164.363Y-61.62
X164.363Y-66.7
X164.363Y-71.78
X164.363Y-87.02
X164.363Y-97.18
X164.363Y-107.34
X164.363Y-122.58
X169.443Y-10.82
X169.443Y-15.9
X169.443Y-26.06
X169.443Y-41.3
X169.443Y-76.86
X169.443Y-81.94
X169.443Y-87.02
X169.443Y-92.1
X169.443Y-107.34
X169.443Y-122.58
X174.523Y-5.74
X174.523Y-26.06
X174.523Y-31.14
X174.523Y-41.3
X174.523Y-46.38
X174.523Y-56.54
X174.523Y-61.62
X174.523Y-66.7
X174.523Y-71.78
X174.523Y-76.86
X174.523Y-81.94
X174.523Y-87.02
X174.523Y-92.1
X174.523Y-117.5
T2
X4.009Y-37.412
X4.009Y-40.096
X11.633Y-64.821
X13.919Y-92.075
X14.173Y-38.278
X14.173Y-38.913
X14.173Y-39.548
X14.173Y-40.183
X15.109Y-57.786
X15.564Y-54.803
X15.747Y-57.786
X16.388Y-57.786
X16.612Y-63.068
X19.558Y-87.63
X19.558Y-99.06
X19.583Y-76.2
X19.609Y-110.49
X20.549Y-45.949
X21.234Y-52.239
X21.234Y-52.883
X21.234Y-53.543
X24.689Y-39.421
X25.349Y-112.446
X29.718Y-42.316
X30.328Y-33.604
X30.709Y-35.712
X30.963Y-99.085
X30.988Y-76.2
X30.988Y-87.655
X31.064Y-110.49
X31.255Y-57.786
X31.373Y-40.935
X31.521Y-34.874
X31.928Y-57.785
X32.614Y-57.786
X32.995Y-42.316
X35.585Y-26.148
X36.576Y-24.867
X37.541Y-27.418
X38.481Y-77.546
X38.481Y-85.821
X38.481Y-97.185
X38.481Y-108.86
X39.395Y-34.976
X42.393Y-87.63
X47.142Y-23.647
X47.981Y-24.892
X47.981Y-108.077
X48.793Y-26.187
X49.301Y-94.158
X50.902Y-92.862
X51.232Y-90.83
X51.765Y-86.817
X51.765Y-88.248
X52.908Y-31.267
X54.508Y-91.313
X55.448Y-90.297
X56.464Y-89.891
X57.074Y-59.792
X57.76Y-30.023
X57.861Y-25.375
X58.344Y-59.08
X58.547Y-23.647
X59.614Y-58.369
X59.715Y-31.267
X60.503Y-23.622
X60.884Y-57.658
X61.341Y-30.226
X61.62Y-27.178
X61.798Y-24.917
X62.509Y-58.039
X63.424Y-59.055
X63.424Y-89.734
X63.5Y-88.909
X64.033Y-87.499
X64.694Y-59.69
X64.719Y-28.753
X64.821Y-27.457
X64.89Y-8.797
X65.405Y-23.647
X65.532Y-7.874
X65.532Y-83.363
X65.532Y-84.176
X65.532Y-84.963
X65.786Y-9.296
X66.253Y-31.267
X66.345Y-60.02
X66.751Y-7.382
X66.98Y-107.925
X67.208Y-95.148
X67.386Y-81.077
X67.767Y-100.682
X68.377Y-80.289
X68.529Y-103.607
X68.529Y-106.944
X68.555Y-99.996
X68.682Y-95.123
X69.291Y-81.051
X69.774Y-28.727
X69.952Y-95.91
X70.18Y-92.608
X70.485Y-53.442
X70.587Y-8.153
X70.942Y-92.583
X71.45Y-52.095
X71.755Y-92.608
X72.034Y-53.696
X72.238Y-33.807
X72.542Y-91.288
X72.619Y-69.215
X73.101Y-7.382
X73.228Y-53.619
X73.355Y-92.579
X73.368Y-90.033
X73.508Y-68.504
X73.711Y-54.458
X74.167Y-90.039
X74.498Y-36.881
X74.498Y-80.264
X75.438Y-36.881
X75.438Y-81.026
X76.378Y-63.221
X77.645Y-67.742
X77.648Y-27.203
X77.648Y-63.221
X77.648Y-87.169
X78.257Y-5.994
X78.613Y-66.98
X78.613Y-72.361
X78.918Y-28.245
X78.918Y-64.262
X79.116Y-23.724
X79.273Y-65.71
X79.273Y-72.97
X79.959Y-73.555
X80.188Y-29.235
X80.645Y-74.164
X81.305Y-74.799
X81.432Y-30.15
X81.864Y-5.893
X82.171Y-23.724
X82.72Y-31.547
X83.99Y-43.434
X84.303Y-22.962
X85.26Y-44.298
X85.916Y-5.893
X86.589Y-65.202
X86.589Y-66.282
X86.589Y-67.177
X86.614Y-63.957
X86.868Y-93.824
X89.383Y-32.969
X90.246Y-6.02
X90.246Y-52.07
X91.719Y-3.429
X91.948Y-27.203
X92.862Y-40.513
X93.37Y-54.889
X93.37Y-54.889
X94.403Y-54.051
X94.463Y-28.245
X94.488Y-22.809
X94.59Y-46.761
X95.504Y-54.737
X95.931Y-39.548
X97.028Y-29.235
X98.958Y-41.554
X98.984Y-34.193
X98.984Y-40.513
X99.492Y-70.383
X101.798Y-29.312
X102.032Y-42.494
X102.057Y-40.513
X105.105Y-32.969
X108.128Y-37.49
X109.931Y-29.312
X110.16Y-52.07
X111.201Y-38.456
X114.554Y-40.513
X114.579Y-30.124
X117.119Y-41.58
X119.659Y-32.944
X119.659Y-38.456
X122.174Y-39.548
X122.199Y-31.547
X123.495Y-43.434
X124.816Y-44.298
X127.254Y-34.188
X128.245Y-108.915
X128.321Y-81.356
X128.321Y-82.304
X128.321Y-83.254
X128.321Y-84.292
X129.565Y-110.185
X132.055Y-115.265
X132.431Y-29.312
X133.248Y-106.782
X133.248Y-107.442
X133.248Y-108.102
X133.274Y-114.021
X137.262Y-84.328
X139.347Y-29.312
X142.519Y-38.481
X143.383Y-43.434
X143.916Y-60.249
X144.424Y-114.148
X145.212Y-37.49
X147.777Y-60.071
X149.022Y-27.203
X149.022Y-34.188
X149.454Y-39.573
X149.962Y-91.77
X150.266Y-55.499
X150.47Y-114.148
X150.927Y-108.814
X151.562Y-23.724
X152.197Y-87.788
X153.594Y-80.543
X154.102Y-28.423
X154.102Y-35.839
X154.102Y-81.407
X154.305Y-85.75
X154.407Y-58.623
X154.661Y-79.883
X154.661Y-112.598
X154.788Y-113.919
X154.838Y-107.315
X155.321Y-86.284
X155.423Y-32.944
X155.677Y-79.578
X155.778Y-107.315
X156.21Y-55.931
X156.388Y-85.954
X156.642Y-39.573
X156.667Y-111.379
X156.896Y-79.654
X157.937Y-38.532
X159.156Y-31.547
X160.408Y-76.956
X160.408Y-76.956
X160.884Y-111.836
X161.519Y-112.624
X161.722Y-22.809
X161.747Y-21.92
X162.255Y-48.59
X165.633Y-51.125
X167.208Y-112.878
X168.351Y-97.104
X171.882Y-21.438
M30
