%TF.GenerationSoftware,KiCad,Pcbnew,10.99.0-unknown*%
%TF.CreationDate,2026-08-11T12:26:42+08:00*%
%TF.ProjectId,pic_programmer,7069635f-7072-46f6-9772-616d6d65722e,rev?*%
%TF.SameCoordinates,Original*%
%TF.FileFunction,AssemblyDrawing,Bot*%
%FSLAX46Y46*%
G04 Gerber Fmt 4.6, Leading zero omitted, Abs format (unit mm)*
G04 Created by KiCad (PCBNEW 10.99.0-unknown) date 2026-08-11 12:26:42*
%MOMM*%
%LPD*%
G01*
G04 APERTURE LIST*
%ADD10C,0.150000*%
G04 APERTURE END LIST*
D10*
X150486761Y-95344819D02*
X150486761Y-96059104D01*
X150486761Y-96059104D02*
X150534380Y-96201961D01*
X150534380Y-96201961D02*
X150629618Y-96297200D01*
X150629618Y-96297200D02*
X150772475Y-96344819D01*
X150772475Y-96344819D02*
X150867713Y-96344819D01*
X150010570Y-95344819D02*
X150010570Y-96154342D01*
X150010570Y-96154342D02*
X149962951Y-96249580D01*
X149962951Y-96249580D02*
X149915332Y-96297200D01*
X149915332Y-96297200D02*
X149820094Y-96344819D01*
X149820094Y-96344819D02*
X149629618Y-96344819D01*
X149629618Y-96344819D02*
X149534380Y-96297200D01*
X149534380Y-96297200D02*
X149486761Y-96249580D01*
X149486761Y-96249580D02*
X149439142Y-96154342D01*
X149439142Y-96154342D02*
X149439142Y-95344819D01*
X148962951Y-96344819D02*
X148962951Y-95344819D01*
X148962951Y-95344819D02*
X148629618Y-96059104D01*
X148629618Y-96059104D02*
X148296285Y-95344819D01*
X148296285Y-95344819D02*
X148296285Y-96344819D01*
X147820094Y-96344819D02*
X147820094Y-95344819D01*
X147820094Y-95344819D02*
X147439142Y-95344819D01*
X147439142Y-95344819D02*
X147343904Y-95392438D01*
X147343904Y-95392438D02*
X147296285Y-95440057D01*
X147296285Y-95440057D02*
X147248666Y-95535295D01*
X147248666Y-95535295D02*
X147248666Y-95678152D01*
X147248666Y-95678152D02*
X147296285Y-95773390D01*
X147296285Y-95773390D02*
X147343904Y-95821009D01*
X147343904Y-95821009D02*
X147439142Y-95868628D01*
X147439142Y-95868628D02*
X147820094Y-95868628D01*
X146820094Y-95821009D02*
X146486761Y-95821009D01*
X146343904Y-96344819D02*
X146820094Y-96344819D01*
X146820094Y-96344819D02*
X146820094Y-95344819D01*
X146820094Y-95344819D02*
X146343904Y-95344819D01*
X145343904Y-96344819D02*
X145677237Y-95868628D01*
X145915332Y-96344819D02*
X145915332Y-95344819D01*
X145915332Y-95344819D02*
X145534380Y-95344819D01*
X145534380Y-95344819D02*
X145439142Y-95392438D01*
X145439142Y-95392438D02*
X145391523Y-95440057D01*
X145391523Y-95440057D02*
X145343904Y-95535295D01*
X145343904Y-95535295D02*
X145343904Y-95678152D01*
X145343904Y-95678152D02*
X145391523Y-95773390D01*
X145391523Y-95773390D02*
X145439142Y-95821009D01*
X145439142Y-95821009D02*
X145534380Y-95868628D01*
X145534380Y-95868628D02*
X145915332Y-95868628D01*
M02*
