%TF.GenerationSoftware,KiCad,Pcbnew,10.99.0-unknown*%
%TF.CreationDate,2026-08-11T14:36:02+08:00*%
%TF.ProjectId,STM32F407,53544d33-3246-4343-9037-2e6b69636164,rev?*%
%TF.SameCoordinates,Original*%
%TF.FileFunction,Copper,L1,Top*%
%TF.FilePolarity,Positive*%
%FSLAX46Y46*%
G04 Gerber Fmt 4.6, Leading zero omitted, Abs format (unit mm)*
G04 Created by KiCad (PCBNEW 10.99.0-unknown) date 2026-08-11 14:36:02*
%MOMM*%
%LPD*%
G01*
G04 APERTURE LIST*
%TA.AperFunction,ViaPad*%
%ADD10C,0.450000*%
%TD*%
%TA.AperFunction,ViaPad*%
%ADD11C,0.449600*%
%TD*%
%TA.AperFunction,Conductor*%
%ADD12C,0.889000*%
%TD*%
%TA.AperFunction,Conductor*%
%ADD13C,0.279400*%
%TD*%
%TA.AperFunction,Conductor*%
%ADD14C,0.101600*%
%TD*%
%TA.AperFunction,Conductor*%
%ADD15C,0.287000*%
%TD*%
%TA.AperFunction,Conductor*%
%ADD16C,0.127000*%
%TD*%
%TA.AperFunction,Conductor*%
%ADD17C,0.254000*%
%TD*%
%TA.AperFunction,Conductor*%
%ADD18C,0.508000*%
%TD*%
%TA.AperFunction,Conductor*%
%ADD19C,0.129300*%
%TD*%
%TA.AperFunction,Conductor*%
%ADD20C,0.286000*%
%TD*%
G04 APERTURE END LIST*
D10*
%TO.N,VCC*%
X11658000Y18966000D03*
X11658000Y19646900D03*
X11658000Y20327800D03*
X11658000Y21689600D03*
X11658000Y18285100D03*
X12319000Y18285100D03*
X12319000Y18966000D03*
X12319000Y19646900D03*
X12319000Y20327800D03*
X12319000Y21689600D03*
X10997000Y19646900D03*
X10997000Y18966000D03*
X10997000Y18285100D03*
X10997000Y21689600D03*
X10997000Y21008700D03*
X10997000Y20327800D03*
X11658000Y21008700D03*
X12319000Y21008700D03*
D11*
%TO.N,VBAT*%
X13462000Y23749000D03*
%TO.N,CAN_1_RX*%
X51308000Y9694600D03*
%TO.N,CAN_1_TX*%
X51350600Y10964600D03*
%TO.N,CAN_2_TX*%
X25146000Y26543000D03*
X46736000Y16256000D03*
%TO.N,CAN_2_RX*%
X48641000Y14986000D03*
X37338000Y27813000D03*
%TO.N,SPI2_SCK*%
X38135000Y28229000D03*
%TO.N,OSC_IN*%
X24384000Y35179400D03*
%TO.N,OSC_OUT*%
X24037800Y35684500D03*
%TO.N,VCC*%
X22533500Y29645600D03*
X23676600Y31187400D03*
X25654000Y33274000D03*
X28575000Y36068000D03*
%TO.N,$2N663*%
X29059900Y36916200D03*
%TO.N,VCC*%
X29845000Y37211000D03*
X32258000Y36830000D03*
X39497100Y29608700D03*
%TO.N,$2N590*%
X38023100Y29921900D03*
%TO.N,VCC*%
X31060400Y20755600D03*
%TO.N,$2N591*%
X31766700Y21461900D03*
%TO.N,+5V_A*%
X79121000Y22352000D03*
X76398100Y18861000D03*
X76398100Y24003000D03*
X76073000Y17399100D03*
X76200000Y12319100D03*
X68200900Y11049100D03*
X68190600Y16194000D03*
X80645000Y27559000D03*
%TO.N,PGND*%
X79137100Y36166200D03*
X79629000Y34671000D03*
X79629000Y34062300D03*
X79073600Y37479200D03*
X76454000Y23114000D03*
X76454000Y22410300D03*
X76327000Y13223400D03*
X76200000Y8686800D03*
X76200000Y8006500D03*
X77343000Y9017000D03*
X80675800Y2382200D03*
X81573800Y1484200D03*
X84077700Y1397000D03*
X85347700Y1397000D03*
X86617700Y1397000D03*
X87887700Y1397000D03*
X89157700Y1397000D03*
X89128700Y4953000D03*
X87858700Y4953000D03*
X84048700Y4953000D03*
X82008700Y8856700D03*
X86845300Y9444200D03*
X88115300Y9444200D03*
X89385300Y9444200D03*
X89030700Y12700000D03*
X87760700Y12700000D03*
X86490700Y12700000D03*
X83950700Y12700000D03*
X81844400Y15818600D03*
X80429300Y16852700D03*
X80331900Y18656300D03*
X82343500Y16764000D03*
X84883500Y16764000D03*
X87423500Y16764000D03*
X88693500Y16764000D03*
X88500500Y20480400D03*
X87230500Y20480400D03*
X83430900Y20505400D03*
X82158900Y24246900D03*
X88600900Y24638000D03*
X88424400Y28194000D03*
X85249400Y28321000D03*
X76327000Y28448000D03*
X78643800Y28986800D03*
X80439900Y30782900D03*
X81718900Y32188900D03*
X87448800Y32258000D03*
X82334300Y35687000D03*
X86144300Y35687000D03*
X81407000Y34925000D03*
X84552300Y35814000D03*
X84631800Y32052900D03*
X71349500Y33857400D03*
X72644000Y34941300D03*
X73279000Y37227300D03*
X76359200Y40672200D03*
X78155300Y42468300D03*
X79077900Y43307000D03*
X80347900Y43307000D03*
X81939100Y42647900D03*
X84278700Y42164000D03*
X70993000Y37412400D03*
X72377200Y39738200D03*
X74173300Y41534300D03*
X75969300Y43330300D03*
X80322500Y45085000D03*
X82169000Y45847000D03*
X84284900Y46228000D03*
X76327000Y27178000D03*
X78740000Y27559000D03*
X79573200Y27559000D03*
X78740000Y24130000D03*
X80645000Y24257000D03*
X77105400Y21815900D03*
X77962300Y21815900D03*
X81153000Y22352000D03*
X81915000Y21844000D03*
X78477000Y19177000D03*
X78049700Y14097000D03*
X79375000Y13716000D03*
X77918600Y11684000D03*
X79121000Y12093900D03*
X80137000Y11684000D03*
X79629000Y8382000D03*
X83157800Y9044900D03*
X84903600Y9044900D03*
X86233000Y5334000D03*
X84966000Y20613900D03*
X85217000Y24384000D03*
X81915000Y28194000D03*
%TO.N,+5V_A*%
X59632500Y8424600D03*
X59614100Y13716000D03*
X59632500Y19050000D03*
X59577200Y24384000D03*
X59650900Y29718000D03*
X59563000Y35052000D03*
%TO.N,PGND*%
X66294000Y22352000D03*
X67157700Y22352000D03*
X67945000Y27051000D03*
X67945000Y26353200D03*
%TO.N,R485_2_R/D*%
X61595000Y43688000D03*
X71120000Y25654000D03*
%TO.N,R485_1_R/D*%
X71120000Y20320000D03*
X61595000Y48573000D03*
%TO.N,+5V_A*%
X68112700Y38100000D03*
%TO.N,PGND*%
X59563000Y33274000D03*
X59563000Y33909000D03*
X59690000Y28575000D03*
X59690000Y27940000D03*
%TO.N,+5V_A*%
X61849000Y46101000D03*
X61920300Y41148000D03*
%TO.N,PGND*%
X71344800Y1240800D03*
X73630800Y1240800D03*
X71344800Y2002800D03*
X73630800Y2002800D03*
X71344800Y2764800D03*
X73630800Y2764800D03*
X71344800Y3526800D03*
X73630800Y3526800D03*
X73630800Y4288800D03*
X61551400Y9862400D03*
X62449400Y10760400D03*
X64072300Y9333700D03*
X65955000Y7747000D03*
X60514500Y16882500D03*
X66271800Y18011800D03*
X65659000Y19164900D03*
X61356000Y20589000D03*
X61722000Y15875000D03*
X64135000Y16637000D03*
X63754000Y21082000D03*
X61595000Y26543000D03*
X63754000Y25654000D03*
X65405000Y27051000D03*
X67564000Y28448000D03*
X67437000Y29464000D03*
X66294000Y30480000D03*
X62646900Y32131000D03*
X61214000Y30988000D03*
X68199000Y33782000D03*
X67564000Y34417000D03*
X66167000Y35814000D03*
X64135000Y36830000D03*
X61722000Y37338000D03*
X60706000Y38227000D03*
X59468800Y38227000D03*
X67818000Y37084000D03*
X67818000Y36322000D03*
X78359000Y17653000D03*
X78359000Y16891000D03*
X68072000Y9365000D03*
X68072000Y10033000D03*
X68072000Y14605000D03*
X68064600Y15334000D03*
X59520100Y17992400D03*
X59563000Y17145000D03*
X59436000Y12573000D03*
X59436000Y11938000D03*
X59371500Y7127000D03*
X59309000Y6477000D03*
X65164700Y41150700D03*
X65151000Y46101000D03*
X64220700Y6683600D03*
X64220700Y5969000D03*
X80137000Y4699000D03*
X80137000Y12954000D03*
%TO.N,+5V_A*%
X86279200Y37136500D03*
X86890400Y37136500D03*
%TO.N,PGND*%
X82403900Y37799200D03*
X82394300Y37099200D03*
X82423000Y36449000D03*
X82296000Y48006000D03*
X82295700Y47386200D03*
X82296000Y46736000D03*
%TO.N,+5V_A*%
X86144600Y47371000D03*
X86840000Y47371000D03*
%TO.N,PGND*%
X86233000Y45593000D03*
X86995000Y42672000D03*
X89498600Y18643200D03*
X89535000Y17526000D03*
X89408000Y19939000D03*
X89535000Y11811000D03*
X89535000Y10668000D03*
X89535000Y2667000D03*
X89535000Y27305000D03*
X89535000Y25908000D03*
X89281000Y33401000D03*
X89073100Y45466100D03*
X89154000Y43180000D03*
%TO.N,MOSI*%
X38439800Y37125200D03*
%TO.N,MISO*%
X37004400Y40720000D03*
%TO.N,SCK*%
X39773300Y38458700D03*
%TO.N,CS*%
X36044600Y39346600D03*
%TO.N,GND*%
X27178000Y38100000D03*
X25021300Y32636700D03*
X33147000Y19149200D03*
X33817000Y19847000D03*
X40556400Y29928600D03*
X37592000Y31623000D03*
X31496000Y37846000D03*
X32893000Y36322000D03*
X27903100Y38848100D03*
X27583800Y35179000D03*
X20193000Y33909000D03*
%TO.N,R485_2_EN*%
X35780700Y31433000D03*
%TO.N,R485_1_EN*%
X35352700Y31923700D03*
%TO.N,R485_2_EN*%
X41756900Y42545000D03*
%TO.N,R485_1_EN*%
X41756900Y43307000D03*
%TO.N,GND*%
X22225000Y12827000D03*
X21844000Y12296800D03*
X21844000Y11194200D03*
X22914800Y10924100D03*
X22403000Y11686100D03*
%TO.N,SPI3_CS*%
X28657200Y18751200D03*
%TO.N,SPI3_SCK*%
X28217200Y19205900D03*
%TO.N,SPI3_MISO*%
X27789200Y19629300D03*
%TO.N,SPI3_MOSI*%
X23241000Y22352000D03*
%TO.N,CAN_1_TX*%
X30918600Y17837600D03*
%TO.N,CAN_1_RX*%
X29845400Y18278300D03*
%TO.N,SWCLK*%
X29410900Y18856800D03*
X17907000Y30226000D03*
%TO.N,U5_TEST_TX*%
X27276300Y20201200D03*
%TO.N,U5_TEST_RX*%
X26261600Y21308600D03*
X17879600Y29436600D03*
%TO.N,U5_TEST_TX*%
X17830900Y28625900D03*
%TO.N,SWDIO*%
X17907000Y31044900D03*
X31115000Y22860000D03*
%TO.N,WS2812*%
X35560000Y21913900D03*
X36957000Y14605000D03*
%TO.N,+5V*%
X3175000Y22479000D03*
X3848500Y22479000D03*
X4569800Y22479000D03*
X4569800Y21728500D03*
X4569800Y20978100D03*
X4569800Y20227600D03*
X3848500Y20227600D03*
X3175000Y20227600D03*
X3848500Y21728500D03*
X3848500Y20978100D03*
X3175000Y20978100D03*
X3175000Y21728500D03*
X46000000Y8636000D03*
X45325900Y8622900D03*
X39143300Y8862700D03*
X39636800Y8369200D03*
X35179000Y14502100D03*
%TO.N,GND*%
X36957000Y17399000D03*
%TO.N,VCC*%
X40132000Y17526000D03*
%TO.N,+5V*%
X51421800Y8447000D03*
X51465500Y13704800D03*
X51401700Y19038800D03*
X51449600Y24372800D03*
X51398300Y29732200D03*
X51414500Y35040800D03*
%TO.N,GND*%
X50546000Y38862000D03*
X51435000Y33528000D03*
X51474200Y28332200D03*
X51471200Y22972800D03*
X51471200Y17638800D03*
X51401600Y12304800D03*
X49911000Y6096000D03*
X50647500Y6096000D03*
X52295000Y5969000D03*
X52324000Y3937000D03*
X46482000Y41783000D03*
%TO.N,+5V*%
X47371000Y44512000D03*
%TO.N,GND*%
X46482000Y47244000D03*
%TO.N,SPI2_CS*%
X17240800Y42001800D03*
%TO.N,+5V*%
X23064100Y46863000D03*
X23064100Y46190500D03*
X30919900Y46219800D03*
X31554900Y46133100D03*
%TO.N,BOOT1*%
X24833200Y40306000D03*
X33655000Y35306000D03*
%TO.N,+5V*%
X29083000Y15367000D03*
X29083000Y14730900D03*
%TO.N,GND*%
X26797000Y6311500D03*
X26797000Y5588000D03*
%TO.N,I2C1_SDA*%
X27813000Y29972000D03*
%TO.N,I2C1_SCL*%
X27051000Y30607000D03*
%TO.N,+5V*%
X47752000Y42164000D03*
X47226100Y42624900D03*
%TO.N,GND*%
X37465000Y16637000D03*
X38452400Y16637000D03*
%TO.N,NRST*%
X8890000Y30226000D03*
X24384000Y27178000D03*
%TO.N,VCC*%
X19698200Y37338000D03*
X19698200Y36576000D03*
X19698200Y35795000D03*
X19698200Y34995100D03*
%TO.N,U4_RF_TX*%
X18589000Y38717800D03*
%TO.N,SPI2_MISO*%
X18654100Y40498100D03*
%TO.N,SPI2_MOSI*%
X19289100Y40371100D03*
%TO.N,U4_RF_RX*%
X17526000Y39272700D03*
X28575000Y39653800D03*
%TO.N,U4_RF_TX*%
X27940000Y39450000D03*
%TO.N,VCC*%
X13716000Y35306000D03*
X13023200Y35306000D03*
%TO.N,NRST*%
X26543000Y38481000D03*
X26797000Y34163000D03*
%TO.N,I2C2_SDA*%
X29845000Y41910000D03*
%TO.N,I2C2_SCL*%
X30607000Y42164000D03*
%TO.N,VCC*%
X43942000Y34798000D03*
%TO.N,GND*%
X42799000Y33782000D03*
%TO.N,VCC*%
X33909000Y41656000D03*
%TO.N,PE7*%
X35005000Y33989000D03*
%TO.N,PE0*%
X19749100Y30480000D03*
%TO.N,PE1*%
X20183800Y29978700D03*
%TO.N,PE2*%
X19622100Y31209000D03*
%TO.N,PE3*%
X20251800Y31637000D03*
%TO.N,PE4*%
X19622100Y32112000D03*
%TO.N,PE5*%
X20263100Y32539900D03*
%TO.N,PE6*%
X19655100Y32926000D03*
X23741300Y45988400D03*
%TO.N,PE5*%
X24169300Y44704000D03*
%TO.N,PE4*%
X24591000Y45560400D03*
%TO.N,PE3*%
X25025200Y44677700D03*
%TO.N,PE2*%
X25554800Y45359600D03*
%TO.N,PE0*%
X25881200Y44794100D03*
%TO.N,PE1*%
X25825300Y43979800D03*
%TO.N,VCC*%
X23731500Y41217700D03*
%TO.N,GND*%
X19939000Y38100000D03*
%TO.N,PE7*%
X32610900Y40386000D03*
%TO.N,$1N145605*%
X44960500Y33022500D03*
X44900400Y31057400D03*
%TO.N,U2_R232_TX*%
X30099000Y39653800D03*
%TO.N,U2_R232_RX*%
X31416000Y39352800D03*
X44456400Y38764800D03*
%TO.N,U2_R232_TX*%
X43614300Y38286100D03*
%TO.N,$1N145713*%
X45593000Y25781000D03*
X45212000Y26924000D03*
%TO.N,$1N125152*%
X45339000Y21209000D03*
X45096800Y19939000D03*
%TO.N,VCC*%
X47625000Y35489900D03*
X47625000Y34671000D03*
X47625000Y33889900D03*
X47625000Y33090100D03*
X47625000Y24821900D03*
X47625000Y24003000D03*
X47625000Y23221900D03*
X47625000Y22422100D03*
%TO.N,+5V*%
X50165000Y39632600D03*
X49525600Y39632600D03*
%TO.N,GND*%
X24438500Y31725200D03*
X30734000Y7536800D03*
X30734000Y6858000D03*
X31115000Y6223000D03*
X33909000Y8289800D03*
X33909000Y7569700D03*
X33909000Y6811500D03*
X42087800Y14161600D03*
X42087800Y13427000D03*
X42087800Y12550400D03*
X42087800Y16223000D03*
X12954000Y34163000D03*
X13589000Y34163000D03*
X12954000Y33528000D03*
X13589000Y33528000D03*
X8001000Y20193000D03*
X8763000Y20179100D03*
X8763000Y19527500D03*
X8763000Y18710100D03*
X8061000Y18710100D03*
X8001000Y19558000D03*
X1016000Y20066000D03*
X1016000Y18992300D03*
X1016000Y17934000D03*
X1016000Y17000100D03*
X1143000Y24511000D03*
X1859200Y24511000D03*
X762000Y22479000D03*
%TO.N,PGND*%
X56515000Y1699100D03*
X56515000Y2715100D03*
X56515000Y6779100D03*
X56515000Y7795100D03*
X56515000Y8811100D03*
X56515000Y9827100D03*
X56515000Y10843100D03*
X56515000Y11859100D03*
X56515000Y12875100D03*
X56515000Y13891100D03*
X56515000Y14907100D03*
X56515000Y15923100D03*
X56515000Y16939100D03*
X56515000Y17955100D03*
X56515000Y18971100D03*
X56515000Y19987100D03*
X56515000Y21003100D03*
X56515000Y22019100D03*
X56515000Y23035100D03*
X56515000Y24051100D03*
X56515000Y25067100D03*
X56515000Y26083100D03*
X56515000Y27099100D03*
X56515000Y28115100D03*
X56515000Y29131100D03*
X56515000Y30147100D03*
X56515000Y31163100D03*
X56515000Y32179100D03*
X56515000Y33195100D03*
X56515000Y34211100D03*
X56515000Y35227100D03*
X56515000Y36243100D03*
X56515000Y37259100D03*
X56515000Y38275100D03*
X56515000Y39291100D03*
X56515000Y40307100D03*
X56515000Y41323100D03*
X56515000Y42339100D03*
X56515000Y43355100D03*
X56515000Y44371100D03*
X56515000Y45387100D03*
X56515000Y46403100D03*
X56515000Y47419100D03*
X56515000Y48308100D03*
X56515000Y49022000D03*
X57531000Y49022000D03*
X58547000Y49022000D03*
X62611000Y49022000D03*
X63627000Y49022000D03*
X64643000Y49022000D03*
X65659000Y49022000D03*
X66675000Y49022000D03*
X67691000Y49022000D03*
X68707000Y49022000D03*
X69723000Y49022000D03*
X70739000Y49022000D03*
X71755000Y49022000D03*
X72771000Y49022000D03*
X73787000Y49022000D03*
X74803000Y49022000D03*
X75819000Y49022000D03*
X78867000Y49022000D03*
X79883000Y49022000D03*
X80899000Y49022000D03*
X81915000Y49022000D03*
X82931000Y49022000D03*
X83947000Y49022000D03*
X84963000Y49022000D03*
X85979000Y49022000D03*
X86995000Y49022000D03*
X88011000Y49022000D03*
X89027000Y49022000D03*
X56642000Y889000D03*
X59690000Y889000D03*
X60706000Y889000D03*
X61722000Y889000D03*
X64770000Y889000D03*
X65786000Y889000D03*
X66802000Y889000D03*
X74930000Y889000D03*
X75946000Y889000D03*
X78994000Y889000D03*
X80010000Y889000D03*
X81026000Y889000D03*
X82042000Y889000D03*
X86106000Y889000D03*
X87122000Y889000D03*
X89154000Y6350000D03*
X89154000Y7688100D03*
X89154000Y14050000D03*
X89154000Y15667100D03*
X89281000Y22225000D03*
X89281000Y23876000D03*
X89281000Y29727000D03*
X89281000Y31646200D03*
X89281000Y39982900D03*
X89154000Y41783000D03*
X89281000Y46990000D03*
X89154000Y38100000D03*
X89408000Y37084000D03*
%TO.N,GND*%
X44196000Y12192000D03*
X45085000Y11938000D03*
X37846000Y12573000D03*
X38955700Y12573000D03*
X20828000Y20955000D03*
X20828000Y22625800D03*
X20828000Y24171800D03*
X20828000Y24915600D03*
X9906000Y23622000D03*
X10781400Y23622000D03*
X7382300Y22108600D03*
X7380500Y22743600D03*
X24784900Y42652100D03*
X25400000Y41466700D03*
X20976600Y46863000D03*
X21717000Y46863000D03*
X22225000Y48006000D03*
X23677700Y48006000D03*
X45593000Y41021000D03*
X49530000Y33655000D03*
X49276000Y28321000D03*
X49276000Y22917300D03*
X49276000Y17639400D03*
X49276000Y12450400D03*
X49276000Y7030400D03*
X48641000Y5207000D03*
X49338400Y5207000D03*
X36957000Y21971000D03*
X39111400Y21971000D03*
X40894000Y24003000D03*
X41656000Y24765000D03*
X46355000Y19050000D03*
X48581000Y19050000D03*
X46736000Y21209000D03*
X50073700Y21209000D03*
X46482000Y26289000D03*
X49904900Y26289000D03*
X43688000Y28194000D03*
X46736000Y28448000D03*
X44450000Y29845000D03*
X48447700Y29845000D03*
X49301400Y32816800D03*
X50961100Y32813000D03*
X46863000Y36576000D03*
X45847000Y37846000D03*
X48293000Y38481000D03*
X50580100Y38227000D03*
X45162200Y47776500D03*
X43688000Y46355000D03*
X40640000Y43688000D03*
X37973000Y46355000D03*
X36830000Y47244000D03*
X39624000Y44704000D03*
X10922000Y40386000D03*
X12192000Y38608000D03*
X12700000Y41910000D03*
X13843000Y40640000D03*
X13208000Y27432000D03*
X10535600Y27432000D03*
X8563100Y27432000D03*
X15884500Y27432000D03*
X18354700Y32766000D03*
X18542000Y26797000D03*
X25400000Y19304000D03*
X14414400Y19304000D03*
X18161000Y3810000D03*
X19431000Y3810000D03*
X20618400Y3810000D03*
X18161000Y5842000D03*
X18161000Y4761800D03*
X29337000Y3175000D03*
X29337000Y1687500D03*
X32098200Y1687500D03*
X32098200Y3180200D03*
X26924000Y15240000D03*
X26924000Y14418600D03*
X24793600Y29651800D03*
X25527000Y30226000D03*
X29968700Y46219800D03*
X30480000Y46727800D03*
X22098000Y43688000D03*
X45466000Y42672000D03*
X28956000Y6350000D03*
X29708700Y6350000D03*
X24975400Y41953600D03*
X20088300Y41633700D03*
X19825400Y41056800D03*
X16263400Y40941000D03*
X16263400Y41541600D03*
X24003000Y40306000D03*
X27686000Y41529000D03*
X27686000Y40771300D03*
X32131000Y40005000D03*
X32131000Y40899000D03*
X44866600Y45430400D03*
X45723500Y45974000D03*
X47371000Y40767000D03*
X45466000Y40259000D03*
X44196000Y41021000D03*
X44196000Y41800100D03*
X33909000Y11759100D03*
X33909000Y10977200D03*
X2032000Y1016000D03*
X5080000Y1016000D03*
X6096000Y1016000D03*
X7112000Y1016000D03*
X8128000Y1016000D03*
X9144000Y1016000D03*
X10160000Y1016000D03*
X11176000Y1016000D03*
X12192000Y1016000D03*
X13208000Y1016000D03*
X14224000Y1016000D03*
X15240000Y1016000D03*
X16256000Y1016000D03*
X17272000Y1016000D03*
X18288000Y1016000D03*
X19304000Y1016000D03*
X20320000Y1016000D03*
X21336000Y1016000D03*
X22352000Y1016000D03*
X23368000Y1016000D03*
X24384000Y1016000D03*
X25400000Y1016000D03*
X27432000Y1016000D03*
X28448000Y1016000D03*
X29464000Y1016000D03*
X32512000Y1016000D03*
X33528000Y1016000D03*
X34544000Y1016000D03*
X37592000Y1016000D03*
X38608000Y1016000D03*
X39624000Y1016000D03*
X40640000Y1016000D03*
X41656000Y1016000D03*
X42672000Y1016000D03*
X43688000Y1016000D03*
X44704000Y1016000D03*
X45720000Y1016000D03*
X46736000Y1016000D03*
X47752000Y1016000D03*
X48768000Y1016000D03*
X54229000Y1576600D03*
X54229000Y2592600D03*
X54483000Y6783600D03*
X54483000Y7799600D03*
X54483000Y11859100D03*
X54483000Y12875100D03*
X54483000Y15923100D03*
X54483000Y16939100D03*
X54483000Y17832600D03*
X54483000Y22912600D03*
X54483000Y23928600D03*
X54483000Y24944600D03*
X54483000Y27992600D03*
X54483000Y29008600D03*
X54483000Y33072600D03*
X54483000Y34088600D03*
X54483000Y37136600D03*
X54483000Y38152600D03*
X54483000Y39168600D03*
X54483000Y40184600D03*
X54483000Y41200600D03*
X54483000Y42216600D03*
X54483000Y43232600D03*
X54483000Y44248600D03*
X54483000Y45264600D03*
X54483000Y46280600D03*
X54483000Y47296600D03*
X54483000Y48312600D03*
X1016000Y48588400D03*
X1016000Y45540400D03*
X1016000Y44524400D03*
X1016000Y43508400D03*
X1016000Y42492400D03*
X1016000Y37412400D03*
X1016000Y32332400D03*
X1016000Y27252400D03*
X762000Y21283400D03*
X1016000Y16076400D03*
X1016000Y15060400D03*
X1016000Y14044400D03*
X1016000Y13028400D03*
X1016000Y12012400D03*
X1016000Y10996400D03*
X1016000Y9980400D03*
X1016000Y8964400D03*
X1016000Y7948400D03*
X1016000Y6932400D03*
X1016000Y5916400D03*
X1016000Y4900400D03*
X1016000Y3884400D03*
X1016000Y2868400D03*
X1016000Y1852400D03*
X1016000Y1016000D03*
X54483000Y49022000D03*
X53213000Y49022000D03*
X46101000Y49022000D03*
X45085000Y49022000D03*
X44069000Y49022000D03*
X43053000Y49022000D03*
X42037000Y49022000D03*
X40005000Y49022000D03*
X38989000Y49022000D03*
X37973000Y49022000D03*
X36957000Y49022000D03*
X23749000Y49022000D03*
X21717000Y49022000D03*
X19685000Y49022000D03*
X12573000Y49022000D03*
X6477000Y49022000D03*
X5461000Y49022000D03*
X4445000Y49022000D03*
%TO.N,PGND*%
X82296000Y13843000D03*
X82169000Y6477000D03*
X65024000Y32004000D03*
%TO.N,GND*%
X41656000Y19177000D03*
X43587700Y17594600D03*
X44069000Y15240000D03*
X44196000Y13589000D03*
X40005000Y13462000D03*
X39751000Y15240000D03*
X39160000Y18353600D03*
%TO.N,PGND*%
X59563000Y23368000D03*
X59563000Y22479000D03*
%TO.N,GND*%
X52197000Y39624000D03*
%TO.N,PGND*%
X58166000Y39624000D03*
X58674000Y6096000D03*
X58674000Y4191000D03*
%TO.N,GND*%
X54483000Y8811100D03*
X54483000Y9830000D03*
X54483000Y10856600D03*
X54483000Y13891100D03*
X54483000Y14907100D03*
X54483000Y19050000D03*
X54483000Y20001800D03*
X54483000Y20955000D03*
X54483000Y22025600D03*
X54483000Y26018400D03*
X54483000Y27064500D03*
X54483000Y30154100D03*
X54483000Y31166000D03*
X54483000Y32212200D03*
X54483000Y35202100D03*
X54483000Y36250100D03*
X48641000Y8763000D03*
X36068000Y10922000D03*
X34036000Y16256000D03*
X46863000Y14732000D03*
X48133000Y17018000D03*
X42418000Y22479000D03*
X9525000Y12700000D03*
X9652000Y11194500D03*
X11315800Y11194500D03*
X8286400Y12700000D03*
X6801900Y12700000D03*
X20193000Y6604000D03*
X18161000Y6985000D03*
%TO.N,VCC*%
X13716000Y24538400D03*
%TO.N,GND*%
X16002000Y19304000D03*
X17925800Y19304000D03*
X19740700Y19304000D03*
X21770500Y19304000D03*
X23717400Y19304000D03*
%TO.N,PGND*%
X76708000Y11684000D03*
%TO.N,GND*%
X23897500Y11004200D03*
X15337000Y6127100D03*
X16637000Y6109300D03*
X16637000Y2927400D03*
X15240000Y2921000D03*
X15240000Y4630200D03*
X22352000Y14986000D03*
%TD*%
%TO.N,$1N124316*%
D12*
X24163000Y8763000D02*
X24638000Y8288000D01*
X24638000Y8288000D02*
X24638000Y5833400D01*
%TO.N,$1N123763*%
X24638000Y4326600D02*
X23181900Y2870600D01*
%TO.N,$1N124316*%
D13*
X23245000Y14726800D02*
X23245000Y13150000D01*
X23245000Y13150000D02*
X23241000Y13146000D01*
%TO.N,$1N124327*%
X22287000Y17526000D02*
X22744900Y17068100D01*
X22744900Y17068100D02*
X22744900Y16007200D01*
%TO.N,$1N124343*%
X23245000Y16007200D02*
X23245000Y17084000D01*
X23245000Y17084000D02*
X23687000Y17526000D01*
%TO.N,$1N140993*%
D14*
X16359400Y22138600D02*
X16850400Y22138600D01*
X16850400Y22138600D02*
X17941600Y21047400D01*
X17941600Y21047400D02*
X18266100Y21047400D01*
%TO.N,$1N141109*%
X16359400Y24538400D02*
X16791400Y24538400D01*
X16791400Y24538400D02*
X17872400Y25619400D01*
X17872400Y25619400D02*
X18266100Y25619400D01*
%TO.N,$1N141153*%
X16359400Y22938400D02*
X17066600Y22938400D01*
X17066600Y22938400D02*
X17433600Y22571400D01*
X17433600Y22571400D02*
X18266100Y22571400D01*
%TO.N,$1N141105*%
X16359400Y23738500D02*
X17134500Y23738500D01*
X17134500Y23738500D02*
X17491400Y24095400D01*
X17491400Y24095400D02*
X18266100Y24095400D01*
%TO.N,$3N6048*%
D15*
X41402000Y9660600D02*
X41414100Y9648600D01*
D16*
X41414100Y7455000D02*
X41414100Y8013100D01*
%TO.N,$3N6052*%
D15*
X42799000Y9660600D02*
X42913900Y9545700D01*
X42913900Y9545700D02*
X42913900Y7455000D01*
%TO.N,$3N5265*%
D16*
X43413800Y7455000D02*
X43413800Y8234800D01*
X44196000Y9017000D02*
X44196000Y9660600D01*
X43413800Y8234800D02*
X44196000Y9017000D01*
%TO.N,$3N5226*%
X40413800Y7455000D02*
X40413800Y8354200D01*
X40005000Y8763000D02*
X40005000Y9660600D01*
X40413800Y8354200D02*
X40005000Y8763000D01*
%TO.N,U1_R485_TX*%
X34431700Y22357600D02*
X35316100Y21473200D01*
%TO.N,U6_R485_RX*%
X35846100Y23772000D02*
X36758100Y22860000D01*
%TO.N,U6_R485_TX*%
X38481000Y23241000D02*
X42174200Y26934200D01*
X37084000Y23241000D02*
X38481000Y23241000D01*
X36199600Y24125400D02*
X37084000Y23241000D01*
%TO.N,U6_R485_RX*%
X38735000Y22860000D02*
X41539200Y25664200D01*
X36758100Y22860000D02*
X38735000Y22860000D01*
%TO.N,U3_R232_RX*%
X40259000Y25781000D02*
X39493900Y25781000D01*
X39493900Y25781000D02*
X38674500Y26600400D01*
%TO.N,CAN_1_RX*%
X52816500Y9694600D02*
X51308000Y9694600D01*
%TO.N,CAN_1_TX*%
X51350600Y10964600D02*
X52816500Y10964600D01*
%TO.N,CAN_2_TX*%
X46736000Y16256000D02*
X52816500Y16256000D01*
%TO.N,CAN_2_RX*%
X52816500Y14986000D02*
X48641000Y14986000D01*
%TO.N,VCC*%
D17*
X23676600Y31187400D02*
X23676600Y31698500D01*
X23676600Y31698500D02*
X23047500Y32327600D01*
X25654000Y33274000D02*
X25636800Y33274000D01*
X25636800Y33274000D02*
X24815300Y34095500D01*
%TO.N,$2N663*%
X28350800Y37631000D02*
X29059900Y36921900D01*
X29059900Y36921900D02*
X29059900Y36916200D01*
%TO.N,VCC*%
X32258000Y36830000D02*
X32004000Y37084000D01*
X32004000Y37678100D02*
X32664100Y38338100D01*
X32004000Y37084000D02*
X32004000Y37678100D01*
%TO.N,$1N124356*%
D14*
X25916600Y14732000D02*
X25916600Y16129000D01*
X25916600Y14732000D02*
X25019000Y14732000D01*
X24245000Y15506000D02*
X24245000Y16007200D01*
X25019000Y14732000D02*
X24245000Y15506000D01*
%TO.N,$1N124450*%
D13*
X23744900Y16007200D02*
X23744900Y16632900D01*
X23744900Y16632900D02*
X23876000Y16764000D01*
X23876000Y16764000D02*
X24257000Y16764000D01*
X24257000Y16764000D02*
X25019000Y17526000D01*
X25019000Y17526000D02*
X25970000Y17526000D01*
%TO.N,$1N141345*%
D14*
X27423400Y16129000D02*
X26924000Y16129000D01*
X26924000Y16129000D02*
X26670000Y16383000D01*
X6349500Y16636500D02*
X6349500Y15621000D01*
X26670000Y16383000D02*
X26670000Y17963300D01*
%TO.N,+5V*%
X6212300Y23175000D02*
X4699000Y23175000D01*
%TO.N,$4N8754*%
X64908000Y12553900D02*
X64369200Y12553900D01*
X64153700Y12464700D02*
X64097300Y12408300D01*
X64008000Y12192700D02*
X64008000Y10540300D01*
X64097300Y10324700D02*
X65823700Y8598300D01*
X66039200Y8509100D02*
X69580400Y8509100D01*
%TO.N,$4N8845*%
X64908000Y13354000D02*
X64388300Y13354000D01*
X64172700Y13443300D02*
X64097300Y13518800D01*
%TO.N,$4N8849*%
X69580400Y13589100D02*
X66166200Y13589100D01*
X65950700Y13678300D02*
X65564400Y14064600D01*
X65348900Y14153900D02*
X64908000Y14153900D01*
%TO.N,$4N8748*%
X64908000Y11754100D02*
X65348900Y11754100D01*
X65564400Y11843400D02*
X65950800Y12229800D01*
X66166300Y12319100D02*
X69580400Y12319100D01*
%TO.N,$4N6276*%
X63108000Y13354000D02*
X62464200Y13354000D01*
X60579700Y14986000D02*
X58181500Y14986000D01*
X62248700Y13443300D02*
X60795300Y14896700D01*
%TO.N,$4N6272*%
X58181500Y16256000D02*
X60198700Y16256000D01*
X62553400Y14153900D02*
X63108000Y14153900D01*
X60414300Y16166700D02*
X62337800Y14243200D01*
%TO.N,$4N6268*%
X58181500Y9694600D02*
X60114300Y9694600D01*
X60329900Y9783900D02*
X62210800Y11664800D01*
X62426400Y11754100D02*
X63108000Y11754100D01*
%TO.N,$4N6264*%
X58181500Y10964600D02*
X60622300Y10964600D01*
X60837900Y11053900D02*
X62248700Y12464700D01*
X62464200Y12553900D02*
X63108000Y12553900D01*
%TO.N,$4N8845*%
X64008000Y13734300D02*
X64008000Y15240700D01*
X64097300Y15456300D02*
X65950800Y17309800D01*
X66166300Y17399100D02*
X69580400Y17399100D01*
%TO.N,$4N11569*%
X66928300Y27813000D02*
X69490600Y27813000D01*
%TO.N,$4N11573*%
X64781000Y23768000D02*
X67183700Y23768000D01*
X67399300Y23857300D02*
X67455700Y23913700D01*
X67671200Y24003000D02*
X69490600Y24003000D01*
%TO.N,$4N10322*%
X64781000Y22967900D02*
X67202800Y22967900D01*
X67817300Y22606000D02*
X69490600Y22606000D01*
X67418300Y22878700D02*
X67601700Y22695300D01*
%TO.N,$4N11551*%
X69490600Y18796000D02*
X67055300Y18796000D01*
%TO.N,$4N11569*%
X66256300Y27267300D02*
X66712700Y27723700D01*
X64781000Y24567900D02*
X65462600Y24567900D01*
X65678200Y24657200D02*
X66077700Y25056700D01*
X66167000Y25272300D02*
X66167000Y27051700D01*
%TO.N,$4N11551*%
X65462600Y22168100D02*
X64781000Y22168100D01*
X66839700Y18885300D02*
X66256300Y19468700D01*
X66167000Y19684300D02*
X66167000Y21463700D01*
X66077700Y21679300D02*
X65678200Y22078800D01*
%TO.N,$4N6231*%
X58181500Y32258000D02*
X60452700Y32258000D01*
X60668300Y32347300D02*
X62248700Y33927700D01*
X62464200Y34017000D02*
X62981000Y34017000D01*
%TO.N,$4N6216*%
X62981000Y33217100D02*
X62426400Y33217100D01*
X62210800Y33127800D02*
X60160300Y31077300D01*
X59944700Y30988000D02*
X58181500Y30988000D01*
%TO.N,$4N6221*%
X62981000Y34817100D02*
X62464200Y34817100D01*
X62248700Y34906300D02*
X60922300Y36232700D01*
X60706700Y36322000D02*
X58181500Y36322000D01*
%TO.N,$4N6226*%
X58181500Y37592000D02*
X60198700Y37592000D01*
X60414300Y37502700D02*
X62210800Y35706200D01*
X62426400Y35616900D02*
X62981000Y35616900D01*
%TO.N,$4N30026*%
X71479200Y36173200D02*
X71014800Y35708800D01*
X70655600Y35560000D02*
X69527400Y35560000D01*
%TO.N,$4N30067*%
X69527400Y34290000D02*
X70655600Y34290000D01*
X71014800Y34438800D02*
X72241200Y35665200D01*
X81936800Y43793200D02*
X82325000Y43405000D01*
X82684200Y43256200D02*
X83221700Y43256200D01*
%TO.N,$4N30026*%
X83221700Y45135800D02*
X82684200Y45135800D01*
X82325000Y44987000D02*
X81936800Y44598800D01*
%TO.N,$4N29856*%
D17*
X74998600Y31750000D02*
X78105000Y31750000D01*
X78740000Y32385000D02*
X78740000Y32955000D01*
X78105000Y31750000D02*
X78740000Y32385000D01*
%TO.N,$4N29905*%
X77343000Y32955000D02*
X75063600Y32955000D01*
X75063600Y32955000D02*
X74998600Y33020000D01*
%TO.N,$4N30146*%
D14*
X74998600Y29210000D02*
X77513600Y29210000D01*
X77872800Y29358800D02*
X81385200Y32871200D01*
X81744400Y33020000D02*
X83247100Y33020000D01*
%TO.N,$4N30067*%
X72390000Y36024400D02*
X72390000Y37508600D01*
X72538800Y37867800D02*
X78464200Y43793200D01*
X78823400Y43942000D02*
X81577600Y43942000D01*
%TO.N,$4N30026*%
X81577600Y44450000D02*
X78315400Y44450000D01*
X77956200Y44301200D02*
X71776800Y38121800D01*
X71628000Y37762600D02*
X71628000Y36532400D01*
%TO.N,+5V_A*%
D17*
X79121000Y22978400D02*
X79121000Y22352000D01*
X75100400Y18861000D02*
X75035400Y18796000D01*
X77343000Y18861000D02*
X76398100Y18861000D01*
X76398100Y18861000D02*
X75100400Y18861000D01*
X77278000Y24003000D02*
X77343000Y24068000D01*
X75035400Y24003000D02*
X76398100Y24003000D01*
X76398100Y24003000D02*
X77278000Y24003000D01*
X74945400Y17399100D02*
X76073000Y17399100D01*
X74945400Y12319100D02*
X76200000Y12319100D01*
X69515400Y16194000D02*
X69580400Y16129100D01*
X66994000Y11049100D02*
X66929000Y11114000D01*
X69580400Y11049100D02*
X68200900Y11049100D01*
X68200900Y11049100D02*
X66994000Y11049100D01*
X66929000Y16194000D02*
X68190600Y16194000D01*
X68190600Y16194000D02*
X69515400Y16194000D01*
X80645000Y27559000D02*
X80645000Y28185400D01*
%TO.N,$4N29865*%
X77343000Y34355000D02*
X75063600Y34355000D01*
X75063600Y34355000D02*
X74998600Y34290000D01*
%TO.N,$4N28005*%
X77288400Y36825000D02*
X75003600Y36825000D01*
X75003600Y36825000D02*
X74998600Y36830000D01*
%TO.N,$4N29900*%
X74998600Y35560000D02*
X79371000Y35560000D01*
X79371000Y35560000D02*
X79941000Y36130000D01*
X79941000Y36130000D02*
X80645000Y36130000D01*
%TO.N,$4N29863*%
X74998600Y38100000D02*
X79371000Y38100000D01*
X79371000Y38100000D02*
X79941000Y37530000D01*
X79941000Y37530000D02*
X80645000Y37530000D01*
%TO.N,+5V_A*%
X60514000Y13716000D02*
X60579000Y13781000D01*
X60514000Y19050000D02*
X60579000Y19115000D01*
X60514000Y24384000D02*
X60579000Y24449000D01*
X60517000Y29718000D02*
X60579000Y29656000D01*
X60517000Y35052000D02*
X60579000Y34990000D01*
X60474400Y8424600D02*
X60579000Y8320000D01*
X58181500Y8424600D02*
X59632500Y8424600D01*
X59632500Y8424600D02*
X60474400Y8424600D01*
X58181500Y13716000D02*
X59614100Y13716000D01*
X59614100Y13716000D02*
X60514000Y13716000D01*
X58181500Y19050000D02*
X59632500Y19050000D01*
X59632500Y19050000D02*
X60514000Y19050000D01*
X58181500Y24384000D02*
X59577200Y24384000D01*
X59577200Y24384000D02*
X60514000Y24384000D01*
X58181500Y29718000D02*
X59650900Y29718000D01*
X59650900Y29718000D02*
X60517000Y29718000D01*
X58181500Y35052000D02*
X59563000Y35052000D01*
X59563000Y35052000D02*
X60517000Y35052000D01*
%TO.N,R485_1_R/D*%
D14*
X67056000Y19947600D02*
X69372200Y19947600D01*
X69372200Y19947600D02*
X69490600Y20066000D01*
%TO.N,R485_2_R/D*%
X60149000Y43688000D02*
X61595000Y43688000D01*
X67174400Y25273000D02*
X69490600Y25273000D01*
X67056000Y25154600D02*
X67174400Y25273000D01*
X70739000Y25273000D02*
X69490600Y25273000D01*
X71120000Y25654000D02*
X70739000Y25273000D01*
%TO.N,R485_1_R/D*%
X69490600Y20066000D02*
X70866000Y20066000D01*
X70866000Y20066000D02*
X71120000Y20320000D01*
X61468000Y48641000D02*
X60149000Y48641000D01*
X61595000Y48573000D02*
X61536000Y48573000D01*
X61536000Y48573000D02*
X61468000Y48641000D01*
%TO.N,+5V_A*%
D17*
X66802000Y38165000D02*
X66802000Y38162000D01*
X66802000Y38162000D02*
X66864000Y38100000D01*
X66864000Y38100000D02*
X68112700Y38100000D01*
X68112700Y38100000D02*
X69527400Y38100000D01*
%TO.N,$4N30105*%
D14*
X74998600Y30480000D02*
X77894600Y30480000D01*
X82760400Y34925000D02*
X83247100Y34925000D01*
X78253800Y30628800D02*
X82401200Y34776200D01*
%TO.N,$4N6256*%
X58181500Y26924000D02*
X60071700Y26924000D01*
X62680400Y24567900D02*
X62981000Y24567900D01*
X60287300Y26834700D02*
X62464800Y24657200D01*
%TO.N,$4N6260*%
X62591200Y23768000D02*
X62981000Y23768000D01*
X58181500Y25654000D02*
X60452700Y25654000D01*
X60668300Y25564700D02*
X62375700Y23857300D01*
%TO.N,$4N6252*%
X62981000Y22168100D02*
X62045400Y22168100D01*
X61829800Y22078800D02*
X60160300Y20409300D01*
X59944700Y20320000D02*
X58181500Y20320000D01*
%TO.N,$4N6248*%
X58181500Y21590000D02*
X60198700Y21590000D01*
X60414300Y21679300D02*
X61613700Y22878700D01*
X61829200Y22967900D02*
X62981000Y22967900D01*
%TO.N,+5V_A*%
D17*
X61920300Y41148000D02*
X60149000Y41148000D01*
X62673000Y41148000D02*
X61920300Y41148000D01*
X61849000Y46101000D02*
X60149000Y46101000D01*
X62673000Y46101000D02*
X61849000Y46101000D01*
D18*
X67259500Y2286000D02*
X68275500Y1270000D01*
X68275500Y1270000D02*
X69387200Y1270000D01*
X67259500Y2286000D02*
X68402500Y3429000D01*
X68402500Y3429000D02*
X69387200Y3429000D01*
X69387200Y3429000D02*
X71287100Y5328900D01*
X71287100Y5328900D02*
X71412700Y5328900D01*
%TO.N,$1N125064*%
X73012900Y5323800D02*
X73012900Y6981500D01*
X73012900Y6981500D02*
X73016400Y6985000D01*
%TO.N,232_1_TX*%
D16*
X85483300Y43591000D02*
X85148500Y43256200D01*
X85148500Y43256200D02*
X84621500Y43256200D01*
%TO.N,232_1_RX*%
X85443100Y44841200D02*
X85148500Y45135800D01*
X85148500Y45135800D02*
X84621500Y45135800D01*
%TO.N,232_2_RX*%
X85462300Y34636600D02*
X85173900Y34925000D01*
X85173900Y34925000D02*
X84646900Y34925000D01*
%TO.N,232_2_TX*%
X85540300Y33386400D02*
X85173900Y33020000D01*
X85173900Y33020000D02*
X84646900Y33020000D01*
%TO.N,485_2_A*%
X86147500Y26959100D02*
X85947000Y27159700D01*
X85947000Y27159700D02*
X85220000Y27159700D01*
%TO.N,485_2_B*%
X86146500Y25709200D02*
X85947000Y25509700D01*
X85947000Y25509700D02*
X85220000Y25509700D01*
%TO.N,485_1_A*%
X86146500Y19281700D02*
X85947000Y19481200D01*
X85947000Y19481200D02*
X85220000Y19481200D01*
%TO.N,485_1_B*%
X86147500Y18031800D02*
X85947000Y17831300D01*
X85947000Y17831300D02*
X85220000Y17831300D01*
%TO.N,232_1_TX*%
X86993900Y43591000D02*
X85483300Y43591000D01*
%TO.N,232_1_RX*%
X86993900Y44841200D02*
X85443100Y44841200D01*
%TO.N,232_2_TX*%
X86993900Y33386400D02*
X85540300Y33386400D01*
%TO.N,232_2_RX*%
X86993900Y34636600D02*
X85462300Y34636600D01*
%TO.N,485_2_A*%
X87195900Y26959100D02*
X86147500Y26959100D01*
%TO.N,485_2_B*%
X87195900Y25709200D02*
X86146500Y25709200D01*
%TO.N,485_1_A*%
X87195900Y19281700D02*
X86146500Y19281700D01*
%TO.N,485_1_B*%
X87195900Y18031800D02*
X86147500Y18031800D01*
%TO.N,+5V_A*%
D18*
X85712500Y37136500D02*
X85660000Y37084000D01*
X86279200Y37136500D02*
X85712500Y37136500D01*
X87755900Y37136500D02*
X86890400Y37136500D01*
X86890400Y37136500D02*
X86279200Y37136500D01*
X85533000Y47371000D02*
X86144600Y47371000D01*
X86144600Y47371000D02*
X86840000Y47371000D01*
X86840000Y47371000D02*
X87725900Y47371000D01*
X87725900Y47371000D02*
X87755900Y47341000D01*
%TO.N,FLASH_CS*%
D14*
X33017500Y37984600D02*
X33728700Y38695800D01*
X33728700Y39362600D02*
X34329100Y39963000D01*
X33728700Y38695800D02*
X33728700Y39362600D01*
%TO.N,FLASH_MOSI*%
X34078300Y36923900D02*
X34806200Y37651900D01*
X34806200Y37651900D02*
X35411800Y37651900D01*
X35411800Y37651900D02*
X36026000Y38266100D01*
%TO.N,CS*%
X35602000Y41235900D02*
X35179000Y40812900D01*
%TO.N,SCK*%
X36167600Y40670300D02*
X36645200Y41148000D01*
%TO.N,FLASH_SCK*%
X33371200Y37631000D02*
X34163000Y38422800D01*
X34163000Y38422800D02*
X34163000Y38665800D01*
X34163000Y38665800D02*
X34894700Y39397400D01*
%TO.N,FLASH_MISO*%
X33724600Y37277500D02*
X34547100Y38100000D01*
X34547100Y38100000D02*
X34728800Y38100000D01*
X34728800Y38100000D02*
X35460400Y38831700D01*
%TO.N,CS*%
X35179000Y40812900D02*
X35179000Y40132000D01*
X35179000Y40132000D02*
X35964400Y39346600D01*
X35964400Y39346600D02*
X36044600Y39346600D01*
%TO.N,MISO*%
X36733300Y40104600D02*
X37004400Y40375600D01*
X37004400Y40375600D02*
X37004400Y40720000D01*
%TO.N,SCK*%
X36645200Y41148000D02*
X37338000Y41148000D01*
%TO.N,GND*%
D17*
X27997400Y37277500D02*
X27178000Y38096900D01*
X27178000Y38096900D02*
X27178000Y38100000D01*
X32310400Y38691800D02*
X31496000Y37877300D01*
X31496000Y37877300D02*
X31496000Y37846000D01*
%TO.N,SPI3_CS*%
D14*
X29411600Y20236200D02*
X28702000Y19526700D01*
%TO.N,CAN_1_TX*%
D16*
X28324400Y17837600D02*
X30918600Y17837600D01*
%TO.N,SPI3_MOSI*%
D14*
X24461700Y25186200D02*
X23241000Y23965500D01*
X23241000Y23965500D02*
X23241000Y22352000D01*
%TO.N,VCC*%
D17*
X22533500Y29645600D02*
X22533500Y29621800D01*
X22533500Y29621800D02*
X21279800Y28368000D01*
%TO.N,CAN_1_RX*%
D16*
X29814100Y18247000D02*
X29845400Y18278300D01*
X28489000Y18247000D02*
X29814100Y18247000D01*
%TO.N,SPI3_CS*%
D14*
X28702000Y19526700D02*
X28702000Y18796000D01*
X28702000Y18796000D02*
X28657200Y18751200D01*
%TO.N,SWCLK*%
D16*
X29765000Y19882800D02*
X29765000Y19211000D01*
X29765000Y19211000D02*
X29410900Y18856800D01*
%TO.N,CAN_1_RX*%
X27997400Y21650500D02*
X26835600Y20488700D01*
X26835600Y20488700D02*
X26835600Y19900400D01*
X26835600Y19900400D02*
X28489000Y18247000D01*
%TO.N,CAN_1_TX*%
X27643700Y22004100D02*
X26416000Y20776400D01*
X26416000Y20776400D02*
X26416000Y19746000D01*
X26416000Y19746000D02*
X28324400Y17837600D01*
%TO.N,SPI3_SCK*%
D14*
X29057900Y20589900D02*
X28217200Y19749100D01*
X28217200Y19749100D02*
X28217200Y19205900D01*
%TO.N,SPI3_MISO*%
X28704500Y20943400D02*
X27789200Y20028000D01*
X27789200Y20028000D02*
X27789200Y19629300D01*
%TO.N,U5_TEST_RX*%
X27290300Y22357600D02*
X26261600Y21328800D01*
X26261600Y21328800D02*
X26261600Y21308600D01*
%TO.N,U5_TEST_TX*%
X28350800Y21297000D02*
X28350800Y21275700D01*
X28350800Y21275700D02*
X27276300Y20201200D01*
%TO.N,U5_TEST_RX*%
X16267000Y29444900D02*
X16117000Y29444900D01*
X14975800Y34681200D02*
X14643100Y34681200D01*
X16117000Y29444900D02*
X15640000Y29921900D01*
X15640000Y29921900D02*
X15640000Y34017000D01*
X15640000Y34017000D02*
X14975800Y34681200D01*
%TO.N,U5_TEST_TX*%
X15931900Y28645100D02*
X16267000Y28645100D01*
%TO.N,$3N1507*%
X8763000Y34036000D02*
X7271000Y34036000D01*
%TO.N,$3N1508*%
X7271000Y35306000D02*
X8763000Y35306000D01*
X9398000Y34671000D02*
X9398000Y32385000D01*
X9398000Y32385000D02*
X9652000Y32131000D01*
X8763000Y35306000D02*
X9398000Y34671000D01*
X9652000Y32131000D02*
X12700000Y32131000D01*
X12700000Y32131000D02*
X13786100Y31044900D01*
X13786100Y31044900D02*
X14467000Y31044900D01*
%TO.N,$3N1507*%
X14467000Y30245000D02*
X13569900Y30245000D01*
X13569900Y30245000D02*
X12954000Y30861000D01*
X12954000Y30861000D02*
X9652000Y30861000D01*
%TO.N,$3N1506*%
X14467000Y28645100D02*
X13532100Y28645100D01*
X13532100Y28645100D02*
X13208000Y28321000D01*
%TO.N,$3N1505*%
X14467000Y29444900D02*
X13569900Y29444900D01*
X13569900Y29444900D02*
X13081000Y28956000D01*
X13081000Y28956000D02*
X11271000Y28956000D01*
%TO.N,$3N1506*%
X13208000Y28321000D02*
X9398000Y28321000D01*
X9398000Y28321000D02*
X8763000Y28956000D01*
X8763000Y28956000D02*
X7271000Y28956000D01*
%TO.N,$3N1507*%
X9652000Y30861000D02*
X9017000Y31496000D01*
X9017000Y31496000D02*
X9017000Y33782000D01*
X9017000Y33782000D02*
X8763000Y34036000D01*
%TO.N,U5_TEST_RX*%
X17879600Y29436600D02*
X17871200Y29444900D01*
X17871200Y29444900D02*
X16267000Y29444900D01*
%TO.N,SWDIO*%
X16267000Y31044900D02*
X17907000Y31044900D01*
%TO.N,SWCLK*%
D16*
X17907000Y30226000D02*
X17888000Y30245000D01*
X17888000Y30245000D02*
X16267000Y30245000D01*
%TO.N,U5_TEST_TX*%
D14*
X17830900Y28625900D02*
X17811700Y28645100D01*
X17811700Y28645100D02*
X16267000Y28645100D01*
X14643100Y33157200D02*
X15128200Y33157200D01*
X15128200Y33157200D02*
X15367000Y32918400D01*
X15367000Y32918400D02*
X15367000Y29210000D01*
X15367000Y29210000D02*
X15931900Y28645100D01*
%TO.N,WS2812*%
X34785400Y22711200D02*
X35560000Y21936600D01*
X35560000Y21936600D02*
X35560000Y21913900D01*
X36957000Y14605000D02*
X37059900Y14502100D01*
X37059900Y14502100D02*
X38060000Y14502100D01*
%TO.N,GND*%
D17*
X32310400Y20236200D02*
X33147000Y19399700D01*
X33147000Y19399700D02*
X33147000Y19149200D01*
%TO.N,SWDIO*%
D14*
X31115000Y22860000D02*
X31115000Y22845900D01*
X31115000Y22845900D02*
X33017500Y20943400D01*
%TO.N,VCC*%
D17*
X31060400Y20755600D02*
X31084200Y20755600D01*
X31084200Y20755600D02*
X31957000Y19882800D01*
%TO.N,$2N591*%
X31766700Y21461900D02*
X31792100Y21461900D01*
X31792100Y21461900D02*
X32664100Y20589900D01*
%TO.N,+5V*%
D18*
X44944900Y8622900D02*
X45325900Y8622900D01*
X44563900Y7455000D02*
X44563900Y8241900D01*
X44563900Y8241900D02*
X44944900Y8622900D01*
X45325900Y8622900D02*
X45339000Y8636000D01*
X45339000Y8636000D02*
X46000000Y8636000D01*
X39763800Y7455000D02*
X39645400Y7573500D01*
X39645400Y7573500D02*
X39645400Y8173400D01*
X39645400Y8173400D02*
X39636800Y8181900D01*
X39636800Y8181900D02*
X39636800Y8369200D01*
X39143300Y8862700D02*
X38797000Y9209000D01*
X38797000Y9209000D02*
X38608000Y9209000D01*
D17*
X33060000Y14502100D02*
X35179000Y14502100D01*
%TO.N,VCC*%
X39649900Y16510000D02*
X39649900Y17043900D01*
X39649900Y17043900D02*
X40132000Y17526000D01*
%TO.N,+5V*%
X52794100Y8447000D02*
X52816500Y8424600D01*
X50292000Y8447000D02*
X51421800Y8447000D01*
X51421800Y8447000D02*
X52794100Y8447000D01*
X52805300Y13704800D02*
X52816500Y13716000D01*
X50241200Y13704800D02*
X51465500Y13704800D01*
X51465500Y13704800D02*
X52805300Y13704800D01*
X52805300Y19038800D02*
X52816500Y19050000D01*
X50266600Y19038800D02*
X51401700Y19038800D01*
X51401700Y19038800D02*
X52805300Y19038800D01*
X52805300Y24372800D02*
X52816500Y24384000D01*
X50292000Y24372800D02*
X51449600Y24372800D01*
X51449600Y24372800D02*
X52805300Y24372800D01*
X52802300Y29732200D02*
X52816500Y29718000D01*
X50266600Y29732200D02*
X51398300Y29732200D01*
X51398300Y29732200D02*
X52802300Y29732200D01*
X52805300Y35040800D02*
X52816500Y35052000D01*
X50419000Y35040800D02*
X51414500Y35040800D01*
X51414500Y35040800D02*
X52805300Y35040800D01*
%TO.N,GND*%
X52816500Y38862000D02*
X50546000Y38862000D01*
X52816500Y33528000D02*
X51435000Y33528000D01*
X50419000Y33640800D02*
X50531800Y33528000D01*
X50531800Y33528000D02*
X51435000Y33528000D01*
X52678300Y28332200D02*
X52816500Y28194000D01*
X50266600Y28332200D02*
X51474200Y28332200D01*
X51474200Y28332200D02*
X52678300Y28332200D01*
X52703700Y22972800D02*
X52816500Y22860000D01*
X50292000Y22972800D02*
X51471200Y22972800D01*
X51471200Y22972800D02*
X52703700Y22972800D01*
X52703700Y17638800D02*
X52816500Y17526000D01*
X50266600Y17638800D02*
X51471200Y17638800D01*
X51471200Y17638800D02*
X52703700Y17638800D01*
X52746300Y12304800D02*
X52816500Y12234600D01*
X50241200Y12304800D02*
X51401600Y12304800D01*
X51401600Y12304800D02*
X52746300Y12304800D01*
X46482000Y41086000D02*
X46482000Y41783000D01*
%TO.N,+5V*%
X46482000Y39686000D02*
X48460700Y39686000D01*
X48460700Y39686000D02*
X48514000Y39632600D01*
%TO.N,$4N30711*%
X48514000Y41139400D02*
X50840400Y41139400D01*
X50840400Y41139400D02*
X50849000Y41148000D01*
%TO.N,+5V*%
X46482000Y44512000D02*
X47371000Y44512000D01*
X48514000Y44458600D02*
X48460700Y44512000D01*
X48460700Y44512000D02*
X47371000Y44512000D01*
%TO.N,$4N30658*%
X48514000Y45965400D02*
X50713400Y45965400D01*
X50713400Y45965400D02*
X50849000Y46101000D01*
%TO.N,CAN_2_RX*%
D16*
X37338000Y27813000D02*
X37338000Y28055200D01*
%TO.N,VCC*%
D17*
X28575000Y36068000D02*
X28499600Y36068000D01*
X28499600Y36068000D02*
X27643700Y36923900D01*
%TO.N,$3N1509*%
D14*
X16391600Y48387000D02*
X16391600Y48358200D01*
X16391600Y48358200D02*
X14769400Y46736000D01*
X12065000Y46736000D02*
X10795000Y48006000D01*
X14769400Y46736000D02*
X12065000Y46736000D01*
%TO.N,$3N1516*%
X16391600Y45466000D02*
X16391600Y45437200D01*
X16391600Y45437200D02*
X15150400Y44196000D01*
X12065000Y44196000D02*
X10795000Y45466000D01*
X15150400Y44196000D02*
X12065000Y44196000D01*
%TO.N,CAN_2_TX*%
X24108200Y25539600D02*
X25111600Y26543000D01*
X25111600Y26543000D02*
X25146000Y26543000D01*
%TO.N,I2C1_SDA*%
X23754600Y25893300D02*
X27813000Y29951700D01*
X27813000Y29951700D02*
X27813000Y29972000D01*
%TO.N,I2C1_SCL*%
X23047500Y26600400D02*
X27051000Y30603900D01*
X27051000Y30603900D02*
X27051000Y30607000D01*
%TO.N,GND*%
D17*
X46482000Y45912000D02*
X46482000Y47244000D01*
%TO.N,CAN_1_L*%
D19*
X85220000Y4126900D02*
X86778700Y4126900D01*
X86778700Y4126900D02*
X86978600Y3927000D01*
X86978600Y3927000D02*
X87957900Y3927000D01*
%TO.N,CAN_1_H*%
X85220000Y2477000D02*
X86778600Y2477000D01*
X86778600Y2477000D02*
X86978600Y2677000D01*
X86978600Y2677000D02*
X87957900Y2677000D01*
%TO.N,CAN_2_L*%
X85220000Y11873900D02*
X86709000Y11873900D01*
X86709000Y11873900D02*
X86978600Y11604400D01*
X86978600Y11604400D02*
X87957900Y11604400D01*
%TO.N,CAN_2_H*%
X85220000Y10224000D02*
X86848200Y10224000D01*
X86848200Y10224000D02*
X86978600Y10354400D01*
X86978600Y10354400D02*
X87957900Y10354400D01*
%TO.N,USB_DM*%
D20*
X43037800Y12506900D02*
X43037800Y12709500D01*
%TO.N,USB_DP*%
X41137800Y12506900D02*
X41137800Y12709500D01*
%TO.N,USB_DM*%
X42799000Y11167400D02*
X42799000Y12268100D01*
X42799000Y12268100D02*
X43037800Y12506900D01*
%TO.N,USB_DP*%
X41402000Y11167400D02*
X41402000Y12242700D01*
X41402000Y12242700D02*
X41137800Y12506900D01*
%TO.N,USB_DM*%
D15*
X43037800Y12709500D02*
X43037800Y16383700D01*
X35584500Y19790600D02*
X33724600Y21650500D01*
X39720200Y19701300D02*
X35800100Y19701300D01*
X42948500Y16599300D02*
X39935700Y19612000D01*
%TO.N,USB_DP*%
D20*
X41010800Y12709500D02*
X41029600Y12728300D01*
X41029600Y12728300D02*
X41029600Y16510000D01*
X33371200Y21297000D02*
X35366800Y19301400D01*
X35582300Y19212100D02*
X36008800Y19212100D01*
X36224300Y19122800D02*
X36337200Y19009800D01*
X36337200Y19009800D02*
X36337200Y18871200D01*
X36337200Y18871200D02*
X36539500Y18669000D01*
X36539500Y18669000D02*
X36707000Y18669000D01*
X36707000Y18669000D02*
X36909200Y18871200D01*
X36909200Y18871200D02*
X36909200Y19009800D01*
X36909200Y19009800D02*
X37022200Y19122800D01*
X37237700Y19212100D02*
X37355000Y19212100D01*
X37570500Y19122800D02*
X37683500Y19009800D01*
X37683500Y19009800D02*
X37683500Y18871200D01*
X37683500Y18871200D02*
X37885700Y18669000D01*
X37885700Y18669000D02*
X38053300Y18669000D01*
X38053300Y18669000D02*
X38255500Y18871200D01*
X38255500Y18871200D02*
X38255500Y19009800D01*
X38255500Y19009800D02*
X38368500Y19122800D01*
X39621400Y19122800D02*
X41067400Y17676800D01*
X41156600Y17461300D02*
X41156600Y16510000D01*
X38584000Y19212100D02*
X39405800Y19212100D01*
%TO.N,$1N131581*%
D14*
X18531000Y34995100D02*
X17850100Y34995100D01*
X17850100Y34995100D02*
X17399000Y34544000D01*
%TO.N,$1N131583*%
X17888000Y35795000D02*
X18531000Y35795000D01*
X16243300Y34676100D02*
X16769100Y34676100D01*
X16769100Y34676100D02*
X17888000Y35795000D01*
%TO.N,$1N131585*%
X18125300Y36595100D02*
X18531000Y36595100D01*
X16243300Y37978100D02*
X16742200Y37978100D01*
X16742200Y37978100D02*
X18125300Y36595100D01*
%TO.N,$1N131581*%
X17399000Y34544000D02*
X17399000Y33655000D01*
X17399000Y33655000D02*
X16896100Y33152100D01*
X16896100Y33152100D02*
X16243300Y33152100D01*
%TO.N,U4_RF_TX*%
X14643100Y39507200D02*
X13832800Y39507200D01*
X13832800Y39507200D02*
X11176000Y42164000D01*
%TO.N,U4_RF_RX*%
X14086800Y37983200D02*
X9906000Y42164000D01*
%TO.N,NRST*%
X7271000Y30226000D02*
X8890000Y30226000D01*
%TO.N,VCC*%
D17*
X20331000Y35795000D02*
X19698200Y35795000D01*
X20331000Y34995100D02*
X19698200Y34995100D01*
X20331000Y36595100D02*
X20312000Y36576000D01*
X20312000Y36576000D02*
X19698200Y36576000D01*
X20331000Y37394900D02*
X20274200Y37338000D01*
X20274200Y37338000D02*
X19698200Y37338000D01*
%TO.N,BOOT0*%
D14*
X17145000Y44450000D02*
X17145000Y47633600D01*
X17145000Y47633600D02*
X17898400Y48387000D01*
X16717000Y44022000D02*
X17145000Y44450000D01*
%TO.N,$1N131593*%
X18531000Y37394900D02*
X17914000Y37394900D01*
X17914000Y37394900D02*
X16243300Y39065500D01*
X16243300Y39065500D02*
X16243300Y39502100D01*
%TO.N,U4_RF_RX*%
X15377200Y37983200D02*
X15494000Y38100000D01*
X15494000Y38100000D02*
X15494000Y39878000D01*
X15494000Y39878000D02*
X15875000Y40259000D01*
%TO.N,SPI2_CS*%
X17240800Y41306200D02*
X17240800Y42001800D01*
%TO.N,BOOT0*%
X19194100Y38717900D02*
X16717000Y41195000D01*
X16717000Y41195000D02*
X16717000Y44022000D01*
%TO.N,U4_RF_TX*%
X14643100Y39507200D02*
X14643100Y40043100D01*
X14643100Y40043100D02*
X15113000Y40513000D01*
X15113000Y40513000D02*
X16891000Y40513000D01*
%TO.N,SPI2_MOSI*%
X19289100Y40273900D02*
X19289100Y40371100D01*
%TO.N,SPI2_MISO*%
X18654100Y40400900D02*
X18654100Y40498100D01*
%TO.N,U4_RF_TX*%
X16891000Y40513000D02*
X18589000Y38815000D01*
X18589000Y38815000D02*
X18589000Y38717800D01*
%TO.N,U4_RF_RX*%
X15875000Y40259000D02*
X16637000Y40259000D01*
X16637000Y40259000D02*
X17526000Y39370000D01*
X17526000Y39370000D02*
X17526000Y39272700D01*
X28575000Y39653800D02*
X28575000Y39528300D01*
X28575000Y39528300D02*
X29411600Y38691800D01*
%TO.N,U4_RF_TX*%
X27940000Y39450000D02*
X27946000Y39450000D01*
X27946000Y39450000D02*
X29057900Y38338100D01*
%TO.N,VCC*%
D18*
X11271000Y35306000D02*
X13023200Y35306000D01*
X13023200Y35306000D02*
X13716000Y35306000D01*
%TO.N,+5V*%
X11271000Y36576000D02*
X9652000Y36576000D01*
X9652000Y36576000D02*
X7366000Y38862000D01*
X7366000Y38862000D02*
X3937000Y38862000D01*
X7366000Y42164000D02*
X6604000Y41402000D01*
X6604000Y41402000D02*
X3937000Y41402000D01*
%TO.N,NRST*%
D14*
X20641900Y44612900D02*
X20641900Y43725600D01*
X20641900Y43725600D02*
X21017000Y43350600D01*
X21017000Y43350600D02*
X21017000Y42799000D01*
X21017000Y42799000D02*
X21017000Y41201300D01*
X21017000Y41201300D02*
X20963600Y41148000D01*
X21017000Y42799000D02*
X21463000Y42799000D01*
X21463000Y42799000D02*
X21717000Y42545000D01*
X21717000Y42545000D02*
X21717000Y42164000D01*
X21717000Y42164000D02*
X21971000Y41910000D01*
X21971000Y41910000D02*
X23876000Y41910000D01*
X23876000Y41910000D02*
X26543000Y39243000D01*
X26543000Y39243000D02*
X26543000Y38481000D01*
X27813000Y33219300D02*
X25876100Y35156200D01*
%TO.N,$2N590*%
D17*
X40088800Y30913400D02*
X39097200Y29921900D01*
X39097200Y29921900D02*
X38023100Y29921900D01*
%TO.N,VCC*%
X28704500Y37984600D02*
X29478100Y37211000D01*
X29478100Y37211000D02*
X29845000Y37211000D01*
%TO.N,I2C2_SDA*%
D14*
X39075100Y30607000D02*
X39735100Y31267100D01*
%TO.N,I2C2_SCL*%
X39381600Y31620500D02*
X38749100Y30988000D01*
%TO.N,I2C2_SDA*%
X30577900Y37303900D02*
X37274800Y30607000D01*
X37274800Y30607000D02*
X39075100Y30607000D01*
%TO.N,I2C2_SCL*%
X38749100Y30988000D02*
X37324800Y30988000D01*
X37324800Y30988000D02*
X30988000Y37324800D01*
%TO.N,SCK*%
X37338000Y41148000D02*
X39773300Y38712700D01*
X39773300Y38712700D02*
X39773300Y38458700D01*
%TO.N,MOSI*%
X37298900Y39539000D02*
X38439800Y38398000D01*
X38439800Y38398000D02*
X38439800Y37125200D01*
%TO.N,PE9*%
X33147000Y43180000D02*
X33147000Y44532000D01*
%TO.N,PE8*%
X31877000Y43180000D02*
X31877000Y44532000D01*
%TO.N,PE12*%
X31877000Y46990000D02*
X31877000Y48432000D01*
%TO.N,R485_2_EN*%
X41756900Y42545000D02*
X42899900Y43688000D01*
X42899900Y43688000D02*
X50849000Y43688000D01*
%TO.N,R485_1_EN*%
X41756900Y43307000D02*
X47090900Y48641000D01*
X47090900Y48641000D02*
X50849000Y48641000D01*
%TO.N,PE12*%
X32931800Y45935200D02*
X31877000Y46990000D01*
%TO.N,PE13*%
X33909000Y46228000D02*
X33147000Y46990000D01*
X33147000Y46990000D02*
X33147000Y48432000D01*
%TO.N,PE14*%
X34925000Y46482000D02*
X34417000Y46990000D01*
X34417000Y46990000D02*
X34417000Y48432000D01*
%TO.N,PE15*%
X35687000Y48432000D02*
X35687000Y46990000D01*
X35687000Y46990000D02*
X35941000Y46736000D01*
%TO.N,PE13*%
X36322000Y46228000D02*
X33909000Y46228000D01*
%TO.N,PE14*%
X36449000Y46482000D02*
X34925000Y46482000D01*
%TO.N,PE15*%
X35941000Y46736000D02*
X36576000Y46736000D01*
%TO.N,PE8*%
X36553200Y34448900D02*
X40201300Y38097000D01*
%TO.N,PE9*%
X36906700Y34095500D02*
X40513000Y37701800D01*
%TO.N,PE7*%
X36199600Y34802600D02*
X35386000Y33989000D01*
X35386000Y33989000D02*
X35005000Y33989000D01*
%TO.N,BOOT1*%
X33655000Y35306000D02*
X34544000Y34417000D01*
X34544000Y34417000D02*
X35107100Y34417000D01*
X35107100Y34417000D02*
X35846100Y35156000D01*
%TO.N,I2C2_SDA*%
X30577900Y41177100D02*
X30577900Y37303900D01*
%TO.N,I2C2_SCL*%
X30988000Y37324800D02*
X30988000Y41783000D01*
X30988000Y41783000D02*
X30607000Y42164000D01*
%TO.N,I2C2_SDA*%
X29845000Y41910000D02*
X30577900Y41177100D01*
%TO.N,NRST*%
X24384000Y27178000D02*
X27813000Y30607000D01*
X27813000Y30607000D02*
X27813000Y33219300D01*
%TO.N,BOOT0*%
X19194100Y27541900D02*
X19194100Y38717900D01*
X23401100Y26246700D02*
X22554400Y25400000D01*
X22554400Y25400000D02*
X21336000Y25400000D01*
X21336000Y25400000D02*
X19194100Y27541900D01*
%TO.N,PE1*%
X21986900Y27660900D02*
X21275700Y26949700D01*
X21275700Y26949700D02*
X20929300Y26949700D01*
%TO.N,PE0*%
X21629200Y26596300D02*
X22340400Y27307500D01*
X20774700Y26596300D02*
X21629200Y26596300D01*
%TO.N,OSC_OUT*%
D16*
X24640500Y35684500D02*
X25522400Y34802600D01*
X24037800Y35684500D02*
X24640500Y35684500D01*
%TO.N,OSC_IN*%
X24384000Y35179400D02*
X24438700Y35179400D01*
X24438700Y35179400D02*
X25169000Y34449100D01*
%TO.N,GND*%
D17*
X24461700Y33741800D02*
X25021300Y33182200D01*
X25021300Y33182200D02*
X25021300Y32636700D01*
%TO.N,PE1*%
D14*
X20929300Y26949700D02*
X20066000Y27813000D01*
X20066000Y27813000D02*
X20066000Y29860900D01*
X20066000Y29860900D02*
X20183800Y29978700D01*
%TO.N,PE0*%
X19749100Y30480000D02*
X19749100Y27621900D01*
X19749100Y27621900D02*
X20774700Y26596300D01*
%TO.N,PE2*%
X21279800Y30560000D02*
X20630800Y31209000D01*
X20630800Y31209000D02*
X19622100Y31209000D01*
%TO.N,PE4*%
X21986900Y31267100D02*
X21142000Y32112000D01*
X21142000Y32112000D02*
X19622100Y32112000D01*
%TO.N,PE6*%
X19697100Y32967900D02*
X19655100Y32926000D01*
X22694000Y31974200D02*
X21700200Y32967900D01*
X21700200Y32967900D02*
X19697100Y32967900D01*
%TO.N,PE5*%
X22340400Y31620500D02*
X21421000Y32539900D01*
X21421000Y32539900D02*
X20263100Y32539900D01*
%TO.N,PE3*%
X21633200Y30913400D02*
X20909700Y31637000D01*
X20909700Y31637000D02*
X20251800Y31637000D01*
%TO.N,PE0*%
X28067000Y44532000D02*
X28067000Y45362000D01*
%TO.N,PE2*%
X29337000Y44532000D02*
X29337000Y45362000D01*
X29337000Y45362000D02*
X28521800Y46177200D01*
%TO.N,PE1*%
X26797000Y44532000D02*
X26371000Y44532000D01*
%TO.N,PE5*%
X28067000Y48432000D02*
X28067000Y47602000D01*
%TO.N,PE3*%
X30607000Y48432000D02*
X30607000Y47602000D01*
X30607000Y47602000D02*
X29487000Y46482000D01*
%TO.N,PE1*%
X25825300Y43986300D02*
X25825300Y43979800D01*
X26371000Y44532000D02*
X25825300Y43986300D01*
%TO.N,PE0*%
X25982800Y44895700D02*
X25881200Y44794100D01*
X25982800Y45575200D02*
X25982800Y44895700D01*
%TO.N,PE2*%
X28521800Y46177200D02*
X26267100Y46177200D01*
X26267100Y46177200D02*
X25554800Y45464900D01*
X25554800Y45464900D02*
X25554800Y45359600D01*
%TO.N,PE3*%
X29487000Y46482000D02*
X26072000Y46482000D01*
X26072000Y46482000D02*
X25019000Y45429000D01*
X25019000Y45429000D02*
X25019000Y44683900D01*
X25019000Y44683900D02*
X25025200Y44677700D01*
%TO.N,PE4*%
X29337000Y48432000D02*
X29337000Y47602000D01*
X24591000Y45673000D02*
X24591000Y45560400D01*
%TO.N,PE5*%
X24130000Y44743300D02*
X24169300Y44704000D01*
X24130000Y45720000D02*
X24130000Y44743300D01*
%TO.N,PE7*%
X32610900Y40386000D02*
X32610900Y41049100D01*
X32610900Y41049100D02*
X30607000Y43053000D01*
X30607000Y43053000D02*
X30607000Y44532000D01*
%TO.N,$1N145605*%
X44811900Y30993100D02*
X44310300Y30993100D01*
X44900400Y31057400D02*
X44876300Y31057400D01*
X44876300Y31057400D02*
X44811900Y30993100D01*
%TO.N,SPI2_SCK*%
D16*
X38135000Y28229000D02*
X38608000Y28702000D01*
X38608000Y28702000D02*
X39401500Y28702000D01*
X39401500Y28702000D02*
X40088700Y28014600D01*
%TO.N,CAN_2_RX*%
X37338000Y28055200D02*
X38365800Y29083000D01*
X38365800Y29083000D02*
X39727300Y29083000D01*
X39727300Y29083000D02*
X40442200Y28368000D01*
%TO.N,VCC*%
D17*
X39497100Y29608700D02*
X39497100Y29614900D01*
X39497100Y29614900D02*
X40442200Y30560000D01*
%TO.N,U3_R232_RX*%
D16*
X42799000Y30909300D02*
X42799000Y28321000D01*
X42799000Y28321000D02*
X40259000Y25781000D01*
X42710100Y30998200D02*
X42799000Y30909300D01*
%TO.N,U2_R232_TX*%
D14*
X29765000Y39045200D02*
X29083000Y39727300D01*
%TO.N,$1N145661*%
X46471000Y34690000D02*
X45700900Y34690000D01*
X44952900Y36327100D02*
X44437300Y36327100D01*
%TO.N,$1N145659*%
X45917100Y35489900D02*
X46471000Y35489900D01*
X44437300Y37597100D02*
X45079900Y37597100D01*
X45079900Y37597100D02*
X45669200Y37007800D01*
X45669200Y37007800D02*
X45669200Y35737800D01*
X45669200Y35737800D02*
X45917100Y35489900D01*
%TO.N,$1N145661*%
X45700900Y34690000D02*
X45339000Y35052000D01*
X45339000Y35052000D02*
X45339000Y35941000D01*
X45339000Y35941000D02*
X44952900Y36327100D01*
%TO.N,$1N145607*%
X46471000Y33889900D02*
X44938900Y33889900D01*
X44938900Y33889900D02*
X44310300Y33261300D01*
X44310300Y33261300D02*
X44310300Y32263100D01*
%TO.N,$1N145605*%
X46471000Y33090100D02*
X46287100Y33274000D01*
X46287100Y33274000D02*
X45212000Y33274000D01*
X45212000Y33274000D02*
X44960500Y33022500D01*
%TO.N,$1N145715*%
X46471000Y24022100D02*
X45828000Y24022100D01*
X44952900Y25659100D02*
X44437300Y25659100D01*
%TO.N,$1N145713*%
X45212000Y26924000D02*
X45206900Y26929100D01*
X45206900Y26929100D02*
X44437300Y26929100D01*
X45593000Y25781000D02*
X45593000Y25146000D01*
X45593000Y25146000D02*
X45917100Y24821900D01*
X45917100Y24821900D02*
X46471000Y24821900D01*
%TO.N,$1N145715*%
X45828000Y24022100D02*
X45339000Y24511000D01*
X45339000Y24511000D02*
X45339000Y25273000D01*
X45339000Y25273000D02*
X44952900Y25659100D01*
%TO.N,$1N145775*%
X46471000Y23221900D02*
X45954900Y23221900D01*
X45954900Y23221900D02*
X45339000Y22606000D01*
X45339000Y22606000D02*
X45339000Y21844000D01*
X44963100Y21468100D02*
X44437300Y21468100D01*
X45339000Y21844000D02*
X44963100Y21468100D01*
%TO.N,$1N125152*%
X46471000Y22422100D02*
X46396000Y22422100D01*
X45096800Y19939000D02*
X44569400Y19939000D01*
X44569400Y19939000D02*
X44437300Y20071100D01*
%TO.N,VCC*%
X48271000Y35489900D02*
X47625000Y35489900D01*
X48271000Y34690000D02*
X47644100Y34690000D01*
X47644100Y34690000D02*
X47625000Y34671000D01*
X48271000Y33889900D02*
X47625000Y33889900D01*
X48271000Y33090100D02*
X47625000Y33090100D01*
X48271000Y24821900D02*
X47625000Y24821900D01*
X48271000Y24022100D02*
X48252000Y24003000D01*
X48252000Y24003000D02*
X47625000Y24003000D01*
X48271000Y23221900D02*
X47625000Y23221900D01*
X48271000Y22422100D02*
X47625000Y22422100D01*
%TO.N,+5V*%
D17*
X48514000Y39632600D02*
X49525600Y39632600D01*
X49525600Y39632600D02*
X50165000Y39632600D01*
%TO.N,BOOT1*%
D14*
X17898400Y42367200D02*
X17898400Y45466000D01*
%TO.N,SPI2_CS*%
X26583200Y35863300D02*
X23918500Y38528000D01*
X23918500Y38528000D02*
X20019000Y38528000D01*
X20019000Y38528000D02*
X17240800Y41306200D01*
%TO.N,SPI2_MISO*%
X26936600Y36216800D02*
X24291400Y38862000D01*
X24291400Y38862000D02*
X20193000Y38862000D01*
X20193000Y38862000D02*
X18654100Y40400900D01*
%TO.N,SPI2_MOSI*%
X27290300Y36570400D02*
X24744700Y39116000D01*
X24744700Y39116000D02*
X20447000Y39116000D01*
X20447000Y39116000D02*
X19289100Y40273900D01*
%TO.N,BOOT1*%
X24833200Y40306000D02*
X23897200Y39370000D01*
X23897200Y39370000D02*
X20895500Y39370000D01*
X20895500Y39370000D02*
X17898400Y42367200D01*
%TO.N,U1_R485_RX*%
D16*
X34078300Y22004100D02*
X36006200Y20076200D01*
%TO.N,R485_1_R/D*%
D19*
X71120000Y20320000D02*
X71120000Y20828000D01*
X71120000Y20828000D02*
X70612000Y21336000D01*
X70612000Y21336000D02*
X69490600Y21336000D01*
%TO.N,R485_2_R/D*%
X71120000Y25654000D02*
X71120000Y25908000D01*
X71120000Y25908000D02*
X70485000Y26543000D01*
X70485000Y26543000D02*
X69490600Y26543000D01*
%TO.N,$4N2206*%
X78623200Y10158500D02*
X78905500Y9876200D01*
%TO.N,$4N8812*%
X78623200Y10669500D02*
X78905500Y10951800D01*
%TO.N,$4N2206*%
X75540400Y10247800D02*
X78407600Y10247800D01*
%TO.N,$4N8812*%
X74945400Y11049100D02*
X75324900Y10669500D01*
X75540500Y10580200D02*
X78407600Y10580200D01*
%TO.N,$4N2206*%
X79837400Y10247800D02*
X80682700Y9402400D01*
%TO.N,$4N8812*%
X80064400Y10491000D02*
X81015200Y9540200D01*
%TO.N,$4N2206*%
X79336500Y9876200D02*
X79708100Y10247800D01*
X79708100Y10247800D02*
X79837400Y10247800D01*
%TO.N,$4N8812*%
X79336500Y10951800D02*
X79618800Y10669500D01*
X79834400Y10580200D02*
X79848900Y10580200D01*
%TO.N,$4N2206*%
X80861300Y4035700D02*
X82420000Y2477000D01*
%TO.N,$4N8812*%
X81193800Y4173400D02*
X81765500Y3601700D01*
X81765500Y3601700D02*
X81894800Y3601700D01*
X81894800Y3601700D02*
X82420000Y4126900D01*
%TO.N,$4N2206*%
X80772000Y9186900D02*
X80772000Y4251200D01*
%TO.N,$4N8812*%
X81104500Y9324600D02*
X81104500Y4388900D01*
%TO.N,$4N9061*%
X78623200Y15111500D02*
X78905500Y14829200D01*
%TO.N,$4N9079*%
X78623200Y15622500D02*
X78905500Y15904800D01*
%TO.N,$4N9061*%
X74945400Y14859100D02*
X75197800Y15111500D01*
X75413400Y15200800D02*
X78407600Y15200800D01*
%TO.N,$4N9079*%
X74945400Y16129100D02*
X75451900Y15622500D01*
X75667500Y15533200D02*
X78407600Y15533200D01*
%TO.N,$4N9061*%
X79837400Y15200800D02*
X80703800Y14334400D01*
X79336500Y14829200D02*
X79708100Y15200800D01*
X79708100Y15200800D02*
X79837400Y15200800D01*
%TO.N,$4N9079*%
X79336500Y15904800D02*
X79618800Y15622500D01*
X79834400Y15533200D02*
X79848900Y15533200D01*
%TO.N,$4N9061*%
X80793100Y14118800D02*
X80793100Y11977100D01*
X80882400Y11761600D02*
X82420000Y10224000D01*
%TO.N,$4N9079*%
X81125600Y14256600D02*
X81125600Y12114900D01*
X81214800Y11899300D02*
X81765500Y11348700D01*
X81765500Y11348700D02*
X81894800Y11348700D01*
X81894800Y11348700D02*
X82420000Y11873900D01*
X80064400Y15444000D02*
X81036300Y14472100D01*
%TO.N,$4N12057*%
X75035400Y20066000D02*
X75414900Y20445500D01*
X78605900Y20445500D02*
X78905500Y20145900D01*
%TO.N,$4N12067*%
X75035400Y21336000D02*
X75414900Y20956500D01*
X78605900Y20956500D02*
X78905500Y21256100D01*
%TO.N,$4N12057*%
X75630400Y20534800D02*
X78390400Y20534800D01*
%TO.N,$4N12067*%
X75630400Y20867200D02*
X78390400Y20867200D01*
%TO.N,$4N12057*%
X79336500Y20145900D02*
X79636100Y20445500D01*
X80147200Y20445500D02*
X80429500Y20163200D01*
%TO.N,$4N12067*%
X79336500Y21256100D02*
X79636100Y20956500D01*
X80147200Y20956500D02*
X80429500Y21238800D01*
%TO.N,$4N12057*%
X79851600Y20534800D02*
X79931600Y20534800D01*
%TO.N,$4N12067*%
X79851600Y20867200D02*
X79931600Y20867200D01*
%TO.N,$4N12057*%
X81361400Y20534800D02*
X81452800Y20443300D01*
%TO.N,$4N12067*%
X81588400Y20778000D02*
X81696000Y20670300D01*
%TO.N,$4N12057*%
X80860500Y20163200D02*
X81232100Y20534800D01*
X81232100Y20534800D02*
X81361400Y20534800D01*
%TO.N,$4N12067*%
X80860500Y21238800D02*
X81142800Y20956500D01*
%TO.N,$4N12057*%
X81452800Y20443300D02*
X81452800Y18924700D01*
X81542100Y18709200D02*
X82420000Y17831300D01*
%TO.N,$4N12067*%
X81358400Y20867200D02*
X81372900Y20867200D01*
X81785300Y20454800D02*
X81785300Y18936200D01*
X81785300Y18936200D02*
X81874900Y18936200D01*
X81874900Y18936200D02*
X82420000Y19481200D01*
%TO.N,$4N12047*%
X75035400Y25273000D02*
X75414900Y25652500D01*
X78496200Y25652500D02*
X78778500Y25370200D01*
X75630400Y25741800D02*
X78280600Y25741800D01*
X79209500Y25370200D02*
X79491800Y25652500D01*
X80129900Y25652500D02*
X80429500Y25352900D01*
%TO.N,$4N12037*%
X79209500Y26445800D02*
X79491800Y26163500D01*
X80129900Y26163500D02*
X80645000Y26678600D01*
%TO.N,$4N12047*%
X79707400Y25741800D02*
X79914400Y25741800D01*
%TO.N,$4N12037*%
X79707400Y26074200D02*
X79914400Y26074200D01*
%TO.N,$4N12047*%
X81761300Y26168400D02*
X82420000Y25509700D01*
%TO.N,$4N12037*%
X81850500Y26590200D02*
X82420000Y27159700D01*
%TO.N,$4N12047*%
X80860500Y25352900D02*
X81676100Y26168400D01*
X81676100Y26168400D02*
X81761300Y26168400D01*
%TO.N,$4N12037*%
X80645000Y26678600D02*
X80822700Y26500900D01*
X80822700Y26500900D02*
X81635000Y26500900D01*
X75035400Y26543000D02*
X75414900Y26163500D01*
X75630400Y26074200D02*
X76589200Y26074200D01*
X76589200Y26074200D02*
X76680600Y26165700D01*
X76680600Y26165700D02*
X76680600Y26324600D01*
X76680600Y26324600D02*
X76772000Y26416000D01*
X76772000Y26416000D02*
X76847700Y26416000D01*
X76847700Y26416000D02*
X76939100Y26324600D01*
X76939100Y26324600D02*
X76939100Y26165700D01*
X76939100Y26165700D02*
X77030600Y26074200D01*
X78496200Y26163500D02*
X78778500Y26445800D01*
X77030600Y26074200D02*
X78280600Y26074200D01*
%TO.N,R485_2_EN*%
D14*
X36906700Y24832500D02*
X35780700Y25958500D01*
X35780700Y25958500D02*
X35780700Y31433000D01*
%TO.N,R485_1_EN*%
X36553200Y24479100D02*
X35352700Y25679600D01*
X35352700Y25679600D02*
X35352700Y31923700D01*
%TO.N,VCC*%
X22470400Y41148000D02*
X23661800Y41148000D01*
X23661800Y41148000D02*
X23731500Y41217700D01*
%TO.N,GND*%
D17*
X21633200Y28014600D02*
X23270400Y29651800D01*
X23270400Y29651800D02*
X24793600Y29651800D01*
%TO.N,PE10*%
D14*
X37260300Y33741800D02*
X40767000Y37248500D01*
%TO.N,PE11*%
X41021000Y36795600D02*
X37613800Y33388400D01*
%TO.N,PE12*%
X37967400Y33034700D02*
X41275000Y36342300D01*
%TO.N,PE13*%
X38320900Y32681300D02*
X41529000Y35889400D01*
X41529000Y35889400D02*
X41529000Y41021000D01*
X41529000Y41021000D02*
X36322000Y46228000D01*
%TO.N,PE14*%
X38674500Y32327600D02*
X41783000Y35436100D01*
X41783000Y35436100D02*
X41783000Y41148000D01*
X41783000Y41148000D02*
X36449000Y46482000D01*
%TO.N,PE15*%
X36576000Y46736000D02*
X42037000Y41275000D01*
X42037000Y41275000D02*
X42037000Y34983200D01*
X42037000Y34983200D02*
X39028000Y31974200D01*
%TO.N,PE11*%
X35687000Y44532000D02*
X35732000Y44577000D01*
%TO.N,PE10*%
X34518600Y43128800D02*
X34417000Y43230400D01*
X34417000Y43230400D02*
X34417000Y44532000D01*
%TO.N,PE9*%
X33528000Y42799000D02*
X33147000Y43180000D01*
%TO.N,PE5*%
X28067000Y47602000D02*
X27493800Y47028800D01*
X27493800Y47028800D02*
X25438800Y47028800D01*
X25438800Y47028800D02*
X24130000Y45720000D01*
%TO.N,PE4*%
X29337000Y47602000D02*
X28471000Y46736000D01*
X28471000Y46736000D02*
X25654000Y46736000D01*
X25654000Y46736000D02*
X24591000Y45673000D01*
%TO.N,PE0*%
X28067000Y45362000D02*
X27493800Y45935200D01*
X27493800Y45935200D02*
X26342800Y45935200D01*
X26342800Y45935200D02*
X25982800Y45575200D01*
%TO.N,PE6*%
X26797000Y48432000D02*
X26184900Y48432000D01*
X26184900Y48432000D02*
X23741300Y45988400D01*
%TO.N,VBAT*%
X13462000Y23749000D02*
X13472500Y23738500D01*
X13472500Y23738500D02*
X14559300Y23738500D01*
%TO.N,VCC*%
X14559300Y24538400D02*
X13716000Y24538400D01*
%TO.N,+5V*%
X14559300Y22938400D02*
X13129600Y22938400D01*
X13129600Y22938400D02*
X11684000Y24384000D01*
X11684000Y24384000D02*
X4445000Y24384000D01*
%TO.N,TEST_LED*%
X24815300Y24832500D02*
X24815300Y24815300D01*
X24815300Y24815300D02*
X23669000Y23669000D01*
X23669000Y23669000D02*
X23669000Y22174700D01*
X23669000Y22174700D02*
X21933300Y20439100D01*
X21933300Y20439100D02*
X17046600Y20439100D01*
X17046600Y20439100D02*
X15347100Y22138600D01*
X15347100Y22138600D02*
X14559300Y22138600D01*
%TO.N,U4_RF_RX*%
X14086800Y37983200D02*
X14643100Y37983200D01*
X14643100Y37983200D02*
X15377200Y37983200D01*
%TO.N,+5V_A*%
D18*
X63119000Y4888000D02*
X63119000Y1524000D01*
X63119000Y1524000D02*
X66497500Y1524000D01*
X66497500Y1524000D02*
X67259500Y2286000D01*
%TO.N,+5V*%
X50419000Y4256000D02*
X50357000Y4318000D01*
X50419000Y4256000D02*
X50419000Y1524000D01*
%TO.N,$1N141345*%
D14*
X13030900Y17856900D02*
X7569900Y17856900D01*
X7569900Y17856900D02*
X6349500Y16636500D01*
X26670000Y17963300D02*
X26011300Y18622000D01*
X26011300Y18622000D02*
X13796000Y18622000D01*
X13796000Y18622000D02*
X13030900Y17856900D01*
%TO.N,$4N2206*%
D19*
X74945400Y9779100D02*
X75324800Y10158500D01*
%TO.N,PE8*%
D14*
X32639000Y42418000D02*
X31877000Y43180000D01*
%TO.N,PE12*%
X36233800Y45935200D02*
X32931800Y45935200D01*
X41275000Y40894000D02*
X36233800Y45935200D01*
X41275000Y36342300D02*
X41275000Y40894000D01*
%TO.N,PE11*%
X41021000Y40767000D02*
X41021000Y36795600D01*
X37211000Y44577000D02*
X41021000Y40767000D01*
X35732000Y44577000D02*
X37211000Y44577000D01*
%TO.N,PE10*%
X38151200Y43128800D02*
X34518600Y43128800D01*
X40767000Y40513000D02*
X38151200Y43128800D01*
X40767000Y37248500D02*
X40767000Y40513000D01*
%TO.N,PE9*%
X37973000Y42799000D02*
X33528000Y42799000D01*
X40513000Y40259000D02*
X37973000Y42799000D01*
X40513000Y37701800D02*
X40513000Y40259000D01*
%TO.N,PE8*%
X37846000Y42418000D02*
X32639000Y42418000D01*
X40201300Y40062700D02*
X37846000Y42418000D01*
X40201300Y38097000D02*
X40201300Y40062700D01*
%TO.N,U6_R485_RX*%
D16*
X41539200Y25664200D02*
X42837100Y25664200D01*
%TO.N,U6_R485_TX*%
X42174200Y26934200D02*
X42837100Y26934200D01*
%TO.N,U1_R485_RX*%
X36006200Y20076200D02*
X42837100Y20076200D01*
%TO.N,U1_R485_TX*%
X35316100Y21473200D02*
X42837100Y21473200D01*
D14*
X52816500Y21590000D02*
X51435000Y21590000D01*
%TO.N,U1_R485_RX*%
X52816500Y20320000D02*
X46083000Y20320000D01*
%TO.N,U1_R485_TX*%
X42837100Y20916900D02*
X42837100Y21473200D01*
X43074600Y20679400D02*
X42837100Y20916900D01*
%TO.N,U1_R485_RX*%
X42837100Y19519900D02*
X42837100Y20076200D01*
X46083000Y20320000D02*
X44940000Y19177000D01*
X44940000Y19177000D02*
X43180000Y19177000D01*
X43180000Y19177000D02*
X42837100Y19519900D01*
%TO.N,$1N125152*%
X46396000Y22422100D02*
X45339000Y21365100D01*
X45339000Y21365100D02*
X45339000Y21209000D01*
%TO.N,U1_R485_TX*%
X51435000Y21590000D02*
X50524400Y20679400D01*
X50524400Y20679400D02*
X43074600Y20679400D01*
%TO.N,U6_R485_RX*%
X52816500Y25654000D02*
X51689000Y25654000D01*
%TO.N,U6_R485_TX*%
X52816500Y26924000D02*
X51689000Y26924000D01*
X51689000Y26924000D02*
X50927000Y27686000D01*
X50927000Y27686000D02*
X44106800Y27686000D01*
X44106800Y27686000D02*
X43354900Y26934200D01*
X43354900Y26934200D02*
X42837100Y26934200D01*
%TO.N,U6_R485_RX*%
X45720000Y26289000D02*
X43979800Y26289000D01*
X43979800Y26289000D02*
X43354900Y25664200D01*
X43354900Y25664200D02*
X42837100Y25664200D01*
X51689000Y25654000D02*
X50626000Y26717000D01*
X50626000Y26717000D02*
X46148000Y26717000D01*
X46148000Y26717000D02*
X45720000Y26289000D01*
%TO.N,U3_R232_RX*%
X52816500Y30988000D02*
X45720000Y30988000D01*
X45720000Y30988000D02*
X45085000Y30353000D01*
X45085000Y30353000D02*
X43862900Y30353000D01*
X43862900Y30353000D02*
X43306700Y30909300D01*
X43306700Y30909300D02*
X42799000Y30909300D01*
%TO.N,U3_R232_TX*%
X43862900Y31623000D02*
X43217800Y32268200D01*
X43217800Y32268200D02*
X42710100Y32268200D01*
X52816500Y32258000D02*
X45466000Y32258000D01*
X45466000Y32258000D02*
X44831000Y31623000D01*
X44831000Y31623000D02*
X43862900Y31623000D01*
%TO.N,U2_R232_TX*%
X43444200Y36332200D02*
X42837100Y36332200D01*
X29083000Y39727300D02*
X30025500Y39727300D01*
X30025500Y39727300D02*
X30099000Y39653800D01*
%TO.N,U2_R232_RX*%
X31957000Y39045200D02*
X31723500Y39045200D01*
X31723500Y39045200D02*
X31416000Y39352800D01*
%TO.N,U2_R232_TX*%
X43614300Y38286100D02*
X43614300Y36502300D01*
X43614300Y36502300D02*
X43444200Y36332200D01*
X53975000Y35941000D02*
X53975000Y37465000D01*
X53975000Y37465000D02*
X53848000Y37592000D01*
X53848000Y37592000D02*
X52816500Y37592000D01*
X43614300Y38286100D02*
X47057900Y38286100D01*
X47057900Y38286100D02*
X49657000Y35687000D01*
X49657000Y35687000D02*
X53721000Y35687000D01*
X53721000Y35687000D02*
X53975000Y35941000D01*
%TO.N,U2_R232_RX*%
X44456400Y38764800D02*
X43336800Y38764800D01*
X43336800Y38764800D02*
X42837100Y38265100D01*
X42837100Y38265100D02*
X42837100Y37602200D01*
X44456400Y38764800D02*
X47341200Y38764800D01*
X47341200Y38764800D02*
X49784000Y36322000D01*
X49784000Y36322000D02*
X52816500Y36322000D01*
%TO.N,$4N29961*%
X69527400Y30480000D02*
X68431200Y30480000D01*
X65318800Y34017000D02*
X64781000Y34017000D01*
%TO.N,$4N29965*%
X64781000Y33217100D02*
X65356700Y33217100D01*
X65536300Y33142700D02*
X66092600Y32586400D01*
X66167000Y32406800D02*
X66167000Y31474200D01*
X66241400Y31294600D02*
X68251600Y29284400D01*
X68431200Y29210000D02*
X69527400Y29210000D01*
%TO.N,$4N29961*%
X66802000Y32109200D02*
X66802000Y32533800D01*
X66727600Y32713400D02*
X65498400Y33942600D01*
X68251600Y30554400D02*
X66876400Y31929600D01*
%TO.N,$4N29975*%
X64781000Y34817100D02*
X65407700Y34817100D01*
X68558200Y31115000D02*
X70506800Y31115000D01*
%TO.N,$4N29970*%
X64781000Y35616900D02*
X65369900Y35616900D01*
X68558200Y31750000D02*
X69527400Y31750000D01*
%TO.N,$4N29975*%
X65587300Y34742700D02*
X67235600Y33094400D01*
X67310000Y32914800D02*
X67310000Y32363200D01*
X67384400Y32183600D02*
X68378600Y31189400D01*
%TO.N,$4N29970*%
X65549500Y35542500D02*
X67743600Y33348400D01*
X67818000Y33168800D02*
X67818000Y32490200D01*
X67892400Y32310600D02*
X68378600Y31824400D01*
%TO.N,$4N29975*%
X70633800Y33020000D02*
X69527400Y33020000D01*
X70686400Y31189400D02*
X70918600Y31421600D01*
X70993000Y31601200D02*
X70993000Y32660800D01*
X70918600Y32840400D02*
X70813400Y32945600D01*
%TO.N,$3N6052*%
D15*
X41913900Y7455000D02*
X41913900Y6836700D01*
X42913900Y6836400D02*
X42913900Y7455000D01*
X42554500Y6477000D02*
X42913900Y6836400D01*
X41913900Y6836700D02*
X42273600Y6477000D01*
X42273600Y6477000D02*
X42554500Y6477000D01*
%TO.N,$3N6048*%
X42414100Y8073400D02*
X42414100Y7455000D01*
X41414100Y9648600D02*
X41414100Y8073600D01*
X41414100Y8013100D02*
X41414100Y8073600D01*
X41414100Y8073600D02*
X41731100Y8390700D01*
X41731100Y8390700D02*
X42096700Y8390700D01*
X42096700Y8390700D02*
X42414100Y8073400D01*
%TO.N,$4N30026*%
D14*
X78315400Y44450000D02*
X77956200Y44301200D01*
X81936800Y44598800D02*
X81577600Y44450000D01*
X71776800Y38121800D02*
X71628000Y37762600D01*
X82684200Y45135800D02*
X82325000Y44987000D01*
X71628000Y36532400D02*
X71479200Y36173200D01*
X71014800Y35708800D02*
X70655600Y35560000D01*
%TO.N,$4N30067*%
X81577600Y43942000D02*
X81936800Y43793200D01*
X78464200Y43793200D02*
X78823400Y43942000D01*
X82325000Y43405000D02*
X82684200Y43256200D01*
X72390000Y37508600D02*
X72538800Y37867800D01*
X72241200Y35665200D02*
X72390000Y36024400D01*
X70655600Y34290000D02*
X71014800Y34438800D01*
%TO.N,$4N30105*%
X77894600Y30480000D02*
X78253800Y30628800D01*
X82401200Y34776200D02*
X82760400Y34925000D01*
%TO.N,$4N30146*%
X77513600Y29210000D02*
X77872800Y29358800D01*
X81385200Y32871200D02*
X81744400Y33020000D01*
%TO.N,$4N6226*%
X60198700Y37592000D02*
X60414300Y37502700D01*
X62210800Y35706200D02*
X62426400Y35616900D01*
%TO.N,$4N6221*%
X60922300Y36232700D02*
X60706700Y36322000D01*
X62464200Y34817100D02*
X62248700Y34906300D01*
%TO.N,$4N6231*%
X60452700Y32258000D02*
X60668300Y32347300D01*
X62248700Y33927700D02*
X62464200Y34017000D01*
%TO.N,$4N6216*%
X60160300Y31077300D02*
X59944700Y30988000D01*
X62426400Y33217100D02*
X62210800Y33127800D01*
%TO.N,$4N6256*%
X60071700Y26924000D02*
X60287300Y26834700D01*
X62464800Y24657200D02*
X62680400Y24567900D01*
%TO.N,$4N6260*%
X60452700Y25654000D02*
X60668300Y25564700D01*
X62375700Y23857300D02*
X62591200Y23768000D01*
%TO.N,$4N11569*%
X65462600Y24567900D02*
X65678200Y24657200D01*
X66077700Y25056700D02*
X66167000Y25272300D01*
X66167000Y27051700D02*
X66256300Y27267300D01*
X66712700Y27723700D02*
X66928300Y27813000D01*
%TO.N,$4N11573*%
X67183700Y23768000D02*
X67399300Y23857300D01*
X67455700Y23913700D02*
X67671200Y24003000D01*
%TO.N,$4N10322*%
X67202800Y22967900D02*
X67418300Y22878700D01*
X67601700Y22695300D02*
X67817300Y22606000D01*
%TO.N,$4N11551*%
X65678200Y22078800D02*
X65462600Y22168100D01*
X66167000Y21463700D02*
X66077700Y21679300D01*
X66256300Y19468700D02*
X66167000Y19684300D01*
X67055300Y18796000D02*
X66839700Y18885300D01*
%TO.N,$4N6248*%
X60198700Y21590000D02*
X60414300Y21679300D01*
X61613700Y22878700D02*
X61829200Y22967900D01*
%TO.N,$4N6252*%
X60160300Y20409300D02*
X59944700Y20320000D01*
X62045400Y22168100D02*
X61829800Y22078800D01*
%TO.N,$4N6272*%
X60198700Y16256000D02*
X60414300Y16166700D01*
X62337800Y14243200D02*
X62553400Y14153900D01*
%TO.N,$4N6276*%
X60795300Y14896700D02*
X60579700Y14986000D01*
X62464200Y13354000D02*
X62248700Y13443300D01*
%TO.N,$4N8845*%
X64097300Y13518800D02*
X64008000Y13734300D01*
X64008000Y15240700D02*
X64097300Y15456300D01*
X64388300Y13354000D02*
X64172700Y13443300D01*
X65950800Y17309800D02*
X66166300Y17399100D01*
%TO.N,$4N8849*%
X66166200Y13589100D02*
X65950700Y13678300D01*
X65564400Y14064600D02*
X65348900Y14153900D01*
%TO.N,$4N8748*%
X65950800Y12229800D02*
X66166300Y12319100D01*
X65348900Y11754100D02*
X65564400Y11843400D01*
%TO.N,$4N8754*%
X65823700Y8598300D02*
X66039200Y8509100D01*
X64008000Y10540300D02*
X64097300Y10324700D01*
X64097300Y12408300D02*
X64008000Y12192700D01*
X64369200Y12553900D02*
X64153700Y12464700D01*
%TO.N,$4N6264*%
X60622300Y10964600D02*
X60837900Y11053900D01*
X62248700Y12464700D02*
X62464200Y12553900D01*
%TO.N,$4N6268*%
X62210800Y11664800D02*
X62426400Y11754100D01*
X60114300Y9694600D02*
X60329900Y9783900D01*
%TO.N,USB_DM*%
D15*
X39935700Y19612000D02*
X39720200Y19701300D01*
X43037800Y16383700D02*
X42948500Y16599300D01*
X35800100Y19701300D02*
X35584500Y19790600D01*
%TO.N,USB_DP*%
D20*
X41067400Y17676800D02*
X41156600Y17461300D01*
X39405800Y19212100D02*
X39621400Y19122800D01*
X38368500Y19122800D02*
X38584000Y19212100D01*
X37355000Y19212100D02*
X37570500Y19122800D01*
X37022200Y19122800D02*
X37237700Y19212100D01*
X36008800Y19212100D02*
X36224300Y19122800D01*
X35366800Y19301400D02*
X35582300Y19212100D01*
%TO.N,$4N12037*%
D19*
X81635000Y26500900D02*
X81850500Y26590200D01*
%TO.N,$4N12047*%
X80429500Y25352900D02*
X80860500Y25352900D01*
X79491800Y25652500D02*
X79707400Y25741800D01*
X79914400Y25741800D02*
X80129900Y25652500D01*
X78778500Y25370200D02*
X79209500Y25370200D01*
%TO.N,$4N12037*%
X79491800Y26163500D02*
X79707400Y26074200D01*
X79914400Y26074200D02*
X80129900Y26163500D01*
X78778500Y26445800D02*
X79209500Y26445800D01*
X78280600Y26074200D02*
X78496200Y26163500D01*
X75414900Y26163500D02*
X75630400Y26074200D01*
%TO.N,$4N12047*%
X78280600Y25741800D02*
X78496200Y25652500D01*
X75414900Y25652500D02*
X75630400Y25741800D01*
%TO.N,$4N12057*%
X81452800Y18924700D02*
X81542100Y18709200D01*
X80429500Y20163200D02*
X80860500Y20163200D01*
%TO.N,$4N12067*%
X81372900Y20867200D02*
X81588400Y20778000D01*
X81696000Y20670300D02*
X81785300Y20454800D01*
X81142800Y20956500D02*
X81358400Y20867200D01*
X80429500Y21238800D02*
X80860500Y21238800D01*
X79636100Y20956500D02*
X79851600Y20867200D01*
X79931600Y20867200D02*
X80147200Y20956500D01*
X78905500Y21256100D02*
X79336500Y21256100D01*
%TO.N,$4N12057*%
X79636100Y20445500D02*
X79851600Y20534800D01*
X79931600Y20534800D02*
X80147200Y20445500D01*
X78905500Y20145900D02*
X79336500Y20145900D01*
%TO.N,$4N12067*%
X78390400Y20867200D02*
X78605900Y20956500D01*
X75414900Y20956500D02*
X75630400Y20867200D01*
%TO.N,$4N12057*%
X78390400Y20534800D02*
X78605900Y20445500D01*
X75414900Y20445500D02*
X75630400Y20534800D01*
%TO.N,$4N9061*%
X80703800Y14334400D02*
X80793100Y14118800D01*
X80793100Y11977100D02*
X80882400Y11761600D01*
X78905500Y14829200D02*
X79336500Y14829200D01*
%TO.N,$4N9079*%
X79618800Y15622500D02*
X79834400Y15533200D01*
X79848900Y15533200D02*
X80064400Y15444000D01*
X78905500Y15904800D02*
X79336500Y15904800D01*
X81036300Y14472100D02*
X81125600Y14256600D01*
X81125600Y12114900D02*
X81214800Y11899300D01*
X78407600Y15533200D02*
X78623200Y15622500D01*
X75451900Y15622500D02*
X75667500Y15533200D01*
%TO.N,$4N9061*%
X78407600Y15200800D02*
X78623200Y15111500D01*
X75197800Y15111500D02*
X75413400Y15200800D01*
%TO.N,$4N8812*%
X78407600Y10580200D02*
X78623200Y10669500D01*
X75324900Y10669500D02*
X75540500Y10580200D01*
X78905500Y10951800D02*
X79336500Y10951800D01*
%TO.N,$4N2206*%
X78407600Y10247800D02*
X78623200Y10158500D01*
X75324800Y10158500D02*
X75540400Y10247800D01*
X78905500Y9876200D02*
X79336500Y9876200D01*
%TO.N,$4N8812*%
X81015200Y9540200D02*
X81104500Y9324600D01*
X79848900Y10580200D02*
X80064400Y10491000D01*
X81104500Y4388900D02*
X81193800Y4173400D01*
X79618800Y10669500D02*
X79834400Y10580200D01*
%TO.N,$4N2206*%
X80682700Y9402400D02*
X80772000Y9186900D01*
X80772000Y4251200D02*
X80861300Y4035700D01*
%TO.N,$4N29970*%
D14*
X65369900Y35616900D02*
X65549500Y35542500D01*
X67743600Y33348400D02*
X67818000Y33168800D01*
X67818000Y32490200D02*
X67892400Y32310600D01*
X68378600Y31824400D02*
X68558200Y31750000D01*
%TO.N,$4N29975*%
X65407700Y34817100D02*
X65587300Y34742700D01*
X67235600Y33094400D02*
X67310000Y32914800D01*
X67310000Y32363200D02*
X67384400Y32183600D01*
X68378600Y31189400D02*
X68558200Y31115000D01*
X70506800Y31115000D02*
X70686400Y31189400D01*
X70918600Y31421600D02*
X70993000Y31601200D01*
X70993000Y32660800D02*
X70918600Y32840400D01*
X70813400Y32945600D02*
X70633800Y33020000D01*
%TO.N,$4N29961*%
X65498400Y33942600D02*
X65318800Y34017000D01*
X66802000Y32533800D02*
X66727600Y32713400D01*
X66876400Y31929600D02*
X66802000Y32109200D01*
X68431200Y30480000D02*
X68251600Y30554400D01*
%TO.N,$4N29965*%
X66092600Y32586400D02*
X66167000Y32406800D01*
X66167000Y31474200D02*
X66241400Y31294600D01*
X65356700Y33217100D02*
X65536300Y33142700D01*
X68251600Y29284400D02*
X68431200Y29210000D01*
%TD*%
M02*
