M48
; DRILL file KiCad 10.99.0-unknown date 2026-08-11T14:36:03
; FORMAT={-:-/ absolute / metric / decimal}
; #@! TF.CreationDate,2026-08-11T14:36:03+08:00
; #@! TF.GenerationSoftware,Kicad,Pcbnew,10.99.0-unknown
; #@! TF.FileFunction,MixedPlating,1,4
FMAT,2
METRIC
; #@! TA.AperFunction,Plated,PTH,ViaDrill
T1C0.300
; #@! TA.AperFunction,Plated,PTH,ViaDrill
T2C0.300
%
G90
G05
T1
X0.762Y22.479
X0.762Y21.283
X1.016Y48.588
X1.016Y45.54
X1.016Y44.524
X1.016Y43.508
X1.016Y42.492
X1.016Y37.412
X1.016Y32.332
X1.016Y27.252
X1.016Y20.066
X1.016Y18.992
X1.016Y17.934
X1.016Y17.0
X1.016Y16.076
X1.016Y15.06
X1.016Y14.044
X1.016Y13.028
X1.016Y12.012
X1.016Y10.996
X1.016Y9.98
X1.016Y8.964
X1.016Y7.948
X1.016Y6.932
X1.016Y5.916
X1.016Y4.9
X1.016Y3.884
X1.016Y2.868
X1.016Y1.852
X1.016Y1.016
X1.143Y24.511
X1.859Y24.511
X2.032Y1.016
X3.175Y22.479
X3.175Y21.729
X3.175Y20.978
X3.175Y20.228
X3.849Y22.479
X3.849Y21.729
X3.849Y20.978
X3.849Y20.228
X4.445Y49.022
X4.57Y22.479
X4.57Y21.729
X4.57Y20.978
X4.57Y20.228
X5.08Y1.016
X5.461Y49.022
X6.096Y1.016
X6.477Y49.022
X6.802Y12.7
X7.112Y1.016
X7.38Y22.744
X7.382Y22.109
X8.001Y20.193
X8.001Y19.558
X8.061Y18.71
X8.128Y1.016
X8.286Y12.7
X8.563Y27.432
X8.763Y20.179
X8.763Y19.527
X8.763Y18.71
X8.89Y30.226
X9.144Y1.016
X9.525Y12.7
X9.652Y11.194
X9.906Y23.622
X10.16Y1.016
X10.536Y27.432
X10.781Y23.622
X10.922Y40.386
X11.176Y1.016
X11.316Y11.194
X12.192Y38.608
X12.192Y1.016
X12.573Y49.022
X12.7Y41.91
X12.954Y34.163
X12.954Y33.528
X13.023Y35.306
X13.208Y27.432
X13.208Y1.016
X13.462Y23.749
X13.589Y34.163
X13.589Y33.528
X13.716Y35.306
X13.716Y24.538
X13.843Y40.64
X14.224Y1.016
X14.414Y19.304
X15.24Y4.63
X15.24Y2.921
X15.24Y1.016
X15.337Y6.127
X15.884Y27.432
X16.002Y19.304
X16.256Y1.016
X16.263Y41.542
X16.263Y40.941
X16.637Y6.109
X16.637Y2.927
X17.241Y42.002
X17.272Y1.016
X17.526Y39.273
X17.831Y28.626
X17.88Y29.437
X17.907Y31.045
X17.907Y30.226
X17.926Y19.304
X18.161Y6.985
X18.161Y5.842
X18.161Y4.762
X18.161Y3.81
X18.288Y1.016
X18.355Y32.766
X18.542Y26.797
X18.589Y38.718
X18.654Y40.498
X19.289Y40.371
X19.304Y1.016
X19.431Y3.81
X19.622Y32.112
X19.622Y31.209
X19.655Y32.926
X19.685Y49.022
X19.698Y37.338
X19.698Y36.576
X19.698Y35.795
X19.698Y34.995
X19.741Y19.304
X19.749Y30.48
X19.825Y41.057
X19.939Y38.1
X20.088Y41.634
X20.184Y29.979
X20.193Y33.909
X20.193Y6.604
X20.252Y31.637
X20.263Y32.54
X20.32Y1.016
X20.618Y3.81
X20.828Y24.916
X20.828Y24.172
X20.828Y22.626
X20.828Y20.955
X20.977Y46.863
X21.336Y1.016
X21.717Y49.022
X21.717Y46.863
X21.77Y19.304
X21.844Y12.297
X21.844Y11.194
X22.098Y43.688
X22.225Y48.006
X22.225Y12.827
X22.352Y14.986
X22.352Y1.016
X22.403Y11.686
X22.534Y29.646
X22.915Y10.924
X23.064Y46.863
X23.064Y46.191
X23.241Y22.352
X23.368Y1.016
X23.677Y31.187
X23.678Y48.006
X23.717Y19.304
X23.732Y41.218
X23.741Y45.988
X23.749Y49.022
X23.897Y11.004
X24.003Y40.306
X24.038Y35.684
X24.169Y44.704
X24.384Y35.179
X24.384Y27.178
X24.384Y1.016
X24.438Y31.725
X24.591Y45.56
X24.785Y42.652
X24.794Y29.652
X24.833Y40.306
X24.975Y41.954
X25.021Y32.637
X25.025Y44.678
X25.146Y26.543
X25.4Y41.467
X25.4Y19.304
X25.4Y1.016
X25.527Y30.226
X25.555Y45.36
X25.654Y33.274
X25.825Y43.98
X25.881Y44.794
X26.262Y21.309
X26.543Y38.481
X26.797Y34.163
X26.797Y6.311
X26.797Y5.588
X26.924Y15.24
X26.924Y14.419
X27.051Y30.607
X27.178Y38.1
X27.276Y20.201
X27.432Y1.016
X27.584Y35.179
X27.686Y41.529
X27.686Y40.771
X27.789Y19.629
X27.813Y29.972
X27.903Y38.848
X27.94Y39.45
X28.217Y19.206
X28.448Y1.016
X28.575Y39.654
X28.575Y36.068
X28.657Y18.751
X28.956Y6.35
X29.06Y36.916
X29.083Y15.367
X29.083Y14.731
X29.337Y3.175
X29.337Y1.688
X29.411Y18.857
X29.464Y1.016
X29.709Y6.35
X29.845Y41.91
X29.845Y37.211
X29.845Y18.278
X29.969Y46.22
X30.099Y39.654
X30.48Y46.728
X30.607Y42.164
X30.734Y7.537
X30.734Y6.858
X30.919Y17.838
X30.92Y46.22
X31.06Y20.756
X31.115Y22.86
X31.115Y6.223
X31.416Y39.353
X31.496Y37.846
X31.555Y46.133
X31.767Y21.462
X32.098Y3.18
X32.098Y1.688
X32.131Y40.899
X32.131Y40.005
X32.258Y36.83
X32.512Y1.016
X32.611Y40.386
X32.893Y36.322
X33.147Y19.149
X33.528Y1.016
X33.655Y35.306
X33.817Y19.847
X33.909Y41.656
X33.909Y11.759
X33.909Y10.977
X33.909Y8.29
X33.909Y7.57
X33.909Y6.811
X34.036Y16.256
X34.544Y1.016
X35.005Y33.989
X35.179Y14.502
X35.353Y31.924
X35.56Y21.914
X35.781Y31.433
X36.045Y39.347
X36.068Y10.922
X36.83Y47.244
X36.957Y49.022
X36.957Y21.971
X36.957Y17.399
X36.957Y14.605
X37.004Y40.72
X37.338Y27.813
X37.465Y16.637
X37.592Y31.623
X37.592Y1.016
X37.846Y12.573
X37.973Y49.022
X37.973Y46.355
X38.023Y29.922
X38.135Y28.229
X38.44Y37.125
X38.452Y16.637
X38.608Y1.016
X38.956Y12.573
X38.989Y49.022
X39.111Y21.971
X39.143Y8.863
X39.16Y18.354
X39.497Y29.609
X39.624Y44.704
X39.624Y1.016
X39.637Y8.369
X39.751Y15.24
X39.773Y38.459
X40.005Y49.022
X40.005Y13.462
X40.132Y17.526
X40.556Y29.929
X40.64Y43.688
X40.64Y1.016
X40.894Y24.003
X41.656Y24.765
X41.656Y19.177
X41.656Y1.016
X41.757Y43.307
X41.757Y42.545
X42.037Y49.022
X42.088Y16.223
X42.088Y14.162
X42.088Y13.427
X42.088Y12.55
X42.418Y22.479
X42.672Y1.016
X42.799Y33.782
X43.053Y49.022
X43.588Y17.595
X43.614Y38.286
X43.688Y46.355
X43.688Y28.194
X43.688Y1.016
X43.942Y34.798
X44.069Y49.022
X44.069Y15.24
X44.196Y41.8
X44.196Y41.021
X44.196Y13.589
X44.196Y12.192
X44.45Y29.845
X44.456Y38.765
X44.704Y1.016
X44.867Y45.43
X44.9Y31.057
X44.96Y33.023
X45.085Y49.022
X45.085Y11.938
X45.097Y19.939
X45.162Y47.776
X45.212Y26.924
X45.326Y8.623
X45.339Y21.209
X45.466Y42.672
X45.466Y40.259
X45.593Y41.021
X45.593Y25.781
X45.72Y1.016
X45.724Y45.974
X45.847Y37.846
X46.0Y8.636
X46.101Y49.022
X46.355Y19.05
X46.482Y47.244
X46.482Y41.783
X46.482Y26.289
X46.736Y28.448
X46.736Y21.209
X46.736Y16.256
X46.736Y1.016
X46.863Y36.576
X46.863Y14.732
X47.226Y42.625
X47.371Y44.512
X47.371Y40.767
X47.625Y35.49
X47.625Y34.671
X47.625Y33.89
X47.625Y33.09
X47.625Y24.822
X47.625Y24.003
X47.625Y23.222
X47.625Y22.422
X47.752Y42.164
X47.752Y1.016
X48.133Y17.018
X48.293Y38.481
X48.448Y29.845
X48.581Y19.05
X48.641Y14.986
X48.641Y8.763
X48.641Y5.207
X48.768Y1.016
X49.276Y28.321
X49.276Y22.917
X49.276Y17.639
X49.276Y12.45
X49.276Y7.03
X49.301Y32.817
X49.338Y5.207
X49.526Y39.633
X49.53Y33.655
X49.905Y26.289
X49.911Y6.096
X50.074Y21.209
X50.165Y39.633
X50.546Y38.862
X50.58Y38.227
X50.648Y6.096
X50.961Y32.813
X51.308Y9.695
X51.351Y10.965
X51.398Y29.732
X51.402Y12.305
X51.402Y19.039
X51.414Y35.041
X51.422Y8.447
X51.435Y33.528
X51.45Y24.373
X51.465Y13.705
X51.471Y22.973
X51.471Y17.639
X51.474Y28.332
X52.197Y39.624
X52.295Y5.969
X52.324Y3.937
X53.213Y49.022
X54.229Y2.593
X54.229Y1.577
X54.483Y49.022
X54.483Y48.313
X54.483Y47.297
X54.483Y46.281
X54.483Y45.265
X54.483Y44.249
X54.483Y43.233
X54.483Y42.217
X54.483Y41.201
X54.483Y40.185
X54.483Y39.169
X54.483Y38.153
X54.483Y37.137
X54.483Y36.25
X54.483Y35.202
X54.483Y34.089
X54.483Y33.073
X54.483Y32.212
X54.483Y31.166
X54.483Y30.154
X54.483Y29.009
X54.483Y27.993
X54.483Y27.064
X54.483Y26.018
X54.483Y24.945
X54.483Y23.929
X54.483Y22.913
X54.483Y22.026
X54.483Y20.955
X54.483Y20.002
X54.483Y19.05
X54.483Y17.833
X54.483Y16.939
X54.483Y15.923
X54.483Y14.907
X54.483Y13.891
X54.483Y12.875
X54.483Y11.859
X54.483Y10.857
X54.483Y9.83
X54.483Y8.811
X54.483Y7.8
X54.483Y6.784
X56.515Y49.022
X56.515Y48.308
X56.515Y47.419
X56.515Y46.403
X56.515Y45.387
X56.515Y44.371
X56.515Y43.355
X56.515Y42.339
X56.515Y41.323
X56.515Y40.307
X56.515Y39.291
X56.515Y38.275
X56.515Y37.259
X56.515Y36.243
X56.515Y35.227
X56.515Y34.211
X56.515Y33.195
X56.515Y32.179
X56.515Y31.163
X56.515Y30.147
X56.515Y29.131
X56.515Y28.115
X56.515Y27.099
X56.515Y26.083
X56.515Y25.067
X56.515Y24.051
X56.515Y23.035
X56.515Y22.019
X56.515Y21.003
X56.515Y19.987
X56.515Y18.971
X56.515Y17.955
X56.515Y16.939
X56.515Y15.923
X56.515Y14.907
X56.515Y13.891
X56.515Y12.875
X56.515Y11.859
X56.515Y10.843
X56.515Y9.827
X56.515Y8.811
X56.515Y7.795
X56.515Y6.779
X56.515Y2.715
X56.515Y1.699
X56.642Y0.889
X57.531Y49.022
X58.166Y39.624
X58.547Y49.022
X58.674Y6.096
X58.674Y4.191
X59.309Y6.477
X59.371Y7.127
X59.436Y12.573
X59.436Y11.938
X59.469Y38.227
X59.52Y17.992
X59.563Y35.052
X59.563Y33.909
X59.563Y33.274
X59.563Y23.368
X59.563Y22.479
X59.563Y17.145
X59.577Y24.384
X59.614Y13.716
X59.633Y19.05
X59.633Y8.425
X59.651Y29.718
X59.69Y28.575
X59.69Y27.94
X59.69Y0.889
X60.514Y16.883
X60.706Y38.227
X60.706Y0.889
X61.214Y30.988
X61.356Y20.589
X61.551Y9.862
X61.595Y48.573
X61.595Y43.688
X61.595Y26.543
X61.722Y37.338
X61.722Y15.875
X61.722Y0.889
X61.849Y46.101
X61.92Y41.148
X62.449Y10.76
X62.611Y49.022
X62.647Y32.131
X63.627Y49.022
X63.754Y25.654
X63.754Y21.082
X64.072Y9.334
X64.135Y36.83
X64.135Y16.637
X64.221Y6.684
X64.221Y5.969
X64.643Y49.022
X64.77Y0.889
X65.024Y32.004
X65.151Y46.101
X65.165Y41.151
X65.405Y27.051
X65.659Y49.022
X65.659Y19.165
X65.786Y0.889
X65.955Y7.747
X66.167Y35.814
X66.272Y18.012
X66.294Y30.48
X66.294Y22.352
X66.675Y49.022
X66.802Y0.889
X67.158Y22.352
X67.437Y29.464
X67.564Y34.417
X67.564Y28.448
X67.691Y49.022
X67.818Y37.084
X67.818Y36.322
X67.945Y27.051
X67.945Y26.353
X68.065Y15.334
X68.072Y14.605
X68.072Y10.033
X68.072Y9.365
X68.113Y38.1
X68.191Y16.194
X68.199Y33.782
X68.201Y11.049
X68.707Y49.022
X69.723Y49.022
X70.739Y49.022
X70.993Y37.412
X71.12Y25.654
X71.12Y20.32
X71.345Y3.527
X71.345Y2.765
X71.345Y2.003
X71.345Y1.241
X71.349Y33.857
X71.755Y49.022
X72.377Y39.738
X72.644Y34.941
X72.771Y49.022
X73.279Y37.227
X73.631Y4.289
X73.631Y3.527
X73.631Y2.765
X73.631Y2.003
X73.631Y1.241
X73.787Y49.022
X74.173Y41.534
X74.803Y49.022
X74.93Y0.889
X75.819Y49.022
X75.946Y0.889
X75.969Y43.33
X76.073Y17.399
X76.2Y12.319
X76.2Y8.687
X76.2Y8.006
X76.327Y28.448
X76.327Y27.178
X76.327Y13.223
X76.359Y40.672
X76.398Y24.003
X76.398Y18.861
X76.454Y23.114
X76.454Y22.41
X76.708Y11.684
X77.105Y21.816
X77.343Y9.017
X77.919Y11.684
X77.962Y21.816
X78.05Y14.097
X78.155Y42.468
X78.359Y17.653
X78.359Y16.891
X78.477Y19.177
X78.644Y28.987
X78.74Y27.559
X78.74Y24.13
X78.867Y49.022
X78.994Y0.889
X79.074Y37.479
X79.078Y43.307
X79.121Y22.352
X79.121Y12.094
X79.137Y36.166
X79.375Y13.716
X79.573Y27.559
X79.629Y34.671
X79.629Y34.062
X79.629Y8.382
X79.883Y49.022
X80.01Y0.889
X80.137Y12.954
X80.137Y11.684
X80.137Y4.699
X80.322Y45.085
X80.332Y18.656
X80.348Y43.307
X80.429Y16.853
X80.44Y30.783
X80.645Y27.559
X80.645Y24.257
X80.676Y2.382
X80.899Y49.022
X81.026Y0.889
X81.153Y22.352
X81.407Y34.925
X81.574Y1.484
X81.719Y32.189
X81.844Y15.819
X81.915Y49.022
X81.915Y28.194
X81.915Y21.844
X81.939Y42.648
X82.009Y8.857
X82.042Y0.889
X82.159Y24.247
X82.169Y45.847
X82.169Y6.477
X82.296Y47.386
X82.296Y48.006
X82.296Y46.736
X82.296Y13.843
X82.334Y35.687
X82.343Y16.764
X82.394Y37.099
X82.404Y37.799
X82.423Y36.449
X82.931Y49.022
X83.158Y9.045
X83.431Y20.505
X83.947Y49.022
X83.951Y12.7
X84.049Y4.953
X84.078Y1.397
X84.279Y42.164
X84.285Y46.228
X84.552Y35.814
X84.632Y32.053
X84.883Y16.764
X84.904Y9.045
X84.963Y49.022
X84.966Y20.614
X85.217Y24.384
X85.249Y28.321
X85.348Y1.397
X85.979Y49.022
X86.106Y0.889
X86.144Y35.687
X86.145Y47.371
X86.233Y45.593
X86.233Y5.334
X86.279Y37.136
X86.491Y12.7
X86.618Y1.397
X86.84Y47.371
X86.845Y9.444
X86.89Y37.136
X86.995Y49.022
X86.995Y42.672
X87.122Y0.889
X87.23Y20.48
X87.423Y16.764
X87.449Y32.258
X87.761Y12.7
X87.859Y4.953
X87.888Y1.397
X88.011Y49.022
X88.115Y9.444
X88.424Y28.194
X88.501Y20.48
X88.601Y24.638
X88.694Y16.764
X89.027Y49.022
X89.031Y12.7
X89.073Y45.466
X89.129Y4.953
X89.154Y43.18
X89.154Y41.783
X89.154Y38.1
X89.154Y15.667
X89.154Y14.05
X89.154Y7.688
X89.154Y6.35
X89.158Y1.397
X89.281Y46.99
X89.281Y39.983
X89.281Y33.401
X89.281Y31.646
X89.281Y29.727
X89.281Y23.876
X89.281Y22.225
X89.385Y9.444
X89.408Y37.084
X89.408Y19.939
X89.499Y18.643
X89.535Y27.305
X89.535Y25.908
X89.535Y17.526
X89.535Y11.811
X89.535Y10.668
X89.535Y2.667
T2
X10.997Y21.69
X10.997Y21.009
X10.997Y20.328
X10.997Y19.647
X10.997Y18.966
X10.997Y18.285
X11.658Y21.69
X11.658Y21.009
X11.658Y20.328
X11.658Y19.647
X11.658Y18.966
X11.658Y18.285
X12.319Y21.69
X12.319Y21.009
X12.319Y20.328
X12.319Y19.647
X12.319Y18.966
X12.319Y18.285
M30
