%TF.GenerationSoftware,KiCad,Pcbnew,10.99.0-unknown*%
%TF.CreationDate,2026-08-12T15:32:43+08:00*%
%TF.ProjectId,______,092ed1f0-a977-42e6-9b69-6361645f7063,rev?*%
%TF.SameCoordinates,Original*%
%TF.FileFunction,Profile,NP*%
%FSLAX46Y46*%
G04 Gerber Fmt 4.6, Leading zero omitted, Abs format (unit mm)*
G04 Created by KiCad (PCBNEW 10.99.0-unknown) date 2026-08-12 15:32:43*
%MOMM*%
%LPD*%
G01*
G04 APERTURE LIST*
%TA.AperFunction,Profile*%
%ADD10C,0.254000*%
%TD*%
G04 APERTURE END LIST*
D10*
X1050000Y0D02*
X1050000Y0D01*
X1050000Y0D02*
X22950000Y0D01*
X0Y-1050000D02*
X0Y-1050000D01*
X0Y-1050000D02*
X0Y-11550000D01*
X0Y-18000000D02*
X0Y-18000000D01*
X0Y-18000000D02*
X24000000Y-18000000D01*
X1050000Y0D02*
X918800Y-131800D01*
X918800Y-131800D02*
X787500Y-263500D01*
X787500Y-263500D02*
X656300Y-394900D01*
X656300Y-394900D02*
X525000Y-526300D01*
X525000Y-526300D02*
X393800Y-657400D01*
X393800Y-657400D02*
X262500Y-788500D01*
X262500Y-788500D02*
X131300Y-919300D01*
X131300Y-919300D02*
X0Y-1050000D01*
X0Y-11550000D02*
X0Y-11813600D01*
X0Y-11813600D02*
X0Y-12076900D01*
X0Y-12076900D02*
X0Y-12339900D01*
X0Y-12339900D02*
X0Y-12602500D01*
X0Y-12602500D02*
X0Y-12864900D01*
X0Y-12864900D02*
X0Y-13126900D01*
X0Y-13126900D02*
X0Y-13388600D01*
X0Y-13388600D02*
X0Y-13650000D01*
X0Y-13650000D02*
X0Y-13650000D01*
X0Y-13650000D02*
X0Y-18000000D01*
X24000000Y-1050000D02*
X24000000Y-1050000D01*
X24000000Y-1050000D02*
X23971000Y-14350000D01*
X22950000Y0D02*
X23081300Y-130700D01*
X23081300Y-130700D02*
X23212500Y-261500D01*
X23212500Y-261500D02*
X23343800Y-392600D01*
X23343800Y-392600D02*
X23475000Y-523700D01*
X23475000Y-523700D02*
X23606300Y-655100D01*
X23606300Y-655100D02*
X23737500Y-786500D01*
X23737500Y-786500D02*
X23868800Y-918200D01*
X23868800Y-918200D02*
X24000000Y-1050000D01*
X24000000Y-14350000D02*
X24000000Y-14611400D01*
X24000000Y-14611400D02*
X24000000Y-14873100D01*
X24000000Y-14873100D02*
X24000000Y-15135200D01*
X24000000Y-15135200D02*
X24000000Y-15397500D01*
X24000000Y-15397500D02*
X24000000Y-15660200D01*
X24000000Y-15660200D02*
X24000000Y-15923100D01*
X24000000Y-15923100D02*
X24000000Y-16186400D01*
X24000000Y-16186400D02*
X24000000Y-16450000D01*
X24000000Y-16450500D02*
X24000000Y-16450500D01*
X24000000Y-16450500D02*
X24000000Y-18000000D01*
M02*
