%TF.GenerationSoftware,KiCad,Pcbnew,10.99.0-unknown*%
%TF.CreationDate,2026-08-12T15:32:43+08:00*%
%TF.ProjectId,______,092ed1f0-a977-42e6-9b69-6361645f7063,rev?*%
%TF.SameCoordinates,Original*%
%TF.FileFunction,Paste,Top*%
%TF.FilePolarity,Positive*%
%FSLAX46Y46*%
G04 Gerber Fmt 4.6, Leading zero omitted, Abs format (unit mm)*
G04 Created by KiCad (PCBNEW 10.99.0-unknown) date 2026-08-12 15:32:43*
%MOMM*%
%LPD*%
G01*
G04 APERTURE LIST*
G04 Aperture macros list*
%AMRoundRect*
0 Rectangle with rounded corners*
0 $1 Rounding radius*
0 $2 $3 $4 $5 $6 $7 $8 $9 X,Y pos of 4 corners*
0 Add a 4 corners polygon primitive as box body*
4,1,4,$2,$3,$4,$5,$6,$7,$8,$9,$2,$3,0*
0 Add four circle primitives for the rounded corners*
1,1,$1+$1,$2,$3*
1,1,$1+$1,$4,$5*
1,1,$1+$1,$6,$7*
1,1,$1+$1,$8,$9*
0 Add four rect primitives between the rounded corners*
20,1,$1+$1,$2,$3,$4,$5,0*
20,1,$1+$1,$4,$5,$6,$7,0*
20,1,$1+$1,$6,$7,$8,$9,0*
20,1,$1+$1,$8,$9,$2,$3,0*%
G04 Aperture macros list end*
%ADD10RoundRect,0.225000X-0.225000X-0.275000X0.225000X-0.275000X0.225000X0.275000X-0.225000X0.275000X0*%
%ADD11C,1.200000*%
%ADD12C,0.750000*%
%ADD13RoundRect,0.225000X-0.225000X-0.275000X0.225000X-0.275000X0.225000X0.275000X-0.225000X0.275000X0*%
G04 APERTURE END LIST*
D10*
%TO.C,SW1*%
X9336000Y-9906000D03*
X7936000Y-9906000D03*
%TD*%
D11*
%TO.C,TP1*%
X2661857Y-15366228D03*
%TD*%
%TO.C,TP2*%
X2661857Y-14096228D03*
%TD*%
%TO.C,TP3*%
X2661857Y-12826228D03*
%TD*%
%TO.C,TP4*%
X2664396Y-11556228D03*
%TD*%
D12*
%TO.C,U6*%
X7366000Y-7450000D03*
X6319800Y-6689900D03*
X6719400Y-5460100D03*
X8012600Y-5460100D03*
X8412200Y-6689900D03*
%TD*%
D13*
%TO.C,C4*%
X18542000Y-1840000D03*
X18542000Y-3240000D03*
%TD*%
D10*
%TO.C,C5*%
X7685000Y-1651000D03*
X6285000Y-1651000D03*
%TD*%
D12*
%TO.C,U2*%
X6477000Y-14655000D03*
X5333800Y-13995000D03*
X5333800Y-12675000D03*
X6477000Y-12015000D03*
X7620200Y-12675000D03*
X7620200Y-13995000D03*
%TD*%
%TO.C,U1*%
X17762000Y-10541000D03*
X17246500Y-11785500D03*
X16002000Y-12301000D03*
X14757500Y-11785500D03*
X14242000Y-10541000D03*
X14757500Y-9296500D03*
X16002000Y-8781000D03*
X17246500Y-9296500D03*
%TD*%
D10*
%TO.C,R1*%
X4699000Y-10479000D03*
X4699000Y-9079000D03*
%TD*%
%TO.C,C1*%
X16575000Y-6858000D03*
X15175000Y-6858000D03*
%TD*%
%TO.C,C2*%
X20004000Y-6858000D03*
X18604000Y-6858000D03*
%TD*%
%TO.C,C3*%
X11114000Y-12446000D03*
X9714000Y-12446000D03*
%TD*%
D13*
%TO.C,R2*%
X9714000Y-13970000D03*
X11114000Y-13970000D03*
%TD*%
%TO.C,U9*%
X13143000Y-3175000D03*
X14543000Y-3175000D03*
%TD*%
D10*
%TO.C,C6*%
X13273000Y-6858000D03*
X11873000Y-6858000D03*
%TD*%
%TO.C,R3*%
X10033000Y-6796000D03*
X10033000Y-5396000D03*
%TD*%
%TO.C,R4*%
X19242000Y-13970000D03*
X17842000Y-13970000D03*
%TD*%
D12*
%TO.C,SW2*%
X2286000Y-7128000D03*
X1082000Y-6548200D03*
X784600Y-5245300D03*
X1617800Y-4200500D03*
X2954200Y-4200500D03*
X3787400Y-5245300D03*
X3490000Y-6548200D03*
%TD*%
D10*
%TO.C,C7*%
X7685000Y-3556000D03*
X6285000Y-3556000D03*
%TD*%
D12*
%TO.C,H1*%
X15036000Y-16510000D03*
X14376000Y-17653200D03*
X13056000Y-17653200D03*
X12396000Y-16510000D03*
X13056000Y-15366800D03*
X14376000Y-15366800D03*
%TD*%
M02*
