%TF.GenerationSoftware,KiCad,Pcbnew,10.99.0-unknown*%
%TF.CreationDate,2026-08-12T15:32:43+08:00*%
%TF.ProjectId,______,092ed1f0-a977-42e6-9b69-6361645f7063,rev?*%
%TF.SameCoordinates,Original*%
%TF.FileFunction,Other,User*%
%FSLAX46Y46*%
G04 Gerber Fmt 4.6, Leading zero omitted, Abs format (unit mm)*
G04 Created by KiCad (PCBNEW 10.99.0-unknown) date 2026-08-12 15:32:43*
%MOMM*%
%LPD*%
G01*
G04 APERTURE LIST*
%ADD10C,0.050000*%
G04 APERTURE END LIST*
%TO.C,SW1*%
D10*
X7136000Y-9056000D02*
X10136000Y-9056000D01*
X10136000Y-10756000D01*
X7136000Y-10756000D01*
X7136000Y-9056000D01*
%TO.C,TP1*%
X1711857Y-14416228D02*
X3611857Y-14416228D01*
X3611857Y-16316228D01*
X1711857Y-16316228D01*
X1711857Y-14416228D01*
%TO.C,TP2*%
X1711857Y-13146228D02*
X3611857Y-13146228D01*
X3611857Y-15046228D01*
X1711857Y-15046228D01*
X1711857Y-13146228D01*
%TO.C,TP3*%
X1711857Y-11876228D02*
X3611857Y-11876228D01*
X3611857Y-13776228D01*
X1711857Y-13776228D01*
X1711857Y-11876228D01*
%TO.C,TP4*%
X1714396Y-10606228D02*
X3614396Y-10606228D01*
X3614396Y-12506228D01*
X1714396Y-12506228D01*
X1714396Y-10606228D01*
%TO.C,U6*%
X5594800Y-4735100D02*
X9137200Y-4735100D01*
X9137200Y-8175000D01*
X5594800Y-8175000D01*
X5594800Y-4735100D01*
%TO.C,C4*%
X17692000Y-1040000D02*
X19392000Y-1040000D01*
X19392000Y-4040000D01*
X17692000Y-4040000D01*
X17692000Y-1040000D01*
%TO.C,C5*%
X5485000Y-801000D02*
X8485000Y-801000D01*
X8485000Y-2501000D01*
X5485000Y-2501000D01*
X5485000Y-801000D01*
%TO.C,U2*%
X4608800Y-11290000D02*
X8345200Y-11290000D01*
X8345200Y-15380000D01*
X4608800Y-15380000D01*
X4608800Y-11290000D01*
%TO.C,U1*%
X13517000Y-8056000D02*
X18487000Y-8056000D01*
X18487000Y-13026000D01*
X13517000Y-13026000D01*
X13517000Y-8056000D01*
%TO.C,R1*%
X3849000Y-8279000D02*
X5549000Y-8279000D01*
X5549000Y-11279000D01*
X3849000Y-11279000D01*
X3849000Y-8279000D01*
%TO.C,C1*%
X14375000Y-6008000D02*
X17375000Y-6008000D01*
X17375000Y-7708000D01*
X14375000Y-7708000D01*
X14375000Y-6008000D01*
%TO.C,C2*%
X17804000Y-6008000D02*
X20804000Y-6008000D01*
X20804000Y-7708000D01*
X17804000Y-7708000D01*
X17804000Y-6008000D01*
%TO.C,C3*%
X8914000Y-11596000D02*
X11914000Y-11596000D01*
X11914000Y-13296000D01*
X8914000Y-13296000D01*
X8914000Y-11596000D01*
%TO.C,R2*%
X8914000Y-13120000D02*
X11914000Y-13120000D01*
X11914000Y-14820000D01*
X8914000Y-14820000D01*
X8914000Y-13120000D01*
%TO.C,U9*%
X12343000Y-2325000D02*
X15343000Y-2325000D01*
X15343000Y-4025000D01*
X12343000Y-4025000D01*
X12343000Y-2325000D01*
%TO.C,C6*%
X11073000Y-6008000D02*
X14073000Y-6008000D01*
X14073000Y-7708000D01*
X11073000Y-7708000D01*
X11073000Y-6008000D01*
%TO.C,R3*%
X9183000Y-4596000D02*
X10883000Y-4596000D01*
X10883000Y-7596000D01*
X9183000Y-7596000D01*
X9183000Y-4596000D01*
%TO.C,R4*%
X17042000Y-13120000D02*
X20042000Y-13120000D01*
X20042000Y-14820000D01*
X17042000Y-14820000D01*
X17042000Y-13120000D01*
%TO.C,SW2*%
X59600Y-3475500D02*
X4512400Y-3475500D01*
X4512400Y-7853000D01*
X59600Y-7853000D01*
X59600Y-3475500D01*
%TO.C,C7*%
X5485000Y-2706000D02*
X8485000Y-2706000D01*
X8485000Y-4406000D01*
X5485000Y-4406000D01*
X5485000Y-2706000D01*
%TO.C,H1*%
X11671000Y-14641800D02*
X15761000Y-14641800D01*
X15761000Y-18378200D01*
X11671000Y-18378200D01*
X11671000Y-14641800D01*
%TD*%
M02*
