%TF.GenerationSoftware,KiCad,Pcbnew,10.99.0-unknown*%
%TF.CreationDate,2026-08-12T15:25:14+08:00*%
%TF.ProjectId,__AI________-_C3,0f7a4149-edf3-4f9d-9d00-d17f5f2d5f43,rev?*%
%TF.SameCoordinates,Original*%
%TF.FileFunction,Soldermask,Top*%
%TF.FilePolarity,Negative*%
%FSLAX46Y46*%
G04 Gerber Fmt 4.6, Leading zero omitted, Abs format (unit mm)*
G04 Created by KiCad (PCBNEW 10.99.0-unknown) date 2026-08-12 15:25:14*
%MOMM*%
%LPD*%
G01*
G04 APERTURE LIST*
G04 Aperture macros list*
%AMRoundRect*
0 Rectangle with rounded corners*
0 $1 Rounding radius*
0 $2 $3 $4 $5 $6 $7 $8 $9 X,Y pos of 4 corners*
0 Add a 4 corners polygon primitive as box body*
4,1,4,$2,$3,$4,$5,$6,$7,$8,$9,$2,$3,0*
0 Add four circle primitives for the rounded corners*
1,1,$1+$1,$2,$3*
1,1,$1+$1,$4,$5*
1,1,$1+$1,$6,$7*
1,1,$1+$1,$8,$9*
0 Add four rect primitives between the rounded corners*
20,1,$1+$1,$2,$3,$4,$5,0*
20,1,$1+$1,$4,$5,$6,$7,0*
20,1,$1+$1,$6,$7,$8,$9,0*
20,1,$1+$1,$8,$9,$2,$3,0*%
G04 Aperture macros list end*
%ADD10RoundRect,0.275000X-0.225000X-0.275000X0.225000X-0.275000X0.225000X0.275000X-0.225000X0.275000X0*%
%ADD11RoundRect,0.275000X-0.225000X-0.275000X0.225000X-0.275000X0.225000X0.275000X-0.225000X0.275000X0*%
%ADD12C,0.850000*%
%ADD13C,1.300000*%
%ADD14RoundRect,0.155000X0.345000X-0.105000X0.345000X0.105000X-0.345000X0.105000X-0.345000X-0.105000X0*%
%ADD15RoundRect,0.155000X-0.105000X-0.345000X0.105000X-0.345000X0.105000X0.345000X-0.105000X0.345000X0*%
G04 APERTURE END LIST*
D10*
%TO.C,C1*%
X5969000Y-12257000D03*
X5969000Y-10857000D03*
%TD*%
D11*
%TO.C,C2*%
X-16256000Y11241000D03*
X-16256000Y9841000D03*
%TD*%
%TO.C,C3*%
X-16256000Y8701000D03*
X-16256000Y7301000D03*
%TD*%
D10*
%TO.C,C4*%
X-14859000Y7301000D03*
X-14859000Y8701000D03*
%TD*%
%TO.C,C5*%
X-14859000Y9841000D03*
X-14859000Y11241000D03*
%TD*%
D11*
%TO.C,C6*%
X-14859000Y13654000D03*
X-14859000Y12254000D03*
%TD*%
D10*
%TO.C,C7*%
X-11176000Y1713000D03*
X-11176000Y3113000D03*
%TD*%
%TO.C,C8*%
X-9906000Y1713000D03*
X-9906000Y3113000D03*
%TD*%
%TO.C,C9*%
X-6858000Y1713000D03*
X-6858000Y3113000D03*
%TD*%
%TO.C,C10*%
X-8128000Y1713000D03*
X-8128000Y3113000D03*
%TD*%
%TO.C,C11*%
X15367000Y443000D03*
X15367000Y1843000D03*
%TD*%
D11*
%TO.C,C12*%
X-7874000Y11241000D03*
X-7874000Y9841000D03*
%TD*%
D10*
%TO.C,C13*%
X17083000Y-4826000D03*
X15683000Y-4826000D03*
%TD*%
%TO.C,C14*%
X-13335000Y-11368000D03*
X-13335000Y-9968000D03*
%TD*%
%TO.C,C15*%
X-9144000Y-11368000D03*
X-9144000Y-9968000D03*
%TD*%
D11*
%TO.C,C16*%
X-9906000Y827000D03*
X-9906000Y-573000D03*
%TD*%
%TO.C,C17*%
X-11176000Y827000D03*
X-11176000Y-573000D03*
%TD*%
%TO.C,C18*%
X-6542000Y-8636000D03*
X-5142000Y-8636000D03*
%TD*%
D10*
%TO.C,C19*%
X-13335000Y-8701000D03*
X-13335000Y-7301000D03*
%TD*%
%TO.C,C21*%
X13527000Y1651000D03*
X12127000Y1651000D03*
%TD*%
%TO.C,C22*%
X-1143000Y9745902D03*
X-1143000Y11145902D03*
%TD*%
D11*
%TO.C,C23*%
X12000000Y6604000D03*
X13400000Y6604000D03*
%TD*%
D10*
%TO.C,C24*%
X10541000Y7936000D03*
X10541000Y9336000D03*
%TD*%
%TO.C,C25*%
X9271000Y7936000D03*
X9271000Y9336000D03*
%TD*%
D11*
%TO.C,C26*%
X1397000Y10955402D03*
X1397000Y9555402D03*
%TD*%
D10*
%TO.C,C27*%
X2794000Y9618902D03*
X2794000Y11018902D03*
%TD*%
%TO.C,C28*%
X5399000Y8509000D03*
X3999000Y8509000D03*
%TD*%
%TO.C,C29*%
X1589000Y1778000D03*
X189000Y1778000D03*
%TD*%
D11*
%TO.C,C30*%
X6793000Y-1270000D03*
X8193000Y-1270000D03*
%TD*%
D10*
%TO.C,C31*%
X6923000Y11303000D03*
X5523000Y11303000D03*
%TD*%
D11*
%TO.C,C32*%
X6513600Y8001000D03*
X7913600Y8001000D03*
%TD*%
D10*
%TO.C,C33*%
X700000Y5207000D03*
X-700000Y5207000D03*
%TD*%
D12*
%TO.C,D1*%
X-1320000Y-9017000D03*
X-660000Y-7873800D03*
X660000Y-7873800D03*
X1320000Y-9017000D03*
X660000Y-10160200D03*
X-660000Y-10160200D03*
%TD*%
D11*
%TO.C,L1*%
X3999000Y9779000D03*
X5399000Y9779000D03*
%TD*%
%TO.C,ANT1*%
X7555000Y16767023D03*
X8955000Y16767023D03*
%TD*%
D10*
%TO.C,L3*%
X9844000Y5080000D03*
X8444000Y5080000D03*
%TD*%
%TO.C,CHG1*%
X6350000Y-16829000D03*
X6350000Y-15429000D03*
%TD*%
D12*
%TO.C,OLED1*%
X1000000Y13589000D03*
X0Y12589000D03*
X-1000000Y13589000D03*
X0Y14589000D03*
%TD*%
%TO.C,Q1*%
X10922000Y-9001000D03*
X10056000Y-7501000D03*
X11788000Y-7501000D03*
%TD*%
%TO.C,Q2*%
X10779000Y-4572000D03*
X9279000Y-5438000D03*
X9279000Y-3706000D03*
%TD*%
%TO.C,Q3*%
X11065000Y-1270000D03*
X12565000Y-404000D03*
X12565000Y-2136000D03*
%TD*%
D10*
%TO.C,R2*%
X2540000Y-10225000D03*
X2540000Y-8825000D03*
%TD*%
%TO.C,R3*%
X7874000Y-17210000D03*
X7874000Y-15810000D03*
%TD*%
%TO.C,R4*%
X-2540000Y-10225000D03*
X-2540000Y-8825000D03*
%TD*%
%TO.C,R5*%
X-5334000Y9841000D03*
X-5334000Y11241000D03*
%TD*%
%TO.C,R6*%
X-6604000Y9841000D03*
X-6604000Y11241000D03*
%TD*%
%TO.C,R7*%
X-13335000Y-3494000D03*
X-13335000Y-2094000D03*
%TD*%
%TO.C,R8*%
X-9906000Y-2859000D03*
X-9906000Y-1459000D03*
%TD*%
%TO.C,R9*%
X-11176000Y-2859000D03*
X-11176000Y-1459000D03*
%TD*%
D11*
%TO.C,R10*%
X-5526000Y-1270000D03*
X-4126000Y-1270000D03*
%TD*%
%TO.C,R11*%
X-2667000Y11179862D03*
X-2667000Y9779862D03*
%TD*%
%TO.C,R13*%
X6717584Y10337014D03*
X6717584Y8937014D03*
%TD*%
D10*
%TO.C,R14*%
X-3937000Y-4002000D03*
X-3937000Y-2602000D03*
%TD*%
D11*
%TO.C,R15*%
X6793000Y-2540000D03*
X8193000Y-2540000D03*
%TD*%
D10*
%TO.C,R16*%
X-9398000Y10730000D03*
X-9398000Y12130000D03*
%TD*%
%TO.C,R17*%
X-11049000Y10730000D03*
X-11049000Y12130000D03*
%TD*%
D11*
%TO.C,R18*%
X-4180816Y5258816D03*
X-2780816Y5258816D03*
%TD*%
D10*
%TO.C,R19*%
X-13335000Y-5907000D03*
X-13335000Y-4507000D03*
%TD*%
%TO.C,R20*%
X5969000Y-9590000D03*
X5969000Y-8190000D03*
%TD*%
D11*
%TO.C,R21*%
X8382000Y-7936000D03*
X8382000Y-9336000D03*
%TD*%
D10*
%TO.C,R22*%
X12192000Y-5780000D03*
X12192000Y-4380000D03*
%TD*%
D13*
%TO.C,SCREW1*%
X-11000001Y15599999D03*
%TD*%
%TO.C,SCREW4*%
X15599999Y15599999D03*
%TD*%
D12*
%TO.C,SW1*%
X15748000Y-7350000D03*
X16952000Y-7929800D03*
X17249400Y-9232700D03*
X16416200Y-10277500D03*
X15079800Y-10277500D03*
X14246600Y-9232700D03*
X14544000Y-7929800D03*
%TD*%
D14*
%TO.C,U1*%
X8852000Y-9449000D03*
X9652000Y-9449000D03*
X10452000Y-9449000D03*
D15*
X11252000Y-10249000D03*
X11252000Y-11049000D03*
X11252000Y-11849000D03*
D14*
X10452000Y-12649000D03*
X9652000Y-12649000D03*
X8852000Y-12649000D03*
%TD*%
%TO.C,U2*%
X-12414000Y9531000D03*
X-11614000Y9531000D03*
X-10814000Y9531000D03*
X-10014000Y9531000D03*
X-9214000Y9531000D03*
X-8414000Y9531000D03*
D15*
X-7614000Y8731000D03*
X-7614000Y7931000D03*
X-7614000Y7131000D03*
X-7614000Y6331000D03*
X-7614000Y5531000D03*
X-7614000Y4731000D03*
D14*
X-8414000Y3931000D03*
X-9214000Y3931000D03*
X-10014000Y3931000D03*
X-10814000Y3931000D03*
X-11614000Y3931000D03*
X-12414000Y3931000D03*
D15*
X-13214000Y4731000D03*
X-13214000Y5531000D03*
X-13214000Y6331000D03*
%TD*%
D12*
%TO.C,U3*%
X15621000Y-3132000D03*
X14574800Y-2371900D03*
X14974400Y-1142100D03*
X16267600Y-1142100D03*
X16667200Y-2371900D03*
%TD*%
%TO.C,U4*%
X-8890000Y-8364000D03*
X-10134500Y-7848500D03*
X-10650000Y-6604000D03*
X-10134500Y-5359500D03*
X-8890000Y-4844000D03*
X-7645500Y-5359500D03*
X-7130000Y-6604000D03*
X-7645500Y-7848500D03*
%TD*%
D14*
%TO.C,U5*%
X9284257Y7883078D03*
X9284257Y7083078D03*
X9284257Y6283078D03*
X9284257Y5483078D03*
X9284257Y4683078D03*
X9284257Y3883078D03*
X9284257Y3083078D03*
X9284257Y2283078D03*
X9284257Y1483078D03*
X9284257Y683078D03*
D15*
X8484257Y-116922D03*
X7684257Y-116922D03*
X6884257Y-116922D03*
X6084257Y-116922D03*
X5284257Y-116922D03*
X4484257Y-116922D03*
X3684257Y-116922D03*
X2884257Y-116922D03*
X2084257Y-116922D03*
X1284257Y-116922D03*
D14*
X484257Y683078D03*
X484257Y1483078D03*
X484257Y2283078D03*
X484257Y3083078D03*
X484257Y3883078D03*
X484257Y4683078D03*
X484257Y5483078D03*
X484257Y6283078D03*
X484257Y7083078D03*
X484257Y7883078D03*
D15*
X1284257Y8683078D03*
X2084257Y8683078D03*
X2884257Y8683078D03*
X3684257Y8683078D03*
X4484257Y8683078D03*
X5284257Y8683078D03*
X6084257Y8683078D03*
%TD*%
D12*
%TO.C,U6*%
X1524000Y-4935000D03*
X279500Y-4419500D03*
X-236000Y-3175000D03*
X279500Y-1930500D03*
X1524000Y-1415000D03*
X2768500Y-1930500D03*
X3284000Y-3175000D03*
X2768500Y-4419500D03*
%TD*%
D14*
%TO.C,USB1*%
X-1200000Y-12327000D03*
X-400000Y-12327000D03*
X400000Y-12327000D03*
X1200000Y-12327000D03*
D15*
X2000000Y-13127000D03*
X2000000Y-13927000D03*
X2000000Y-14727000D03*
X2000000Y-15527000D03*
D14*
X1200000Y-16327000D03*
X400000Y-16327000D03*
X-400000Y-16327000D03*
X-1200000Y-16327000D03*
D15*
X-2000000Y-15527000D03*
X-2000000Y-14727000D03*
X-2000000Y-13927000D03*
X-2000000Y-13127000D03*
%TD*%
D12*
%TO.C,X1*%
X12573000Y3064000D03*
X11573000Y4064000D03*
X12573000Y5064000D03*
X13573000Y4064000D03*
%TD*%
%TO.C,BAT1*%
X13827000Y-13335000D03*
X12827000Y-14335000D03*
X11827000Y-13335000D03*
X12827000Y-12335000D03*
%TD*%
%TO.C,SPK1*%
X-10303000Y-13335000D03*
X-11303000Y-14335000D03*
X-12303000Y-13335000D03*
X-11303000Y-12335000D03*
%TD*%
D10*
%TO.C,R23*%
X7239000Y-12130000D03*
X7239000Y-10730000D03*
%TD*%
D11*
%TO.C,C34*%
X-6669000Y-9779000D03*
X-5269000Y-9779000D03*
%TD*%
D12*
%TO.C,UART1*%
X-16383000Y-6273000D03*
X-17526200Y-5613000D03*
X-17526200Y-4293000D03*
X-16383000Y-3633000D03*
X-15239800Y-4293000D03*
X-15239800Y-5613000D03*
%TD*%
D11*
%TO.C,D2*%
X4318000Y-8317000D03*
X4318000Y-9717000D03*
%TD*%
%TO.C,R24*%
X-6350000Y14416000D03*
X-6350000Y13016000D03*
%TD*%
D12*
%TO.C,RGB1*%
X-6604000Y17637000D03*
X-5604000Y16637000D03*
X-6604000Y15637000D03*
X-7604000Y16637000D03*
%TD*%
%TO.C,MIC1*%
X-15619001Y17273000D03*
X-14619001Y16273000D03*
X-15619001Y15273000D03*
X-16619001Y16273000D03*
%TD*%
%TO.C,BOOT1*%
X16256000Y8779000D03*
X15256000Y9779000D03*
X16256000Y10779000D03*
X17256000Y9779000D03*
%TD*%
M02*
