M48
; DRILL file KiCad 10.99.0-unknown date 2026-08-12T15:25:15
; FORMAT={-:-/ absolute / metric / decimal}
; #@! TF.CreationDate,2026-08-12T15:25:15+08:00
; #@! TF.GenerationSoftware,Kicad,Pcbnew,10.99.0-unknown
; #@! TF.FileFunction,MixedPlating,1,4
FMAT,2
METRIC
; #@! TA.AperFunction,Plated,PTH,ViaDrill
T1C0.305
; #@! TA.AperFunction,Plated,PTH,ViaDrill
T2C0.305
%
G90
G05
T1
X4.884Y4.283
T2
X-17.145Y14.351
X-16.037Y5.207
X-16.037Y4.445
X-15.078Y5.207
X-15.078Y4.445
X-13.996Y0.127
X-13.97Y-4.699
X-13.716Y7.747
X-13.462Y0.889
X-13.335Y-12.389
X-12.954Y14.351
X-12.954Y12.573
X-12.827Y6.198
X-12.573Y1.905
X-12.319Y-1.27
X-12.303Y-2.485
X-11.938Y4.191
X-11.938Y-16.017
X-11.684Y-7.568
X-11.176Y10.922
X-11.176Y3.302
X-11.049Y-4.572
X-10.668Y-9.906
X-10.668Y-16.002
X-10.414Y9.887
X-10.194Y4.495
X-9.964Y6.731
X-9.906Y3.302
X-9.862Y9.354
X-9.398Y10.939
X-9.144Y8.89
X-9.108Y-12.389
X-8.246Y11.054
X-8.241Y16.764
X-8.001Y2.921
X-8.001Y-6.35
X-7.874Y4.826
X-7.747Y7.874
X-7.62Y14.097
X-7.62Y13.335
X-7.366Y-2.921
X-7.366Y-3.721
X-7.239Y-8.763
X-6.786Y0.508
X-6.731Y10.922
X-6.731Y10.048
X-6.731Y2.921
X-6.731Y-0.254
X-6.604Y-2.902
X-6.604Y-3.702
X-5.995Y15.113
X-5.842Y2.667
X-5.715Y7.874
X-5.715Y4.826
X-5.706Y9.663
X-5.475Y-9.779
X-5.335Y12.192
X-5.334Y17.018
X-5.334Y14.097
X-5.334Y13.144
X-5.08Y1.042
X-4.297Y12.192
X-4.205Y-2.794
X-4.191Y5.207
X-3.81Y-7.874
X-3.446Y9.514
X-3.429Y7.874
X-3.302Y-0.508
X-3.259Y12.192
X-3.048Y10.922
X-2.4Y-12.298
X-2.286Y3.073
X-1.778Y8.001
X-1.183Y12.192
X-0.762Y8.128
X-0.471Y5.461
X-0.444Y-0.536
X-0.381Y10.926
X-0.145Y12.192
X-0.0Y-13.603
X0.0Y-7.868
X0.0Y-9.916
X0.0Y-16.352
X0.236Y1.905
X0.508Y-0.523
X0.508Y-1.905
X0.508Y-4.249
X0.508Y-5.08
X0.736Y5.207
X0.893Y12.192
X1.284Y1.651
X1.445Y9.525
X1.931Y12.192
X2.4Y-12.207
X2.667Y-7.874
X3.302Y12.214
X4.318Y-7.844
X4.318Y-10.354
X4.496Y12.192
X4.496Y11.31
X4.699Y-3.81
X5.589Y12.192
X5.715Y-5.08
X5.74Y0.838
X6.606Y0.838
X7.366Y-7.366
X7.607Y12.446
X7.607Y11.557
X7.607Y10.668
X8.053Y-2.62
X8.339Y-1.27
X8.382Y-9.017
X8.763Y-4.572
X8.763Y-12.065
X8.78Y12.446
X8.78Y11.557
X8.78Y10.668
X9.017Y5.969
X9.045Y4.0
X9.736Y-11.299
X9.954Y12.446
X9.954Y11.557
X9.954Y10.668
X9.963Y4.0
X10.033Y5.969
X10.414Y3.302
X10.414Y2.413
X10.535Y-10.06
X10.541Y8.255
X10.552Y-12.065
X10.795Y6.604
X10.922Y-0.381
X11.054Y7.485
X11.128Y12.446
X11.128Y11.557
X11.128Y10.668
X11.207Y1.713
X11.872Y-9.001
X11.89Y1.078
X11.991Y7.485
X12.192Y-12.065
X12.301Y12.446
X12.301Y11.557
X12.301Y10.668
X12.826Y0.824
X12.827Y-1.27
X12.827Y-16.385
X12.927Y7.485
X13.475Y12.446
X13.475Y11.557
X13.475Y10.668
X13.763Y0.824
X13.863Y7.485
X14.478Y6.858
X14.478Y5.762
X14.478Y4.665
X14.478Y3.569
X14.478Y2.472
X14.478Y1.376
X14.498Y-7.89
X14.671Y-0.382
X15.367Y9.144
X16.133Y-9.017
X17.395Y-4.191
M30
