%TF.GenerationSoftware,KiCad,Pcbnew,10.99.0-unknown*%
%TF.CreationDate,2026-08-12T15:29:09+08:00*%
%TF.ProjectId,STM32F4__________________ESP32,53544d33-3246-434e-951a-a7367f5fd8be,rev?*%
%TF.SameCoordinates,Original*%
%TF.FileFunction,AssemblyDrawing,Top*%
%FSLAX46Y46*%
G04 Gerber Fmt 4.6, Leading zero omitted, Abs format (unit mm)*
G04 Created by KiCad (PCBNEW 10.99.0-unknown) date 2026-08-12 15:29:09*
%MOMM*%
%LPD*%
G01*
G04 APERTURE LIST*
%ADD10C,0.100000*%
G04 APERTURE END LIST*
%TO.C,J13*%
D10*
X203752800Y71597200D02*
X209352800Y71597200D01*
X209352800Y66477200D01*
X203752800Y66477200D01*
X203752800Y71597200D01*
%TO.C,U2*%
X124053800Y75680400D02*
X133603800Y75680400D01*
X133603800Y66610400D01*
X124053800Y66610400D01*
X124053800Y75680400D01*
%TO.C,U1*%
X77764000Y89481000D02*
X103084000Y89481000D01*
X103084000Y63681000D01*
X77764000Y63681000D01*
X77764000Y89481000D01*
%TO.C,U20*%
X199851400Y25980000D02*
X204821400Y25980000D01*
X204821400Y21010000D01*
X199851400Y21010000D01*
X199851400Y25980000D01*
%TO.C,SCREW4*%
X3640000Y7400000D02*
X7160000Y7400000D01*
X7160000Y2600000D01*
X3640000Y2600000D01*
X3640000Y7400000D01*
%TO.C,P3*%
X46100000Y134607000D02*
X49620000Y134607000D01*
X49620000Y129807000D01*
X46100000Y129807000D01*
X46100000Y134607000D01*
%TO.C,Y1*%
X81051001Y56628400D02*
X84051001Y56628400D01*
X84051001Y54928400D01*
X81051001Y54928400D01*
X81051001Y56628400D01*
%TO.C,X2*%
X168290799Y71075600D02*
X171740799Y71075600D01*
X171740799Y67625600D01*
X168290799Y67625600D01*
X168290799Y71075600D01*
%TO.C,X1*%
X90671600Y58685399D02*
X94121600Y58685399D01*
X94121600Y55235399D01*
X90671600Y55235399D01*
X90671600Y58685399D01*
%TO.C,U23*%
X152074000Y22119200D02*
X157044000Y22119200D01*
X157044000Y17149200D01*
X152074000Y17149200D01*
X152074000Y22119200D01*
%TO.C,U21*%
X186421300Y25266200D02*
X189861200Y25266200D01*
X189861200Y21723800D01*
X186421300Y21723800D01*
X186421300Y25266200D01*
%TO.C,U22*%
X164621600Y23160600D02*
X169591600Y23160600D01*
X169591600Y18190600D01*
X164621600Y18190600D01*
X164621600Y23160600D01*
%TO.C,U19*%
X199167047Y44796046D02*
X210017047Y44796046D01*
X210017047Y34426046D01*
X199167047Y34426046D01*
X199167047Y44796046D01*
%TO.C,U18*%
X175494000Y74735400D02*
X185694000Y74735400D01*
X185694000Y65015400D01*
X175494000Y65015400D01*
X175494000Y74735400D01*
%TO.C,U17*%
X73556614Y124502202D02*
X81556614Y124502202D01*
X81556614Y116982202D01*
X73556614Y116982202D01*
X73556614Y124502202D01*
%TO.C,U16*%
X106071200Y117513600D02*
X118871200Y117513600D01*
X118871200Y105193600D01*
X106071200Y105193600D01*
X106071200Y117513600D01*
%TO.C,U15*%
X149092200Y124400000D02*
X152042200Y124400000D01*
X152042200Y121218000D01*
X149092200Y121218000D01*
X149092200Y124400000D01*
%TO.C,U14*%
X147865200Y100497001D02*
X153785200Y100497001D01*
X153785200Y94097001D01*
X147865200Y94097001D01*
X147865200Y100497001D01*
%TO.C,U13*%
X192907200Y124400000D02*
X195857200Y124400000D01*
X195857200Y121218000D01*
X192907200Y121218000D01*
X192907200Y124400000D01*
%TO.C,U12*%
X191299200Y100497001D02*
X197219200Y100497001D01*
X197219200Y94097001D01*
X191299200Y94097001D01*
X191299200Y100497001D01*
%TO.C,U11*%
X170682200Y124400000D02*
X173632200Y124400000D01*
X173632200Y121218000D01*
X170682200Y121218000D01*
X170682200Y124400000D01*
%TO.C,U10*%
X170922000Y100097001D02*
X176042000Y100097001D01*
X176042000Y94497001D01*
X170922000Y94497001D01*
X170922000Y100097001D01*
%TO.C,U9*%
X52285000Y61000001D02*
X58205000Y61000001D01*
X58205000Y54600001D01*
X52285000Y54600001D01*
X52285000Y61000001D01*
%TO.C,U8*%
X43337800Y115692601D02*
X48457800Y115692601D01*
X48457800Y110092601D01*
X43337800Y110092601D01*
X43337800Y115692601D01*
%TO.C,U7*%
X55326600Y115692601D02*
X60446600Y115692601D01*
X60446600Y110092601D01*
X55326600Y110092601D01*
X55326600Y115692601D01*
%TO.C,U6*%
X178716600Y49604000D02*
X182166600Y49604000D01*
X182166600Y46154000D01*
X178716600Y46154000D01*
X178716600Y49604000D01*
%TO.C,U5*%
X47982800Y81633400D02*
X51432800Y81633400D01*
X51432800Y78183400D01*
X47982800Y78183400D01*
X47982800Y81633400D01*
%TO.C,U4*%
X9930000Y112279800D02*
X12930000Y112279800D01*
X12930000Y110579800D01*
X9930000Y110579800D01*
X9930000Y112279800D01*
%TO.C,U3*%
X20129800Y93879400D02*
X24929800Y93879400D01*
X24929800Y90359400D01*
X20129800Y90359400D01*
X20129800Y93879400D01*
%TO.C,SCREW3*%
X213654800Y137404800D02*
X217174800Y137404800D01*
X217174800Y132604800D01*
X213654800Y132604800D01*
X213654800Y137404800D01*
%TO.C,SCREW2*%
X213629400Y7400000D02*
X217149400Y7400000D01*
X217149400Y2600000D01*
X213629400Y2600000D01*
X213629400Y7400000D01*
%TO.C,SCREW1*%
X3640000Y137404800D02*
X7160000Y137404800D01*
X7160000Y132604800D01*
X3640000Y132604800D01*
X3640000Y137404800D01*
%TO.C,S1*%
X97026600Y56272800D02*
X100026600Y56272800D01*
X100026600Y54572800D01*
X97026600Y54572800D01*
X97026600Y56272800D01*
%TO.C,R108*%
X168466320Y15835919D02*
X171466320Y15835919D01*
X171466320Y14135919D01*
X168466320Y14135919D01*
X168466320Y15835919D01*
%TO.C,R107*%
X174506917Y19176019D02*
X177506917Y19176019D01*
X177506917Y17476019D01*
X174506917Y17476019D01*
X174506917Y19176019D01*
%TO.C,R106*%
X156513400Y24681580D02*
X159513400Y24681580D01*
X159513400Y22981580D01*
X156513400Y22981580D01*
X156513400Y24681580D01*
%TO.C,R105*%
X156498480Y18458621D02*
X159498480Y18458621D01*
X159498480Y16758621D01*
X156498480Y16758621D01*
X156498480Y18458621D01*
%TO.C,R104*%
X174506917Y20738119D02*
X177506917Y20738119D01*
X177506917Y19038119D01*
X174506917Y19038119D01*
X174506917Y20738119D01*
%TO.C,R103*%
X162721317Y18833119D02*
X165721317Y18833119D01*
X165721317Y17133119D01*
X162721317Y17133119D01*
X162721317Y18833119D01*
%TO.C,R102*%
X168436317Y24979919D02*
X171436317Y24979919D01*
X171436317Y23279919D01*
X168436317Y23279919D01*
X168436317Y24979919D01*
%TO.C,R101*%
X156498317Y20014198D02*
X159498317Y20014198D01*
X159498317Y18314198D01*
X156498317Y18314198D01*
X156498317Y20014198D01*
%TO.C,R100*%
X156498480Y21570101D02*
X159498480Y21570101D01*
X159498480Y19870101D01*
X156498480Y19870101D01*
X156498480Y21570101D01*
%TO.C,R99*%
X168436317Y23379719D02*
X171436317Y23379719D01*
X171436317Y21679719D01*
X168436317Y21679719D01*
X168436317Y23379719D01*
%TO.C,R98*%
X162746717Y20357119D02*
X165746717Y20357119D01*
X165746717Y18657119D01*
X162746717Y18657119D01*
X162746717Y20357119D01*
%TO.C,R97*%
X183335800Y18172800D02*
X186335800Y18172800D01*
X186335800Y16472800D01*
X183335800Y16472800D01*
X183335800Y18172800D01*
%TO.C,R96*%
X197610600Y18218502D02*
X200610600Y18218502D01*
X200610600Y16518502D01*
X197610600Y16518502D01*
X197610600Y18218502D01*
%TO.C,R95*%
X183335800Y19747600D02*
X186335800Y19747600D01*
X186335800Y18047600D01*
X183335800Y18047600D01*
X183335800Y19747600D01*
%TO.C,R94*%
X197610600Y19762804D02*
X200610600Y19762804D01*
X200610600Y18062804D01*
X197610600Y18062804D01*
X197610600Y19762804D01*
%TO.C,R93*%
X183335800Y24395881D02*
X186335800Y24395881D01*
X186335800Y22695881D01*
X183335800Y22695881D01*
X183335800Y24395881D01*
%TO.C,R92*%
X197610763Y24395874D02*
X200610763Y24395874D01*
X200610763Y22695874D01*
X197610763Y22695874D01*
X197610763Y24395874D01*
%TO.C,R91*%
X183335637Y16623400D02*
X186335637Y16623400D01*
X186335637Y14923400D01*
X183335637Y14923400D01*
X183335637Y16623400D01*
%TO.C,R90*%
X197610600Y16674200D02*
X200610600Y16674200D01*
X200610600Y14974200D01*
X197610600Y14974200D01*
X197610600Y16674200D01*
%TO.C,R89*%
X174740200Y78843000D02*
X176440200Y78843000D01*
X176440200Y75843000D01*
X174740200Y75843000D01*
X174740200Y78843000D01*
%TO.C,R88*%
X206399000Y51650000D02*
X209399000Y51650000D01*
X209399000Y49950000D01*
X206399000Y49950000D01*
X206399000Y51650000D01*
%TO.C,R87*%
X183884200Y78843000D02*
X185584200Y78843000D01*
X185584200Y75843000D01*
X183884200Y75843000D01*
X183884200Y78843000D01*
%TO.C,R86*%
X187003717Y75602200D02*
X190003717Y75602200D01*
X190003717Y73902200D01*
X187003717Y73902200D01*
X187003717Y75602200D01*
%TO.C,R85*%
X171780800Y70823600D02*
X173480800Y70823600D01*
X173480800Y67823600D01*
X171780800Y67823600D01*
X171780800Y70823600D01*
%TO.C,R84*%
X212611600Y80417800D02*
X214311600Y80417800D01*
X214311600Y77417800D01*
X212611600Y77417800D01*
X212611600Y80417800D01*
%TO.C,R83*%
X211062200Y80417800D02*
X212762200Y80417800D01*
X212762200Y77417800D01*
X211062200Y77417800D01*
X211062200Y80417800D01*
%TO.C,R82*%
X171158881Y63338520D02*
X172858881Y63338520D01*
X172858881Y60338520D01*
X171158881Y60338520D01*
X171158881Y63338520D01*
%TO.C,R81*%
X172703201Y63338520D02*
X174403201Y63338520D01*
X174403201Y60338520D01*
X172703201Y60338520D01*
X172703201Y63338520D01*
%TO.C,R80*%
X198794000Y60732800D02*
X200494000Y60732800D01*
X200494000Y57732800D01*
X198794000Y57732800D01*
X198794000Y60732800D01*
%TO.C,R79*%
X200343400Y60732800D02*
X202043400Y60732800D01*
X202043400Y57732800D01*
X200343400Y57732800D01*
X200343400Y60732800D01*
%TO.C,R78*%
X194664200Y68160000D02*
X197664200Y68160000D01*
X197664200Y66460000D01*
X194664200Y66460000D01*
X194664200Y68160000D01*
%TO.C,R77*%
X174247521Y63338520D02*
X175947521Y63338520D01*
X175947521Y60338520D01*
X174247521Y60338520D01*
X174247521Y63338520D01*
%TO.C,R76*%
X175791841Y63338520D02*
X177491841Y63338520D01*
X177491841Y60338520D01*
X175791841Y60338520D01*
X175791841Y63338520D01*
%TO.C,R75*%
X177336161Y63338520D02*
X179036161Y63338520D01*
X179036161Y60338520D01*
X177336161Y60338520D01*
X177336161Y63338520D01*
%TO.C,R74*%
X178880481Y63338520D02*
X180580481Y63338520D01*
X180580481Y60338520D01*
X178880481Y60338520D01*
X178880481Y63338520D01*
%TO.C,R73*%
X180424801Y63338520D02*
X182124801Y63338520D01*
X182124801Y60338520D01*
X180424801Y60338520D01*
X180424801Y63338520D01*
%TO.C,R72*%
X181969121Y63338520D02*
X183669121Y63338520D01*
X183669121Y60338520D01*
X181969121Y60338520D01*
X181969121Y63338520D01*
%TO.C,R71*%
X183513441Y63338520D02*
X185213441Y63338520D01*
X185213441Y60338520D01*
X183513441Y60338520D01*
X183513441Y63338520D01*
%TO.C,R70*%
X185057761Y63338520D02*
X186757761Y63338520D01*
X186757761Y60338520D01*
X185057761Y60338520D01*
X185057761Y63338520D01*
%TO.C,R69*%
X186602081Y63338520D02*
X188302081Y63338520D01*
X188302081Y60338520D01*
X186602081Y60338520D01*
X186602081Y63338520D01*
%TO.C,R68*%
X187003717Y72554200D02*
X190003717Y72554200D01*
X190003717Y70854200D01*
X187003717Y70854200D01*
X187003717Y72554200D01*
%TO.C,R67*%
X187003717Y67931400D02*
X190003717Y67931400D01*
X190003717Y66231400D01*
X187003717Y66231400D01*
X187003717Y67931400D01*
%TO.C,R66*%
X99145280Y118045681D02*
X102145280Y118045681D01*
X102145280Y116345681D01*
X99145280Y116345681D01*
X99145280Y118045681D01*
%TO.C,R65*%
X109335200Y103455600D02*
X111035200Y103455600D01*
X111035200Y100455600D01*
X109335200Y100455600D01*
X109335200Y103455600D01*
%TO.C,R64*%
X81954000Y121845200D02*
X83654000Y121845200D01*
X83654000Y118845200D01*
X81954000Y118845200D01*
X81954000Y121845200D01*
%TO.C,R63*%
X122731400Y105345600D02*
X125731400Y105345600D01*
X125731400Y103645600D01*
X122731400Y103645600D01*
X122731400Y105345600D01*
%TO.C,R62*%
X122731400Y106869600D02*
X125731400Y106869600D01*
X125731400Y105169600D01*
X122731400Y105169600D01*
X122731400Y106869600D01*
%TO.C,R61*%
X95782000Y125995800D02*
X98782000Y125995800D01*
X98782000Y124295800D01*
X95782000Y124295800D01*
X95782000Y125995800D01*
%TO.C,R60*%
X100836600Y125995800D02*
X103836600Y125995800D01*
X103836600Y124295800D01*
X100836600Y124295800D01*
X100836600Y125995800D01*
%TO.C,R59*%
X105891200Y125995800D02*
X108891200Y125995800D01*
X108891200Y124295800D01*
X105891200Y124295800D01*
X105891200Y125995800D01*
%TO.C,R58*%
X110996600Y125995800D02*
X113996600Y125995800D01*
X113996600Y124295800D01*
X110996600Y124295800D01*
X110996600Y125995800D01*
%TO.C,R57*%
X116127400Y125995800D02*
X119127400Y125995800D01*
X119127400Y124295800D01*
X116127400Y124295800D01*
X116127400Y125995800D01*
%TO.C,R56*%
X121131200Y125995800D02*
X124131200Y125995800D01*
X124131200Y124295800D01*
X121131200Y124295800D01*
X121131200Y125995800D01*
%TO.C,R55*%
X126262000Y125995800D02*
X129262000Y125995800D01*
X129262000Y124295800D01*
X126262000Y124295800D01*
X126262000Y125995800D01*
%TO.C,R54*%
X99160200Y107377600D02*
X102160200Y107377600D01*
X102160200Y105677600D01*
X99160200Y105677600D01*
X99160200Y107377600D01*
%TO.C,R53*%
X131316600Y125995800D02*
X134316600Y125995800D01*
X134316600Y124295800D01*
X131316600Y124295800D01*
X131316600Y125995800D01*
%TO.C,R52*%
X99175120Y108901519D02*
X102175120Y108901519D01*
X102175120Y107201519D01*
X99175120Y107201519D01*
X99175120Y108901519D01*
%TO.C,R51*%
X99160200Y110425600D02*
X102160200Y110425600D01*
X102160200Y108725600D01*
X99160200Y108725600D01*
X99160200Y110425600D01*
%TO.C,R50*%
X99160200Y111949600D02*
X102160200Y111949600D01*
X102160200Y110249600D01*
X99160200Y110249600D01*
X99160200Y111949600D01*
%TO.C,R49*%
X99160200Y113473600D02*
X102160200Y113473600D01*
X102160200Y111773600D01*
X99160200Y111773600D01*
X99160200Y113473600D01*
%TO.C,R48*%
X99160200Y114997600D02*
X102160200Y114997600D01*
X102160200Y113297600D01*
X99160200Y113297600D01*
X99160200Y114997600D01*
%TO.C,R47*%
X151626200Y116483001D02*
X153326200Y116483001D01*
X153326200Y113483001D01*
X151626200Y113483001D01*
X151626200Y116483001D01*
%TO.C,R46*%
X148817200Y110466001D02*
X151817200Y110466001D01*
X151817200Y108766001D01*
X148817200Y108766001D01*
X148817200Y110466001D01*
%TO.C,R45*%
X161913200Y136643001D02*
X163613200Y136643001D01*
X163613200Y133643001D01*
X161913200Y133643001D01*
X161913200Y136643001D01*
%TO.C,R44*%
X147308200Y116483001D02*
X149008200Y116483001D01*
X149008200Y113483001D01*
X147308200Y113483001D01*
X147308200Y116483001D01*
%TO.C,R43*%
X195085681Y90410317D02*
X196785681Y90410317D01*
X196785681Y87410317D01*
X195085681Y87410317D01*
X195085681Y90410317D01*
%TO.C,R42*%
X195441200Y116483001D02*
X197141200Y116483001D01*
X197141200Y113483001D01*
X195441200Y113483001D01*
X195441200Y116483001D01*
%TO.C,R41*%
X196609600Y90425400D02*
X198309600Y90425400D01*
X198309600Y87425400D01*
X196609600Y87425400D01*
X196609600Y90425400D01*
%TO.C,R40*%
X205601200Y136501000D02*
X207301200Y136501000D01*
X207301200Y133501000D01*
X205601200Y133501000D01*
X205601200Y136501000D01*
%TO.C,R39*%
X191123200Y116483001D02*
X192823200Y116483001D01*
X192823200Y113483001D01*
X191123200Y113483001D01*
X191123200Y116483001D01*
%TO.C,R38*%
X173343200Y116483001D02*
X175043200Y116483001D01*
X175043200Y113483001D01*
X173343200Y113483001D01*
X173343200Y116483001D01*
%TO.C,R37*%
X173277400Y107936400D02*
X176277400Y107936400D01*
X176277400Y106236400D01*
X173277400Y106236400D01*
X173277400Y107936400D01*
%TO.C,R36*%
X172530400Y90425400D02*
X174230400Y90425400D01*
X174230400Y87425400D01*
X172530400Y87425400D01*
X172530400Y90425400D01*
%TO.C,R35*%
X171006400Y90425400D02*
X172706400Y90425400D01*
X172706400Y87425400D01*
X171006400Y87425400D01*
X171006400Y90425400D01*
%TO.C,R34*%
X168004517Y107936319D02*
X171004517Y107936319D01*
X171004517Y106236319D01*
X168004517Y106236319D01*
X168004517Y107936319D01*
%TO.C,R33*%
X183325400Y136551800D02*
X185025400Y136551800D01*
X185025400Y133551800D01*
X183325400Y133551800D01*
X183325400Y136551800D01*
%TO.C,R32*%
X169025200Y116483001D02*
X170725200Y116483001D01*
X170725200Y113483001D01*
X169025200Y113483001D01*
X169025200Y116483001D01*
%TO.C,R31*%
X26378883Y42455281D02*
X29378883Y42455281D01*
X29378883Y40755281D01*
X26378883Y40755281D01*
X26378883Y42455281D01*
%TO.C,R30*%
X42584083Y42455281D02*
X45584083Y42455281D01*
X45584083Y40755281D01*
X42584083Y40755281D01*
X42584083Y42455281D01*
%TO.C,R29*%
X59104400Y42455281D02*
X62104400Y42455281D01*
X62104400Y40755281D01*
X59104400Y40755281D01*
X59104400Y42455281D01*
%TO.C,R28*%
X75756483Y42455281D02*
X78756483Y42455281D01*
X78756483Y40755281D01*
X75756483Y40755281D01*
X75756483Y42455281D01*
%TO.C,R27*%
X92022800Y42455281D02*
X95022800Y42455281D01*
X95022800Y40755281D01*
X92022800Y40755281D01*
X92022800Y42455281D01*
%TO.C,R26*%
X107989083Y42455281D02*
X110989083Y42455281D01*
X110989083Y40755281D01*
X107989083Y40755281D01*
X107989083Y42455281D01*
%TO.C,R25*%
X124397483Y42455281D02*
X127397483Y42455281D01*
X127397483Y40755281D01*
X124397483Y40755281D01*
X124397483Y42455281D01*
%TO.C,R24*%
X141059883Y42455281D02*
X144059883Y42455281D01*
X144059883Y40755281D01*
X141059883Y40755281D01*
X141059883Y42455281D01*
%TO.C,R23*%
X39927400Y107530000D02*
X42927400Y107530000D01*
X42927400Y105830000D01*
X39927400Y105830000D01*
X39927400Y107530000D01*
%TO.C,R22*%
X32536000Y125452001D02*
X35536000Y125452001D01*
X35536000Y123752001D01*
X32536000Y123752001D01*
X32536000Y125452001D01*
%TO.C,R21*%
X51967000Y107530000D02*
X54967000Y107530000D01*
X54967000Y105830000D01*
X51967000Y105830000D01*
X51967000Y107530000D01*
%TO.C,R20*%
X52856000Y125452001D02*
X55856000Y125452001D01*
X55856000Y123752001D01*
X52856000Y123752001D01*
X52856000Y125452001D01*
%TO.C,R19*%
X42777227Y107530000D02*
X45777227Y107530000D01*
X45777227Y105830000D01*
X42777227Y105830000D01*
X42777227Y107530000D01*
%TO.C,R18*%
X37616000Y125452001D02*
X40616000Y125452001D01*
X40616000Y123752001D01*
X37616000Y123752001D01*
X37616000Y125452001D01*
%TO.C,R17*%
X54808361Y107530081D02*
X57808361Y107530081D01*
X57808361Y105830081D01*
X54808361Y105830081D01*
X54808361Y107530081D01*
%TO.C,R16*%
X57936000Y125452001D02*
X60936000Y125452001D01*
X60936000Y123752001D01*
X57936000Y123752001D01*
X57936000Y125452001D01*
%TO.C,R15*%
X45627053Y107530000D02*
X48627053Y107530000D01*
X48627053Y105830000D01*
X45627053Y105830000D01*
X45627053Y107530000D01*
%TO.C,R14*%
X42696000Y125452001D02*
X45696000Y125452001D01*
X45696000Y123752001D01*
X42696000Y123752001D01*
X42696000Y125452001D01*
%TO.C,R13*%
X57649722Y107530081D02*
X60649722Y107530081D01*
X60649722Y105830081D01*
X57649722Y105830081D01*
X57649722Y107530081D01*
%TO.C,R12*%
X63016000Y125452001D02*
X66016000Y125452001D01*
X66016000Y123752001D01*
X63016000Y123752001D01*
X63016000Y125452001D01*
%TO.C,R11*%
X48476880Y107530000D02*
X51476880Y107530000D01*
X51476880Y105830000D01*
X48476880Y105830000D01*
X48476880Y107530000D01*
%TO.C,R10*%
X47776000Y125452001D02*
X50776000Y125452001D01*
X50776000Y123752001D01*
X47776000Y123752001D01*
X47776000Y125452001D01*
%TO.C,R9*%
X60491083Y107530081D02*
X63491083Y107530081D01*
X63491083Y105830081D01*
X60491083Y105830081D01*
X60491083Y107530081D01*
%TO.C,R8*%
X68096000Y125452001D02*
X71096000Y125452001D01*
X71096000Y123752001D01*
X68096000Y123752001D01*
X68096000Y125452001D01*
%TO.C,R7*%
X25997881Y91075320D02*
X27697881Y91075320D01*
X27697881Y88075320D01*
X25997881Y88075320D01*
X25997881Y91075320D01*
%TO.C,R6*%
X20699600Y114134000D02*
X23699600Y114134000D01*
X23699600Y112434000D01*
X20699600Y112434000D01*
X20699600Y114134000D01*
%TO.C,R5*%
X25997881Y88154320D02*
X27697881Y88154320D01*
X27697881Y85154320D01*
X25997881Y85154320D01*
X25997881Y88154320D01*
%TO.C,R4*%
X76899319Y93259883D02*
X78599319Y93259883D01*
X78599319Y90259883D01*
X76899319Y90259883D01*
X76899319Y93259883D01*
%TO.C,R3*%
X95350200Y60387600D02*
X98350200Y60387600D01*
X98350200Y58687600D01*
X95350200Y58687600D01*
X95350200Y60387600D01*
%TO.C,R2*%
X73719717Y71411119D02*
X76719717Y71411119D01*
X76719717Y69711119D01*
X73719717Y69711119D01*
X73719717Y71411119D01*
%TO.C,R1*%
X104240200Y74002000D02*
X107240200Y74002000D01*
X107240200Y72302000D01*
X104240200Y72302000D01*
X104240200Y74002000D01*
%TO.C,Q1*%
X174202400Y24178600D02*
X177384400Y24178600D01*
X177384400Y21228600D01*
X174202400Y21228600D01*
X174202400Y24178600D01*
%TO.C,P4*%
X109727000Y134607000D02*
X113247000Y134607000D01*
X113247000Y129807000D01*
X109727000Y129807000D01*
X109727000Y134607000D01*
%TO.C,P2*%
X74830600Y98651400D02*
X78280600Y98651400D01*
X78280600Y95201400D01*
X74830600Y95201400D01*
X74830600Y98651400D01*
%TO.C,P1*%
X90477000Y110640200D02*
X93927000Y110640200D01*
X93927000Y107190200D01*
X90477000Y107190200D01*
X90477000Y110640200D01*
%TO.C,LED17*%
X22731478Y42448616D02*
X25731478Y42448616D01*
X25731478Y40748616D01*
X22731478Y40748616D01*
X22731478Y42448616D01*
%TO.C,LED16*%
X38936800Y42448616D02*
X41936800Y42448616D01*
X41936800Y40748616D01*
X38936800Y40748616D01*
X38936800Y42448616D01*
%TO.C,LED15*%
X55421278Y42448616D02*
X58421278Y42448616D01*
X58421278Y40748616D01*
X55421278Y40748616D01*
X55421278Y42448616D01*
%TO.C,LED14*%
X72083678Y42448616D02*
X75083678Y42448616D01*
X75083678Y40748616D01*
X72083678Y40748616D01*
X72083678Y42448616D01*
%TO.C,LED13*%
X88314400Y42480600D02*
X91314400Y42480600D01*
X91314400Y40780600D01*
X88314400Y40780600D01*
X88314400Y42480600D01*
%TO.C,LED12*%
X104367078Y42448616D02*
X107367078Y42448616D01*
X107367078Y40748616D01*
X104367078Y40748616D01*
X104367078Y42448616D01*
%TO.C,LED11*%
X120724678Y42448616D02*
X123724678Y42448616D01*
X123724678Y40748616D01*
X120724678Y40748616D01*
X120724678Y42448616D01*
%TO.C,LED10*%
X137437878Y42448616D02*
X140437878Y42448616D01*
X140437878Y40748616D01*
X137437878Y40748616D01*
X137437878Y42448616D01*
%TO.C,LED9*%
X32663000Y123547001D02*
X35663000Y123547001D01*
X35663000Y121847001D01*
X32663000Y121847001D01*
X32663000Y123547001D01*
%TO.C,LED8*%
X52983000Y123547001D02*
X55983000Y123547001D01*
X55983000Y121847001D01*
X52983000Y121847001D01*
X52983000Y123547001D01*
%TO.C,LED7*%
X37743000Y123547001D02*
X40743000Y123547001D01*
X40743000Y121847001D01*
X37743000Y121847001D01*
X37743000Y123547001D01*
%TO.C,LED6*%
X58063000Y123547001D02*
X61063000Y123547001D01*
X61063000Y121847001D01*
X58063000Y121847001D01*
X58063000Y123547001D01*
%TO.C,LED5*%
X42823000Y123547001D02*
X45823000Y123547001D01*
X45823000Y121847001D01*
X42823000Y121847001D01*
X42823000Y123547001D01*
%TO.C,LED4*%
X63143000Y123547001D02*
X66143000Y123547001D01*
X66143000Y121847001D01*
X63143000Y121847001D01*
X63143000Y123547001D01*
%TO.C,LED3*%
X47903000Y123547001D02*
X50903000Y123547001D01*
X50903000Y121847001D01*
X47903000Y121847001D01*
X47903000Y123547001D01*
%TO.C,LED2*%
X68223000Y123547001D02*
X71223000Y123547001D01*
X71223000Y121847001D01*
X68223000Y121847001D01*
X68223000Y123547001D01*
%TO.C,LED1*%
X75241816Y93905322D02*
X76941816Y93905322D01*
X76941816Y90905322D01*
X75241816Y90905322D01*
X75241816Y93905322D01*
%TO.C,L3*%
X148592200Y108674001D02*
X152042200Y108674001D01*
X152042200Y105224001D01*
X148592200Y105224001D01*
X148592200Y108674001D01*
%TO.C,L2*%
X170436200Y109817001D02*
X173886200Y109817001D01*
X173886200Y106367001D01*
X170436200Y106367001D01*
X170436200Y109817001D01*
%TO.C,L1*%
X15670400Y82663400D02*
X18670400Y82663400D01*
X18670400Y80963400D01*
X15670400Y80963400D01*
X15670400Y82663400D01*
%TO.C,K8*%
X24060605Y27621500D02*
X27603005Y27621500D01*
X27603005Y24181600D01*
X24060605Y24181600D01*
X24060605Y27621500D01*
%TO.C,K7*%
X40425459Y27621500D02*
X43967859Y27621500D01*
X43967859Y24181600D01*
X40425459Y24181600D01*
X40425459Y27621500D01*
%TO.C,K6*%
X56790314Y27621500D02*
X60332714Y27621500D01*
X60332714Y24181600D01*
X56790314Y24181600D01*
X56790314Y27621500D01*
%TO.C,K5*%
X73155168Y27621500D02*
X76697568Y27621500D01*
X76697568Y24181600D01*
X73155168Y24181600D01*
X73155168Y27621500D01*
%TO.C,K4*%
X89520022Y27621500D02*
X93062422Y27621500D01*
X93062422Y24181600D01*
X89520022Y24181600D01*
X89520022Y27621500D01*
%TO.C,K3*%
X105884876Y27621500D02*
X109427276Y27621500D01*
X109427276Y24181600D01*
X105884876Y24181600D01*
X105884876Y27621500D01*
%TO.C,K2*%
X122249731Y27621500D02*
X125792131Y27621500D01*
X125792131Y24181600D01*
X122249731Y24181600D01*
X122249731Y27621500D01*
%TO.C,K1*%
X138614585Y27621500D02*
X142156985Y27621500D01*
X142156985Y24181600D01*
X138614585Y24181600D01*
X138614585Y27621500D01*
%TO.C,J15*%
X168396200Y10071600D02*
X171346200Y10071600D01*
X171346200Y6889600D01*
X168396200Y6889600D01*
X168396200Y10071600D01*
%TO.C,J14*%
X195040800Y10071600D02*
X197990800Y10071600D01*
X197990800Y6889600D01*
X195040800Y6889600D01*
X195040800Y10071600D01*
%TO.C,J12*%
X78285000Y133798000D02*
X81235000Y133798000D01*
X81235000Y130616000D01*
X78285000Y130616000D01*
X78285000Y133798000D01*
%TO.C,J11*%
X148592200Y133798000D02*
X151542200Y133798000D01*
X151542200Y130616000D01*
X148592200Y130616000D01*
X148592200Y133798000D01*
%TO.C,J10*%
X192407200Y133798000D02*
X195357200Y133798000D01*
X195357200Y130616000D01*
X192407200Y130616000D01*
X192407200Y133798000D01*
%TO.C,J9*%
X170182200Y133798000D02*
X173132200Y133798000D01*
X173132200Y130616000D01*
X170182200Y130616000D01*
X170182200Y133798000D01*
%TO.C,J8*%
X24860815Y10071600D02*
X27810815Y10071600D01*
X27810815Y6889600D01*
X24860815Y6889600D01*
X24860815Y10071600D01*
%TO.C,J7*%
X41261956Y10071600D02*
X44211956Y10071600D01*
X44211956Y6889600D01*
X41261956Y6889600D01*
X41261956Y10071600D01*
%TO.C,J6*%
X57663097Y10071600D02*
X60613097Y10071600D01*
X60613097Y6889600D01*
X57663097Y6889600D01*
X57663097Y10071600D01*
%TO.C,J5*%
X74064237Y10071600D02*
X77014237Y10071600D01*
X77014237Y6889600D01*
X74064237Y6889600D01*
X74064237Y10071600D01*
%TO.C,J4*%
X90465378Y10071600D02*
X93415378Y10071600D01*
X93415378Y6889600D01*
X90465378Y6889600D01*
X90465378Y10071600D01*
%TO.C,J3*%
X106866519Y10071600D02*
X109816519Y10071600D01*
X109816519Y6889600D01*
X106866519Y6889600D01*
X106866519Y10071600D01*
%TO.C,J2*%
X123267659Y10071600D02*
X126217659Y10071600D01*
X126217659Y6889600D01*
X123267659Y6889600D01*
X123267659Y10071600D01*
%TO.C,J1*%
X139668800Y10071600D02*
X142618800Y10071600D01*
X142618800Y6889600D01*
X139668800Y6889600D01*
X139668800Y10071600D01*
%TO.C,F1*%
X17651600Y119696600D02*
X20651600Y119696600D01*
X20651600Y117996600D01*
X17651600Y117996600D01*
X17651600Y119696600D01*
%TO.C,DR9*%
X150265000Y17461600D02*
X153265000Y17461600D01*
X153265000Y15761600D01*
X150265000Y15761600D01*
X150265000Y17461600D01*
%TO.C,DR8*%
X189152400Y17461600D02*
X192152400Y17461600D01*
X192152400Y15761600D01*
X189152400Y15761600D01*
X189152400Y17461600D01*
%TO.C,DR7*%
X203554200Y17563200D02*
X206554200Y17563200D01*
X206554200Y15863200D01*
X203554200Y15863200D01*
X203554200Y17563200D01*
%TO.C,DR6*%
X143117200Y115800000D02*
X144817200Y115800000D01*
X144817200Y112800000D01*
X143117200Y112800000D01*
X143117200Y115800000D01*
%TO.C,DR5*%
X199632200Y115736000D02*
X201332200Y115736000D01*
X201332200Y112736000D01*
X199632200Y112736000D01*
X199632200Y115736000D01*
%TO.C,DR4*%
X186932200Y115800000D02*
X188632200Y115800000D01*
X188632200Y112800000D01*
X186932200Y112800000D01*
X186932200Y115800000D01*
%TO.C,DR3*%
X164834200Y115800000D02*
X166534200Y115800000D01*
X166534200Y112800000D01*
X164834200Y112800000D01*
X164834200Y115800000D01*
%TO.C,DR2*%
X19023200Y109460400D02*
X22023200Y109460400D01*
X22023200Y107760400D01*
X19023200Y107760400D01*
X19023200Y109460400D01*
%TO.C,DR1*%
X37046800Y81535400D02*
X38746800Y81535400D01*
X38746800Y78535400D01*
X37046800Y78535400D01*
X37046800Y81535400D01*
%TO.C,DC1*%
X16189000Y132027000D02*
X19371000Y132027000D01*
X19371000Y129077000D01*
X16189000Y129077000D01*
X16189000Y132027000D01*
%TO.C,D14*%
X155436200Y115688001D02*
X157136200Y115688001D01*
X157136200Y112688001D01*
X155436200Y112688001D01*
X155436200Y115688001D01*
%TO.C,D13*%
X158738200Y115688001D02*
X160438200Y115688001D01*
X160438200Y112688001D01*
X158738200Y112688001D01*
X158738200Y115688001D01*
%TO.C,D12*%
X180455200Y115673000D02*
X182155200Y115673000D01*
X182155200Y112673000D01*
X180455200Y112673000D01*
X180455200Y115673000D01*
%TO.C,D11*%
X177153200Y115673000D02*
X178853200Y115673000D01*
X178853200Y112673000D01*
X177153200Y112673000D01*
X177153200Y115673000D01*
%TO.C,D10*%
X24204800Y39981001D02*
X27204800Y39981001D01*
X27204800Y38281001D01*
X24204800Y38281001D01*
X24204800Y39981001D01*
%TO.C,D9*%
X40460800Y39981001D02*
X43460800Y39981001D01*
X43460800Y38281001D01*
X40460800Y38281001D01*
X40460800Y39981001D01*
%TO.C,D8*%
X56920000Y39981001D02*
X59920000Y39981001D01*
X59920000Y38281001D01*
X56920000Y38281001D01*
X56920000Y39981001D01*
%TO.C,D7*%
X73607800Y39981001D02*
X76607800Y39981001D01*
X76607800Y38281001D01*
X73607800Y38281001D01*
X73607800Y39981001D01*
%TO.C,D6*%
X89838400Y39981001D02*
X92838400Y39981001D01*
X92838400Y38281001D01*
X89838400Y38281001D01*
X89838400Y39981001D01*
%TO.C,D5*%
X105865800Y39981001D02*
X108865800Y39981001D01*
X108865800Y38281001D01*
X105865800Y38281001D01*
X105865800Y39981001D01*
%TO.C,D4*%
X122172600Y39981001D02*
X125172600Y39981001D01*
X125172600Y38281001D01*
X122172600Y38281001D01*
X122172600Y39981001D01*
%TO.C,D3*%
X138911200Y39981001D02*
X141911200Y39981001D01*
X141911200Y38281001D01*
X138911200Y38281001D01*
X138911200Y39981001D01*
%TO.C,D2*%
X16244200Y94210000D02*
X17944200Y94210000D01*
X17944200Y91210000D01*
X16244200Y91210000D01*
X16244200Y94210000D01*
%TO.C,D1*%
X10590400Y119722000D02*
X13590400Y119722000D01*
X13590400Y118022000D01*
X10590400Y118022000D01*
X10590400Y119722000D01*
%TO.C,C107*%
X174506917Y17613919D02*
X177506917Y17613919D01*
X177506917Y15913919D01*
X174506917Y15913919D01*
X174506917Y17613919D01*
%TO.C,C106*%
X156513400Y23125678D02*
X159513400Y23125678D01*
X159513400Y21425678D01*
X156513400Y21425678D01*
X156513400Y23125678D01*
%TO.C,C105*%
X156498317Y16902719D02*
X159498317Y16902719D01*
X159498317Y15202719D01*
X156498317Y15202719D01*
X156498317Y16902719D01*
%TO.C,C104*%
X183335800Y21297081D02*
X186335800Y21297081D01*
X186335800Y19597081D01*
X183335800Y19597081D01*
X183335800Y21297081D01*
%TO.C,C103*%
X197610763Y21307269D02*
X200610763Y21307269D01*
X200610763Y19607269D01*
X197610763Y19607269D01*
X197610763Y21307269D01*
%TO.C,C102*%
X183335637Y22846319D02*
X186335637Y22846319D01*
X186335637Y21146319D01*
X183335637Y21146319D01*
X183335637Y22846319D01*
%TO.C,C101*%
X197610600Y22851409D02*
X200610600Y22851409D01*
X200610600Y21151409D01*
X197610600Y21151409D01*
X197610600Y22851409D01*
%TO.C,C100*%
X176264200Y78843000D02*
X177964200Y78843000D01*
X177964200Y75843000D01*
X176264200Y75843000D01*
X176264200Y78843000D01*
%TO.C,C99*%
X179312200Y78843000D02*
X181012200Y78843000D01*
X181012200Y75843000D01*
X179312200Y75843000D01*
X179312200Y78843000D01*
%TO.C,C98*%
X206399000Y53301000D02*
X209399000Y53301000D01*
X209399000Y51601000D01*
X206399000Y51601000D01*
X206399000Y53301000D01*
%TO.C,C97*%
X177788200Y78843000D02*
X179488200Y78843000D01*
X179488200Y75843000D01*
X177788200Y75843000D01*
X177788200Y78843000D01*
%TO.C,C96*%
X180836200Y78843000D02*
X182536200Y78843000D01*
X182536200Y75843000D01*
X180836200Y75843000D01*
X180836200Y78843000D01*
%TO.C,C95*%
X182360281Y78857920D02*
X184060281Y78857920D01*
X184060281Y75857920D01*
X182360281Y75857920D01*
X182360281Y78857920D01*
%TO.C,C94*%
X187003717Y77126119D02*
X190003717Y77126119D01*
X190003717Y75426119D01*
X187003717Y75426119D01*
X187003717Y77126119D01*
%TO.C,C93*%
X187003717Y78650119D02*
X190003717Y78650119D01*
X190003717Y76950119D01*
X187003717Y76950119D01*
X187003717Y78650119D01*
%TO.C,C92*%
X187003717Y74078119D02*
X190003717Y74078119D01*
X190003717Y72378119D01*
X187003717Y72378119D01*
X187003717Y74078119D01*
%TO.C,C91*%
X211377400Y51675400D02*
X214377400Y51675400D01*
X214377400Y49975400D01*
X211377400Y49975400D01*
X211377400Y51675400D01*
%TO.C,C90*%
X211377400Y53224800D02*
X214377400Y53224800D01*
X214377400Y51524800D01*
X211377400Y51524800D01*
X211377400Y53224800D01*
%TO.C,C89*%
X173216281Y78827917D02*
X174916281Y78827917D01*
X174916281Y75827917D01*
X173216281Y75827917D01*
X173216281Y78827917D01*
%TO.C,C88*%
X168705400Y73163800D02*
X171705400Y73163800D01*
X171705400Y71463800D01*
X168705400Y71463800D01*
X168705400Y73163800D01*
%TO.C,C87*%
X168717800Y67379600D02*
X171717800Y67379600D01*
X171717800Y65679600D01*
X168717800Y65679600D01*
X168717800Y67379600D01*
%TO.C,C86*%
X194664200Y69684000D02*
X197664200Y69684000D01*
X197664200Y67984000D01*
X194664200Y67984000D01*
X194664200Y69684000D01*
%TO.C,C85*%
X187003880Y71004881D02*
X190003880Y71004881D01*
X190003880Y69304881D01*
X187003880Y69304881D01*
X187003880Y71004881D01*
%TO.C,C84*%
X187003880Y69455481D02*
X190003880Y69455481D01*
X190003880Y67755481D01*
X187003880Y67755481D01*
X187003880Y69455481D01*
%TO.C,C83*%
X194679120Y71233319D02*
X197679120Y71233319D01*
X197679120Y69533319D01*
X194679120Y69533319D01*
X194679120Y71233319D01*
%TO.C,C82*%
X122716317Y117537519D02*
X125716317Y117537519D01*
X125716317Y115837519D01*
X122716317Y115837519D01*
X122716317Y117537519D01*
%TO.C,C81*%
X122731400Y109917600D02*
X125731400Y109917600D01*
X125731400Y108217600D01*
X122731400Y108217600D01*
X122731400Y109917600D01*
%TO.C,C80*%
X99160200Y116521600D02*
X102160200Y116521600D01*
X102160200Y114821600D01*
X99160200Y114821600D01*
X99160200Y116521600D01*
%TO.C,C79*%
X110859200Y103455600D02*
X112559200Y103455600D01*
X112559200Y100455600D01*
X110859200Y100455600D01*
X110859200Y103455600D01*
%TO.C,C78*%
X122716480Y114489681D02*
X125716480Y114489681D01*
X125716480Y112789681D01*
X122716480Y112789681D01*
X122716480Y114489681D01*
%TO.C,C77*%
X122716480Y112965681D02*
X125716480Y112965681D01*
X125716480Y111265681D01*
X122716480Y111265681D01*
X122716480Y112965681D01*
%TO.C,C76*%
X76046200Y125818000D02*
X79046200Y125818000D01*
X79046200Y124118000D01*
X76046200Y124118000D01*
X76046200Y125818000D01*
%TO.C,C75*%
X76056680Y115556481D02*
X79056680Y115556481D01*
X79056680Y113856481D01*
X76056680Y113856481D01*
X76056680Y115556481D01*
%TO.C,C74*%
X76041598Y117080400D02*
X79041598Y117080400D01*
X79041598Y115380400D01*
X76041598Y115380400D01*
X76041598Y117080400D01*
%TO.C,C73*%
X122716317Y108393519D02*
X125716317Y108393519D01*
X125716317Y106693519D01*
X122716317Y106693519D01*
X122716317Y108393519D01*
%TO.C,C72*%
X122731400Y111441600D02*
X125731400Y111441600D01*
X125731400Y109741600D01*
X122731400Y109741600D01*
X122731400Y111441600D01*
%TO.C,C71*%
X122731400Y116013600D02*
X125731400Y116013600D01*
X125731400Y114313600D01*
X122731400Y114313600D01*
X122731400Y116013600D01*
%TO.C,C70*%
X95807400Y124471800D02*
X98807400Y124471800D01*
X98807400Y122771800D01*
X95807400Y122771800D01*
X95807400Y124471800D01*
%TO.C,C69*%
X100836600Y124471800D02*
X103836600Y124471800D01*
X103836600Y122771800D01*
X100836600Y122771800D01*
X100836600Y124471800D01*
%TO.C,C68*%
X105891200Y124471800D02*
X108891200Y124471800D01*
X108891200Y122771800D01*
X105891200Y122771800D01*
X105891200Y124471800D01*
%TO.C,C67*%
X111006917Y124471800D02*
X114006917Y124471800D01*
X114006917Y122771800D01*
X111006917Y122771800D01*
X111006917Y124471800D01*
%TO.C,C66*%
X116127400Y124471800D02*
X119127400Y124471800D01*
X119127400Y122771800D01*
X116127400Y122771800D01*
X116127400Y124471800D01*
%TO.C,C65*%
X121131200Y124471800D02*
X124131200Y124471800D01*
X124131200Y122771800D01*
X121131200Y122771800D01*
X121131200Y124471800D01*
%TO.C,C64*%
X126236600Y124471800D02*
X129236600Y124471800D01*
X129236600Y122771800D01*
X126236600Y122771800D01*
X126236600Y124471800D01*
%TO.C,C63*%
X131316600Y124471800D02*
X134316600Y124471800D01*
X134316600Y122771800D01*
X131316600Y122771800D01*
X131316600Y124471800D01*
%TO.C,C62*%
X154405200Y106275001D02*
X157405200Y106275001D01*
X157405200Y104575001D01*
X154405200Y104575001D01*
X154405200Y106275001D01*
%TO.C,C61*%
X153150200Y90273000D02*
X154850200Y90273000D01*
X154850200Y87273000D01*
X153150200Y87273000D01*
X153150200Y90273000D01*
%TO.C,C60*%
X150661000Y90273000D02*
X152361000Y90273000D01*
X152361000Y87273000D01*
X150661000Y87273000D01*
X150661000Y90273000D01*
%TO.C,C59*%
X159373200Y136643001D02*
X161073200Y136643001D01*
X161073200Y133643001D01*
X159373200Y133643001D01*
X159373200Y136643001D01*
%TO.C,C58*%
X144245200Y106148001D02*
X147245200Y106148001D01*
X147245200Y104448001D01*
X144245200Y104448001D01*
X144245200Y106148001D01*
%TO.C,C57*%
X198133520Y107682319D02*
X201133520Y107682319D01*
X201133520Y105982319D01*
X198133520Y105982319D01*
X198133520Y107682319D01*
%TO.C,C56*%
X195299200Y107672001D02*
X198299200Y107672001D01*
X198299200Y105972001D01*
X195299200Y105972001D01*
X195299200Y107672001D01*
%TO.C,C55*%
X203061200Y136501000D02*
X204761200Y136501000D01*
X204761200Y133501000D01*
X203061200Y133501000D01*
X203061200Y136501000D01*
%TO.C,C54*%
X190219200Y90400001D02*
X193219200Y90400001D01*
X193219200Y88700001D01*
X190219200Y88700001D01*
X190219200Y90400001D01*
%TO.C,C53*%
X190219200Y88876001D02*
X193219200Y88876001D01*
X193219200Y87176001D01*
X190219200Y87176001D01*
X190219200Y88876001D01*
%TO.C,C52*%
X190854200Y107672001D02*
X193854200Y107672001D01*
X193854200Y105972001D01*
X190854200Y105972001D01*
X190854200Y107672001D01*
%TO.C,C51*%
X189116600Y108068001D02*
X190816600Y108068001D01*
X190816600Y105068001D01*
X189116600Y105068001D01*
X189116600Y108068001D01*
%TO.C,C50*%
X187592600Y108068001D02*
X189292600Y108068001D01*
X189292600Y105068001D01*
X187592600Y105068001D01*
X187592600Y108068001D01*
%TO.C,C49*%
X168009120Y109485719D02*
X171009120Y109485719D01*
X171009120Y107785719D01*
X168009120Y107785719D01*
X168009120Y109485719D01*
%TO.C,C48*%
X168019600Y106387000D02*
X171019600Y106387000D01*
X171019600Y104687000D01*
X168019600Y104687000D01*
X168019600Y106387000D01*
%TO.C,C47*%
X175817400Y90740600D02*
X178817400Y90740600D01*
X178817400Y89040600D01*
X175817400Y89040600D01*
X175817400Y90740600D01*
%TO.C,C46*%
X175806920Y89140319D02*
X178806920Y89140319D01*
X178806920Y87440319D01*
X175806920Y87440319D01*
X175806920Y89140319D01*
%TO.C,C45*%
X180785400Y136551800D02*
X182485400Y136551800D01*
X182485400Y133551800D01*
X180785400Y133551800D01*
X180785400Y136551800D01*
%TO.C,C44*%
X173277563Y109485800D02*
X176277563Y109485800D01*
X176277563Y107785800D01*
X173277563Y107785800D01*
X173277563Y109485800D01*
%TO.C,C43*%
X173277563Y106387081D02*
X176277563Y106387081D01*
X176277563Y104687081D01*
X173277563Y104687081D01*
X173277563Y106387081D01*
%TO.C,C42*%
X168172000Y90537400D02*
X171172000Y90537400D01*
X171172000Y88837400D01*
X168172000Y88837400D01*
X168172000Y90537400D01*
%TO.C,C41*%
X168172000Y89003001D02*
X171172000Y89003001D01*
X171172000Y87303001D01*
X168172000Y87303001D01*
X168172000Y89003001D01*
%TO.C,C40*%
X47409919Y55094081D02*
X49109919Y55094081D01*
X49109919Y52094081D01*
X47409919Y52094081D01*
X47409919Y55094081D01*
%TO.C,C39*%
X45886000Y55109001D02*
X47586000Y55109001D01*
X47586000Y52109001D01*
X45886000Y52109001D01*
X45886000Y55109001D01*
%TO.C,C38*%
X187059200Y48998000D02*
X188759200Y48998000D01*
X188759200Y45998000D01*
X187059200Y45998000D01*
X187059200Y48998000D01*
%TO.C,C37*%
X185553958Y49005518D02*
X187253958Y49005518D01*
X187253958Y46005518D01*
X185553958Y46005518D01*
X185553958Y49005518D01*
%TO.C,C36*%
X173343200Y47804200D02*
X175043200Y47804200D01*
X175043200Y44804200D01*
X173343200Y44804200D01*
X173343200Y47804200D01*
%TO.C,C35*%
X171819281Y47819120D02*
X173519281Y47819120D01*
X173519281Y44819120D01*
X171819281Y44819120D01*
X171819281Y47819120D01*
%TO.C,C34*%
X56096800Y80900400D02*
X57796800Y80900400D01*
X57796800Y77900400D01*
X56096800Y77900400D01*
X56096800Y80900400D01*
%TO.C,C33*%
X54572800Y80900400D02*
X56272800Y80900400D01*
X56272800Y77900400D01*
X54572800Y77900400D01*
X54572800Y80900400D01*
%TO.C,C32*%
X42464165Y79764918D02*
X44164165Y79764918D01*
X44164165Y76764918D01*
X42464165Y76764918D01*
X42464165Y79764918D01*
%TO.C,C31*%
X40856800Y79757400D02*
X42556800Y79757400D01*
X42556800Y76757400D01*
X40856800Y76757400D01*
X40856800Y79757400D01*
%TO.C,C30*%
X21029800Y98904399D02*
X24029800Y98904399D01*
X24029800Y97204399D01*
X21029800Y97204399D01*
X21029800Y98904399D01*
%TO.C,C29*%
X21029800Y97380399D02*
X24029800Y97380399D01*
X24029800Y95680399D01*
X21029800Y95680399D01*
X21029800Y97380399D01*
%TO.C,C28*%
X19104803Y103364400D02*
X22104803Y103364400D01*
X22104803Y101664400D01*
X19104803Y101664400D01*
X19104803Y103364400D01*
%TO.C,C27*%
X33998800Y79884400D02*
X35698800Y79884400D01*
X35698800Y76884400D01*
X33998800Y76884400D01*
X33998800Y79884400D01*
%TO.C,C26*%
X32474800Y79884400D02*
X34174800Y79884400D01*
X34174800Y76884400D01*
X32474800Y76884400D01*
X32474800Y79884400D01*
%TO.C,C25*%
X27648800Y82424400D02*
X29348800Y82424400D01*
X29348800Y79424400D01*
X27648800Y79424400D01*
X27648800Y82424400D01*
%TO.C,C24*%
X18439000Y87489400D02*
X21439000Y87489400D01*
X21439000Y85789400D01*
X18439000Y85789400D01*
X18439000Y87489400D01*
%TO.C,C23*%
X119977800Y72416800D02*
X121677800Y72416800D01*
X121677800Y69416800D01*
X119977800Y69416800D01*
X119977800Y72416800D01*
%TO.C,C22*%
X136818000Y72620000D02*
X138518000Y72620000D01*
X138518000Y69620000D01*
X136818000Y69620000D01*
X136818000Y72620000D01*
%TO.C,C21*%
X95350200Y63435600D02*
X98350200Y63435600D01*
X98350200Y61735600D01*
X95350200Y61735600D01*
X95350200Y63435600D01*
%TO.C,C20*%
X73811000Y68998200D02*
X76811000Y68998200D01*
X76811000Y67298200D01*
X73811000Y67298200D01*
X73811000Y68998200D01*
%TO.C,C19*%
X73811000Y74967200D02*
X76811000Y74967200D01*
X76811000Y73267200D01*
X73811000Y73267200D01*
X73811000Y74967200D01*
%TO.C,C18*%
X73811000Y80225000D02*
X76811000Y80225000D01*
X76811000Y78525000D01*
X73811000Y78525000D01*
X73811000Y80225000D01*
%TO.C,C17*%
X80023600Y93219400D02*
X81723600Y93219400D01*
X81723600Y90219400D01*
X80023600Y90219400D01*
X80023600Y93219400D01*
%TO.C,C16*%
X87288000Y93193837D02*
X88988000Y93193837D01*
X88988000Y90193837D01*
X87288000Y90193837D01*
X87288000Y93193837D01*
%TO.C,C15*%
X93104600Y93194000D02*
X94804600Y93194000D01*
X94804600Y90194000D01*
X93104600Y90194000D01*
X93104600Y93194000D01*
%TO.C,C14*%
X104275917Y86498719D02*
X107275917Y86498719D01*
X107275917Y84798719D01*
X104275917Y84798719D01*
X104275917Y86498719D01*
%TO.C,C13*%
X104316400Y80961600D02*
X107316400Y80961600D01*
X107316400Y79261600D01*
X104316400Y79261600D01*
X104316400Y80961600D01*
%TO.C,C12*%
X104265600Y75983200D02*
X107265600Y75983200D01*
X107265600Y74283200D01*
X104265600Y74283200D01*
X104265600Y75983200D01*
%TO.C,C11*%
X104275917Y69684000D02*
X107275917Y69684000D01*
X107275917Y67984000D01*
X104275917Y67984000D01*
X104275917Y69684000D01*
%TO.C,C10*%
X95350200Y61911600D02*
X98350200Y61911600D01*
X98350200Y60211600D01*
X95350200Y60211600D01*
X95350200Y61911600D01*
%TO.C,C9*%
X88812000Y63628400D02*
X90512000Y63628400D01*
X90512000Y60628400D01*
X88812000Y60628400D01*
X88812000Y63628400D01*
%TO.C,C8*%
X83249400Y63526800D02*
X84949400Y63526800D01*
X84949400Y60526800D01*
X83249400Y60526800D01*
X83249400Y63526800D01*
%TO.C,C7*%
X89508200Y60413000D02*
X92508200Y60413000D01*
X92508200Y58713000D01*
X89508200Y58713000D01*
X89508200Y60413000D01*
%TO.C,C6*%
X92323920Y60419718D02*
X95323920Y60419718D01*
X95323920Y58719718D01*
X92323920Y58719718D01*
X92323920Y60419718D01*
%TO.C,C5*%
X81496800Y93219400D02*
X83196800Y93219400D01*
X83196800Y90219400D01*
X81496800Y90219400D01*
X81496800Y93219400D01*
%TO.C,C4*%
X104276080Y85000281D02*
X107276080Y85000281D01*
X107276080Y83300281D01*
X104276080Y83300281D01*
X104276080Y85000281D01*
%TO.C,C3*%
X82462921Y58431719D02*
X85462921Y58431719D01*
X85462921Y56731719D01*
X82462921Y56731719D01*
X82462921Y58431719D01*
%TO.C,C2*%
X95350037Y58863519D02*
X98350037Y58863519D01*
X98350037Y57163519D01*
X95350037Y57163519D01*
X95350037Y58863519D01*
%TO.C,C1*%
X79613681Y58431881D02*
X82613681Y58431881D01*
X82613681Y56731881D01*
X79613681Y56731881D01*
X79613681Y58431881D01*
%TO.C,4*%
X184317600Y46314400D02*
X186217600Y46314400D01*
X186217600Y44414400D01*
X184317600Y44414400D01*
X184317600Y46314400D01*
%TO.C,3*%
X51831200Y77734200D02*
X53731200Y77734200D01*
X53731200Y75834200D01*
X51831200Y75834200D01*
X51831200Y77734200D01*
%TO.C,2*%
X34635400Y77175400D02*
X36535400Y77175400D01*
X36535400Y75275400D01*
X34635400Y75275400D01*
X34635400Y77175400D01*
%TO.C,1*%
X12004000Y103439000D02*
X13904000Y103439000D01*
X13904000Y101539000D01*
X12004000Y101539000D01*
X12004000Y103439000D01*
%TD*%
M02*
