%TF.GenerationSoftware,KiCad,Pcbnew,10.99.0-unknown*%
%TF.CreationDate,2026-08-12T15:31:14+08:00*%
%TF.ProjectId,_____4.0(____),ef504535-9d34-42e3-9028-26e0bf45292e,rev?*%
%TF.SameCoordinates,Original*%
%TF.FileFunction,Profile,NP*%
%FSLAX46Y46*%
G04 Gerber Fmt 4.6, Leading zero omitted, Abs format (unit mm)*
G04 Created by KiCad (PCBNEW 10.99.0-unknown) date 2026-08-12 15:31:14*
%MOMM*%
%LPD*%
G01*
G04 APERTURE LIST*
%TA.AperFunction,Profile*%
%ADD10C,0.100000*%
%TD*%
G04 APERTURE END LIST*
D10*
X-22332500Y-2739800D02*
X-19883400Y-5188500D01*
X-19883400Y-5188500D02*
X-17434300Y-7637200D01*
X-17434300Y-7637200D02*
X-14985300Y-10086100D01*
X-14985300Y-10086100D02*
X-12536200Y-12535100D01*
X-12536200Y-12535100D02*
X-10087100Y-14984300D01*
X-10087100Y-14984300D02*
X-7638000Y-17433500D01*
X-7638000Y-17433500D02*
X-5188900Y-19883000D01*
X-5188900Y-19883000D02*
X-2739900Y-22332500D01*
X-22332500Y2739800D02*
X-22310100Y2652200D01*
X-22310100Y2652200D02*
X-22287700Y2564400D01*
X-22287700Y2564400D02*
X-22265300Y2476600D01*
X-22265300Y2476600D02*
X-22242900Y2388700D01*
X-22242900Y2388700D02*
X-22220500Y2300700D01*
X-22220500Y2300700D02*
X-22198100Y2212600D01*
X-22198100Y2212600D02*
X-22175700Y2124500D01*
X-22175700Y2124500D02*
X-22153300Y2036300D01*
X-22153300Y-2036300D02*
X-22153300Y-1526800D01*
X-22153300Y-1526800D02*
X-22153300Y-1017400D01*
X-22153300Y-1017400D02*
X-22153300Y-508100D01*
X-22153300Y-508100D02*
X-22153300Y1000D01*
X-22153300Y1000D02*
X-22153300Y510000D01*
X-22153300Y510000D02*
X-22153300Y1018900D01*
X-22153300Y1018900D02*
X-22153300Y1527700D01*
X-22153300Y1527700D02*
X-22153300Y2036300D01*
X-22153300Y-2036300D02*
X-22175700Y-2124000D01*
X-22175700Y-2124000D02*
X-22198100Y-2211700D01*
X-22198100Y-2211700D02*
X-22220500Y-2299600D01*
X-22220500Y-2299600D02*
X-22242900Y-2387500D01*
X-22242900Y-2387500D02*
X-22265300Y-2475500D01*
X-22265300Y-2475500D02*
X-22287700Y-2563500D01*
X-22287700Y-2563500D02*
X-22310100Y-2651600D01*
X-22310100Y-2651600D02*
X-22332500Y-2739800D01*
X-2739900Y-22332500D02*
X-2651900Y-22309900D01*
X-2651900Y-22309900D02*
X-2564000Y-22287300D01*
X-2564000Y-22287300D02*
X-2476000Y-22264700D01*
X-2476000Y-22264700D02*
X-2388100Y-22242300D01*
X-2388100Y-22242300D02*
X-2300100Y-22219900D01*
X-2300100Y-22219900D02*
X-2212200Y-22197700D01*
X-2212200Y-22197700D02*
X-2124200Y-22175400D01*
X-2124200Y-22175400D02*
X-2036300Y-22153300D01*
X2036300Y-22153300D02*
X1527200Y-22152900D01*
X1527200Y-22152900D02*
X1018100Y-22152500D01*
X1018100Y-22152500D02*
X509100Y-22152400D01*
X509100Y-22152400D02*
X0Y-22152300D01*
X0Y-22152300D02*
X-509100Y-22152400D01*
X-509100Y-22152400D02*
X-1018100Y-22152500D01*
X-1018100Y-22152500D02*
X-1527200Y-22152900D01*
X-1527200Y-22152900D02*
X-2036300Y-22153300D01*
X2036300Y-22153300D02*
X2124200Y-22175400D01*
X2124200Y-22175400D02*
X2212200Y-22197700D01*
X2212200Y-22197700D02*
X2300100Y-22219900D01*
X2300100Y-22219900D02*
X2388100Y-22242300D01*
X2388100Y-22242300D02*
X2476000Y-22264700D01*
X2476000Y-22264700D02*
X2564000Y-22287300D01*
X2564000Y-22287300D02*
X2651900Y-22309900D01*
X2651900Y-22309900D02*
X2739900Y-22332500D01*
X2739900Y-22332500D02*
X5188900Y-19883000D01*
X5188900Y-19883000D02*
X7638000Y-17433500D01*
X7638000Y-17433500D02*
X10087100Y-14984300D01*
X10087100Y-14984300D02*
X12536200Y-12535100D01*
X12536200Y-12535100D02*
X14985300Y-10086100D01*
X14985300Y-10086100D02*
X17434300Y-7637200D01*
X17434300Y-7637200D02*
X19883400Y-5188500D01*
X19883400Y-5188500D02*
X22332500Y-2739800D01*
X22332500Y-2739800D02*
X22310100Y-2651600D01*
X22310100Y-2651600D02*
X22287700Y-2563500D01*
X22287700Y-2563500D02*
X22265300Y-2475500D01*
X22265300Y-2475500D02*
X22242900Y-2387500D01*
X22242900Y-2387500D02*
X22220500Y-2299600D01*
X22220500Y-2299600D02*
X22198100Y-2211700D01*
X22198100Y-2211700D02*
X22175700Y-2124000D01*
X22175700Y-2124000D02*
X22153300Y-2036300D01*
X22153300Y2036300D02*
X22153300Y1527700D01*
X22153300Y1527700D02*
X22153300Y1018900D01*
X22153300Y1018900D02*
X22153300Y510000D01*
X22153300Y510000D02*
X22153300Y1000D01*
X22153300Y1000D02*
X22153300Y-508100D01*
X22153300Y-508100D02*
X22153300Y-1017400D01*
X22153300Y-1017400D02*
X22153300Y-1526800D01*
X22153300Y-1526800D02*
X22153300Y-2036300D01*
X22153300Y2036300D02*
X22175700Y2124500D01*
X22175700Y2124500D02*
X22198100Y2212600D01*
X22198100Y2212600D02*
X22220500Y2300700D01*
X22220500Y2300700D02*
X22242900Y2388700D01*
X22242900Y2388700D02*
X22265300Y2476600D01*
X22265300Y2476600D02*
X22287700Y2564400D01*
X22287700Y2564400D02*
X22310100Y2652200D01*
X22310100Y2652200D02*
X22332500Y2739800D01*
X22332500Y2739800D02*
X19883400Y5189400D01*
X19883400Y5189400D02*
X17434300Y7638800D01*
X17434300Y7638800D02*
X14985300Y10088100D01*
X14985300Y10088100D02*
X12536200Y12537300D01*
X12536200Y12537300D02*
X10087100Y14986300D01*
X10087100Y14986300D02*
X7638000Y17435200D01*
X7638000Y17435200D02*
X5188900Y19883900D01*
X5188900Y19883900D02*
X2739900Y22332500D01*
X2739900Y22332500D02*
X2651900Y22310400D01*
X2651900Y22310400D02*
X2564000Y22288200D01*
X2564000Y22288200D02*
X2476000Y22265900D01*
X2476000Y22265900D02*
X2388100Y22243500D01*
X2388100Y22243500D02*
X2300100Y22221100D01*
X2300100Y22221100D02*
X2212200Y22198600D01*
X2212200Y22198600D02*
X2124200Y22176000D01*
X2124200Y22176000D02*
X2036300Y22153300D01*
X-2036300Y22153300D02*
X-1527200Y22153700D01*
X-1527200Y22153700D02*
X-1018100Y22154000D01*
X-1018100Y22154000D02*
X-509100Y22154200D01*
X-509100Y22154200D02*
X0Y22154300D01*
X0Y22154300D02*
X509100Y22154200D01*
X509100Y22154200D02*
X1018100Y22154000D01*
X1018100Y22154000D02*
X1527200Y22153700D01*
X1527200Y22153700D02*
X2036300Y22153300D01*
X-2036300Y22153300D02*
X-2124200Y22176000D01*
X-2124200Y22176000D02*
X-2212200Y22198600D01*
X-2212200Y22198600D02*
X-2300100Y22221100D01*
X-2300100Y22221100D02*
X-2388100Y22243500D01*
X-2388100Y22243500D02*
X-2476000Y22265900D01*
X-2476000Y22265900D02*
X-2564000Y22288200D01*
X-2564000Y22288200D02*
X-2651900Y22310400D01*
X-2651900Y22310400D02*
X-2739900Y22332500D01*
X-2739900Y22332500D02*
X-5188900Y19883900D01*
X-5188900Y19883900D02*
X-7638000Y17435200D01*
X-7638000Y17435200D02*
X-10087100Y14986300D01*
X-10087100Y14986300D02*
X-12536200Y12537300D01*
X-12536200Y12537300D02*
X-14985300Y10088100D01*
X-14985300Y10088100D02*
X-17434300Y7638800D01*
X-17434300Y7638800D02*
X-19883400Y5189400D01*
X-19883400Y5189400D02*
X-22332500Y2739800D01*
M02*
