M48
; DRILL file KiCad 10.99.0-unknown date 2026-08-12T15:31:15
; FORMAT={-:-/ absolute / metric / decimal}
; #@! TF.CreationDate,2026-08-12T15:31:15+08:00
; #@! TF.GenerationSoftware,Kicad,Pcbnew,10.99.0-unknown
; #@! TF.FileFunction,MixedPlating,1,4
FMAT,2
METRIC
; #@! TA.AperFunction,Plated,PTH,ViaDrill
T1C0.250
; #@! TA.AperFunction,Plated,PTH,ViaDrill
T2C0.350
%
G90
G05
T1
X-21.368Y4.886
X-21.368Y3.886
X-21.368Y2.886
X-21.368Y1.886
X-21.368Y-2.114
X-21.368Y-3.114
X-21.368Y-4.114
X-21.368Y-5.114
X-20.368Y7.886
X-20.368Y6.886
X-20.368Y5.886
X-20.368Y4.886
X-20.368Y3.886
X-20.368Y-1.114
X-20.368Y-2.114
X-20.368Y-6.114
X-20.368Y-7.114
X-20.368Y-8.114
X-19.368Y9.886
X-19.368Y8.886
X-19.368Y7.886
X-19.368Y6.886
X-19.368Y5.886
X-19.368Y4.886
X-19.368Y3.886
X-19.368Y2.886
X-19.368Y-2.114
X-19.368Y-4.114
X-19.368Y-9.114
X-19.368Y-10.114
X-18.368Y11.886
X-18.368Y10.886
X-18.368Y9.886
X-18.368Y8.886
X-18.368Y2.886
X-18.368Y-9.114
X-18.368Y-10.114
X-18.368Y-11.114
X-18.368Y-12.114
X-17.963Y6.307
X-17.368Y12.886
X-17.368Y11.886
X-17.368Y10.886
X-17.368Y9.886
X-17.368Y2.886
X-17.368Y1.886
X-17.368Y-6.114
X-17.368Y-8.114
X-17.368Y-9.114
X-17.368Y-10.114
X-17.368Y-11.114
X-17.368Y-12.114
X-17.368Y-13.114
X-16.51Y-7.112
X-16.368Y12.886
X-16.368Y11.886
X-16.368Y2.886
X-16.368Y1.886
X-16.368Y0.886
X-16.368Y-0.114
X-16.368Y-4.114
X-16.368Y-6.114
X-16.368Y-13.114
X-16.368Y-14.114
X-15.875Y-7.112
X-15.368Y12.886
X-15.368Y3.886
X-15.368Y2.886
X-15.368Y1.886
X-15.368Y0.886
X-15.368Y-2.114
X-15.368Y-3.114
X-15.368Y-4.114
X-15.368Y-5.114
X-15.368Y-6.114
X-15.368Y-14.114
X-15.368Y-15.114
X-15.24Y15.621
X-15.24Y15.113
X-15.24Y14.605
X-15.24Y-7.112
X-14.859Y12.319
X-14.859Y11.822
X-14.859Y11.341
X-14.374Y-7.135
X-14.368Y3.886
X-14.368Y2.886
X-14.368Y1.886
X-14.368Y0.886
X-14.368Y-2.114
X-14.368Y-3.114
X-14.368Y-4.114
X-14.368Y-5.114
X-14.368Y-6.114
X-14.368Y-15.114
X-14.368Y-16.114
X-14.041Y-7.468
X-14.011Y-6.772
X-13.691Y-7.818
X-13.678Y-7.105
X-13.662Y-6.422
X-13.368Y16.886
X-13.368Y-15.114
X-13.368Y-16.114
X-13.368Y-17.114
X-13.329Y-6.755
X-13.329Y-7.455
X-13.311Y-6.072
X-13.204Y-1.782
X-13.204Y-2.282
X-12.978Y-6.405
X-12.978Y-7.105
X-12.814Y-11.824
X-12.704Y-1.782
X-12.704Y-2.282
X-12.628Y-6.755
X-12.426Y5.457
X-12.426Y4.957
X-12.368Y-16.114
X-12.368Y-17.114
X-12.368Y-18.114
X-12.315Y8.999
X-12.315Y8.499
X-11.926Y5.457
X-11.926Y4.957
X-11.824Y-12.814
X-11.815Y8.999
X-11.811Y8.509
X-11.368Y16.886
X-11.368Y10.886
X-11.368Y-18.114
X-11.303Y1.778
X-10.795Y1.397
X-10.668Y-13.97
X-10.528Y14.718
X-10.528Y14.218
X-10.368Y17.886
X-10.368Y16.886
X-10.287Y0.889
X-10.033Y-13.843
X-10.028Y14.718
X-10.028Y14.218
X-9.566Y18.682
X-9.56Y19.15
X-9.487Y-7.112
X-9.368Y19.886
X-9.368Y16.886
X-9.368Y12.886
X-9.144Y2.286
X-9.134Y-7.466
X-9.134Y-6.759
X-9.089Y19.148
X-9.081Y18.677
X-8.89Y4.699
X-8.78Y-7.819
X-8.78Y-7.112
X-8.78Y-6.405
X-8.623Y14.718
X-8.623Y14.218
X-8.509Y-0.635
X-8.427Y-8.173
X-8.427Y-7.466
X-8.427Y-6.759
X-8.426Y-6.051
X-8.368Y19.886
X-8.128Y2.413
X-8.123Y14.718
X-8.123Y14.218
X-8.086Y-13.501
X-8.073Y-8.526
X-8.073Y-7.819
X-8.073Y-7.112
X-8.073Y-6.405
X-8.073Y-5.698
X-7.736Y-13.851
X-7.723Y-13.138
X-7.72Y-8.88
X-7.72Y-8.173
X-7.72Y-7.466
X-7.72Y-6.758
X-7.719Y-6.051
X-7.719Y-5.344
X-7.493Y3.302
X-7.386Y-14.202
X-7.373Y-12.788
X-7.373Y-13.488
X-7.368Y19.886
X-7.368Y14.886
X-7.368Y0.886
X-7.368Y-1.114
X-7.366Y-9.233
X-7.366Y-8.526
X-7.366Y-7.819
X-7.366Y-7.112
X-7.366Y-6.405
X-7.366Y-5.698
X-7.366Y-4.991
X-7.239Y2.286
X-7.032Y-13.847
X-7.023Y-12.438
X-7.023Y-13.138
X-7.013Y-8.88
X-7.013Y-8.173
X-7.012Y-7.465
X-7.012Y-6.758
X-7.012Y-6.051
X-7.012Y-5.344
X-6.854Y11.299
X-6.854Y10.799
X-6.677Y-13.493
X-6.673Y-12.788
X-6.659Y-8.526
X-6.659Y-7.819
X-6.659Y-7.112
X-6.659Y-6.405
X-6.659Y-5.698
X-6.604Y-17.018
X-6.477Y3.937
X-6.477Y3.175
X-6.368Y20.886
X-6.368Y19.886
X-6.368Y18.886
X-6.368Y-20.114
X-6.368Y-21.114
X-6.354Y11.299
X-6.354Y10.799
X-6.35Y-1.397
X-6.323Y-13.139
X-6.305Y-8.172
X-6.305Y-7.465
X-6.305Y-6.758
X-6.305Y-6.051
X-6.096Y-14.478
X-5.969Y-17.272
X-5.952Y-7.112
X-5.952Y-7.819
X-5.952Y-6.405
X-5.715Y-1.397
X-5.598Y-6.758
X-5.598Y-7.465
X-5.449Y-11.811
X-5.449Y-12.306
X-5.368Y20.886
X-5.368Y16.886
X-5.368Y-20.114
X-5.368Y-21.114
X-5.334Y-17.272
X-5.245Y-7.112
X-5.08Y-1.397
X-4.953Y-11.811
X-4.953Y-12.312
X-4.826Y-12.954
X-4.817Y5.207
X-4.368Y20.886
X-4.191Y-19.177
X-3.645Y9.805
X-3.429Y-19.177
X-3.368Y20.886
X-3.368Y19.886
X-3.368Y18.886
X-3.368Y17.886
X-3.368Y16.886
X-3.302Y-11.176
X-2.794Y-10.668
X-2.54Y-3.175
X-2.54Y-4.699
X-2.54Y-10.033
X-2.368Y21.886
X-2.368Y20.886
X-2.368Y19.886
X-2.368Y18.886
X-2.368Y17.886
X-2.368Y-18.114
X-2.032Y-16.256
X-1.975Y0.5
X-1.975Y0.0
X-1.975Y-0.5
X-1.778Y-3.937
X-1.778Y-9.525
X-1.397Y-3.429
X-1.397Y-8.89
X-1.368Y20.886
X-1.368Y12.886
X-1.368Y11.886
X-1.368Y1.886
X-0.762Y-2.794
X-0.635Y-6.858
X-0.635Y-8.128
X-0.381Y0.508
X-0.368Y20.886
X-0.368Y15.886
X-0.368Y9.592
X-0.368Y8.693
X-0.368Y1.886
X-0.368Y-21.114
X-0.127Y-6.003
X0.381Y-4.953
X0.395Y-0.5
X0.632Y20.886
X0.632Y15.886
X0.632Y9.592
X0.632Y8.693
X0.632Y1.886
X0.632Y-21.114
X0.762Y-4.445
X1.632Y20.886
X1.632Y19.886
X1.632Y16.886
X1.632Y12.886
X1.632Y11.886
X1.632Y-6.114
X1.632Y-7.114
X1.632Y-20.114
X1.632Y-21.114
X1.651Y-7.874
X1.969Y5.975
X1.975Y6.471
X1.975Y0.5
X1.975Y0.0
X1.975Y-0.5
X2.413Y-13.081
X2.464Y5.975
X2.476Y6.471
X2.632Y21.886
X2.632Y20.886
X2.632Y-6.114
X2.632Y-20.114
X2.693Y19.548
X2.693Y19.048
X2.693Y18.548
X2.693Y18.048
X2.921Y-16.51
X3.193Y19.548
X3.193Y19.048
X3.193Y18.548
X3.193Y18.048
X3.429Y-10.033
X3.556Y3.683
X3.556Y-6.604
X3.632Y20.886
X3.632Y16.886
X3.632Y15.886
X3.632Y9.592
X3.632Y8.693
X3.632Y-20.114
X3.632Y-21.114
X3.693Y19.548
X3.693Y19.048
X3.693Y18.548
X3.693Y18.048
X3.88Y-0.85
X3.937Y5.975
X3.943Y6.471
X4.191Y-1.397
X4.191Y-2.159
X4.193Y19.548
X4.193Y19.048
X4.193Y18.548
X4.193Y18.048
X4.318Y-13.133
X4.318Y-15.621
X4.432Y5.975
X4.445Y6.471
X4.445Y1.651
X4.632Y20.886
X4.632Y16.886
X4.632Y15.886
X4.632Y12.886
X4.632Y11.886
X4.632Y-20.114
X4.632Y-21.114
X4.826Y2.159
X5.08Y0.889
X5.08Y-7.874
X5.08Y-8.509
X5.461Y-9.271
X5.632Y20.886
X5.632Y19.886
X5.632Y18.886
X5.632Y17.886
X5.632Y16.886
X5.632Y15.886
X5.632Y12.886
X5.632Y11.886
X5.632Y8.693
X5.632Y-17.114
X5.632Y-18.114
X5.632Y-19.114
X5.632Y-20.114
X5.632Y-21.114
X6.223Y-10.668
X6.223Y-11.303
X6.632Y20.886
X6.632Y15.886
X6.632Y12.886
X6.632Y11.886
X6.632Y-15.114
X6.632Y-16.114
X6.632Y-17.114
X6.632Y-18.114
X7.37Y-6.425
X7.376Y-5.93
X7.379Y-3.467
X7.385Y-2.971
X7.632Y15.886
X7.632Y12.886
X7.632Y11.886
X7.632Y10.886
X7.632Y-12.114
X7.632Y-16.114
X7.632Y-17.114
X7.865Y-6.425
X7.874Y-3.467
X7.877Y-5.93
X7.886Y-2.971
X8.255Y-4.826
X8.378Y-5.93
X8.378Y-6.425
X8.387Y-2.971
X8.387Y-3.467
X8.45Y6.686
X8.45Y6.0
X8.632Y19.886
X8.632Y18.886
X8.632Y-12.114
X8.632Y-17.114
X8.636Y-4.318
X8.977Y2.231
X8.977Y1.724
X9.288Y-16.409
X9.288Y-16.909
X9.288Y-17.409
X9.288Y-17.909
X9.302Y-18.407
X9.632Y19.886
X9.632Y18.886
X9.632Y17.886
X9.632Y13.886
X9.632Y12.886
X9.632Y11.886
X9.67Y-13.562
X9.67Y-14.057
X9.788Y-16.409
X9.788Y-16.909
X9.788Y-17.409
X9.788Y-17.909
X9.802Y-18.407
X9.802Y-18.907
X9.802Y-19.407
X10.165Y-13.562
X10.165Y-14.064
X10.288Y-16.409
X10.288Y-16.909
X10.288Y-17.409
X10.288Y-17.909
X10.302Y-18.407
X10.302Y-18.907
X10.302Y-19.407
X10.43Y6.483
X10.43Y5.969
X10.632Y18.886
X10.632Y14.886
X10.632Y11.886
X10.632Y10.886
X10.788Y-16.409
X10.788Y-16.909
X10.788Y-17.409
X10.788Y-17.909
X10.802Y-18.407
X10.802Y-18.907
X10.925Y6.483
X10.925Y5.969
X11.009Y-3.468
X11.022Y-2.972
X11.302Y-16.407
X11.302Y-16.907
X11.302Y-17.407
X11.302Y-17.907
X11.302Y-18.407
X11.302Y-18.907
X11.42Y6.47
X11.42Y5.969
X11.43Y5.08
X11.523Y-2.972
X11.523Y-3.468
X11.632Y11.886
X11.632Y10.886
X11.632Y-2.114
X11.802Y-16.407
X11.802Y-16.907
X11.802Y-17.407
X11.802Y-17.907
X11.802Y-18.407
X11.938Y1.016
X12.302Y-16.407
X12.302Y-16.907
X12.302Y-17.407
X12.302Y-17.907
X12.462Y-13.562
X12.462Y-14.057
X12.632Y11.886
X12.632Y10.886
X12.958Y-13.562
X12.958Y-14.064
X13.632Y12.886
X13.632Y11.886
X13.632Y10.886
X13.632Y-15.114
X13.632Y-16.114
X13.632Y-17.114
X14.632Y7.886
X14.632Y-16.114
X15.632Y8.886
X15.632Y7.886
X15.632Y6.886
X15.632Y-12.114
X15.632Y-15.114
X16.632Y-12.114
X16.637Y14.2
X16.637Y13.68
X16.649Y9.64
X16.649Y9.14
X16.649Y8.64
X16.649Y8.14
X16.65Y13.182
X16.65Y12.682
X16.65Y12.182
X16.65Y11.682
X16.663Y7.642
X16.663Y7.142
X16.663Y6.642
X16.664Y11.184
X16.664Y10.684
X16.664Y10.184
X17.145Y13.68
X17.145Y-2.312
X17.149Y9.64
X17.149Y9.14
X17.149Y8.64
X17.149Y8.14
X17.15Y13.182
X17.15Y12.682
X17.15Y12.182
X17.15Y11.682
X17.162Y6.197
X17.162Y5.697
X17.162Y5.197
X17.162Y4.697
X17.163Y7.642
X17.163Y7.142
X17.163Y6.642
X17.164Y11.184
X17.164Y10.684
X17.164Y10.184
X17.176Y4.199
X17.176Y3.699
X17.176Y3.199
X17.632Y-10.114
X17.632Y-11.114
X17.632Y-12.114
X17.632Y-13.114
X17.649Y9.64
X17.649Y9.14
X17.649Y8.64
X17.649Y8.14
X17.65Y13.182
X17.65Y12.682
X17.65Y12.182
X17.65Y11.682
X17.662Y6.197
X17.662Y5.697
X17.662Y5.197
X17.662Y4.697
X17.663Y7.642
X17.663Y7.142
X17.663Y6.642
X17.664Y11.184
X17.664Y10.684
X17.664Y10.184
X17.67Y-2.312
X17.67Y-2.812
X17.676Y4.199
X17.676Y3.699
X17.676Y3.199
X17.684Y-8.866
X18.149Y9.64
X18.149Y9.14
X18.149Y8.64
X18.149Y8.14
X18.15Y12.182
X18.15Y11.682
X18.162Y6.197
X18.162Y5.697
X18.162Y5.197
X18.162Y4.697
X18.163Y7.642
X18.163Y7.142
X18.163Y6.642
X18.164Y11.184
X18.164Y10.684
X18.164Y10.184
X18.17Y-2.312
X18.17Y-2.812
X18.17Y-3.312
X18.176Y4.199
X18.176Y3.699
X18.176Y3.199
X18.184Y-8.366
X18.184Y-8.866
X18.632Y-10.114
X18.632Y-11.114
X18.662Y6.197
X18.662Y5.697
X18.662Y5.197
X18.662Y4.697
X18.663Y9.642
X18.663Y9.142
X18.663Y8.642
X18.663Y8.142
X18.663Y7.642
X18.663Y7.142
X18.663Y6.642
X18.664Y11.684
X18.664Y11.184
X18.664Y10.684
X18.664Y10.184
X18.67Y-2.312
X18.67Y-2.812
X18.67Y-3.312
X18.67Y-3.812
X18.676Y4.199
X18.676Y3.699
X18.676Y3.199
X18.684Y-7.866
X18.684Y-8.366
X18.684Y-8.866
X19.163Y9.642
X19.163Y9.142
X19.163Y8.642
X19.163Y8.142
X19.163Y7.642
X19.163Y7.142
X19.163Y6.642
X19.164Y10.684
X19.164Y10.184
X19.17Y-2.312
X19.17Y-2.812
X19.17Y-3.312
X19.17Y-3.812
X19.17Y-5.868
X19.17Y-6.368
X19.17Y-6.868
X19.17Y-7.368
X19.176Y6.199
X19.176Y5.699
X19.176Y5.199
X19.176Y4.699
X19.176Y4.199
X19.176Y3.699
X19.176Y3.199
X19.184Y-4.31
X19.184Y-4.81
X19.184Y-5.31
X19.184Y-7.866
X19.184Y-8.366
X19.184Y-8.866
X19.632Y-10.114
X19.663Y9.642
X19.663Y9.142
X19.663Y8.642
X19.663Y8.142
X19.663Y7.642
X19.663Y7.142
X19.663Y6.642
X19.676Y6.199
X19.676Y5.699
X19.676Y5.199
X19.676Y4.699
X19.676Y4.199
X19.676Y3.699
X19.676Y3.199
X19.684Y-2.31
X19.684Y-2.81
X19.684Y-3.31
X19.684Y-3.81
X19.684Y-4.31
X19.684Y-4.81
X19.684Y-5.31
X19.684Y-5.866
X19.684Y-6.366
X19.684Y-6.866
X19.684Y-7.366
X19.684Y-7.866
X19.684Y-8.366
X19.684Y-8.866
X20.176Y6.199
X20.176Y5.699
X20.176Y5.199
X20.176Y4.699
X20.176Y4.199
X20.176Y3.699
X20.176Y3.199
X20.184Y-2.31
X20.184Y-2.81
X20.184Y-3.31
X20.184Y-3.81
X20.184Y-4.31
X20.184Y-4.81
X20.184Y-5.31
X20.184Y-5.866
X20.184Y-6.366
X20.184Y-6.866
X20.184Y-7.366
X20.184Y-7.866
X20.184Y-8.366
X20.193Y8.247
X20.193Y7.747
X20.193Y7.247
X20.193Y6.747
X20.684Y-2.31
X20.684Y-2.81
X20.684Y-3.31
X20.684Y-3.81
X20.684Y-4.31
X20.684Y-4.81
X20.684Y-5.31
X20.684Y-5.866
X20.684Y-6.366
X20.684Y-6.866
X20.684Y-7.366
T2
X11.27Y-7.75
X11.27Y-8.35
X11.27Y-8.952
M30
