%TF.GenerationSoftware,KiCad,Pcbnew,10.99.0-unknown*%
%TF.CreationDate,2026-08-12T15:31:14+08:00*%
%TF.ProjectId,_____4.0(____),ef504535-9d34-42e3-9028-26e0bf45292e,rev?*%
%TF.SameCoordinates,Original*%
%TF.FileFunction,AssemblyDrawing,Bot*%
%FSLAX46Y46*%
G04 Gerber Fmt 4.6, Leading zero omitted, Abs format (unit mm)*
G04 Created by KiCad (PCBNEW 10.99.0-unknown) date 2026-08-12 15:31:14*
%MOMM*%
%LPD*%
G01*
G04 APERTURE LIST*
%ADD10C,0.100000*%
G04 APERTURE END LIST*
D10*
%TO.C,C12*%
X-11859381Y-13980701D02*
X-13980701Y-11859381D01*
X-12778619Y-10657299D01*
X-10657299Y-12778619D01*
X-11859381Y-13980701D01*
%TO.C,C13*%
X-2365085Y-14259491D02*
X-4486405Y-12138171D01*
X-3284323Y-10936089D01*
X-1163003Y-13057409D01*
X-2365085Y-14259491D01*
%TO.C,C14*%
X-48381Y-11948701D02*
X-2169701Y-9827381D01*
X-967619Y-8625299D01*
X1153701Y-10746619D01*
X-48381Y-11948701D01*
%TO.C,C4*%
X-5943440Y-11175740D02*
X-8064760Y-13297060D01*
X-9266842Y-12094978D01*
X-7145522Y-9973658D01*
X-5943440Y-11175740D01*
%TO.C,C5*%
X-7350346Y-9768834D02*
X-9471666Y-11890154D01*
X-10673748Y-10688072D01*
X-8552428Y-8566752D01*
X-7350346Y-9768834D01*
%TO.C,C6*%
X-8757252Y-8361928D02*
X-10878572Y-10483248D01*
X-12080654Y-9281166D01*
X-9959334Y-7159846D01*
X-8757252Y-8361928D01*
%TO.C,C7*%
X-10164158Y-6955022D02*
X-12285478Y-9076342D01*
X-13487560Y-7874260D01*
X-11366240Y-5752940D01*
X-10164158Y-6955022D01*
%TO.C,C1*%
X-2116890Y-9768655D02*
X4430Y-11889975D01*
X-1197652Y-13092057D01*
X-3318972Y-10970737D01*
X-2116890Y-9768655D01*
%TD*%
M02*
