%TF.GenerationSoftware,KiCad,Pcbnew,10.99.0-unknown*%
%TF.CreationDate,2026-08-12T15:31:14+08:00*%
%TF.ProjectId,_____4.0(____),ef504535-9d34-42e3-9028-26e0bf45292e,rev?*%
%TF.SameCoordinates,Original*%
%TF.FileFunction,Legend,Top*%
%TF.FilePolarity,Positive*%
%FSLAX46Y46*%
G04 Gerber Fmt 4.6, Leading zero omitted, Abs format (unit mm)*
G04 Created by KiCad (PCBNEW 10.99.0-unknown) date 2026-08-12 15:31:14*
%MOMM*%
%LPD*%
G01*
G04 APERTURE LIST*
%ADD10C,0.120000*%
G04 APERTURE END LIST*
D10*
X-590475Y13922662D02*
X-590475Y14722662D01*
X-133332Y13922662D02*
X-476190Y14379805D01*
X-133332Y14722662D02*
X-590475Y14265519D01*
X628571Y13922662D02*
X171428Y13922662D01*
X400000Y13922662D02*
X400000Y14722662D01*
X400000Y14722662D02*
X323809Y14608377D01*
X323809Y14608377D02*
X247619Y14532186D01*
X247619Y14532186D02*
X171428Y14494091D01*
X-13703779Y-15547217D02*
X-13973153Y-15277843D01*
X-13973153Y-15277843D02*
X-13407468Y-14712158D01*
X-13218906Y-16032090D02*
X-13542155Y-15708841D01*
X-13380530Y-15870466D02*
X-12814845Y-15304780D01*
X-12814845Y-15304780D02*
X-12949532Y-15331718D01*
X-12949532Y-15331718D02*
X-13057281Y-15331718D01*
X-13057281Y-15331718D02*
X-13138094Y-15304780D01*
X-6462144Y8375667D02*
X-6843097Y8109000D01*
X-6462144Y7918524D02*
X-7262144Y7918524D01*
X-7262144Y7918524D02*
X-7262144Y8223286D01*
X-7262144Y8223286D02*
X-7224049Y8299476D01*
X-7224049Y8299476D02*
X-7185954Y8337571D01*
X-7185954Y8337571D02*
X-7109763Y8375667D01*
X-7109763Y8375667D02*
X-6995478Y8375667D01*
X-6995478Y8375667D02*
X-6919287Y8337571D01*
X-6919287Y8337571D02*
X-6881192Y8299476D01*
X-6881192Y8299476D02*
X-6843097Y8223286D01*
X-6843097Y8223286D02*
X-6843097Y7918524D01*
X-6462144Y8756619D02*
X-6462144Y8909000D01*
X-6462144Y8909000D02*
X-6500240Y8985190D01*
X-6500240Y8985190D02*
X-6538335Y9023286D01*
X-6538335Y9023286D02*
X-6652620Y9099476D01*
X-6652620Y9099476D02*
X-6805001Y9137571D01*
X-6805001Y9137571D02*
X-7109763Y9137571D01*
X-7109763Y9137571D02*
X-7185954Y9099476D01*
X-7185954Y9099476D02*
X-7224049Y9061381D01*
X-7224049Y9061381D02*
X-7262144Y8985190D01*
X-7262144Y8985190D02*
X-7262144Y8832809D01*
X-7262144Y8832809D02*
X-7224049Y8756619D01*
X-7224049Y8756619D02*
X-7185954Y8718524D01*
X-7185954Y8718524D02*
X-7109763Y8680428D01*
X-7109763Y8680428D02*
X-6919287Y8680428D01*
X-6919287Y8680428D02*
X-6843097Y8718524D01*
X-6843097Y8718524D02*
X-6805001Y8756619D01*
X-6805001Y8756619D02*
X-6766906Y8832809D01*
X-6766906Y8832809D02*
X-6766906Y8985190D01*
X-6766906Y8985190D02*
X-6805001Y9061381D01*
X-6805001Y9061381D02*
X-6843097Y9099476D01*
X-6843097Y9099476D02*
X-6919287Y9137571D01*
X3676667Y-20397855D02*
X3410000Y-20016902D01*
X3219524Y-20397855D02*
X3219524Y-19597855D01*
X3219524Y-19597855D02*
X3524286Y-19597855D01*
X3524286Y-19597855D02*
X3600476Y-19635950D01*
X3600476Y-19635950D02*
X3638571Y-19674045D01*
X3638571Y-19674045D02*
X3676667Y-19750236D01*
X3676667Y-19750236D02*
X3676667Y-19864521D01*
X3676667Y-19864521D02*
X3638571Y-19940712D01*
X3638571Y-19940712D02*
X3600476Y-19978807D01*
X3600476Y-19978807D02*
X3524286Y-20016902D01*
X3524286Y-20016902D02*
X3219524Y-20016902D01*
X3981428Y-19674045D02*
X4019524Y-19635950D01*
X4019524Y-19635950D02*
X4095714Y-19597855D01*
X4095714Y-19597855D02*
X4286190Y-19597855D01*
X4286190Y-19597855D02*
X4362381Y-19635950D01*
X4362381Y-19635950D02*
X4400476Y-19674045D01*
X4400476Y-19674045D02*
X4438571Y-19750236D01*
X4438571Y-19750236D02*
X4438571Y-19826426D01*
X4438571Y-19826426D02*
X4400476Y-19940712D01*
X4400476Y-19940712D02*
X3943333Y-20397855D01*
X3943333Y-20397855D02*
X4438571Y-20397855D01*
X7232667Y19289144D02*
X6966000Y19670097D01*
X6775524Y19289144D02*
X6775524Y20089144D01*
X6775524Y20089144D02*
X7080286Y20089144D01*
X7080286Y20089144D02*
X7156476Y20051049D01*
X7156476Y20051049D02*
X7194571Y20012954D01*
X7194571Y20012954D02*
X7232667Y19936763D01*
X7232667Y19936763D02*
X7232667Y19822478D01*
X7232667Y19822478D02*
X7194571Y19746287D01*
X7194571Y19746287D02*
X7156476Y19708192D01*
X7156476Y19708192D02*
X7080286Y19670097D01*
X7080286Y19670097D02*
X6775524Y19670097D01*
X7918381Y19822478D02*
X7918381Y19289144D01*
X7727905Y20127240D02*
X7537428Y19555811D01*
X7537428Y19555811D02*
X8032667Y19555811D01*
X-14666335Y-768332D02*
X-14628240Y-806428D01*
X-14628240Y-806428D02*
X-14590144Y-920713D01*
X-14590144Y-920713D02*
X-14590144Y-996904D01*
X-14590144Y-996904D02*
X-14628240Y-1111190D01*
X-14628240Y-1111190D02*
X-14704430Y-1187380D01*
X-14704430Y-1187380D02*
X-14780620Y-1225475D01*
X-14780620Y-1225475D02*
X-14933001Y-1263571D01*
X-14933001Y-1263571D02*
X-15047287Y-1263571D01*
X-15047287Y-1263571D02*
X-15199668Y-1225475D01*
X-15199668Y-1225475D02*
X-15275859Y-1187380D01*
X-15275859Y-1187380D02*
X-15352049Y-1111190D01*
X-15352049Y-1111190D02*
X-15390144Y-996904D01*
X-15390144Y-996904D02*
X-15390144Y-920713D01*
X-15390144Y-920713D02*
X-15352049Y-806428D01*
X-15352049Y-806428D02*
X-15313954Y-768332D01*
X-15390144Y-501666D02*
X-15390144Y-6428D01*
X-15390144Y-6428D02*
X-15085382Y-273094D01*
X-15085382Y-273094D02*
X-15085382Y-158809D01*
X-15085382Y-158809D02*
X-15047287Y-82618D01*
X-15047287Y-82618D02*
X-15009192Y-44523D01*
X-15009192Y-44523D02*
X-14933001Y-6428D01*
X-14933001Y-6428D02*
X-14742525Y-6428D01*
X-14742525Y-6428D02*
X-14666335Y-44523D01*
X-14666335Y-44523D02*
X-14628240Y-82618D01*
X-14628240Y-82618D02*
X-14590144Y-158809D01*
X-14590144Y-158809D02*
X-14590144Y-387380D01*
X-14590144Y-387380D02*
X-14628240Y-463571D01*
X-14628240Y-463571D02*
X-14666335Y-501666D01*
X-3572784Y-14357706D02*
X-3610880Y-14395802D01*
X-3610880Y-14395802D02*
X-3725165Y-14433897D01*
X-3725165Y-14433897D02*
X-3801356Y-14433897D01*
X-3801356Y-14433897D02*
X-3915642Y-14395802D01*
X-3915642Y-14395802D02*
X-3991832Y-14319611D01*
X-3991832Y-14319611D02*
X-4029927Y-14243421D01*
X-4029927Y-14243421D02*
X-4068023Y-14091040D01*
X-4068023Y-14091040D02*
X-4068023Y-13976754D01*
X-4068023Y-13976754D02*
X-4029927Y-13824373D01*
X-4029927Y-13824373D02*
X-3991832Y-13748182D01*
X-3991832Y-13748182D02*
X-3915642Y-13671992D01*
X-3915642Y-13671992D02*
X-3801356Y-13633897D01*
X-3801356Y-13633897D02*
X-3725165Y-13633897D01*
X-3725165Y-13633897D02*
X-3610880Y-13671992D01*
X-3610880Y-13671992D02*
X-3572784Y-13710087D01*
X-3115642Y-13976754D02*
X-3191832Y-13938659D01*
X-3191832Y-13938659D02*
X-3229927Y-13900563D01*
X-3229927Y-13900563D02*
X-3268023Y-13824373D01*
X-3268023Y-13824373D02*
X-3268023Y-13786278D01*
X-3268023Y-13786278D02*
X-3229927Y-13710087D01*
X-3229927Y-13710087D02*
X-3191832Y-13671992D01*
X-3191832Y-13671992D02*
X-3115642Y-13633897D01*
X-3115642Y-13633897D02*
X-2963261Y-13633897D01*
X-2963261Y-13633897D02*
X-2887070Y-13671992D01*
X-2887070Y-13671992D02*
X-2848975Y-13710087D01*
X-2848975Y-13710087D02*
X-2810880Y-13786278D01*
X-2810880Y-13786278D02*
X-2810880Y-13824373D01*
X-2810880Y-13824373D02*
X-2848975Y-13900563D01*
X-2848975Y-13900563D02*
X-2887070Y-13938659D01*
X-2887070Y-13938659D02*
X-2963261Y-13976754D01*
X-2963261Y-13976754D02*
X-3115642Y-13976754D01*
X-3115642Y-13976754D02*
X-3191832Y-14014849D01*
X-3191832Y-14014849D02*
X-3229927Y-14052944D01*
X-3229927Y-14052944D02*
X-3268023Y-14129135D01*
X-3268023Y-14129135D02*
X-3268023Y-14281516D01*
X-3268023Y-14281516D02*
X-3229927Y-14357706D01*
X-3229927Y-14357706D02*
X-3191832Y-14395802D01*
X-3191832Y-14395802D02*
X-3115642Y-14433897D01*
X-3115642Y-14433897D02*
X-2963261Y-14433897D01*
X-2963261Y-14433897D02*
X-2887070Y-14395802D01*
X-2887070Y-14395802D02*
X-2848975Y-14357706D01*
X-2848975Y-14357706D02*
X-2810880Y-14281516D01*
X-2810880Y-14281516D02*
X-2810880Y-14129135D01*
X-2810880Y-14129135D02*
X-2848975Y-14052944D01*
X-2848975Y-14052944D02*
X-2887070Y-14014849D01*
X-2887070Y-14014849D02*
X-2963261Y-13976754D01*
X-3572784Y-16051040D02*
X-3610880Y-16089136D01*
X-3610880Y-16089136D02*
X-3725165Y-16127231D01*
X-3725165Y-16127231D02*
X-3801356Y-16127231D01*
X-3801356Y-16127231D02*
X-3915642Y-16089136D01*
X-3915642Y-16089136D02*
X-3991832Y-16012945D01*
X-3991832Y-16012945D02*
X-4029927Y-15936755D01*
X-4029927Y-15936755D02*
X-4068023Y-15784374D01*
X-4068023Y-15784374D02*
X-4068023Y-15670088D01*
X-4068023Y-15670088D02*
X-4029927Y-15517707D01*
X-4029927Y-15517707D02*
X-3991832Y-15441516D01*
X-3991832Y-15441516D02*
X-3915642Y-15365326D01*
X-3915642Y-15365326D02*
X-3801356Y-15327231D01*
X-3801356Y-15327231D02*
X-3725165Y-15327231D01*
X-3725165Y-15327231D02*
X-3610880Y-15365326D01*
X-3610880Y-15365326D02*
X-3572784Y-15403421D01*
X-3191832Y-16127231D02*
X-3039451Y-16127231D01*
X-3039451Y-16127231D02*
X-2963261Y-16089136D01*
X-2963261Y-16089136D02*
X-2925165Y-16051040D01*
X-2925165Y-16051040D02*
X-2848975Y-15936755D01*
X-2848975Y-15936755D02*
X-2810880Y-15784374D01*
X-2810880Y-15784374D02*
X-2810880Y-15479612D01*
X-2810880Y-15479612D02*
X-2848975Y-15403421D01*
X-2848975Y-15403421D02*
X-2887070Y-15365326D01*
X-2887070Y-15365326D02*
X-2963261Y-15327231D01*
X-2963261Y-15327231D02*
X-3115642Y-15327231D01*
X-3115642Y-15327231D02*
X-3191832Y-15365326D01*
X-3191832Y-15365326D02*
X-3229927Y-15403421D01*
X-3229927Y-15403421D02*
X-3268023Y-15479612D01*
X-3268023Y-15479612D02*
X-3268023Y-15670088D01*
X-3268023Y-15670088D02*
X-3229927Y-15746278D01*
X-3229927Y-15746278D02*
X-3191832Y-15784374D01*
X-3191832Y-15784374D02*
X-3115642Y-15822469D01*
X-3115642Y-15822469D02*
X-2963261Y-15822469D01*
X-2963261Y-15822469D02*
X-2887070Y-15784374D01*
X-2887070Y-15784374D02*
X-2848975Y-15746278D01*
X-2848975Y-15746278D02*
X-2810880Y-15670088D01*
X-3953737Y-17744372D02*
X-3991833Y-17782468D01*
X-3991833Y-17782468D02*
X-4106118Y-17820563D01*
X-4106118Y-17820563D02*
X-4182309Y-17820563D01*
X-4182309Y-17820563D02*
X-4296595Y-17782468D01*
X-4296595Y-17782468D02*
X-4372785Y-17706277D01*
X-4372785Y-17706277D02*
X-4410880Y-17630087D01*
X-4410880Y-17630087D02*
X-4448976Y-17477706D01*
X-4448976Y-17477706D02*
X-4448976Y-17363420D01*
X-4448976Y-17363420D02*
X-4410880Y-17211039D01*
X-4410880Y-17211039D02*
X-4372785Y-17134848D01*
X-4372785Y-17134848D02*
X-4296595Y-17058658D01*
X-4296595Y-17058658D02*
X-4182309Y-17020563D01*
X-4182309Y-17020563D02*
X-4106118Y-17020563D01*
X-4106118Y-17020563D02*
X-3991833Y-17058658D01*
X-3991833Y-17058658D02*
X-3953737Y-17096753D01*
X-3191833Y-17820563D02*
X-3648976Y-17820563D01*
X-3420404Y-17820563D02*
X-3420404Y-17020563D01*
X-3420404Y-17020563D02*
X-3496595Y-17134848D01*
X-3496595Y-17134848D02*
X-3572785Y-17211039D01*
X-3572785Y-17211039D02*
X-3648976Y-17249134D01*
X-2696594Y-17020563D02*
X-2620404Y-17020563D01*
X-2620404Y-17020563D02*
X-2544213Y-17058658D01*
X-2544213Y-17058658D02*
X-2506118Y-17096753D01*
X-2506118Y-17096753D02*
X-2468023Y-17172944D01*
X-2468023Y-17172944D02*
X-2429928Y-17325325D01*
X-2429928Y-17325325D02*
X-2429928Y-17515801D01*
X-2429928Y-17515801D02*
X-2468023Y-17668182D01*
X-2468023Y-17668182D02*
X-2506118Y-17744372D01*
X-2506118Y-17744372D02*
X-2544213Y-17782468D01*
X-2544213Y-17782468D02*
X-2620404Y-17820563D01*
X-2620404Y-17820563D02*
X-2696594Y-17820563D01*
X-2696594Y-17820563D02*
X-2772785Y-17782468D01*
X-2772785Y-17782468D02*
X-2810880Y-17744372D01*
X-2810880Y-17744372D02*
X-2848975Y-17668182D01*
X-2848975Y-17668182D02*
X-2887071Y-17515801D01*
X-2887071Y-17515801D02*
X-2887071Y-17325325D01*
X-2887071Y-17325325D02*
X-2848975Y-17172944D01*
X-2848975Y-17172944D02*
X-2810880Y-17096753D01*
X-2810880Y-17096753D02*
X-2772785Y-17058658D01*
X-2772785Y-17058658D02*
X-2696594Y-17020563D01*
X-3953737Y-19437706D02*
X-3991833Y-19475802D01*
X-3991833Y-19475802D02*
X-4106118Y-19513897D01*
X-4106118Y-19513897D02*
X-4182309Y-19513897D01*
X-4182309Y-19513897D02*
X-4296595Y-19475802D01*
X-4296595Y-19475802D02*
X-4372785Y-19399611D01*
X-4372785Y-19399611D02*
X-4410880Y-19323421D01*
X-4410880Y-19323421D02*
X-4448976Y-19171040D01*
X-4448976Y-19171040D02*
X-4448976Y-19056754D01*
X-4448976Y-19056754D02*
X-4410880Y-18904373D01*
X-4410880Y-18904373D02*
X-4372785Y-18828182D01*
X-4372785Y-18828182D02*
X-4296595Y-18751992D01*
X-4296595Y-18751992D02*
X-4182309Y-18713897D01*
X-4182309Y-18713897D02*
X-4106118Y-18713897D01*
X-4106118Y-18713897D02*
X-3991833Y-18751992D01*
X-3991833Y-18751992D02*
X-3953737Y-18790087D01*
X-3191833Y-19513897D02*
X-3648976Y-19513897D01*
X-3420404Y-19513897D02*
X-3420404Y-18713897D01*
X-3420404Y-18713897D02*
X-3496595Y-18828182D01*
X-3496595Y-18828182D02*
X-3572785Y-18904373D01*
X-3572785Y-18904373D02*
X-3648976Y-18942468D01*
X-2429928Y-19513897D02*
X-2887071Y-19513897D01*
X-2658499Y-19513897D02*
X-2658499Y-18713897D01*
X-2658499Y-18713897D02*
X-2734690Y-18828182D01*
X-2734690Y-18828182D02*
X-2810880Y-18904373D01*
X-2810880Y-18904373D02*
X-2887071Y-18942468D01*
X5665855Y-10204380D02*
X5284902Y-10471047D01*
X5665855Y-10661523D02*
X4865855Y-10661523D01*
X4865855Y-10661523D02*
X4865855Y-10356761D01*
X4865855Y-10356761D02*
X4903950Y-10280571D01*
X4903950Y-10280571D02*
X4942045Y-10242476D01*
X4942045Y-10242476D02*
X5018236Y-10204380D01*
X5018236Y-10204380D02*
X5132521Y-10204380D01*
X5132521Y-10204380D02*
X5208712Y-10242476D01*
X5208712Y-10242476D02*
X5246807Y-10280571D01*
X5246807Y-10280571D02*
X5284902Y-10356761D01*
X5284902Y-10356761D02*
X5284902Y-10661523D01*
X5665855Y-9861523D02*
X4865855Y-9861523D01*
X4865855Y-9861523D02*
X5665855Y-9404380D01*
X5665855Y-9404380D02*
X4865855Y-9404380D01*
X5665855Y-8604381D02*
X5665855Y-9061524D01*
X5665855Y-8832952D02*
X4865855Y-8832952D01*
X4865855Y-8832952D02*
X4980140Y-8909143D01*
X4980140Y-8909143D02*
X5056331Y-8985333D01*
X5056331Y-8985333D02*
X5094426Y-9061524D01*
X-895238Y-4363856D02*
X-1276190Y-4363856D01*
X-1276190Y-4363856D02*
X-1276190Y-3563856D01*
X-628571Y-3944808D02*
X-361905Y-3944808D01*
X-247619Y-4363856D02*
X-628571Y-4363856D01*
X-628571Y-4363856D02*
X-628571Y-3563856D01*
X-628571Y-3563856D02*
X-247619Y-3563856D01*
X95238Y-4363856D02*
X95238Y-3563856D01*
X95238Y-3563856D02*
X285714Y-3563856D01*
X285714Y-3563856D02*
X400000Y-3601951D01*
X400000Y-3601951D02*
X476190Y-3678141D01*
X476190Y-3678141D02*
X514285Y-3754332D01*
X514285Y-3754332D02*
X552381Y-3906713D01*
X552381Y-3906713D02*
X552381Y-4020999D01*
X552381Y-4020999D02*
X514285Y-4173380D01*
X514285Y-4173380D02*
X476190Y-4249570D01*
X476190Y-4249570D02*
X400000Y-4325761D01*
X400000Y-4325761D02*
X285714Y-4363856D01*
X285714Y-4363856D02*
X95238Y-4363856D01*
X1314285Y-4363856D02*
X857142Y-4363856D01*
X1085714Y-4363856D02*
X1085714Y-3563856D01*
X1085714Y-3563856D02*
X1009523Y-3678141D01*
X1009523Y-3678141D02*
X933333Y-3754332D01*
X933333Y-3754332D02*
X857142Y-3792427D01*
X-895238Y-8563855D02*
X-1276190Y-8563855D01*
X-1276190Y-8563855D02*
X-1276190Y-7763855D01*
X-628571Y-8144807D02*
X-361905Y-8144807D01*
X-247619Y-8563855D02*
X-628571Y-8563855D01*
X-628571Y-8563855D02*
X-628571Y-7763855D01*
X-628571Y-7763855D02*
X-247619Y-7763855D01*
X95238Y-8563855D02*
X95238Y-7763855D01*
X95238Y-7763855D02*
X285714Y-7763855D01*
X285714Y-7763855D02*
X400000Y-7801950D01*
X400000Y-7801950D02*
X476190Y-7878140D01*
X476190Y-7878140D02*
X514285Y-7954331D01*
X514285Y-7954331D02*
X552381Y-8106712D01*
X552381Y-8106712D02*
X552381Y-8220998D01*
X552381Y-8220998D02*
X514285Y-8373379D01*
X514285Y-8373379D02*
X476190Y-8449569D01*
X476190Y-8449569D02*
X400000Y-8525760D01*
X400000Y-8525760D02*
X285714Y-8563855D01*
X285714Y-8563855D02*
X95238Y-8563855D01*
X819047Y-7763855D02*
X1314285Y-7763855D01*
X1314285Y-7763855D02*
X1047619Y-8068617D01*
X1047619Y-8068617D02*
X1161904Y-8068617D01*
X1161904Y-8068617D02*
X1238095Y-8106712D01*
X1238095Y-8106712D02*
X1276190Y-8144807D01*
X1276190Y-8144807D02*
X1314285Y-8220998D01*
X1314285Y-8220998D02*
X1314285Y-8411474D01*
X1314285Y-8411474D02*
X1276190Y-8487664D01*
X1276190Y-8487664D02*
X1238095Y-8525760D01*
X1238095Y-8525760D02*
X1161904Y-8563855D01*
X1161904Y-8563855D02*
X933333Y-8563855D01*
X933333Y-8563855D02*
X857142Y-8525760D01*
X857142Y-8525760D02*
X819047Y-8487664D01*
X-895238Y-10463854D02*
X-1276190Y-10463854D01*
X-1276190Y-10463854D02*
X-1276190Y-9663854D01*
X-628571Y-10044806D02*
X-361905Y-10044806D01*
X-247619Y-10463854D02*
X-628571Y-10463854D01*
X-628571Y-10463854D02*
X-628571Y-9663854D01*
X-628571Y-9663854D02*
X-247619Y-9663854D01*
X95238Y-10463854D02*
X95238Y-9663854D01*
X95238Y-9663854D02*
X285714Y-9663854D01*
X285714Y-9663854D02*
X400000Y-9701949D01*
X400000Y-9701949D02*
X476190Y-9778139D01*
X476190Y-9778139D02*
X514285Y-9854330D01*
X514285Y-9854330D02*
X552381Y-10006711D01*
X552381Y-10006711D02*
X552381Y-10120997D01*
X552381Y-10120997D02*
X514285Y-10273378D01*
X514285Y-10273378D02*
X476190Y-10349568D01*
X476190Y-10349568D02*
X400000Y-10425759D01*
X400000Y-10425759D02*
X285714Y-10463854D01*
X285714Y-10463854D02*
X95238Y-10463854D01*
X857142Y-9740044D02*
X895238Y-9701949D01*
X895238Y-9701949D02*
X971428Y-9663854D01*
X971428Y-9663854D02*
X1161904Y-9663854D01*
X1161904Y-9663854D02*
X1238095Y-9701949D01*
X1238095Y-9701949D02*
X1276190Y-9740044D01*
X1276190Y-9740044D02*
X1314285Y-9816235D01*
X1314285Y-9816235D02*
X1314285Y-9892425D01*
X1314285Y-9892425D02*
X1276190Y-10006711D01*
X1276190Y-10006711D02*
X819047Y-10463854D01*
X819047Y-10463854D02*
X1314285Y-10463854D01*
X-895238Y-14663856D02*
X-1276190Y-14663856D01*
X-1276190Y-14663856D02*
X-1276190Y-13863856D01*
X-628571Y-14244808D02*
X-361905Y-14244808D01*
X-247619Y-14663856D02*
X-628571Y-14663856D01*
X-628571Y-14663856D02*
X-628571Y-13863856D01*
X-628571Y-13863856D02*
X-247619Y-13863856D01*
X95238Y-14663856D02*
X95238Y-13863856D01*
X95238Y-13863856D02*
X285714Y-13863856D01*
X285714Y-13863856D02*
X400000Y-13901951D01*
X400000Y-13901951D02*
X476190Y-13978141D01*
X476190Y-13978141D02*
X514285Y-14054332D01*
X514285Y-14054332D02*
X552381Y-14206713D01*
X552381Y-14206713D02*
X552381Y-14320999D01*
X552381Y-14320999D02*
X514285Y-14473380D01*
X514285Y-14473380D02*
X476190Y-14549570D01*
X476190Y-14549570D02*
X400000Y-14625761D01*
X400000Y-14625761D02*
X285714Y-14663856D01*
X285714Y-14663856D02*
X95238Y-14663856D01*
X1238095Y-14130522D02*
X1238095Y-14663856D01*
X1047619Y-13825761D02*
X857142Y-14397189D01*
X857142Y-14397189D02*
X1352381Y-14397189D01*
X-895238Y-12763854D02*
X-1276190Y-12763854D01*
X-1276190Y-12763854D02*
X-1276190Y-11963854D01*
X-628571Y-12344806D02*
X-361905Y-12344806D01*
X-247619Y-12763854D02*
X-628571Y-12763854D01*
X-628571Y-12763854D02*
X-628571Y-11963854D01*
X-628571Y-11963854D02*
X-247619Y-11963854D01*
X95238Y-12763854D02*
X95238Y-11963854D01*
X95238Y-11963854D02*
X285714Y-11963854D01*
X285714Y-11963854D02*
X400000Y-12001949D01*
X400000Y-12001949D02*
X476190Y-12078139D01*
X476190Y-12078139D02*
X514285Y-12154330D01*
X514285Y-12154330D02*
X552381Y-12306711D01*
X552381Y-12306711D02*
X552381Y-12420997D01*
X552381Y-12420997D02*
X514285Y-12573378D01*
X514285Y-12573378D02*
X476190Y-12649568D01*
X476190Y-12649568D02*
X400000Y-12725759D01*
X400000Y-12725759D02*
X285714Y-12763854D01*
X285714Y-12763854D02*
X95238Y-12763854D01*
X1276190Y-11963854D02*
X895238Y-11963854D01*
X895238Y-11963854D02*
X857142Y-12344806D01*
X857142Y-12344806D02*
X895238Y-12306711D01*
X895238Y-12306711D02*
X971428Y-12268616D01*
X971428Y-12268616D02*
X1161904Y-12268616D01*
X1161904Y-12268616D02*
X1238095Y-12306711D01*
X1238095Y-12306711D02*
X1276190Y-12344806D01*
X1276190Y-12344806D02*
X1314285Y-12420997D01*
X1314285Y-12420997D02*
X1314285Y-12611473D01*
X1314285Y-12611473D02*
X1276190Y-12687663D01*
X1276190Y-12687663D02*
X1238095Y-12725759D01*
X1238095Y-12725759D02*
X1161904Y-12763854D01*
X1161904Y-12763854D02*
X971428Y-12763854D01*
X971428Y-12763854D02*
X895238Y-12725759D01*
X895238Y-12725759D02*
X857142Y-12687663D01*
X6808855Y9772667D02*
X6427902Y9506000D01*
X6808855Y9315524D02*
X6008855Y9315524D01*
X6008855Y9315524D02*
X6008855Y9620286D01*
X6008855Y9620286D02*
X6046950Y9696476D01*
X6046950Y9696476D02*
X6085045Y9734571D01*
X6085045Y9734571D02*
X6161236Y9772667D01*
X6161236Y9772667D02*
X6275521Y9772667D01*
X6275521Y9772667D02*
X6351712Y9734571D01*
X6351712Y9734571D02*
X6389807Y9696476D01*
X6389807Y9696476D02*
X6427902Y9620286D01*
X6427902Y9620286D02*
X6427902Y9315524D01*
X6808855Y10534571D02*
X6808855Y10077428D01*
X6808855Y10306000D02*
X6008855Y10306000D01*
X6008855Y10306000D02*
X6123140Y10229809D01*
X6123140Y10229809D02*
X6199331Y10153619D01*
X6199331Y10153619D02*
X6237426Y10077428D01*
X-10183575Y-19194763D02*
X-9950320Y-18631637D01*
X-9785384Y-19029828D02*
X-10348511Y-18796573D01*
X-9362610Y-18009161D02*
X-9537551Y-18431506D01*
X-9450081Y-18220333D02*
X-10189184Y-17914187D01*
X-10189184Y-17914187D02*
X-10112755Y-18028313D01*
X-10112755Y-18028313D02*
X-10071521Y-18127860D01*
X-10071521Y-18127860D02*
X-10065482Y-18212829D01*
X9404752Y-18054730D02*
X9638007Y-18617856D01*
X9662590Y-19473587D02*
X9487649Y-19051242D01*
X9575120Y-19262414D02*
X10314223Y-18956268D01*
X10314223Y-18956268D02*
X10179480Y-18929612D01*
X10179480Y-18929612D02*
X10079933Y-18888378D01*
X10079933Y-18888378D02*
X10015580Y-18832566D01*
X4903855Y-5924475D02*
X4103855Y-5924475D01*
X4103855Y-5924475D02*
X4103855Y-5733999D01*
X4103855Y-5733999D02*
X4141950Y-5619713D01*
X4141950Y-5619713D02*
X4218140Y-5543523D01*
X4218140Y-5543523D02*
X4294331Y-5505428D01*
X4294331Y-5505428D02*
X4446712Y-5467332D01*
X4446712Y-5467332D02*
X4560998Y-5467332D01*
X4560998Y-5467332D02*
X4713379Y-5505428D01*
X4713379Y-5505428D02*
X4789569Y-5543523D01*
X4789569Y-5543523D02*
X4865760Y-5619713D01*
X4865760Y-5619713D02*
X4903855Y-5733999D01*
X4903855Y-5733999D02*
X4903855Y-5924475D01*
X4180045Y-5162571D02*
X4141950Y-5124475D01*
X4141950Y-5124475D02*
X4103855Y-5048285D01*
X4103855Y-5048285D02*
X4103855Y-4857809D01*
X4103855Y-4857809D02*
X4141950Y-4781618D01*
X4141950Y-4781618D02*
X4180045Y-4743523D01*
X4180045Y-4743523D02*
X4256236Y-4705428D01*
X4256236Y-4705428D02*
X4332426Y-4705428D01*
X4332426Y-4705428D02*
X4446712Y-4743523D01*
X4446712Y-4743523D02*
X4903855Y-5200666D01*
X4903855Y-5200666D02*
X4903855Y-4705428D01*
X8129664Y-895332D02*
X8167760Y-933428D01*
X8167760Y-933428D02*
X8205855Y-1047713D01*
X8205855Y-1047713D02*
X8205855Y-1123904D01*
X8205855Y-1123904D02*
X8167760Y-1238190D01*
X8167760Y-1238190D02*
X8091569Y-1314380D01*
X8091569Y-1314380D02*
X8015379Y-1352475D01*
X8015379Y-1352475D02*
X7862998Y-1390571D01*
X7862998Y-1390571D02*
X7748712Y-1390571D01*
X7748712Y-1390571D02*
X7596331Y-1352475D01*
X7596331Y-1352475D02*
X7520140Y-1314380D01*
X7520140Y-1314380D02*
X7443950Y-1238190D01*
X7443950Y-1238190D02*
X7405855Y-1123904D01*
X7405855Y-1123904D02*
X7405855Y-1047713D01*
X7405855Y-1047713D02*
X7443950Y-933428D01*
X7443950Y-933428D02*
X7482045Y-895332D01*
X7482045Y-590571D02*
X7443950Y-552475D01*
X7443950Y-552475D02*
X7405855Y-476285D01*
X7405855Y-476285D02*
X7405855Y-285809D01*
X7405855Y-285809D02*
X7443950Y-209618D01*
X7443950Y-209618D02*
X7482045Y-171523D01*
X7482045Y-171523D02*
X7558236Y-133428D01*
X7558236Y-133428D02*
X7634426Y-133428D01*
X7634426Y-133428D02*
X7748712Y-171523D01*
X7748712Y-171523D02*
X8205855Y-628666D01*
X8205855Y-628666D02*
X8205855Y-133428D01*
X-21829144Y-4324332D02*
X-22210097Y-4590999D01*
X-21829144Y-4781475D02*
X-22629144Y-4781475D01*
X-22629144Y-4781475D02*
X-22629144Y-4476713D01*
X-22629144Y-4476713D02*
X-22591049Y-4400523D01*
X-22591049Y-4400523D02*
X-22552954Y-4362428D01*
X-22552954Y-4362428D02*
X-22476763Y-4324332D01*
X-22476763Y-4324332D02*
X-22362478Y-4324332D01*
X-22362478Y-4324332D02*
X-22286287Y-4362428D01*
X-22286287Y-4362428D02*
X-22248192Y-4400523D01*
X-22248192Y-4400523D02*
X-22210097Y-4476713D01*
X-22210097Y-4476713D02*
X-22210097Y-4781475D01*
X-22286287Y-3867190D02*
X-22324382Y-3943380D01*
X-22324382Y-3943380D02*
X-22362478Y-3981475D01*
X-22362478Y-3981475D02*
X-22438668Y-4019571D01*
X-22438668Y-4019571D02*
X-22476763Y-4019571D01*
X-22476763Y-4019571D02*
X-22552954Y-3981475D01*
X-22552954Y-3981475D02*
X-22591049Y-3943380D01*
X-22591049Y-3943380D02*
X-22629144Y-3867190D01*
X-22629144Y-3867190D02*
X-22629144Y-3714809D01*
X-22629144Y-3714809D02*
X-22591049Y-3638618D01*
X-22591049Y-3638618D02*
X-22552954Y-3600523D01*
X-22552954Y-3600523D02*
X-22476763Y-3562428D01*
X-22476763Y-3562428D02*
X-22438668Y-3562428D01*
X-22438668Y-3562428D02*
X-22362478Y-3600523D01*
X-22362478Y-3600523D02*
X-22324382Y-3638618D01*
X-22324382Y-3638618D02*
X-22286287Y-3714809D01*
X-22286287Y-3714809D02*
X-22286287Y-3867190D01*
X-22286287Y-3867190D02*
X-22248192Y-3943380D01*
X-22248192Y-3943380D02*
X-22210097Y-3981475D01*
X-22210097Y-3981475D02*
X-22133906Y-4019571D01*
X-22133906Y-4019571D02*
X-21981525Y-4019571D01*
X-21981525Y-4019571D02*
X-21905335Y-3981475D01*
X-21905335Y-3981475D02*
X-21867240Y-3943380D01*
X-21867240Y-3943380D02*
X-21829144Y-3867190D01*
X-21829144Y-3867190D02*
X-21829144Y-3714809D01*
X-21829144Y-3714809D02*
X-21867240Y-3638618D01*
X-21867240Y-3638618D02*
X-21905335Y-3600523D01*
X-21905335Y-3600523D02*
X-21981525Y-3562428D01*
X-21981525Y-3562428D02*
X-22133906Y-3562428D01*
X-22133906Y-3562428D02*
X-22210097Y-3600523D01*
X-22210097Y-3600523D02*
X-22248192Y-3638618D01*
X-22248192Y-3638618D02*
X-22286287Y-3714809D01*
X-20287783Y-4324332D02*
X-20668736Y-4590999D01*
X-20287783Y-4781475D02*
X-21087783Y-4781475D01*
X-21087783Y-4781475D02*
X-21087783Y-4476713D01*
X-21087783Y-4476713D02*
X-21049688Y-4400523D01*
X-21049688Y-4400523D02*
X-21011593Y-4362428D01*
X-21011593Y-4362428D02*
X-20935402Y-4324332D01*
X-20935402Y-4324332D02*
X-20821117Y-4324332D01*
X-20821117Y-4324332D02*
X-20744926Y-4362428D01*
X-20744926Y-4362428D02*
X-20706831Y-4400523D01*
X-20706831Y-4400523D02*
X-20668736Y-4476713D01*
X-20668736Y-4476713D02*
X-20668736Y-4781475D01*
X-21087783Y-4057666D02*
X-21087783Y-3524332D01*
X-21087783Y-3524332D02*
X-20287783Y-3867190D01*
X-9519612Y-5820383D02*
X-9061676Y-6278319D01*
X-9061676Y-6278319D02*
X-8980864Y-6305256D01*
X-8980864Y-6305256D02*
X-8926989Y-6305256D01*
X-8926989Y-6305256D02*
X-8846177Y-6278319D01*
X-8846177Y-6278319D02*
X-8738427Y-6170569D01*
X-8738427Y-6170569D02*
X-8711490Y-6089757D01*
X-8711490Y-6089757D02*
X-8711490Y-6035882D01*
X-8711490Y-6035882D02*
X-8738427Y-5955070D01*
X-8738427Y-5955070D02*
X-9196363Y-5497134D01*
X-8064992Y-5497134D02*
X-8388241Y-5820383D01*
X-8226617Y-5658759D02*
X-8792302Y-5093073D01*
X-8792302Y-5093073D02*
X-8765365Y-5227760D01*
X-8765365Y-5227760D02*
X-8765365Y-5335510D01*
X-8765365Y-5335510D02*
X-8792302Y-5416322D01*
X16069804Y16966425D02*
X15638806Y16266052D01*
X15638806Y16266052D02*
X16150616Y16562364D01*
X16150616Y16562364D02*
X15854305Y16050553D01*
X15854305Y16050553D02*
X16554677Y16481552D01*
X16500803Y15404055D02*
X16177554Y15727304D01*
X16339178Y15565680D02*
X16904864Y16131365D01*
X16904864Y16131365D02*
X16770177Y16104428D01*
X16770177Y16104428D02*
X16662427Y16104428D01*
X16662427Y16104428D02*
X16581615Y16131365D01*
X12582169Y15801343D02*
X13353168Y15515262D01*
X13353168Y15515262D02*
X12962701Y15959431D01*
X12962701Y15959431D02*
X13522485Y15768662D01*
X13522485Y15768662D02*
X12963132Y16371494D01*
X13174634Y16550890D02*
X13164124Y16603730D01*
X13164124Y16603730D02*
X13174778Y16688244D01*
X13174778Y16688244D02*
X13280601Y16846619D01*
X13280601Y16846619D02*
X13354605Y16888805D01*
X13354605Y16888805D02*
X13407445Y16899315D01*
X13407445Y16899315D02*
X13491959Y16888661D01*
X13491959Y16888661D02*
X13555309Y16846332D01*
X13555309Y16846332D02*
X13629170Y16751163D01*
X13629170Y16751163D02*
X13755295Y16117088D01*
X13755295Y16117088D02*
X14030435Y16528863D01*
X-10766687Y6302068D02*
X-10842877Y6340163D01*
X-10842877Y6340163D02*
X-10919068Y6416354D01*
X-10919068Y6416354D02*
X-11033354Y6530639D01*
X-11033354Y6530639D02*
X-11109544Y6568734D01*
X-11109544Y6568734D02*
X-11185735Y6568734D01*
X-11147639Y6378258D02*
X-11223830Y6416354D01*
X-11223830Y6416354D02*
X-11300020Y6492544D01*
X-11300020Y6492544D02*
X-11338116Y6644925D01*
X-11338116Y6644925D02*
X-11338116Y6911592D01*
X-11338116Y6911592D02*
X-11300020Y7063973D01*
X-11300020Y7063973D02*
X-11223830Y7140163D01*
X-11223830Y7140163D02*
X-11147639Y7178258D01*
X-11147639Y7178258D02*
X-10995258Y7178258D01*
X-10995258Y7178258D02*
X-10919068Y7140163D01*
X-10919068Y7140163D02*
X-10842877Y7063973D01*
X-10842877Y7063973D02*
X-10804782Y6911592D01*
X-10804782Y6911592D02*
X-10804782Y6644925D01*
X-10804782Y6644925D02*
X-10842877Y6492544D01*
X-10842877Y6492544D02*
X-10919068Y6416354D01*
X-10919068Y6416354D02*
X-10995258Y6378258D01*
X-10995258Y6378258D02*
X-11147639Y6378258D01*
X-10500021Y7102068D02*
X-10461925Y7140163D01*
X-10461925Y7140163D02*
X-10385735Y7178258D01*
X-10385735Y7178258D02*
X-10195259Y7178258D01*
X-10195259Y7178258D02*
X-10119068Y7140163D01*
X-10119068Y7140163D02*
X-10080973Y7102068D01*
X-10080973Y7102068D02*
X-10042878Y7025877D01*
X-10042878Y7025877D02*
X-10042878Y6949687D01*
X-10042878Y6949687D02*
X-10080973Y6835401D01*
X-10080973Y6835401D02*
X-10538116Y6378258D01*
X-10538116Y6378258D02*
X-10042878Y6378258D01*
X-10766687Y9604068D02*
X-10842877Y9642163D01*
X-10842877Y9642163D02*
X-10919068Y9718354D01*
X-10919068Y9718354D02*
X-11033354Y9832639D01*
X-11033354Y9832639D02*
X-11109544Y9870734D01*
X-11109544Y9870734D02*
X-11185735Y9870734D01*
X-11147639Y9680258D02*
X-11223830Y9718354D01*
X-11223830Y9718354D02*
X-11300020Y9794544D01*
X-11300020Y9794544D02*
X-11338116Y9946925D01*
X-11338116Y9946925D02*
X-11338116Y10213592D01*
X-11338116Y10213592D02*
X-11300020Y10365973D01*
X-11300020Y10365973D02*
X-11223830Y10442163D01*
X-11223830Y10442163D02*
X-11147639Y10480258D01*
X-11147639Y10480258D02*
X-10995258Y10480258D01*
X-10995258Y10480258D02*
X-10919068Y10442163D01*
X-10919068Y10442163D02*
X-10842877Y10365973D01*
X-10842877Y10365973D02*
X-10804782Y10213592D01*
X-10804782Y10213592D02*
X-10804782Y9946925D01*
X-10804782Y9946925D02*
X-10842877Y9794544D01*
X-10842877Y9794544D02*
X-10919068Y9718354D01*
X-10919068Y9718354D02*
X-10995258Y9680258D01*
X-10995258Y9680258D02*
X-11147639Y9680258D01*
X-10538116Y10480258D02*
X-10042878Y10480258D01*
X-10042878Y10480258D02*
X-10309544Y10175496D01*
X-10309544Y10175496D02*
X-10195259Y10175496D01*
X-10195259Y10175496D02*
X-10119068Y10137401D01*
X-10119068Y10137401D02*
X-10080973Y10099306D01*
X-10080973Y10099306D02*
X-10042878Y10023115D01*
X-10042878Y10023115D02*
X-10042878Y9832639D01*
X-10042878Y9832639D02*
X-10080973Y9756449D01*
X-10080973Y9756449D02*
X-10119068Y9718354D01*
X-10119068Y9718354D02*
X-10195259Y9680258D01*
X-10195259Y9680258D02*
X-10423830Y9680258D01*
X-10423830Y9680258D02*
X-10500021Y9718354D01*
X-10500021Y9718354D02*
X-10538116Y9756449D01*
X-7880285Y6729335D02*
X-7918381Y6691240D01*
X-7918381Y6691240D02*
X-8032666Y6653144D01*
X-8032666Y6653144D02*
X-8108857Y6653144D01*
X-8108857Y6653144D02*
X-8223143Y6691240D01*
X-8223143Y6691240D02*
X-8299333Y6767430D01*
X-8299333Y6767430D02*
X-8337428Y6843620D01*
X-8337428Y6843620D02*
X-8375524Y6996001D01*
X-8375524Y6996001D02*
X-8375524Y7110287D01*
X-8375524Y7110287D02*
X-8337428Y7262668D01*
X-8337428Y7262668D02*
X-8299333Y7338859D01*
X-8299333Y7338859D02*
X-8223143Y7415049D01*
X-8223143Y7415049D02*
X-8108857Y7453144D01*
X-8108857Y7453144D02*
X-8032666Y7453144D01*
X-8032666Y7453144D02*
X-7918381Y7415049D01*
X-7918381Y7415049D02*
X-7880285Y7376954D01*
X-7118381Y6653144D02*
X-7575524Y6653144D01*
X-7346952Y6653144D02*
X-7346952Y7453144D01*
X-7346952Y7453144D02*
X-7423143Y7338859D01*
X-7423143Y7338859D02*
X-7499333Y7262668D01*
X-7499333Y7262668D02*
X-7575524Y7224573D01*
X-6394571Y7453144D02*
X-6775523Y7453144D01*
X-6775523Y7453144D02*
X-6813619Y7072192D01*
X-6813619Y7072192D02*
X-6775523Y7110287D01*
X-6775523Y7110287D02*
X-6699333Y7148382D01*
X-6699333Y7148382D02*
X-6508857Y7148382D01*
X-6508857Y7148382D02*
X-6432666Y7110287D01*
X-6432666Y7110287D02*
X-6394571Y7072192D01*
X-6394571Y7072192D02*
X-6356476Y6996001D01*
X-6356476Y6996001D02*
X-6356476Y6805525D01*
X-6356476Y6805525D02*
X-6394571Y6729335D01*
X-6394571Y6729335D02*
X-6432666Y6691240D01*
X-6432666Y6691240D02*
X-6508857Y6653144D01*
X-6508857Y6653144D02*
X-6699333Y6653144D01*
X-6699333Y6653144D02*
X-6775523Y6691240D01*
X-6775523Y6691240D02*
X-6813619Y6729335D01*
X-8007285Y3351144D02*
X-8273952Y3732097D01*
X-8464428Y3351144D02*
X-8464428Y4151144D01*
X-8464428Y4151144D02*
X-8159666Y4151144D01*
X-8159666Y4151144D02*
X-8083476Y4113049D01*
X-8083476Y4113049D02*
X-8045381Y4074954D01*
X-8045381Y4074954D02*
X-8007285Y3998763D01*
X-8007285Y3998763D02*
X-8007285Y3884478D01*
X-8007285Y3884478D02*
X-8045381Y3808287D01*
X-8045381Y3808287D02*
X-8083476Y3770192D01*
X-8083476Y3770192D02*
X-8159666Y3732097D01*
X-8159666Y3732097D02*
X-8464428Y3732097D01*
X-7245381Y3351144D02*
X-7702524Y3351144D01*
X-7473952Y3351144D02*
X-7473952Y4151144D01*
X-7473952Y4151144D02*
X-7550143Y4036859D01*
X-7550143Y4036859D02*
X-7626333Y3960668D01*
X-7626333Y3960668D02*
X-7702524Y3922573D01*
X-6750142Y4151144D02*
X-6673952Y4151144D01*
X-6673952Y4151144D02*
X-6597761Y4113049D01*
X-6597761Y4113049D02*
X-6559666Y4074954D01*
X-6559666Y4074954D02*
X-6521571Y3998763D01*
X-6521571Y3998763D02*
X-6483476Y3846382D01*
X-6483476Y3846382D02*
X-6483476Y3655906D01*
X-6483476Y3655906D02*
X-6521571Y3503525D01*
X-6521571Y3503525D02*
X-6559666Y3427335D01*
X-6559666Y3427335D02*
X-6597761Y3389240D01*
X-6597761Y3389240D02*
X-6673952Y3351144D01*
X-6673952Y3351144D02*
X-6750142Y3351144D01*
X-6750142Y3351144D02*
X-6826333Y3389240D01*
X-6826333Y3389240D02*
X-6864428Y3427335D01*
X-6864428Y3427335D02*
X-6902523Y3503525D01*
X-6902523Y3503525D02*
X-6940619Y3655906D01*
X-6940619Y3655906D02*
X-6940619Y3846382D01*
X-6940619Y3846382D02*
X-6902523Y3998763D01*
X-6902523Y3998763D02*
X-6864428Y4074954D01*
X-6864428Y4074954D02*
X-6826333Y4113049D01*
X-6826333Y4113049D02*
X-6750142Y4151144D01*
X-8007285Y4875144D02*
X-8273952Y5256097D01*
X-8464428Y4875144D02*
X-8464428Y5675144D01*
X-8464428Y5675144D02*
X-8159666Y5675144D01*
X-8159666Y5675144D02*
X-8083476Y5637049D01*
X-8083476Y5637049D02*
X-8045381Y5598954D01*
X-8045381Y5598954D02*
X-8007285Y5522763D01*
X-8007285Y5522763D02*
X-8007285Y5408478D01*
X-8007285Y5408478D02*
X-8045381Y5332287D01*
X-8045381Y5332287D02*
X-8083476Y5294192D01*
X-8083476Y5294192D02*
X-8159666Y5256097D01*
X-8159666Y5256097D02*
X-8464428Y5256097D01*
X-7245381Y4875144D02*
X-7702524Y4875144D01*
X-7473952Y4875144D02*
X-7473952Y5675144D01*
X-7473952Y5675144D02*
X-7550143Y5560859D01*
X-7550143Y5560859D02*
X-7626333Y5484668D01*
X-7626333Y5484668D02*
X-7702524Y5446573D01*
X-6483476Y4875144D02*
X-6940619Y4875144D01*
X-6712047Y4875144D02*
X-6712047Y5675144D01*
X-6712047Y5675144D02*
X-6788238Y5560859D01*
X-6788238Y5560859D02*
X-6864428Y5484668D01*
X-6864428Y5484668D02*
X-6940619Y5446573D01*
X-13560687Y3191068D02*
X-13636877Y3229163D01*
X-13636877Y3229163D02*
X-13713068Y3305354D01*
X-13713068Y3305354D02*
X-13827354Y3419639D01*
X-13827354Y3419639D02*
X-13903544Y3457734D01*
X-13903544Y3457734D02*
X-13979735Y3457734D01*
X-13941639Y3267258D02*
X-14017830Y3305354D01*
X-14017830Y3305354D02*
X-14094020Y3381544D01*
X-14094020Y3381544D02*
X-14132116Y3533925D01*
X-14132116Y3533925D02*
X-14132116Y3800592D01*
X-14132116Y3800592D02*
X-14094020Y3952973D01*
X-14094020Y3952973D02*
X-14017830Y4029163D01*
X-14017830Y4029163D02*
X-13941639Y4067258D01*
X-13941639Y4067258D02*
X-13789258Y4067258D01*
X-13789258Y4067258D02*
X-13713068Y4029163D01*
X-13713068Y4029163D02*
X-13636877Y3952973D01*
X-13636877Y3952973D02*
X-13598782Y3800592D01*
X-13598782Y3800592D02*
X-13598782Y3533925D01*
X-13598782Y3533925D02*
X-13636877Y3381544D01*
X-13636877Y3381544D02*
X-13713068Y3305354D01*
X-13713068Y3305354D02*
X-13789258Y3267258D01*
X-13789258Y3267258D02*
X-13941639Y3267258D01*
X-12913068Y3800592D02*
X-12913068Y3267258D01*
X-13103544Y4105354D02*
X-13294021Y3533925D01*
X-13294021Y3533925D02*
X-12798782Y3533925D01*
X-13560687Y6493068D02*
X-13636877Y6531163D01*
X-13636877Y6531163D02*
X-13713068Y6607354D01*
X-13713068Y6607354D02*
X-13827354Y6721639D01*
X-13827354Y6721639D02*
X-13903544Y6759734D01*
X-13903544Y6759734D02*
X-13979735Y6759734D01*
X-13941639Y6569258D02*
X-14017830Y6607354D01*
X-14017830Y6607354D02*
X-14094020Y6683544D01*
X-14094020Y6683544D02*
X-14132116Y6835925D01*
X-14132116Y6835925D02*
X-14132116Y7102592D01*
X-14132116Y7102592D02*
X-14094020Y7254973D01*
X-14094020Y7254973D02*
X-14017830Y7331163D01*
X-14017830Y7331163D02*
X-13941639Y7369258D01*
X-13941639Y7369258D02*
X-13789258Y7369258D01*
X-13789258Y7369258D02*
X-13713068Y7331163D01*
X-13713068Y7331163D02*
X-13636877Y7254973D01*
X-13636877Y7254973D02*
X-13598782Y7102592D01*
X-13598782Y7102592D02*
X-13598782Y6835925D01*
X-13598782Y6835925D02*
X-13636877Y6683544D01*
X-13636877Y6683544D02*
X-13713068Y6607354D01*
X-13713068Y6607354D02*
X-13789258Y6569258D01*
X-13789258Y6569258D02*
X-13941639Y6569258D01*
X-12874973Y7369258D02*
X-13255925Y7369258D01*
X-13255925Y7369258D02*
X-13294021Y6988306D01*
X-13294021Y6988306D02*
X-13255925Y7026401D01*
X-13255925Y7026401D02*
X-13179735Y7064496D01*
X-13179735Y7064496D02*
X-12989259Y7064496D01*
X-12989259Y7064496D02*
X-12913068Y7026401D01*
X-12913068Y7026401D02*
X-12874973Y6988306D01*
X-12874973Y6988306D02*
X-12836878Y6912115D01*
X-12836878Y6912115D02*
X-12836878Y6721639D01*
X-12836878Y6721639D02*
X-12874973Y6645449D01*
X-12874973Y6645449D02*
X-12913068Y6607354D01*
X-12913068Y6607354D02*
X-12989259Y6569258D01*
X-12989259Y6569258D02*
X-13179735Y6569258D01*
X-13179735Y6569258D02*
X-13255925Y6607354D01*
X-13255925Y6607354D02*
X-13294021Y6645449D01*
X-17716148Y6314089D02*
X-17754244Y6275994D01*
X-17754244Y6275994D02*
X-17868529Y6237898D01*
X-17868529Y6237898D02*
X-17944720Y6237898D01*
X-17944720Y6237898D02*
X-18059006Y6275994D01*
X-18059006Y6275994D02*
X-18135196Y6352184D01*
X-18135196Y6352184D02*
X-18173291Y6428374D01*
X-18173291Y6428374D02*
X-18211387Y6580755D01*
X-18211387Y6580755D02*
X-18211387Y6695041D01*
X-18211387Y6695041D02*
X-18173291Y6847422D01*
X-18173291Y6847422D02*
X-18135196Y6923613D01*
X-18135196Y6923613D02*
X-18059006Y6999803D01*
X-18059006Y6999803D02*
X-17944720Y7037898D01*
X-17944720Y7037898D02*
X-17868529Y7037898D01*
X-17868529Y7037898D02*
X-17754244Y6999803D01*
X-17754244Y6999803D02*
X-17716148Y6961708D01*
X-16954244Y6237898D02*
X-17411387Y6237898D01*
X-17182815Y6237898D02*
X-17182815Y7037898D01*
X-17182815Y7037898D02*
X-17259006Y6923613D01*
X-17259006Y6923613D02*
X-17335196Y6847422D01*
X-17335196Y6847422D02*
X-17411387Y6809327D01*
X-16268529Y7037898D02*
X-16420910Y7037898D01*
X-16420910Y7037898D02*
X-16497101Y6999803D01*
X-16497101Y6999803D02*
X-16535196Y6961708D01*
X-16535196Y6961708D02*
X-16611386Y6847422D01*
X-16611386Y6847422D02*
X-16649482Y6695041D01*
X-16649482Y6695041D02*
X-16649482Y6390279D01*
X-16649482Y6390279D02*
X-16611386Y6314089D01*
X-16611386Y6314089D02*
X-16573291Y6275994D01*
X-16573291Y6275994D02*
X-16497101Y6237898D01*
X-16497101Y6237898D02*
X-16344720Y6237898D01*
X-16344720Y6237898D02*
X-16268529Y6275994D01*
X-16268529Y6275994D02*
X-16230434Y6314089D01*
X-16230434Y6314089D02*
X-16192339Y6390279D01*
X-16192339Y6390279D02*
X-16192339Y6580755D01*
X-16192339Y6580755D02*
X-16230434Y6656946D01*
X-16230434Y6656946D02*
X-16268529Y6695041D01*
X-16268529Y6695041D02*
X-16344720Y6733136D01*
X-16344720Y6733136D02*
X-16497101Y6733136D01*
X-16497101Y6733136D02*
X-16573291Y6695041D01*
X-16573291Y6695041D02*
X-16611386Y6656946D01*
X-16611386Y6656946D02*
X-16649482Y6580755D01*
X-17342942Y9542603D02*
X-17609609Y9923556D01*
X-17800085Y9542603D02*
X-17800085Y10342603D01*
X-17800085Y10342603D02*
X-17495323Y10342603D01*
X-17495323Y10342603D02*
X-17419133Y10304508D01*
X-17419133Y10304508D02*
X-17381038Y10266413D01*
X-17381038Y10266413D02*
X-17342942Y10190222D01*
X-17342942Y10190222D02*
X-17342942Y10075937D01*
X-17342942Y10075937D02*
X-17381038Y9999746D01*
X-17381038Y9999746D02*
X-17419133Y9961651D01*
X-17419133Y9961651D02*
X-17495323Y9923556D01*
X-17495323Y9923556D02*
X-17800085Y9923556D01*
X-17076276Y10342603D02*
X-16581038Y10342603D01*
X-16581038Y10342603D02*
X-16847704Y10037841D01*
X-16847704Y10037841D02*
X-16733419Y10037841D01*
X-16733419Y10037841D02*
X-16657228Y9999746D01*
X-16657228Y9999746D02*
X-16619133Y9961651D01*
X-16619133Y9961651D02*
X-16581038Y9885460D01*
X-16581038Y9885460D02*
X-16581038Y9694984D01*
X-16581038Y9694984D02*
X-16619133Y9618794D01*
X-16619133Y9618794D02*
X-16657228Y9580699D01*
X-16657228Y9580699D02*
X-16733419Y9542603D01*
X-16733419Y9542603D02*
X-16961990Y9542603D01*
X-16961990Y9542603D02*
X-17038181Y9580699D01*
X-17038181Y9580699D02*
X-17076276Y9618794D01*
X-17342942Y7943071D02*
X-17609609Y8324024D01*
X-17800085Y7943071D02*
X-17800085Y8743071D01*
X-17800085Y8743071D02*
X-17495323Y8743071D01*
X-17495323Y8743071D02*
X-17419133Y8704976D01*
X-17419133Y8704976D02*
X-17381038Y8666881D01*
X-17381038Y8666881D02*
X-17342942Y8590690D01*
X-17342942Y8590690D02*
X-17342942Y8476405D01*
X-17342942Y8476405D02*
X-17381038Y8400214D01*
X-17381038Y8400214D02*
X-17419133Y8362119D01*
X-17419133Y8362119D02*
X-17495323Y8324024D01*
X-17495323Y8324024D02*
X-17800085Y8324024D01*
X-16619133Y8743071D02*
X-17000085Y8743071D01*
X-17000085Y8743071D02*
X-17038181Y8362119D01*
X-17038181Y8362119D02*
X-17000085Y8400214D01*
X-17000085Y8400214D02*
X-16923895Y8438309D01*
X-16923895Y8438309D02*
X-16733419Y8438309D01*
X-16733419Y8438309D02*
X-16657228Y8400214D01*
X-16657228Y8400214D02*
X-16619133Y8362119D01*
X-16619133Y8362119D02*
X-16581038Y8285928D01*
X-16581038Y8285928D02*
X-16581038Y8095452D01*
X-16581038Y8095452D02*
X-16619133Y8019262D01*
X-16619133Y8019262D02*
X-16657228Y7981167D01*
X-16657228Y7981167D02*
X-16733419Y7943071D01*
X-16733419Y7943071D02*
X-16923895Y7943071D01*
X-16923895Y7943071D02*
X-17000085Y7981167D01*
X-17000085Y7981167D02*
X-17038181Y8019262D01*
X10026714Y11237335D02*
X9988618Y11199240D01*
X9988618Y11199240D02*
X9874333Y11161144D01*
X9874333Y11161144D02*
X9798142Y11161144D01*
X9798142Y11161144D02*
X9683856Y11199240D01*
X9683856Y11199240D02*
X9607666Y11275430D01*
X9607666Y11275430D02*
X9569571Y11351620D01*
X9569571Y11351620D02*
X9531475Y11504001D01*
X9531475Y11504001D02*
X9531475Y11618287D01*
X9531475Y11618287D02*
X9569571Y11770668D01*
X9569571Y11770668D02*
X9607666Y11846859D01*
X9607666Y11846859D02*
X9683856Y11923049D01*
X9683856Y11923049D02*
X9798142Y11961144D01*
X9798142Y11961144D02*
X9874333Y11961144D01*
X9874333Y11961144D02*
X9988618Y11923049D01*
X9988618Y11923049D02*
X10026714Y11884954D01*
X10331475Y11884954D02*
X10369571Y11923049D01*
X10369571Y11923049D02*
X10445761Y11961144D01*
X10445761Y11961144D02*
X10636237Y11961144D01*
X10636237Y11961144D02*
X10712428Y11923049D01*
X10712428Y11923049D02*
X10750523Y11884954D01*
X10750523Y11884954D02*
X10788618Y11808763D01*
X10788618Y11808763D02*
X10788618Y11732573D01*
X10788618Y11732573D02*
X10750523Y11618287D01*
X10750523Y11618287D02*
X10293380Y11161144D01*
X10293380Y11161144D02*
X10788618Y11161144D01*
X11093380Y11884954D02*
X11131476Y11923049D01*
X11131476Y11923049D02*
X11207666Y11961144D01*
X11207666Y11961144D02*
X11398142Y11961144D01*
X11398142Y11961144D02*
X11474333Y11923049D01*
X11474333Y11923049D02*
X11512428Y11884954D01*
X11512428Y11884954D02*
X11550523Y11808763D01*
X11550523Y11808763D02*
X11550523Y11732573D01*
X11550523Y11732573D02*
X11512428Y11618287D01*
X11512428Y11618287D02*
X11055285Y11161144D01*
X11055285Y11161144D02*
X11550523Y11161144D01*
X-1854190Y8036954D02*
X-1930380Y8075049D01*
X-1930380Y8075049D02*
X-2006571Y8151240D01*
X-2006571Y8151240D02*
X-2120857Y8265525D01*
X-2120857Y8265525D02*
X-2197047Y8303620D01*
X-2197047Y8303620D02*
X-2273238Y8303620D01*
X-2235142Y8113144D02*
X-2311333Y8151240D01*
X-2311333Y8151240D02*
X-2387523Y8227430D01*
X-2387523Y8227430D02*
X-2425619Y8379811D01*
X-2425619Y8379811D02*
X-2425619Y8646478D01*
X-2425619Y8646478D02*
X-2387523Y8798859D01*
X-2387523Y8798859D02*
X-2311333Y8875049D01*
X-2311333Y8875049D02*
X-2235142Y8913144D01*
X-2235142Y8913144D02*
X-2082761Y8913144D01*
X-2082761Y8913144D02*
X-2006571Y8875049D01*
X-2006571Y8875049D02*
X-1930380Y8798859D01*
X-1930380Y8798859D02*
X-1892285Y8646478D01*
X-1892285Y8646478D02*
X-1892285Y8379811D01*
X-1892285Y8379811D02*
X-1930380Y8227430D01*
X-1930380Y8227430D02*
X-2006571Y8151240D01*
X-2006571Y8151240D02*
X-2082761Y8113144D01*
X-2082761Y8113144D02*
X-2235142Y8113144D01*
X-1206571Y8913144D02*
X-1358952Y8913144D01*
X-1358952Y8913144D02*
X-1435143Y8875049D01*
X-1435143Y8875049D02*
X-1473238Y8836954D01*
X-1473238Y8836954D02*
X-1549428Y8722668D01*
X-1549428Y8722668D02*
X-1587524Y8570287D01*
X-1587524Y8570287D02*
X-1587524Y8265525D01*
X-1587524Y8265525D02*
X-1549428Y8189335D01*
X-1549428Y8189335D02*
X-1511333Y8151240D01*
X-1511333Y8151240D02*
X-1435143Y8113144D01*
X-1435143Y8113144D02*
X-1282762Y8113144D01*
X-1282762Y8113144D02*
X-1206571Y8151240D01*
X-1206571Y8151240D02*
X-1168476Y8189335D01*
X-1168476Y8189335D02*
X-1130381Y8265525D01*
X-1130381Y8265525D02*
X-1130381Y8456001D01*
X-1130381Y8456001D02*
X-1168476Y8532192D01*
X-1168476Y8532192D02*
X-1206571Y8570287D01*
X-1206571Y8570287D02*
X-1282762Y8608382D01*
X-1282762Y8608382D02*
X-1435143Y8608382D01*
X-1435143Y8608382D02*
X-1511333Y8570287D01*
X-1511333Y8570287D02*
X-1549428Y8532192D01*
X-1549428Y8532192D02*
X-1587524Y8456001D01*
X-5435523Y15606144D02*
X-5435523Y16406144D01*
X-5435523Y16406144D02*
X-4978380Y15606144D01*
X-4978380Y15606144D02*
X-4978380Y16406144D01*
X-4635524Y16329954D02*
X-4597428Y16368049D01*
X-4597428Y16368049D02*
X-4521238Y16406144D01*
X-4521238Y16406144D02*
X-4330762Y16406144D01*
X-4330762Y16406144D02*
X-4254571Y16368049D01*
X-4254571Y16368049D02*
X-4216476Y16329954D01*
X-4216476Y16329954D02*
X-4178381Y16253763D01*
X-4178381Y16253763D02*
X-4178381Y16177573D01*
X-4178381Y16177573D02*
X-4216476Y16063287D01*
X-4216476Y16063287D02*
X-4673619Y15606144D01*
X-4673619Y15606144D02*
X-4178381Y15606144D01*
X8084360Y-13494409D02*
X8084360Y-12694409D01*
X8084360Y-12694409D02*
X8541503Y-13494409D01*
X8541503Y-13494409D02*
X8541503Y-12694409D01*
X9341502Y-13494409D02*
X8884359Y-13494409D01*
X9112931Y-13494409D02*
X9112931Y-12694409D01*
X9112931Y-12694409D02*
X9036740Y-12808694D01*
X9036740Y-12808694D02*
X8960550Y-12884885D01*
X8960550Y-12884885D02*
X8884359Y-12922980D01*
X13951693Y-13570599D02*
X13875503Y-13532504D01*
X13875503Y-13532504D02*
X13799312Y-13456314D01*
X13799312Y-13456314D02*
X13685026Y-13342028D01*
X13685026Y-13342028D02*
X13608836Y-13303933D01*
X13608836Y-13303933D02*
X13532645Y-13303933D01*
X13570741Y-13494409D02*
X13494550Y-13456314D01*
X13494550Y-13456314D02*
X13418360Y-13380123D01*
X13418360Y-13380123D02*
X13380264Y-13227742D01*
X13380264Y-13227742D02*
X13380264Y-12961075D01*
X13380264Y-12961075D02*
X13418360Y-12808694D01*
X13418360Y-12808694D02*
X13494550Y-12732504D01*
X13494550Y-12732504D02*
X13570741Y-12694409D01*
X13570741Y-12694409D02*
X13723122Y-12694409D01*
X13723122Y-12694409D02*
X13799312Y-12732504D01*
X13799312Y-12732504D02*
X13875503Y-12808694D01*
X13875503Y-12808694D02*
X13913598Y-12961075D01*
X13913598Y-12961075D02*
X13913598Y-13227742D01*
X13913598Y-13227742D02*
X13875503Y-13380123D01*
X13875503Y-13380123D02*
X13799312Y-13456314D01*
X13799312Y-13456314D02*
X13723122Y-13494409D01*
X13723122Y-13494409D02*
X13570741Y-13494409D01*
X14675502Y-13494409D02*
X14218359Y-13494409D01*
X14446931Y-13494409D02*
X14446931Y-12694409D01*
X14446931Y-12694409D02*
X14370740Y-12808694D01*
X14370740Y-12808694D02*
X14294550Y-12884885D01*
X14294550Y-12884885D02*
X14218359Y-12922980D01*
X-5435523Y17638144D02*
X-5435523Y18438144D01*
X-5435523Y18438144D02*
X-4978380Y17638144D01*
X-4978380Y17638144D02*
X-4978380Y18438144D01*
X-4673619Y18438144D02*
X-4178381Y18438144D01*
X-4178381Y18438144D02*
X-4445047Y18133382D01*
X-4445047Y18133382D02*
X-4330762Y18133382D01*
X-4330762Y18133382D02*
X-4254571Y18095287D01*
X-4254571Y18095287D02*
X-4216476Y18057192D01*
X-4216476Y18057192D02*
X-4178381Y17981001D01*
X-4178381Y17981001D02*
X-4178381Y17790525D01*
X-4178381Y17790525D02*
X-4216476Y17714335D01*
X-4216476Y17714335D02*
X-4254571Y17676240D01*
X-4254571Y17676240D02*
X-4330762Y17638144D01*
X-4330762Y17638144D02*
X-4559333Y17638144D01*
X-4559333Y17638144D02*
X-4635524Y17676240D01*
X-4635524Y17676240D02*
X-4673619Y17714335D01*
X-14579523Y11098144D02*
X-14579523Y11898144D01*
X-14579523Y11898144D02*
X-14122380Y11098144D01*
X-14122380Y11098144D02*
X-14122380Y11898144D01*
X-13398571Y11631478D02*
X-13398571Y11098144D01*
X-13589047Y11936240D02*
X-13779524Y11364811D01*
X-13779524Y11364811D02*
X-13284285Y11364811D01*
X-14579523Y13130144D02*
X-14579523Y13930144D01*
X-14579523Y13930144D02*
X-14122380Y13130144D01*
X-14122380Y13130144D02*
X-14122380Y13930144D01*
X-13360476Y13930144D02*
X-13741428Y13930144D01*
X-13741428Y13930144D02*
X-13779524Y13549192D01*
X-13779524Y13549192D02*
X-13741428Y13587287D01*
X-13741428Y13587287D02*
X-13665238Y13625382D01*
X-13665238Y13625382D02*
X-13474762Y13625382D01*
X-13474762Y13625382D02*
X-13398571Y13587287D01*
X-13398571Y13587287D02*
X-13360476Y13549192D01*
X-13360476Y13549192D02*
X-13322381Y13473001D01*
X-13322381Y13473001D02*
X-13322381Y13282525D01*
X-13322381Y13282525D02*
X-13360476Y13206335D01*
X-13360476Y13206335D02*
X-13398571Y13168240D01*
X-13398571Y13168240D02*
X-13474762Y13130144D01*
X-13474762Y13130144D02*
X-13665238Y13130144D01*
X-13665238Y13130144D02*
X-13741428Y13168240D01*
X-13741428Y13168240D02*
X-13779524Y13206335D01*
X839855Y3200476D02*
X39855Y3200476D01*
X39855Y3200476D02*
X839855Y3657619D01*
X839855Y3657619D02*
X39855Y3657619D01*
X39855Y4381428D02*
X39855Y4229047D01*
X39855Y4229047D02*
X77950Y4152856D01*
X77950Y4152856D02*
X116045Y4114761D01*
X116045Y4114761D02*
X230331Y4038571D01*
X230331Y4038571D02*
X382712Y4000475D01*
X382712Y4000475D02*
X687474Y4000475D01*
X687474Y4000475D02*
X763664Y4038571D01*
X763664Y4038571D02*
X801760Y4076666D01*
X801760Y4076666D02*
X839855Y4152856D01*
X839855Y4152856D02*
X839855Y4305237D01*
X839855Y4305237D02*
X801760Y4381428D01*
X801760Y4381428D02*
X763664Y4419523D01*
X763664Y4419523D02*
X687474Y4457618D01*
X687474Y4457618D02*
X496998Y4457618D01*
X496998Y4457618D02*
X420807Y4419523D01*
X420807Y4419523D02*
X382712Y4381428D01*
X382712Y4381428D02*
X344617Y4305237D01*
X344617Y4305237D02*
X344617Y4152856D01*
X344617Y4152856D02*
X382712Y4076666D01*
X382712Y4076666D02*
X420807Y4038571D01*
X420807Y4038571D02*
X496998Y4000475D01*
X-1128144Y3200476D02*
X-1928144Y3200476D01*
X-1928144Y3200476D02*
X-1128144Y3657619D01*
X-1128144Y3657619D02*
X-1928144Y3657619D01*
X-1928144Y3962380D02*
X-1928144Y4495714D01*
X-1928144Y4495714D02*
X-1128144Y4152856D01*
X-4578285Y6843144D02*
X-4844952Y7224097D01*
X-5035428Y6843144D02*
X-5035428Y7643144D01*
X-5035428Y7643144D02*
X-4730666Y7643144D01*
X-4730666Y7643144D02*
X-4654476Y7605049D01*
X-4654476Y7605049D02*
X-4616381Y7566954D01*
X-4616381Y7566954D02*
X-4578285Y7490763D01*
X-4578285Y7490763D02*
X-4578285Y7376478D01*
X-4578285Y7376478D02*
X-4616381Y7300287D01*
X-4616381Y7300287D02*
X-4654476Y7262192D01*
X-4654476Y7262192D02*
X-4730666Y7224097D01*
X-4730666Y7224097D02*
X-5035428Y7224097D01*
X-3816381Y6843144D02*
X-4273524Y6843144D01*
X-4044952Y6843144D02*
X-4044952Y7643144D01*
X-4044952Y7643144D02*
X-4121143Y7528859D01*
X-4121143Y7528859D02*
X-4197333Y7452668D01*
X-4197333Y7452668D02*
X-4273524Y7414573D01*
X-3511619Y7566954D02*
X-3473523Y7605049D01*
X-3473523Y7605049D02*
X-3397333Y7643144D01*
X-3397333Y7643144D02*
X-3206857Y7643144D01*
X-3206857Y7643144D02*
X-3130666Y7605049D01*
X-3130666Y7605049D02*
X-3092571Y7566954D01*
X-3092571Y7566954D02*
X-3054476Y7490763D01*
X-3054476Y7490763D02*
X-3054476Y7414573D01*
X-3054476Y7414573D02*
X-3092571Y7300287D01*
X-3092571Y7300287D02*
X-3549714Y6843144D01*
X-3549714Y6843144D02*
X-3054476Y6843144D01*
X-2462144Y10915714D02*
X-2843097Y10649047D01*
X-2462144Y10458571D02*
X-3262144Y10458571D01*
X-3262144Y10458571D02*
X-3262144Y10763333D01*
X-3262144Y10763333D02*
X-3224049Y10839523D01*
X-3224049Y10839523D02*
X-3185954Y10877618D01*
X-3185954Y10877618D02*
X-3109763Y10915714D01*
X-3109763Y10915714D02*
X-2995478Y10915714D01*
X-2995478Y10915714D02*
X-2919287Y10877618D01*
X-2919287Y10877618D02*
X-2881192Y10839523D01*
X-2881192Y10839523D02*
X-2843097Y10763333D01*
X-2843097Y10763333D02*
X-2843097Y10458571D01*
X-2462144Y11677618D02*
X-2462144Y11220475D01*
X-2462144Y11449047D02*
X-3262144Y11449047D01*
X-3262144Y11449047D02*
X-3147859Y11372856D01*
X-3147859Y11372856D02*
X-3071668Y11296666D01*
X-3071668Y11296666D02*
X-3033573Y11220475D01*
X-3262144Y11944285D02*
X-3262144Y12439523D01*
X-3262144Y12439523D02*
X-2957382Y12172857D01*
X-2957382Y12172857D02*
X-2957382Y12287142D01*
X-2957382Y12287142D02*
X-2919287Y12363333D01*
X-2919287Y12363333D02*
X-2881192Y12401428D01*
X-2881192Y12401428D02*
X-2805001Y12439523D01*
X-2805001Y12439523D02*
X-2614525Y12439523D01*
X-2614525Y12439523D02*
X-2538335Y12401428D01*
X-2538335Y12401428D02*
X-2500240Y12363333D01*
X-2500240Y12363333D02*
X-2462144Y12287142D01*
X-2462144Y12287142D02*
X-2462144Y12058571D01*
X-2462144Y12058571D02*
X-2500240Y11982380D01*
X-2500240Y11982380D02*
X-2538335Y11944285D01*
X-2462144Y18027714D02*
X-2843097Y17761047D01*
X-2462144Y17570571D02*
X-3262144Y17570571D01*
X-3262144Y17570571D02*
X-3262144Y17875333D01*
X-3262144Y17875333D02*
X-3224049Y17951523D01*
X-3224049Y17951523D02*
X-3185954Y17989618D01*
X-3185954Y17989618D02*
X-3109763Y18027714D01*
X-3109763Y18027714D02*
X-2995478Y18027714D01*
X-2995478Y18027714D02*
X-2919287Y17989618D01*
X-2919287Y17989618D02*
X-2881192Y17951523D01*
X-2881192Y17951523D02*
X-2843097Y17875333D01*
X-2843097Y17875333D02*
X-2843097Y17570571D01*
X-3185954Y18332475D02*
X-3224049Y18370571D01*
X-3224049Y18370571D02*
X-3262144Y18446761D01*
X-3262144Y18446761D02*
X-3262144Y18637237D01*
X-3262144Y18637237D02*
X-3224049Y18713428D01*
X-3224049Y18713428D02*
X-3185954Y18751523D01*
X-3185954Y18751523D02*
X-3109763Y18789618D01*
X-3109763Y18789618D02*
X-3033573Y18789618D01*
X-3033573Y18789618D02*
X-2919287Y18751523D01*
X-2919287Y18751523D02*
X-2462144Y18294380D01*
X-2462144Y18294380D02*
X-2462144Y18789618D01*
X-2462144Y19170571D02*
X-2462144Y19322952D01*
X-2462144Y19322952D02*
X-2500240Y19399142D01*
X-2500240Y19399142D02*
X-2538335Y19437238D01*
X-2538335Y19437238D02*
X-2652620Y19513428D01*
X-2652620Y19513428D02*
X-2805001Y19551523D01*
X-2805001Y19551523D02*
X-3109763Y19551523D01*
X-3109763Y19551523D02*
X-3185954Y19513428D01*
X-3185954Y19513428D02*
X-3224049Y19475333D01*
X-3224049Y19475333D02*
X-3262144Y19399142D01*
X-3262144Y19399142D02*
X-3262144Y19246761D01*
X-3262144Y19246761D02*
X-3224049Y19170571D01*
X-3224049Y19170571D02*
X-3185954Y19132476D01*
X-3185954Y19132476D02*
X-3109763Y19094380D01*
X-3109763Y19094380D02*
X-2919287Y19094380D01*
X-2919287Y19094380D02*
X-2843097Y19132476D01*
X-2843097Y19132476D02*
X-2805001Y19170571D01*
X-2805001Y19170571D02*
X-2766906Y19246761D01*
X-2766906Y19246761D02*
X-2766906Y19399142D01*
X-2766906Y19399142D02*
X-2805001Y19475333D01*
X-2805001Y19475333D02*
X-2843097Y19513428D01*
X-2843097Y19513428D02*
X-2919287Y19551523D01*
X-13595285Y13193144D02*
X-13861952Y13574097D01*
X-14052428Y13193144D02*
X-14052428Y13993144D01*
X-14052428Y13993144D02*
X-13747666Y13993144D01*
X-13747666Y13993144D02*
X-13671476Y13955049D01*
X-13671476Y13955049D02*
X-13633381Y13916954D01*
X-13633381Y13916954D02*
X-13595285Y13840763D01*
X-13595285Y13840763D02*
X-13595285Y13726478D01*
X-13595285Y13726478D02*
X-13633381Y13650287D01*
X-13633381Y13650287D02*
X-13671476Y13612192D01*
X-13671476Y13612192D02*
X-13747666Y13574097D01*
X-13747666Y13574097D02*
X-14052428Y13574097D01*
X-13328619Y13993144D02*
X-12833381Y13993144D01*
X-12833381Y13993144D02*
X-13100047Y13688382D01*
X-13100047Y13688382D02*
X-12985762Y13688382D01*
X-12985762Y13688382D02*
X-12909571Y13650287D01*
X-12909571Y13650287D02*
X-12871476Y13612192D01*
X-12871476Y13612192D02*
X-12833381Y13536001D01*
X-12833381Y13536001D02*
X-12833381Y13345525D01*
X-12833381Y13345525D02*
X-12871476Y13269335D01*
X-12871476Y13269335D02*
X-12909571Y13231240D01*
X-12909571Y13231240D02*
X-12985762Y13193144D01*
X-12985762Y13193144D02*
X-13214333Y13193144D01*
X-13214333Y13193144D02*
X-13290524Y13231240D01*
X-13290524Y13231240D02*
X-13328619Y13269335D01*
X-12566714Y13993144D02*
X-12071476Y13993144D01*
X-12071476Y13993144D02*
X-12338142Y13688382D01*
X-12338142Y13688382D02*
X-12223857Y13688382D01*
X-12223857Y13688382D02*
X-12147666Y13650287D01*
X-12147666Y13650287D02*
X-12109571Y13612192D01*
X-12109571Y13612192D02*
X-12071476Y13536001D01*
X-12071476Y13536001D02*
X-12071476Y13345525D01*
X-12071476Y13345525D02*
X-12109571Y13269335D01*
X-12109571Y13269335D02*
X-12147666Y13231240D01*
X-12147666Y13231240D02*
X-12223857Y13193144D01*
X-12223857Y13193144D02*
X-12452428Y13193144D01*
X-12452428Y13193144D02*
X-12528619Y13231240D01*
X-12528619Y13231240D02*
X-12566714Y13269335D01*
X-4307374Y12896571D02*
X-4269279Y12858475D01*
X-4269279Y12858475D02*
X-4231183Y12744190D01*
X-4231183Y12744190D02*
X-4231183Y12667999D01*
X-4231183Y12667999D02*
X-4269279Y12553713D01*
X-4269279Y12553713D02*
X-4345469Y12477523D01*
X-4345469Y12477523D02*
X-4421659Y12439428D01*
X-4421659Y12439428D02*
X-4574040Y12401332D01*
X-4574040Y12401332D02*
X-4688326Y12401332D01*
X-4688326Y12401332D02*
X-4840707Y12439428D01*
X-4840707Y12439428D02*
X-4916898Y12477523D01*
X-4916898Y12477523D02*
X-4993088Y12553713D01*
X-4993088Y12553713D02*
X-5031183Y12667999D01*
X-5031183Y12667999D02*
X-5031183Y12744190D01*
X-5031183Y12744190D02*
X-4993088Y12858475D01*
X-4993088Y12858475D02*
X-4954993Y12896571D01*
X-4231183Y13658475D02*
X-4231183Y13201332D01*
X-4231183Y13429904D02*
X-5031183Y13429904D01*
X-5031183Y13429904D02*
X-4916898Y13353713D01*
X-4916898Y13353713D02*
X-4840707Y13277523D01*
X-4840707Y13277523D02*
X-4802612Y13201332D01*
X-5031183Y13925142D02*
X-5031183Y14458476D01*
X-5031183Y14458476D02*
X-4231183Y14115618D01*
X-4307374Y15944571D02*
X-4269279Y15906475D01*
X-4269279Y15906475D02*
X-4231183Y15792190D01*
X-4231183Y15792190D02*
X-4231183Y15715999D01*
X-4231183Y15715999D02*
X-4269279Y15601713D01*
X-4269279Y15601713D02*
X-4345469Y15525523D01*
X-4345469Y15525523D02*
X-4421659Y15487428D01*
X-4421659Y15487428D02*
X-4574040Y15449332D01*
X-4574040Y15449332D02*
X-4688326Y15449332D01*
X-4688326Y15449332D02*
X-4840707Y15487428D01*
X-4840707Y15487428D02*
X-4916898Y15525523D01*
X-4916898Y15525523D02*
X-4993088Y15601713D01*
X-4993088Y15601713D02*
X-5031183Y15715999D01*
X-5031183Y15715999D02*
X-5031183Y15792190D01*
X-5031183Y15792190D02*
X-4993088Y15906475D01*
X-4993088Y15906475D02*
X-4954993Y15944571D01*
X-4231183Y16706475D02*
X-4231183Y16249332D01*
X-4231183Y16477904D02*
X-5031183Y16477904D01*
X-5031183Y16477904D02*
X-4916898Y16401713D01*
X-4916898Y16401713D02*
X-4840707Y16325523D01*
X-4840707Y16325523D02*
X-4802612Y16249332D01*
X-4688326Y17163618D02*
X-4726421Y17087428D01*
X-4726421Y17087428D02*
X-4764517Y17049333D01*
X-4764517Y17049333D02*
X-4840707Y17011237D01*
X-4840707Y17011237D02*
X-4878802Y17011237D01*
X-4878802Y17011237D02*
X-4954993Y17049333D01*
X-4954993Y17049333D02*
X-4993088Y17087428D01*
X-4993088Y17087428D02*
X-5031183Y17163618D01*
X-5031183Y17163618D02*
X-5031183Y17315999D01*
X-5031183Y17315999D02*
X-4993088Y17392190D01*
X-4993088Y17392190D02*
X-4954993Y17430285D01*
X-4954993Y17430285D02*
X-4878802Y17468380D01*
X-4878802Y17468380D02*
X-4840707Y17468380D01*
X-4840707Y17468380D02*
X-4764517Y17430285D01*
X-4764517Y17430285D02*
X-4726421Y17392190D01*
X-4726421Y17392190D02*
X-4688326Y17315999D01*
X-4688326Y17315999D02*
X-4688326Y17163618D01*
X-4688326Y17163618D02*
X-4650231Y17087428D01*
X-4650231Y17087428D02*
X-4612136Y17049333D01*
X-4612136Y17049333D02*
X-4535945Y17011237D01*
X-4535945Y17011237D02*
X-4383564Y17011237D01*
X-4383564Y17011237D02*
X-4307374Y17049333D01*
X-4307374Y17049333D02*
X-4269279Y17087428D01*
X-4269279Y17087428D02*
X-4231183Y17163618D01*
X-4231183Y17163618D02*
X-4231183Y17315999D01*
X-4231183Y17315999D02*
X-4269279Y17392190D01*
X-4269279Y17392190D02*
X-4307374Y17430285D01*
X-4307374Y17430285D02*
X-4383564Y17468380D01*
X-4383564Y17468380D02*
X-4535945Y17468380D01*
X-4535945Y17468380D02*
X-4612136Y17430285D01*
X-4612136Y17430285D02*
X-4650231Y17392190D01*
X-4650231Y17392190D02*
X-4688326Y17315999D01*
X-9777335Y13328714D02*
X-9739240Y13290618D01*
X-9739240Y13290618D02*
X-9701144Y13176333D01*
X-9701144Y13176333D02*
X-9701144Y13100142D01*
X-9701144Y13100142D02*
X-9739240Y12985856D01*
X-9739240Y12985856D02*
X-9815430Y12909666D01*
X-9815430Y12909666D02*
X-9891620Y12871571D01*
X-9891620Y12871571D02*
X-10044001Y12833475D01*
X-10044001Y12833475D02*
X-10158287Y12833475D01*
X-10158287Y12833475D02*
X-10310668Y12871571D01*
X-10310668Y12871571D02*
X-10386859Y12909666D01*
X-10386859Y12909666D02*
X-10463049Y12985856D01*
X-10463049Y12985856D02*
X-10501144Y13100142D01*
X-10501144Y13100142D02*
X-10501144Y13176333D01*
X-10501144Y13176333D02*
X-10463049Y13290618D01*
X-10463049Y13290618D02*
X-10424954Y13328714D01*
X-9701144Y14090618D02*
X-9701144Y13633475D01*
X-9701144Y13862047D02*
X-10501144Y13862047D01*
X-10501144Y13862047D02*
X-10386859Y13785856D01*
X-10386859Y13785856D02*
X-10310668Y13709666D01*
X-10310668Y13709666D02*
X-10272573Y13633475D01*
X-9701144Y14471571D02*
X-9701144Y14623952D01*
X-9701144Y14623952D02*
X-9739240Y14700142D01*
X-9739240Y14700142D02*
X-9777335Y14738238D01*
X-9777335Y14738238D02*
X-9891620Y14814428D01*
X-9891620Y14814428D02*
X-10044001Y14852523D01*
X-10044001Y14852523D02*
X-10348763Y14852523D01*
X-10348763Y14852523D02*
X-10424954Y14814428D01*
X-10424954Y14814428D02*
X-10463049Y14776333D01*
X-10463049Y14776333D02*
X-10501144Y14700142D01*
X-10501144Y14700142D02*
X-10501144Y14547761D01*
X-10501144Y14547761D02*
X-10463049Y14471571D01*
X-10463049Y14471571D02*
X-10424954Y14433476D01*
X-10424954Y14433476D02*
X-10348763Y14395380D01*
X-10348763Y14395380D02*
X-10158287Y14395380D01*
X-10158287Y14395380D02*
X-10082097Y14433476D01*
X-10082097Y14433476D02*
X-10044001Y14471571D01*
X-10044001Y14471571D02*
X-10005906Y14547761D01*
X-10005906Y14547761D02*
X-10005906Y14700142D01*
X-10005906Y14700142D02*
X-10044001Y14776333D01*
X-10044001Y14776333D02*
X-10082097Y14814428D01*
X-10082097Y14814428D02*
X-10158287Y14852523D01*
X-9777335Y16376714D02*
X-9739240Y16338618D01*
X-9739240Y16338618D02*
X-9701144Y16224333D01*
X-9701144Y16224333D02*
X-9701144Y16148142D01*
X-9701144Y16148142D02*
X-9739240Y16033856D01*
X-9739240Y16033856D02*
X-9815430Y15957666D01*
X-9815430Y15957666D02*
X-9891620Y15919571D01*
X-9891620Y15919571D02*
X-10044001Y15881475D01*
X-10044001Y15881475D02*
X-10158287Y15881475D01*
X-10158287Y15881475D02*
X-10310668Y15919571D01*
X-10310668Y15919571D02*
X-10386859Y15957666D01*
X-10386859Y15957666D02*
X-10463049Y16033856D01*
X-10463049Y16033856D02*
X-10501144Y16148142D01*
X-10501144Y16148142D02*
X-10501144Y16224333D01*
X-10501144Y16224333D02*
X-10463049Y16338618D01*
X-10463049Y16338618D02*
X-10424954Y16376714D01*
X-10424954Y16681475D02*
X-10463049Y16719571D01*
X-10463049Y16719571D02*
X-10501144Y16795761D01*
X-10501144Y16795761D02*
X-10501144Y16986237D01*
X-10501144Y16986237D02*
X-10463049Y17062428D01*
X-10463049Y17062428D02*
X-10424954Y17100523D01*
X-10424954Y17100523D02*
X-10348763Y17138618D01*
X-10348763Y17138618D02*
X-10272573Y17138618D01*
X-10272573Y17138618D02*
X-10158287Y17100523D01*
X-10158287Y17100523D02*
X-9701144Y16643380D01*
X-9701144Y16643380D02*
X-9701144Y17138618D01*
X-10501144Y17633857D02*
X-10501144Y17710047D01*
X-10501144Y17710047D02*
X-10463049Y17786238D01*
X-10463049Y17786238D02*
X-10424954Y17824333D01*
X-10424954Y17824333D02*
X-10348763Y17862428D01*
X-10348763Y17862428D02*
X-10196382Y17900523D01*
X-10196382Y17900523D02*
X-10005906Y17900523D01*
X-10005906Y17900523D02*
X-9853525Y17862428D01*
X-9853525Y17862428D02*
X-9777335Y17824333D01*
X-9777335Y17824333D02*
X-9739240Y17786238D01*
X-9739240Y17786238D02*
X-9701144Y17710047D01*
X-9701144Y17710047D02*
X-9701144Y17633857D01*
X-9701144Y17633857D02*
X-9739240Y17557666D01*
X-9739240Y17557666D02*
X-9777335Y17519571D01*
X-9777335Y17519571D02*
X-9853525Y17481476D01*
X-9853525Y17481476D02*
X-10005906Y17443380D01*
X-10005906Y17443380D02*
X-10196382Y17443380D01*
X-10196382Y17443380D02*
X-10348763Y17481476D01*
X-10348763Y17481476D02*
X-10424954Y17519571D01*
X-10424954Y17519571D02*
X-10463049Y17557666D01*
X-10463049Y17557666D02*
X-10501144Y17633857D01*
X-10009183Y12185381D02*
X-10809183Y12185381D01*
X-10809183Y12185381D02*
X-10809183Y12375857D01*
X-10809183Y12375857D02*
X-10771088Y12490143D01*
X-10771088Y12490143D02*
X-10694898Y12566333D01*
X-10694898Y12566333D02*
X-10618707Y12604428D01*
X-10618707Y12604428D02*
X-10466326Y12642524D01*
X-10466326Y12642524D02*
X-10352040Y12642524D01*
X-10352040Y12642524D02*
X-10199659Y12604428D01*
X-10199659Y12604428D02*
X-10123469Y12566333D01*
X-10123469Y12566333D02*
X-10047279Y12490143D01*
X-10047279Y12490143D02*
X-10009183Y12375857D01*
X-10009183Y12375857D02*
X-10009183Y12185381D01*
X-10809183Y13328238D02*
X-10809183Y13175857D01*
X-10809183Y13175857D02*
X-10771088Y13099666D01*
X-10771088Y13099666D02*
X-10732993Y13061571D01*
X-10732993Y13061571D02*
X-10618707Y12985381D01*
X-10618707Y12985381D02*
X-10466326Y12947285D01*
X-10466326Y12947285D02*
X-10161564Y12947285D01*
X-10161564Y12947285D02*
X-10085374Y12985381D01*
X-10085374Y12985381D02*
X-10047279Y13023476D01*
X-10047279Y13023476D02*
X-10009183Y13099666D01*
X-10009183Y13099666D02*
X-10009183Y13252047D01*
X-10009183Y13252047D02*
X-10047279Y13328238D01*
X-10047279Y13328238D02*
X-10085374Y13366333D01*
X-10085374Y13366333D02*
X-10161564Y13404428D01*
X-10161564Y13404428D02*
X-10352040Y13404428D01*
X-10352040Y13404428D02*
X-10428231Y13366333D01*
X-10428231Y13366333D02*
X-10466326Y13328238D01*
X-10466326Y13328238D02*
X-10504421Y13252047D01*
X-10504421Y13252047D02*
X-10504421Y13099666D01*
X-10504421Y13099666D02*
X-10466326Y13023476D01*
X-10466326Y13023476D02*
X-10428231Y12985381D01*
X-10428231Y12985381D02*
X-10352040Y12947285D01*
X-6009183Y16630381D02*
X-6809183Y16630381D01*
X-6809183Y16630381D02*
X-6809183Y16820857D01*
X-6809183Y16820857D02*
X-6771088Y16935143D01*
X-6771088Y16935143D02*
X-6694898Y17011333D01*
X-6694898Y17011333D02*
X-6618707Y17049428D01*
X-6618707Y17049428D02*
X-6466326Y17087524D01*
X-6466326Y17087524D02*
X-6352040Y17087524D01*
X-6352040Y17087524D02*
X-6199659Y17049428D01*
X-6199659Y17049428D02*
X-6123469Y17011333D01*
X-6123469Y17011333D02*
X-6047279Y16935143D01*
X-6047279Y16935143D02*
X-6009183Y16820857D01*
X-6009183Y16820857D02*
X-6009183Y16630381D01*
X-6809183Y17354190D02*
X-6809183Y17887524D01*
X-6809183Y17887524D02*
X-6009183Y17544666D01*
X-7914183Y12185381D02*
X-8714183Y12185381D01*
X-8714183Y12185381D02*
X-8714183Y12375857D01*
X-8714183Y12375857D02*
X-8676088Y12490143D01*
X-8676088Y12490143D02*
X-8599898Y12566333D01*
X-8599898Y12566333D02*
X-8523707Y12604428D01*
X-8523707Y12604428D02*
X-8371326Y12642524D01*
X-8371326Y12642524D02*
X-8257040Y12642524D01*
X-8257040Y12642524D02*
X-8104659Y12604428D01*
X-8104659Y12604428D02*
X-8028469Y12566333D01*
X-8028469Y12566333D02*
X-7952279Y12490143D01*
X-7952279Y12490143D02*
X-7914183Y12375857D01*
X-7914183Y12375857D02*
X-7914183Y12185381D01*
X-8371326Y13099666D02*
X-8409421Y13023476D01*
X-8409421Y13023476D02*
X-8447517Y12985381D01*
X-8447517Y12985381D02*
X-8523707Y12947285D01*
X-8523707Y12947285D02*
X-8561802Y12947285D01*
X-8561802Y12947285D02*
X-8637993Y12985381D01*
X-8637993Y12985381D02*
X-8676088Y13023476D01*
X-8676088Y13023476D02*
X-8714183Y13099666D01*
X-8714183Y13099666D02*
X-8714183Y13252047D01*
X-8714183Y13252047D02*
X-8676088Y13328238D01*
X-8676088Y13328238D02*
X-8637993Y13366333D01*
X-8637993Y13366333D02*
X-8561802Y13404428D01*
X-8561802Y13404428D02*
X-8523707Y13404428D01*
X-8523707Y13404428D02*
X-8447517Y13366333D01*
X-8447517Y13366333D02*
X-8409421Y13328238D01*
X-8409421Y13328238D02*
X-8371326Y13252047D01*
X-8371326Y13252047D02*
X-8371326Y13099666D01*
X-8371326Y13099666D02*
X-8333231Y13023476D01*
X-8333231Y13023476D02*
X-8295136Y12985381D01*
X-8295136Y12985381D02*
X-8218945Y12947285D01*
X-8218945Y12947285D02*
X-8066564Y12947285D01*
X-8066564Y12947285D02*
X-7990374Y12985381D01*
X-7990374Y12985381D02*
X-7952279Y13023476D01*
X-7952279Y13023476D02*
X-7914183Y13099666D01*
X-7914183Y13099666D02*
X-7914183Y13252047D01*
X-7914183Y13252047D02*
X-7952279Y13328238D01*
X-7952279Y13328238D02*
X-7990374Y13366333D01*
X-7990374Y13366333D02*
X-8066564Y13404428D01*
X-8066564Y13404428D02*
X-8218945Y13404428D01*
X-8218945Y13404428D02*
X-8295136Y13366333D01*
X-8295136Y13366333D02*
X-8333231Y13328238D01*
X-8333231Y13328238D02*
X-8371326Y13252047D01*
X-11914183Y16630381D02*
X-12714183Y16630381D01*
X-12714183Y16630381D02*
X-12714183Y16820857D01*
X-12714183Y16820857D02*
X-12676088Y16935143D01*
X-12676088Y16935143D02*
X-12599898Y17011333D01*
X-12599898Y17011333D02*
X-12523707Y17049428D01*
X-12523707Y17049428D02*
X-12371326Y17087524D01*
X-12371326Y17087524D02*
X-12257040Y17087524D01*
X-12257040Y17087524D02*
X-12104659Y17049428D01*
X-12104659Y17049428D02*
X-12028469Y17011333D01*
X-12028469Y17011333D02*
X-11952279Y16935143D01*
X-11952279Y16935143D02*
X-11914183Y16820857D01*
X-11914183Y16820857D02*
X-11914183Y16630381D01*
X-11914183Y17468476D02*
X-11914183Y17620857D01*
X-11914183Y17620857D02*
X-11952279Y17697047D01*
X-11952279Y17697047D02*
X-11990374Y17735143D01*
X-11990374Y17735143D02*
X-12104659Y17811333D01*
X-12104659Y17811333D02*
X-12257040Y17849428D01*
X-12257040Y17849428D02*
X-12561802Y17849428D01*
X-12561802Y17849428D02*
X-12637993Y17811333D01*
X-12637993Y17811333D02*
X-12676088Y17773238D01*
X-12676088Y17773238D02*
X-12714183Y17697047D01*
X-12714183Y17697047D02*
X-12714183Y17544666D01*
X-12714183Y17544666D02*
X-12676088Y17468476D01*
X-12676088Y17468476D02*
X-12637993Y17430381D01*
X-12637993Y17430381D02*
X-12561802Y17392285D01*
X-12561802Y17392285D02*
X-12371326Y17392285D01*
X-12371326Y17392285D02*
X-12295136Y17430381D01*
X-12295136Y17430381D02*
X-12257040Y17468476D01*
X-12257040Y17468476D02*
X-12218945Y17544666D01*
X-12218945Y17544666D02*
X-12218945Y17697047D01*
X-12218945Y17697047D02*
X-12257040Y17773238D01*
X-12257040Y17773238D02*
X-12295136Y17811333D01*
X-12295136Y17811333D02*
X-12371326Y17849428D01*
X-18781144Y-4324332D02*
X-19162097Y-4590999D01*
X-18781144Y-4781475D02*
X-19581144Y-4781475D01*
X-19581144Y-4781475D02*
X-19581144Y-4476713D01*
X-19581144Y-4476713D02*
X-19543049Y-4400523D01*
X-19543049Y-4400523D02*
X-19504954Y-4362428D01*
X-19504954Y-4362428D02*
X-19428763Y-4324332D01*
X-19428763Y-4324332D02*
X-19314478Y-4324332D01*
X-19314478Y-4324332D02*
X-19238287Y-4362428D01*
X-19238287Y-4362428D02*
X-19200192Y-4400523D01*
X-19200192Y-4400523D02*
X-19162097Y-4476713D01*
X-19162097Y-4476713D02*
X-19162097Y-4781475D01*
X-19581144Y-3638618D02*
X-19581144Y-3790999D01*
X-19581144Y-3790999D02*
X-19543049Y-3867190D01*
X-19543049Y-3867190D02*
X-19504954Y-3905285D01*
X-19504954Y-3905285D02*
X-19390668Y-3981475D01*
X-19390668Y-3981475D02*
X-19238287Y-4019571D01*
X-19238287Y-4019571D02*
X-18933525Y-4019571D01*
X-18933525Y-4019571D02*
X-18857335Y-3981475D01*
X-18857335Y-3981475D02*
X-18819240Y-3943380D01*
X-18819240Y-3943380D02*
X-18781144Y-3867190D01*
X-18781144Y-3867190D02*
X-18781144Y-3714809D01*
X-18781144Y-3714809D02*
X-18819240Y-3638618D01*
X-18819240Y-3638618D02*
X-18857335Y-3600523D01*
X-18857335Y-3600523D02*
X-18933525Y-3562428D01*
X-18933525Y-3562428D02*
X-19124001Y-3562428D01*
X-19124001Y-3562428D02*
X-19200192Y-3600523D01*
X-19200192Y-3600523D02*
X-19238287Y-3638618D01*
X-19238287Y-3638618D02*
X-19276382Y-3714809D01*
X-19276382Y-3714809D02*
X-19276382Y-3867190D01*
X-19276382Y-3867190D02*
X-19238287Y-3943380D01*
X-19238287Y-3943380D02*
X-19200192Y-3981475D01*
X-19200192Y-3981475D02*
X-19124001Y-4019571D01*
X-874144Y5962714D02*
X-1255097Y5696047D01*
X-874144Y5505571D02*
X-1674144Y5505571D01*
X-1674144Y5505571D02*
X-1674144Y5810333D01*
X-1674144Y5810333D02*
X-1636049Y5886523D01*
X-1636049Y5886523D02*
X-1597954Y5924618D01*
X-1597954Y5924618D02*
X-1521763Y5962714D01*
X-1521763Y5962714D02*
X-1407478Y5962714D01*
X-1407478Y5962714D02*
X-1331287Y5924618D01*
X-1331287Y5924618D02*
X-1293192Y5886523D01*
X-1293192Y5886523D02*
X-1255097Y5810333D01*
X-1255097Y5810333D02*
X-1255097Y5505571D01*
X-1674144Y6229380D02*
X-1674144Y6724618D01*
X-1674144Y6724618D02*
X-1369382Y6457952D01*
X-1369382Y6457952D02*
X-1369382Y6572237D01*
X-1369382Y6572237D02*
X-1331287Y6648428D01*
X-1331287Y6648428D02*
X-1293192Y6686523D01*
X-1293192Y6686523D02*
X-1217001Y6724618D01*
X-1217001Y6724618D02*
X-1026525Y6724618D01*
X-1026525Y6724618D02*
X-950335Y6686523D01*
X-950335Y6686523D02*
X-912240Y6648428D01*
X-912240Y6648428D02*
X-874144Y6572237D01*
X-874144Y6572237D02*
X-874144Y6343666D01*
X-874144Y6343666D02*
X-912240Y6267475D01*
X-912240Y6267475D02*
X-950335Y6229380D01*
X-1407478Y7410333D02*
X-874144Y7410333D01*
X-1712240Y7219857D02*
X-1140811Y7029380D01*
X-1140811Y7029380D02*
X-1140811Y7524619D01*
X11423714Y15174335D02*
X11385618Y15136240D01*
X11385618Y15136240D02*
X11271333Y15098144D01*
X11271333Y15098144D02*
X11195142Y15098144D01*
X11195142Y15098144D02*
X11080856Y15136240D01*
X11080856Y15136240D02*
X11004666Y15212430D01*
X11004666Y15212430D02*
X10966571Y15288620D01*
X10966571Y15288620D02*
X10928475Y15441001D01*
X10928475Y15441001D02*
X10928475Y15555287D01*
X10928475Y15555287D02*
X10966571Y15707668D01*
X10966571Y15707668D02*
X11004666Y15783859D01*
X11004666Y15783859D02*
X11080856Y15860049D01*
X11080856Y15860049D02*
X11195142Y15898144D01*
X11195142Y15898144D02*
X11271333Y15898144D01*
X11271333Y15898144D02*
X11385618Y15860049D01*
X11385618Y15860049D02*
X11423714Y15821954D01*
X11728475Y15821954D02*
X11766571Y15860049D01*
X11766571Y15860049D02*
X11842761Y15898144D01*
X11842761Y15898144D02*
X12033237Y15898144D01*
X12033237Y15898144D02*
X12109428Y15860049D01*
X12109428Y15860049D02*
X12147523Y15821954D01*
X12147523Y15821954D02*
X12185618Y15745763D01*
X12185618Y15745763D02*
X12185618Y15669573D01*
X12185618Y15669573D02*
X12147523Y15555287D01*
X12147523Y15555287D02*
X11690380Y15098144D01*
X11690380Y15098144D02*
X12185618Y15098144D01*
X12947523Y15098144D02*
X12490380Y15098144D01*
X12718952Y15098144D02*
X12718952Y15898144D01*
X12718952Y15898144D02*
X12642761Y15783859D01*
X12642761Y15783859D02*
X12566571Y15707668D01*
X12566571Y15707668D02*
X12490380Y15669573D01*
X-4578285Y5319144D02*
X-4844952Y5700097D01*
X-5035428Y5319144D02*
X-5035428Y6119144D01*
X-5035428Y6119144D02*
X-4730666Y6119144D01*
X-4730666Y6119144D02*
X-4654476Y6081049D01*
X-4654476Y6081049D02*
X-4616381Y6042954D01*
X-4616381Y6042954D02*
X-4578285Y5966763D01*
X-4578285Y5966763D02*
X-4578285Y5852478D01*
X-4578285Y5852478D02*
X-4616381Y5776287D01*
X-4616381Y5776287D02*
X-4654476Y5738192D01*
X-4654476Y5738192D02*
X-4730666Y5700097D01*
X-4730666Y5700097D02*
X-5035428Y5700097D01*
X-3816381Y5319144D02*
X-4273524Y5319144D01*
X-4044952Y5319144D02*
X-4044952Y6119144D01*
X-4044952Y6119144D02*
X-4121143Y6004859D01*
X-4121143Y6004859D02*
X-4197333Y5928668D01*
X-4197333Y5928668D02*
X-4273524Y5890573D01*
X-3092571Y6119144D02*
X-3473523Y6119144D01*
X-3473523Y6119144D02*
X-3511619Y5738192D01*
X-3511619Y5738192D02*
X-3473523Y5776287D01*
X-3473523Y5776287D02*
X-3397333Y5814382D01*
X-3397333Y5814382D02*
X-3206857Y5814382D01*
X-3206857Y5814382D02*
X-3130666Y5776287D01*
X-3130666Y5776287D02*
X-3092571Y5738192D01*
X-3092571Y5738192D02*
X-3054476Y5662001D01*
X-3054476Y5662001D02*
X-3054476Y5471525D01*
X-3054476Y5471525D02*
X-3092571Y5395335D01*
X-3092571Y5395335D02*
X-3130666Y5357240D01*
X-3130666Y5357240D02*
X-3206857Y5319144D01*
X-3206857Y5319144D02*
X-3397333Y5319144D01*
X-3397333Y5319144D02*
X-3473523Y5357240D01*
X-3473523Y5357240D02*
X-3511619Y5395335D01*
X3098809Y-13934045D02*
X3022619Y-13895950D01*
X3022619Y-13895950D02*
X2946428Y-13819760D01*
X2946428Y-13819760D02*
X2832142Y-13705474D01*
X2832142Y-13705474D02*
X2755952Y-13667379D01*
X2755952Y-13667379D02*
X2679761Y-13667379D01*
X2717857Y-13857855D02*
X2641666Y-13819760D01*
X2641666Y-13819760D02*
X2565476Y-13743569D01*
X2565476Y-13743569D02*
X2527380Y-13591188D01*
X2527380Y-13591188D02*
X2527380Y-13324521D01*
X2527380Y-13324521D02*
X2565476Y-13172140D01*
X2565476Y-13172140D02*
X2641666Y-13095950D01*
X2641666Y-13095950D02*
X2717857Y-13057855D01*
X2717857Y-13057855D02*
X2870238Y-13057855D01*
X2870238Y-13057855D02*
X2946428Y-13095950D01*
X2946428Y-13095950D02*
X3022619Y-13172140D01*
X3022619Y-13172140D02*
X3060714Y-13324521D01*
X3060714Y-13324521D02*
X3060714Y-13591188D01*
X3060714Y-13591188D02*
X3022619Y-13743569D01*
X3022619Y-13743569D02*
X2946428Y-13819760D01*
X2946428Y-13819760D02*
X2870238Y-13857855D01*
X2870238Y-13857855D02*
X2717857Y-13857855D01*
X3327380Y-13057855D02*
X3860714Y-13057855D01*
X3860714Y-13057855D02*
X3517856Y-13857855D01*
X3951855Y-16008285D02*
X3570902Y-16274952D01*
X3951855Y-16465428D02*
X3151855Y-16465428D01*
X3151855Y-16465428D02*
X3151855Y-16160666D01*
X3151855Y-16160666D02*
X3189950Y-16084476D01*
X3189950Y-16084476D02*
X3228045Y-16046381D01*
X3228045Y-16046381D02*
X3304236Y-16008285D01*
X3304236Y-16008285D02*
X3418521Y-16008285D01*
X3418521Y-16008285D02*
X3494712Y-16046381D01*
X3494712Y-16046381D02*
X3532807Y-16084476D01*
X3532807Y-16084476D02*
X3570902Y-16160666D01*
X3570902Y-16160666D02*
X3570902Y-16465428D01*
X3951855Y-15246381D02*
X3951855Y-15703524D01*
X3951855Y-15474952D02*
X3151855Y-15474952D01*
X3151855Y-15474952D02*
X3266140Y-15551143D01*
X3266140Y-15551143D02*
X3342331Y-15627333D01*
X3342331Y-15627333D02*
X3380426Y-15703524D01*
X3418521Y-14560666D02*
X3951855Y-14560666D01*
X3113760Y-14751142D02*
X3685188Y-14941619D01*
X3685188Y-14941619D02*
X3685188Y-14446380D01*
X15917962Y-4795409D02*
X15651295Y-4414456D01*
X15460819Y-4795409D02*
X15460819Y-3995409D01*
X15460819Y-3995409D02*
X15765581Y-3995409D01*
X15765581Y-3995409D02*
X15841771Y-4033504D01*
X15841771Y-4033504D02*
X15879866Y-4071599D01*
X15879866Y-4071599D02*
X15917962Y-4147790D01*
X15917962Y-4147790D02*
X15917962Y-4262075D01*
X15917962Y-4262075D02*
X15879866Y-4338266D01*
X15879866Y-4338266D02*
X15841771Y-4376361D01*
X15841771Y-4376361D02*
X15765581Y-4414456D01*
X15765581Y-4414456D02*
X15460819Y-4414456D01*
X16679866Y-4795409D02*
X16222723Y-4795409D01*
X16451295Y-4795409D02*
X16451295Y-3995409D01*
X16451295Y-3995409D02*
X16375104Y-4109694D01*
X16375104Y-4109694D02*
X16298914Y-4185885D01*
X16298914Y-4185885D02*
X16222723Y-4223980D01*
X17137009Y-4338266D02*
X17060819Y-4300171D01*
X17060819Y-4300171D02*
X17022724Y-4262075D01*
X17022724Y-4262075D02*
X16984628Y-4185885D01*
X16984628Y-4185885D02*
X16984628Y-4147790D01*
X16984628Y-4147790D02*
X17022724Y-4071599D01*
X17022724Y-4071599D02*
X17060819Y-4033504D01*
X17060819Y-4033504D02*
X17137009Y-3995409D01*
X17137009Y-3995409D02*
X17289390Y-3995409D01*
X17289390Y-3995409D02*
X17365581Y-4033504D01*
X17365581Y-4033504D02*
X17403676Y-4071599D01*
X17403676Y-4071599D02*
X17441771Y-4147790D01*
X17441771Y-4147790D02*
X17441771Y-4185885D01*
X17441771Y-4185885D02*
X17403676Y-4262075D01*
X17403676Y-4262075D02*
X17365581Y-4300171D01*
X17365581Y-4300171D02*
X17289390Y-4338266D01*
X17289390Y-4338266D02*
X17137009Y-4338266D01*
X17137009Y-4338266D02*
X17060819Y-4376361D01*
X17060819Y-4376361D02*
X17022724Y-4414456D01*
X17022724Y-4414456D02*
X16984628Y-4490647D01*
X16984628Y-4490647D02*
X16984628Y-4643028D01*
X16984628Y-4643028D02*
X17022724Y-4719218D01*
X17022724Y-4719218D02*
X17060819Y-4757314D01*
X17060819Y-4757314D02*
X17137009Y-4795409D01*
X17137009Y-4795409D02*
X17289390Y-4795409D01*
X17289390Y-4795409D02*
X17365581Y-4757314D01*
X17365581Y-4757314D02*
X17403676Y-4719218D01*
X17403676Y-4719218D02*
X17441771Y-4643028D01*
X17441771Y-4643028D02*
X17441771Y-4490647D01*
X17441771Y-4490647D02*
X17403676Y-4414456D01*
X17403676Y-4414456D02*
X17365581Y-4376361D01*
X17365581Y-4376361D02*
X17289390Y-4338266D01*
X15926598Y-7271409D02*
X15659931Y-6890456D01*
X15469455Y-7271409D02*
X15469455Y-6471409D01*
X15469455Y-6471409D02*
X15774217Y-6471409D01*
X15774217Y-6471409D02*
X15850407Y-6509504D01*
X15850407Y-6509504D02*
X15888502Y-6547599D01*
X15888502Y-6547599D02*
X15926598Y-6623790D01*
X15926598Y-6623790D02*
X15926598Y-6738075D01*
X15926598Y-6738075D02*
X15888502Y-6814266D01*
X15888502Y-6814266D02*
X15850407Y-6852361D01*
X15850407Y-6852361D02*
X15774217Y-6890456D01*
X15774217Y-6890456D02*
X15469455Y-6890456D01*
X16688502Y-7271409D02*
X16231359Y-7271409D01*
X16459931Y-7271409D02*
X16459931Y-6471409D01*
X16459931Y-6471409D02*
X16383740Y-6585694D01*
X16383740Y-6585694D02*
X16307550Y-6661885D01*
X16307550Y-6661885D02*
X16231359Y-6699980D01*
X17069455Y-7271409D02*
X17221836Y-7271409D01*
X17221836Y-7271409D02*
X17298026Y-7233314D01*
X17298026Y-7233314D02*
X17336122Y-7195218D01*
X17336122Y-7195218D02*
X17412312Y-7080933D01*
X17412312Y-7080933D02*
X17450407Y-6928552D01*
X17450407Y-6928552D02*
X17450407Y-6623790D01*
X17450407Y-6623790D02*
X17412312Y-6547599D01*
X17412312Y-6547599D02*
X17374217Y-6509504D01*
X17374217Y-6509504D02*
X17298026Y-6471409D01*
X17298026Y-6471409D02*
X17145645Y-6471409D01*
X17145645Y-6471409D02*
X17069455Y-6509504D01*
X17069455Y-6509504D02*
X17031360Y-6547599D01*
X17031360Y-6547599D02*
X16993264Y-6623790D01*
X16993264Y-6623790D02*
X16993264Y-6814266D01*
X16993264Y-6814266D02*
X17031360Y-6890456D01*
X17031360Y-6890456D02*
X17069455Y-6928552D01*
X17069455Y-6928552D02*
X17145645Y-6966647D01*
X17145645Y-6966647D02*
X17298026Y-6966647D01*
X17298026Y-6966647D02*
X17374217Y-6928552D01*
X17374217Y-6928552D02*
X17412312Y-6890456D01*
X17412312Y-6890456D02*
X17450407Y-6814266D01*
X12902121Y-4795409D02*
X12635454Y-4414456D01*
X12444978Y-4795409D02*
X12444978Y-3995409D01*
X12444978Y-3995409D02*
X12749740Y-3995409D01*
X12749740Y-3995409D02*
X12825930Y-4033504D01*
X12825930Y-4033504D02*
X12864025Y-4071599D01*
X12864025Y-4071599D02*
X12902121Y-4147790D01*
X12902121Y-4147790D02*
X12902121Y-4262075D01*
X12902121Y-4262075D02*
X12864025Y-4338266D01*
X12864025Y-4338266D02*
X12825930Y-4376361D01*
X12825930Y-4376361D02*
X12749740Y-4414456D01*
X12749740Y-4414456D02*
X12444978Y-4414456D01*
X13206882Y-4071599D02*
X13244978Y-4033504D01*
X13244978Y-4033504D02*
X13321168Y-3995409D01*
X13321168Y-3995409D02*
X13511644Y-3995409D01*
X13511644Y-3995409D02*
X13587835Y-4033504D01*
X13587835Y-4033504D02*
X13625930Y-4071599D01*
X13625930Y-4071599D02*
X13664025Y-4147790D01*
X13664025Y-4147790D02*
X13664025Y-4223980D01*
X13664025Y-4223980D02*
X13625930Y-4338266D01*
X13625930Y-4338266D02*
X13168787Y-4795409D01*
X13168787Y-4795409D02*
X13664025Y-4795409D01*
X14159264Y-3995409D02*
X14235454Y-3995409D01*
X14235454Y-3995409D02*
X14311645Y-4033504D01*
X14311645Y-4033504D02*
X14349740Y-4071599D01*
X14349740Y-4071599D02*
X14387835Y-4147790D01*
X14387835Y-4147790D02*
X14425930Y-4300171D01*
X14425930Y-4300171D02*
X14425930Y-4490647D01*
X14425930Y-4490647D02*
X14387835Y-4643028D01*
X14387835Y-4643028D02*
X14349740Y-4719218D01*
X14349740Y-4719218D02*
X14311645Y-4757314D01*
X14311645Y-4757314D02*
X14235454Y-4795409D01*
X14235454Y-4795409D02*
X14159264Y-4795409D01*
X14159264Y-4795409D02*
X14083073Y-4757314D01*
X14083073Y-4757314D02*
X14044978Y-4719218D01*
X14044978Y-4719218D02*
X14006883Y-4643028D01*
X14006883Y-4643028D02*
X13968787Y-4490647D01*
X13968787Y-4490647D02*
X13968787Y-4300171D01*
X13968787Y-4300171D02*
X14006883Y-4147790D01*
X14006883Y-4147790D02*
X14044978Y-4071599D01*
X14044978Y-4071599D02*
X14083073Y-4033504D01*
X14083073Y-4033504D02*
X14159264Y-3995409D01*
X9539855Y-6192475D02*
X9158902Y-6459142D01*
X9539855Y-6649618D02*
X8739855Y-6649618D01*
X8739855Y-6649618D02*
X8739855Y-6344856D01*
X8739855Y-6344856D02*
X8777950Y-6268666D01*
X8777950Y-6268666D02*
X8816045Y-6230571D01*
X8816045Y-6230571D02*
X8892236Y-6192475D01*
X8892236Y-6192475D02*
X9006521Y-6192475D01*
X9006521Y-6192475D02*
X9082712Y-6230571D01*
X9082712Y-6230571D02*
X9120807Y-6268666D01*
X9120807Y-6268666D02*
X9158902Y-6344856D01*
X9158902Y-6344856D02*
X9158902Y-6649618D01*
X8816045Y-5887714D02*
X8777950Y-5849618D01*
X8777950Y-5849618D02*
X8739855Y-5773428D01*
X8739855Y-5773428D02*
X8739855Y-5582952D01*
X8739855Y-5582952D02*
X8777950Y-5506761D01*
X8777950Y-5506761D02*
X8816045Y-5468666D01*
X8816045Y-5468666D02*
X8892236Y-5430571D01*
X8892236Y-5430571D02*
X8968426Y-5430571D01*
X8968426Y-5430571D02*
X9082712Y-5468666D01*
X9082712Y-5468666D02*
X9539855Y-5925809D01*
X9539855Y-5925809D02*
X9539855Y-5430571D01*
X9539855Y-4668666D02*
X9539855Y-5125809D01*
X9539855Y-4897237D02*
X8739855Y-4897237D01*
X8739855Y-4897237D02*
X8854140Y-4973428D01*
X8854140Y-4973428D02*
X8930331Y-5049618D01*
X8930331Y-5049618D02*
X8968426Y-5125809D01*
X12955461Y-3158807D02*
X12917365Y-3196903D01*
X12917365Y-3196903D02*
X12803080Y-3234998D01*
X12803080Y-3234998D02*
X12726889Y-3234998D01*
X12726889Y-3234998D02*
X12612603Y-3196903D01*
X12612603Y-3196903D02*
X12536413Y-3120712D01*
X12536413Y-3120712D02*
X12498318Y-3044522D01*
X12498318Y-3044522D02*
X12460222Y-2892141D01*
X12460222Y-2892141D02*
X12460222Y-2777855D01*
X12460222Y-2777855D02*
X12498318Y-2625474D01*
X12498318Y-2625474D02*
X12536413Y-2549283D01*
X12536413Y-2549283D02*
X12612603Y-2473093D01*
X12612603Y-2473093D02*
X12726889Y-2434998D01*
X12726889Y-2434998D02*
X12803080Y-2434998D01*
X12803080Y-2434998D02*
X12917365Y-2473093D01*
X12917365Y-2473093D02*
X12955461Y-2511188D01*
X13260222Y-2511188D02*
X13298318Y-2473093D01*
X13298318Y-2473093D02*
X13374508Y-2434998D01*
X13374508Y-2434998D02*
X13564984Y-2434998D01*
X13564984Y-2434998D02*
X13641175Y-2473093D01*
X13641175Y-2473093D02*
X13679270Y-2511188D01*
X13679270Y-2511188D02*
X13717365Y-2587379D01*
X13717365Y-2587379D02*
X13717365Y-2663569D01*
X13717365Y-2663569D02*
X13679270Y-2777855D01*
X13679270Y-2777855D02*
X13222127Y-3234998D01*
X13222127Y-3234998D02*
X13717365Y-3234998D01*
X13984032Y-2434998D02*
X14479270Y-2434998D01*
X14479270Y-2434998D02*
X14212604Y-2739760D01*
X14212604Y-2739760D02*
X14326889Y-2739760D01*
X14326889Y-2739760D02*
X14403080Y-2777855D01*
X14403080Y-2777855D02*
X14441175Y-2815950D01*
X14441175Y-2815950D02*
X14479270Y-2892141D01*
X14479270Y-2892141D02*
X14479270Y-3082617D01*
X14479270Y-3082617D02*
X14441175Y-3158807D01*
X14441175Y-3158807D02*
X14403080Y-3196903D01*
X14403080Y-3196903D02*
X14326889Y-3234998D01*
X14326889Y-3234998D02*
X14098318Y-3234998D01*
X14098318Y-3234998D02*
X14022127Y-3196903D01*
X14022127Y-3196903D02*
X13984032Y-3158807D01*
X12955461Y-1492760D02*
X12917365Y-1530856D01*
X12917365Y-1530856D02*
X12803080Y-1568951D01*
X12803080Y-1568951D02*
X12726889Y-1568951D01*
X12726889Y-1568951D02*
X12612603Y-1530856D01*
X12612603Y-1530856D02*
X12536413Y-1454665D01*
X12536413Y-1454665D02*
X12498318Y-1378475D01*
X12498318Y-1378475D02*
X12460222Y-1226094D01*
X12460222Y-1226094D02*
X12460222Y-1111808D01*
X12460222Y-1111808D02*
X12498318Y-959427D01*
X12498318Y-959427D02*
X12536413Y-883236D01*
X12536413Y-883236D02*
X12612603Y-807046D01*
X12612603Y-807046D02*
X12726889Y-768951D01*
X12726889Y-768951D02*
X12803080Y-768951D01*
X12803080Y-768951D02*
X12917365Y-807046D01*
X12917365Y-807046D02*
X12955461Y-845141D01*
X13260222Y-845141D02*
X13298318Y-807046D01*
X13298318Y-807046D02*
X13374508Y-768951D01*
X13374508Y-768951D02*
X13564984Y-768951D01*
X13564984Y-768951D02*
X13641175Y-807046D01*
X13641175Y-807046D02*
X13679270Y-845141D01*
X13679270Y-845141D02*
X13717365Y-921332D01*
X13717365Y-921332D02*
X13717365Y-997522D01*
X13717365Y-997522D02*
X13679270Y-1111808D01*
X13679270Y-1111808D02*
X13222127Y-1568951D01*
X13222127Y-1568951D02*
X13717365Y-1568951D01*
X14403080Y-1035617D02*
X14403080Y-1568951D01*
X14212604Y-730856D02*
X14022127Y-1302284D01*
X14022127Y-1302284D02*
X14517366Y-1302284D01*
X8142855Y-6192475D02*
X7761902Y-6459142D01*
X8142855Y-6649618D02*
X7342855Y-6649618D01*
X7342855Y-6649618D02*
X7342855Y-6344856D01*
X7342855Y-6344856D02*
X7380950Y-6268666D01*
X7380950Y-6268666D02*
X7419045Y-6230571D01*
X7419045Y-6230571D02*
X7495236Y-6192475D01*
X7495236Y-6192475D02*
X7609521Y-6192475D01*
X7609521Y-6192475D02*
X7685712Y-6230571D01*
X7685712Y-6230571D02*
X7723807Y-6268666D01*
X7723807Y-6268666D02*
X7761902Y-6344856D01*
X7761902Y-6344856D02*
X7761902Y-6649618D01*
X7419045Y-5887714D02*
X7380950Y-5849618D01*
X7380950Y-5849618D02*
X7342855Y-5773428D01*
X7342855Y-5773428D02*
X7342855Y-5582952D01*
X7342855Y-5582952D02*
X7380950Y-5506761D01*
X7380950Y-5506761D02*
X7419045Y-5468666D01*
X7419045Y-5468666D02*
X7495236Y-5430571D01*
X7495236Y-5430571D02*
X7571426Y-5430571D01*
X7571426Y-5430571D02*
X7685712Y-5468666D01*
X7685712Y-5468666D02*
X8142855Y-5925809D01*
X8142855Y-5925809D02*
X8142855Y-5430571D01*
X7419045Y-5125809D02*
X7380950Y-5087713D01*
X7380950Y-5087713D02*
X7342855Y-5011523D01*
X7342855Y-5011523D02*
X7342855Y-4821047D01*
X7342855Y-4821047D02*
X7380950Y-4744856D01*
X7380950Y-4744856D02*
X7419045Y-4706761D01*
X7419045Y-4706761D02*
X7495236Y-4668666D01*
X7495236Y-4668666D02*
X7571426Y-4668666D01*
X7571426Y-4668666D02*
X7685712Y-4706761D01*
X7685712Y-4706761D02*
X8142855Y-5163904D01*
X8142855Y-5163904D02*
X8142855Y-4668666D01*
X4692714Y-9163854D02*
X4426047Y-8782901D01*
X4235571Y-9163854D02*
X4235571Y-8363854D01*
X4235571Y-8363854D02*
X4540333Y-8363854D01*
X4540333Y-8363854D02*
X4616523Y-8401949D01*
X4616523Y-8401949D02*
X4654618Y-8440044D01*
X4654618Y-8440044D02*
X4692714Y-8516235D01*
X4692714Y-8516235D02*
X4692714Y-8630520D01*
X4692714Y-8630520D02*
X4654618Y-8706711D01*
X4654618Y-8706711D02*
X4616523Y-8744806D01*
X4616523Y-8744806D02*
X4540333Y-8782901D01*
X4540333Y-8782901D02*
X4235571Y-8782901D01*
X4997475Y-8440044D02*
X5035571Y-8401949D01*
X5035571Y-8401949D02*
X5111761Y-8363854D01*
X5111761Y-8363854D02*
X5302237Y-8363854D01*
X5302237Y-8363854D02*
X5378428Y-8401949D01*
X5378428Y-8401949D02*
X5416523Y-8440044D01*
X5416523Y-8440044D02*
X5454618Y-8516235D01*
X5454618Y-8516235D02*
X5454618Y-8592425D01*
X5454618Y-8592425D02*
X5416523Y-8706711D01*
X5416523Y-8706711D02*
X4959380Y-9163854D01*
X4959380Y-9163854D02*
X5454618Y-9163854D01*
X5721285Y-8363854D02*
X6216523Y-8363854D01*
X6216523Y-8363854D02*
X5949857Y-8668616D01*
X5949857Y-8668616D02*
X6064142Y-8668616D01*
X6064142Y-8668616D02*
X6140333Y-8706711D01*
X6140333Y-8706711D02*
X6178428Y-8744806D01*
X6178428Y-8744806D02*
X6216523Y-8820997D01*
X6216523Y-8820997D02*
X6216523Y-9011473D01*
X6216523Y-9011473D02*
X6178428Y-9087663D01*
X6178428Y-9087663D02*
X6140333Y-9125759D01*
X6140333Y-9125759D02*
X6064142Y-9163854D01*
X6064142Y-9163854D02*
X5835571Y-9163854D01*
X5835571Y-9163854D02*
X5759380Y-9125759D01*
X5759380Y-9125759D02*
X5721285Y-9087663D01*
X4692714Y-2363855D02*
X4426047Y-1982902D01*
X4235571Y-2363855D02*
X4235571Y-1563855D01*
X4235571Y-1563855D02*
X4540333Y-1563855D01*
X4540333Y-1563855D02*
X4616523Y-1601950D01*
X4616523Y-1601950D02*
X4654618Y-1640045D01*
X4654618Y-1640045D02*
X4692714Y-1716236D01*
X4692714Y-1716236D02*
X4692714Y-1830521D01*
X4692714Y-1830521D02*
X4654618Y-1906712D01*
X4654618Y-1906712D02*
X4616523Y-1944807D01*
X4616523Y-1944807D02*
X4540333Y-1982902D01*
X4540333Y-1982902D02*
X4235571Y-1982902D01*
X4997475Y-1640045D02*
X5035571Y-1601950D01*
X5035571Y-1601950D02*
X5111761Y-1563855D01*
X5111761Y-1563855D02*
X5302237Y-1563855D01*
X5302237Y-1563855D02*
X5378428Y-1601950D01*
X5378428Y-1601950D02*
X5416523Y-1640045D01*
X5416523Y-1640045D02*
X5454618Y-1716236D01*
X5454618Y-1716236D02*
X5454618Y-1792426D01*
X5454618Y-1792426D02*
X5416523Y-1906712D01*
X5416523Y-1906712D02*
X4959380Y-2363855D01*
X4959380Y-2363855D02*
X5454618Y-2363855D01*
X6140333Y-1830521D02*
X6140333Y-2363855D01*
X5949857Y-1525760D02*
X5759380Y-2097188D01*
X5759380Y-2097188D02*
X6254619Y-2097188D01*
X6237855Y-5213285D02*
X5856902Y-5479952D01*
X6237855Y-5670428D02*
X5437855Y-5670428D01*
X5437855Y-5670428D02*
X5437855Y-5365666D01*
X5437855Y-5365666D02*
X5475950Y-5289476D01*
X5475950Y-5289476D02*
X5514045Y-5251381D01*
X5514045Y-5251381D02*
X5590236Y-5213285D01*
X5590236Y-5213285D02*
X5704521Y-5213285D01*
X5704521Y-5213285D02*
X5780712Y-5251381D01*
X5780712Y-5251381D02*
X5818807Y-5289476D01*
X5818807Y-5289476D02*
X5856902Y-5365666D01*
X5856902Y-5365666D02*
X5856902Y-5670428D01*
X5514045Y-4908524D02*
X5475950Y-4870428D01*
X5475950Y-4870428D02*
X5437855Y-4794238D01*
X5437855Y-4794238D02*
X5437855Y-4603762D01*
X5437855Y-4603762D02*
X5475950Y-4527571D01*
X5475950Y-4527571D02*
X5514045Y-4489476D01*
X5514045Y-4489476D02*
X5590236Y-4451381D01*
X5590236Y-4451381D02*
X5666426Y-4451381D01*
X5666426Y-4451381D02*
X5780712Y-4489476D01*
X5780712Y-4489476D02*
X6237855Y-4946619D01*
X6237855Y-4946619D02*
X6237855Y-4451381D01*
X5437855Y-3727571D02*
X5437855Y-4108523D01*
X5437855Y-4108523D02*
X5818807Y-4146619D01*
X5818807Y-4146619D02*
X5780712Y-4108523D01*
X5780712Y-4108523D02*
X5742617Y-4032333D01*
X5742617Y-4032333D02*
X5742617Y-3841857D01*
X5742617Y-3841857D02*
X5780712Y-3765666D01*
X5780712Y-3765666D02*
X5818807Y-3727571D01*
X5818807Y-3727571D02*
X5894998Y-3689476D01*
X5894998Y-3689476D02*
X6085474Y-3689476D01*
X6085474Y-3689476D02*
X6161664Y-3727571D01*
X6161664Y-3727571D02*
X6199760Y-3765666D01*
X6199760Y-3765666D02*
X6237855Y-3841857D01*
X6237855Y-3841857D02*
X6237855Y-4032333D01*
X6237855Y-4032333D02*
X6199760Y-4108523D01*
X6199760Y-4108523D02*
X6161664Y-4146619D01*
X4692714Y-3763854D02*
X4426047Y-3382901D01*
X4235571Y-3763854D02*
X4235571Y-2963854D01*
X4235571Y-2963854D02*
X4540333Y-2963854D01*
X4540333Y-2963854D02*
X4616523Y-3001949D01*
X4616523Y-3001949D02*
X4654618Y-3040044D01*
X4654618Y-3040044D02*
X4692714Y-3116235D01*
X4692714Y-3116235D02*
X4692714Y-3230520D01*
X4692714Y-3230520D02*
X4654618Y-3306711D01*
X4654618Y-3306711D02*
X4616523Y-3344806D01*
X4616523Y-3344806D02*
X4540333Y-3382901D01*
X4540333Y-3382901D02*
X4235571Y-3382901D01*
X4997475Y-3040044D02*
X5035571Y-3001949D01*
X5035571Y-3001949D02*
X5111761Y-2963854D01*
X5111761Y-2963854D02*
X5302237Y-2963854D01*
X5302237Y-2963854D02*
X5378428Y-3001949D01*
X5378428Y-3001949D02*
X5416523Y-3040044D01*
X5416523Y-3040044D02*
X5454618Y-3116235D01*
X5454618Y-3116235D02*
X5454618Y-3192425D01*
X5454618Y-3192425D02*
X5416523Y-3306711D01*
X5416523Y-3306711D02*
X4959380Y-3763854D01*
X4959380Y-3763854D02*
X5454618Y-3763854D01*
X6140333Y-2963854D02*
X5987952Y-2963854D01*
X5987952Y-2963854D02*
X5911761Y-3001949D01*
X5911761Y-3001949D02*
X5873666Y-3040044D01*
X5873666Y-3040044D02*
X5797476Y-3154330D01*
X5797476Y-3154330D02*
X5759380Y-3306711D01*
X5759380Y-3306711D02*
X5759380Y-3611473D01*
X5759380Y-3611473D02*
X5797476Y-3687663D01*
X5797476Y-3687663D02*
X5835571Y-3725759D01*
X5835571Y-3725759D02*
X5911761Y-3763854D01*
X5911761Y-3763854D02*
X6064142Y-3763854D01*
X6064142Y-3763854D02*
X6140333Y-3725759D01*
X6140333Y-3725759D02*
X6178428Y-3687663D01*
X6178428Y-3687663D02*
X6216523Y-3611473D01*
X6216523Y-3611473D02*
X6216523Y-3420997D01*
X6216523Y-3420997D02*
X6178428Y-3344806D01*
X6178428Y-3344806D02*
X6140333Y-3306711D01*
X6140333Y-3306711D02*
X6064142Y-3268616D01*
X6064142Y-3268616D02*
X5911761Y-3268616D01*
X5911761Y-3268616D02*
X5835571Y-3306711D01*
X5835571Y-3306711D02*
X5797476Y-3344806D01*
X5797476Y-3344806D02*
X5759380Y-3420997D01*
X6618855Y3803714D02*
X6237902Y3537047D01*
X6618855Y3346571D02*
X5818855Y3346571D01*
X5818855Y3346571D02*
X5818855Y3651333D01*
X5818855Y3651333D02*
X5856950Y3727523D01*
X5856950Y3727523D02*
X5895045Y3765618D01*
X5895045Y3765618D02*
X5971236Y3803714D01*
X5971236Y3803714D02*
X6085521Y3803714D01*
X6085521Y3803714D02*
X6161712Y3765618D01*
X6161712Y3765618D02*
X6199807Y3727523D01*
X6199807Y3727523D02*
X6237902Y3651333D01*
X6237902Y3651333D02*
X6237902Y3346571D01*
X5895045Y4108475D02*
X5856950Y4146571D01*
X5856950Y4146571D02*
X5818855Y4222761D01*
X5818855Y4222761D02*
X5818855Y4413237D01*
X5818855Y4413237D02*
X5856950Y4489428D01*
X5856950Y4489428D02*
X5895045Y4527523D01*
X5895045Y4527523D02*
X5971236Y4565618D01*
X5971236Y4565618D02*
X6047426Y4565618D01*
X6047426Y4565618D02*
X6161712Y4527523D01*
X6161712Y4527523D02*
X6618855Y4070380D01*
X6618855Y4070380D02*
X6618855Y4565618D01*
X5818855Y4832285D02*
X5818855Y5365619D01*
X5818855Y5365619D02*
X6618855Y5022761D01*
X12947714Y4938144D02*
X12681047Y5319097D01*
X12490571Y4938144D02*
X12490571Y5738144D01*
X12490571Y5738144D02*
X12795333Y5738144D01*
X12795333Y5738144D02*
X12871523Y5700049D01*
X12871523Y5700049D02*
X12909618Y5661954D01*
X12909618Y5661954D02*
X12947714Y5585763D01*
X12947714Y5585763D02*
X12947714Y5471478D01*
X12947714Y5471478D02*
X12909618Y5395287D01*
X12909618Y5395287D02*
X12871523Y5357192D01*
X12871523Y5357192D02*
X12795333Y5319097D01*
X12795333Y5319097D02*
X12490571Y5319097D01*
X13252475Y5661954D02*
X13290571Y5700049D01*
X13290571Y5700049D02*
X13366761Y5738144D01*
X13366761Y5738144D02*
X13557237Y5738144D01*
X13557237Y5738144D02*
X13633428Y5700049D01*
X13633428Y5700049D02*
X13671523Y5661954D01*
X13671523Y5661954D02*
X13709618Y5585763D01*
X13709618Y5585763D02*
X13709618Y5509573D01*
X13709618Y5509573D02*
X13671523Y5395287D01*
X13671523Y5395287D02*
X13214380Y4938144D01*
X13214380Y4938144D02*
X13709618Y4938144D01*
X14166761Y5395287D02*
X14090571Y5433382D01*
X14090571Y5433382D02*
X14052476Y5471478D01*
X14052476Y5471478D02*
X14014380Y5547668D01*
X14014380Y5547668D02*
X14014380Y5585763D01*
X14014380Y5585763D02*
X14052476Y5661954D01*
X14052476Y5661954D02*
X14090571Y5700049D01*
X14090571Y5700049D02*
X14166761Y5738144D01*
X14166761Y5738144D02*
X14319142Y5738144D01*
X14319142Y5738144D02*
X14395333Y5700049D01*
X14395333Y5700049D02*
X14433428Y5661954D01*
X14433428Y5661954D02*
X14471523Y5585763D01*
X14471523Y5585763D02*
X14471523Y5547668D01*
X14471523Y5547668D02*
X14433428Y5471478D01*
X14433428Y5471478D02*
X14395333Y5433382D01*
X14395333Y5433382D02*
X14319142Y5395287D01*
X14319142Y5395287D02*
X14166761Y5395287D01*
X14166761Y5395287D02*
X14090571Y5357192D01*
X14090571Y5357192D02*
X14052476Y5319097D01*
X14052476Y5319097D02*
X14014380Y5242906D01*
X14014380Y5242906D02*
X14014380Y5090525D01*
X14014380Y5090525D02*
X14052476Y5014335D01*
X14052476Y5014335D02*
X14090571Y4976240D01*
X14090571Y4976240D02*
X14166761Y4938144D01*
X14166761Y4938144D02*
X14319142Y4938144D01*
X14319142Y4938144D02*
X14395333Y4976240D01*
X14395333Y4976240D02*
X14433428Y5014335D01*
X14433428Y5014335D02*
X14471523Y5090525D01*
X14471523Y5090525D02*
X14471523Y5242906D01*
X14471523Y5242906D02*
X14433428Y5319097D01*
X14433428Y5319097D02*
X14395333Y5357192D01*
X14395333Y5357192D02*
X14319142Y5395287D01*
X10022396Y4942462D02*
X9755729Y5323415D01*
X9565253Y4942462D02*
X9565253Y5742462D01*
X9565253Y5742462D02*
X9870015Y5742462D01*
X9870015Y5742462D02*
X9946205Y5704367D01*
X9946205Y5704367D02*
X9984300Y5666272D01*
X9984300Y5666272D02*
X10022396Y5590081D01*
X10022396Y5590081D02*
X10022396Y5475796D01*
X10022396Y5475796D02*
X9984300Y5399605D01*
X9984300Y5399605D02*
X9946205Y5361510D01*
X9946205Y5361510D02*
X9870015Y5323415D01*
X9870015Y5323415D02*
X9565253Y5323415D01*
X10289062Y5742462D02*
X10784300Y5742462D01*
X10784300Y5742462D02*
X10517634Y5437700D01*
X10517634Y5437700D02*
X10631919Y5437700D01*
X10631919Y5437700D02*
X10708110Y5399605D01*
X10708110Y5399605D02*
X10746205Y5361510D01*
X10746205Y5361510D02*
X10784300Y5285319D01*
X10784300Y5285319D02*
X10784300Y5094843D01*
X10784300Y5094843D02*
X10746205Y5018653D01*
X10746205Y5018653D02*
X10708110Y4980558D01*
X10708110Y4980558D02*
X10631919Y4942462D01*
X10631919Y4942462D02*
X10403348Y4942462D01*
X10403348Y4942462D02*
X10327157Y4980558D01*
X10327157Y4980558D02*
X10289062Y5018653D01*
X11279539Y5742462D02*
X11355729Y5742462D01*
X11355729Y5742462D02*
X11431920Y5704367D01*
X11431920Y5704367D02*
X11470015Y5666272D01*
X11470015Y5666272D02*
X11508110Y5590081D01*
X11508110Y5590081D02*
X11546205Y5437700D01*
X11546205Y5437700D02*
X11546205Y5247224D01*
X11546205Y5247224D02*
X11508110Y5094843D01*
X11508110Y5094843D02*
X11470015Y5018653D01*
X11470015Y5018653D02*
X11431920Y4980558D01*
X11431920Y4980558D02*
X11355729Y4942462D01*
X11355729Y4942462D02*
X11279539Y4942462D01*
X11279539Y4942462D02*
X11203348Y4980558D01*
X11203348Y4980558D02*
X11165253Y5018653D01*
X11165253Y5018653D02*
X11127158Y5094843D01*
X11127158Y5094843D02*
X11089062Y5247224D01*
X11089062Y5247224D02*
X11089062Y5437700D01*
X11089062Y5437700D02*
X11127158Y5590081D01*
X11127158Y5590081D02*
X11165253Y5666272D01*
X11165253Y5666272D02*
X11203348Y5704367D01*
X11203348Y5704367D02*
X11279539Y5742462D01*
X10022396Y-597082D02*
X9755729Y-216129D01*
X9565253Y-597082D02*
X9565253Y202917D01*
X9565253Y202917D02*
X9870015Y202917D01*
X9870015Y202917D02*
X9946205Y164822D01*
X9946205Y164822D02*
X9984300Y126727D01*
X9984300Y126727D02*
X10022396Y50536D01*
X10022396Y50536D02*
X10022396Y-63748D01*
X10022396Y-63748D02*
X9984300Y-139939D01*
X9984300Y-139939D02*
X9946205Y-178034D01*
X9946205Y-178034D02*
X9870015Y-216129D01*
X9870015Y-216129D02*
X9565253Y-216129D01*
X10289062Y202917D02*
X10784300Y202917D01*
X10784300Y202917D02*
X10517634Y-101844D01*
X10517634Y-101844D02*
X10631919Y-101844D01*
X10631919Y-101844D02*
X10708110Y-139939D01*
X10708110Y-139939D02*
X10746205Y-178034D01*
X10746205Y-178034D02*
X10784300Y-254225D01*
X10784300Y-254225D02*
X10784300Y-444701D01*
X10784300Y-444701D02*
X10746205Y-520891D01*
X10746205Y-520891D02*
X10708110Y-558987D01*
X10708110Y-558987D02*
X10631919Y-597082D01*
X10631919Y-597082D02*
X10403348Y-597082D01*
X10403348Y-597082D02*
X10327157Y-558987D01*
X10327157Y-558987D02*
X10289062Y-520891D01*
X11546205Y-597082D02*
X11089062Y-597082D01*
X11317634Y-597082D02*
X11317634Y202917D01*
X11317634Y202917D02*
X11241443Y88632D01*
X11241443Y88632D02*
X11165253Y12441D01*
X11165253Y12441D02*
X11089062Y-25653D01*
X12955461Y1839335D02*
X12917365Y1801240D01*
X12917365Y1801240D02*
X12803080Y1763144D01*
X12803080Y1763144D02*
X12726889Y1763144D01*
X12726889Y1763144D02*
X12612603Y1801240D01*
X12612603Y1801240D02*
X12536413Y1877430D01*
X12536413Y1877430D02*
X12498318Y1953620D01*
X12498318Y1953620D02*
X12460222Y2106001D01*
X12460222Y2106001D02*
X12460222Y2220287D01*
X12460222Y2220287D02*
X12498318Y2372668D01*
X12498318Y2372668D02*
X12536413Y2448859D01*
X12536413Y2448859D02*
X12612603Y2525049D01*
X12612603Y2525049D02*
X12726889Y2563144D01*
X12726889Y2563144D02*
X12803080Y2563144D01*
X12803080Y2563144D02*
X12917365Y2525049D01*
X12917365Y2525049D02*
X12955461Y2486954D01*
X13260222Y2486954D02*
X13298318Y2525049D01*
X13298318Y2525049D02*
X13374508Y2563144D01*
X13374508Y2563144D02*
X13564984Y2563144D01*
X13564984Y2563144D02*
X13641175Y2525049D01*
X13641175Y2525049D02*
X13679270Y2486954D01*
X13679270Y2486954D02*
X13717365Y2410763D01*
X13717365Y2410763D02*
X13717365Y2334573D01*
X13717365Y2334573D02*
X13679270Y2220287D01*
X13679270Y2220287D02*
X13222127Y1763144D01*
X13222127Y1763144D02*
X13717365Y1763144D01*
X14441175Y2563144D02*
X14060223Y2563144D01*
X14060223Y2563144D02*
X14022127Y2182192D01*
X14022127Y2182192D02*
X14060223Y2220287D01*
X14060223Y2220287D02*
X14136413Y2258382D01*
X14136413Y2258382D02*
X14326889Y2258382D01*
X14326889Y2258382D02*
X14403080Y2220287D01*
X14403080Y2220287D02*
X14441175Y2182192D01*
X14441175Y2182192D02*
X14479270Y2106001D01*
X14479270Y2106001D02*
X14479270Y1915525D01*
X14479270Y1915525D02*
X14441175Y1839335D01*
X14441175Y1839335D02*
X14403080Y1801240D01*
X14403080Y1801240D02*
X14326889Y1763144D01*
X14326889Y1763144D02*
X14136413Y1763144D01*
X14136413Y1763144D02*
X14060223Y1801240D01*
X14060223Y1801240D02*
X14022127Y1839335D01*
X10014649Y-2160664D02*
X9976553Y-2198760D01*
X9976553Y-2198760D02*
X9862268Y-2236855D01*
X9862268Y-2236855D02*
X9786077Y-2236855D01*
X9786077Y-2236855D02*
X9671791Y-2198760D01*
X9671791Y-2198760D02*
X9595601Y-2122569D01*
X9595601Y-2122569D02*
X9557506Y-2046379D01*
X9557506Y-2046379D02*
X9519410Y-1893998D01*
X9519410Y-1893998D02*
X9519410Y-1779712D01*
X9519410Y-1779712D02*
X9557506Y-1627331D01*
X9557506Y-1627331D02*
X9595601Y-1551140D01*
X9595601Y-1551140D02*
X9671791Y-1474950D01*
X9671791Y-1474950D02*
X9786077Y-1436855D01*
X9786077Y-1436855D02*
X9862268Y-1436855D01*
X9862268Y-1436855D02*
X9976553Y-1474950D01*
X9976553Y-1474950D02*
X10014649Y-1513045D01*
X10319410Y-1513045D02*
X10357506Y-1474950D01*
X10357506Y-1474950D02*
X10433696Y-1436855D01*
X10433696Y-1436855D02*
X10624172Y-1436855D01*
X10624172Y-1436855D02*
X10700363Y-1474950D01*
X10700363Y-1474950D02*
X10738458Y-1513045D01*
X10738458Y-1513045D02*
X10776553Y-1589236D01*
X10776553Y-1589236D02*
X10776553Y-1665426D01*
X10776553Y-1665426D02*
X10738458Y-1779712D01*
X10738458Y-1779712D02*
X10281315Y-2236855D01*
X10281315Y-2236855D02*
X10776553Y-2236855D01*
X11462268Y-1436855D02*
X11309887Y-1436855D01*
X11309887Y-1436855D02*
X11233696Y-1474950D01*
X11233696Y-1474950D02*
X11195601Y-1513045D01*
X11195601Y-1513045D02*
X11119411Y-1627331D01*
X11119411Y-1627331D02*
X11081315Y-1779712D01*
X11081315Y-1779712D02*
X11081315Y-2084474D01*
X11081315Y-2084474D02*
X11119411Y-2160664D01*
X11119411Y-2160664D02*
X11157506Y-2198760D01*
X11157506Y-2198760D02*
X11233696Y-2236855D01*
X11233696Y-2236855D02*
X11386077Y-2236855D01*
X11386077Y-2236855D02*
X11462268Y-2198760D01*
X11462268Y-2198760D02*
X11500363Y-2160664D01*
X11500363Y-2160664D02*
X11538458Y-2084474D01*
X11538458Y-2084474D02*
X11538458Y-1893998D01*
X11538458Y-1893998D02*
X11500363Y-1817807D01*
X11500363Y-1817807D02*
X11462268Y-1779712D01*
X11462268Y-1779712D02*
X11386077Y-1741617D01*
X11386077Y-1741617D02*
X11233696Y-1741617D01*
X11233696Y-1741617D02*
X11157506Y-1779712D01*
X11157506Y-1779712D02*
X11119411Y-1817807D01*
X11119411Y-1817807D02*
X11081315Y-1893998D01*
X12947714Y3403463D02*
X12681047Y3784416D01*
X12490571Y3403463D02*
X12490571Y4203463D01*
X12490571Y4203463D02*
X12795333Y4203463D01*
X12795333Y4203463D02*
X12871523Y4165368D01*
X12871523Y4165368D02*
X12909618Y4127273D01*
X12909618Y4127273D02*
X12947714Y4051082D01*
X12947714Y4051082D02*
X12947714Y3936797D01*
X12947714Y3936797D02*
X12909618Y3860606D01*
X12909618Y3860606D02*
X12871523Y3822511D01*
X12871523Y3822511D02*
X12795333Y3784416D01*
X12795333Y3784416D02*
X12490571Y3784416D01*
X13214380Y4203463D02*
X13709618Y4203463D01*
X13709618Y4203463D02*
X13442952Y3898701D01*
X13442952Y3898701D02*
X13557237Y3898701D01*
X13557237Y3898701D02*
X13633428Y3860606D01*
X13633428Y3860606D02*
X13671523Y3822511D01*
X13671523Y3822511D02*
X13709618Y3746320D01*
X13709618Y3746320D02*
X13709618Y3555844D01*
X13709618Y3555844D02*
X13671523Y3479654D01*
X13671523Y3479654D02*
X13633428Y3441559D01*
X13633428Y3441559D02*
X13557237Y3403463D01*
X13557237Y3403463D02*
X13328666Y3403463D01*
X13328666Y3403463D02*
X13252475Y3441559D01*
X13252475Y3441559D02*
X13214380Y3479654D01*
X14014380Y4127273D02*
X14052476Y4165368D01*
X14052476Y4165368D02*
X14128666Y4203463D01*
X14128666Y4203463D02*
X14319142Y4203463D01*
X14319142Y4203463D02*
X14395333Y4165368D01*
X14395333Y4165368D02*
X14433428Y4127273D01*
X14433428Y4127273D02*
X14471523Y4051082D01*
X14471523Y4051082D02*
X14471523Y3974892D01*
X14471523Y3974892D02*
X14433428Y3860606D01*
X14433428Y3860606D02*
X13976285Y3403463D01*
X13976285Y3403463D02*
X14471523Y3403463D01*
X12955461Y173288D02*
X12917365Y135193D01*
X12917365Y135193D02*
X12803080Y97097D01*
X12803080Y97097D02*
X12726889Y97097D01*
X12726889Y97097D02*
X12612603Y135193D01*
X12612603Y135193D02*
X12536413Y211383D01*
X12536413Y211383D02*
X12498318Y287573D01*
X12498318Y287573D02*
X12460222Y439954D01*
X12460222Y439954D02*
X12460222Y554240D01*
X12460222Y554240D02*
X12498318Y706621D01*
X12498318Y706621D02*
X12536413Y782812D01*
X12536413Y782812D02*
X12612603Y859002D01*
X12612603Y859002D02*
X12726889Y897097D01*
X12726889Y897097D02*
X12803080Y897097D01*
X12803080Y897097D02*
X12917365Y859002D01*
X12917365Y859002D02*
X12955461Y820907D01*
X13260222Y820907D02*
X13298318Y859002D01*
X13298318Y859002D02*
X13374508Y897097D01*
X13374508Y897097D02*
X13564984Y897097D01*
X13564984Y897097D02*
X13641175Y859002D01*
X13641175Y859002D02*
X13679270Y820907D01*
X13679270Y820907D02*
X13717365Y744716D01*
X13717365Y744716D02*
X13717365Y668526D01*
X13717365Y668526D02*
X13679270Y554240D01*
X13679270Y554240D02*
X13222127Y97097D01*
X13222127Y97097D02*
X13717365Y97097D01*
X13984032Y897097D02*
X14517366Y897097D01*
X14517366Y897097D02*
X14174508Y97097D01*
X-19234027Y-10016969D02*
X-18668342Y-9451283D01*
X-18668342Y-9451283D02*
X-18533655Y-9585970D01*
X-18533655Y-9585970D02*
X-18479780Y-9693720D01*
X-18479780Y-9693720D02*
X-18479780Y-9801469D01*
X-18479780Y-9801469D02*
X-18506718Y-9882282D01*
X-18506718Y-9882282D02*
X-18587530Y-10016969D01*
X-18587530Y-10016969D02*
X-18668342Y-10097781D01*
X-18668342Y-10097781D02*
X-18803029Y-10178593D01*
X-18803029Y-10178593D02*
X-18883841Y-10205530D01*
X-18883841Y-10205530D02*
X-18991591Y-10205530D01*
X-18991591Y-10205530D02*
X-19099340Y-10151656D01*
X-19099340Y-10151656D02*
X-19234027Y-10016969D01*
X-18372031Y-10878965D02*
X-18695279Y-10555717D01*
X-18533655Y-10717341D02*
X-17967970Y-10151656D01*
X-17967970Y-10151656D02*
X-18102657Y-10178593D01*
X-18102657Y-10178593D02*
X-18210406Y-10178593D01*
X-18210406Y-10178593D02*
X-18291218Y-10151656D01*
X-17765144Y11220571D02*
X-18565144Y11220571D01*
X-18565144Y11220571D02*
X-18565144Y11411047D01*
X-18565144Y11411047D02*
X-18527049Y11525333D01*
X-18527049Y11525333D02*
X-18450859Y11601523D01*
X-18450859Y11601523D02*
X-18374668Y11639618D01*
X-18374668Y11639618D02*
X-18222287Y11677714D01*
X-18222287Y11677714D02*
X-18108001Y11677714D01*
X-18108001Y11677714D02*
X-17955620Y11639618D01*
X-17955620Y11639618D02*
X-17879430Y11601523D01*
X-17879430Y11601523D02*
X-17803240Y11525333D01*
X-17803240Y11525333D02*
X-17765144Y11411047D01*
X-17765144Y11411047D02*
X-17765144Y11220571D01*
X-17765144Y12439618D02*
X-17765144Y11982475D01*
X-17765144Y12211047D02*
X-18565144Y12211047D01*
X-18565144Y12211047D02*
X-18450859Y12134856D01*
X-18450859Y12134856D02*
X-18374668Y12058666D01*
X-18374668Y12058666D02*
X-18336573Y11982475D01*
X-18565144Y12934857D02*
X-18565144Y13011047D01*
X-18565144Y13011047D02*
X-18527049Y13087238D01*
X-18527049Y13087238D02*
X-18488954Y13125333D01*
X-18488954Y13125333D02*
X-18412763Y13163428D01*
X-18412763Y13163428D02*
X-18260382Y13201523D01*
X-18260382Y13201523D02*
X-18069906Y13201523D01*
X-18069906Y13201523D02*
X-17917525Y13163428D01*
X-17917525Y13163428D02*
X-17841335Y13125333D01*
X-17841335Y13125333D02*
X-17803240Y13087238D01*
X-17803240Y13087238D02*
X-17765144Y13011047D01*
X-17765144Y13011047D02*
X-17765144Y12934857D01*
X-17765144Y12934857D02*
X-17803240Y12858666D01*
X-17803240Y12858666D02*
X-17841335Y12820571D01*
X-17841335Y12820571D02*
X-17917525Y12782476D01*
X-17917525Y12782476D02*
X-18069906Y12744380D01*
X-18069906Y12744380D02*
X-18260382Y12744380D01*
X-18260382Y12744380D02*
X-18412763Y12782476D01*
X-18412763Y12782476D02*
X-18488954Y12820571D01*
X-18488954Y12820571D02*
X-18527049Y12858666D01*
X-18527049Y12858666D02*
X-18565144Y12934857D01*
X10839524Y2716144D02*
X10839524Y3516144D01*
X10839524Y3516144D02*
X11030000Y3516144D01*
X11030000Y3516144D02*
X11144286Y3478049D01*
X11144286Y3478049D02*
X11220476Y3401859D01*
X11220476Y3401859D02*
X11258571Y3325668D01*
X11258571Y3325668D02*
X11296667Y3173287D01*
X11296667Y3173287D02*
X11296667Y3059001D01*
X11296667Y3059001D02*
X11258571Y2906620D01*
X11258571Y2906620D02*
X11220476Y2830430D01*
X11220476Y2830430D02*
X11144286Y2754240D01*
X11144286Y2754240D02*
X11030000Y2716144D01*
X11030000Y2716144D02*
X10839524Y2716144D01*
X11563333Y3516144D02*
X12058571Y3516144D01*
X12058571Y3516144D02*
X11791905Y3211382D01*
X11791905Y3211382D02*
X11906190Y3211382D01*
X11906190Y3211382D02*
X11982381Y3173287D01*
X11982381Y3173287D02*
X12020476Y3135192D01*
X12020476Y3135192D02*
X12058571Y3059001D01*
X12058571Y3059001D02*
X12058571Y2868525D01*
X12058571Y2868525D02*
X12020476Y2792335D01*
X12020476Y2792335D02*
X11982381Y2754240D01*
X11982381Y2754240D02*
X11906190Y2716144D01*
X11906190Y2716144D02*
X11677619Y2716144D01*
X11677619Y2716144D02*
X11601428Y2754240D01*
X11601428Y2754240D02*
X11563333Y2792335D01*
X6364855Y-209475D02*
X5564855Y-209475D01*
X5564855Y-209475D02*
X5564855Y-18999D01*
X5564855Y-18999D02*
X5602950Y95286D01*
X5602950Y95286D02*
X5679140Y171476D01*
X5679140Y171476D02*
X5755331Y209571D01*
X5755331Y209571D02*
X5907712Y247667D01*
X5907712Y247667D02*
X6021998Y247667D01*
X6021998Y247667D02*
X6174379Y209571D01*
X6174379Y209571D02*
X6250569Y171476D01*
X6250569Y171476D02*
X6326760Y95286D01*
X6326760Y95286D02*
X6364855Y-18999D01*
X6364855Y-18999D02*
X6364855Y-209475D01*
X5564855Y971476D02*
X5564855Y590524D01*
X5564855Y590524D02*
X5945807Y552428D01*
X5945807Y552428D02*
X5907712Y590524D01*
X5907712Y590524D02*
X5869617Y666714D01*
X5869617Y666714D02*
X5869617Y857190D01*
X5869617Y857190D02*
X5907712Y933381D01*
X5907712Y933381D02*
X5945807Y971476D01*
X5945807Y971476D02*
X6021998Y1009571D01*
X6021998Y1009571D02*
X6212474Y1009571D01*
X6212474Y1009571D02*
X6288664Y971476D01*
X6288664Y971476D02*
X6326760Y933381D01*
X6326760Y933381D02*
X6364855Y857190D01*
X6364855Y857190D02*
X6364855Y666714D01*
X6364855Y666714D02*
X6326760Y590524D01*
X6326760Y590524D02*
X6288664Y552428D01*
X1538855Y-13214285D02*
X1157902Y-13480952D01*
X1538855Y-13671428D02*
X738855Y-13671428D01*
X738855Y-13671428D02*
X738855Y-13366666D01*
X738855Y-13366666D02*
X776950Y-13290476D01*
X776950Y-13290476D02*
X815045Y-13252381D01*
X815045Y-13252381D02*
X891236Y-13214285D01*
X891236Y-13214285D02*
X1005521Y-13214285D01*
X1005521Y-13214285D02*
X1081712Y-13252381D01*
X1081712Y-13252381D02*
X1119807Y-13290476D01*
X1119807Y-13290476D02*
X1157902Y-13366666D01*
X1157902Y-13366666D02*
X1157902Y-13671428D01*
X1538855Y-12452381D02*
X1538855Y-12909524D01*
X1538855Y-12680952D02*
X738855Y-12680952D01*
X738855Y-12680952D02*
X853140Y-12757143D01*
X853140Y-12757143D02*
X929331Y-12833333D01*
X929331Y-12833333D02*
X967426Y-12909524D01*
X738855Y-11766666D02*
X738855Y-11919047D01*
X738855Y-11919047D02*
X776950Y-11995238D01*
X776950Y-11995238D02*
X815045Y-12033333D01*
X815045Y-12033333D02*
X929331Y-12109523D01*
X929331Y-12109523D02*
X1081712Y-12147619D01*
X1081712Y-12147619D02*
X1386474Y-12147619D01*
X1386474Y-12147619D02*
X1462664Y-12109523D01*
X1462664Y-12109523D02*
X1500760Y-12071428D01*
X1500760Y-12071428D02*
X1538855Y-11995238D01*
X1538855Y-11995238D02*
X1538855Y-11842857D01*
X1538855Y-11842857D02*
X1500760Y-11766666D01*
X1500760Y-11766666D02*
X1462664Y-11728571D01*
X1462664Y-11728571D02*
X1386474Y-11690476D01*
X1386474Y-11690476D02*
X1195998Y-11690476D01*
X1195998Y-11690476D02*
X1119807Y-11728571D01*
X1119807Y-11728571D02*
X1081712Y-11766666D01*
X1081712Y-11766666D02*
X1043617Y-11842857D01*
X1043617Y-11842857D02*
X1043617Y-11995238D01*
X1043617Y-11995238D02*
X1081712Y-12071428D01*
X1081712Y-12071428D02*
X1119807Y-12109523D01*
X1119807Y-12109523D02*
X1195998Y-12147619D01*
X6681855Y-13214285D02*
X6300902Y-13480952D01*
X6681855Y-13671428D02*
X5881855Y-13671428D01*
X5881855Y-13671428D02*
X5881855Y-13366666D01*
X5881855Y-13366666D02*
X5919950Y-13290476D01*
X5919950Y-13290476D02*
X5958045Y-13252381D01*
X5958045Y-13252381D02*
X6034236Y-13214285D01*
X6034236Y-13214285D02*
X6148521Y-13214285D01*
X6148521Y-13214285D02*
X6224712Y-13252381D01*
X6224712Y-13252381D02*
X6262807Y-13290476D01*
X6262807Y-13290476D02*
X6300902Y-13366666D01*
X6300902Y-13366666D02*
X6300902Y-13671428D01*
X6681855Y-12452381D02*
X6681855Y-12909524D01*
X6681855Y-12680952D02*
X5881855Y-12680952D01*
X5881855Y-12680952D02*
X5996140Y-12757143D01*
X5996140Y-12757143D02*
X6072331Y-12833333D01*
X6072331Y-12833333D02*
X6110426Y-12909524D01*
X5881855Y-12185714D02*
X5881855Y-11652380D01*
X5881855Y-11652380D02*
X6681855Y-11995238D01*
X-2500144Y-21183523D02*
X-2500144Y-20726380D01*
X-1700144Y-20954952D02*
X-2500144Y-20954952D01*
X-1700144Y-20040666D02*
X-1700144Y-20497809D01*
X-1700144Y-20269237D02*
X-2500144Y-20269237D01*
X-2500144Y-20269237D02*
X-2385859Y-20345428D01*
X-2385859Y-20345428D02*
X-2309668Y-20421618D01*
X-2309668Y-20421618D02*
X-2271573Y-20497809D01*
X-1420644Y-21183523D02*
X-1420644Y-20726380D01*
X-620644Y-20954952D02*
X-1420644Y-20954952D01*
X-1344454Y-20497809D02*
X-1382549Y-20459713D01*
X-1382549Y-20459713D02*
X-1420644Y-20383523D01*
X-1420644Y-20383523D02*
X-1420644Y-20193047D01*
X-1420644Y-20193047D02*
X-1382549Y-20116856D01*
X-1382549Y-20116856D02*
X-1344454Y-20078761D01*
X-1344454Y-20078761D02*
X-1268263Y-20040666D01*
X-1268263Y-20040666D02*
X-1192073Y-20040666D01*
X-1192073Y-20040666D02*
X-1077787Y-20078761D01*
X-1077787Y-20078761D02*
X-620644Y-20535904D01*
X-620644Y-20535904D02*
X-620644Y-20040666D01*
X-341144Y-21183523D02*
X-341144Y-20726380D01*
X458855Y-20954952D02*
X-341144Y-20954952D01*
X-341144Y-20078761D02*
X-341144Y-20459713D01*
X-341144Y-20459713D02*
X39807Y-20497809D01*
X39807Y-20497809D02*
X1712Y-20459713D01*
X1712Y-20459713D02*
X-36382Y-20383523D01*
X-36382Y-20383523D02*
X-36382Y-20193047D01*
X-36382Y-20193047D02*
X1712Y-20116856D01*
X1712Y-20116856D02*
X39807Y-20078761D01*
X39807Y-20078761D02*
X115998Y-20040666D01*
X115998Y-20040666D02*
X306474Y-20040666D01*
X306474Y-20040666D02*
X382664Y-20078761D01*
X382664Y-20078761D02*
X420760Y-20116856D01*
X420760Y-20116856D02*
X458855Y-20193047D01*
X458855Y-20193047D02*
X458855Y-20383523D01*
X458855Y-20383523D02*
X420760Y-20459713D01*
X420760Y-20459713D02*
X382664Y-20497809D01*
X4840855Y3346524D02*
X4040855Y3346524D01*
X4040855Y3346524D02*
X4040855Y3537000D01*
X4040855Y3537000D02*
X4078950Y3651286D01*
X4078950Y3651286D02*
X4155140Y3727476D01*
X4155140Y3727476D02*
X4231331Y3765571D01*
X4231331Y3765571D02*
X4383712Y3803667D01*
X4383712Y3803667D02*
X4497998Y3803667D01*
X4497998Y3803667D02*
X4650379Y3765571D01*
X4650379Y3765571D02*
X4726569Y3727476D01*
X4726569Y3727476D02*
X4802760Y3651286D01*
X4802760Y3651286D02*
X4840855Y3537000D01*
X4840855Y3537000D02*
X4840855Y3346524D01*
X4307521Y4489381D02*
X4840855Y4489381D01*
X4002760Y4298905D02*
X4574188Y4108428D01*
X4574188Y4108428D02*
X4574188Y4603667D01*
X2241714Y-21667855D02*
X2241714Y-20867855D01*
X2241714Y-20867855D02*
X2698857Y-21667855D01*
X2698857Y-21667855D02*
X2698857Y-20867855D01*
X2965523Y-20867855D02*
X3422666Y-20867855D01*
X3194094Y-21667855D02*
X3194094Y-20867855D01*
X4146476Y-21591664D02*
X4108380Y-21629760D01*
X4108380Y-21629760D02*
X3994095Y-21667855D01*
X3994095Y-21667855D02*
X3917904Y-21667855D01*
X3917904Y-21667855D02*
X3803618Y-21629760D01*
X3803618Y-21629760D02*
X3727428Y-21553569D01*
X3727428Y-21553569D02*
X3689333Y-21477379D01*
X3689333Y-21477379D02*
X3651237Y-21324998D01*
X3651237Y-21324998D02*
X3651237Y-21210712D01*
X3651237Y-21210712D02*
X3689333Y-21058331D01*
X3689333Y-21058331D02*
X3727428Y-20982140D01*
X3727428Y-20982140D02*
X3803618Y-20905950D01*
X3803618Y-20905950D02*
X3917904Y-20867855D01*
X3917904Y-20867855D02*
X3994095Y-20867855D01*
X3994095Y-20867855D02*
X4108380Y-20905950D01*
X4108380Y-20905950D02*
X4146476Y-20944045D01*
X4908380Y-21667855D02*
X4451237Y-21667855D01*
X4679809Y-21667855D02*
X4679809Y-20867855D01*
X4679809Y-20867855D02*
X4603618Y-20982140D01*
X4603618Y-20982140D02*
X4527428Y-21058331D01*
X4527428Y-21058331D02*
X4451237Y-21096426D01*
X6051714Y21194144D02*
X6051714Y21994144D01*
X6051714Y21994144D02*
X6508857Y21194144D01*
X6508857Y21194144D02*
X6508857Y21994144D01*
X6775523Y21994144D02*
X7232666Y21994144D01*
X7004094Y21194144D02*
X7004094Y21994144D01*
X7956476Y21270335D02*
X7918380Y21232240D01*
X7918380Y21232240D02*
X7804095Y21194144D01*
X7804095Y21194144D02*
X7727904Y21194144D01*
X7727904Y21194144D02*
X7613618Y21232240D01*
X7613618Y21232240D02*
X7537428Y21308430D01*
X7537428Y21308430D02*
X7499333Y21384620D01*
X7499333Y21384620D02*
X7461237Y21537001D01*
X7461237Y21537001D02*
X7461237Y21651287D01*
X7461237Y21651287D02*
X7499333Y21803668D01*
X7499333Y21803668D02*
X7537428Y21879859D01*
X7537428Y21879859D02*
X7613618Y21956049D01*
X7613618Y21956049D02*
X7727904Y21994144D01*
X7727904Y21994144D02*
X7804095Y21994144D01*
X7804095Y21994144D02*
X7918380Y21956049D01*
X7918380Y21956049D02*
X7956476Y21917954D01*
X8261237Y21917954D02*
X8299333Y21956049D01*
X8299333Y21956049D02*
X8375523Y21994144D01*
X8375523Y21994144D02*
X8565999Y21994144D01*
X8565999Y21994144D02*
X8642190Y21956049D01*
X8642190Y21956049D02*
X8680285Y21917954D01*
X8680285Y21917954D02*
X8718380Y21841763D01*
X8718380Y21841763D02*
X8718380Y21765573D01*
X8718380Y21765573D02*
X8680285Y21651287D01*
X8680285Y21651287D02*
X8223142Y21194144D01*
X8223142Y21194144D02*
X8718380Y21194144D01*
X-1390475Y2436144D02*
X-1390475Y1788525D01*
X-1390475Y1788525D02*
X-1352380Y1712335D01*
X-1352380Y1712335D02*
X-1314285Y1674240D01*
X-1314285Y1674240D02*
X-1238094Y1636144D01*
X-1238094Y1636144D02*
X-1085713Y1636144D01*
X-1085713Y1636144D02*
X-1009523Y1674240D01*
X-1009523Y1674240D02*
X-971428Y1712335D01*
X-971428Y1712335D02*
X-933332Y1788525D01*
X-933332Y1788525D02*
X-933332Y2436144D01*
X-590476Y1674240D02*
X-476190Y1636144D01*
X-476190Y1636144D02*
X-285714Y1636144D01*
X-285714Y1636144D02*
X-209523Y1674240D01*
X-209523Y1674240D02*
X-171428Y1712335D01*
X-171428Y1712335D02*
X-133333Y1788525D01*
X-133333Y1788525D02*
X-133333Y1864716D01*
X-133333Y1864716D02*
X-171428Y1940906D01*
X-171428Y1940906D02*
X-209523Y1979001D01*
X-209523Y1979001D02*
X-285714Y2017097D01*
X-285714Y2017097D02*
X-438095Y2055192D01*
X-438095Y2055192D02*
X-514285Y2093287D01*
X-514285Y2093287D02*
X-552380Y2131382D01*
X-552380Y2131382D02*
X-590476Y2207573D01*
X-590476Y2207573D02*
X-590476Y2283763D01*
X-590476Y2283763D02*
X-552380Y2359954D01*
X-552380Y2359954D02*
X-514285Y2398049D01*
X-514285Y2398049D02*
X-438095Y2436144D01*
X-438095Y2436144D02*
X-247618Y2436144D01*
X-247618Y2436144D02*
X-133333Y2398049D01*
X476190Y2055192D02*
X590476Y2017097D01*
X590476Y2017097D02*
X628571Y1979001D01*
X628571Y1979001D02*
X666667Y1902811D01*
X666667Y1902811D02*
X666667Y1788525D01*
X666667Y1788525D02*
X628571Y1712335D01*
X628571Y1712335D02*
X590476Y1674240D01*
X590476Y1674240D02*
X514286Y1636144D01*
X514286Y1636144D02*
X209524Y1636144D01*
X209524Y1636144D02*
X209524Y2436144D01*
X209524Y2436144D02*
X476190Y2436144D01*
X476190Y2436144D02*
X552381Y2398049D01*
X552381Y2398049D02*
X590476Y2359954D01*
X590476Y2359954D02*
X628571Y2283763D01*
X628571Y2283763D02*
X628571Y2207573D01*
X628571Y2207573D02*
X590476Y2131382D01*
X590476Y2131382D02*
X552381Y2093287D01*
X552381Y2093287D02*
X476190Y2055192D01*
X476190Y2055192D02*
X209524Y2055192D01*
X1428571Y1636144D02*
X971428Y1636144D01*
X1200000Y1636144D02*
X1200000Y2436144D01*
X1200000Y2436144D02*
X1123809Y2321859D01*
X1123809Y2321859D02*
X1047619Y2245668D01*
X1047619Y2245668D02*
X971428Y2207573D01*
X1833333Y-18944808D02*
X1566667Y-18944808D01*
X1566667Y-19363856D02*
X1566667Y-18563856D01*
X1566667Y-18563856D02*
X1947619Y-18563856D01*
X2252381Y-19363856D02*
X2252381Y-18563856D01*
X2252381Y-18563856D02*
X2442857Y-18563856D01*
X2442857Y-18563856D02*
X2557143Y-18601951D01*
X2557143Y-18601951D02*
X2633333Y-18678141D01*
X2633333Y-18678141D02*
X2671428Y-18754332D01*
X2671428Y-18754332D02*
X2709524Y-18906713D01*
X2709524Y-18906713D02*
X2709524Y-19020999D01*
X2709524Y-19020999D02*
X2671428Y-19173380D01*
X2671428Y-19173380D02*
X2633333Y-19249570D01*
X2633333Y-19249570D02*
X2557143Y-19325761D01*
X2557143Y-19325761D02*
X2442857Y-19363856D01*
X2442857Y-19363856D02*
X2252381Y-19363856D01*
X3395238Y-18830522D02*
X3395238Y-19363856D01*
X3204762Y-18525761D02*
X3014285Y-19097189D01*
X3014285Y-19097189D02*
X3509524Y-19097189D01*
X-666691Y14355167D02*
X-933357Y14355167D01*
X-933357Y13936119D02*
X-933357Y14736119D01*
X-933357Y14736119D02*
X-552405Y14736119D01*
X-247643Y13936119D02*
X-247643Y14736119D01*
X-247643Y14736119D02*
X-57167Y14736119D01*
X-57167Y14736119D02*
X57118Y14698024D01*
X57118Y14698024D02*
X133308Y14621834D01*
X133308Y14621834D02*
X171403Y14545643D01*
X171403Y14545643D02*
X209499Y14393262D01*
X209499Y14393262D02*
X209499Y14278976D01*
X209499Y14278976D02*
X171403Y14126595D01*
X171403Y14126595D02*
X133308Y14050405D01*
X133308Y14050405D02*
X57118Y13974215D01*
X57118Y13974215D02*
X-57167Y13936119D01*
X-57167Y13936119D02*
X-247643Y13936119D01*
X971403Y13936119D02*
X514260Y13936119D01*
X742832Y13936119D02*
X742832Y14736119D01*
X742832Y14736119D02*
X666641Y14621834D01*
X666641Y14621834D02*
X590451Y14545643D01*
X590451Y14545643D02*
X514260Y14507548D01*
X19833333Y4055193D02*
X19566667Y4055193D01*
X19566667Y3636145D02*
X19566667Y4436145D01*
X19566667Y4436145D02*
X19947619Y4436145D01*
X20252381Y3636145D02*
X20252381Y4436145D01*
X20252381Y4436145D02*
X20442857Y4436145D01*
X20442857Y4436145D02*
X20557143Y4398050D01*
X20557143Y4398050D02*
X20633333Y4321860D01*
X20633333Y4321860D02*
X20671428Y4245669D01*
X20671428Y4245669D02*
X20709524Y4093288D01*
X20709524Y4093288D02*
X20709524Y3979002D01*
X20709524Y3979002D02*
X20671428Y3826621D01*
X20671428Y3826621D02*
X20633333Y3750431D01*
X20633333Y3750431D02*
X20557143Y3674241D01*
X20557143Y3674241D02*
X20442857Y3636145D01*
X20442857Y3636145D02*
X20252381Y3636145D01*
X21014285Y4359955D02*
X21052381Y4398050D01*
X21052381Y4398050D02*
X21128571Y4436145D01*
X21128571Y4436145D02*
X21319047Y4436145D01*
X21319047Y4436145D02*
X21395238Y4398050D01*
X21395238Y4398050D02*
X21433333Y4359955D01*
X21433333Y4359955D02*
X21471428Y4283764D01*
X21471428Y4283764D02*
X21471428Y4207574D01*
X21471428Y4207574D02*
X21433333Y4093288D01*
X21433333Y4093288D02*
X20976190Y3636145D01*
X20976190Y3636145D02*
X21471428Y3636145D01*
X-21166666Y4555192D02*
X-21433332Y4555192D01*
X-21433332Y4136144D02*
X-21433332Y4936144D01*
X-21433332Y4936144D02*
X-21052380Y4936144D01*
X-20747618Y4136144D02*
X-20747618Y4936144D01*
X-20747618Y4936144D02*
X-20557142Y4936144D01*
X-20557142Y4936144D02*
X-20442856Y4898049D01*
X-20442856Y4898049D02*
X-20366666Y4821859D01*
X-20366666Y4821859D02*
X-20328571Y4745668D01*
X-20328571Y4745668D02*
X-20290475Y4593287D01*
X-20290475Y4593287D02*
X-20290475Y4479001D01*
X-20290475Y4479001D02*
X-20328571Y4326620D01*
X-20328571Y4326620D02*
X-20366666Y4250430D01*
X-20366666Y4250430D02*
X-20442856Y4174240D01*
X-20442856Y4174240D02*
X-20557142Y4136144D01*
X-20557142Y4136144D02*
X-20747618Y4136144D01*
X-20023809Y4936144D02*
X-19528571Y4936144D01*
X-19528571Y4936144D02*
X-19795237Y4631382D01*
X-19795237Y4631382D02*
X-19680952Y4631382D01*
X-19680952Y4631382D02*
X-19604761Y4593287D01*
X-19604761Y4593287D02*
X-19566666Y4555192D01*
X-19566666Y4555192D02*
X-19528571Y4479001D01*
X-19528571Y4479001D02*
X-19528571Y4288525D01*
X-19528571Y4288525D02*
X-19566666Y4212335D01*
X-19566666Y4212335D02*
X-19604761Y4174240D01*
X-19604761Y4174240D02*
X-19680952Y4136144D01*
X-19680952Y4136144D02*
X-19909523Y4136144D01*
X-19909523Y4136144D02*
X-19985714Y4174240D01*
X-19985714Y4174240D02*
X-20023809Y4212335D01*
X-13701144Y6343714D02*
X-14082097Y6077047D01*
X-13701144Y5886571D02*
X-14501144Y5886571D01*
X-14501144Y5886571D02*
X-14501144Y6191333D01*
X-14501144Y6191333D02*
X-14463049Y6267523D01*
X-14463049Y6267523D02*
X-14424954Y6305618D01*
X-14424954Y6305618D02*
X-14348763Y6343714D01*
X-14348763Y6343714D02*
X-14234478Y6343714D01*
X-14234478Y6343714D02*
X-14158287Y6305618D01*
X-14158287Y6305618D02*
X-14120192Y6267523D01*
X-14120192Y6267523D02*
X-14082097Y6191333D01*
X-14082097Y6191333D02*
X-14082097Y5886571D01*
X-14501144Y6610380D02*
X-14501144Y7105618D01*
X-14501144Y7105618D02*
X-14196382Y6838952D01*
X-14196382Y6838952D02*
X-14196382Y6953237D01*
X-14196382Y6953237D02*
X-14158287Y7029428D01*
X-14158287Y7029428D02*
X-14120192Y7067523D01*
X-14120192Y7067523D02*
X-14044001Y7105618D01*
X-14044001Y7105618D02*
X-13853525Y7105618D01*
X-13853525Y7105618D02*
X-13777335Y7067523D01*
X-13777335Y7067523D02*
X-13739240Y7029428D01*
X-13739240Y7029428D02*
X-13701144Y6953237D01*
X-13701144Y6953237D02*
X-13701144Y6724666D01*
X-13701144Y6724666D02*
X-13739240Y6648475D01*
X-13739240Y6648475D02*
X-13777335Y6610380D01*
X-14501144Y7829428D02*
X-14501144Y7448476D01*
X-14501144Y7448476D02*
X-14120192Y7410380D01*
X-14120192Y7410380D02*
X-14158287Y7448476D01*
X-14158287Y7448476D02*
X-14196382Y7524666D01*
X-14196382Y7524666D02*
X-14196382Y7715142D01*
X-14196382Y7715142D02*
X-14158287Y7791333D01*
X-14158287Y7791333D02*
X-14120192Y7829428D01*
X-14120192Y7829428D02*
X-14044001Y7867523D01*
X-14044001Y7867523D02*
X-13853525Y7867523D01*
X-13853525Y7867523D02*
X-13777335Y7829428D01*
X-13777335Y7829428D02*
X-13739240Y7791333D01*
X-13739240Y7791333D02*
X-13701144Y7715142D01*
X-13701144Y7715142D02*
X-13701144Y7524666D01*
X-13701144Y7524666D02*
X-13739240Y7448476D01*
X-13739240Y7448476D02*
X-13777335Y7410380D01*
M02*
