%TF.GenerationSoftware,KiCad,Pcbnew,10.99.0-unknown*%
%TF.CreationDate,2026-08-12T15:31:14+08:00*%
%TF.ProjectId,_____4.0(____),ef504535-9d34-42e3-9028-26e0bf45292e,rev?*%
%TF.SameCoordinates,Original*%
%TF.FileFunction,Legend,Bot*%
%TF.FilePolarity,Positive*%
%FSLAX46Y46*%
G04 Gerber Fmt 4.6, Leading zero omitted, Abs format (unit mm)*
G04 Created by KiCad (PCBNEW 10.99.0-unknown) date 2026-08-12 15:31:14*
%MOMM*%
%LPD*%
G01*
G04 APERTURE LIST*
%ADD10C,0.203200*%
%ADD11C,0.254000*%
%ADD12C,0.120000*%
G04 APERTURE END LIST*
D10*
X-6242567Y-22224857D02*
X-6242567Y-19939143D01*
X-5099709Y-21082000D02*
X-7385424Y-21082000D01*
X4826142Y-21570433D02*
X7111857Y-21570433D01*
D11*
X8285408Y14856184D02*
X8285408Y11760946D01*
X8285408Y12237137D02*
X5666360Y12237137D01*
X5666360Y12237137D02*
X5666360Y12951422D01*
X6261598Y14499041D02*
X7571122Y14499041D01*
X7571122Y14499041D02*
X7571122Y13070470D01*
X7571122Y13070470D02*
X6499693Y13070470D01*
X6499693Y13070470D02*
X6499693Y14499041D01*
X7094931Y10808565D02*
X7094931Y8189518D01*
X8166360Y10689518D02*
X7094931Y10808565D01*
X8166360Y10689518D02*
X8285408Y9618089D01*
X6618741Y10451423D02*
X5904455Y11165708D01*
X5666360Y10094280D02*
X5666360Y9499042D01*
X7928265Y9499042D02*
X5666360Y9499042D01*
X6618741Y8784756D02*
X5904455Y8070470D01*
X8404455Y8546661D02*
X8285408Y9618089D01*
X8047312Y7475232D02*
X8047312Y4379994D01*
X7094931Y7118089D02*
X7213979Y4856185D01*
X8047312Y6403804D02*
X7094931Y6760947D01*
X8523503Y5927613D02*
X8047312Y5927613D01*
X5666360Y5451423D02*
X5666360Y4499042D01*
X6975884Y5451423D02*
X5666360Y5451423D01*
X7452074Y4975232D02*
X6975884Y4618089D01*
X6261598Y4379994D02*
X5666360Y4499042D01*
X6975884Y6403804D02*
X6142550Y6522851D01*
X6142550Y6522851D02*
X5904455Y6879994D01*
X5904455Y6879994D02*
X5666360Y7475232D01*
X6499693Y3784756D02*
X6499693Y1046661D01*
X7213979Y3784756D02*
X7213979Y1046661D01*
X5666360Y2356185D02*
X5666360Y808566D01*
X8523503Y2356185D02*
X5666360Y2356185D01*
X6261598Y689518D02*
X5666360Y808566D01*
X6380646Y3784756D02*
X8047312Y3784756D01*
X8047312Y3784756D02*
X8047312Y1046661D01*
X8047312Y1046661D02*
X6380646Y1046661D01*
X5666360Y94280D02*
X5666360Y-3000957D01*
X8047312Y-24766D02*
X7571122Y-24766D01*
X7333027Y-262862D02*
X7333027Y-2643814D01*
X6618741Y-381909D02*
X6618741Y-2524766D01*
X7333027Y-1453338D02*
X5666360Y-1453338D01*
X8523503Y-1453338D02*
X8047312Y-1453338D01*
X6261598Y-2048576D02*
X5904455Y-2405719D01*
X8047312Y-24766D02*
X8047312Y-2881909D01*
X8047312Y-2881909D02*
X7571122Y-2881909D01*
X7333027Y-5024766D02*
X5666360Y-5024766D01*
X8285408Y-4429528D02*
X6499693Y-3834290D01*
X6499693Y-3834290D02*
X6499693Y-5381909D01*
X5904455Y-6334290D02*
X5785408Y-6453337D01*
X5785408Y-6453337D02*
X5666360Y-6334290D01*
X5666360Y-6334290D02*
X5785408Y-6215242D01*
X5785408Y-6215242D02*
X5904455Y-6334290D01*
X5904455Y-6334290D02*
X5666360Y-6334290D01*
X8166360Y-8000956D02*
X8166360Y-8239051D01*
X8166360Y-8239051D02*
X8047312Y-8477147D01*
X8047312Y-8477147D02*
X7928265Y-8596194D01*
X7928265Y-8596194D02*
X7690169Y-8715242D01*
X7690169Y-8715242D02*
X7213979Y-8834289D01*
X7213979Y-8834289D02*
X6618741Y-8834289D01*
X6618741Y-8834289D02*
X6142550Y-8715242D01*
X6142550Y-8715242D02*
X5904455Y-8596194D01*
X5904455Y-8596194D02*
X5785408Y-8477147D01*
X5785408Y-8477147D02*
X5666360Y-8239051D01*
X5666360Y-8239051D02*
X5666360Y-8000956D01*
X5666360Y-8000956D02*
X5785408Y-7762861D01*
X5785408Y-7762861D02*
X5904455Y-7643813D01*
X5904455Y-7643813D02*
X6142550Y-7524766D01*
X6142550Y-7524766D02*
X6618741Y-7405718D01*
X6618741Y-7405718D02*
X7213979Y-7405718D01*
X7213979Y-7405718D02*
X7690169Y-7524766D01*
X7690169Y-7524766D02*
X7928265Y-7643813D01*
X7928265Y-7643813D02*
X8047312Y-7762861D01*
X8047312Y-7762861D02*
X8166360Y-8000956D01*
X-8032863Y12572295D02*
X-7913815Y12691343D01*
X-7913815Y12691343D02*
X-7794768Y12929438D01*
X-7794768Y12929438D02*
X-7794768Y13167533D01*
X-7794768Y13167533D02*
X-7913815Y13405629D01*
X-7913815Y13405629D02*
X-8032863Y13524676D01*
X-8032863Y13524676D02*
X-8270958Y13643724D01*
X-8270958Y13643724D02*
X-8509053Y13643724D01*
X-8509053Y13643724D02*
X-8747149Y13524676D01*
X-8747149Y13524676D02*
X-8866196Y13405629D01*
X-8866196Y13405629D02*
X-8985244Y13167533D01*
X-8985244Y13167533D02*
X-8985244Y12929438D01*
X-8985244Y12929438D02*
X-8866196Y12691343D01*
X-8866196Y12691343D02*
X-8747149Y12572295D01*
X-7794768Y12572295D02*
X-8747149Y12572295D01*
X-8747149Y12572295D02*
X-8866196Y12453248D01*
X-8866196Y12453248D02*
X-8866196Y12334200D01*
X-8866196Y12334200D02*
X-8747149Y12096105D01*
X-8747149Y12096105D02*
X-8509053Y11977057D01*
X-8509053Y11977057D02*
X-7913815Y11977057D01*
X-7913815Y11977057D02*
X-7556672Y12215153D01*
X-7556672Y12215153D02*
X-7318577Y12572295D01*
X-7318577Y12572295D02*
X-7199530Y13048486D01*
X-7199530Y13048486D02*
X-7318577Y13524676D01*
X-7318577Y13524676D02*
X-7556672Y13881819D01*
X-7556672Y13881819D02*
X-7913815Y14119914D01*
X-7913815Y14119914D02*
X-8390006Y14238962D01*
X-8390006Y14238962D02*
X-8866196Y14119914D01*
X-8866196Y14119914D02*
X-9223339Y13881819D01*
X-9223339Y13881819D02*
X-9461434Y13524676D01*
X-9461434Y13524676D02*
X-9580482Y13048486D01*
X-9580482Y13048486D02*
X-9461434Y12572295D01*
X-9461434Y12572295D02*
X-9223339Y12215153D01*
X-9223339Y10905628D02*
X-6723339Y10905628D01*
X-6723339Y10905628D02*
X-8509053Y10072295D01*
X-8509053Y10072295D02*
X-6723339Y9238962D01*
X-6723339Y9238962D02*
X-9223339Y9238962D01*
X-6723339Y7334200D02*
X-8509053Y7334200D01*
X-8509053Y7334200D02*
X-8866196Y7453247D01*
X-8866196Y7453247D02*
X-9104292Y7691343D01*
X-9104292Y7691343D02*
X-9223339Y8048485D01*
X-9223339Y8048485D02*
X-9223339Y8286581D01*
X-9223339Y6143723D02*
X-6723339Y6143723D01*
X-9223339Y5072295D02*
X-7913815Y5072295D01*
X-7913815Y5072295D02*
X-7675720Y5191342D01*
X-7675720Y5191342D02*
X-7556672Y5429438D01*
X-7556672Y5429438D02*
X-7556672Y5786581D01*
X-7556672Y5786581D02*
X-7675720Y6024676D01*
X-7675720Y6024676D02*
X-7794768Y6143723D01*
X-9223339Y2810390D02*
X-7913815Y2810390D01*
X-7913815Y2810390D02*
X-7675720Y2929437D01*
X-7675720Y2929437D02*
X-7556672Y3167533D01*
X-7556672Y3167533D02*
X-7556672Y3643723D01*
X-7556672Y3643723D02*
X-7675720Y3881818D01*
X-9104292Y2810390D02*
X-9223339Y3048485D01*
X-9223339Y3048485D02*
X-9223339Y3643723D01*
X-9223339Y3643723D02*
X-9104292Y3881818D01*
X-9104292Y3881818D02*
X-8866196Y4000866D01*
X-8866196Y4000866D02*
X-8628101Y4000866D01*
X-8628101Y4000866D02*
X-8390006Y3881818D01*
X-8390006Y3881818D02*
X-8270958Y3643723D01*
X-8270958Y3643723D02*
X-8270958Y3048485D01*
X-8270958Y3048485D02*
X-8151911Y2810390D01*
X-7556672Y1619913D02*
X-9223339Y1619913D01*
X-7794768Y1619913D02*
X-7675720Y1500866D01*
X-7675720Y1500866D02*
X-7556672Y1262771D01*
X-7556672Y1262771D02*
X-7556672Y905628D01*
X-7556672Y905628D02*
X-7675720Y667532D01*
X-7675720Y667532D02*
X-7913815Y548485D01*
X-7913815Y548485D02*
X-9223339Y548485D01*
X17628736Y7117547D02*
X17747784Y7236595D01*
X17747784Y7236595D02*
X17866831Y7474690D01*
X17866831Y7474690D02*
X17866831Y7712785D01*
X17866831Y7712785D02*
X17747784Y7950881D01*
X17747784Y7950881D02*
X17628736Y8069928D01*
X17628736Y8069928D02*
X17390641Y8188976D01*
X17390641Y8188976D02*
X17152546Y8188976D01*
X17152546Y8188976D02*
X16914450Y8069928D01*
X16914450Y8069928D02*
X16795403Y7950881D01*
X16795403Y7950881D02*
X16676355Y7712785D01*
X16676355Y7712785D02*
X16676355Y7474690D01*
X16676355Y7474690D02*
X16795403Y7236595D01*
X16795403Y7236595D02*
X16914450Y7117547D01*
X17866831Y7117547D02*
X16914450Y7117547D01*
X16914450Y7117547D02*
X16795403Y6998500D01*
X16795403Y6998500D02*
X16795403Y6879452D01*
X16795403Y6879452D02*
X16914450Y6641357D01*
X16914450Y6641357D02*
X17152546Y6522309D01*
X17152546Y6522309D02*
X17747784Y6522309D01*
X17747784Y6522309D02*
X18104927Y6760405D01*
X18104927Y6760405D02*
X18343022Y7117547D01*
X18343022Y7117547D02*
X18462069Y7593738D01*
X18462069Y7593738D02*
X18343022Y8069928D01*
X18343022Y8069928D02*
X18104927Y8427071D01*
X18104927Y8427071D02*
X17747784Y8665166D01*
X17747784Y8665166D02*
X17271593Y8784214D01*
X17271593Y8784214D02*
X16795403Y8665166D01*
X16795403Y8665166D02*
X16438260Y8427071D01*
X16438260Y8427071D02*
X16200165Y8069928D01*
X16200165Y8069928D02*
X16081117Y7593738D01*
X16081117Y7593738D02*
X16200165Y7117547D01*
X16200165Y7117547D02*
X16438260Y6760405D01*
X17152546Y5569928D02*
X17152546Y4379452D01*
X16438260Y5808023D02*
X18938260Y4974690D01*
X18938260Y4974690D02*
X16438260Y4141357D01*
X18104927Y2236595D02*
X16438260Y2236595D01*
X18104927Y3308023D02*
X16795403Y3308023D01*
X16795403Y3308023D02*
X16557308Y3188976D01*
X16557308Y3188976D02*
X16438260Y2950881D01*
X16438260Y2950881D02*
X16438260Y2593738D01*
X16438260Y2593738D02*
X16557308Y2355642D01*
X16557308Y2355642D02*
X16676355Y2236595D01*
X18104927Y1403261D02*
X18104927Y450880D01*
X18938260Y1046118D02*
X16795403Y1046118D01*
X16795403Y1046118D02*
X16557308Y927071D01*
X16557308Y927071D02*
X16438260Y688976D01*
X16438260Y688976D02*
X16438260Y450880D01*
X16438260Y-739594D02*
X16557308Y-501499D01*
X16557308Y-501499D02*
X16676355Y-382452D01*
X16676355Y-382452D02*
X16914450Y-263404D01*
X16914450Y-263404D02*
X17628736Y-263404D01*
X17628736Y-263404D02*
X17866831Y-382452D01*
X17866831Y-382452D02*
X17985879Y-501499D01*
X17985879Y-501499D02*
X18104927Y-739594D01*
X18104927Y-739594D02*
X18104927Y-1096737D01*
X18104927Y-1096737D02*
X17985879Y-1334833D01*
X17985879Y-1334833D02*
X17866831Y-1453880D01*
X17866831Y-1453880D02*
X17628736Y-1572928D01*
X17628736Y-1572928D02*
X16914450Y-1572928D01*
X16914450Y-1572928D02*
X16676355Y-1453880D01*
X16676355Y-1453880D02*
X16557308Y-1334833D01*
X16557308Y-1334833D02*
X16438260Y-1096737D01*
X16438260Y-1096737D02*
X16438260Y-739594D01*
X18938260Y-2287214D02*
X18938260Y-3715785D01*
X16438260Y-3001499D02*
X18938260Y-3001499D01*
X18104927Y-4311023D02*
X16438260Y-4906261D01*
X18104927Y-5501500D02*
X16438260Y-4906261D01*
X16438260Y-4906261D02*
X15843022Y-4668166D01*
X15843022Y-4668166D02*
X15723974Y-4549119D01*
X15723974Y-4549119D02*
X15604927Y-4311023D01*
X18104927Y-6453881D02*
X15604927Y-6453881D01*
X17985879Y-6453881D02*
X18104927Y-6691976D01*
X18104927Y-6691976D02*
X18104927Y-7168166D01*
X18104927Y-7168166D02*
X17985879Y-7406262D01*
X17985879Y-7406262D02*
X17866831Y-7525309D01*
X17866831Y-7525309D02*
X17628736Y-7644357D01*
X17628736Y-7644357D02*
X16914450Y-7644357D01*
X16914450Y-7644357D02*
X16676355Y-7525309D01*
X16676355Y-7525309D02*
X16557308Y-7406262D01*
X16557308Y-7406262D02*
X16438260Y-7168166D01*
X16438260Y-7168166D02*
X16438260Y-6691976D01*
X16438260Y-6691976D02*
X16557308Y-6453881D01*
X16557308Y-9668167D02*
X16438260Y-9430071D01*
X16438260Y-9430071D02*
X16438260Y-8953881D01*
X16438260Y-8953881D02*
X16557308Y-8715786D01*
X16557308Y-8715786D02*
X16795403Y-8596738D01*
X16795403Y-8596738D02*
X17747784Y-8596738D01*
X17747784Y-8596738D02*
X17985879Y-8715786D01*
X17985879Y-8715786D02*
X18104927Y-8953881D01*
X18104927Y-8953881D02*
X18104927Y-9430071D01*
X18104927Y-9430071D02*
X17985879Y-9668167D01*
X17985879Y-9668167D02*
X17747784Y-9787214D01*
X17747784Y-9787214D02*
X17509688Y-9787214D01*
X17509688Y-9787214D02*
X17271593Y-8596738D01*
D12*
X-14300277Y-13572968D02*
X-14354152Y-13572968D01*
X-14354152Y-13572968D02*
X-14461902Y-13519093D01*
X-14461902Y-13519093D02*
X-14515776Y-13465219D01*
X-14515776Y-13465219D02*
X-14569651Y-13357469D01*
X-14569651Y-13357469D02*
X-14569651Y-13249719D01*
X-14569651Y-13249719D02*
X-14542714Y-13168907D01*
X-14542714Y-13168907D02*
X-14461902Y-13034220D01*
X-14461902Y-13034220D02*
X-14381089Y-12953408D01*
X-14381089Y-12953408D02*
X-14246402Y-12872596D01*
X-14246402Y-12872596D02*
X-14165590Y-12845658D01*
X-14165590Y-12845658D02*
X-14057841Y-12845658D01*
X-14057841Y-12845658D02*
X-13950091Y-12899533D01*
X-13950091Y-12899533D02*
X-13896216Y-12953408D01*
X-13896216Y-12953408D02*
X-13842341Y-13061157D01*
X-13842341Y-13061157D02*
X-13842341Y-13115032D01*
X-13815404Y-14165591D02*
X-14138653Y-13842342D01*
X-13977028Y-14003967D02*
X-13411343Y-13438281D01*
X-13411343Y-13438281D02*
X-13546030Y-13465219D01*
X-13546030Y-13465219D02*
X-13653780Y-13465219D01*
X-13653780Y-13465219D02*
X-13734592Y-13438281D01*
X-13088094Y-13869280D02*
X-13034219Y-13869280D01*
X-13034219Y-13869280D02*
X-12953407Y-13896217D01*
X-12953407Y-13896217D02*
X-12818720Y-14030904D01*
X-12818720Y-14030904D02*
X-12791783Y-14111716D01*
X-12791783Y-14111716D02*
X-12791783Y-14165591D01*
X-12791783Y-14165591D02*
X-12818720Y-14246403D01*
X-12818720Y-14246403D02*
X-12872595Y-14300278D01*
X-12872595Y-14300278D02*
X-12980344Y-14354153D01*
X-12980344Y-14354153D02*
X-13626842Y-14354153D01*
X-13626842Y-14354153D02*
X-13276656Y-14704339D01*
X-4805982Y-13851759D02*
X-4859857Y-13851759D01*
X-4859857Y-13851759D02*
X-4967607Y-13797884D01*
X-4967607Y-13797884D02*
X-5021481Y-13744010D01*
X-5021481Y-13744010D02*
X-5075356Y-13636260D01*
X-5075356Y-13636260D02*
X-5075356Y-13528510D01*
X-5075356Y-13528510D02*
X-5048419Y-13447698D01*
X-5048419Y-13447698D02*
X-4967607Y-13313011D01*
X-4967607Y-13313011D02*
X-4886794Y-13232199D01*
X-4886794Y-13232199D02*
X-4752107Y-13151387D01*
X-4752107Y-13151387D02*
X-4671295Y-13124449D01*
X-4671295Y-13124449D02*
X-4563546Y-13124449D01*
X-4563546Y-13124449D02*
X-4455796Y-13178324D01*
X-4455796Y-13178324D02*
X-4401921Y-13232199D01*
X-4401921Y-13232199D02*
X-4348046Y-13339948D01*
X-4348046Y-13339948D02*
X-4348046Y-13393823D01*
X-4321109Y-14444382D02*
X-4644358Y-14121133D01*
X-4482733Y-14282758D02*
X-3917048Y-13717072D01*
X-3917048Y-13717072D02*
X-4051735Y-13744010D01*
X-4051735Y-13744010D02*
X-4159485Y-13744010D01*
X-4159485Y-13744010D02*
X-4240297Y-13717072D01*
X-3566862Y-14067258D02*
X-3216675Y-14417445D01*
X-3216675Y-14417445D02*
X-3620736Y-14444382D01*
X-3620736Y-14444382D02*
X-3539924Y-14525194D01*
X-3539924Y-14525194D02*
X-3512987Y-14606007D01*
X-3512987Y-14606007D02*
X-3512987Y-14659881D01*
X-3512987Y-14659881D02*
X-3539924Y-14740694D01*
X-3539924Y-14740694D02*
X-3674611Y-14875381D01*
X-3674611Y-14875381D02*
X-3755423Y-14902318D01*
X-3755423Y-14902318D02*
X-3809298Y-14902318D01*
X-3809298Y-14902318D02*
X-3890110Y-14875381D01*
X-3890110Y-14875381D02*
X-4051735Y-14713756D01*
X-4051735Y-14713756D02*
X-4078672Y-14632944D01*
X-4078672Y-14632944D02*
X-4078672Y-14579069D01*
X-2489278Y-11540968D02*
X-2543153Y-11540968D01*
X-2543153Y-11540968D02*
X-2650903Y-11487093D01*
X-2650903Y-11487093D02*
X-2704777Y-11433219D01*
X-2704777Y-11433219D02*
X-2758652Y-11325469D01*
X-2758652Y-11325469D02*
X-2758652Y-11217719D01*
X-2758652Y-11217719D02*
X-2731715Y-11136907D01*
X-2731715Y-11136907D02*
X-2650903Y-11002220D01*
X-2650903Y-11002220D02*
X-2570090Y-10921408D01*
X-2570090Y-10921408D02*
X-2435403Y-10840596D01*
X-2435403Y-10840596D02*
X-2354591Y-10813658D01*
X-2354591Y-10813658D02*
X-2246842Y-10813658D01*
X-2246842Y-10813658D02*
X-2139092Y-10867533D01*
X-2139092Y-10867533D02*
X-2085217Y-10921408D01*
X-2085217Y-10921408D02*
X-2031342Y-11029157D01*
X-2031342Y-11029157D02*
X-2031342Y-11083032D01*
X-2004405Y-12133591D02*
X-2327654Y-11810342D01*
X-2166029Y-11971967D02*
X-1600344Y-11406281D01*
X-1600344Y-11406281D02*
X-1735031Y-11433219D01*
X-1735031Y-11433219D02*
X-1842781Y-11433219D01*
X-1842781Y-11433219D02*
X-1923593Y-11406281D01*
X-1142408Y-12241341D02*
X-1519532Y-12618464D01*
X-1061596Y-11891155D02*
X-1600344Y-12160529D01*
X-1600344Y-12160529D02*
X-1250158Y-12510715D01*
X-6081797Y-13347263D02*
X-6081797Y-13401138D01*
X-6081797Y-13401138D02*
X-6135672Y-13508887D01*
X-6135672Y-13508887D02*
X-6189547Y-13562762D01*
X-6189547Y-13562762D02*
X-6297297Y-13616637D01*
X-6297297Y-13616637D02*
X-6405046Y-13616637D01*
X-6405046Y-13616637D02*
X-6485858Y-13589699D01*
X-6485858Y-13589699D02*
X-6620545Y-13508887D01*
X-6620545Y-13508887D02*
X-6701358Y-13428075D01*
X-6701358Y-13428075D02*
X-6782170Y-13293388D01*
X-6782170Y-13293388D02*
X-6809107Y-13212576D01*
X-6809107Y-13212576D02*
X-6809107Y-13104826D01*
X-6809107Y-13104826D02*
X-6755232Y-12997077D01*
X-6755232Y-12997077D02*
X-6701358Y-12943202D01*
X-6701358Y-12943202D02*
X-6593608Y-12889327D01*
X-6593608Y-12889327D02*
X-6539733Y-12889327D01*
X-5920173Y-12539141D02*
X-5543049Y-12916264D01*
X-6270359Y-12458329D02*
X-6000985Y-12997077D01*
X-6000985Y-12997077D02*
X-5650799Y-12646890D01*
X-7488704Y-11940357D02*
X-7488704Y-11994232D01*
X-7488704Y-11994232D02*
X-7542579Y-12101981D01*
X-7542579Y-12101981D02*
X-7596454Y-12155856D01*
X-7596454Y-12155856D02*
X-7704204Y-12209731D01*
X-7704204Y-12209731D02*
X-7811953Y-12209731D01*
X-7811953Y-12209731D02*
X-7892765Y-12182793D01*
X-7892765Y-12182793D02*
X-8027452Y-12101981D01*
X-8027452Y-12101981D02*
X-8108265Y-12021169D01*
X-8108265Y-12021169D02*
X-8189077Y-11886482D01*
X-8189077Y-11886482D02*
X-8216014Y-11805670D01*
X-8216014Y-11805670D02*
X-8216014Y-11697920D01*
X-8216014Y-11697920D02*
X-8162139Y-11590171D01*
X-8162139Y-11590171D02*
X-8108265Y-11536296D01*
X-8108265Y-11536296D02*
X-8000515Y-11482421D01*
X-8000515Y-11482421D02*
X-7946640Y-11482421D01*
X-7488704Y-10916736D02*
X-7758078Y-11186110D01*
X-7758078Y-11186110D02*
X-7515642Y-11482421D01*
X-7515642Y-11482421D02*
X-7515642Y-11428546D01*
X-7515642Y-11428546D02*
X-7488704Y-11347734D01*
X-7488704Y-11347734D02*
X-7354017Y-11213047D01*
X-7354017Y-11213047D02*
X-7273205Y-11186110D01*
X-7273205Y-11186110D02*
X-7219330Y-11186110D01*
X-7219330Y-11186110D02*
X-7138518Y-11213047D01*
X-7138518Y-11213047D02*
X-7003831Y-11347734D01*
X-7003831Y-11347734D02*
X-6976894Y-11428546D01*
X-6976894Y-11428546D02*
X-6976894Y-11482421D01*
X-6976894Y-11482421D02*
X-7003831Y-11563233D01*
X-7003831Y-11563233D02*
X-7138518Y-11697920D01*
X-7138518Y-11697920D02*
X-7219330Y-11724858D01*
X-7219330Y-11724858D02*
X-7273205Y-11724858D01*
X-8895609Y-10533451D02*
X-8895609Y-10587326D01*
X-8895609Y-10587326D02*
X-8949484Y-10695075D01*
X-8949484Y-10695075D02*
X-9003359Y-10748950D01*
X-9003359Y-10748950D02*
X-9111109Y-10802825D01*
X-9111109Y-10802825D02*
X-9218858Y-10802825D01*
X-9218858Y-10802825D02*
X-9299670Y-10775887D01*
X-9299670Y-10775887D02*
X-9434357Y-10695075D01*
X-9434357Y-10695075D02*
X-9515170Y-10614263D01*
X-9515170Y-10614263D02*
X-9595982Y-10479576D01*
X-9595982Y-10479576D02*
X-9622919Y-10398764D01*
X-9622919Y-10398764D02*
X-9622919Y-10291014D01*
X-9622919Y-10291014D02*
X-9569044Y-10183265D01*
X-9569044Y-10183265D02*
X-9515170Y-10129390D01*
X-9515170Y-10129390D02*
X-9407420Y-10075515D01*
X-9407420Y-10075515D02*
X-9353545Y-10075515D01*
X-8922547Y-9536767D02*
X-9030296Y-9644517D01*
X-9030296Y-9644517D02*
X-9057234Y-9725329D01*
X-9057234Y-9725329D02*
X-9057234Y-9779204D01*
X-9057234Y-9779204D02*
X-9030296Y-9913891D01*
X-9030296Y-9913891D02*
X-8949484Y-10048578D01*
X-8949484Y-10048578D02*
X-8733985Y-10264077D01*
X-8733985Y-10264077D02*
X-8653173Y-10291014D01*
X-8653173Y-10291014D02*
X-8599298Y-10291014D01*
X-8599298Y-10291014D02*
X-8518486Y-10264077D01*
X-8518486Y-10264077D02*
X-8410736Y-10156327D01*
X-8410736Y-10156327D02*
X-8383799Y-10075515D01*
X-8383799Y-10075515D02*
X-8383799Y-10021640D01*
X-8383799Y-10021640D02*
X-8410736Y-9940828D01*
X-8410736Y-9940828D02*
X-8545423Y-9806141D01*
X-8545423Y-9806141D02*
X-8626235Y-9779204D01*
X-8626235Y-9779204D02*
X-8680110Y-9779204D01*
X-8680110Y-9779204D02*
X-8760922Y-9806141D01*
X-8760922Y-9806141D02*
X-8868672Y-9913891D01*
X-8868672Y-9913891D02*
X-8895609Y-9994703D01*
X-8895609Y-9994703D02*
X-8895609Y-10048578D01*
X-8895609Y-10048578D02*
X-8868672Y-10129390D01*
X-10302516Y-9126545D02*
X-10302516Y-9180420D01*
X-10302516Y-9180420D02*
X-10356391Y-9288169D01*
X-10356391Y-9288169D02*
X-10410266Y-9342044D01*
X-10410266Y-9342044D02*
X-10518016Y-9395919D01*
X-10518016Y-9395919D02*
X-10625765Y-9395919D01*
X-10625765Y-9395919D02*
X-10706577Y-9368981D01*
X-10706577Y-9368981D02*
X-10841264Y-9288169D01*
X-10841264Y-9288169D02*
X-10922077Y-9207357D01*
X-10922077Y-9207357D02*
X-11002889Y-9072670D01*
X-11002889Y-9072670D02*
X-11029826Y-8991858D01*
X-11029826Y-8991858D02*
X-11029826Y-8884108D01*
X-11029826Y-8884108D02*
X-10975951Y-8776359D01*
X-10975951Y-8776359D02*
X-10922077Y-8722484D01*
X-10922077Y-8722484D02*
X-10814327Y-8668609D01*
X-10814327Y-8668609D02*
X-10760452Y-8668609D01*
X-10625765Y-8426172D02*
X-10248642Y-8049049D01*
X-10248642Y-8049049D02*
X-9925393Y-8857171D01*
X-540748Y-10125271D02*
X-594623Y-10125271D01*
X-594623Y-10125271D02*
X-702372Y-10071396D01*
X-702372Y-10071396D02*
X-756247Y-10017521D01*
X-756247Y-10017521D02*
X-810122Y-9909771D01*
X-810122Y-9909771D02*
X-810122Y-9802022D01*
X-810122Y-9802022D02*
X-783184Y-9721210D01*
X-783184Y-9721210D02*
X-702372Y-9586523D01*
X-702372Y-9586523D02*
X-621560Y-9505710D01*
X-621560Y-9505710D02*
X-486873Y-9424898D01*
X-486873Y-9424898D02*
X-406061Y-9397961D01*
X-406061Y-9397961D02*
X-298311Y-9397961D01*
X-298311Y-9397961D02*
X-190562Y-9451836D01*
X-190562Y-9451836D02*
X-136687Y-9505710D01*
X-136687Y-9505710D02*
X-82812Y-9613460D01*
X-82812Y-9613460D02*
X-82812Y-9667335D01*
X-55875Y-10717893D02*
X-379123Y-10394645D01*
X-217499Y-10556269D02*
X348185Y-9990584D01*
X348185Y-9990584D02*
X213498Y-10017521D01*
X213498Y-10017521D02*
X105749Y-10017521D01*
X105749Y-10017521D02*
X24937Y-9990584D01*
M02*
