%TF.GenerationSoftware,KiCad,Pcbnew,10.99.0-unknown*%
%TF.CreationDate,2026-08-12T15:31:14+08:00*%
%TF.ProjectId,_____4.0(____),ef504535-9d34-42e3-9028-26e0bf45292e,rev?*%
%TF.SameCoordinates,Original*%
%TF.FileFunction,Paste,Top*%
%TF.FilePolarity,Positive*%
%FSLAX46Y46*%
G04 Gerber Fmt 4.6, Leading zero omitted, Abs format (unit mm)*
G04 Created by KiCad (PCBNEW 10.99.0-unknown) date 2026-08-12 15:31:14*
%MOMM*%
%LPD*%
G01*
G04 APERTURE LIST*
G04 Aperture macros list*
%AMRoundRect*
0 Rectangle with rounded corners*
0 $1 Rounding radius*
0 $2 $3 $4 $5 $6 $7 $8 $9 X,Y pos of 4 corners*
0 Add a 4 corners polygon primitive as box body*
4,1,4,$2,$3,$4,$5,$6,$7,$8,$9,$2,$3,0*
0 Add four circle primitives for the rounded corners*
1,1,$1+$1,$2,$3*
1,1,$1+$1,$4,$5*
1,1,$1+$1,$6,$7*
1,1,$1+$1,$8,$9*
0 Add four rect primitives between the rounded corners*
20,1,$1+$1,$2,$3,$4,$5,0*
20,1,$1+$1,$4,$5,$6,$7,0*
20,1,$1+$1,$6,$7,$8,$9,0*
20,1,$1+$1,$8,$9,$2,$3,0*%
G04 Aperture macros list end*
%ADD10C,0.750000*%
%ADD11RoundRect,0.225000X-0.225000X-0.275000X0.225000X-0.275000X0.225000X0.275000X-0.225000X0.275000X0*%
%ADD12RoundRect,0.225000X-0.225000X-0.275000X0.225000X-0.275000X0.225000X0.275000X-0.225000X0.275000X0*%
%ADD13RoundRect,0.105000X0.345000X-0.105000X0.345000X0.105000X-0.345000X0.105000X-0.345000X-0.105000X0*%
%ADD14RoundRect,0.105000X-0.105000X-0.345000X0.105000X-0.345000X0.105000X0.345000X-0.105000X0.345000X0*%
%ADD15C,1.200000*%
%ADD16RoundRect,0.105000X-0.105000X-0.345000X0.105000X-0.345000X0.105000X0.345000X-0.105000X0.345000X0*%
G04 APERTURE END LIST*
D10*
%TO.C,K1*%
X1320000Y12286518D03*
X660000Y11143318D03*
X-660000Y11143318D03*
X-1320000Y12286518D03*
X-660000Y13429718D03*
X660000Y13429718D03*
%TD*%
D11*
%TO.C,L1*%
X-11443025Y-14464975D03*
X-12432975Y-13475025D03*
%TD*%
%TO.C,R9*%
X-4826000Y7809000D03*
X-4826000Y9209000D03*
%TD*%
%TO.C,R2*%
X4510000Y-18034000D03*
X3110000Y-18034000D03*
%TD*%
D12*
%TO.C,R4*%
X6666000Y17653000D03*
X8066000Y17653000D03*
%TD*%
D11*
%TO.C,C3*%
X-12954000Y-1335000D03*
X-12954000Y65000D03*
%TD*%
%TO.C,C8*%
X-2739452Y-12070042D03*
X-4139452Y-12070042D03*
%TD*%
%TO.C,C9*%
X-2739452Y-13763376D03*
X-4139452Y-13763376D03*
%TD*%
%TO.C,C10*%
X-2739452Y-15456708D03*
X-4139452Y-15456708D03*
%TD*%
%TO.C,C11*%
X-2739452Y-17150042D03*
X-4139452Y-17150042D03*
%TD*%
D10*
%TO.C,RN1*%
X3302000Y-11412000D03*
X2057500Y-10896500D03*
X1542000Y-9652000D03*
X2057500Y-8407500D03*
X3302000Y-7892000D03*
X4546500Y-8407500D03*
X5062000Y-9652000D03*
X4546500Y-10896500D03*
%TD*%
D12*
%TO.C,LED1*%
X-700000Y-6000001D03*
X700000Y-6000001D03*
%TD*%
%TO.C,LED3*%
X-700000Y-10200000D03*
X700000Y-10200000D03*
%TD*%
D11*
%TO.C,LED2*%
X700000Y-8099999D03*
X-700000Y-8099999D03*
%TD*%
%TO.C,LED4*%
X700000Y-12300001D03*
X-700000Y-12300001D03*
%TD*%
D10*
%TO.C,LED5*%
X1000000Y-14399999D03*
X0Y-15399999D03*
X-1000000Y-14399999D03*
X0Y-13399999D03*
%TD*%
D12*
%TO.C,R1*%
X4445000Y10606000D03*
X4445000Y9206000D03*
%TD*%
D10*
%TO.C,+1*%
X-7707048Y-18287733D03*
X-7031363Y-19390337D03*
X-7871169Y-20373604D03*
X-9065930Y-19878717D03*
X-8964489Y-18589610D03*
%TD*%
%TO.C,-1*%
X8294952Y-20447267D03*
X7037511Y-20145390D03*
X6936070Y-18856283D03*
X8130831Y-18361396D03*
X8970637Y-19344663D03*
%TD*%
D12*
%TO.C,D2*%
X2540000Y-4634000D03*
X2540000Y-6034000D03*
%TD*%
%TO.C,C2*%
X5842000Y-62000D03*
X5842000Y-1462000D03*
%TD*%
D11*
%TO.C,R8*%
X-20193000Y-4891000D03*
X-20193000Y-3491000D03*
%TD*%
%TO.C,R7*%
X-18651639Y-4891000D03*
X-18651639Y-3491000D03*
%TD*%
D13*
%TO.C,U1*%
X-15232563Y-6599348D03*
X-14772944Y-6139728D03*
X-14313324Y-5680109D03*
X-13853705Y-5220489D03*
X-13394085Y-4760870D03*
X-12934466Y-4301251D03*
X-12474846Y-3841631D03*
X-12015227Y-3382012D03*
X-11555608Y-2922392D03*
X-11095988Y-2462773D03*
X-10636369Y-2003154D03*
X-10176749Y-1543534D03*
X-9717130Y-1083915D03*
X-9257511Y-624295D03*
X-8797891Y-164676D03*
X-8338272Y294944D03*
X-7878652Y754563D03*
D14*
X-6853348Y754563D03*
X-6393728Y294944D03*
X-5934109Y-164676D03*
X-5474489Y-624295D03*
X-5014870Y-1083915D03*
X-4555251Y-1543534D03*
X-4095631Y-2003154D03*
X-3636012Y-2462773D03*
X-3176392Y-2922392D03*
X-2716773Y-3382012D03*
X-2257154Y-3841631D03*
X-1797534Y-4301251D03*
X-1337915Y-4760870D03*
X-878295Y-5220489D03*
X-418676Y-5680109D03*
X40944Y-6139728D03*
X500563Y-6599348D03*
D13*
X500563Y-7624652D03*
X40944Y-8084272D03*
X-418676Y-8543891D03*
X-878295Y-9003511D03*
X-1337915Y-9463130D03*
X-1797534Y-9922749D03*
X-2257154Y-10382369D03*
X-2716773Y-10841988D03*
X-3176392Y-11301608D03*
X-3636012Y-11761227D03*
X-4095631Y-12220846D03*
X-4555251Y-12680466D03*
X-5014870Y-13140085D03*
X-5474489Y-13599705D03*
X-5934109Y-14059324D03*
X-6393728Y-14518944D03*
X-6853348Y-14978563D03*
D14*
X-7878652Y-14978563D03*
X-8338272Y-14518944D03*
X-8797891Y-14059324D03*
X-9257511Y-13599705D03*
X-9717130Y-13140085D03*
X-10176749Y-12680466D03*
X-10636369Y-12220846D03*
X-11095988Y-11761227D03*
X-11555608Y-11301608D03*
X-12015227Y-10841988D03*
X-12474846Y-10382369D03*
X-12934466Y-9922749D03*
X-13394085Y-9463130D03*
X-13853705Y-9003511D03*
%TD*%
D10*
%TO.C,W1*%
X15636817Y13954183D03*
X14359570Y13751879D03*
X13772530Y14904039D03*
X14686961Y15818470D03*
X15839121Y15231430D03*
%TD*%
%TO.C,W2*%
X11072873Y16357383D03*
X10625278Y17570621D03*
X11640774Y18371157D03*
X12716030Y17652693D03*
X12365045Y16408146D03*
%TD*%
%TO.C,Q2*%
X-9690497Y4742114D03*
X-11190497Y3876114D03*
X-11190497Y5608114D03*
%TD*%
%TO.C,Q3*%
X-9690497Y8044114D03*
X-11190497Y7178114D03*
X-11190497Y8910114D03*
%TD*%
D11*
%TO.C,C15*%
X-6666000Y9017000D03*
X-8066000Y9017000D03*
%TD*%
%TO.C,R10*%
X-6793000Y5715000D03*
X-8193000Y5715000D03*
%TD*%
%TO.C,R11*%
X-6793000Y7239000D03*
X-8193000Y7239000D03*
%TD*%
D10*
%TO.C,Q4*%
X-14484497Y5631114D03*
X-12984497Y6497114D03*
X-12984497Y4765114D03*
%TD*%
%TO.C,Q5*%
X-14484497Y8933114D03*
X-12984497Y9799114D03*
X-12984497Y8067114D03*
%TD*%
D12*
%TO.C,C16*%
X-17901863Y4601754D03*
X-16501863Y4601754D03*
%TD*%
%TO.C,R3*%
X-17909610Y7906459D03*
X-16509610Y7906459D03*
%TD*%
%TO.C,R5*%
X-17909610Y6306927D03*
X-16509610Y6306927D03*
%TD*%
%TO.C,C22*%
X9841000Y9525000D03*
X11241000Y9525000D03*
%TD*%
D10*
%TO.C,Q6*%
X-778000Y6477000D03*
X-2278000Y5611000D03*
X-2278000Y7343000D03*
%TD*%
%TO.C,N2*%
X-3826000Y13970000D03*
X-5326000Y13104000D03*
X-5326000Y14836000D03*
%TD*%
%TO.C,N1*%
X6933884Y-11130554D03*
X7449384Y-9886054D03*
X8693884Y-9370554D03*
X9938384Y-9886054D03*
X10453884Y-11130554D03*
X9938384Y-12375054D03*
X8693884Y-12890554D03*
X7449384Y-12375054D03*
%TD*%
%TO.C,Q1*%
X12267884Y-11130554D03*
X12783384Y-9886054D03*
X14027884Y-9370554D03*
X15272384Y-9886054D03*
X15787884Y-11130554D03*
X15272384Y-12375054D03*
X14027884Y-12890554D03*
X12783384Y-12375054D03*
%TD*%
%TO.C,N3*%
X-3826000Y16002000D03*
X-5326000Y15136000D03*
X-5326000Y16868000D03*
%TD*%
%TO.C,N4*%
X-14970000Y13462000D03*
X-13470000Y14328000D03*
X-13470000Y12596000D03*
%TD*%
%TO.C,N5*%
X-14970000Y15494000D03*
X-13470000Y16360000D03*
X-13470000Y14628000D03*
%TD*%
%TO.C,N6*%
X-1524000Y2810000D03*
X-2390000Y4310000D03*
X-658000Y4310000D03*
%TD*%
%TO.C,N7*%
X508000Y4810000D03*
X1374000Y3310000D03*
X-358000Y3310000D03*
%TD*%
D12*
%TO.C,R12*%
X-4764000Y5207000D03*
X-3364000Y5207000D03*
%TD*%
%TO.C,R13*%
X-4826000Y12130000D03*
X-4826000Y10730000D03*
%TD*%
%TO.C,R29*%
X-4826000Y19242000D03*
X-4826000Y17842000D03*
%TD*%
%TO.C,R33*%
X-13781000Y11557000D03*
X-12381000Y11557000D03*
%TD*%
%TO.C,C17*%
X-6595039Y14110857D03*
X-6595039Y12710857D03*
%TD*%
%TO.C,C18*%
X-6595039Y17158857D03*
X-6595039Y15758857D03*
%TD*%
%TO.C,C19*%
X-12065000Y14543000D03*
X-12065000Y13143000D03*
%TD*%
%TO.C,C20*%
X-12065000Y17591000D03*
X-12065000Y16191000D03*
%TD*%
D11*
%TO.C,D6*%
X-8373039Y12075857D03*
X-8373039Y13475857D03*
%TD*%
D12*
%TO.C,D7*%
X-8373039Y17920857D03*
X-8373039Y16520857D03*
%TD*%
%TO.C,D8*%
X-10278039Y13475857D03*
X-10278039Y12075857D03*
%TD*%
D11*
%TO.C,D9*%
X-10278039Y16520857D03*
X-10278039Y17920857D03*
%TD*%
%TO.C,R6*%
X-17145000Y-4891000D03*
X-17145000Y-3491000D03*
%TD*%
%TO.C,R34*%
X762000Y5777000D03*
X762000Y7177000D03*
%TD*%
D12*
%TO.C,C21*%
X11238000Y13462000D03*
X12638000Y13462000D03*
%TD*%
%TO.C,R15*%
X-4764000Y3683000D03*
X-3364000Y3683000D03*
%TD*%
D10*
%TO.C,Q7*%
X4175000Y-15494000D03*
X2675000Y-16360000D03*
X2675000Y-14628000D03*
%TD*%
D11*
%TO.C,R14*%
X5588000Y-16194000D03*
X5588000Y-14794000D03*
%TD*%
D12*
%TO.C,R18*%
X15732248Y-6431554D03*
X17132248Y-6431554D03*
%TD*%
D11*
%TO.C,R19*%
X17140884Y-4907554D03*
X15740884Y-4907554D03*
%TD*%
D12*
%TO.C,R20*%
X12716407Y-6431554D03*
X14116407Y-6431554D03*
%TD*%
D11*
%TO.C,R21*%
X11176000Y-6378190D03*
X11176000Y-4978190D03*
%TD*%
D12*
%TO.C,C23*%
X12769747Y-4871143D03*
X14169747Y-4871143D03*
%TD*%
%TO.C,C24*%
X12769747Y-3205096D03*
X14169747Y-3205096D03*
%TD*%
D11*
%TO.C,R22*%
X9779000Y-6378190D03*
X9779000Y-4978190D03*
%TD*%
%TO.C,R23*%
X5907000Y-6799999D03*
X4507000Y-6799999D03*
%TD*%
D12*
%TO.C,R24*%
X4507000Y-4000000D03*
X5907000Y-4000000D03*
%TD*%
D11*
%TO.C,R25*%
X7874000Y-5399000D03*
X7874000Y-3999000D03*
%TD*%
D12*
%TO.C,R26*%
X4507000Y-5399999D03*
X5907000Y-5399999D03*
%TD*%
D11*
%TO.C,R27*%
X8255000Y3618000D03*
X8255000Y5018000D03*
%TD*%
D12*
%TO.C,R28*%
X12762000Y3302000D03*
X14162000Y3302000D03*
%TD*%
%TO.C,R30*%
X9836682Y3306318D03*
X11236682Y3306318D03*
%TD*%
D11*
%TO.C,R31*%
X11236682Y1766773D03*
X9836682Y1766773D03*
%TD*%
D12*
%TO.C,C25*%
X12769747Y127000D03*
X14169747Y127000D03*
%TD*%
D11*
%TO.C,C26*%
X11228935Y127000D03*
X9828935Y127000D03*
%TD*%
D12*
%TO.C,R32*%
X12762000Y1767319D03*
X14162000Y1767319D03*
%TD*%
%TO.C,C27*%
X12769747Y-1539047D03*
X14169747Y-1539047D03*
%TD*%
D11*
%TO.C,D1*%
X-16650025Y-9257975D03*
X-17639975Y-8268025D03*
%TD*%
%TO.C,D10*%
X-16129000Y11492000D03*
X-16129000Y12892000D03*
%TD*%
%TO.C,D3*%
X12130000Y5080000D03*
X10730000Y5080000D03*
%TD*%
%TO.C,D5*%
X8001000Y-319000D03*
X8001000Y1081000D03*
%TD*%
%TO.C,R16*%
X3175000Y-13400000D03*
X3175000Y-12000000D03*
%TD*%
D12*
%TO.C,R17*%
X4318000Y-12000000D03*
X4318000Y-13400000D03*
%TD*%
D15*
%TO.C,T1*%
X-4064000Y-20574000D03*
%TD*%
%TO.C,T2*%
X-2984500Y-20574000D03*
%TD*%
%TO.C,T5*%
X-1905000Y-20574000D03*
%TD*%
D11*
%TO.C,D4*%
X6477000Y3237000D03*
X6477000Y4637000D03*
%TD*%
%TO.C,NTC1*%
X4256000Y-19304000D03*
X2856000Y-19304000D03*
%TD*%
D12*
%TO.C,NTC2*%
X6666000Y19558000D03*
X8066000Y19558000D03*
%TD*%
D13*
%TO.C,USB1*%
X-1600000Y2400000D03*
X-800000Y2400000D03*
X0Y2400000D03*
X800000Y2400000D03*
X1600000Y2400000D03*
D16*
X2400000Y1600000D03*
X2400000Y800000D03*
X2400000Y0D03*
X2400000Y-800000D03*
X2400000Y-1600000D03*
D13*
X1600000Y-2400000D03*
X800000Y-2400000D03*
X0Y-2400000D03*
X-800000Y-2400000D03*
X-1600000Y-2400000D03*
D16*
X-2400000Y-1600000D03*
X-2400000Y-800000D03*
X-2400000Y0D03*
X-2400000Y800000D03*
%TD*%
D11*
%TO.C,R35*%
X-12065000Y6158000D03*
X-12065000Y7558000D03*
%TD*%
M02*
