%TF.GenerationSoftware,KiCad,Pcbnew,10.99.0-unknown*%
%TF.CreationDate,2026-08-12T15:22:24+08:00*%
%TF.ProjectId,100MHz______,3130304d-487a-4d88-9bee-06a2342e6b69,rev?*%
%TF.SameCoordinates,Original*%
%TF.FileFunction,Copper,L3,Inr*%
%TF.FilePolarity,Positive*%
%FSLAX46Y46*%
G04 Gerber Fmt 4.6, Leading zero omitted, Abs format (unit mm)*
G04 Created by KiCad (PCBNEW 10.99.0-unknown) date 2026-08-12 15:22:24*
%MOMM*%
%LPD*%
G01*
G04 APERTURE LIST*
%TA.AperFunction,ViaPad*%
%ADD10C,0.620000*%
%TD*%
%TA.AperFunction,ViaPad*%
%ADD11C,0.610000*%
%TD*%
%TA.AperFunction,ViaPad*%
%ADD12C,0.609600*%
%TD*%
%TA.AperFunction,Conductor*%
%ADD13C,0.500000*%
%TD*%
%TA.AperFunction,Conductor*%
%ADD14C,0.300000*%
%TD*%
%TA.AperFunction,Conductor*%
%ADD15C,0.200000*%
%TD*%
G04 APERTURE END LIST*
D10*
%TO.N,GND*%
X21307000Y6770400D03*
X30099000Y6912100D03*
X21307000Y1150600D03*
X22418300Y1150600D03*
X23529500Y1150600D03*
X21307000Y33853100D03*
X22370800Y33853100D03*
X23434300Y33853100D03*
X30035500Y28194000D03*
X21307000Y28233400D03*
%TO.N,+2.5V*%
X31877000Y3302000D03*
X31877000Y11366500D03*
%TO.N,GND*%
X21307000Y7754600D03*
X21307000Y27249100D03*
X56731400Y18610600D03*
%TO.N,-2.5V*%
X34734500Y30035500D03*
%TO.N,GND*%
X37055100Y32528200D03*
X38720800Y32528300D03*
%TO.N,-2.5V*%
X40195500Y11430000D03*
X43307000Y11430000D03*
X41592500Y11430000D03*
X44704000Y11430000D03*
%TO.N,+2.5V*%
X35496500Y27368500D03*
%TO.N,-2.5V*%
X33528000Y3302000D03*
%TO.N,+2.5V*%
X40132000Y3492500D03*
X41592500Y3492500D03*
X44704000Y3492500D03*
%TO.N,-2.5V*%
X33528000Y11366500D03*
%TO.N,VSS_BIAS*%
X33118000Y30035500D03*
%TO.N,VCC_BIAS*%
X33054500Y26677600D03*
%TO.N,+2.5V*%
X49128400Y20645100D03*
%TO.N,-2.5V*%
X38841700Y24729400D03*
%TO.N,+2.5V*%
X51350900Y19627600D03*
%TO.N,$1N70*%
X52422000Y17025600D03*
%TO.N,+4.5V*%
X58200600Y18676600D03*
%TO.N,SGND*%
X58943500Y28130500D03*
X59896000Y28130500D03*
%TO.N,PGND*%
X67706500Y20137500D03*
%TO.N,SGND*%
X60975500Y20137500D03*
X60975500Y21153500D03*
%TO.N,PGND*%
X67706500Y21153500D03*
%TO.N,SGND*%
X50653500Y28515300D03*
X51811500Y28515300D03*
X54127000Y28515300D03*
X52969300Y28515300D03*
%TO.N,SET_EN*%
X48704600Y5905500D03*
%TO.N,PGND*%
X69993000Y31686000D03*
%TO.N,-2.5V*%
X46799500Y11366500D03*
X48196500Y11366500D03*
X63536500Y12382500D03*
X64933500Y12255500D03*
X68079500Y12644100D03*
%TO.N,PGND*%
X73885000Y17787600D03*
X72831500Y17787600D03*
%TO.N,$1N38*%
X73504000Y21153100D03*
%TO.N,PGND*%
X74583500Y21153100D03*
%TO.N,BAT_CHRG*%
X79791600Y27376100D03*
%TO.N,$1N38*%
X76806000Y25090100D03*
%TO.N,PGND*%
X84480900Y25336500D03*
%TO.N,$1N87*%
X77631500Y18867100D03*
%TO.N,+5V*%
X83981500Y19311600D03*
%TO.N,PGND*%
X84480900Y24074100D03*
%TO.N,-4.5V*%
X84045000Y5849600D03*
%TO.N,$2N13*%
X70067000Y10477100D03*
%TO.N,BAT+*%
X71453500Y32321500D03*
%TO.N,$1N44*%
X74837500Y30043100D03*
%TO.N,BAT+*%
X72279000Y32321500D03*
%TO.N,-2.5V*%
X76374600Y11085800D03*
X71845000Y11120100D03*
X74956500Y11120100D03*
X73245100Y11120100D03*
X83219500Y11628100D03*
%TO.N,SET_EN*%
X84934000Y11628100D03*
%TO.N,+2.5V*%
X71830100Y3545100D03*
X74944600Y3545100D03*
X73233200Y3545100D03*
X76341600Y3545100D03*
%TO.N,SET_EN*%
X82013000Y13215600D03*
%TO.N,$1N29*%
X80835500Y25908000D03*
%TO.N,+5V*%
X76806000Y33595300D03*
X74837500Y33599100D03*
%TO.N,$2N78*%
X88109000Y10675600D03*
%TO.N,GND*%
X91284000Y14231600D03*
%TO.N,$2N78*%
X92046000Y10675600D03*
%TO.N,EGND*%
X94932500Y26225500D03*
%TO.N,$2N93*%
X97218500Y23114000D03*
%TO.N,EGND*%
X94932500Y31623000D03*
%TO.N,+5V*%
X95094000Y18422600D03*
%TO.N,-4.5V*%
X95284500Y13279100D03*
%TO.N,GND*%
X95443300Y7056100D03*
X95443300Y1951000D03*
X97399900Y1951000D03*
X97399900Y7056100D03*
%TO.N,+4.5V*%
X97570500Y9278600D03*
%TO.N,GND*%
X45933400Y28519100D03*
X43185100Y28519100D03*
X44622700Y28519100D03*
%TO.N,+2.5V*%
X46799500Y3619500D03*
X48196500Y3619500D03*
X67270500Y3556000D03*
X64159000Y3556000D03*
X65873500Y3556000D03*
X62762000Y3556000D03*
%TO.N,+5V*%
X68805100Y18041600D03*
X69567000Y18041600D03*
%TO.N,-2.5V*%
X59563000Y10541000D03*
%TO.N,+2.5V*%
X43307000Y3492500D03*
X58229500Y3556000D03*
X59593700Y3552600D03*
D11*
%TO.N,SET_EN*%
X58928000Y5270500D03*
D10*
%TO.N,-2.5V*%
X60960000Y10541000D03*
D11*
%TO.N,EGND*%
X89662000Y27559000D03*
X89662000Y29210000D03*
X89662000Y30797500D03*
%TO.N,VBUS*%
X86169500Y31686500D03*
%TO.N,POWER_IN*%
X87884000Y31686500D03*
%TO.N,VBUS*%
X73469500Y26098500D03*
%TO.N,BAT_CHRG*%
X85087500Y30099100D03*
%TO.N,+5V*%
X83566000Y31496000D03*
X82740500Y31496000D03*
%TO.N,PGND*%
X87884000Y28448000D03*
X87884000Y29273500D03*
%TO.N,VBUS*%
X86169500Y32956500D03*
%TO.N,$1N35*%
X74866500Y26606500D03*
D10*
%TO.N,$1N44*%
X71564500Y30043100D03*
%TO.N,$2N25458*%
X41594000Y18401500D03*
%TO.N,GND*%
X45013200Y14842000D03*
D12*
%TO.N,SET_EN*%
X42812600Y16192500D03*
%TO.N,-2.5V*%
X36639500Y14859000D03*
%TO.N,+2.5V*%
X45008000Y16256000D03*
%TO.N,-2.5V*%
X36639500Y16256000D03*
%TO.N,+4.5V*%
X86804500Y14097000D03*
D10*
X86966000Y12009100D03*
D12*
%TO.N,+2.5V*%
X42449800Y3492500D03*
X65016300Y3556000D03*
%TO.N,-2.5V*%
X74100800Y11120100D03*
%TO.N,+2.5V*%
X74088900Y3545100D03*
%TO.N,VCC_BIAS*%
X33895400Y28891600D03*
%TO.N,-2.5V*%
X66648000Y12255500D03*
X65793400Y12255500D03*
X38841700Y25412900D03*
%TO.N,+2.5V*%
X50144500Y18585000D03*
D10*
%TO.N,GND*%
X47117000Y28519100D03*
%TO.N,$1N8925*%
X47244000Y33210500D03*
%TO.N,$1N8838*%
X47245500Y23953000D03*
D11*
%TO.N,GND*%
X41148000Y24130000D03*
X49339500Y14795500D03*
X50609500Y14795500D03*
%TO.N,+4.5V*%
X45266400Y26160500D03*
X45266400Y23368000D03*
%TO.N,-4.5V*%
X45256200Y30862500D03*
%TD*%
%TO.N,+2.5V*%
D13*
X44315900Y2484100D02*
X47061100Y2484100D01*
X41592200Y3492500D02*
X40393400Y2293600D01*
X43307500Y3492500D02*
X44315900Y2484100D01*
%TO.N,+5V*%
D14*
X83982600Y19311600D02*
X85824100Y17470100D01*
X85824100Y17470100D02*
X90015100Y17470100D01*
%TO.N,+2.5V*%
D13*
X89090500Y2512800D02*
X87090500Y2512800D01*
%TO.N,+4.5V*%
D14*
X89061600Y7041600D02*
X89090500Y7012700D01*
X89090500Y7012900D02*
X90444300Y5659100D01*
%TO.N,+5V*%
X90015100Y17470100D02*
X90967600Y18422600D01*
%TO.N,-4.5V*%
X98270100Y13279100D02*
X95285600Y13279100D01*
%TO.N,+4.5V*%
X98196400Y8651200D02*
X97571600Y9278600D01*
%TO.N,-4.5V*%
X98778100Y12771100D02*
X98270100Y13279100D01*
X98778100Y5976600D02*
X98778100Y12771100D01*
%TO.N,+2.5V*%
D13*
X47061100Y2484100D02*
X48196500Y3619500D01*
X48196500Y3619500D02*
X49339500Y2476500D01*
X57150000Y2476500D02*
X58229500Y3556000D01*
X49339500Y2476500D02*
X57150000Y2476500D01*
X58229500Y3556000D02*
X59309000Y2476500D01*
X63079500Y2476500D02*
X64159000Y3556000D01*
X59309000Y2476500D02*
X63079500Y2476500D01*
X65873500Y3556000D02*
X66953000Y2476500D01*
X72164600Y2476500D02*
X73233200Y3545100D01*
X66953000Y2476500D02*
X72164600Y2476500D01*
X74944600Y3545100D02*
X75977100Y2512600D01*
X75977100Y2512600D02*
X87090500Y2512600D01*
%TO.N,-2.5V*%
X57721500Y12382500D02*
X59563000Y10541000D01*
X48196600Y11366600D02*
X49212500Y12382500D01*
X49212500Y12382500D02*
X57721500Y12382500D01*
X83220600Y11628100D02*
X82839600Y12009100D01*
X82839600Y12009100D02*
X75819000Y12009100D01*
X75819000Y12009100D02*
X74956500Y11146700D01*
X74956500Y11146700D02*
X74956500Y11120100D01*
%TO.N,SET_EN*%
D15*
X58928000Y5270500D02*
X67627500Y5270500D01*
X67627500Y5270500D02*
X67945000Y5588000D01*
%TO.N,+5V*%
D14*
X90967600Y18422600D02*
X95094000Y18422600D01*
D13*
X87566500Y21272500D02*
X94615000Y21272500D01*
X94615000Y21272500D02*
X95094000Y20793500D01*
X95094000Y20793500D02*
X95094000Y18422600D01*
X82740500Y31496000D02*
X83566000Y31496000D01*
%TO.N,$1N44*%
D14*
X71564500Y30043100D02*
X74837500Y30043100D01*
%TO.N,VBUS*%
X72580500Y25209500D02*
X73469500Y26098500D01*
X72961500Y20256500D02*
X72580500Y20637500D01*
X72580500Y20637500D02*
X72580500Y25209500D01*
%TO.N,+5V*%
D13*
X83566000Y31496000D02*
X83566000Y33464500D01*
X83566000Y33464500D02*
X84137500Y34036000D01*
X84137500Y34036000D02*
X86487000Y34036000D01*
X86487000Y34036000D02*
X86995000Y33528000D01*
X86995000Y33528000D02*
X86995000Y21844000D01*
X86995000Y21844000D02*
X87566500Y21272500D01*
%TO.N,VBUS*%
D14*
X86169500Y32956500D02*
X85598000Y32956500D01*
X85598000Y32956500D02*
X85217000Y32575500D01*
X85217000Y32575500D02*
X85217000Y31305500D01*
%TO.N,BAT_CHRG*%
D13*
X85534500Y29652100D02*
X85087500Y30099100D01*
X85534500Y21717000D02*
X85534500Y29652100D01*
X79791600Y27376100D02*
X79791600Y26388100D01*
X79791600Y26388100D02*
X76898500Y23495000D01*
X76898500Y23495000D02*
X76898500Y21590000D01*
X76898500Y21590000D02*
X77470000Y21018500D01*
X77470000Y21018500D02*
X84836000Y21018500D01*
X84836000Y21018500D02*
X85534500Y21717000D01*
%TO.N,VBUS*%
D14*
X85788500Y20256500D02*
X72961500Y20256500D01*
%TO.N,$1N38*%
X73504100Y21153100D02*
X73504100Y24482100D01*
X73504100Y24482100D02*
X74112100Y25090100D01*
X74112100Y25090100D02*
X76806000Y25090100D01*
%TO.N,VBUS*%
X85217000Y31305500D02*
X86233000Y30289500D01*
X86233000Y30289500D02*
X86233000Y20701000D01*
X86233000Y20701000D02*
X85788500Y20256500D01*
%TO.N,$1N44*%
X80700500Y17952500D02*
X80700500Y19248500D01*
X80700500Y19248500D02*
X80327500Y19621500D01*
X80327500Y19621500D02*
X72009000Y19621500D01*
X72009000Y19621500D02*
X71564500Y20066000D01*
X71564500Y20066000D02*
X71564500Y30043100D01*
%TO.N,-4.5V*%
X95285600Y13279100D02*
X84891900Y13279100D01*
X84891900Y13279100D02*
X84010500Y14160500D01*
%TO.N,+4.5V*%
X86169500Y14732000D02*
X86804500Y14097000D01*
%TO.N,SET_EN*%
D15*
X58928000Y5270500D02*
X58928000Y6032500D01*
X58928000Y6032500D02*
X58610500Y6350000D01*
X58610500Y6350000D02*
X50228500Y6350000D01*
X50228500Y6350000D02*
X49784000Y5905500D01*
X49784000Y5905500D02*
X48704600Y5905500D01*
%TO.N,-2.5V*%
D13*
X33591500Y11366500D02*
X33591500Y3365500D01*
X33591500Y3365500D02*
X33528000Y3302000D01*
X33528000Y11366500D02*
X33528000Y15748000D01*
X33528000Y15748000D02*
X34036000Y16256000D01*
X34036000Y16256000D02*
X36639500Y16256000D01*
X36639500Y16256000D02*
X38671500Y16256000D01*
X38671500Y16256000D02*
X39179500Y15748000D01*
X40703500Y10541000D02*
X41592500Y11430000D01*
X39179500Y15748000D02*
X39179500Y10985500D01*
X39179500Y10985500D02*
X39624000Y10541000D01*
X39624000Y10541000D02*
X40703500Y10541000D01*
%TO.N,SET_EN*%
D15*
X48291800Y9810700D02*
X48704600Y9397900D01*
X48704600Y9397900D02*
X48704600Y5905600D01*
X42418000Y10223500D02*
X42830700Y9810700D01*
X42830700Y9810700D02*
X48291800Y9810700D01*
X42418000Y12255500D02*
X42418000Y10223500D01*
%TO.N,-2.5V*%
D13*
X73245100Y11120100D02*
X72427200Y11938000D01*
X69024500Y11938000D02*
X68580000Y11493500D01*
X68580000Y11493500D02*
X67410000Y11493500D01*
X67410000Y11493500D02*
X66648000Y12255500D01*
X73245100Y11120100D02*
X74100800Y11120100D01*
X74100800Y11120100D02*
X74956500Y11120100D01*
X72427200Y11938000D02*
X69024500Y11938000D01*
X65793400Y12255500D02*
X66648000Y12255500D01*
X59563000Y10541000D02*
X60515500Y11493500D01*
X64171500Y11493500D02*
X64933500Y12255500D01*
X60515500Y11493500D02*
X64171500Y11493500D01*
X64933500Y12255500D02*
X65793400Y12255500D01*
%TO.N,+2.5V*%
X40393400Y2293600D02*
X32186900Y2293600D01*
X32186900Y2293600D02*
X31877000Y2603500D01*
X31877000Y2603500D02*
X31877000Y3302000D01*
X35496500Y27368500D02*
X35115500Y27749500D01*
X31877000Y11366500D02*
X31877000Y3302000D01*
X35115500Y27749500D02*
X32639000Y27749500D01*
X32639000Y27749500D02*
X31877000Y26987500D01*
X31877000Y26987500D02*
X31877000Y11366500D01*
%TO.N,SET_EN*%
D15*
X40195500Y15811500D02*
X40195500Y13017500D01*
X40195500Y13017500D02*
X40576500Y12636500D01*
X40576500Y12636500D02*
X42037000Y12636500D01*
X42037000Y12636500D02*
X42418000Y12255500D01*
%TO.N,-2.5V*%
D13*
X38841700Y25412900D02*
X38841700Y24729400D01*
X38813700Y24701500D02*
X38841700Y24729400D01*
X36639500Y24066500D02*
X37274500Y24701500D01*
X37274500Y24701500D02*
X38813700Y24701500D01*
%TO.N,VCC_BIAS*%
D14*
X39116000Y22733000D02*
X39116000Y21272500D01*
%TO.N,+2.5V*%
D13*
X32639000Y27749500D02*
X31686500Y28702000D01*
X31686500Y28702000D02*
X31686500Y32575500D01*
X31686500Y32575500D02*
X32575500Y33464500D01*
%TO.N,SET_EN*%
D15*
X42812600Y16192500D02*
X40576500Y16192500D01*
X40576500Y16192500D02*
X40195500Y15811500D01*
%TO.N,-2.5V*%
D13*
X43815000Y11938000D02*
X43307000Y11430000D01*
X47307500Y12255500D02*
X48196500Y11366500D01*
X43243500Y17462500D02*
X43815000Y16891000D01*
X36639500Y17462500D02*
X43243500Y17462500D01*
X36639500Y17462500D02*
X36639500Y24066500D01*
X36639500Y17462500D02*
X36639500Y16256000D01*
X43815000Y11938000D02*
X43815000Y12128500D01*
X43815000Y12128500D02*
X43942000Y12255500D01*
X43942000Y12255500D02*
X47307500Y12255500D01*
X43815000Y16891000D02*
X43815000Y12128500D01*
%TO.N,SET_EN*%
D14*
X84935100Y11628100D02*
X84935100Y10068600D01*
D15*
X82994500Y9017000D02*
X84201000Y10223500D01*
X84201000Y10223500D02*
X84201000Y12700000D01*
X84201000Y12700000D02*
X83685400Y13215600D01*
X83685400Y13215600D02*
X82014100Y13215600D01*
D14*
X91089500Y3841400D02*
X91089500Y2512100D01*
X90552500Y4381500D02*
X91089500Y3841400D01*
X84010500Y4381500D02*
X90552500Y4381500D01*
%TO.N,-4.5V*%
X97817900Y5016500D02*
X98778100Y5976600D01*
X84879200Y5016500D02*
X97817900Y5016500D01*
X84046100Y5849600D02*
X84879200Y5016500D01*
%TO.N,+4.5V*%
X90444300Y5659100D02*
X97608700Y5659100D01*
X97608700Y5659100D02*
X98196400Y6249800D01*
X98196400Y6249800D02*
X98196400Y8651200D01*
%TO.N,SET_EN*%
X84935100Y10068600D02*
X83121500Y8255000D01*
X83121500Y8255000D02*
X83121500Y5270500D01*
X83121500Y5270500D02*
X84010500Y4381500D01*
%TO.N,+4.5V*%
X86967100Y12009100D02*
X88320900Y12009100D01*
X88320900Y12009100D02*
X89061600Y11268400D01*
X89061600Y11268400D02*
X89061600Y7041600D01*
%TO.N,+2.5V*%
D13*
X74944600Y3545100D02*
X74088900Y3545100D01*
X74088900Y3545100D02*
X73233200Y3545100D01*
X65873500Y3556000D02*
X65016300Y3556000D01*
X65016300Y3556000D02*
X64159000Y3556000D01*
X43307000Y3492500D02*
X42449800Y3492500D01*
X42449800Y3492500D02*
X41592500Y3492500D01*
X45008000Y16256000D02*
X49784000Y16256000D01*
X49784000Y16256000D02*
X50165000Y16637000D01*
X50165000Y16637000D02*
X50165000Y18564500D01*
X50165000Y18564500D02*
X50144500Y18585000D01*
X50144500Y18585000D02*
X51187100Y19627600D01*
X51187100Y19627600D02*
X51350900Y19627600D01*
%TO.N,+4.5V*%
D14*
X58200600Y18676600D02*
X58200600Y15141900D01*
X58200600Y15141900D02*
X58610500Y14732000D01*
X58610500Y14732000D02*
X86169500Y14732000D01*
%TO.N,-4.5V*%
X58229500Y14160500D02*
X57467500Y14922500D01*
X84010500Y14160500D02*
X58229500Y14160500D01*
X57467500Y21717000D02*
X56896000Y22288500D01*
X57467500Y14922500D02*
X57467500Y21717000D01*
%TO.N,+2.5V*%
D13*
X32575500Y33464500D02*
X40386000Y33464500D01*
X40386000Y33464500D02*
X40957500Y32893000D01*
X40957500Y32893000D02*
X40957500Y26035000D01*
X40957500Y26035000D02*
X42926000Y24066500D01*
X45021500Y16269500D02*
X45008000Y16256000D01*
X42926000Y24066500D02*
X42926000Y20383500D01*
X42926000Y20383500D02*
X43307000Y20002500D01*
X43307000Y20002500D02*
X44521500Y20002500D01*
X44521500Y20002500D02*
X45021500Y19502500D01*
X45021500Y19502500D02*
X45021500Y16269500D01*
%TO.N,-2.5V*%
X34734500Y30035500D02*
X38163500Y30035500D01*
X38163500Y30035500D02*
X38841700Y29357300D01*
X38841700Y29357300D02*
X38841700Y25412900D01*
%TO.N,VCC_BIAS*%
D14*
X39687500Y23304500D02*
X39116000Y22733000D01*
X33895400Y28891600D02*
X33895400Y30720400D01*
X33895400Y30720400D02*
X34290000Y31115000D01*
X34290000Y31115000D02*
X39179500Y31115000D01*
X39179500Y31115000D02*
X39687500Y30607000D01*
X39687500Y30607000D02*
X39687500Y23304500D01*
%TO.N,+4.5V*%
D13*
X45266400Y26160500D02*
X45266400Y23368000D01*
%TO.N,-4.5V*%
D14*
X45275500Y30843200D02*
X45256200Y30862500D01*
X46482000Y26606500D02*
X45275500Y27813000D01*
X45275500Y27813000D02*
X45275500Y30843200D01*
X56896000Y22288500D02*
X47053500Y22288500D01*
X47053500Y22288500D02*
X46482000Y22860000D01*
X46482000Y22860000D02*
X46482000Y26606500D01*
%TO.N,SET_EN*%
D15*
X67945000Y5588000D02*
X67945000Y9398000D01*
X67945000Y9398000D02*
X68389500Y9842500D01*
X68389500Y9842500D02*
X80899000Y9842500D01*
X80899000Y9842500D02*
X81724500Y9017000D01*
X81724500Y9017000D02*
X82994500Y9017000D01*
%TD*%
M02*
