%TF.GenerationSoftware,KiCad,Pcbnew,10.99.0-unknown*%
%TF.CreationDate,2026-08-12T15:28:01+08:00*%
%TF.ProjectId,________,db6eeccb-6c11-40f6-962e-6b696361645f,rev?*%
%TF.SameCoordinates,Original*%
%TF.FileFunction,Copper,L1,Top*%
%TF.FilePolarity,Positive*%
%FSLAX46Y46*%
G04 Gerber Fmt 4.6, Leading zero omitted, Abs format (unit mm)*
G04 Created by KiCad (PCBNEW 10.99.0-unknown) date 2026-08-12 15:28:01*
%MOMM*%
%LPD*%
G01*
G04 APERTURE LIST*
G04 Aperture macros list*
%AMRoundRect*
0 Rectangle with rounded corners*
0 $1 Rounding radius*
0 $2 $3 $4 $5 $6 $7 $8 $9 X,Y pos of 4 corners*
0 Add a 4 corners polygon primitive as box body*
4,1,4,$2,$3,$4,$5,$6,$7,$8,$9,$2,$3,0*
0 Add four circle primitives for the rounded corners*
1,1,$1+$1,$2,$3*
1,1,$1+$1,$4,$5*
1,1,$1+$1,$6,$7*
1,1,$1+$1,$8,$9*
0 Add four rect primitives between the rounded corners*
20,1,$1+$1,$2,$3,$4,$5,0*
20,1,$1+$1,$4,$5,$6,$7,0*
20,1,$1+$1,$6,$7,$8,$9,0*
20,1,$1+$1,$8,$9,$2,$3,0*%
G04 Aperture macros list end*
%TA.AperFunction,SMDPad,CuDef*%
%ADD10RoundRect,0.225000X-0.225000X-0.275000X0.225000X-0.275000X0.225000X0.275000X-0.225000X0.275000X0*%
%TD*%
%TA.AperFunction,SMDPad,CuDef*%
%ADD11RoundRect,0.105000X0.345000X-0.105000X0.345000X0.105000X-0.345000X0.105000X-0.345000X-0.105000X0*%
%TD*%
%TA.AperFunction,SMDPad,CuDef*%
%ADD12RoundRect,0.105000X-0.105000X-0.345000X0.105000X-0.345000X0.105000X0.345000X-0.105000X0.345000X0*%
%TD*%
%TA.AperFunction,SMDPad,CuDef*%
%ADD13RoundRect,0.225000X-0.225000X-0.275000X0.225000X-0.275000X0.225000X0.275000X-0.225000X0.275000X0*%
%TD*%
%TA.AperFunction,SMDPad,CuDef*%
%ADD14C,0.750000*%
%TD*%
%TA.AperFunction,SMDPad,CuDef*%
%ADD15RoundRect,0.105000X0.345000X-0.105000X0.345000X0.105000X-0.345000X0.105000X-0.345000X-0.105000X0*%
%TD*%
%TA.AperFunction,SMDPad,CuDef*%
%ADD16RoundRect,0.105000X-0.105000X-0.345000X0.105000X-0.345000X0.105000X0.345000X-0.105000X0.345000X0*%
%TD*%
%TA.AperFunction,SMDPad,CuDef*%
%ADD17C,1.200000*%
%TD*%
%TA.AperFunction,ViaPad*%
%ADD18C,0.610000*%
%TD*%
%TA.AperFunction,Conductor*%
%ADD19C,0.355600*%
%TD*%
%TA.AperFunction,Conductor*%
%ADD20C,0.635000*%
%TD*%
%TA.AperFunction,Conductor*%
%ADD21C,0.381000*%
%TD*%
%TA.AperFunction,Conductor*%
%ADD22C,0.254000*%
%TD*%
%TA.AperFunction,Conductor*%
%ADD23C,0.508000*%
%TD*%
%TA.AperFunction,Conductor*%
%ADD24C,0.457200*%
%TD*%
%TA.AperFunction,Conductor*%
%ADD25C,1.016000*%
%TD*%
%TA.AperFunction,Conductor*%
%ADD26C,0.203200*%
%TD*%
%TA.AperFunction,Conductor*%
%ADD27C,0.152400*%
%TD*%
G04 APERTURE END LIST*
D10*
%TO.P,C7,2*%
%TO.N,12V*%
X74408236Y24318444D03*
%TO.P,C7,1*%
%TO.N,GND*%
X74408236Y22918444D03*
%TD*%
%TO.P,C8,2*%
%TO.N,GND*%
X69201236Y20635444D03*
%TO.P,C8,1*%
%TO.N,12V*%
X69201236Y19235444D03*
%TD*%
%TO.P,R3,2*%
%TO.N,GND*%
X79615236Y14793444D03*
%TO.P,R3,1*%
%TO.N,$1N1291*%
X79615236Y13393444D03*
%TD*%
D11*
%TO.P,U3,1*%
%TO.N,GND*%
X80053236Y22888444D03*
%TO.P,U3,2*%
%TO.N,PWM4B*%
X79253236Y22888444D03*
%TO.P,U3,3*%
%TO.N,PWM4A*%
X78453236Y22888444D03*
%TO.P,U3,4*%
%TO.N,+3V3*%
X77653236Y22888444D03*
D12*
%TO.P,U3,8*%
%TO.N,$1N946*%
X76853236Y23688444D03*
%TO.P,U3,7*%
%TO.N,$1N1291*%
X76853236Y24488444D03*
%TO.P,U3,6*%
%TO.N,$1N950*%
X76853236Y25288444D03*
%TO.P,U3,5*%
%TO.N,12V*%
X76853236Y26088444D03*
D11*
%TO.P,U3,9*%
%TO.N,GND*%
X77653236Y26888444D03*
%TO.P,U3,e36*%
X78453236Y26888444D03*
%TO.P,U3,e37*%
X79253236Y26888444D03*
%TO.P,U3,e38*%
X80053236Y26888444D03*
D12*
%TO.P,U3,e39*%
X80853236Y26088444D03*
%TD*%
D13*
%TO.P,C2,1*%
%TO.N,VIN*%
X14529236Y33651444D03*
%TO.P,C2,2*%
%TO.N,GND*%
X13129236Y33651444D03*
%TD*%
D10*
%TO.P,C3,2*%
%TO.N,VIN*%
X14192315Y42160444D03*
%TO.P,C3,1*%
%TO.N,GND*%
X15592315Y42160444D03*
%TD*%
%TO.P,C1,2*%
%TO.N,VIN*%
X14159447Y49675644D03*
%TO.P,C1,1*%
%TO.N,$1N2982*%
X15559447Y49675644D03*
%TD*%
D13*
%TO.P,C4,2*%
%TO.N,12V*%
X13513236Y81149444D03*
%TO.P,C4,1*%
%TO.N,GND*%
X12113236Y81149444D03*
%TD*%
D10*
%TO.P,C5,2*%
%TO.N,GND*%
X13129236Y87499444D03*
%TO.P,C5,1*%
%TO.N,12V*%
X14529236Y87499444D03*
%TD*%
D13*
%TO.P,C6,2*%
%TO.N,12V*%
X6209236Y39936444D03*
%TO.P,C6,1*%
%TO.N,$1N3970*%
X6209236Y41336444D03*
%TD*%
%TO.P,D1,3*%
%TO.N,GND*%
X13259236Y53971444D03*
%TO.P,D1,1*%
%TO.N,$1N3021*%
X11859236Y53971444D03*
%TD*%
%TO.P,R1,2*%
%TO.N,12V*%
X4383471Y39844420D03*
%TO.P,R1,1*%
%TO.N,$1N3970*%
X4383471Y41244420D03*
%TD*%
D10*
%TO.P,R2,2*%
%TO.N,$1N3970*%
X2536866Y41227148D03*
%TO.P,R2,1*%
%TO.N,GND*%
X2536866Y39827148D03*
%TD*%
D14*
%TO.P,U1,1*%
%TO.N,GND*%
X13278236Y45462444D03*
%TO.P,U1,2*%
%TO.N,$1N3970*%
X12518136Y44416244D03*
%TO.P,U1,3*%
%TO.N,$1N3021*%
X11288336Y44815844D03*
%TO.P,U1,4*%
%TO.N,$1N2982*%
X11288336Y46109044D03*
%TO.P,U1,5*%
%TO.N,VIN*%
X12518136Y46508644D03*
%TD*%
D13*
%TO.P,U2,1*%
%TO.N,$1N3021*%
X11670236Y67368444D03*
%TO.P,U2,2*%
%TO.N,12V*%
X11670236Y68768444D03*
%TD*%
D10*
%TO.P,C16,1*%
%TO.N,VIN*%
X24940236Y33651444D03*
%TO.P,C16,2*%
%TO.N,GND*%
X26340236Y33651444D03*
%TD*%
D13*
%TO.P,C17,2*%
%TO.N,VIN*%
X25117315Y42160444D03*
%TO.P,C17,1*%
%TO.N,GND*%
X23717315Y42160444D03*
%TD*%
%TO.P,C15,2*%
%TO.N,VIN*%
X25197236Y49653444D03*
%TO.P,C15,1*%
%TO.N,$1N5801*%
X23797236Y49653444D03*
%TD*%
D10*
%TO.P,C18,2*%
%TO.N,7.4V*%
X25575236Y81276444D03*
%TO.P,C18,1*%
%TO.N,GND*%
X26975236Y81276444D03*
%TD*%
D13*
%TO.P,C19,2*%
%TO.N,GND*%
X28118236Y87880444D03*
%TO.P,C19,1*%
%TO.N,7.4V*%
X26718236Y87880444D03*
%TD*%
%TO.P,C20,2*%
%TO.N,7.4V*%
X35137321Y40498419D03*
%TO.P,C20,1*%
%TO.N,$1N5797*%
X35137321Y41898419D03*
%TD*%
D10*
%TO.P,D2,3*%
%TO.N,GND*%
X26591236Y53336444D03*
%TO.P,D2,1*%
%TO.N,$1N5800*%
X27991236Y53336444D03*
%TD*%
D13*
%TO.P,R7,2*%
%TO.N,7.4V*%
X33105321Y40449219D03*
%TO.P,R7,1*%
%TO.N,$1N5797*%
X33105321Y41849219D03*
%TD*%
D14*
%TO.P,U7,1*%
%TO.N,GND*%
X25984315Y46224444D03*
%TO.P,U7,2*%
%TO.N,$1N5797*%
X26744415Y47270644D03*
%TO.P,U7,3*%
%TO.N,$1N5800*%
X27974215Y46871044D03*
%TO.P,U7,4*%
%TO.N,$1N5801*%
X27974215Y45577844D03*
%TO.P,U7,5*%
%TO.N,VIN*%
X26744415Y45178244D03*
%TD*%
D10*
%TO.P,U8,1*%
%TO.N,$1N5800*%
X28434236Y69022444D03*
%TO.P,U8,2*%
%TO.N,7.4V*%
X28434236Y67622444D03*
%TD*%
%TO.P,C9,2*%
%TO.N,12V*%
X52818236Y24445444D03*
%TO.P,C9,1*%
%TO.N,GND*%
X52818236Y23045444D03*
%TD*%
%TO.P,C10,2*%
%TO.N,GND*%
X48627236Y20762444D03*
%TO.P,C10,1*%
%TO.N,12V*%
X48627236Y19362444D03*
%TD*%
D13*
%TO.P,C11,2*%
%TO.N,12V*%
X82790236Y79433444D03*
%TO.P,C11,1*%
%TO.N,GND*%
X82790236Y80833444D03*
%TD*%
%TO.P,C12,2*%
%TO.N,GND*%
X87870236Y83497444D03*
%TO.P,C12,1*%
%TO.N,12V*%
X87870236Y84897444D03*
%TD*%
%TO.P,C13,2*%
%TO.N,12V*%
X58214212Y79241420D03*
%TO.P,C13,1*%
%TO.N,GND*%
X58214212Y80641420D03*
%TD*%
%TO.P,C14,2*%
%TO.N,GND*%
X63105236Y83243444D03*
%TO.P,C14,1*%
%TO.N,12V*%
X63105236Y84643444D03*
%TD*%
D10*
%TO.P,R8,2*%
%TO.N,$1N5797*%
X31148315Y41827172D03*
%TO.P,R8,1*%
%TO.N,GND*%
X31148315Y40427172D03*
%TD*%
%TO.P,R4,2*%
%TO.N,GND*%
X57771236Y14412444D03*
%TO.P,R4,1*%
%TO.N,$1N4761*%
X57771236Y13012444D03*
%TD*%
D13*
%TO.P,R5,2*%
%TO.N,GND*%
X77712258Y90411959D03*
%TO.P,R5,1*%
%TO.N,$1N5054*%
X77712258Y91811959D03*
%TD*%
%TO.P,R6,2*%
%TO.N,GND*%
X53707236Y90505558D03*
%TO.P,R6,1*%
%TO.N,$1N5347*%
X53707236Y91905558D03*
%TD*%
D11*
%TO.P,U4,1*%
%TO.N,GND*%
X58582834Y23147016D03*
%TO.P,U4,2*%
%TO.N,PWM3B*%
X57782834Y23147016D03*
%TO.P,U4,3*%
%TO.N,PWM3A*%
X56982834Y23147016D03*
%TO.P,U4,4*%
%TO.N,+3V3*%
X56182834Y23147016D03*
D12*
%TO.P,U4,8*%
%TO.N,$1N4762*%
X55382834Y23947016D03*
%TO.P,U4,7*%
%TO.N,$1N4761*%
X55382834Y24747016D03*
%TO.P,U4,6*%
%TO.N,$1N4759*%
X55382834Y25547016D03*
%TO.P,U4,5*%
%TO.N,12V*%
X55382834Y26347016D03*
D11*
%TO.P,U4,9*%
%TO.N,GND*%
X56182834Y27147016D03*
%TO.P,U4,e36*%
X56982834Y27147016D03*
%TO.P,U4,e37*%
X57782834Y27147016D03*
%TO.P,U4,e38*%
X58582834Y27147016D03*
D12*
%TO.P,U4,e39*%
X59382834Y26347016D03*
%TD*%
D15*
%TO.P,U5,1*%
%TO.N,GND*%
X77137834Y80614016D03*
%TO.P,U5,2*%
%TO.N,PWM2B*%
X77937834Y80614016D03*
%TO.P,U5,3*%
%TO.N,PWM2A*%
X78737834Y80614016D03*
%TO.P,U5,4*%
%TO.N,+3V3*%
X79537834Y80614016D03*
D16*
%TO.P,U5,8*%
%TO.N,$1N5055*%
X80337834Y79814016D03*
%TO.P,U5,7*%
%TO.N,$1N5054*%
X80337834Y79014016D03*
%TO.P,U5,6*%
%TO.N,$1N5052*%
X80337834Y78214016D03*
%TO.P,U5,5*%
%TO.N,12V*%
X80337834Y77414016D03*
D15*
%TO.P,U5,9*%
%TO.N,GND*%
X79537834Y76614016D03*
%TO.P,U5,e36*%
X78737834Y76614016D03*
%TO.P,U5,e37*%
X77937834Y76614016D03*
%TO.P,U5,e38*%
X77137834Y76614016D03*
D16*
%TO.P,U5,e39*%
X76337834Y77414016D03*
%TD*%
D15*
%TO.P,U6,1*%
%TO.N,GND*%
X53007834Y80487016D03*
%TO.P,U6,2*%
%TO.N,PWM1B*%
X53807834Y80487016D03*
%TO.P,U6,3*%
%TO.N,PWM1A*%
X54607834Y80487016D03*
%TO.P,U6,4*%
%TO.N,+3V3*%
X55407834Y80487016D03*
D16*
%TO.P,U6,8*%
%TO.N,$1N5348*%
X56207834Y79687016D03*
%TO.P,U6,7*%
%TO.N,$1N5347*%
X56207834Y78887016D03*
%TO.P,U6,6*%
%TO.N,$1N5345*%
X56207834Y78087016D03*
%TO.P,U6,5*%
%TO.N,12V*%
X56207834Y77287016D03*
D15*
%TO.P,U6,9*%
%TO.N,GND*%
X55407834Y76487016D03*
%TO.P,U6,e36*%
X54607834Y76487016D03*
%TO.P,U6,e37*%
X53807834Y76487016D03*
%TO.P,U6,e38*%
X53007834Y76487016D03*
D16*
%TO.P,U6,e39*%
X52207834Y77287016D03*
%TD*%
D15*
%TO.P,U14,100*%
%TO.N,+3V3*%
X78794732Y57464582D03*
%TO.P,U14,99*%
%TO.N,GND*%
X78794732Y56814582D03*
%TO.P,U14,98*%
%TO.N,N/C*%
X78794732Y56164582D03*
%TO.P,U14,97*%
X78794732Y55514582D03*
%TO.P,U14,96*%
X78794732Y54864582D03*
%TO.P,U14,95*%
X78794732Y54214582D03*
%TO.P,U14,94*%
%TO.N,BOOT0*%
X78794732Y53564582D03*
%TO.P,U14,93*%
%TO.N,CE*%
X78794732Y52914582D03*
%TO.P,U14,92*%
%TO.N,CSN*%
X78794732Y52264582D03*
%TO.P,U14,91*%
%TO.N,MOSI*%
X78794732Y51614582D03*
%TO.P,U14,90*%
%TO.N,MISO*%
X78794732Y50964582D03*
%TO.P,U14,89*%
%TO.N,PWM1C*%
X78794732Y50314582D03*
%TO.P,U14,88*%
%TO.N,N/C*%
X78794732Y49664582D03*
%TO.P,U14,87*%
%TO.N,USART2_RX*%
X78794732Y49014582D03*
%TO.P,U14,86*%
%TO.N,USART2_TX*%
X78794732Y48364582D03*
%TO.P,U14,85*%
%TO.N,N/C*%
X78794732Y47714582D03*
%TO.P,U14,84*%
%TO.N,IRQ*%
X78794732Y47064582D03*
%TO.P,U14,83*%
%TO.N,N/C*%
X78794732Y46414582D03*
%TO.P,U14,82*%
X78794732Y45764582D03*
%TO.P,U14,81*%
X78794732Y45114582D03*
%TO.P,U14,80*%
X78794732Y44464582D03*
%TO.P,U14,79*%
X78794732Y43814582D03*
%TO.P,U14,78*%
X78794732Y43164582D03*
%TO.P,U14,77*%
%TO.N,PWM2C*%
X78794732Y42514582D03*
%TO.P,U14,76*%
%TO.N,SWCLK*%
X78794732Y41864582D03*
D16*
%TO.P,U14,75*%
%TO.N,+3V3*%
X78069732Y41139582D03*
%TO.P,U14,74*%
%TO.N,GND*%
X77419732Y41139582D03*
%TO.P,U14,73*%
%TO.N,$2N2980*%
X76769732Y41139582D03*
%TO.P,U14,72*%
%TO.N,SWDIO*%
X76119732Y41139582D03*
%TO.P,U14,71*%
%TO.N,N/C*%
X75469732Y41139582D03*
%TO.P,U14,70*%
X74819732Y41139582D03*
%TO.P,U14,69*%
%TO.N,USART1_RX*%
X74169732Y41139582D03*
%TO.P,U14,68*%
%TO.N,USART1_TX*%
X73519732Y41139582D03*
%TO.P,U14,67*%
%TO.N,SCL*%
X72869732Y41139582D03*
%TO.P,U14,66*%
%TO.N,SDA*%
X72219732Y41139582D03*
%TO.P,U14,65*%
%TO.N,N/C*%
X71569732Y41139582D03*
%TO.P,U14,64*%
%TO.N,B1B*%
X70919732Y41139582D03*
%TO.P,U14,63*%
%TO.N,B1A*%
X70269732Y41139582D03*
%TO.P,U14,62*%
%TO.N,N/C*%
X69619732Y41139582D03*
%TO.P,U14,61*%
X68969732Y41139582D03*
%TO.P,U14,60*%
%TO.N,B2B*%
X68319732Y41139582D03*
%TO.P,U14,59*%
%TO.N,B2A*%
X67669732Y41139582D03*
%TO.P,U14,58*%
%TO.N,N/C*%
X67019732Y41139582D03*
%TO.P,U14,57*%
X66369732Y41139582D03*
%TO.P,U14,56*%
%TO.N,BUZZ*%
X65719732Y41139582D03*
%TO.P,U14,55*%
%TO.N,N/C*%
X65069732Y41139582D03*
%TO.P,U14,54*%
%TO.N,PWM2A*%
X64419732Y41139582D03*
%TO.P,U14,53*%
%TO.N,PWM2B*%
X63769732Y41139582D03*
%TO.P,U14,52*%
%TO.N,CS2*%
X63119732Y41139582D03*
%TO.P,U14,51*%
%TO.N,CS1*%
X62469732Y41139582D03*
D15*
%TO.P,U14,50*%
%TO.N,+3V3*%
X61744732Y41864582D03*
%TO.P,U14,49*%
%TO.N,$2N2977*%
X61744732Y42514582D03*
%TO.P,U14,48*%
%TO.N,PWM4C*%
X61744732Y43164582D03*
%TO.P,U14,47*%
%TO.N,PWM3C*%
X61744732Y43814582D03*
%TO.P,U14,46*%
%TO.N,N/C*%
X61744732Y44464582D03*
%TO.P,U14,45*%
X61744732Y45114582D03*
%TO.P,U14,44*%
X61744732Y45764582D03*
%TO.P,U14,43*%
X61744732Y46414582D03*
%TO.P,U14,42*%
%TO.N,B4A*%
X61744732Y47064582D03*
%TO.P,U14,41*%
%TO.N,N/C*%
X61744732Y47714582D03*
%TO.P,U14,40*%
%TO.N,B4B*%
X61744732Y48364582D03*
%TO.P,U14,39*%
%TO.N,N/C*%
X61744732Y49014582D03*
%TO.P,U14,38*%
X61744732Y49664582D03*
%TO.P,U14,37*%
%TO.N,$2N5724*%
X61744732Y50314582D03*
%TO.P,U14,36*%
%TO.N,N/C*%
X61744732Y50964582D03*
%TO.P,U14,35*%
X61744732Y51614582D03*
%TO.P,U14,34*%
X61744732Y52264582D03*
%TO.P,U14,33*%
X61744732Y52914582D03*
%TO.P,U14,32*%
%TO.N,B3A*%
X61744732Y53564582D03*
%TO.P,U14,31*%
%TO.N,B3B*%
X61744732Y54214582D03*
%TO.P,U14,30*%
%TO.N,SPI-SCLK*%
X61744732Y54864582D03*
%TO.P,U14,29*%
%TO.N,N/C*%
X61744732Y55514582D03*
%TO.P,U14,28*%
%TO.N,+3V3*%
X61744732Y56164582D03*
%TO.P,U14,27*%
%TO.N,GND*%
X61744732Y56814582D03*
%TO.P,U14,26*%
%TO.N,PWM4B*%
X61744732Y57464582D03*
D16*
%TO.P,U14,25*%
%TO.N,PWM4A*%
X62469732Y58189582D03*
%TO.P,U14,24*%
%TO.N,PWM3B*%
X63119732Y58189582D03*
%TO.P,U14,23*%
%TO.N,PWM3A*%
X63769732Y58189582D03*
%TO.P,U14,22*%
%TO.N,VDDA*%
X64419732Y58189582D03*
%TO.P,U14,21*%
%TO.N,$2N2999*%
X65069732Y58189582D03*
%TO.P,U14,20*%
%TO.N,AGND*%
X65719732Y58189582D03*
%TO.P,U14,19*%
%TO.N,+3V3*%
X66369732Y58189582D03*
%TO.P,U14,18*%
%TO.N,N/C*%
X67019732Y58189582D03*
%TO.P,U14,17*%
X67669732Y58189582D03*
%TO.P,U14,16*%
X68319732Y58189582D03*
%TO.P,U14,15*%
X68969732Y58189582D03*
%TO.P,U14,14*%
%TO.N,NRST*%
X69619732Y58189582D03*
%TO.P,U14,13*%
%TO.N,OSC_OUT*%
X70269732Y58189582D03*
%TO.P,U14,12*%
%TO.N,OSC_IN*%
X70919732Y58189582D03*
%TO.P,U14,11*%
%TO.N,+3V3*%
X71569732Y58189582D03*
%TO.P,U14,10*%
%TO.N,GND*%
X72219732Y58189582D03*
%TO.P,U14,9*%
%TO.N,OSC32_OUT*%
X72869732Y58189582D03*
%TO.P,U14,8*%
%TO.N,OSC32_IN*%
X73519732Y58189582D03*
%TO.P,U14,7*%
%TO.N,N/C*%
X74169732Y58189582D03*
%TO.P,U14,6*%
%TO.N,+3V3*%
X74819732Y58189582D03*
%TO.P,U14,5*%
%TO.N,PWM1A*%
X75469732Y58189582D03*
%TO.P,U14,4*%
%TO.N,PWM1B*%
X76119732Y58189582D03*
%TO.P,U14,3*%
%TO.N,N/C*%
X76769732Y58189582D03*
%TO.P,U14,2*%
X77419732Y58189582D03*
%TO.P,U14,1*%
X78069732Y58189582D03*
%TD*%
D10*
%TO.P,C30,2*%
%TO.N,VDDA*%
X56531990Y44732058D03*
%TO.P,C30,1*%
%TO.N,AGND*%
X56531990Y43332058D03*
%TD*%
%TO.P,C31,2*%
%TO.N,VDDA*%
X59944000Y44769000D03*
%TO.P,C31,1*%
%TO.N,AGND*%
X59944000Y43369000D03*
%TD*%
%TO.P,C33,1*%
%TO.N,VIN*%
X29639236Y16379444D03*
%TO.P,C33,2*%
%TO.N,GND*%
X31039236Y16379444D03*
%TD*%
%TO.P,C34,1*%
%TO.N,+3V3*%
X31475755Y26008472D03*
%TO.P,C34,2*%
%TO.N,GND*%
X32875755Y26008472D03*
%TD*%
D13*
%TO.P,C35,2*%
%TO.N,+3V3*%
X32182236Y28063444D03*
%TO.P,C35,1*%
%TO.N,GND*%
X30782236Y28063444D03*
%TD*%
D10*
%TO.P,C21,2*%
%TO.N,+3V3*%
X58544103Y56928347D03*
%TO.P,C21,1*%
%TO.N,GND*%
X59944103Y56928347D03*
%TD*%
%TO.P,C22,2*%
%TO.N,+3V3*%
X64217741Y60877667D03*
%TO.P,C22,1*%
%TO.N,GND*%
X64217741Y59477667D03*
%TD*%
D13*
%TO.P,C23,2*%
%TO.N,+3V3*%
X65278127Y38689469D03*
%TO.P,C23,1*%
%TO.N,GND*%
X65278127Y40089469D03*
%TD*%
D10*
%TO.P,C24,2*%
%TO.N,+3V3*%
X58525922Y46505861D03*
%TO.P,C24,1*%
%TO.N,GND*%
X59925922Y46505861D03*
%TD*%
D13*
%TO.P,C25,2*%
%TO.N,+3V3*%
X77762732Y38677582D03*
%TO.P,C25,1*%
%TO.N,GND*%
X77762732Y40077582D03*
%TD*%
%TO.P,C26,2*%
%TO.N,+3V3*%
X82272732Y56141582D03*
%TO.P,C26,1*%
%TO.N,GND*%
X80872732Y56141582D03*
%TD*%
%TO.P,C27,2*%
%TO.N,+3V3*%
X82250990Y58129058D03*
%TO.P,C27,1*%
%TO.N,GND*%
X80850990Y58129058D03*
%TD*%
D10*
%TO.P,C28,2*%
%TO.N,VDD*%
X1891236Y23048444D03*
%TO.P,C28,1*%
%TO.N,GND*%
X1891236Y21648444D03*
%TD*%
%TO.P,D3,3*%
%TO.N,VBUS*%
X16750236Y21905444D03*
%TO.P,D3,1*%
%TO.N,VIN*%
X16750236Y20505444D03*
%TD*%
%TO.P,D4,3*%
%TO.N,$2N6889*%
X22592236Y21778444D03*
%TO.P,D4,1*%
%TO.N,VIN*%
X22592236Y20378444D03*
%TD*%
%TO.P,L1,1*%
%TO.N,+3V3*%
X54372990Y44732058D03*
%TO.P,L1,2*%
%TO.N,VDDA*%
X54372990Y43332058D03*
%TD*%
D13*
%TO.P,R17,2*%
%TO.N,$2N5724*%
X69761732Y38550582D03*
%TO.P,R17,1*%
%TO.N,GND*%
X69761732Y39950582D03*
%TD*%
%TO.P,R12,2*%
%TO.N,VBUS*%
X13829236Y21140444D03*
%TO.P,R12,1*%
%TO.N,$2N6224*%
X13829236Y22540444D03*
%TD*%
D10*
%TO.P,R10,2*%
%TO.N,VBUS*%
X1846679Y19368896D03*
%TO.P,R10,1*%
%TO.N,VDD*%
X1846679Y17968896D03*
%TD*%
%TO.P,R11,2*%
%TO.N,$2N6576*%
X12305236Y22540444D03*
%TO.P,R11,1*%
%TO.N,GND*%
X12305236Y21140444D03*
%TD*%
D14*
%TO.P,SW1,1*%
%TO.N,GND*%
X53899913Y67978673D03*
%TO.P,SW1,2*%
X52899913Y68978673D03*
%TO.P,SW1,3*%
%TO.N,NRST*%
X53899913Y69978673D03*
%TO.P,SW1,4*%
X54899913Y68978673D03*
%TD*%
%TO.P,SW3,1*%
%TO.N,+3V3*%
X59487913Y70105673D03*
%TO.P,SW3,2*%
X60487913Y69105673D03*
%TO.P,SW3,3*%
%TO.N,$2N3034*%
X59487913Y68105673D03*
%TO.P,SW3,4*%
X58487913Y69105673D03*
%TD*%
%TO.P,U11,1*%
%TO.N,GND*%
X30355236Y21205444D03*
%TO.P,U11,2*%
%TO.N,+3V3*%
X31355236Y22205444D03*
%TO.P,U11,3*%
%TO.N,VIN*%
X32355236Y21205444D03*
%TO.P,U11,4*%
%TO.N,+3V3*%
X31355236Y20205444D03*
%TD*%
D15*
%TO.P,U10,10*%
%TO.N,N/C*%
X9206236Y20481444D03*
%TO.P,U10,9*%
%TO.N,$2N6576*%
X9206236Y19681444D03*
%TO.P,U10,8*%
%TO.N,$2N6224*%
X9206236Y18881444D03*
D16*
%TO.P,U10,7*%
%TO.N,CC1*%
X8406236Y18081444D03*
%TO.P,U10,6*%
%TO.N,CC2*%
X7606236Y18081444D03*
%TO.P,U10,5*%
%TO.N,$2N6027*%
X6806236Y18081444D03*
D15*
%TO.P,U10,4*%
%TO.N,$2N6021*%
X6006236Y18881444D03*
%TO.P,U10,3*%
%TO.N,N/C*%
X6006236Y19681444D03*
%TO.P,U10,2*%
X6006236Y20481444D03*
D16*
%TO.P,U10,1*%
%TO.N,VDD*%
X6806236Y21281444D03*
%TO.P,U10,11*%
%TO.N,GND*%
X7606236Y21281444D03*
%TD*%
D15*
%TO.P,U9,B1A12*%
%TO.N,GND*%
X5644236Y9108444D03*
%TO.P,U9,B4A9*%
%TO.N,VBUS*%
X6444236Y9108444D03*
%TO.P,U9,B5*%
%TO.N,CC2*%
X7244236Y9108444D03*
%TO.P,U9,A8*%
%TO.N,N/C*%
X8044236Y9108444D03*
D16*
%TO.P,U9,B6*%
%TO.N,$2N6021*%
X8844236Y8308444D03*
%TO.P,U9,A7*%
%TO.N,$2N6027*%
X8844236Y7508444D03*
%TO.P,U9,A6*%
%TO.N,$2N6021*%
X8844236Y6708444D03*
%TO.P,U9,B7*%
%TO.N,$2N6027*%
X8844236Y5908444D03*
D15*
%TO.P,U9,A5*%
%TO.N,CC1*%
X8044236Y5108444D03*
%TO.P,U9,B8*%
%TO.N,N/C*%
X7244236Y5108444D03*
%TO.P,U9,A4B9*%
%TO.N,VBUS*%
X6444236Y5108444D03*
%TO.P,U9,A1B12*%
%TO.N,GND*%
X5644236Y5108444D03*
D16*
%TO.P,U9,1*%
%TO.N,N/C*%
X4844236Y5908444D03*
%TO.P,U9,4*%
X4844236Y6708444D03*
%TO.P,U9,3*%
X4844236Y7508444D03*
%TO.P,U9,2*%
X4844236Y8308444D03*
%TD*%
D13*
%TO.P,C39,2*%
%TO.N,$2N2980*%
X82332565Y54161601D03*
%TO.P,C39,1*%
%TO.N,GND*%
X80932565Y54161601D03*
%TD*%
%TO.P,C40,2*%
%TO.N,$2N2977*%
X75598541Y38722540D03*
%TO.P,C40,1*%
%TO.N,GND*%
X75598541Y40122540D03*
%TD*%
D10*
%TO.P,C38,2*%
%TO.N,OSC32_OUT*%
X56326912Y52764820D03*
%TO.P,C38,1*%
%TO.N,GND*%
X57726912Y52764820D03*
%TD*%
%TO.P,C37,2*%
%TO.N,OSC32_IN*%
X56297915Y55119842D03*
%TO.P,C37,1*%
%TO.N,GND*%
X57697915Y55119842D03*
%TD*%
%TO.P,C42,2*%
%TO.N,OSC_OUT*%
X54630789Y48747667D03*
%TO.P,C42,1*%
%TO.N,GND*%
X56030789Y48747667D03*
%TD*%
%TO.P,C41,2*%
%TO.N,OSC_IN*%
X54651804Y50742558D03*
%TO.P,C41,1*%
%TO.N,GND*%
X56051804Y50742558D03*
%TD*%
%TO.P,R13,2*%
%TO.N,AGND*%
X51744470Y46411843D03*
%TO.P,R13,1*%
%TO.N,GND*%
X53144470Y46411843D03*
%TD*%
D13*
%TO.P,R14,2*%
%TO.N,VDDA*%
X58244618Y41691795D03*
%TO.P,R14,1*%
%TO.N,$2N2999*%
X58244618Y43091795D03*
%TD*%
D10*
%TO.P,C36,2*%
%TO.N,$2N3034*%
X59099875Y64356813D03*
%TO.P,C36,1*%
%TO.N,+3V3*%
X60499875Y64356813D03*
%TD*%
D13*
%TO.P,C29,2*%
%TO.N,NRST*%
X54446738Y64477628D03*
%TO.P,C29,1*%
%TO.N,GND*%
X53046738Y64477628D03*
%TD*%
%TO.P,R9,2*%
%TO.N,NRST*%
X54420398Y62404125D03*
%TO.P,R9,1*%
%TO.N,+3V3*%
X53020398Y62404125D03*
%TD*%
%TO.P,R18,2*%
%TO.N,BOOT0*%
X60538991Y60294515D03*
%TO.P,R18,1*%
%TO.N,$2N3034*%
X59138991Y60294515D03*
%TD*%
%TO.P,R19,2*%
%TO.N,GND*%
X60441913Y62247673D03*
%TO.P,R19,1*%
%TO.N,$2N3034*%
X59041913Y62247673D03*
%TD*%
%TO.P,C45,2*%
%TO.N,+3V3*%
X89562188Y29705070D03*
%TO.P,C45,1*%
%TO.N,GND*%
X89562188Y31105070D03*
%TD*%
%TO.P,C44,2*%
%TO.N,+3V3*%
X87403188Y29705070D03*
%TO.P,C44,1*%
%TO.N,GND*%
X87403188Y31105070D03*
%TD*%
%TO.P,C46,2*%
%TO.N,+3V3*%
X94074036Y29817272D03*
%TO.P,C46,1*%
%TO.N,GND*%
X94074036Y31217272D03*
%TD*%
%TO.P,C43,2*%
%TO.N,+3V3*%
X97903236Y29776444D03*
%TO.P,C43,1*%
%TO.N,GND*%
X97903236Y31176444D03*
%TD*%
D10*
%TO.P,R22,2*%
%TO.N,+3V3*%
X83433872Y38424080D03*
%TO.P,R22,1*%
%TO.N,SDA*%
X83433872Y37024080D03*
%TD*%
%TO.P,R23,2*%
%TO.N,+3V3*%
X85483144Y38406808D03*
%TO.P,R23,1*%
%TO.N,SCL*%
X85483144Y37006808D03*
%TD*%
%TO.P,R24,2*%
%TO.N,$2N8508*%
X83805523Y33565622D03*
%TO.P,R24,1*%
%TO.N,+3V3*%
X85205523Y33565622D03*
%TD*%
D13*
%TO.P,R25,2*%
%TO.N,$2N8534*%
X91596012Y29749200D03*
%TO.P,R25,1*%
%TO.N,+3V3*%
X91596012Y31149200D03*
%TD*%
D10*
%TO.P,R26,2*%
%TO.N,+3V3*%
X96125236Y31176444D03*
%TO.P,R26,1*%
%TO.N,$2N8540*%
X96125236Y29776444D03*
%TD*%
D15*
%TO.P,U12,1*%
%TO.N,GND*%
X87085145Y36327622D03*
%TO.P,U12,2*%
%TO.N,N/C*%
X87885145Y36327622D03*
%TO.P,U12,3*%
X88685145Y36327622D03*
%TO.P,U12,4*%
%TO.N,$2N8508*%
X89485145Y36327622D03*
D16*
%TO.P,U12,5*%
%TO.N,+3V3*%
X90285145Y35527622D03*
%TO.P,U12,6*%
%TO.N,GND*%
X90285145Y34727622D03*
%TO.P,U12,7*%
X90285145Y33927622D03*
%TO.P,U12,8*%
%TO.N,+3V3*%
X90285145Y33127622D03*
D15*
%TO.P,U12,9*%
%TO.N,$2N8534*%
X89485145Y32327622D03*
%TO.P,U12,10*%
%TO.N,N/C*%
X88685145Y32327622D03*
%TO.P,U12,11*%
X87885145Y32327622D03*
%TO.P,U12,12*%
%TO.N,CS1*%
X87085145Y32327622D03*
D16*
%TO.P,U12,13*%
%TO.N,SCL*%
X86285145Y33127622D03*
%TO.P,U12,14*%
%TO.N,SDA*%
X86285145Y33927622D03*
%TD*%
D11*
%TO.P,U13,12*%
%TO.N,N/C*%
X95571012Y32659200D03*
%TO.P,U13,11*%
X94771012Y32659200D03*
%TO.P,U13,10*%
%TO.N,+3V3*%
X93971012Y32659200D03*
D12*
%TO.P,U13,9*%
X93171012Y33459200D03*
%TO.P,U13,8*%
%TO.N,GND*%
X93171012Y34259200D03*
%TO.P,U13,7*%
%TO.N,$2N8540*%
X93171012Y35059200D03*
D11*
%TO.P,U13,6*%
%TO.N,GND*%
X93971012Y35859200D03*
%TO.P,U13,5*%
%TO.N,+3V3*%
X94771012Y35859200D03*
%TO.P,U13,4*%
%TO.N,SDA*%
X95571012Y35859200D03*
D12*
%TO.P,U13,3*%
%TO.N,CS2*%
X96371012Y35059200D03*
%TO.P,U13,2*%
%TO.N,N/C*%
X96371012Y34259200D03*
%TO.P,U13,1*%
%TO.N,SCL*%
X96371012Y33459200D03*
%TD*%
D10*
%TO.P,BUZZER1,2*%
%TO.N,$2N11019*%
X94404304Y56273206D03*
%TO.P,BUZZER1,1*%
%TO.N,+3V3*%
X94404304Y54873206D03*
%TD*%
D13*
%TO.P,D5,2*%
%TO.N,$2N11019*%
X87324350Y56344139D03*
%TO.P,D5,1*%
%TO.N,+3V3*%
X85924350Y56344139D03*
%TD*%
D14*
%TO.P,Q1,1*%
%TO.N,$2N11066*%
X86652280Y52686674D03*
%TO.P,Q1,2*%
%TO.N,GND*%
X85786280Y54186674D03*
%TO.P,Q1,3*%
%TO.N,$2N11019*%
X87518280Y54186674D03*
%TD*%
D10*
%TO.P,R21,2*%
%TO.N,GND*%
X85952280Y50765674D03*
%TO.P,R21,1*%
%TO.N,$2N11066*%
X87352280Y50765674D03*
%TD*%
D13*
%TO.P,R20,2*%
%TO.N,$2N11066*%
X87415064Y48742282D03*
%TO.P,R20,1*%
%TO.N,BUZZ*%
X86015064Y48742282D03*
%TD*%
D14*
%TO.P,H1,1*%
%TO.N,+3V3*%
X97032379Y45117874D03*
%TO.P,H1,2*%
%TO.N,USART1_TX*%
X98276879Y44602374D03*
%TO.P,H1,3*%
%TO.N,+3V3*%
X98792379Y43357874D03*
%TO.P,H1,4*%
%TO.N,USART1_RX*%
X98276879Y42113374D03*
%TO.P,H1,5*%
%TO.N,GND*%
X97032379Y41597874D03*
%TO.P,H1,6*%
%TO.N,SWDIO*%
X95787879Y42113374D03*
%TO.P,H1,7*%
%TO.N,GND*%
X95272379Y43357874D03*
%TO.P,H1,8*%
%TO.N,SWCLK*%
X95787879Y44602374D03*
%TD*%
D17*
%TO.P,SCREW1,1*%
%TO.N,N/C*%
X3102430Y98942070D03*
%TD*%
%TO.P,SCREW2,1*%
%TO.N,N/C*%
X92714379Y24316944D03*
%TD*%
%TO.P,SCREW3,1*%
%TO.N,N/C*%
X96125236Y80387444D03*
%TD*%
%TO.P,SCREW4,1*%
%TO.N,N/C*%
X3369879Y29505801D03*
%TD*%
D14*
%TO.P,Q2,1*%
%TO.N,+3V3*%
X96519143Y17958803D03*
%TO.P,Q2,2*%
%TO.N,PWM4C*%
X95019143Y17092803D03*
%TO.P,Q2,3*%
%TO.N,$1N15768*%
X95019143Y18824803D03*
%TD*%
%TO.P,Q3,1*%
%TO.N,+3V3*%
X43632590Y15576163D03*
%TO.P,Q3,2*%
%TO.N,PWM3C*%
X44498590Y14076163D03*
%TO.P,Q3,3*%
%TO.N,$1N16087*%
X42766590Y14076163D03*
%TD*%
%TO.P,Q4,1*%
%TO.N,+3V3*%
X96885000Y87122000D03*
%TO.P,Q4,2*%
%TO.N,PWM2C*%
X95385000Y86256000D03*
%TO.P,Q4,3*%
%TO.N,$1N16294*%
X95385000Y87988000D03*
%TD*%
%TO.P,Q5,1*%
%TO.N,+3V3*%
X43473434Y87538291D03*
%TO.P,Q5,2*%
%TO.N,PWM1C*%
X42607434Y89038291D03*
%TO.P,Q5,3*%
%TO.N,$1N16459*%
X44339434Y89038291D03*
%TD*%
D13*
%TO.P,R27,2*%
%TO.N,PWM4C*%
X98552000Y17207000D03*
%TO.P,R27,1*%
%TO.N,+3V3*%
X98552000Y18607000D03*
%TD*%
%TO.P,R28,2*%
%TO.N,$1N15768*%
X92843507Y17140439D03*
%TO.P,R28,1*%
%TO.N,7.4V*%
X92843507Y18540439D03*
%TD*%
%TO.P,R29,2*%
%TO.N,PWM3C*%
X40838590Y13972876D03*
%TO.P,R29,1*%
%TO.N,+3V3*%
X40838590Y15372876D03*
%TD*%
D10*
%TO.P,R30,2*%
%TO.N,$1N16087*%
X46149984Y15360410D03*
%TO.P,R30,1*%
%TO.N,7.4V*%
X46149984Y13960410D03*
%TD*%
D13*
%TO.P,R31,2*%
%TO.N,PWM2C*%
X98806000Y86549000D03*
%TO.P,R31,1*%
%TO.N,+3V3*%
X98806000Y87949000D03*
%TD*%
%TO.P,R32,2*%
%TO.N,$1N16294*%
X93114782Y86465167D03*
%TO.P,R32,1*%
%TO.N,7.4V*%
X93114782Y87865167D03*
%TD*%
D10*
%TO.P,R33,2*%
%TO.N,PWM1C*%
X42840896Y85544444D03*
%TO.P,R33,1*%
%TO.N,+3V3*%
X44240896Y85544444D03*
%TD*%
%TO.P,R34,2*%
%TO.N,$1N16459*%
X42519434Y91332291D03*
%TO.P,R34,1*%
%TO.N,7.4V*%
X43919434Y91332291D03*
%TD*%
D14*
%TO.P,X2,1*%
%TO.N,OSC_OUT*%
X60137741Y49636667D03*
%TO.P,X2,2*%
%TO.N,GND*%
X59137741Y48636667D03*
%TO.P,X2,3*%
%TO.N,OSC_IN*%
X58137741Y49636667D03*
%TO.P,X2,4*%
%TO.N,GND*%
X59137741Y50636667D03*
%TD*%
D10*
%TO.P,X3,1*%
%TO.N,OSC32_IN*%
X59728974Y54679031D03*
%TO.P,X3,2*%
%TO.N,OSC32_OUT*%
X59728974Y53279031D03*
%TD*%
D14*
%TO.P,H2,1*%
%TO.N,GND*%
X96415280Y5723534D03*
%TO.P,H2,2*%
%TO.N,7.4V*%
X94915280Y4857534D03*
%TO.P,H2,3*%
%TO.N,$1N15768*%
X94915280Y6589534D03*
%TD*%
%TO.P,H3,1*%
%TO.N,GND*%
X40507625Y5760575D03*
%TO.P,H3,2*%
%TO.N,7.4V*%
X39007625Y4894575D03*
%TO.P,H3,3*%
%TO.N,$1N16087*%
X39007625Y6626575D03*
%TD*%
%TO.P,H4,1*%
%TO.N,GND*%
X96474246Y97252488D03*
%TO.P,H4,2*%
%TO.N,7.4V*%
X94974246Y96386488D03*
%TO.P,H4,3*%
%TO.N,$1N16294*%
X94974246Y98118488D03*
%TD*%
%TO.P,H5,1*%
%TO.N,GND*%
X40040069Y97390702D03*
%TO.P,H5,2*%
%TO.N,7.4V*%
X38540069Y96524702D03*
%TO.P,H5,3*%
%TO.N,$1N16459*%
X38540069Y98256702D03*
%TD*%
%TO.P,U15,8*%
%TO.N,GND*%
X87436371Y69933606D03*
%TO.P,U15,7*%
%TO.N,IRQ*%
X86191871Y70449106D03*
%TO.P,U15,6*%
%TO.N,MISO*%
X85676371Y71693606D03*
%TO.P,U15,5*%
%TO.N,MOSI*%
X86191871Y72938106D03*
%TO.P,U15,4*%
%TO.N,SPI-SCLK*%
X87436371Y73453606D03*
%TO.P,U15,3*%
%TO.N,CSN*%
X88680871Y72938106D03*
%TO.P,U15,2*%
%TO.N,CE*%
X89196371Y71693606D03*
%TO.P,U15,1*%
%TO.N,+3V3*%
X88680871Y70449106D03*
%TD*%
%TO.P,DC1,1*%
%TO.N,$2N6889*%
X24894690Y12274471D03*
%TO.P,DC1,2*%
%TO.N,GND*%
X25760690Y10774471D03*
%TO.P,DC1,3*%
X24028690Y10774471D03*
%TD*%
D18*
%TO.N,CC1*%
X5193200Y12823400D03*
X7225200Y14728400D03*
%TO.N,VDDA*%
X57421100Y40373700D03*
X64914000Y45683100D03*
%TO.N,12V*%
X42926000Y70739000D03*
%TO.N,+3V3*%
X35038200Y31492400D03*
X48500200Y31492400D03*
X65772200Y24553400D03*
X55103500Y45335400D03*
X56091500Y46302500D03*
%TO.N,12V*%
X61665900Y21028000D03*
X61617500Y22933800D03*
X54412800Y20931300D03*
X54283800Y22858500D03*
X80651400Y82883100D03*
X80578200Y84098000D03*
X81695600Y84108700D03*
X74789200Y81276400D03*
X73226200Y81276400D03*
X73226200Y83774200D03*
X74662200Y83816400D03*
X58728800Y82006200D03*
X58750300Y83923400D03*
X57235000Y83937400D03*
X50532200Y81276400D03*
X50532200Y83552800D03*
%TO.N,7.4V*%
X29704200Y99183400D03*
X29704200Y100539800D03*
X31609200Y99183400D03*
X31355200Y100326400D03*
%TO.N,PWM1B*%
X76403700Y58764100D03*
%TO.N,SCL*%
X85330200Y41398400D03*
X85457200Y39747400D03*
%TO.N,PWM1B*%
X64643000Y54248600D03*
X53594000Y73914000D03*
%TO.N,PWM1A*%
X65405000Y53721000D03*
X54864000Y73914000D03*
%TO.N,PWM2A*%
X73484600Y53346000D03*
X73604000Y59769500D03*
%TO.N,PWM2B*%
X72731100Y54300700D03*
X72894600Y60238500D03*
%TO.N,CS1*%
X82296000Y38100000D03*
X89281000Y36576000D03*
%TO.N,CS2*%
X82104400Y41185400D03*
X91464200Y37749200D03*
%TO.N,B3B*%
X66817400Y33702700D03*
%TO.N,B3A*%
X68199000Y33655000D03*
%TO.N,B4B*%
X71247000Y33655000D03*
%TO.N,SDA*%
X72263000Y33274000D03*
%TO.N,+3V3*%
X41656000Y12700000D03*
%TO.N,PWM3C*%
X42418000Y16764000D03*
X74362100Y34800500D03*
%TO.N,PWM3A*%
X56769000Y33020000D03*
X56747800Y30556000D03*
%TO.N,PWM3B*%
X58039000Y33147000D03*
X58017800Y30458800D03*
%TO.N,+3V3*%
X76591500Y29453500D03*
X81407000Y32512000D03*
X64135000Y37084000D03*
X63500000Y33274000D03*
X48514000Y76200000D03*
X42926000Y84201000D03*
%TO.N,PWM1C*%
X45720000Y85417400D03*
X61912500Y69659500D03*
%TO.N,B1A*%
X65786000Y78867000D03*
X70411800Y61699800D03*
X74625000Y50237600D03*
%TO.N,B1B*%
X66675000Y78994000D03*
X71060900Y60639500D03*
X74645800Y51289900D03*
%TO.N,B2A*%
X68580000Y78994000D03*
X73742300Y62050500D03*
X79351000Y47566100D03*
%TO.N,B2B*%
X69596000Y78994000D03*
X74452200Y62659400D03*
X79915700Y48289300D03*
%TO.N,+3V3*%
X64389000Y72771000D03*
X70993000Y72644000D03*
X76454000Y72644000D03*
X80264000Y72644000D03*
%TO.N,$2N11066*%
X82280500Y46084700D03*
X87648100Y47431500D03*
%TO.N,$1N3970*%
X1891200Y43684400D03*
%TO.N,$1N5797*%
X35163900Y43576100D03*
%TO.N,GND*%
X94488000Y34009300D03*
X88392000Y32258000D03*
X89535000Y28448000D03*
X94234000Y28448000D03*
X98291900Y28448000D03*
X86106000Y29718000D03*
X98062100Y49330400D03*
X99334100Y49330400D03*
X96769900Y49330400D03*
X95391000Y49330400D03*
X93744100Y45901400D03*
X93744100Y43789400D03*
X87986800Y61171000D03*
X86577000Y61208600D03*
X83594200Y53666600D03*
X83449300Y55419900D03*
X83437000Y57930100D03*
X88591600Y50032000D03*
X92452000Y48456100D03*
X91403700Y49725500D03*
X89043100Y52563900D03*
X90069200Y50981400D03*
X82396800Y52646500D03*
X86547500Y62344900D03*
X84164700Y62369100D03*
X84213800Y61076200D03*
X82150900Y64516000D03*
X89018900Y62566700D03*
X85473000Y64794200D03*
X81987600Y62393300D03*
X82009700Y61175700D03*
X93515500Y95317800D03*
X92611100Y95309800D03*
X76327000Y91694000D03*
%TO.N,$1N5054*%
X77775600Y91694000D03*
%TO.N,GND*%
X79106800Y91694000D03*
X79106800Y90824500D03*
X77775600Y90824500D03*
X76327000Y90805000D03*
%TO.N,$1N5347*%
X53786800Y91821000D03*
%TO.N,GND*%
X52338200Y91821000D03*
X52338200Y90932000D03*
X53786800Y90951500D03*
X55085700Y90838600D03*
X55118000Y91821000D03*
X57723800Y14097000D03*
X56275200Y14097000D03*
X56275200Y13208000D03*
%TO.N,$1N4761*%
X57723800Y13227500D03*
%TO.N,GND*%
X59055000Y13227500D03*
X59055000Y14097000D03*
X79694800Y14478000D03*
X78246200Y14478000D03*
X78246200Y13589000D03*
%TO.N,$1N1291*%
X79694800Y13608500D03*
%TO.N,GND*%
X81026000Y13608500D03*
X81026000Y14478000D03*
X57023000Y57150000D03*
X54737000Y54864000D03*
X54737000Y52568100D03*
X51562000Y50800000D03*
X51562000Y48768000D03*
X50070300Y47669500D03*
X57404000Y62230000D03*
X56515000Y66802000D03*
X55626000Y65278000D03*
X56261000Y49784000D03*
X13843000Y27051000D03*
X13829200Y29429800D03*
X13829200Y31788300D03*
X13829200Y34981500D03*
X13829200Y37049800D03*
X13829200Y39698600D03*
X25654000Y39751000D03*
X25908000Y36830000D03*
X25908000Y34671000D03*
X26162000Y30734000D03*
X26162000Y27434000D03*
X26162000Y24765000D03*
X11938000Y63754000D03*
X11938000Y59914300D03*
X11938000Y57150000D03*
X19685000Y57150000D03*
X19685000Y60621900D03*
X19685000Y64135000D03*
X28194000Y63881000D03*
X28434400Y60839600D03*
X28434400Y57301700D03*
X16383000Y84582000D03*
X24638000Y84963000D03*
X24885300Y78542500D03*
X24885300Y75548900D03*
X25019000Y72517000D03*
X16129000Y82804000D03*
X16002000Y79248000D03*
X16129000Y75057000D03*
X16002000Y72009000D03*
X3683000Y71628000D03*
X3556000Y75819000D03*
X3429000Y83058000D03*
X3429000Y86870000D03*
X35306000Y80264000D03*
X35306000Y74786900D03*
X35306000Y77617200D03*
X35306000Y71628000D03*
X34671000Y37846000D03*
X34671000Y35052000D03*
X34671000Y33401000D03*
X50056100Y62048600D03*
X50038000Y59309000D03*
X50038000Y53267400D03*
X50038000Y56515000D03*
X34671000Y61341000D03*
X34544000Y57658000D03*
X34798000Y53467000D03*
X34544000Y50292000D03*
X41275000Y50292000D03*
X41402000Y58039000D03*
X41402000Y62865000D03*
X8128000Y20574000D03*
%TO.N,VDD*%
X7000600Y20574000D03*
%TO.N,GND*%
X8177900Y19681400D03*
X7000600Y19681400D03*
X8382000Y22860000D03*
X6968300Y22860000D03*
X2667000Y10795000D03*
X10795000Y10719000D03*
%TO.N,$2N6027*%
X6968300Y18670400D03*
%TO.N,CC1*%
X8128000Y18669000D03*
%TO.N,12V*%
X44196000Y70739000D03*
X45466000Y70739000D03*
X46736000Y70739000D03*
X42926000Y72009000D03*
X44196000Y72009000D03*
X45466000Y72009000D03*
X46736000Y72009000D03*
X42926000Y73279000D03*
X44196000Y73279000D03*
X45466000Y73279000D03*
X46736000Y73279000D03*
X42926000Y74549000D03*
X44196000Y74549000D03*
X45466000Y74549000D03*
X46736000Y74549000D03*
X6985000Y89916000D03*
X8255000Y89916000D03*
X9525000Y89916000D03*
X10795000Y89916000D03*
X10795000Y91186000D03*
X9525000Y91186000D03*
X8255000Y91186000D03*
X6985000Y91186000D03*
X6985000Y92456000D03*
X8255000Y92456000D03*
X9525000Y92456000D03*
X10795000Y92456000D03*
X10795000Y93726000D03*
X9525000Y93726000D03*
X8255000Y93726000D03*
X6985000Y93726000D03*
X42799000Y75819000D03*
X44069000Y75819000D03*
X45339000Y75819000D03*
X46609000Y75819000D03*
X46609000Y77089000D03*
X45339000Y77089000D03*
X44069000Y77089000D03*
X42799000Y77089000D03*
X42799000Y78359000D03*
X44069000Y78359000D03*
X45339000Y78359000D03*
X45339000Y79629000D03*
X44069000Y79629000D03*
X42799000Y79629000D03*
%TO.N,B1A*%
X65786000Y85602600D03*
X65786000Y92583000D03*
%TO.N,B1B*%
X66675000Y85602600D03*
X66675000Y92710000D03*
%TO.N,B2A*%
X68707000Y85602600D03*
X68707000Y92710000D03*
%TO.N,B2B*%
X69596000Y85602600D03*
X69596000Y90297000D03*
%TO.N,+3V3*%
X67743900Y85574400D03*
X67743900Y92837000D03*
X91186000Y91567000D03*
%TO.N,GND*%
X64008000Y51689000D03*
X65405000Y44323000D03*
%TO.N,+3V3*%
X65278100Y36703000D03*
%TO.N,GND*%
X69723000Y37211000D03*
%TO.N,$2N2977*%
X75692000Y37465000D03*
%TO.N,GND*%
X77724000Y37211000D03*
X76292700Y54382500D03*
X65659000Y58801000D03*
X64065100Y40013900D03*
%TO.N,+3V3*%
X33655000Y28321000D03*
X31115000Y30353000D03*
%TO.N,GND*%
X27432000Y24765000D03*
X85979000Y35179000D03*
X50020500Y45904900D03*
%TO.N,+3V3*%
X51587900Y47772600D03*
%TO.N,GND*%
X18028000Y87363900D03*
X22938600Y87339700D03*
X15246000Y81171100D03*
X24220700Y81364700D03*
X12833000Y42073300D03*
X26428100Y42097500D03*
X31242000Y43258600D03*
X1663100Y42369600D03*
X11303000Y32245900D03*
X28429900Y32064500D03*
X12319000Y23972800D03*
X3247600Y23319600D03*
X33660400Y16297700D03*
X34712700Y24244200D03*
%TO.N,12V*%
X50566500Y82469200D03*
X57149000Y81988100D03*
X58698500Y82918700D03*
X57204100Y82929500D03*
X73223600Y82520900D03*
X74685700Y82510200D03*
X81770900Y82811200D03*
X82910500Y82811200D03*
X82878300Y83983100D03*
X81792400Y81822100D03*
%TO.N,GND*%
X58501000Y77855500D03*
X82831200Y77877000D03*
X57449400Y85624000D03*
X59009600Y85660300D03*
X60533600Y85624000D03*
X61404500Y85624000D03*
X60090200Y79141000D03*
X61602100Y79153100D03*
X63037400Y79185300D03*
X64392000Y79177300D03*
X50228500Y85224900D03*
X48559400Y85261200D03*
X47253100Y85261200D03*
X51256600Y78923300D03*
X49785000Y77455700D03*
X71020200Y79020000D03*
X72249900Y78995800D03*
X73540100Y79012000D03*
X74668900Y78983800D03*
X70850900Y85680500D03*
X71999900Y85660300D03*
X73233600Y85624000D03*
X74394800Y85587800D03*
X81780900Y85591800D03*
X83030800Y85559500D03*
X84599100Y85583700D03*
X85921500Y85503100D03*
X84429800Y79141000D03*
X85820800Y79124900D03*
X87453600Y79116800D03*
X62849900Y60490100D03*
X61962900Y61554500D03*
X60918700Y27889400D03*
X82270800Y27566900D03*
X74497600Y25696200D03*
X53193800Y25889700D03*
%TO.N,12V*%
X60628400Y22942500D03*
X60709000Y21023400D03*
X53371200Y20926600D03*
X54435600Y21781300D03*
X53339000Y21749100D03*
X61612100Y21926500D03*
X60676800Y21910400D03*
%TO.N,GND*%
X49456400Y24452400D03*
X50786900Y24404000D03*
X50351500Y19203000D03*
X51681900Y19299800D03*
X53254300Y19299800D03*
X61237200Y19493300D03*
X62253200Y19493300D03*
X63438500Y19469100D03*
X61503300Y24379800D03*
X62857900Y24355600D03*
X71173400Y24512800D03*
X72588600Y24500800D03*
X71391100Y19426800D03*
X72872800Y19426800D03*
X74203300Y19414700D03*
X75400700Y19402600D03*
X82542900Y21102000D03*
X84175800Y19608200D03*
X85651400Y18283800D03*
X82899800Y11099200D03*
X83734300Y9889700D03*
X84599100Y8783000D03*
X86933500Y17025900D03*
X88034200Y15888900D03*
X85439800Y7984700D03*
X82177600Y25571400D03*
X82274300Y24144200D03*
X75767100Y25716600D03*
X75791300Y24555400D03*
X54406900Y25958500D03*
X54431100Y24216800D03*
X60430300Y25765000D03*
X60527100Y24507100D03*
X41380300Y54016400D03*
X50016300Y49916100D03*
X51891100Y52976200D03*
X51963700Y55201800D03*
X52012100Y59217400D03*
X54165000Y59120600D03*
%TO.N,NRST*%
X55100400Y68941900D03*
%TO.N,GND*%
X58991000Y87173500D03*
X60732700Y88697500D03*
X62474400Y90439200D03*
X58805500Y94632200D03*
X57870200Y93487200D03*
X56696900Y92015600D03*
X52399100Y90076400D03*
X51201700Y92072100D03*
X50548500Y93438800D03*
X45420100Y89967500D03*
X46907900Y88661200D03*
X48395600Y87137200D03*
X71134600Y88703500D03*
X72392500Y87373100D03*
X74572600Y93296800D03*
X75303400Y92348200D03*
X80423800Y92130500D03*
X81641400Y93017500D03*
X82875100Y94517300D03*
X83818500Y95476900D03*
X87463200Y91267700D03*
X86374600Y90009800D03*
X84971600Y88897100D03*
X83084700Y87203700D03*
X25061600Y96628200D03*
X22285700Y96573800D03*
X19346600Y96573800D03*
X16679600Y96519300D03*
X14556900Y96464900D03*
X37906700Y94940900D03*
X39503300Y92981500D03*
X83753700Y74741900D03*
X81471800Y75782100D03*
X82395000Y73427500D03*
X83065400Y65926900D03*
X75081500Y74040300D03*
X72033500Y74076600D03*
X73569500Y71605200D03*
X71271500Y71544700D03*
X64522300Y70520600D03*
X64486000Y74911200D03*
X64449700Y76979500D03*
X70690900Y77160900D03*
X70727200Y75020100D03*
X78008500Y61231500D03*
X76359500Y52696300D03*
X70731200Y52139900D03*
X70053900Y51341600D03*
X66215600Y51930200D03*
X66308400Y53587300D03*
X64361000Y55704000D03*
X70650600Y49910300D03*
X65788300Y63940800D03*
X62002500Y62949000D03*
X63381300Y66904100D03*
X65195600Y64993100D03*
X56970800Y68186200D03*
X55688800Y69637700D03*
X58349700Y75201500D03*
X59752800Y73943600D03*
X50741800Y76157000D03*
X90988700Y35692400D03*
X88231000Y38885500D03*
X68376700Y24673600D03*
X68376700Y26524200D03*
X69102400Y27903100D03*
X71533500Y30624500D03*
X62861200Y25617100D03*
X62861200Y27032200D03*
X68340400Y13533900D03*
X68412900Y15130500D03*
X68412900Y16400500D03*
X63296700Y17416500D03*
X63260400Y18396200D03*
X54787700Y11120900D03*
X67347100Y6498400D03*
X41661300Y10717200D03*
X39701900Y12023500D03*
X44999600Y12676700D03*
X46124400Y11696900D03*
X21151600Y5532800D03*
X22635300Y5532800D03*
X24183500Y5549000D03*
X29569900Y9096900D03*
X29505400Y10596700D03*
X29440900Y12225500D03*
X32083700Y14636500D03*
X31970800Y18216700D03*
X33857700Y18216700D03*
X33426300Y24220000D03*
X26120800Y26155200D03*
X27330300Y26227800D03*
X34881800Y28324300D03*
X92576400Y94098700D03*
X93544000Y94074500D03*
X48779600Y95223600D03*
X49686700Y95259800D03*
X49686700Y94389000D03*
X50811600Y95320300D03*
X85291100Y77536300D03*
X88529900Y77379000D03*
X82892200Y76226000D03*
X74554500Y76258200D03*
X74627100Y77673400D03*
X51222800Y74480200D03*
X49807700Y74081100D03*
X54452200Y56990500D03*
X69752700Y35739200D03*
X79162800Y37190600D03*
X77808100Y35690800D03*
X79307900Y35690800D03*
X84908000Y35194900D03*
X98370000Y27123300D03*
X94233500Y27123300D03*
X89492100Y27050800D03*
X87387600Y27026600D03*
X87411800Y28357000D03*
X83601800Y25619500D03*
X83730800Y24022900D03*
X69950300Y24587400D03*
X60733700Y26861300D03*
X61870600Y28699700D03*
X50936600Y26014600D03*
X12180400Y16513800D03*
X10172600Y14433400D03*
X7632600Y12474000D03*
X1875200Y24823200D03*
%TO.N,MOSI*%
X68040400Y61980100D03*
X81506400Y68469100D03*
%TO.N,MISO*%
X82157200Y67801400D03*
X69041800Y61872500D03*
%TO.N,PWM2C*%
X79317300Y63582900D03*
X81388600Y63585900D03*
%TO.N,MISO*%
X82392000Y69202100D03*
X67318500Y54119000D03*
%TO.N,GND*%
X81412300Y67148500D03*
X72139200Y62294300D03*
%TO.N,CSN*%
X81521000Y69890500D03*
X66696200Y62649500D03*
%TO.N,CE*%
X82096300Y70960000D03*
X66985300Y63856000D03*
%TO.N,USART2_TX*%
X77528800Y59743600D03*
X79052800Y60310700D03*
%TO.N,GND*%
X47918400Y14088900D03*
X49623800Y15576600D03*
X51256700Y17173100D03*
X53724100Y11113400D03*
X52309000Y9154000D03*
X50930100Y7666300D03*
X76402700Y10823100D03*
X70415500Y14959700D03*
X72193500Y16846600D03*
X73536100Y18044000D03*
X75350400Y9988600D03*
X77092100Y8972600D03*
%TD*%
%TO.N,GND*%
D19*
X12305200Y21087100D02*
X11875200Y20657000D01*
X11875200Y20657000D02*
X10629600Y20657000D01*
%TO.N,VBUS*%
X10629600Y19657000D02*
X12399200Y19657000D01*
X12399200Y19657000D02*
X13829200Y21087100D01*
%TO.N,VDD*%
X1846700Y19668900D02*
X1846700Y21603900D01*
X1846700Y21603900D02*
X1891200Y21648400D01*
X4629400Y21657000D02*
X1899900Y21657000D01*
X1899900Y21657000D02*
X1891200Y21648400D01*
X1846700Y12692500D02*
X1846700Y17922900D01*
X4444200Y10095000D02*
X1846700Y12692500D01*
X4444200Y9508500D02*
X4444200Y10095000D01*
%TO.N,VBUS*%
D20*
X9244300Y9508500D02*
X9244300Y10397500D01*
X9244300Y10397500D02*
X9638200Y10791400D01*
D21*
X9244300Y9508500D02*
X9244300Y8842600D01*
X9244300Y8842600D02*
X9066700Y8665100D01*
X9066700Y8665100D02*
X9066700Y7553000D01*
%TO.N,VDD*%
D19*
X4444200Y8814700D02*
X4444200Y9508500D01*
X4599100Y8659800D02*
X4444200Y8814700D01*
X4599100Y7403300D02*
X4599100Y8659800D01*
%TO.N,$2N6027*%
D22*
X6328700Y8609500D02*
X6859800Y8609500D01*
%TO.N,$2N6021*%
X7606200Y9520400D02*
X7606200Y10160900D01*
X7594300Y9508500D02*
X7606200Y9520400D01*
%TO.N,$2N6027*%
X6082200Y8855900D02*
X6328700Y8609500D01*
X6082200Y9496600D02*
X6082200Y8855900D01*
X6094100Y9508500D02*
X6082200Y9496600D01*
X7094100Y8843800D02*
X7094100Y9508500D01*
X6859800Y8609500D02*
X7094100Y8843800D01*
%TO.N,$2N6021*%
X5073900Y18657000D02*
X4629400Y18657000D01*
X7606200Y10160900D02*
X7359700Y10407500D01*
X6590200Y10407500D02*
X6590200Y17140700D01*
X6590200Y17140700D02*
X5073900Y18657000D01*
%TO.N,$2N6027*%
X5499800Y17657000D02*
X4629400Y17657000D01*
%TO.N,$2N6021*%
X7359700Y10407500D02*
X6590200Y10407500D01*
X6594300Y9508500D02*
X6590200Y9512500D01*
X6590200Y9512500D02*
X6590200Y10407500D01*
%TO.N,$2N6027*%
X6094100Y9508500D02*
X6094100Y17062700D01*
X6094100Y17062700D02*
X5499800Y17657000D01*
%TO.N,CC1*%
D19*
X10019200Y18792400D02*
X10494200Y18792400D01*
X10494200Y18792400D02*
X10629600Y18657000D01*
%TO.N,CC2*%
X8594300Y9508500D02*
X8594300Y16605500D01*
X8594300Y16605500D02*
X9645800Y17657000D01*
X9645800Y17657000D02*
X10629400Y17657000D01*
%TO.N,$1N3970*%
X10468300Y43752500D02*
X10468300Y45462400D01*
X6489600Y39773800D02*
X10468300Y43752500D01*
X2536900Y39773800D02*
X6489600Y39773800D01*
%TO.N,$1N5797*%
X29069200Y41779400D02*
X30350300Y40498400D01*
X29069200Y45949500D02*
X29069200Y41779400D01*
X28794200Y46224400D02*
X29069200Y45949500D01*
X30350300Y40498400D02*
X35137300Y40498400D01*
%TO.N,VIN*%
X25374400Y46224400D02*
X25197300Y46401600D01*
X25197300Y46401600D02*
X25197300Y49653400D01*
%TO.N,$1N2982*%
D23*
X13888200Y45462400D02*
X14159400Y45733700D01*
X14159400Y45733700D02*
X14159400Y49675600D01*
%TO.N,$2N11066*%
D24*
X85852800Y48560900D02*
X85852800Y50719600D01*
X85852800Y50719600D02*
X85898900Y50765700D01*
X85898900Y50765700D02*
X85702300Y50962300D01*
X85702300Y50962300D02*
X85702300Y52686700D01*
%TO.N,$1N1291*%
D23*
X79488200Y22373300D02*
X79488200Y18463400D01*
X79488200Y18463400D02*
X79361200Y18336400D01*
%TO.N,$1N4761*%
X58017800Y22377900D02*
X58017800Y18406600D01*
X58017800Y18406600D02*
X57900300Y18289000D01*
%TO.N,GND*%
D25*
X80758200Y22373300D02*
X80758200Y20951400D01*
X80758200Y20951400D02*
X89140200Y12569400D01*
X89140200Y12569400D02*
X89140200Y5838400D01*
%TO.N,$1N4759*%
X56747800Y22377900D02*
X56747800Y20055000D01*
X56747800Y20055000D02*
X45960200Y9267400D01*
X45960200Y9267400D02*
X45960200Y5838400D01*
%TO.N,GND*%
D26*
X56030800Y48747700D02*
X58023700Y48747700D01*
X58023700Y48747700D02*
X58037700Y48761600D01*
%TO.N,OSC_IN*%
X56609900Y50742600D02*
X56051800Y50742600D01*
X57232600Y51365300D02*
X56609900Y50742600D01*
X58842700Y51365300D02*
X57232600Y51365300D01*
X59465400Y50742600D02*
X58842700Y51365300D01*
X60007000Y50742600D02*
X59465400Y50742600D01*
%TO.N,GND*%
X59784300Y52668100D02*
X57743100Y52668100D01*
X60153700Y52298600D02*
X59784300Y52668100D01*
%TO.N,+3V3*%
X64217700Y59477600D02*
X64217700Y57266500D01*
X64217700Y57266500D02*
X64269700Y57214500D01*
X62719800Y53164700D02*
X61998900Y53164700D01*
X65269700Y42114700D02*
X65269700Y40097900D01*
%TO.N,GND*%
X69888700Y40003900D02*
X69769900Y40122800D01*
X69769900Y40122800D02*
X69769900Y42114700D01*
%TO.N,$2N2977*%
X75769800Y42114700D02*
X75769800Y40293900D01*
X75769800Y40293900D02*
X75598500Y40122600D01*
%TO.N,+3V3*%
X76269700Y42114700D02*
X76269700Y41185300D01*
X76269700Y41185300D02*
X77377400Y40077600D01*
X77377400Y40077600D02*
X77762700Y40077600D01*
%TO.N,GND*%
X77819600Y54664600D02*
X80429600Y54664600D01*
X80429600Y54664600D02*
X80932500Y54161600D01*
%TO.N,+3V3*%
X77819600Y55664600D02*
X80395700Y55664600D01*
X80395700Y55664600D02*
X80872700Y56141600D01*
X80810700Y56203600D02*
X80872700Y56141600D01*
%TO.N,VDDA*%
X54373000Y43332200D02*
X56532000Y43332200D01*
X56532000Y43332000D02*
X60342000Y43332000D01*
X62709200Y45175100D02*
X62719800Y45164500D01*
X64914000Y45683100D02*
X62738300Y45683100D01*
X62738300Y45683100D02*
X62719800Y45664600D01*
%TO.N,$2N3034*%
D19*
X60563000Y60323900D02*
X60592400Y60294500D01*
%TO.N,NRST*%
X52824900Y62546300D02*
X52967000Y62404100D01*
X52824900Y71128700D02*
X52824900Y66828700D01*
%TO.N,$2N3034*%
X60563000Y71255700D02*
X60563000Y66955700D01*
X60563000Y66955700D02*
X60563000Y60323900D01*
%TO.N,$1N5054*%
D23*
X77702800Y86986600D02*
X77712300Y86996000D01*
X77702800Y81383100D02*
X77702800Y86986600D01*
%TO.N,$1N950*%
D25*
X78218200Y22373300D02*
X78218200Y20189400D01*
X78218200Y20189400D02*
X70090200Y12061400D01*
X70090200Y12061400D02*
X70090200Y5838400D01*
%TO.N,VIN*%
X28652900Y16379400D02*
X28652900Y18750300D01*
X28652900Y18750300D02*
X28497700Y18905500D01*
%TO.N,+3V3*%
X30489400Y24928700D02*
X30489400Y26008500D01*
D23*
X30489400Y26008500D02*
X30489400Y27897700D01*
D25*
X30847200Y24570900D02*
X30489400Y24928700D01*
X34212700Y21205400D02*
X30847200Y24570900D01*
X28497700Y21205400D02*
X29553600Y21205400D01*
X29553600Y21205400D02*
X30466200Y22118100D01*
X30466200Y22118100D02*
X30466200Y24189900D01*
X30466200Y24189900D02*
X30847200Y24570900D01*
%TO.N,VIN*%
X23227200Y23618400D02*
X22592200Y23618400D01*
X26021200Y20824400D02*
X23227200Y23618400D01*
X28652900Y16379400D02*
X27418200Y16379400D01*
X27418200Y16379400D02*
X26021200Y17776400D01*
X26021200Y17776400D02*
X26021200Y20824400D01*
%TO.N,$1N5347*%
D23*
X53572800Y81256100D02*
X53572800Y87216600D01*
X53572800Y87216600D02*
X53707200Y87216600D01*
%TO.N,$1N5348*%
D25*
X52302800Y81256100D02*
X52302800Y85474800D01*
X52302800Y85474800D02*
X45071200Y92706400D01*
X45071200Y92706400D02*
X45071200Y97405400D01*
%TO.N,$1N5345*%
X54842800Y81256100D02*
X54842800Y85357800D01*
X54842800Y85357800D02*
X64121200Y94636200D01*
X64121200Y94636200D02*
X64121200Y97405400D01*
%TO.N,$1N5052*%
X78972800Y81383100D02*
X78972800Y85206000D01*
X78972800Y85206000D02*
X89140200Y95373400D01*
X89140200Y95373400D02*
X89140200Y97405400D01*
%TO.N,+3V3*%
D23*
X64217700Y59477600D02*
X62493400Y59477600D01*
X62493400Y59477600D02*
X59944100Y56928300D01*
X48500200Y71243400D02*
X50024200Y72767400D01*
X56426500Y64356800D02*
X54473800Y62404100D01*
X54473800Y62398700D02*
X54473800Y62404100D01*
X59944100Y56928300D02*
X59350100Y57522400D01*
X59350100Y57522400D02*
X59350100Y57546500D01*
X59350100Y57546500D02*
X59112200Y57784300D01*
X59112200Y57784300D02*
X59088100Y57784300D01*
X59088100Y57784300D02*
X54473800Y62398700D01*
X48500200Y44802800D02*
X54302200Y44802800D01*
X54302200Y44802800D02*
X54373000Y44732000D01*
X48500200Y31492400D02*
X48500200Y44802800D01*
X58856400Y64356800D02*
X58412900Y64800400D01*
X58412900Y71255700D02*
X58412900Y66955700D01*
X59099900Y64356800D02*
X58856400Y64356800D01*
X58856400Y64356800D02*
X56426500Y64356800D01*
X58412900Y64800400D02*
X58412900Y66955700D01*
X56112800Y72767400D02*
X56112800Y75717900D01*
X50024200Y72767400D02*
X56112800Y72767400D01*
X58412900Y71255700D02*
X58412900Y72767400D01*
X58412900Y72767400D02*
X56112800Y72767400D01*
D26*
X55103500Y45335400D02*
X54500000Y44732000D01*
X54500000Y44732000D02*
X54373000Y44732000D01*
%TO.N,$2N3034*%
X59085600Y60294500D02*
X59398500Y60294500D01*
X59398500Y60294500D02*
X60084100Y59608900D01*
%TO.N,NRST*%
X62719800Y49164500D02*
X61854200Y49164500D01*
X52945200Y62382300D02*
X52967000Y62404100D01*
D19*
X52824900Y66828700D02*
X52824900Y62546300D01*
%TO.N,+3V3*%
D22*
X87785100Y33315200D02*
X87785100Y31487100D01*
X87785100Y31487100D02*
X87403200Y31105100D01*
%TO.N,$2N8508*%
X85258900Y33565600D02*
X87011200Y33565600D01*
X87011200Y33565600D02*
X87023100Y33577600D01*
%TO.N,$2N8534*%
X89547100Y34077700D02*
X90834000Y34077700D01*
X90834000Y34077700D02*
X91596000Y33315700D01*
X91596000Y33315700D02*
X91596000Y31202600D01*
%TO.N,+3V3*%
X89547100Y33577600D02*
X90083400Y33577600D01*
X90083400Y33577600D02*
X90580000Y33080900D01*
X90580000Y33080900D02*
X90580000Y32122900D01*
X90580000Y32122900D02*
X89562200Y31105100D01*
%TO.N,SDA*%
X84314200Y37715400D02*
X83552200Y38477400D01*
X83552200Y38477400D02*
X83433900Y38477400D01*
%TO.N,SCL*%
X85627400Y38604400D02*
X85483100Y38460200D01*
%TO.N,+3V3*%
X93896000Y34509100D02*
X93077200Y34509100D01*
X93077200Y34509100D02*
X92897600Y34329500D01*
X92897600Y34329500D02*
X92897600Y32393700D01*
X92897600Y32393700D02*
X94074000Y31217300D01*
X95363200Y32508400D02*
X95020900Y32850700D01*
X95020900Y32850700D02*
X95020900Y33384200D01*
X96366300Y32508400D02*
X95521100Y33353700D01*
X95521100Y33353700D02*
X95521100Y33384200D01*
X96366300Y32508400D02*
X95363200Y32508400D01*
%TO.N,$2N8540*%
X96125200Y31229800D02*
X94973600Y32381400D01*
X94973600Y32381400D02*
X94347200Y32381400D01*
X94347200Y32381400D02*
X94020900Y32707700D01*
X94020900Y32707700D02*
X94020900Y33384200D01*
%TO.N,SDA*%
X83433900Y38867100D02*
X83433900Y38477400D01*
%TO.N,+3V3*%
X85483100Y36953400D02*
X83451100Y36953400D01*
%TO.N,SDA*%
X87785100Y35340100D02*
X87785100Y36276500D01*
X87785100Y36276500D02*
X86346200Y37715400D01*
X86346200Y37715400D02*
X84314200Y37715400D01*
%TO.N,SCL*%
X88285000Y35340100D02*
X88285000Y36411700D01*
X88285000Y36411700D02*
X86092200Y38604400D01*
X86092200Y38604400D02*
X85627400Y38604400D01*
%TO.N,+3V3*%
D23*
X87403200Y31105100D02*
X89562200Y31105100D01*
X90971400Y29695800D02*
X91355800Y29695800D01*
X89562200Y31105100D02*
X90156200Y30511000D01*
X90156200Y30511000D02*
X90180400Y30511000D01*
X90180400Y30511000D02*
X90418200Y30273200D01*
X90418200Y30273200D02*
X90418200Y30249100D01*
X90418200Y30249100D02*
X90971400Y29695800D01*
D22*
X91355800Y29695800D02*
X91596000Y29695800D01*
D23*
X93117500Y31217300D02*
X91596000Y29695800D01*
X94074000Y31217300D02*
X93117500Y31217300D01*
X95568300Y29723100D02*
X96125200Y29723100D01*
X94074000Y31217300D02*
X94668100Y30623200D01*
X94668100Y30623200D02*
X94692200Y30623200D01*
X94692200Y30623200D02*
X94930000Y30385400D01*
X94930000Y30385400D02*
X94930000Y30361300D01*
X94930000Y30361300D02*
X95568300Y29723100D01*
X96125200Y29723100D02*
X97578600Y31176500D01*
X97578600Y31176500D02*
X97698300Y31176500D01*
X87403200Y31105100D02*
X86126800Y32381400D01*
X86126800Y32381400D02*
X84936300Y32381400D01*
X84936300Y32381400D02*
X83752200Y33565600D01*
X83451100Y36953400D02*
X83752200Y36652400D01*
X83752200Y36652400D02*
X83752200Y33565600D01*
X83433900Y36970700D02*
X81249000Y36970700D01*
X81249000Y36970700D02*
X78091200Y40128400D01*
X55477800Y31492400D02*
X55477800Y27916100D01*
%TO.N,VDDA*%
D26*
X60342000Y43332000D02*
X60706000Y43696000D01*
X60706000Y43696000D02*
X60706000Y44704000D01*
X60706000Y44704000D02*
X61177100Y45175100D01*
X61177100Y45175100D02*
X62709200Y45175100D01*
%TO.N,PWM3A*%
D22*
X62719800Y44664600D02*
X61428600Y44664600D01*
X61428600Y44664600D02*
X61036600Y44272600D01*
X61036600Y44272600D02*
X61036600Y42748600D01*
X61036600Y42748600D02*
X56769000Y38481000D01*
%TO.N,PWM3B*%
X62719800Y44164500D02*
X61690500Y44164500D01*
X61690500Y44164500D02*
X61468000Y43942000D01*
X61468000Y43942000D02*
X61468000Y42164000D01*
X61468000Y42164000D02*
X58039000Y38735000D01*
%TO.N,CS1*%
X78105000Y27770800D02*
X78218200Y27657600D01*
%TO.N,PWM4B*%
X79488200Y27657600D02*
X79502000Y27671300D01*
%TO.N,CS1*%
X77470000Y31877000D02*
X78105000Y31242000D01*
X78105000Y31242000D02*
X78105000Y27770800D01*
X66548000Y31877000D02*
X77470000Y31877000D01*
%TO.N,PWM1B*%
X53594000Y73914000D02*
X53572800Y73935200D01*
X53572800Y73935200D02*
X53572800Y75717900D01*
%TO.N,PWM1A*%
X62719800Y53664600D02*
X65016500Y53664600D01*
X65016500Y53664600D02*
X65036100Y53645000D01*
X54864000Y73914000D02*
X54864000Y75696700D01*
X54864000Y75696700D02*
X54842800Y75717900D01*
%TO.N,PWM2B*%
X77819600Y44664600D02*
X76747400Y44664600D01*
%TO.N,PWM2A*%
X77819600Y45164500D02*
X77063100Y45164500D01*
%TO.N,SCL*%
X85457200Y39747400D02*
X85457200Y38486100D01*
X85457200Y38486100D02*
X85483100Y38460200D01*
%TO.N,CS1*%
X89281000Y36576000D02*
X88785100Y36080100D01*
X88785100Y36080100D02*
X88785100Y35340100D01*
%TO.N,$1N16087*%
X39497000Y17399000D02*
X44164800Y17399000D01*
X44164800Y17399000D02*
X46150000Y15413800D01*
%TO.N,PWM3C*%
X40838600Y15426200D02*
X42532700Y15426200D01*
X42532700Y15426200D02*
X42682600Y15576200D01*
%TO.N,+3V3*%
X40838600Y13919500D02*
X40838600Y13517400D01*
X40838600Y13517400D02*
X41656000Y12700000D01*
X44582500Y15576200D02*
X44263000Y15576200D01*
X42606400Y13919500D02*
X40838600Y13919500D01*
X44263000Y15576200D02*
X42606400Y13919500D01*
%TO.N,PWM3C*%
X42682600Y15576200D02*
X42418000Y15840800D01*
X42418000Y15840800D02*
X42418000Y16764000D01*
%TO.N,$1N15768*%
X92843500Y18593800D02*
X93884100Y18593800D01*
X93884100Y18593800D02*
X94519100Y17958800D01*
X94519100Y17958800D02*
X95615100Y16862800D01*
X95615100Y16862800D02*
X95615100Y16543300D01*
X95615100Y16543300D02*
X95871200Y16287200D01*
%TO.N,+3V3*%
X96519100Y17008800D02*
X98407200Y17008800D01*
X98407200Y17008800D02*
X98552000Y17153600D01*
%TO.N,PWM4C*%
X98552000Y18660400D02*
X98303600Y18908800D01*
%TO.N,PWM4B*%
X79502000Y27671300D02*
X79502000Y30861000D01*
X79502000Y30861000D02*
X77724000Y32639000D01*
X77724000Y32639000D02*
X66802000Y32639000D01*
%TO.N,+3V3*%
D23*
X96125200Y29723100D02*
X96125200Y23635800D01*
X99568000Y20193000D02*
X99568000Y17399000D01*
X99568000Y17399000D02*
X99208800Y17039800D01*
X99208800Y17039800D02*
X98665800Y17039800D01*
X98665800Y17039800D02*
X98552000Y17153600D01*
X96125200Y23635800D02*
X99568000Y20193000D01*
%TO.N,PWM3A*%
D22*
X56769000Y38481000D02*
X56769000Y33020000D01*
%TO.N,PWM3B*%
X58039000Y38735000D02*
X58039000Y33147000D01*
%TO.N,PWM3A*%
X56747800Y30556000D02*
X56747800Y27916100D01*
%TO.N,PWM3B*%
X58039000Y30353000D02*
X58017800Y30374200D01*
X58017800Y30374200D02*
X58017800Y27916100D01*
X58017800Y30458800D02*
X58017800Y30374200D01*
%TO.N,+3V3*%
D23*
X48500200Y31492400D02*
X55477800Y31492400D01*
X62875500Y29453500D02*
X76591500Y29453500D01*
X76948200Y29096800D02*
X76948200Y27657600D01*
X60836600Y31492400D02*
X62875500Y29453500D01*
X76591500Y29453500D02*
X76948200Y29096800D01*
X81407000Y32512000D02*
X82698500Y32512000D01*
X82698500Y32512000D02*
X83752200Y33565600D01*
%TO.N,CS1*%
D22*
X62719800Y43664600D02*
X62357000Y43301800D01*
X62357000Y43301800D02*
X62357000Y36068000D01*
X62357000Y36068000D02*
X66548000Y31877000D01*
%TO.N,PWM4B*%
X66802000Y32639000D02*
X62992000Y36449000D01*
%TO.N,+3V3*%
D23*
X64135000Y38946400D02*
X64135000Y37084000D01*
X65278100Y40089500D02*
X64684100Y39495400D01*
X64684100Y39495400D02*
X64660000Y39495400D01*
X64660000Y39495400D02*
X64422100Y39257600D01*
X64422100Y39257600D02*
X64422100Y39233500D01*
X64422100Y39233500D02*
X64135000Y38946400D01*
X63500000Y33274000D02*
X61718400Y31492400D01*
X61718400Y31492400D02*
X60836600Y31492400D01*
X60836600Y31492400D02*
X55477800Y31492400D01*
%TO.N,SDA*%
D22*
X84952800Y40386000D02*
X83433900Y38867100D01*
%TO.N,B4B*%
X71269700Y42114700D02*
X71269700Y33677700D01*
X71269700Y33677700D02*
X71247000Y33655000D01*
%TO.N,SDA*%
X72269700Y42114700D02*
X72269700Y33280700D01*
X72269700Y33280700D02*
X72263000Y33274000D01*
%TO.N,B3A*%
X67353600Y34531900D02*
X67353600Y34500400D01*
X67353600Y34500400D02*
X68199000Y33655000D01*
%TO.N,+3V3*%
X42787500Y85544400D02*
X42787500Y87274200D01*
X42787500Y87274200D02*
X42523500Y87538300D01*
%TO.N,7.4V*%
X43972800Y91332300D02*
X43972800Y90037700D01*
X43972800Y90037700D02*
X43473400Y89538300D01*
%TO.N,PWM1C*%
X44423400Y87538300D02*
X44423400Y85673600D01*
X44423400Y85673600D02*
X44294300Y85544400D01*
%TO.N,+3V3*%
D23*
X48500200Y71243400D02*
X48500200Y44802800D01*
X42926000Y85406000D02*
X42787500Y85544400D01*
X42926000Y84201000D02*
X42926000Y85406000D01*
%TO.N,$1N16459*%
D22*
X42466100Y91332300D02*
X38881300Y91332300D01*
X38881300Y91332300D02*
X38735000Y91186000D01*
%TO.N,+3V3*%
X98806000Y86495600D02*
X98482400Y86172000D01*
X98482400Y86172000D02*
X96885000Y86172000D01*
%TO.N,7.4V*%
X94885000Y87122000D02*
X94088500Y87918500D01*
X94088500Y87918500D02*
X93114800Y87918500D01*
X91948000Y87578600D02*
X93114800Y86411800D01*
%TO.N,+3V3*%
D23*
X58412900Y72767400D02*
X64385400Y72767400D01*
X64385400Y72767400D02*
X64389000Y72771000D01*
%TO.N,$2N6224*%
D22*
X15494000Y19812000D02*
X14540200Y20765800D01*
X14540200Y20765800D02*
X14540200Y21605900D01*
X14540200Y21605900D02*
X13829200Y22316900D01*
X13829200Y22316900D02*
X13829200Y22593800D01*
%TO.N,$1N3970*%
D19*
X4383500Y41297800D02*
X6170600Y41297800D01*
X6170600Y41297800D02*
X6209200Y41336500D01*
%TO.N,$1N5797*%
X35137300Y41898400D02*
X35133200Y41902600D01*
X35133200Y41902600D02*
X33105300Y41902600D01*
X35163900Y43576100D02*
X35163900Y41925100D01*
X35163900Y41925100D02*
X35137300Y41898400D01*
%TO.N,GND*%
D22*
X88285000Y33315200D02*
X88285000Y32532000D01*
X88285000Y32532000D02*
X88265000Y32512000D01*
X88785100Y33315200D02*
X88785100Y32651100D01*
X88785100Y32651100D02*
X88773000Y32639000D01*
X88773000Y32639000D02*
X88773000Y32512000D01*
X94488000Y34009300D02*
X93896000Y34009300D01*
X94521100Y33384200D02*
X94521100Y33976200D01*
X94521100Y33976200D02*
X94488000Y34009300D01*
X58037700Y50486700D02*
X57335000Y49784000D01*
X57335000Y49784000D02*
X56261000Y49784000D01*
X62719800Y51164700D02*
X61595000Y51164700D01*
X3644300Y9508500D02*
X3644300Y9817700D01*
X3644300Y9817700D02*
X2667000Y10795000D01*
X10044100Y9508500D02*
X10044100Y10044100D01*
X10044100Y10044100D02*
X10795000Y10795000D01*
%TO.N,CC1*%
D19*
X5594300Y9508500D02*
X5588000Y9514700D01*
X5588000Y9514700D02*
X5588000Y12428700D01*
X5588000Y12428700D02*
X5193200Y12823400D01*
X7239000Y16012200D02*
X10019200Y18792400D01*
X7225200Y14728400D02*
X7239000Y14742200D01*
X7239000Y14742200D02*
X7239000Y16012200D01*
%TO.N,$1N3970*%
X1891200Y43684400D02*
X1996800Y43684400D01*
X1996800Y43684400D02*
X4383500Y41297800D01*
%TO.N,+3V3*%
D23*
X30489400Y27897700D02*
X34084200Y31492400D01*
X34084200Y31492400D02*
X35038200Y31492400D01*
%TO.N,B1A*%
D22*
X65786000Y85602600D02*
X65786000Y92583000D01*
%TO.N,B1B*%
X66675000Y85602600D02*
X66675000Y92710000D01*
%TO.N,B2A*%
X68707000Y85602600D02*
X68707000Y92710000D01*
%TO.N,B2B*%
X69596000Y85602600D02*
X69596000Y90297000D01*
%TO.N,+3V3*%
D23*
X67743900Y85574400D02*
X67743900Y92837000D01*
%TO.N,$1N5055*%
D25*
X70612000Y96883700D02*
X70090200Y97405400D01*
X76432800Y81383100D02*
X76432800Y85408100D01*
X76432800Y85408100D02*
X70612000Y91228900D01*
X70612000Y91228900D02*
X70612000Y96883700D01*
%TO.N,+3V3*%
D23*
X70993000Y72644000D02*
X76454000Y72644000D01*
X48500200Y71243400D02*
X48500200Y76186200D01*
X48500200Y76186200D02*
X48514000Y76200000D01*
%TO.N,PWM1C*%
D22*
X44294300Y85544400D02*
X44421300Y85417400D01*
X44421300Y85417400D02*
X45720000Y85417400D01*
%TO.N,$1N4762*%
D25*
X59287800Y22377900D02*
X59287800Y19179200D01*
X59287800Y19179200D02*
X65010200Y13456800D01*
X65010200Y13456800D02*
X65010200Y5838400D01*
%TO.N,+3V3*%
D23*
X62875500Y29453500D02*
X65772200Y26556800D01*
X65772200Y26556800D02*
X65772200Y24553400D01*
D26*
X62719800Y53164700D02*
X64547000Y53164700D01*
X64547000Y53164700D02*
X65151000Y52560700D01*
X65151000Y52560700D02*
X65151000Y51435000D01*
X65151000Y51435000D02*
X64380600Y50664600D01*
X64380600Y50664600D02*
X62719800Y50664600D01*
%TO.N,GND*%
D22*
X62719800Y51164700D02*
X63483700Y51164700D01*
X63483700Y51164700D02*
X64008000Y51689000D01*
%TO.N,+3V3*%
X65278100Y38689400D02*
X65278100Y36703000D01*
%TO.N,$2N2977*%
X75598500Y38722500D02*
X75692000Y38629100D01*
X75692000Y38629100D02*
X75692000Y37465000D01*
%TO.N,PWM1A*%
X65036100Y53645000D02*
X65329000Y53645000D01*
X65329000Y53645000D02*
X65405000Y53721000D01*
%TO.N,PWM1B*%
X62719800Y54164700D02*
X64559100Y54164700D01*
X64559100Y54164700D02*
X64643000Y54248600D01*
%TO.N,GND*%
X64770000Y57214900D02*
X64770000Y58293000D01*
X64770000Y58293000D02*
X65278000Y58801000D01*
X65278000Y58801000D02*
X65659000Y58801000D01*
X64217700Y60877700D02*
X64725300Y60877700D01*
X64725300Y60877700D02*
X65532000Y60071000D01*
X65532000Y60071000D02*
X65532000Y58928000D01*
X65532000Y58928000D02*
X65659000Y58801000D01*
%TO.N,+3V3*%
X32182300Y28063400D02*
X33397400Y28063400D01*
X33397400Y28063400D02*
X33655000Y28321000D01*
%TO.N,GND*%
X28497700Y23505400D02*
X27432000Y24571100D01*
X27432000Y24571100D02*
X27432000Y24765000D01*
X87023100Y35077700D02*
X86921800Y35179000D01*
X86921800Y35179000D02*
X85979000Y35179000D01*
%TO.N,NRST*%
D26*
X61854200Y49164500D02*
X61666200Y48976400D01*
%TO.N,OSC_OUT*%
D27*
X59003800Y49627800D02*
X62353400Y49627800D01*
X58214800Y48849100D02*
X58941300Y49575600D01*
X58941300Y49575600D02*
X59003800Y49627800D01*
%TO.N,OSC_IN*%
X62420300Y50185700D02*
X62441800Y50207200D01*
X60463600Y50185700D02*
X60563800Y50185700D01*
X60563800Y50185700D02*
X62420300Y50185700D01*
D26*
X60585100Y50164500D02*
X60563800Y50185700D01*
X60563800Y50185700D02*
X60007000Y50742600D01*
%TO.N,AGND*%
D22*
X53328400Y46362400D02*
X54957200Y46362400D01*
X54957200Y46362400D02*
X56537700Y44782000D01*
D26*
X56532000Y44732100D02*
X56617000Y44817100D01*
X56617000Y44817100D02*
X59930100Y44817100D01*
%TO.N,VDDA*%
D22*
X57430000Y40372100D02*
X57430000Y40839800D01*
X57430000Y40839800D02*
X58204100Y41613900D01*
%TO.N,AGND*%
D26*
X59930100Y44817100D02*
X61256000Y46143000D01*
X61256000Y46143000D02*
X62698300Y46143000D01*
X62698300Y46143000D02*
X62719800Y46164500D01*
%TO.N,+3V3*%
X60176300Y46663100D02*
X62573400Y46663100D01*
X59752300Y46290700D02*
X59803900Y46290700D01*
%TO.N,GND*%
D22*
X60273800Y48634500D02*
X60273800Y48365700D01*
X60273800Y48365700D02*
X59628700Y47720700D01*
X54650800Y48656000D02*
X54650800Y50677300D01*
X54650800Y50677300D02*
X54683100Y50709500D01*
X61015600Y47709900D02*
X61241400Y47935700D01*
X59628700Y47720700D02*
X59531900Y47720700D01*
X59532000Y47720700D02*
X61015600Y47709900D01*
X58979600Y51695900D02*
X58987600Y51687900D01*
X59531900Y47720700D02*
X55237700Y47720700D01*
X55237700Y47720700D02*
X54586300Y48372100D01*
X54586300Y48372100D02*
X54586300Y48731300D01*
X54699200Y50752500D02*
X54699200Y50956800D01*
X54699200Y50956800D02*
X55438300Y51695900D01*
X55438300Y51695900D02*
X58979600Y51695900D01*
X61332800Y51085800D02*
X61332800Y50490900D01*
X61216800Y51201800D02*
X61332800Y51085800D01*
X58987600Y51687900D02*
X60731200Y51687900D01*
X60731200Y51687900D02*
X61216800Y51202200D01*
X61241400Y49056800D02*
X61247900Y49063400D01*
X61241400Y47935700D02*
X61241400Y49056800D01*
%TO.N,NRST*%
D26*
X61666200Y48976400D02*
X61666200Y47582500D01*
X61666200Y47582500D02*
X61463000Y47379300D01*
X61463000Y47379300D02*
X54211400Y47379300D01*
X54211400Y47379300D02*
X52945200Y48645500D01*
X52945200Y48645500D02*
X52945200Y62382300D01*
%TO.N,+3V3*%
D22*
X59849300Y46336200D02*
X60026700Y46513600D01*
X59041500Y45776900D02*
X59634800Y46370200D01*
X59634800Y46370200D02*
X59815300Y46370200D01*
D26*
X60026700Y46513600D02*
X60176300Y46663100D01*
D22*
X56154500Y46370200D02*
X56747800Y45776900D01*
X56747800Y45776900D02*
X59041500Y45776900D01*
X51620100Y47853200D02*
X53270000Y47853200D01*
X53270000Y47853200D02*
X54074500Y47048700D01*
X54074500Y47048700D02*
X58101300Y47048700D01*
X58101300Y47048700D02*
X58522500Y46627500D01*
%TO.N,OSC32_IN*%
D26*
X58068900Y55103700D02*
X60408700Y55103700D01*
%TO.N,GND*%
X62719800Y51664600D02*
X61223200Y51664600D01*
X61223200Y51664600D02*
X60589200Y52298600D01*
X60589200Y52298600D02*
X60153700Y52298600D01*
%TO.N,+3V3*%
X61605300Y55482200D02*
X61574900Y55512600D01*
X61574900Y55512600D02*
X61574900Y55534100D01*
X61574900Y55534100D02*
X60212900Y56896100D01*
X60212900Y56896100D02*
X59825900Y56896100D01*
X61998900Y53164700D02*
X61616000Y53547600D01*
X61616000Y53547600D02*
X61616000Y55508400D01*
X61616000Y55508400D02*
X61574900Y55512600D01*
%TO.N,OSC32_IN*%
X60153700Y54701200D02*
X60153700Y54848700D01*
X62719800Y52164700D02*
X61579600Y52164700D01*
X61579600Y52164700D02*
X61020700Y52723600D01*
X61020700Y52723600D02*
X61020700Y53834200D01*
X61020700Y53834200D02*
X60153700Y54701200D01*
%TO.N,$2N3034*%
X60084100Y59608900D02*
X61100600Y59608900D01*
X61100600Y59608900D02*
X63591200Y62099400D01*
%TO.N,PWM4C*%
D22*
X98303600Y18908800D02*
X96555400Y18908800D01*
X90939600Y20430500D02*
X94967300Y20430500D01*
X96555400Y18908800D02*
X95000500Y20463700D01*
%TO.N,$1N16087*%
X46150000Y13907000D02*
X43963500Y13907000D01*
X43963500Y13907000D02*
X43826100Y13769700D01*
X43779300Y7749800D02*
X42102100Y6072600D01*
X43826100Y13769700D02*
X43826100Y9007700D01*
X43826100Y9007700D02*
X43826100Y8812500D01*
X43826100Y9007700D02*
X43779300Y7749800D01*
%TO.N,$1N15768*%
X95871200Y11732200D02*
X95889100Y8055200D01*
X95889100Y8055200D02*
X97558200Y6386100D01*
X95871200Y16287200D02*
X95871200Y11732200D01*
X95871200Y11732200D02*
X95871200Y11683800D01*
%TO.N,7.4V*%
X43464800Y91840300D02*
X43464800Y93520600D01*
X43464800Y93520600D02*
X41249800Y95735600D01*
X41249800Y95735600D02*
X41249800Y96505700D01*
X43972800Y91332300D02*
X43464800Y91840300D01*
X41249800Y96505700D02*
X41757800Y97013700D01*
X98002200Y97154400D02*
X98002200Y94315200D01*
X98002200Y94315200D02*
X97996000Y94309000D01*
X97996000Y94309000D02*
X97996000Y93949800D01*
X97996000Y93949800D02*
X93114800Y89068600D01*
X93114800Y89068600D02*
X93114800Y87918500D01*
X94614300Y100583300D02*
X94614300Y93126600D01*
X94614300Y93126600D02*
X91948000Y90460300D01*
X91948000Y90460300D02*
X91948000Y87578600D01*
X94802100Y3626400D02*
X94681500Y3747000D01*
X94681500Y3747000D02*
X94681500Y15249100D01*
X94681500Y15249100D02*
X92843500Y17087100D01*
%TO.N,+3V3*%
D23*
X98135400Y42061300D02*
X98159600Y42085500D01*
%TO.N,USART1_RX*%
D22*
X95439100Y42122200D02*
X95621900Y41939500D01*
%TO.N,SWCLK*%
X95403500Y44511100D02*
X95685000Y44792600D01*
%TO.N,SDA*%
X87632200Y40386000D02*
X84952800Y40386000D01*
%TO.N,CS2*%
X94521100Y35418700D02*
X94521100Y35134200D01*
X93698300Y36241400D02*
X94521100Y35418700D01*
%TO.N,SDA*%
X92271200Y35747100D02*
X87632200Y40386000D01*
X94020900Y35134200D02*
X94020900Y35284700D01*
X94020900Y35284700D02*
X93558600Y35747100D01*
X93558600Y35747100D02*
X92271200Y35747100D01*
%TO.N,CS2*%
X91464200Y37749200D02*
X91474900Y37749200D01*
X91474900Y37749200D02*
X92982800Y36241400D01*
X92982800Y36241400D02*
X93698300Y36241400D01*
%TO.N,SCL*%
X95521100Y35134200D02*
X95521100Y35690200D01*
X95521100Y35690200D02*
X89814800Y41396400D01*
X89814800Y41396400D02*
X85332300Y41396400D01*
X85332300Y41396400D02*
X85330200Y41398400D01*
%TO.N,USART1_RX*%
X91339200Y43813800D02*
X93030800Y42122200D01*
X93030800Y42122200D02*
X95439100Y42122200D01*
%TO.N,CSN*%
X90868800Y43107100D02*
X94377500Y39598400D01*
X94377500Y39598400D02*
X95730700Y39598400D01*
X77819600Y52164700D02*
X79251300Y52164700D01*
X79251300Y52164700D02*
X88339700Y43107100D01*
X88339700Y43107100D02*
X90868800Y43107100D01*
%TO.N,USART1_RX*%
X88540400Y43813800D02*
X91339200Y43813800D01*
%TO.N,SDA*%
X77819600Y51164700D02*
X78576200Y51164700D01*
X78576200Y51164700D02*
X83433900Y46307000D01*
X83433900Y46307000D02*
X83433900Y38867100D01*
%TO.N,SCL*%
X77819600Y51664600D02*
X78861200Y51664600D01*
X78861200Y51664600D02*
X85330200Y45195500D01*
X85330200Y45195500D02*
X85330200Y41398400D01*
%TO.N,USART1_RX*%
X77819600Y52664600D02*
X77866200Y52618000D01*
X77866200Y52618000D02*
X79732900Y52618000D01*
X79732900Y52618000D02*
X88540400Y43813800D01*
%TO.N,+3V3*%
D23*
X98273800Y32078500D02*
X97548100Y31352700D01*
X98295000Y42008600D02*
X98270800Y41984500D01*
X98273800Y39347700D02*
X98273800Y32078500D01*
X98270800Y41984500D02*
X98273800Y39347700D01*
X98135400Y42008600D02*
X98135400Y42061300D01*
%TO.N,B1B*%
D22*
X74645800Y51289900D02*
X75771200Y50164500D01*
X75771200Y50164500D02*
X77819600Y50164500D01*
%TO.N,B1A*%
X77819600Y49664600D02*
X75198000Y49664600D01*
X75198000Y49664600D02*
X74625000Y50237600D01*
%TO.N,+3V3*%
X97535100Y31339700D02*
X96366300Y32508400D01*
D26*
X80810700Y57978500D02*
X80810700Y56203600D01*
D23*
X80130000Y60338000D02*
X80130000Y58660800D01*
%TO.N,CS2*%
D22*
X77819600Y44164500D02*
X79139200Y44164500D01*
X79139200Y44164500D02*
X82104400Y41199300D01*
X82104400Y41199300D02*
X82104400Y41185400D01*
%TO.N,CS1*%
X77819600Y43664600D02*
X78724600Y43664600D01*
X78724600Y43664600D02*
X82296000Y40093200D01*
X82296000Y40093200D02*
X82296000Y38100000D01*
%TO.N,B3A*%
X67269700Y42114700D02*
X67265200Y42110100D01*
X67265200Y42110100D02*
X67265200Y34620300D01*
X67265200Y34620300D02*
X67353600Y34531900D01*
%TO.N,B3B*%
X66769600Y42114700D02*
X66732500Y42077600D01*
X66732500Y42077600D02*
X66732500Y33787600D01*
X66732500Y33787600D02*
X66817400Y33702700D01*
%TO.N,GND*%
X64769600Y42114700D02*
X64778400Y42105900D01*
X64778400Y42105900D02*
X64778400Y41043600D01*
X64778400Y41043600D02*
X64107700Y40372900D01*
X64107700Y40372900D02*
X64107700Y40056500D01*
X64107700Y40056500D02*
X64065100Y40013900D01*
%TO.N,PWM4B*%
X62992000Y36449000D02*
X62992000Y39894300D01*
X62992000Y39894300D02*
X64269700Y41172100D01*
X64269700Y41172100D02*
X64269700Y42114700D01*
%TO.N,MOSI*%
X68750500Y57385700D02*
X68790900Y57426100D01*
%TO.N,PWM4C*%
X75281300Y41161200D02*
X75281300Y41576900D01*
X74777800Y36597300D02*
X74777800Y36601200D01*
X74777800Y36601200D02*
X74777800Y40657700D01*
X74777800Y36601200D02*
X74769900Y36609100D01*
X74777800Y40657700D02*
X75281300Y41161200D01*
X74777800Y36601200D02*
X90939600Y20430500D01*
%TO.N,PWM3C*%
X74750900Y41533900D02*
X74750900Y41148700D01*
%TO.N,PWM2C*%
X81388600Y63585900D02*
X90351200Y63585900D01*
X99578100Y84648600D02*
X99578100Y87769200D01*
X99578100Y87769200D02*
X99398500Y87948800D01*
X97221300Y87948800D02*
X97134800Y88035300D01*
X99398500Y87948800D02*
X97221300Y87948800D01*
X90351200Y63585900D02*
X98346100Y71580800D01*
X98346100Y71580800D02*
X98346100Y83416700D01*
X98346100Y83416700D02*
X99578100Y84648600D01*
%TO.N,$2N3034*%
D26*
X63591200Y62099400D02*
X64897300Y62099400D01*
X64897300Y62099400D02*
X67269700Y59727100D01*
X67269700Y59727100D02*
X67269700Y57214500D01*
%TO.N,MISO*%
D22*
X66262200Y43572000D02*
X66262200Y42733400D01*
X67318500Y54119000D02*
X67318500Y44628300D01*
X67318500Y44628300D02*
X66262200Y43572000D01*
%TO.N,PWM2C*%
X75780500Y57856500D02*
X75767900Y57869100D01*
X75767900Y57869100D02*
X75767900Y60033400D01*
X75767900Y60033400D02*
X79317300Y63582900D01*
%TO.N,+3V3*%
D23*
X80242800Y75844900D02*
X80223700Y72761600D01*
X80223000Y72644300D02*
X80147300Y60450100D01*
X91483300Y80770300D02*
X91483300Y80051900D01*
X91465000Y91288000D02*
X91186000Y91567000D01*
X91465000Y80917600D02*
X91465000Y91288000D01*
D22*
X96885000Y86172000D02*
X91547800Y80834800D01*
%TO.N,$2N11019*%
D19*
X86768100Y54709200D02*
X86768100Y54727900D01*
X86768100Y54727900D02*
X86768100Y55064000D01*
X86768100Y55064000D02*
X85478000Y56354200D01*
%TO.N,$2N11066*%
X87348700Y48725200D02*
X87648100Y48425800D01*
X87648100Y48425800D02*
X87648100Y47431500D01*
%TO.N,+3V3*%
D23*
X91483300Y80051900D02*
X89927900Y78496500D01*
%TO.N,MOSI*%
D22*
X85930100Y70989700D02*
X86196100Y70989700D01*
%TO.N,MISO*%
X85933700Y72344400D02*
X86292900Y72344400D01*
X86099400Y69731800D02*
X85833300Y69731800D01*
%TO.N,+3V3*%
D23*
X88505000Y78490200D02*
X87286500Y77271800D01*
X87286500Y77271800D02*
X87286500Y76311300D01*
X89927900Y78496500D02*
X88505000Y78496500D01*
X87302600Y76196600D02*
X87293700Y76187700D01*
%TO.N,CSN*%
D22*
X86256900Y73658900D02*
X86144000Y73658900D01*
%TO.N,+3V3*%
D23*
X80351200Y72704200D02*
X80294300Y72761100D01*
X80294000Y72664400D02*
X80608400Y72664400D01*
X80608400Y72646900D02*
X84188600Y76227100D01*
%TO.N,GND*%
D22*
X86242300Y68487000D02*
X84903700Y67148500D01*
X82548900Y67139800D02*
X81421000Y67139800D01*
X81421000Y67139800D02*
X81412300Y67148500D01*
X84903700Y67148500D02*
X82549100Y67147600D01*
%TO.N,MOSI*%
X68790900Y57426100D02*
X68790900Y61222200D01*
%TO.N,MISO*%
X85833300Y69731800D02*
X83902900Y67801400D01*
X83902900Y67801400D02*
X82157200Y67801400D01*
%TO.N,MOSI*%
X81506400Y68469100D02*
X83409400Y68469100D01*
X83409400Y68469100D02*
X85930100Y70989700D01*
%TO.N,MISO*%
X82392000Y69202100D02*
X82791400Y69202100D01*
X82791400Y69202100D02*
X85933700Y72344400D01*
%TO.N,CSN*%
X86144000Y73658900D02*
X82375700Y69890500D01*
X82375700Y69890500D02*
X81521000Y69890500D01*
%TO.N,CE*%
X86232900Y74999800D02*
X82193100Y70960000D01*
X82193100Y70960000D02*
X82096300Y70960000D01*
%TO.N,MOSI*%
X68790900Y61222200D02*
X68040400Y61972800D01*
X68040400Y61972800D02*
X68040400Y61980100D01*
%TO.N,MISO*%
X69297300Y57926800D02*
X69297300Y61617000D01*
X69297300Y61617000D02*
X69041800Y61872500D01*
%TO.N,CE*%
X66007000Y62039100D02*
X67759400Y60286600D01*
X66985300Y63856000D02*
X66007000Y62877700D01*
X66007000Y62877700D02*
X66007000Y62039100D01*
%TO.N,CSN*%
X66696200Y62649500D02*
X66696200Y62455400D01*
%TO.N,PWM1C*%
X61912500Y69659500D02*
X62831700Y69659500D01*
X62831700Y69659500D02*
X69769900Y62721400D01*
X69769900Y62721400D02*
X69769900Y57214500D01*
%TO.N,B1A*%
X65786000Y78867000D02*
X65786000Y67656700D01*
%TO.N,B1B*%
X66675000Y78994000D02*
X66675000Y67824000D01*
%TO.N,B1A*%
X65786000Y67656700D02*
X70411800Y63031000D01*
X70411800Y63031000D02*
X70411800Y61699800D01*
%TO.N,B1B*%
X66675000Y67824000D02*
X71060900Y63438200D01*
X71060900Y63438200D02*
X71060900Y60639500D01*
%TO.N,CE*%
X67759400Y60286600D02*
X67759400Y57890100D01*
%TO.N,CSN*%
X68220200Y57704900D02*
X68325300Y57810100D01*
X66696200Y62455400D02*
X68312500Y60839100D01*
X68325300Y57810100D02*
X68325300Y60839100D01*
%TO.N,B2A*%
X68580000Y78994000D02*
X68265500Y78679500D01*
X68265500Y78679500D02*
X68265500Y67357900D01*
X68265500Y67357900D02*
X73573000Y62050500D01*
X73573000Y62050500D02*
X73742300Y62050500D01*
%TO.N,B2B*%
X69596000Y78994000D02*
X69596000Y67322100D01*
X69596000Y67322100D02*
X74258700Y62659400D01*
X74258700Y62659400D02*
X74452200Y62659400D01*
%TO.N,PWM2B*%
X76747400Y44664600D02*
X72731100Y48680900D01*
X72731100Y48680900D02*
X72731100Y54300700D01*
%TO.N,PWM2A*%
X77063100Y45164500D02*
X73484600Y48742900D01*
X73484600Y48742900D02*
X73484600Y53346000D01*
%TO.N,+3V3*%
D23*
X87293700Y76187700D02*
X84188600Y76187700D01*
%TO.N,GND*%
D22*
X77819600Y55164700D02*
X77748500Y55093600D01*
%TO.N,B2B*%
X79915700Y48289300D02*
X79790900Y48164500D01*
X79790900Y48164500D02*
X77819600Y48164500D01*
%TO.N,B2A*%
X79351000Y47566100D02*
X79252500Y47664600D01*
X79252500Y47664600D02*
X77819600Y47664600D01*
%TO.N,GND*%
X77748500Y55093600D02*
X76991900Y55093600D01*
X76991900Y55093600D02*
X76292700Y54394400D01*
X76292700Y54394400D02*
X76292700Y54382500D01*
%TO.N,PWM1B*%
X76270500Y57816500D02*
X76270500Y58630900D01*
X76270500Y58630900D02*
X76403700Y58764100D01*
%TO.N,USART2_TX*%
X71264600Y57221400D02*
X71235900Y57250100D01*
X71264600Y56418700D02*
X71264600Y57221400D01*
X71859500Y55823800D02*
X71264600Y56418700D01*
X70773100Y56640400D02*
X70792400Y56659700D01*
X70773100Y56281200D02*
X70773100Y56640400D01*
X71706300Y55348000D02*
X70773100Y56281200D01*
X75791800Y55348000D02*
X71706300Y55348000D01*
X77208000Y59160900D02*
X77222400Y59297400D01*
X77208000Y59258900D02*
X77208000Y59160900D01*
X77208000Y59160900D02*
X77208000Y56896100D01*
X77208000Y56896100D02*
X76135700Y55823800D01*
X76135700Y55823800D02*
X71859500Y55823800D01*
X77740000Y56841600D02*
X76221800Y55323500D01*
X76221800Y55323500D02*
X75791800Y55348000D01*
%TO.N,$2N11019*%
D19*
X86768100Y54727900D02*
X92380000Y54727900D01*
X92380000Y54727900D02*
X94089400Y53018400D01*
X94089400Y53018400D02*
X94089400Y51873400D01*
%TO.N,+3V3*%
X87762600Y56348800D02*
X88681800Y57268000D01*
X88681800Y57268000D02*
X92214600Y57268000D01*
X92214600Y57268000D02*
X94082400Y59135900D01*
D22*
X94368800Y59302300D02*
X94450100Y59383700D01*
D19*
X94082400Y59135900D02*
X93418600Y59799700D01*
X93418600Y59799700D02*
X82238600Y59799700D01*
X82238600Y59799700D02*
X80752900Y58314000D01*
D23*
X80130000Y58660800D02*
X80855700Y57935100D01*
%TO.N,USART2_TX*%
D22*
X77740000Y58922700D02*
X77740000Y56841600D01*
X79052800Y60310700D02*
X79052800Y60235500D01*
X79052800Y60235500D02*
X77740000Y58922700D01*
X77222400Y59297400D02*
X77528800Y59603800D01*
X77528800Y59603800D02*
X77528800Y59743600D01*
%TO.N,OSC32_IN*%
D26*
X57646200Y54959100D02*
X57924300Y54959100D01*
X57924300Y54959100D02*
X58068900Y55103700D01*
%TO.N,*%
D22*
X78287900Y45654600D02*
X80447700Y45654600D01*
X80447700Y45654600D02*
X80553600Y45548700D01*
%TO.N,$2N11066*%
X77819600Y46164500D02*
X82200800Y46164500D01*
X82200800Y46164500D02*
X82280500Y46084700D01*
%TO.N,B2A*%
X67771700Y41534200D02*
X67771700Y40376700D01*
X67771700Y40376700D02*
X67891700Y40256700D01*
%TO.N,B2B*%
X68258700Y41534200D02*
X68258700Y41035400D01*
X68258700Y41035400D02*
X68498400Y40795800D01*
%TO.N,*%
X68795700Y41116000D02*
X68866300Y41045400D01*
X68795700Y41798300D02*
X68795700Y41116000D01*
X62702000Y55607800D02*
X62702000Y56832400D01*
X62702000Y56832400D02*
X62680200Y56854200D01*
X63664800Y55439000D02*
X63664800Y56938900D01*
X63082500Y55202600D02*
X63132000Y55153200D01*
X63132000Y55153200D02*
X63379000Y55153200D01*
X63379000Y55153200D02*
X63664800Y55439000D01*
%TO.N,GND*%
X72265600Y59291600D02*
X72262300Y57853500D01*
X72262300Y57853500D02*
X72241200Y57832500D01*
X72139200Y62294300D02*
X72257900Y62175600D01*
X72257900Y62175600D02*
X72257900Y59331900D01*
%TO.N,+3V3*%
X71751400Y57832800D02*
X71751400Y58923300D01*
X71751400Y58923300D02*
X71539600Y59135100D01*
%TO.N,OSC_OUT*%
X70311500Y57779900D02*
X70311500Y59230400D01*
X70311500Y59230400D02*
X70650300Y59569200D01*
%TO.N,PWM2B*%
X77702800Y65269100D02*
X77702800Y75844900D01*
X75036200Y62417500D02*
X75036200Y62602500D01*
X75036200Y62602500D02*
X77702800Y65269100D01*
X74085200Y61466500D02*
X75036200Y62417500D01*
%TO.N,PWM2A*%
X73604000Y59769500D02*
X78972800Y65138300D01*
X78972800Y65138300D02*
X78972800Y75844900D01*
%TO.N,PWM2B*%
X72894600Y60238500D02*
X74085200Y61429100D01*
X74085200Y61429100D02*
X74085200Y61466500D01*
%TO.N,OSC32_OUT*%
X72741300Y58372800D02*
X72762500Y58595100D01*
X72741300Y57843400D02*
X72741300Y58372800D01*
%TO.N,*%
X75261100Y57864600D02*
X75261100Y59611500D01*
%TO.N,$2N11066*%
X78463100Y46714900D02*
X78519500Y46658500D01*
X78519500Y46658500D02*
X80432300Y46658500D01*
X80432300Y46658500D02*
X80453500Y46679700D01*
%TO.N,SWCLK*%
X77819600Y54164700D02*
X79311100Y54164700D01*
X79311100Y54164700D02*
X88962100Y44511100D01*
X88962100Y44511100D02*
X95403500Y44511100D01*
%TO.N,BOOT0*%
X78331400Y53706500D02*
X78790200Y53706500D01*
X78790200Y53706500D02*
X79016000Y53480600D01*
%TO.N,*%
X78349900Y49138000D02*
X78985100Y49138000D01*
X78985100Y49138000D02*
X79133400Y49286300D01*
X79104300Y49693900D02*
X79118400Y49708000D01*
X79133400Y49333900D02*
X79104300Y49693900D01*
X78398400Y48684500D02*
X79212800Y48684500D01*
X79212800Y48684500D02*
X79368800Y48840500D01*
X79368800Y48840500D02*
X79373100Y48840500D01*
X79373100Y48840500D02*
X79612400Y49079800D01*
%TO.N,PWM3C*%
X74750900Y41148700D02*
X74362100Y40759900D01*
X74362100Y40759900D02*
X74362100Y34800500D01*
%TO.N,USART1_TX*%
X73756500Y41548000D02*
X73777700Y41526900D01*
X73297100Y41468400D02*
X73297100Y39781500D01*
X73297100Y39781500D02*
X73254800Y39739200D01*
%TO.N,SCL*%
X72753600Y41581400D02*
X72753600Y40197900D01*
X72753600Y40197900D02*
X72647800Y40092100D01*
%TO.N,IRQ*%
X80116800Y47181200D02*
X80607400Y47671700D01*
X78327600Y47181200D02*
X78910000Y47181200D01*
X78910000Y47181200D02*
X79109100Y46982100D01*
X79109100Y46982100D02*
X79592900Y46982100D01*
X79592900Y46982100D02*
X79791900Y47181200D01*
X79791900Y47181200D02*
X80116800Y47181200D01*
%TO.N,*%
X75261100Y59611500D02*
X74954900Y59917700D01*
X74954900Y59917700D02*
X74954900Y60408100D01*
%TO.N,+3V3*%
X74481800Y59601700D02*
X74530200Y59553300D01*
X74530300Y59553200D02*
X74782900Y59289900D01*
X74795200Y59289900D02*
X74795200Y57832800D01*
%TO.N,*%
X74318800Y57822300D02*
X74318800Y58594400D01*
X74318800Y58594400D02*
X74222800Y58594400D01*
X74222800Y58594400D02*
X74117600Y58489300D01*
%TO.N,OSC32_OUT*%
X72762500Y58595100D02*
X72762500Y58975500D01*
X72762500Y58975500D02*
X73027100Y59240100D01*
X73027100Y59240100D02*
X73027100Y59293900D01*
%TO.N,OSC32_IN*%
X73270700Y57758700D02*
X73270700Y58586000D01*
X73270700Y58586000D02*
X73300900Y58616300D01*
X73300900Y58616300D02*
X73397700Y58616300D01*
%TO.N,SCL*%
X72645900Y37738500D02*
X73032900Y37351500D01*
X72645900Y37738500D02*
X72647800Y40092100D01*
%TO.N,USART1_TX*%
X73796300Y38577100D02*
X73721000Y38501900D01*
X73777700Y41526900D02*
X73777700Y39437200D01*
X73796300Y38577100D02*
X73777700Y39437200D01*
%TO.N,*%
X68915200Y38028800D02*
X68560400Y37674000D01*
X68869200Y41045400D02*
X68869200Y39017900D01*
X68869200Y39017900D02*
X68915200Y38028800D01*
%TO.N,B2B*%
X68474400Y39297500D02*
X68098100Y38921200D01*
X68498400Y40795800D02*
X68495900Y39276000D01*
%TD*%
M02*
