%TF.GenerationSoftware,KiCad,Pcbnew,10.99.0-unknown*%
%TF.CreationDate,2026-08-12T15:28:01+08:00*%
%TF.ProjectId,________,db6eeccb-6c11-40f6-962e-6b696361645f,rev?*%
%TF.SameCoordinates,Original*%
%TF.FileFunction,Copper,L4,Bot*%
%TF.FilePolarity,Positive*%
%FSLAX46Y46*%
G04 Gerber Fmt 4.6, Leading zero omitted, Abs format (unit mm)*
G04 Created by KiCad (PCBNEW 10.99.0-unknown) date 2026-08-12 15:28:01*
%MOMM*%
%LPD*%
G01*
G04 APERTURE LIST*
%TA.AperFunction,SMDPad,CuDef*%
%ADD10C,0.750000*%
%TD*%
%TA.AperFunction,ViaPad*%
%ADD11C,0.610000*%
%TD*%
%TA.AperFunction,Conductor*%
%ADD12C,0.355600*%
%TD*%
%TA.AperFunction,Conductor*%
%ADD13C,0.508000*%
%TD*%
%TA.AperFunction,Conductor*%
%ADD14C,0.203200*%
%TD*%
%TA.AperFunction,Conductor*%
%ADD15C,0.254000*%
%TD*%
G04 APERTURE END LIST*
D10*
%TO.P,P1,4*%
%TO.N,B4B*%
X79615236Y7158444D03*
%TO.P,P1,1*%
%TO.N,$1N946*%
X80758436Y6498444D03*
%TO.P,P1,2*%
%TO.N,GND*%
X80758436Y5178444D03*
%TO.P,P1,3*%
%TO.N,B4A*%
X79615236Y4518444D03*
%TO.P,P1,5*%
%TO.N,+3V3*%
X78472036Y5178444D03*
%TO.P,P1,6*%
%TO.N,$1N950*%
X78472036Y6498444D03*
%TD*%
%TO.P,P2,4*%
%TO.N,B3B*%
X55485236Y7158444D03*
%TO.P,P2,1*%
%TO.N,$1N4762*%
X56628436Y6498444D03*
%TO.P,P2,2*%
%TO.N,GND*%
X56628436Y5178444D03*
%TO.P,P2,3*%
%TO.N,B3A*%
X55485236Y4518444D03*
%TO.P,P2,5*%
%TO.N,+3V3*%
X54342036Y5178444D03*
%TO.P,P2,6*%
%TO.N,$1N4759*%
X54342036Y6498444D03*
%TD*%
%TO.P,P3,4*%
%TO.N,B2B*%
X79615236Y96085444D03*
%TO.P,P3,1*%
%TO.N,$1N5055*%
X78472036Y96745444D03*
%TO.P,P3,2*%
%TO.N,GND*%
X78472036Y98065444D03*
%TO.P,P3,3*%
%TO.N,B2A*%
X79615236Y98725444D03*
%TO.P,P3,5*%
%TO.N,+3V3*%
X80758436Y98065444D03*
%TO.P,P3,6*%
%TO.N,$1N5052*%
X80758436Y96745444D03*
%TD*%
%TO.P,P4,4*%
%TO.N,B1B*%
X54596236Y96085444D03*
%TO.P,P4,1*%
%TO.N,$1N5348*%
X53453036Y96745444D03*
%TO.P,P4,2*%
%TO.N,GND*%
X53453036Y98065444D03*
%TO.P,P4,3*%
%TO.N,B1A*%
X54596236Y98725444D03*
%TO.P,P4,5*%
%TO.N,+3V3*%
X55739436Y98065444D03*
%TO.P,P4,6*%
%TO.N,$1N5345*%
X55739436Y96745444D03*
%TD*%
%TO.P,CN4,1*%
%TO.N,GND*%
X94002215Y56210637D03*
%TO.P,CN4,2*%
%TO.N,USART2_RX*%
X92859015Y56870637D03*
%TO.P,CN4,3*%
%TO.N,USART2_TX*%
X92859015Y58190637D03*
%TO.P,CN4,4*%
%TO.N,+3V3*%
X94002215Y58850637D03*
%TO.P,CN4,6*%
%TO.N,N/C*%
X95145415Y58190637D03*
%TO.P,CN4,5*%
X95145415Y56870637D03*
%TD*%
D11*
%TO.N,CC1*%
X5193200Y12823400D03*
X7225200Y14728400D03*
%TO.N,VDDA*%
X57421100Y40373700D03*
X64914000Y45683100D03*
%TO.N,12V*%
X42926000Y70739000D03*
%TO.N,+3V3*%
X35038200Y31492400D03*
X48500200Y31492400D03*
X65772200Y24553400D03*
X55103500Y45335400D03*
X56091500Y46302500D03*
%TO.N,12V*%
X61665900Y21028000D03*
X61617500Y22933800D03*
X54412800Y20931300D03*
X54283800Y22858500D03*
X80651400Y82883100D03*
X80578200Y84098000D03*
X81695600Y84108700D03*
X74789200Y81276400D03*
X73226200Y81276400D03*
X73226200Y83774200D03*
X74662200Y83816400D03*
X58728800Y82006200D03*
X58750300Y83923400D03*
X57235000Y83937400D03*
X50532200Y81276400D03*
X50532200Y83552800D03*
%TO.N,7.4V*%
X29704200Y99183400D03*
X29704200Y100539800D03*
X31609200Y99183400D03*
X31355200Y100326400D03*
%TO.N,PWM1B*%
X76403700Y58764100D03*
%TO.N,SCL*%
X85330200Y41398400D03*
X85457200Y39747400D03*
%TO.N,PWM1B*%
X64643000Y54248600D03*
X53594000Y73914000D03*
%TO.N,PWM1A*%
X65405000Y53721000D03*
X54864000Y73914000D03*
%TO.N,PWM2A*%
X73484600Y53346000D03*
X73604000Y59769500D03*
%TO.N,PWM2B*%
X72731100Y54300700D03*
X72894600Y60238500D03*
%TO.N,CS1*%
X82296000Y38100000D03*
X89281000Y36576000D03*
%TO.N,CS2*%
X82104400Y41185400D03*
X91464200Y37749200D03*
%TO.N,B3B*%
X66817400Y33702700D03*
%TO.N,B3A*%
X68199000Y33655000D03*
%TO.N,B4B*%
X71247000Y33655000D03*
%TO.N,SDA*%
X72263000Y33274000D03*
%TO.N,+3V3*%
X41656000Y12700000D03*
%TO.N,PWM3C*%
X42418000Y16764000D03*
X74362100Y34800500D03*
%TO.N,PWM3A*%
X56769000Y33020000D03*
X56747800Y30556000D03*
%TO.N,PWM3B*%
X58039000Y33147000D03*
X58017800Y30458800D03*
%TO.N,+3V3*%
X76591500Y29453500D03*
X81407000Y32512000D03*
X64135000Y37084000D03*
X63500000Y33274000D03*
X48514000Y76200000D03*
X42926000Y84201000D03*
%TO.N,PWM1C*%
X45720000Y85417400D03*
X61912500Y69659500D03*
%TO.N,B1A*%
X65786000Y78867000D03*
X70411800Y61699800D03*
X74625000Y50237600D03*
%TO.N,B1B*%
X66675000Y78994000D03*
X71060900Y60639500D03*
X74645800Y51289900D03*
%TO.N,B2A*%
X68580000Y78994000D03*
X73742300Y62050500D03*
X79351000Y47566100D03*
%TO.N,B2B*%
X69596000Y78994000D03*
X74452200Y62659400D03*
X79915700Y48289300D03*
%TO.N,+3V3*%
X64389000Y72771000D03*
X70993000Y72644000D03*
X76454000Y72644000D03*
X80264000Y72644000D03*
%TO.N,$2N11066*%
X82280500Y46084700D03*
X87648100Y47431500D03*
%TO.N,$1N3970*%
X1891200Y43684400D03*
%TO.N,$1N5797*%
X35163900Y43576100D03*
%TO.N,GND*%
X94488000Y34009300D03*
X88392000Y32258000D03*
X89535000Y28448000D03*
X94234000Y28448000D03*
X98291900Y28448000D03*
X86106000Y29718000D03*
X98062100Y49330400D03*
X99334100Y49330400D03*
X96769900Y49330400D03*
X95391000Y49330400D03*
X93744100Y45901400D03*
X93744100Y43789400D03*
X87986800Y61171000D03*
X86577000Y61208600D03*
X83594200Y53666600D03*
X83449300Y55419900D03*
X83437000Y57930100D03*
X88591600Y50032000D03*
X92452000Y48456100D03*
X91403700Y49725500D03*
X89043100Y52563900D03*
X90069200Y50981400D03*
X82396800Y52646500D03*
X86547500Y62344900D03*
X84164700Y62369100D03*
X84213800Y61076200D03*
X82150900Y64516000D03*
X89018900Y62566700D03*
X85473000Y64794200D03*
X81987600Y62393300D03*
X82009700Y61175700D03*
X93515500Y95317800D03*
X92611100Y95309800D03*
X76327000Y91694000D03*
%TO.N,$1N5054*%
X77775600Y91694000D03*
%TO.N,GND*%
X79106800Y91694000D03*
X79106800Y90824500D03*
X77775600Y90824500D03*
X76327000Y90805000D03*
%TO.N,$1N5347*%
X53786800Y91821000D03*
%TO.N,GND*%
X52338200Y91821000D03*
X52338200Y90932000D03*
X53786800Y90951500D03*
X55085700Y90838600D03*
X55118000Y91821000D03*
X57723800Y14097000D03*
X56275200Y14097000D03*
X56275200Y13208000D03*
%TO.N,$1N4761*%
X57723800Y13227500D03*
%TO.N,GND*%
X59055000Y13227500D03*
X59055000Y14097000D03*
X79694800Y14478000D03*
X78246200Y14478000D03*
X78246200Y13589000D03*
%TO.N,$1N1291*%
X79694800Y13608500D03*
%TO.N,GND*%
X81026000Y13608500D03*
X81026000Y14478000D03*
X57023000Y57150000D03*
X54737000Y54864000D03*
X54737000Y52568100D03*
X51562000Y50800000D03*
X51562000Y48768000D03*
X50070300Y47669500D03*
X57404000Y62230000D03*
X56515000Y66802000D03*
X55626000Y65278000D03*
X56261000Y49784000D03*
X13843000Y27051000D03*
X13829200Y29429800D03*
X13829200Y31788300D03*
X13829200Y34981500D03*
X13829200Y37049800D03*
X13829200Y39698600D03*
X25654000Y39751000D03*
X25908000Y36830000D03*
X25908000Y34671000D03*
X26162000Y30734000D03*
X26162000Y27434000D03*
X26162000Y24765000D03*
X11938000Y63754000D03*
X11938000Y59914300D03*
X11938000Y57150000D03*
X19685000Y57150000D03*
X19685000Y60621900D03*
X19685000Y64135000D03*
X28194000Y63881000D03*
X28434400Y60839600D03*
X28434400Y57301700D03*
X16383000Y84582000D03*
X24638000Y84963000D03*
X24885300Y78542500D03*
X24885300Y75548900D03*
X25019000Y72517000D03*
X16129000Y82804000D03*
X16002000Y79248000D03*
X16129000Y75057000D03*
X16002000Y72009000D03*
X3683000Y71628000D03*
X3556000Y75819000D03*
X3429000Y83058000D03*
X3429000Y86870000D03*
X35306000Y80264000D03*
X35306000Y74786900D03*
X35306000Y77617200D03*
X35306000Y71628000D03*
X34671000Y37846000D03*
X34671000Y35052000D03*
X34671000Y33401000D03*
X50056100Y62048600D03*
X50038000Y59309000D03*
X50038000Y53267400D03*
X50038000Y56515000D03*
X34671000Y61341000D03*
X34544000Y57658000D03*
X34798000Y53467000D03*
X34544000Y50292000D03*
X41275000Y50292000D03*
X41402000Y58039000D03*
X41402000Y62865000D03*
X8128000Y20574000D03*
%TO.N,VDD*%
X7000600Y20574000D03*
%TO.N,GND*%
X8177900Y19681400D03*
X7000600Y19681400D03*
X8382000Y22860000D03*
X6968300Y22860000D03*
X2667000Y10795000D03*
X10795000Y10719000D03*
%TO.N,$2N6027*%
X6968300Y18670400D03*
%TO.N,CC1*%
X8128000Y18669000D03*
%TO.N,12V*%
X44196000Y70739000D03*
X45466000Y70739000D03*
X46736000Y70739000D03*
X42926000Y72009000D03*
X44196000Y72009000D03*
X45466000Y72009000D03*
X46736000Y72009000D03*
X42926000Y73279000D03*
X44196000Y73279000D03*
X45466000Y73279000D03*
X46736000Y73279000D03*
X42926000Y74549000D03*
X44196000Y74549000D03*
X45466000Y74549000D03*
X46736000Y74549000D03*
X6985000Y89916000D03*
X8255000Y89916000D03*
X9525000Y89916000D03*
X10795000Y89916000D03*
X10795000Y91186000D03*
X9525000Y91186000D03*
X8255000Y91186000D03*
X6985000Y91186000D03*
X6985000Y92456000D03*
X8255000Y92456000D03*
X9525000Y92456000D03*
X10795000Y92456000D03*
X10795000Y93726000D03*
X9525000Y93726000D03*
X8255000Y93726000D03*
X6985000Y93726000D03*
X42799000Y75819000D03*
X44069000Y75819000D03*
X45339000Y75819000D03*
X46609000Y75819000D03*
X46609000Y77089000D03*
X45339000Y77089000D03*
X44069000Y77089000D03*
X42799000Y77089000D03*
X42799000Y78359000D03*
X44069000Y78359000D03*
X45339000Y78359000D03*
X45339000Y79629000D03*
X44069000Y79629000D03*
X42799000Y79629000D03*
%TO.N,B1A*%
X65786000Y85602600D03*
X65786000Y92583000D03*
%TO.N,B1B*%
X66675000Y85602600D03*
X66675000Y92710000D03*
%TO.N,B2A*%
X68707000Y85602600D03*
X68707000Y92710000D03*
%TO.N,B2B*%
X69596000Y85602600D03*
X69596000Y90297000D03*
%TO.N,+3V3*%
X67743900Y85574400D03*
X67743900Y92837000D03*
X91186000Y91567000D03*
%TO.N,GND*%
X64008000Y51689000D03*
X65405000Y44323000D03*
%TO.N,+3V3*%
X65278100Y36703000D03*
%TO.N,GND*%
X69723000Y37211000D03*
%TO.N,$2N2977*%
X75692000Y37465000D03*
%TO.N,GND*%
X77724000Y37211000D03*
X76292700Y54382500D03*
X65659000Y58801000D03*
X64065100Y40013900D03*
%TO.N,+3V3*%
X33655000Y28321000D03*
X31115000Y30353000D03*
%TO.N,GND*%
X27432000Y24765000D03*
X85979000Y35179000D03*
X50020500Y45904900D03*
%TO.N,+3V3*%
X51587900Y47772600D03*
%TO.N,GND*%
X18028000Y87363900D03*
X22938600Y87339700D03*
X15246000Y81171100D03*
X24220700Y81364700D03*
X12833000Y42073300D03*
X26428100Y42097500D03*
X31242000Y43258600D03*
X1663100Y42369600D03*
X11303000Y32245900D03*
X28429900Y32064500D03*
X12319000Y23972800D03*
X3247600Y23319600D03*
X33660400Y16297700D03*
X34712700Y24244200D03*
%TO.N,12V*%
X50566500Y82469200D03*
X57149000Y81988100D03*
X58698500Y82918700D03*
X57204100Y82929500D03*
X73223600Y82520900D03*
X74685700Y82510200D03*
X81770900Y82811200D03*
X82910500Y82811200D03*
X82878300Y83983100D03*
X81792400Y81822100D03*
%TO.N,GND*%
X58501000Y77855500D03*
X82831200Y77877000D03*
X57449400Y85624000D03*
X59009600Y85660300D03*
X60533600Y85624000D03*
X61404500Y85624000D03*
X60090200Y79141000D03*
X61602100Y79153100D03*
X63037400Y79185300D03*
X64392000Y79177300D03*
X50228500Y85224900D03*
X48559400Y85261200D03*
X47253100Y85261200D03*
X51256600Y78923300D03*
X49785000Y77455700D03*
X71020200Y79020000D03*
X72249900Y78995800D03*
X73540100Y79012000D03*
X74668900Y78983800D03*
X70850900Y85680500D03*
X71999900Y85660300D03*
X73233600Y85624000D03*
X74394800Y85587800D03*
X81780900Y85591800D03*
X83030800Y85559500D03*
X84599100Y85583700D03*
X85921500Y85503100D03*
X84429800Y79141000D03*
X85820800Y79124900D03*
X87453600Y79116800D03*
X62849900Y60490100D03*
X61962900Y61554500D03*
X60918700Y27889400D03*
X82270800Y27566900D03*
X74497600Y25696200D03*
X53193800Y25889700D03*
%TO.N,12V*%
X60628400Y22942500D03*
X60709000Y21023400D03*
X53371200Y20926600D03*
X54435600Y21781300D03*
X53339000Y21749100D03*
X61612100Y21926500D03*
X60676800Y21910400D03*
%TO.N,GND*%
X49456400Y24452400D03*
X50786900Y24404000D03*
X50351500Y19203000D03*
X51681900Y19299800D03*
X53254300Y19299800D03*
X61237200Y19493300D03*
X62253200Y19493300D03*
X63438500Y19469100D03*
X61503300Y24379800D03*
X62857900Y24355600D03*
X71173400Y24512800D03*
X72588600Y24500800D03*
X71391100Y19426800D03*
X72872800Y19426800D03*
X74203300Y19414700D03*
X75400700Y19402600D03*
X82542900Y21102000D03*
X84175800Y19608200D03*
X85651400Y18283800D03*
X82899800Y11099200D03*
X83734300Y9889700D03*
X84599100Y8783000D03*
X86933500Y17025900D03*
X88034200Y15888900D03*
X85439800Y7984700D03*
X82177600Y25571400D03*
X82274300Y24144200D03*
X75767100Y25716600D03*
X75791300Y24555400D03*
X54406900Y25958500D03*
X54431100Y24216800D03*
X60430300Y25765000D03*
X60527100Y24507100D03*
X41380300Y54016400D03*
X50016300Y49916100D03*
X51891100Y52976200D03*
X51963700Y55201800D03*
X52012100Y59217400D03*
X54165000Y59120600D03*
%TO.N,NRST*%
X55100400Y68941900D03*
%TO.N,GND*%
X58991000Y87173500D03*
X60732700Y88697500D03*
X62474400Y90439200D03*
X58805500Y94632200D03*
X57870200Y93487200D03*
X56696900Y92015600D03*
X52399100Y90076400D03*
X51201700Y92072100D03*
X50548500Y93438800D03*
X45420100Y89967500D03*
X46907900Y88661200D03*
X48395600Y87137200D03*
X71134600Y88703500D03*
X72392500Y87373100D03*
X74572600Y93296800D03*
X75303400Y92348200D03*
X80423800Y92130500D03*
X81641400Y93017500D03*
X82875100Y94517300D03*
X83818500Y95476900D03*
X87463200Y91267700D03*
X86374600Y90009800D03*
X84971600Y88897100D03*
X83084700Y87203700D03*
X25061600Y96628200D03*
X22285700Y96573800D03*
X19346600Y96573800D03*
X16679600Y96519300D03*
X14556900Y96464900D03*
X37906700Y94940900D03*
X39503300Y92981500D03*
X83753700Y74741900D03*
X81471800Y75782100D03*
X82395000Y73427500D03*
X83065400Y65926900D03*
X75081500Y74040300D03*
X72033500Y74076600D03*
X73569500Y71605200D03*
X71271500Y71544700D03*
X64522300Y70520600D03*
X64486000Y74911200D03*
X64449700Y76979500D03*
X70690900Y77160900D03*
X70727200Y75020100D03*
X78008500Y61231500D03*
X76359500Y52696300D03*
X70731200Y52139900D03*
X70053900Y51341600D03*
X66215600Y51930200D03*
X66308400Y53587300D03*
X64361000Y55704000D03*
X70650600Y49910300D03*
X65788300Y63940800D03*
X62002500Y62949000D03*
X63381300Y66904100D03*
X65195600Y64993100D03*
X56970800Y68186200D03*
X55688800Y69637700D03*
X58349700Y75201500D03*
X59752800Y73943600D03*
X50741800Y76157000D03*
X90988700Y35692400D03*
X88231000Y38885500D03*
X68376700Y24673600D03*
X68376700Y26524200D03*
X69102400Y27903100D03*
X71533500Y30624500D03*
X62861200Y25617100D03*
X62861200Y27032200D03*
X68340400Y13533900D03*
X68412900Y15130500D03*
X68412900Y16400500D03*
X63296700Y17416500D03*
X63260400Y18396200D03*
X54787700Y11120900D03*
X67347100Y6498400D03*
X41661300Y10717200D03*
X39701900Y12023500D03*
X44999600Y12676700D03*
X46124400Y11696900D03*
X21151600Y5532800D03*
X22635300Y5532800D03*
X24183500Y5549000D03*
X29569900Y9096900D03*
X29505400Y10596700D03*
X29440900Y12225500D03*
X32083700Y14636500D03*
X31970800Y18216700D03*
X33857700Y18216700D03*
X33426300Y24220000D03*
X26120800Y26155200D03*
X27330300Y26227800D03*
X34881800Y28324300D03*
X92576400Y94098700D03*
X93544000Y94074500D03*
X48779600Y95223600D03*
X49686700Y95259800D03*
X49686700Y94389000D03*
X50811600Y95320300D03*
X85291100Y77536300D03*
X88529900Y77379000D03*
X82892200Y76226000D03*
X74554500Y76258200D03*
X74627100Y77673400D03*
X51222800Y74480200D03*
X49807700Y74081100D03*
X54452200Y56990500D03*
X69752700Y35739200D03*
X79162800Y37190600D03*
X77808100Y35690800D03*
X79307900Y35690800D03*
X84908000Y35194900D03*
X98370000Y27123300D03*
X94233500Y27123300D03*
X89492100Y27050800D03*
X87387600Y27026600D03*
X87411800Y28357000D03*
X83601800Y25619500D03*
X83730800Y24022900D03*
X69950300Y24587400D03*
X60733700Y26861300D03*
X61870600Y28699700D03*
X50936600Y26014600D03*
X12180400Y16513800D03*
X10172600Y14433400D03*
X7632600Y12474000D03*
X1875200Y24823200D03*
%TO.N,MOSI*%
X68040400Y61980100D03*
X81506400Y68469100D03*
%TO.N,MISO*%
X82157200Y67801400D03*
X69041800Y61872500D03*
%TO.N,PWM2C*%
X79317300Y63582900D03*
X81388600Y63585900D03*
%TO.N,MISO*%
X82392000Y69202100D03*
X67318500Y54119000D03*
%TO.N,GND*%
X81412300Y67148500D03*
X72139200Y62294300D03*
%TO.N,CSN*%
X81521000Y69890500D03*
X66696200Y62649500D03*
%TO.N,CE*%
X82096300Y70960000D03*
X66985300Y63856000D03*
%TO.N,USART2_TX*%
X77528800Y59743600D03*
X79052800Y60310700D03*
%TO.N,GND*%
X47918400Y14088900D03*
X49623800Y15576600D03*
X51256700Y17173100D03*
X53724100Y11113400D03*
X52309000Y9154000D03*
X50930100Y7666300D03*
X76402700Y10823100D03*
X70415500Y14959700D03*
X72193500Y16846600D03*
X73536100Y18044000D03*
X75350400Y9988600D03*
X77092100Y8972600D03*
%TD*%
%TO.N,$1N3970*%
D12*
X11329200Y87499400D02*
X11329200Y87412400D01*
%TO.N,+3V3*%
D13*
X41147600Y14461100D02*
X41147600Y31492400D01*
D14*
X55103500Y45335400D02*
X55126000Y45335400D01*
%TO.N,SCL*%
D15*
X85330200Y41398400D02*
X85457200Y41271400D01*
X85457200Y41271400D02*
X85457200Y39747400D01*
%TO.N,CS1*%
X82296000Y38100000D02*
X83820000Y36576000D01*
X83820000Y36576000D02*
X89281000Y36576000D01*
%TO.N,B3B*%
X54859200Y7117400D02*
X53580200Y5838400D01*
%TO.N,SDA*%
X78486000Y7493000D02*
X80267600Y5711400D01*
X80267600Y5711400D02*
X81393200Y5711400D01*
X81393200Y5711400D02*
X81520200Y5838400D01*
%TO.N,+3V3*%
D13*
X73900200Y5838400D02*
X71993400Y7745200D01*
X49770200Y5838400D02*
X42358100Y13250600D01*
X42358100Y13250600D02*
X41147600Y14461100D01*
D15*
X41656000Y12700000D02*
X41807500Y12700000D01*
X41807500Y12700000D02*
X42358100Y13250600D01*
%TO.N,PWM3C*%
X42418000Y16764000D02*
X42418000Y28575000D01*
X42418000Y28575000D02*
X43561000Y29718000D01*
%TO.N,PWM3A*%
X56769000Y33020000D02*
X56769000Y30577200D01*
X56769000Y30577200D02*
X56747800Y30556000D01*
%TO.N,PWM3B*%
X58039000Y33147000D02*
X58017800Y33125800D01*
X58017800Y33125800D02*
X58017800Y30458800D01*
%TO.N,+3V3*%
D13*
X76591500Y29453500D02*
X79649900Y32512000D01*
X79649900Y32512000D02*
X81407000Y32512000D01*
X64135000Y37084000D02*
X64135000Y33909000D01*
X64135000Y33909000D02*
X63500000Y33274000D01*
%TO.N,B3B*%
D15*
X58806400Y7117400D02*
X54859200Y7117400D01*
%TO.N,B4B*%
X77710200Y5838400D02*
X76965600Y5838400D01*
X76965600Y5838400D02*
X74575800Y8228200D01*
%TO.N,SDA*%
X75438000Y8890000D02*
X76835000Y7493000D01*
X76835000Y7493000D02*
X78486000Y7493000D01*
X72263000Y33274000D02*
X72263000Y33020000D01*
%TO.N,B3A*%
X68199000Y33655000D02*
X68199000Y32004000D01*
%TO.N,B3B*%
X66817400Y33702700D02*
X66817400Y31511400D01*
%TO.N,B1B*%
X56501200Y97405400D02*
X58502500Y97405400D01*
%TO.N,B1A*%
X54084700Y96012000D02*
X52691200Y97405400D01*
%TO.N,B2A*%
X77710200Y97405400D02*
X75554800Y95250000D01*
%TO.N,+3V3*%
D13*
X60311200Y97405400D02*
X61029700Y97405400D01*
X61029700Y97405400D02*
X62931100Y95504000D01*
X62931100Y95504000D02*
X66040000Y95504000D01*
%TO.N,B1A*%
D15*
X58547000Y96012000D02*
X54084700Y96012000D01*
X60833000Y93726000D02*
X58547000Y96012000D01*
%TO.N,B1B*%
X58502500Y97405400D02*
X61419900Y94488000D01*
X61419900Y94488000D02*
X65532000Y94488000D01*
%TO.N,B1A*%
X65024000Y93726000D02*
X60833000Y93726000D01*
%TO.N,B1B*%
X65532000Y94488000D02*
X66675000Y93345000D01*
%TO.N,B1A*%
X65786000Y92964000D02*
X65024000Y93726000D01*
%TO.N,B2A*%
X75554800Y95250000D02*
X70485000Y95250000D01*
X70485000Y95250000D02*
X68707000Y93472000D01*
%TO.N,B2B*%
X81520200Y97405400D02*
X78475800Y94361000D01*
X70866000Y94361000D02*
X69596000Y93091000D01*
X78475800Y94361000D02*
X70866000Y94361000D01*
%TO.N,+3V3*%
D13*
X66040000Y95504000D02*
X67743900Y93800100D01*
X64389000Y72771000D02*
X67743900Y72771000D01*
%TO.N,CC1*%
D12*
X5193200Y12823400D02*
X7098200Y14728400D01*
X7098200Y14728400D02*
X7225200Y14728400D01*
%TO.N,+3V3*%
D13*
X41147600Y31492400D02*
X41187800Y31452300D01*
X41187800Y31452300D02*
X48460100Y31452300D01*
X48460100Y31452300D02*
X48500200Y31492400D01*
%TO.N,$1N3970*%
D12*
X11329200Y87412400D02*
X1891200Y77974400D01*
X1891200Y77974400D02*
X1891200Y43684400D01*
%TO.N,+3V3*%
D13*
X35038200Y31492400D02*
X41147600Y31492400D01*
%TO.N,$1N5797*%
D12*
X36529600Y43576100D02*
X36885200Y43931700D01*
X36885200Y43931700D02*
X36885200Y80436800D01*
X36885200Y80436800D02*
X29918200Y87403800D01*
X35163900Y43576100D02*
X36529600Y43576100D01*
X29918200Y87403800D02*
X29918200Y87880400D01*
%TO.N,B1A*%
D15*
X65786000Y92583000D02*
X65786000Y92964000D01*
%TO.N,B1B*%
X66675000Y93345000D02*
X66675000Y92710000D01*
%TO.N,B2A*%
X68707000Y93472000D02*
X68707000Y92710000D01*
%TO.N,B2B*%
X69596000Y93091000D02*
X69596000Y90297000D01*
X69596000Y85602600D02*
X69596000Y78994000D01*
%TO.N,+3V3*%
D13*
X67743900Y93800100D02*
X67743900Y92837000D01*
X67743900Y85574400D02*
X67743900Y72771000D01*
%TO.N,B1B*%
D15*
X66675000Y85602600D02*
X66675000Y78994000D01*
%TO.N,B1A*%
X65786000Y78867000D02*
X65786000Y85602600D01*
%TO.N,B2A*%
X68707000Y85602600D02*
X68580000Y85475600D01*
X68580000Y85475600D02*
X68580000Y78994000D01*
%TO.N,+3V3*%
D13*
X67743900Y72771000D02*
X70866000Y72771000D01*
X70866000Y72771000D02*
X70993000Y72644000D01*
X48514000Y76200000D02*
X48514000Y78613000D01*
X48514000Y78613000D02*
X42926000Y84201000D01*
%TO.N,PWM1C*%
D15*
X45720000Y85417400D02*
X45720000Y83058000D01*
X45720000Y83058000D02*
X53340000Y75438000D01*
X53340000Y75438000D02*
X56134000Y75438000D01*
X56134000Y75438000D02*
X61912500Y69659500D01*
%TO.N,+3V3*%
D13*
X91186000Y91567000D02*
X91168700Y91567000D01*
X91168700Y91567000D02*
X85330200Y97405400D01*
%TO.N,SDA*%
D15*
X72263000Y33020000D02*
X67310000Y28067000D01*
%TO.N,B4B*%
X66548000Y28956000D02*
X71247000Y33655000D01*
%TO.N,+3V3*%
D13*
X65786000Y24539700D02*
X65772200Y24553400D01*
%TO.N,B3A*%
D15*
X68199000Y32004000D02*
X65024000Y28829000D01*
%TO.N,B3B*%
X66817400Y31511400D02*
X64262000Y28956000D01*
X64262000Y28956000D02*
X64262000Y12573000D01*
X64262000Y12573000D02*
X58806400Y7117400D01*
%TO.N,SDA*%
X67310000Y28067000D02*
X67310000Y11811000D01*
X67310000Y11811000D02*
X70231000Y8890000D01*
X70231000Y8890000D02*
X75438000Y8890000D01*
%TO.N,B4B*%
X74575800Y8228200D02*
X69876800Y8228200D01*
X69876800Y8228200D02*
X66548000Y11557000D01*
X66548000Y11557000D02*
X66548000Y28956000D01*
%TO.N,+3V3*%
D13*
X71993400Y7745200D02*
X69343800Y7745200D01*
X69343800Y7745200D02*
X65786000Y11303000D01*
X65786000Y11303000D02*
X65786000Y24539700D01*
%TO.N,B3A*%
D15*
X65024000Y28829000D02*
X65024000Y11938000D01*
X65024000Y11938000D02*
X58924400Y5838400D01*
X58924400Y5838400D02*
X57390200Y5838400D01*
%TO.N,GND*%
X64770000Y42545000D02*
X64770000Y43688000D01*
X64770000Y43688000D02*
X65405000Y44323000D01*
X69723000Y38354000D02*
X69723000Y37211000D01*
X77724000Y38608000D02*
X77724000Y37211000D01*
%TO.N,PWM1A*%
X65405000Y53721000D02*
X66929000Y55245000D01*
%TO.N,PWM1B*%
X64643000Y54248600D02*
X66294000Y55899600D01*
%TO.N,+3V3*%
X33655000Y28321000D02*
X31623000Y30353000D01*
X31623000Y30353000D02*
X31115000Y30353000D01*
%TO.N,GND*%
X88773000Y32893000D02*
X88392000Y32512000D01*
X88392000Y32512000D02*
X88392000Y32258000D01*
%TO.N,+3V3*%
D14*
X55126000Y45335400D02*
X56091500Y46300900D01*
%TO.N,VDDA*%
X57421100Y40373700D02*
X59604600Y40373700D01*
X59604600Y40373700D02*
X64914000Y45683100D01*
%TO.N,PWM1B*%
D15*
X94098900Y47201300D02*
X95632800Y47201300D01*
X95632800Y47201300D02*
X95654300Y47179800D01*
%TO.N,B1B*%
X74567100Y51289900D02*
X74645800Y51289900D01*
%TO.N,B1A*%
X74603400Y50237600D02*
X74625000Y50237600D01*
%TO.N,CS2*%
X82104400Y41185400D02*
X85540500Y37749200D01*
X85540500Y37749200D02*
X91464200Y37749200D01*
%TO.N,PWM3C*%
X43561000Y29718000D02*
X61292600Y29718000D01*
%TO.N,PWM2C*%
X79211500Y63658500D02*
X81316000Y63658500D01*
X81316000Y63658500D02*
X81388600Y63585900D01*
%TO.N,PWM1B*%
X66294000Y55899600D02*
X66294000Y60270600D01*
X66294000Y60270600D02*
X53594000Y72970600D01*
X53594000Y72970600D02*
X53594000Y73914000D01*
%TO.N,PWM1A*%
X66929000Y55245000D02*
X66929000Y60494300D01*
X66929000Y60494300D02*
X54864000Y72559300D01*
X54864000Y72559300D02*
X54864000Y73914000D01*
%TO.N,MISO*%
X67415300Y62295400D02*
X67415300Y62275000D01*
X67415300Y62275000D02*
X67361200Y62221000D01*
X67415300Y62275000D02*
X67415300Y54215800D01*
X67415300Y54215800D02*
X67318500Y54119000D01*
%TO.N,+3V3*%
D13*
X80264000Y72644000D02*
X80239800Y72619800D01*
X80239800Y72619800D02*
X76478200Y72619800D01*
X76478200Y72619800D02*
X76454000Y72644000D01*
%TO.N,GND*%
D15*
X81412300Y67148500D02*
X76932600Y67148500D01*
%TO.N,MISO*%
X82157200Y67801400D02*
X75299000Y67801400D01*
%TO.N,MOSI*%
X74708500Y68460100D02*
X81497400Y68460100D01*
X81497400Y68460100D02*
X81506400Y68469100D01*
%TO.N,MISO*%
X74332700Y69192500D02*
X67415300Y62275000D01*
X82392000Y69202100D02*
X82382400Y69192500D01*
X82382400Y69192500D02*
X74332700Y69192500D01*
%TO.N,CSN*%
X81521000Y69890500D02*
X73892900Y69890500D01*
X73892900Y69890500D02*
X67495200Y63492800D01*
%TO.N,MOSI*%
X68040400Y61980100D02*
X68228500Y61980100D01*
X68228500Y61980100D02*
X74708500Y68460100D01*
%TO.N,MISO*%
X75299000Y67801400D02*
X69370100Y61872500D01*
X69370100Y61872500D02*
X69041800Y61872500D01*
%TO.N,CE*%
X82096300Y70960000D02*
X74089300Y70960000D01*
X74089300Y70960000D02*
X66985300Y63856000D01*
%TO.N,CSN*%
X67465000Y63458500D02*
X66696200Y62689800D01*
X66696200Y62689800D02*
X66696200Y62649500D01*
%TO.N,B1A*%
X70317000Y54524000D02*
X74603400Y50237600D01*
%TO.N,B1B*%
X70867300Y54989700D02*
X74567100Y51289900D01*
%TO.N,B1A*%
X70411800Y61699800D02*
X70317000Y61605100D01*
X70317000Y61605100D02*
X70317000Y54524000D01*
%TO.N,B1B*%
X71060900Y60639500D02*
X70867300Y60446000D01*
X70867300Y60446000D02*
X70867300Y54989700D01*
%TO.N,B2B*%
X74452200Y62659400D02*
X74452200Y62557200D01*
%TO.N,PWM1B*%
X94038800Y47222300D02*
X92472800Y47222300D01*
%TO.N,GND*%
X76932600Y67148500D02*
X72139200Y62355100D01*
X72139200Y62355100D02*
X72139200Y62294300D01*
%TO.N,B2A*%
X73702000Y62187000D02*
X74524500Y61364500D01*
X74524500Y59051800D02*
X74500100Y59027500D01*
X74500100Y59027500D02*
X74500100Y58543700D01*
X74500100Y58543700D02*
X74524500Y58519300D01*
X74524500Y58519300D02*
X74524500Y52559200D01*
X74524500Y61364500D02*
X74524500Y59051800D01*
%TO.N,B2B*%
X75153500Y61775700D02*
X75153500Y52849500D01*
X74452200Y62557200D02*
X75024300Y61985200D01*
X75024300Y61985200D02*
X75153500Y61775700D01*
X75153500Y52849500D02*
X79713600Y48289300D01*
X79713600Y48289300D02*
X79915700Y48289300D01*
%TO.N,B2A*%
X74524500Y52559200D02*
X74524500Y52392600D01*
X79351000Y47675600D02*
X79351000Y47566100D01*
%TO.N,PWM1B*%
X92472800Y47222300D02*
X80931000Y58764100D01*
X80931000Y58764100D02*
X76403700Y58764100D01*
%TO.N,+3V3*%
D12*
X94068800Y54875200D02*
X92930900Y53737300D01*
X92930900Y53737300D02*
X91097000Y53737300D01*
X94068800Y59284000D02*
X94068800Y54875200D01*
%TO.N,USART2_TX*%
D15*
X87749300Y56167500D02*
X89926400Y56167500D01*
X85073700Y58813800D02*
X85413800Y58473600D01*
X85073800Y58813700D02*
X87749300Y56167500D01*
X84276900Y59610600D02*
X85073700Y58813800D01*
X77528800Y59743600D02*
X77661800Y59610600D01*
X77661800Y59610600D02*
X84276900Y59610600D01*
X78973500Y60357800D02*
X84838400Y60357800D01*
X84838400Y60357800D02*
X86633800Y58562400D01*
X86633800Y58562400D02*
X89778600Y58562400D01*
%TO.N,$2N11066*%
X82280500Y46084700D02*
X83627300Y47431500D01*
X83627300Y47431500D02*
X87648100Y47431500D01*
%TO.N,PWM2A*%
X73484600Y53346000D02*
X73484600Y59650100D01*
X73484600Y59650100D02*
X73604000Y59769500D01*
%TO.N,PWM2B*%
X72731100Y54300700D02*
X72731100Y60075000D01*
X72731100Y60075000D02*
X72894600Y60238500D01*
%TO.N,B2A*%
X74524500Y52392600D02*
X79351000Y47566100D01*
X79351000Y47566100D02*
X79351000Y47675600D01*
%TO.N,PWM3C*%
X61292600Y29718000D02*
X66375100Y34800500D01*
X66375100Y34800500D02*
X74362100Y34800500D01*
%TD*%
M02*
