ISO-10303-21;
HEADER;
/* Generated by software containing ST-Developer
 * from STEP Tools, Inc. (www.steptools.com) 
 */

FILE_DESCRIPTION(
/* description */ (''),
/* implementation_level */ '2;1');

FILE_NAME(
/* name */ '',
/* time_stamp */ '2023-12-22T18:31:30+08:00',
/* author */ (''),
/* organization */ (''),
/* preprocessor_version */ 'ST-DEVELOPER v20',
/* originating_system */ 'Autodesk Translation Framework v12.14.0.127',

/* authorisation */ '');

FILE_SCHEMA (('AUTOMOTIVE_DESIGN { 1 0 10303 214 3 1 1 }'));
ENDSEC;

DATA;
#10=MECHANICAL_DESIGN_GEOMETRIC_PRESENTATION_REPRESENTATION('',(#13),#808);
#11=SHAPE_REPRESENTATION_RELATIONSHIP('SRR','None',#814,#12);
#12=ADVANCED_BREP_SHAPE_REPRESENTATION('',(#14),#807);
#13=STYLED_ITEM('',(#824),#14);
#14=MANIFOLD_SOLID_BREP('\X2\5B9E4F53\X0\43',#506);
#15=CYLINDRICAL_SURFACE('',#529,1.06480542660102);
#16=CYLINDRICAL_SURFACE('',#532,1.06480542660102);
#17=CYLINDRICAL_SURFACE('',#534,1.06480542660102);
#18=CYLINDRICAL_SURFACE('',#536,1.06480542660102);
#19=CIRCLE('',#522,1.06480542660102);
#20=CIRCLE('',#523,1.06480542660102);
#21=CIRCLE('',#524,1.06480542660102);
#22=CIRCLE('',#525,1.06480542660102);
#23=CIRCLE('',#530,1.06480542660102);
#24=CIRCLE('',#533,1.06480542660102);
#25=CIRCLE('',#535,1.06480542660102);
#26=CIRCLE('',#537,1.06480542660102);
#27=FACE_BOUND('',#76,.T.);
#28=FACE_BOUND('',#77,.T.);
#29=FACE_BOUND('',#78,.T.);
#30=FACE_BOUND('',#79,.T.);
#31=FACE_BOUND('',#80,.T.);
#32=FACE_BOUND('',#92,.T.);
#33=FACE_BOUND('',#93,.T.);
#34=FACE_BOUND('',#94,.T.);
#35=FACE_BOUND('',#95,.T.);
#36=FACE_BOUND('',#96,.T.);
#37=FACE_OUTER_BOUND('',#62,.T.);
#38=FACE_OUTER_BOUND('',#63,.T.);
#39=FACE_OUTER_BOUND('',#64,.T.);
#40=FACE_OUTER_BOUND('',#65,.T.);
#41=FACE_OUTER_BOUND('',#66,.T.);
#42=FACE_OUTER_BOUND('',#67,.T.);
#43=FACE_OUTER_BOUND('',#68,.T.);
#44=FACE_OUTER_BOUND('',#69,.T.);
#45=FACE_OUTER_BOUND('',#70,.T.);
#46=FACE_OUTER_BOUND('',#71,.T.);
#47=FACE_OUTER_BOUND('',#72,.T.);
#48=FACE_OUTER_BOUND('',#73,.T.);
#49=FACE_OUTER_BOUND('',#74,.T.);
#50=FACE_OUTER_BOUND('',#75,.T.);
#51=FACE_OUTER_BOUND('',#81,.T.);
#52=FACE_OUTER_BOUND('',#82,.T.);
#53=FACE_OUTER_BOUND('',#83,.T.);
#54=FACE_OUTER_BOUND('',#84,.T.);
#55=FACE_OUTER_BOUND('',#85,.T.);
#56=FACE_OUTER_BOUND('',#86,.T.);
#57=FACE_OUTER_BOUND('',#87,.T.);
#58=FACE_OUTER_BOUND('',#88,.T.);
#59=FACE_OUTER_BOUND('',#89,.T.);
#60=FACE_OUTER_BOUND('',#90,.T.);
#61=FACE_OUTER_BOUND('',#91,.T.);
#62=EDGE_LOOP('',(#326,#327,#328,#329));
#63=EDGE_LOOP('',(#330,#331,#332,#333));
#64=EDGE_LOOP('',(#334,#335,#336,#337));
#65=EDGE_LOOP('',(#338,#339,#340,#341));
#66=EDGE_LOOP('',(#342,#343,#344,#345));
#67=EDGE_LOOP('',(#346,#347,#348,#349));
#68=EDGE_LOOP('',(#350,#351,#352,#353,#354,#355,#356,#357));
#69=EDGE_LOOP('',(#358,#359,#360,#361));
#70=EDGE_LOOP('',(#362,#363,#364,#365));
#71=EDGE_LOOP('',(#366,#367,#368,#369));
#72=EDGE_LOOP('',(#370,#371,#372,#373,#374,#375,#376));
#73=EDGE_LOOP('',(#377,#378,#379,#380,#381,#382,#383));
#74=EDGE_LOOP('',(#384,#385,#386,#387));
#75=EDGE_LOOP('',(#388,#389,#390,#391));
#76=EDGE_LOOP('',(#392,#393,#394,#395,#396,#397,#398,#399));
#77=EDGE_LOOP('',(#400));
#78=EDGE_LOOP('',(#401));
#79=EDGE_LOOP('',(#402));
#80=EDGE_LOOP('',(#403));
#81=EDGE_LOOP('',(#404,#405,#406,#407));
#82=EDGE_LOOP('',(#408,#409,#410,#411));
#83=EDGE_LOOP('',(#412,#413,#414,#415));
#84=EDGE_LOOP('',(#416,#417,#418,#419));
#85=EDGE_LOOP('',(#420,#421,#422,#423));
#86=EDGE_LOOP('',(#424,#425,#426,#427));
#87=EDGE_LOOP('',(#428,#429,#430,#431));
#88=EDGE_LOOP('',(#432,#433,#434,#435));
#89=EDGE_LOOP('',(#436,#437,#438,#439));
#90=EDGE_LOOP('',(#440,#441,#442,#443));
#91=EDGE_LOOP('',(#444,#445,#446,#447));
#92=EDGE_LOOP('',(#448));
#93=EDGE_LOOP('',(#449));
#94=EDGE_LOOP('',(#450));
#95=EDGE_LOOP('',(#451,#452,#453,#454,#455,#456,#457,#458));
#96=EDGE_LOOP('',(#459));
#97=LINE('',#672,#156);
#98=LINE('',#674,#157);
#99=LINE('',#676,#158);
#100=LINE('',#677,#159);
#101=LINE('',#680,#160);
#102=LINE('',#682,#161);
#103=LINE('',#683,#162);
#104=LINE('',#686,#163);
#105=LINE('',#688,#164);
#106=LINE('',#689,#165);
#107=LINE('',#692,#166);
#108=LINE('',#694,#167);
#109=LINE('',#695,#168);
#110=LINE('',#698,#169);
#111=LINE('',#699,#170);
#112=LINE('',#702,#171);
#113=LINE('',#703,#172);
#114=LINE('',#706,#173);
#115=LINE('',#708,#174);
#116=LINE('',#710,#175);
#117=LINE('',#712,#176);
#118=LINE('',#713,#177);
#119=LINE('',#716,#178);
#120=LINE('',#718,#179);
#121=LINE('',#719,#180);
#122=LINE('',#722,#181);
#123=LINE('',#723,#182);
#124=LINE('',#726,#183);
#125=LINE('',#727,#184);
#126=LINE('',#730,#185);
#127=LINE('',#732,#186);
#128=LINE('',#733,#187);
#129=LINE('',#736,#188);
#130=LINE('',#738,#189);
#131=LINE('',#739,#190);
#132=LINE('',#742,#191);
#133=LINE('',#744,#192);
#134=LINE('',#745,#193);
#135=LINE('',#749,#194);
#136=LINE('',#751,#195);
#137=LINE('',#753,#196);
#138=LINE('',#754,#197);
#139=LINE('',#756,#198);
#140=LINE('',#757,#199);
#141=LINE('',#768,#200);
#142=LINE('',#769,#201);
#143=LINE('',#772,#202);
#144=LINE('',#774,#203);
#145=LINE('',#775,#204);
#146=LINE('',#778,#205);
#147=LINE('',#779,#206);
#148=LINE('',#783,#207);
#149=LINE('',#785,#208);
#150=LINE('',#789,#209);
#151=LINE('',#793,#210);
#152=LINE('',#797,#211);
#153=LINE('',#800,#212);
#154=LINE('',#801,#213);
#155=LINE('',#803,#214);
#156=VECTOR('',#545,10.);
#157=VECTOR('',#546,10.);
#158=VECTOR('',#547,10.);
#159=VECTOR('',#548,10.);
#160=VECTOR('',#551,10.);
#161=VECTOR('',#552,10.);
#162=VECTOR('',#553,10.);
#163=VECTOR('',#556,10.);
#164=VECTOR('',#557,10.);
#165=VECTOR('',#558,10.);
#166=VECTOR('',#561,10.);
#167=VECTOR('',#562,10.);
#168=VECTOR('',#563,10.);
#169=VECTOR('',#566,10.);
#170=VECTOR('',#567,10.);
#171=VECTOR('',#570,10.);
#172=VECTOR('',#571,10.);
#173=VECTOR('',#574,10.);
#174=VECTOR('',#575,10.);
#175=VECTOR('',#576,10.);
#176=VECTOR('',#577,10.);
#177=VECTOR('',#578,10.);
#178=VECTOR('',#581,10.);
#179=VECTOR('',#582,10.);
#180=VECTOR('',#583,10.);
#181=VECTOR('',#586,10.);
#182=VECTOR('',#587,10.);
#183=VECTOR('',#590,10.);
#184=VECTOR('',#591,10.);
#185=VECTOR('',#594,10.);
#186=VECTOR('',#595,10.);
#187=VECTOR('',#596,10.);
#188=VECTOR('',#599,10.);
#189=VECTOR('',#600,10.);
#190=VECTOR('',#601,10.);
#191=VECTOR('',#604,10.);
#192=VECTOR('',#605,10.);
#193=VECTOR('',#606,10.);
#194=VECTOR('',#609,10.);
#195=VECTOR('',#610,10.);
#196=VECTOR('',#611,10.);
#197=VECTOR('',#612,10.);
#198=VECTOR('',#613,10.);
#199=VECTOR('',#614,10.);
#200=VECTOR('',#625,10.);
#201=VECTOR('',#626,10.);
#202=VECTOR('',#629,10.);
#203=VECTOR('',#630,10.);
#204=VECTOR('',#631,10.);
#205=VECTOR('',#634,10.);
#206=VECTOR('',#635,10.);
#207=VECTOR('',#640,1.06480542660102);
#208=VECTOR('',#643,10.);
#209=VECTOR('',#648,1.06480542660102);
#210=VECTOR('',#653,1.06480542660102);
#211=VECTOR('',#658,1.06480542660102);
#212=VECTOR('',#661,10.);
#213=VECTOR('',#662,10.);
#214=VECTOR('',#665,10.);
#215=VERTEX_POINT('',#670);
#216=VERTEX_POINT('',#671);
#217=VERTEX_POINT('',#673);
#218=VERTEX_POINT('',#675);
#219=VERTEX_POINT('',#679);
#220=VERTEX_POINT('',#681);
#221=VERTEX_POINT('',#685);
#222=VERTEX_POINT('',#687);
#223=VERTEX_POINT('',#691);
#224=VERTEX_POINT('',#693);
#225=VERTEX_POINT('',#697);
#226=VERTEX_POINT('',#701);
#227=VERTEX_POINT('',#705);
#228=VERTEX_POINT('',#707);
#229=VERTEX_POINT('',#709);
#230=VERTEX_POINT('',#711);
#231=VERTEX_POINT('',#715);
#232=VERTEX_POINT('',#717);
#233=VERTEX_POINT('',#721);
#234=VERTEX_POINT('',#725);
#235=VERTEX_POINT('',#729);
#236=VERTEX_POINT('',#731);
#237=VERTEX_POINT('',#735);
#238=VERTEX_POINT('',#737);
#239=VERTEX_POINT('',#741);
#240=VERTEX_POINT('',#743);
#241=VERTEX_POINT('',#747);
#242=VERTEX_POINT('',#748);
#243=VERTEX_POINT('',#750);
#244=VERTEX_POINT('',#752);
#245=VERTEX_POINT('',#755);
#246=VERTEX_POINT('',#758);
#247=VERTEX_POINT('',#760);
#248=VERTEX_POINT('',#762);
#249=VERTEX_POINT('',#764);
#250=VERTEX_POINT('',#767);
#251=VERTEX_POINT('',#771);
#252=VERTEX_POINT('',#773);
#253=VERTEX_POINT('',#777);
#254=VERTEX_POINT('',#781);
#255=VERTEX_POINT('',#787);
#256=VERTEX_POINT('',#791);
#257=VERTEX_POINT('',#795);
#258=VERTEX_POINT('',#799);
#259=EDGE_CURVE('',#215,#216,#97,.T.);
#260=EDGE_CURVE('',#217,#216,#98,.F.);
#261=EDGE_CURVE('',#217,#218,#99,.T.);
#262=EDGE_CURVE('',#218,#215,#100,.T.);
#263=EDGE_CURVE('',#218,#219,#101,.T.);
#264=EDGE_CURVE('',#219,#220,#102,.T.);
#265=EDGE_CURVE('',#220,#215,#103,.T.);
#266=EDGE_CURVE('',#219,#221,#104,.T.);
#267=EDGE_CURVE('',#221,#222,#105,.T.);
#268=EDGE_CURVE('',#222,#220,#106,.T.);
#269=EDGE_CURVE('',#223,#215,#107,.T.);
#270=EDGE_CURVE('',#224,#223,#108,.T.);
#271=EDGE_CURVE('',#224,#216,#109,.T.);
#272=EDGE_CURVE('',#225,#220,#110,.T.);
#273=EDGE_CURVE('',#223,#225,#111,.T.);
#274=EDGE_CURVE('',#226,#222,#112,.T.);
#275=EDGE_CURVE('',#225,#226,#113,.T.);
#276=EDGE_CURVE('',#226,#227,#114,.T.);
#277=EDGE_CURVE('',#227,#228,#115,.T.);
#278=EDGE_CURVE('',#228,#229,#116,.T.);
#279=EDGE_CURVE('',#229,#230,#117,.T.);
#280=EDGE_CURVE('',#230,#224,#118,.T.);
#281=EDGE_CURVE('',#231,#227,#119,.T.);
#282=EDGE_CURVE('',#232,#231,#120,.T.);
#283=EDGE_CURVE('',#228,#232,#121,.T.);
#284=EDGE_CURVE('',#233,#232,#122,.T.);
#285=EDGE_CURVE('',#229,#233,#123,.T.);
#286=EDGE_CURVE('',#234,#233,#124,.T.);
#287=EDGE_CURVE('',#230,#234,#125,.T.);
#288=EDGE_CURVE('',#235,#234,#126,.T.);
#289=EDGE_CURVE('',#236,#235,#127,.T.);
#290=EDGE_CURVE('',#217,#236,#128,.T.);
#291=EDGE_CURVE('',#237,#221,#129,.T.);
#292=EDGE_CURVE('',#238,#237,#130,.T.);
#293=EDGE_CURVE('',#231,#238,#131,.T.);
#294=EDGE_CURVE('',#237,#239,#132,.T.);
#295=EDGE_CURVE('',#239,#240,#133,.T.);
#296=EDGE_CURVE('',#238,#240,#134,.T.);
#297=EDGE_CURVE('',#241,#242,#135,.T.);
#298=EDGE_CURVE('',#243,#241,#136,.T.);
#299=EDGE_CURVE('',#244,#243,#137,.T.);
#300=EDGE_CURVE('',#242,#244,#138,.T.);
#301=EDGE_CURVE('',#245,#236,#139,.T.);
#302=EDGE_CURVE('',#239,#245,#140,.T.);
#303=EDGE_CURVE('',#246,#246,#19,.T.);
#304=EDGE_CURVE('',#247,#247,#20,.T.);
#305=EDGE_CURVE('',#248,#248,#21,.T.);
#306=EDGE_CURVE('',#249,#249,#22,.T.);
#307=EDGE_CURVE('',#250,#235,#141,.T.);
#308=EDGE_CURVE('',#245,#250,#142,.T.);
#309=EDGE_CURVE('',#241,#251,#143,.T.);
#310=EDGE_CURVE('',#252,#251,#144,.T.);
#311=EDGE_CURVE('',#243,#252,#145,.T.);
#312=EDGE_CURVE('',#242,#253,#146,.T.);
#313=EDGE_CURVE('',#251,#253,#147,.T.);
#314=EDGE_CURVE('',#254,#254,#23,.T.);
#315=EDGE_CURVE('',#254,#249,#148,.T.);
#316=EDGE_CURVE('',#240,#250,#149,.T.);
#317=EDGE_CURVE('',#255,#255,#24,.T.);
#318=EDGE_CURVE('',#255,#248,#150,.T.);
#319=EDGE_CURVE('',#256,#256,#25,.T.);
#320=EDGE_CURVE('',#256,#247,#151,.T.);
#321=EDGE_CURVE('',#257,#257,#26,.T.);
#322=EDGE_CURVE('',#257,#246,#152,.T.);
#323=EDGE_CURVE('',#258,#252,#153,.T.);
#324=EDGE_CURVE('',#244,#258,#154,.T.);
#325=EDGE_CURVE('',#253,#258,#155,.T.);
#326=ORIENTED_EDGE('',*,*,#259,.T.);
#327=ORIENTED_EDGE('',*,*,#260,.F.);
#328=ORIENTED_EDGE('',*,*,#261,.T.);
#329=ORIENTED_EDGE('',*,*,#262,.T.);
#330=ORIENTED_EDGE('',*,*,#263,.T.);
#331=ORIENTED_EDGE('',*,*,#264,.T.);
#332=ORIENTED_EDGE('',*,*,#265,.T.);
#333=ORIENTED_EDGE('',*,*,#262,.F.);
#334=ORIENTED_EDGE('',*,*,#266,.T.);
#335=ORIENTED_EDGE('',*,*,#267,.T.);
#336=ORIENTED_EDGE('',*,*,#268,.T.);
#337=ORIENTED_EDGE('',*,*,#264,.F.);
#338=ORIENTED_EDGE('',*,*,#259,.F.);
#339=ORIENTED_EDGE('',*,*,#269,.F.);
#340=ORIENTED_EDGE('',*,*,#270,.F.);
#341=ORIENTED_EDGE('',*,*,#271,.T.);
#342=ORIENTED_EDGE('',*,*,#265,.F.);
#343=ORIENTED_EDGE('',*,*,#272,.F.);
#344=ORIENTED_EDGE('',*,*,#273,.F.);
#345=ORIENTED_EDGE('',*,*,#269,.T.);
#346=ORIENTED_EDGE('',*,*,#268,.F.);
#347=ORIENTED_EDGE('',*,*,#274,.F.);
#348=ORIENTED_EDGE('',*,*,#275,.F.);
#349=ORIENTED_EDGE('',*,*,#272,.T.);
#350=ORIENTED_EDGE('',*,*,#276,.T.);
#351=ORIENTED_EDGE('',*,*,#277,.T.);
#352=ORIENTED_EDGE('',*,*,#278,.T.);
#353=ORIENTED_EDGE('',*,*,#279,.T.);
#354=ORIENTED_EDGE('',*,*,#280,.T.);
#355=ORIENTED_EDGE('',*,*,#270,.T.);
#356=ORIENTED_EDGE('',*,*,#273,.T.);
#357=ORIENTED_EDGE('',*,*,#275,.T.);
#358=ORIENTED_EDGE('',*,*,#281,.F.);
#359=ORIENTED_EDGE('',*,*,#282,.F.);
#360=ORIENTED_EDGE('',*,*,#283,.F.);
#361=ORIENTED_EDGE('',*,*,#277,.F.);
#362=ORIENTED_EDGE('',*,*,#283,.T.);
#363=ORIENTED_EDGE('',*,*,#284,.F.);
#364=ORIENTED_EDGE('',*,*,#285,.F.);
#365=ORIENTED_EDGE('',*,*,#278,.F.);
#366=ORIENTED_EDGE('',*,*,#285,.T.);
#367=ORIENTED_EDGE('',*,*,#286,.F.);
#368=ORIENTED_EDGE('',*,*,#287,.F.);
#369=ORIENTED_EDGE('',*,*,#279,.F.);
#370=ORIENTED_EDGE('',*,*,#287,.T.);
#371=ORIENTED_EDGE('',*,*,#288,.F.);
#372=ORIENTED_EDGE('',*,*,#289,.F.);
#373=ORIENTED_EDGE('',*,*,#290,.F.);
#374=ORIENTED_EDGE('',*,*,#260,.T.);
#375=ORIENTED_EDGE('',*,*,#271,.F.);
#376=ORIENTED_EDGE('',*,*,#280,.F.);
#377=ORIENTED_EDGE('',*,*,#274,.T.);
#378=ORIENTED_EDGE('',*,*,#267,.F.);
#379=ORIENTED_EDGE('',*,*,#291,.F.);
#380=ORIENTED_EDGE('',*,*,#292,.F.);
#381=ORIENTED_EDGE('',*,*,#293,.F.);
#382=ORIENTED_EDGE('',*,*,#281,.T.);
#383=ORIENTED_EDGE('',*,*,#276,.F.);
#384=ORIENTED_EDGE('',*,*,#292,.T.);
#385=ORIENTED_EDGE('',*,*,#294,.T.);
#386=ORIENTED_EDGE('',*,*,#295,.T.);
#387=ORIENTED_EDGE('',*,*,#296,.F.);
#388=ORIENTED_EDGE('',*,*,#297,.F.);
#389=ORIENTED_EDGE('',*,*,#298,.F.);
#390=ORIENTED_EDGE('',*,*,#299,.F.);
#391=ORIENTED_EDGE('',*,*,#300,.F.);
#392=ORIENTED_EDGE('',*,*,#290,.T.);
#393=ORIENTED_EDGE('',*,*,#301,.F.);
#394=ORIENTED_EDGE('',*,*,#302,.F.);
#395=ORIENTED_EDGE('',*,*,#294,.F.);
#396=ORIENTED_EDGE('',*,*,#291,.T.);
#397=ORIENTED_EDGE('',*,*,#266,.F.);
#398=ORIENTED_EDGE('',*,*,#263,.F.);
#399=ORIENTED_EDGE('',*,*,#261,.F.);
#400=ORIENTED_EDGE('',*,*,#303,.F.);
#401=ORIENTED_EDGE('',*,*,#304,.F.);
#402=ORIENTED_EDGE('',*,*,#305,.F.);
#403=ORIENTED_EDGE('',*,*,#306,.F.);
#404=ORIENTED_EDGE('',*,*,#289,.T.);
#405=ORIENTED_EDGE('',*,*,#307,.F.);
#406=ORIENTED_EDGE('',*,*,#308,.F.);
#407=ORIENTED_EDGE('',*,*,#301,.T.);
#408=ORIENTED_EDGE('',*,*,#298,.T.);
#409=ORIENTED_EDGE('',*,*,#309,.T.);
#410=ORIENTED_EDGE('',*,*,#310,.F.);
#411=ORIENTED_EDGE('',*,*,#311,.F.);
#412=ORIENTED_EDGE('',*,*,#297,.T.);
#413=ORIENTED_EDGE('',*,*,#312,.T.);
#414=ORIENTED_EDGE('',*,*,#313,.F.);
#415=ORIENTED_EDGE('',*,*,#309,.F.);
#416=ORIENTED_EDGE('',*,*,#314,.F.);
#417=ORIENTED_EDGE('',*,*,#315,.T.);
#418=ORIENTED_EDGE('',*,*,#306,.T.);
#419=ORIENTED_EDGE('',*,*,#315,.F.);
#420=ORIENTED_EDGE('',*,*,#302,.T.);
#421=ORIENTED_EDGE('',*,*,#308,.T.);
#422=ORIENTED_EDGE('',*,*,#316,.F.);
#423=ORIENTED_EDGE('',*,*,#295,.F.);
#424=ORIENTED_EDGE('',*,*,#317,.F.);
#425=ORIENTED_EDGE('',*,*,#318,.T.);
#426=ORIENTED_EDGE('',*,*,#305,.T.);
#427=ORIENTED_EDGE('',*,*,#318,.F.);
#428=ORIENTED_EDGE('',*,*,#319,.F.);
#429=ORIENTED_EDGE('',*,*,#320,.T.);
#430=ORIENTED_EDGE('',*,*,#304,.T.);
#431=ORIENTED_EDGE('',*,*,#320,.F.);
#432=ORIENTED_EDGE('',*,*,#321,.F.);
#433=ORIENTED_EDGE('',*,*,#322,.T.);
#434=ORIENTED_EDGE('',*,*,#303,.T.);
#435=ORIENTED_EDGE('',*,*,#322,.F.);
#436=ORIENTED_EDGE('',*,*,#299,.T.);
#437=ORIENTED_EDGE('',*,*,#311,.T.);
#438=ORIENTED_EDGE('',*,*,#323,.F.);
#439=ORIENTED_EDGE('',*,*,#324,.F.);
#440=ORIENTED_EDGE('',*,*,#300,.T.);
#441=ORIENTED_EDGE('',*,*,#324,.T.);
#442=ORIENTED_EDGE('',*,*,#325,.F.);
#443=ORIENTED_EDGE('',*,*,#312,.F.);
#444=ORIENTED_EDGE('',*,*,#313,.T.);
#445=ORIENTED_EDGE('',*,*,#325,.T.);
#446=ORIENTED_EDGE('',*,*,#323,.T.);
#447=ORIENTED_EDGE('',*,*,#310,.T.);
#448=ORIENTED_EDGE('',*,*,#321,.T.);
#449=ORIENTED_EDGE('',*,*,#319,.T.);
#450=ORIENTED_EDGE('',*,*,#317,.T.);
#451=ORIENTED_EDGE('',*,*,#296,.T.);
#452=ORIENTED_EDGE('',*,*,#316,.T.);
#453=ORIENTED_EDGE('',*,*,#307,.T.);
#454=ORIENTED_EDGE('',*,*,#288,.T.);
#455=ORIENTED_EDGE('',*,*,#286,.T.);
#456=ORIENTED_EDGE('',*,*,#284,.T.);
#457=ORIENTED_EDGE('',*,*,#282,.T.);
#458=ORIENTED_EDGE('',*,*,#293,.T.);
#459=ORIENTED_EDGE('',*,*,#314,.T.);
#460=PLANE('',#508);
#461=PLANE('',#509);
#462=PLANE('',#510);
#463=PLANE('',#511);
#464=PLANE('',#512);
#465=PLANE('',#513);
#466=PLANE('',#514);
#467=PLANE('',#515);
#468=PLANE('',#516);
#469=PLANE('',#517);
#470=PLANE('',#518);
#471=PLANE('',#519);
#472=PLANE('',#520);
#473=PLANE('',#521);
#474=PLANE('',#526);
#475=PLANE('',#527);
#476=PLANE('',#528);
#477=PLANE('',#531);
#478=PLANE('',#538);
#479=PLANE('',#539);
#480=PLANE('',#540);
#481=ADVANCED_FACE('',(#37),#460,.T.);
#482=ADVANCED_FACE('',(#38),#461,.T.);
#483=ADVANCED_FACE('',(#39),#462,.T.);
#484=ADVANCED_FACE('',(#40),#463,.T.);
#485=ADVANCED_FACE('',(#41),#464,.T.);
#486=ADVANCED_FACE('',(#42),#465,.T.);
#487=ADVANCED_FACE('',(#43),#466,.T.);
#488=ADVANCED_FACE('',(#44),#467,.T.);
#489=ADVANCED_FACE('',(#45),#468,.T.);
#490=ADVANCED_FACE('',(#46),#469,.T.);
#491=ADVANCED_FACE('',(#47),#470,.T.);
#492=ADVANCED_FACE('',(#48),#471,.T.);
#493=ADVANCED_FACE('',(#49),#472,.T.);
#494=ADVANCED_FACE('',(#50,#27,#28,#29,#30,#31),#473,.F.);
#495=ADVANCED_FACE('',(#51),#474,.T.);
#496=ADVANCED_FACE('',(#52),#475,.T.);
#497=ADVANCED_FACE('',(#53),#476,.T.);
#498=ADVANCED_FACE('',(#54),#15,.F.);
#499=ADVANCED_FACE('',(#55),#477,.T.);
#500=ADVANCED_FACE('',(#56),#16,.F.);
#501=ADVANCED_FACE('',(#57),#17,.F.);
#502=ADVANCED_FACE('',(#58),#18,.F.);
#503=ADVANCED_FACE('',(#59),#478,.T.);
#504=ADVANCED_FACE('',(#60),#479,.T.);
#505=ADVANCED_FACE('',(#61,#32,#33,#34,#35,#36),#480,.T.);
#506=CLOSED_SHELL('',(#481,#482,#483,#484,#485,#486,#487,#488,#489,#490,
#491,#492,#493,#494,#495,#496,#497,#498,#499,#500,#501,#502,#503,#504,#505));
#507=AXIS2_PLACEMENT_3D('',#668,#541,#542);
#508=AXIS2_PLACEMENT_3D('',#669,#543,#544);
#509=AXIS2_PLACEMENT_3D('',#678,#549,#550);
#510=AXIS2_PLACEMENT_3D('',#684,#554,#555);
#511=AXIS2_PLACEMENT_3D('',#690,#559,#560);
#512=AXIS2_PLACEMENT_3D('',#696,#564,#565);
#513=AXIS2_PLACEMENT_3D('',#700,#568,#569);
#514=AXIS2_PLACEMENT_3D('',#704,#572,#573);
#515=AXIS2_PLACEMENT_3D('',#714,#579,#580);
#516=AXIS2_PLACEMENT_3D('',#720,#584,#585);
#517=AXIS2_PLACEMENT_3D('',#724,#588,#589);
#518=AXIS2_PLACEMENT_3D('',#728,#592,#593);
#519=AXIS2_PLACEMENT_3D('',#734,#597,#598);
#520=AXIS2_PLACEMENT_3D('',#740,#602,#603);
#521=AXIS2_PLACEMENT_3D('',#746,#607,#608);
#522=AXIS2_PLACEMENT_3D('',#759,#615,#616);
#523=AXIS2_PLACEMENT_3D('',#761,#617,#618);
#524=AXIS2_PLACEMENT_3D('',#763,#619,#620);
#525=AXIS2_PLACEMENT_3D('',#765,#621,#622);
#526=AXIS2_PLACEMENT_3D('',#766,#623,#624);
#527=AXIS2_PLACEMENT_3D('',#770,#627,#628);
#528=AXIS2_PLACEMENT_3D('',#776,#632,#633);
#529=AXIS2_PLACEMENT_3D('',#780,#636,#637);
#530=AXIS2_PLACEMENT_3D('',#782,#638,#639);
#531=AXIS2_PLACEMENT_3D('',#784,#641,#642);
#532=AXIS2_PLACEMENT_3D('',#786,#644,#645);
#533=AXIS2_PLACEMENT_3D('',#788,#646,#647);
#534=AXIS2_PLACEMENT_3D('',#790,#649,#650);
#535=AXIS2_PLACEMENT_3D('',#792,#651,#652);
#536=AXIS2_PLACEMENT_3D('',#794,#654,#655);
#537=AXIS2_PLACEMENT_3D('',#796,#656,#657);
#538=AXIS2_PLACEMENT_3D('',#798,#659,#660);
#539=AXIS2_PLACEMENT_3D('',#802,#663,#664);
#540=AXIS2_PLACEMENT_3D('',#804,#666,#667);
#541=DIRECTION('axis',(0.,0.,1.));
#542=DIRECTION('refdir',(1.,0.,0.));
#543=DIRECTION('center_axis',(0.707106781186549,-1.07943856534509E-16,0.707106781186546));
#544=DIRECTION('ref_axis',(0.707106781186546,0.,-0.707106781186549));
#545=DIRECTION('',(5.26749526575087E-34,-1.,-1.52655665885959E-16));
#546=DIRECTION('',(0.707106781186546,1.10017007910234E-33,-0.707106781186549));
#547=DIRECTION('',(-5.26749526575087E-34,1.,1.52655665885959E-16));
#548=DIRECTION('',(-0.577350269189625,-0.577350269189625,0.577350269189627));
#549=DIRECTION('center_axis',(4.76694993697728E-18,0.707106781186549,0.707106781186546));
#550=DIRECTION('ref_axis',(1.,0.,-6.74148525202685E-18));
#551=DIRECTION('',(-1.,-1.55587544678362E-33,6.74148525202685E-18));
#552=DIRECTION('',(0.577350269189627,-0.577350269189624,0.577350269189627));
#553=DIRECTION('',(1.,1.55587544678362E-33,-6.74148525202685E-18));
#554=DIRECTION('center_axis',(-0.707106781186548,-1.0794385653451E-16,0.707106781186548));
#555=DIRECTION('ref_axis',(0.707106781186548,0.,0.707106781186548));
#556=DIRECTION('',(5.26749526575087E-34,-1.,-1.52655665885959E-16));
#557=DIRECTION('',(0.707106781186548,1.10017007910235E-33,0.707106781186548));
#558=DIRECTION('',(-5.26749526575087E-34,1.,1.52655665885959E-16));
#559=DIRECTION('center_axis',(1.,5.26749526575087E-34,0.));
#560=DIRECTION('ref_axis',(5.26749526575087E-34,-1.,-1.52655665885959E-16));
#561=DIRECTION('',(0.,0.,-1.));
#562=DIRECTION('',(-5.26749526575087E-34,1.,1.52655665885959E-16));
#563=DIRECTION('',(0.,0.,-1.));
#564=DIRECTION('center_axis',(-1.55587544678362E-33,1.,0.));
#565=DIRECTION('ref_axis',(1.,1.55587544678362E-33,-6.74148525202685E-18));
#566=DIRECTION('',(0.,0.,-1.));
#567=DIRECTION('',(-1.,-1.55587544678362E-33,6.74148525202685E-18));
#568=DIRECTION('center_axis',(-1.,-5.26749526575087E-34,0.));
#569=DIRECTION('ref_axis',(-5.26749526575087E-34,1.,1.52655665885959E-16));
#570=DIRECTION('',(0.,0.,-1.));
#571=DIRECTION('',(5.26749526575087E-34,-1.,-1.52655665885959E-16));
#572=DIRECTION('center_axis',(0.,-2.96059473233375E-16,1.));
#573=DIRECTION('ref_axis',(1.,0.,0.));
#574=DIRECTION('',(1.,1.55587544678362E-33,-6.74148525202685E-18));
#575=DIRECTION('',(-5.26749526575087E-34,1.,1.52655665885959E-16));
#576=DIRECTION('',(1.,5.04646840654807E-16,-6.74148525202677E-18));
#577=DIRECTION('',(5.26749526575087E-34,-1.,-1.52655665885959E-16));
#578=DIRECTION('',(1.,1.55587544678362E-33,-6.74148525202685E-18));
#579=DIRECTION('center_axis',(1.,5.26749526575087E-34,0.));
#580=DIRECTION('ref_axis',(5.26749526575087E-34,-1.,-1.52655665885959E-16));
#581=DIRECTION('',(0.,-2.96059473233375E-16,1.));
#582=DIRECTION('',(5.26749526575087E-34,-1.,-1.52655665885959E-16));
#583=DIRECTION('',(0.,0.,-1.));
#584=DIRECTION('center_axis',(5.04646840654807E-16,-1.,0.));
#585=DIRECTION('ref_axis',(-1.,-5.04646840654807E-16,6.74148525202677E-18));
#586=DIRECTION('',(-1.,-5.04646840654807E-16,6.74148525202677E-18));
#587=DIRECTION('',(0.,0.,-1.));
#588=DIRECTION('center_axis',(-1.,-5.26749526575087E-34,0.));
#589=DIRECTION('ref_axis',(-5.26749526575087E-34,1.,1.52655665885959E-16));
#590=DIRECTION('',(-5.26749526575087E-34,1.,1.52655665885959E-16));
#591=DIRECTION('',(0.,0.,-1.));
#592=DIRECTION('center_axis',(1.55587544678362E-33,-1.,0.));
#593=DIRECTION('ref_axis',(-1.,-1.55587544678362E-33,6.74148525202685E-18));
#594=DIRECTION('',(-1.,-1.55587544678362E-33,6.74148525202685E-18));
#595=DIRECTION('',(0.,0.,-1.));
#596=DIRECTION('',(-1.,-1.55587544678362E-33,6.74148525202685E-18));
#597=DIRECTION('center_axis',(1.55587544678362E-33,-1.,0.));
#598=DIRECTION('ref_axis',(-1.,-1.55587544678362E-33,6.74148525202685E-18));
#599=DIRECTION('',(-1.,-1.55587544678362E-33,6.74148525202685E-18));
#600=DIRECTION('',(0.,0.,1.));
#601=DIRECTION('',(-1.,-1.55587544678362E-33,6.74148525202685E-18));
#602=DIRECTION('center_axis',(1.,5.26749526575087E-34,0.));
#603=DIRECTION('ref_axis',(5.26749526575087E-34,-1.,-1.52655665885959E-16));
#604=DIRECTION('',(5.26749526575087E-34,-1.,-1.52655665885959E-16));
#605=DIRECTION('',(0.,0.,-1.));
#606=DIRECTION('',(5.26749526575087E-34,-1.,-1.52655665885959E-16));
#607=DIRECTION('center_axis',(-6.74148525202685E-18,1.52655665885959E-16,
-1.));
#608=DIRECTION('ref_axis',(1.,1.55587544678362E-33,-6.74148525202685E-18));
#609=DIRECTION('',(1.,1.55587544678362E-33,-6.74148525202685E-18));
#610=DIRECTION('',(-5.26749526575087E-34,1.,1.52655665885959E-16));
#611=DIRECTION('',(-1.,-1.55587544678362E-33,6.74148525202685E-18));
#612=DIRECTION('',(5.26749526575087E-34,-1.,-1.52655665885959E-16));
#613=DIRECTION('',(-5.26749526575087E-34,1.,1.52655665885959E-16));
#614=DIRECTION('',(1.,1.55587544678362E-33,-6.74148525202685E-18));
#615=DIRECTION('center_axis',(6.74148525202685E-18,-1.52655665885959E-16,
1.));
#616=DIRECTION('ref_axis',(1.,1.55587544678362E-33,0.));
#617=DIRECTION('center_axis',(6.74148525202685E-18,-1.52655665885959E-16,
1.));
#618=DIRECTION('ref_axis',(1.,1.55587544678362E-33,0.));
#619=DIRECTION('center_axis',(6.74148525202685E-18,-1.52655665885959E-16,
1.));
#620=DIRECTION('ref_axis',(1.,1.55587544678362E-33,0.));
#621=DIRECTION('center_axis',(6.74148525202685E-18,-1.52655665885959E-16,
1.));
#622=DIRECTION('ref_axis',(1.,1.55587544678362E-33,0.));
#623=DIRECTION('center_axis',(-1.,-5.26749526575087E-34,0.));
#624=DIRECTION('ref_axis',(-5.26749526575087E-34,1.,1.52655665885959E-16));
#625=DIRECTION('',(-5.26749526575087E-34,1.,1.52655665885959E-16));
#626=DIRECTION('',(0.,0.,-1.));
#627=DIRECTION('center_axis',(-1.,-5.26749526575087E-34,0.));
#628=DIRECTION('ref_axis',(-5.26749526575087E-34,1.,1.52655665885959E-16));
#629=DIRECTION('',(0.,0.,-1.));
#630=DIRECTION('',(-5.26749526575087E-34,1.,1.52655665885959E-16));
#631=DIRECTION('',(0.,0.,-1.));
#632=DIRECTION('center_axis',(-1.55587544678362E-33,1.,0.));
#633=DIRECTION('ref_axis',(1.,1.55587544678362E-33,-6.74148525202685E-18));
#634=DIRECTION('',(0.,0.,-1.));
#635=DIRECTION('',(1.,1.55587544678362E-33,-6.74148525202685E-18));
#636=DIRECTION('center_axis',(0.,0.,-1.));
#637=DIRECTION('ref_axis',(1.,1.55587544678362E-33,0.));
#638=DIRECTION('center_axis',(6.74148525202685E-18,-1.52655665885959E-16,
1.));
#639=DIRECTION('ref_axis',(1.,1.55587544678362E-33,-6.74148525202685E-18));
#640=DIRECTION('',(0.,0.,1.));
#641=DIRECTION('center_axis',(-1.55587544678362E-33,1.,0.));
#642=DIRECTION('ref_axis',(1.,1.55587544678362E-33,-6.74148525202685E-18));
#643=DIRECTION('',(1.,1.55587544678362E-33,-6.74148525202685E-18));
#644=DIRECTION('center_axis',(0.,0.,-1.));
#645=DIRECTION('ref_axis',(1.,1.55587544678362E-33,0.));
#646=DIRECTION('center_axis',(6.74148525202685E-18,-1.52655665885959E-16,
1.));
#647=DIRECTION('ref_axis',(1.,1.55587544678362E-33,-6.74148525202685E-18));
#648=DIRECTION('',(0.,0.,1.));
#649=DIRECTION('center_axis',(0.,0.,-1.));
#650=DIRECTION('ref_axis',(1.,1.55587544678362E-33,0.));
#651=DIRECTION('center_axis',(6.74148525202685E-18,-1.52655665885959E-16,
1.));
#652=DIRECTION('ref_axis',(1.,1.55587544678362E-33,-6.74148525202685E-18));
#653=DIRECTION('',(0.,0.,1.));
#654=DIRECTION('center_axis',(0.,0.,-1.));
#655=DIRECTION('ref_axis',(1.,1.55587544678362E-33,0.));
#656=DIRECTION('center_axis',(6.74148525202685E-18,-1.52655665885959E-16,
1.));
#657=DIRECTION('ref_axis',(1.,1.55587544678362E-33,-6.74148525202685E-18));
#658=DIRECTION('',(0.,0.,1.));
#659=DIRECTION('center_axis',(1.55587544678362E-33,-1.,0.));
#660=DIRECTION('ref_axis',(-1.,-1.55587544678362E-33,6.74148525202685E-18));
#661=DIRECTION('',(-1.,-1.55587544678362E-33,6.74148525202685E-18));
#662=DIRECTION('',(0.,0.,-1.));
#663=DIRECTION('center_axis',(1.,5.26749526575087E-34,0.));
#664=DIRECTION('ref_axis',(5.26749526575087E-34,-1.,-1.52655665885959E-16));
#665=DIRECTION('',(5.26749526575087E-34,-1.,-1.52655665885959E-16));
#666=DIRECTION('center_axis',(-6.74148525202685E-18,1.52655665885959E-16,
-1.));
#667=DIRECTION('ref_axis',(1.,1.55587544678362E-33,-6.74148525202685E-18));
#668=CARTESIAN_POINT('',(0.,0.,0.));
#669=CARTESIAN_POINT('Origin',(13.5499997027218,17.7499996032566,3.41831829110419));
#670=CARTESIAN_POINT('',(13.2999997027218,20.4999995417893,3.66831829110419));
#671=CARTESIAN_POINT('',(13.2999997027218,10.9999997541308,3.66831829110419));
#672=CARTESIAN_POINT('',(13.2999997027218,17.7499996032566,3.66831829110419));
#673=CARTESIAN_POINT('',(13.7999997027218,10.9999997541308,3.16831829110419));
#674=CARTESIAN_POINT('',(13.4249997027218,10.9999997541308,3.54331829110419));
#675=CARTESIAN_POINT('',(13.7999997027218,20.9999995417893,3.16831829110419));
#676=CARTESIAN_POINT('',(13.7999997027218,17.7499996032566,3.16831829110419));
#677=CARTESIAN_POINT('',(13.7999997027218,20.9999995417893,3.16831829110419));
#678=CARTESIAN_POINT('Origin',(5.54999987594783,20.7499995417893,3.41831829110419));
#679=CARTESIAN_POINT('',(2.49999993294477,20.9999995417893,3.16831829110419));
#680=CARTESIAN_POINT('',(5.54999987594783,20.9999995417893,3.16831829110419));
#681=CARTESIAN_POINT('',(2.99999993294477,20.4999995417893,3.66831829110419));
#682=CARTESIAN_POINT('',(2.49999993294477,20.9999995417893,3.16831829110419));
#683=CARTESIAN_POINT('',(5.54999987594783,20.4999995417893,3.66831829110419));
#684=CARTESIAN_POINT('Origin',(2.74999993294477,12.9999997094274,3.41831829110419));
#685=CARTESIAN_POINT('',(2.49999993294477,10.9999997541308,3.16831829110419));
#686=CARTESIAN_POINT('',(2.49999993294477,12.9999997094274,3.16831829110419));
#687=CARTESIAN_POINT('',(2.99999993294477,10.9999997541308,3.66831829110419));
#688=CARTESIAN_POINT('',(3.04999992903322,10.9999997541308,3.71831828719264));
#689=CARTESIAN_POINT('',(2.99999993294477,12.9999997094274,3.66831829110419));
#690=CARTESIAN_POINT('Origin',(13.2999997027218,20.4999995417893,3.66831829110419));
#691=CARTESIAN_POINT('',(13.2999997027218,20.4999995417893,11.1683182911042));
#692=CARTESIAN_POINT('',(13.2999997027218,20.4999995417893,3.66831829110419));
#693=CARTESIAN_POINT('',(13.2999997027218,10.9999997541308,11.1683182911042));
#694=CARTESIAN_POINT('',(13.2999997027218,10.4999997653067,11.1683182911042));
#695=CARTESIAN_POINT('',(13.2999997027218,10.9999997541308,3.66831829110419));
#696=CARTESIAN_POINT('Origin',(2.99999993294477,20.4999995417893,3.66831829110419));
#697=CARTESIAN_POINT('',(2.99999993294477,20.4999995417893,11.1683182911042));
#698=CARTESIAN_POINT('',(2.99999993294477,20.4999995417893,3.66831829110419));
#699=CARTESIAN_POINT('',(13.2999997027218,20.4999995417893,11.1683182911042));
#700=CARTESIAN_POINT('Origin',(2.99999993294477,10.9999997541308,3.66831829110419));
#701=CARTESIAN_POINT('',(2.99999993294477,10.9999997541308,11.1683182911042));
#702=CARTESIAN_POINT('',(2.99999993294477,10.9999997541308,3.66831829110419));
#703=CARTESIAN_POINT('',(2.99999993294477,20.4999995417893,11.1683182911042));
#704=CARTESIAN_POINT('Origin',(8.1499998178333,15.7499996479601,11.1683182911042));
#705=CARTESIAN_POINT('',(3.69999991729856,10.9999997541308,11.1683182911042));
#706=CARTESIAN_POINT('',(2.99999993294477,10.9999997541308,11.1683182911042));
#707=CARTESIAN_POINT('',(3.69999991729856,19.6999995596707,11.1683182911042));
#708=CARTESIAN_POINT('',(3.69999991729856,10.9999997541308,11.1683182911042));
#709=CARTESIAN_POINT('',(12.4999997206032,19.6999995596707,11.1683182911042));
#710=CARTESIAN_POINT('',(3.69999991729856,19.6999995596707,11.1683182911042));
#711=CARTESIAN_POINT('',(12.4999997206032,10.9999997541308,11.1683182911042));
#712=CARTESIAN_POINT('',(12.4999997206032,19.6999995596707,11.1683182911042));
#713=CARTESIAN_POINT('',(2.99999993294477,10.9999997541308,11.1683182911042));
#714=CARTESIAN_POINT('Origin',(3.69999991729856,19.6999995596707,3.66831829110419));
#715=CARTESIAN_POINT('',(3.69999991729856,10.9999997541308,2.66831829110419));
#716=CARTESIAN_POINT('',(3.69999991729856,10.9999997541308,3.66831829110419));
#717=CARTESIAN_POINT('',(3.69999991729856,19.6999995596707,2.66831829110419));
#718=CARTESIAN_POINT('',(3.69999991729856,10.9999997541308,2.66831829110419));
#719=CARTESIAN_POINT('',(3.69999991729856,19.6999995596707,3.66831829110419));
#720=CARTESIAN_POINT('Origin',(12.4999997206032,19.6999995596707,3.66831829110419));
#721=CARTESIAN_POINT('',(12.4999997206032,19.6999995596707,2.66831829110419));
#722=CARTESIAN_POINT('',(3.69999991729856,19.6999995596707,2.66831829110419));
#723=CARTESIAN_POINT('',(12.4999997206032,19.6999995596707,3.66831829110419));
#724=CARTESIAN_POINT('Origin',(12.4999997206032,10.9999997541308,3.66831829110419));
#725=CARTESIAN_POINT('',(12.4999997206032,10.9999997541308,2.66831829110419));
#726=CARTESIAN_POINT('',(12.4999997206032,19.6999995596707,2.66831829110419));
#727=CARTESIAN_POINT('',(12.4999997206032,10.9999997541308,3.66831829110419));
#728=CARTESIAN_POINT('Origin',(13.2999997027218,10.9999997541308,3.66831829110419));
#729=CARTESIAN_POINT('',(13.2999997027218,10.9999997541308,2.66831829110419));
#730=CARTESIAN_POINT('',(2.99999993294477,10.9999997541308,2.66831829110419));
#731=CARTESIAN_POINT('',(13.2999997027218,10.9999997541308,3.16831829110419));
#732=CARTESIAN_POINT('',(13.2999997027218,10.9999997541308,3.66831829110419));
#733=CARTESIAN_POINT('',(10.6999997608364,10.9999997541308,3.16831829110419));
#734=CARTESIAN_POINT('Origin',(3.69999991729856,10.9999997541308,3.66831829110419));
#735=CARTESIAN_POINT('',(2.99999993294477,10.9999997541308,3.16831829110419));
#736=CARTESIAN_POINT('',(5.89999986812472,10.9999997541308,3.16831829110419));
#737=CARTESIAN_POINT('',(2.99999993294477,10.9999997541308,2.66831829110419));
#738=CARTESIAN_POINT('',(2.99999993294477,10.9999997541308,3.66831829110419));
#739=CARTESIAN_POINT('',(2.99999993294477,10.9999997541308,2.66831829110419));
#740=CARTESIAN_POINT('Origin',(2.99999993294477,20.4999995417893,3.66831829110419));
#741=CARTESIAN_POINT('',(2.99999993294477,10.4999997653067,3.16831829110419));
#742=CARTESIAN_POINT('',(2.99999993294477,17.7499996032566,3.16831829110419));
#743=CARTESIAN_POINT('',(2.99999993294477,10.4999997653067,2.66831829110419));
#744=CARTESIAN_POINT('',(2.99999993294477,10.4999997653067,3.66831829110419));
#745=CARTESIAN_POINT('',(2.99999993294477,20.4999995417893,2.66831829110419));
#746=CARTESIAN_POINT('Origin',(8.09999981895089,14.9999996647239,3.16831829110419));
#747=CARTESIAN_POINT('',(-4.39999990165234,23.8999994657934,3.16831829110419));
#748=CARTESIAN_POINT('',(20.5999995395541,23.8999994657934,3.16831829110419));
#749=CARTESIAN_POINT('',(1.84999995864928,23.8999994657934,3.16831829110419));
#750=CARTESIAN_POINT('',(-4.39999990165234,6.09999986365437,3.16831829110419));
#751=CARTESIAN_POINT('',(-4.39999990165234,10.5499997641891,3.16831829110419));
#752=CARTESIAN_POINT('',(20.5999995395541,6.09999986365437,3.16831829110419));
#753=CARTESIAN_POINT('',(14.3499996792525,6.09999986365437,3.16831829110419));
#754=CARTESIAN_POINT('',(20.5999995395541,19.4499995652586,3.16831829110419));
#755=CARTESIAN_POINT('',(13.2999997027218,10.4999997653067,3.16831829110419));
#756=CARTESIAN_POINT('',(13.2999997027218,12.7499997150153,3.16831829110419));
#757=CARTESIAN_POINT('',(5.54999987594783,10.4999997653067,3.16831829110419));
#758=CARTESIAN_POINT('',(17.4647954521262,8.35189678507589,3.16831829110419));
#759=CARTESIAN_POINT('Origin',(18.5296008787272,8.35189678507589,3.16831829110419));
#760=CARTESIAN_POINT('',(-3.43520454787378,22.3518967850759,3.16831829110419));
#761=CARTESIAN_POINT('Origin',(-2.37039912127276,22.3518967850759,3.16831829110419));
#762=CARTESIAN_POINT('',(-3.43520454787378,8.35189678507589,3.16831829110419));
#763=CARTESIAN_POINT('Origin',(-2.37039912127276,8.35189678507589,3.16831829110419));
#764=CARTESIAN_POINT('',(17.4647954521262,22.3518967850759,3.16831829110419));
#765=CARTESIAN_POINT('Origin',(18.5296008787272,22.3518967850759,3.16831829110419));
#766=CARTESIAN_POINT('Origin',(13.2999997027218,10.4999997653067,3.66831829110419));
#767=CARTESIAN_POINT('',(13.2999997027218,10.4999997653067,2.66831829110419));
#768=CARTESIAN_POINT('',(13.2999997027218,10.4999997653067,2.66831829110419));
#769=CARTESIAN_POINT('',(13.2999997027218,10.4999997653067,3.66831829110419));
#770=CARTESIAN_POINT('Origin',(-4.39999990165234,6.09999986365438,3.66831829110419));
#771=CARTESIAN_POINT('',(-4.39999990165234,23.8999994657934,2.66831829110419));
#772=CARTESIAN_POINT('',(-4.39999990165234,23.8999994657934,3.66831829110419));
#773=CARTESIAN_POINT('',(-4.39999990165234,6.09999986365437,2.66831829110419));
#774=CARTESIAN_POINT('',(-4.39999990165234,23.8999994657934,2.66831829110419));
#775=CARTESIAN_POINT('',(-4.39999990165234,6.09999986365437,3.66831829110419));
#776=CARTESIAN_POINT('Origin',(-4.39999990165234,23.8999994657934,3.66831829110419));
#777=CARTESIAN_POINT('',(20.5999995395541,23.8999994657934,2.66831829110419));
#778=CARTESIAN_POINT('',(20.5999995395541,23.8999994657934,3.66831829110419));
#779=CARTESIAN_POINT('',(20.5999995395541,23.8999994657934,2.66831829110419));
#780=CARTESIAN_POINT('Origin',(18.5296008787272,22.3518967850759,3.66831829110419));
#781=CARTESIAN_POINT('',(17.4647954521262,22.3518967850759,2.66831829110419));
#782=CARTESIAN_POINT('Origin',(18.5296008787272,22.3518967850759,2.66831829110419));
#783=CARTESIAN_POINT('',(17.4647954521262,22.3518967850759,3.66831829110419));
#784=CARTESIAN_POINT('Origin',(2.99999993294477,10.4999997653067,3.66831829110419));
#785=CARTESIAN_POINT('',(2.99999993294477,10.4999997653067,2.66831829110419));
#786=CARTESIAN_POINT('Origin',(-2.37039912127276,8.35189678507589,3.66831829110419));
#787=CARTESIAN_POINT('',(-3.43520454787378,8.35189678507589,2.66831829110419));
#788=CARTESIAN_POINT('Origin',(-2.37039912127276,8.35189678507589,2.66831829110419));
#789=CARTESIAN_POINT('',(-3.43520454787378,8.35189678507589,3.66831829110419));
#790=CARTESIAN_POINT('Origin',(-2.37039912127276,22.3518967850759,3.66831829110419));
#791=CARTESIAN_POINT('',(-3.43520454787378,22.3518967850759,2.66831829110419));
#792=CARTESIAN_POINT('Origin',(-2.37039912127276,22.3518967850759,2.66831829110419));
#793=CARTESIAN_POINT('',(-3.43520454787378,22.3518967850759,3.66831829110419));
#794=CARTESIAN_POINT('Origin',(18.5296008787272,8.35189678507589,3.66831829110419));
#795=CARTESIAN_POINT('',(17.4647954521262,8.35189678507589,2.66831829110419));
#796=CARTESIAN_POINT('Origin',(18.5296008787272,8.35189678507589,2.66831829110419));
#797=CARTESIAN_POINT('',(17.4647954521262,8.35189678507589,3.66831829110419));
#798=CARTESIAN_POINT('Origin',(20.5999995395541,6.09999986365437,3.66831829110419));
#799=CARTESIAN_POINT('',(20.5999995395541,6.09999986365437,2.66831829110419));
#800=CARTESIAN_POINT('',(-4.39999990165234,6.09999986365437,2.66831829110419));
#801=CARTESIAN_POINT('',(20.5999995395541,6.09999986365437,3.66831829110419));
#802=CARTESIAN_POINT('Origin',(20.5999995395541,23.8999994657934,3.66831829110419));
#803=CARTESIAN_POINT('',(20.5999995395541,6.09999986365437,2.66831829110419));
#804=CARTESIAN_POINT('Origin',(8.09999981895089,14.9999996647239,2.66831829110419));
#805=UNCERTAINTY_MEASURE_WITH_UNIT(LENGTH_MEASURE(0.01),#809,
'DISTANCE_ACCURACY_VALUE',
'Maximum model space distance between geometric entities at asserted c
onnectivities');
#806=UNCERTAINTY_MEASURE_WITH_UNIT(LENGTH_MEASURE(0.01),#809,
'DISTANCE_ACCURACY_VALUE',
'Maximum model space distance between geometric entities at asserted c
onnectivities');
#807=(
GEOMETRIC_REPRESENTATION_CONTEXT(3)
GLOBAL_UNCERTAINTY_ASSIGNED_CONTEXT((#805))
GLOBAL_UNIT_ASSIGNED_CONTEXT((#809,#810,#811))
REPRESENTATION_CONTEXT('','3D')
);
#808=(
GEOMETRIC_REPRESENTATION_CONTEXT(3)
GLOBAL_UNCERTAINTY_ASSIGNED_CONTEXT((#806))
GLOBAL_UNIT_ASSIGNED_CONTEXT((#809,#810,#811))
REPRESENTATION_CONTEXT('','3D')
);
#809=(
LENGTH_UNIT()
NAMED_UNIT(*)
SI_UNIT(.MILLI.,.METRE.)
);
#810=(
NAMED_UNIT(*)
PLANE_ANGLE_UNIT()
SI_UNIT($,.RADIAN.)
);
#811=(
NAMED_UNIT(*)
SI_UNIT($,.STERADIAN.)
SOLID_ANGLE_UNIT()
);
#812=SHAPE_DEFINITION_REPRESENTATION(#813,#814);
#813=PRODUCT_DEFINITION_SHAPE('',$,#816);
#814=SHAPE_REPRESENTATION('',(#507),#807);
#815=PRODUCT_DEFINITION_CONTEXT('part definition',#820,'design');
#816=PRODUCT_DEFINITION('Glasses','Glasses v2',#817,#815);
#817=PRODUCT_DEFINITION_FORMATION('',$,#822);
#818=PRODUCT_RELATED_PRODUCT_CATEGORY('Glasses v2','Glasses v2',(#822));
#819=APPLICATION_PROTOCOL_DEFINITION('international standard',
'automotive_design',2009,#820);
#820=APPLICATION_CONTEXT(
'Core Data for Automotive Mechanical Design Process');
#821=PRODUCT_CONTEXT('part definition',#820,'mechanical');
#822=PRODUCT('Glasses','Glasses v2',$,(#821));
#823=PRESENTATION_STYLE_ASSIGNMENT((#826));
#824=PRESENTATION_STYLE_ASSIGNMENT((#827));
#825=PRESENTATION_STYLE_ASSIGNMENT((#828));
#826=SURFACE_STYLE_USAGE(.BOTH.,#829);
#827=SURFACE_STYLE_USAGE(.BOTH.,#830);
#828=SURFACE_STYLE_USAGE(.BOTH.,#831);
#829=SURFACE_SIDE_STYLE('',(#832));
#830=SURFACE_SIDE_STYLE('',(#833));
#831=SURFACE_SIDE_STYLE('',(#834));
#832=SURFACE_STYLE_FILL_AREA(#835);
#833=SURFACE_STYLE_FILL_AREA(#836);
#834=SURFACE_STYLE_FILL_AREA(#837);
#835=FILL_AREA_STYLE('\X2\58516599\X0\ - \X2\534A900F660E7C979762\X0\(
\X2\70708272\X0\)',(#838));
#836=FILL_AREA_STYLE('\X2\94A2\X0\ - \X2\7F0E5149\X0\',(#839));
#837=FILL_AREA_STYLE('\X2\805A78B39178916F\X0\(\X2\900F660E\X0\)',(#840));
#838=FILL_AREA_STYLE_COLOUR('\X2\58516599\X0\ - \X2\534A900F660E7C979762\X0\(
\X2\70708272\X0\)',#841);
#839=FILL_AREA_STYLE_COLOUR('\X2\94A2\X0\ - \X2\7F0E5149\X0\',#842);
#840=FILL_AREA_STYLE_COLOUR('\X2\805A78B39178916F\X0\(\X2\900F660E\X0\)',
#843);
#841=COLOUR_RGB('\X2\58516599\X0\ - \X2\534A900F660E7C979762\X0\(\X2\70708272\X0\)',
0.701960784313725,0.701960784313725,0.701960784313725);
#842=COLOUR_RGB('\X2\94A2\X0\ - \X2\7F0E5149\X0\',0.627450980392157,0.627450980392157,
0.627450980392157);
#843=COLOUR_RGB('\X2\805A78B39178916F\X0\(\X2\900F660E\X0\)',0.964705882352941,
0.964705882352941,0.952941176470588);
ENDSEC;
END-ISO-10303-21;
