%TF.GenerationSoftware,KiCad,Pcbnew,10.99.0-unknown*%
%TF.CreationDate,2026-08-12T15:22:04+08:00*%
%TF.ProjectId,4G________(__+___+APP),34476954-9a4d-4a73-9654-d2286cf62b0d,rev?*%
%TF.SameCoordinates,Original*%
%TF.FileFunction,Copper,L2,Inr*%
%TF.FilePolarity,Positive*%
%FSLAX46Y46*%
G04 Gerber Fmt 4.6, Leading zero omitted, Abs format (unit mm)*
G04 Created by KiCad (PCBNEW 10.99.0-unknown) date 2026-08-12 15:22:04*
%MOMM*%
%LPD*%
G01*
G04 APERTURE LIST*
%TA.AperFunction,ViaPad*%
%ADD10C,1.000000*%
%TD*%
%TA.AperFunction,ViaPad*%
%ADD11C,0.500000*%
%TD*%
%TA.AperFunction,ViaPad*%
%ADD12C,0.610000*%
%TD*%
%TA.AperFunction,Conductor*%
%ADD13C,0.249200*%
%TD*%
%TA.AperFunction,Conductor*%
%ADD14C,0.298800*%
%TD*%
%TA.AperFunction,Conductor*%
%ADD15C,0.300000*%
%TD*%
%TA.AperFunction,Conductor*%
%ADD16C,0.355600*%
%TD*%
G04 APERTURE END LIST*
D10*
%TO.N,GND*%
X-18542000Y24663400D03*
X-18542000Y26333500D03*
X-18542000Y28003500D03*
D11*
%TO.N,3.8V*%
X-13816100Y3853900D03*
D12*
%TO.N,GND*%
X-16357600Y21640800D03*
D10*
X-15151100Y-28676600D03*
X-13723700Y-28676600D03*
X-8014300Y-28676600D03*
X-6586900Y-28676600D03*
X-5159500Y-28676600D03*
X-3732100Y-28676600D03*
X-2304800Y-28676600D03*
X-877400Y-28676600D03*
X550000Y-28676600D03*
X7686800Y-28676600D03*
X9114200Y-28676600D03*
X10541600Y-28676600D03*
X11968900Y-28676600D03*
X13396300Y-28676600D03*
X14823700Y-28676600D03*
X1977300Y-28676600D03*
X3404700Y-28676600D03*
X4832100Y-28676600D03*
X6259400Y-28676600D03*
X-10590300Y5403300D03*
X-10590300Y6749500D03*
X-7721600Y23431500D03*
X-7747000Y24828500D03*
X-7747000Y26225500D03*
X-7747000Y27622500D03*
D11*
%TO.N,SIM_DATA*%
X7469300Y-323100D03*
%TO.N,SIM_CLK*%
X7447400Y-1614900D03*
%TO.N,SIM_RST*%
X5588000Y-3581400D03*
%TO.N,SIM_DATA*%
X-594100Y-4085300D03*
%TO.N,SIM_CLK*%
X0Y-1625600D03*
%TO.N,SIM_RST*%
X-1092200Y-2362200D03*
%TO.N,SIM_DATA*%
X-2235200Y-2209800D03*
%TO.N,1.8V*%
X1346200Y2743200D03*
D10*
%TO.N,GND*%
X11133700Y-1224800D03*
X11133700Y-2537200D03*
X11133700Y-3849500D03*
X11133700Y-5161800D03*
X-7213600Y-11328400D03*
X-7213600Y-9971600D03*
X-7213600Y-8614800D03*
D11*
%TO.N,SIM_DATA*%
X-609600Y-5486400D03*
D10*
%TO.N,GND*%
X-18542000Y22993400D03*
X-18542000Y21323300D03*
X-18542000Y19653300D03*
X-18542000Y17983200D03*
D12*
X-14300200Y16027400D03*
X-14300200Y15012100D03*
X-11887200Y17779300D03*
X-11887200Y16764000D03*
X-11887200Y15748700D03*
X-22440900Y8276600D03*
X-22440900Y6184700D03*
X-22440900Y4092700D03*
X-22440900Y2000800D03*
X-22440900Y-91200D03*
X-22466300Y-2183100D03*
X-22466300Y-4275100D03*
X-22466300Y-14734900D03*
X-22466300Y-6367100D03*
X-22466300Y-16826800D03*
X-22466300Y-18918800D03*
X-22466300Y-21010800D03*
X22771100Y6300000D03*
X22771100Y4208100D03*
X22771100Y2116100D03*
X22771100Y24100D03*
X22771100Y-2067800D03*
X22745700Y-6251700D03*
X22745700Y-8343700D03*
X22745700Y-4159800D03*
X22771100Y10483900D03*
X22771100Y8392000D03*
X-304800Y2006200D03*
D10*
X-2743200Y5562600D03*
D12*
X5384800Y8153400D03*
X-16383000Y20726400D03*
X4318700Y3251200D03*
X5334000Y3251200D03*
%TO.N,1.8V*%
X6349300Y3251200D03*
%TO.N,GND*%
X5384800Y7213600D03*
D11*
X16179800Y-16143500D03*
%TO.N,3.8V*%
X-9118600Y19685000D03*
D12*
%TO.N,GND*%
X-11912600Y18872900D03*
X-11912600Y19888200D03*
X-11912600Y20903500D03*
D11*
%TO.N,$1N126416*%
X-18113400Y-11107100D03*
%TO.N,GND*%
X-17300600Y-11107100D03*
%TO.N,$1N126733*%
X-16487800Y-11107100D03*
%TO.N,GND*%
X-19862800Y-12141200D03*
X-19862800Y-11328400D03*
X-16433800Y-2032000D03*
X-16433800Y-1219200D03*
X-16433800Y-406400D03*
D10*
X-9918700Y-14122400D03*
X-11231000Y-14122400D03*
X-12543400Y-14122400D03*
X-13855700Y-14122400D03*
X-13881100Y-19431000D03*
X-12568800Y-19431000D03*
X-11256400Y-19431000D03*
D11*
%TO.N,VIN*%
X-13860300Y-16801900D03*
X-8255000Y-19354800D03*
%TO.N,GND*%
X-8356600Y17526000D03*
X-5334000Y17500600D03*
X-2413000Y17500600D03*
%TO.N,3.8V*%
X-6096000Y19685000D03*
X-3175000Y19685000D03*
X-279400Y19685000D03*
%TO.N,3.3V*%
X-228600Y-19685000D03*
%TO.N,GND*%
X704600Y10412900D03*
X704600Y9347200D03*
X704600Y7112000D03*
X-8585200Y15468600D03*
X-5562600Y15468600D03*
X-2565400Y15468600D03*
D12*
X8047600Y-19146500D03*
X7032400Y-19146500D03*
X6017100Y-19146500D03*
X5001900Y-19146500D03*
D11*
%TO.N,FB*%
X-2667000Y-4191000D03*
%TO.N,GND*%
X16179800Y-15319800D03*
X16179800Y-14496100D03*
X16179800Y-13672500D03*
%TO.N,DOW*%
X2438400Y-17399000D03*
%TO.N,3.3V*%
X-228600Y-17399000D03*
%TO.N,GND*%
X11760200Y-14635500D03*
X11760200Y-16250900D03*
X11760200Y-15443200D03*
%TO.N,1.8V*%
X7543800Y14071600D03*
%TO.N,RE*%
X5715000Y10541000D03*
X10490200Y10541000D03*
%TO.N,GND*%
X16179800Y-16967200D03*
%TO.N,ADC0*%
X6705600Y-10922000D03*
D10*
%TO.N,GND*%
X-10430900Y-21132800D03*
X-9118600Y-21132800D03*
X-7806300Y-21132800D03*
X-21479900Y-23495000D03*
X-20167600Y-23495000D03*
X-18855300Y-23495000D03*
D12*
X3912000Y-5435600D03*
X4927200Y-5435600D03*
X5942500Y-5435600D03*
X3403600Y-4368400D03*
X3403600Y-3353200D03*
D11*
X16179800Y-12025100D03*
X16179800Y-12848800D03*
%TO.N,$1N133305*%
X-3733800Y-17578400D03*
%TO.N,GND*%
X-3733800Y-16512300D03*
X7315200Y-13233400D03*
X7315200Y-15214600D03*
X13172400Y-9702800D03*
X13980200Y-9702800D03*
X14787900Y-9702800D03*
X15671800Y-9702800D03*
X16479500Y-9702800D03*
D12*
X4369500Y-21767800D03*
X5384800Y-21767800D03*
X6400100Y-21767800D03*
D10*
X-12273200Y-28676600D03*
X-10845800Y-28676600D03*
X-9418400Y-28676600D03*
X-20878800Y-14698100D03*
D11*
%TO.N,TX2*%
X9677400Y-16179800D03*
%TO.N,RX2*%
X9677400Y-15494000D03*
%TO.N,UEN*%
X2413000Y-16383000D03*
%TO.N,GND*%
X5486400Y-13233400D03*
X5486400Y-15214600D03*
%TO.N,FB*%
X-10922000Y-4191000D03*
%TO.N,GND*%
X-16103600Y-2743200D03*
X-15290800Y-2743200D03*
X-14478000Y-2743200D03*
D12*
X9347200Y15441900D03*
X9347200Y14396000D03*
X9347200Y13350000D03*
X9347200Y12304000D03*
X1931700Y14859000D03*
D11*
%TO.N,IO2*%
X17526000Y8001000D03*
%TO.N,GEN*%
X6172200Y-10388600D03*
D10*
%TO.N,GND*%
X18110200Y-28813500D03*
X18110200Y-27386200D03*
X18110200Y-25958800D03*
X18110200Y-24531400D03*
D11*
%TO.N,3.8V*%
X-17250100Y-6258100D03*
%TO.N,GND*%
X-17250100Y-5445300D03*
X-17250100Y-4632500D03*
X-21463000Y-3581400D03*
X-20650200Y-3581400D03*
X-19837400Y-3581400D03*
X-21158200Y508000D03*
X-21158200Y1320800D03*
X-21158200Y2133600D03*
D12*
%TO.N,UEN*%
X-12623800Y-6070600D03*
%TO.N,GND*%
X-991000Y-6350000D03*
X-2006200Y-6350000D03*
X1473600Y-5130800D03*
X2488800Y-5130800D03*
%TO.N,3P3*%
X3759200Y-18364200D03*
%TO.N,GND*%
X3378200Y-21767800D03*
D11*
%TO.N,3.3V*%
X-248300Y-8864600D03*
%TO.N,GND*%
X840700Y-10210800D03*
X1648500Y-10210800D03*
%TO.N,3.3V*%
X8077200Y3556000D03*
%TO.N,DOW*%
X17907000Y-19913600D03*
%TO.N,3.3V*%
X-827800Y-8864600D03*
%TO.N,$2N8837*%
X9296400Y-11531600D03*
D10*
%TO.N,GND*%
X20548600Y50800D03*
X20548600Y-2286000D03*
X20548600Y-4622800D03*
X20548600Y-6959600D03*
X-10147300Y20967700D03*
X-8750300Y20967700D03*
X-7353300Y20967700D03*
X-5956300Y20993100D03*
D11*
X-2159000Y-16560800D03*
%TO.N,G3.3*%
X5951000Y28422600D03*
D12*
%TO.N,GND*%
X14386800Y28435300D03*
X15429700Y28435300D03*
X16472700Y28409900D03*
X17515600Y28409900D03*
X14386800Y26784300D03*
X15429700Y26784300D03*
X16472700Y26758900D03*
X17515600Y26758900D03*
X2260600Y25885600D03*
X2260600Y26922500D03*
X2260600Y27959500D03*
X2260600Y28996400D03*
X2260600Y24848700D03*
X2260600Y23811700D03*
X1943100Y16063200D03*
X1968500Y19192000D03*
X1943100Y17106100D03*
X1968500Y18149100D03*
D11*
%TO.N,ZD*%
X18719800Y-21488400D03*
X1066800Y-15367000D03*
%TO.N,3.3V*%
X15864600Y-21849400D03*
D12*
%TO.N,GND*%
X7519100Y-17907000D03*
%TO.N,3P3*%
X8534400Y-17907000D03*
%TO.N,IO5*%
X9549700Y-17907000D03*
D11*
%TO.N,GND*%
X16179800Y-11201400D03*
X22555200Y-23769300D03*
X22555200Y-22961600D03*
X22555200Y-22153900D03*
X17068800Y-15343400D03*
X17068800Y-14519700D03*
X17068800Y-13696000D03*
X17068800Y-12872400D03*
X17068800Y-12048700D03*
X17068800Y-11225000D03*
D10*
X-7924800Y-13106400D03*
D11*
X-15595600Y-7670800D03*
X-18415000Y-7670800D03*
X-17475200Y-7670800D03*
X-16535400Y-7670800D03*
D12*
X-22783800Y-8703000D03*
X-22783800Y-10795000D03*
X-22783800Y-12887000D03*
X-12522200Y-7670800D03*
D10*
X-16659200Y13004800D03*
X-21107900Y13004800D03*
%TO.N,$1N141927*%
X-19437800Y13004800D03*
D12*
%TO.N,GND*%
X-17043400Y10448600D03*
X-17043400Y8356600D03*
%TO.N,3.3V*%
X-17373600Y5765800D03*
D11*
%TO.N,IO2*%
X-15443200Y14097000D03*
%TO.N,RX*%
X12750800Y-19202400D03*
%TO.N,G3.3*%
X14922200Y12962800D03*
%TO.N,GND*%
X15735000Y12962800D03*
%TO.N,GEN*%
X16547800Y12962800D03*
%TO.N,IO2*%
X5439400Y-10245400D03*
%TO.N,GEN*%
X14757400Y10591800D03*
%TO.N,3.3V*%
X20116800Y11506200D03*
D12*
%TO.N,G3.3*%
X16687800Y16052800D03*
D11*
%TO.N,3.3V*%
X20142200Y7137400D03*
D10*
%TO.N,GND*%
X21590000Y9791700D03*
X21590000Y11137900D03*
X9372600Y7048500D03*
X9372600Y8394700D03*
X-9096400Y-9929800D03*
D12*
X-4826000Y-9676700D03*
X-4826000Y-8661400D03*
X-4826000Y-7646100D03*
X13066000Y15316200D03*
X14112000Y15316200D03*
X17755000Y21558600D03*
X17755000Y20512600D03*
D11*
%TO.N,EN*%
X3429000Y-9601200D03*
X21336000Y-19913600D03*
%TO.N,$2N8837*%
X17475200Y-10363200D03*
%TO.N,3P3*%
X10510200Y-11861800D03*
%TO.N,GND*%
X11333800Y-11861800D03*
%TD*%
%TO.N,DOW*%
D13*
X17907000Y-19913600D02*
X4495800Y-19913600D01*
%TO.N,ZD*%
X1066800Y-17551400D02*
X1066800Y-15367000D01*
X17780000Y-20548600D02*
X4064000Y-20548600D01*
%TO.N,DOW*%
X2438400Y-17856200D02*
X2438400Y-17399000D01*
%TO.N,GEN*%
X8128000Y-8026400D02*
X13385800Y-8026400D01*
%TO.N,IO2*%
X14960600Y-5689600D02*
X14960600Y-2932100D01*
X8141000Y-7543800D02*
X13106400Y-7543800D01*
%TO.N,GEN*%
X6172200Y-9982200D02*
X6172200Y-10388600D01*
%TO.N,IO2*%
X3300900Y8255000D02*
X-9601200Y8255000D01*
X16510000Y9372600D02*
X5999100Y9372600D01*
X17526000Y8001000D02*
X17526000Y3881400D01*
%TO.N,GEN*%
X16129000Y10566400D02*
X14782800Y10566400D01*
X15519400Y-2703500D02*
X15519400Y-5892800D01*
X18237200Y3857800D02*
X18237200Y8458200D01*
%TO.N,IO2*%
X17526000Y8001000D02*
X17526000Y8356600D01*
%TO.N,UEN*%
X-1270000Y-10896600D02*
X-4445000Y-10896600D01*
X-5918200Y-9423400D02*
X-5918200Y-8446600D01*
X2413000Y-14579600D02*
X2413000Y-16383000D01*
X-8294200Y-6070600D02*
X-12623800Y-6070600D01*
%TO.N,EN*%
X3429000Y-9601200D02*
X3429000Y-13385800D01*
X7086600Y-17043400D02*
X12598100Y-17043400D01*
X16829200Y-18796000D02*
X19075400Y-18796000D01*
X21026600Y-19604200D02*
X21336000Y-19913600D01*
%TO.N,$2N8837*%
D14*
X12055800Y-10388600D02*
X17413900Y-10388600D01*
%TO.N,SIM_RST*%
D15*
X-1092200Y-2362200D02*
X2644600Y-2362200D01*
%TO.N,SIM_CLK*%
X0Y-1625600D02*
X7421700Y-1625600D01*
%TO.N,SIM_DATA*%
X-355600Y-330200D02*
X7462200Y-330200D01*
%TO.N,3.3V*%
D16*
X-12496800Y889000D02*
X5410200Y889000D01*
%TO.N,$2N8837*%
D14*
X12055800Y-10388600D02*
X11710900Y-10526500D01*
X11710900Y-10526500D02*
X11366000Y-10665800D01*
X11366000Y-10665800D02*
X11021100Y-10806500D01*
X11021100Y-10806500D02*
X10676100Y-10948700D01*
X10676100Y-10948700D02*
X10331200Y-11092300D01*
X10331200Y-11092300D02*
X9986300Y-11237300D01*
X9986300Y-11237300D02*
X9641300Y-11383700D01*
X9641300Y-11383700D02*
X9296400Y-11531600D01*
%TO.N,ZD*%
D13*
X4064000Y-20548600D02*
X3689300Y-20184000D01*
X3689300Y-20184000D02*
X3314700Y-19816400D01*
X3314700Y-19816400D02*
X2940100Y-19446100D01*
X2940100Y-19446100D02*
X2565400Y-19072900D01*
X2565400Y-19072900D02*
X2190800Y-18696800D01*
X2190800Y-18696800D02*
X1816100Y-18317800D01*
X1816100Y-18317800D02*
X1441500Y-17936100D01*
X1441500Y-17936100D02*
X1066800Y-17551400D01*
X17780000Y-20548600D02*
X17897500Y-20676100D01*
X17897500Y-20676100D02*
X18015000Y-20800700D01*
X18015000Y-20800700D02*
X18132400Y-20922500D01*
X18132400Y-20922500D02*
X18249900Y-21041400D01*
X18249900Y-21041400D02*
X18367400Y-21157400D01*
X18367400Y-21157400D02*
X18484800Y-21270600D01*
X18484800Y-21270600D02*
X18602300Y-21380900D01*
X18602300Y-21380900D02*
X18719800Y-21488400D01*
%TO.N,DOW*%
X4495800Y-19913600D02*
X4238600Y-19666400D01*
X4238600Y-19666400D02*
X3981400Y-19416400D01*
X3981400Y-19416400D02*
X3724300Y-19163500D01*
X3724300Y-19163500D02*
X3467100Y-18907800D01*
X3467100Y-18907800D02*
X3209900Y-18649200D01*
X3209900Y-18649200D02*
X2952800Y-18387700D01*
X2952800Y-18387700D02*
X2695600Y-18123400D01*
X2695600Y-18123400D02*
X2438400Y-17856200D01*
%TO.N,IO2*%
X13106400Y-7543800D02*
X13338200Y-7302000D01*
X13338200Y-7302000D02*
X13569900Y-7063100D01*
X13569900Y-7063100D02*
X13801700Y-6827000D01*
X13801700Y-6827000D02*
X14033500Y-6593800D01*
X14033500Y-6593800D02*
X14265300Y-6363500D01*
X14265300Y-6363500D02*
X14497100Y-6136000D01*
X14497100Y-6136000D02*
X14728800Y-5911400D01*
X14728800Y-5911400D02*
X14960600Y-5689600D01*
%TO.N,GEN*%
X13385800Y-8026400D02*
X13652500Y-7749700D01*
X13652500Y-7749700D02*
X13919200Y-7475900D01*
X13919200Y-7475900D02*
X14185900Y-7204900D01*
X14185900Y-7204900D02*
X14452600Y-6936700D01*
X14452600Y-6936700D02*
X14719300Y-6671500D01*
X14719300Y-6671500D02*
X14986000Y-6409100D01*
X14986000Y-6409100D02*
X15252700Y-6149500D01*
X15252700Y-6149500D02*
X15519400Y-5892800D01*
%TO.N,IO2*%
X8141000Y-7543800D02*
X7803300Y-7871500D01*
X7803300Y-7871500D02*
X7465600Y-8202100D01*
X7465600Y-8202100D02*
X7127900Y-8535500D01*
X7127900Y-8535500D02*
X6790200Y-8871800D01*
X6790200Y-8871800D02*
X6452500Y-9210900D01*
X6452500Y-9210900D02*
X6114800Y-9552900D01*
X6114800Y-9552900D02*
X5777100Y-9897700D01*
X5777100Y-9897700D02*
X5439400Y-10245400D01*
%TO.N,GEN*%
X8128000Y-8026400D02*
X7883500Y-8260900D01*
X7883500Y-8260900D02*
X7639100Y-8498200D01*
X7639100Y-8498200D02*
X7394600Y-8738400D01*
X7394600Y-8738400D02*
X7150100Y-8981400D01*
X7150100Y-8981400D02*
X6905600Y-9227300D01*
X6905600Y-9227300D02*
X6661200Y-9476100D01*
X6661200Y-9476100D02*
X6416700Y-9727700D01*
X6416700Y-9727700D02*
X6172200Y-9982200D01*
%TO.N,IO2*%
X-9601200Y8255000D02*
X-10331500Y8975200D01*
X-10331500Y8975200D02*
X-11061700Y9698400D01*
X-11061700Y9698400D02*
X-11792000Y10424300D01*
X-11792000Y10424300D02*
X-12522200Y11153100D01*
X-12522200Y11153100D02*
X-13252500Y11884800D01*
X-13252500Y11884800D02*
X-13982700Y12619400D01*
X-13982700Y12619400D02*
X-14713000Y13356700D01*
X-14713000Y13356700D02*
X-15443200Y14097000D01*
X3300900Y8255000D02*
X3431300Y8314000D01*
X3431300Y8314000D02*
X3561600Y8371500D01*
X3561600Y8371500D02*
X3691900Y8427600D01*
X3691900Y8427600D02*
X3822200Y8482300D01*
X3822200Y8482300D02*
X3952500Y8535600D01*
X3952500Y8535600D02*
X4082800Y8587400D01*
X4082800Y8587400D02*
X4213100Y8637800D01*
X4213100Y8637800D02*
X4343400Y8686800D01*
X4343400Y8686800D02*
X4550400Y8767500D01*
X4550400Y8767500D02*
X4757300Y8849700D01*
X4757300Y8849700D02*
X4964300Y8933300D01*
X4964300Y8933300D02*
X5171200Y9018300D01*
X5171200Y9018300D02*
X5378200Y9104700D01*
X5378200Y9104700D02*
X5585200Y9192600D01*
X5585200Y9192600D02*
X5792100Y9281900D01*
X5792100Y9281900D02*
X5999100Y9372600D01*
X14960600Y-2932100D02*
X15144800Y-2414400D01*
X15144800Y-2414400D02*
X15328900Y-1895400D01*
X15328900Y-1895400D02*
X15513100Y-1375100D01*
X15513100Y-1375100D02*
X15697200Y-853600D01*
X15697200Y-853600D02*
X15881400Y-330900D01*
X15881400Y-330900D02*
X16065500Y193000D01*
X16065500Y193000D02*
X16249700Y718200D01*
X16249700Y718200D02*
X16433800Y1244600D01*
X16433800Y1244600D02*
X16570300Y1579200D01*
X16570300Y1579200D02*
X16706900Y1912400D01*
X16706900Y1912400D02*
X16843400Y2244100D01*
X16843400Y2244100D02*
X16979900Y2574400D01*
X16979900Y2574400D02*
X17116400Y2903300D01*
X17116400Y2903300D02*
X17253000Y3230800D01*
X17253000Y3230800D02*
X17389500Y3556800D01*
X17389500Y3556800D02*
X17526000Y3881400D01*
%TO.N,GEN*%
X15519400Y-2703500D02*
X15706700Y-2256300D01*
X15706700Y-2256300D02*
X15894100Y-1807600D01*
X15894100Y-1807600D02*
X16081400Y-1357500D01*
X16081400Y-1357500D02*
X16268700Y-906000D01*
X16268700Y-906000D02*
X16456000Y-453000D01*
X16456000Y-453000D02*
X16643300Y1300D01*
X16643300Y1300D02*
X16830700Y457200D01*
X16830700Y457200D02*
X17018000Y914400D01*
X17018000Y914400D02*
X17170400Y1287300D01*
X17170400Y1287300D02*
X17322800Y1658800D01*
X17322800Y1658800D02*
X17475200Y2028900D01*
X17475200Y2028900D02*
X17627600Y2397500D01*
X17627600Y2397500D02*
X17780000Y2764700D01*
X17780000Y2764700D02*
X17932400Y3130500D01*
X17932400Y3130500D02*
X18084800Y3494900D01*
X18084800Y3494900D02*
X18237200Y3857800D01*
X18237200Y8458200D02*
X17973700Y8731700D01*
X17973700Y8731700D02*
X17710200Y9002400D01*
X17710200Y9002400D02*
X17446600Y9270200D01*
X17446600Y9270200D02*
X17183100Y9535200D01*
X17183100Y9535200D02*
X16919600Y9797300D01*
X16919600Y9797300D02*
X16656100Y10056500D01*
X16656100Y10056500D02*
X16392500Y10312900D01*
X16392500Y10312900D02*
X16129000Y10566400D01*
X14782800Y10566400D02*
X14779600Y10559600D01*
X14779600Y10559600D02*
X14776400Y10555600D01*
X14776400Y10555600D02*
X14773300Y10554500D01*
X14773300Y10554500D02*
X14770100Y10556200D01*
X14770100Y10556200D02*
X14766900Y10560800D01*
X14766900Y10560800D02*
X14763800Y10568300D01*
X14763800Y10568300D02*
X14760600Y10578600D01*
X14760600Y10578600D02*
X14757400Y10591800D01*
%TO.N,IO2*%
X16510000Y9372600D02*
X16637000Y9235600D01*
X16637000Y9235600D02*
X16764000Y9101500D01*
X16764000Y9101500D02*
X16891000Y8970200D01*
X16891000Y8970200D02*
X17018000Y8841700D01*
X17018000Y8841700D02*
X17145000Y8716200D01*
X17145000Y8716200D02*
X17272000Y8593500D01*
X17272000Y8593500D02*
X17399000Y8473600D01*
X17399000Y8473600D02*
X17526000Y8356600D01*
%TO.N,UEN*%
X2413000Y-14579600D02*
X1952600Y-14109200D01*
X1952600Y-14109200D02*
X1492200Y-13641700D01*
X1492200Y-13641700D02*
X1031900Y-13177000D01*
X1031900Y-13177000D02*
X571500Y-12715200D01*
X571500Y-12715200D02*
X111100Y-12256300D01*
X111100Y-12256300D02*
X-349300Y-11800200D01*
X-349300Y-11800200D02*
X-809600Y-11347000D01*
X-809600Y-11347000D02*
X-1270000Y-10896600D01*
X-4445000Y-10896600D02*
X-4629200Y-10722500D01*
X-4629200Y-10722500D02*
X-4813300Y-10545400D01*
X-4813300Y-10545400D02*
X-4997500Y-10365600D01*
X-4997500Y-10365600D02*
X-5181600Y-10182900D01*
X-5181600Y-10182900D02*
X-5365700Y-9997300D01*
X-5365700Y-9997300D02*
X-5549900Y-9808800D01*
X-5549900Y-9808800D02*
X-5734100Y-9617600D01*
X-5734100Y-9617600D02*
X-5918200Y-9423400D01*
X-5918200Y-8446600D02*
X-6215200Y-8139600D01*
X-6215200Y-8139600D02*
X-6512200Y-7835400D01*
X-6512200Y-7835400D02*
X-6809200Y-7534100D01*
X-6809200Y-7534100D02*
X-7106200Y-7235700D01*
X-7106200Y-7235700D02*
X-7403200Y-6940200D01*
X-7403200Y-6940200D02*
X-7700200Y-6647400D01*
X-7700200Y-6647400D02*
X-7997200Y-6357600D01*
X-7997200Y-6357600D02*
X-8294200Y-6070600D01*
%TO.N,EN*%
X3429000Y-13385800D02*
X3886200Y-13833000D01*
X3886200Y-13833000D02*
X4343400Y-14283100D01*
X4343400Y-14283100D02*
X4800600Y-14736000D01*
X4800600Y-14736000D02*
X5257800Y-15191700D01*
X5257800Y-15191700D02*
X5715000Y-15650400D01*
X5715000Y-15650400D02*
X6172200Y-16111900D01*
X6172200Y-16111900D02*
X6629400Y-16576200D01*
X6629400Y-16576200D02*
X7086600Y-17043400D01*
X12598100Y-17043400D02*
X12820400Y-17140500D01*
X12820400Y-17140500D02*
X13042700Y-17236100D01*
X13042700Y-17236100D02*
X13265000Y-17330300D01*
X13265000Y-17330300D02*
X13487200Y-17423100D01*
X13487200Y-17423100D02*
X13709500Y-17514500D01*
X13709500Y-17514500D02*
X13931800Y-17604400D01*
X13931800Y-17604400D02*
X14154100Y-17692900D01*
X14154100Y-17692900D02*
X14376400Y-17780000D01*
X14376400Y-17780000D02*
X14683000Y-17902000D01*
X14683000Y-17902000D02*
X14989600Y-18025400D01*
X14989600Y-18025400D02*
X15296200Y-18150300D01*
X15296200Y-18150300D02*
X15602800Y-18276600D01*
X15602800Y-18276600D02*
X15909400Y-18404300D01*
X15909400Y-18404300D02*
X16216000Y-18533400D01*
X16216000Y-18533400D02*
X16522600Y-18664000D01*
X16522600Y-18664000D02*
X16829200Y-18796000D01*
X19075400Y-18796000D02*
X19319300Y-18902000D01*
X19319300Y-18902000D02*
X19563200Y-19006600D01*
X19563200Y-19006600D02*
X19807100Y-19109800D01*
X19807100Y-19109800D02*
X20051000Y-19211500D01*
X20051000Y-19211500D02*
X20294900Y-19311900D01*
X20294900Y-19311900D02*
X20538800Y-19410700D01*
X20538800Y-19410700D02*
X20782700Y-19508200D01*
X20782700Y-19508200D02*
X21026600Y-19604200D01*
%TO.N,$2N8837*%
D14*
X17413900Y-10388600D02*
X17421500Y-10380400D01*
X17421500Y-10380400D02*
X17429200Y-10373700D01*
X17429200Y-10373700D02*
X17436900Y-10368400D01*
X17436900Y-10368400D02*
X17444500Y-10364500D01*
X17444500Y-10364500D02*
X17452200Y-10362000D01*
X17452200Y-10362000D02*
X17459900Y-10361000D01*
X17459900Y-10361000D02*
X17467500Y-10361400D01*
X17467500Y-10361400D02*
X17475200Y-10363200D01*
%TO.N,SIM_RST*%
D15*
X2644600Y-2362200D02*
X3012500Y-2519600D01*
X3012500Y-2519600D02*
X3380400Y-2675600D01*
X3380400Y-2675600D02*
X3748400Y-2830100D01*
X3748400Y-2830100D02*
X4116300Y-2983200D01*
X4116300Y-2983200D02*
X4484200Y-3134900D01*
X4484200Y-3134900D02*
X4852100Y-3285200D01*
X4852100Y-3285200D02*
X5220100Y-3434000D01*
X5220100Y-3434000D02*
X5588000Y-3581400D01*
%TO.N,SIM_CLK*%
X7421700Y-1625600D02*
X7424900Y-1619300D01*
X7424900Y-1619300D02*
X7428100Y-1614400D01*
X7428100Y-1614400D02*
X7431300Y-1610900D01*
X7431300Y-1610900D02*
X7434600Y-1608800D01*
X7434600Y-1608800D02*
X7437800Y-1608200D01*
X7437800Y-1608200D02*
X7441000Y-1609000D01*
X7441000Y-1609000D02*
X7444200Y-1611300D01*
X7444200Y-1611300D02*
X7447400Y-1614900D01*
%TO.N,SIM_DATA*%
X-2235200Y-2209800D02*
X-2000300Y-1984900D01*
X-2000300Y-1984900D02*
X-1765300Y-1757000D01*
X-1765300Y-1757000D02*
X-1530300Y-1526400D01*
X-1530300Y-1526400D02*
X-1295400Y-1292900D01*
X-1295400Y-1292900D02*
X-1060500Y-1056500D01*
X-1060500Y-1056500D02*
X-825500Y-817200D01*
X-825500Y-817200D02*
X-590600Y-575200D01*
X-590600Y-575200D02*
X-355600Y-330200D01*
X7462200Y-330200D02*
X7463100Y-319300D01*
X7463100Y-319300D02*
X7463900Y-311300D01*
X7463900Y-311300D02*
X7464800Y-306100D01*
X7464800Y-306100D02*
X7465700Y-303800D01*
X7465700Y-303800D02*
X7466600Y-304300D01*
X7466600Y-304300D02*
X7467500Y-307700D01*
X7467500Y-307700D02*
X7468400Y-314000D01*
X7468400Y-314000D02*
X7469300Y-323100D01*
%TO.N,3.3V*%
D16*
X-17373600Y5765800D02*
X-16764000Y5166200D01*
X-16764000Y5166200D02*
X-16154400Y4563700D01*
X-16154400Y4563700D02*
X-15544800Y3958400D01*
X-15544800Y3958400D02*
X-14935200Y3350300D01*
X-14935200Y3350300D02*
X-14325600Y2739200D01*
X-14325600Y2739200D02*
X-13716000Y2125300D01*
X-13716000Y2125300D02*
X-13106400Y1508600D01*
X-13106400Y1508600D02*
X-12496800Y889000D01*
X5410200Y889000D02*
X5743600Y1232400D01*
X5743600Y1232400D02*
X6077000Y1572900D01*
X6077000Y1572900D02*
X6410300Y1910600D01*
X6410300Y1910600D02*
X6743700Y2245400D01*
X6743700Y2245400D02*
X7077100Y2577300D01*
X7077100Y2577300D02*
X7410500Y2906400D01*
X7410500Y2906400D02*
X7743800Y3232600D01*
X7743800Y3232600D02*
X8077200Y3556000D01*
%TD*%
M02*
