%TF.GenerationSoftware,KiCad,Pcbnew,10.99.0-unknown*%
%TF.CreationDate,2026-08-12T15:22:04+08:00*%
%TF.ProjectId,4G________(__+___+APP),34476954-9a4d-4a73-9654-d2286cf62b0d,rev?*%
%TF.SameCoordinates,Original*%
%TF.FileFunction,Copper,L3,Inr*%
%TF.FilePolarity,Positive*%
%FSLAX46Y46*%
G04 Gerber Fmt 4.6, Leading zero omitted, Abs format (unit mm)*
G04 Created by KiCad (PCBNEW 10.99.0-unknown) date 2026-08-12 15:22:04*
%MOMM*%
%LPD*%
G01*
G04 APERTURE LIST*
%TA.AperFunction,ViaPad*%
%ADD10C,1.000000*%
%TD*%
%TA.AperFunction,ViaPad*%
%ADD11C,0.500000*%
%TD*%
%TA.AperFunction,ViaPad*%
%ADD12C,0.610000*%
%TD*%
%TA.AperFunction,Conductor*%
%ADD13C,0.355600*%
%TD*%
%TA.AperFunction,Conductor*%
%ADD14C,0.406400*%
%TD*%
%TA.AperFunction,Conductor*%
%ADD15C,0.348800*%
%TD*%
%TA.AperFunction,Conductor*%
%ADD16C,0.249200*%
%TD*%
%TA.AperFunction,Conductor*%
%ADD17C,0.604800*%
%TD*%
%TA.AperFunction,Conductor*%
%ADD18C,0.300000*%
%TD*%
%TA.AperFunction,Conductor*%
%ADD19C,0.558800*%
%TD*%
G04 APERTURE END LIST*
D10*
%TO.N,GND*%
X-18542000Y24663400D03*
X-18542000Y26333500D03*
X-18542000Y28003500D03*
D11*
%TO.N,3.8V*%
X-13816100Y3853900D03*
D12*
%TO.N,GND*%
X-16357600Y21640800D03*
D10*
X-15151100Y-28676600D03*
X-13723700Y-28676600D03*
X-8014300Y-28676600D03*
X-6586900Y-28676600D03*
X-5159500Y-28676600D03*
X-3732100Y-28676600D03*
X-2304800Y-28676600D03*
X-877400Y-28676600D03*
X550000Y-28676600D03*
X7686800Y-28676600D03*
X9114200Y-28676600D03*
X10541600Y-28676600D03*
X11968900Y-28676600D03*
X13396300Y-28676600D03*
X14823700Y-28676600D03*
X1977300Y-28676600D03*
X3404700Y-28676600D03*
X4832100Y-28676600D03*
X6259400Y-28676600D03*
X-10590300Y5403300D03*
X-10590300Y6749500D03*
X-7721600Y23431500D03*
X-7747000Y24828500D03*
X-7747000Y26225500D03*
X-7747000Y27622500D03*
D11*
%TO.N,SIM_DATA*%
X7469300Y-323100D03*
%TO.N,SIM_CLK*%
X7447400Y-1614900D03*
%TO.N,SIM_RST*%
X5588000Y-3581400D03*
%TO.N,SIM_DATA*%
X-594100Y-4085300D03*
%TO.N,SIM_CLK*%
X0Y-1625600D03*
%TO.N,SIM_RST*%
X-1092200Y-2362200D03*
%TO.N,SIM_DATA*%
X-2235200Y-2209800D03*
%TO.N,1.8V*%
X1346200Y2743200D03*
D10*
%TO.N,GND*%
X11133700Y-1224800D03*
X11133700Y-2537200D03*
X11133700Y-3849500D03*
X11133700Y-5161800D03*
X-7213600Y-11328400D03*
X-7213600Y-9971600D03*
X-7213600Y-8614800D03*
D11*
%TO.N,SIM_DATA*%
X-609600Y-5486400D03*
D10*
%TO.N,GND*%
X-18542000Y22993400D03*
X-18542000Y21323300D03*
X-18542000Y19653300D03*
X-18542000Y17983200D03*
D12*
X-14300200Y16027400D03*
X-14300200Y15012100D03*
X-11887200Y17779300D03*
X-11887200Y16764000D03*
X-11887200Y15748700D03*
X-22440900Y8276600D03*
X-22440900Y6184700D03*
X-22440900Y4092700D03*
X-22440900Y2000800D03*
X-22440900Y-91200D03*
X-22466300Y-2183100D03*
X-22466300Y-4275100D03*
X-22466300Y-14734900D03*
X-22466300Y-6367100D03*
X-22466300Y-16826800D03*
X-22466300Y-18918800D03*
X-22466300Y-21010800D03*
X22771100Y6300000D03*
X22771100Y4208100D03*
X22771100Y2116100D03*
X22771100Y24100D03*
X22771100Y-2067800D03*
X22745700Y-6251700D03*
X22745700Y-8343700D03*
X22745700Y-4159800D03*
X22771100Y10483900D03*
X22771100Y8392000D03*
X-304800Y2006200D03*
D10*
X-2743200Y5562600D03*
D12*
X5384800Y8153400D03*
X-16383000Y20726400D03*
X4318700Y3251200D03*
X5334000Y3251200D03*
%TO.N,1.8V*%
X6349300Y3251200D03*
%TO.N,GND*%
X5384800Y7213600D03*
D11*
X16179800Y-16143500D03*
%TO.N,3.8V*%
X-9118600Y19685000D03*
D12*
%TO.N,GND*%
X-11912600Y18872900D03*
X-11912600Y19888200D03*
X-11912600Y20903500D03*
D11*
%TO.N,$1N126416*%
X-18113400Y-11107100D03*
%TO.N,GND*%
X-17300600Y-11107100D03*
%TO.N,$1N126733*%
X-16487800Y-11107100D03*
%TO.N,GND*%
X-19862800Y-12141200D03*
X-19862800Y-11328400D03*
X-16433800Y-2032000D03*
X-16433800Y-1219200D03*
X-16433800Y-406400D03*
D10*
X-9918700Y-14122400D03*
X-11231000Y-14122400D03*
X-12543400Y-14122400D03*
X-13855700Y-14122400D03*
X-13881100Y-19431000D03*
X-12568800Y-19431000D03*
X-11256400Y-19431000D03*
D11*
%TO.N,VIN*%
X-13860300Y-16801900D03*
X-8255000Y-19354800D03*
%TO.N,GND*%
X-8356600Y17526000D03*
X-5334000Y17500600D03*
X-2413000Y17500600D03*
%TO.N,3.8V*%
X-6096000Y19685000D03*
X-3175000Y19685000D03*
X-279400Y19685000D03*
%TO.N,3.3V*%
X-228600Y-19685000D03*
%TO.N,GND*%
X704600Y10412900D03*
X704600Y9347200D03*
X704600Y7112000D03*
X-8585200Y15468600D03*
X-5562600Y15468600D03*
X-2565400Y15468600D03*
D12*
X8047600Y-19146500D03*
X7032400Y-19146500D03*
X6017100Y-19146500D03*
X5001900Y-19146500D03*
D11*
%TO.N,FB*%
X-2667000Y-4191000D03*
%TO.N,GND*%
X16179800Y-15319800D03*
X16179800Y-14496100D03*
X16179800Y-13672500D03*
%TO.N,DOW*%
X2438400Y-17399000D03*
%TO.N,3.3V*%
X-228600Y-17399000D03*
%TO.N,GND*%
X11760200Y-14635500D03*
X11760200Y-16250900D03*
X11760200Y-15443200D03*
%TO.N,1.8V*%
X7543800Y14071600D03*
%TO.N,RE*%
X5715000Y10541000D03*
X10490200Y10541000D03*
%TO.N,GND*%
X16179800Y-16967200D03*
%TO.N,ADC0*%
X6705600Y-10922000D03*
D10*
%TO.N,GND*%
X-10430900Y-21132800D03*
X-9118600Y-21132800D03*
X-7806300Y-21132800D03*
X-21479900Y-23495000D03*
X-20167600Y-23495000D03*
X-18855300Y-23495000D03*
D12*
X3912000Y-5435600D03*
X4927200Y-5435600D03*
X5942500Y-5435600D03*
X3403600Y-4368400D03*
X3403600Y-3353200D03*
D11*
X16179800Y-12025100D03*
X16179800Y-12848800D03*
%TO.N,$1N133305*%
X-3733800Y-17578400D03*
%TO.N,GND*%
X-3733800Y-16512300D03*
X7315200Y-13233400D03*
X7315200Y-15214600D03*
X13172400Y-9702800D03*
X13980200Y-9702800D03*
X14787900Y-9702800D03*
X15671800Y-9702800D03*
X16479500Y-9702800D03*
D12*
X4369500Y-21767800D03*
X5384800Y-21767800D03*
X6400100Y-21767800D03*
D10*
X-12273200Y-28676600D03*
X-10845800Y-28676600D03*
X-9418400Y-28676600D03*
X-20878800Y-14698100D03*
D11*
%TO.N,TX2*%
X9677400Y-16179800D03*
%TO.N,RX2*%
X9677400Y-15494000D03*
%TO.N,UEN*%
X2413000Y-16383000D03*
%TO.N,GND*%
X5486400Y-13233400D03*
X5486400Y-15214600D03*
%TO.N,FB*%
X-10922000Y-4191000D03*
%TO.N,GND*%
X-16103600Y-2743200D03*
X-15290800Y-2743200D03*
X-14478000Y-2743200D03*
D12*
X9347200Y15441900D03*
X9347200Y14396000D03*
X9347200Y13350000D03*
X9347200Y12304000D03*
X1931700Y14859000D03*
D11*
%TO.N,IO2*%
X17526000Y8001000D03*
%TO.N,GEN*%
X6172200Y-10388600D03*
D10*
%TO.N,GND*%
X18110200Y-28813500D03*
X18110200Y-27386200D03*
X18110200Y-25958800D03*
X18110200Y-24531400D03*
D11*
%TO.N,3.8V*%
X-17250100Y-6258100D03*
%TO.N,GND*%
X-17250100Y-5445300D03*
X-17250100Y-4632500D03*
X-21463000Y-3581400D03*
X-20650200Y-3581400D03*
X-19837400Y-3581400D03*
X-21158200Y508000D03*
X-21158200Y1320800D03*
X-21158200Y2133600D03*
D12*
%TO.N,UEN*%
X-12623800Y-6070600D03*
%TO.N,GND*%
X-991000Y-6350000D03*
X-2006200Y-6350000D03*
X1473600Y-5130800D03*
X2488800Y-5130800D03*
%TO.N,3P3*%
X3759200Y-18364200D03*
%TO.N,GND*%
X3378200Y-21767800D03*
D11*
%TO.N,3.3V*%
X-248300Y-8864600D03*
%TO.N,GND*%
X840700Y-10210800D03*
X1648500Y-10210800D03*
%TO.N,3.3V*%
X8077200Y3556000D03*
%TO.N,DOW*%
X17907000Y-19913600D03*
%TO.N,3.3V*%
X-827800Y-8864600D03*
%TO.N,$2N8837*%
X9296400Y-11531600D03*
D10*
%TO.N,GND*%
X20548600Y50800D03*
X20548600Y-2286000D03*
X20548600Y-4622800D03*
X20548600Y-6959600D03*
X-10147300Y20967700D03*
X-8750300Y20967700D03*
X-7353300Y20967700D03*
X-5956300Y20993100D03*
D11*
X-2159000Y-16560800D03*
%TO.N,G3.3*%
X5951000Y28422600D03*
D12*
%TO.N,GND*%
X14386800Y28435300D03*
X15429700Y28435300D03*
X16472700Y28409900D03*
X17515600Y28409900D03*
X14386800Y26784300D03*
X15429700Y26784300D03*
X16472700Y26758900D03*
X17515600Y26758900D03*
X2260600Y25885600D03*
X2260600Y26922500D03*
X2260600Y27959500D03*
X2260600Y28996400D03*
X2260600Y24848700D03*
X2260600Y23811700D03*
X1943100Y16063200D03*
X1968500Y19192000D03*
X1943100Y17106100D03*
X1968500Y18149100D03*
D11*
%TO.N,ZD*%
X18719800Y-21488400D03*
X1066800Y-15367000D03*
%TO.N,3.3V*%
X15864600Y-21849400D03*
D12*
%TO.N,GND*%
X7519100Y-17907000D03*
%TO.N,3P3*%
X8534400Y-17907000D03*
%TO.N,IO5*%
X9549700Y-17907000D03*
D11*
%TO.N,GND*%
X16179800Y-11201400D03*
X22555200Y-23769300D03*
X22555200Y-22961600D03*
X22555200Y-22153900D03*
X17068800Y-15343400D03*
X17068800Y-14519700D03*
X17068800Y-13696000D03*
X17068800Y-12872400D03*
X17068800Y-12048700D03*
X17068800Y-11225000D03*
D10*
X-7924800Y-13106400D03*
D11*
X-15595600Y-7670800D03*
X-18415000Y-7670800D03*
X-17475200Y-7670800D03*
X-16535400Y-7670800D03*
D12*
X-22783800Y-8703000D03*
X-22783800Y-10795000D03*
X-22783800Y-12887000D03*
X-12522200Y-7670800D03*
D10*
X-16659200Y13004800D03*
X-21107900Y13004800D03*
%TO.N,$1N141927*%
X-19437800Y13004800D03*
D12*
%TO.N,GND*%
X-17043400Y10448600D03*
X-17043400Y8356600D03*
%TO.N,3.3V*%
X-17373600Y5765800D03*
D11*
%TO.N,IO2*%
X-15443200Y14097000D03*
%TO.N,RX*%
X12750800Y-19202400D03*
%TO.N,G3.3*%
X14922200Y12962800D03*
%TO.N,GND*%
X15735000Y12962800D03*
%TO.N,GEN*%
X16547800Y12962800D03*
%TO.N,IO2*%
X5439400Y-10245400D03*
%TO.N,GEN*%
X14757400Y10591800D03*
%TO.N,3.3V*%
X20116800Y11506200D03*
D12*
%TO.N,G3.3*%
X16687800Y16052800D03*
D11*
%TO.N,3.3V*%
X20142200Y7137400D03*
D10*
%TO.N,GND*%
X21590000Y9791700D03*
X21590000Y11137900D03*
X9372600Y7048500D03*
X9372600Y8394700D03*
X-9096400Y-9929800D03*
D12*
X-4826000Y-9676700D03*
X-4826000Y-8661400D03*
X-4826000Y-7646100D03*
X13066000Y15316200D03*
X14112000Y15316200D03*
X17755000Y21558600D03*
X17755000Y20512600D03*
D11*
%TO.N,EN*%
X3429000Y-9601200D03*
X21336000Y-19913600D03*
%TO.N,$2N8837*%
X17475200Y-10363200D03*
%TO.N,3P3*%
X10510200Y-11861800D03*
%TO.N,GND*%
X11333800Y-11861800D03*
%TD*%
%TO.N,3.8V*%
D13*
X-9118600Y19685000D02*
X-6096000Y19685000D01*
X-6096000Y19685000D02*
X-3175000Y19685000D01*
X-3175000Y19685000D02*
X-279400Y19685000D01*
X-10388600Y18415000D02*
X-10388600Y15265400D01*
X-13816100Y7223500D02*
X-13816100Y3853900D01*
%TO.N,3.3V*%
D14*
X12776200Y-5867400D02*
X12776200Y3439200D01*
D15*
X-228600Y-19685000D02*
X-228600Y-17399000D01*
D14*
X-222900Y-8839200D02*
X-248300Y-8864600D01*
X9779000Y-8864600D02*
X-248300Y-8864600D01*
X-248300Y-8864600D02*
X-827800Y-8864600D01*
X-228600Y-17399000D02*
X-228600Y-8884300D01*
D16*
X14132000Y-20116800D02*
X813900Y-20116800D01*
%TO.N,FB*%
D17*
X-10922000Y-4191000D02*
X-2667000Y-4191000D01*
%TO.N,3.3V*%
D14*
X20116800Y5511800D02*
X20116800Y11506200D01*
X18161000Y3556000D02*
X8077200Y3556000D01*
%TO.N,GND*%
D18*
X-2565400Y13682900D02*
X-2565400Y15468600D01*
X704600Y9347200D02*
X558800Y9347200D01*
X704600Y7112000D02*
X-228600Y7112000D01*
%TO.N,1.8V*%
D16*
X3759200Y5156200D02*
X3759200Y10287000D01*
%TO.N,RE*%
D18*
X5715000Y10541000D02*
X10490200Y10541000D01*
%TO.N,G3.3*%
D13*
X5951000Y26789600D02*
X5951000Y28422600D01*
%TO.N,VIN*%
D19*
X-9469100Y-18851900D02*
X-10083800Y-18237200D01*
X-13548800Y-16801900D02*
X-13860300Y-16801900D01*
%TO.N,3.8V*%
D13*
X-9118600Y19685000D02*
X-9277400Y19536300D01*
X-9277400Y19536300D02*
X-9436100Y19384600D01*
X-9436100Y19384600D02*
X-9594900Y19230200D01*
X-9594900Y19230200D02*
X-9753600Y19072900D01*
X-9753600Y19072900D02*
X-9912400Y18912700D01*
X-9912400Y18912700D02*
X-10071100Y18749600D01*
X-10071100Y18749600D02*
X-10229800Y18583800D01*
X-10229800Y18583800D02*
X-10388600Y18415000D01*
X-10388600Y15265400D02*
X-10604500Y14768000D01*
X-10604500Y14768000D02*
X-10820400Y14272100D01*
X-10820400Y14272100D02*
X-11036300Y13777700D01*
X-11036300Y13777700D02*
X-11252200Y13284900D01*
X-11252200Y13284900D02*
X-11468100Y12793500D01*
X-11468100Y12793500D02*
X-11684000Y12303600D01*
X-11684000Y12303600D02*
X-11899900Y11815300D01*
X-11899900Y11815300D02*
X-12115800Y11328400D01*
X-12115800Y11328400D02*
X-12328300Y10820300D01*
X-12328300Y10820300D02*
X-12540900Y10310700D01*
X-12540900Y10310700D02*
X-12753400Y9799800D01*
X-12753400Y9799800D02*
X-12966000Y9287400D01*
X-12966000Y9287400D02*
X-13178500Y8773500D01*
X-13178500Y8773500D02*
X-13391000Y8258300D01*
X-13391000Y8258300D02*
X-13603600Y7741600D01*
X-13603600Y7741600D02*
X-13816100Y7223500D01*
%TO.N,3.3V*%
D14*
X9779000Y-8864600D02*
X10153600Y-8479900D01*
X10153600Y-8479900D02*
X10528300Y-8098200D01*
X10528300Y-8098200D02*
X10902900Y-7719200D01*
X10902900Y-7719200D02*
X11277600Y-7343100D01*
X11277600Y-7343100D02*
X11652200Y-6969900D01*
X11652200Y-6969900D02*
X12026900Y-6599600D01*
X12026900Y-6599600D02*
X12401600Y-6232000D01*
X12401600Y-6232000D02*
X12776200Y-5867400D01*
X-228600Y-8884300D02*
X-231100Y-8871900D01*
X-231100Y-8871900D02*
X-233500Y-8862200D01*
X-233500Y-8862200D02*
X-236000Y-8855500D01*
X-236000Y-8855500D02*
X-238500Y-8851600D01*
X-238500Y-8851600D02*
X-240900Y-8850600D01*
X-240900Y-8850600D02*
X-243400Y-8852400D01*
X-243400Y-8852400D02*
X-245900Y-8857100D01*
X-245900Y-8857100D02*
X-248300Y-8864600D01*
D16*
X-228600Y-19685000D02*
X-98300Y-19734000D01*
X-98300Y-19734000D02*
X32000Y-19784400D01*
X32000Y-19784400D02*
X162300Y-19836200D01*
X162300Y-19836200D02*
X292600Y-19889500D01*
X292600Y-19889500D02*
X422900Y-19944200D01*
X422900Y-19944200D02*
X553200Y-20000300D01*
X553200Y-20000300D02*
X683500Y-20057800D01*
X683500Y-20057800D02*
X813900Y-20116800D01*
X14132000Y-20116800D02*
X14348600Y-20343400D01*
X14348600Y-20343400D02*
X14565200Y-20567100D01*
X14565200Y-20567100D02*
X14781700Y-20787900D01*
X14781700Y-20787900D02*
X14998300Y-21005900D01*
X14998300Y-21005900D02*
X15214900Y-21221100D01*
X15214900Y-21221100D02*
X15431400Y-21433400D01*
X15431400Y-21433400D02*
X15648000Y-21642800D01*
X15648000Y-21642800D02*
X15864600Y-21849400D01*
D14*
X20091400Y11480800D02*
X20094600Y11474000D01*
X20094600Y11474000D02*
X20097700Y11470000D01*
X20097700Y11470000D02*
X20100900Y11468900D01*
X20100900Y11468900D02*
X20104100Y11470600D01*
X20104100Y11470600D02*
X20107300Y11475200D01*
X20107300Y11475200D02*
X20110500Y11482700D01*
X20110500Y11482700D02*
X20113600Y11493000D01*
X20113600Y11493000D02*
X20116800Y11506200D01*
X18161000Y3556000D02*
X18405500Y3810500D01*
X18405500Y3810500D02*
X18650000Y4062100D01*
X18650000Y4062100D02*
X18894400Y4310900D01*
X18894400Y4310900D02*
X19138900Y4556800D01*
X19138900Y4556800D02*
X19383400Y4799800D01*
X19383400Y4799800D02*
X19627900Y5040000D01*
X19627900Y5040000D02*
X19872300Y5277300D01*
X19872300Y5277300D02*
X20116800Y5511800D01*
%TO.N,G3.3*%
D13*
X16687800Y16052800D02*
X15345700Y17384900D01*
X15345700Y17384900D02*
X14003600Y18719900D01*
X14003600Y18719900D02*
X12661500Y20057700D01*
X12661500Y20057700D02*
X11319400Y21398300D01*
X11319400Y21398300D02*
X9977300Y22741900D01*
X9977300Y22741900D02*
X8635200Y24088300D01*
X8635200Y24088300D02*
X7293100Y25437500D01*
X7293100Y25437500D02*
X5951000Y26789600D01*
%TO.N,GND*%
D18*
X704600Y10412900D02*
X295900Y10811700D01*
X295900Y10811700D02*
X-112900Y11213300D01*
X-112900Y11213300D02*
X-521600Y11617700D01*
X-521600Y11617700D02*
X-930400Y12025100D01*
X-930400Y12025100D02*
X-1339100Y12435200D01*
X-1339100Y12435200D02*
X-1747900Y12848300D01*
X-1747900Y12848300D02*
X-2156600Y13264200D01*
X-2156600Y13264200D02*
X-2565400Y13682900D01*
X558800Y9347200D02*
X-206400Y10102400D01*
X-206400Y10102400D02*
X-971500Y10860400D01*
X-971500Y10860400D02*
X-1736700Y11621300D01*
X-1736700Y11621300D02*
X-2501900Y12385000D01*
X-2501900Y12385000D02*
X-3267100Y13151600D01*
X-3267100Y13151600D02*
X-4032200Y13921100D01*
X-4032200Y13921100D02*
X-4797400Y14693400D01*
X-4797400Y14693400D02*
X-5562600Y15468600D01*
X-228600Y7112000D02*
X-1273200Y8146600D01*
X-1273200Y8146600D02*
X-2317700Y9184000D01*
X-2317700Y9184000D02*
X-3362300Y10224300D01*
X-3362300Y10224300D02*
X-4406900Y11267400D01*
X-4406900Y11267400D02*
X-5451500Y12313400D01*
X-5451500Y12313400D02*
X-6496000Y13362300D01*
X-6496000Y13362300D02*
X-7540600Y14414000D01*
X-7540600Y14414000D02*
X-8585200Y15468600D01*
%TO.N,1.8V*%
D16*
X1346200Y2743200D02*
X1647800Y3054800D01*
X1647800Y3054800D02*
X1949500Y3363600D01*
X1949500Y3363600D02*
X2251100Y3669500D01*
X2251100Y3669500D02*
X2552700Y3972600D01*
X2552700Y3972600D02*
X2854300Y4272800D01*
X2854300Y4272800D02*
X3156000Y4570100D01*
X3156000Y4570100D02*
X3457600Y4864600D01*
X3457600Y4864600D02*
X3759200Y5156200D01*
X3759200Y10287000D02*
X4232300Y10750100D01*
X4232300Y10750100D02*
X4705400Y11216000D01*
X4705400Y11216000D02*
X5178400Y11684800D01*
X5178400Y11684800D02*
X5651500Y12156400D01*
X5651500Y12156400D02*
X6124600Y12630900D01*
X6124600Y12630900D02*
X6597700Y13108300D01*
X6597700Y13108300D02*
X7070700Y13588500D01*
X7070700Y13588500D02*
X7543800Y14071600D01*
%TO.N,VIN*%
D19*
X-8255000Y-19354800D02*
X-8406800Y-19296900D01*
X-8406800Y-19296900D02*
X-8558500Y-19237600D01*
X-8558500Y-19237600D02*
X-8710300Y-19176900D01*
X-8710300Y-19176900D02*
X-8862000Y-19114800D01*
X-8862000Y-19114800D02*
X-9013800Y-19051200D01*
X-9013800Y-19051200D02*
X-9165600Y-18986200D01*
X-9165600Y-18986200D02*
X-9317300Y-18919800D01*
X-9317300Y-18919800D02*
X-9469100Y-18851900D01*
X-10083800Y-18237200D02*
X-10516900Y-18052800D01*
X-10516900Y-18052800D02*
X-10950100Y-17869800D01*
X-10950100Y-17869800D02*
X-11383200Y-17688300D01*
X-11383200Y-17688300D02*
X-11816300Y-17508100D01*
X-11816300Y-17508100D02*
X-12249400Y-17329500D01*
X-12249400Y-17329500D02*
X-12682600Y-17152200D01*
X-12682600Y-17152200D02*
X-13115700Y-16976400D01*
X-13115700Y-16976400D02*
X-13548800Y-16801900D01*
%TD*%
M02*
