%TF.GenerationSoftware,KiCad,Pcbnew,10.99.0-unknown*%
%TF.CreationDate,2026-08-12T15:22:04+08:00*%
%TF.ProjectId,4G________(__+___+APP),34476954-9a4d-4a73-9654-d2286cf62b0d,rev?*%
%TF.SameCoordinates,Original*%
%TF.FileFunction,Profile,NP*%
%FSLAX46Y46*%
G04 Gerber Fmt 4.6, Leading zero omitted, Abs format (unit mm)*
G04 Created by KiCad (PCBNEW 10.99.0-unknown) date 2026-08-12 15:22:04*
%MOMM*%
%LPD*%
G01*
G04 APERTURE LIST*
%TA.AperFunction,Profile*%
%ADD10C,0.100000*%
%TD*%
%TA.AperFunction,Profile*%
%ADD11C,0.254000*%
%TD*%
G04 APERTURE END LIST*
D10*
X-20005600Y27134700D02*
X-20096900Y27593900D01*
X-20096900Y27593900D02*
X-20357100Y27983200D01*
X-20357100Y27983200D02*
X-20746400Y28243300D01*
X-20746400Y28243300D02*
X-21205600Y28334700D01*
X-21205600Y28334700D02*
X-21664800Y28243300D01*
X-21664800Y28243300D02*
X-22054100Y27983200D01*
X-22054100Y27983200D02*
X-22314200Y27593900D01*
X-22314200Y27593900D02*
X-22405600Y27134700D01*
X-22405600Y27134700D02*
X-22314200Y26675400D01*
X-22314200Y26675400D02*
X-22054100Y26286100D01*
X-22054100Y26286100D02*
X-21664800Y26026000D01*
X-21664800Y26026000D02*
X-21205600Y25934700D01*
X-21205600Y25934700D02*
X-20746400Y26026000D01*
X-20746400Y26026000D02*
X-20357100Y26286100D01*
X-20357100Y26286100D02*
X-20096900Y26675400D01*
X-20096900Y26675400D02*
X-20005600Y27134700D01*
X22361600Y27134700D02*
X22270300Y27593900D01*
X22270300Y27593900D02*
X22010100Y27983200D01*
X22010100Y27983200D02*
X21620800Y28243300D01*
X21620800Y28243300D02*
X21161600Y28334700D01*
X21161600Y28334700D02*
X20702400Y28243300D01*
X20702400Y28243300D02*
X20313100Y27983200D01*
X20313100Y27983200D02*
X20053000Y27593900D01*
X20053000Y27593900D02*
X19961600Y27134700D01*
X19961600Y27134700D02*
X20053000Y26675400D01*
X20053000Y26675400D02*
X20313100Y26286100D01*
X20313100Y26286100D02*
X20702400Y26026000D01*
X20702400Y26026000D02*
X21161600Y25934700D01*
X21161600Y25934700D02*
X21620800Y26026000D01*
X21620800Y26026000D02*
X22010100Y26286100D01*
X22010100Y26286100D02*
X22270300Y26675400D01*
X22270300Y26675400D02*
X22361600Y27134700D01*
X22405600Y-26829900D02*
X22314200Y-26370600D01*
X22314200Y-26370600D02*
X22054100Y-25981300D01*
X22054100Y-25981300D02*
X21664800Y-25721200D01*
X21664800Y-25721200D02*
X21205600Y-25629900D01*
X21205600Y-25629900D02*
X20746400Y-25721200D01*
X20746400Y-25721200D02*
X20357100Y-25981300D01*
X20357100Y-25981300D02*
X20096900Y-26370600D01*
X20096900Y-26370600D02*
X20005600Y-26829900D01*
X20005600Y-26829900D02*
X20096900Y-27289100D01*
X20096900Y-27289100D02*
X20357100Y-27678400D01*
X20357100Y-27678400D02*
X20746400Y-27938500D01*
X20746400Y-27938500D02*
X21205600Y-28029900D01*
X21205600Y-28029900D02*
X21664800Y-27938500D01*
X21664800Y-27938500D02*
X22054100Y-27678400D01*
X22054100Y-27678400D02*
X22314200Y-27289100D01*
X22314200Y-27289100D02*
X22405600Y-26829900D01*
X-19961600Y-26829900D02*
X-20053000Y-26370600D01*
X-20053000Y-26370600D02*
X-20313100Y-25981300D01*
X-20313100Y-25981300D02*
X-20702400Y-25721200D01*
X-20702400Y-25721200D02*
X-21161600Y-25629900D01*
X-21161600Y-25629900D02*
X-21620800Y-25721200D01*
X-21620800Y-25721200D02*
X-22010100Y-25981300D01*
X-22010100Y-25981300D02*
X-22270300Y-26370600D01*
X-22270300Y-26370600D02*
X-22361600Y-26829900D01*
X-22361600Y-26829900D02*
X-22270300Y-27289100D01*
X-22270300Y-27289100D02*
X-22010100Y-27678400D01*
X-22010100Y-27678400D02*
X-21620800Y-27938500D01*
X-21620800Y-27938500D02*
X-21161600Y-28029900D01*
X-21161600Y-28029900D02*
X-20702400Y-27938500D01*
X-20702400Y-27938500D02*
X-20313100Y-27678400D01*
X-20313100Y-27678400D02*
X-20053000Y-27289100D01*
X-20053000Y-27289100D02*
X-19961600Y-26829900D01*
X-16433800Y31369000D02*
X-9627800Y31369000D01*
X-9627800Y31369000D02*
X-9627800Y27763800D01*
X-9627800Y27763800D02*
X-16433800Y27763800D01*
X-16433800Y27763800D02*
X-16433800Y31369000D01*
X-6044600Y31368200D02*
X761400Y31368200D01*
X761400Y31368200D02*
X761400Y27763000D01*
X761400Y27763000D02*
X-6044600Y27763000D01*
X-6044600Y27763000D02*
X-6044600Y31368200D01*
D11*
X-23794400Y29791200D02*
X23749000Y29791200D01*
X23749000Y29791200D02*
X23749000Y-30073600D01*
X23749000Y-30073600D02*
X-23794400Y-30073600D01*
X-23794400Y-30073600D02*
X-23794400Y29791200D01*
M02*
