%TF.GenerationSoftware,KiCad,Pcbnew,10.99.0-unknown*%
%TF.CreationDate,2026-08-12T15:22:04+08:00*%
%TF.ProjectId,4G________(__+___+APP),34476954-9a4d-4a73-9654-d2286cf62b0d,rev?*%
%TF.SameCoordinates,Original*%
%TF.FileFunction,Copper,L4,Bot*%
%TF.FilePolarity,Positive*%
%FSLAX46Y46*%
G04 Gerber Fmt 4.6, Leading zero omitted, Abs format (unit mm)*
G04 Created by KiCad (PCBNEW 10.99.0-unknown) date 2026-08-12 15:22:04*
%MOMM*%
%LPD*%
G01*
G04 APERTURE LIST*
G04 Aperture macros list*
%AMRoundRect*
0 Rectangle with rounded corners*
0 $1 Rounding radius*
0 $2 $3 $4 $5 $6 $7 $8 $9 X,Y pos of 4 corners*
0 Add a 4 corners polygon primitive as box body*
4,1,4,$2,$3,$4,$5,$6,$7,$8,$9,$2,$3,0*
0 Add four circle primitives for the rounded corners*
1,1,$1+$1,$2,$3*
1,1,$1+$1,$4,$5*
1,1,$1+$1,$6,$7*
1,1,$1+$1,$8,$9*
0 Add four rect primitives between the rounded corners*
20,1,$1+$1,$2,$3,$4,$5,0*
20,1,$1+$1,$4,$5,$6,$7,0*
20,1,$1+$1,$6,$7,$8,$9,0*
20,1,$1+$1,$8,$9,$2,$3,0*%
G04 Aperture macros list end*
%TA.AperFunction,SMDPad,CuDef*%
%ADD10C,0.750000*%
%TD*%
%TA.AperFunction,SMDPad,CuDef*%
%ADD11RoundRect,0.225000X-0.225000X-0.275000X0.225000X-0.275000X0.225000X0.275000X-0.225000X0.275000X0*%
%TD*%
%TA.AperFunction,SMDPad,CuDef*%
%ADD12RoundRect,0.225000X-0.225000X-0.275000X0.225000X-0.275000X0.225000X0.275000X-0.225000X0.275000X0*%
%TD*%
%TA.AperFunction,ViaPad*%
%ADD13C,1.000000*%
%TD*%
%TA.AperFunction,ViaPad*%
%ADD14C,0.500000*%
%TD*%
%TA.AperFunction,ViaPad*%
%ADD15C,0.610000*%
%TD*%
%TA.AperFunction,Conductor*%
%ADD16C,0.655600*%
%TD*%
%TA.AperFunction,Conductor*%
%ADD17C,0.300000*%
%TD*%
%TA.AperFunction,Conductor*%
%ADD18C,0.350800*%
%TD*%
%TA.AperFunction,Conductor*%
%ADD19C,0.249200*%
%TD*%
%TA.AperFunction,Conductor*%
%ADD20C,0.304800*%
%TD*%
%TA.AperFunction,Conductor*%
%ADD21C,0.248400*%
%TD*%
%TA.AperFunction,Conductor*%
%ADD22C,0.254000*%
%TD*%
%TA.AperFunction,Conductor*%
%ADD23C,0.355600*%
%TD*%
G04 APERTURE END LIST*
D10*
%TO.P,D46,1*%
%TO.N,$1N127302*%
X13385800Y-25441400D03*
%TO.P,D46,2*%
%TO.N,$1N127295*%
X14251800Y-26941400D03*
%TO.P,D46,3*%
%TO.N,GND*%
X12519800Y-26941400D03*
%TD*%
%TO.P,U40,5*%
%TO.N,3.3V*%
X-4833800Y-16662400D03*
%TO.P,U40,4*%
%TO.N,$1N133266*%
X-4073700Y-15616200D03*
%TO.P,U40,3*%
X-2843900Y-16015800D03*
%TO.P,U40,2*%
%TO.N,GND*%
X-2843900Y-17309000D03*
%TO.P,U40,1*%
%TO.N,$1N133305*%
X-4073700Y-17708600D03*
%TD*%
D11*
%TO.P,R332,2*%
%TO.N,$1N133305*%
X-8205700Y-17602200D03*
%TO.P,R332,1*%
%TO.N,VIN*%
X-6805700Y-17602200D03*
%TD*%
%TO.P,R333,2*%
%TO.N,$1N133305*%
X-8205700Y-16154121D03*
%TO.P,R333,1*%
%TO.N,GND*%
X-6805700Y-16154121D03*
%TD*%
%TO.P,C84,2*%
%TO.N,ADC0*%
X-2401800Y-13665200D03*
%TO.P,C84,1*%
%TO.N,GND*%
X-1001800Y-13665200D03*
%TD*%
D12*
%TO.P,C87,2*%
%TO.N,3.3V*%
X-1168400Y-18708600D03*
%TO.P,C87,1*%
%TO.N,GND*%
X-1168400Y-17308600D03*
%TD*%
%TO.P,R334,2*%
%TO.N,ADC0*%
X-1168400Y-15990800D03*
%TO.P,R334,1*%
%TO.N,$1N133266*%
X-1168400Y-14590800D03*
%TD*%
D13*
%TO.N,GND*%
X-18542000Y24663400D03*
X-18542000Y26333500D03*
X-18542000Y28003500D03*
D14*
%TO.N,3.8V*%
X-13816100Y3853900D03*
D15*
%TO.N,GND*%
X-16357600Y21640800D03*
D13*
X-15151100Y-28676600D03*
X-13723700Y-28676600D03*
X-8014300Y-28676600D03*
X-6586900Y-28676600D03*
X-5159500Y-28676600D03*
X-3732100Y-28676600D03*
X-2304800Y-28676600D03*
X-877400Y-28676600D03*
X550000Y-28676600D03*
X7686800Y-28676600D03*
X9114200Y-28676600D03*
X10541600Y-28676600D03*
X11968900Y-28676600D03*
X13396300Y-28676600D03*
X14823700Y-28676600D03*
X1977300Y-28676600D03*
X3404700Y-28676600D03*
X4832100Y-28676600D03*
X6259400Y-28676600D03*
X-10590300Y5403300D03*
X-10590300Y6749500D03*
X-7721600Y23431500D03*
X-7747000Y24828500D03*
X-7747000Y26225500D03*
X-7747000Y27622500D03*
D14*
%TO.N,SIM_DATA*%
X7469300Y-323100D03*
%TO.N,SIM_CLK*%
X7447400Y-1614900D03*
%TO.N,SIM_RST*%
X5588000Y-3581400D03*
%TO.N,SIM_DATA*%
X-594100Y-4085300D03*
%TO.N,SIM_CLK*%
X0Y-1625600D03*
%TO.N,SIM_RST*%
X-1092200Y-2362200D03*
%TO.N,SIM_DATA*%
X-2235200Y-2209800D03*
%TO.N,1.8V*%
X1346200Y2743200D03*
D13*
%TO.N,GND*%
X11133700Y-1224800D03*
X11133700Y-2537200D03*
X11133700Y-3849500D03*
X11133700Y-5161800D03*
X-7213600Y-11328400D03*
X-7213600Y-9971600D03*
X-7213600Y-8614800D03*
D14*
%TO.N,SIM_DATA*%
X-609600Y-5486400D03*
D13*
%TO.N,GND*%
X-18542000Y22993400D03*
X-18542000Y21323300D03*
X-18542000Y19653300D03*
X-18542000Y17983200D03*
D15*
X-14300200Y16027400D03*
X-14300200Y15012100D03*
X-11887200Y17779300D03*
X-11887200Y16764000D03*
X-11887200Y15748700D03*
X-22440900Y8276600D03*
X-22440900Y6184700D03*
X-22440900Y4092700D03*
X-22440900Y2000800D03*
X-22440900Y-91200D03*
X-22466300Y-2183100D03*
X-22466300Y-4275100D03*
X-22466300Y-14734900D03*
X-22466300Y-6367100D03*
X-22466300Y-16826800D03*
X-22466300Y-18918800D03*
X-22466300Y-21010800D03*
X22771100Y6300000D03*
X22771100Y4208100D03*
X22771100Y2116100D03*
X22771100Y24100D03*
X22771100Y-2067800D03*
X22745700Y-6251700D03*
X22745700Y-8343700D03*
X22745700Y-4159800D03*
X22771100Y10483900D03*
X22771100Y8392000D03*
X-304800Y2006200D03*
D13*
X-2743200Y5562600D03*
D15*
X5384800Y8153400D03*
X-16383000Y20726400D03*
X4318700Y3251200D03*
X5334000Y3251200D03*
%TO.N,1.8V*%
X6349300Y3251200D03*
%TO.N,GND*%
X5384800Y7213600D03*
D14*
X16179800Y-16143500D03*
%TO.N,3.8V*%
X-9118600Y19685000D03*
D15*
%TO.N,GND*%
X-11912600Y18872900D03*
X-11912600Y19888200D03*
X-11912600Y20903500D03*
D14*
%TO.N,$1N126416*%
X-18113400Y-11107100D03*
%TO.N,GND*%
X-17300600Y-11107100D03*
%TO.N,$1N126733*%
X-16487800Y-11107100D03*
%TO.N,GND*%
X-19862800Y-12141200D03*
X-19862800Y-11328400D03*
X-16433800Y-2032000D03*
X-16433800Y-1219200D03*
X-16433800Y-406400D03*
D13*
X-9918700Y-14122400D03*
X-11231000Y-14122400D03*
X-12543400Y-14122400D03*
X-13855700Y-14122400D03*
X-13881100Y-19431000D03*
X-12568800Y-19431000D03*
X-11256400Y-19431000D03*
D14*
%TO.N,VIN*%
X-13860300Y-16801900D03*
X-8255000Y-19354800D03*
%TO.N,GND*%
X-8356600Y17526000D03*
X-5334000Y17500600D03*
X-2413000Y17500600D03*
%TO.N,3.8V*%
X-6096000Y19685000D03*
X-3175000Y19685000D03*
X-279400Y19685000D03*
%TO.N,3.3V*%
X-228600Y-19685000D03*
%TO.N,GND*%
X704600Y10412900D03*
X704600Y9347200D03*
X704600Y7112000D03*
X-8585200Y15468600D03*
X-5562600Y15468600D03*
X-2565400Y15468600D03*
D15*
X8047600Y-19146500D03*
X7032400Y-19146500D03*
X6017100Y-19146500D03*
X5001900Y-19146500D03*
D14*
%TO.N,FB*%
X-2667000Y-4191000D03*
%TO.N,GND*%
X16179800Y-15319800D03*
X16179800Y-14496100D03*
X16179800Y-13672500D03*
%TO.N,DOW*%
X2438400Y-17399000D03*
%TO.N,3.3V*%
X-228600Y-17399000D03*
%TO.N,GND*%
X11760200Y-14635500D03*
X11760200Y-16250900D03*
X11760200Y-15443200D03*
%TO.N,1.8V*%
X7543800Y14071600D03*
%TO.N,RE*%
X5715000Y10541000D03*
X10490200Y10541000D03*
%TO.N,GND*%
X16179800Y-16967200D03*
%TO.N,ADC0*%
X6705600Y-10922000D03*
D13*
%TO.N,GND*%
X-10430900Y-21132800D03*
X-9118600Y-21132800D03*
X-7806300Y-21132800D03*
X-21479900Y-23495000D03*
X-20167600Y-23495000D03*
X-18855300Y-23495000D03*
D15*
X3912000Y-5435600D03*
X4927200Y-5435600D03*
X5942500Y-5435600D03*
X3403600Y-4368400D03*
X3403600Y-3353200D03*
D14*
X16179800Y-12025100D03*
X16179800Y-12848800D03*
%TO.N,$1N133305*%
X-3733800Y-17578400D03*
%TO.N,GND*%
X-3733800Y-16512300D03*
X7315200Y-13233400D03*
X7315200Y-15214600D03*
X13172400Y-9702800D03*
X13980200Y-9702800D03*
X14787900Y-9702800D03*
X15671800Y-9702800D03*
X16479500Y-9702800D03*
D15*
X4369500Y-21767800D03*
X5384800Y-21767800D03*
X6400100Y-21767800D03*
D13*
X-12273200Y-28676600D03*
X-10845800Y-28676600D03*
X-9418400Y-28676600D03*
X-20878800Y-14698100D03*
D14*
%TO.N,TX2*%
X9677400Y-16179800D03*
%TO.N,RX2*%
X9677400Y-15494000D03*
%TO.N,UEN*%
X2413000Y-16383000D03*
%TO.N,GND*%
X5486400Y-13233400D03*
X5486400Y-15214600D03*
%TO.N,FB*%
X-10922000Y-4191000D03*
%TO.N,GND*%
X-16103600Y-2743200D03*
X-15290800Y-2743200D03*
X-14478000Y-2743200D03*
D15*
X9347200Y15441900D03*
X9347200Y14396000D03*
X9347200Y13350000D03*
X9347200Y12304000D03*
X1931700Y14859000D03*
D14*
%TO.N,IO2*%
X17526000Y8001000D03*
%TO.N,GEN*%
X6172200Y-10388600D03*
D13*
%TO.N,GND*%
X18110200Y-28813500D03*
X18110200Y-27386200D03*
X18110200Y-25958800D03*
X18110200Y-24531400D03*
D14*
%TO.N,3.8V*%
X-17250100Y-6258100D03*
%TO.N,GND*%
X-17250100Y-5445300D03*
X-17250100Y-4632500D03*
X-21463000Y-3581400D03*
X-20650200Y-3581400D03*
X-19837400Y-3581400D03*
X-21158200Y508000D03*
X-21158200Y1320800D03*
X-21158200Y2133600D03*
D15*
%TO.N,UEN*%
X-12623800Y-6070600D03*
%TO.N,GND*%
X-991000Y-6350000D03*
X-2006200Y-6350000D03*
X1473600Y-5130800D03*
X2488800Y-5130800D03*
%TO.N,3P3*%
X3759200Y-18364200D03*
%TO.N,GND*%
X3378200Y-21767800D03*
D14*
%TO.N,3.3V*%
X-248300Y-8864600D03*
%TO.N,GND*%
X840700Y-10210800D03*
X1648500Y-10210800D03*
%TO.N,3.3V*%
X8077200Y3556000D03*
%TO.N,DOW*%
X17907000Y-19913600D03*
%TO.N,3.3V*%
X-827800Y-8864600D03*
%TO.N,$2N8837*%
X9296400Y-11531600D03*
D13*
%TO.N,GND*%
X20548600Y50800D03*
X20548600Y-2286000D03*
X20548600Y-4622800D03*
X20548600Y-6959600D03*
X-10147300Y20967700D03*
X-8750300Y20967700D03*
X-7353300Y20967700D03*
X-5956300Y20993100D03*
D14*
X-2159000Y-16560800D03*
%TO.N,G3.3*%
X5951000Y28422600D03*
D15*
%TO.N,GND*%
X14386800Y28435300D03*
X15429700Y28435300D03*
X16472700Y28409900D03*
X17515600Y28409900D03*
X14386800Y26784300D03*
X15429700Y26784300D03*
X16472700Y26758900D03*
X17515600Y26758900D03*
X2260600Y25885600D03*
X2260600Y26922500D03*
X2260600Y27959500D03*
X2260600Y28996400D03*
X2260600Y24848700D03*
X2260600Y23811700D03*
X1943100Y16063200D03*
X1968500Y19192000D03*
X1943100Y17106100D03*
X1968500Y18149100D03*
D14*
%TO.N,ZD*%
X18719800Y-21488400D03*
X1066800Y-15367000D03*
%TO.N,3.3V*%
X15864600Y-21849400D03*
D15*
%TO.N,GND*%
X7519100Y-17907000D03*
%TO.N,3P3*%
X8534400Y-17907000D03*
%TO.N,IO5*%
X9549700Y-17907000D03*
D14*
%TO.N,GND*%
X16179800Y-11201400D03*
X22555200Y-23769300D03*
X22555200Y-22961600D03*
X22555200Y-22153900D03*
X17068800Y-15343400D03*
X17068800Y-14519700D03*
X17068800Y-13696000D03*
X17068800Y-12872400D03*
X17068800Y-12048700D03*
X17068800Y-11225000D03*
D13*
X-7924800Y-13106400D03*
D14*
X-15595600Y-7670800D03*
X-18415000Y-7670800D03*
X-17475200Y-7670800D03*
X-16535400Y-7670800D03*
D15*
X-22783800Y-8703000D03*
X-22783800Y-10795000D03*
X-22783800Y-12887000D03*
X-12522200Y-7670800D03*
D13*
X-16659200Y13004800D03*
X-21107900Y13004800D03*
%TO.N,$1N141927*%
X-19437800Y13004800D03*
D15*
%TO.N,GND*%
X-17043400Y10448600D03*
X-17043400Y8356600D03*
%TO.N,3.3V*%
X-17373600Y5765800D03*
D14*
%TO.N,IO2*%
X-15443200Y14097000D03*
%TO.N,RX*%
X12750800Y-19202400D03*
%TO.N,G3.3*%
X14922200Y12962800D03*
%TO.N,GND*%
X15735000Y12962800D03*
%TO.N,GEN*%
X16547800Y12962800D03*
%TO.N,IO2*%
X5439400Y-10245400D03*
%TO.N,GEN*%
X14757400Y10591800D03*
%TO.N,3.3V*%
X20116800Y11506200D03*
D15*
%TO.N,G3.3*%
X16687800Y16052800D03*
D14*
%TO.N,3.3V*%
X20142200Y7137400D03*
D13*
%TO.N,GND*%
X21590000Y9791700D03*
X21590000Y11137900D03*
X9372600Y7048500D03*
X9372600Y8394700D03*
X-9096400Y-9929800D03*
D15*
X-4826000Y-9676700D03*
X-4826000Y-8661400D03*
X-4826000Y-7646100D03*
X13066000Y15316200D03*
X14112000Y15316200D03*
X17755000Y21558600D03*
X17755000Y20512600D03*
D14*
%TO.N,EN*%
X3429000Y-9601200D03*
X21336000Y-19913600D03*
%TO.N,$2N8837*%
X17475200Y-10363200D03*
%TO.N,3P3*%
X10510200Y-11861800D03*
%TO.N,GND*%
X11333800Y-11861800D03*
%TD*%
%TO.N,$1N127302*%
D16*
X11423200Y-23774400D02*
X11973200Y-24324400D01*
%TO.N,$1N127295*%
X15233200Y-23774400D02*
X14879900Y-24127600D01*
%TO.N,VIN*%
D17*
X-8255000Y-19354800D02*
X-8255000Y-17612000D01*
%TO.N,3.3V*%
D18*
X-1093700Y-17612400D02*
X-2433700Y-17612400D01*
%TO.N,$1N133266*%
D19*
X-2433700Y-15712400D02*
X-5033900Y-15712400D01*
%TO.N,$1N133305*%
X-5033900Y-17612400D02*
X-6742200Y-17612400D01*
X-6752300Y-16154100D02*
X-6752300Y-17602200D01*
%TO.N,RX*%
D20*
X12750800Y-19202400D02*
X15036800Y-19202400D01*
%TO.N,RX2*%
D21*
X8483600Y-11099800D02*
X8483600Y-14274800D01*
X17570800Y4988800D02*
X17570800Y-6789600D01*
X10566400Y-9017000D02*
X15343400Y-9017000D01*
%TO.N,TX2*%
X17170400Y2798400D02*
X17170400Y-4168200D01*
X16920400Y-4418200D02*
X16760000Y-4418200D01*
X16760000Y-4918200D02*
X16920400Y-4918200D01*
X16920400Y-5418200D02*
X16760000Y-5418200D01*
X16760000Y-5918200D02*
X16920400Y-5918200D01*
X15177500Y-8616600D02*
X10566400Y-8616600D01*
X8083200Y-11099800D02*
X8083200Y-14966600D01*
X9321800Y-16205200D02*
X9652000Y-16205200D01*
X17170400Y-6168200D02*
X17170400Y-6623700D01*
%TO.N,RX*%
D20*
X19075400Y-15163800D02*
X19075400Y12776200D01*
%TO.N,ADC0*%
D22*
X4682000Y-11760200D02*
X748300Y-11760200D01*
X-1156700Y-13665200D02*
X-1156700Y-14846300D01*
%TO.N,$1N133266*%
X-1168400Y-15723600D02*
X-2422500Y-15723600D01*
%TO.N,3.3V*%
D23*
X-228600Y-17399000D02*
X-1103900Y-17399000D01*
%TO.N,SIM_CLK*%
D19*
X7436800Y-1625600D02*
X7438100Y-1614300D01*
X7438100Y-1614300D02*
X7439400Y-1605800D01*
X7439400Y-1605800D02*
X7440800Y-1600200D01*
X7440800Y-1600200D02*
X7442100Y-1597400D01*
X7442100Y-1597400D02*
X7443400Y-1597500D01*
X7443400Y-1597500D02*
X7444800Y-1600500D01*
X7444800Y-1600500D02*
X7446100Y-1606300D01*
X7446100Y-1606300D02*
X7447400Y-1614900D01*
%TO.N,$1N127302*%
D16*
X11973200Y-24324400D02*
X12031000Y-24469000D01*
X12031000Y-24469000D02*
X12088800Y-24612200D01*
X12088800Y-24612200D02*
X12146700Y-24754000D01*
X12146700Y-24754000D02*
X12204500Y-24894300D01*
X12204500Y-24894300D02*
X12262300Y-25033200D01*
X12262300Y-25033200D02*
X12320200Y-25170700D01*
X12320200Y-25170700D02*
X12378000Y-25306800D01*
X12378000Y-25306800D02*
X12435800Y-25441400D01*
%TO.N,$1N127295*%
X14879900Y-24127600D02*
X14811900Y-24286800D01*
X14811900Y-24286800D02*
X14743900Y-24447500D01*
X14743900Y-24447500D02*
X14675900Y-24609600D01*
X14675900Y-24609600D02*
X14607900Y-24773100D01*
X14607900Y-24773100D02*
X14539800Y-24938000D01*
X14539800Y-24938000D02*
X14471800Y-25104400D01*
X14471800Y-25104400D02*
X14403800Y-25272200D01*
X14403800Y-25272200D02*
X14335800Y-25441400D01*
%TO.N,VIN*%
D17*
X-8255000Y-17612000D02*
X-8255500Y-17605800D01*
X-8255500Y-17605800D02*
X-8256000Y-17601000D01*
X-8256000Y-17601000D02*
X-8256500Y-17597600D01*
X-8256500Y-17597600D02*
X-8257000Y-17595700D01*
X-8257000Y-17595700D02*
X-8257500Y-17595200D01*
X-8257500Y-17595200D02*
X-8258000Y-17596100D01*
X-8258000Y-17596100D02*
X-8258600Y-17598400D01*
X-8258600Y-17598400D02*
X-8259100Y-17602200D01*
%TO.N,$1N133305*%
D19*
X-6742200Y-17612400D02*
X-6743400Y-17621100D01*
X-6743400Y-17621100D02*
X-6744700Y-17627000D01*
X-6744700Y-17627000D02*
X-6746000Y-17630000D01*
X-6746000Y-17630000D02*
X-6747300Y-17630100D01*
X-6747300Y-17630100D02*
X-6748500Y-17627400D01*
X-6748500Y-17627400D02*
X-6749800Y-17621900D01*
X-6749800Y-17621900D02*
X-6751100Y-17613500D01*
X-6751100Y-17613500D02*
X-6752300Y-17602200D01*
%TO.N,RX2*%
D21*
X8483600Y-14274800D02*
X8632800Y-14417300D01*
X8632800Y-14417300D02*
X8782100Y-14562600D01*
X8782100Y-14562600D02*
X8931300Y-14710800D01*
X8931300Y-14710800D02*
X9080500Y-14861800D01*
X9080500Y-14861800D02*
X9229700Y-15015600D01*
X9229700Y-15015600D02*
X9379000Y-15172200D01*
X9379000Y-15172200D02*
X9528200Y-15331700D01*
X9528200Y-15331700D02*
X9677400Y-15494000D01*
X17570800Y4988800D02*
X17238700Y5330900D01*
X17238700Y5330900D02*
X16906600Y5670100D01*
X16906600Y5670100D02*
X16574600Y6006400D01*
X16574600Y6006400D02*
X16242500Y6339900D01*
X16242500Y6339900D02*
X15910400Y6670600D01*
X15910400Y6670600D02*
X15578300Y6998400D01*
X15578300Y6998400D02*
X15246300Y7323300D01*
X15246300Y7323300D02*
X14914200Y7645400D01*
X10566400Y-9017000D02*
X10306000Y-9267300D01*
X10306000Y-9267300D02*
X10045700Y-9520600D01*
X10045700Y-9520600D02*
X9785400Y-9776600D01*
X9785400Y-9776600D02*
X9525000Y-10035500D01*
X9525000Y-10035500D02*
X9264700Y-10297300D01*
X9264700Y-10297300D02*
X9004300Y-10562000D01*
X9004300Y-10562000D02*
X8744000Y-10829400D01*
X8744000Y-10829400D02*
X8483600Y-11099800D01*
X17570800Y-6789600D02*
X17292400Y-7078000D01*
X17292400Y-7078000D02*
X17013900Y-7363600D01*
X17013900Y-7363600D02*
X16735500Y-7646300D01*
X16735500Y-7646300D02*
X16457100Y-7926200D01*
X16457100Y-7926200D02*
X16178700Y-8203200D01*
X16178700Y-8203200D02*
X15900200Y-8477300D01*
X15900200Y-8477300D02*
X15621800Y-8748600D01*
X15621800Y-8748600D02*
X15343400Y-9017000D01*
%TO.N,TX2*%
X14914200Y5054600D02*
X15196200Y4762600D01*
X15196200Y4762600D02*
X15478200Y4473400D01*
X15478200Y4473400D02*
X15760300Y4187100D01*
X15760300Y4187100D02*
X16042300Y3903600D01*
X16042300Y3903600D02*
X16324300Y3623000D01*
X16324300Y3623000D02*
X16606300Y3345300D01*
X16606300Y3345300D02*
X16888400Y3070400D01*
X16888400Y3070400D02*
X17170400Y2798400D01*
X17170400Y-4168200D02*
X17139200Y-4209400D01*
X17139200Y-4209400D02*
X17107900Y-4247800D01*
X17107900Y-4247800D02*
X17076700Y-4283400D01*
X17076700Y-4283400D02*
X17045400Y-4316000D01*
X17045400Y-4316000D02*
X17014200Y-4345900D01*
X17014200Y-4345900D02*
X16982900Y-4372800D01*
X16982900Y-4372800D02*
X16951700Y-4396900D01*
X16951700Y-4396900D02*
X16920400Y-4418200D01*
X16760000Y-4418200D02*
X16760000Y-4460700D01*
X16760000Y-4460700D02*
X16760000Y-4508900D01*
X16760000Y-4508900D02*
X16760000Y-4562800D01*
X16760000Y-4562800D02*
X16760000Y-4622500D01*
X16760000Y-4622500D02*
X16760000Y-4687800D01*
X16760000Y-4687800D02*
X16760000Y-4758900D01*
X16760000Y-4758900D02*
X16760000Y-4835700D01*
X16760000Y-4835700D02*
X16760000Y-4918200D01*
X16920400Y-4918200D02*
X16920400Y-5000700D01*
X16920400Y-5000700D02*
X16920400Y-5077500D01*
X16920400Y-5077500D02*
X16920400Y-5148500D01*
X16920400Y-5148500D02*
X16920400Y-5213900D01*
X16920400Y-5213900D02*
X16920400Y-5273500D01*
X16920400Y-5273500D02*
X16920400Y-5327500D01*
X16920400Y-5327500D02*
X16920400Y-5375700D01*
X16920400Y-5375700D02*
X16920400Y-5418200D01*
X16760000Y-5418200D02*
X16760000Y-5460700D01*
X16760000Y-5460700D02*
X16760000Y-5508900D01*
X16760000Y-5508900D02*
X16760000Y-5562800D01*
X16760000Y-5562800D02*
X16760000Y-5622500D01*
X16760000Y-5622500D02*
X16760000Y-5687800D01*
X16760000Y-5687800D02*
X16760000Y-5758900D01*
X16760000Y-5758900D02*
X16760000Y-5835700D01*
X16760000Y-5835700D02*
X16760000Y-5918200D01*
X16920400Y-5918200D02*
X16951700Y-5959400D01*
X16951700Y-5959400D02*
X16982900Y-5997800D01*
X16982900Y-5997800D02*
X17014200Y-6033400D01*
X17014200Y-6033400D02*
X17045400Y-6066000D01*
X17045400Y-6066000D02*
X17076700Y-6095900D01*
X17076700Y-6095900D02*
X17107900Y-6122800D01*
X17107900Y-6122800D02*
X17139200Y-6146900D01*
X17139200Y-6146900D02*
X17170400Y-6168200D01*
X17170400Y-6623700D02*
X16921300Y-6882800D01*
X16921300Y-6882800D02*
X16672200Y-7139100D01*
X16672200Y-7139100D02*
X16423100Y-7392500D01*
X16423100Y-7392500D02*
X16174000Y-7643000D01*
X16174000Y-7643000D02*
X15924900Y-7890700D01*
X15924900Y-7890700D02*
X15675800Y-8135500D01*
X15675800Y-8135500D02*
X15426600Y-8377500D01*
X15426600Y-8377500D02*
X15177500Y-8616600D01*
X10566400Y-8616600D02*
X10256000Y-8917000D01*
X10256000Y-8917000D02*
X9945600Y-9220300D01*
X9945600Y-9220300D02*
X9635200Y-9526400D01*
X9635200Y-9526400D02*
X9324800Y-9835300D01*
X9324800Y-9835300D02*
X9014400Y-10147200D01*
X9014400Y-10147200D02*
X8704000Y-10461900D01*
X8704000Y-10461900D02*
X8393600Y-10779400D01*
X8393600Y-10779400D02*
X8083200Y-11099800D01*
X8083200Y-14966600D02*
X8238000Y-15111400D01*
X8238000Y-15111400D02*
X8392800Y-15259100D01*
X8392800Y-15259100D02*
X8547700Y-15409600D01*
X8547700Y-15409600D02*
X8702500Y-15563000D01*
X8702500Y-15563000D02*
X8857300Y-15719300D01*
X8857300Y-15719300D02*
X9012100Y-15878400D01*
X9012100Y-15878400D02*
X9167000Y-16040400D01*
X9167000Y-16040400D02*
X9321800Y-16205200D01*
X9652000Y-16205200D02*
X9655200Y-16192000D01*
X9655200Y-16192000D02*
X9658400Y-16181700D01*
X9658400Y-16181700D02*
X9661500Y-16174200D01*
X9661500Y-16174200D02*
X9664700Y-16169600D01*
X9664700Y-16169600D02*
X9667900Y-16167900D01*
X9667900Y-16167900D02*
X9671100Y-16169000D01*
X9671100Y-16169000D02*
X9674200Y-16173000D01*
X9674200Y-16173000D02*
X9677400Y-16179800D01*
%TO.N,RX*%
D20*
X15036800Y-19202400D02*
X15541600Y-18687600D01*
X15541600Y-18687600D02*
X16046500Y-18175600D01*
X16046500Y-18175600D02*
X16551300Y-17666500D01*
X16551300Y-17666500D02*
X17056100Y-17160200D01*
X17056100Y-17160200D02*
X17560900Y-16656800D01*
X17560900Y-16656800D02*
X18065700Y-16156300D01*
X18065700Y-16156300D02*
X18570600Y-15658600D01*
X18570600Y-15658600D02*
X19075400Y-15163800D01*
X19075400Y12776200D02*
X19231000Y12921800D01*
X19231000Y12921800D02*
X19386600Y13070200D01*
X19386600Y13070200D02*
X19542100Y13221500D01*
X19542100Y13221500D02*
X19697700Y13375600D01*
X19697700Y13375600D02*
X19853300Y13532600D01*
X19853300Y13532600D02*
X20008900Y13692500D01*
X20008900Y13692500D02*
X20164400Y13855200D01*
X20164400Y13855200D02*
X20320000Y14020800D01*
%TO.N,$1N133266*%
X-5054600Y-15691700D02*
X-5052000Y-15684300D01*
X-5052000Y-15684300D02*
X-5049400Y-15679800D01*
X-5049400Y-15679800D02*
X-5046800Y-15678100D01*
X-5046800Y-15678100D02*
X-5044200Y-15679200D01*
X-5044200Y-15679200D02*
X-5041700Y-15683200D01*
X-5041700Y-15683200D02*
X-5039100Y-15690100D01*
X-5039100Y-15690100D02*
X-5036500Y-15699900D01*
X-5036500Y-15699900D02*
X-5033900Y-15712400D01*
%TO.N,ADC0*%
D22*
X6705600Y-10922000D02*
X6452700Y-11031800D01*
X6452700Y-11031800D02*
X6199700Y-11140100D01*
X6199700Y-11140100D02*
X5946800Y-11247000D01*
X5946800Y-11247000D02*
X5693800Y-11352500D01*
X5693800Y-11352500D02*
X5440900Y-11456600D01*
X5440900Y-11456600D02*
X5187900Y-11559200D01*
X5187900Y-11559200D02*
X4935000Y-11660400D01*
X4935000Y-11660400D02*
X4682000Y-11760200D01*
X748300Y-11760200D02*
X510200Y-11988300D01*
X510200Y-11988300D02*
X272000Y-12219300D01*
X272000Y-12219300D02*
X33900Y-12453100D01*
X33900Y-12453100D02*
X-204200Y-12689800D01*
X-204200Y-12689800D02*
X-442300Y-12929400D01*
X-442300Y-12929400D02*
X-680500Y-13171800D01*
X-680500Y-13171800D02*
X-918600Y-13417100D01*
X-918600Y-13417100D02*
X-1156700Y-13665200D01*
X-1156700Y-14846300D02*
X-1158200Y-14857800D01*
X-1158200Y-14857800D02*
X-1159600Y-14866400D01*
X-1159600Y-14866400D02*
X-1161100Y-14872100D01*
X-1161100Y-14872100D02*
X-1162600Y-14875000D01*
X-1162600Y-14875000D02*
X-1164000Y-14875000D01*
X-1164000Y-14875000D02*
X-1165500Y-14872200D01*
X-1165500Y-14872200D02*
X-1166900Y-14866500D01*
X-1166900Y-14866500D02*
X-1168400Y-14858000D01*
%TO.N,$1N133266*%
X-2422500Y-15723600D02*
X-2423900Y-15732200D01*
X-2423900Y-15732200D02*
X-2425300Y-15738000D01*
X-2425300Y-15738000D02*
X-2426700Y-15740900D01*
X-2426700Y-15740900D02*
X-2428100Y-15740900D01*
X-2428100Y-15740900D02*
X-2429500Y-15738100D01*
X-2429500Y-15738100D02*
X-2430900Y-15732400D01*
X-2430900Y-15732400D02*
X-2432300Y-15723800D01*
X-2432300Y-15723800D02*
X-2433700Y-15712400D01*
%TO.N,3.3V*%
D23*
X-1103900Y-17399000D02*
X-1111900Y-17397100D01*
X-1111900Y-17397100D02*
X-1120000Y-17398000D01*
X-1120000Y-17398000D02*
X-1128100Y-17401800D01*
X-1128100Y-17401800D02*
X-1136100Y-17408400D01*
X-1136100Y-17408400D02*
X-1144200Y-17417900D01*
X-1144200Y-17417900D02*
X-1152300Y-17430200D01*
X-1152300Y-17430200D02*
X-1160300Y-17445500D01*
X-1160300Y-17445500D02*
X-1168400Y-17463500D01*
%TD*%
M02*
