%TF.GenerationSoftware,KiCad,Pcbnew,10.99.0-unknown*%
%TF.CreationDate,2026-08-12T15:27:46+08:00*%
%TF.ProjectId,________,db6eeccb-6c11-40f6-962e-6b696361645f,rev?*%
%TF.SameCoordinates,Original*%
%TF.FileFunction,Legend,Top*%
%TF.FilePolarity,Positive*%
%FSLAX46Y46*%
G04 Gerber Fmt 4.6, Leading zero omitted, Abs format (unit mm)*
G04 Created by KiCad (PCBNEW 10.99.0-unknown) date 2026-08-12 15:27:46*
%MOMM*%
%LPD*%
G01*
G04 APERTURE LIST*
%ADD10C,0.152400*%
%ADD11C,0.120000*%
G04 APERTURE END LIST*
D10*
X33174225Y38140695D02*
X33234701Y38322124D01*
X33234701Y38322124D02*
X33234701Y38624505D01*
X33234701Y38624505D02*
X33174225Y38745457D01*
X33174225Y38745457D02*
X33113748Y38805933D01*
X33113748Y38805933D02*
X32992796Y38866410D01*
X32992796Y38866410D02*
X32871844Y38866410D01*
X32871844Y38866410D02*
X32750891Y38805933D01*
X32750891Y38805933D02*
X32690415Y38745457D01*
X32690415Y38745457D02*
X32629939Y38624505D01*
X32629939Y38624505D02*
X32569463Y38382600D01*
X32569463Y38382600D02*
X32508986Y38261648D01*
X32508986Y38261648D02*
X32448510Y38201171D01*
X32448510Y38201171D02*
X32327558Y38140695D01*
X32327558Y38140695D02*
X32206605Y38140695D01*
X32206605Y38140695D02*
X32085653Y38201171D01*
X32085653Y38201171D02*
X32025177Y38261648D01*
X32025177Y38261648D02*
X31964701Y38382600D01*
X31964701Y38382600D02*
X31964701Y38684981D01*
X31964701Y38684981D02*
X32025177Y38866410D01*
X33113748Y40136410D02*
X33174225Y40075934D01*
X33174225Y40075934D02*
X33234701Y39894505D01*
X33234701Y39894505D02*
X33234701Y39773553D01*
X33234701Y39773553D02*
X33174225Y39592124D01*
X33174225Y39592124D02*
X33053272Y39471172D01*
X33053272Y39471172D02*
X32932320Y39410695D01*
X32932320Y39410695D02*
X32690415Y39350219D01*
X32690415Y39350219D02*
X32508986Y39350219D01*
X32508986Y39350219D02*
X32267082Y39410695D01*
X32267082Y39410695D02*
X32146129Y39471172D01*
X32146129Y39471172D02*
X32025177Y39592124D01*
X32025177Y39592124D02*
X31964701Y39773553D01*
X31964701Y39773553D02*
X31964701Y39894505D01*
X31964701Y39894505D02*
X32025177Y40075934D01*
X32025177Y40075934D02*
X32085653Y40136410D01*
X33234701Y41285457D02*
X33234701Y40680695D01*
X33234701Y40680695D02*
X31964701Y40680695D01*
X33234701Y41708790D02*
X31964701Y41708790D01*
X33234701Y42434505D02*
X32508986Y41890219D01*
X31964701Y42434505D02*
X32690415Y41708790D01*
X35707525Y38727223D02*
X35768001Y38908652D01*
X35768001Y38908652D02*
X35768001Y39211033D01*
X35768001Y39211033D02*
X35707525Y39331985D01*
X35707525Y39331985D02*
X35647048Y39392461D01*
X35647048Y39392461D02*
X35526096Y39452938D01*
X35526096Y39452938D02*
X35405144Y39452938D01*
X35405144Y39452938D02*
X35284191Y39392461D01*
X35284191Y39392461D02*
X35223715Y39331985D01*
X35223715Y39331985D02*
X35163239Y39211033D01*
X35163239Y39211033D02*
X35102763Y38969128D01*
X35102763Y38969128D02*
X35042286Y38848176D01*
X35042286Y38848176D02*
X34981810Y38787699D01*
X34981810Y38787699D02*
X34860858Y38727223D01*
X34860858Y38727223D02*
X34739905Y38727223D01*
X34739905Y38727223D02*
X34618953Y38787699D01*
X34618953Y38787699D02*
X34558477Y38848176D01*
X34558477Y38848176D02*
X34498001Y38969128D01*
X34498001Y38969128D02*
X34498001Y39271509D01*
X34498001Y39271509D02*
X34558477Y39452938D01*
X35768001Y39997223D02*
X34498001Y39997223D01*
X34498001Y39997223D02*
X34498001Y40299604D01*
X34498001Y40299604D02*
X34558477Y40481033D01*
X34558477Y40481033D02*
X34679429Y40601985D01*
X34679429Y40601985D02*
X34800382Y40662462D01*
X34800382Y40662462D02*
X35042286Y40722938D01*
X35042286Y40722938D02*
X35223715Y40722938D01*
X35223715Y40722938D02*
X35465620Y40662462D01*
X35465620Y40662462D02*
X35586572Y40601985D01*
X35586572Y40601985D02*
X35707525Y40481033D01*
X35707525Y40481033D02*
X35768001Y40299604D01*
X35768001Y40299604D02*
X35768001Y39997223D01*
X35768001Y41267223D02*
X34498001Y41267223D01*
X34498001Y42113890D02*
X34498001Y42355795D01*
X34498001Y42355795D02*
X34558477Y42476747D01*
X34558477Y42476747D02*
X34679429Y42597700D01*
X34679429Y42597700D02*
X34921334Y42658176D01*
X34921334Y42658176D02*
X35344667Y42658176D01*
X35344667Y42658176D02*
X35586572Y42597700D01*
X35586572Y42597700D02*
X35707525Y42476747D01*
X35707525Y42476747D02*
X35768001Y42355795D01*
X35768001Y42355795D02*
X35768001Y42113890D01*
X35768001Y42113890D02*
X35707525Y41992938D01*
X35707525Y41992938D02*
X35586572Y41871985D01*
X35586572Y41871985D02*
X35344667Y41811509D01*
X35344667Y41811509D02*
X34921334Y41811509D01*
X34921334Y41811509D02*
X34679429Y41871985D01*
X34679429Y41871985D02*
X34558477Y41992938D01*
X34558477Y41992938D02*
X34498001Y42113890D01*
X38434301Y41679933D02*
X37829539Y41256599D01*
X38434301Y40954218D02*
X37164301Y40954218D01*
X37164301Y40954218D02*
X37164301Y41438028D01*
X37164301Y41438028D02*
X37224777Y41558980D01*
X37224777Y41558980D02*
X37285253Y41619457D01*
X37285253Y41619457D02*
X37406205Y41679933D01*
X37406205Y41679933D02*
X37587634Y41679933D01*
X37587634Y41679933D02*
X37708586Y41619457D01*
X37708586Y41619457D02*
X37769063Y41558980D01*
X37769063Y41558980D02*
X37829539Y41438028D01*
X37829539Y41438028D02*
X37829539Y40954218D01*
X37164301Y42103266D02*
X38434301Y42949933D01*
X37164301Y42949933D02*
X38434301Y42103266D01*
X39819901Y40902481D02*
X39819901Y41628195D01*
X41089901Y41265338D02*
X39819901Y41265338D01*
X39819901Y41930576D02*
X41089901Y42777243D01*
X39819901Y42777243D02*
X41089901Y41930576D01*
X42005101Y44776219D02*
X42005101Y45562410D01*
X42005101Y45562410D02*
X42488910Y45139076D01*
X42488910Y45139076D02*
X42488910Y45320505D01*
X42488910Y45320505D02*
X42549386Y45441457D01*
X42549386Y45441457D02*
X42609863Y45501933D01*
X42609863Y45501933D02*
X42730815Y45562410D01*
X42730815Y45562410D02*
X43033196Y45562410D01*
X43033196Y45562410D02*
X43154148Y45501933D01*
X43154148Y45501933D02*
X43214625Y45441457D01*
X43214625Y45441457D02*
X43275101Y45320505D01*
X43275101Y45320505D02*
X43275101Y44957648D01*
X43275101Y44957648D02*
X43214625Y44836695D01*
X43214625Y44836695D02*
X43154148Y44776219D01*
X42005101Y45925267D02*
X43275101Y46348600D01*
X43275101Y46348600D02*
X42005101Y46771934D01*
X42005101Y47074314D02*
X42005101Y47860505D01*
X42005101Y47860505D02*
X42488910Y47437171D01*
X42488910Y47437171D02*
X42488910Y47618600D01*
X42488910Y47618600D02*
X42549386Y47739552D01*
X42549386Y47739552D02*
X42609863Y47800028D01*
X42609863Y47800028D02*
X42730815Y47860505D01*
X42730815Y47860505D02*
X43033196Y47860505D01*
X43033196Y47860505D02*
X43154148Y47800028D01*
X43154148Y47800028D02*
X43214625Y47739552D01*
X43214625Y47739552D02*
X43275101Y47618600D01*
X43275101Y47618600D02*
X43275101Y47255743D01*
X43275101Y47255743D02*
X43214625Y47134790D01*
X43214625Y47134790D02*
X43154148Y47074314D01*
X29510777Y45356781D02*
X29450301Y45235828D01*
X29450301Y45235828D02*
X29450301Y45054400D01*
X29450301Y45054400D02*
X29510777Y44872971D01*
X29510777Y44872971D02*
X29631729Y44752019D01*
X29631729Y44752019D02*
X29752682Y44691542D01*
X29752682Y44691542D02*
X29994586Y44631066D01*
X29994586Y44631066D02*
X30176015Y44631066D01*
X30176015Y44631066D02*
X30417920Y44691542D01*
X30417920Y44691542D02*
X30538872Y44752019D01*
X30538872Y44752019D02*
X30659825Y44872971D01*
X30659825Y44872971D02*
X30720301Y45054400D01*
X30720301Y45054400D02*
X30720301Y45175352D01*
X30720301Y45175352D02*
X30659825Y45356781D01*
X30659825Y45356781D02*
X30599348Y45417257D01*
X30599348Y45417257D02*
X30176015Y45417257D01*
X30176015Y45417257D02*
X30176015Y45175352D01*
X30720301Y45961542D02*
X29450301Y45961542D01*
X29450301Y45961542D02*
X30720301Y46687257D01*
X30720301Y46687257D02*
X29450301Y46687257D01*
X30720301Y47292018D02*
X29450301Y47292018D01*
X29450301Y47292018D02*
X29450301Y47594399D01*
X29450301Y47594399D02*
X29510777Y47775828D01*
X29510777Y47775828D02*
X29631729Y47896780D01*
X29631729Y47896780D02*
X29752682Y47957257D01*
X29752682Y47957257D02*
X29994586Y48017733D01*
X29994586Y48017733D02*
X30176015Y48017733D01*
X30176015Y48017733D02*
X30417920Y47957257D01*
X30417920Y47957257D02*
X30538872Y47896780D01*
X30538872Y47896780D02*
X30659825Y47775828D01*
X30659825Y47775828D02*
X30720301Y47594399D01*
X30720301Y47594399D02*
X30720301Y47292018D01*
X38807219Y28606898D02*
X39593410Y28606898D01*
X39593410Y28606898D02*
X39170076Y28123089D01*
X39170076Y28123089D02*
X39351505Y28123089D01*
X39351505Y28123089D02*
X39472457Y28062613D01*
X39472457Y28062613D02*
X39532933Y28002136D01*
X39532933Y28002136D02*
X39593410Y27881184D01*
X39593410Y27881184D02*
X39593410Y27578803D01*
X39593410Y27578803D02*
X39532933Y27457851D01*
X39532933Y27457851D02*
X39472457Y27397375D01*
X39472457Y27397375D02*
X39351505Y27336898D01*
X39351505Y27336898D02*
X38988648Y27336898D01*
X38988648Y27336898D02*
X38867695Y27397375D01*
X38867695Y27397375D02*
X38807219Y27457851D01*
X39956267Y28606898D02*
X40379600Y27336898D01*
X40379600Y27336898D02*
X40802934Y28606898D01*
X41105314Y28606898D02*
X41891505Y28606898D01*
X41891505Y28606898D02*
X41468171Y28123089D01*
X41468171Y28123089D02*
X41649600Y28123089D01*
X41649600Y28123089D02*
X41770552Y28062613D01*
X41770552Y28062613D02*
X41831028Y28002136D01*
X41831028Y28002136D02*
X41891505Y27881184D01*
X41891505Y27881184D02*
X41891505Y27578803D01*
X41891505Y27578803D02*
X41831028Y27457851D01*
X41831028Y27457851D02*
X41770552Y27397375D01*
X41770552Y27397375D02*
X41649600Y27336898D01*
X41649600Y27336898D02*
X41286743Y27336898D01*
X41286743Y27336898D02*
X41165790Y27397375D01*
X41165790Y27397375D02*
X41105314Y27457851D01*
D11*
X13177728Y16554132D02*
X13292014Y16516036D01*
X13292014Y16516036D02*
X13482490Y16516036D01*
X13482490Y16516036D02*
X13558681Y16554132D01*
X13558681Y16554132D02*
X13596776Y16592227D01*
X13596776Y16592227D02*
X13634871Y16668417D01*
X13634871Y16668417D02*
X13634871Y16744608D01*
X13634871Y16744608D02*
X13596776Y16820798D01*
X13596776Y16820798D02*
X13558681Y16858893D01*
X13558681Y16858893D02*
X13482490Y16896989D01*
X13482490Y16896989D02*
X13330109Y16935084D01*
X13330109Y16935084D02*
X13253919Y16973179D01*
X13253919Y16973179D02*
X13215824Y17011274D01*
X13215824Y17011274D02*
X13177728Y17087465D01*
X13177728Y17087465D02*
X13177728Y17163655D01*
X13177728Y17163655D02*
X13215824Y17239846D01*
X13215824Y17239846D02*
X13253919Y17277941D01*
X13253919Y17277941D02*
X13330109Y17316036D01*
X13330109Y17316036D02*
X13520586Y17316036D01*
X13520586Y17316036D02*
X13634871Y17277941D01*
X13901538Y17316036D02*
X14092014Y16516036D01*
X14092014Y16516036D02*
X14244395Y17087465D01*
X14244395Y17087465D02*
X14396776Y16516036D01*
X14396776Y16516036D02*
X14587253Y17316036D01*
X15311062Y16516036D02*
X14853919Y16516036D01*
X15082491Y16516036D02*
X15082491Y17316036D01*
X15082491Y17316036D02*
X15006300Y17201751D01*
X15006300Y17201751D02*
X14930110Y17125560D01*
X14930110Y17125560D02*
X14853919Y17087465D01*
X47964146Y17996148D02*
X48002242Y17958052D01*
X48002242Y17958052D02*
X48040337Y17843767D01*
X48040337Y17843767D02*
X48040337Y17767576D01*
X48040337Y17767576D02*
X48002242Y17653290D01*
X48002242Y17653290D02*
X47926051Y17577100D01*
X47926051Y17577100D02*
X47849861Y17539005D01*
X47849861Y17539005D02*
X47697480Y17500909D01*
X47697480Y17500909D02*
X47583194Y17500909D01*
X47583194Y17500909D02*
X47430813Y17539005D01*
X47430813Y17539005D02*
X47354622Y17577100D01*
X47354622Y17577100D02*
X47278432Y17653290D01*
X47278432Y17653290D02*
X47240337Y17767576D01*
X47240337Y17767576D02*
X47240337Y17843767D01*
X47240337Y17843767D02*
X47278432Y17958052D01*
X47278432Y17958052D02*
X47316527Y17996148D01*
X48040337Y18758052D02*
X48040337Y18300909D01*
X48040337Y18529481D02*
X47240337Y18529481D01*
X47240337Y18529481D02*
X47354622Y18453290D01*
X47354622Y18453290D02*
X47430813Y18377100D01*
X47430813Y18377100D02*
X47468908Y18300909D01*
X50299884Y18016816D02*
X50337980Y17978720D01*
X50337980Y17978720D02*
X50376075Y17864435D01*
X50376075Y17864435D02*
X50376075Y17788244D01*
X50376075Y17788244D02*
X50337980Y17673958D01*
X50337980Y17673958D02*
X50261789Y17597768D01*
X50261789Y17597768D02*
X50185599Y17559673D01*
X50185599Y17559673D02*
X50033218Y17521577D01*
X50033218Y17521577D02*
X49918932Y17521577D01*
X49918932Y17521577D02*
X49766551Y17559673D01*
X49766551Y17559673D02*
X49690360Y17597768D01*
X49690360Y17597768D02*
X49614170Y17673958D01*
X49614170Y17673958D02*
X49576075Y17788244D01*
X49576075Y17788244D02*
X49576075Y17864435D01*
X49576075Y17864435D02*
X49614170Y17978720D01*
X49614170Y17978720D02*
X49652265Y18016816D01*
X49652265Y18321577D02*
X49614170Y18359673D01*
X49614170Y18359673D02*
X49576075Y18435863D01*
X49576075Y18435863D02*
X49576075Y18626339D01*
X49576075Y18626339D02*
X49614170Y18702530D01*
X49614170Y18702530D02*
X49652265Y18740625D01*
X49652265Y18740625D02*
X49728456Y18778720D01*
X49728456Y18778720D02*
X49804646Y18778720D01*
X49804646Y18778720D02*
X49918932Y18740625D01*
X49918932Y18740625D02*
X50376075Y18283482D01*
X50376075Y18283482D02*
X50376075Y18778720D01*
X74704787Y9656264D02*
X73904787Y9656264D01*
X74704787Y10113407D02*
X74247644Y9770549D01*
X73904787Y10113407D02*
X74361930Y9656264D01*
X74285739Y10456264D02*
X74285739Y10722930D01*
X74704787Y10837216D02*
X74704787Y10456264D01*
X74704787Y10456264D02*
X73904787Y10456264D01*
X73904787Y10456264D02*
X73904787Y10837216D01*
X74323834Y11332455D02*
X74704787Y11332455D01*
X73904787Y11065788D02*
X74323834Y11332455D01*
X74323834Y11332455D02*
X73904787Y11599121D01*
X74704787Y12284835D02*
X74704787Y11827692D01*
X74704787Y12056264D02*
X73904787Y12056264D01*
X73904787Y12056264D02*
X74019072Y11980073D01*
X74019072Y11980073D02*
X74095263Y11903883D01*
X74095263Y11903883D02*
X74133358Y11827692D01*
X85948728Y37382131D02*
X86063014Y37344035D01*
X86063014Y37344035D02*
X86253490Y37344035D01*
X86253490Y37344035D02*
X86329681Y37382131D01*
X86329681Y37382131D02*
X86367776Y37420226D01*
X86367776Y37420226D02*
X86405871Y37496416D01*
X86405871Y37496416D02*
X86405871Y37572607D01*
X86405871Y37572607D02*
X86367776Y37648797D01*
X86367776Y37648797D02*
X86329681Y37686892D01*
X86329681Y37686892D02*
X86253490Y37724988D01*
X86253490Y37724988D02*
X86101109Y37763083D01*
X86101109Y37763083D02*
X86024919Y37801178D01*
X86024919Y37801178D02*
X85986824Y37839273D01*
X85986824Y37839273D02*
X85948728Y37915464D01*
X85948728Y37915464D02*
X85948728Y37991654D01*
X85948728Y37991654D02*
X85986824Y38067845D01*
X85986824Y38067845D02*
X86024919Y38105940D01*
X86024919Y38105940D02*
X86101109Y38144035D01*
X86101109Y38144035D02*
X86291586Y38144035D01*
X86291586Y38144035D02*
X86405871Y38105940D01*
X86672538Y38144035D02*
X86863014Y37344035D01*
X86863014Y37344035D02*
X87015395Y37915464D01*
X87015395Y37915464D02*
X87167776Y37344035D01*
X87167776Y37344035D02*
X87358253Y38144035D01*
X87624919Y38067845D02*
X87663015Y38105940D01*
X87663015Y38105940D02*
X87739205Y38144035D01*
X87739205Y38144035D02*
X87929681Y38144035D01*
X87929681Y38144035D02*
X88005872Y38105940D01*
X88005872Y38105940D02*
X88043967Y38067845D01*
X88043967Y38067845D02*
X88082062Y37991654D01*
X88082062Y37991654D02*
X88082062Y37915464D01*
X88082062Y37915464D02*
X88043967Y37801178D01*
X88043967Y37801178D02*
X87586824Y37344035D01*
X87586824Y37344035D02*
X88082062Y37344035D01*
X50317476Y28725144D02*
X50317476Y28077525D01*
X50317476Y28077525D02*
X50355571Y28001335D01*
X50355571Y28001335D02*
X50393666Y27963240D01*
X50393666Y27963240D02*
X50469857Y27925144D01*
X50469857Y27925144D02*
X50622238Y27925144D01*
X50622238Y27925144D02*
X50698428Y27963240D01*
X50698428Y27963240D02*
X50736523Y28001335D01*
X50736523Y28001335D02*
X50774619Y28077525D01*
X50774619Y28077525D02*
X50774619Y28725144D01*
X51574618Y27925144D02*
X51117475Y27925144D01*
X51346047Y27925144D02*
X51346047Y28725144D01*
X51346047Y28725144D02*
X51269856Y28610859D01*
X51269856Y28610859D02*
X51193666Y28534668D01*
X51193666Y28534668D02*
X51117475Y28496573D01*
X63348870Y42776551D02*
X63348870Y42128932D01*
X63348870Y42128932D02*
X63386965Y42052742D01*
X63386965Y42052742D02*
X63425060Y42014647D01*
X63425060Y42014647D02*
X63501251Y41976551D01*
X63501251Y41976551D02*
X63653632Y41976551D01*
X63653632Y41976551D02*
X63729822Y42014647D01*
X63729822Y42014647D02*
X63767917Y42052742D01*
X63767917Y42052742D02*
X63806013Y42128932D01*
X63806013Y42128932D02*
X63806013Y42776551D01*
X64148869Y42700361D02*
X64186965Y42738456D01*
X64186965Y42738456D02*
X64263155Y42776551D01*
X64263155Y42776551D02*
X64453631Y42776551D01*
X64453631Y42776551D02*
X64529822Y42738456D01*
X64529822Y42738456D02*
X64567917Y42700361D01*
X64567917Y42700361D02*
X64606012Y42624170D01*
X64606012Y42624170D02*
X64606012Y42547980D01*
X64606012Y42547980D02*
X64567917Y42433694D01*
X64567917Y42433694D02*
X64110774Y41976551D01*
X64110774Y41976551D02*
X64606012Y41976551D01*
X49390475Y39393144D02*
X49390475Y38745525D01*
X49390475Y38745525D02*
X49428570Y38669335D01*
X49428570Y38669335D02*
X49466665Y38631240D01*
X49466665Y38631240D02*
X49542856Y38593144D01*
X49542856Y38593144D02*
X49695237Y38593144D01*
X49695237Y38593144D02*
X49771427Y38631240D01*
X49771427Y38631240D02*
X49809522Y38669335D01*
X49809522Y38669335D02*
X49847618Y38745525D01*
X49847618Y38745525D02*
X49847618Y39393144D01*
X50152379Y39393144D02*
X50647617Y39393144D01*
X50647617Y39393144D02*
X50380951Y39088382D01*
X50380951Y39088382D02*
X50495236Y39088382D01*
X50495236Y39088382D02*
X50571427Y39050287D01*
X50571427Y39050287D02*
X50609522Y39012192D01*
X50609522Y39012192D02*
X50647617Y38936001D01*
X50647617Y38936001D02*
X50647617Y38745525D01*
X50647617Y38745525D02*
X50609522Y38669335D01*
X50609522Y38669335D02*
X50571427Y38631240D01*
X50571427Y38631240D02*
X50495236Y38593144D01*
X50495236Y38593144D02*
X50266665Y38593144D01*
X50266665Y38593144D02*
X50190474Y38631240D01*
X50190474Y38631240D02*
X50152379Y38669335D01*
X75618214Y35305D02*
X75580118Y-2790D01*
X75580118Y-2790D02*
X75465833Y-40885D01*
X75465833Y-40885D02*
X75389642Y-40885D01*
X75389642Y-40885D02*
X75275356Y-2790D01*
X75275356Y-2790D02*
X75199166Y73400D01*
X75199166Y73400D02*
X75161071Y149590D01*
X75161071Y149590D02*
X75122975Y301971D01*
X75122975Y301971D02*
X75122975Y416257D01*
X75122975Y416257D02*
X75161071Y568638D01*
X75161071Y568638D02*
X75199166Y644829D01*
X75199166Y644829D02*
X75275356Y721019D01*
X75275356Y721019D02*
X75389642Y759114D01*
X75389642Y759114D02*
X75465833Y759114D01*
X75465833Y759114D02*
X75580118Y721019D01*
X75580118Y721019D02*
X75618214Y682924D01*
X76380118Y-40885D02*
X75922975Y-40885D01*
X76151547Y-40885D02*
X76151547Y759114D01*
X76151547Y759114D02*
X76075356Y644829D01*
X76075356Y644829D02*
X75999166Y568638D01*
X75999166Y568638D02*
X75922975Y530543D01*
X77103928Y759114D02*
X76722976Y759114D01*
X76722976Y759114D02*
X76684880Y378162D01*
X76684880Y378162D02*
X76722976Y416257D01*
X76722976Y416257D02*
X76799166Y454352D01*
X76799166Y454352D02*
X76989642Y454352D01*
X76989642Y454352D02*
X77065833Y416257D01*
X77065833Y416257D02*
X77103928Y378162D01*
X77103928Y378162D02*
X77142023Y301971D01*
X77142023Y301971D02*
X77142023Y111495D01*
X77142023Y111495D02*
X77103928Y35305D01*
X77103928Y35305D02*
X77065833Y-2790D01*
X77065833Y-2790D02*
X76989642Y-40885D01*
X76989642Y-40885D02*
X76799166Y-40885D01*
X76799166Y-40885D02*
X76722976Y-2790D01*
X76722976Y-2790D02*
X76684880Y35305D01*
X6978714Y28319335D02*
X6940618Y28281240D01*
X6940618Y28281240D02*
X6826333Y28243144D01*
X6826333Y28243144D02*
X6750142Y28243144D01*
X6750142Y28243144D02*
X6635856Y28281240D01*
X6635856Y28281240D02*
X6559666Y28357430D01*
X6559666Y28357430D02*
X6521571Y28433620D01*
X6521571Y28433620D02*
X6483475Y28586001D01*
X6483475Y28586001D02*
X6483475Y28700287D01*
X6483475Y28700287D02*
X6521571Y28852668D01*
X6521571Y28852668D02*
X6559666Y28928859D01*
X6559666Y28928859D02*
X6635856Y29005049D01*
X6635856Y29005049D02*
X6750142Y29043144D01*
X6750142Y29043144D02*
X6826333Y29043144D01*
X6826333Y29043144D02*
X6940618Y29005049D01*
X6940618Y29005049D02*
X6978714Y28966954D01*
X7740618Y28243144D02*
X7283475Y28243144D01*
X7512047Y28243144D02*
X7512047Y29043144D01*
X7512047Y29043144D02*
X7435856Y28928859D01*
X7435856Y28928859D02*
X7359666Y28852668D01*
X7359666Y28852668D02*
X7283475Y28814573D01*
X8197761Y28700287D02*
X8121571Y28738382D01*
X8121571Y28738382D02*
X8083476Y28776478D01*
X8083476Y28776478D02*
X8045380Y28852668D01*
X8045380Y28852668D02*
X8045380Y28890763D01*
X8045380Y28890763D02*
X8083476Y28966954D01*
X8083476Y28966954D02*
X8121571Y29005049D01*
X8121571Y29005049D02*
X8197761Y29043144D01*
X8197761Y29043144D02*
X8350142Y29043144D01*
X8350142Y29043144D02*
X8426333Y29005049D01*
X8426333Y29005049D02*
X8464428Y28966954D01*
X8464428Y28966954D02*
X8502523Y28890763D01*
X8502523Y28890763D02*
X8502523Y28852668D01*
X8502523Y28852668D02*
X8464428Y28776478D01*
X8464428Y28776478D02*
X8426333Y28738382D01*
X8426333Y28738382D02*
X8350142Y28700287D01*
X8350142Y28700287D02*
X8197761Y28700287D01*
X8197761Y28700287D02*
X8121571Y28662192D01*
X8121571Y28662192D02*
X8083476Y28624097D01*
X8083476Y28624097D02*
X8045380Y28547906D01*
X8045380Y28547906D02*
X8045380Y28395525D01*
X8045380Y28395525D02*
X8083476Y28319335D01*
X8083476Y28319335D02*
X8121571Y28281240D01*
X8121571Y28281240D02*
X8197761Y28243144D01*
X8197761Y28243144D02*
X8350142Y28243144D01*
X8350142Y28243144D02*
X8426333Y28281240D01*
X8426333Y28281240D02*
X8464428Y28319335D01*
X8464428Y28319335D02*
X8502523Y28395525D01*
X8502523Y28395525D02*
X8502523Y28547906D01*
X8502523Y28547906D02*
X8464428Y28624097D01*
X8464428Y28624097D02*
X8426333Y28662192D01*
X8426333Y28662192D02*
X8350142Y28700287D01*
X21875497Y28520719D02*
X21837401Y28482624D01*
X21837401Y28482624D02*
X21723116Y28444528D01*
X21723116Y28444528D02*
X21646925Y28444528D01*
X21646925Y28444528D02*
X21532639Y28482624D01*
X21532639Y28482624D02*
X21456449Y28558814D01*
X21456449Y28558814D02*
X21418354Y28635004D01*
X21418354Y28635004D02*
X21380258Y28787385D01*
X21380258Y28787385D02*
X21380258Y28901671D01*
X21380258Y28901671D02*
X21418354Y29054052D01*
X21418354Y29054052D02*
X21456449Y29130243D01*
X21456449Y29130243D02*
X21532639Y29206433D01*
X21532639Y29206433D02*
X21646925Y29244528D01*
X21646925Y29244528D02*
X21723116Y29244528D01*
X21723116Y29244528D02*
X21837401Y29206433D01*
X21837401Y29206433D02*
X21875497Y29168338D01*
X22637401Y28444528D02*
X22180258Y28444528D01*
X22408830Y28444528D02*
X22408830Y29244528D01*
X22408830Y29244528D02*
X22332639Y29130243D01*
X22332639Y29130243D02*
X22256449Y29054052D01*
X22256449Y29054052D02*
X22180258Y29015957D01*
X22904068Y29244528D02*
X23437402Y29244528D01*
X23437402Y29244528D02*
X23094544Y28444528D01*
X90671714Y-128664D02*
X90633618Y-166760D01*
X90633618Y-166760D02*
X90519333Y-204855D01*
X90519333Y-204855D02*
X90443142Y-204855D01*
X90443142Y-204855D02*
X90328856Y-166760D01*
X90328856Y-166760D02*
X90252666Y-90569D01*
X90252666Y-90569D02*
X90214571Y-14379D01*
X90214571Y-14379D02*
X90176475Y138001D01*
X90176475Y138001D02*
X90176475Y252287D01*
X90176475Y252287D02*
X90214571Y404668D01*
X90214571Y404668D02*
X90252666Y480859D01*
X90252666Y480859D02*
X90328856Y557049D01*
X90328856Y557049D02*
X90443142Y595144D01*
X90443142Y595144D02*
X90519333Y595144D01*
X90519333Y595144D02*
X90633618Y557049D01*
X90633618Y557049D02*
X90671714Y518954D01*
X91433618Y-204855D02*
X90976475Y-204855D01*
X91205047Y-204855D02*
X91205047Y595144D01*
X91205047Y595144D02*
X91128856Y480859D01*
X91128856Y480859D02*
X91052666Y404668D01*
X91052666Y404668D02*
X90976475Y366573D01*
X92119333Y595144D02*
X91966952Y595144D01*
X91966952Y595144D02*
X91890761Y557049D01*
X91890761Y557049D02*
X91852666Y518954D01*
X91852666Y518954D02*
X91776476Y404668D01*
X91776476Y404668D02*
X91738380Y252287D01*
X91738380Y252287D02*
X91738380Y-52474D01*
X91738380Y-52474D02*
X91776476Y-128664D01*
X91776476Y-128664D02*
X91814571Y-166760D01*
X91814571Y-166760D02*
X91890761Y-204855D01*
X91890761Y-204855D02*
X92043142Y-204855D01*
X92043142Y-204855D02*
X92119333Y-166760D01*
X92119333Y-166760D02*
X92157428Y-128664D01*
X92157428Y-128664D02*
X92195523Y-52474D01*
X92195523Y-52474D02*
X92195523Y138001D01*
X92195523Y138001D02*
X92157428Y214192D01*
X92157428Y214192D02*
X92119333Y252287D01*
X92119333Y252287D02*
X92043142Y290382D01*
X92043142Y290382D02*
X91890761Y290382D01*
X91890761Y290382D02*
X91814571Y252287D01*
X91814571Y252287D02*
X91776476Y214192D01*
X91776476Y214192D02*
X91738380Y138001D01*
X3580084Y5490338D02*
X3618180Y5452242D01*
X3618180Y5452242D02*
X3656275Y5337957D01*
X3656275Y5337957D02*
X3656275Y5261766D01*
X3656275Y5261766D02*
X3618180Y5147480D01*
X3618180Y5147480D02*
X3541989Y5071290D01*
X3541989Y5071290D02*
X3465799Y5033195D01*
X3465799Y5033195D02*
X3313418Y4995099D01*
X3313418Y4995099D02*
X3199132Y4995099D01*
X3199132Y4995099D02*
X3046751Y5033195D01*
X3046751Y5033195D02*
X2970560Y5071290D01*
X2970560Y5071290D02*
X2894370Y5147480D01*
X2894370Y5147480D02*
X2856275Y5261766D01*
X2856275Y5261766D02*
X2856275Y5337957D01*
X2856275Y5337957D02*
X2894370Y5452242D01*
X2894370Y5452242D02*
X2932465Y5490338D01*
X3656275Y6252242D02*
X3656275Y5795099D01*
X3656275Y6023671D02*
X2856275Y6023671D01*
X2856275Y6023671D02*
X2970560Y5947480D01*
X2970560Y5947480D02*
X3046751Y5871290D01*
X3046751Y5871290D02*
X3084846Y5795099D01*
X2856275Y6518909D02*
X2856275Y7014147D01*
X2856275Y7014147D02*
X3161037Y6747481D01*
X3161037Y6747481D02*
X3161037Y6861766D01*
X3161037Y6861766D02*
X3199132Y6937957D01*
X3199132Y6937957D02*
X3237227Y6976052D01*
X3237227Y6976052D02*
X3313418Y7014147D01*
X3313418Y7014147D02*
X3503894Y7014147D01*
X3503894Y7014147D02*
X3580084Y6976052D01*
X3580084Y6976052D02*
X3618180Y6937957D01*
X3618180Y6937957D02*
X3656275Y6861766D01*
X3656275Y6861766D02*
X3656275Y6633195D01*
X3656275Y6633195D02*
X3618180Y6557004D01*
X3618180Y6557004D02*
X3580084Y6518909D01*
X13352111Y25434365D02*
X13314015Y25396270D01*
X13314015Y25396270D02*
X13199730Y25358174D01*
X13199730Y25358174D02*
X13123539Y25358174D01*
X13123539Y25358174D02*
X13009253Y25396270D01*
X13009253Y25396270D02*
X12933063Y25472460D01*
X12933063Y25472460D02*
X12894968Y25548650D01*
X12894968Y25548650D02*
X12856872Y25701031D01*
X12856872Y25701031D02*
X12856872Y25815317D01*
X12856872Y25815317D02*
X12894968Y25967698D01*
X12894968Y25967698D02*
X12933063Y26043889D01*
X12933063Y26043889D02*
X13009253Y26120079D01*
X13009253Y26120079D02*
X13123539Y26158174D01*
X13123539Y26158174D02*
X13199730Y26158174D01*
X13199730Y26158174D02*
X13314015Y26120079D01*
X13314015Y26120079D02*
X13352111Y26081984D01*
X13618777Y26158174D02*
X14152111Y26158174D01*
X14152111Y26158174D02*
X13809253Y25358174D01*
X23560664Y14344667D02*
X23598760Y14306571D01*
X23598760Y14306571D02*
X23636855Y14192286D01*
X23636855Y14192286D02*
X23636855Y14116095D01*
X23636855Y14116095D02*
X23598760Y14001809D01*
X23598760Y14001809D02*
X23522569Y13925619D01*
X23522569Y13925619D02*
X23446379Y13887524D01*
X23446379Y13887524D02*
X23293998Y13849428D01*
X23293998Y13849428D02*
X23179712Y13849428D01*
X23179712Y13849428D02*
X23027331Y13887524D01*
X23027331Y13887524D02*
X22951140Y13925619D01*
X22951140Y13925619D02*
X22874950Y14001809D01*
X22874950Y14001809D02*
X22836855Y14116095D01*
X22836855Y14116095D02*
X22836855Y14192286D01*
X22836855Y14192286D02*
X22874950Y14306571D01*
X22874950Y14306571D02*
X22913045Y14344667D01*
X23636855Y14725619D02*
X23636855Y14878000D01*
X23636855Y14878000D02*
X23598760Y14954190D01*
X23598760Y14954190D02*
X23560664Y14992286D01*
X23560664Y14992286D02*
X23446379Y15068476D01*
X23446379Y15068476D02*
X23293998Y15106571D01*
X23293998Y15106571D02*
X22989236Y15106571D01*
X22989236Y15106571D02*
X22913045Y15068476D01*
X22913045Y15068476D02*
X22874950Y15030381D01*
X22874950Y15030381D02*
X22836855Y14954190D01*
X22836855Y14954190D02*
X22836855Y14801809D01*
X22836855Y14801809D02*
X22874950Y14725619D01*
X22874950Y14725619D02*
X22913045Y14687524D01*
X22913045Y14687524D02*
X22989236Y14649428D01*
X22989236Y14649428D02*
X23179712Y14649428D01*
X23179712Y14649428D02*
X23255902Y14687524D01*
X23255902Y14687524D02*
X23293998Y14725619D01*
X23293998Y14725619D02*
X23332093Y14801809D01*
X23332093Y14801809D02*
X23332093Y14954190D01*
X23332093Y14954190D02*
X23293998Y15030381D01*
X23293998Y15030381D02*
X23255902Y15068476D01*
X23255902Y15068476D02*
X23179712Y15106571D01*
X77154664Y26663714D02*
X77192760Y26625618D01*
X77192760Y26625618D02*
X77230855Y26511333D01*
X77230855Y26511333D02*
X77230855Y26435142D01*
X77230855Y26435142D02*
X77192760Y26320856D01*
X77192760Y26320856D02*
X77116569Y26244666D01*
X77116569Y26244666D02*
X77040379Y26206571D01*
X77040379Y26206571D02*
X76887998Y26168475D01*
X76887998Y26168475D02*
X76773712Y26168475D01*
X76773712Y26168475D02*
X76621331Y26206571D01*
X76621331Y26206571D02*
X76545140Y26244666D01*
X76545140Y26244666D02*
X76468950Y26320856D01*
X76468950Y26320856D02*
X76430855Y26435142D01*
X76430855Y26435142D02*
X76430855Y26511333D01*
X76430855Y26511333D02*
X76468950Y26625618D01*
X76468950Y26625618D02*
X76507045Y26663714D01*
X77230855Y27425618D02*
X77230855Y26968475D01*
X77230855Y27197047D02*
X76430855Y27197047D01*
X76430855Y27197047D02*
X76545140Y27120856D01*
X76545140Y27120856D02*
X76621331Y27044666D01*
X76621331Y27044666D02*
X76659426Y26968475D01*
X76697521Y28111333D02*
X77230855Y28111333D01*
X76392760Y27920857D02*
X76964188Y27730380D01*
X76964188Y27730380D02*
X76964188Y28225619D01*
X75084132Y43274721D02*
X75122228Y43236625D01*
X75122228Y43236625D02*
X75160323Y43122340D01*
X75160323Y43122340D02*
X75160323Y43046149D01*
X75160323Y43046149D02*
X75122228Y42931863D01*
X75122228Y42931863D02*
X75046037Y42855673D01*
X75046037Y42855673D02*
X74969847Y42817578D01*
X74969847Y42817578D02*
X74817466Y42779482D01*
X74817466Y42779482D02*
X74703180Y42779482D01*
X74703180Y42779482D02*
X74550799Y42817578D01*
X74550799Y42817578D02*
X74474608Y42855673D01*
X74474608Y42855673D02*
X74398418Y42931863D01*
X74398418Y42931863D02*
X74360323Y43046149D01*
X74360323Y43046149D02*
X74360323Y43122340D01*
X74360323Y43122340D02*
X74398418Y43236625D01*
X74398418Y43236625D02*
X74436513Y43274721D01*
X74703180Y43731863D02*
X74665085Y43655673D01*
X74665085Y43655673D02*
X74626989Y43617578D01*
X74626989Y43617578D02*
X74550799Y43579482D01*
X74550799Y43579482D02*
X74512704Y43579482D01*
X74512704Y43579482D02*
X74436513Y43617578D01*
X74436513Y43617578D02*
X74398418Y43655673D01*
X74398418Y43655673D02*
X74360323Y43731863D01*
X74360323Y43731863D02*
X74360323Y43884244D01*
X74360323Y43884244D02*
X74398418Y43960435D01*
X74398418Y43960435D02*
X74436513Y43998530D01*
X74436513Y43998530D02*
X74512704Y44036625D01*
X74512704Y44036625D02*
X74550799Y44036625D01*
X74550799Y44036625D02*
X74626989Y43998530D01*
X74626989Y43998530D02*
X74665085Y43960435D01*
X74665085Y43960435D02*
X74703180Y43884244D01*
X74703180Y43884244D02*
X74703180Y43731863D01*
X74703180Y43731863D02*
X74741275Y43655673D01*
X74741275Y43655673D02*
X74779370Y43617578D01*
X74779370Y43617578D02*
X74855561Y43579482D01*
X74855561Y43579482D02*
X75007942Y43579482D01*
X75007942Y43579482D02*
X75084132Y43617578D01*
X75084132Y43617578D02*
X75122228Y43655673D01*
X75122228Y43655673D02*
X75160323Y43731863D01*
X75160323Y43731863D02*
X75160323Y43884244D01*
X75160323Y43884244D02*
X75122228Y43960435D01*
X75122228Y43960435D02*
X75084132Y43998530D01*
X75084132Y43998530D02*
X75007942Y44036625D01*
X75007942Y44036625D02*
X74855561Y44036625D01*
X74855561Y44036625D02*
X74779370Y43998530D01*
X74779370Y43998530D02*
X74741275Y43960435D01*
X74741275Y43960435D02*
X74703180Y43884244D01*
X95883786Y35007678D02*
X95921882Y34969582D01*
X95921882Y34969582D02*
X95959977Y34855297D01*
X95959977Y34855297D02*
X95959977Y34779106D01*
X95959977Y34779106D02*
X95921882Y34664820D01*
X95921882Y34664820D02*
X95845691Y34588630D01*
X95845691Y34588630D02*
X95769501Y34550535D01*
X95769501Y34550535D02*
X95617120Y34512439D01*
X95617120Y34512439D02*
X95502834Y34512439D01*
X95502834Y34512439D02*
X95350453Y34550535D01*
X95350453Y34550535D02*
X95274262Y34588630D01*
X95274262Y34588630D02*
X95198072Y34664820D01*
X95198072Y34664820D02*
X95159977Y34779106D01*
X95159977Y34779106D02*
X95159977Y34855297D01*
X95159977Y34855297D02*
X95198072Y34969582D01*
X95198072Y34969582D02*
X95236167Y35007678D01*
X95959977Y35769582D02*
X95959977Y35312439D01*
X95959977Y35541011D02*
X95159977Y35541011D01*
X95159977Y35541011D02*
X95274262Y35464820D01*
X95274262Y35464820D02*
X95350453Y35388630D01*
X95350453Y35388630D02*
X95388548Y35312439D01*
X95159977Y36264821D02*
X95159977Y36341011D01*
X95159977Y36341011D02*
X95198072Y36417202D01*
X95198072Y36417202D02*
X95236167Y36455297D01*
X95236167Y36455297D02*
X95312358Y36493392D01*
X95312358Y36493392D02*
X95464739Y36531487D01*
X95464739Y36531487D02*
X95655215Y36531487D01*
X95655215Y36531487D02*
X95807596Y36493392D01*
X95807596Y36493392D02*
X95883786Y36455297D01*
X95883786Y36455297D02*
X95921882Y36417202D01*
X95921882Y36417202D02*
X95959977Y36341011D01*
X95959977Y36341011D02*
X95959977Y36264821D01*
X95959977Y36264821D02*
X95921882Y36188630D01*
X95921882Y36188630D02*
X95883786Y36150535D01*
X95883786Y36150535D02*
X95807596Y36112440D01*
X95807596Y36112440D02*
X95655215Y36074344D01*
X95655215Y36074344D02*
X95464739Y36074344D01*
X95464739Y36074344D02*
X95312358Y36112440D01*
X95312358Y36112440D02*
X95236167Y36150535D01*
X95236167Y36150535D02*
X95198072Y36188630D01*
X95198072Y36188630D02*
X95159977Y36264821D01*
X35331476Y43864144D02*
X35331476Y44664144D01*
X35331476Y44283192D02*
X35788619Y44283192D01*
X35788619Y43864144D02*
X35788619Y44664144D01*
X36131475Y44587954D02*
X36169571Y44626049D01*
X36169571Y44626049D02*
X36245761Y44664144D01*
X36245761Y44664144D02*
X36436237Y44664144D01*
X36436237Y44664144D02*
X36512428Y44626049D01*
X36512428Y44626049D02*
X36550523Y44587954D01*
X36550523Y44587954D02*
X36588618Y44511763D01*
X36588618Y44511763D02*
X36588618Y44435573D01*
X36588618Y44435573D02*
X36550523Y44321287D01*
X36550523Y44321287D02*
X36093380Y43864144D01*
X36093380Y43864144D02*
X36588618Y43864144D01*
X6346122Y37955090D02*
X5546122Y37955090D01*
X6346122Y38412233D02*
X5888979Y38069375D01*
X5546122Y38412233D02*
X6003265Y37955090D01*
X5927074Y38755090D02*
X5927074Y39021756D01*
X6346122Y39136042D02*
X6346122Y38755090D01*
X6346122Y38755090D02*
X5546122Y38755090D01*
X5546122Y38755090D02*
X5546122Y39136042D01*
X5965169Y39631281D02*
X6346122Y39631281D01*
X5546122Y39364614D02*
X5965169Y39631281D01*
X5965169Y39631281D02*
X5546122Y39897947D01*
X5546122Y40088423D02*
X5546122Y40583661D01*
X5546122Y40583661D02*
X5850884Y40316995D01*
X5850884Y40316995D02*
X5850884Y40431280D01*
X5850884Y40431280D02*
X5888979Y40507471D01*
X5888979Y40507471D02*
X5927074Y40545566D01*
X5927074Y40545566D02*
X6003265Y40583661D01*
X6003265Y40583661D02*
X6193741Y40583661D01*
X6193741Y40583661D02*
X6269931Y40545566D01*
X6269931Y40545566D02*
X6308027Y40507471D01*
X6308027Y40507471D02*
X6346122Y40431280D01*
X6346122Y40431280D02*
X6346122Y40202709D01*
X6346122Y40202709D02*
X6308027Y40126518D01*
X6308027Y40126518D02*
X6269931Y40088423D01*
X21069614Y38211122D02*
X20269614Y38211122D01*
X21069614Y38668265D02*
X20612471Y38325407D01*
X20269614Y38668265D02*
X20726757Y38211122D01*
X20650566Y39011122D02*
X20650566Y39277788D01*
X21069614Y39392074D02*
X21069614Y39011122D01*
X21069614Y39011122D02*
X20269614Y39011122D01*
X20269614Y39011122D02*
X20269614Y39392074D01*
X20688661Y39887313D02*
X21069614Y39887313D01*
X20269614Y39620646D02*
X20688661Y39887313D01*
X20688661Y39887313D02*
X20269614Y40153979D01*
X20345804Y40382550D02*
X20307709Y40420646D01*
X20307709Y40420646D02*
X20269614Y40496836D01*
X20269614Y40496836D02*
X20269614Y40687312D01*
X20269614Y40687312D02*
X20307709Y40763503D01*
X20307709Y40763503D02*
X20345804Y40801598D01*
X20345804Y40801598D02*
X20421995Y40839693D01*
X20421995Y40839693D02*
X20498185Y40839693D01*
X20498185Y40839693D02*
X20612471Y40801598D01*
X20612471Y40801598D02*
X21069614Y40344455D01*
X21069614Y40344455D02*
X21069614Y40839693D01*
X89331224Y9572622D02*
X88531224Y9572622D01*
X89331224Y10029765D02*
X88874081Y9686907D01*
X88531224Y10029765D02*
X88988367Y9572622D01*
X88912176Y10372622D02*
X88912176Y10639288D01*
X89331224Y10753574D02*
X89331224Y10372622D01*
X89331224Y10372622D02*
X88531224Y10372622D01*
X88531224Y10372622D02*
X88531224Y10753574D01*
X88950271Y11248813D02*
X89331224Y11248813D01*
X88531224Y10982146D02*
X88950271Y11248813D01*
X88950271Y11248813D02*
X88531224Y11515479D01*
X88797890Y12125003D02*
X89331224Y12125003D01*
X88493129Y11934527D02*
X89064557Y11744050D01*
X89064557Y11744050D02*
X89064557Y12239289D01*
X76828667Y21575144D02*
X76562000Y21956097D01*
X76371524Y21575144D02*
X76371524Y22375144D01*
X76371524Y22375144D02*
X76676286Y22375144D01*
X76676286Y22375144D02*
X76752476Y22337049D01*
X76752476Y22337049D02*
X76790571Y22298954D01*
X76790571Y22298954D02*
X76828667Y22222763D01*
X76828667Y22222763D02*
X76828667Y22108478D01*
X76828667Y22108478D02*
X76790571Y22032287D01*
X76790571Y22032287D02*
X76752476Y21994192D01*
X76752476Y21994192D02*
X76676286Y21956097D01*
X76676286Y21956097D02*
X76371524Y21956097D01*
X77514381Y22108478D02*
X77514381Y21575144D01*
X77323905Y22413240D02*
X77133428Y21841811D01*
X77133428Y21841811D02*
X77628667Y21841811D01*
X7984571Y49386836D02*
X7717904Y49767789D01*
X7527428Y49386836D02*
X7527428Y50186836D01*
X7527428Y50186836D02*
X7832190Y50186836D01*
X7832190Y50186836D02*
X7908380Y50148741D01*
X7908380Y50148741D02*
X7946475Y50110646D01*
X7946475Y50110646D02*
X7984571Y50034455D01*
X7984571Y50034455D02*
X7984571Y49920170D01*
X7984571Y49920170D02*
X7946475Y49843979D01*
X7946475Y49843979D02*
X7908380Y49805884D01*
X7908380Y49805884D02*
X7832190Y49767789D01*
X7832190Y49767789D02*
X7527428Y49767789D01*
X8251237Y50186836D02*
X8784571Y50186836D01*
X8784571Y50186836D02*
X8441713Y49386836D01*
X22708062Y49769868D02*
X22441395Y50150821D01*
X22250919Y49769868D02*
X22250919Y50569868D01*
X22250919Y50569868D02*
X22555681Y50569868D01*
X22555681Y50569868D02*
X22631871Y50531773D01*
X22631871Y50531773D02*
X22669966Y50493678D01*
X22669966Y50493678D02*
X22708062Y50417487D01*
X22708062Y50417487D02*
X22708062Y50303202D01*
X22708062Y50303202D02*
X22669966Y50227011D01*
X22669966Y50227011D02*
X22631871Y50188916D01*
X22631871Y50188916D02*
X22555681Y50150821D01*
X22555681Y50150821D02*
X22250919Y50150821D01*
X23431871Y50569868D02*
X23050919Y50569868D01*
X23050919Y50569868D02*
X23012823Y50188916D01*
X23012823Y50188916D02*
X23050919Y50227011D01*
X23050919Y50227011D02*
X23127109Y50265106D01*
X23127109Y50265106D02*
X23317585Y50265106D01*
X23317585Y50265106D02*
X23393776Y50227011D01*
X23393776Y50227011D02*
X23431871Y50188916D01*
X23431871Y50188916D02*
X23469966Y50112725D01*
X23469966Y50112725D02*
X23469966Y49922249D01*
X23469966Y49922249D02*
X23431871Y49846059D01*
X23431871Y49846059D02*
X23393776Y49807964D01*
X23393776Y49807964D02*
X23317585Y49769868D01*
X23317585Y49769868D02*
X23127109Y49769868D01*
X23127109Y49769868D02*
X23050919Y49807964D01*
X23050919Y49807964D02*
X23012823Y49846059D01*
X91223673Y21385368D02*
X90957006Y21766321D01*
X90766530Y21385368D02*
X90766530Y22185368D01*
X90766530Y22185368D02*
X91071292Y22185368D01*
X91071292Y22185368D02*
X91147482Y22147273D01*
X91147482Y22147273D02*
X91185577Y22109178D01*
X91185577Y22109178D02*
X91223673Y22032987D01*
X91223673Y22032987D02*
X91223673Y21918702D01*
X91223673Y21918702D02*
X91185577Y21842511D01*
X91185577Y21842511D02*
X91147482Y21804416D01*
X91147482Y21804416D02*
X91071292Y21766321D01*
X91071292Y21766321D02*
X90766530Y21766321D01*
X91909387Y22185368D02*
X91757006Y22185368D01*
X91757006Y22185368D02*
X91680815Y22147273D01*
X91680815Y22147273D02*
X91642720Y22109178D01*
X91642720Y22109178D02*
X91566530Y21994892D01*
X91566530Y21994892D02*
X91528434Y21842511D01*
X91528434Y21842511D02*
X91528434Y21537749D01*
X91528434Y21537749D02*
X91566530Y21461559D01*
X91566530Y21461559D02*
X91604625Y21423464D01*
X91604625Y21423464D02*
X91680815Y21385368D01*
X91680815Y21385368D02*
X91833196Y21385368D01*
X91833196Y21385368D02*
X91909387Y21423464D01*
X91909387Y21423464D02*
X91947482Y21461559D01*
X91947482Y21461559D02*
X91985577Y21537749D01*
X91985577Y21537749D02*
X91985577Y21728225D01*
X91985577Y21728225D02*
X91947482Y21804416D01*
X91947482Y21804416D02*
X91909387Y21842511D01*
X91909387Y21842511D02*
X91833196Y21880606D01*
X91833196Y21880606D02*
X91680815Y21880606D01*
X91680815Y21880606D02*
X91604625Y21842511D01*
X91604625Y21842511D02*
X91566530Y21804416D01*
X91566530Y21804416D02*
X91528434Y21728225D01*
X19932667Y8621144D02*
X19666000Y9002097D01*
X19475524Y8621144D02*
X19475524Y9421144D01*
X19475524Y9421144D02*
X19780286Y9421144D01*
X19780286Y9421144D02*
X19856476Y9383049D01*
X19856476Y9383049D02*
X19894571Y9344954D01*
X19894571Y9344954D02*
X19932667Y9268763D01*
X19932667Y9268763D02*
X19932667Y9154478D01*
X19932667Y9154478D02*
X19894571Y9078287D01*
X19894571Y9078287D02*
X19856476Y9040192D01*
X19856476Y9040192D02*
X19780286Y9002097D01*
X19780286Y9002097D02*
X19475524Y9002097D01*
X20237428Y9344954D02*
X20275524Y9383049D01*
X20275524Y9383049D02*
X20351714Y9421144D01*
X20351714Y9421144D02*
X20542190Y9421144D01*
X20542190Y9421144D02*
X20618381Y9383049D01*
X20618381Y9383049D02*
X20656476Y9344954D01*
X20656476Y9344954D02*
X20694571Y9268763D01*
X20694571Y9268763D02*
X20694571Y9192573D01*
X20694571Y9192573D02*
X20656476Y9078287D01*
X20656476Y9078287D02*
X20199333Y8621144D01*
X20199333Y8621144D02*
X20694571Y8621144D01*
X95454855Y27044667D02*
X95073902Y26778000D01*
X95454855Y26587524D02*
X94654855Y26587524D01*
X94654855Y26587524D02*
X94654855Y26892286D01*
X94654855Y26892286D02*
X94692950Y26968476D01*
X94692950Y26968476D02*
X94731045Y27006571D01*
X94731045Y27006571D02*
X94807236Y27044667D01*
X94807236Y27044667D02*
X94921521Y27044667D01*
X94921521Y27044667D02*
X94997712Y27006571D01*
X94997712Y27006571D02*
X95035807Y26968476D01*
X95035807Y26968476D02*
X95073902Y26892286D01*
X95073902Y26892286D02*
X95073902Y26587524D01*
X94654855Y27311333D02*
X94654855Y27806571D01*
X94654855Y27806571D02*
X94959617Y27539905D01*
X94959617Y27539905D02*
X94959617Y27654190D01*
X94959617Y27654190D02*
X94997712Y27730381D01*
X94997712Y27730381D02*
X95035807Y27768476D01*
X95035807Y27768476D02*
X95111998Y27806571D01*
X95111998Y27806571D02*
X95302474Y27806571D01*
X95302474Y27806571D02*
X95378664Y27768476D01*
X95378664Y27768476D02*
X95416760Y27730381D01*
X95416760Y27730381D02*
X95454855Y27654190D01*
X95454855Y27654190D02*
X95454855Y27425619D01*
X95454855Y27425619D02*
X95416760Y27349428D01*
X95416760Y27349428D02*
X95378664Y27311333D01*
X82040747Y44993904D02*
X82002651Y44955809D01*
X82002651Y44955809D02*
X81888366Y44917713D01*
X81888366Y44917713D02*
X81812175Y44917713D01*
X81812175Y44917713D02*
X81697889Y44955809D01*
X81697889Y44955809D02*
X81621699Y45031999D01*
X81621699Y45031999D02*
X81583604Y45108189D01*
X81583604Y45108189D02*
X81545508Y45260570D01*
X81545508Y45260570D02*
X81545508Y45374856D01*
X81545508Y45374856D02*
X81583604Y45527237D01*
X81583604Y45527237D02*
X81621699Y45603428D01*
X81621699Y45603428D02*
X81697889Y45679618D01*
X81697889Y45679618D02*
X81812175Y45717713D01*
X81812175Y45717713D02*
X81888366Y45717713D01*
X81888366Y45717713D02*
X82002651Y45679618D01*
X82002651Y45679618D02*
X82040747Y45641523D01*
X82726461Y45451047D02*
X82726461Y44917713D01*
X82535985Y45755809D02*
X82345508Y45184380D01*
X82345508Y45184380D02*
X82840747Y45184380D01*
X22798664Y10280667D02*
X22836760Y10242571D01*
X22836760Y10242571D02*
X22874855Y10128286D01*
X22874855Y10128286D02*
X22874855Y10052095D01*
X22874855Y10052095D02*
X22836760Y9937809D01*
X22836760Y9937809D02*
X22760569Y9861619D01*
X22760569Y9861619D02*
X22684379Y9823524D01*
X22684379Y9823524D02*
X22531998Y9785428D01*
X22531998Y9785428D02*
X22417712Y9785428D01*
X22417712Y9785428D02*
X22265331Y9823524D01*
X22265331Y9823524D02*
X22189140Y9861619D01*
X22189140Y9861619D02*
X22112950Y9937809D01*
X22112950Y9937809D02*
X22074855Y10052095D01*
X22074855Y10052095D02*
X22074855Y10128286D01*
X22074855Y10128286D02*
X22112950Y10242571D01*
X22112950Y10242571D02*
X22151045Y10280667D01*
X22074855Y10966381D02*
X22074855Y10814000D01*
X22074855Y10814000D02*
X22112950Y10737809D01*
X22112950Y10737809D02*
X22151045Y10699714D01*
X22151045Y10699714D02*
X22265331Y10623524D01*
X22265331Y10623524D02*
X22417712Y10585428D01*
X22417712Y10585428D02*
X22722474Y10585428D01*
X22722474Y10585428D02*
X22798664Y10623524D01*
X22798664Y10623524D02*
X22836760Y10661619D01*
X22836760Y10661619D02*
X22874855Y10737809D01*
X22874855Y10737809D02*
X22874855Y10890190D01*
X22874855Y10890190D02*
X22836760Y10966381D01*
X22836760Y10966381D02*
X22798664Y11004476D01*
X22798664Y11004476D02*
X22722474Y11042571D01*
X22722474Y11042571D02*
X22531998Y11042571D01*
X22531998Y11042571D02*
X22455807Y11004476D01*
X22455807Y11004476D02*
X22417712Y10966381D01*
X22417712Y10966381D02*
X22379617Y10890190D01*
X22379617Y10890190D02*
X22379617Y10737809D01*
X22379617Y10737809D02*
X22417712Y10661619D01*
X22417712Y10661619D02*
X22455807Y10623524D01*
X22455807Y10623524D02*
X22531998Y10585428D01*
X95823664Y31743667D02*
X95861760Y31705571D01*
X95861760Y31705571D02*
X95899855Y31591286D01*
X95899855Y31591286D02*
X95899855Y31515095D01*
X95899855Y31515095D02*
X95861760Y31400809D01*
X95861760Y31400809D02*
X95785569Y31324619D01*
X95785569Y31324619D02*
X95709379Y31286524D01*
X95709379Y31286524D02*
X95556998Y31248428D01*
X95556998Y31248428D02*
X95442712Y31248428D01*
X95442712Y31248428D02*
X95290331Y31286524D01*
X95290331Y31286524D02*
X95214140Y31324619D01*
X95214140Y31324619D02*
X95137950Y31400809D01*
X95137950Y31400809D02*
X95099855Y31515095D01*
X95099855Y31515095D02*
X95099855Y31591286D01*
X95099855Y31591286D02*
X95137950Y31705571D01*
X95137950Y31705571D02*
X95176045Y31743667D01*
X95099855Y32010333D02*
X95099855Y32505571D01*
X95099855Y32505571D02*
X95404617Y32238905D01*
X95404617Y32238905D02*
X95404617Y32353190D01*
X95404617Y32353190D02*
X95442712Y32429381D01*
X95442712Y32429381D02*
X95480807Y32467476D01*
X95480807Y32467476D02*
X95556998Y32505571D01*
X95556998Y32505571D02*
X95747474Y32505571D01*
X95747474Y32505571D02*
X95823664Y32467476D01*
X95823664Y32467476D02*
X95861760Y32429381D01*
X95861760Y32429381D02*
X95899855Y32353190D01*
X95899855Y32353190D02*
X95899855Y32124619D01*
X95899855Y32124619D02*
X95861760Y32048428D01*
X95861760Y32048428D02*
X95823664Y32010333D01*
X9010667Y28636335D02*
X8972571Y28598240D01*
X8972571Y28598240D02*
X8858286Y28560144D01*
X8858286Y28560144D02*
X8782095Y28560144D01*
X8782095Y28560144D02*
X8667809Y28598240D01*
X8667809Y28598240D02*
X8591619Y28674430D01*
X8591619Y28674430D02*
X8553524Y28750620D01*
X8553524Y28750620D02*
X8515428Y28903001D01*
X8515428Y28903001D02*
X8515428Y29017287D01*
X8515428Y29017287D02*
X8553524Y29169668D01*
X8553524Y29169668D02*
X8591619Y29245859D01*
X8591619Y29245859D02*
X8667809Y29322049D01*
X8667809Y29322049D02*
X8782095Y29360144D01*
X8782095Y29360144D02*
X8858286Y29360144D01*
X8858286Y29360144D02*
X8972571Y29322049D01*
X8972571Y29322049D02*
X9010667Y29283954D01*
X9734476Y29360144D02*
X9353524Y29360144D01*
X9353524Y29360144D02*
X9315428Y28979192D01*
X9315428Y28979192D02*
X9353524Y29017287D01*
X9353524Y29017287D02*
X9429714Y29055382D01*
X9429714Y29055382D02*
X9620190Y29055382D01*
X9620190Y29055382D02*
X9696381Y29017287D01*
X9696381Y29017287D02*
X9734476Y28979192D01*
X9734476Y28979192D02*
X9772571Y28903001D01*
X9772571Y28903001D02*
X9772571Y28712525D01*
X9772571Y28712525D02*
X9734476Y28636335D01*
X9734476Y28636335D02*
X9696381Y28598240D01*
X9696381Y28598240D02*
X9620190Y28560144D01*
X9620190Y28560144D02*
X9429714Y28560144D01*
X9429714Y28560144D02*
X9353524Y28598240D01*
X9353524Y28598240D02*
X9315428Y28636335D01*
X39522476Y28624144D02*
X39522476Y29424144D01*
X39522476Y29043192D02*
X39979619Y29043192D01*
X39979619Y28624144D02*
X39979619Y29424144D01*
X40779618Y28624144D02*
X40322475Y28624144D01*
X40551047Y28624144D02*
X40551047Y29424144D01*
X40551047Y29424144D02*
X40474856Y29309859D01*
X40474856Y29309859D02*
X40398666Y29233668D01*
X40398666Y29233668D02*
X40322475Y29195573D01*
X65535713Y40214766D02*
X65573809Y40176670D01*
X65573809Y40176670D02*
X65611904Y40062385D01*
X65611904Y40062385D02*
X65611904Y39986194D01*
X65611904Y39986194D02*
X65573809Y39871908D01*
X65573809Y39871908D02*
X65497618Y39795718D01*
X65497618Y39795718D02*
X65421428Y39757623D01*
X65421428Y39757623D02*
X65269047Y39719527D01*
X65269047Y39719527D02*
X65154761Y39719527D01*
X65154761Y39719527D02*
X65002380Y39757623D01*
X65002380Y39757623D02*
X64926189Y39795718D01*
X64926189Y39795718D02*
X64849999Y39871908D01*
X64849999Y39871908D02*
X64811904Y39986194D01*
X64811904Y39986194D02*
X64811904Y40062385D01*
X64811904Y40062385D02*
X64849999Y40176670D01*
X64849999Y40176670D02*
X64888094Y40214766D01*
X65611904Y40976670D02*
X65611904Y40519527D01*
X65611904Y40748099D02*
X64811904Y40748099D01*
X64811904Y40748099D02*
X64926189Y40671908D01*
X64926189Y40671908D02*
X65002380Y40595718D01*
X65002380Y40595718D02*
X65040475Y40519527D01*
X65611904Y41738575D02*
X65611904Y41281432D01*
X65611904Y41510004D02*
X64811904Y41510004D01*
X64811904Y41510004D02*
X64926189Y41433813D01*
X64926189Y41433813D02*
X65002380Y41357623D01*
X65002380Y41357623D02*
X65040475Y41281432D01*
X59247664Y40266049D02*
X59285760Y40227953D01*
X59285760Y40227953D02*
X59323855Y40113668D01*
X59323855Y40113668D02*
X59323855Y40037477D01*
X59323855Y40037477D02*
X59285760Y39923191D01*
X59285760Y39923191D02*
X59209569Y39847001D01*
X59209569Y39847001D02*
X59133379Y39808906D01*
X59133379Y39808906D02*
X58980998Y39770810D01*
X58980998Y39770810D02*
X58866712Y39770810D01*
X58866712Y39770810D02*
X58714331Y39808906D01*
X58714331Y39808906D02*
X58638140Y39847001D01*
X58638140Y39847001D02*
X58561950Y39923191D01*
X58561950Y39923191D02*
X58523855Y40037477D01*
X58523855Y40037477D02*
X58523855Y40113668D01*
X58523855Y40113668D02*
X58561950Y40227953D01*
X58561950Y40227953D02*
X58600045Y40266049D01*
X59323855Y41027953D02*
X59323855Y40570810D01*
X59323855Y40799382D02*
X58523855Y40799382D01*
X58523855Y40799382D02*
X58638140Y40723191D01*
X58638140Y40723191D02*
X58714331Y40647001D01*
X58714331Y40647001D02*
X58752426Y40570810D01*
X58600045Y41332715D02*
X58561950Y41370811D01*
X58561950Y41370811D02*
X58523855Y41447001D01*
X58523855Y41447001D02*
X58523855Y41637477D01*
X58523855Y41637477D02*
X58561950Y41713668D01*
X58561950Y41713668D02*
X58600045Y41751763D01*
X58600045Y41751763D02*
X58676236Y41789858D01*
X58676236Y41789858D02*
X58752426Y41789858D01*
X58752426Y41789858D02*
X58866712Y41751763D01*
X58866712Y41751763D02*
X59323855Y41294620D01*
X59323855Y41294620D02*
X59323855Y41789858D01*
X56106831Y18034088D02*
X55725878Y17767421D01*
X56106831Y17576945D02*
X55306831Y17576945D01*
X55306831Y17576945D02*
X55306831Y17881707D01*
X55306831Y17881707D02*
X55344926Y17957897D01*
X55344926Y17957897D02*
X55383021Y17995992D01*
X55383021Y17995992D02*
X55459212Y18034088D01*
X55459212Y18034088D02*
X55573497Y18034088D01*
X55573497Y18034088D02*
X55649688Y17995992D01*
X55649688Y17995992D02*
X55687783Y17957897D01*
X55687783Y17957897D02*
X55725878Y17881707D01*
X55725878Y17881707D02*
X55725878Y17576945D01*
X56106831Y18795992D02*
X56106831Y18338849D01*
X56106831Y18567421D02*
X55306831Y18567421D01*
X55306831Y18567421D02*
X55421116Y18491230D01*
X55421116Y18491230D02*
X55497307Y18415040D01*
X55497307Y18415040D02*
X55535402Y18338849D01*
M02*
