%TF.GenerationSoftware,KiCad,Pcbnew,10.99.0-unknown*%
%TF.CreationDate,2026-08-12T15:27:46+08:00*%
%TF.ProjectId,________,db6eeccb-6c11-40f6-962e-6b696361645f,rev?*%
%TF.SameCoordinates,Original*%
%TF.FileFunction,Copper,L3,Inr*%
%TF.FilePolarity,Positive*%
%FSLAX46Y46*%
G04 Gerber Fmt 4.6, Leading zero omitted, Abs format (unit mm)*
G04 Created by KiCad (PCBNEW 10.99.0-unknown) date 2026-08-12 15:27:46*
%MOMM*%
%LPD*%
G01*
G04 APERTURE LIST*
%TA.AperFunction,ViaPad*%
%ADD10C,0.610000*%
%TD*%
G04 APERTURE END LIST*
D10*
%TO.N,KEY3*%
X9017000Y29083000D03*
X18542000Y28956000D03*
%TO.N,SW1_X*%
X18288000Y26035000D03*
X21336000Y26035000D03*
%TO.N,GND*%
X26543000Y15240000D03*
X28702000Y15240000D03*
X46990000Y20320000D03*
X53594000Y20447000D03*
%TO.N,SW1_X*%
X43815000Y26035000D03*
X48253500Y26028500D03*
%TO.N,GND*%
X60217500Y24606500D03*
X58312500Y23590500D03*
%TO.N,SW2_Y*%
X58058500Y24606500D03*
X61233500Y25368500D03*
%TO.N,SW2_Z*%
X61233500Y22574500D03*
X56915500Y24987500D03*
%TO.N,IRQ*%
X55264500Y33369500D03*
X55264500Y29940500D03*
%TO.N,KEY2*%
X57296500Y15335500D03*
%TO.N,KEY1*%
X58439500Y15716500D03*
%TO.N,KEY2*%
X49803500Y23336500D03*
%TO.N,KEY1*%
X48914500Y24225500D03*
%TO.N,3V3*%
X41275000Y34290000D03*
X44069000Y37592000D03*
%TO.N,I2C_SDA*%
X36576000Y24130000D03*
%TO.N,SW1_Z*%
X45085000Y16637000D03*
X45085000Y23368000D03*
%TO.N,BAT*%
X62484000Y37338000D03*
%TO.N,GND*%
X49673800Y16068400D03*
X50927000Y16129000D03*
X50419000Y25019000D03*
X60960000Y38735000D03*
X67310000Y38735000D03*
X76796400Y41259300D03*
X97536000Y33782000D03*
X97533300Y29862900D03*
X93221700Y2156300D03*
X78232000Y1397000D03*
X24508300Y8579900D03*
X25400000Y12700000D03*
X15494000Y27686000D03*
X9271000Y30734000D03*
X7200800Y26926700D03*
X24502500Y30802800D03*
%TO.N,I2C_SCL*%
X38884400Y25089100D03*
%TO.N,GND*%
X54483000Y38862000D03*
X55499000Y37719000D03*
X55499000Y36076400D03*
X34290000Y20701000D03*
X17526000Y31242000D03*
X97790000Y46609000D03*
X49403000Y28067000D03*
X51706500Y28067000D03*
X53467000Y28067000D03*
X34544000Y9144000D03*
X34544000Y5675800D03*
X58674000Y10541000D03*
X61595000Y8128000D03*
X61087000Y16764000D03*
X64135000Y16891000D03*
X63881000Y33909000D03*
X60960000Y33909000D03*
%TD*%
M02*
