%TF.GenerationSoftware,KiCad,Pcbnew,10.99.0-unknown*%
%TF.CreationDate,2026-08-12T15:27:46+08:00*%
%TF.ProjectId,________,db6eeccb-6c11-40f6-962e-6b696361645f,rev?*%
%TF.SameCoordinates,Original*%
%TF.FileFunction,Copper,L1,Top*%
%TF.FilePolarity,Positive*%
%FSLAX46Y46*%
G04 Gerber Fmt 4.6, Leading zero omitted, Abs format (unit mm)*
G04 Created by KiCad (PCBNEW 10.99.0-unknown) date 2026-08-12 15:27:46*
%MOMM*%
%LPD*%
G01*
G04 APERTURE LIST*
G04 Aperture macros list*
%AMRoundRect*
0 Rectangle with rounded corners*
0 $1 Rounding radius*
0 $2 $3 $4 $5 $6 $7 $8 $9 X,Y pos of 4 corners*
0 Add a 4 corners polygon primitive as box body*
4,1,4,$2,$3,$4,$5,$6,$7,$8,$9,$2,$3,0*
0 Add four circle primitives for the rounded corners*
1,1,$1+$1,$2,$3*
1,1,$1+$1,$4,$5*
1,1,$1+$1,$6,$7*
1,1,$1+$1,$8,$9*
0 Add four rect primitives between the rounded corners*
20,1,$1+$1,$2,$3,$4,$5,0*
20,1,$1+$1,$4,$5,$6,$7,0*
20,1,$1+$1,$6,$7,$8,$9,0*
20,1,$1+$1,$8,$9,$2,$3,0*%
G04 Aperture macros list end*
%TA.AperFunction,SMDPad,CuDef*%
%ADD10RoundRect,0.105000X0.345000X-0.105000X0.345000X0.105000X-0.345000X0.105000X-0.345000X-0.105000X0*%
%TD*%
%TA.AperFunction,SMDPad,CuDef*%
%ADD11RoundRect,0.105000X-0.105000X-0.345000X0.105000X-0.345000X0.105000X0.345000X-0.105000X0.345000X0*%
%TD*%
%TA.AperFunction,SMDPad,CuDef*%
%ADD12RoundRect,0.225000X-0.225000X-0.275000X0.225000X-0.275000X0.225000X0.275000X-0.225000X0.275000X0*%
%TD*%
%TA.AperFunction,SMDPad,CuDef*%
%ADD13C,0.750000*%
%TD*%
%TA.AperFunction,SMDPad,CuDef*%
%ADD14RoundRect,0.225000X-0.225000X-0.275000X0.225000X-0.275000X0.225000X0.275000X-0.225000X0.275000X0*%
%TD*%
%TA.AperFunction,ViaPad*%
%ADD15C,0.610000*%
%TD*%
%TA.AperFunction,Conductor*%
%ADD16C,0.254000*%
%TD*%
%TA.AperFunction,Conductor*%
%ADD17C,0.508000*%
%TD*%
G04 APERTURE END LIST*
D10*
%TO.P,SW1,1*%
%TO.N,3V3*%
X13044396Y16879892D03*
%TO.P,SW1,2*%
%TO.N,SW1_Y*%
X13844396Y16879892D03*
%TO.P,SW1,3*%
%TO.N,GND*%
X14644396Y16879892D03*
%TO.P,SW1,4*%
X15444396Y16879892D03*
D11*
%TO.P,SW1,5*%
%TO.N,SW1_X*%
X16244396Y16079892D03*
%TO.P,SW1,6*%
%TO.N,3V3*%
X16244396Y15279892D03*
%TO.P,SW1,7*%
%TO.N,GND*%
X16244396Y14479892D03*
%TO.P,SW1,8*%
X16244396Y13679892D03*
D10*
%TO.P,SW1,9*%
X15444396Y12879892D03*
%TO.P,SW1,10*%
X14644396Y12879892D03*
%TO.P,SW1,a*%
%TO.N,SW1_Z*%
X13844396Y12879892D03*
%TO.P,SW1,b*%
X13044396Y12879892D03*
D11*
%TO.P,SW1,c*%
%TO.N,GND*%
X12244396Y13679892D03*
%TO.P,SW1,d*%
X12244396Y14479892D03*
%TD*%
D12*
%TO.P,C1,2*%
%TO.N,3V3*%
X49676482Y17429481D03*
%TO.P,C1,1*%
%TO.N,GND*%
X49676482Y18829481D03*
%TD*%
%TO.P,C2,2*%
%TO.N,NRST*%
X52012220Y17450149D03*
%TO.P,C2,1*%
%TO.N,GND*%
X52012220Y18850149D03*
%TD*%
D13*
%TO.P,KEY1,1*%
%TO.N,GND*%
X76340932Y11951502D03*
%TO.P,KEY1,2*%
X77340932Y10951502D03*
%TO.P,KEY1,3*%
%TO.N,KEY1*%
X76340932Y9951502D03*
%TO.P,KEY1,4*%
X75340932Y10951502D03*
%TD*%
D10*
%TO.P,SW2,1*%
%TO.N,3V3*%
X85815396Y37707891D03*
%TO.P,SW2,2*%
%TO.N,SW2_Y*%
X86615396Y37707891D03*
%TO.P,SW2,3*%
%TO.N,GND*%
X87415396Y37707891D03*
%TO.P,SW2,4*%
X88215396Y37707891D03*
D11*
%TO.P,SW2,5*%
%TO.N,SW2_X*%
X89015396Y36907891D03*
%TO.P,SW2,6*%
%TO.N,3V3*%
X89015396Y36107891D03*
%TO.P,SW2,7*%
%TO.N,GND*%
X89015396Y35307891D03*
%TO.P,SW2,8*%
X89015396Y34507891D03*
D10*
%TO.P,SW2,9*%
X88215396Y33707891D03*
%TO.P,SW2,10*%
X87415396Y33707891D03*
%TO.P,SW2,a*%
%TO.N,SW2_Z*%
X86615396Y33707891D03*
%TO.P,SW2,b*%
X85815396Y33707891D03*
D11*
%TO.P,SW2,c*%
%TO.N,GND*%
X85015396Y34507891D03*
%TO.P,SW2,d*%
X85015396Y35307891D03*
%TD*%
D10*
%TO.P,U1,1*%
%TO.N,I2C_SDA*%
X48127000Y29889000D03*
%TO.P,U1,2*%
%TO.N,KEY1*%
X48927000Y29889000D03*
%TO.P,U1,3*%
%TO.N,KEY2*%
X49727000Y29889000D03*
%TO.P,U1,4*%
%TO.N,3V3*%
X50527000Y29889000D03*
%TO.P,U1,5*%
%TO.N,GND*%
X51327000Y29889000D03*
%TO.P,U1,6*%
%TO.N,NRST*%
X52127000Y29889000D03*
%TO.P,U1,7*%
%TO.N,SW1_X*%
X52927000Y29889000D03*
%TO.P,U1,8*%
%TO.N,SW1_Y*%
X53727000Y29889000D03*
D11*
%TO.P,U1,9*%
%TO.N,SW2_X*%
X54527000Y29089000D03*
%TO.P,U1,10*%
%TO.N,SW2_Y*%
X54527000Y28289000D03*
%TO.P,U1,11*%
%TO.N,SW2_Z*%
X54527000Y27489000D03*
%TO.P,U1,12*%
%TO.N,SPI_SCK*%
X54527000Y26689000D03*
%TO.P,U1,13*%
%TO.N,SPI_MISO*%
X54527000Y25889000D03*
%TO.P,U1,14*%
%TO.N,SPI_MOSI*%
X54527000Y25089000D03*
%TO.P,U1,15*%
%TO.N,N/C*%
X54527000Y24289000D03*
%TO.P,U1,16*%
%TO.N,IRQ*%
X54527000Y23489000D03*
D10*
%TO.P,U1,17*%
%TO.N,CSN*%
X53727000Y22689000D03*
%TO.P,U1,18*%
%TO.N,CE*%
X52927000Y22689000D03*
%TO.P,U1,19*%
%TO.N,USART1_TX*%
X52127000Y22689000D03*
%TO.P,U1,20*%
%TO.N,N/C*%
X51327000Y22689000D03*
%TO.P,U1,21*%
%TO.N,USART1_RX*%
X50527000Y22689000D03*
%TO.P,U1,22*%
%TO.N,N/C*%
X49727000Y22689000D03*
%TO.P,U1,23*%
X48927000Y22689000D03*
%TO.P,U1,24*%
%TO.N,SWDIO*%
X48127000Y22689000D03*
D11*
%TO.P,U1,25*%
%TO.N,SWCLK*%
X47327000Y23489000D03*
%TO.P,U1,26*%
%TO.N,KEY4*%
X47327000Y24289000D03*
%TO.P,U1,27*%
%TO.N,KEY3*%
X47327000Y25089000D03*
%TO.P,U1,28*%
%TO.N,N/C*%
X47327000Y25889000D03*
%TO.P,U1,29*%
X47327000Y26689000D03*
%TO.P,U1,30*%
%TO.N,I2C_SCL*%
X47327000Y27489000D03*
%TO.P,U1,31*%
%TO.N,N/C*%
X47327000Y28289000D03*
%TO.P,U1,32*%
%TO.N,SW1_Z*%
X47327000Y29089000D03*
%TD*%
D13*
%TO.P,U2,4*%
%TO.N,N/C*%
X65058394Y40340407D03*
%TO.P,U2,5*%
%TO.N,3V3*%
X64298294Y39294207D03*
%TO.P,U2,1*%
%TO.N,BAT*%
X63068494Y39693807D03*
%TO.P,U2,2*%
%TO.N,GND*%
X63068494Y40987007D03*
%TO.P,U2,3*%
%TO.N,BAT*%
X64298294Y41386607D03*
%TD*%
%TO.P,U3,8*%
%TO.N,GND*%
X51759999Y36957000D03*
%TO.P,U3,7*%
%TO.N,IRQ*%
X51244499Y35712500D03*
%TO.P,U3,6*%
%TO.N,SPI_MISO*%
X49999999Y35197000D03*
%TO.P,U3,5*%
%TO.N,SPI_MOSI*%
X48755499Y35712500D03*
%TO.P,U3,4*%
%TO.N,SPI_SCK*%
X48239999Y36957000D03*
%TO.P,U3,3*%
%TO.N,CSN*%
X48755499Y38201500D03*
%TO.P,U3,2*%
%TO.N,CE*%
X49999999Y38717000D03*
%TO.P,U3,1*%
%TO.N,3V3*%
X51244499Y38201500D03*
%TD*%
D12*
%TO.P,C15,2*%
%TO.N,KEY1*%
X76832500Y2322970D03*
%TO.P,C15,1*%
%TO.N,GND*%
X75432500Y2322970D03*
%TD*%
%TO.P,C18,2*%
%TO.N,KEY3*%
X8193000Y30607000D03*
%TO.P,C18,1*%
%TO.N,GND*%
X6793000Y30607000D03*
%TD*%
%TO.P,C17,2*%
%TO.N,KEY4*%
X23089783Y30808384D03*
%TO.P,C17,1*%
%TO.N,GND*%
X21689783Y30808384D03*
%TD*%
%TO.P,C16,2*%
%TO.N,KEY2*%
X91886000Y2159000D03*
%TO.P,C16,1*%
%TO.N,GND*%
X90486000Y2159000D03*
%TD*%
%TO.P,C13,2*%
%TO.N,SW1_Z*%
X5292420Y5304624D03*
%TO.P,C13,1*%
%TO.N,GND*%
X5292420Y6704624D03*
%TD*%
%TO.P,C7,2*%
%TO.N,SW1_X*%
X14185444Y27722030D03*
%TO.P,C7,1*%
%TO.N,GND*%
X12785444Y27722030D03*
%TD*%
%TO.P,C9,2*%
%TO.N,SW1_Y*%
X25273000Y13778000D03*
%TO.P,C9,1*%
%TO.N,GND*%
X25273000Y15178000D03*
%TD*%
%TO.P,C14,2*%
%TO.N,SW2_Z*%
X78867000Y26478000D03*
%TO.P,C14,1*%
%TO.N,GND*%
X78867000Y27878000D03*
%TD*%
%TO.P,C8,2*%
%TO.N,SW2_X*%
X76796468Y42708054D03*
%TO.P,C8,1*%
%TO.N,GND*%
X76796468Y44108054D03*
%TD*%
%TO.P,C10,2*%
%TO.N,SW2_Y*%
X97596122Y34821964D03*
%TO.P,C10,1*%
%TO.N,GND*%
X97596122Y36221964D03*
%TD*%
D13*
%TO.P,H2,1*%
%TO.N,3V3*%
X34181000Y46228000D03*
%TO.P,H2,2*%
%TO.N,USART1_TX*%
X34696500Y47472500D03*
%TO.P,H2,3*%
%TO.N,3V3*%
X35941000Y47988000D03*
%TO.P,H2,4*%
%TO.N,USART1_RX*%
X37185500Y47472500D03*
%TO.P,H2,5*%
%TO.N,GND*%
X37701000Y46228000D03*
%TO.P,H2,6*%
%TO.N,SWDIO*%
X37185500Y44983500D03*
%TO.P,H2,7*%
%TO.N,GND*%
X35941000Y44468000D03*
%TO.P,H2,8*%
%TO.N,SWCLK*%
X34696500Y44983500D03*
%TD*%
%TO.P,KEY3,1*%
%TO.N,GND*%
X7982267Y40250328D03*
%TO.P,KEY3,2*%
X8982267Y39250328D03*
%TO.P,KEY3,3*%
%TO.N,KEY3*%
X7982267Y38250328D03*
%TO.P,KEY3,4*%
X6982267Y39250328D03*
%TD*%
%TO.P,KEY2,1*%
%TO.N,GND*%
X22705759Y40506360D03*
%TO.P,KEY2,2*%
X23705759Y39506360D03*
%TO.P,KEY2,3*%
%TO.N,KEY4*%
X22705759Y38506360D03*
%TO.P,KEY2,4*%
X21705759Y39506360D03*
%TD*%
%TO.P,KEY4,1*%
%TO.N,GND*%
X90967369Y11867860D03*
%TO.P,KEY4,2*%
X91967369Y10867860D03*
%TO.P,KEY4,3*%
%TO.N,KEY2*%
X90967369Y9867860D03*
%TO.P,KEY4,4*%
X89967369Y10867860D03*
%TD*%
D14*
%TO.P,R4,2*%
%TO.N,3V3*%
X76262000Y19939000D03*
%TO.P,R4,1*%
%TO.N,KEY1*%
X77662000Y19939000D03*
%TD*%
%TO.P,R7,2*%
%TO.N,3V3*%
X7417904Y47750692D03*
%TO.P,R7,1*%
%TO.N,KEY3*%
X8817904Y47750692D03*
%TD*%
%TO.P,R5,2*%
%TO.N,3V3*%
X22141395Y48133724D03*
%TO.P,R5,1*%
%TO.N,KEY4*%
X23541395Y48133724D03*
%TD*%
%TO.P,R6,2*%
%TO.N,3V3*%
X90657006Y19749224D03*
%TO.P,R6,1*%
%TO.N,KEY2*%
X92057006Y19749224D03*
%TD*%
%TO.P,R2,2*%
%TO.N,3V3*%
X19366000Y6985000D03*
%TO.P,R2,1*%
%TO.N,SW1_Z*%
X20766000Y6985000D03*
%TD*%
%TO.P,R3,2*%
%TO.N,3V3*%
X93091000Y27878000D03*
%TO.P,R3,1*%
%TO.N,SW2_Z*%
X93091000Y26478000D03*
%TD*%
D12*
%TO.P,C4,2*%
%TO.N,3V3*%
X82874080Y47281569D03*
%TO.P,C4,1*%
%TO.N,GND*%
X81474080Y47281569D03*
%TD*%
%TO.P,C6,2*%
%TO.N,3V3*%
X24511000Y9714000D03*
%TO.P,C6,1*%
%TO.N,GND*%
X24511000Y11114000D03*
%TD*%
%TO.P,C3,2*%
%TO.N,3V3*%
X97536000Y31177000D03*
%TO.P,C3,1*%
%TO.N,GND*%
X97536000Y32577000D03*
%TD*%
D14*
%TO.P,C5,2*%
%TO.N,3V3*%
X8444000Y26924000D03*
%TO.P,C5,1*%
%TO.N,GND*%
X9844000Y26924000D03*
%TD*%
D13*
%TO.P,H1,4*%
%TO.N,I2C_SDA*%
X39132000Y30988000D03*
%TO.P,H1,3*%
%TO.N,I2C_SCL*%
X40132000Y31988000D03*
%TO.P,H1,2*%
%TO.N,3V3*%
X41132000Y30988000D03*
%TO.P,H1,1*%
%TO.N,GND*%
X40132000Y29988000D03*
%TD*%
D12*
%TO.P,C11,2*%
%TO.N,BAT*%
X67248049Y40029052D03*
%TO.P,C11,1*%
%TO.N,GND*%
X67248049Y41429052D03*
%TD*%
%TO.P,C12,2*%
%TO.N,3V3*%
X60960000Y40080335D03*
%TO.P,C12,1*%
%TO.N,GND*%
X60960000Y41480335D03*
%TD*%
D14*
%TO.P,R1,2*%
%TO.N,3V3*%
X53742976Y18867421D03*
%TO.P,R1,1*%
%TO.N,NRST*%
X53742976Y17467421D03*
%TD*%
D15*
%TO.N,KEY3*%
X9017000Y29083000D03*
X18542000Y28956000D03*
%TO.N,SW1_X*%
X18288000Y26035000D03*
X21336000Y26035000D03*
%TO.N,GND*%
X26543000Y15240000D03*
X28702000Y15240000D03*
X46990000Y20320000D03*
X53594000Y20447000D03*
%TO.N,SW1_X*%
X43815000Y26035000D03*
X48253500Y26028500D03*
%TO.N,GND*%
X60217500Y24606500D03*
X58312500Y23590500D03*
%TO.N,SW2_Y*%
X58058500Y24606500D03*
X61233500Y25368500D03*
%TO.N,SW2_Z*%
X61233500Y22574500D03*
X56915500Y24987500D03*
%TO.N,IRQ*%
X55264500Y33369500D03*
X55264500Y29940500D03*
%TO.N,KEY2*%
X57296500Y15335500D03*
%TO.N,KEY1*%
X58439500Y15716500D03*
%TO.N,KEY2*%
X49803500Y23336500D03*
%TO.N,KEY1*%
X48914500Y24225500D03*
%TO.N,3V3*%
X41275000Y34290000D03*
X44069000Y37592000D03*
%TO.N,I2C_SDA*%
X36576000Y24130000D03*
%TO.N,SW1_Z*%
X45085000Y16637000D03*
X45085000Y23368000D03*
%TO.N,BAT*%
X62484000Y37338000D03*
%TO.N,GND*%
X49673800Y16068400D03*
X50927000Y16129000D03*
X50419000Y25019000D03*
X60960000Y38735000D03*
X67310000Y38735000D03*
X76796400Y41259300D03*
X97536000Y33782000D03*
X97533300Y29862900D03*
X93221700Y2156300D03*
X78232000Y1397000D03*
X24508300Y8579900D03*
X25400000Y12700000D03*
X15494000Y27686000D03*
X9271000Y30734000D03*
X7200800Y26926700D03*
X24502500Y30802800D03*
%TO.N,I2C_SCL*%
X38884400Y25089100D03*
%TO.N,GND*%
X54483000Y38862000D03*
X55499000Y37719000D03*
X55499000Y36076400D03*
X34290000Y20701000D03*
X17526000Y31242000D03*
X97790000Y46609000D03*
X49403000Y28067000D03*
X51706500Y28067000D03*
X53467000Y28067000D03*
X34544000Y9144000D03*
X34544000Y5675800D03*
X58674000Y10541000D03*
X61595000Y8128000D03*
X61087000Y16764000D03*
X64135000Y16891000D03*
X63881000Y33909000D03*
X60960000Y33909000D03*
%TD*%
%TO.N,KEY3*%
D16*
X7364500Y47750700D02*
X5482300Y45868400D01*
X5482300Y45868400D02*
X5482300Y45500300D01*
X5482300Y33000400D02*
X6793000Y31689700D01*
X6793000Y31689700D02*
X6793000Y30607000D01*
%TO.N,KEY4*%
X20205800Y45756300D02*
X22088000Y47638600D01*
X22088000Y47638600D02*
X22088000Y48133700D01*
X20205800Y33256400D02*
X21689800Y31772400D01*
X21689800Y31772400D02*
X21689800Y30808400D01*
%TO.N,SW1_X*%
X12785400Y27722000D02*
X12785400Y24748400D01*
X12785400Y24748400D02*
X12533800Y24496800D01*
%TO.N,SW1_Z*%
X5292400Y6704600D02*
X5952200Y6704600D01*
X9264300Y10016800D02*
X12296200Y6985000D01*
X15764500Y8652500D02*
X15764500Y10016800D01*
X12296200Y6985000D02*
X14097000Y6985000D01*
X14097000Y6985000D02*
X15764500Y8652500D01*
X15764500Y10016800D02*
X19046600Y6734600D01*
%TO.N,GND*%
X21263800Y15766900D02*
X24684200Y15766900D01*
X24684200Y15766900D02*
X25273000Y15178000D01*
%TO.N,SW2_Y*%
X94542800Y36467900D02*
X97350200Y36467900D01*
X97350200Y36467900D02*
X97596100Y36222000D01*
%TO.N,SW2_Z*%
X89043500Y30717800D02*
X90304600Y30717800D01*
X90304600Y30717800D02*
X93091000Y27931400D01*
X82543300Y30717800D02*
X79703600Y27878000D01*
X79703600Y27878000D02*
X78867000Y27878000D01*
%TO.N,KEY2*%
X88467400Y17117800D02*
X90603600Y19254100D01*
X90603600Y19254100D02*
X90603600Y19749200D01*
%TO.N,KEY1*%
X73840900Y17201400D02*
X76208600Y19569100D01*
X76208600Y19569100D02*
X76208600Y19939000D01*
X73840900Y4701600D02*
X75432500Y3110000D01*
X75432500Y3110000D02*
X75432500Y2323000D01*
%TO.N,KEY2*%
X88467400Y4617900D02*
X90486000Y2599300D01*
X90486000Y2599300D02*
X90486000Y2159000D01*
%TO.N,3V3*%
X50527000Y19223000D02*
X50527000Y22046900D01*
X50165000Y18861000D02*
X50527000Y19223000D01*
%TO.N,NRST*%
X52126900Y22046900D02*
X52126900Y18964800D01*
X52012200Y18850200D02*
X52082800Y18920800D01*
X52082800Y18920800D02*
X53743000Y18920800D01*
X52126900Y18964800D02*
X52082800Y18920800D01*
%TO.N,SWCLK*%
X48126900Y30531100D02*
X48133000Y30537200D01*
X48133000Y30537200D02*
X48133000Y31750000D01*
X48133000Y31750000D02*
X47879000Y32004000D01*
%TO.N,USART1_TX*%
X39624000Y44831000D02*
X39751000Y44958000D01*
%TO.N,SPI_SCK*%
X55169100Y25888900D02*
X57003900Y25888900D01*
%TO.N,SPI_MOSI*%
X56063900Y27488900D02*
X55169100Y27488900D01*
X56515000Y27940000D02*
X56063900Y27488900D01*
%TO.N,3V3*%
D17*
X8871300Y47750700D02*
X10269600Y49149000D01*
X24610000Y49149000D02*
X23594800Y48133700D01*
X36540100Y49149000D02*
X37211000Y48478100D01*
X37211000Y48478100D02*
X37211000Y47498000D01*
X24610000Y49149000D02*
X36540100Y49149000D01*
X38890600Y49149000D02*
X39751000Y48288600D01*
X39751000Y48288600D02*
X39751000Y47498000D01*
X36540100Y49149000D02*
X38890600Y49149000D01*
X45555000Y45504000D02*
X41910000Y49149000D01*
X41910000Y49149000D02*
X38890600Y49149000D01*
X48311000Y48260000D02*
X45555000Y45504000D01*
X80210700Y48260000D02*
X48311000Y48260000D01*
X93091000Y21275700D02*
X79052100Y21275700D01*
X79052100Y21275700D02*
X77715400Y19939000D01*
X93091000Y21275700D02*
X93091000Y20729900D01*
X93091000Y20729900D02*
X92110400Y19749200D01*
X80210700Y48260000D02*
X91186000Y48260000D01*
X99187000Y40259000D02*
X99187000Y33274000D01*
X99187000Y33274000D02*
X98366100Y32453100D01*
X91186000Y48260000D02*
X99187000Y40259000D01*
X96736000Y32453100D02*
X95261200Y33927900D01*
X95261200Y33927900D02*
X94542800Y33927900D01*
X99187000Y33274000D02*
X99187000Y29210000D01*
X99187000Y29210000D02*
X96266000Y26289000D01*
X92964000Y26289000D02*
X92837000Y26416000D01*
X96266000Y26289000D02*
X93091000Y26289000D01*
X93091000Y26289000D02*
X92964000Y26289000D01*
X93091000Y26289000D02*
X93091000Y21275700D01*
X15198000Y49149000D02*
X15198000Y33486000D01*
X9844000Y28132000D02*
X9844000Y26924000D01*
X10269600Y49149000D02*
X15198000Y49149000D01*
X15198000Y49149000D02*
X24610000Y49149000D01*
X9844000Y26924000D02*
X9993800Y26774200D01*
X9993800Y26774200D02*
X9993800Y24496800D01*
X11117100Y29405100D02*
X16568900Y29405100D01*
X27559000Y18415000D02*
X27559000Y11811000D01*
X15198000Y33486000D02*
X11117100Y29405100D01*
X11117100Y29405100D02*
X9844000Y28132000D01*
X16568900Y29405100D02*
X27559000Y18415000D01*
X23772100Y11451800D02*
X21997000Y13226900D01*
X21997000Y13226900D02*
X21263800Y13226900D01*
%TO.N,SW1_Z*%
D16*
X19046600Y6734600D02*
X19163500Y6734600D01*
%TO.N,3V3*%
D17*
X27559000Y11811000D02*
X27199800Y11451800D01*
X20819400Y6985000D02*
X26797000Y6985000D01*
X27559000Y7747000D02*
X27559000Y11811000D01*
X26797000Y6985000D02*
X27559000Y7747000D01*
X60960000Y41480400D02*
X62848600Y41480400D01*
X62848600Y41480400D02*
X63008700Y41640400D01*
%TO.N,BAT*%
X63973200Y40005000D02*
X64643000Y40005000D01*
X63008700Y39040400D02*
X63240700Y39272500D01*
X63240700Y39272500D02*
X63240700Y39761100D01*
X63240700Y39761100D02*
X63478500Y39998900D01*
X63478500Y39998900D02*
X63967100Y39998900D01*
X63967100Y39998900D02*
X63973200Y40005000D01*
X64643000Y40005000D02*
X65002200Y39645800D01*
X65002200Y39645800D02*
X65002200Y39134600D01*
X65002200Y39134600D02*
X64908100Y39040400D01*
X65786000Y39918400D02*
X65786000Y40894000D01*
X65786000Y40894000D02*
X66321100Y41429100D01*
X66321100Y41429100D02*
X67248000Y41429100D01*
X65002200Y39134600D02*
X65786000Y39918400D01*
%TO.N,3V3*%
X59309000Y39829400D02*
X59309000Y18669000D01*
X60960000Y41480400D02*
X60366000Y40886300D01*
X60366000Y40886300D02*
X60341800Y40886300D01*
X60341800Y40886300D02*
X60104000Y40648500D01*
X60104000Y40648500D02*
X60104000Y40624400D01*
X60104000Y40624400D02*
X59309000Y39829400D01*
X59309000Y18669000D02*
X58039000Y17399000D01*
X58039000Y17399000D02*
X53758000Y17399000D01*
X53758000Y17399000D02*
X53743000Y17414100D01*
%TO.N,KEY1*%
D16*
X73840900Y17201400D02*
X73840900Y4701600D01*
%TO.N,KEY2*%
X88467400Y17117800D02*
X88467400Y4617900D01*
%TO.N,KEY3*%
X5482300Y45500300D02*
X5482300Y33000400D01*
%TO.N,KEY4*%
X20205800Y45756300D02*
X20205800Y33256400D01*
%TO.N,KEY3*%
X6793000Y30607000D02*
X8317000Y29083000D01*
X8317000Y29083000D02*
X9017000Y29083000D01*
X18796000Y28956000D02*
X18542000Y28956000D01*
%TO.N,SW1_X*%
X12785400Y27722000D02*
X14472500Y26035000D01*
X14472500Y26035000D02*
X18288000Y26035000D01*
X21336000Y26035000D02*
X43815000Y26035000D01*
%TO.N,GND*%
X25273000Y15178000D02*
X26481000Y15178000D01*
X26481000Y15178000D02*
X26543000Y15240000D01*
%TO.N,SW1_Z*%
X5952200Y6704600D02*
X9264300Y10016800D01*
X5292400Y6704600D02*
X10219100Y1778000D01*
%TO.N,GND*%
X53594000Y20447000D02*
X53727100Y20580100D01*
X53727100Y20580100D02*
X53727100Y22046900D01*
X82784500Y44018800D02*
X82695200Y44108100D01*
X82695200Y44108100D02*
X76796500Y44108100D01*
X85812800Y45197800D02*
X84633800Y44018800D01*
X84633800Y44018800D02*
X82784500Y44018800D01*
X58312500Y23590500D02*
X55270600Y23590500D01*
X55270600Y23590500D02*
X55169100Y23488900D01*
%TO.N,SW2_Y*%
X96130600Y37687500D02*
X97350200Y36467900D01*
X79521500Y37687500D02*
X96130600Y37687500D01*
%TO.N,GND*%
X76796500Y44108100D02*
X76796500Y43981100D01*
%TO.N,SW2_Y*%
X61233500Y25368500D02*
X67202500Y25368500D01*
X67202500Y25368500D02*
X79521500Y37687500D01*
%TO.N,GND*%
X76796500Y43981100D02*
X60217500Y27402100D01*
X60217500Y27402100D02*
X60217500Y24606500D01*
%TO.N,SW2_Z*%
X89043500Y30717800D02*
X82543300Y30717800D01*
X78867000Y27878000D02*
X70855000Y27878000D01*
%TO.N,KEY1*%
X71833000Y2323000D02*
X75432500Y2323000D01*
%TO.N,SW2_Z*%
X70855000Y27878000D02*
X65551500Y22574500D01*
X65551500Y22574500D02*
X61233500Y22574500D01*
%TO.N,SW2_Y*%
X55169100Y24289000D02*
X57741000Y24289000D01*
X57741000Y24289000D02*
X58058500Y24606500D01*
%TO.N,SW1_Z*%
X10219100Y1778000D02*
X32436000Y1778000D01*
%TO.N,SPI_SCK*%
X49295500Y38957500D02*
X49295500Y37026500D01*
X49295500Y37026500D02*
X49365000Y36957000D01*
X50057500Y39719500D02*
X49295500Y38957500D01*
X54883500Y39719500D02*
X50057500Y39719500D01*
%TO.N,CE*%
X46825000Y36957000D02*
X46825000Y34697000D01*
X46825000Y34697000D02*
X47263500Y34258500D01*
%TO.N,CSN*%
X48279500Y36772500D02*
X48095000Y36957000D01*
X48279500Y35147500D02*
X48279500Y36772500D01*
X48533500Y34893500D02*
X48279500Y35147500D01*
%TO.N,IRQ*%
X53175000Y36957000D02*
X53666000Y36466000D01*
X53666000Y36466000D02*
X53666000Y35341400D01*
X53666000Y35341400D02*
X53829400Y35178000D01*
X53829400Y35178000D02*
X54954000Y35178000D01*
%TO.N,KEY4*%
X21689800Y30808400D02*
X24209100Y28289000D01*
X24209100Y28289000D02*
X46684900Y28289000D01*
%TO.N,KEY3*%
X20224500Y27527500D02*
X18796000Y28956000D01*
X46684900Y27488900D02*
X46646400Y27527500D01*
X46646400Y27527500D02*
X20224500Y27527500D01*
%TO.N,SW2_Z*%
X56915500Y24987500D02*
X56813900Y25089100D01*
X56813900Y25089100D02*
X55169100Y25089100D01*
%TO.N,IRQ*%
X55169100Y29592100D02*
X55169100Y29089100D01*
X55264500Y29940500D02*
X55264500Y29687500D01*
X55264500Y29687500D02*
X55169100Y29592100D01*
%TO.N,CE*%
X52851500Y30606600D02*
X52927000Y30531100D01*
%TO.N,3V3*%
D17*
X53743000Y17414100D02*
X51029400Y14700500D01*
X51029400Y14700500D02*
X49307500Y14700500D01*
X49307500Y14700500D02*
X48325000Y15683000D01*
X48325000Y15683000D02*
X48325000Y18353000D01*
X48325000Y18353000D02*
X48833000Y18861000D01*
%TO.N,KEY2*%
D16*
X88708000Y3937000D02*
X81966000Y3937000D01*
X81966000Y3937000D02*
X80791500Y2762500D01*
X90486000Y2159000D02*
X88708000Y3937000D01*
X80791500Y2762500D02*
X77637600Y2762500D01*
X77637600Y2762500D02*
X77348100Y3052000D01*
X77348100Y3052000D02*
X76317000Y3052000D01*
X76111500Y1757400D02*
X75948000Y1594000D01*
X75948000Y1594000D02*
X74916900Y1594000D01*
X74916900Y1594000D02*
X74543900Y1967000D01*
X74543900Y1967000D02*
X71685500Y1967000D01*
X71685500Y1967000D02*
X70890000Y2762500D01*
X70890000Y2762500D02*
X69869500Y2762500D01*
X76317000Y3052000D02*
X76111500Y2846500D01*
X76111500Y2846500D02*
X76111500Y1757400D01*
X69869500Y2762500D02*
X57296500Y15335500D01*
%TO.N,SW1_X*%
X52927000Y24023000D02*
X52927000Y22046900D01*
%TO.N,KEY1*%
X58439500Y15716500D02*
X71833000Y2323000D01*
%TO.N,KEY2*%
X49803500Y23336500D02*
X49803500Y22123300D01*
X49803500Y22123300D02*
X49727100Y22046900D01*
%TO.N,KEY1*%
X48914500Y24225500D02*
X48914500Y22059500D01*
X48914500Y22059500D02*
X48927000Y22046900D01*
%TO.N,3V3*%
X44069000Y37592000D02*
X45209700Y37592000D01*
X45209700Y37592000D02*
X45555000Y37937300D01*
%TO.N,I2C_SDA*%
X45593000Y21463000D02*
X47797000Y21463000D01*
X47797000Y21463000D02*
X48126900Y21792900D01*
X48126900Y21792900D02*
X48126900Y22046900D01*
%TO.N,SW1_X*%
X48253500Y26028500D02*
X50921500Y26028500D01*
X50921500Y26028500D02*
X52927000Y24023000D01*
%TO.N,SW1_Z*%
X45085000Y23368000D02*
X45205900Y23488900D01*
X45205900Y23488900D02*
X46684900Y23488900D01*
%TO.N,GND*%
X28702000Y15240000D02*
X41910000Y15240000D01*
X41910000Y15240000D02*
X46990000Y20320000D01*
%TO.N,SW1_Z*%
X32436000Y1778000D02*
X45085000Y14427000D01*
X45085000Y14427000D02*
X45085000Y16637000D01*
%TO.N,BAT*%
D17*
X63008700Y39040400D02*
X63008700Y37862700D01*
X63008700Y37862700D02*
X62484000Y37338000D01*
%TO.N,USART1_TX*%
D16*
X46589400Y33528000D02*
X39624000Y40493400D01*
X39624000Y40493400D02*
X39624000Y44831000D01*
%TO.N,SWDIO*%
X37211000Y44958000D02*
X37211000Y41910000D01*
X37211000Y41910000D02*
X46228000Y32893000D01*
%TO.N,SWCLK*%
X47879000Y32004000D02*
X46101000Y32004000D01*
X46101000Y32004000D02*
X34671000Y43434000D01*
X34671000Y43434000D02*
X34671000Y44958000D01*
X46684900Y29089100D02*
X46684900Y30531100D01*
X46684900Y30531100D02*
X32258000Y44958000D01*
X32258000Y44958000D02*
X32131000Y44958000D01*
%TO.N,3V3*%
X41275000Y34290000D02*
X41402000Y34163000D01*
X41402000Y34163000D02*
X41402000Y30988000D01*
D17*
X27199800Y11451800D02*
X23772100Y11451800D01*
X83272800Y45197800D02*
X80210700Y48260000D01*
X98366100Y32453100D02*
X96736000Y32453100D01*
X48833000Y18861000D02*
X50165000Y18861000D01*
%TO.N,I2C_SCL*%
D16*
X46684900Y25089100D02*
X38884400Y25089100D01*
%TO.N,I2C_SDA*%
X36576000Y24130000D02*
X42926000Y24130000D01*
X42926000Y24130000D02*
X45593000Y21463000D01*
%TO.N,SWDIO*%
X46228000Y32893000D02*
X49149000Y32893000D01*
X49149000Y32893000D02*
X50527000Y31515100D01*
X50527000Y31515100D02*
X50527000Y30531100D01*
%TO.N,USART1_TX*%
X52126900Y30531100D02*
X52126900Y31439100D01*
X52126900Y31439100D02*
X50038000Y33528000D01*
X50038000Y33528000D02*
X46589400Y33528000D01*
%TO.N,CE*%
X47263500Y34258500D02*
X50196500Y34258500D01*
X50196500Y34258500D02*
X52851500Y31603500D01*
X52851500Y31603500D02*
X52851500Y30606600D01*
%TO.N,CSN*%
X53727100Y30531100D02*
X53727100Y31616900D01*
X53727100Y31616900D02*
X50450500Y34893500D01*
X50450500Y34893500D02*
X48533500Y34893500D01*
%TO.N,SPI_MOSI*%
X50635000Y36957000D02*
X50635000Y35598000D01*
X50635000Y35598000D02*
X56515000Y29718000D01*
X56515000Y29718000D02*
X56515000Y27940000D01*
%TO.N,IRQ*%
X54954000Y35178000D02*
X55264500Y34867500D01*
X55264500Y34867500D02*
X55264500Y33369500D01*
%TO.N,GND*%
X52032000Y36830000D02*
X52032000Y35344000D01*
X52032000Y35344000D02*
X57277000Y30099000D01*
X57277000Y30099000D02*
X57277000Y27305000D01*
X57277000Y27305000D02*
X56788100Y26816100D01*
X56788100Y26816100D02*
X55296100Y26816100D01*
X51905000Y36957000D02*
X52032000Y36830000D01*
X55296100Y26816100D02*
X55169100Y26689000D01*
%TO.N,SPI_SCK*%
X57003900Y25888900D02*
X58039000Y26924000D01*
X58039000Y26924000D02*
X58039000Y36564000D01*
X58039000Y36564000D02*
X54883500Y39719500D01*
%TO.N,3V3*%
D17*
X48774200Y41480400D02*
X60960000Y41480400D01*
X45555000Y38261200D02*
X48774200Y41480400D01*
X45555000Y36957000D02*
X45555000Y37937300D01*
X45555000Y37937300D02*
X45555000Y38261200D01*
X45555000Y38261200D02*
X45555000Y45504000D01*
%TD*%
M02*
