%TF.GenerationSoftware,KiCad,Pcbnew,10.99.0-unknown*%
%TF.CreationDate,2026-08-12T15:24:40+08:00*%
%TF.ProjectId,___KVM____________HDMI,f3c6914b-564d-4076-9268-5f49a40121df,rev?*%
%TF.SameCoordinates,Original*%
%TF.FileFunction,Other,User*%
%FSLAX46Y46*%
G04 Gerber Fmt 4.6, Leading zero omitted, Abs format (unit mm)*
G04 Created by KiCad (PCBNEW 10.99.0-unknown) date 2026-08-12 15:24:40*
%MOMM*%
%LPD*%
G01*
G04 APERTURE LIST*
%ADD10C,0.050000*%
G04 APERTURE END LIST*
%TO.C,CN1*%
D10*
X144468000Y-235668000D02*
X151188000Y-235668000D01*
X151188000Y-242868000D01*
X144468000Y-242868000D01*
X144468000Y-235668000D01*
%TO.C,U3*%
X118419000Y-236275000D02*
X123389000Y-236275000D01*
X123389000Y-241245000D01*
X118419000Y-241245000D01*
X118419000Y-236275000D01*
%TO.C,U5*%
X237796052Y-226660281D02*
X241316052Y-226660281D01*
X241316052Y-231460281D01*
X237796052Y-231460281D01*
X237796052Y-226660281D01*
%TO.C,U6*%
X45333699Y-226533281D02*
X48853699Y-226533281D01*
X48853699Y-231333281D01*
X45333699Y-231333281D01*
X45333699Y-226533281D01*
%TO.C,U7*%
X45657348Y-146396281D02*
X49177348Y-146396281D01*
X49177348Y-151196281D01*
X45657348Y-151196281D01*
X45657348Y-146396281D01*
%TO.C,U8*%
X237242995Y-146777281D02*
X240762995Y-146777281D01*
X240762995Y-151577281D01*
X237242995Y-151577281D01*
X237242995Y-146777281D01*
%TO.C,CN2*%
X101796000Y-235668000D02*
X108516000Y-235668000D01*
X108516000Y-242868000D01*
X101796000Y-242868000D01*
X101796000Y-235668000D01*
%TO.C,CN3*%
X60140000Y-235668000D02*
X66860000Y-235668000D01*
X66860000Y-242868000D01*
X60140000Y-242868000D01*
X60140000Y-235668000D01*
%TO.C,LED3*%
X53389744Y-240344639D02*
X55089744Y-240344639D01*
X55089744Y-243344639D01*
X53389744Y-243344639D01*
X53389744Y-240344639D01*
%TO.C,LED2*%
X94712052Y-240260693D02*
X96412052Y-240260693D01*
X96412052Y-243260693D01*
X94712052Y-243260693D01*
X94712052Y-240260693D01*
%TO.C,LED1*%
X137463744Y-240585673D02*
X139163744Y-240585673D01*
X139163744Y-243585673D01*
X137463744Y-243585673D01*
X137463744Y-240585673D01*
%TO.C,D1*%
X141009000Y-230148000D02*
X142709000Y-230148000D01*
X142709000Y-233148000D01*
X141009000Y-233148000D01*
X141009000Y-230148000D01*
%TO.C,D2*%
X97956000Y-230402000D02*
X99656000Y-230402000D01*
X99656000Y-233402000D01*
X97956000Y-233402000D01*
X97956000Y-230402000D01*
%TO.C,D3*%
X55030000Y-229894000D02*
X56730000Y-229894000D01*
X56730000Y-232894000D01*
X55030000Y-232894000D01*
X55030000Y-229894000D01*
%TO.C,C6*%
X163600000Y-230544000D02*
X166600000Y-230544000D01*
X166600000Y-232244000D01*
X163600000Y-232244000D01*
X163600000Y-230544000D01*
%TO.C,U1*%
X100661000Y-212280000D02*
X113461000Y-212280000D01*
X113461000Y-224600000D01*
X100661000Y-224600000D01*
X100661000Y-212280000D01*
%TO.C,LED4*%
X180113938Y-240737692D02*
X181813938Y-240737692D01*
X181813938Y-243737692D01*
X180113938Y-243737692D01*
X180113938Y-240737692D01*
%TO.C,LED5*%
X222680744Y-240966673D02*
X224380744Y-240966673D01*
X224380744Y-243966673D01*
X222680744Y-243966673D01*
X222680744Y-240966673D01*
%TO.C,D4*%
X182792000Y-229259000D02*
X184492000Y-229259000D01*
X184492000Y-232259000D01*
X182792000Y-232259000D01*
X182792000Y-229259000D01*
%TO.C,D5*%
X215050000Y-226973000D02*
X216750000Y-226973000D01*
X216750000Y-229973000D01*
X215050000Y-229973000D01*
X215050000Y-226973000D01*
%TO.C,U4*%
X203636000Y-236529000D02*
X208606000Y-236529000D01*
X208606000Y-241499000D01*
X203636000Y-241499000D01*
X203636000Y-236529000D01*
%TO.C,U2*%
X180544000Y-206438000D02*
X193344000Y-206438000D01*
X193344000Y-218758000D01*
X180544000Y-218758000D01*
X180544000Y-206438000D01*
%TO.C,CN4*%
X187140000Y-235668000D02*
X193860000Y-235668000D01*
X193860000Y-242868000D01*
X187140000Y-242868000D01*
X187140000Y-235668000D01*
%TO.C,CN5*%
X229812000Y-235668000D02*
X236532000Y-235668000D01*
X236532000Y-242868000D01*
X229812000Y-242868000D01*
X229812000Y-235668000D01*
%TO.C,R52*%
X173506000Y-178601000D02*
X176506000Y-178601000D01*
X176506000Y-180301000D01*
X173506000Y-180301000D01*
X173506000Y-178601000D01*
%TO.C,U29*%
X118504000Y-164972000D02*
X123304000Y-164972000D01*
X123304000Y-169292000D01*
X118504000Y-169292000D01*
X118504000Y-164972000D01*
%TO.C,R121*%
X125500000Y-164747002D02*
X128500000Y-164747002D01*
X128500000Y-166447002D01*
X125500000Y-166447002D01*
X125500000Y-164747002D01*
%TO.C,R122*%
X125500000Y-166144002D02*
X128500000Y-166144002D01*
X128500000Y-167844002D01*
X125500000Y-167844002D01*
X125500000Y-166144002D01*
%TO.C,R123*%
X125500000Y-167414002D02*
X128500000Y-167414002D01*
X128500000Y-169114002D01*
X125500000Y-169114002D01*
X125500000Y-167414002D01*
%TO.C,R126*%
X125500000Y-163350002D02*
X128500000Y-163350002D01*
X128500000Y-165050002D01*
X125500000Y-165050002D01*
X125500000Y-163350002D01*
%TO.C,C94*%
X112900482Y-169965000D02*
X115900482Y-169965000D01*
X115900482Y-171665000D01*
X112900482Y-171665000D01*
X112900482Y-169965000D01*
%TO.C,C104*%
X113662482Y-163742000D02*
X116662482Y-163742000D01*
X116662482Y-165442000D01*
X113662482Y-165442000D01*
X113662482Y-163742000D01*
%TO.C,R112*%
X110910000Y-169315000D02*
X112610000Y-169315000D01*
X112610000Y-172315000D01*
X110910000Y-172315000D01*
X110910000Y-169315000D01*
%TO.C,R131*%
X111037000Y-165886000D02*
X112737000Y-165886000D01*
X112737000Y-168886000D01*
X111037000Y-168886000D01*
X111037000Y-165886000D01*
%TO.C,C103*%
X103517482Y-170839000D02*
X105217482Y-170839000D01*
X105217482Y-173839000D01*
X103517482Y-173839000D01*
X103517482Y-170839000D01*
%TO.C,C102*%
X103517482Y-166902000D02*
X105217482Y-166902000D01*
X105217482Y-169902000D01*
X103517482Y-169902000D01*
X103517482Y-166902000D01*
%TO.C,R117*%
X100454482Y-170219000D02*
X103454482Y-170219000D01*
X103454482Y-171919000D01*
X100454482Y-171919000D01*
X100454482Y-170219000D01*
%TO.C,R124*%
X100454482Y-168822000D02*
X103454482Y-168822000D01*
X103454482Y-170522000D01*
X100454482Y-170522000D01*
X100454482Y-168822000D01*
%TO.C,C97*%
X105788482Y-170346000D02*
X108788482Y-170346000D01*
X108788482Y-172046000D01*
X105788482Y-172046000D01*
X105788482Y-170346000D01*
%TO.C,C98*%
X105788482Y-168568000D02*
X108788482Y-168568000D01*
X108788482Y-170268000D01*
X105788482Y-170268000D01*
X105788482Y-168568000D01*
%TO.C,R49*%
X174014000Y-179998000D02*
X177014000Y-179998000D01*
X177014000Y-181698000D01*
X174014000Y-181698000D01*
X174014000Y-179998000D01*
%TO.C,R26*%
X154202000Y-180633000D02*
X157202000Y-180633000D01*
X157202000Y-182333000D01*
X154202000Y-182333000D01*
X154202000Y-180633000D01*
%TO.C,R27*%
X154202000Y-179236000D02*
X157202000Y-179236000D01*
X157202000Y-180936000D01*
X154202000Y-180936000D01*
X154202000Y-179236000D01*
%TO.C,R39*%
X150773000Y-157002364D02*
X153773000Y-157002364D01*
X153773000Y-158702364D01*
X150773000Y-158702364D01*
X150773000Y-157002364D01*
%TO.C,R35*%
X153821000Y-157011000D02*
X156821000Y-157011000D01*
X156821000Y-158711000D01*
X153821000Y-158711000D01*
X153821000Y-157011000D01*
%TO.C,R43*%
X150773000Y-158535000D02*
X153773000Y-158535000D01*
X153773000Y-160235000D01*
X150773000Y-160235000D01*
X150773000Y-158535000D01*
%TO.C,U12*%
X187421277Y-182737779D02*
X193821277Y-182737779D01*
X193821277Y-188657779D01*
X187421277Y-188657779D01*
X187421277Y-182737779D01*
%TO.C,R34*%
X195471277Y-184466779D02*
X198471277Y-184466779D01*
X198471277Y-186166779D01*
X195471277Y-186166779D01*
X195471277Y-184466779D01*
%TO.C,C45*%
X196360277Y-180148779D02*
X199360277Y-180148779D01*
X199360277Y-181848779D01*
X196360277Y-181848779D01*
X196360277Y-180148779D01*
%TO.C,R32*%
X181755277Y-184847779D02*
X184755277Y-184847779D01*
X184755277Y-186547779D01*
X181755277Y-186547779D01*
X181755277Y-184847779D01*
%TO.C,R31*%
X181704058Y-183453675D02*
X184704058Y-183453675D01*
X184704058Y-185153675D01*
X181704058Y-185153675D01*
X181704058Y-183453675D01*
%TO.C,R38*%
X192658025Y-179240411D02*
X194358025Y-179240411D01*
X194358025Y-182240411D01*
X192658025Y-182240411D01*
X192658025Y-179240411D01*
%TO.C,U9*%
X187737414Y-157131759D02*
X191177314Y-157131759D01*
X191177314Y-160674159D01*
X187737414Y-160674159D01*
X187737414Y-157131759D01*
%TO.C,C22*%
X185459000Y-157250000D02*
X187159000Y-157250000D01*
X187159000Y-160250000D01*
X185459000Y-160250000D01*
X185459000Y-157250000D01*
%TO.C,R24*%
X193079000Y-159917000D02*
X194779000Y-159917000D01*
X194779000Y-162917000D01*
X193079000Y-162917000D01*
X193079000Y-159917000D01*
%TO.C,R23*%
X191555000Y-159917000D02*
X193255000Y-159917000D01*
X193255000Y-162917000D01*
X191555000Y-162917000D01*
X191555000Y-159917000D01*
%TO.C,R22*%
X187237000Y-161187000D02*
X188937000Y-161187000D01*
X188937000Y-164187000D01*
X187237000Y-164187000D01*
X187237000Y-161187000D01*
%TO.C,R25*%
X185713000Y-161187000D02*
X187413000Y-161187000D01*
X187413000Y-164187000D01*
X185713000Y-164187000D01*
X185713000Y-161187000D01*
%TO.C,C23*%
X197016000Y-156869000D02*
X198716000Y-156869000D01*
X198716000Y-159869000D01*
X197016000Y-159869000D01*
X197016000Y-156869000D01*
%TO.C,L1*%
X192683000Y-156630000D02*
X195683000Y-156630000D01*
X195683000Y-158330000D01*
X192683000Y-158330000D01*
X192683000Y-156630000D01*
%TO.C,C20*%
X181522000Y-157631000D02*
X183222000Y-157631000D01*
X183222000Y-160631000D01*
X181522000Y-160631000D01*
X181522000Y-157631000D01*
%TO.C,C25*%
X201207000Y-157250000D02*
X202907000Y-157250000D01*
X202907000Y-160250000D01*
X201207000Y-160250000D01*
X201207000Y-157250000D01*
%TO.C,C21*%
X183427000Y-157631000D02*
X185127000Y-157631000D01*
X185127000Y-160631000D01*
X183427000Y-160631000D01*
X183427000Y-157631000D01*
%TO.C,C24*%
X199175000Y-157250000D02*
X200875000Y-157250000D01*
X200875000Y-160250000D01*
X199175000Y-160250000D01*
X199175000Y-157250000D01*
%TO.C,R30*%
X195471277Y-187260779D02*
X198471277Y-187260779D01*
X198471277Y-188960779D01*
X195471277Y-188960779D01*
X195471277Y-187260779D01*
%TO.C,C44*%
X170204000Y-184697000D02*
X173204000Y-184697000D01*
X173204000Y-186397000D01*
X170204000Y-186397000D01*
X170204000Y-184697000D01*
%TO.C,C42*%
X170585000Y-188126000D02*
X173585000Y-188126000D01*
X173585000Y-189826000D01*
X170585000Y-189826000D01*
X170585000Y-188126000D01*
%TO.C,C38*%
X167425000Y-181888000D02*
X169125000Y-181888000D01*
X169125000Y-184888000D01*
X167425000Y-184888000D01*
X167425000Y-181888000D01*
%TO.C,C35*%
X167425000Y-184809000D02*
X169125000Y-184809000D01*
X169125000Y-187809000D01*
X167425000Y-187809000D01*
X167425000Y-184809000D01*
%TO.C,C33*%
X158535000Y-183412000D02*
X160235000Y-183412000D01*
X160235000Y-186412000D01*
X158535000Y-186412000D01*
X158535000Y-183412000D01*
%TO.C,C34*%
X159297000Y-171982000D02*
X160997000Y-171982000D01*
X160997000Y-174982000D01*
X159297000Y-174982000D01*
X159297000Y-171982000D01*
%TO.C,C36*%
X166790000Y-170077000D02*
X168490000Y-170077000D01*
X168490000Y-173077000D01*
X166790000Y-173077000D01*
X166790000Y-170077000D01*
%TO.C,C39*%
X168441494Y-171494410D02*
X171441494Y-171494410D01*
X171441494Y-173194410D01*
X168441494Y-173194410D01*
X168441494Y-171494410D01*
%TO.C,C41*%
X196360277Y-182434779D02*
X199360277Y-182434779D01*
X199360277Y-184134779D01*
X196360277Y-184134779D01*
X196360277Y-182434779D01*
%TO.C,R33*%
X195471277Y-185863779D02*
X198471277Y-185863779D01*
X198471277Y-187563779D01*
X195471277Y-187563779D01*
X195471277Y-185863779D01*
%TO.C,C37*%
X196614277Y-189292779D02*
X199614277Y-189292779D01*
X199614277Y-190992779D01*
X196614277Y-190992779D01*
X196614277Y-189292779D01*
%TO.C,C49*%
X169584000Y-180999000D02*
X171284000Y-180999000D01*
X171284000Y-183999000D01*
X169584000Y-183999000D01*
X169584000Y-180999000D01*
%TO.C,C30*%
X154202000Y-177712000D02*
X157202000Y-177712000D01*
X157202000Y-179412000D01*
X154202000Y-179412000D01*
X154202000Y-177712000D01*
%TO.C,C31*%
X154202000Y-176061000D02*
X157202000Y-176061000D01*
X157202000Y-177761000D01*
X154202000Y-177761000D01*
X154202000Y-176061000D01*
%TO.C,C32*%
X154202000Y-182157000D02*
X157202000Y-182157000D01*
X157202000Y-183857000D01*
X154202000Y-183857000D01*
X154202000Y-182157000D01*
%TO.C,R47*%
X174903000Y-170346000D02*
X177903000Y-170346000D01*
X177903000Y-172046000D01*
X174903000Y-172046000D01*
X174903000Y-170346000D01*
%TO.C,R44*%
X176554000Y-168949000D02*
X179554000Y-168949000D01*
X179554000Y-170649000D01*
X176554000Y-170649000D01*
X176554000Y-168949000D01*
%TO.C,R48*%
X178093000Y-170966000D02*
X179793000Y-170966000D01*
X179793000Y-173966000D01*
X178093000Y-173966000D01*
X178093000Y-170966000D01*
%TO.C,R45*%
X173760000Y-167552000D02*
X176760000Y-167552000D01*
X176760000Y-169252000D01*
X173760000Y-169252000D01*
X173760000Y-167552000D01*
%TO.C,CN6*%
X139896000Y-146768000D02*
X146616000Y-146768000D01*
X146616000Y-153968000D01*
X139896000Y-153968000D01*
X139896000Y-146768000D01*
%TO.C,R42*%
X150764364Y-155487000D02*
X153764364Y-155487000D01*
X153764364Y-157187000D01*
X150764364Y-157187000D01*
X150764364Y-155487000D01*
%TO.C,R37*%
X151423000Y-152424000D02*
X153123000Y-152424000D01*
X153123000Y-155424000D01*
X151423000Y-155424000D01*
X151423000Y-152424000D01*
%TO.C,R41*%
X173506000Y-175680000D02*
X176506000Y-175680000D01*
X176506000Y-177380000D01*
X173506000Y-177380000D01*
X173506000Y-175680000D01*
%TO.C,R40*%
X173506000Y-177077000D02*
X176506000Y-177077000D01*
X176506000Y-178777000D01*
X173506000Y-178777000D01*
X173506000Y-177077000D01*
%TO.C,C142*%
X201334000Y-165378000D02*
X203034000Y-165378000D01*
X203034000Y-168378000D01*
X201334000Y-168378000D01*
X201334000Y-165378000D01*
%TO.C,C47*%
X176681000Y-165647000D02*
X179681000Y-165647000D01*
X179681000Y-167347000D01*
X176681000Y-167347000D01*
X176681000Y-165647000D01*
%TO.C,R28*%
X181755277Y-187641779D02*
X184755277Y-187641779D01*
X184755277Y-189341779D01*
X181755277Y-189341779D01*
X181755277Y-187641779D01*
%TO.C,R29*%
X181755277Y-186244779D02*
X184755277Y-186244779D01*
X184755277Y-187944779D01*
X181755277Y-187944779D01*
X181755277Y-186244779D01*
%TO.C,R51*%
X173506000Y-182665000D02*
X176506000Y-182665000D01*
X176506000Y-184365000D01*
X173506000Y-184365000D01*
X173506000Y-182665000D01*
%TO.C,C95*%
X115228000Y-166510002D02*
X116928000Y-166510002D01*
X116928000Y-169510002D01*
X115228000Y-169510002D01*
X115228000Y-166510002D01*
%TO.C,C99*%
X122071000Y-163223002D02*
X125071000Y-163223002D01*
X125071000Y-164923002D01*
X122071000Y-164923002D01*
X122071000Y-163223002D01*
%TO.C,U11*%
X158967204Y-173406616D02*
X169817204Y-173406616D01*
X169817204Y-183776616D01*
X158967204Y-183776616D01*
X158967204Y-173406616D01*
%TO.C,R46*%
X176554000Y-167552000D02*
X179554000Y-167552000D01*
X179554000Y-169252000D01*
X176554000Y-169252000D01*
X176554000Y-167552000D01*
%TO.C,Q1*%
X174416000Y-171891000D02*
X177366000Y-171891000D01*
X177366000Y-175073000D01*
X174416000Y-175073000D01*
X174416000Y-171891000D01*
%TO.C,Q2*%
X176971000Y-174670000D02*
X180153000Y-174670000D01*
X180153000Y-177620000D01*
X176971000Y-177620000D01*
X176971000Y-174670000D01*
%TO.C,R36*%
X181710487Y-181948217D02*
X184710487Y-181948217D01*
X184710487Y-183648217D01*
X181710487Y-183648217D01*
X181710487Y-181948217D01*
%TO.C,R50*%
X174014000Y-181268000D02*
X177014000Y-181268000D01*
X177014000Y-182968000D01*
X174014000Y-182968000D01*
X174014000Y-181268000D01*
%TO.C,C46*%
X155599000Y-159424000D02*
X158599000Y-159424000D01*
X158599000Y-161124000D01*
X155599000Y-161124000D01*
X155599000Y-159424000D01*
%TO.C,CN7*%
X225251000Y-153041800D02*
X228690900Y-153041800D01*
X228690900Y-156584200D01*
X225251000Y-156584200D01*
X225251000Y-153041800D01*
%TO.C,U25*%
X212592000Y-174478000D02*
X218192000Y-174478000D01*
X218192000Y-179598000D01*
X212592000Y-179598000D01*
X212592000Y-174478000D01*
%TO.C,U26*%
X212227091Y-189828909D02*
X217827091Y-189828909D01*
X217827091Y-194948909D01*
X212227091Y-194948909D01*
X212227091Y-189828909D01*
%TO.C,U22*%
X230511800Y-171911000D02*
X234054200Y-171911000D01*
X234054200Y-175350900D01*
X230511800Y-175350900D01*
X230511800Y-171911000D01*
%TO.C,C63*%
X224702000Y-175030000D02*
X226402000Y-175030000D01*
X226402000Y-178030000D01*
X224702000Y-178030000D01*
X224702000Y-175030000D01*
%TO.C,U23*%
X230892800Y-218901000D02*
X234435200Y-218901000D01*
X234435200Y-222340900D01*
X230892800Y-222340900D01*
X230892800Y-218901000D01*
%TO.C,C80*%
X211622091Y-197634909D02*
X214622091Y-197634909D01*
X214622091Y-199334909D01*
X211622091Y-199334909D01*
X211622091Y-197634909D01*
%TO.C,U24*%
X230892800Y-195279000D02*
X234435200Y-195279000D01*
X234435200Y-198718900D01*
X230892800Y-198718900D01*
X230892800Y-195279000D01*
%TO.C,R59*%
X197056423Y-176116423D02*
X200056423Y-176116423D01*
X200056423Y-177816423D01*
X197056423Y-177816423D01*
X197056423Y-176116423D01*
%TO.C,J1*%
X99193800Y-148245100D02*
X102736200Y-148245100D01*
X102736200Y-151685000D01*
X99193800Y-151685000D01*
X99193800Y-148245100D01*
%TO.C,J4*%
X46264100Y-171964800D02*
X49704000Y-171964800D01*
X49704000Y-175507200D01*
X46264100Y-175507200D01*
X46264100Y-171964800D01*
%TO.C,J3*%
X46518100Y-195332800D02*
X49958000Y-195332800D01*
X49958000Y-198875200D01*
X46518100Y-198875200D01*
X46518100Y-195332800D01*
%TO.C,J2*%
X46264100Y-218954800D02*
X49704000Y-218954800D01*
X49704000Y-222497200D01*
X46264100Y-222497200D01*
X46264100Y-218954800D01*
%TO.C,R107*%
X54978000Y-149261800D02*
X59068000Y-149261800D01*
X59068000Y-152998200D01*
X54978000Y-152998200D01*
X54978000Y-149261800D01*
%TO.C,U28*%
X86315875Y-195836403D02*
X91915875Y-195836403D01*
X91915875Y-200956403D01*
X86315875Y-200956403D01*
X86315875Y-195836403D01*
%TO.C,K5*%
X71302000Y-204906000D02*
X76272000Y-204906000D01*
X76272000Y-209876000D01*
X71302000Y-209876000D01*
X71302000Y-204906000D01*
%TO.C,K4*%
X71302000Y-212399000D02*
X76272000Y-212399000D01*
X76272000Y-217369000D01*
X71302000Y-217369000D01*
X71302000Y-212399000D01*
%TO.C,Q4*%
X82373060Y-207306060D02*
X85323060Y-207306060D01*
X85323060Y-210488060D01*
X82373060Y-210488060D01*
X82373060Y-207306060D01*
%TO.C,D8*%
X80430000Y-210971000D02*
X82130000Y-210971000D01*
X82130000Y-213971000D01*
X80430000Y-213971000D01*
X80430000Y-210971000D01*
%TO.C,K7*%
X71302000Y-189539000D02*
X76272000Y-189539000D01*
X76272000Y-194509000D01*
X71302000Y-194509000D01*
X71302000Y-189539000D01*
%TO.C,K6*%
X71302000Y-197032000D02*
X76272000Y-197032000D01*
X76272000Y-202002000D01*
X71302000Y-202002000D01*
X71302000Y-197032000D01*
%TO.C,Q5*%
X81467000Y-189791000D02*
X84649000Y-189791000D01*
X84649000Y-192741000D01*
X81467000Y-192741000D01*
X81467000Y-189791000D01*
%TO.C,D9*%
X80430000Y-194715000D02*
X82130000Y-194715000D01*
X82130000Y-197715000D01*
X80430000Y-197715000D01*
X80430000Y-194715000D01*
%TO.C,K9*%
X71302000Y-174172000D02*
X76272000Y-174172000D01*
X76272000Y-179142000D01*
X71302000Y-179142000D01*
X71302000Y-174172000D01*
%TO.C,K8*%
X71302000Y-181665000D02*
X76272000Y-181665000D01*
X76272000Y-186635000D01*
X71302000Y-186635000D01*
X71302000Y-181665000D01*
%TO.C,Q6*%
X81042243Y-175396243D02*
X84224243Y-175396243D01*
X84224243Y-178346243D01*
X81042243Y-178346243D01*
X81042243Y-175396243D01*
%TO.C,D10*%
X80430000Y-180110000D02*
X82130000Y-180110000D01*
X82130000Y-183110000D01*
X80430000Y-183110000D01*
X80430000Y-180110000D01*
%TO.C,K11*%
X95940000Y-180649000D02*
X100910000Y-180649000D01*
X100910000Y-185619000D01*
X95940000Y-185619000D01*
X95940000Y-180649000D01*
%TO.C,K10*%
X88447000Y-180649000D02*
X93417000Y-180649000D01*
X93417000Y-185619000D01*
X88447000Y-185619000D01*
X88447000Y-180649000D01*
%TO.C,Q7*%
X97200000Y-190560000D02*
X100150000Y-190560000D01*
X100150000Y-193742000D01*
X97200000Y-193742000D01*
X97200000Y-190560000D01*
%TO.C,D11*%
X92861000Y-189777000D02*
X95861000Y-189777000D01*
X95861000Y-191477000D01*
X92861000Y-191477000D01*
X92861000Y-189777000D01*
%TO.C,K1*%
X71696970Y-160304870D02*
X76666970Y-160304870D01*
X76666970Y-165274870D01*
X71696970Y-165274870D01*
X71696970Y-160304870D01*
%TO.C,D6*%
X80938000Y-161314000D02*
X82638000Y-161314000D01*
X82638000Y-164314000D01*
X80938000Y-164314000D01*
X80938000Y-161314000D01*
%TO.C,USB1*%
X182098000Y-146044000D02*
X187218000Y-146044000D01*
X187218000Y-151644000D01*
X182098000Y-151644000D01*
X182098000Y-146044000D01*
%TO.C,U13*%
X131030000Y-184003000D02*
X140750000Y-184003000D01*
X140750000Y-194203000D01*
X131030000Y-194203000D01*
X131030000Y-184003000D01*
%TO.C,U17*%
X138229000Y-175440000D02*
X141679000Y-175440000D01*
X141679000Y-178890000D01*
X138229000Y-178890000D01*
X138229000Y-175440000D01*
%TO.C,U14*%
X151284856Y-197878856D02*
X154466856Y-197878856D01*
X154466856Y-200828856D01*
X151284856Y-200828856D01*
X151284856Y-197878856D01*
%TO.C,C50*%
X122960000Y-196127000D02*
X125960000Y-196127000D01*
X125960000Y-197827000D01*
X122960000Y-197827000D01*
X122960000Y-196127000D01*
%TO.C,SW1*%
X150407000Y-187984000D02*
X152107000Y-187984000D01*
X152107000Y-190984000D01*
X150407000Y-190984000D01*
X150407000Y-187984000D01*
%TO.C,U20*%
X154365000Y-189029000D02*
X157547000Y-189029000D01*
X157547000Y-191979000D01*
X154365000Y-191979000D01*
X154365000Y-189029000D01*
%TO.C,X1*%
X128421000Y-198540000D02*
X131421000Y-198540000D01*
X131421000Y-200240000D01*
X128421000Y-200240000D01*
X128421000Y-198540000D01*
%TO.C,C57*%
X192571000Y-149757000D02*
X194271000Y-149757000D01*
X194271000Y-152757000D01*
X192571000Y-152757000D01*
X192571000Y-149757000D01*
%TO.C,SW2*%
X199179269Y-146618000D02*
X202129269Y-146618000D01*
X202129269Y-149800000D01*
X199179269Y-149800000D01*
X199179269Y-146618000D01*
%TO.C,C66*%
X226601590Y-197524494D02*
X228301590Y-197524494D01*
X228301590Y-200524494D01*
X226601590Y-200524494D01*
X226601590Y-197524494D01*
%TO.C,C68*%
X200104423Y-176116423D02*
X203104423Y-176116423D01*
X203104423Y-177816423D01*
X200104423Y-177816423D01*
X200104423Y-176116423D01*
%TO.C,C69*%
X206342423Y-176228423D02*
X208042423Y-176228423D01*
X208042423Y-179228423D01*
X206342423Y-179228423D01*
X206342423Y-176228423D01*
%TO.C,C73*%
X203140651Y-174719917D02*
X204840651Y-174719917D01*
X204840651Y-177719917D01*
X203140651Y-177719917D01*
X203140651Y-174719917D01*
%TO.C,R61*%
X204664651Y-174719917D02*
X206364651Y-174719917D01*
X206364651Y-177719917D01*
X204664651Y-177719917D01*
X204664651Y-174719917D01*
%TO.C,C78*%
X225449000Y-192952000D02*
X228449000Y-192952000D01*
X228449000Y-194652000D01*
X225449000Y-194652000D01*
X225449000Y-192952000D01*
%TO.C,C79*%
X224052000Y-188126000D02*
X227052000Y-188126000D01*
X227052000Y-189826000D01*
X224052000Y-189826000D01*
X224052000Y-188126000D01*
%TO.C,R70*%
X215939000Y-182523000D02*
X217639000Y-182523000D01*
X217639000Y-185523000D01*
X215939000Y-185523000D01*
X215939000Y-182523000D01*
%TO.C,C72*%
X211606000Y-183935000D02*
X214606000Y-183935000D01*
X214606000Y-185635000D01*
X211606000Y-185635000D01*
X211606000Y-183935000D01*
%TO.C,C71*%
X211606000Y-182411000D02*
X214606000Y-182411000D01*
X214606000Y-184111000D01*
X211606000Y-184111000D01*
X211606000Y-182411000D01*
%TO.C,C19*%
X194842000Y-214669000D02*
X197842000Y-214669000D01*
X197842000Y-216369000D01*
X194842000Y-216369000D01*
X194842000Y-214669000D01*
%TO.C,C62*%
X226353000Y-175030000D02*
X228053000Y-175030000D01*
X228053000Y-178030000D01*
X226353000Y-178030000D01*
X226353000Y-175030000D01*
%TO.C,C65*%
X226477295Y-217251772D02*
X228177295Y-217251772D01*
X228177295Y-220251772D01*
X226477295Y-220251772D01*
X226477295Y-217251772D01*
%TO.C,C64*%
X224953295Y-217251772D02*
X226653295Y-217251772D01*
X226653295Y-220251772D01*
X224953295Y-220251772D01*
X224953295Y-217251772D01*
%TO.C,C67*%
X225083000Y-197509000D02*
X226783000Y-197509000D01*
X226783000Y-200509000D01*
X225083000Y-200509000D01*
X225083000Y-197509000D01*
%TO.C,C84*%
X224052000Y-189777000D02*
X227052000Y-189777000D01*
X227052000Y-191477000D01*
X224052000Y-191477000D01*
X224052000Y-189777000D01*
%TO.C,R65*%
X223971317Y-191325956D02*
X226971317Y-191325956D01*
X226971317Y-193025956D01*
X223971317Y-193025956D01*
X223971317Y-191325956D01*
%TO.C,C76*%
X228276261Y-212476739D02*
X231276261Y-212476739D01*
X231276261Y-214176739D01*
X228276261Y-214176739D01*
X228276261Y-212476739D01*
%TO.C,C77*%
X222180261Y-212476739D02*
X225180261Y-212476739D01*
X225180261Y-214176739D01*
X222180261Y-214176739D01*
X222180261Y-212476739D01*
%TO.C,C83*%
X225083000Y-211098000D02*
X226783000Y-211098000D01*
X226783000Y-214098000D01*
X225083000Y-214098000D01*
X225083000Y-211098000D01*
%TO.C,R64*%
X226607000Y-211098000D02*
X228307000Y-211098000D01*
X228307000Y-214098000D01*
X226607000Y-214098000D01*
X226607000Y-211098000D01*
%TO.C,C75*%
X226353000Y-168553000D02*
X228053000Y-168553000D01*
X228053000Y-171553000D01*
X226353000Y-171553000D01*
X226353000Y-168553000D01*
%TO.C,C74*%
X220242000Y-168441000D02*
X223242000Y-168441000D01*
X223242000Y-170141000D01*
X220242000Y-170141000D01*
X220242000Y-168441000D01*
%TO.C,C82*%
X223178000Y-168553000D02*
X224878000Y-168553000D01*
X224878000Y-171553000D01*
X223178000Y-171553000D01*
X223178000Y-168553000D01*
%TO.C,R63*%
X224702000Y-168553000D02*
X226402000Y-168553000D01*
X226402000Y-171553000D01*
X224702000Y-171553000D01*
X224702000Y-168553000D01*
%TO.C,R69*%
X209589000Y-178332000D02*
X211289000Y-178332000D01*
X211289000Y-181332000D01*
X209589000Y-181332000D01*
X209589000Y-178332000D01*
%TO.C,C60*%
X227481000Y-159043000D02*
X230481000Y-159043000D01*
X230481000Y-160743000D01*
X227481000Y-160743000D01*
X227481000Y-159043000D01*
%TO.C,C70*%
X224054032Y-158996442D02*
X227054032Y-158996442D01*
X227054032Y-160696442D01*
X224054032Y-160696442D01*
X224054032Y-158996442D01*
%TO.C,R60*%
X224052000Y-160567000D02*
X227052000Y-160567000D01*
X227052000Y-162267000D01*
X224052000Y-162267000D01*
X224052000Y-160567000D01*
%TO.C,C61*%
X224052000Y-162218000D02*
X227052000Y-162218000D01*
X227052000Y-163918000D01*
X224052000Y-163918000D01*
X224052000Y-162218000D01*
%TO.C,C86*%
X219241000Y-157504000D02*
X220941000Y-157504000D01*
X220941000Y-160504000D01*
X219241000Y-160504000D01*
X219241000Y-157504000D01*
%TO.C,C85*%
X220765000Y-157504000D02*
X222465000Y-157504000D01*
X222465000Y-160504000D01*
X220765000Y-160504000D01*
X220765000Y-157504000D01*
%TO.C,R62*%
X235863000Y-166917000D02*
X238863000Y-166917000D01*
X238863000Y-168617000D01*
X235863000Y-168617000D01*
X235863000Y-166917000D01*
%TO.C,R66*%
X235990000Y-189904000D02*
X238990000Y-189904000D01*
X238990000Y-191604000D01*
X235990000Y-191604000D01*
X235990000Y-189904000D01*
%TO.C,R67*%
X236371000Y-213653000D02*
X239371000Y-213653000D01*
X239371000Y-215353000D01*
X236371000Y-215353000D01*
X236371000Y-213653000D01*
%TO.C,R68*%
X152185000Y-148614000D02*
X153885000Y-148614000D01*
X153885000Y-151614000D01*
X152185000Y-151614000D01*
X152185000Y-148614000D01*
%TO.C,C81*%
X211622091Y-199158909D02*
X214622091Y-199158909D01*
X214622091Y-200858909D01*
X211622091Y-200858909D01*
X211622091Y-199158909D01*
%TO.C,R132*%
X137453000Y-237387000D02*
X139153000Y-237387000D01*
X139153000Y-240387000D01*
X137453000Y-240387000D01*
X137453000Y-237387000D01*
%TO.C,R1*%
X94707721Y-237214725D02*
X96407721Y-237214725D01*
X96407721Y-240214725D01*
X94707721Y-240214725D01*
X94707721Y-237214725D01*
%TO.C,R133*%
X53385553Y-237410673D02*
X55085553Y-237410673D01*
X55085553Y-240410673D01*
X53385553Y-240410673D01*
X53385553Y-237410673D01*
%TO.C,R134*%
X180099981Y-237760151D02*
X181799981Y-237760151D01*
X181799981Y-240760151D01*
X180099981Y-240760151D01*
X180099981Y-237760151D01*
%TO.C,R135*%
X222680744Y-238045673D02*
X224380744Y-238045673D01*
X224380744Y-241045673D01*
X222680744Y-241045673D01*
X222680744Y-238045673D01*
%TO.C,R136*%
X180618000Y-220638000D02*
X183618000Y-220638000D01*
X183618000Y-222338000D01*
X180618000Y-222338000D01*
X180618000Y-220638000D01*
%TO.C,R137*%
X180618000Y-219241000D02*
X183618000Y-219241000D01*
X183618000Y-220941000D01*
X180618000Y-220941000D01*
X180618000Y-219241000D01*
%TO.C,R138*%
X191476500Y-217272500D02*
X194476500Y-217272500D01*
X194476500Y-218972500D01*
X191476500Y-218972500D01*
X191476500Y-217272500D01*
%TO.C,R139*%
X191476500Y-218669500D02*
X194476500Y-218669500D01*
X194476500Y-220369500D01*
X191476500Y-220369500D01*
X191476500Y-218669500D01*
%TO.C,R140*%
X205779000Y-231926000D02*
X207479000Y-231926000D01*
X207479000Y-234926000D01*
X205779000Y-234926000D01*
X205779000Y-231926000D01*
%TO.C,R141*%
X207176000Y-231926000D02*
X208876000Y-231926000D01*
X208876000Y-234926000D01*
X207176000Y-234926000D01*
X207176000Y-231926000D01*
%TO.C,R142*%
X196000000Y-205129000D02*
X197700000Y-205129000D01*
X197700000Y-208129000D01*
X196000000Y-208129000D01*
X196000000Y-205129000D01*
%TO.C,R143*%
X194603000Y-205129000D02*
X196303000Y-205129000D01*
X196303000Y-208129000D01*
X194603000Y-208129000D01*
X194603000Y-205129000D01*
%TO.C,R144*%
X177839000Y-205256000D02*
X179539000Y-205256000D01*
X179539000Y-208256000D01*
X177839000Y-208256000D01*
X177839000Y-205256000D01*
%TO.C,R145*%
X100750000Y-210971000D02*
X102450000Y-210971000D01*
X102450000Y-213971000D01*
X100750000Y-213971000D01*
X100750000Y-210971000D01*
%TO.C,R146*%
X118388000Y-210224000D02*
X121388000Y-210224000D01*
X121388000Y-211924000D01*
X118388000Y-211924000D01*
X118388000Y-210224000D01*
%TO.C,R147*%
X118388000Y-211621000D02*
X121388000Y-211621000D01*
X121388000Y-213321000D01*
X118388000Y-213321000D01*
X118388000Y-211621000D01*
%TO.C,R148*%
X121539494Y-231218788D02*
X123239494Y-231218788D01*
X123239494Y-234218788D01*
X121539494Y-234218788D01*
X121539494Y-231218788D01*
%TO.C,R149*%
X120142494Y-231218788D02*
X121842494Y-231218788D01*
X121842494Y-234218788D01*
X120142494Y-234218788D01*
X120142494Y-231218788D01*
%TO.C,R150*%
X112751500Y-223607500D02*
X114451500Y-223607500D01*
X114451500Y-226607500D01*
X112751500Y-226607500D01*
X112751500Y-223607500D01*
%TO.C,R151*%
X111354500Y-223607500D02*
X113054500Y-223607500D01*
X113054500Y-226607500D01*
X111354500Y-226607500D01*
X111354500Y-223607500D01*
%TO.C,C106*%
X102640000Y-227623000D02*
X105640000Y-227623000D01*
X105640000Y-229323000D01*
X102640000Y-229323000D01*
X102640000Y-227623000D01*
%TO.C,C107*%
X116244000Y-235228000D02*
X117944000Y-235228000D01*
X117944000Y-238228000D01*
X116244000Y-238228000D01*
X116244000Y-235228000D01*
%TO.C,C108*%
X114832000Y-220892000D02*
X117832000Y-220892000D01*
X117832000Y-222592000D01*
X114832000Y-222592000D01*
X114832000Y-220892000D01*
%TO.C,C109*%
X111530000Y-211748000D02*
X114530000Y-211748000D01*
X114530000Y-213448000D01*
X111530000Y-213448000D01*
X111530000Y-211748000D01*
%TO.C,C110*%
X116492590Y-210097494D02*
X118192590Y-210097494D01*
X118192590Y-213097494D01*
X116492590Y-213097494D01*
X116492590Y-210097494D01*
%TO.C,C111*%
X115101000Y-210082000D02*
X116801000Y-210082000D01*
X116801000Y-213082000D01*
X115101000Y-213082000D01*
X115101000Y-210082000D01*
%TO.C,C112*%
X96940000Y-211733000D02*
X98640000Y-211733000D01*
X98640000Y-214733000D01*
X96940000Y-214733000D01*
X96940000Y-211733000D01*
%TO.C,C113*%
X98458958Y-211722548D02*
X100158958Y-211722548D01*
X100158958Y-214722548D01*
X98458958Y-214722548D01*
X98458958Y-211722548D01*
%TO.C,C114*%
X100735000Y-209208000D02*
X103735000Y-209208000D01*
X103735000Y-210908000D01*
X100735000Y-210908000D01*
X100735000Y-209208000D01*
%TO.C,C115*%
X183619024Y-223355024D02*
X185319024Y-223355024D01*
X185319024Y-226355024D01*
X183619024Y-226355024D01*
X183619024Y-223355024D01*
%TO.C,C116*%
X201588000Y-235736000D02*
X203288000Y-235736000D01*
X203288000Y-238736000D01*
X201588000Y-238736000D01*
X201588000Y-235736000D01*
%TO.C,C117*%
X191286000Y-206033000D02*
X194286000Y-206033000D01*
X194286000Y-207733000D01*
X191286000Y-207733000D01*
X191286000Y-206033000D01*
%TO.C,C118*%
X191286000Y-202858000D02*
X194286000Y-202858000D01*
X194286000Y-204558000D01*
X191286000Y-204558000D01*
X191286000Y-202858000D01*
%TO.C,C119*%
X191286000Y-204382000D02*
X194286000Y-204382000D01*
X194286000Y-206082000D01*
X191286000Y-206082000D01*
X191286000Y-204382000D01*
%TO.C,C120*%
X179602000Y-206287000D02*
X182602000Y-206287000D01*
X182602000Y-207987000D01*
X179602000Y-207987000D01*
X179602000Y-206287000D01*
%TO.C,C121*%
X174410000Y-205891000D02*
X176110000Y-205891000D01*
X176110000Y-208891000D01*
X174410000Y-208891000D01*
X174410000Y-205891000D01*
%TO.C,C122*%
X175934000Y-205891000D02*
X177634000Y-205891000D01*
X177634000Y-208891000D01*
X175934000Y-208891000D01*
X175934000Y-205891000D01*
%TO.C,R152*%
X62127000Y-151550000D02*
X65127000Y-151550000D01*
X65127000Y-153250000D01*
X62127000Y-153250000D01*
X62127000Y-151550000D01*
%TO.C,R153*%
X50077000Y-145693000D02*
X51777000Y-145693000D01*
X51777000Y-148693000D01*
X50077000Y-148693000D01*
X50077000Y-145693000D01*
%TO.C,R154*%
X55650000Y-154852000D02*
X58650000Y-154852000D01*
X58650000Y-156552000D01*
X55650000Y-156552000D01*
X55650000Y-154852000D01*
%TO.C,R241*%
X87034000Y-163727000D02*
X88734000Y-163727000D01*
X88734000Y-166727000D01*
X87034000Y-166727000D01*
X87034000Y-163727000D01*
%TO.C,R242*%
X87034000Y-160806000D02*
X88734000Y-160806000D01*
X88734000Y-163806000D01*
X87034000Y-163806000D01*
X87034000Y-160806000D01*
%TO.C,R157*%
X75604000Y-166902000D02*
X77304000Y-166902000D01*
X77304000Y-169902000D01*
X75604000Y-169902000D01*
X75604000Y-166902000D01*
%TO.C,R158*%
X74080000Y-166902000D02*
X75780000Y-166902000D01*
X75780000Y-169902000D01*
X74080000Y-169902000D01*
X74080000Y-166902000D01*
%TO.C,R159*%
X106084000Y-151027000D02*
X107784000Y-151027000D01*
X107784000Y-154027000D01*
X106084000Y-154027000D01*
X106084000Y-151027000D01*
%TO.C,R160*%
X99674258Y-156674742D02*
X102674258Y-156674742D01*
X102674258Y-158374742D01*
X99674258Y-158374742D01*
X99674258Y-156674742D01*
%TO.C,R170*%
X56539000Y-173648000D02*
X59539000Y-173648000D01*
X59539000Y-175348000D01*
X56539000Y-175348000D01*
X56539000Y-173648000D01*
%TO.C,R171*%
X56539000Y-172251000D02*
X59539000Y-172251000D01*
X59539000Y-173951000D01*
X56539000Y-173951000D01*
X56539000Y-172251000D01*
%TO.C,R172*%
X57301000Y-195687783D02*
X60301000Y-195687783D01*
X60301000Y-197387783D01*
X57301000Y-197387783D01*
X57301000Y-195687783D01*
%TO.C,R175*%
X57301000Y-197143000D02*
X60301000Y-197143000D01*
X60301000Y-198843000D01*
X57301000Y-198843000D01*
X57301000Y-197143000D01*
%TO.C,R178*%
X56578091Y-219241000D02*
X59578091Y-219241000D01*
X59578091Y-220941000D01*
X56578091Y-220941000D01*
X56578091Y-219241000D01*
%TO.C,R181*%
X56578091Y-220638000D02*
X59578091Y-220638000D01*
X59578091Y-222338000D01*
X56578091Y-222338000D01*
X56578091Y-220638000D01*
%TO.C,R184*%
X83764060Y-210699060D02*
X85464060Y-210699060D01*
X85464060Y-213699060D01*
X83764060Y-213699060D01*
X83764060Y-210699060D01*
%TO.C,R185*%
X85288060Y-207397060D02*
X86988060Y-207397060D01*
X86988060Y-210397060D01*
X85288060Y-210397060D01*
X85288060Y-207397060D01*
%TO.C,R186*%
X84748000Y-190143000D02*
X86448000Y-190143000D01*
X86448000Y-193143000D01*
X84748000Y-193143000D01*
X84748000Y-190143000D01*
%TO.C,R187*%
X81431000Y-187872000D02*
X84431000Y-187872000D01*
X84431000Y-189572000D01*
X81431000Y-189572000D01*
X81431000Y-187872000D01*
%TO.C,R188*%
X82701000Y-171997000D02*
X85701000Y-171997000D01*
X85701000Y-173697000D01*
X82701000Y-173697000D01*
X82701000Y-171997000D01*
%TO.C,R189*%
X81050000Y-173648000D02*
X84050000Y-173648000D01*
X84050000Y-175348000D01*
X81050000Y-175348000D01*
X81050000Y-173648000D01*
%TO.C,R190*%
X98957000Y-193841000D02*
X101957000Y-193841000D01*
X101957000Y-195541000D01*
X98957000Y-195541000D01*
X98957000Y-193841000D01*
%TO.C,R191*%
X100369000Y-190651000D02*
X102069000Y-190651000D01*
X102069000Y-193651000D01*
X100369000Y-193651000D01*
X100369000Y-190651000D01*
%TO.C,R206*%
X141136000Y-200684000D02*
X142836000Y-200684000D01*
X142836000Y-203684000D01*
X141136000Y-203684000D01*
X141136000Y-200684000D01*
%TO.C,R207*%
X142533000Y-200684000D02*
X144233000Y-200684000D01*
X144233000Y-203684000D01*
X142533000Y-203684000D01*
X142533000Y-200684000D01*
%TO.C,R208*%
X143803000Y-200684000D02*
X145503000Y-200684000D01*
X145503000Y-203684000D01*
X143803000Y-203684000D01*
X143803000Y-200684000D01*
%TO.C,R209*%
X146597000Y-200684000D02*
X148297000Y-200684000D01*
X148297000Y-203684000D01*
X146597000Y-203684000D01*
X146597000Y-200684000D01*
%TO.C,R210*%
X147994000Y-200684000D02*
X149694000Y-200684000D01*
X149694000Y-203684000D01*
X147994000Y-203684000D01*
X147994000Y-200684000D01*
%TO.C,R193*%
X141136000Y-196874000D02*
X142836000Y-196874000D01*
X142836000Y-199874000D01*
X141136000Y-199874000D01*
X141136000Y-196874000D01*
%TO.C,R194*%
X142533000Y-196874000D02*
X144233000Y-196874000D01*
X144233000Y-199874000D01*
X142533000Y-199874000D01*
X142533000Y-196874000D01*
%TO.C,R195*%
X143803000Y-196874000D02*
X145503000Y-196874000D01*
X145503000Y-199874000D01*
X143803000Y-199874000D01*
X143803000Y-196874000D01*
%TO.C,R196*%
X145200000Y-196874000D02*
X146900000Y-196874000D01*
X146900000Y-199874000D01*
X145200000Y-199874000D01*
X145200000Y-196874000D01*
%TO.C,R197*%
X146597000Y-196874000D02*
X148297000Y-196874000D01*
X148297000Y-199874000D01*
X146597000Y-199874000D01*
X146597000Y-196874000D01*
%TO.C,R198*%
X122508350Y-192989363D02*
X125508350Y-192989363D01*
X125508350Y-194689363D01*
X122508350Y-194689363D01*
X122508350Y-192989363D01*
%TO.C,R199*%
X122489363Y-194419650D02*
X125489363Y-194419650D01*
X125489363Y-196119650D01*
X122489363Y-196119650D01*
X122489363Y-194419650D01*
%TO.C,R200*%
X132480582Y-196906830D02*
X134180582Y-196906830D01*
X134180582Y-199906830D01*
X132480582Y-199906830D01*
X132480582Y-196906830D01*
%TO.C,R201*%
X133819187Y-196906830D02*
X135519187Y-196906830D01*
X135519187Y-199906830D01*
X133819187Y-199906830D01*
X133819187Y-196906830D01*
%TO.C,R202*%
X139739000Y-196874000D02*
X141439000Y-196874000D01*
X141439000Y-199874000D01*
X139739000Y-199874000D01*
X139739000Y-196874000D01*
%TO.C,R205*%
X147994000Y-196874000D02*
X149694000Y-196874000D01*
X149694000Y-199874000D01*
X147994000Y-199874000D01*
X147994000Y-196874000D01*
%TO.C,R211*%
X123483000Y-178205000D02*
X125183000Y-178205000D01*
X125183000Y-181205000D01*
X123483000Y-181205000D01*
X123483000Y-178205000D01*
%TO.C,R203*%
X121553145Y-183018974D02*
X124553145Y-183018974D01*
X124553145Y-184718974D01*
X121553145Y-184718974D01*
X121553145Y-183018974D01*
%TO.C,LED27*%
X181682750Y-180305459D02*
X184682750Y-180305459D01*
X184682750Y-182005459D01*
X181682750Y-182005459D01*
X181682750Y-180305459D01*
%TO.C,LED18*%
X238784000Y-166917000D02*
X241784000Y-166917000D01*
X241784000Y-168617000D01*
X238784000Y-168617000D01*
X238784000Y-166917000D01*
%TO.C,LED19*%
X238911000Y-189904000D02*
X241911000Y-189904000D01*
X241911000Y-191604000D01*
X238911000Y-191604000D01*
X238911000Y-189904000D01*
%TO.C,LED20*%
X239292000Y-213653000D02*
X242292000Y-213653000D01*
X242292000Y-215353000D01*
X239292000Y-215353000D01*
X239292000Y-213653000D01*
%TO.C,LED21*%
X152185000Y-145312000D02*
X153885000Y-145312000D01*
X153885000Y-148312000D01*
X152185000Y-148312000D01*
X152185000Y-145312000D01*
%TO.C,LED22*%
X43204000Y-214542000D02*
X46204000Y-214542000D01*
X46204000Y-216242000D01*
X43204000Y-216242000D01*
X43204000Y-214542000D01*
%TO.C,LED23*%
X43204000Y-191047000D02*
X46204000Y-191047000D01*
X46204000Y-192747000D01*
X43204000Y-192747000D01*
X43204000Y-191047000D01*
%TO.C,LED24*%
X43204000Y-167806000D02*
X46204000Y-167806000D01*
X46204000Y-169506000D01*
X43204000Y-169506000D01*
X43204000Y-167806000D01*
%TO.C,LED25*%
X132881000Y-145185000D02*
X134581000Y-145185000D01*
X134581000Y-148185000D01*
X132881000Y-148185000D01*
X132881000Y-145185000D01*
%TO.C,C123*%
X170204000Y-186348000D02*
X173204000Y-186348000D01*
X173204000Y-188048000D01*
X170204000Y-188048000D01*
X170204000Y-186348000D01*
%TO.C,C124*%
X173394000Y-184555000D02*
X175094000Y-184555000D01*
X175094000Y-187555000D01*
X173394000Y-187555000D01*
X173394000Y-184555000D01*
%TO.C,C125*%
X168441494Y-172891410D02*
X171441494Y-172891410D01*
X171441494Y-174591410D01*
X168441494Y-174591410D01*
X168441494Y-172891410D01*
%TO.C,R214*%
X163234000Y-227354000D02*
X164934000Y-227354000D01*
X164934000Y-230354000D01*
X163234000Y-230354000D01*
X163234000Y-227354000D01*
%TO.C,R213*%
X153963000Y-158647000D02*
X155663000Y-158647000D01*
X155663000Y-161647000D01*
X153963000Y-161647000D01*
X153963000Y-158647000D01*
%TO.C,R215*%
X155599000Y-160948000D02*
X158599000Y-160948000D01*
X158599000Y-162648000D01*
X155599000Y-162648000D01*
X155599000Y-160948000D01*
%TO.C,C126*%
X122552482Y-161456000D02*
X125552482Y-161456000D01*
X125552482Y-163156000D01*
X122552482Y-163156000D01*
X122552482Y-161456000D01*
%TO.C,C127*%
X118134000Y-163234000D02*
X121134000Y-163234000D01*
X121134000Y-164934000D01*
X118134000Y-164934000D01*
X118134000Y-163234000D01*
%TO.C,C128*%
X113450000Y-166002002D02*
X115150000Y-166002002D01*
X115150000Y-169002002D01*
X113450000Y-169002002D01*
X113450000Y-166002002D01*
%TO.C,C129*%
X109259000Y-170331000D02*
X110959000Y-170331000D01*
X110959000Y-173331000D01*
X109259000Y-173331000D01*
X109259000Y-170331000D01*
%TO.C,C130*%
X109386000Y-167283000D02*
X111086000Y-167283000D01*
X111086000Y-170283000D01*
X109386000Y-170283000D01*
X109386000Y-167283000D01*
%TO.C,C131*%
X135152000Y-178728000D02*
X138152000Y-178728000D01*
X138152000Y-180428000D01*
X135152000Y-180428000D01*
X135152000Y-178728000D01*
%TO.C,C132*%
X147613000Y-189762000D02*
X149313000Y-189762000D01*
X149313000Y-192762000D01*
X147613000Y-192762000D01*
X147613000Y-189762000D01*
%TO.C,C133*%
X121563000Y-187237000D02*
X124563000Y-187237000D01*
X124563000Y-188937000D01*
X121563000Y-188937000D01*
X121563000Y-187237000D01*
%TO.C,C134*%
X135294000Y-196874000D02*
X136994000Y-196874000D01*
X136994000Y-199874000D01*
X135294000Y-199874000D01*
X135294000Y-196874000D01*
%TO.C,C135*%
X129437000Y-196381000D02*
X132437000Y-196381000D01*
X132437000Y-198081000D01*
X129437000Y-198081000D01*
X129437000Y-196381000D01*
%TO.C,C136*%
X126643000Y-196381000D02*
X129643000Y-196381000D01*
X129643000Y-198081000D01*
X126643000Y-198081000D01*
X126643000Y-196381000D01*
%TO.C,R216*%
X176315000Y-145185000D02*
X178015000Y-145185000D01*
X178015000Y-148185000D01*
X176315000Y-148185000D01*
X176315000Y-145185000D01*
%TO.C,C137*%
X190793000Y-150265000D02*
X192493000Y-150265000D01*
X192493000Y-153265000D01*
X190793000Y-153265000D01*
X190793000Y-150265000D01*
%TO.C,R220*%
X154296856Y-195713856D02*
X157296856Y-195713856D01*
X157296856Y-197413856D01*
X154296856Y-197413856D01*
X154296856Y-195713856D01*
%TO.C,R221*%
X175157000Y-148248000D02*
X178157000Y-148248000D01*
X178157000Y-149948000D01*
X175157000Y-149948000D01*
X175157000Y-148248000D01*
%TO.C,R222*%
X147613000Y-186841000D02*
X149313000Y-186841000D01*
X149313000Y-189841000D01*
X147613000Y-189841000D01*
X147613000Y-186841000D01*
%TO.C,R223*%
X175157000Y-149772000D02*
X178157000Y-149772000D01*
X178157000Y-151472000D01*
X175157000Y-151472000D01*
X175157000Y-149772000D01*
%TO.C,R224*%
X145200000Y-200684000D02*
X146900000Y-200684000D01*
X146900000Y-203684000D01*
X145200000Y-203684000D01*
X145200000Y-200684000D01*
%TO.C,R225*%
X154423856Y-200793856D02*
X157423856Y-200793856D01*
X157423856Y-202493856D01*
X154423856Y-202493856D01*
X154423856Y-200793856D01*
%TO.C,R226*%
X217702000Y-183173000D02*
X220702000Y-183173000D01*
X220702000Y-184873000D01*
X217702000Y-184873000D01*
X217702000Y-183173000D01*
%TO.C,C138*%
X81700000Y-200049000D02*
X83400000Y-200049000D01*
X83400000Y-203049000D01*
X81700000Y-203049000D01*
X81700000Y-200049000D01*
%TO.C,C139*%
X83605000Y-200557000D02*
X85305000Y-200557000D01*
X85305000Y-203557000D01*
X83605000Y-203557000D01*
X83605000Y-200557000D01*
%TO.C,R230*%
X46252000Y-214542000D02*
X49252000Y-214542000D01*
X49252000Y-216242000D01*
X46252000Y-216242000D01*
X46252000Y-214542000D01*
%TO.C,R231*%
X46252000Y-191047000D02*
X49252000Y-191047000D01*
X49252000Y-192747000D01*
X46252000Y-192747000D01*
X46252000Y-191047000D01*
%TO.C,R232*%
X46252000Y-167806000D02*
X49252000Y-167806000D01*
X49252000Y-169506000D01*
X46252000Y-169506000D01*
X46252000Y-167806000D01*
%TO.C,R233*%
X132881000Y-148233000D02*
X134581000Y-148233000D01*
X134581000Y-151233000D01*
X132881000Y-151233000D01*
X132881000Y-148233000D01*
%TO.C,R234*%
X118261000Y-161456000D02*
X121261000Y-161456000D01*
X121261000Y-163156000D01*
X118261000Y-163156000D01*
X118261000Y-161456000D01*
%TO.C,R235*%
X105676482Y-173252000D02*
X107376482Y-173252000D01*
X107376482Y-176252000D01*
X105676482Y-176252000D01*
X105676482Y-173252000D01*
%TO.C,R237*%
X94527000Y-197001000D02*
X96227000Y-197001000D01*
X96227000Y-200001000D01*
X94527000Y-200001000D01*
X94527000Y-197001000D01*
%TO.C,R238*%
X93003000Y-197001000D02*
X94703000Y-197001000D01*
X94703000Y-200001000D01*
X93003000Y-200001000D01*
X93003000Y-197001000D01*
%TO.C,LED30*%
X232576000Y-145312000D02*
X234276000Y-145312000D01*
X234276000Y-148312000D01*
X232576000Y-148312000D01*
X232576000Y-145312000D01*
%TO.C,R240*%
X232576000Y-148360000D02*
X234276000Y-148360000D01*
X234276000Y-151360000D01*
X232576000Y-151360000D01*
X232576000Y-148360000D01*
%TO.C,LED29*%
X94908000Y-145312000D02*
X96608000Y-145312000D01*
X96608000Y-148312000D01*
X94908000Y-148312000D01*
X94908000Y-145312000D01*
%TO.C,R239*%
X94908000Y-148106000D02*
X96608000Y-148106000D01*
X96608000Y-151106000D01*
X94908000Y-151106000D01*
X94908000Y-148106000D01*
%TO.C,R183*%
X55030000Y-220750000D02*
X56730000Y-220750000D01*
X56730000Y-223750000D01*
X55030000Y-223750000D01*
X55030000Y-220750000D01*
%TO.C,R182*%
X59426181Y-220623000D02*
X61126181Y-220623000D01*
X61126181Y-223623000D01*
X59426181Y-223623000D01*
X59426181Y-220623000D01*
%TO.C,R180*%
X55030000Y-217702000D02*
X56730000Y-217702000D01*
X56730000Y-220702000D01*
X55030000Y-220702000D01*
X55030000Y-217702000D01*
%TO.C,R179*%
X59424606Y-217702000D02*
X61124606Y-217702000D01*
X61124606Y-220702000D01*
X59424606Y-220702000D01*
X59424606Y-217702000D01*
%TO.C,R177*%
X55816409Y-197128000D02*
X57516409Y-197128000D01*
X57516409Y-200128000D01*
X55816409Y-200128000D01*
X55816409Y-197128000D01*
%TO.C,R176*%
X60110000Y-197098757D02*
X61810000Y-197098757D01*
X61810000Y-200098757D01*
X60110000Y-200098757D01*
X60110000Y-197098757D01*
%TO.C,R174*%
X55816409Y-194207000D02*
X57516409Y-194207000D01*
X57516409Y-197207000D01*
X55816409Y-197207000D01*
X55816409Y-194207000D01*
%TO.C,R173*%
X60149091Y-194207000D02*
X61849091Y-194207000D01*
X61849091Y-197207000D01*
X60149091Y-197207000D01*
X60149091Y-194207000D01*
%TO.C,R169*%
X54990909Y-170712000D02*
X56690909Y-170712000D01*
X56690909Y-173712000D01*
X54990909Y-173712000D01*
X54990909Y-170712000D01*
%TO.C,R168*%
X59387091Y-173760000D02*
X61087091Y-173760000D01*
X61087091Y-176760000D01*
X59387091Y-176760000D01*
X59387091Y-173760000D01*
%TO.C,R167*%
X54990909Y-173633000D02*
X56690909Y-173633000D01*
X56690909Y-176633000D01*
X54990909Y-176633000D01*
X54990909Y-173633000D01*
%TO.C,R166*%
X59387091Y-170966000D02*
X61087091Y-170966000D01*
X61087091Y-173966000D01*
X59387091Y-173966000D01*
X59387091Y-170966000D01*
%TO.C,R165*%
X106196000Y-149518000D02*
X109196000Y-149518000D01*
X109196000Y-151218000D01*
X106196000Y-151218000D01*
X106196000Y-149518000D01*
%TO.C,R164*%
X106196000Y-153836000D02*
X109196000Y-153836000D01*
X109196000Y-155536000D01*
X106196000Y-155536000D01*
X106196000Y-153836000D01*
%TO.C,R163*%
X98083000Y-156869000D02*
X99783000Y-156869000D01*
X99783000Y-159869000D01*
X98083000Y-159869000D01*
X98083000Y-156869000D01*
%TO.C,R162*%
X102528000Y-156869000D02*
X104228000Y-156869000D01*
X104228000Y-159869000D01*
X102528000Y-159869000D01*
X102528000Y-156869000D01*
%TO.C,C144*%
X197651000Y-164997000D02*
X199351000Y-164997000D01*
X199351000Y-167997000D01*
X197651000Y-167997000D01*
X197651000Y-164997000D01*
%TO.C,R243*%
X187745000Y-168934000D02*
X189445000Y-168934000D01*
X189445000Y-171934000D01*
X187745000Y-171934000D01*
X187745000Y-168934000D01*
%TO.C,R244*%
X186348000Y-168934000D02*
X188048000Y-168934000D01*
X188048000Y-171934000D01*
X186348000Y-171934000D01*
X186348000Y-168934000D01*
%TO.C,R245*%
X190285000Y-168934000D02*
X191985000Y-168934000D01*
X191985000Y-171934000D01*
X190285000Y-171934000D01*
X190285000Y-168934000D01*
%TO.C,R246*%
X191682000Y-168934000D02*
X193382000Y-168934000D01*
X193382000Y-171934000D01*
X191682000Y-171934000D01*
X191682000Y-168934000D01*
%TO.C,C145*%
X186221000Y-165124000D02*
X187921000Y-165124000D01*
X187921000Y-168124000D01*
X186221000Y-168124000D01*
X186221000Y-165124000D01*
%TO.C,U30*%
X188250100Y-165106800D02*
X191690000Y-165106800D01*
X191690000Y-168649200D01*
X188250100Y-168649200D01*
X188250100Y-165106800D01*
%TO.C,C140*%
X199429000Y-165378000D02*
X201129000Y-165378000D01*
X201129000Y-168378000D01*
X199429000Y-168378000D01*
X199429000Y-165378000D01*
%TO.C,C141*%
X184316000Y-165505000D02*
X186016000Y-165505000D01*
X186016000Y-168505000D01*
X184316000Y-168505000D01*
X184316000Y-165505000D01*
%TO.C,C143*%
X182411000Y-165505000D02*
X184111000Y-165505000D01*
X184111000Y-168505000D01*
X182411000Y-168505000D01*
X182411000Y-165505000D01*
%TO.C,L2*%
X193256199Y-164798066D02*
X196256199Y-164798066D01*
X196256199Y-166498066D01*
X193256199Y-166498066D01*
X193256199Y-164798066D01*
%TO.C,U31*%
X167874862Y-154942138D02*
X172844862Y-154942138D01*
X172844862Y-159912138D01*
X167874862Y-159912138D01*
X167874862Y-154942138D01*
%TO.C,C11*%
X168859862Y-152640138D02*
X171859862Y-152640138D01*
X171859862Y-154340138D01*
X168859862Y-154340138D01*
X168859862Y-152640138D01*
%TO.C,R247*%
X175807000Y-154964000D02*
X177507000Y-154964000D01*
X177507000Y-157964000D01*
X175807000Y-157964000D01*
X175807000Y-154964000D01*
%TO.C,R248*%
X174283000Y-154964000D02*
X175983000Y-154964000D01*
X175983000Y-157964000D01*
X174283000Y-157964000D01*
X174283000Y-154964000D01*
%TO.C,R249*%
X163107000Y-157631000D02*
X164807000Y-157631000D01*
X164807000Y-160631000D01*
X163107000Y-160631000D01*
X163107000Y-157631000D01*
%TO.C,R250*%
X164631000Y-157631000D02*
X166331000Y-157631000D01*
X166331000Y-160631000D01*
X164631000Y-160631000D01*
X164631000Y-157631000D01*
%TO.C,R251*%
X121563000Y-185840000D02*
X124563000Y-185840000D01*
X124563000Y-187540000D01*
X121563000Y-187540000D01*
X121563000Y-185840000D01*
%TO.C,R252*%
X121563000Y-184443000D02*
X124563000Y-184443000D01*
X124563000Y-186143000D01*
X121563000Y-186143000D01*
X121563000Y-184443000D01*
%TO.C,LED31*%
X177712000Y-145185000D02*
X179412000Y-145185000D01*
X179412000Y-148185000D01*
X177712000Y-148185000D01*
X177712000Y-145185000D01*
%TO.C,R253*%
X190398101Y-145312000D02*
X192098101Y-145312000D01*
X192098101Y-148312000D01*
X190398101Y-148312000D01*
X190398101Y-145312000D01*
%TO.C,LED32*%
X192049101Y-145312000D02*
X193749101Y-145312000D01*
X193749101Y-148312000D01*
X192049101Y-148312000D01*
X192049101Y-145312000D01*
%TO.C,R254*%
X56793000Y-208446000D02*
X59793000Y-208446000D01*
X59793000Y-210146000D01*
X56793000Y-210146000D01*
X56793000Y-208446000D01*
%TO.C,C146*%
X55157000Y-208558000D02*
X56857000Y-208558000D01*
X56857000Y-211558000D01*
X55157000Y-211558000D01*
X55157000Y-208558000D01*
%TO.C,R255*%
X56644029Y-185135531D02*
X59644029Y-185135531D01*
X59644029Y-186835531D01*
X56644029Y-186835531D01*
X56644029Y-185135531D01*
%TO.C,C147*%
X54903000Y-185317000D02*
X56603000Y-185317000D01*
X56603000Y-188317000D01*
X54903000Y-188317000D01*
X54903000Y-185317000D01*
%TO.C,R256*%
X57174000Y-161837000D02*
X60174000Y-161837000D01*
X60174000Y-163537000D01*
X57174000Y-163537000D01*
X57174000Y-161837000D01*
%TO.C,C148*%
X55411000Y-161822000D02*
X57111000Y-161822000D01*
X57111000Y-164822000D01*
X55411000Y-164822000D01*
X55411000Y-161822000D01*
%TO.C,R257*%
X89447000Y-158393000D02*
X91147000Y-158393000D01*
X91147000Y-161393000D01*
X89447000Y-161393000D01*
X89447000Y-158393000D01*
%TO.C,C149*%
X88035000Y-156757000D02*
X91035000Y-156757000D01*
X91035000Y-158457000D01*
X88035000Y-158457000D01*
X88035000Y-156757000D01*
%TO.C,R258*%
X127166000Y-158647000D02*
X128866000Y-158647000D01*
X128866000Y-161647000D01*
X127166000Y-161647000D01*
X127166000Y-158647000D01*
%TO.C,C150*%
X125881000Y-157138000D02*
X128881000Y-157138000D01*
X128881000Y-158838000D01*
X125881000Y-158838000D01*
X125881000Y-157138000D01*
%TO.C,R259*%
X225576000Y-207684000D02*
X228576000Y-207684000D01*
X228576000Y-209384000D01*
X225576000Y-209384000D01*
X225576000Y-207684000D01*
%TO.C,C151*%
X228385000Y-207796000D02*
X230085000Y-207796000D01*
X230085000Y-210796000D01*
X228385000Y-210796000D01*
X228385000Y-207796000D01*
%TO.C,R260*%
X225449000Y-185713000D02*
X228449000Y-185713000D01*
X228449000Y-187413000D01*
X225449000Y-187413000D01*
X225449000Y-185713000D01*
%TO.C,C152*%
X228512000Y-184301000D02*
X230212000Y-184301000D01*
X230212000Y-187301000D01*
X228512000Y-187301000D01*
X228512000Y-184301000D01*
%TO.C,R261*%
X225703000Y-164123000D02*
X228703000Y-164123000D01*
X228703000Y-165823000D01*
X225703000Y-165823000D01*
X225703000Y-164123000D01*
%TO.C,C153*%
X228766000Y-162838000D02*
X230466000Y-162838000D01*
X230466000Y-165838000D01*
X228766000Y-165838000D01*
X228766000Y-162838000D01*
%TO.C,R262*%
X213003000Y-158154000D02*
X216003000Y-158154000D01*
X216003000Y-159854000D01*
X213003000Y-159854000D01*
X213003000Y-158154000D01*
%TO.C,C154*%
X214539817Y-156548476D02*
X217539817Y-156548476D01*
X217539817Y-158248476D01*
X214539817Y-158248476D01*
X214539817Y-156548476D01*
%TO.C,R263*%
X158916000Y-158139000D02*
X160616000Y-158139000D01*
X160616000Y-161139000D01*
X158916000Y-161139000D01*
X158916000Y-158139000D01*
%TO.C,C155*%
X159028000Y-156503000D02*
X162028000Y-156503000D01*
X162028000Y-158203000D01*
X159028000Y-158203000D01*
X159028000Y-156503000D01*
%TO.C,R264*%
X211875000Y-226338000D02*
X213575000Y-226338000D01*
X213575000Y-229338000D01*
X211875000Y-229338000D01*
X211875000Y-226338000D01*
%TO.C,C156*%
X210590000Y-229401000D02*
X213590000Y-229401000D01*
X213590000Y-231101000D01*
X210590000Y-231101000D01*
X210590000Y-229401000D01*
%TO.C,R265*%
X174156000Y-226465000D02*
X175856000Y-226465000D01*
X175856000Y-229465000D01*
X174156000Y-229465000D01*
X174156000Y-226465000D01*
%TO.C,C157*%
X172744000Y-229528000D02*
X175744000Y-229528000D01*
X175744000Y-231228000D01*
X172744000Y-231228000D01*
X172744000Y-229528000D01*
%TO.C,R266*%
X129818000Y-229909000D02*
X132818000Y-229909000D01*
X132818000Y-231609000D01*
X129818000Y-231609000D01*
X129818000Y-229909000D01*
%TO.C,C158*%
X132866000Y-229909000D02*
X135866000Y-229909000D01*
X135866000Y-231609000D01*
X132866000Y-231609000D01*
X132866000Y-229909000D01*
%TO.C,R267*%
X89066000Y-227354000D02*
X90766000Y-227354000D01*
X90766000Y-230354000D01*
X89066000Y-230354000D01*
X89066000Y-227354000D01*
%TO.C,C159*%
X87654000Y-230163000D02*
X90654000Y-230163000D01*
X90654000Y-231863000D01*
X87654000Y-231863000D01*
X87654000Y-230163000D01*
%TO.C,R268*%
X51474000Y-227227000D02*
X53174000Y-227227000D01*
X53174000Y-230227000D01*
X51474000Y-230227000D01*
X51474000Y-227227000D01*
%TO.C,C160*%
X50062000Y-230163000D02*
X53062000Y-230163000D01*
X53062000Y-231863000D01*
X50062000Y-231863000D01*
X50062000Y-230163000D01*
%TO.C,C161*%
X136393938Y-180311360D02*
X139393938Y-180311360D01*
X139393938Y-182011360D01*
X136393938Y-182011360D01*
X136393938Y-180311360D01*
%TO.C,TK1*%
X215927811Y-238111112D02*
X217827811Y-238111112D01*
X217827811Y-240011112D01*
X215927811Y-240011112D01*
X215927811Y-238111112D01*
%TO.C,TK2*%
X173414767Y-238111112D02*
X175314767Y-238111112D01*
X175314767Y-240011112D01*
X173414767Y-240011112D01*
X173414767Y-238111112D01*
%TO.C,TK3*%
X130774723Y-238111112D02*
X132674723Y-238111112D01*
X132674723Y-240011112D01*
X130774723Y-240011112D01*
X130774723Y-238111112D01*
%TO.C,TK4*%
X88499938Y-238111112D02*
X90399938Y-238111112D01*
X90399938Y-240011112D01*
X88499938Y-240011112D01*
X88499938Y-238111112D01*
%TO.C,TK5*%
X46989876Y-238111112D02*
X48889876Y-238111112D01*
X48889876Y-240011112D01*
X46989876Y-240011112D01*
X46989876Y-238111112D01*
%TO.C,TK8*%
X47452042Y-208166536D02*
X49352042Y-208166536D01*
X49352042Y-210066536D01*
X47452042Y-210066536D01*
X47452042Y-208166536D01*
%TO.C,TK9*%
X47452042Y-184547457D02*
X49352042Y-184547457D01*
X49352042Y-186447457D01*
X47452042Y-186447457D01*
X47452042Y-184547457D01*
%TO.C,TK10*%
X47452042Y-161182378D02*
X49352042Y-161182378D01*
X49352042Y-163082378D01*
X47452042Y-163082378D01*
X47452042Y-161182378D01*
%TO.C,TK11*%
X88520497Y-149628299D02*
X90420497Y-149628299D01*
X90420497Y-151528299D01*
X88520497Y-151528299D01*
X88520497Y-149628299D01*
%TO.C,TK16*%
X215644576Y-149550133D02*
X217544576Y-149550133D01*
X217544576Y-151450133D01*
X215644576Y-151450133D01*
X215644576Y-149550133D01*
%TO.C,TK17*%
X236262391Y-207487518D02*
X238162391Y-207487518D01*
X238162391Y-209387518D01*
X236262391Y-209387518D01*
X236262391Y-207487518D01*
%TO.C,TK18*%
X235987944Y-183487439D02*
X237887944Y-183487439D01*
X237887944Y-185387439D01*
X235987944Y-185387439D01*
X235987944Y-183487439D01*
%TO.C,TK12*%
X158929919Y-149477004D02*
X160829919Y-149477004D01*
X160829919Y-151377004D01*
X158929919Y-151377004D01*
X158929919Y-149477004D01*
%TO.C,TK15*%
X236369820Y-160750921D02*
X238269820Y-160750921D01*
X238269820Y-162650921D01*
X236369820Y-162650921D01*
X236369820Y-160750921D01*
%TO.C,TK20*%
X125669000Y-149545000D02*
X127569000Y-149545000D01*
X127569000Y-151445000D01*
X125669000Y-151445000D01*
X125669000Y-149545000D01*
%TO.C,R270*%
X197651000Y-162076000D02*
X199351000Y-162076000D01*
X199351000Y-165076000D01*
X197651000Y-165076000D01*
X197651000Y-162076000D01*
%TO.C,Q9*%
X83992000Y-160715000D02*
X86942000Y-160715000D01*
X86942000Y-163897000D01*
X83992000Y-163897000D01*
X83992000Y-160715000D01*
%TO.C,R269*%
X202985000Y-157377000D02*
X204685000Y-157377000D01*
X204685000Y-160377000D01*
X202985000Y-160377000D01*
X202985000Y-157377000D01*
%TD*%
M02*
