M48
; DRILL file KiCad 10.99.0-unknown date 2026-08-12T15:24:41
; FORMAT={-:-/ absolute / metric / decimal}
; #@! TF.CreationDate,2026-08-12T15:24:41+08:00
; #@! TF.GenerationSoftware,Kicad,Pcbnew,10.99.0-unknown
; #@! TF.FileFunction,MixedPlating,1,4
FMAT,2
METRIC
; #@! TA.AperFunction,Plated,PTH,ViaDrill
T1C0.305
%
G90
G05
T1
X43.485Y-228.993
X43.599Y-226.743
X43.599Y-231.128
X44.195Y-153.651
X44.349Y-225.928
X47.642Y-152.954
X48.889Y-145.839
X49.516Y-227.962
X49.581Y-229.804
X49.63Y-226.674
X51.054Y-149.86
X51.273Y-153.871
X53.975Y-170.434
X54.229Y-217.805
X54.61Y-194.056
X54.737Y-230.251
X54.906Y-167.306
X54.991Y-165.227
X55.114Y-183.125
X55.118Y-159.653
X55.118Y-188.468
X55.138Y-191.096
X55.151Y-166.328
X55.163Y-189.751
X55.164Y-224.861
X55.261Y-177.599
X55.31Y-181.536
X55.334Y-179.042
X55.597Y-212.062
X55.626Y-168.402
X55.626Y-234.315
X55.629Y-213.855
X56.388Y-192.024
X56.533Y-223.948
X56.642Y-215.392
X57.003Y-244.02
X57.15Y-239.395
X57.256Y-229.502
X57.332Y-224.926
X57.339Y-211.846
X57.443Y-242.822
X57.483Y-206.169
X57.532Y-213.924
X57.593Y-200.888
X57.593Y-203.492
X57.912Y-233.553
X58.039Y-240.157
X58.082Y-224.03
X58.397Y-232.392
X58.723Y-229.578
X58.787Y-215.326
X58.828Y-146.352
X58.913Y-224.567
X59.201Y-240.423
X59.264Y-200.884
X59.44Y-231.447
X59.535Y-167.2
X59.563Y-165.608
X59.563Y-188.087
X59.668Y-242.626
X60.071Y-235.077
X60.31Y-189.296
X60.331Y-230.415
X60.385Y-240.108
X60.564Y-205.949
X60.57Y-239.032
X60.741Y-166.564
X60.866Y-243.873
X60.928Y-229.567
X60.955Y-156.475
X60.986Y-165.668
X61.203Y-189.377
X61.214Y-186.055
X61.214Y-209.55
X61.22Y-201.226
X61.83Y-232.599
X61.849Y-162.814
X62.176Y-167.428
X62.222Y-229.458
X62.23Y-238.252
X62.459Y-147.159
X62.787Y-232.045
X62.862Y-154.237
X62.92Y-242.675
X62.93Y-188.546
X63.021Y-206.206
X63.119Y-148.92
X63.489Y-178.709
X63.5Y-196.469
X63.513Y-180.861
X63.562Y-177.291
X63.627Y-197.866
X63.66Y-183.257
X63.667Y-229.448
X63.706Y-215.101
X63.754Y-173.101
X63.754Y-174.498
X63.754Y-219.211
X63.754Y-219.964
X63.787Y-211.76
X63.808Y-191.528
X64.014Y-187.03
X64.016Y-213.276
X64.036Y-151.12
X64.122Y-208.296
X64.182Y-239.823
X64.182Y-240.585
X64.183Y-156.511
X64.364Y-174.516
X64.389Y-196.469
X64.389Y-197.866
X64.516Y-172.974
X64.516Y-237.998
X64.528Y-185.563
X64.77Y-220.091
X64.77Y-220.853
X64.851Y-243.702
X64.897Y-211.328
X64.933Y-191.022
X64.969Y-200.542
X65.083Y-202.938
X65.101Y-229.437
X65.405Y-238.76
X65.613Y-146.059
X65.829Y-242.602
X65.913Y-235.077
X65.922Y-222.465
X65.98Y-154.641
X66.026Y-178.971
X66.139Y-189.93
X66.734Y-243.677
X67.014Y-221.389
X67.039Y-206.084
X67.129Y-212.053
X67.227Y-213.439
X67.31Y-172.847
X67.956Y-241.819
X68.351Y-220.101
X69.024Y-150.9
X69.061Y-156.805
X69.901Y-234.03
X70.638Y-155.961
X70.698Y-219.792
X71.481Y-151.377
X71.697Y-243.531
X71.746Y-241.697
X72.263Y-214.376
X72.471Y-146.206
X72.557Y-180.406
X72.644Y-198.755
X72.875Y-156.988
X72.895Y-176.854
X72.907Y-225.987
X73.095Y-153.137
X73.152Y-214.376
X73.383Y-225.471
X73.452Y-198.755
X73.485Y-219.661
X73.523Y-236.416
X73.537Y-235.387
X73.566Y-237.459
X73.727Y-241.55
X73.898Y-243.433
X74.121Y-233.506
X74.729Y-176.634
X74.883Y-233.506
X74.949Y-177.71
X75.198Y-226.267
X75.198Y-227.029
X75.409Y-219.677
X75.479Y-155.338
X75.565Y-163.957
X75.565Y-183.515
X75.739Y-229.79
X75.739Y-230.552
X75.805Y-243.066
X75.939Y-239.018
X75.956Y-235.481
X76.037Y-237.046
X76.2Y-182.753
X76.563Y-241.33
X76.581Y-188.214
X76.581Y-188.214
X77.202Y-148.92
X77.39Y-237.551
X77.488Y-233.753
X77.781Y-235.562
X77.822Y-240.762
X77.935Y-219.677
X78.125Y-213.94
X78.135Y-176.772
X78.158Y-193.014
X78.389Y-177.76
X78.389Y-200.563
X78.432Y-198.825
X78.568Y-239.619
X78.613Y-215.138
X78.669Y-154.641
X78.677Y-185.073
X78.992Y-183.421
X79.018Y-163.818
X79.252Y-243.922
X79.514Y-178.02
X79.516Y-218.83
X79.582Y-238.806
X79.77Y-146.206
X79.845Y-203.356
X79.851Y-236.19
X79.859Y-215.863
X79.949Y-234.747
X79.974Y-233.769
X79.983Y-191.269
X80.046Y-183.106
X80.095Y-190.544
X80.149Y-175.771
X80.171Y-198.944
X80.517Y-164.046
X80.538Y-192.41
X80.697Y-165.79
X80.725Y-201.682
X80.758Y-187.328
X80.763Y-184.91
X80.772Y-174.498
X80.772Y-189.103
X80.785Y-186.333
X80.91Y-205.149
X80.932Y-200.433
X81.029Y-199.542
X81.097Y-217.33
X81.127Y-203.899
X81.28Y-202.565
X81.342Y-215.456
X81.489Y-238.708
X81.538Y-241.373
X81.587Y-243.183
X81.612Y-234.943
X81.677Y-152.807
X81.701Y-233.769
X81.787Y-155.814
X81.897Y-146.169
X82.084Y-204.834
X82.169Y-187.452
X82.295Y-207.817
X82.516Y-215.651
X82.792Y-214.038
X82.832Y-165.79
X82.882Y-205.763
X82.882Y-207.442
X83.239Y-163.997
X83.377Y-180.335
X83.48Y-182.791
X83.534Y-187.051
X83.602Y-196.445
X83.654Y-185.149
X83.724Y-195.124
X83.79Y-198.27
X83.817Y-177.923
X83.963Y-200.281
X84.262Y-193.193
X84.308Y-213.973
X84.428Y-206.983
X84.507Y-199.216
X84.708Y-187.67
X84.709Y-161.163
X84.898Y-200.335
X85.2Y-231.572
X85.229Y-189.43
X85.365Y-174.94
X85.382Y-179.732
X85.392Y-182.248
X85.392Y-183.663
X85.425Y-186.211
X85.447Y-177.368
X85.652Y-165.032
X85.737Y-211.082
X85.737Y-212.158
X86.106Y-206.883
X86.203Y-205.281
X86.233Y-173.355
X86.374Y-231.601
X86.402Y-165.644
X86.496Y-229.649
X86.614Y-164.388
X86.717Y-204.696
X87.272Y-231.579
X87.289Y-229.67
X87.769Y-186.691
X87.828Y-207.348
X88.584Y-190.195
X88.966Y-206.065
X89.238Y-201.925
X89.627Y-186.495
X89.706Y-173.399
X89.789Y-176.022
X89.934Y-200.882
X89.969Y-188.06
X90.17Y-163.068
X90.197Y-204.852
X90.249Y-201.675
X90.297Y-173.99
X90.377Y-193.211
X90.424Y-225.394
X90.605Y-190.342
X91.098Y-224.938
X91.306Y-191.255
X91.652Y-224.232
X91.925Y-186.446
X91.925Y-193.129
X92.137Y-185.256
X92.3Y-192.168
X93.392Y-193.357
X93.441Y-200.301
X93.472Y-196.469
X93.572Y-185.615
X93.579Y-229.672
X93.62Y-194.287
X93.726Y-172.466
X93.816Y-190.635
X93.853Y-225.679
X93.98Y-210.312
X94.015Y-166.498
X94.361Y-173.101
X94.361Y-196.469
X94.391Y-200.959
X94.869Y-173.609
X95.104Y-192.151
X95.111Y-229.655
X95.631Y-196.215
X95.955Y-227.244
X96.161Y-223.854
X96.179Y-193.178
X96.183Y-221.909
X96.333Y-198.442
X96.393Y-205.994
X96.595Y-229.672
X96.647Y-212.598
X96.647Y-213.36
X96.661Y-226.125
X96.683Y-224.832
X96.901Y-157.607
X97.125Y-193.961
X97.312Y-231.542
X97.369Y-185.762
X97.443Y-222.07
X97.536Y-166.624
X97.669Y-234.196
X97.749Y-201.414
X97.79Y-230.505
X97.917Y-157.607
X97.926Y-165.391
X97.991Y-239.628
X98.052Y-223.354
X98.085Y-225.712
X98.087Y-190.505
X98.139Y-227.157
X98.389Y-221.963
X98.478Y-197.883
X98.478Y-199.621
X98.552Y-194.183
X98.769Y-229.602
X98.985Y-165.88
X99.024Y-185.106
X99.285Y-147.532
X99.309Y-189.804
X99.361Y-243.898
X99.409Y-240.948
X99.568Y-148.844
X99.586Y-197.872
X99.942Y-230.877
X100.061Y-165.505
X100.086Y-198.969
X100.421Y-222.973
X100.464Y-225.842
X100.486Y-224.473
X100.506Y-212.937
X100.584Y-211.709
X100.655Y-233.624
X100.745Y-210.622
X101.105Y-242.806
X101.169Y-165.782
X101.219Y-226.949
X101.227Y-197.85
X101.281Y-189.951
X101.344Y-229.053
X101.854Y-226.187
X102.084Y-224.114
X102.184Y-228.373
X102.325Y-148.926
X102.399Y-223.028
X102.561Y-147.059
X102.616Y-212.598
X102.997Y-209.042
X103.106Y-184.829
X103.191Y-243.328
X103.245Y-216.718
X103.251Y-219.202
X103.378Y-234.315
X103.573Y-207.539
X103.632Y-161.417
X103.632Y-194.31
X103.632Y-226.187
X103.886Y-227.076
X103.951Y-221.947
X104.105Y-215.275
X104.231Y-193.24
X104.267Y-239.014
X104.304Y-187.91
X104.328Y-191.235
X104.656Y-234.688
X105.029Y-162.687
X105.111Y-182.971
X105.184Y-193.289
X105.41Y-234.188
X105.537Y-221.996
X105.664Y-155.448
X105.664Y-157.48
X105.68Y-231.347
X105.685Y-243.377
X105.968Y-160.617
X106.426Y-156.718
X106.426Y-164.084
X106.426Y-237.744
X106.442Y-231.347
X106.7Y-181.235
X107.061Y-217.043
X107.061Y-217.043
X107.214Y-191.235
X107.315Y-220.98
X107.365Y-215.59
X107.442Y-239.014
X107.561Y-165.277
X107.569Y-220.091
X107.569Y-235.331
X107.58Y-185.758
X107.776Y-177.666
X107.823Y-218.948
X107.999Y-243.442
X108.331Y-221.615
X108.344Y-166.043
X108.425Y-163.001
X108.534Y-190.282
X108.583Y-179.377
X108.68Y-230.204
X108.792Y-145.91
X109.347Y-216.408
X109.442Y-230.204
X109.728Y-217.297
X109.745Y-157.426
X109.892Y-164.886
X109.928Y-188.79
X109.977Y-182.873
X110.075Y-148.294
X110.118Y-243.034
X110.49Y-215.9
X110.919Y-154.236
X110.998Y-217.424
X111.099Y-164.12
X111.125Y-177.546
X111.243Y-241.29
X111.281Y-213.172
X111.883Y-180.966
X111.908Y-186.785
X112.268Y-211.836
X112.348Y-231.187
X112.348Y-231.949
X112.649Y-176.276
X112.649Y-228.386
X112.66Y-229.125
X113.03Y-168.529
X113.281Y-148.706
X113.864Y-184.438
X113.919Y-174.879
X113.996Y-229.375
X113.998Y-243.214
X114.063Y-241.111
X114.138Y-231.266
X114.173Y-227.457
X114.554Y-225.171
X114.657Y-213.361
X115.018Y-210.886
X115.382Y-213.433
X115.427Y-153.052
X115.483Y-232.562
X115.654Y-238.772
X115.923Y-237.036
X115.925Y-238.085
X116.045Y-234.371
X116.15Y-213.455
X116.26Y-182.018
X116.586Y-162.941
X116.91Y-213.498
X117.115Y-230.603
X117.275Y-222.839
X117.602Y-162.56
X117.729Y-161.29
X117.895Y-238.935
X117.927Y-224.192
X117.955Y-241.608
X118.028Y-180.653
X118.12Y-213.549
X118.205Y-222.007
X118.33Y-243.108
X118.364Y-231.267
X118.484Y-229.744
X118.539Y-228.18
X118.558Y-237.761
X118.562Y-151.346
X118.639Y-240.011
X118.651Y-187.283
X118.694Y-224.86
X119.039Y-155.949
X119.057Y-146.065
X119.253Y-161.036
X119.617Y-239.864
X119.634Y-225.806
X119.655Y-222.236
X120.004Y-186.142
X120.09Y-243.091
X120.503Y-224.355
X120.65Y-213.614
X120.938Y-237.892
X121.031Y-187.579
X121.031Y-229.362
X121.096Y-184.61
X121.178Y-186.386
X121.215Y-239.913
X121.553Y-195.486
X121.562Y-224.778
X121.665Y-211.956
X121.726Y-194.522
X121.855Y-198.308
X121.883Y-213.335
X122.092Y-229.027
X122.136Y-227.962
X122.428Y-195.326
X122.448Y-212.694
X122.555Y-193.802
X122.616Y-243.108
X122.682Y-179.07
X122.701Y-228.538
X122.8Y-198.78
X122.94Y-229.375
X122.959Y-211.684
X123.285Y-239.897
X123.355Y-225.968
X123.698Y-217.043
X123.776Y-229.527
X123.823Y-242.619
X123.937Y-235.316
X123.969Y-240.549
X124.002Y-237.419
X124.084Y-232.611
X124.235Y-198.633
X124.263Y-231.518
X125.476Y-157.734
X125.811Y-231.502
X125.816Y-198.682
X125.825Y-228.389
X126.238Y-179.832
X127.022Y-198.259
X127.632Y-181.253
X127.718Y-231.453
X127.889Y-170.688
X128.098Y-198.21
X128.143Y-161.925
X128.685Y-198.748
X130.175Y-226.441
X130.617Y-163.383
X130.943Y-162.063
X130.959Y-159.52
X130.976Y-157.678
X131.428Y-198.311
X131.737Y-198.897
X132.34Y-198.474
X132.969Y-157.607
X133.35Y-200.025
X133.35Y-204.978
X133.714Y-159.96
X134.187Y-163.302
X134.203Y-162.258
X134.251Y-188.012
X134.565Y-189.587
X134.62Y-200.025
X135.128Y-187.325
X135.15Y-226.747
X135.165Y-160.922
X135.207Y-188.034
X135.391Y-189.584
X135.393Y-157.515
X135.506Y-192.056
X135.671Y-225.867
X136.139Y-188.8
X136.143Y-162.91
X136.192Y-158.754
X136.257Y-160.058
X136.525Y-165.481
X136.652Y-149.479
X136.958Y-163.481
X136.974Y-162.209
X137.091Y-189.76
X137.16Y-160.655
X137.16Y-167.767
X137.481Y-226.731
X137.494Y-223.407
X137.494Y-224.169
X137.506Y-178.493
X137.795Y-182.372
X138.338Y-178.656
X138.676Y-162.605
X138.752Y-164.549
X139.192Y-149.479
X139.446Y-202.184
X139.486Y-226.226
X139.57Y-184.519
X139.573Y-197.485
X139.788Y-176.423
X139.954Y-178.816
X140.081Y-179.705
X140.208Y-150.622
X140.208Y-227.203
X140.583Y-184.551
X140.685Y-158.996
X140.716Y-154.94
X140.97Y-230.505
X141.224Y-158.457
X141.556Y-226.503
X141.859Y-148.209
X141.986Y-200.331
X142.113Y-150.114
X142.697Y-226.845
X143.103Y-189.016
X143.233Y-229.343
X143.383Y-200.331
X144.018Y-150.622
X144.051Y-235.269
X144.526Y-156.845
X144.653Y-155.067
X144.653Y-200.273
X144.662Y-188.045
X145.347Y-170.916
X145.415Y-175.387
X145.542Y-188.976
X145.71Y-218.357
X145.843Y-169.848
X145.95Y-187.866
X145.985Y-234.842
X146.304Y-158.496
X146.685Y-238.252
X146.822Y-234.273
X147.066Y-156.591
X147.193Y-150.114
X147.193Y-159.639
X147.312Y-192.468
X147.319Y-187.882
X147.389Y-219.253
X147.447Y-200.262
X147.871Y-156.827
X148.709Y-220.492
X148.844Y-200.25
X149.04Y-192.973
X149.524Y-221.845
X149.86Y-155.956
X149.86Y-238.252
X149.887Y-192.566
X149.987Y-158.242
X150.034Y-231.474
X150.114Y-217.678
X150.298Y-234.413
X150.334Y-235.127
X150.495Y-176.022
X150.58Y-159.478
X150.796Y-231.474
X151.159Y-201.637
X151.257Y-218.313
X151.305Y-198.727
X151.452Y-200.145
X152.022Y-188.654
X152.039Y-187.48
X152.071Y-193.071
X152.379Y-183.38
X152.4Y-161.798
X152.527Y-163.449
X152.654Y-176.022
X152.684Y-225.758
X153.161Y-182.769
X153.26Y-226.247
X153.404Y-220.574
X153.477Y-185.918
X153.477Y-187.95
X153.487Y-188.852
X153.498Y-187.081
X153.543Y-161.036
X153.733Y-158.771
X153.743Y-159.396
X153.75Y-232.203
X153.75Y-232.965
X153.792Y-189.623
X153.847Y-227.084
X153.857Y-184.864
X153.957Y-237.902
X153.996Y-229.328
X154.066Y-181.816
X154.533Y-198.042
X154.681Y-229.719
X154.777Y-200.145
X154.892Y-184.07
X154.919Y-222.122
X154.94Y-162.687
X154.94Y-227.457
X155.414Y-186.461
X155.448Y-228.473
X155.675Y-229.98
X155.692Y-234.316
X155.702Y-163.449
X155.757Y-231.3
X155.921Y-178.551
X156.21Y-175.768
X156.289Y-220.948
X156.337Y-184.023
X156.468Y-185.505
X156.533Y-224.045
X156.635Y-200.218
X156.831Y-199.167
X156.845Y-175.26
X156.88Y-197.966
X157.109Y-186.396
X157.165Y-158.123
X157.187Y-157.275
X157.291Y-175.768
X157.507Y-183.77
X157.607Y-176.657
X157.967Y-186.918
X158.033Y-225.871
X158.138Y-184.212
X158.353Y-201.721
X158.573Y-173.354
X158.75Y-161.798
X158.75Y-177.292
X158.75Y-180.721
X159.114Y-200.939
X159.131Y-174.371
X159.247Y-173.115
X159.345Y-242.721
X159.434Y-186.961
X159.451Y-224.534
X159.766Y-161.671
X159.82Y-200.233
X160.222Y-202.058
X160.231Y-182.096
X160.516Y-199.461
X160.528Y-183.642
X160.559Y-220.688
X160.693Y-181.627
X160.939Y-201.308
X161.097Y-222.578
X161.163Y-174.371
X161.203Y-240.863
X161.613Y-200.646
X161.733Y-221.698
X162.181Y-243.724
X162.31Y-198.758
X162.392Y-160.982
X162.424Y-157.383
X162.433Y-183.642
X162.53Y-161.765
X162.687Y-173.609
X162.7Y-176.803
X162.7Y-177.603
X162.7Y-178.403
X162.7Y-179.203
X162.7Y-180.003
X162.719Y-231.327
X162.866Y-228.54
X162.866Y-234.384
X162.89Y-225.777
X162.913Y-157.872
X162.939Y-236.168
X162.939Y-239.054
X163.051Y-161.287
X163.183Y-223.748
X163.336Y-157.057
X163.41Y-176.803
X163.41Y-177.603
X163.41Y-178.403
X163.41Y-179.203
X163.41Y-180.003
X163.973Y-198.66
X164.047Y-176.803
X164.047Y-177.603
X164.047Y-178.403
X164.047Y-179.203
X164.047Y-180.003
X164.084Y-239.776
X164.21Y-241.572
X164.211Y-186.053
X164.714Y-176.803
X164.714Y-177.603
X164.714Y-178.403
X164.714Y-179.203
X164.714Y-180.003
X165.099Y-223.976
X165.213Y-226.943
X165.227Y-173.609
X165.245Y-228.589
X165.387Y-176.803
X165.387Y-177.603
X165.387Y-178.403
X165.387Y-179.203
X165.387Y-180.003
X165.44Y-163.253
X165.451Y-165.72
X165.735Y-183.642
X165.849Y-242.819
X165.862Y-204.343
X165.889Y-232.917
X165.897Y-237.709
X165.946Y-240.496
X165.998Y-162.152
X166.044Y-235.019
X166.068Y-176.803
X166.068Y-177.603
X166.068Y-178.403
X166.068Y-179.203
X166.068Y-180.003
X166.23Y-161.143
X166.266Y-165.72
X166.287Y-163.22
X166.468Y-224.058
X166.882Y-198.856
X167.12Y-228.328
X167.132Y-162.433
X167.132Y-166.497
X167.132Y-173.609
X167.513Y-182.753
X167.513Y-182.753
X167.513Y-186.69
X167.521Y-148.662
X167.558Y-151.083
X167.802Y-154.237
X167.925Y-145.985
X168.033Y-223.992
X168.034Y-199.326
X168.275Y-207.518
X168.402Y-220.853
X168.444Y-163.144
X169.112Y-163.78
X169.164Y-229.616
X169.257Y-184.756
X169.257Y-185.929
X169.312Y-231.189
X169.646Y-225.362
X169.663Y-228.263
X169.731Y-161.465
X169.844Y-185.408
X170.023Y-199.348
X170.116Y-155.397
X170.171Y-164.953
X170.207Y-173.186
X170.263Y-156.994
X170.611Y-162.851
X170.864Y-152.078
X170.866Y-157.858
X170.885Y-226.698
X170.97Y-165.833
X170.99Y-173.205
X171.189Y-149.066
X171.293Y-183.539
X171.323Y-182.118
X171.404Y-155.364
X171.648Y-184.307
X171.648Y-157.385
X171.749Y-228.524
X171.765Y-199.312
X171.806Y-231.466
X171.831Y-205.994
X171.86Y-158.51
X171.877Y-156.554
X171.981Y-163.829
X172.202Y-160.629
X172.212Y-146.558
X172.289Y-186.337
X172.437Y-167.203
X172.462Y-152.307
X172.804Y-153.545
X172.885Y-154.442
X173.101Y-176.53
X173.101Y-177.419
X173.234Y-186.141
X173.268Y-167.137
X173.323Y-199.319
X173.609Y-208.407
X173.863Y-180.848
X173.863Y-181.991
X174.067Y-167.252
X174.16Y-156.378
X174.177Y-207.115
X174.237Y-206.18
X174.311Y-164.22
X174.678Y-148.623
X174.678Y-150.155
X175.006Y-222.377
X175.006Y-223.266
X175.09Y-199.377
X175.2Y-151.785
X175.216Y-154.328
X175.395Y-205.545
X175.514Y-186.563
X175.514Y-189.865
X175.66Y-159.829
X175.819Y-152.062
X175.895Y-218.059
X175.966Y-147.792
X176.022Y-219.075
X176.105Y-166.632
X176.143Y-199.33
X176.149Y-220.091
X176.219Y-164.089
X176.34Y-205.366
X176.403Y-186.563
X176.43Y-165.573
X176.526Y-190.13
X176.671Y-161.587
X176.703Y-158.851
X176.734Y-173.215
X176.944Y-152.649
X177.081Y-179.678
X177.221Y-224.706
X177.294Y-199.323
X177.319Y-151.85
X177.419Y-205.486
X177.551Y-161.587
X177.573Y-207.191
X177.584Y-155.542
X177.586Y-183.182
X177.665Y-157.71
X177.737Y-162.941
X177.8Y-216.154
X177.822Y-228.623
X177.875Y-173.211
X177.961Y-178.847
X177.984Y-231.091
X178.054Y-185.166
X178.136Y-226.708
X178.158Y-164.725
X178.181Y-186.69
X178.181Y-190.246
X178.308Y-199.517
X178.382Y-161.571
X178.435Y-181.102
X178.435Y-182.118
X178.562Y-148.336
X178.57Y-204.974
X178.689Y-216.154
X178.705Y-177.895
X178.792Y-183.248
X178.822Y-159.731
X179.08Y-224.763
X179.108Y-228.423
X179.165Y-161.587
X179.569Y-178.139
X179.578Y-205.867
X179.61Y-152.477
X179.637Y-154.792
X179.648Y-204.738
X179.705Y-219.329
X179.705Y-229.616
X179.833Y-156.064
X179.884Y-179.922
X179.915Y-164.828
X179.917Y-182.954
X180.179Y-230.895
X180.213Y-185.166
X180.32Y-152.528
X180.34Y-220.091
X180.49Y-165.589
X180.594Y-218.44
X180.723Y-205.641
X180.975Y-178.435
X180.975Y-187.198
X181.053Y-226.679
X181.059Y-152.318
X181.194Y-173.344
X181.194Y-174.566
X181.214Y-149.078
X181.428Y-146.771
X181.631Y-166.567
X181.655Y-204.963
X181.864Y-205.867
X181.992Y-173.979
X182.004Y-149.129
X182.05Y-161.288
X182.245Y-152.781
X182.245Y-224.917
X182.258Y-152.102
X182.359Y-178.022
X182.374Y-230.732
X182.595Y-173.262
X182.595Y-174.892
X182.77Y-205.39
X182.976Y-146.771
X182.995Y-161.337
X183.007Y-211.836
X183.031Y-234.058
X183.134Y-153.289
X183.134Y-215.011
X183.134Y-224.409
X183.175Y-225.314
X183.388Y-215.9
X183.63Y-178.07
X183.642Y-213.36
X183.678Y-225.734
X183.712Y-174.069
X183.924Y-161.353
X184.023Y-209.804
X184.523Y-244.082
X184.532Y-191.962
X184.743Y-242.371
X184.785Y-233.426
X184.873Y-230.819
X184.912Y-228.219
X185.0Y-161.353
X185.014Y-147.048
X185.166Y-153.289
X185.459Y-160.337
X185.547Y-213.614
X185.684Y-238.773
X185.721Y-243.397
X185.942Y-240.746
X185.985Y-214.801
X185.992Y-234.286
X185.994Y-177.956
X186.157Y-157.017
X186.253Y-232.091
X186.362Y-193.449
X186.436Y-211.836
X186.513Y-147.732
X186.535Y-160.549
X186.613Y-174.134
X186.67Y-216.35
X186.69Y-210.82
X186.693Y-149.46
X186.71Y-234.818
X186.74Y-214.763
X187.027Y-152.102
X187.036Y-233.547
X187.135Y-159.055
X187.168Y-156.316
X187.205Y-215.69
X187.301Y-160.826
X187.332Y-213.238
X187.41Y-148.694
X187.649Y-192.163
X187.706Y-152.781
X187.829Y-238.735
X187.885Y-177.891
X187.96Y-212.598
X187.999Y-158.908
X188.323Y-213.911
X188.386Y-243.373
X188.421Y-148.955
X188.521Y-156.007
X188.616Y-152.068
X188.722Y-240.919
X188.977Y-157.017
X189.103Y-211.836
X189.212Y-213.273
X189.301Y-230.472
X189.382Y-152.394
X189.484Y-214.376
X189.485Y-160.043
X189.58Y-178.005
X189.594Y-158.848
X189.798Y-180.838
X189.818Y-186.767
X189.825Y-165.969
X189.83Y-185.186
X189.84Y-229.933
X189.841Y-179.26
X189.865Y-239.776
X189.908Y-183.222
X190.067Y-152.476
X190.069Y-156.186
X190.071Y-147.427
X190.119Y-162.687
X190.119Y-209.931
X190.129Y-197.538
X190.271Y-166.849
X190.523Y-151.433
X190.572Y-150.422
X190.672Y-174.362
X190.738Y-156.887
X190.863Y-199.152
X190.999Y-164.86
X191.008Y-205.613
X191.008Y-210.439
X191.156Y-200.716
X191.205Y-196.364
X191.583Y-149.982
X191.843Y-148.564
X191.93Y-159.413
X191.944Y-177.842
X191.949Y-182.497
X191.966Y-186.914
X192.014Y-180.084
X192.014Y-184.73
X192.112Y-185.773
X192.324Y-180.818
X192.398Y-149.151
X192.413Y-227.742
X192.574Y-194.849
X192.659Y-239.014
X192.86Y-243.349
X192.952Y-227.203
X193.421Y-217.297
X193.783Y-149.053
X193.897Y-177.876
X193.968Y-200.643
X194.15Y-157.704
X194.172Y-167.262
X194.223Y-156.408
X194.272Y-158.804
X194.333Y-204.745
X194.333Y-205.527
X194.433Y-165.056
X194.437Y-206.629
X194.596Y-166.501
X194.655Y-180.524
X194.734Y-218.357
X194.747Y-219.424
X194.785Y-179.856
X195.019Y-162.143
X195.106Y-165.74
X195.125Y-220.038
X195.171Y-195.163
X195.529Y-219.538
X195.709Y-162.543
X195.834Y-161.29
X195.961Y-177.038
X196.039Y-243.74
X196.041Y-228.012
X196.041Y-228.774
X196.088Y-238.125
X196.1Y-173.433
X196.392Y-219.936
X196.668Y-178.234
X196.703Y-159.544
X196.964Y-161.337
X197.192Y-162.396
X197.372Y-217.142
X197.758Y-200.668
X197.893Y-173.417
X197.953Y-180.969
X197.993Y-205.105
X198.086Y-156.115
X198.236Y-161.516
X198.276Y-195.04
X198.381Y-207.017
X198.383Y-217.979
X198.426Y-179.486
X198.479Y-227.379
X199.009Y-205.486
X199.069Y-227.897
X199.144Y-217.337
X199.22Y-186.882
X199.284Y-218.64
X199.371Y-184.963
X199.572Y-161.435
X199.633Y-241.637
X199.737Y-227.448
X199.754Y-228.601
X199.773Y-156.164
X199.855Y-219.716
X200.025Y-207.264
X200.175Y-173.515
X200.447Y-179.518
X200.762Y-162.445
X200.787Y-216.154
X200.789Y-184.832
X201.05Y-183.447
X201.186Y-195.089
X201.235Y-161.483
X201.295Y-243.52
X201.327Y-200.79
X201.392Y-181.1
X201.403Y-219.651
X201.553Y-231.74
X201.633Y-186.768
X201.739Y-173.368
X201.778Y-156.188
X201.98Y-240.781
X202.057Y-163.703
X202.182Y-232.569
X202.218Y-227.633
X202.251Y-217.45
X202.438Y-234.061
X202.707Y-229.54
X202.713Y-242.835
X202.779Y-205.625
X202.844Y-206.886
X203.014Y-197.538
X203.039Y-194.971
X203.067Y-186.637
X203.126Y-161.451
X203.161Y-200.472
X203.214Y-184.893
X203.24Y-163.407
X203.292Y-167.134
X203.496Y-240.097
X203.668Y-156.402
X203.835Y-167.612
X204.028Y-228.098
X204.052Y-229.614
X204.089Y-205.994
X204.089Y-218.694
X204.089Y-226.695
X204.315Y-162.657
X204.318Y-173.871
X204.511Y-161.598
X204.608Y-182.399
X204.707Y-165.428
X204.851Y-156.972
X204.914Y-243.422
X204.938Y-239.681
X204.978Y-225.044
X204.978Y-231.394
X205.0Y-166.243
X205.166Y-194.8
X205.239Y-198.027
X205.24Y-184.607
X205.245Y-206.679
X205.364Y-219.683
X205.427Y-173.284
X205.435Y-200.374
X205.55Y-205.745
X205.639Y-181.368
X205.723Y-217.385
X205.886Y-229.418
X205.91Y-228.123
X206.064Y-158.725
X206.34Y-183.396
X206.629Y-164.338
X206.81Y-206.063
X207.042Y-163.126
X207.089Y-179.787
X207.091Y-161.805
X207.091Y-166.622
X207.106Y-173.43
X207.137Y-222.25
X207.336Y-159.385
X207.593Y-193.161
X207.628Y-239.632
X207.751Y-165.986
X207.807Y-182.296
X208.005Y-219.439
X208.02Y-162.661
X208.106Y-206.307
X208.216Y-167.086
X208.28Y-178.435
X208.363Y-165.13
X208.377Y-176.332
X208.377Y-177.169
X208.728Y-243.471
X208.809Y-196.144
X208.882Y-193.626
X209.042Y-175.387
X209.042Y-183.261
X209.084Y-206.552
X209.095Y-237.652
X209.193Y-235.085
X209.217Y-241.882
X209.273Y-191.67
X209.358Y-231.496
X209.441Y-180.332
X209.767Y-181.506
X209.854Y-177.209
X209.92Y-230.274
X210.189Y-221.427
X210.319Y-173.72
X210.327Y-176.28
X210.569Y-198.858
X210.783Y-177.127
X210.947Y-163.703
X211.016Y-206.527
X211.036Y-173.289
X211.038Y-181.718
X211.085Y-174.185
X211.229Y-200.399
X211.804Y-208.88
X212.471Y-201.295
X212.632Y-171.664
X212.667Y-223.84
X213.394Y-182.44
X213.487Y-167.513
X213.543Y-207.635
X213.579Y-206.481
X213.82Y-160.831
X213.966Y-191.429
X214.064Y-189.0
X214.125Y-179.846
X214.2Y-211.399
X214.26Y-194.412
X214.491Y-208.605
X214.722Y-200.331
X214.884Y-228.6
X214.995Y-198.174
X215.138Y-170.18
X215.138Y-175.768
X215.337Y-199.518
X215.519Y-181.483
X216.032Y-209.656
X216.095Y-200.227
X216.119Y-202.232
X216.276Y-170.316
X216.281Y-171.577
X216.281Y-178.435
X216.281Y-188.976
X216.373Y-196.49
X216.656Y-197.838
X216.662Y-173.482
X216.688Y-174.56
X216.748Y-172.582
X216.789Y-181.991
X216.856Y-228.541
X216.916Y-230.251
X216.987Y-214.113
X217.195Y-203.235
X217.483Y-228.952
X217.575Y-231.618
X217.805Y-158.242
X217.899Y-229.536
X217.932Y-157.607
X217.932Y-170.688
X218.275Y-198.001
X218.297Y-171.669
X218.38Y-231.649
X218.491Y-204.653
X218.687Y-203.235
X218.694Y-157.607
X218.851Y-170.006
X218.932Y-171.18
X219.013Y-192.868
X219.041Y-211.888
X219.094Y-182.561
X219.147Y-231.656
X219.192Y-195.183
X219.29Y-194.091
X219.329Y-196.61
X219.518Y-205.24
X219.587Y-199.427
X219.616Y-202.575
X219.837Y-163.322
X219.848Y-217.071
X219.964Y-173.228
X220.091Y-179.578
X220.181Y-231.63
X220.251Y-193.129
X220.313Y-213.795
X220.345Y-191.77
X220.971Y-160.858
X221.02Y-161.934
X221.107Y-181.356
X221.742Y-175.768
X221.755Y-215.213
X222.096Y-160.76
X222.134Y-204.775
X222.25Y-172.339
X222.289Y-196.389
X222.305Y-202.55
X222.377Y-170.815
X222.419Y-198.606
X222.425Y-174.207
X222.452Y-205.704
X222.756Y-161.86
X223.017Y-190.57
X223.051Y-216.24
X223.386Y-191.95
X223.393Y-157.099
X223.659Y-172.011
X223.662Y-220.519
X223.685Y-160.833
X223.71Y-161.714
X223.745Y-190.331
X223.774Y-173.482
X223.774Y-208.534
X223.851Y-183.645
X223.87Y-197.823
X224.041Y-203.895
X224.322Y-215.629
X224.409Y-195.072
X224.445Y-217.976
X224.511Y-181.665
X224.674Y-174.778
X224.79Y-157.353
X224.913Y-197.171
X224.917Y-186.563
X224.983Y-217.096
X225.016Y-193.721
X225.122Y-178.804
X225.196Y-183.547
X225.336Y-234.001
X225.569Y-221.814
X225.643Y-215.775
X225.643Y-240.005
X225.883Y-152.111
X225.933Y-201.295
X226.058Y-222.841
X226.174Y-174.436
X226.267Y-171.603
X226.303Y-220.739
X226.394Y-180.271
X226.679Y-173.8
X226.706Y-197.106
X226.718Y-216.949
X226.816Y-239.932
X226.949Y-232.791
X226.97Y-194.983
X227.152Y-183.572
X227.403Y-243.184
X227.41Y-227.631
X227.41Y-228.393
X227.457Y-162.052
X227.584Y-161.29
X227.66Y-204.188
X227.771Y-174.827
X228.154Y-178.339
X228.346Y-161.798
X228.549Y-171.685
X228.6Y-211.836
X228.674Y-241.668
X228.695Y-197.204
X228.814Y-174.077
X229.002Y-230.398
X229.053Y-145.636
X229.091Y-175.74
X229.272Y-162.089
X229.352Y-183.474
X229.359Y-220.641
X229.464Y-194.91
X229.489Y-211.455
X229.589Y-233.962
X229.694Y-180.784
X229.73Y-235.038
X229.836Y-202.868
X229.885Y-205.411
X229.947Y-224.286
X229.948Y-231.452
X229.97Y-221.57
X230.239Y-241.105
X230.763Y-232.517
X230.899Y-243.098
X230.96Y-147.396
X231.218Y-225.631
X231.749Y-149.303
X232.156Y-238.887
X232.465Y-216.829
X232.709Y-220.616
X232.994Y-234.971
X233.149Y-241.863
X234.261Y-153.118
X234.518Y-145.746
X234.788Y-225.9
X235.103Y-234.802
X235.363Y-175.678
X235.472Y-243.012
X235.619Y-217.098
X235.656Y-235.254
X235.961Y-227.392
X235.966Y-238.76
X236.328Y-221.524
X236.579Y-199.873
X236.601Y-171.323
X236.677Y-197.966
X236.728Y-194.691
X236.728Y-218.44
X236.756Y-174.627
X237.342Y-152.751
X237.941Y-241.851
X238.003Y-176.559
X238.46Y-223.927
X238.706Y-200.167
X239.287Y-219.03
X239.415Y-196.939
X240.166Y-145.673
X240.386Y-153.008
X240.936Y-223.047
X240.998Y-232.502
X241.074Y-176.204
X241.108Y-174.163
X241.175Y-197.526
X241.376Y-147.103
X241.425Y-239.247
X241.756Y-234.384
X241.762Y-199.58
X241.829Y-217.025
X241.835Y-194.25
X241.842Y-171.571
M30
