%TF.GenerationSoftware,KiCad,Pcbnew,10.99.0-unknown*%
%TF.CreationDate,2026-08-12T15:24:40+08:00*%
%TF.ProjectId,___KVM____________HDMI,f3c6914b-564d-4076-9268-5f49a40121df,rev?*%
%TF.SameCoordinates,Original*%
%TF.FileFunction,Soldermask,Top*%
%TF.FilePolarity,Negative*%
%FSLAX46Y46*%
G04 Gerber Fmt 4.6, Leading zero omitted, Abs format (unit mm)*
G04 Created by KiCad (PCBNEW 10.99.0-unknown) date 2026-08-12 15:24:40*
%MOMM*%
%LPD*%
G01*
G04 APERTURE LIST*
G04 Aperture macros list*
%AMRoundRect*
0 Rectangle with rounded corners*
0 $1 Rounding radius*
0 $2 $3 $4 $5 $6 $7 $8 $9 X,Y pos of 4 corners*
0 Add a 4 corners polygon primitive as box body*
4,1,4,$2,$3,$4,$5,$6,$7,$8,$9,$2,$3,0*
0 Add four circle primitives for the rounded corners*
1,1,$1+$1,$2,$3*
1,1,$1+$1,$4,$5*
1,1,$1+$1,$6,$7*
1,1,$1+$1,$8,$9*
0 Add four rect primitives between the rounded corners*
20,1,$1+$1,$2,$3,$4,$5,0*
20,1,$1+$1,$4,$5,$6,$7,0*
20,1,$1+$1,$6,$7,$8,$9,0*
20,1,$1+$1,$8,$9,$2,$3,0*%
G04 Aperture macros list end*
%ADD10RoundRect,0.155000X0.345000X-0.105000X0.345000X0.105000X-0.345000X0.105000X-0.345000X-0.105000X0*%
%ADD11RoundRect,0.155000X-0.105000X-0.345000X0.105000X-0.345000X0.105000X0.345000X-0.105000X0.345000X0*%
%ADD12C,0.850000*%
%ADD13RoundRect,0.275000X-0.225000X-0.275000X0.225000X-0.275000X0.225000X0.275000X-0.225000X0.275000X0*%
%ADD14RoundRect,0.275000X-0.225000X-0.275000X0.225000X-0.275000X0.225000X0.275000X-0.225000X0.275000X0*%
%ADD15RoundRect,0.155000X-0.105000X-0.345000X0.105000X-0.345000X0.105000X0.345000X-0.105000X0.345000X0*%
%ADD16RoundRect,0.155000X0.345000X-0.105000X0.345000X0.105000X-0.345000X0.105000X-0.345000X-0.105000X0*%
%ADD17C,1.300000*%
G04 APERTURE END LIST*
D10*
%TO.C,CN1*%
X145828000Y-236468000D03*
X146628000Y-236468000D03*
X147428000Y-236468000D03*
X148228000Y-236468000D03*
X149028000Y-236468000D03*
X149828000Y-236468000D03*
D11*
X150628000Y-237268000D03*
X150628000Y-238068000D03*
X150628000Y-238868000D03*
X150628000Y-239668000D03*
X150628000Y-240468000D03*
X150628000Y-241268000D03*
D10*
X149828000Y-242068000D03*
X149028000Y-242068000D03*
X148228000Y-242068000D03*
X147428000Y-242068000D03*
X146628000Y-242068000D03*
X145828000Y-242068000D03*
D11*
X145028000Y-241268000D03*
X145028000Y-240468000D03*
X145028000Y-239668000D03*
X145028000Y-238868000D03*
X145028000Y-238068000D03*
%TD*%
D12*
%TO.C,U3*%
X122664000Y-238760000D03*
X122148500Y-240004500D03*
X120904000Y-240520000D03*
X119659500Y-240004500D03*
X119144000Y-238760000D03*
X119659500Y-237515500D03*
X120904000Y-237000000D03*
X122148500Y-237515500D03*
%TD*%
D10*
%TO.C,U5*%
X238356052Y-227460281D03*
X239156052Y-227460281D03*
X239956052Y-227460281D03*
D11*
X240756052Y-228260281D03*
X240756052Y-229060281D03*
X240756052Y-229860281D03*
D10*
X239956052Y-230660281D03*
X239156052Y-230660281D03*
X238356052Y-230660281D03*
%TD*%
%TO.C,U6*%
X45893699Y-227333281D03*
X46693699Y-227333281D03*
X47493699Y-227333281D03*
D11*
X48293699Y-228133281D03*
X48293699Y-228933281D03*
X48293699Y-229733281D03*
D10*
X47493699Y-230533281D03*
X46693699Y-230533281D03*
X45893699Y-230533281D03*
%TD*%
%TO.C,U7*%
X46217348Y-147196281D03*
X47017348Y-147196281D03*
X47817348Y-147196281D03*
D11*
X48617348Y-147996281D03*
X48617348Y-148796281D03*
X48617348Y-149596281D03*
D10*
X47817348Y-150396281D03*
X47017348Y-150396281D03*
X46217348Y-150396281D03*
%TD*%
%TO.C,U8*%
X237802995Y-147577281D03*
X238602995Y-147577281D03*
X239402995Y-147577281D03*
D11*
X240202995Y-148377281D03*
X240202995Y-149177281D03*
X240202995Y-149977281D03*
D10*
X239402995Y-150777281D03*
X238602995Y-150777281D03*
X237802995Y-150777281D03*
%TD*%
%TO.C,CN2*%
X103156000Y-236468000D03*
X103956000Y-236468000D03*
X104756000Y-236468000D03*
X105556000Y-236468000D03*
X106356000Y-236468000D03*
X107156000Y-236468000D03*
D11*
X107956000Y-237268000D03*
X107956000Y-238068000D03*
X107956000Y-238868000D03*
X107956000Y-239668000D03*
X107956000Y-240468000D03*
X107956000Y-241268000D03*
D10*
X107156000Y-242068000D03*
X106356000Y-242068000D03*
X105556000Y-242068000D03*
X104756000Y-242068000D03*
X103956000Y-242068000D03*
X103156000Y-242068000D03*
D11*
X102356000Y-241268000D03*
X102356000Y-240468000D03*
X102356000Y-239668000D03*
X102356000Y-238868000D03*
X102356000Y-238068000D03*
%TD*%
D10*
%TO.C,CN3*%
X61500000Y-236468000D03*
X62300000Y-236468000D03*
X63100000Y-236468000D03*
X63900000Y-236468000D03*
X64700000Y-236468000D03*
X65500000Y-236468000D03*
D11*
X66300000Y-237268000D03*
X66300000Y-238068000D03*
X66300000Y-238868000D03*
X66300000Y-239668000D03*
X66300000Y-240468000D03*
X66300000Y-241268000D03*
D10*
X65500000Y-242068000D03*
X64700000Y-242068000D03*
X63900000Y-242068000D03*
X63100000Y-242068000D03*
X62300000Y-242068000D03*
X61500000Y-242068000D03*
D11*
X60700000Y-241268000D03*
X60700000Y-240468000D03*
X60700000Y-239668000D03*
X60700000Y-238868000D03*
X60700000Y-238068000D03*
%TD*%
D13*
%TO.C,LED3*%
X54239744Y-242544639D03*
X54239744Y-241144639D03*
%TD*%
%TO.C,LED2*%
X95562052Y-242460693D03*
X95562052Y-241060693D03*
%TD*%
%TO.C,LED1*%
X138313744Y-242785673D03*
X138313744Y-241385673D03*
%TD*%
D14*
%TO.C,D1*%
X141859000Y-230948000D03*
X141859000Y-232348000D03*
%TD*%
%TO.C,D2*%
X98806000Y-231202000D03*
X98806000Y-232602000D03*
%TD*%
%TO.C,D3*%
X55880000Y-230694000D03*
X55880000Y-232094000D03*
%TD*%
D13*
%TO.C,C6*%
X165800000Y-231394000D03*
X164400000Y-231394000D03*
%TD*%
D10*
%TO.C,U1*%
X101461000Y-223315000D03*
X101461000Y-222665000D03*
X101461000Y-222015000D03*
X101461000Y-221365000D03*
X101461000Y-220715000D03*
X101461000Y-220065000D03*
X101461000Y-219415000D03*
X101461000Y-218765000D03*
X101461000Y-218115000D03*
X101461000Y-217465000D03*
X101461000Y-216815000D03*
X101461000Y-216165000D03*
X101461000Y-215515000D03*
X101461000Y-214865000D03*
X101461000Y-214215000D03*
X101461000Y-213565000D03*
D15*
X102186000Y-212840000D03*
X102836000Y-212840000D03*
X103486000Y-212840000D03*
X104136000Y-212840000D03*
X104786000Y-212840000D03*
X105436000Y-212840000D03*
X106086000Y-212840000D03*
X106736000Y-212840000D03*
X107386000Y-212840000D03*
X108036000Y-212840000D03*
X108686000Y-212840000D03*
X109336000Y-212840000D03*
X109986000Y-212840000D03*
X110636000Y-212840000D03*
X111286000Y-212840000D03*
X111936000Y-212840000D03*
D10*
X112661000Y-213565000D03*
X112661000Y-214215000D03*
X112661000Y-214865000D03*
X112661000Y-215515000D03*
X112661000Y-216165000D03*
X112661000Y-216815000D03*
X112661000Y-217465000D03*
X112661000Y-218115000D03*
X112661000Y-218765000D03*
X112661000Y-219415000D03*
X112661000Y-220065000D03*
X112661000Y-220715000D03*
X112661000Y-221365000D03*
X112661000Y-222015000D03*
X112661000Y-222665000D03*
X112661000Y-223315000D03*
D15*
X111936000Y-224040000D03*
X111286000Y-224040000D03*
X110636000Y-224040000D03*
X109986000Y-224040000D03*
X109336000Y-224040000D03*
X108686000Y-224040000D03*
X108036000Y-224040000D03*
X107386000Y-224040000D03*
X106736000Y-224040000D03*
X106086000Y-224040000D03*
X105436000Y-224040000D03*
X104786000Y-224040000D03*
X104136000Y-224040000D03*
X103486000Y-224040000D03*
X102836000Y-224040000D03*
X102186000Y-224040000D03*
%TD*%
D13*
%TO.C,LED4*%
X180963938Y-242937692D03*
X180963938Y-241537692D03*
%TD*%
%TO.C,LED5*%
X223530744Y-243166673D03*
X223530744Y-241766673D03*
%TD*%
D14*
%TO.C,D4*%
X183642000Y-230059000D03*
X183642000Y-231459000D03*
%TD*%
%TO.C,D5*%
X215900000Y-227773000D03*
X215900000Y-229173000D03*
%TD*%
D12*
%TO.C,U4*%
X207881000Y-239014000D03*
X207365500Y-240258500D03*
X206121000Y-240774000D03*
X204876500Y-240258500D03*
X204361000Y-239014000D03*
X204876500Y-237769500D03*
X206121000Y-237254000D03*
X207365500Y-237769500D03*
%TD*%
D10*
%TO.C,U2*%
X181344000Y-217473000D03*
X181344000Y-216823000D03*
X181344000Y-216173000D03*
X181344000Y-215523000D03*
X181344000Y-214873000D03*
X181344000Y-214223000D03*
X181344000Y-213573000D03*
X181344000Y-212923000D03*
X181344000Y-212273000D03*
X181344000Y-211623000D03*
X181344000Y-210973000D03*
X181344000Y-210323000D03*
X181344000Y-209673000D03*
X181344000Y-209023000D03*
X181344000Y-208373000D03*
X181344000Y-207723000D03*
D15*
X182069000Y-206998000D03*
X182719000Y-206998000D03*
X183369000Y-206998000D03*
X184019000Y-206998000D03*
X184669000Y-206998000D03*
X185319000Y-206998000D03*
X185969000Y-206998000D03*
X186619000Y-206998000D03*
X187269000Y-206998000D03*
X187919000Y-206998000D03*
X188569000Y-206998000D03*
X189219000Y-206998000D03*
X189869000Y-206998000D03*
X190519000Y-206998000D03*
X191169000Y-206998000D03*
X191819000Y-206998000D03*
D10*
X192544000Y-207723000D03*
X192544000Y-208373000D03*
X192544000Y-209023000D03*
X192544000Y-209673000D03*
X192544000Y-210323000D03*
X192544000Y-210973000D03*
X192544000Y-211623000D03*
X192544000Y-212273000D03*
X192544000Y-212923000D03*
X192544000Y-213573000D03*
X192544000Y-214223000D03*
X192544000Y-214873000D03*
X192544000Y-215523000D03*
X192544000Y-216173000D03*
X192544000Y-216823000D03*
X192544000Y-217473000D03*
D15*
X191819000Y-218198000D03*
X191169000Y-218198000D03*
X190519000Y-218198000D03*
X189869000Y-218198000D03*
X189219000Y-218198000D03*
X188569000Y-218198000D03*
X187919000Y-218198000D03*
X187269000Y-218198000D03*
X186619000Y-218198000D03*
X185969000Y-218198000D03*
X185319000Y-218198000D03*
X184669000Y-218198000D03*
X184019000Y-218198000D03*
X183369000Y-218198000D03*
X182719000Y-218198000D03*
X182069000Y-218198000D03*
%TD*%
D10*
%TO.C,CN4*%
X188500000Y-236468000D03*
X189300000Y-236468000D03*
X190100000Y-236468000D03*
X190900000Y-236468000D03*
X191700000Y-236468000D03*
X192500000Y-236468000D03*
D11*
X193300000Y-237268000D03*
X193300000Y-238068000D03*
X193300000Y-238868000D03*
X193300000Y-239668000D03*
X193300000Y-240468000D03*
X193300000Y-241268000D03*
D10*
X192500000Y-242068000D03*
X191700000Y-242068000D03*
X190900000Y-242068000D03*
X190100000Y-242068000D03*
X189300000Y-242068000D03*
X188500000Y-242068000D03*
D11*
X187700000Y-241268000D03*
X187700000Y-240468000D03*
X187700000Y-239668000D03*
X187700000Y-238868000D03*
X187700000Y-238068000D03*
%TD*%
D10*
%TO.C,CN5*%
X231172000Y-236468000D03*
X231972000Y-236468000D03*
X232772000Y-236468000D03*
X233572000Y-236468000D03*
X234372000Y-236468000D03*
X235172000Y-236468000D03*
D11*
X235972000Y-237268000D03*
X235972000Y-238068000D03*
X235972000Y-238868000D03*
X235972000Y-239668000D03*
X235972000Y-240468000D03*
X235972000Y-241268000D03*
D10*
X235172000Y-242068000D03*
X234372000Y-242068000D03*
X233572000Y-242068000D03*
X232772000Y-242068000D03*
X231972000Y-242068000D03*
X231172000Y-242068000D03*
D11*
X230372000Y-241268000D03*
X230372000Y-240468000D03*
X230372000Y-239668000D03*
X230372000Y-238868000D03*
X230372000Y-238068000D03*
%TD*%
D14*
%TO.C,R52*%
X174306000Y-179451000D03*
X175706000Y-179451000D03*
%TD*%
D10*
%TO.C,U29*%
X119304000Y-167932000D03*
X119304000Y-167132000D03*
X119304000Y-166332000D03*
D15*
X120104000Y-165532000D03*
X120904000Y-165532000D03*
X121704000Y-165532000D03*
D10*
X122504000Y-166332000D03*
X122504000Y-167132000D03*
X122504000Y-167932000D03*
D15*
X121704000Y-168732000D03*
%TD*%
D14*
%TO.C,R121*%
X126300000Y-165597002D03*
X127700000Y-165597002D03*
%TD*%
%TO.C,R122*%
X126300000Y-166994002D03*
X127700000Y-166994002D03*
%TD*%
%TO.C,R123*%
X126300000Y-168264002D03*
X127700000Y-168264002D03*
%TD*%
%TO.C,R126*%
X126300000Y-164200002D03*
X127700000Y-164200002D03*
%TD*%
%TO.C,C94*%
X113700482Y-170815000D03*
X115100482Y-170815000D03*
%TD*%
%TO.C,C104*%
X114462482Y-164592000D03*
X115862482Y-164592000D03*
%TD*%
D13*
%TO.C,R112*%
X111760000Y-171515000D03*
X111760000Y-170115000D03*
%TD*%
%TO.C,R131*%
X111887000Y-168086000D03*
X111887000Y-166686000D03*
%TD*%
D14*
%TO.C,C103*%
X104367482Y-171639000D03*
X104367482Y-173039000D03*
%TD*%
D13*
%TO.C,C102*%
X104367482Y-169102000D03*
X104367482Y-167702000D03*
%TD*%
%TO.C,R117*%
X102654482Y-171069000D03*
X101254482Y-171069000D03*
%TD*%
%TO.C,R124*%
X102654482Y-169672000D03*
X101254482Y-169672000D03*
%TD*%
%TO.C,C97*%
X107988482Y-171196000D03*
X106588482Y-171196000D03*
%TD*%
%TO.C,C98*%
X107988482Y-169418000D03*
X106588482Y-169418000D03*
%TD*%
D14*
%TO.C,R49*%
X174814000Y-180848000D03*
X176214000Y-180848000D03*
%TD*%
D13*
%TO.C,R26*%
X156402000Y-181483000D03*
X155002000Y-181483000D03*
%TD*%
%TO.C,R27*%
X156402000Y-180086000D03*
X155002000Y-180086000D03*
%TD*%
%TO.C,R39*%
X152973000Y-157852364D03*
X151573000Y-157852364D03*
%TD*%
D14*
%TO.C,R35*%
X154621000Y-157861000D03*
X156021000Y-157861000D03*
%TD*%
D13*
%TO.C,R43*%
X152973000Y-159385000D03*
X151573000Y-159385000D03*
%TD*%
D10*
%TO.C,U12*%
X188221277Y-187297779D03*
X188221277Y-186497779D03*
X188221277Y-185697779D03*
X188221277Y-184897779D03*
X188221277Y-184097779D03*
D15*
X189021277Y-183297779D03*
X189821277Y-183297779D03*
X190621277Y-183297779D03*
X191421277Y-183297779D03*
X192221277Y-183297779D03*
D10*
X193021277Y-184097779D03*
X193021277Y-184897779D03*
X193021277Y-185697779D03*
X193021277Y-186497779D03*
X193021277Y-187297779D03*
D15*
X192221277Y-188097779D03*
X191421277Y-188097779D03*
X190621277Y-188097779D03*
X189821277Y-188097779D03*
X189021277Y-188097779D03*
%TD*%
D13*
%TO.C,R34*%
X197671277Y-185316779D03*
X196271277Y-185316779D03*
%TD*%
D14*
%TO.C,C45*%
X197160277Y-180998779D03*
X198560277Y-180998779D03*
%TD*%
D13*
%TO.C,R32*%
X183955277Y-185697779D03*
X182555277Y-185697779D03*
%TD*%
%TO.C,R31*%
X183904058Y-184303675D03*
X182504058Y-184303675D03*
%TD*%
D14*
%TO.C,R38*%
X193508025Y-180040411D03*
X193508025Y-181440411D03*
%TD*%
D12*
%TO.C,U9*%
X190452314Y-158902959D03*
X189692214Y-159949159D03*
X188462414Y-159549559D03*
X188462414Y-158256359D03*
X189692214Y-157856759D03*
%TD*%
D14*
%TO.C,C22*%
X186309000Y-158050000D03*
X186309000Y-159450000D03*
%TD*%
D13*
%TO.C,R24*%
X193929000Y-162117000D03*
X193929000Y-160717000D03*
%TD*%
%TO.C,R23*%
X192405000Y-162117000D03*
X192405000Y-160717000D03*
%TD*%
D14*
%TO.C,R22*%
X188087000Y-161987000D03*
X188087000Y-163387000D03*
%TD*%
D13*
%TO.C,R25*%
X186563000Y-163387000D03*
X186563000Y-161987000D03*
%TD*%
D14*
%TO.C,C23*%
X197866000Y-157669000D03*
X197866000Y-159069000D03*
%TD*%
%TO.C,L1*%
X193483000Y-157480000D03*
X194883000Y-157480000D03*
%TD*%
%TO.C,C20*%
X182372000Y-158431000D03*
X182372000Y-159831000D03*
%TD*%
%TO.C,C25*%
X202057000Y-158050000D03*
X202057000Y-159450000D03*
%TD*%
%TO.C,C21*%
X184277000Y-158431000D03*
X184277000Y-159831000D03*
%TD*%
%TO.C,C24*%
X200025000Y-158050000D03*
X200025000Y-159450000D03*
%TD*%
D13*
%TO.C,R30*%
X197671277Y-188110779D03*
X196271277Y-188110779D03*
%TD*%
D14*
%TO.C,C44*%
X171004000Y-185547000D03*
X172404000Y-185547000D03*
%TD*%
%TO.C,C42*%
X171385000Y-188976000D03*
X172785000Y-188976000D03*
%TD*%
D13*
%TO.C,C38*%
X168275000Y-184088000D03*
X168275000Y-182688000D03*
%TD*%
D14*
%TO.C,C35*%
X168275000Y-185609000D03*
X168275000Y-187009000D03*
%TD*%
D13*
%TO.C,C33*%
X159385000Y-185612000D03*
X159385000Y-184212000D03*
%TD*%
%TO.C,C34*%
X160147000Y-174182000D03*
X160147000Y-172782000D03*
%TD*%
%TO.C,C36*%
X167640000Y-172277000D03*
X167640000Y-170877000D03*
%TD*%
D14*
%TO.C,C39*%
X169241494Y-172344410D03*
X170641494Y-172344410D03*
%TD*%
%TO.C,C41*%
X197160277Y-183284779D03*
X198560277Y-183284779D03*
%TD*%
D13*
%TO.C,R33*%
X197671277Y-186713779D03*
X196271277Y-186713779D03*
%TD*%
D14*
%TO.C,C37*%
X197414277Y-190142779D03*
X198814277Y-190142779D03*
%TD*%
%TO.C,C49*%
X170434000Y-181799000D03*
X170434000Y-183199000D03*
%TD*%
D13*
%TO.C,C30*%
X156402000Y-178562000D03*
X155002000Y-178562000D03*
%TD*%
%TO.C,C31*%
X156402000Y-176911000D03*
X155002000Y-176911000D03*
%TD*%
D14*
%TO.C,C32*%
X155002000Y-183007000D03*
X156402000Y-183007000D03*
%TD*%
D13*
%TO.C,R47*%
X177103000Y-171196000D03*
X175703000Y-171196000D03*
%TD*%
%TO.C,R44*%
X178754000Y-169799000D03*
X177354000Y-169799000D03*
%TD*%
D14*
%TO.C,R48*%
X178943000Y-171766000D03*
X178943000Y-173166000D03*
%TD*%
%TO.C,R45*%
X174560000Y-168402000D03*
X175960000Y-168402000D03*
%TD*%
D16*
%TO.C,CN6*%
X145256000Y-153168000D03*
X144456000Y-153168000D03*
X143656000Y-153168000D03*
X142856000Y-153168000D03*
X142056000Y-153168000D03*
X141256000Y-153168000D03*
D15*
X140456000Y-152368000D03*
X140456000Y-151568000D03*
X140456000Y-150768000D03*
X140456000Y-149968000D03*
X140456000Y-149168000D03*
X140456000Y-148368000D03*
D16*
X141256000Y-147568000D03*
X142056000Y-147568000D03*
X142856000Y-147568000D03*
X143656000Y-147568000D03*
X144456000Y-147568000D03*
X145256000Y-147568000D03*
D15*
X146056000Y-148368000D03*
X146056000Y-149168000D03*
X146056000Y-149968000D03*
X146056000Y-150768000D03*
X146056000Y-151568000D03*
%TD*%
D13*
%TO.C,R42*%
X152964364Y-156337000D03*
X151564364Y-156337000D03*
%TD*%
%TO.C,R37*%
X152273000Y-154624000D03*
X152273000Y-153224000D03*
%TD*%
%TO.C,R41*%
X175706000Y-176530000D03*
X174306000Y-176530000D03*
%TD*%
%TO.C,R40*%
X175706000Y-177927000D03*
X174306000Y-177927000D03*
%TD*%
D14*
%TO.C,C142*%
X202184000Y-166178000D03*
X202184000Y-167578000D03*
%TD*%
%TO.C,C47*%
X177481000Y-166497000D03*
X178881000Y-166497000D03*
%TD*%
D13*
%TO.C,R28*%
X183955277Y-188491779D03*
X182555277Y-188491779D03*
%TD*%
%TO.C,R29*%
X183955277Y-187094779D03*
X182555277Y-187094779D03*
%TD*%
D14*
%TO.C,R51*%
X174306000Y-183515000D03*
X175706000Y-183515000D03*
%TD*%
%TO.C,C95*%
X116078000Y-167310002D03*
X116078000Y-168710002D03*
%TD*%
%TO.C,C99*%
X122871000Y-164073002D03*
X124271000Y-164073002D03*
%TD*%
D10*
%TO.C,U11*%
X159767204Y-182491616D03*
X159767204Y-181841616D03*
X159767204Y-181191616D03*
X159767204Y-180541616D03*
X159767204Y-179891616D03*
X159767204Y-179241616D03*
X159767204Y-178591616D03*
X159767204Y-177941616D03*
X159767204Y-177291616D03*
X159767204Y-176641616D03*
X159767204Y-175991616D03*
X159767204Y-175341616D03*
X159767204Y-174691616D03*
D15*
X160492204Y-173966616D03*
X161142204Y-173966616D03*
X161792204Y-173966616D03*
X162442204Y-173966616D03*
X163092204Y-173966616D03*
X163742204Y-173966616D03*
X164392204Y-173966616D03*
X165042204Y-173966616D03*
X165692204Y-173966616D03*
X166342204Y-173966616D03*
X166992204Y-173966616D03*
X167642204Y-173966616D03*
X168292204Y-173966616D03*
D10*
X169017204Y-174691616D03*
X169017204Y-175341616D03*
X169017204Y-175991616D03*
X169017204Y-176641616D03*
X169017204Y-177291616D03*
X169017204Y-177941616D03*
X169017204Y-178591616D03*
X169017204Y-179241616D03*
X169017204Y-179891616D03*
X169017204Y-180541616D03*
X169017204Y-181191616D03*
X169017204Y-181841616D03*
X169017204Y-182491616D03*
D15*
X168292204Y-183216616D03*
X167642204Y-183216616D03*
X166992204Y-183216616D03*
X166342204Y-183216616D03*
X165692204Y-183216616D03*
X165042204Y-183216616D03*
X164392204Y-183216616D03*
X163742204Y-183216616D03*
X163092204Y-183216616D03*
X162442204Y-183216616D03*
%TD*%
D13*
%TO.C,R46*%
X178754000Y-168402000D03*
X177354000Y-168402000D03*
%TD*%
D12*
%TO.C,Q1*%
X176641000Y-173482000D03*
X175141000Y-174348000D03*
X175141000Y-172616000D03*
%TD*%
%TO.C,Q2*%
X178562000Y-176895000D03*
X177696000Y-175395000D03*
X179428000Y-175395000D03*
%TD*%
D13*
%TO.C,R36*%
X183910487Y-182798217D03*
X182510487Y-182798217D03*
%TD*%
D14*
%TO.C,R50*%
X174814000Y-182118000D03*
X176214000Y-182118000D03*
%TD*%
D13*
%TO.C,C46*%
X157799000Y-160274000D03*
X156399000Y-160274000D03*
%TD*%
D12*
%TO.C,CN7*%
X225976000Y-154813000D03*
X226736100Y-153766800D03*
X227965900Y-154166400D03*
X227965900Y-155459600D03*
X226736100Y-155859200D03*
%TD*%
D10*
%TO.C,U25*%
X213392000Y-178238000D03*
X213392000Y-177438000D03*
X213392000Y-176638000D03*
X213392000Y-175838000D03*
D15*
X214192000Y-175038000D03*
X214992000Y-175038000D03*
X215792000Y-175038000D03*
X216592000Y-175038000D03*
D10*
X217392000Y-175838000D03*
X217392000Y-176638000D03*
X217392000Y-177438000D03*
X217392000Y-178238000D03*
D15*
X216592000Y-179038000D03*
X215792000Y-179038000D03*
X214992000Y-179038000D03*
X214192000Y-179038000D03*
%TD*%
D10*
%TO.C,U26*%
X213027091Y-193588909D03*
X213027091Y-192788909D03*
X213027091Y-191988909D03*
X213027091Y-191188909D03*
D15*
X213827091Y-190388909D03*
X214627091Y-190388909D03*
X215427091Y-190388909D03*
X216227091Y-190388909D03*
D10*
X217027091Y-191188909D03*
X217027091Y-191988909D03*
X217027091Y-192788909D03*
X217027091Y-193588909D03*
D15*
X216227091Y-194388909D03*
X215427091Y-194388909D03*
X214627091Y-194388909D03*
X213827091Y-194388909D03*
%TD*%
D12*
%TO.C,U22*%
X232283000Y-172636000D03*
X233329200Y-173396100D03*
X232929600Y-174625900D03*
X231636400Y-174625900D03*
X231236800Y-173396100D03*
%TD*%
D14*
%TO.C,C63*%
X225552000Y-175830000D03*
X225552000Y-177230000D03*
%TD*%
D12*
%TO.C,U23*%
X232664000Y-219626000D03*
X233710200Y-220386100D03*
X233310600Y-221615900D03*
X232017400Y-221615900D03*
X231617800Y-220386100D03*
%TD*%
D13*
%TO.C,C80*%
X213822091Y-198484909D03*
X212422091Y-198484909D03*
%TD*%
D12*
%TO.C,U24*%
X232664000Y-196004000D03*
X233710200Y-196764100D03*
X233310600Y-197993900D03*
X232017400Y-197993900D03*
X231617800Y-196764100D03*
%TD*%
D14*
%TO.C,R59*%
X197856423Y-176966423D03*
X199256423Y-176966423D03*
%TD*%
D12*
%TO.C,J1*%
X100965000Y-150960000D03*
X99918800Y-150199900D03*
X100318400Y-148970100D03*
X101611600Y-148970100D03*
X102011200Y-150199900D03*
%TD*%
%TO.C,J4*%
X48979000Y-173736000D03*
X48218900Y-174782200D03*
X46989100Y-174382600D03*
X46989100Y-173089400D03*
X48218900Y-172689800D03*
%TD*%
%TO.C,J3*%
X49233000Y-197104000D03*
X48472900Y-198150200D03*
X47243100Y-197750600D03*
X47243100Y-196457400D03*
X48472900Y-196057800D03*
%TD*%
%TO.C,J2*%
X48979000Y-220726000D03*
X48218900Y-221772200D03*
X46989100Y-221372600D03*
X46989100Y-220079400D03*
X48218900Y-219679800D03*
%TD*%
%TO.C,R107*%
X55703000Y-151130000D03*
X56363000Y-149986800D03*
X57683000Y-149986800D03*
X58343000Y-151130000D03*
X57683000Y-152273200D03*
X56363000Y-152273200D03*
%TD*%
D10*
%TO.C,U28*%
X87115875Y-199596403D03*
X87115875Y-198796403D03*
X87115875Y-197996403D03*
X87115875Y-197196403D03*
D15*
X87915875Y-196396403D03*
X88715875Y-196396403D03*
X89515875Y-196396403D03*
X90315875Y-196396403D03*
D10*
X91115875Y-197196403D03*
X91115875Y-197996403D03*
X91115875Y-198796403D03*
X91115875Y-199596403D03*
D15*
X90315875Y-200396403D03*
X89515875Y-200396403D03*
X88715875Y-200396403D03*
X87915875Y-200396403D03*
%TD*%
D12*
%TO.C,K5*%
X72027000Y-207391000D03*
X72542500Y-206146500D03*
X73787000Y-205631000D03*
X75031500Y-206146500D03*
X75547000Y-207391000D03*
X75031500Y-208635500D03*
X73787000Y-209151000D03*
X72542500Y-208635500D03*
%TD*%
%TO.C,K4*%
X72027000Y-214884000D03*
X72542500Y-213639500D03*
X73787000Y-213124000D03*
X75031500Y-213639500D03*
X75547000Y-214884000D03*
X75031500Y-216128500D03*
X73787000Y-216644000D03*
X72542500Y-216128500D03*
%TD*%
%TO.C,Q4*%
X84598060Y-208897060D03*
X83098060Y-209763060D03*
X83098060Y-208031060D03*
%TD*%
D14*
%TO.C,D8*%
X81280000Y-211771000D03*
X81280000Y-213171000D03*
%TD*%
D12*
%TO.C,K7*%
X72027000Y-192024000D03*
X72542500Y-190779500D03*
X73787000Y-190264000D03*
X75031500Y-190779500D03*
X75547000Y-192024000D03*
X75031500Y-193268500D03*
X73787000Y-193784000D03*
X72542500Y-193268500D03*
%TD*%
%TO.C,K6*%
X72027000Y-199517000D03*
X72542500Y-198272500D03*
X73787000Y-197757000D03*
X75031500Y-198272500D03*
X75547000Y-199517000D03*
X75031500Y-200761500D03*
X73787000Y-201277000D03*
X72542500Y-200761500D03*
%TD*%
%TO.C,Q5*%
X83058000Y-190516000D03*
X83924000Y-192016000D03*
X82192000Y-192016000D03*
%TD*%
D14*
%TO.C,D9*%
X81280000Y-195515000D03*
X81280000Y-196915000D03*
%TD*%
D12*
%TO.C,K9*%
X72027000Y-176657000D03*
X72542500Y-175412500D03*
X73787000Y-174897000D03*
X75031500Y-175412500D03*
X75547000Y-176657000D03*
X75031500Y-177901500D03*
X73787000Y-178417000D03*
X72542500Y-177901500D03*
%TD*%
%TO.C,K8*%
X72027000Y-184150000D03*
X72542500Y-182905500D03*
X73787000Y-182390000D03*
X75031500Y-182905500D03*
X75547000Y-184150000D03*
X75031500Y-185394500D03*
X73787000Y-185910000D03*
X72542500Y-185394500D03*
%TD*%
%TO.C,Q6*%
X82633243Y-176121243D03*
X83499243Y-177621243D03*
X81767243Y-177621243D03*
%TD*%
D14*
%TO.C,D10*%
X81280000Y-180910000D03*
X81280000Y-182310000D03*
%TD*%
D12*
%TO.C,K11*%
X98425000Y-181374000D03*
X99669500Y-181889500D03*
X100185000Y-183134000D03*
X99669500Y-184378500D03*
X98425000Y-184894000D03*
X97180500Y-184378500D03*
X96665000Y-183134000D03*
X97180500Y-181889500D03*
%TD*%
%TO.C,K10*%
X90932000Y-181374000D03*
X92176500Y-181889500D03*
X92692000Y-183134000D03*
X92176500Y-184378500D03*
X90932000Y-184894000D03*
X89687500Y-184378500D03*
X89172000Y-183134000D03*
X89687500Y-181889500D03*
%TD*%
%TO.C,Q7*%
X99425000Y-192151000D03*
X97925000Y-193017000D03*
X97925000Y-191285000D03*
%TD*%
D13*
%TO.C,D11*%
X95061000Y-190627000D03*
X93661000Y-190627000D03*
%TD*%
D12*
%TO.C,K1*%
X72421970Y-162789870D03*
X72937470Y-161545370D03*
X74181970Y-161029870D03*
X75426470Y-161545370D03*
X75941970Y-162789870D03*
X75426470Y-164034370D03*
X74181970Y-164549870D03*
X72937470Y-164034370D03*
%TD*%
D14*
%TO.C,D6*%
X81788000Y-162114000D03*
X81788000Y-163514000D03*
%TD*%
D16*
%TO.C,USB1*%
X185858000Y-150844000D03*
X185058000Y-150844000D03*
X184258000Y-150844000D03*
X183458000Y-150844000D03*
D15*
X182658000Y-150044000D03*
X182658000Y-149244000D03*
X182658000Y-148444000D03*
X182658000Y-147644000D03*
D16*
X183458000Y-146844000D03*
X184258000Y-146844000D03*
X185058000Y-146844000D03*
X185858000Y-146844000D03*
D15*
X186658000Y-147644000D03*
X186658000Y-148444000D03*
X186658000Y-149244000D03*
X186658000Y-150044000D03*
%TD*%
D10*
%TO.C,U13*%
X132315000Y-184803000D03*
X132965000Y-184803000D03*
X133615000Y-184803000D03*
X134265000Y-184803000D03*
X134915000Y-184803000D03*
X135565000Y-184803000D03*
X136215000Y-184803000D03*
X136865000Y-184803000D03*
X137515000Y-184803000D03*
X138165000Y-184803000D03*
X138815000Y-184803000D03*
X139465000Y-184803000D03*
D11*
X140190000Y-185528000D03*
X140190000Y-186178000D03*
X140190000Y-186828000D03*
X140190000Y-187478000D03*
X140190000Y-188128000D03*
X140190000Y-188778000D03*
X140190000Y-189428000D03*
X140190000Y-190078000D03*
X140190000Y-190728000D03*
X140190000Y-191378000D03*
X140190000Y-192028000D03*
X140190000Y-192678000D03*
D10*
X139465000Y-193403000D03*
X138815000Y-193403000D03*
X138165000Y-193403000D03*
X137515000Y-193403000D03*
X136865000Y-193403000D03*
X136215000Y-193403000D03*
X135565000Y-193403000D03*
X134915000Y-193403000D03*
X134265000Y-193403000D03*
X133615000Y-193403000D03*
X132965000Y-193403000D03*
X132315000Y-193403000D03*
D11*
X131590000Y-192678000D03*
X131590000Y-192028000D03*
X131590000Y-191378000D03*
X131590000Y-190728000D03*
X131590000Y-190078000D03*
X131590000Y-189428000D03*
X131590000Y-188778000D03*
X131590000Y-188128000D03*
X131590000Y-187478000D03*
X131590000Y-186828000D03*
X131590000Y-186178000D03*
X131590000Y-185528000D03*
%TD*%
D12*
%TO.C,U17*%
X140954000Y-177165000D03*
X139954000Y-178165000D03*
X138954000Y-177165000D03*
X139954000Y-176165000D03*
%TD*%
%TO.C,U14*%
X152875856Y-200103856D03*
X152009856Y-198603856D03*
X153741856Y-198603856D03*
%TD*%
D14*
%TO.C,C50*%
X123760000Y-196977000D03*
X125160000Y-196977000D03*
%TD*%
D13*
%TO.C,SW1*%
X151257000Y-190184000D03*
X151257000Y-188784000D03*
%TD*%
D12*
%TO.C,U20*%
X155956000Y-189754000D03*
X156822000Y-191254000D03*
X155090000Y-191254000D03*
%TD*%
D14*
%TO.C,X1*%
X129221000Y-199390000D03*
X130621000Y-199390000D03*
%TD*%
%TO.C,C57*%
X193421000Y-150557000D03*
X193421000Y-151957000D03*
%TD*%
D12*
%TO.C,SW2*%
X199904269Y-148209000D03*
X201404269Y-147343000D03*
X201404269Y-149075000D03*
%TD*%
D14*
%TO.C,C66*%
X227451590Y-198324494D03*
X227451590Y-199724494D03*
%TD*%
%TO.C,C68*%
X200904423Y-176966423D03*
X202304423Y-176966423D03*
%TD*%
%TO.C,C69*%
X207192423Y-177028423D03*
X207192423Y-178428423D03*
%TD*%
%TO.C,C73*%
X203990651Y-175519917D03*
X203990651Y-176919917D03*
%TD*%
%TO.C,R61*%
X205514651Y-175519917D03*
X205514651Y-176919917D03*
%TD*%
D13*
%TO.C,C78*%
X227649000Y-193802000D03*
X226249000Y-193802000D03*
%TD*%
%TO.C,C79*%
X226252000Y-188976000D03*
X224852000Y-188976000D03*
%TD*%
%TO.C,R70*%
X216789000Y-184723000D03*
X216789000Y-183323000D03*
%TD*%
%TO.C,C72*%
X213806000Y-184785000D03*
X212406000Y-184785000D03*
%TD*%
%TO.C,C71*%
X213806000Y-183261000D03*
X212406000Y-183261000D03*
%TD*%
%TO.C,C19*%
X197042000Y-215519000D03*
X195642000Y-215519000D03*
%TD*%
D14*
%TO.C,C62*%
X227203000Y-175830000D03*
X227203000Y-177230000D03*
%TD*%
%TO.C,C65*%
X227327295Y-218051772D03*
X227327295Y-219451772D03*
%TD*%
%TO.C,C64*%
X225803295Y-218051772D03*
X225803295Y-219451772D03*
%TD*%
%TO.C,C67*%
X225933000Y-198309000D03*
X225933000Y-199709000D03*
%TD*%
%TO.C,C84*%
X224852000Y-190627000D03*
X226252000Y-190627000D03*
%TD*%
%TO.C,R65*%
X224771317Y-192175956D03*
X226171317Y-192175956D03*
%TD*%
D13*
%TO.C,C76*%
X230476261Y-213326739D03*
X229076261Y-213326739D03*
%TD*%
%TO.C,C77*%
X224380261Y-213326739D03*
X222980261Y-213326739D03*
%TD*%
D14*
%TO.C,C83*%
X225933000Y-211898000D03*
X225933000Y-213298000D03*
%TD*%
%TO.C,R64*%
X227457000Y-211898000D03*
X227457000Y-213298000D03*
%TD*%
D13*
%TO.C,C75*%
X227203000Y-170753000D03*
X227203000Y-169353000D03*
%TD*%
%TO.C,C74*%
X222442000Y-169291000D03*
X221042000Y-169291000D03*
%TD*%
%TO.C,C82*%
X224028000Y-170753000D03*
X224028000Y-169353000D03*
%TD*%
%TO.C,R63*%
X225552000Y-170753000D03*
X225552000Y-169353000D03*
%TD*%
%TO.C,R69*%
X210439000Y-180532000D03*
X210439000Y-179132000D03*
%TD*%
%TO.C,C60*%
X229681000Y-159893000D03*
X228281000Y-159893000D03*
%TD*%
D14*
%TO.C,C70*%
X224854032Y-159846442D03*
X226254032Y-159846442D03*
%TD*%
%TO.C,R60*%
X224852000Y-161417000D03*
X226252000Y-161417000D03*
%TD*%
D13*
%TO.C,C61*%
X226252000Y-163068000D03*
X224852000Y-163068000D03*
%TD*%
%TO.C,C86*%
X220091000Y-159704000D03*
X220091000Y-158304000D03*
%TD*%
%TO.C,C85*%
X221615000Y-159704000D03*
X221615000Y-158304000D03*
%TD*%
%TO.C,R62*%
X238063000Y-167767000D03*
X236663000Y-167767000D03*
%TD*%
%TO.C,R66*%
X238190000Y-190754000D03*
X236790000Y-190754000D03*
%TD*%
%TO.C,R67*%
X238571000Y-214503000D03*
X237171000Y-214503000D03*
%TD*%
D14*
%TO.C,R68*%
X153035000Y-149414000D03*
X153035000Y-150814000D03*
%TD*%
D13*
%TO.C,C81*%
X213822091Y-200008909D03*
X212422091Y-200008909D03*
%TD*%
D14*
%TO.C,R132*%
X138303000Y-238187000D03*
X138303000Y-239587000D03*
%TD*%
%TO.C,R1*%
X95557721Y-238014725D03*
X95557721Y-239414725D03*
%TD*%
%TO.C,R133*%
X54235553Y-238210673D03*
X54235553Y-239610673D03*
%TD*%
%TO.C,R134*%
X180949981Y-238560151D03*
X180949981Y-239960151D03*
%TD*%
%TO.C,R135*%
X223530744Y-238845673D03*
X223530744Y-240245673D03*
%TD*%
D13*
%TO.C,R136*%
X182818000Y-221488000D03*
X181418000Y-221488000D03*
%TD*%
%TO.C,R137*%
X182818000Y-220091000D03*
X181418000Y-220091000D03*
%TD*%
D14*
%TO.C,R138*%
X192276500Y-218122500D03*
X193676500Y-218122500D03*
%TD*%
%TO.C,R139*%
X192276500Y-219519500D03*
X193676500Y-219519500D03*
%TD*%
%TO.C,R140*%
X206629000Y-232726000D03*
X206629000Y-234126000D03*
%TD*%
%TO.C,R141*%
X208026000Y-232726000D03*
X208026000Y-234126000D03*
%TD*%
D13*
%TO.C,R142*%
X196850000Y-207329000D03*
X196850000Y-205929000D03*
%TD*%
%TO.C,R143*%
X195453000Y-207329000D03*
X195453000Y-205929000D03*
%TD*%
D14*
%TO.C,R144*%
X178689000Y-206056000D03*
X178689000Y-207456000D03*
%TD*%
%TO.C,R145*%
X101600000Y-211771000D03*
X101600000Y-213171000D03*
%TD*%
%TO.C,R146*%
X119188000Y-211074000D03*
X120588000Y-211074000D03*
%TD*%
%TO.C,R147*%
X119188000Y-212471000D03*
X120588000Y-212471000D03*
%TD*%
%TO.C,R148*%
X122389494Y-232018788D03*
X122389494Y-233418788D03*
%TD*%
%TO.C,R149*%
X120992494Y-232018788D03*
X120992494Y-233418788D03*
%TD*%
D13*
%TO.C,R150*%
X113601500Y-225807500D03*
X113601500Y-224407500D03*
%TD*%
%TO.C,R151*%
X112204500Y-225807500D03*
X112204500Y-224407500D03*
%TD*%
%TO.C,C106*%
X104840000Y-228473000D03*
X103440000Y-228473000D03*
%TD*%
D14*
%TO.C,C107*%
X117094000Y-236028000D03*
X117094000Y-237428000D03*
%TD*%
%TO.C,C108*%
X115632000Y-221742000D03*
X117032000Y-221742000D03*
%TD*%
%TO.C,C109*%
X112330000Y-212598000D03*
X113730000Y-212598000D03*
%TD*%
%TO.C,C110*%
X117342590Y-210897494D03*
X117342590Y-212297494D03*
%TD*%
%TO.C,C111*%
X115951000Y-210882000D03*
X115951000Y-212282000D03*
%TD*%
D13*
%TO.C,C112*%
X97790000Y-213933000D03*
X97790000Y-212533000D03*
%TD*%
%TO.C,C113*%
X99308958Y-213922548D03*
X99308958Y-212522548D03*
%TD*%
%TO.C,C114*%
X102935000Y-210058000D03*
X101535000Y-210058000D03*
%TD*%
D14*
%TO.C,C115*%
X184469024Y-224155024D03*
X184469024Y-225555024D03*
%TD*%
%TO.C,C116*%
X202438000Y-236536000D03*
X202438000Y-237936000D03*
%TD*%
%TO.C,C117*%
X192086000Y-206883000D03*
X193486000Y-206883000D03*
%TD*%
%TO.C,C118*%
X192086000Y-203708000D03*
X193486000Y-203708000D03*
%TD*%
%TO.C,C119*%
X192086000Y-205232000D03*
X193486000Y-205232000D03*
%TD*%
D13*
%TO.C,C120*%
X181802000Y-207137000D03*
X180402000Y-207137000D03*
%TD*%
%TO.C,C121*%
X175260000Y-208091000D03*
X175260000Y-206691000D03*
%TD*%
%TO.C,C122*%
X176784000Y-208091000D03*
X176784000Y-206691000D03*
%TD*%
%TO.C,R152*%
X64327000Y-152400000D03*
X62927000Y-152400000D03*
%TD*%
D14*
%TO.C,R153*%
X50927000Y-146493000D03*
X50927000Y-147893000D03*
%TD*%
D13*
%TO.C,R154*%
X57850000Y-155702000D03*
X56450000Y-155702000D03*
%TD*%
D14*
%TO.C,R241*%
X87884000Y-164527000D03*
X87884000Y-165927000D03*
%TD*%
%TO.C,R242*%
X87884000Y-161606000D03*
X87884000Y-163006000D03*
%TD*%
D13*
%TO.C,R157*%
X76454000Y-169102000D03*
X76454000Y-167702000D03*
%TD*%
D14*
%TO.C,R158*%
X74930000Y-167702000D03*
X74930000Y-169102000D03*
%TD*%
%TO.C,R159*%
X106934000Y-151827000D03*
X106934000Y-153227000D03*
%TD*%
D13*
%TO.C,R160*%
X101874258Y-157524742D03*
X100474258Y-157524742D03*
%TD*%
%TO.C,R170*%
X58739000Y-174498000D03*
X57339000Y-174498000D03*
%TD*%
%TO.C,R171*%
X58739000Y-173101000D03*
X57339000Y-173101000D03*
%TD*%
%TO.C,R172*%
X59501000Y-196537783D03*
X58101000Y-196537783D03*
%TD*%
%TO.C,R175*%
X59501000Y-197993000D03*
X58101000Y-197993000D03*
%TD*%
%TO.C,R178*%
X58778091Y-220091000D03*
X57378091Y-220091000D03*
%TD*%
%TO.C,R181*%
X58778091Y-221488000D03*
X57378091Y-221488000D03*
%TD*%
D14*
%TO.C,R184*%
X84614060Y-211499060D03*
X84614060Y-212899060D03*
%TD*%
%TO.C,R185*%
X86138060Y-208197060D03*
X86138060Y-209597060D03*
%TD*%
%TO.C,R186*%
X85598000Y-190943000D03*
X85598000Y-192343000D03*
%TD*%
%TO.C,R187*%
X82231000Y-188722000D03*
X83631000Y-188722000D03*
%TD*%
%TO.C,R188*%
X83501000Y-172847000D03*
X84901000Y-172847000D03*
%TD*%
%TO.C,R189*%
X81850000Y-174498000D03*
X83250000Y-174498000D03*
%TD*%
D13*
%TO.C,R190*%
X101157000Y-194691000D03*
X99757000Y-194691000D03*
%TD*%
D14*
%TO.C,R191*%
X101219000Y-191451000D03*
X101219000Y-192851000D03*
%TD*%
%TO.C,R206*%
X141986000Y-201484000D03*
X141986000Y-202884000D03*
%TD*%
%TO.C,R207*%
X143383000Y-201484000D03*
X143383000Y-202884000D03*
%TD*%
%TO.C,R208*%
X144653000Y-201484000D03*
X144653000Y-202884000D03*
%TD*%
%TO.C,R209*%
X147447000Y-201484000D03*
X147447000Y-202884000D03*
%TD*%
%TO.C,R210*%
X148844000Y-201484000D03*
X148844000Y-202884000D03*
%TD*%
D13*
%TO.C,R193*%
X141986000Y-199074000D03*
X141986000Y-197674000D03*
%TD*%
%TO.C,R194*%
X143383000Y-199074000D03*
X143383000Y-197674000D03*
%TD*%
%TO.C,R195*%
X144653000Y-199074000D03*
X144653000Y-197674000D03*
%TD*%
%TO.C,R196*%
X146050000Y-199074000D03*
X146050000Y-197674000D03*
%TD*%
%TO.C,R197*%
X147447000Y-199074000D03*
X147447000Y-197674000D03*
%TD*%
D14*
%TO.C,R198*%
X123308350Y-193839363D03*
X124708350Y-193839363D03*
%TD*%
%TO.C,R199*%
X123289363Y-195269650D03*
X124689363Y-195269650D03*
%TD*%
D13*
%TO.C,R200*%
X133330582Y-199106830D03*
X133330582Y-197706830D03*
%TD*%
%TO.C,R201*%
X134669187Y-199106830D03*
X134669187Y-197706830D03*
%TD*%
%TO.C,R202*%
X140589000Y-199074000D03*
X140589000Y-197674000D03*
%TD*%
%TO.C,R205*%
X148844000Y-199074000D03*
X148844000Y-197674000D03*
%TD*%
D14*
%TO.C,R211*%
X124333000Y-179005000D03*
X124333000Y-180405000D03*
%TD*%
%TO.C,R203*%
X122353145Y-183868974D03*
X123753145Y-183868974D03*
%TD*%
%TO.C,LED27*%
X182482750Y-181155459D03*
X183882750Y-181155459D03*
%TD*%
D13*
%TO.C,LED18*%
X240984000Y-167767000D03*
X239584000Y-167767000D03*
%TD*%
%TO.C,LED19*%
X241111000Y-190754000D03*
X239711000Y-190754000D03*
%TD*%
%TO.C,LED20*%
X241492000Y-214503000D03*
X240092000Y-214503000D03*
%TD*%
D14*
%TO.C,LED21*%
X153035000Y-146112000D03*
X153035000Y-147512000D03*
%TD*%
%TO.C,LED22*%
X44004000Y-215392000D03*
X45404000Y-215392000D03*
%TD*%
%TO.C,LED23*%
X44004000Y-191897000D03*
X45404000Y-191897000D03*
%TD*%
%TO.C,LED24*%
X44004000Y-168656000D03*
X45404000Y-168656000D03*
%TD*%
%TO.C,LED25*%
X133731000Y-145985000D03*
X133731000Y-147385000D03*
%TD*%
%TO.C,C123*%
X171004000Y-187198000D03*
X172404000Y-187198000D03*
%TD*%
%TO.C,C124*%
X174244000Y-185355000D03*
X174244000Y-186755000D03*
%TD*%
%TO.C,C125*%
X169241494Y-173741410D03*
X170641494Y-173741410D03*
%TD*%
D13*
%TO.C,R214*%
X164084000Y-229554000D03*
X164084000Y-228154000D03*
%TD*%
D14*
%TO.C,R213*%
X154813000Y-159447000D03*
X154813000Y-160847000D03*
%TD*%
%TO.C,R215*%
X156399000Y-161798000D03*
X157799000Y-161798000D03*
%TD*%
%TO.C,C126*%
X123352482Y-162306000D03*
X124752482Y-162306000D03*
%TD*%
%TO.C,C127*%
X118934000Y-164084000D03*
X120334000Y-164084000D03*
%TD*%
%TO.C,C128*%
X114300000Y-166802002D03*
X114300000Y-168202002D03*
%TD*%
D13*
%TO.C,C129*%
X110109000Y-172531000D03*
X110109000Y-171131000D03*
%TD*%
%TO.C,C130*%
X110236000Y-169483000D03*
X110236000Y-168083000D03*
%TD*%
D14*
%TO.C,C131*%
X135952000Y-179578000D03*
X137352000Y-179578000D03*
%TD*%
D13*
%TO.C,C132*%
X148463000Y-191962000D03*
X148463000Y-190562000D03*
%TD*%
%TO.C,C133*%
X123763000Y-188087000D03*
X122363000Y-188087000D03*
%TD*%
%TO.C,C134*%
X136144000Y-199074000D03*
X136144000Y-197674000D03*
%TD*%
%TO.C,C135*%
X131637000Y-197231000D03*
X130237000Y-197231000D03*
%TD*%
D14*
%TO.C,C136*%
X127443000Y-197231000D03*
X128843000Y-197231000D03*
%TD*%
D13*
%TO.C,R216*%
X177165000Y-147385000D03*
X177165000Y-145985000D03*
%TD*%
D14*
%TO.C,C137*%
X191643000Y-151065000D03*
X191643000Y-152465000D03*
%TD*%
D13*
%TO.C,R220*%
X156496856Y-196563856D03*
X155096856Y-196563856D03*
%TD*%
D14*
%TO.C,R221*%
X175957000Y-149098000D03*
X177357000Y-149098000D03*
%TD*%
D13*
%TO.C,R222*%
X148463000Y-189041000D03*
X148463000Y-187641000D03*
%TD*%
D14*
%TO.C,R223*%
X175957000Y-150622000D03*
X177357000Y-150622000D03*
%TD*%
%TO.C,R224*%
X146050000Y-201484000D03*
X146050000Y-202884000D03*
%TD*%
D13*
%TO.C,R225*%
X156623856Y-201643856D03*
X155223856Y-201643856D03*
%TD*%
D14*
%TO.C,R226*%
X218502000Y-184023000D03*
X219902000Y-184023000D03*
%TD*%
D13*
%TO.C,C138*%
X82550000Y-202249000D03*
X82550000Y-200849000D03*
%TD*%
%TO.C,C139*%
X84455000Y-202757000D03*
X84455000Y-201357000D03*
%TD*%
D14*
%TO.C,R230*%
X47052000Y-215392000D03*
X48452000Y-215392000D03*
%TD*%
%TO.C,R231*%
X47052000Y-191897000D03*
X48452000Y-191897000D03*
%TD*%
%TO.C,R232*%
X47052000Y-168656000D03*
X48452000Y-168656000D03*
%TD*%
%TO.C,R233*%
X133731000Y-149033000D03*
X133731000Y-150433000D03*
%TD*%
D13*
%TO.C,R234*%
X120461000Y-162306000D03*
X119061000Y-162306000D03*
%TD*%
D14*
%TO.C,R235*%
X106526482Y-174052000D03*
X106526482Y-175452000D03*
%TD*%
D13*
%TO.C,R237*%
X95377000Y-199201000D03*
X95377000Y-197801000D03*
%TD*%
%TO.C,R238*%
X93853000Y-199201000D03*
X93853000Y-197801000D03*
%TD*%
D14*
%TO.C,LED30*%
X233426000Y-146112000D03*
X233426000Y-147512000D03*
%TD*%
D13*
%TO.C,R240*%
X233426000Y-150560000D03*
X233426000Y-149160000D03*
%TD*%
D14*
%TO.C,LED29*%
X95758000Y-146112000D03*
X95758000Y-147512000D03*
%TD*%
D13*
%TO.C,R239*%
X95758000Y-150306000D03*
X95758000Y-148906000D03*
%TD*%
D14*
%TO.C,R183*%
X55880000Y-221550000D03*
X55880000Y-222950000D03*
%TD*%
%TO.C,R182*%
X60276181Y-221423000D03*
X60276181Y-222823000D03*
%TD*%
%TO.C,R180*%
X55880000Y-218502000D03*
X55880000Y-219902000D03*
%TD*%
%TO.C,R179*%
X60274606Y-218502000D03*
X60274606Y-219902000D03*
%TD*%
%TO.C,R177*%
X56666409Y-197928000D03*
X56666409Y-199328000D03*
%TD*%
%TO.C,R176*%
X60960000Y-197898757D03*
X60960000Y-199298757D03*
%TD*%
%TO.C,R174*%
X56666409Y-195007000D03*
X56666409Y-196407000D03*
%TD*%
%TO.C,R173*%
X60999091Y-195007000D03*
X60999091Y-196407000D03*
%TD*%
%TO.C,R169*%
X55840909Y-171512000D03*
X55840909Y-172912000D03*
%TD*%
%TO.C,R168*%
X60237091Y-174560000D03*
X60237091Y-175960000D03*
%TD*%
%TO.C,R167*%
X55840909Y-174433000D03*
X55840909Y-175833000D03*
%TD*%
%TO.C,R166*%
X60237091Y-171766000D03*
X60237091Y-173166000D03*
%TD*%
D13*
%TO.C,R165*%
X108396000Y-150368000D03*
X106996000Y-150368000D03*
%TD*%
%TO.C,R164*%
X108396000Y-154686000D03*
X106996000Y-154686000D03*
%TD*%
D14*
%TO.C,R163*%
X98933000Y-157669000D03*
X98933000Y-159069000D03*
%TD*%
%TO.C,R162*%
X103378000Y-157669000D03*
X103378000Y-159069000D03*
%TD*%
%TO.C,C144*%
X198501000Y-165797000D03*
X198501000Y-167197000D03*
%TD*%
D13*
%TO.C,R243*%
X188595000Y-171134000D03*
X188595000Y-169734000D03*
%TD*%
D14*
%TO.C,R244*%
X187198000Y-169734000D03*
X187198000Y-171134000D03*
%TD*%
D13*
%TO.C,R245*%
X191135000Y-171134000D03*
X191135000Y-169734000D03*
%TD*%
%TO.C,R246*%
X192532000Y-171134000D03*
X192532000Y-169734000D03*
%TD*%
D14*
%TO.C,C145*%
X187071000Y-165924000D03*
X187071000Y-167324000D03*
%TD*%
D12*
%TO.C,U30*%
X190965000Y-166878000D03*
X190204900Y-167924200D03*
X188975100Y-167524600D03*
X188975100Y-166231400D03*
X190204900Y-165831800D03*
%TD*%
D14*
%TO.C,C140*%
X200279000Y-166178000D03*
X200279000Y-167578000D03*
%TD*%
%TO.C,C141*%
X185166000Y-166305000D03*
X185166000Y-167705000D03*
%TD*%
%TO.C,C143*%
X183261000Y-166305000D03*
X183261000Y-167705000D03*
%TD*%
%TO.C,L2*%
X194056199Y-165648066D03*
X195456199Y-165648066D03*
%TD*%
D12*
%TO.C,U31*%
X170359862Y-155667138D03*
X171604362Y-156182638D03*
X172119862Y-157427138D03*
X171604362Y-158671638D03*
X170359862Y-159187138D03*
X169115362Y-158671638D03*
X168599862Y-157427138D03*
X169115362Y-156182638D03*
%TD*%
D13*
%TO.C,C11*%
X171059862Y-153490138D03*
X169659862Y-153490138D03*
%TD*%
%TO.C,R247*%
X176657000Y-157164000D03*
X176657000Y-155764000D03*
%TD*%
%TO.C,R248*%
X175133000Y-157164000D03*
X175133000Y-155764000D03*
%TD*%
%TO.C,R249*%
X163957000Y-159831000D03*
X163957000Y-158431000D03*
%TD*%
%TO.C,R250*%
X165481000Y-159831000D03*
X165481000Y-158431000D03*
%TD*%
D14*
%TO.C,R251*%
X122363000Y-186690000D03*
X123763000Y-186690000D03*
%TD*%
%TO.C,R252*%
X122363000Y-185293000D03*
X123763000Y-185293000D03*
%TD*%
%TO.C,LED31*%
X178562000Y-145985000D03*
X178562000Y-147385000D03*
%TD*%
D13*
%TO.C,R253*%
X191248101Y-147512000D03*
X191248101Y-146112000D03*
%TD*%
D14*
%TO.C,LED32*%
X192899101Y-146112000D03*
X192899101Y-147512000D03*
%TD*%
%TO.C,R254*%
X57593000Y-209296000D03*
X58993000Y-209296000D03*
%TD*%
%TO.C,C146*%
X56007000Y-209358000D03*
X56007000Y-210758000D03*
%TD*%
%TO.C,R255*%
X57444029Y-185985531D03*
X58844029Y-185985531D03*
%TD*%
%TO.C,C147*%
X55753000Y-186117000D03*
X55753000Y-187517000D03*
%TD*%
%TO.C,R256*%
X57974000Y-162687000D03*
X59374000Y-162687000D03*
%TD*%
%TO.C,C148*%
X56261000Y-162622000D03*
X56261000Y-164022000D03*
%TD*%
%TO.C,R257*%
X90297000Y-159193000D03*
X90297000Y-160593000D03*
%TD*%
D13*
%TO.C,C149*%
X90235000Y-157607000D03*
X88835000Y-157607000D03*
%TD*%
D14*
%TO.C,R258*%
X128016000Y-159447000D03*
X128016000Y-160847000D03*
%TD*%
D13*
%TO.C,C150*%
X128081000Y-157988000D03*
X126681000Y-157988000D03*
%TD*%
%TO.C,R259*%
X227776000Y-208534000D03*
X226376000Y-208534000D03*
%TD*%
D14*
%TO.C,C151*%
X229235000Y-208596000D03*
X229235000Y-209996000D03*
%TD*%
D13*
%TO.C,R260*%
X227649000Y-186563000D03*
X226249000Y-186563000D03*
%TD*%
%TO.C,C152*%
X229362000Y-186501000D03*
X229362000Y-185101000D03*
%TD*%
%TO.C,R261*%
X227903000Y-164973000D03*
X226503000Y-164973000D03*
%TD*%
%TO.C,C153*%
X229616000Y-165038000D03*
X229616000Y-163638000D03*
%TD*%
%TO.C,R262*%
X215203000Y-159004000D03*
X213803000Y-159004000D03*
%TD*%
D14*
%TO.C,C154*%
X215339817Y-157398476D03*
X216739817Y-157398476D03*
%TD*%
%TO.C,R263*%
X159766000Y-158939000D03*
X159766000Y-160339000D03*
%TD*%
%TO.C,C155*%
X159828000Y-157353000D03*
X161228000Y-157353000D03*
%TD*%
D13*
%TO.C,R264*%
X212725000Y-228538000D03*
X212725000Y-227138000D03*
%TD*%
%TO.C,C156*%
X212790000Y-230251000D03*
X211390000Y-230251000D03*
%TD*%
%TO.C,R265*%
X175006000Y-228665000D03*
X175006000Y-227265000D03*
%TD*%
%TO.C,C157*%
X174944000Y-230378000D03*
X173544000Y-230378000D03*
%TD*%
%TO.C,R266*%
X132018000Y-230759000D03*
X130618000Y-230759000D03*
%TD*%
D14*
%TO.C,C158*%
X133666000Y-230759000D03*
X135066000Y-230759000D03*
%TD*%
D13*
%TO.C,R267*%
X89916000Y-229554000D03*
X89916000Y-228154000D03*
%TD*%
%TO.C,C159*%
X89854000Y-231013000D03*
X88454000Y-231013000D03*
%TD*%
%TO.C,R268*%
X52324000Y-229427000D03*
X52324000Y-228027000D03*
%TD*%
%TO.C,C160*%
X52262000Y-231013000D03*
X50862000Y-231013000D03*
%TD*%
D14*
%TO.C,C161*%
X137193938Y-181161360D03*
X138593938Y-181161360D03*
%TD*%
D17*
%TO.C,TK1*%
X216877811Y-239061112D03*
%TD*%
%TO.C,TK2*%
X174364767Y-239061112D03*
%TD*%
%TO.C,TK3*%
X131724723Y-239061112D03*
%TD*%
%TO.C,TK4*%
X89449938Y-239061112D03*
%TD*%
%TO.C,TK5*%
X47939876Y-239061112D03*
%TD*%
%TO.C,TK8*%
X48402042Y-209116536D03*
%TD*%
%TO.C,TK9*%
X48402042Y-185497457D03*
%TD*%
%TO.C,TK10*%
X48402042Y-162132378D03*
%TD*%
%TO.C,TK11*%
X89470497Y-150578299D03*
%TD*%
%TO.C,TK16*%
X216594576Y-150500133D03*
%TD*%
%TO.C,TK17*%
X237212391Y-208437518D03*
%TD*%
%TO.C,TK18*%
X236937944Y-184437439D03*
%TD*%
%TO.C,TK12*%
X159879919Y-150427004D03*
%TD*%
%TO.C,TK15*%
X237319820Y-161700921D03*
%TD*%
%TO.C,TK20*%
X126619000Y-150495000D03*
%TD*%
D14*
%TO.C,R270*%
X198501000Y-162876000D03*
X198501000Y-164276000D03*
%TD*%
D12*
%TO.C,Q9*%
X86217000Y-162306000D03*
X84717000Y-163172000D03*
X84717000Y-161440000D03*
%TD*%
D13*
%TO.C,R269*%
X203835000Y-159577000D03*
X203835000Y-158177000D03*
%TD*%
M02*
