M48
; DRILL file KiCad 10.99.0-unknown date 2026-08-12T15:32:30
; FORMAT={-:-/ absolute / metric / decimal}
; #@! TF.CreationDate,2026-08-12T15:32:30+08:00
; #@! TF.GenerationSoftware,Kicad,Pcbnew,10.99.0-unknown
; #@! TF.FileFunction,MixedPlating,1,4
FMAT,2
METRIC
; #@! TA.AperFunction,Plated,PTH,ViaDrill
T1C0.305
%
G90
G05
T1
X1.0Y57.0
X1.0Y55.0
X1.0Y53.0
X1.0Y51.0
X1.0Y49.0
X1.0Y47.0
X1.0Y46.0
X1.6Y16.4
X1.65Y15.6
X1.75Y16.9
X1.75Y14.0
X1.95Y12.25
X2.0Y30.05
X2.0Y10.0
X2.0Y8.05
X2.0Y6.0
X2.0Y4.05
X2.15Y15.25
X2.7Y16.95
X2.7Y15.25
X2.8Y36.0
X2.85Y33.4
X2.95Y14.0
X3.3Y11.4
X3.45Y19.65
X3.45Y9.95
X3.8Y42.6
X3.9Y14.8
X4.0Y58.0
X4.05Y2.0
X4.1Y37.2
X4.3Y35.9
X4.35Y46.1
X4.35Y45.45
X4.4Y46.8
X4.4Y36.85
X4.45Y18.6
X4.45Y14.0
X4.5Y33.45
X4.7Y11.35
X4.75Y10.0
X4.95Y45.5
X4.95Y25.95
X5.05Y46.85
X5.1Y46.2
X5.1Y28.9
X5.2Y42.65
X5.45Y13.5
X5.55Y45.55
X5.85Y28.2
X5.85Y17.9
X6.0Y59.0
X6.0Y30.95
X6.0Y2.0
X6.1Y19.7
X6.25Y42.65
X6.4Y50.65
X6.45Y22.5
X6.5Y13.4
X6.85Y46.65
X6.9Y22.2
X7.05Y19.0
X7.05Y5.05
X7.6Y19.7
X7.7Y13.0
X7.75Y22.95
X8.0Y42.7
X8.0Y2.0
X8.05Y60.0
X8.05Y58.0
X8.15Y46.65
X8.4Y22.95
X8.4Y19.0
X8.75Y5.0
X8.9Y22.95
X8.951Y32.018
X8.951Y31.018
X8.951Y30.018
X9.0Y42.65
X9.05Y13.5
X9.1Y56.1
X9.1Y19.7
X9.5Y22.9
X9.6Y19.0
X9.65Y49.0
X9.65Y47.8
X9.65Y46.6
X9.85Y13.0
X9.9Y42.65
X9.951Y32.018
X9.951Y31.018
X9.951Y30.018
X10.0Y60.0
X10.0Y2.0
X10.1Y19.75
X10.9Y45.7
X10.9Y12.9
X10.951Y32.018
X10.951Y31.018
X10.951Y30.018
X11.0Y55.0
X11.2Y42.65
X11.2Y38.0
X11.4Y54.4
X11.8Y24.2
X11.8Y9.8
X12.0Y2.0
X12.1Y57.8
X12.25Y54.45
X12.3Y42.6
X12.4Y45.65
X12.4Y9.4
X12.5Y37.85
X12.75Y54.95
X12.9Y24.25
X13.0Y60.05
X13.0Y25.65
X13.1Y26.5
X13.1Y13.0
X13.3Y38.9
X13.4Y39.85
X13.45Y40.6
X13.75Y42.05
X13.85Y45.65
X13.9Y29.95
X14.0Y2.0
X14.1Y13.0
X14.15Y13.65
X14.35Y31.5
X14.55Y13.6
X14.6Y25.5
X14.65Y49.05
X14.65Y42.35
X14.65Y26.65
X14.65Y24.5
X14.75Y27.75
X14.95Y11.9
X15.0Y60.0
X15.0Y13.0
X15.05Y40.6
X15.2Y45.65
X15.35Y9.15
X15.45Y13.55
X15.8Y42.0
X15.8Y11.05
X15.9Y32.2
X16.0Y13.0
X16.0Y2.0
X16.05Y42.65
X16.05Y30.4
X16.1Y50.9
X16.1Y24.7
X16.2Y16.9
X16.25Y29.35
X16.35Y24.15
X16.55Y9.2
X16.6Y13.6
X16.65Y32.2
X16.7Y42.1
X16.7Y30.8
X16.7Y10.9
X16.8Y40.65
X16.85Y30.1
X16.9Y28.05
X16.9Y16.9
X16.95Y57.0
X16.95Y29.05
X17.0Y60.0
X17.0Y13.0
X17.15Y32.8
X17.45Y16.2
X17.45Y13.6
X17.9Y16.9
X17.95Y13.0
X18.0Y57.0
X18.0Y48.0
X18.05Y50.05
X18.05Y2.0
X18.35Y13.6
X18.65Y16.95
X18.95Y54.0
X19.0Y56.0
X19.0Y53.0
X19.0Y13.0
X19.05Y55.0
X19.75Y18.1
X20.0Y10.05
X20.0Y8.1
X20.0Y6.0
X20.0Y3.95
X21.3Y28.0
X21.3Y25.0
X21.3Y23.0
X21.3Y21.0
X21.3Y19.0
X21.3Y17.0
X21.3Y15.0
X21.3Y13.0
X21.3Y11.0
X21.3Y8.0
X21.3Y6.0
X21.35Y58.0
X21.35Y56.0
X21.35Y54.0
X21.35Y52.0
X21.35Y50.0
X21.35Y48.0
X21.35Y46.0
X21.35Y44.0
X21.35Y42.0
X21.35Y40.0
X21.35Y38.0
X21.35Y36.05
X21.35Y34.0
X21.35Y32.0
X21.35Y30.0
X21.4Y31.0
M30
