%TF.GenerationSoftware,KiCad,Pcbnew,10.99.0-unknown*%
%TF.CreationDate,2026-08-12T15:32:29+08:00*%
%TF.ProjectId,[___]_PN532RFID_NFC___,5bf28cc1-5d5f-4504-9e35-333252464944,rev?*%
%TF.SameCoordinates,Original*%
%TF.FileFunction,Profile,NP*%
%FSLAX46Y46*%
G04 Gerber Fmt 4.6, Leading zero omitted, Abs format (unit mm)*
G04 Created by KiCad (PCBNEW 10.99.0-unknown) date 2026-08-12 15:32:29*
%MOMM*%
%LPD*%
G01*
G04 APERTURE LIST*
%TA.AperFunction,Profile*%
%ADD10C,0.100000*%
%TD*%
%TA.AperFunction,Profile*%
%ADD11C,0.152000*%
%TD*%
G04 APERTURE END LIST*
D10*
X3050000Y59999900D02*
X2970100Y60401700D01*
X2970100Y60401700D02*
X2742500Y60742300D01*
X2742500Y60742300D02*
X2401800Y60970000D01*
X2401800Y60970000D02*
X2000000Y61049900D01*
X2000000Y61049900D02*
X1598200Y60970000D01*
X1598200Y60970000D02*
X1257500Y60742300D01*
X1257500Y60742300D02*
X1029900Y60401700D01*
X1029900Y60401700D02*
X950000Y59999900D01*
X950000Y59999900D02*
X1029900Y59598100D01*
X1029900Y59598100D02*
X1257500Y59257400D01*
X1257500Y59257400D02*
X1598200Y59029800D01*
X1598200Y59029800D02*
X2000000Y58949900D01*
X2000000Y58949900D02*
X2401800Y59029800D01*
X2401800Y59029800D02*
X2742500Y59257400D01*
X2742500Y59257400D02*
X2970100Y59598100D01*
X2970100Y59598100D02*
X3050000Y59999900D01*
X3050000Y2000000D02*
X2970100Y2401800D01*
X2970100Y2401800D02*
X2742500Y2742500D01*
X2742500Y2742500D02*
X2401800Y2970100D01*
X2401800Y2970100D02*
X2000000Y3050000D01*
X2000000Y3050000D02*
X1598200Y2970100D01*
X1598200Y2970100D02*
X1257500Y2742500D01*
X1257500Y2742500D02*
X1029900Y2401800D01*
X1029900Y2401800D02*
X950000Y2000000D01*
X950000Y2000000D02*
X1029900Y1598200D01*
X1029900Y1598200D02*
X1257500Y1257500D01*
X1257500Y1257500D02*
X1598200Y1029900D01*
X1598200Y1029900D02*
X2000000Y950000D01*
X2000000Y950000D02*
X2401800Y1029900D01*
X2401800Y1029900D02*
X2742500Y1257500D01*
X2742500Y1257500D02*
X2970100Y1598200D01*
X2970100Y1598200D02*
X3050000Y2000000D01*
X99049800Y2000000D02*
X98969900Y2401800D01*
X98969900Y2401800D02*
X98742300Y2742500D01*
X98742300Y2742500D02*
X98401600Y2970100D01*
X98401600Y2970100D02*
X97999800Y3050000D01*
X97999800Y3050000D02*
X97598000Y2970100D01*
X97598000Y2970100D02*
X97257300Y2742500D01*
X97257300Y2742500D02*
X97029700Y2401800D01*
X97029700Y2401800D02*
X96949800Y2000000D01*
X96949800Y2000000D02*
X97029700Y1598200D01*
X97029700Y1598200D02*
X97257300Y1257500D01*
X97257300Y1257500D02*
X97598000Y1029900D01*
X97598000Y1029900D02*
X97999800Y950000D01*
X97999800Y950000D02*
X98401600Y1029900D01*
X98401600Y1029900D02*
X98742300Y1257500D01*
X98742300Y1257500D02*
X98969900Y1598200D01*
X98969900Y1598200D02*
X99049800Y2000000D01*
X99049800Y59999900D02*
X98969900Y60401700D01*
X98969900Y60401700D02*
X98742300Y60742300D01*
X98742300Y60742300D02*
X98401600Y60970000D01*
X98401600Y60970000D02*
X97999800Y61049900D01*
X97999800Y61049900D02*
X97598000Y60970000D01*
X97598000Y60970000D02*
X97257300Y60742300D01*
X97257300Y60742300D02*
X97029700Y60401700D01*
X97029700Y60401700D02*
X96949800Y59999900D01*
X96949800Y59999900D02*
X97029700Y59598100D01*
X97029700Y59598100D02*
X97257300Y59257400D01*
X97257300Y59257400D02*
X97598000Y59029800D01*
X97598000Y59029800D02*
X97999800Y58949900D01*
X97999800Y58949900D02*
X98401600Y59029800D01*
X98401600Y59029800D02*
X98742300Y59257400D01*
X98742300Y59257400D02*
X98969900Y59598100D01*
X98969900Y59598100D02*
X99049800Y59999900D01*
X21050000Y59999900D02*
X20970000Y60401700D01*
X20970000Y60401700D02*
X20742400Y60742300D01*
X20742400Y60742300D02*
X20401800Y60970000D01*
X20401800Y60970000D02*
X20000000Y61049900D01*
X20000000Y61049900D02*
X19598100Y60970000D01*
X19598100Y60970000D02*
X19257500Y60742300D01*
X19257500Y60742300D02*
X19029900Y60401700D01*
X19029900Y60401700D02*
X18950000Y59999900D01*
X18950000Y59999900D02*
X19029900Y59598100D01*
X19029900Y59598100D02*
X19257500Y59257400D01*
X19257500Y59257400D02*
X19598100Y59029800D01*
X19598100Y59029800D02*
X20000000Y58949900D01*
X20000000Y58949900D02*
X20401800Y59029800D01*
X20401800Y59029800D02*
X20742400Y59257400D01*
X20742400Y59257400D02*
X20970000Y59598100D01*
X20970000Y59598100D02*
X21050000Y59999900D01*
X21050000Y2000000D02*
X20970000Y2401800D01*
X20970000Y2401800D02*
X20742400Y2742500D01*
X20742400Y2742500D02*
X20401800Y2970100D01*
X20401800Y2970100D02*
X20000000Y3050000D01*
X20000000Y3050000D02*
X19598100Y2970100D01*
X19598100Y2970100D02*
X19257500Y2742500D01*
X19257500Y2742500D02*
X19029900Y2401800D01*
X19029900Y2401800D02*
X18950000Y2000000D01*
X18950000Y2000000D02*
X19029900Y1598200D01*
X19029900Y1598200D02*
X19257500Y1257500D01*
X19257500Y1257500D02*
X19598100Y1029900D01*
X19598100Y1029900D02*
X20000000Y950000D01*
X20000000Y950000D02*
X20401800Y1029900D01*
X20401800Y1029900D02*
X20742400Y1257500D01*
X20742400Y1257500D02*
X20970000Y1598200D01*
X20970000Y1598200D02*
X21050000Y2000000D01*
D11*
X2000000Y61999900D02*
X1750000Y61750400D01*
X1750000Y61750400D02*
X1500000Y61500800D01*
X1500000Y61500800D02*
X1250000Y61251100D01*
X1250000Y61251100D02*
X1000000Y61001100D01*
X1000000Y61001100D02*
X750000Y60751100D01*
X750000Y60751100D02*
X500000Y60500800D01*
X500000Y60500800D02*
X250000Y60250400D01*
X250000Y60250400D02*
X0Y59999900D01*
X0Y2000000D02*
X250000Y1750600D01*
X250000Y1750600D02*
X500000Y1500900D01*
X500000Y1500900D02*
X750000Y1251200D01*
X750000Y1251200D02*
X1000000Y1001300D01*
X1000000Y1001300D02*
X1250000Y751200D01*
X1250000Y751200D02*
X1500000Y501000D01*
X1500000Y501000D02*
X1750000Y250600D01*
X1750000Y250600D02*
X2000000Y0D01*
X97999800Y0D02*
X98249800Y250600D01*
X98249800Y250600D02*
X98499800Y501000D01*
X98499800Y501000D02*
X98749800Y751200D01*
X98749800Y751200D02*
X98999800Y1001300D01*
X98999800Y1001300D02*
X99249800Y1251200D01*
X99249800Y1251200D02*
X99499800Y1500900D01*
X99499800Y1500900D02*
X99749800Y1750600D01*
X99749800Y1750600D02*
X99999800Y2000000D01*
X0Y59999900D02*
X0Y59999900D01*
X0Y59999900D02*
X0Y2000000D01*
X2000000Y0D02*
X2000000Y0D01*
X2000000Y0D02*
X97999800Y0D01*
X99999800Y2000000D02*
X99999800Y2000000D01*
X99999800Y2000000D02*
X99999800Y60000000D01*
X2000000Y61999900D02*
X2000000Y61999900D01*
X2000000Y61999900D02*
X97999800Y61999900D01*
X99999800Y59999900D02*
X99749800Y60250400D01*
X99749800Y60250400D02*
X99499800Y60500800D01*
X99499800Y60500800D02*
X99249800Y60751100D01*
X99249800Y60751100D02*
X98999800Y61001100D01*
X98999800Y61001100D02*
X98749800Y61251100D01*
X98749800Y61251100D02*
X98499800Y61500800D01*
X98499800Y61500800D02*
X98249800Y61750400D01*
X98249800Y61750400D02*
X97999800Y61999900D01*
M02*
