%TF.GenerationSoftware,KiCad,Pcbnew,10.99.0-unknown*%
%TF.CreationDate,2026-08-12T15:32:29+08:00*%
%TF.ProjectId,[___]_PN532RFID_NFC___,5bf28cc1-5d5f-4504-9e35-333252464944,rev?*%
%TF.SameCoordinates,Original*%
%TF.FileFunction,Copper,L4,Bot*%
%TF.FilePolarity,Positive*%
%FSLAX46Y46*%
G04 Gerber Fmt 4.6, Leading zero omitted, Abs format (unit mm)*
G04 Created by KiCad (PCBNEW 10.99.0-unknown) date 2026-08-12 15:32:29*
%MOMM*%
%LPD*%
G01*
G04 APERTURE LIST*
%TA.AperFunction,ViaPad*%
%ADD10C,0.450000*%
%TD*%
%TA.AperFunction,ViaPad*%
%ADD11C,0.500000*%
%TD*%
%TA.AperFunction,Conductor*%
%ADD12C,0.250000*%
%TD*%
%TA.AperFunction,Conductor*%
%ADD13C,0.800000*%
%TD*%
%TA.AperFunction,Conductor*%
%ADD14C,0.200000*%
%TD*%
%TA.AperFunction,Conductor*%
%ADD15C,1.000000*%
%TD*%
G04 APERTURE END LIST*
D10*
%TO.N,$1N3576*%
X14350000Y31499900D03*
%TO.N,$1N3579*%
X13900000Y29949900D03*
%TO.N,$1N3576*%
X16700000Y42099900D03*
%TO.N,VREF*%
X6450000Y22500000D03*
X6900000Y22200000D03*
%TO.N,3.3V*%
X9500000Y22900000D03*
X7750000Y22950000D03*
X8400000Y22950000D03*
X8900000Y22950000D03*
%TO.N,VREF*%
X4400000Y36849900D03*
X4100000Y37199900D03*
D11*
%TO.N,3.3V*%
X18650000Y16950000D03*
X16900000Y16900000D03*
X17450000Y16200000D03*
X17900000Y16900000D03*
X16200000Y16900000D03*
%TO.N,$1N3579*%
X16250000Y29349900D03*
%TO.N,VREF*%
X4950000Y25949900D03*
X5100000Y28899900D03*
%TO.N,GND*%
X21400000Y30999900D03*
%TO.N,$1N415*%
X6400000Y50649900D03*
X12100000Y57799900D03*
%TO.N,532_RXD*%
X2000000Y30049900D03*
X7050000Y5050000D03*
%TO.N,532_TXD*%
X8750000Y5000000D03*
%TO.N,VBUS*%
X2700000Y15250000D03*
X1750000Y16900000D03*
X2150000Y15250000D03*
X1600000Y16400000D03*
X1650000Y15600000D03*
%TO.N,5V*%
X2700000Y16950000D03*
%TO.N,VBUS*%
X4350000Y46099900D03*
X5100000Y46199900D03*
X4350000Y45449900D03*
X5550000Y45549900D03*
X4950000Y45499900D03*
X4400000Y46799900D03*
X5050000Y46849900D03*
D10*
%TO.N,GND*%
X6850000Y46649900D03*
X8150000Y46649900D03*
X9650000Y46599900D03*
X9650000Y47799900D03*
X9650000Y48999900D03*
X1000000Y45999900D03*
X1000000Y46999900D03*
X1000000Y48999900D03*
X1000000Y50999900D03*
X1000000Y52999900D03*
X1000000Y54999900D03*
X1000000Y56999900D03*
X4000000Y57999900D03*
X6000000Y58999900D03*
X8050000Y59999900D03*
X10000000Y59999900D03*
X13000000Y60049900D03*
X15000000Y59999900D03*
X11000000Y54999900D03*
X12750000Y54949900D03*
X12250000Y54449900D03*
X11400000Y54399900D03*
X9100000Y56099900D03*
X8050000Y57999900D03*
X18050000Y50049900D03*
X18000000Y47999900D03*
X15200000Y45649900D03*
X13850000Y45649900D03*
X12400000Y45649900D03*
X10900000Y45699900D03*
X14650000Y49049900D03*
X16100000Y50899900D03*
X17000000Y59999900D03*
X16950000Y56999900D03*
X18000000Y56999900D03*
X19000000Y55999900D03*
X19050000Y54999900D03*
X18950000Y53999900D03*
X19000000Y52999900D03*
X16800000Y40649900D03*
X15050000Y40599900D03*
X13450000Y40599900D03*
X15800000Y41999900D03*
X13750000Y42049900D03*
X12300000Y42599900D03*
X11200000Y42649900D03*
X9900000Y42649900D03*
X9000000Y42649900D03*
X8000000Y42699900D03*
X6250000Y42649900D03*
X5200000Y42649900D03*
X3800000Y42599900D03*
X11200000Y37999900D03*
X12500000Y37849900D03*
X13300000Y38899900D03*
X13400000Y39849900D03*
X14650000Y42349900D03*
X16050000Y42649900D03*
X3450000Y19650000D03*
X4450000Y18600000D03*
X5850000Y17900000D03*
X6100000Y19700000D03*
X7600000Y19700000D03*
X9100000Y19700000D03*
X10100000Y19750000D03*
X9600000Y19000000D03*
X8400000Y19000000D03*
X7050000Y19000000D03*
X11800000Y24200000D03*
X12900000Y24250000D03*
X13000000Y25649900D03*
X13100000Y26499900D03*
X14650000Y24500000D03*
X14600000Y25499900D03*
X14650000Y26649900D03*
X14750000Y27749900D03*
X16350000Y24150000D03*
X16100000Y24700000D03*
X16900000Y28049900D03*
X16950000Y29049900D03*
X16850000Y30099900D03*
X16650000Y32199900D03*
X15900000Y32199900D03*
X16050000Y30399900D03*
X16700000Y30799900D03*
X17150000Y32799900D03*
X19000000Y13000000D03*
X17950000Y13000000D03*
X17000000Y13000000D03*
X16000000Y13000000D03*
X15000000Y13000000D03*
X14100000Y13000000D03*
X13100000Y13000000D03*
X10900000Y12900000D03*
X9850000Y13000000D03*
X9050000Y13500000D03*
X7700000Y13000000D03*
X6500000Y13400000D03*
X5450000Y13500000D03*
X4450000Y14000000D03*
X3900000Y14800000D03*
X2950000Y14000000D03*
X1750000Y14000000D03*
X20000000Y10050000D03*
X20000000Y8100000D03*
X20000000Y6000000D03*
X20000000Y3950000D03*
X18050000Y2000000D03*
X16000000Y2000000D03*
X14000000Y2000000D03*
X12000000Y2000000D03*
X10000000Y2000000D03*
X8000000Y2000000D03*
X6000000Y2000000D03*
X4050000Y2000000D03*
X2000000Y4050000D03*
X2000000Y6000000D03*
X2000000Y8050000D03*
X2000000Y10000000D03*
X1950000Y12250000D03*
X3300000Y11400000D03*
X4700000Y11350000D03*
X3450000Y9950000D03*
X4750000Y10000000D03*
X11800000Y9800000D03*
X16550000Y9200000D03*
X15350000Y9150000D03*
X12400000Y9400000D03*
X15800000Y11050000D03*
X16700000Y10900000D03*
X14950000Y11900000D03*
X18350000Y13600000D03*
X17450000Y13600000D03*
X16600000Y13600000D03*
X15450000Y13550000D03*
X14550000Y13600000D03*
X14150000Y13650000D03*
X8951000Y32018300D03*
X9951000Y32018300D03*
X10951000Y32018300D03*
X10951000Y30018300D03*
X10951000Y31018300D03*
X9951000Y30018300D03*
X8951000Y30018300D03*
X8951000Y31018300D03*
X9951000Y31018300D03*
X4500000Y33449900D03*
X2850000Y33399900D03*
X2800000Y35999900D03*
X4300000Y35899900D03*
%TO.N,RST_OUT*%
X6000000Y30949900D03*
X5850000Y28199900D03*
%TO.N,$1N3784*%
X19750000Y18100000D03*
%TO.N,GND*%
X21350000Y36049900D03*
X21350000Y37999900D03*
X21350000Y39999900D03*
X21350000Y41999900D03*
X21350000Y43999900D03*
X21350000Y45999900D03*
X21350000Y47999900D03*
X21350000Y49999900D03*
X21350000Y51999900D03*
X21350000Y53999900D03*
X21350000Y55999900D03*
X21350000Y57999900D03*
X21350000Y33999900D03*
X21350000Y31999900D03*
X21350000Y29999900D03*
X21300000Y27999900D03*
X21300000Y25000000D03*
X21300000Y23000000D03*
X21300000Y21000000D03*
X21300000Y19000000D03*
X21300000Y17000000D03*
X21300000Y15000000D03*
X21300000Y13000000D03*
X21300000Y11000000D03*
X21300000Y8000000D03*
X21300000Y6000000D03*
%TD*%
%TO.N,$1N3576*%
D12*
X14350000Y31499900D02*
X17600000Y31499900D01*
X17600000Y31499900D02*
X18350000Y32249900D01*
X18350000Y32249900D02*
X18350000Y40449900D01*
X18350000Y40449900D02*
X16700000Y42099900D01*
%TO.N,VREF*%
X6900000Y22200000D02*
X6450000Y22650000D01*
X6450000Y22650000D02*
X6250000Y22650000D01*
X4950000Y23950000D02*
X6250000Y22650000D01*
X4100000Y37149900D02*
X4100000Y37199900D01*
X5100000Y36149900D02*
X4400000Y36849900D01*
X4400000Y36849900D02*
X4100000Y37149900D01*
%TO.N,3.3V*%
D13*
X18650000Y16950000D02*
X18650000Y18400000D01*
X18650000Y18400000D02*
X18000000Y19050000D01*
X18000000Y19050000D02*
X13800000Y19050000D01*
X13800000Y19050000D02*
X9950000Y22900000D01*
X9950000Y22900000D02*
X9500000Y22900000D01*
%TO.N,$1N3579*%
D12*
X16250000Y29349900D02*
X15650000Y29949900D01*
X15650000Y29949900D02*
X13900000Y29949900D01*
%TO.N,VREF*%
X4950000Y25949900D02*
X4950000Y23950000D01*
X5100000Y28899900D02*
X5100000Y36149900D01*
%TO.N,3.3V*%
D13*
X7750000Y22950000D02*
X7600000Y22950000D01*
X7600000Y22950000D02*
X6200000Y24350000D01*
X6200000Y24350000D02*
X6200000Y26749900D01*
X5891500Y27058400D02*
X3550000Y27058400D01*
X6200000Y26749900D02*
X5891500Y27058400D01*
%TO.N,$1N415*%
D12*
X12100000Y57799900D02*
X6400000Y52099900D01*
X6400000Y52099900D02*
X6400000Y50649900D01*
%TO.N,532_RXD*%
D14*
X3550000Y32138400D02*
X3550000Y31599900D01*
X3550000Y31599900D02*
X2000000Y30049900D01*
X2000000Y30049900D02*
X2000000Y18950000D01*
X2000000Y18950000D02*
X7050000Y13900000D01*
X7050000Y13900000D02*
X7050000Y5050000D01*
%TO.N,532_TXD*%
X3550000Y29598400D02*
X2400000Y28448400D01*
X2400000Y28448400D02*
X2400000Y19250000D01*
X2400000Y19250000D02*
X8750000Y12900000D01*
X8750000Y12900000D02*
X8750000Y5000000D01*
%TO.N,VBUS*%
D15*
X1750000Y16900000D02*
X950000Y17700000D01*
X3350000Y46349900D02*
X950000Y43949900D01*
X950000Y17700000D02*
X950000Y43949900D01*
X5100000Y46199900D02*
X5200000Y46199900D01*
X5350000Y46349900D02*
X3350000Y46349900D01*
X5200000Y46199900D02*
X5050000Y46049900D01*
X5200000Y46199900D02*
X5350000Y46349900D01*
%TO.N,RST_OUT*%
D12*
X6000000Y30949900D02*
X6000000Y28349900D01*
X6000000Y28349900D02*
X5850000Y28199900D01*
%TD*%
M02*
