%TF.GenerationSoftware,KiCad,Pcbnew,10.99.0-unknown*%
%TF.CreationDate,2026-08-12T15:26:35+08:00*%
%TF.ProjectId,All_in_one_________,416c6c5f-696e-45f6-9f6e-650da1680908,rev?*%
%TF.SameCoordinates,Original*%
%TF.FileFunction,Profile,NP*%
%FSLAX46Y46*%
G04 Gerber Fmt 4.6, Leading zero omitted, Abs format (unit mm)*
G04 Created by KiCad (PCBNEW 10.99.0-unknown) date 2026-08-12 15:26:35*
%MOMM*%
%LPD*%
G01*
G04 APERTURE LIST*
%TA.AperFunction,Profile*%
%ADD10C,0.100000*%
%TD*%
%TA.AperFunction,Profile*%
%ADD11C,0.152400*%
%TD*%
%TA.AperFunction,Profile*%
%ADD12C,0.152000*%
%TD*%
G04 APERTURE END LIST*
D10*
X77087100Y63273900D02*
X76969100Y63867100D01*
X76969100Y63867100D02*
X76633100Y64369900D01*
X76633100Y64369900D02*
X76130200Y64705900D01*
X76130200Y64705900D02*
X75537100Y64823900D01*
X75537100Y64823900D02*
X74943900Y64705900D01*
X74943900Y64705900D02*
X74441100Y64369900D01*
X74441100Y64369900D02*
X74105100Y63867100D01*
X74105100Y63867100D02*
X73987100Y63273900D01*
X73987100Y63273900D02*
X74105100Y62680800D01*
X74105100Y62680800D02*
X74441100Y62177900D01*
X74441100Y62177900D02*
X74943900Y61841900D01*
X74943900Y61841900D02*
X75537100Y61723900D01*
X75537100Y61723900D02*
X76130200Y61841900D01*
X76130200Y61841900D02*
X76633100Y62177900D01*
X76633100Y62177900D02*
X76969100Y62680800D01*
X76969100Y62680800D02*
X77087100Y63273900D01*
X102542900Y37818100D02*
X102424900Y38411200D01*
X102424900Y38411200D02*
X102088900Y38914100D01*
X102088900Y38914100D02*
X101586100Y39250100D01*
X101586100Y39250100D02*
X100992900Y39368100D01*
X100992900Y39368100D02*
X100399800Y39250100D01*
X100399800Y39250100D02*
X99896900Y38914100D01*
X99896900Y38914100D02*
X99560900Y38411200D01*
X99560900Y38411200D02*
X99442900Y37818100D01*
X99442900Y37818100D02*
X99560900Y37224900D01*
X99560900Y37224900D02*
X99896900Y36722100D01*
X99896900Y36722100D02*
X100399800Y36386100D01*
X100399800Y36386100D02*
X100992900Y36268100D01*
X100992900Y36268100D02*
X101586100Y36386100D01*
X101586100Y36386100D02*
X102088900Y36722100D01*
X102088900Y36722100D02*
X102424900Y37224900D01*
X102424900Y37224900D02*
X102542900Y37818100D01*
D11*
X32597900Y12021200D02*
X32597900Y12021200D01*
X32597900Y12021200D02*
X16873500Y12021200D01*
X16873500Y12021200D02*
X16769700Y11912700D01*
X16769700Y11912700D02*
X16665900Y11804000D01*
X16665900Y11804000D02*
X16562100Y11695200D01*
X16562100Y11695200D02*
X16458300Y11586200D01*
X16458300Y11586200D02*
X16354500Y11477100D01*
X16354500Y11477100D02*
X16250800Y11367800D01*
X16250800Y11367800D02*
X16147000Y11258400D01*
X16147000Y11258400D02*
X16043200Y11148800D01*
X32597900Y12021200D02*
X32691700Y11926900D01*
X32691700Y11926900D02*
X32785400Y11832700D01*
X32785400Y11832700D02*
X32879200Y11738700D01*
X32879200Y11738700D02*
X32972900Y11644900D01*
X32972900Y11644900D02*
X33066700Y11551200D01*
X33066700Y11551200D02*
X33160400Y11457700D01*
X33160400Y11457700D02*
X33254200Y11364400D01*
X33254200Y11364400D02*
X33347900Y11271200D01*
X33347900Y11271200D02*
X33347900Y11271200D01*
X33347900Y11271200D02*
X33347900Y9584000D01*
D12*
X16043200Y11148800D02*
X16043200Y11148800D01*
X16043200Y11148800D02*
X16043200Y7089200D01*
D11*
X127000Y12191700D02*
X381000Y12445200D01*
X381000Y12445200D02*
X635100Y12698800D01*
X635100Y12698800D02*
X889100Y12952600D01*
X889100Y12952600D02*
X1143100Y13206600D01*
X1143100Y13206600D02*
X1397200Y13460700D01*
X1397200Y13460700D02*
X1651200Y13715000D01*
X1651200Y13715000D02*
X1905200Y13969400D01*
X1905200Y13969400D02*
X2159300Y14224000D01*
X4191600Y16256300D02*
X3937500Y16001700D01*
X3937500Y16001700D02*
X3683500Y15747300D01*
X3683500Y15747300D02*
X3429400Y15493000D01*
X3429400Y15493000D02*
X3175400Y15238900D01*
X3175400Y15238900D02*
X2921400Y14984900D01*
X2921400Y14984900D02*
X2667300Y14731100D01*
X2667300Y14731100D02*
X2413300Y14477500D01*
X2413300Y14477500D02*
X2159300Y14224000D01*
X4191600Y57445900D02*
X3937500Y57700500D01*
X3937500Y57700500D02*
X3683500Y57954900D01*
X3683500Y57954900D02*
X3429400Y58209200D01*
X3429400Y58209200D02*
X3175400Y58463300D01*
X3175400Y58463300D02*
X2921400Y58717300D01*
X2921400Y58717300D02*
X2667300Y58971100D01*
X2667300Y58971100D02*
X2413300Y59224700D01*
X2413300Y59224700D02*
X2159300Y59478200D01*
X127000Y61510500D02*
X381000Y61257000D01*
X381000Y61257000D02*
X635100Y61003300D01*
X635100Y61003300D02*
X889100Y60749500D01*
X889100Y60749500D02*
X1143100Y60495600D01*
X1143100Y60495600D02*
X1397200Y60241500D01*
X1397200Y60241500D02*
X1651200Y59987200D01*
X1651200Y59987200D02*
X1905200Y59732800D01*
X1905200Y59732800D02*
X2159300Y59478200D01*
X4191600Y57445900D02*
X4191600Y57445900D01*
X4191600Y57445900D02*
X4191600Y16256300D01*
X127000Y6930900D02*
X251900Y6811200D01*
X251900Y6811200D02*
X376900Y6691300D01*
X376900Y6691300D02*
X501800Y6571300D01*
X501800Y6571300D02*
X626800Y6451100D01*
X626800Y6451100D02*
X751700Y6330800D01*
X751700Y6330800D02*
X876600Y6210300D01*
X876600Y6210300D02*
X1001600Y6089700D01*
X1001600Y6089700D02*
X1126500Y5969000D01*
X1126500Y5969000D02*
X1126500Y5969000D01*
X1126500Y5969000D02*
X14923000Y5969000D01*
X14923000Y5969000D02*
X15063000Y6109600D01*
X15063000Y6109600D02*
X15203000Y6250000D01*
X15203000Y6250000D02*
X15343000Y6390300D01*
X15343000Y6390300D02*
X15483100Y6530400D01*
X15483100Y6530400D02*
X15623100Y6670300D01*
X15623100Y6670300D02*
X15763100Y6810100D01*
X15763100Y6810100D02*
X15903100Y6949700D01*
X15903100Y6949700D02*
X16043200Y7089200D01*
X127000Y6930900D02*
X127000Y6930900D01*
X127000Y6930900D02*
X127000Y12191700D01*
X127000Y61510500D02*
X127000Y61510500D01*
X127000Y61510500D02*
X109100Y99085800D01*
X973400Y99999800D02*
X865400Y99886100D01*
X865400Y99886100D02*
X757300Y99772300D01*
X757300Y99772300D02*
X649300Y99658300D01*
X649300Y99658300D02*
X541300Y99544100D01*
X541300Y99544100D02*
X433200Y99429800D01*
X433200Y99429800D02*
X325200Y99315300D01*
X325200Y99315300D02*
X217200Y99200600D01*
X217200Y99200600D02*
X109100Y99085800D01*
X165227000Y11748300D02*
X165227000Y11748300D01*
X165227000Y11748300D02*
X165227000Y11430000D01*
X165227000Y11430000D02*
X165004800Y11207200D01*
X165004800Y11207200D02*
X164782500Y10984500D01*
X164782500Y10984500D02*
X164560300Y10762100D01*
X164560300Y10762100D02*
X164338000Y10539700D01*
X164338000Y10539700D02*
X164115800Y10317600D01*
X164115800Y10317600D02*
X163893500Y10095500D01*
X163893500Y10095500D02*
X163671300Y9873700D01*
X163671300Y9873700D02*
X163449000Y9652000D01*
X163449000Y9652000D02*
X163449000Y9652000D01*
X163449000Y9652000D02*
X81028000Y9652000D01*
X81028000Y9652000D02*
X80799500Y9424000D01*
X80799500Y9424000D02*
X80571000Y9195900D01*
X80571000Y9195900D02*
X80342500Y8967600D01*
X80342500Y8967600D02*
X80113900Y8739200D01*
X80113900Y8739200D02*
X79885400Y8510600D01*
X79885400Y8510600D02*
X79656900Y8281800D01*
X79656900Y8281800D02*
X79428400Y8052900D01*
X79428400Y8052900D02*
X79199800Y7823800D01*
D12*
X79199800Y7483200D02*
X79199800Y7483200D01*
X79199800Y7483200D02*
X79199800Y7823800D01*
X991200Y100000000D02*
X991200Y100000000D01*
X991200Y100000000D02*
X164160000Y100000000D01*
X164160000Y100000000D02*
X164293400Y99866100D01*
X164293400Y99866100D02*
X164426700Y99732300D01*
X164426700Y99732300D02*
X164560100Y99598700D01*
X164560100Y99598700D02*
X164693500Y99465200D01*
X164693500Y99465200D02*
X164826900Y99331900D01*
X164826900Y99331900D02*
X164960200Y99198800D01*
X164960200Y99198800D02*
X165093600Y99065800D01*
X165093600Y99065800D02*
X165227000Y98933000D01*
X165227000Y98933000D02*
X165227000Y98933000D01*
X165227000Y98933000D02*
X165227000Y11430000D01*
D10*
X103761500Y50542500D02*
X101824400Y52480100D01*
X101824400Y52480100D02*
X99887400Y54417600D01*
X99887400Y54417600D02*
X97950300Y56354900D01*
X97950300Y56354900D02*
X96013200Y58292000D01*
X96013200Y58292000D02*
X94076200Y60229000D01*
X94076200Y60229000D02*
X92139100Y62165800D01*
X92139100Y62165800D02*
X90202100Y64102500D01*
X90202100Y64102500D02*
X88265000Y66039000D01*
X88265000Y66039000D02*
X86327900Y64102500D01*
X86327900Y64102500D02*
X84390900Y62165800D01*
X84390900Y62165800D02*
X82453800Y60229000D01*
X82453800Y60229000D02*
X80516800Y58292000D01*
X80516800Y58292000D02*
X78579700Y56354900D01*
X78579700Y56354900D02*
X76642600Y54417600D01*
X76642600Y54417600D02*
X74705600Y52480100D01*
X74705600Y52480100D02*
X72768500Y50542500D01*
X72768500Y50542500D02*
X74705600Y48606000D01*
X74705600Y48606000D02*
X76642600Y46669300D01*
X76642600Y46669300D02*
X78579700Y44732500D01*
X78579700Y44732500D02*
X80516800Y42795500D01*
X80516800Y42795500D02*
X82453800Y40858400D01*
X82453800Y40858400D02*
X84390900Y38921100D01*
X84390900Y38921100D02*
X86327900Y36983600D01*
X86327900Y36983600D02*
X88265000Y35046000D01*
X88265000Y35046000D02*
X90202100Y36983600D01*
X90202100Y36983600D02*
X92139100Y38921100D01*
X92139100Y38921100D02*
X94076200Y40858400D01*
X94076200Y40858400D02*
X96013200Y42795500D01*
X96013200Y42795500D02*
X97950300Y44732500D01*
X97950300Y44732500D02*
X99887400Y46669300D01*
X99887400Y46669300D02*
X101824400Y48606000D01*
X101824400Y48606000D02*
X103761500Y50542500D01*
X102384200Y44155900D02*
X102384200Y44155900D01*
X102384200Y44155900D02*
X103251000Y41275000D01*
X103251000Y41275000D02*
X102984800Y39785700D01*
X102984800Y39785700D02*
X102488300Y39678600D01*
X102488300Y39678600D02*
X101092000Y40005000D01*
X101092000Y40005000D02*
X100726200Y41337600D01*
X100726200Y41337600D02*
X102384200Y44155900D01*
X75805300Y59756500D02*
X75805300Y59756500D01*
X75805300Y59756500D02*
X75438000Y61087000D01*
X75438000Y61087000D02*
X74041700Y61413400D01*
X74041700Y61413400D02*
X73545200Y61306300D01*
X73545200Y61306300D02*
X73279000Y59817000D01*
X73279000Y59817000D02*
X74142300Y56921300D01*
X74142300Y56921300D02*
X75805300Y59756500D01*
X97687900Y62853700D02*
X97687900Y62853700D01*
X97687900Y62853700D02*
X98512500Y63655400D01*
X98512500Y63655400D02*
X99753200Y63655400D01*
X99753200Y63655400D02*
X101854000Y61722000D01*
X101854000Y61722000D02*
X102023400Y60839000D01*
X102023400Y60839000D02*
X100801800Y59651200D01*
X100801800Y59651200D02*
X97687900Y62853700D01*
M02*
