%TF.GenerationSoftware,KiCad,Pcbnew,10.99.0-unknown*%
%TF.CreationDate,2026-08-12T15:26:35+08:00*%
%TF.ProjectId,All_in_one_________,416c6c5f-696e-45f6-9f6e-650da1680908,rev?*%
%TF.SameCoordinates,Original*%
%TF.FileFunction,Soldermask,Top*%
%TF.FilePolarity,Negative*%
%FSLAX46Y46*%
G04 Gerber Fmt 4.6, Leading zero omitted, Abs format (unit mm)*
G04 Created by KiCad (PCBNEW 10.99.0-unknown) date 2026-08-12 15:26:35*
%MOMM*%
%LPD*%
G01*
G04 APERTURE LIST*
G04 Aperture macros list*
%AMRoundRect*
0 Rectangle with rounded corners*
0 $1 Rounding radius*
0 $2 $3 $4 $5 $6 $7 $8 $9 X,Y pos of 4 corners*
0 Add a 4 corners polygon primitive as box body*
4,1,4,$2,$3,$4,$5,$6,$7,$8,$9,$2,$3,0*
0 Add four circle primitives for the rounded corners*
1,1,$1+$1,$2,$3*
1,1,$1+$1,$4,$5*
1,1,$1+$1,$6,$7*
1,1,$1+$1,$8,$9*
0 Add four rect primitives between the rounded corners*
20,1,$1+$1,$2,$3,$4,$5,0*
20,1,$1+$1,$4,$5,$6,$7,0*
20,1,$1+$1,$6,$7,$8,$9,0*
20,1,$1+$1,$8,$9,$2,$3,0*%
G04 Aperture macros list end*
%ADD10C,0.850000*%
%ADD11RoundRect,0.155000X0.345000X-0.105000X0.345000X0.105000X-0.345000X0.105000X-0.345000X-0.105000X0*%
%ADD12RoundRect,0.155000X-0.105000X-0.345000X0.105000X-0.345000X0.105000X0.345000X-0.105000X0.345000X0*%
%ADD13RoundRect,0.275000X-0.225000X-0.275000X0.225000X-0.275000X0.225000X0.275000X-0.225000X0.275000X0*%
%ADD14RoundRect,0.275000X-0.225000X-0.275000X0.225000X-0.275000X0.225000X0.275000X-0.225000X0.275000X0*%
%ADD15C,1.300000*%
%ADD16RoundRect,0.155000X0.345000X-0.105000X0.345000X0.105000X-0.345000X0.105000X-0.345000X-0.105000X0*%
%ADD17RoundRect,0.155000X-0.105000X-0.345000X0.105000X-0.345000X0.105000X0.345000X-0.105000X0.345000X0*%
G04 APERTURE END LIST*
D10*
%TO.C,H1*%
X159115000Y98552000D03*
X158115000Y97552000D03*
X157115000Y98552000D03*
X158115000Y99552000D03*
%TD*%
D11*
%TO.C,F1*%
X-4875000Y5600000D03*
X-4225000Y5600000D03*
X-3575000Y5600000D03*
X-2925000Y5600000D03*
X-2275000Y5600000D03*
X-1625000Y5600000D03*
X-975000Y5600000D03*
X-325000Y5600000D03*
X325000Y5600000D03*
X975000Y5600000D03*
X1625000Y5600000D03*
X2275000Y5600000D03*
X2925000Y5600000D03*
X3575000Y5600000D03*
X4225000Y5600000D03*
X4875000Y5600000D03*
D12*
X5600000Y4875000D03*
X5600000Y4225000D03*
X5600000Y3575000D03*
X5600000Y2925000D03*
X5600000Y2275000D03*
X5600000Y1625000D03*
X5600000Y975000D03*
X5600000Y325000D03*
X5600000Y-325000D03*
X5600000Y-975000D03*
X5600000Y-1625000D03*
X5600000Y-2275000D03*
X5600000Y-2925000D03*
X5600000Y-3575000D03*
X5600000Y-4225000D03*
X5600000Y-4875000D03*
D11*
X4875000Y-5600000D03*
X4225000Y-5600000D03*
X3575000Y-5600000D03*
X2925000Y-5600000D03*
X2275000Y-5600000D03*
X1625000Y-5600000D03*
X975000Y-5600000D03*
X325000Y-5600000D03*
X-325000Y-5600000D03*
X-975000Y-5600000D03*
X-1625000Y-5600000D03*
X-2275000Y-5600000D03*
X-2925000Y-5600000D03*
X-3575000Y-5600000D03*
X-4225000Y-5600000D03*
X-4875000Y-5600000D03*
D12*
X-5600000Y-4875000D03*
X-5600000Y-4225000D03*
X-5600000Y-3575000D03*
X-5600000Y-2925000D03*
X-5600000Y-2275000D03*
X-5600000Y-1625000D03*
X-5600000Y-975000D03*
X-5600000Y-325000D03*
X-5600000Y325000D03*
X-5600000Y975000D03*
X-5600000Y1625000D03*
X-5600000Y2275000D03*
X-5600000Y2925000D03*
X-5600000Y3575000D03*
X-5600000Y4225000D03*
X-5600000Y4875000D03*
%TD*%
D13*
%TO.C,C178*%
X4002000Y87757000D03*
X2602000Y87757000D03*
%TD*%
%TO.C,C171*%
X4129000Y77343000D03*
X2729000Y77343000D03*
%TD*%
D11*
%TO.C,U14*%
X-5933619Y107204925D03*
X-5283619Y107204925D03*
X-4633619Y107204925D03*
X-3983619Y107204925D03*
X-3333619Y107204925D03*
X-2683619Y107204925D03*
X-2033619Y107204925D03*
X-1383619Y107204925D03*
X-733619Y107204925D03*
X-83619Y107204925D03*
X566381Y107204925D03*
X1216381Y107204925D03*
X1866381Y107204925D03*
X2516381Y107204925D03*
X3166381Y107204925D03*
X3816381Y107204925D03*
X4466381Y107204925D03*
X5116381Y107204925D03*
X5766381Y107204925D03*
X6416381Y107204925D03*
X7066381Y107204925D03*
X7716381Y107204925D03*
X8366381Y107204925D03*
X9016381Y107204925D03*
X9666381Y107204925D03*
X10316381Y107204925D03*
X10966381Y107204925D03*
X11616381Y107204925D03*
X12266381Y107204925D03*
X12916381Y107204925D03*
X13566381Y107204925D03*
X14216381Y107204925D03*
X14866381Y107204925D03*
X15516381Y107204925D03*
X16166381Y107204925D03*
X16816381Y107204925D03*
X17466381Y107204925D03*
X18116381Y107204925D03*
X18766381Y107204925D03*
X19416381Y107204925D03*
X20066381Y107204925D03*
X20716381Y107204925D03*
X21366381Y107204925D03*
X22016381Y107204925D03*
X22666381Y107204925D03*
X23316381Y107204925D03*
X23966381Y107204925D03*
X24616381Y107204925D03*
X25266381Y107204925D03*
X25916381Y107204925D03*
X26566381Y107204925D03*
X27216381Y107204925D03*
X27866381Y107204925D03*
X28516381Y107204925D03*
X29166381Y107204925D03*
X29816381Y107204925D03*
X30466381Y107204925D03*
X31116381Y107204925D03*
X31766381Y107204925D03*
X32416381Y107204925D03*
X33066381Y107204925D03*
X33716381Y107204925D03*
X34366381Y107204925D03*
X35016381Y107204925D03*
X35666381Y107204925D03*
X36316381Y107204925D03*
X36966381Y107204925D03*
X37616381Y107204925D03*
X38266381Y107204925D03*
X38916381Y107204925D03*
X39566381Y107204925D03*
X40216381Y107204925D03*
X40866381Y107204925D03*
X41516381Y107204925D03*
X42166381Y107204925D03*
X42816381Y107204925D03*
X43466381Y107204925D03*
X44116381Y107204925D03*
X44766381Y107204925D03*
X45416381Y107204925D03*
X46066381Y107204925D03*
D12*
X46791381Y106479925D03*
X46791381Y105829925D03*
X46791381Y105179925D03*
X46791381Y104529925D03*
X46791381Y103879925D03*
X46791381Y103229925D03*
X46791381Y102579925D03*
X46791381Y101929925D03*
X46791381Y101279925D03*
X46791381Y100629925D03*
X46791381Y99979925D03*
X46791381Y99329925D03*
X46791381Y98679925D03*
X46791381Y98029925D03*
X46791381Y97379925D03*
X46791381Y96729925D03*
X46791381Y96079925D03*
X46791381Y95429925D03*
X46791381Y94779925D03*
X46791381Y94129925D03*
X46791381Y93479925D03*
X46791381Y92829925D03*
X46791381Y92179925D03*
X46791381Y91529925D03*
X46791381Y90879925D03*
X46791381Y90229925D03*
X46791381Y89579925D03*
X46791381Y88929925D03*
X46791381Y88279925D03*
X46791381Y87629925D03*
X46791381Y86979925D03*
X46791381Y86329925D03*
X46791381Y85679925D03*
X46791381Y85029925D03*
X46791381Y84379925D03*
X46791381Y83729925D03*
X46791381Y83079925D03*
X46791381Y82429925D03*
X46791381Y81779925D03*
X46791381Y81129925D03*
X46791381Y80479925D03*
X46791381Y79829925D03*
X46791381Y79179925D03*
X46791381Y78529925D03*
X46791381Y77879925D03*
X46791381Y77229925D03*
X46791381Y76579925D03*
X46791381Y75929925D03*
X46791381Y75279925D03*
X46791381Y74629925D03*
X46791381Y73979925D03*
X46791381Y73329925D03*
X46791381Y72679925D03*
X46791381Y72029925D03*
X46791381Y71379925D03*
X46791381Y70729925D03*
X46791381Y70079925D03*
X46791381Y69429925D03*
X46791381Y68779925D03*
X46791381Y68129925D03*
X46791381Y67479925D03*
X46791381Y66829925D03*
X46791381Y66179925D03*
X46791381Y65529925D03*
X46791381Y64879925D03*
X46791381Y64229925D03*
X46791381Y63579925D03*
X46791381Y62929925D03*
X46791381Y62279925D03*
X46791381Y61629925D03*
X46791381Y60979925D03*
X46791381Y60329925D03*
X46791381Y59679925D03*
X46791381Y59029925D03*
X46791381Y58379925D03*
X46791381Y57729925D03*
X46791381Y57079925D03*
X46791381Y56429925D03*
X46791381Y55779925D03*
X46791381Y55129925D03*
X46791381Y54479925D03*
D11*
X46066381Y53754925D03*
X45416381Y53754925D03*
X44766381Y53754925D03*
X44116381Y53754925D03*
X43466381Y53754925D03*
X42816381Y53754925D03*
X42166381Y53754925D03*
X41516381Y53754925D03*
X40866381Y53754925D03*
X40216381Y53754925D03*
X39566381Y53754925D03*
X38916381Y53754925D03*
X38266381Y53754925D03*
X37616381Y53754925D03*
X36966381Y53754925D03*
X36316381Y53754925D03*
X35666381Y53754925D03*
X35016381Y53754925D03*
X34366381Y53754925D03*
X33716381Y53754925D03*
X33066381Y53754925D03*
X32416381Y53754925D03*
X31766381Y53754925D03*
X31116381Y53754925D03*
X30466381Y53754925D03*
X29816381Y53754925D03*
X29166381Y53754925D03*
X28516381Y53754925D03*
X27866381Y53754925D03*
X27216381Y53754925D03*
X26566381Y53754925D03*
X25916381Y53754925D03*
X25266381Y53754925D03*
X24616381Y53754925D03*
X23966381Y53754925D03*
X23316381Y53754925D03*
X22666381Y53754925D03*
X22016381Y53754925D03*
X21366381Y53754925D03*
X20716381Y53754925D03*
X20066381Y53754925D03*
X19416381Y53754925D03*
X18766381Y53754925D03*
X18116381Y53754925D03*
X17466381Y53754925D03*
X16816381Y53754925D03*
X16166381Y53754925D03*
X15516381Y53754925D03*
X14866381Y53754925D03*
X14216381Y53754925D03*
X13566381Y53754925D03*
X12916381Y53754925D03*
X12266381Y53754925D03*
X11616381Y53754925D03*
X10966381Y53754925D03*
X10316381Y53754925D03*
X9666381Y53754925D03*
X9016381Y53754925D03*
X8366381Y53754925D03*
X7716381Y53754925D03*
X7066381Y53754925D03*
X6416381Y53754925D03*
X5766381Y53754925D03*
X5116381Y53754925D03*
X4466381Y53754925D03*
X3816381Y53754925D03*
X3166381Y53754925D03*
X2516381Y53754925D03*
X1866381Y53754925D03*
X1216381Y53754925D03*
X566381Y53754925D03*
X-83619Y53754925D03*
X-733619Y53754925D03*
X-1383619Y53754925D03*
X-2033619Y53754925D03*
X-2683619Y53754925D03*
X-3333619Y53754925D03*
X-3983619Y53754925D03*
X-4633619Y53754925D03*
X-5283619Y53754925D03*
X-5933619Y53754925D03*
D12*
X-6658619Y54479925D03*
X-6658619Y55129925D03*
X-6658619Y55779925D03*
X-6658619Y56429925D03*
X-6658619Y57079925D03*
X-6658619Y57729925D03*
X-6658619Y58379925D03*
X-6658619Y59029925D03*
X-6658619Y59679925D03*
X-6658619Y60329925D03*
X-6658619Y60979925D03*
X-6658619Y61629925D03*
X-6658619Y62279925D03*
X-6658619Y62929925D03*
X-6658619Y63579925D03*
X-6658619Y64229925D03*
X-6658619Y64879925D03*
X-6658619Y65529925D03*
X-6658619Y66179925D03*
X-6658619Y66829925D03*
X-6658619Y67479925D03*
X-6658619Y68129925D03*
X-6658619Y68779925D03*
X-6658619Y69429925D03*
X-6658619Y70079925D03*
X-6658619Y70729925D03*
X-6658619Y71379925D03*
X-6658619Y72029925D03*
X-6658619Y72679925D03*
X-6658619Y73329925D03*
X-6658619Y73979925D03*
X-6658619Y74629925D03*
X-6658619Y75279925D03*
X-6658619Y75929925D03*
X-6658619Y76579925D03*
X-6658619Y77229925D03*
X-6658619Y77879925D03*
X-6658619Y78529925D03*
X-6658619Y79179925D03*
X-6658619Y79829925D03*
X-6658619Y80479925D03*
X-6658619Y81129925D03*
X-6658619Y81779925D03*
X-6658619Y82429925D03*
X-6658619Y83079925D03*
X-6658619Y83729925D03*
X-6658619Y84379925D03*
X-6658619Y85029925D03*
X-6658619Y85679925D03*
X-6658619Y86329925D03*
X-6658619Y86979925D03*
X-6658619Y87629925D03*
X-6658619Y88279925D03*
X-6658619Y88929925D03*
X-6658619Y89579925D03*
X-6658619Y90229925D03*
X-6658619Y90879925D03*
X-6658619Y91529925D03*
X-6658619Y92179925D03*
X-6658619Y92829925D03*
X-6658619Y93479925D03*
X-6658619Y94129925D03*
X-6658619Y94779925D03*
X-6658619Y95429925D03*
X-6658619Y96079925D03*
X-6658619Y96729925D03*
X-6658619Y97379925D03*
X-6658619Y98029925D03*
X-6658619Y98679925D03*
X-6658619Y99329925D03*
X-6658619Y99979925D03*
X-6658619Y100629925D03*
X-6658619Y101279925D03*
X-6658619Y101929925D03*
X-6658619Y102579925D03*
X-6658619Y103229925D03*
X-6658619Y103879925D03*
X-6658619Y104529925D03*
X-6658619Y105179925D03*
X-6658619Y105829925D03*
X-6658619Y106479925D03*
%TD*%
D14*
%TO.C,FAN2*%
X2921000Y96204000D03*
X2921000Y94804000D03*
%TD*%
D15*
%TO.C,M1*%
X11845000Y10962930D03*
%TD*%
%TO.C,M2*%
X159639000Y85344000D03*
%TD*%
%TO.C,M3*%
X161197000Y23278770D03*
%TD*%
D14*
%TO.C,S1*%
X38463056Y19969531D03*
X39863056Y19969531D03*
%TD*%
%TO.C,S2*%
X103109013Y19969531D03*
X104509013Y19969531D03*
%TD*%
%TO.C,S3*%
X60409101Y76149500D03*
X61809101Y76149500D03*
%TD*%
%TO.C,S4*%
X103408987Y76149505D03*
X104808987Y76149505D03*
%TD*%
D13*
%TO.C,C207*%
X4129000Y82550000D03*
X2729000Y82550000D03*
%TD*%
%TO.C,C209*%
X93918000Y12192000D03*
X92518000Y12192000D03*
%TD*%
D11*
%TO.C,OCP*%
X35222434Y27613287D03*
X35872434Y27613287D03*
X36522434Y27613287D03*
X37172434Y27613287D03*
X37822434Y27613287D03*
X38472434Y27613287D03*
X39122434Y27613287D03*
X39772434Y27613287D03*
X40422434Y27613287D03*
X41072434Y27613287D03*
X41722434Y27613287D03*
X42372434Y27613287D03*
X43022434Y27613287D03*
X43672434Y27613287D03*
X44322434Y27613287D03*
X44972434Y27613287D03*
X45622434Y27613287D03*
X46272434Y27613287D03*
X46922434Y27613287D03*
X47572434Y27613287D03*
X48222434Y27613287D03*
X48872434Y27613287D03*
X49522434Y27613287D03*
X50172434Y27613287D03*
X50822434Y27613287D03*
X51472434Y27613287D03*
X52122434Y27613287D03*
X52772434Y27613287D03*
X53422434Y27613287D03*
X54072434Y27613287D03*
D12*
X54797434Y26888287D03*
X54797434Y26238287D03*
X54797434Y25588287D03*
X54797434Y24938287D03*
X54797434Y24288287D03*
X54797434Y23638287D03*
X54797434Y22988287D03*
X54797434Y22338287D03*
X54797434Y21688287D03*
X54797434Y21038287D03*
X54797434Y20388287D03*
X54797434Y19738287D03*
X54797434Y19088287D03*
X54797434Y18438287D03*
X54797434Y17788287D03*
X54797434Y17138287D03*
X54797434Y16488287D03*
X54797434Y15838287D03*
X54797434Y15188287D03*
X54797434Y14538287D03*
X54797434Y13888287D03*
X54797434Y13238287D03*
X54797434Y12588287D03*
X54797434Y11938287D03*
X54797434Y11288287D03*
X54797434Y10638287D03*
X54797434Y9988287D03*
X54797434Y9338287D03*
X54797434Y8688287D03*
X54797434Y8038287D03*
D11*
X54072434Y7313287D03*
X53422434Y7313287D03*
X52772434Y7313287D03*
X52122434Y7313287D03*
X51472434Y7313287D03*
X50822434Y7313287D03*
X50172434Y7313287D03*
X49522434Y7313287D03*
X48872434Y7313287D03*
X48222434Y7313287D03*
X47572434Y7313287D03*
X46922434Y7313287D03*
X46272434Y7313287D03*
X45622434Y7313287D03*
X44972434Y7313287D03*
X44322434Y7313287D03*
X43672434Y7313287D03*
X43022434Y7313287D03*
X42372434Y7313287D03*
X41722434Y7313287D03*
X41072434Y7313287D03*
X40422434Y7313287D03*
X39772434Y7313287D03*
X39122434Y7313287D03*
X38472434Y7313287D03*
X37822434Y7313287D03*
X37172434Y7313287D03*
X36522434Y7313287D03*
X35872434Y7313287D03*
X35222434Y7313287D03*
D12*
X34497434Y8038287D03*
X34497434Y8688287D03*
X34497434Y9338287D03*
X34497434Y9988287D03*
X34497434Y10638287D03*
X34497434Y11288287D03*
X34497434Y11938287D03*
X34497434Y12588287D03*
X34497434Y13238287D03*
X34497434Y13888287D03*
X34497434Y14538287D03*
X34497434Y15188287D03*
X34497434Y15838287D03*
X34497434Y16488287D03*
X34497434Y17138287D03*
X34497434Y17788287D03*
X34497434Y18438287D03*
X34497434Y19088287D03*
X34497434Y19738287D03*
X34497434Y20388287D03*
X34497434Y21038287D03*
X34497434Y21688287D03*
X34497434Y22338287D03*
X34497434Y22988287D03*
X34497434Y23638287D03*
X34497434Y24288287D03*
X34497434Y24938287D03*
X34497434Y25588287D03*
X34497434Y26238287D03*
X34497434Y26888287D03*
%TD*%
D16*
%TO.C,M.2-1*%
X134620876Y8873277D03*
X133970876Y8873277D03*
X133320876Y8873277D03*
X132670876Y8873277D03*
X132020876Y8873277D03*
X131370876Y8873277D03*
X130720876Y8873277D03*
X130070876Y8873277D03*
X129420876Y8873277D03*
X128770876Y8873277D03*
X128120876Y8873277D03*
X127470876Y8873277D03*
X126820876Y8873277D03*
X126170876Y8873277D03*
X125520876Y8873277D03*
X124870876Y8873277D03*
X124220876Y8873277D03*
X123570876Y8873277D03*
D17*
X122845876Y9598277D03*
X122845876Y10248277D03*
X122845876Y10898277D03*
X122845876Y11548277D03*
X122845876Y12198277D03*
X122845876Y12848277D03*
X122845876Y13498277D03*
X122845876Y14148277D03*
X122845876Y14798277D03*
X122845876Y15448277D03*
X122845876Y16098277D03*
X122845876Y16748277D03*
X122845876Y17398277D03*
X122845876Y18048277D03*
X122845876Y18698277D03*
X122845876Y19348277D03*
X122845876Y19998277D03*
X122845876Y20648277D03*
D16*
X123570876Y21373277D03*
X124220876Y21373277D03*
X124870876Y21373277D03*
X125520876Y21373277D03*
X126170876Y21373277D03*
X126820876Y21373277D03*
X127470876Y21373277D03*
X128120876Y21373277D03*
X128770876Y21373277D03*
X129420876Y21373277D03*
X130070876Y21373277D03*
X130720876Y21373277D03*
X131370876Y21373277D03*
X132020876Y21373277D03*
X132670876Y21373277D03*
X133320876Y21373277D03*
X133970876Y21373277D03*
X134620876Y21373277D03*
D17*
X135345876Y20648277D03*
X135345876Y19998277D03*
X135345876Y19348277D03*
X135345876Y18698277D03*
X135345876Y18048277D03*
X135345876Y17398277D03*
X135345876Y16748277D03*
X135345876Y16098277D03*
X135345876Y15448277D03*
X135345876Y14798277D03*
X135345876Y14148277D03*
X135345876Y13498277D03*
X135345876Y12848277D03*
X135345876Y12198277D03*
X135345876Y11548277D03*
%TD*%
D16*
%TO.C,M.2-1*%
X158813868Y8794308D03*
X158163868Y8794308D03*
X157513868Y8794308D03*
X156863868Y8794308D03*
X156213868Y8794308D03*
X155563868Y8794308D03*
X154913868Y8794308D03*
X154263868Y8794308D03*
X153613868Y8794308D03*
X152963868Y8794308D03*
X152313868Y8794308D03*
X151663868Y8794308D03*
X151013868Y8794308D03*
X150363868Y8794308D03*
X149713868Y8794308D03*
X149063868Y8794308D03*
X148413868Y8794308D03*
X147763868Y8794308D03*
D17*
X147038868Y9519308D03*
X147038868Y10169308D03*
X147038868Y10819308D03*
X147038868Y11469308D03*
X147038868Y12119308D03*
X147038868Y12769308D03*
X147038868Y13419308D03*
X147038868Y14069308D03*
X147038868Y14719308D03*
X147038868Y15369308D03*
X147038868Y16019308D03*
X147038868Y16669308D03*
X147038868Y17319308D03*
X147038868Y17969308D03*
X147038868Y18619308D03*
X147038868Y19269308D03*
X147038868Y19919308D03*
X147038868Y20569308D03*
D16*
X147763868Y21294308D03*
X148413868Y21294308D03*
X149063868Y21294308D03*
X149713868Y21294308D03*
X150363868Y21294308D03*
X151013868Y21294308D03*
X151663868Y21294308D03*
X152313868Y21294308D03*
X152963868Y21294308D03*
X153613868Y21294308D03*
X154263868Y21294308D03*
X154913868Y21294308D03*
X155563868Y21294308D03*
X156213868Y21294308D03*
X156863868Y21294308D03*
X157513868Y21294308D03*
X158163868Y21294308D03*
X158813868Y21294308D03*
D17*
X159538868Y20569308D03*
X159538868Y19919308D03*
X159538868Y19269308D03*
X159538868Y18619308D03*
X159538868Y17969308D03*
X159538868Y17319308D03*
X159538868Y16669308D03*
X159538868Y16019308D03*
X159538868Y15369308D03*
X159538868Y14719308D03*
X159538868Y14069308D03*
X159538868Y13419308D03*
X159538868Y12769308D03*
X159538868Y12119308D03*
X159538868Y11469308D03*
%TD*%
D16*
%TO.C,SATA1_5-SATA2_1*%
X76257000Y90329000D03*
X75457000Y90329000D03*
X74657000Y90329000D03*
X73857000Y90329000D03*
D17*
X73057000Y91129000D03*
X73057000Y91929000D03*
X73057000Y92729000D03*
X73057000Y93529000D03*
D16*
X73857000Y94329000D03*
X74657000Y94329000D03*
X75457000Y94329000D03*
X76257000Y94329000D03*
D17*
X77057000Y93529000D03*
X77057000Y92729000D03*
X77057000Y91929000D03*
X77057000Y91129000D03*
%TD*%
D16*
%TO.C,SATA1_12*%
X43999000Y90329000D03*
X43199000Y90329000D03*
X42399000Y90329000D03*
X41599000Y90329000D03*
D17*
X40799000Y91129000D03*
X40799000Y91929000D03*
X40799000Y92729000D03*
X40799000Y93529000D03*
D16*
X41599000Y94329000D03*
X42399000Y94329000D03*
X43199000Y94329000D03*
X43999000Y94329000D03*
D17*
X44799000Y93529000D03*
X44799000Y92729000D03*
X44799000Y91929000D03*
X44799000Y91129000D03*
%TD*%
D16*
%TO.C,SATA1_34*%
X60128000Y90329000D03*
X59328000Y90329000D03*
X58528000Y90329000D03*
X57728000Y90329000D03*
D17*
X56928000Y91129000D03*
X56928000Y91929000D03*
X56928000Y92729000D03*
X56928000Y93529000D03*
D16*
X57728000Y94329000D03*
X58528000Y94329000D03*
X59328000Y94329000D03*
X60128000Y94329000D03*
D17*
X60928000Y93529000D03*
X60928000Y92729000D03*
X60928000Y91929000D03*
X60928000Y91129000D03*
%TD*%
D16*
%TO.C,SATA2_23*%
X92386000Y90329000D03*
X91586000Y90329000D03*
X90786000Y90329000D03*
X89986000Y90329000D03*
D17*
X89186000Y91129000D03*
X89186000Y91929000D03*
X89186000Y92729000D03*
X89186000Y93529000D03*
D16*
X89986000Y94329000D03*
X90786000Y94329000D03*
X91586000Y94329000D03*
X92386000Y94329000D03*
D17*
X93186000Y93529000D03*
X93186000Y92729000D03*
X93186000Y91929000D03*
X93186000Y91129000D03*
%TD*%
D16*
%TO.C,SATA2_45*%
X108515000Y90329000D03*
X107715000Y90329000D03*
X106915000Y90329000D03*
X106115000Y90329000D03*
D17*
X105315000Y91129000D03*
X105315000Y91929000D03*
X105315000Y92729000D03*
X105315000Y93529000D03*
D16*
X106115000Y94329000D03*
X106915000Y94329000D03*
X107715000Y94329000D03*
X108515000Y94329000D03*
D17*
X109315000Y93529000D03*
X109315000Y92729000D03*
X109315000Y91929000D03*
X109315000Y91129000D03*
%TD*%
D10*
%TO.C,S5*%
X130195322Y94203606D03*
X129435222Y93157406D03*
X128205422Y93557006D03*
X128205422Y94850206D03*
X129435222Y95249806D03*
%TD*%
%TO.C,S6*%
X130195322Y74203606D03*
X129435222Y73157406D03*
X128205422Y73557006D03*
X128205422Y74850206D03*
X129435222Y75249806D03*
%TD*%
%TO.C,S7*%
X130195322Y56203606D03*
X129435222Y55157406D03*
X128205422Y55557006D03*
X128205422Y56850206D03*
X129435222Y57249806D03*
%TD*%
%TO.C,S8*%
X154388723Y94144457D03*
X153628623Y93098257D03*
X152398823Y93497857D03*
X152398823Y94791057D03*
X153628623Y95190657D03*
%TD*%
%TO.C,S9*%
X154388721Y74144457D03*
X153628621Y73098257D03*
X152398821Y73497857D03*
X152398821Y74791057D03*
X153628621Y75190657D03*
%TD*%
%TO.C,S10*%
X154388721Y56144457D03*
X153628621Y55098257D03*
X152398821Y55497857D03*
X152398821Y56791057D03*
X153628621Y57190657D03*
%TD*%
M02*
