%TF.GenerationSoftware,KiCad,Pcbnew,10.99.0-unknown*%
%TF.CreationDate,2026-08-12T15:26:35+08:00*%
%TF.ProjectId,All_in_one_________,416c6c5f-696e-45f6-9f6e-650da1680908,rev?*%
%TF.SameCoordinates,Original*%
%TF.FileFunction,AssemblyDrawing,Bot*%
%FSLAX46Y46*%
G04 Gerber Fmt 4.6, Leading zero omitted, Abs format (unit mm)*
G04 Created by KiCad (PCBNEW 10.99.0-unknown) date 2026-08-12 15:26:35*
%MOMM*%
%LPD*%
G01*
G04 APERTURE LIST*
%ADD10C,0.100000*%
G04 APERTURE END LIST*
%TO.C,C162*%
D10*
X18581000Y22201000D02*
X20281000Y22201000D01*
X20281000Y19201000D01*
X18581000Y19201000D01*
X18581000Y22201000D01*
%TO.C,C163*%
X14771000Y28297000D02*
X16471000Y28297000D01*
X16471000Y25297000D01*
X14771000Y25297000D01*
X14771000Y28297000D01*
%TO.C,C179*%
X13272400Y18264000D02*
X14972400Y18264000D01*
X14972400Y15264000D01*
X13272400Y15264000D01*
X13272400Y18264000D01*
%TO.C,C165*%
X12851000Y23456000D02*
X15851000Y23456000D01*
X15851000Y21756000D01*
X12851000Y21756000D01*
X12851000Y23456000D01*
%TO.C,C161*%
X18581000Y29694000D02*
X20281000Y29694000D01*
X20281000Y26694000D01*
X18581000Y26694000D01*
X18581000Y29694000D01*
%TO.C,U10*%
X24692381Y20149174D02*
X28782381Y20149174D01*
X28782381Y16412774D01*
X24692381Y16412774D01*
X24692381Y20149174D01*
%TO.C,C164*%
X23534000Y19788000D02*
X25234000Y19788000D01*
X25234000Y16788000D01*
X23534000Y16788000D01*
X23534000Y19788000D01*
%TO.C,C172*%
X28995000Y19280000D02*
X30695000Y19280000D01*
X30695000Y16280000D01*
X28995000Y16280000D01*
X28995000Y19280000D01*
%TO.C,C173*%
X31408000Y19280000D02*
X33108000Y19280000D01*
X33108000Y16280000D01*
X31408000Y16280000D01*
X31408000Y19280000D01*
%TO.C,U11*%
X105957085Y15813811D02*
X110047085Y15813811D01*
X110047085Y12077411D01*
X105957085Y12077411D01*
X105957085Y15813811D01*
%TO.C,C181*%
X105449000Y12549000D02*
X107149000Y12549000D01*
X107149000Y9549000D01*
X105449000Y9549000D01*
X105449000Y12549000D01*
%TO.C,C182*%
X111216085Y14810611D02*
X112916085Y14810611D01*
X112916085Y11810611D01*
X111216085Y11810611D01*
X111216085Y14810611D01*
%TO.C,C183*%
X113375085Y14810611D02*
X115075085Y14810611D01*
X115075085Y11810611D01*
X113375085Y11810611D01*
X113375085Y14810611D01*
%TO.C,R131*%
X15660000Y18391000D02*
X17360000Y18391000D01*
X17360000Y15391000D01*
X15660000Y15391000D01*
X15660000Y18391000D01*
%TO.C,C185*%
X94908000Y18518000D02*
X96608000Y18518000D01*
X96608000Y15518000D01*
X94908000Y15518000D01*
X94908000Y18518000D01*
%TO.C,C184*%
X93003000Y18518000D02*
X94703000Y18518000D01*
X94703000Y15518000D01*
X93003000Y15518000D01*
X93003000Y18518000D01*
%TO.C,C175*%
X31789000Y26138000D02*
X33489000Y26138000D01*
X33489000Y23138000D01*
X31789000Y23138000D01*
X31789000Y26138000D01*
%TO.C,C174*%
X29757000Y26138000D02*
X31457000Y26138000D01*
X31457000Y23138000D01*
X29757000Y23138000D01*
X29757000Y26138000D01*
%TO.C,U2*%
X135475000Y86507000D02*
X145195000Y86507000D01*
X145195000Y76307000D01*
X135475000Y76307000D01*
X135475000Y86507000D01*
%TO.C,U1*%
X122356000Y84019000D02*
X127326000Y84019000D01*
X127326000Y79049000D01*
X122356000Y79049000D01*
X122356000Y84019000D01*
%TO.C,R40*%
X126579500Y81939500D02*
X129579500Y81939500D01*
X129579500Y80239500D01*
X126579500Y80239500D01*
X126579500Y81939500D01*
%TO.C,R41*%
X126579500Y83082500D02*
X129579500Y83082500D01*
X129579500Y81382500D01*
X126579500Y81382500D01*
X126579500Y83082500D01*
%TO.C,R57*%
X142025000Y89511000D02*
X143725000Y89511000D01*
X143725000Y86511000D01*
X142025000Y86511000D01*
X142025000Y89511000D01*
%TO.C,U5*%
X43146792Y85066774D02*
X58546792Y85066774D01*
X58546792Y70146774D01*
X43146792Y70146774D01*
X43146792Y85066774D01*
%TO.C,C8*%
X75807848Y11787000D02*
X77507848Y11787000D01*
X77507848Y8787000D01*
X75807848Y8787000D01*
X75807848Y11787000D01*
%TO.C,C7*%
X74791848Y11787000D02*
X76491848Y11787000D01*
X76491848Y8787000D01*
X74791848Y8787000D01*
X74791848Y11787000D01*
%TO.C,C6*%
X71807856Y11787000D02*
X73507856Y11787000D01*
X73507856Y8787000D01*
X71807856Y8787000D01*
X71807856Y11787000D01*
%TO.C,C5*%
X70791856Y11787000D02*
X72491856Y11787000D01*
X72491856Y8787000D01*
X70791856Y8787000D01*
X70791856Y11787000D01*
%TO.C,C4*%
X67807864Y11787000D02*
X69507864Y11787000D01*
X69507864Y8787000D01*
X67807864Y8787000D01*
X67807864Y11787000D01*
%TO.C,C3*%
X66791864Y11787000D02*
X68491864Y11787000D01*
X68491864Y8787000D01*
X66791864Y8787000D01*
X66791864Y11787000D01*
%TO.C,C2*%
X62807874Y11787000D02*
X64507874Y11787000D01*
X64507874Y8787000D01*
X62807874Y8787000D01*
X62807874Y11787000D01*
%TO.C,C1*%
X61791874Y11787000D02*
X63491874Y11787000D01*
X63491874Y8787000D01*
X61791874Y8787000D01*
X61791874Y11787000D01*
%TO.C,C20*%
X35330000Y24599000D02*
X38330000Y24599000D01*
X38330000Y22899000D01*
X35330000Y22899000D01*
X35330000Y24599000D01*
%TO.C,R97*%
X113548030Y46316000D02*
X116548030Y46316000D01*
X116548030Y44616000D01*
X113548030Y44616000D01*
X113548030Y46316000D01*
%TO.C,R99*%
X113548030Y45173000D02*
X116548030Y45173000D01*
X116548030Y43473000D01*
X113548030Y43473000D01*
X113548030Y45173000D01*
%TO.C,R102*%
X113548030Y43776000D02*
X116548030Y43776000D01*
X116548030Y42076000D01*
X113548030Y42076000D01*
X113548030Y43776000D01*
%TO.C,R104*%
X113548030Y42633000D02*
X116548030Y42633000D01*
X116548030Y40933000D01*
X113548030Y40933000D01*
X113548030Y42633000D01*
%TO.C,R78*%
X132814008Y39657963D02*
X134514008Y39657963D01*
X134514008Y36657963D01*
X132814008Y36657963D01*
X132814008Y39657963D01*
%TO.C,R80*%
X131671008Y39657963D02*
X133371008Y39657963D01*
X133371008Y36657963D01*
X131671008Y36657963D01*
X131671008Y39657963D01*
%TO.C,R82*%
X129766008Y39657963D02*
X131466008Y39657963D01*
X131466008Y36657963D01*
X129766008Y36657963D01*
X129766008Y39657963D01*
%TO.C,R84*%
X128623008Y39657963D02*
X130323008Y39657963D01*
X130323008Y36657963D01*
X128623008Y36657963D01*
X128623008Y39657963D01*
%TO.C,R88*%
X35330000Y25742000D02*
X38330000Y25742000D01*
X38330000Y24042000D01*
X35330000Y24042000D01*
X35330000Y25742000D01*
%TO.C,R89*%
X35336185Y26842392D02*
X38336185Y26842392D01*
X38336185Y25142392D01*
X35336185Y25142392D01*
X35336185Y26842392D01*
%TO.C,R85*%
X40410000Y23456000D02*
X43410000Y23456000D01*
X43410000Y21756000D01*
X40410000Y21756000D01*
X40410000Y23456000D01*
%TO.C,R100*%
X117514000Y24106000D02*
X119214000Y24106000D01*
X119214000Y21106000D01*
X117514000Y21106000D01*
X117514000Y24106000D01*
%TO.C,C52*%
X117880000Y19646000D02*
X120880000Y19646000D01*
X120880000Y17946000D01*
X117880000Y17946000D01*
X117880000Y19646000D01*
%TO.C,C54*%
X137057000Y19900000D02*
X140057000Y19900000D01*
X140057000Y18200000D01*
X137057000Y18200000D01*
X137057000Y19900000D01*
%TO.C,C55*%
X142137000Y20027000D02*
X145137000Y20027000D01*
X145137000Y18327000D01*
X142137000Y18327000D01*
X142137000Y20027000D01*
%TO.C,C57*%
X161187000Y22567000D02*
X164187000Y22567000D01*
X164187000Y20867000D01*
X161187000Y20867000D01*
X161187000Y22567000D01*
%TO.C,C168*%
X5528180Y31754180D02*
X8528180Y31754180D01*
X8528180Y30054180D01*
X5528180Y30054180D01*
X5528180Y31754180D01*
%TO.C,C169*%
X5543400Y29818990D02*
X8543400Y29818990D01*
X8543400Y28118990D01*
X5543400Y28118990D01*
X5543400Y29818990D01*
%TO.C,C166*%
X5520616Y27913990D02*
X8520616Y27913990D01*
X8520616Y26213990D01*
X5520616Y26213990D01*
X5520616Y27913990D01*
%TO.C,C167*%
X5528210Y26008990D02*
X8528210Y26008990D01*
X8528210Y24308990D01*
X5528210Y24308990D01*
X5528210Y26008990D01*
%TO.C,C12*%
X138977000Y91670000D02*
X140677000Y91670000D01*
X140677000Y88670000D01*
X138977000Y88670000D01*
X138977000Y91670000D01*
%TO.C,D1*%
X140882000Y92940000D02*
X142582000Y92940000D01*
X142582000Y89940000D01*
X140882000Y89940000D01*
X140882000Y92940000D01*
%TO.C,D2*%
X142533000Y92813000D02*
X144233000Y92813000D01*
X144233000Y89813000D01*
X142533000Y89813000D01*
X142533000Y92813000D01*
%TO.C,LED2*%
X157341001Y32920888D02*
X160341001Y32920888D01*
X160341001Y31220888D01*
X157341001Y31220888D01*
X157341001Y32920888D01*
%TO.C,R110*%
X54522000Y85447000D02*
X56222000Y85447000D01*
X56222000Y82447000D01*
X54522000Y82447000D01*
X54522000Y85447000D01*
%TO.C,R111*%
X45378000Y85193000D02*
X47078000Y85193000D01*
X47078000Y82193000D01*
X45378000Y82193000D01*
X45378000Y85193000D01*
%TO.C,R96*%
X115594000Y46316000D02*
X118594000Y46316000D01*
X118594000Y44616000D01*
X115594000Y44616000D01*
X115594000Y46316000D01*
%TO.C,R98*%
X115594000Y45173000D02*
X118594000Y45173000D01*
X118594000Y43473000D01*
X115594000Y43473000D01*
X115594000Y45173000D01*
%TO.C,R101*%
X115594000Y43776000D02*
X118594000Y43776000D01*
X118594000Y42076000D01*
X115594000Y42076000D01*
X115594000Y43776000D01*
%TO.C,R103*%
X115594000Y42633000D02*
X118594000Y42633000D01*
X118594000Y40933000D01*
X115594000Y40933000D01*
X115594000Y42633000D01*
%TO.C,R77*%
X132814008Y41689963D02*
X134514008Y41689963D01*
X134514008Y38689963D01*
X132814008Y38689963D01*
X132814008Y41689963D01*
%TO.C,R79*%
X131671008Y41689963D02*
X133371008Y41689963D01*
X133371008Y38689963D01*
X131671008Y38689963D01*
X131671008Y41689963D01*
%TO.C,R81*%
X129766008Y41703933D02*
X131466008Y41703933D01*
X131466008Y38703933D01*
X129766008Y38703933D01*
X129766008Y41703933D01*
%TO.C,R83*%
X128623008Y41703933D02*
X130323008Y41703933D01*
X130323008Y38703933D01*
X128623008Y38703933D01*
X128623008Y41703933D01*
%TO.C,C37*%
X125238013Y15933042D02*
X126938013Y15933042D01*
X126938013Y12933042D01*
X125238013Y12933042D01*
X125238013Y15933042D01*
%TO.C,C36*%
X126254013Y15933042D02*
X127954013Y15933042D01*
X127954013Y12933042D01*
X126254013Y12933042D01*
X126254013Y15933042D01*
%TO.C,LED4*%
X157341001Y65559888D02*
X160341001Y65559888D01*
X160341001Y63859888D01*
X157341001Y63859888D01*
X157341001Y65559888D01*
%TO.C,LED6*%
X157341001Y44350888D02*
X160341001Y44350888D01*
X160341001Y42650888D01*
X157341001Y42650888D01*
X157341001Y44350888D01*
%TO.C,LED8*%
X157468001Y51081888D02*
X160468001Y51081888D01*
X160468001Y49381888D01*
X157468001Y49381888D01*
X157468001Y51081888D01*
%TO.C,LED10*%
X157468001Y81180888D02*
X160468001Y81180888D01*
X160468001Y79480888D01*
X157468001Y79480888D01*
X157468001Y81180888D01*
%TO.C,LED12*%
X157468001Y88927888D02*
X160468001Y88927888D01*
X160468001Y87227888D01*
X157468001Y87227888D01*
X157468001Y88927888D01*
%TO.C,R118*%
X54268000Y69318000D02*
X55968000Y69318000D01*
X55968000Y66318000D01*
X54268000Y66318000D01*
X54268000Y69318000D01*
%TO.C,R119*%
X45505000Y69826000D02*
X47205000Y69826000D01*
X47205000Y66826000D01*
X45505000Y66826000D01*
X45505000Y69826000D01*
%TO.C,U7*%
X43608000Y69563000D02*
X59008000Y69563000D01*
X59008000Y54643000D01*
X43608000Y54643000D01*
X43608000Y69563000D01*
%TO.C,C31*%
X128238007Y15983004D02*
X129938007Y15983004D01*
X129938007Y12983004D01*
X128238007Y12983004D01*
X128238007Y15983004D01*
%TO.C,C30*%
X129254007Y15983004D02*
X130954007Y15983004D01*
X130954007Y12983004D01*
X129254007Y12983004D01*
X129254007Y15983004D01*
%TO.C,C26*%
X132254001Y15983004D02*
X133954001Y15983004D01*
X133954001Y12983004D01*
X132254001Y12983004D01*
X132254001Y15983004D01*
%TO.C,C27*%
X131238001Y15983004D02*
X132938001Y15983004D01*
X132938001Y12983004D01*
X131238001Y12983004D01*
X131238001Y15983004D01*
%TO.C,C22*%
X135253995Y15983004D02*
X136953995Y15983004D01*
X136953995Y12983004D01*
X135253995Y12983004D01*
X135253995Y15983004D01*
%TO.C,C23*%
X134237995Y15983004D02*
X135937995Y15983004D01*
X135937995Y12983004D01*
X134237995Y12983004D01*
X134237995Y15983004D01*
%TO.C,C35*%
X69666953Y24623611D02*
X71366953Y24623611D01*
X71366953Y21623611D01*
X69666953Y21623611D01*
X69666953Y24623611D01*
%TO.C,C34*%
X68650953Y24623611D02*
X70350953Y24623611D01*
X70350953Y21623611D01*
X68650953Y21623611D01*
X68650953Y24623611D01*
%TO.C,C43*%
X76067245Y24623611D02*
X77767245Y24623611D01*
X77767245Y21623611D01*
X76067245Y21623611D01*
X76067245Y24623611D01*
%TO.C,C42*%
X75051245Y24623611D02*
X76751245Y24623611D01*
X76751245Y21623611D01*
X75051245Y21623611D01*
X75051245Y24623611D01*
%TO.C,C45*%
X79267137Y24623611D02*
X80967137Y24623611D01*
X80967137Y21623611D01*
X79267137Y21623611D01*
X79267137Y24623611D01*
%TO.C,C44*%
X78251137Y24623611D02*
X79951137Y24623611D01*
X79951137Y21623611D01*
X78251137Y21623611D01*
X78251137Y24623611D01*
%TO.C,C41*%
X72867099Y24623611D02*
X74567099Y24623611D01*
X74567099Y21623611D01*
X72867099Y21623611D01*
X72867099Y24623611D01*
%TO.C,C40*%
X71851099Y24623611D02*
X73551099Y24623611D01*
X73551099Y21623611D01*
X71851099Y21623611D01*
X71851099Y24623611D01*
%TO.C,C25*%
X158405993Y15846817D02*
X160105993Y15846817D01*
X160105993Y12846817D01*
X158405993Y12846817D01*
X158405993Y15846817D01*
%TO.C,C24*%
X159421993Y15846817D02*
X161121993Y15846817D01*
X161121993Y12846817D01*
X159421993Y12846817D01*
X159421993Y15846817D01*
%TO.C,C29*%
X155405999Y15846817D02*
X157105999Y15846817D01*
X157105999Y12846817D01*
X155405999Y12846817D01*
X155405999Y15846817D01*
%TO.C,C28*%
X156421999Y15846817D02*
X158121999Y15846817D01*
X158121999Y12846817D01*
X156421999Y12846817D01*
X156421999Y15846817D01*
%TO.C,C33*%
X152406005Y15846817D02*
X154106005Y15846817D01*
X154106005Y12846817D01*
X152406005Y12846817D01*
X152406005Y15846817D01*
%TO.C,C32*%
X153422005Y15846817D02*
X155122005Y15846817D01*
X155122005Y12846817D01*
X153422005Y12846817D01*
X153422005Y15846817D01*
%TO.C,C39*%
X149406011Y15846817D02*
X151106011Y15846817D01*
X151106011Y12846817D01*
X149406011Y12846817D01*
X149406011Y15846817D01*
%TO.C,C38*%
X150422011Y15846817D02*
X152122011Y15846817D01*
X152122011Y12846817D01*
X150422011Y12846817D01*
X150422011Y15846817D01*
%TO.C,C93*%
X40537000Y77431000D02*
X43537000Y77431000D01*
X43537000Y75731000D01*
X40537000Y75731000D01*
X40537000Y77431000D01*
%TO.C,C92*%
X40537000Y78447000D02*
X43537000Y78447000D01*
X43537000Y76747000D01*
X40537000Y76747000D01*
X40537000Y78447000D01*
%TO.C,C81*%
X40537000Y82003000D02*
X43537000Y82003000D01*
X43537000Y80303000D01*
X40537000Y80303000D01*
X40537000Y82003000D01*
%TO.C,C71*%
X40537000Y83019000D02*
X43537000Y83019000D01*
X43537000Y81319000D01*
X40537000Y81319000D01*
X40537000Y83019000D01*
%TO.C,C96*%
X40537000Y76161000D02*
X43537000Y76161000D01*
X43537000Y74461000D01*
X40537000Y74461000D01*
X40537000Y76161000D01*
%TO.C,C97*%
X40537000Y75145000D02*
X43537000Y75145000D01*
X43537000Y73445000D01*
X40537000Y73445000D01*
X40537000Y75145000D01*
%TO.C,C87*%
X40537000Y79717000D02*
X43537000Y79717000D01*
X43537000Y78017000D01*
X40537000Y78017000D01*
X40537000Y79717000D01*
%TO.C,C83*%
X40537000Y80733000D02*
X43537000Y80733000D01*
X43537000Y79033000D01*
X40537000Y79033000D01*
X40537000Y80733000D01*
%TO.C,C158*%
X41155454Y61932570D02*
X44155454Y61932570D01*
X44155454Y60232570D01*
X41155454Y60232570D01*
X41155454Y61932570D01*
%TO.C,C157*%
X41172000Y62953000D02*
X44172000Y62953000D01*
X44172000Y61253000D01*
X41172000Y61253000D01*
X41172000Y62953000D01*
%TO.C,C145*%
X41172000Y66509000D02*
X44172000Y66509000D01*
X44172000Y64809000D01*
X41172000Y64809000D01*
X41172000Y66509000D01*
%TO.C,C143*%
X41172000Y67525000D02*
X44172000Y67525000D01*
X44172000Y65825000D01*
X41172000Y65825000D01*
X41172000Y67525000D01*
%TO.C,C159*%
X41172000Y60667000D02*
X44172000Y60667000D01*
X44172000Y58967000D01*
X41172000Y58967000D01*
X41172000Y60667000D01*
%TO.C,C160*%
X41172000Y59651000D02*
X44172000Y59651000D01*
X44172000Y57951000D01*
X41172000Y57951000D01*
X41172000Y59651000D01*
%TO.C,C59*%
X48617516Y72823518D02*
X50317516Y72823518D01*
X50317516Y69823518D01*
X48617516Y69823518D01*
X48617516Y72823518D01*
%TO.C,C60*%
X53595916Y72836916D02*
X55295916Y72836916D01*
X55295916Y69836916D01*
X53595916Y69836916D01*
X53595916Y72836916D01*
%TO.C,C61*%
X55650000Y81049801D02*
X58650000Y81049801D01*
X58650000Y79349801D01*
X55650000Y79349801D01*
X55650000Y81049801D01*
%TO.C,C94*%
X58154200Y81510000D02*
X59854200Y81510000D01*
X59854200Y78510000D01*
X58154200Y78510000D01*
X58154200Y81510000D01*
%TO.C,C95*%
X58166341Y83879342D02*
X59866341Y83879342D01*
X59866341Y80879342D01*
X58166341Y80879342D01*
X58166341Y83879342D01*
%TO.C,U6*%
X43574000Y73534000D02*
X48374000Y73534000D01*
X48374000Y70014000D01*
X43574000Y70014000D01*
X43574000Y73534000D01*
%TO.C,X1*%
X59743000Y82878000D02*
X63193000Y82878000D01*
X63193000Y79428000D01*
X59743000Y79428000D01*
X59743000Y82878000D01*
%TO.C,C74*%
X47604112Y85387112D02*
X49304112Y85387112D01*
X49304112Y82387112D01*
X47604112Y82387112D01*
X47604112Y85387112D01*
%TO.C,C72*%
X48800452Y85387112D02*
X50500452Y85387112D01*
X50500452Y82387112D01*
X48800452Y82387112D01*
X48800452Y85387112D01*
%TO.C,C73*%
X49996792Y85387112D02*
X51696792Y85387112D01*
X51696792Y82387112D01*
X49996792Y82387112D01*
X49996792Y85387112D01*
%TO.C,C75*%
X51193132Y85387112D02*
X52893132Y85387112D01*
X52893132Y82387112D01*
X51193132Y82387112D01*
X51193132Y85387112D01*
%TO.C,C63*%
X52389472Y85387112D02*
X54089472Y85387112D01*
X54089472Y82387112D01*
X52389472Y82387112D01*
X52389472Y85387112D01*
%TO.C,C62*%
X55650000Y82257000D02*
X58650000Y82257000D01*
X58650000Y80557000D01*
X55650000Y80557000D01*
X55650000Y82257000D01*
%TO.C,C76*%
X55627130Y80051894D02*
X58627130Y80051894D01*
X58627130Y78351894D01*
X55627130Y78351894D01*
X55627130Y80051894D01*
%TO.C,C64*%
X55627130Y78855554D02*
X58627130Y78855554D01*
X58627130Y77155554D01*
X55627130Y77155554D01*
X55627130Y78855554D01*
%TO.C,C77*%
X55627130Y77659214D02*
X58627130Y77659214D01*
X58627130Y75959214D01*
X55627130Y75959214D01*
X55627130Y77659214D01*
%TO.C,C65*%
X55627130Y76462874D02*
X58627130Y76462874D01*
X58627130Y74762874D01*
X55627130Y74762874D01*
X55627130Y76462874D01*
%TO.C,C66*%
X55627130Y75266534D02*
X58627130Y75266534D01*
X58627130Y73566534D01*
X55627130Y73566534D01*
X55627130Y75266534D01*
%TO.C,C78*%
X51990692Y72826436D02*
X53690692Y72826436D01*
X53690692Y69826436D01*
X51990692Y69826436D01*
X51990692Y72826436D01*
%TO.C,C79*%
X47604112Y72826436D02*
X49304112Y72826436D01*
X49304112Y69826436D01*
X47604112Y69826436D01*
X47604112Y72826436D01*
%TO.C,C67*%
X43066454Y80849454D02*
X46066454Y80849454D01*
X46066454Y79149454D01*
X43066454Y79149454D01*
X43066454Y80849454D01*
%TO.C,C80*%
X43066454Y79653114D02*
X46066454Y79653114D01*
X46066454Y77953114D01*
X43066454Y77953114D01*
X43066454Y79653114D01*
%TO.C,C70*%
X43600000Y76811000D02*
X45300000Y76811000D01*
X45300000Y73811000D01*
X43600000Y73811000D01*
X43600000Y76811000D01*
%TO.C,C68*%
X44117381Y83576701D02*
X46238701Y81455381D01*
X45036619Y80253299D01*
X42915299Y82374619D01*
X44117381Y83576701D01*
%TO.C,C69*%
X46407772Y85387112D02*
X48107772Y85387112D01*
X48107772Y82387112D01*
X46407772Y82387112D01*
X46407772Y85387112D01*
%TO.C,C153*%
X58586000Y68810000D02*
X60286000Y68810000D01*
X60286000Y65810000D01*
X58586000Y65810000D01*
X58586000Y68810000D01*
%TO.C,C150*%
X58586000Y66397000D02*
X60286000Y66397000D01*
X60286000Y63397000D01*
X58586000Y63397000D01*
X58586000Y66397000D01*
%TO.C,C141*%
X44625381Y68082701D02*
X46746701Y65961381D01*
X45544619Y64759299D01*
X43423299Y66880619D01*
X44625381Y68082701D01*
%TO.C,C114*%
X56081800Y65569200D02*
X59081800Y65569200D01*
X59081800Y63869200D01*
X56081800Y63869200D01*
X56081800Y65569200D01*
%TO.C,U8*%
X44082000Y57913000D02*
X48882000Y57913000D01*
X48882000Y54393000D01*
X44082000Y54393000D01*
X44082000Y57913000D01*
%TO.C,X2*%
X60251000Y67892000D02*
X63701000Y67892000D01*
X63701000Y64442000D01*
X60251000Y64442000D01*
X60251000Y67892000D01*
%TO.C,C138*%
X52451900Y57322662D02*
X54151900Y57322662D01*
X54151900Y54322662D01*
X52451900Y54322662D01*
X52451900Y57322662D01*
%TO.C,C115*%
X49061000Y57329200D02*
X50761000Y57329200D01*
X50761000Y54329200D01*
X49061000Y54329200D01*
X49061000Y57329200D01*
%TO.C,C134*%
X48065320Y57322662D02*
X49765320Y57322662D01*
X49765320Y54322662D01*
X48065320Y54322662D01*
X48065320Y57322662D01*
%TO.C,C116*%
X54047020Y57322662D02*
X55747020Y57322662D01*
X55747020Y54322662D01*
X54047020Y54322662D01*
X54047020Y57322662D01*
%TO.C,C135*%
X56088338Y59762760D02*
X59088338Y59762760D01*
X59088338Y58062760D01*
X56088338Y58062760D01*
X56088338Y59762760D01*
%TO.C,C136*%
X56088338Y60959100D02*
X59088338Y60959100D01*
X59088338Y59259100D01*
X56088338Y59259100D01*
X56088338Y60959100D01*
%TO.C,C117*%
X56088338Y62155440D02*
X59088338Y62155440D01*
X59088338Y60455440D01*
X56088338Y60455440D01*
X56088338Y62155440D01*
%TO.C,C137*%
X56088338Y63351780D02*
X59088338Y63351780D01*
X59088338Y61651780D01*
X56088338Y61651780D01*
X56088338Y63351780D01*
%TO.C,C118*%
X56088338Y64548120D02*
X59088338Y64548120D01*
X59088338Y62848120D01*
X56088338Y62848120D01*
X56088338Y64548120D01*
%TO.C,C119*%
X46868980Y69883338D02*
X48568980Y69883338D01*
X48568980Y66883338D01*
X46868980Y66883338D01*
X46868980Y69883338D01*
%TO.C,C139*%
X48065320Y69883338D02*
X49765320Y69883338D01*
X49765320Y66883338D01*
X48065320Y66883338D01*
X48065320Y69883338D01*
%TO.C,C120*%
X49261660Y69883338D02*
X50961660Y69883338D01*
X50961660Y66883338D01*
X49261660Y66883338D01*
X49261660Y69883338D01*
%TO.C,C125*%
X50458000Y69883338D02*
X52158000Y69883338D01*
X52158000Y66883338D01*
X50458000Y66883338D01*
X50458000Y69883338D01*
%TO.C,C124*%
X51654340Y69883338D02*
X53354340Y69883338D01*
X53354340Y66883338D01*
X51654340Y66883338D01*
X51654340Y69883338D01*
%TO.C,C123*%
X52850680Y69883338D02*
X54550680Y69883338D01*
X54550680Y66883338D01*
X52850680Y66883338D01*
X52850680Y69883338D01*
%TO.C,C142*%
X56031000Y66763000D02*
X59031000Y66763000D01*
X59031000Y65063000D01*
X56031000Y65063000D01*
X56031000Y66763000D01*
%TO.C,C122*%
X43568236Y65345680D02*
X46568236Y65345680D01*
X46568236Y63645680D01*
X43568236Y63645680D01*
X43568236Y65345680D01*
%TO.C,C121*%
X43568236Y64149340D02*
X46568236Y64149340D01*
X46568236Y62449340D01*
X43568236Y62449340D01*
X43568236Y64149340D01*
%TO.C,C140*%
X44235000Y61317000D02*
X45935000Y61317000D01*
X45935000Y58317000D01*
X44235000Y58317000D01*
X44235000Y61317000D01*
%TO.C,C152*%
X41172000Y64239510D02*
X44172000Y64239510D01*
X44172000Y62539510D01*
X41172000Y62539510D01*
X41172000Y64239510D01*
%TO.C,C149*%
X41172000Y65255510D02*
X44172000Y65255510D01*
X44172000Y63555510D01*
X41172000Y63555510D01*
X41172000Y65255510D01*
%TO.C,C187*%
X91225000Y18518000D02*
X92925000Y18518000D01*
X92925000Y15518000D01*
X91225000Y15518000D01*
X91225000Y18518000D01*
%TO.C,C186*%
X89320000Y18518000D02*
X91020000Y18518000D01*
X91020000Y15518000D01*
X89320000Y15518000D01*
X89320000Y18518000D01*
%TO.C,C177*%
X23011000Y30695000D02*
X26011000Y30695000D01*
X26011000Y28995000D01*
X23011000Y28995000D01*
X23011000Y30695000D01*
%TO.C,C176*%
X19404200Y34479600D02*
X22404200Y34479600D01*
X22404200Y32779600D01*
X19404200Y32779600D01*
X19404200Y34479600D01*
%TO.C,U3*%
X119639977Y51159000D02*
X130489977Y51159000D01*
X130489977Y40789000D01*
X119639977Y40789000D01*
X119639977Y51159000D01*
%TO.C,C50*%
X136930000Y21551000D02*
X139930000Y21551000D01*
X139930000Y19851000D01*
X136930000Y19851000D01*
X136930000Y21551000D01*
%TO.C,C58*%
X142137000Y21678000D02*
X145137000Y21678000D01*
X145137000Y19978000D01*
X142137000Y19978000D01*
X142137000Y21678000D01*
%TO.C,C21*%
X121959000Y55348000D02*
X123659000Y55348000D01*
X123659000Y52348000D01*
X121959000Y52348000D01*
X121959000Y55348000D01*
%TO.C,FB1*%
X119800000Y55348000D02*
X121500000Y55348000D01*
X121500000Y52348000D01*
X119800000Y52348000D01*
X119800000Y55348000D01*
%TO.C,C17*%
X118447893Y47576145D02*
X121447893Y47576145D01*
X121447893Y45876145D01*
X118447893Y45876145D01*
X118447893Y47576145D01*
%TO.C,C18*%
X118447893Y46076021D02*
X121447893Y46076021D01*
X121447893Y44376021D01*
X118447893Y44376021D01*
X118447893Y46076021D01*
%TO.C,C15*%
X128679978Y47574062D02*
X131679978Y47574062D01*
X131679978Y45874062D01*
X128679978Y45874062D01*
X128679978Y47574062D01*
%TO.C,C16*%
X128682061Y46071855D02*
X131682061Y46071855D01*
X131682061Y44371855D01*
X128682061Y44371855D01*
X128682061Y46071855D01*
%TO.C,C13*%
X123965041Y52589001D02*
X125665041Y52589001D01*
X125665041Y49589001D01*
X123965041Y49589001D01*
X123965041Y52589001D01*
%TO.C,C19*%
X125464911Y52589001D02*
X127164911Y52589001D01*
X127164911Y49589001D01*
X125464911Y49589001D01*
X125464911Y52589001D01*
%TO.C,C14*%
X125962954Y42356916D02*
X127662954Y42356916D01*
X127662954Y39356916D01*
X125962954Y39356916D01*
X125962954Y42356916D01*
%TO.C,R117*%
X54791385Y72769410D02*
X56491385Y72769410D01*
X56491385Y69769410D01*
X54791385Y69769410D01*
X54791385Y72769410D01*
%TO.C,R125*%
X55411000Y57253000D02*
X57111000Y57253000D01*
X57111000Y54253000D01*
X55411000Y54253000D01*
X55411000Y57253000D01*
%TO.C,R105*%
X58332000Y58269000D02*
X60032000Y58269000D01*
X60032000Y55269000D01*
X58332000Y55269000D01*
X58332000Y58269000D01*
%TO.C,C9*%
X46633000Y11010000D02*
X49633000Y11010000D01*
X49633000Y9310000D01*
X46633000Y9310000D01*
X46633000Y11010000D01*
%TO.C,C10*%
X55435751Y11040010D02*
X58435751Y11040010D01*
X58435751Y9340010D01*
X55435751Y9340010D01*
X55435751Y11040010D01*
%TO.C,C11*%
X51332000Y11010000D02*
X54332000Y11010000D01*
X54332000Y9310000D01*
X51332000Y9310000D01*
X51332000Y11010000D01*
%TO.C,PC1*%
X123341000Y84162000D02*
X126341000Y84162000D01*
X126341000Y82462000D01*
X123341000Y82462000D01*
X123341000Y84162000D01*
%TO.C,PC2*%
X123214000Y80733000D02*
X126214000Y80733000D01*
X126214000Y79033000D01*
X123214000Y79033000D01*
X123214000Y80733000D01*
%TO.C,PC3*%
X138327000Y88353000D02*
X141327000Y88353000D01*
X141327000Y86653000D01*
X138327000Y86653000D01*
X138327000Y88353000D01*
%TO.C,PC4*%
X140882000Y89765000D02*
X142582000Y89765000D01*
X142582000Y86765000D01*
X140882000Y86765000D01*
X140882000Y89765000D01*
%TO.C,C46*%
X48665000Y24091000D02*
X51665000Y24091000D01*
X51665000Y22391000D01*
X48665000Y22391000D01*
X48665000Y24091000D01*
%TO.C,C47*%
X51586000Y19392000D02*
X54586000Y19392000D01*
X54586000Y17692000D01*
X51586000Y17692000D01*
X51586000Y19392000D01*
%TO.C,C48*%
X53237000Y24091000D02*
X56237000Y24091000D01*
X56237000Y22391000D01*
X53237000Y22391000D01*
X53237000Y24091000D01*
%TO.C,C49*%
X47649000Y19392000D02*
X50649000Y19392000D01*
X50649000Y17692000D01*
X47649000Y17692000D01*
X47649000Y19392000D01*
%TO.C,Q3*%
X42257564Y26420199D02*
X45207564Y26420199D01*
X45207564Y23238199D01*
X42257564Y23238199D01*
X42257564Y26420199D01*
%TO.C,Q4*%
X38407000Y26356000D02*
X41357000Y26356000D01*
X41357000Y23174000D01*
X38407000Y23174000D01*
X38407000Y26356000D01*
%TO.C,Q5*%
X114614000Y24212000D02*
X117796000Y24212000D01*
X117796000Y21262000D01*
X114614000Y21262000D01*
X114614000Y24212000D01*
%TO.C,Q6*%
X59877000Y57994000D02*
X63059000Y57994000D01*
X63059000Y55044000D01*
X59877000Y55044000D01*
X59877000Y57994000D01*
%TO.C,R64*%
X154801001Y32920888D02*
X157801001Y32920888D01*
X157801001Y31220888D01*
X154801001Y31220888D01*
X154801001Y32920888D01*
%TO.C,R65*%
X154801001Y34571888D02*
X157801001Y34571888D01*
X157801001Y32871888D01*
X154801001Y32871888D01*
X154801001Y34571888D01*
%TO.C,R66*%
X154826883Y65495703D02*
X157826883Y65495703D01*
X157826883Y63795703D01*
X154826883Y63795703D01*
X154826883Y65495703D01*
%TO.C,R67*%
X154801001Y67210888D02*
X157801001Y67210888D01*
X157801001Y65510888D01*
X154801001Y65510888D01*
X154801001Y67210888D01*
%TO.C,R68*%
X154801001Y44350888D02*
X157801001Y44350888D01*
X157801001Y42650888D01*
X154801001Y42650888D01*
X154801001Y44350888D01*
%TO.C,R69*%
X154801001Y46001888D02*
X157801001Y46001888D01*
X157801001Y44301888D01*
X154801001Y44301888D01*
X154801001Y46001888D01*
%TO.C,R70*%
X154928001Y51081888D02*
X157928001Y51081888D01*
X157928001Y49381888D01*
X154928001Y49381888D01*
X154928001Y51081888D01*
%TO.C,R71*%
X154964000Y52793000D02*
X157964000Y52793000D01*
X157964000Y51093000D01*
X154964000Y51093000D01*
X154964000Y52793000D01*
%TO.C,R72*%
X154928001Y81180888D02*
X157928001Y81180888D01*
X157928001Y79480888D01*
X154928001Y79480888D01*
X154928001Y81180888D01*
%TO.C,R73*%
X154928001Y82831888D02*
X157928001Y82831888D01*
X157928001Y81131888D01*
X154928001Y81131888D01*
X154928001Y82831888D01*
%TO.C,R74*%
X154953883Y88981355D02*
X157953883Y88981355D01*
X157953883Y87281355D01*
X154953883Y87281355D01*
X154953883Y88981355D01*
%TO.C,R75*%
X154964000Y90512000D02*
X157964000Y90512000D01*
X157964000Y88812000D01*
X154964000Y88812000D01*
X154964000Y90512000D01*
%TO.C,Q10*%
X55813000Y99261000D02*
X58995000Y99261000D01*
X58995000Y96311000D01*
X55813000Y96311000D01*
X55813000Y99261000D01*
%TO.C,Q11*%
X59115000Y99261000D02*
X62297000Y99261000D01*
X62297000Y96311000D01*
X59115000Y96311000D01*
X59115000Y99261000D01*
%TO.C,Q12*%
X39430000Y99515000D02*
X42612000Y99515000D01*
X42612000Y96565000D01*
X39430000Y96565000D01*
X39430000Y99515000D01*
%TO.C,Q13*%
X42732000Y99515000D02*
X45914000Y99515000D01*
X45914000Y96565000D01*
X42732000Y96565000D01*
X42732000Y99515000D01*
%TO.C,Q9*%
X75117000Y99261000D02*
X78299000Y99261000D01*
X78299000Y96311000D01*
X75117000Y96311000D01*
X75117000Y99261000D01*
%TO.C,Q15*%
X106740000Y99134000D02*
X109922000Y99134000D01*
X109922000Y96184000D01*
X106740000Y96184000D01*
X106740000Y99134000D01*
%TO.C,Q16*%
X87817000Y99134000D02*
X90999000Y99134000D01*
X90999000Y96184000D01*
X87817000Y96184000D01*
X87817000Y99134000D01*
%TO.C,Q17*%
X91119000Y99134000D02*
X94301000Y99134000D01*
X94301000Y96184000D01*
X91119000Y96184000D01*
X91119000Y99134000D01*
%TO.C,Q18*%
X71815000Y99261000D02*
X74997000Y99261000D01*
X74997000Y96311000D01*
X71815000Y96311000D01*
X71815000Y99261000D01*
%TO.C,Q14*%
X103438000Y99134000D02*
X106620000Y99134000D01*
X106620000Y96184000D01*
X103438000Y96184000D01*
X103438000Y99134000D01*
%TO.C,R108*%
X122086000Y14454000D02*
X123786000Y14454000D01*
X123786000Y11454000D01*
X122086000Y11454000D01*
X122086000Y14454000D01*
%TO.C,R109*%
X146343000Y14581000D02*
X148043000Y14581000D01*
X148043000Y11581000D01*
X146343000Y11581000D01*
X146343000Y14581000D01*
%TO.C,R121*%
X99846000Y95719000D02*
X102846000Y95719000D01*
X102846000Y94019000D01*
X99846000Y94019000D01*
X99846000Y95719000D01*
%TO.C,R122*%
X83717000Y98513000D02*
X86717000Y98513000D01*
X86717000Y96813000D01*
X83717000Y96813000D01*
X83717000Y98513000D01*
%TO.C,R123*%
X83717000Y95719000D02*
X86717000Y95719000D01*
X86717000Y94019000D01*
X83717000Y94019000D01*
X83717000Y95719000D01*
%TO.C,R124*%
X67715000Y98513000D02*
X70715000Y98513000D01*
X70715000Y96813000D01*
X67715000Y96813000D01*
X67715000Y98513000D01*
%TO.C,R120*%
X100003635Y98491123D02*
X103003635Y98491123D01*
X103003635Y96791123D01*
X100003635Y96791123D01*
X100003635Y98491123D01*
%TO.C,R113*%
X51332000Y98513000D02*
X54332000Y98513000D01*
X54332000Y96813000D01*
X51332000Y96813000D01*
X51332000Y98513000D01*
%TO.C,R114*%
X51205000Y95719000D02*
X54205000Y95719000D01*
X54205000Y94019000D01*
X51205000Y94019000D01*
X51205000Y95719000D01*
%TO.C,R112*%
X67715000Y95719000D02*
X70715000Y95719000D01*
X70715000Y94019000D01*
X67715000Y94019000D01*
X67715000Y95719000D01*
%TO.C,C192*%
X86511000Y75399000D02*
X89511000Y75399000D01*
X89511000Y73699000D01*
X86511000Y73699000D01*
X86511000Y75399000D01*
%TO.C,C202*%
X74969000Y77954000D02*
X76669000Y77954000D01*
X76669000Y74954000D01*
X74969000Y74954000D01*
X74969000Y77954000D01*
%TO.C,C201*%
X72287000Y80352000D02*
X75287000Y80352000D01*
X75287000Y78652000D01*
X72287000Y78652000D01*
X72287000Y80352000D01*
%TO.C,C199*%
X86511000Y80352000D02*
X89511000Y80352000D01*
X89511000Y78652000D01*
X86511000Y78652000D01*
X86511000Y80352000D01*
%TO.C,C200*%
X86511000Y82511000D02*
X89511000Y82511000D01*
X89511000Y80811000D01*
X86511000Y80811000D01*
X86511000Y82511000D01*
%TO.C,C204*%
X71413000Y77954000D02*
X73113000Y77954000D01*
X73113000Y74954000D01*
X71413000Y74954000D01*
X71413000Y77954000D01*
%TO.C,C203*%
X73191000Y77954000D02*
X74891000Y77954000D01*
X74891000Y74954000D01*
X73191000Y74954000D01*
X73191000Y77954000D01*
%TO.C,U13*%
X85761800Y78753000D02*
X89498200Y78753000D01*
X89498200Y74663000D01*
X85761800Y74663000D01*
X85761800Y78753000D01*
%TO.C,U9*%
X12402000Y23553000D02*
X19602000Y23553000D01*
X19602000Y16833000D01*
X12402000Y16833000D01*
X12402000Y23553000D01*
%TO.C,FAN1*%
X108633381Y71638701D02*
X110754701Y69517381D01*
X109552619Y68315299D01*
X107431299Y70436619D01*
X108633381Y71638701D01*
%TO.C,R87*%
X113548030Y51437910D02*
X116548030Y51437910D01*
X116548030Y49737910D01*
X113548030Y49737910D01*
X113548030Y51437910D01*
%TO.C,R91*%
X113548030Y50294910D02*
X116548030Y50294910D01*
X116548030Y48594910D01*
X113548030Y48594910D01*
X113548030Y50294910D01*
%TO.C,R95*%
X113548030Y47754910D02*
X116548030Y47754910D01*
X116548030Y46054910D01*
X113548030Y46054910D01*
X113548030Y47754910D01*
%TO.C,R93*%
X113548030Y48897910D02*
X116548030Y48897910D01*
X116548030Y47197910D01*
X113548030Y47197910D01*
X113548030Y48897910D01*
%TO.C,R92*%
X115594000Y48897910D02*
X118594000Y48897910D01*
X118594000Y47197910D01*
X115594000Y47197910D01*
X115594000Y48897910D01*
%TO.C,R86*%
X115594000Y51437910D02*
X118594000Y51437910D01*
X118594000Y49737910D01*
X115594000Y49737910D01*
X115594000Y51437910D01*
%TO.C,R90*%
X115594000Y50294910D02*
X118594000Y50294910D01*
X118594000Y48594910D01*
X115594000Y48594910D01*
X115594000Y50294910D01*
%TO.C,R94*%
X115594000Y47754910D02*
X118594000Y47754910D01*
X118594000Y46054910D01*
X115594000Y46054910D01*
X115594000Y47754910D01*
%TO.C,R128*%
X14517000Y18391000D02*
X16217000Y18391000D01*
X16217000Y15391000D01*
X14517000Y15391000D01*
X14517000Y18391000D01*
%TO.C,R130*%
X17946000Y18391000D02*
X19646000Y18391000D01*
X19646000Y15391000D01*
X17946000Y15391000D01*
X17946000Y18391000D01*
%TO.C,R133*%
X14194420Y15413485D02*
X15894420Y15413485D01*
X15894420Y12413485D01*
X14194420Y12413485D01*
X14194420Y15413485D01*
%TO.C,R132*%
X13063485Y15411580D02*
X14763485Y15411580D01*
X14763485Y12411580D01*
X13063485Y12411580D01*
X13063485Y15411580D01*
%TO.C,R126*%
X24042000Y16740000D02*
X25742000Y16740000D01*
X25742000Y13740000D01*
X24042000Y13740000D01*
X24042000Y16740000D01*
%TO.C,R127*%
X26074000Y16740000D02*
X27774000Y16740000D01*
X27774000Y13740000D01*
X26074000Y13740000D01*
X26074000Y16740000D01*
%TO.C,R134*%
X106592000Y12422000D02*
X108292000Y12422000D01*
X108292000Y9422000D01*
X106592000Y9422000D01*
X106592000Y12422000D01*
%TO.C,R138*%
X89178000Y76669000D02*
X92178000Y76669000D01*
X92178000Y74969000D01*
X89178000Y74969000D01*
X89178000Y76669000D01*
%TO.C,C82*%
X39536000Y86463000D02*
X41236000Y86463000D01*
X41236000Y83463000D01*
X39536000Y83463000D01*
X39536000Y86463000D01*
%TO.C,C84*%
X40552000Y86463000D02*
X42252000Y86463000D01*
X42252000Y83463000D01*
X40552000Y83463000D01*
X40552000Y86463000D01*
%TO.C,C85*%
X39536000Y93956000D02*
X41236000Y93956000D01*
X41236000Y90956000D01*
X39536000Y90956000D01*
X39536000Y93956000D01*
%TO.C,C86*%
X40552000Y93956000D02*
X42252000Y93956000D01*
X42252000Y90956000D01*
X40552000Y90956000D01*
X40552000Y93956000D01*
%TO.C,C88*%
X43346000Y86463000D02*
X45046000Y86463000D01*
X45046000Y83463000D01*
X43346000Y83463000D01*
X43346000Y86463000D01*
%TO.C,C89*%
X44362000Y86463000D02*
X46062000Y86463000D01*
X46062000Y83463000D01*
X44362000Y83463000D01*
X44362000Y86463000D01*
%TO.C,C90*%
X43346000Y93829000D02*
X45046000Y93829000D01*
X45046000Y90829000D01*
X43346000Y90829000D01*
X43346000Y93829000D01*
%TO.C,C91*%
X44362000Y93829000D02*
X46062000Y93829000D01*
X46062000Y90829000D01*
X44362000Y90829000D01*
X44362000Y93829000D01*
%TO.C,C98*%
X55665000Y86463000D02*
X57365000Y86463000D01*
X57365000Y83463000D01*
X55665000Y83463000D01*
X55665000Y86463000D01*
%TO.C,C99*%
X56681000Y86463000D02*
X58381000Y86463000D01*
X58381000Y83463000D01*
X56681000Y83463000D01*
X56681000Y86463000D01*
%TO.C,C100*%
X55665000Y93894999D02*
X57365000Y93894999D01*
X57365000Y90894999D01*
X55665000Y90894999D01*
X55665000Y93894999D01*
%TO.C,C101*%
X56681000Y93894999D02*
X58381000Y93894999D01*
X58381000Y90894999D01*
X56681000Y90894999D01*
X56681000Y93894999D01*
%TO.C,C102*%
X59475000Y86463000D02*
X61175000Y86463000D01*
X61175000Y83463000D01*
X59475000Y83463000D01*
X59475000Y86463000D01*
%TO.C,C103*%
X60491000Y86463000D02*
X62191000Y86463000D01*
X62191000Y83463000D01*
X60491000Y83463000D01*
X60491000Y86463000D01*
%TO.C,C104*%
X59475000Y93894999D02*
X61175000Y93894999D01*
X61175000Y90894999D01*
X59475000Y90894999D01*
X59475000Y93894999D01*
%TO.C,C105*%
X60491000Y93894999D02*
X62191000Y93894999D01*
X62191000Y90894999D01*
X60491000Y90894999D01*
X60491000Y93894999D01*
%TO.C,C106*%
X71794000Y86463000D02*
X73494000Y86463000D01*
X73494000Y83463000D01*
X71794000Y83463000D01*
X71794000Y86463000D01*
%TO.C,C107*%
X72810000Y86463000D02*
X74510000Y86463000D01*
X74510000Y83463000D01*
X72810000Y83463000D01*
X72810000Y86463000D01*
%TO.C,C108*%
X71794000Y93894999D02*
X73494000Y93894999D01*
X73494000Y90894999D01*
X71794000Y90894999D01*
X71794000Y93894999D01*
%TO.C,C109*%
X72810000Y93894999D02*
X74510000Y93894999D01*
X74510000Y90894999D01*
X72810000Y90894999D01*
X72810000Y93894999D01*
%TO.C,C110*%
X75604000Y86463000D02*
X77304000Y86463000D01*
X77304000Y83463000D01*
X75604000Y83463000D01*
X75604000Y86463000D01*
%TO.C,C111*%
X76620000Y86463000D02*
X78320000Y86463000D01*
X78320000Y83463000D01*
X76620000Y83463000D01*
X76620000Y86463000D01*
%TO.C,C112*%
X75604000Y93894999D02*
X77304000Y93894999D01*
X77304000Y90894999D01*
X75604000Y90894999D01*
X75604000Y93894999D01*
%TO.C,C113*%
X76620000Y93894999D02*
X78320000Y93894999D01*
X78320000Y90894999D01*
X76620000Y90894999D01*
X76620000Y93894999D01*
%TO.C,C126*%
X87923000Y86463000D02*
X89623000Y86463000D01*
X89623000Y83463000D01*
X87923000Y83463000D01*
X87923000Y86463000D01*
%TO.C,C127*%
X88939000Y86463000D02*
X90639000Y86463000D01*
X90639000Y83463000D01*
X88939000Y83463000D01*
X88939000Y86463000D01*
%TO.C,C128*%
X87923000Y93894999D02*
X89623000Y93894999D01*
X89623000Y90894999D01*
X87923000Y90894999D01*
X87923000Y93894999D01*
%TO.C,C129*%
X88939000Y93894999D02*
X90639000Y93894999D01*
X90639000Y90894999D01*
X88939000Y90894999D01*
X88939000Y93894999D01*
%TO.C,C130*%
X91733000Y86463000D02*
X93433000Y86463000D01*
X93433000Y83463000D01*
X91733000Y83463000D01*
X91733000Y86463000D01*
%TO.C,C131*%
X92749000Y86463000D02*
X94449000Y86463000D01*
X94449000Y83463000D01*
X92749000Y83463000D01*
X92749000Y86463000D01*
%TO.C,C132*%
X91733000Y93894999D02*
X93433000Y93894999D01*
X93433000Y90894999D01*
X91733000Y90894999D01*
X91733000Y93894999D01*
%TO.C,C133*%
X92749000Y93894999D02*
X94449000Y93894999D01*
X94449000Y90894999D01*
X92749000Y90894999D01*
X92749000Y93894999D01*
%TO.C,C144*%
X104052000Y86463000D02*
X105752000Y86463000D01*
X105752000Y83463000D01*
X104052000Y83463000D01*
X104052000Y86463000D01*
%TO.C,C146*%
X105068000Y86463000D02*
X106768000Y86463000D01*
X106768000Y83463000D01*
X105068000Y83463000D01*
X105068000Y86463000D01*
%TO.C,C147*%
X104052000Y93894999D02*
X105752000Y93894999D01*
X105752000Y90894999D01*
X104052000Y90894999D01*
X104052000Y93894999D01*
%TO.C,C148*%
X105068000Y93894999D02*
X106768000Y93894999D01*
X106768000Y90894999D01*
X105068000Y90894999D01*
X105068000Y93894999D01*
%TO.C,C151*%
X107862000Y86508085D02*
X109562000Y86508085D01*
X109562000Y83508085D01*
X107862000Y83508085D01*
X107862000Y86508085D01*
%TO.C,C154*%
X108878000Y86513800D02*
X110578000Y86513800D01*
X110578000Y83513800D01*
X108878000Y83513800D01*
X108878000Y86513800D01*
%TO.C,C155*%
X107862000Y93894999D02*
X109562000Y93894999D01*
X109562000Y90894999D01*
X107862000Y90894999D01*
X107862000Y93894999D01*
%TO.C,C156*%
X108878000Y93894999D02*
X110578000Y93894999D01*
X110578000Y90894999D01*
X108878000Y90894999D01*
X108878000Y93894999D01*
%TO.C,C180*%
X16803000Y18391000D02*
X18503000Y18391000D01*
X18503000Y15391000D01*
X16803000Y15391000D01*
X16803000Y18391000D01*
%TO.C,R116*%
X35584000Y95719000D02*
X38584000Y95719000D01*
X38584000Y94019000D01*
X35584000Y94019000D01*
X35584000Y95719000D01*
%TO.C,R115*%
X35457000Y98513000D02*
X38457000Y98513000D01*
X38457000Y96813000D01*
X35457000Y96813000D01*
X35457000Y98513000D01*
%TO.C,PC15*%
X20216303Y78479628D02*
X21916303Y78479628D01*
X21916303Y75479628D01*
X20216303Y75479628D01*
X20216303Y78479628D01*
%TO.C,PC16*%
X20216303Y80480005D02*
X21916303Y80480005D01*
X21916303Y77480005D01*
X20216303Y77480005D01*
X20216303Y80480005D01*
%TO.C,PC13*%
X21216301Y80480005D02*
X22916301Y80480005D01*
X22916301Y77480005D01*
X21216301Y77480005D01*
X21216301Y80480005D01*
%TO.C,PC37*%
X21065919Y77330010D02*
X24065919Y77330010D01*
X24065919Y75630010D01*
X21065919Y75630010D01*
X21065919Y77330010D01*
%TO.C,PC45*%
X21066300Y78330008D02*
X24066300Y78330008D01*
X24066300Y76630008D01*
X21066300Y76630008D01*
X21066300Y78330008D01*
%TO.C,PC27*%
X22216299Y80480005D02*
X23916299Y80480005D01*
X23916299Y77480005D01*
X22216299Y77480005D01*
X22216299Y80480005D01*
%TO.C,PC32*%
X23216297Y78480390D02*
X24916297Y78480390D01*
X24916297Y75480390D01*
X23216297Y75480390D01*
X23216297Y78480390D01*
%TO.C,PC29*%
X23216297Y80480005D02*
X24916297Y80480005D01*
X24916297Y77480005D01*
X23216297Y77480005D01*
X23216297Y80480005D01*
%TO.C,PC21*%
X24216295Y79480007D02*
X25916295Y79480007D01*
X25916295Y76480007D01*
X24216295Y76480007D01*
X24216295Y79480007D01*
%TO.C,R32*%
X29488381Y73582925D02*
X32488381Y73582925D01*
X32488381Y71882925D01*
X29488381Y71882925D01*
X29488381Y73582925D01*
%TO.C,PC30*%
X24216295Y81480003D02*
X25916295Y81480003D01*
X25916295Y78480003D01*
X24216295Y78480003D01*
X24216295Y81480003D01*
%TO.C,R10*%
X26948381Y80440925D02*
X29948381Y80440925D01*
X29948381Y78740925D01*
X26948381Y78740925D01*
X26948381Y80440925D01*
%TO.C,R46*%
X29488381Y80694925D02*
X32488381Y80694925D01*
X32488381Y78994925D01*
X29488381Y78994925D01*
X29488381Y80694925D01*
%TO.C,R11*%
X26455381Y76391925D02*
X28155381Y76391925D01*
X28155381Y73391925D01*
X26455381Y73391925D01*
X26455381Y76391925D01*
%TO.C,R45*%
X29488381Y74598925D02*
X32488381Y74598925D01*
X32488381Y72898925D01*
X29488381Y72898925D01*
X29488381Y74598925D01*
%TO.C,R37*%
X29488381Y75614925D02*
X32488381Y75614925D01*
X32488381Y73914925D01*
X29488381Y73914925D01*
X29488381Y75614925D01*
%TO.C,R16*%
X29488381Y76630925D02*
X32488381Y76630925D01*
X32488381Y74930925D01*
X29488381Y74930925D01*
X29488381Y76630925D01*
%TO.C,PC46*%
X24066294Y77330010D02*
X27066294Y77330010D01*
X27066294Y75630010D01*
X24066294Y75630010D01*
X24066294Y77330010D01*
%TO.C,R9*%
X26948381Y79424925D02*
X29948381Y79424925D01*
X29948381Y77724925D01*
X26948381Y77724925D01*
X26948381Y79424925D01*
%TO.C,R12*%
X26948381Y78408925D02*
X29948381Y78408925D01*
X29948381Y76708925D01*
X26948381Y76708925D01*
X26948381Y78408925D01*
%TO.C,R54*%
X29488381Y77646925D02*
X32488381Y77646925D01*
X32488381Y75946925D01*
X29488381Y75946925D01*
X29488381Y77646925D01*
%TO.C,R15*%
X29488381Y78662925D02*
X32488381Y78662925D01*
X32488381Y76962925D01*
X29488381Y76962925D01*
X29488381Y78662925D01*
%TO.C,R17*%
X29488381Y79678925D02*
X32488381Y79678925D01*
X32488381Y77978925D01*
X29488381Y77978925D01*
X29488381Y79678925D01*
%TO.C,Q2*%
X6530381Y74069925D02*
X9480381Y74069925D01*
X9480381Y70887925D01*
X6530381Y70887925D01*
X6530381Y74069925D01*
%TO.C,R30*%
X10326381Y93155925D02*
X12026381Y93155925D01*
X12026381Y90155925D01*
X10326381Y90155925D01*
X10326381Y93155925D01*
%TO.C,R5*%
X11977381Y76518925D02*
X13677381Y76518925D01*
X13677381Y73518925D01*
X11977381Y73518925D01*
X11977381Y76518925D01*
%TO.C,R18*%
X7278381Y93155925D02*
X8978381Y93155925D01*
X8978381Y90155925D01*
X7278381Y90155925D01*
X7278381Y93155925D01*
%TO.C,R62*%
X569200Y91788514D02*
X2269200Y91788514D01*
X2269200Y88788514D01*
X569200Y88788514D01*
X569200Y91788514D01*
%TO.C,R76*%
X7263381Y75487925D02*
X10263381Y75487925D01*
X10263381Y73787925D01*
X7263381Y73787925D01*
X7263381Y75487925D01*
%TO.C,R39*%
X7263381Y83638153D02*
X10263381Y83638153D01*
X10263381Y81938153D01*
X7263381Y81938153D01*
X7263381Y83638153D01*
%TO.C,R19*%
X7263381Y84657856D02*
X10263381Y84657856D01*
X10263381Y82957856D01*
X7263381Y82957856D01*
X7263381Y84657856D01*
%TO.C,R60*%
X7263381Y78543335D02*
X10263381Y78543335D01*
X10263381Y76843335D01*
X7263381Y76843335D01*
X7263381Y78543335D01*
%TO.C,R28*%
X7263381Y80582744D02*
X10263381Y80582744D01*
X10263381Y78882744D01*
X7263381Y78882744D01*
X7263381Y80582744D01*
%TO.C,R38*%
X7263381Y79563038D02*
X10263381Y79563038D01*
X10263381Y77863038D01*
X7263381Y77863038D01*
X7263381Y79563038D01*
%TO.C,R29*%
X7263381Y88740378D02*
X10263381Y88740378D01*
X10263381Y87040378D01*
X7263381Y87040378D01*
X7263381Y88740378D01*
%TO.C,R42*%
X7263381Y81602447D02*
X10263381Y81602447D01*
X10263381Y79902447D01*
X7263381Y79902447D01*
X7263381Y81602447D01*
%TO.C,R25*%
X7263381Y86700969D02*
X10263381Y86700969D01*
X10263381Y85000969D01*
X7263381Y85000969D01*
X7263381Y86700969D01*
%TO.C,R50*%
X7263381Y82625325D02*
X10263381Y82625325D01*
X10263381Y80925325D01*
X7263381Y80925325D01*
X7263381Y82625325D01*
%TO.C,R23*%
X7263381Y87720675D02*
X10263381Y87720675D01*
X10263381Y86020675D01*
X7263381Y86020675D01*
X7263381Y87720675D01*
%TO.C,R59*%
X7263381Y77523629D02*
X10263381Y77523629D01*
X10263381Y75823629D01*
X7263381Y75823629D01*
X7263381Y77523629D01*
%TO.C,R22*%
X7263381Y85681265D02*
X10263381Y85681265D01*
X10263381Y83981265D01*
X7263381Y83981265D01*
X7263381Y85681265D01*
%TO.C,R27*%
X7263381Y76503925D02*
X10263381Y76503925D01*
X10263381Y74803925D01*
X7263381Y74803925D01*
X7263381Y76503925D01*
%TO.C,R53*%
X8294381Y93155925D02*
X9994381Y93155925D01*
X9994381Y90155925D01*
X8294381Y90155925D01*
X8294381Y93155925D01*
%TO.C,R14*%
X9310381Y93155925D02*
X11010381Y93155925D01*
X11010381Y90155925D01*
X9310381Y90155925D01*
X9310381Y93155925D01*
%TO.C,PC43*%
X18066458Y77330010D02*
X21066458Y77330010D01*
X21066458Y75630010D01*
X18066458Y75630010D01*
X18066458Y77330010D01*
%TO.C,R1*%
X12231381Y85459725D02*
X13931381Y85459725D01*
X13931381Y82459725D01*
X12231381Y82459725D01*
X12231381Y85459725D01*
%TO.C,PC42*%
X12231381Y87440925D02*
X13931381Y87440925D01*
X13931381Y84440925D01*
X12231381Y84440925D01*
X12231381Y87440925D01*
%TO.C,R6*%
X10057381Y78789925D02*
X13057381Y78789925D01*
X13057381Y77089925D01*
X10057381Y77089925D01*
X10057381Y78789925D01*
%TO.C,R8*%
X10057381Y79805925D02*
X13057381Y79805925D01*
X13057381Y78105925D01*
X10057381Y78105925D01*
X10057381Y79805925D01*
%TO.C,R43*%
X11342381Y93155925D02*
X13042381Y93155925D01*
X13042381Y90155925D01*
X11342381Y90155925D01*
X11342381Y93155925D01*
%TO.C,R4*%
X15279381Y87313925D02*
X16979381Y87313925D01*
X16979381Y84313925D01*
X15279381Y84313925D01*
X15279381Y87313925D01*
%TO.C,PC40*%
X14216467Y78479628D02*
X15916467Y78479628D01*
X15916467Y75479628D01*
X14216467Y75479628D01*
X14216467Y78479628D01*
%TO.C,PC26*%
X18058381Y81329925D02*
X21058381Y81329925D01*
X21058381Y79629925D01*
X18058381Y79629925D01*
X18058381Y81329925D01*
%TO.C,PC7*%
X18066839Y82329847D02*
X21066839Y82329847D01*
X21066839Y80629847D01*
X18066839Y80629847D01*
X18066839Y82329847D01*
%TO.C,PC9*%
X16216463Y84479844D02*
X17916463Y84479844D01*
X17916463Y81479844D01*
X16216463Y81479844D01*
X16216463Y84479844D01*
%TO.C,PC33*%
X15216465Y81480003D02*
X16916465Y81480003D01*
X16916465Y78480003D01*
X15216465Y78480003D01*
X15216465Y81480003D01*
%TO.C,PC34*%
X15216465Y83479465D02*
X16916465Y83479465D01*
X16916465Y80479465D01*
X15216465Y80479465D01*
X15216465Y83479465D01*
%TO.C,PC19*%
X17066460Y83329845D02*
X20066460Y83329845D01*
X20066460Y81629845D01*
X17066460Y81629845D01*
X17066460Y83329845D01*
%TO.C,PC11*%
X17066460Y85329841D02*
X20066460Y85329841D01*
X20066460Y83629841D01*
X17066460Y83629841D01*
X17066460Y85329841D01*
%TO.C,PC31*%
X18066458Y84329843D02*
X21066458Y84329843D01*
X21066458Y82629843D01*
X18066458Y82629843D01*
X18066458Y84329843D01*
%TO.C,PC22*%
X16066462Y82329847D02*
X19066462Y82329847D01*
X19066462Y80629847D01*
X16066462Y80629847D01*
X16066462Y82329847D01*
%TO.C,PC36*%
X17216461Y81480003D02*
X18916461Y81480003D01*
X18916461Y78480003D01*
X17216461Y78480003D01*
X17216461Y81480003D01*
%TO.C,PC28*%
X18216459Y80480386D02*
X19916459Y80480386D01*
X19916459Y77480386D01*
X18216459Y77480386D01*
X18216459Y80480386D01*
%TO.C,PC6*%
X18066458Y78330008D02*
X21066458Y78330008D01*
X21066458Y76630008D01*
X18066458Y76630008D01*
X18066458Y78330008D01*
%TO.C,PC23*%
X17216461Y79480007D02*
X18916461Y79480007D01*
X18916461Y76480007D01*
X17216461Y76480007D01*
X17216461Y79480007D01*
%TO.C,PC25*%
X15066464Y77330010D02*
X18066464Y77330010D01*
X18066464Y75630010D01*
X15066464Y75630010D01*
X15066464Y77330010D01*
%TO.C,PC38*%
X15216465Y79480007D02*
X16916465Y79480007D01*
X16916465Y76480007D01*
X15216465Y76480007D01*
X15216465Y79480007D01*
%TO.C,PC39*%
X14216467Y82479848D02*
X15916467Y82479848D01*
X15916467Y79479848D01*
X14216467Y79479848D01*
X14216467Y82479848D01*
%TO.C,R3*%
X14263381Y87313925D02*
X15963381Y87313925D01*
X15963381Y84313925D01*
X14263381Y84313925D01*
X14263381Y87313925D01*
%TO.C,PC10*%
X14066466Y84329843D02*
X17066466Y84329843D01*
X17066466Y82629843D01*
X14066466Y82629843D01*
X14066466Y84329843D01*
%TO.C,PC35*%
X16216463Y80480005D02*
X17916463Y80480005D01*
X17916463Y77480005D01*
X16216463Y77480005D01*
X16216463Y80480005D01*
%TO.C,R26*%
X12358381Y93155925D02*
X14058381Y93155925D01*
X14058381Y90155925D01*
X12358381Y90155925D01*
X12358381Y93155925D01*
%TO.C,R7*%
X13221981Y78474725D02*
X14921981Y78474725D01*
X14921981Y75474725D01*
X13221981Y75474725D01*
X13221981Y78474725D01*
%TO.C,R2*%
X13247381Y87313925D02*
X14947381Y87313925D01*
X14947381Y84313925D01*
X13247381Y84313925D01*
X13247381Y87313925D01*
%TO.C,R20*%
X13374381Y93155925D02*
X15074381Y93155925D01*
X15074381Y90155925D01*
X13374381Y90155925D01*
X13374381Y93155925D01*
%TO.C,R13*%
X14212581Y80481325D02*
X15912581Y80481325D01*
X15912581Y77481325D01*
X14212581Y77481325D01*
X14212581Y80481325D01*
%TO.C,PC14*%
X20216303Y83479465D02*
X21916303Y83479465D01*
X21916303Y80479465D01*
X20216303Y80479465D01*
X20216303Y83479465D01*
%TO.C,PC20*%
X20066454Y81330002D02*
X23066454Y81330002D01*
X23066454Y79630002D01*
X20066454Y79630002D01*
X20066454Y81330002D01*
%TO.C,PC8*%
X21216301Y83480227D02*
X22916301Y83480227D01*
X22916301Y80480227D01*
X21216301Y80480227D01*
X21216301Y83480227D01*
%TO.C,PC24*%
X21216301Y85479842D02*
X22916301Y85479842D01*
X22916301Y82479842D01*
X21216301Y82479842D01*
X21216301Y85479842D01*
%TO.C,PC44*%
X22066298Y85329841D02*
X25066298Y85329841D01*
X25066298Y83629841D01*
X22066298Y83629841D01*
X22066298Y85329841D01*
%TO.C,PC12*%
X22066298Y84329843D02*
X25066298Y84329843D01*
X25066298Y82629843D01*
X22066298Y82629843D01*
X22066298Y84329843D01*
%TO.C,PC5*%
X22066450Y81330002D02*
X25066450Y81330002D01*
X25066450Y79630002D01*
X22066450Y79630002D01*
X22066450Y81330002D01*
%TO.C,PC18*%
X23216297Y83479846D02*
X24916297Y83479846D01*
X24916297Y80479846D01*
X23216297Y80479846D01*
X23216297Y83479846D01*
%TO.C,PC17*%
X24216295Y83479846D02*
X25916295Y83479846D01*
X25916295Y80479846D01*
X24216295Y80479846D01*
X24216295Y83479846D01*
%TO.C,PC41*%
X26709381Y88329925D02*
X28409381Y88329925D01*
X28409381Y85329925D01*
X26709381Y85329925D01*
X26709381Y88329925D01*
%TO.C,R24*%
X29488381Y87806925D02*
X32488381Y87806925D01*
X32488381Y86106925D01*
X29488381Y86106925D01*
X29488381Y87806925D01*
%TO.C,R49*%
X29488381Y88797525D02*
X32488381Y88797525D01*
X32488381Y87097525D01*
X29488381Y87097525D01*
X29488381Y88797525D01*
%TO.C,R55*%
X29488381Y84758925D02*
X32488381Y84758925D01*
X32488381Y83058925D01*
X29488381Y83058925D01*
X29488381Y84758925D01*
%TO.C,R48*%
X29488381Y85774925D02*
X32488381Y85774925D01*
X32488381Y84074925D01*
X29488381Y84074925D01*
X29488381Y85774925D01*
%TO.C,R35*%
X29488381Y86790925D02*
X32488381Y86790925D01*
X32488381Y85090925D01*
X29488381Y85090925D01*
X29488381Y86790925D01*
%TO.C,R36*%
X29488381Y89813525D02*
X32488381Y89813525D01*
X32488381Y88113525D01*
X29488381Y88113525D01*
X29488381Y89813525D01*
%TO.C,R52*%
X29488381Y83742925D02*
X32488381Y83742925D01*
X32488381Y82042925D01*
X29488381Y82042925D01*
X29488381Y83742925D01*
%TO.C,R21*%
X29488381Y82726925D02*
X32488381Y82726925D01*
X32488381Y81026925D01*
X29488381Y81026925D01*
X29488381Y82726925D01*
%TO.C,R33*%
X29488381Y81710925D02*
X32488381Y81710925D01*
X32488381Y80010925D01*
X29488381Y80010925D01*
X29488381Y81710925D01*
%TO.C,R61*%
X28614381Y92901925D02*
X30314381Y92901925D01*
X30314381Y89901925D01*
X28614381Y89901925D01*
X28614381Y92901925D01*
%TO.C,R34*%
X29630381Y92901925D02*
X31330381Y92901925D01*
X31330381Y89901925D01*
X29630381Y89901925D01*
X29630381Y92901925D01*
%TO.C,R51*%
X29488381Y90804125D02*
X32488381Y90804125D01*
X32488381Y89104125D01*
X29488381Y89104125D01*
X29488381Y90804125D01*
%TO.C,R47*%
X30646381Y92901925D02*
X32346381Y92901925D01*
X32346381Y89901925D01*
X30646381Y89901925D01*
X30646381Y92901925D01*
%TO.C,R56*%
X24550381Y92901925D02*
X26250381Y92901925D01*
X26250381Y89901925D01*
X24550381Y89901925D01*
X24550381Y92901925D01*
%TO.C,R31*%
X25566381Y92901925D02*
X27266381Y92901925D01*
X27266381Y89901925D01*
X25566381Y89901925D01*
X25566381Y92901925D01*
%TO.C,R44*%
X26582381Y92901925D02*
X28282381Y92901925D01*
X28282381Y89901925D01*
X26582381Y89901925D01*
X26582381Y92901925D01*
%TO.C,R58*%
X27598381Y92901925D02*
X29298381Y92901925D01*
X29298381Y89901925D01*
X27598381Y89901925D01*
X27598381Y92901925D01*
%TO.C,PC47*%
X37581299Y69390381D02*
X39702619Y71511701D01*
X40904701Y70309619D01*
X38783381Y68188299D01*
X37581299Y69390381D01*
%TO.C,U15*%
X33061679Y74041000D02*
X36576000Y77555321D01*
X40090321Y74041000D01*
X36576000Y70526679D01*
X33061679Y74041000D01*
%TO.C,L1*%
X7771000Y20535000D02*
X10771000Y20535000D01*
X10771000Y18835000D01*
X7771000Y18835000D01*
X7771000Y20535000D01*
%TO.C,L2*%
X25312000Y26138000D02*
X27012000Y26138000D01*
X27012000Y23138000D01*
X25312000Y23138000D01*
X25312000Y26138000D01*
%TO.C,L5*%
X79653000Y78193000D02*
X82653000Y78193000D01*
X82653000Y76493000D01*
X79653000Y76493000D01*
X79653000Y78193000D01*
%TO.C,M4*%
X160340000Y25588000D02*
X162240000Y25588000D01*
X162240000Y23688000D01*
X160340000Y23688000D01*
X160340000Y25588000D01*
%TO.C,M5*%
X160340000Y95565000D02*
X162240000Y95565000D01*
X162240000Y93665000D01*
X160340000Y93665000D01*
X160340000Y95565000D01*
%TO.C,M6*%
X13401000Y98105000D02*
X15301000Y98105000D01*
X15301000Y96205000D01*
X13401000Y96205000D01*
X13401000Y98105000D01*
%TO.C,R129*%
X27090000Y16740000D02*
X28790000Y16740000D01*
X28790000Y13740000D01*
X27090000Y13740000D01*
X27090000Y16740000D01*
%TO.C,R135*%
X107608000Y12422000D02*
X109308000Y12422000D01*
X109308000Y9422000D01*
X107608000Y9422000D01*
X107608000Y12422000D01*
%TO.C,R136*%
X108624000Y12422000D02*
X110324000Y12422000D01*
X110324000Y9422000D01*
X108624000Y9422000D01*
X108624000Y12422000D01*
%TO.C,R137*%
X109640000Y12422000D02*
X111340000Y12422000D01*
X111340000Y9422000D01*
X109640000Y9422000D01*
X109640000Y12422000D01*
%TO.C,R139*%
X89177769Y77737047D02*
X92177769Y77737047D01*
X92177769Y76037047D01*
X89177769Y76037047D01*
X89177769Y77737047D01*
%TO.C,R141*%
X89178000Y78701000D02*
X92178000Y78701000D01*
X92178000Y77001000D01*
X89178000Y77001000D01*
X89178000Y78701000D01*
%TO.C,R149*%
X25058000Y16740000D02*
X26758000Y16740000D01*
X26758000Y13740000D01*
X25058000Y13740000D01*
X25058000Y16740000D01*
%TO.C,FB2*%
X107735000Y77954000D02*
X109435000Y77954000D01*
X109435000Y74954000D01*
X107735000Y74954000D01*
X107735000Y77954000D01*
%TO.C,FB3*%
X109767000Y77954000D02*
X111467000Y77954000D01*
X111467000Y74954000D01*
X109767000Y74954000D01*
X109767000Y77954000D01*
%TO.C,FB4*%
X111799000Y77954000D02*
X113499000Y77954000D01*
X113499000Y74954000D01*
X111799000Y74954000D01*
X111799000Y77954000D01*
%TO.C,Q7*%
X119186000Y14306000D02*
X122368000Y14306000D01*
X122368000Y11356000D01*
X119186000Y11356000D01*
X119186000Y14306000D01*
%TO.C,Q8*%
X143443000Y14052000D02*
X146625000Y14052000D01*
X146625000Y11102000D01*
X143443000Y11102000D01*
X143443000Y14052000D01*
%TO.C,R106*%
X117768000Y14454000D02*
X119468000Y14454000D01*
X119468000Y11454000D01*
X117768000Y11454000D01*
X117768000Y14454000D01*
%TO.C,R107*%
X142025000Y14454000D02*
X143725000Y14454000D01*
X143725000Y11454000D01*
X142025000Y11454000D01*
X142025000Y14454000D01*
%TO.C,R63*%
X7263000Y90766000D02*
X10263000Y90766000D01*
X10263000Y89066000D01*
X7263000Y89066000D01*
X7263000Y90766000D01*
%TO.C,R150*%
X7257034Y89838925D02*
X10257034Y89838925D01*
X10257034Y88138925D01*
X7257034Y88138925D01*
X7257034Y89838925D01*
%TO.C,Q1*%
X4130006Y91761000D02*
X7080006Y91761000D01*
X7080006Y88579000D01*
X4130006Y88579000D01*
X4130006Y91761000D01*
%TO.C,C212*%
X139908014Y70614474D02*
X141608014Y70614474D01*
X141608014Y67614474D01*
X139908014Y67614474D01*
X139908014Y70614474D01*
%TO.C,C213*%
X137416514Y55422974D02*
X140416514Y55422974D01*
X140416514Y53722974D01*
X137416514Y53722974D01*
X137416514Y55422974D01*
%TO.C,C214*%
X137416514Y57327974D02*
X140416514Y57327974D01*
X140416514Y55627974D01*
X137416514Y55627974D01*
X137416514Y57327974D01*
%TO.C,C215*%
X132542014Y70868474D02*
X134242014Y70868474D01*
X134242014Y67868474D01*
X132542014Y67868474D01*
X132542014Y70868474D01*
%TO.C,C216*%
X134828014Y70868474D02*
X136528014Y70868474D01*
X136528014Y67868474D01*
X134828014Y67868474D01*
X134828014Y70868474D01*
%TO.C,C217*%
X133479514Y57327974D02*
X136479514Y57327974D01*
X136479514Y55627974D01*
X133479514Y55627974D01*
X133479514Y57327974D01*
%TO.C,C218*%
X133479514Y55422974D02*
X136479514Y55422974D01*
X136479514Y53722974D01*
X133479514Y53722974D01*
X133479514Y55422974D01*
%TO.C,C219*%
X149251836Y70405102D02*
X150951836Y70405102D01*
X150951836Y67405102D01*
X149251836Y67405102D01*
X149251836Y70405102D01*
%TO.C,C220*%
X146687514Y55295974D02*
X149687514Y55295974D01*
X149687514Y53595974D01*
X146687514Y53595974D01*
X146687514Y55295974D01*
%TO.C,C221*%
X146687514Y57200974D02*
X149687514Y57200974D01*
X149687514Y55500974D01*
X146687514Y55500974D01*
X146687514Y57200974D01*
%TO.C,C222*%
X142194014Y70741474D02*
X143894014Y70741474D01*
X143894014Y67741474D01*
X142194014Y67741474D01*
X142194014Y70741474D01*
%TO.C,C223*%
X144353014Y70741474D02*
X146053014Y70741474D01*
X146053014Y67741474D01*
X144353014Y67741474D01*
X144353014Y70741474D01*
%TO.C,C224*%
X142750514Y57200974D02*
X145750514Y57200974D01*
X145750514Y55500974D01*
X142750514Y55500974D01*
X142750514Y57200974D01*
%TO.C,C225*%
X142750514Y55295974D02*
X145750514Y55295974D01*
X145750514Y53595974D01*
X142750514Y53595974D01*
X142750514Y55295974D01*
%TO.C,L6*%
X136098014Y63502474D02*
X137798014Y63502474D01*
X137798014Y60502474D01*
X136098014Y60502474D01*
X136098014Y63502474D01*
%TO.C,L7*%
X145623014Y63375474D02*
X147323014Y63375474D01*
X147323014Y60375474D01*
X145623014Y60375474D01*
X145623014Y63375474D01*
%TO.C,R151*%
X136606014Y73281474D02*
X138306014Y73281474D01*
X138306014Y70281474D01*
X136606014Y70281474D01*
X136606014Y73281474D01*
%TO.C,R152*%
X137622014Y73281474D02*
X139322014Y73281474D01*
X139322014Y70281474D01*
X137622014Y70281474D01*
X137622014Y73281474D01*
%TO.C,R153*%
X138638014Y73281474D02*
X140338014Y73281474D01*
X140338014Y70281474D01*
X138638014Y70281474D01*
X138638014Y73281474D01*
%TO.C,R154*%
X146258014Y73154474D02*
X147958014Y73154474D01*
X147958014Y70154474D01*
X146258014Y70154474D01*
X146258014Y73154474D01*
%TO.C,R155*%
X147274014Y73154474D02*
X148974014Y73154474D01*
X148974014Y70154474D01*
X147274014Y70154474D01*
X147274014Y73154474D01*
%TO.C,R156*%
X148282039Y73150385D02*
X149982039Y73150385D01*
X149982039Y70150385D01*
X148282039Y70150385D01*
X148282039Y73150385D01*
%TO.C,U16*%
X136510631Y70568146D02*
X140600631Y70568146D01*
X140600631Y66831746D01*
X136510631Y66831746D01*
X136510631Y70568146D01*
%TO.C,U17*%
X145817039Y70371144D02*
X149907039Y70371144D01*
X149907039Y66634744D01*
X145817039Y66634744D01*
X145817039Y70371144D01*
%TO.C,FB5*%
X57189000Y19788000D02*
X58889000Y19788000D01*
X58889000Y16788000D01*
X57189000Y16788000D01*
X57189000Y19788000D01*
%TO.C,FB6*%
X55157000Y19788000D02*
X56857000Y19788000D01*
X56857000Y16788000D01*
X55157000Y16788000D01*
X55157000Y19788000D01*
%TO.C,R157*%
X58713000Y19661000D02*
X60413000Y19661000D01*
X60413000Y16661000D01*
X58713000Y16661000D01*
X58713000Y19661000D01*
%TO.C,D3*%
X35980000Y22709000D02*
X37680000Y22709000D01*
X37680000Y19709000D01*
X35980000Y19709000D01*
X35980000Y22709000D01*
%TO.C,D4*%
X34329000Y22709000D02*
X36029000Y22709000D01*
X36029000Y19709000D01*
X34329000Y19709000D01*
X34329000Y22709000D01*
%TO.C,L3*%
X99973000Y14185000D02*
X102973000Y14185000D01*
X102973000Y12485000D01*
X99973000Y12485000D01*
X99973000Y14185000D01*
%TO.C,LED1*%
X1839200Y91661514D02*
X3539200Y91661514D01*
X3539200Y88661514D01*
X1839200Y88661514D01*
X1839200Y91661514D01*
%TO.C,LED3*%
X157341001Y34571888D02*
X160341001Y34571888D01*
X160341001Y32871888D01*
X157341001Y32871888D01*
X157341001Y34571888D01*
%TO.C,LED5*%
X157341001Y67210888D02*
X160341001Y67210888D01*
X160341001Y65510888D01*
X157341001Y65510888D01*
X157341001Y67210888D01*
%TO.C,LED7*%
X157341001Y46001888D02*
X160341001Y46001888D01*
X160341001Y44301888D01*
X157341001Y44301888D01*
X157341001Y46001888D01*
%TO.C,LED9*%
X157468001Y52732888D02*
X160468001Y52732888D01*
X160468001Y51032888D01*
X157468001Y51032888D01*
X157468001Y52732888D01*
%TO.C,LED11*%
X157468001Y82831888D02*
X160468001Y82831888D01*
X160468001Y81131888D01*
X157468001Y81131888D01*
X157468001Y82831888D01*
%TO.C,LED13*%
X157468001Y90578888D02*
X160468001Y90578888D01*
X160468001Y88878888D01*
X157468001Y88878888D01*
X157468001Y90578888D01*
%TO.C,LED14*%
X133628000Y99529000D02*
X136628000Y99529000D01*
X136628000Y97829000D01*
X133628000Y97829000D01*
X133628000Y99529000D01*
%TO.C,LED15*%
X144296000Y99529000D02*
X147296000Y99529000D01*
X147296000Y97829000D01*
X144296000Y97829000D01*
X144296000Y99529000D01*
%TO.C,LED16*%
X67842000Y97116000D02*
X70842000Y97116000D01*
X70842000Y95416000D01*
X67842000Y95416000D01*
X67842000Y97116000D01*
%TO.C,LED17*%
X51681250Y99910000D02*
X54681250Y99910000D01*
X54681250Y98210000D01*
X51681250Y98210000D01*
X51681250Y99910000D01*
%TO.C,LED18*%
X51776500Y97116000D02*
X54776500Y97116000D01*
X54776500Y95416000D01*
X51776500Y95416000D01*
X51776500Y97116000D01*
%TO.C,LED19*%
X35742750Y99910000D02*
X38742750Y99910000D01*
X38742750Y98210000D01*
X35742750Y98210000D01*
X35742750Y99910000D01*
%TO.C,LED20*%
X35584000Y97116000D02*
X38584000Y97116000D01*
X38584000Y95416000D01*
X35584000Y95416000D01*
X35584000Y97116000D01*
%TO.C,LED21*%
X100354000Y99910000D02*
X103354000Y99910000D01*
X103354000Y98210000D01*
X100354000Y98210000D01*
X100354000Y99910000D01*
%TO.C,LED22*%
X100354000Y97116000D02*
X103354000Y97116000D01*
X103354000Y95416000D01*
X100354000Y95416000D01*
X100354000Y97116000D01*
%TO.C,LED23*%
X84161500Y99910000D02*
X87161500Y99910000D01*
X87161500Y98210000D01*
X84161500Y98210000D01*
X84161500Y99910000D01*
%TO.C,LED24*%
X84002750Y97116000D02*
X87002750Y97116000D01*
X87002750Y95416000D01*
X84002750Y95416000D01*
X84002750Y97116000D01*
%TO.C,LED25*%
X67842000Y99910000D02*
X70842000Y99910000D01*
X70842000Y98210000D01*
X67842000Y98210000D01*
X67842000Y99910000D01*
%TD*%
M02*
