%TF.GenerationSoftware,KiCad,Pcbnew,10.99.0-unknown*%
%TF.CreationDate,2026-08-12T15:26:35+08:00*%
%TF.ProjectId,All_in_one_________,416c6c5f-696e-45f6-9f6e-650da1680908,rev?*%
%TF.SameCoordinates,Original*%
%TF.FileFunction,Legend,Top*%
%TF.FilePolarity,Positive*%
%FSLAX46Y46*%
G04 Gerber Fmt 4.6, Leading zero omitted, Abs format (unit mm)*
G04 Created by KiCad (PCBNEW 10.99.0-unknown) date 2026-08-12 15:26:35*
%MOMM*%
%LPD*%
G01*
G04 APERTURE LIST*
%ADD10C,0.203200*%
%ADD11C,0.152000*%
%ADD12C,0.120000*%
G04 APERTURE END LIST*
D10*
X119579571Y84579504D02*
X119579571Y87627504D01*
X119579571Y87627504D02*
X120595571Y85450361D01*
X120595571Y85450361D02*
X121611571Y87627504D01*
X121611571Y87627504D02*
X121611571Y84579504D01*
X123063000Y84869789D02*
X123208143Y84724647D01*
X123208143Y84724647D02*
X123063000Y84579504D01*
X123063000Y84579504D02*
X122917857Y84724647D01*
X122917857Y84724647D02*
X123063000Y84869789D01*
X123063000Y84869789D02*
X123063000Y84579504D01*
X124369286Y87337218D02*
X124514429Y87482361D01*
X124514429Y87482361D02*
X124804715Y87627504D01*
X124804715Y87627504D02*
X125530429Y87627504D01*
X125530429Y87627504D02*
X125820715Y87482361D01*
X125820715Y87482361D02*
X125965857Y87337218D01*
X125965857Y87337218D02*
X126111000Y87046932D01*
X126111000Y87046932D02*
X126111000Y86756647D01*
X126111000Y86756647D02*
X125965857Y86321218D01*
X125965857Y86321218D02*
X124224143Y84579504D01*
X124224143Y84579504D02*
X126111000Y84579504D01*
X127417286Y85740647D02*
X129739572Y85740647D01*
X132787571Y84579504D02*
X131045857Y84579504D01*
X131916714Y84579504D02*
X131916714Y87627504D01*
X131916714Y87627504D02*
X131626428Y87192075D01*
X131626428Y87192075D02*
X131336143Y86901789D01*
X131336143Y86901789D02*
X131045857Y86756647D01*
X143328571Y84833504D02*
X143328571Y87881504D01*
X143328571Y87881504D02*
X144344571Y85704361D01*
X144344571Y85704361D02*
X145360571Y87881504D01*
X145360571Y87881504D02*
X145360571Y84833504D01*
X146812000Y85123789D02*
X146957143Y84978647D01*
X146957143Y84978647D02*
X146812000Y84833504D01*
X146812000Y84833504D02*
X146666857Y84978647D01*
X146666857Y84978647D02*
X146812000Y85123789D01*
X146812000Y85123789D02*
X146812000Y84833504D01*
X148118286Y87591218D02*
X148263429Y87736361D01*
X148263429Y87736361D02*
X148553715Y87881504D01*
X148553715Y87881504D02*
X149279429Y87881504D01*
X149279429Y87881504D02*
X149569715Y87736361D01*
X149569715Y87736361D02*
X149714857Y87591218D01*
X149714857Y87591218D02*
X149860000Y87300932D01*
X149860000Y87300932D02*
X149860000Y87010647D01*
X149860000Y87010647D02*
X149714857Y86575218D01*
X149714857Y86575218D02*
X147973143Y84833504D01*
X147973143Y84833504D02*
X149860000Y84833504D01*
X151166286Y85994647D02*
X153488572Y85994647D01*
X154794857Y87591218D02*
X154940000Y87736361D01*
X154940000Y87736361D02*
X155230286Y87881504D01*
X155230286Y87881504D02*
X155956000Y87881504D01*
X155956000Y87881504D02*
X156246286Y87736361D01*
X156246286Y87736361D02*
X156391428Y87591218D01*
X156391428Y87591218D02*
X156536571Y87300932D01*
X156536571Y87300932D02*
X156536571Y87010647D01*
X156536571Y87010647D02*
X156391428Y86575218D01*
X156391428Y86575218D02*
X154649714Y84833504D01*
X154649714Y84833504D02*
X156536571Y84833504D01*
X111372952Y97855812D02*
X111572523Y97789288D01*
X111572523Y97789288D02*
X111905142Y97789288D01*
X111905142Y97789288D02*
X112038190Y97855812D01*
X112038190Y97855812D02*
X112104714Y97922335D01*
X112104714Y97922335D02*
X112171237Y98055383D01*
X112171237Y98055383D02*
X112171237Y98188431D01*
X112171237Y98188431D02*
X112104714Y98321478D01*
X112104714Y98321478D02*
X112038190Y98388002D01*
X112038190Y98388002D02*
X111905142Y98454526D01*
X111905142Y98454526D02*
X111639047Y98521050D01*
X111639047Y98521050D02*
X111505999Y98587573D01*
X111505999Y98587573D02*
X111439476Y98654097D01*
X111439476Y98654097D02*
X111372952Y98787145D01*
X111372952Y98787145D02*
X111372952Y98920192D01*
X111372952Y98920192D02*
X111439476Y99053240D01*
X111439476Y99053240D02*
X111505999Y99119764D01*
X111505999Y99119764D02*
X111639047Y99186288D01*
X111639047Y99186288D02*
X111971666Y99186288D01*
X111971666Y99186288D02*
X112171237Y99119764D01*
X112703428Y98188431D02*
X113368666Y98188431D01*
X112570380Y97789288D02*
X113036047Y99186288D01*
X113036047Y99186288D02*
X113501713Y97789288D01*
X113767809Y99186288D02*
X114566095Y99186288D01*
X114166952Y97789288D02*
X114166952Y99186288D01*
X114965238Y98188431D02*
X115630476Y98188431D01*
X114832190Y97789288D02*
X115297857Y99186288D01*
X115297857Y99186288D02*
X115763523Y97789288D01*
X116960952Y97789288D02*
X116162667Y97789288D01*
X116561810Y97789288D02*
X116561810Y99186288D01*
X116561810Y99186288D02*
X116428762Y98986716D01*
X116428762Y98986716D02*
X116295714Y98853669D01*
X116295714Y98853669D02*
X116162667Y98787145D01*
X117559667Y98321478D02*
X118624048Y98321478D01*
X120021047Y97789288D02*
X119222762Y97789288D01*
X119621905Y97789288D02*
X119621905Y99186288D01*
X119621905Y99186288D02*
X119488857Y98986716D01*
X119488857Y98986716D02*
X119355809Y98853669D01*
X119355809Y98853669D02*
X119222762Y98787145D01*
X111372952Y96659512D02*
X111572523Y96592988D01*
X111572523Y96592988D02*
X111905142Y96592988D01*
X111905142Y96592988D02*
X112038190Y96659512D01*
X112038190Y96659512D02*
X112104714Y96726035D01*
X112104714Y96726035D02*
X112171237Y96859083D01*
X112171237Y96859083D02*
X112171237Y96992131D01*
X112171237Y96992131D02*
X112104714Y97125178D01*
X112104714Y97125178D02*
X112038190Y97191702D01*
X112038190Y97191702D02*
X111905142Y97258226D01*
X111905142Y97258226D02*
X111639047Y97324750D01*
X111639047Y97324750D02*
X111505999Y97391273D01*
X111505999Y97391273D02*
X111439476Y97457797D01*
X111439476Y97457797D02*
X111372952Y97590845D01*
X111372952Y97590845D02*
X111372952Y97723892D01*
X111372952Y97723892D02*
X111439476Y97856940D01*
X111439476Y97856940D02*
X111505999Y97923464D01*
X111505999Y97923464D02*
X111639047Y97989988D01*
X111639047Y97989988D02*
X111971666Y97989988D01*
X111971666Y97989988D02*
X112171237Y97923464D01*
X112703428Y96992131D02*
X113368666Y96992131D01*
X112570380Y96592988D02*
X113036047Y97989988D01*
X113036047Y97989988D02*
X113501713Y96592988D01*
X113767809Y97989988D02*
X114566095Y97989988D01*
X114166952Y96592988D02*
X114166952Y97989988D01*
X114965238Y96992131D02*
X115630476Y96992131D01*
X114832190Y96592988D02*
X115297857Y97989988D01*
X115297857Y97989988D02*
X115763523Y96592988D01*
X116960952Y96592988D02*
X116162667Y96592988D01*
X116561810Y96592988D02*
X116561810Y97989988D01*
X116561810Y97989988D02*
X116428762Y97790416D01*
X116428762Y97790416D02*
X116295714Y97657369D01*
X116295714Y97657369D02*
X116162667Y97590845D01*
X117559667Y97125178D02*
X118624048Y97125178D01*
X119222762Y97856940D02*
X119289286Y97923464D01*
X119289286Y97923464D02*
X119422333Y97989988D01*
X119422333Y97989988D02*
X119754952Y97989988D01*
X119754952Y97989988D02*
X119888000Y97923464D01*
X119888000Y97923464D02*
X119954524Y97856940D01*
X119954524Y97856940D02*
X120021047Y97723892D01*
X120021047Y97723892D02*
X120021047Y97590845D01*
X120021047Y97590845D02*
X119954524Y97391273D01*
X119954524Y97391273D02*
X119156238Y96592988D01*
X119156238Y96592988D02*
X120021047Y96592988D01*
X116604452Y96737612D02*
X116804023Y96671088D01*
X116804023Y96671088D02*
X117136642Y96671088D01*
X117136642Y96671088D02*
X117269690Y96737612D01*
X117269690Y96737612D02*
X117336214Y96804135D01*
X117336214Y96804135D02*
X117402737Y96937183D01*
X117402737Y96937183D02*
X117402737Y97070231D01*
X117402737Y97070231D02*
X117336214Y97203278D01*
X117336214Y97203278D02*
X117269690Y97269802D01*
X117269690Y97269802D02*
X117136642Y97336326D01*
X117136642Y97336326D02*
X116870547Y97402850D01*
X116870547Y97402850D02*
X116737499Y97469373D01*
X116737499Y97469373D02*
X116670976Y97535897D01*
X116670976Y97535897D02*
X116604452Y97668945D01*
X116604452Y97668945D02*
X116604452Y97801992D01*
X116604452Y97801992D02*
X116670976Y97935040D01*
X116670976Y97935040D02*
X116737499Y98001564D01*
X116737499Y98001564D02*
X116870547Y98068088D01*
X116870547Y98068088D02*
X117203166Y98068088D01*
X117203166Y98068088D02*
X117402737Y98001564D01*
X117934928Y97070231D02*
X118600166Y97070231D01*
X117801880Y96671088D02*
X118267547Y98068088D01*
X118267547Y98068088D02*
X118733213Y96671088D01*
X118999309Y98068088D02*
X119797595Y98068088D01*
X119398452Y96671088D02*
X119398452Y98068088D01*
X120196738Y97070231D02*
X120861976Y97070231D01*
X120063690Y96671088D02*
X120529357Y98068088D01*
X120529357Y98068088D02*
X120995023Y96671088D01*
X122192452Y96671088D02*
X121394167Y96671088D01*
X121793310Y96671088D02*
X121793310Y98068088D01*
X121793310Y98068088D02*
X121660262Y97868516D01*
X121660262Y97868516D02*
X121527214Y97735469D01*
X121527214Y97735469D02*
X121394167Y97668945D01*
X122791167Y97203278D02*
X123855548Y97203278D01*
X125119500Y97602421D02*
X125119500Y96671088D01*
X124786881Y98134612D02*
X124454262Y97136754D01*
X124454262Y97136754D02*
X125319071Y97136754D01*
X116595152Y97929512D02*
X116794723Y97862988D01*
X116794723Y97862988D02*
X117127342Y97862988D01*
X117127342Y97862988D02*
X117260390Y97929512D01*
X117260390Y97929512D02*
X117326914Y97996035D01*
X117326914Y97996035D02*
X117393437Y98129083D01*
X117393437Y98129083D02*
X117393437Y98262131D01*
X117393437Y98262131D02*
X117326914Y98395178D01*
X117326914Y98395178D02*
X117260390Y98461702D01*
X117260390Y98461702D02*
X117127342Y98528226D01*
X117127342Y98528226D02*
X116861247Y98594750D01*
X116861247Y98594750D02*
X116728199Y98661273D01*
X116728199Y98661273D02*
X116661676Y98727797D01*
X116661676Y98727797D02*
X116595152Y98860845D01*
X116595152Y98860845D02*
X116595152Y98993892D01*
X116595152Y98993892D02*
X116661676Y99126940D01*
X116661676Y99126940D02*
X116728199Y99193464D01*
X116728199Y99193464D02*
X116861247Y99259988D01*
X116861247Y99259988D02*
X117193866Y99259988D01*
X117193866Y99259988D02*
X117393437Y99193464D01*
X117925628Y98262131D02*
X118590866Y98262131D01*
X117792580Y97862988D02*
X118258247Y99259988D01*
X118258247Y99259988D02*
X118723913Y97862988D01*
X118990009Y99259988D02*
X119788295Y99259988D01*
X119389152Y97862988D02*
X119389152Y99259988D01*
X120187438Y98262131D02*
X120852676Y98262131D01*
X120054390Y97862988D02*
X120520057Y99259988D01*
X120520057Y99259988D02*
X120985723Y97862988D01*
X122183152Y97862988D02*
X121384867Y97862988D01*
X121784010Y97862988D02*
X121784010Y99259988D01*
X121784010Y99259988D02*
X121650962Y99060416D01*
X121650962Y99060416D02*
X121517914Y98927369D01*
X121517914Y98927369D02*
X121384867Y98860845D01*
X122781867Y98395178D02*
X123846248Y98395178D01*
X124378438Y99259988D02*
X125243247Y99259988D01*
X125243247Y99259988D02*
X124777581Y98727797D01*
X124777581Y98727797D02*
X124977152Y98727797D01*
X124977152Y98727797D02*
X125110200Y98661273D01*
X125110200Y98661273D02*
X125176724Y98594750D01*
X125176724Y98594750D02*
X125243247Y98461702D01*
X125243247Y98461702D02*
X125243247Y98129083D01*
X125243247Y98129083D02*
X125176724Y97996035D01*
X125176724Y97996035D02*
X125110200Y97929512D01*
X125110200Y97929512D02*
X124977152Y97862988D01*
X124977152Y97862988D02*
X124578009Y97862988D01*
X124578009Y97862988D02*
X124444962Y97929512D01*
X124444962Y97929512D02*
X124378438Y97996035D01*
X121979952Y97880612D02*
X122179523Y97814088D01*
X122179523Y97814088D02*
X122512142Y97814088D01*
X122512142Y97814088D02*
X122645190Y97880612D01*
X122645190Y97880612D02*
X122711714Y97947135D01*
X122711714Y97947135D02*
X122778237Y98080183D01*
X122778237Y98080183D02*
X122778237Y98213231D01*
X122778237Y98213231D02*
X122711714Y98346278D01*
X122711714Y98346278D02*
X122645190Y98412802D01*
X122645190Y98412802D02*
X122512142Y98479326D01*
X122512142Y98479326D02*
X122246047Y98545850D01*
X122246047Y98545850D02*
X122112999Y98612373D01*
X122112999Y98612373D02*
X122046476Y98678897D01*
X122046476Y98678897D02*
X121979952Y98811945D01*
X121979952Y98811945D02*
X121979952Y98944992D01*
X121979952Y98944992D02*
X122046476Y99078040D01*
X122046476Y99078040D02*
X122112999Y99144564D01*
X122112999Y99144564D02*
X122246047Y99211088D01*
X122246047Y99211088D02*
X122578666Y99211088D01*
X122578666Y99211088D02*
X122778237Y99144564D01*
X123310428Y98213231D02*
X123975666Y98213231D01*
X123177380Y97814088D02*
X123643047Y99211088D01*
X123643047Y99211088D02*
X124108713Y97814088D01*
X124374809Y99211088D02*
X125173095Y99211088D01*
X124773952Y97814088D02*
X124773952Y99211088D01*
X125572238Y98213231D02*
X126237476Y98213231D01*
X125439190Y97814088D02*
X125904857Y99211088D01*
X125904857Y99211088D02*
X126370523Y97814088D01*
X127567952Y97814088D02*
X126769667Y97814088D01*
X127168810Y97814088D02*
X127168810Y99211088D01*
X127168810Y99211088D02*
X127035762Y99011516D01*
X127035762Y99011516D02*
X126902714Y98878469D01*
X126902714Y98878469D02*
X126769667Y98811945D01*
X128166667Y98346278D02*
X129231048Y98346278D01*
X130561524Y99211088D02*
X129896286Y99211088D01*
X129896286Y99211088D02*
X129829762Y98545850D01*
X129829762Y98545850D02*
X129896286Y98612373D01*
X129896286Y98612373D02*
X130029333Y98678897D01*
X130029333Y98678897D02*
X130361952Y98678897D01*
X130361952Y98678897D02*
X130495000Y98612373D01*
X130495000Y98612373D02*
X130561524Y98545850D01*
X130561524Y98545850D02*
X130628047Y98412802D01*
X130628047Y98412802D02*
X130628047Y98080183D01*
X130628047Y98080183D02*
X130561524Y97947135D01*
X130561524Y97947135D02*
X130495000Y97880612D01*
X130495000Y97880612D02*
X130361952Y97814088D01*
X130361952Y97814088D02*
X130029333Y97814088D01*
X130029333Y97814088D02*
X129896286Y97880612D01*
X129896286Y97880612D02*
X129829762Y97947135D01*
X121979952Y96659512D02*
X122179523Y96592988D01*
X122179523Y96592988D02*
X122512142Y96592988D01*
X122512142Y96592988D02*
X122645190Y96659512D01*
X122645190Y96659512D02*
X122711714Y96726035D01*
X122711714Y96726035D02*
X122778237Y96859083D01*
X122778237Y96859083D02*
X122778237Y96992131D01*
X122778237Y96992131D02*
X122711714Y97125178D01*
X122711714Y97125178D02*
X122645190Y97191702D01*
X122645190Y97191702D02*
X122512142Y97258226D01*
X122512142Y97258226D02*
X122246047Y97324750D01*
X122246047Y97324750D02*
X122112999Y97391273D01*
X122112999Y97391273D02*
X122046476Y97457797D01*
X122046476Y97457797D02*
X121979952Y97590845D01*
X121979952Y97590845D02*
X121979952Y97723892D01*
X121979952Y97723892D02*
X122046476Y97856940D01*
X122046476Y97856940D02*
X122112999Y97923464D01*
X122112999Y97923464D02*
X122246047Y97989988D01*
X122246047Y97989988D02*
X122578666Y97989988D01*
X122578666Y97989988D02*
X122778237Y97923464D01*
X123310428Y96992131D02*
X123975666Y96992131D01*
X123177380Y96592988D02*
X123643047Y97989988D01*
X123643047Y97989988D02*
X124108713Y96592988D01*
X124374809Y97989988D02*
X125173095Y97989988D01*
X124773952Y96592988D02*
X124773952Y97989988D01*
X125572238Y96992131D02*
X126237476Y96992131D01*
X125439190Y96592988D02*
X125904857Y97989988D01*
X125904857Y97989988D02*
X126370523Y96592988D01*
X126769667Y97856940D02*
X126836191Y97923464D01*
X126836191Y97923464D02*
X126969238Y97989988D01*
X126969238Y97989988D02*
X127301857Y97989988D01*
X127301857Y97989988D02*
X127434905Y97923464D01*
X127434905Y97923464D02*
X127501429Y97856940D01*
X127501429Y97856940D02*
X127567952Y97723892D01*
X127567952Y97723892D02*
X127567952Y97590845D01*
X127567952Y97590845D02*
X127501429Y97391273D01*
X127501429Y97391273D02*
X126703143Y96592988D01*
X126703143Y96592988D02*
X127567952Y96592988D01*
X128166667Y97125178D02*
X129231048Y97125178D01*
X130628047Y96592988D02*
X129829762Y96592988D01*
X130228905Y96592988D02*
X130228905Y97989988D01*
X130228905Y97989988D02*
X130095857Y97790416D01*
X130095857Y97790416D02*
X129962809Y97657369D01*
X129962809Y97657369D02*
X129829762Y97590845D01*
X127263152Y96659512D02*
X127462723Y96592988D01*
X127462723Y96592988D02*
X127795342Y96592988D01*
X127795342Y96592988D02*
X127928390Y96659512D01*
X127928390Y96659512D02*
X127994914Y96726035D01*
X127994914Y96726035D02*
X128061437Y96859083D01*
X128061437Y96859083D02*
X128061437Y96992131D01*
X128061437Y96992131D02*
X127994914Y97125178D01*
X127994914Y97125178D02*
X127928390Y97191702D01*
X127928390Y97191702D02*
X127795342Y97258226D01*
X127795342Y97258226D02*
X127529247Y97324750D01*
X127529247Y97324750D02*
X127396199Y97391273D01*
X127396199Y97391273D02*
X127329676Y97457797D01*
X127329676Y97457797D02*
X127263152Y97590845D01*
X127263152Y97590845D02*
X127263152Y97723892D01*
X127263152Y97723892D02*
X127329676Y97856940D01*
X127329676Y97856940D02*
X127396199Y97923464D01*
X127396199Y97923464D02*
X127529247Y97989988D01*
X127529247Y97989988D02*
X127861866Y97989988D01*
X127861866Y97989988D02*
X128061437Y97923464D01*
X128593628Y96992131D02*
X129258866Y96992131D01*
X128460580Y96592988D02*
X128926247Y97989988D01*
X128926247Y97989988D02*
X129391913Y96592988D01*
X129658009Y97989988D02*
X130456295Y97989988D01*
X130057152Y96592988D02*
X130057152Y97989988D01*
X130855438Y96992131D02*
X131520676Y96992131D01*
X130722390Y96592988D02*
X131188057Y97989988D01*
X131188057Y97989988D02*
X131653723Y96592988D01*
X132052867Y97856940D02*
X132119391Y97923464D01*
X132119391Y97923464D02*
X132252438Y97989988D01*
X132252438Y97989988D02*
X132585057Y97989988D01*
X132585057Y97989988D02*
X132718105Y97923464D01*
X132718105Y97923464D02*
X132784629Y97856940D01*
X132784629Y97856940D02*
X132851152Y97723892D01*
X132851152Y97723892D02*
X132851152Y97590845D01*
X132851152Y97590845D02*
X132784629Y97391273D01*
X132784629Y97391273D02*
X131986343Y96592988D01*
X131986343Y96592988D02*
X132851152Y96592988D01*
X133449867Y97125178D02*
X134514248Y97125178D01*
X135046438Y97989988D02*
X135911247Y97989988D01*
X135911247Y97989988D02*
X135445581Y97457797D01*
X135445581Y97457797D02*
X135645152Y97457797D01*
X135645152Y97457797D02*
X135778200Y97391273D01*
X135778200Y97391273D02*
X135844724Y97324750D01*
X135844724Y97324750D02*
X135911247Y97191702D01*
X135911247Y97191702D02*
X135911247Y96859083D01*
X135911247Y96859083D02*
X135844724Y96726035D01*
X135844724Y96726035D02*
X135778200Y96659512D01*
X135778200Y96659512D02*
X135645152Y96592988D01*
X135645152Y96592988D02*
X135246009Y96592988D01*
X135246009Y96592988D02*
X135112962Y96659512D01*
X135112962Y96659512D02*
X135046438Y96726035D01*
X127280552Y97880612D02*
X127480123Y97814088D01*
X127480123Y97814088D02*
X127812742Y97814088D01*
X127812742Y97814088D02*
X127945790Y97880612D01*
X127945790Y97880612D02*
X128012314Y97947135D01*
X128012314Y97947135D02*
X128078837Y98080183D01*
X128078837Y98080183D02*
X128078837Y98213231D01*
X128078837Y98213231D02*
X128012314Y98346278D01*
X128012314Y98346278D02*
X127945790Y98412802D01*
X127945790Y98412802D02*
X127812742Y98479326D01*
X127812742Y98479326D02*
X127546647Y98545850D01*
X127546647Y98545850D02*
X127413599Y98612373D01*
X127413599Y98612373D02*
X127347076Y98678897D01*
X127347076Y98678897D02*
X127280552Y98811945D01*
X127280552Y98811945D02*
X127280552Y98944992D01*
X127280552Y98944992D02*
X127347076Y99078040D01*
X127347076Y99078040D02*
X127413599Y99144564D01*
X127413599Y99144564D02*
X127546647Y99211088D01*
X127546647Y99211088D02*
X127879266Y99211088D01*
X127879266Y99211088D02*
X128078837Y99144564D01*
X128611028Y98213231D02*
X129276266Y98213231D01*
X128477980Y97814088D02*
X128943647Y99211088D01*
X128943647Y99211088D02*
X129409313Y97814088D01*
X129675409Y99211088D02*
X130473695Y99211088D01*
X130074552Y97814088D02*
X130074552Y99211088D01*
X130872838Y98213231D02*
X131538076Y98213231D01*
X130739790Y97814088D02*
X131205457Y99211088D01*
X131205457Y99211088D02*
X131671123Y97814088D01*
X132070267Y99078040D02*
X132136791Y99144564D01*
X132136791Y99144564D02*
X132269838Y99211088D01*
X132269838Y99211088D02*
X132602457Y99211088D01*
X132602457Y99211088D02*
X132735505Y99144564D01*
X132735505Y99144564D02*
X132802029Y99078040D01*
X132802029Y99078040D02*
X132868552Y98944992D01*
X132868552Y98944992D02*
X132868552Y98811945D01*
X132868552Y98811945D02*
X132802029Y98612373D01*
X132802029Y98612373D02*
X132003743Y97814088D01*
X132003743Y97814088D02*
X132868552Y97814088D01*
X133467267Y98346278D02*
X134531648Y98346278D01*
X135130362Y99078040D02*
X135196886Y99144564D01*
X135196886Y99144564D02*
X135329933Y99211088D01*
X135329933Y99211088D02*
X135662552Y99211088D01*
X135662552Y99211088D02*
X135795600Y99144564D01*
X135795600Y99144564D02*
X135862124Y99078040D01*
X135862124Y99078040D02*
X135928647Y98944992D01*
X135928647Y98944992D02*
X135928647Y98811945D01*
X135928647Y98811945D02*
X135862124Y98612373D01*
X135862124Y98612373D02*
X135063838Y97814088D01*
X135063838Y97814088D02*
X135928647Y97814088D01*
X132724152Y96659512D02*
X132923723Y96592988D01*
X132923723Y96592988D02*
X133256342Y96592988D01*
X133256342Y96592988D02*
X133389390Y96659512D01*
X133389390Y96659512D02*
X133455914Y96726035D01*
X133455914Y96726035D02*
X133522437Y96859083D01*
X133522437Y96859083D02*
X133522437Y96992131D01*
X133522437Y96992131D02*
X133455914Y97125178D01*
X133455914Y97125178D02*
X133389390Y97191702D01*
X133389390Y97191702D02*
X133256342Y97258226D01*
X133256342Y97258226D02*
X132990247Y97324750D01*
X132990247Y97324750D02*
X132857199Y97391273D01*
X132857199Y97391273D02*
X132790676Y97457797D01*
X132790676Y97457797D02*
X132724152Y97590845D01*
X132724152Y97590845D02*
X132724152Y97723892D01*
X132724152Y97723892D02*
X132790676Y97856940D01*
X132790676Y97856940D02*
X132857199Y97923464D01*
X132857199Y97923464D02*
X132990247Y97989988D01*
X132990247Y97989988D02*
X133322866Y97989988D01*
X133322866Y97989988D02*
X133522437Y97923464D01*
X134054628Y96992131D02*
X134719866Y96992131D01*
X133921580Y96592988D02*
X134387247Y97989988D01*
X134387247Y97989988D02*
X134852913Y96592988D01*
X135119009Y97989988D02*
X135917295Y97989988D01*
X135518152Y96592988D02*
X135518152Y97989988D01*
X136316438Y96992131D02*
X136981676Y96992131D01*
X136183390Y96592988D02*
X136649057Y97989988D01*
X136649057Y97989988D02*
X137114723Y96592988D01*
X137513867Y97856940D02*
X137580391Y97923464D01*
X137580391Y97923464D02*
X137713438Y97989988D01*
X137713438Y97989988D02*
X138046057Y97989988D01*
X138046057Y97989988D02*
X138179105Y97923464D01*
X138179105Y97923464D02*
X138245629Y97856940D01*
X138245629Y97856940D02*
X138312152Y97723892D01*
X138312152Y97723892D02*
X138312152Y97590845D01*
X138312152Y97590845D02*
X138245629Y97391273D01*
X138245629Y97391273D02*
X137447343Y96592988D01*
X137447343Y96592988D02*
X138312152Y96592988D01*
X138910867Y97125178D02*
X139975248Y97125178D01*
X141305724Y97989988D02*
X140640486Y97989988D01*
X140640486Y97989988D02*
X140573962Y97324750D01*
X140573962Y97324750D02*
X140640486Y97391273D01*
X140640486Y97391273D02*
X140773533Y97457797D01*
X140773533Y97457797D02*
X141106152Y97457797D01*
X141106152Y97457797D02*
X141239200Y97391273D01*
X141239200Y97391273D02*
X141305724Y97324750D01*
X141305724Y97324750D02*
X141372247Y97191702D01*
X141372247Y97191702D02*
X141372247Y96859083D01*
X141372247Y96859083D02*
X141305724Y96726035D01*
X141305724Y96726035D02*
X141239200Y96659512D01*
X141239200Y96659512D02*
X141106152Y96592988D01*
X141106152Y96592988D02*
X140773533Y96592988D01*
X140773533Y96592988D02*
X140640486Y96659512D01*
X140640486Y96659512D02*
X140573962Y96726035D01*
X132724152Y97929512D02*
X132923723Y97862988D01*
X132923723Y97862988D02*
X133256342Y97862988D01*
X133256342Y97862988D02*
X133389390Y97929512D01*
X133389390Y97929512D02*
X133455914Y97996035D01*
X133455914Y97996035D02*
X133522437Y98129083D01*
X133522437Y98129083D02*
X133522437Y98262131D01*
X133522437Y98262131D02*
X133455914Y98395178D01*
X133455914Y98395178D02*
X133389390Y98461702D01*
X133389390Y98461702D02*
X133256342Y98528226D01*
X133256342Y98528226D02*
X132990247Y98594750D01*
X132990247Y98594750D02*
X132857199Y98661273D01*
X132857199Y98661273D02*
X132790676Y98727797D01*
X132790676Y98727797D02*
X132724152Y98860845D01*
X132724152Y98860845D02*
X132724152Y98993892D01*
X132724152Y98993892D02*
X132790676Y99126940D01*
X132790676Y99126940D02*
X132857199Y99193464D01*
X132857199Y99193464D02*
X132990247Y99259988D01*
X132990247Y99259988D02*
X133322866Y99259988D01*
X133322866Y99259988D02*
X133522437Y99193464D01*
X134054628Y98262131D02*
X134719866Y98262131D01*
X133921580Y97862988D02*
X134387247Y99259988D01*
X134387247Y99259988D02*
X134852913Y97862988D01*
X135119009Y99259988D02*
X135917295Y99259988D01*
X135518152Y97862988D02*
X135518152Y99259988D01*
X136316438Y98262131D02*
X136981676Y98262131D01*
X136183390Y97862988D02*
X136649057Y99259988D01*
X136649057Y99259988D02*
X137114723Y97862988D01*
X137513867Y99126940D02*
X137580391Y99193464D01*
X137580391Y99193464D02*
X137713438Y99259988D01*
X137713438Y99259988D02*
X138046057Y99259988D01*
X138046057Y99259988D02*
X138179105Y99193464D01*
X138179105Y99193464D02*
X138245629Y99126940D01*
X138245629Y99126940D02*
X138312152Y98993892D01*
X138312152Y98993892D02*
X138312152Y98860845D01*
X138312152Y98860845D02*
X138245629Y98661273D01*
X138245629Y98661273D02*
X137447343Y97862988D01*
X137447343Y97862988D02*
X138312152Y97862988D01*
X138910867Y98395178D02*
X139975248Y98395178D01*
X141239200Y98794321D02*
X141239200Y97862988D01*
X140906581Y99326512D02*
X140573962Y98328654D01*
X140573962Y98328654D02*
X141438771Y98328654D01*
D11*
X113951903Y16068665D02*
X113951903Y14640094D01*
X113951903Y14640094D02*
X113856664Y14354380D01*
X113856664Y14354380D02*
X113666188Y14163904D01*
X113666188Y14163904D02*
X113380474Y14068665D01*
X113380474Y14068665D02*
X113189998Y14068665D01*
X115856665Y14068665D02*
X114904284Y14068665D01*
X114904284Y14068665D02*
X114904284Y16068665D01*
X117666189Y14259142D02*
X117570951Y14163904D01*
X117570951Y14163904D02*
X117285237Y14068665D01*
X117285237Y14068665D02*
X117094761Y14068665D01*
X117094761Y14068665D02*
X116809046Y14163904D01*
X116809046Y14163904D02*
X116618570Y14354380D01*
X116618570Y14354380D02*
X116523332Y14544856D01*
X116523332Y14544856D02*
X116428094Y14925808D01*
X116428094Y14925808D02*
X116428094Y15211523D01*
X116428094Y15211523D02*
X116523332Y15592475D01*
X116523332Y15592475D02*
X116618570Y15782951D01*
X116618570Y15782951D02*
X116809046Y15973427D01*
X116809046Y15973427D02*
X117094761Y16068665D01*
X117094761Y16068665D02*
X117285237Y16068665D01*
X117285237Y16068665D02*
X117570951Y15973427D01*
X117570951Y15973427D02*
X117666189Y15878189D01*
X119094761Y16068665D02*
X119094761Y14640094D01*
X119094761Y14640094D02*
X118999522Y14354380D01*
X118999522Y14354380D02*
X118809046Y14163904D01*
X118809046Y14163904D02*
X118523332Y14068665D01*
X118523332Y14068665D02*
X118332856Y14068665D01*
X120999523Y14068665D02*
X120047142Y14068665D01*
X120047142Y14068665D02*
X120047142Y16068665D01*
X122809047Y14259142D02*
X122713809Y14163904D01*
X122713809Y14163904D02*
X122428095Y14068665D01*
X122428095Y14068665D02*
X122237619Y14068665D01*
X122237619Y14068665D02*
X121951904Y14163904D01*
X121951904Y14163904D02*
X121761428Y14354380D01*
X121761428Y14354380D02*
X121666190Y14544856D01*
X121666190Y14544856D02*
X121570952Y14925808D01*
X121570952Y14925808D02*
X121570952Y15211523D01*
X121570952Y15211523D02*
X121666190Y15592475D01*
X121666190Y15592475D02*
X121761428Y15782951D01*
X121761428Y15782951D02*
X121951904Y15973427D01*
X121951904Y15973427D02*
X122237619Y16068665D01*
X122237619Y16068665D02*
X122428095Y16068665D01*
X122428095Y16068665D02*
X122713809Y15973427D01*
X122713809Y15973427D02*
X122809047Y15878189D01*
X124237619Y16068665D02*
X124237619Y14640094D01*
X124237619Y14640094D02*
X124142380Y14354380D01*
X124142380Y14354380D02*
X123951904Y14163904D01*
X123951904Y14163904D02*
X123666190Y14068665D01*
X123666190Y14068665D02*
X123475714Y14068665D01*
X126142381Y14068665D02*
X125190000Y14068665D01*
X125190000Y14068665D02*
X125190000Y16068665D01*
X127951905Y14259142D02*
X127856667Y14163904D01*
X127856667Y14163904D02*
X127570953Y14068665D01*
X127570953Y14068665D02*
X127380477Y14068665D01*
X127380477Y14068665D02*
X127094762Y14163904D01*
X127094762Y14163904D02*
X126904286Y14354380D01*
X126904286Y14354380D02*
X126809048Y14544856D01*
X126809048Y14544856D02*
X126713810Y14925808D01*
X126713810Y14925808D02*
X126713810Y15211523D01*
X126713810Y15211523D02*
X126809048Y15592475D01*
X126809048Y15592475D02*
X126904286Y15782951D01*
X126904286Y15782951D02*
X127094762Y15973427D01*
X127094762Y15973427D02*
X127380477Y16068665D01*
X127380477Y16068665D02*
X127570953Y16068665D01*
X127570953Y16068665D02*
X127856667Y15973427D01*
X127856667Y15973427D02*
X127951905Y15878189D01*
X129380477Y16068665D02*
X129380477Y14640094D01*
X129380477Y14640094D02*
X129285238Y14354380D01*
X129285238Y14354380D02*
X129094762Y14163904D01*
X129094762Y14163904D02*
X128809048Y14068665D01*
X128809048Y14068665D02*
X128618572Y14068665D01*
X131285239Y14068665D02*
X130332858Y14068665D01*
X130332858Y14068665D02*
X130332858Y16068665D01*
X133094763Y14259142D02*
X132999525Y14163904D01*
X132999525Y14163904D02*
X132713811Y14068665D01*
X132713811Y14068665D02*
X132523335Y14068665D01*
X132523335Y14068665D02*
X132237620Y14163904D01*
X132237620Y14163904D02*
X132047144Y14354380D01*
X132047144Y14354380D02*
X131951906Y14544856D01*
X131951906Y14544856D02*
X131856668Y14925808D01*
X131856668Y14925808D02*
X131856668Y15211523D01*
X131856668Y15211523D02*
X131951906Y15592475D01*
X131951906Y15592475D02*
X132047144Y15782951D01*
X132047144Y15782951D02*
X132237620Y15973427D01*
X132237620Y15973427D02*
X132523335Y16068665D01*
X132523335Y16068665D02*
X132713811Y16068665D01*
X132713811Y16068665D02*
X132999525Y15973427D01*
X132999525Y15973427D02*
X133094763Y15878189D01*
D10*
X125022427Y89965392D02*
X125094999Y90037964D01*
X125094999Y90037964D02*
X125240142Y90110535D01*
X125240142Y90110535D02*
X125602999Y90110535D01*
X125602999Y90110535D02*
X125748142Y90037964D01*
X125748142Y90037964D02*
X125820713Y89965392D01*
X125820713Y89965392D02*
X125893284Y89820249D01*
X125893284Y89820249D02*
X125893284Y89675107D01*
X125893284Y89675107D02*
X125820713Y89457392D01*
X125820713Y89457392D02*
X124949856Y88586535D01*
X124949856Y88586535D02*
X125893284Y88586535D01*
X126473856Y89965392D02*
X126546428Y90037964D01*
X126546428Y90037964D02*
X126691571Y90110535D01*
X126691571Y90110535D02*
X127054428Y90110535D01*
X127054428Y90110535D02*
X127199571Y90037964D01*
X127199571Y90037964D02*
X127272142Y89965392D01*
X127272142Y89965392D02*
X127344713Y89820249D01*
X127344713Y89820249D02*
X127344713Y89675107D01*
X127344713Y89675107D02*
X127272142Y89457392D01*
X127272142Y89457392D02*
X126401285Y88586535D01*
X126401285Y88586535D02*
X127344713Y88586535D01*
X128215571Y89457392D02*
X128070428Y89529964D01*
X128070428Y89529964D02*
X127997857Y89602535D01*
X127997857Y89602535D02*
X127925285Y89747678D01*
X127925285Y89747678D02*
X127925285Y89820249D01*
X127925285Y89820249D02*
X127997857Y89965392D01*
X127997857Y89965392D02*
X128070428Y90037964D01*
X128070428Y90037964D02*
X128215571Y90110535D01*
X128215571Y90110535D02*
X128505857Y90110535D01*
X128505857Y90110535D02*
X128651000Y90037964D01*
X128651000Y90037964D02*
X128723571Y89965392D01*
X128723571Y89965392D02*
X128796142Y89820249D01*
X128796142Y89820249D02*
X128796142Y89747678D01*
X128796142Y89747678D02*
X128723571Y89602535D01*
X128723571Y89602535D02*
X128651000Y89529964D01*
X128651000Y89529964D02*
X128505857Y89457392D01*
X128505857Y89457392D02*
X128215571Y89457392D01*
X128215571Y89457392D02*
X128070428Y89384821D01*
X128070428Y89384821D02*
X127997857Y89312249D01*
X127997857Y89312249D02*
X127925285Y89167107D01*
X127925285Y89167107D02*
X127925285Y88876821D01*
X127925285Y88876821D02*
X127997857Y88731678D01*
X127997857Y88731678D02*
X128070428Y88659107D01*
X128070428Y88659107D02*
X128215571Y88586535D01*
X128215571Y88586535D02*
X128505857Y88586535D01*
X128505857Y88586535D02*
X128651000Y88659107D01*
X128651000Y88659107D02*
X128723571Y88731678D01*
X128723571Y88731678D02*
X128796142Y88876821D01*
X128796142Y88876821D02*
X128796142Y89167107D01*
X128796142Y89167107D02*
X128723571Y89312249D01*
X128723571Y89312249D02*
X128651000Y89384821D01*
X128651000Y89384821D02*
X128505857Y89457392D01*
X129739571Y90110535D02*
X129884714Y90110535D01*
X129884714Y90110535D02*
X130029857Y90037964D01*
X130029857Y90037964D02*
X130102429Y89965392D01*
X130102429Y89965392D02*
X130175000Y89820249D01*
X130175000Y89820249D02*
X130247571Y89529964D01*
X130247571Y89529964D02*
X130247571Y89167107D01*
X130247571Y89167107D02*
X130175000Y88876821D01*
X130175000Y88876821D02*
X130102429Y88731678D01*
X130102429Y88731678D02*
X130029857Y88659107D01*
X130029857Y88659107D02*
X129884714Y88586535D01*
X129884714Y88586535D02*
X129739571Y88586535D01*
X129739571Y88586535D02*
X129594429Y88659107D01*
X129594429Y88659107D02*
X129521857Y88731678D01*
X129521857Y88731678D02*
X129449286Y88876821D01*
X129449286Y88876821D02*
X129376714Y89167107D01*
X129376714Y89167107D02*
X129376714Y89529964D01*
X129376714Y89529964D02*
X129449286Y89820249D01*
X129449286Y89820249D02*
X129521857Y89965392D01*
X129521857Y89965392D02*
X129594429Y90037964D01*
X129594429Y90037964D02*
X129739571Y90110535D01*
X125022427Y70049192D02*
X125094999Y70121764D01*
X125094999Y70121764D02*
X125240142Y70194335D01*
X125240142Y70194335D02*
X125602999Y70194335D01*
X125602999Y70194335D02*
X125748142Y70121764D01*
X125748142Y70121764D02*
X125820713Y70049192D01*
X125820713Y70049192D02*
X125893284Y69904049D01*
X125893284Y69904049D02*
X125893284Y69758907D01*
X125893284Y69758907D02*
X125820713Y69541192D01*
X125820713Y69541192D02*
X124949856Y68670335D01*
X124949856Y68670335D02*
X125893284Y68670335D01*
X126473856Y70049192D02*
X126546428Y70121764D01*
X126546428Y70121764D02*
X126691571Y70194335D01*
X126691571Y70194335D02*
X127054428Y70194335D01*
X127054428Y70194335D02*
X127199571Y70121764D01*
X127199571Y70121764D02*
X127272142Y70049192D01*
X127272142Y70049192D02*
X127344713Y69904049D01*
X127344713Y69904049D02*
X127344713Y69758907D01*
X127344713Y69758907D02*
X127272142Y69541192D01*
X127272142Y69541192D02*
X126401285Y68670335D01*
X126401285Y68670335D02*
X127344713Y68670335D01*
X128651000Y70194335D02*
X128360714Y70194335D01*
X128360714Y70194335D02*
X128215571Y70121764D01*
X128215571Y70121764D02*
X128143000Y70049192D01*
X128143000Y70049192D02*
X127997857Y69831478D01*
X127997857Y69831478D02*
X127925285Y69541192D01*
X127925285Y69541192D02*
X127925285Y68960621D01*
X127925285Y68960621D02*
X127997857Y68815478D01*
X127997857Y68815478D02*
X128070428Y68742907D01*
X128070428Y68742907D02*
X128215571Y68670335D01*
X128215571Y68670335D02*
X128505857Y68670335D01*
X128505857Y68670335D02*
X128651000Y68742907D01*
X128651000Y68742907D02*
X128723571Y68815478D01*
X128723571Y68815478D02*
X128796142Y68960621D01*
X128796142Y68960621D02*
X128796142Y69323478D01*
X128796142Y69323478D02*
X128723571Y69468621D01*
X128723571Y69468621D02*
X128651000Y69541192D01*
X128651000Y69541192D02*
X128505857Y69613764D01*
X128505857Y69613764D02*
X128215571Y69613764D01*
X128215571Y69613764D02*
X128070428Y69541192D01*
X128070428Y69541192D02*
X127997857Y69468621D01*
X127997857Y69468621D02*
X127925285Y69323478D01*
X129739571Y70194335D02*
X129884714Y70194335D01*
X129884714Y70194335D02*
X130029857Y70121764D01*
X130029857Y70121764D02*
X130102429Y70049192D01*
X130102429Y70049192D02*
X130175000Y69904049D01*
X130175000Y69904049D02*
X130247571Y69613764D01*
X130247571Y69613764D02*
X130247571Y69250907D01*
X130247571Y69250907D02*
X130175000Y68960621D01*
X130175000Y68960621D02*
X130102429Y68815478D01*
X130102429Y68815478D02*
X130029857Y68742907D01*
X130029857Y68742907D02*
X129884714Y68670335D01*
X129884714Y68670335D02*
X129739571Y68670335D01*
X129739571Y68670335D02*
X129594429Y68742907D01*
X129594429Y68742907D02*
X129521857Y68815478D01*
X129521857Y68815478D02*
X129449286Y68960621D01*
X129449286Y68960621D02*
X129376714Y69250907D01*
X129376714Y69250907D02*
X129376714Y69613764D01*
X129376714Y69613764D02*
X129449286Y69904049D01*
X129449286Y69904049D02*
X129521857Y70049192D01*
X129521857Y70049192D02*
X129594429Y70121764D01*
X129594429Y70121764D02*
X129739571Y70194335D01*
X125022427Y52049192D02*
X125094999Y52121764D01*
X125094999Y52121764D02*
X125240142Y52194335D01*
X125240142Y52194335D02*
X125602999Y52194335D01*
X125602999Y52194335D02*
X125748142Y52121764D01*
X125748142Y52121764D02*
X125820713Y52049192D01*
X125820713Y52049192D02*
X125893284Y51904049D01*
X125893284Y51904049D02*
X125893284Y51758907D01*
X125893284Y51758907D02*
X125820713Y51541192D01*
X125820713Y51541192D02*
X124949856Y50670335D01*
X124949856Y50670335D02*
X125893284Y50670335D01*
X126473856Y52049192D02*
X126546428Y52121764D01*
X126546428Y52121764D02*
X126691571Y52194335D01*
X126691571Y52194335D02*
X127054428Y52194335D01*
X127054428Y52194335D02*
X127199571Y52121764D01*
X127199571Y52121764D02*
X127272142Y52049192D01*
X127272142Y52049192D02*
X127344713Y51904049D01*
X127344713Y51904049D02*
X127344713Y51758907D01*
X127344713Y51758907D02*
X127272142Y51541192D01*
X127272142Y51541192D02*
X126401285Y50670335D01*
X126401285Y50670335D02*
X127344713Y50670335D01*
X128651000Y51686335D02*
X128651000Y50670335D01*
X128288142Y52266907D02*
X127925285Y51178335D01*
X127925285Y51178335D02*
X128868714Y51178335D01*
X129376714Y52049192D02*
X129449286Y52121764D01*
X129449286Y52121764D02*
X129594429Y52194335D01*
X129594429Y52194335D02*
X129957286Y52194335D01*
X129957286Y52194335D02*
X130102429Y52121764D01*
X130102429Y52121764D02*
X130175000Y52049192D01*
X130175000Y52049192D02*
X130247571Y51904049D01*
X130247571Y51904049D02*
X130247571Y51758907D01*
X130247571Y51758907D02*
X130175000Y51541192D01*
X130175000Y51541192D02*
X129304143Y50670335D01*
X129304143Y50670335D02*
X130247571Y50670335D01*
X149215827Y51990092D02*
X149288399Y52062664D01*
X149288399Y52062664D02*
X149433542Y52135235D01*
X149433542Y52135235D02*
X149796399Y52135235D01*
X149796399Y52135235D02*
X149941542Y52062664D01*
X149941542Y52062664D02*
X150014113Y51990092D01*
X150014113Y51990092D02*
X150086684Y51844949D01*
X150086684Y51844949D02*
X150086684Y51699807D01*
X150086684Y51699807D02*
X150014113Y51482092D01*
X150014113Y51482092D02*
X149143256Y50611235D01*
X149143256Y50611235D02*
X150086684Y50611235D01*
X150667256Y51990092D02*
X150739828Y52062664D01*
X150739828Y52062664D02*
X150884971Y52135235D01*
X150884971Y52135235D02*
X151247828Y52135235D01*
X151247828Y52135235D02*
X151392971Y52062664D01*
X151392971Y52062664D02*
X151465542Y51990092D01*
X151465542Y51990092D02*
X151538113Y51844949D01*
X151538113Y51844949D02*
X151538113Y51699807D01*
X151538113Y51699807D02*
X151465542Y51482092D01*
X151465542Y51482092D02*
X150594685Y50611235D01*
X150594685Y50611235D02*
X151538113Y50611235D01*
X152844400Y51627235D02*
X152844400Y50611235D01*
X152481542Y52207807D02*
X152118685Y51119235D01*
X152118685Y51119235D02*
X153062114Y51119235D01*
X153570114Y51990092D02*
X153642686Y52062664D01*
X153642686Y52062664D02*
X153787829Y52135235D01*
X153787829Y52135235D02*
X154150686Y52135235D01*
X154150686Y52135235D02*
X154295829Y52062664D01*
X154295829Y52062664D02*
X154368400Y51990092D01*
X154368400Y51990092D02*
X154440971Y51844949D01*
X154440971Y51844949D02*
X154440971Y51699807D01*
X154440971Y51699807D02*
X154368400Y51482092D01*
X154368400Y51482092D02*
X153497543Y50611235D01*
X153497543Y50611235D02*
X154440971Y50611235D01*
X149215827Y69990092D02*
X149288399Y70062664D01*
X149288399Y70062664D02*
X149433542Y70135235D01*
X149433542Y70135235D02*
X149796399Y70135235D01*
X149796399Y70135235D02*
X149941542Y70062664D01*
X149941542Y70062664D02*
X150014113Y69990092D01*
X150014113Y69990092D02*
X150086684Y69844949D01*
X150086684Y69844949D02*
X150086684Y69699807D01*
X150086684Y69699807D02*
X150014113Y69482092D01*
X150014113Y69482092D02*
X149143256Y68611235D01*
X149143256Y68611235D02*
X150086684Y68611235D01*
X150667256Y69990092D02*
X150739828Y70062664D01*
X150739828Y70062664D02*
X150884971Y70135235D01*
X150884971Y70135235D02*
X151247828Y70135235D01*
X151247828Y70135235D02*
X151392971Y70062664D01*
X151392971Y70062664D02*
X151465542Y69990092D01*
X151465542Y69990092D02*
X151538113Y69844949D01*
X151538113Y69844949D02*
X151538113Y69699807D01*
X151538113Y69699807D02*
X151465542Y69482092D01*
X151465542Y69482092D02*
X150594685Y68611235D01*
X150594685Y68611235D02*
X151538113Y68611235D01*
X152844400Y70135235D02*
X152554114Y70135235D01*
X152554114Y70135235D02*
X152408971Y70062664D01*
X152408971Y70062664D02*
X152336400Y69990092D01*
X152336400Y69990092D02*
X152191257Y69772378D01*
X152191257Y69772378D02*
X152118685Y69482092D01*
X152118685Y69482092D02*
X152118685Y68901521D01*
X152118685Y68901521D02*
X152191257Y68756378D01*
X152191257Y68756378D02*
X152263828Y68683807D01*
X152263828Y68683807D02*
X152408971Y68611235D01*
X152408971Y68611235D02*
X152699257Y68611235D01*
X152699257Y68611235D02*
X152844400Y68683807D01*
X152844400Y68683807D02*
X152916971Y68756378D01*
X152916971Y68756378D02*
X152989542Y68901521D01*
X152989542Y68901521D02*
X152989542Y69264378D01*
X152989542Y69264378D02*
X152916971Y69409521D01*
X152916971Y69409521D02*
X152844400Y69482092D01*
X152844400Y69482092D02*
X152699257Y69554664D01*
X152699257Y69554664D02*
X152408971Y69554664D01*
X152408971Y69554664D02*
X152263828Y69482092D01*
X152263828Y69482092D02*
X152191257Y69409521D01*
X152191257Y69409521D02*
X152118685Y69264378D01*
X153932971Y70135235D02*
X154078114Y70135235D01*
X154078114Y70135235D02*
X154223257Y70062664D01*
X154223257Y70062664D02*
X154295829Y69990092D01*
X154295829Y69990092D02*
X154368400Y69844949D01*
X154368400Y69844949D02*
X154440971Y69554664D01*
X154440971Y69554664D02*
X154440971Y69191807D01*
X154440971Y69191807D02*
X154368400Y68901521D01*
X154368400Y68901521D02*
X154295829Y68756378D01*
X154295829Y68756378D02*
X154223257Y68683807D01*
X154223257Y68683807D02*
X154078114Y68611235D01*
X154078114Y68611235D02*
X153932971Y68611235D01*
X153932971Y68611235D02*
X153787829Y68683807D01*
X153787829Y68683807D02*
X153715257Y68756378D01*
X153715257Y68756378D02*
X153642686Y68901521D01*
X153642686Y68901521D02*
X153570114Y69191807D01*
X153570114Y69191807D02*
X153570114Y69554664D01*
X153570114Y69554664D02*
X153642686Y69844949D01*
X153642686Y69844949D02*
X153715257Y69990092D01*
X153715257Y69990092D02*
X153787829Y70062664D01*
X153787829Y70062664D02*
X153932971Y70135235D01*
X149215827Y89906292D02*
X149288399Y89978864D01*
X149288399Y89978864D02*
X149433542Y90051435D01*
X149433542Y90051435D02*
X149796399Y90051435D01*
X149796399Y90051435D02*
X149941542Y89978864D01*
X149941542Y89978864D02*
X150014113Y89906292D01*
X150014113Y89906292D02*
X150086684Y89761149D01*
X150086684Y89761149D02*
X150086684Y89616007D01*
X150086684Y89616007D02*
X150014113Y89398292D01*
X150014113Y89398292D02*
X149143256Y88527435D01*
X149143256Y88527435D02*
X150086684Y88527435D01*
X150667256Y89906292D02*
X150739828Y89978864D01*
X150739828Y89978864D02*
X150884971Y90051435D01*
X150884971Y90051435D02*
X151247828Y90051435D01*
X151247828Y90051435D02*
X151392971Y89978864D01*
X151392971Y89978864D02*
X151465542Y89906292D01*
X151465542Y89906292D02*
X151538113Y89761149D01*
X151538113Y89761149D02*
X151538113Y89616007D01*
X151538113Y89616007D02*
X151465542Y89398292D01*
X151465542Y89398292D02*
X150594685Y88527435D01*
X150594685Y88527435D02*
X151538113Y88527435D01*
X152408971Y89398292D02*
X152263828Y89470864D01*
X152263828Y89470864D02*
X152191257Y89543435D01*
X152191257Y89543435D02*
X152118685Y89688578D01*
X152118685Y89688578D02*
X152118685Y89761149D01*
X152118685Y89761149D02*
X152191257Y89906292D01*
X152191257Y89906292D02*
X152263828Y89978864D01*
X152263828Y89978864D02*
X152408971Y90051435D01*
X152408971Y90051435D02*
X152699257Y90051435D01*
X152699257Y90051435D02*
X152844400Y89978864D01*
X152844400Y89978864D02*
X152916971Y89906292D01*
X152916971Y89906292D02*
X152989542Y89761149D01*
X152989542Y89761149D02*
X152989542Y89688578D01*
X152989542Y89688578D02*
X152916971Y89543435D01*
X152916971Y89543435D02*
X152844400Y89470864D01*
X152844400Y89470864D02*
X152699257Y89398292D01*
X152699257Y89398292D02*
X152408971Y89398292D01*
X152408971Y89398292D02*
X152263828Y89325721D01*
X152263828Y89325721D02*
X152191257Y89253149D01*
X152191257Y89253149D02*
X152118685Y89108007D01*
X152118685Y89108007D02*
X152118685Y88817721D01*
X152118685Y88817721D02*
X152191257Y88672578D01*
X152191257Y88672578D02*
X152263828Y88600007D01*
X152263828Y88600007D02*
X152408971Y88527435D01*
X152408971Y88527435D02*
X152699257Y88527435D01*
X152699257Y88527435D02*
X152844400Y88600007D01*
X152844400Y88600007D02*
X152916971Y88672578D01*
X152916971Y88672578D02*
X152989542Y88817721D01*
X152989542Y88817721D02*
X152989542Y89108007D01*
X152989542Y89108007D02*
X152916971Y89253149D01*
X152916971Y89253149D02*
X152844400Y89325721D01*
X152844400Y89325721D02*
X152699257Y89398292D01*
X153932971Y90051435D02*
X154078114Y90051435D01*
X154078114Y90051435D02*
X154223257Y89978864D01*
X154223257Y89978864D02*
X154295829Y89906292D01*
X154295829Y89906292D02*
X154368400Y89761149D01*
X154368400Y89761149D02*
X154440971Y89470864D01*
X154440971Y89470864D02*
X154440971Y89108007D01*
X154440971Y89108007D02*
X154368400Y88817721D01*
X154368400Y88817721D02*
X154295829Y88672578D01*
X154295829Y88672578D02*
X154223257Y88600007D01*
X154223257Y88600007D02*
X154078114Y88527435D01*
X154078114Y88527435D02*
X153932971Y88527435D01*
X153932971Y88527435D02*
X153787829Y88600007D01*
X153787829Y88600007D02*
X153715257Y88672578D01*
X153715257Y88672578D02*
X153642686Y88817721D01*
X153642686Y88817721D02*
X153570114Y89108007D01*
X153570114Y89108007D02*
X153570114Y89470864D01*
X153570114Y89470864D02*
X153642686Y89761149D01*
X153642686Y89761149D02*
X153715257Y89906292D01*
X153715257Y89906292D02*
X153787829Y89978864D01*
X153787829Y89978864D02*
X153932971Y90051435D01*
D12*
X157505476Y100188144D02*
X157505476Y100988144D01*
X157505476Y100607192D02*
X157962619Y100607192D01*
X157962619Y100188144D02*
X157962619Y100988144D01*
X158762618Y100188144D02*
X158305475Y100188144D01*
X158534047Y100188144D02*
X158534047Y100988144D01*
X158534047Y100988144D02*
X158457856Y100873859D01*
X158457856Y100873859D02*
X158381666Y100797668D01*
X158381666Y100797668D02*
X158305475Y100759573D01*
X-266666Y2055192D02*
X-533332Y2055192D01*
X-533332Y1636144D02*
X-533332Y2436144D01*
X-533332Y2436144D02*
X-152380Y2436144D01*
X571428Y1636144D02*
X114285Y1636144D01*
X342857Y1636144D02*
X342857Y2436144D01*
X342857Y2436144D02*
X266666Y2321859D01*
X266666Y2321859D02*
X190476Y2245668D01*
X190476Y2245668D02*
X114285Y2207573D01*
X2406762Y85469335D02*
X2368666Y85431240D01*
X2368666Y85431240D02*
X2254381Y85393144D01*
X2254381Y85393144D02*
X2178190Y85393144D01*
X2178190Y85393144D02*
X2063904Y85431240D01*
X2063904Y85431240D02*
X1987714Y85507430D01*
X1987714Y85507430D02*
X1949619Y85583620D01*
X1949619Y85583620D02*
X1911523Y85736001D01*
X1911523Y85736001D02*
X1911523Y85850287D01*
X1911523Y85850287D02*
X1949619Y86002668D01*
X1949619Y86002668D02*
X1987714Y86078859D01*
X1987714Y86078859D02*
X2063904Y86155049D01*
X2063904Y86155049D02*
X2178190Y86193144D01*
X2178190Y86193144D02*
X2254381Y86193144D01*
X2254381Y86193144D02*
X2368666Y86155049D01*
X2368666Y86155049D02*
X2406762Y86116954D01*
X3168666Y85393144D02*
X2711523Y85393144D01*
X2940095Y85393144D02*
X2940095Y86193144D01*
X2940095Y86193144D02*
X2863904Y86078859D01*
X2863904Y86078859D02*
X2787714Y86002668D01*
X2787714Y86002668D02*
X2711523Y85964573D01*
X3435333Y86193144D02*
X3968667Y86193144D01*
X3968667Y86193144D02*
X3625809Y85393144D01*
X4387714Y85850287D02*
X4311524Y85888382D01*
X4311524Y85888382D02*
X4273429Y85926478D01*
X4273429Y85926478D02*
X4235333Y86002668D01*
X4235333Y86002668D02*
X4235333Y86040763D01*
X4235333Y86040763D02*
X4273429Y86116954D01*
X4273429Y86116954D02*
X4311524Y86155049D01*
X4311524Y86155049D02*
X4387714Y86193144D01*
X4387714Y86193144D02*
X4540095Y86193144D01*
X4540095Y86193144D02*
X4616286Y86155049D01*
X4616286Y86155049D02*
X4654381Y86116954D01*
X4654381Y86116954D02*
X4692476Y86040763D01*
X4692476Y86040763D02*
X4692476Y86002668D01*
X4692476Y86002668D02*
X4654381Y85926478D01*
X4654381Y85926478D02*
X4616286Y85888382D01*
X4616286Y85888382D02*
X4540095Y85850287D01*
X4540095Y85850287D02*
X4387714Y85850287D01*
X4387714Y85850287D02*
X4311524Y85812192D01*
X4311524Y85812192D02*
X4273429Y85774097D01*
X4273429Y85774097D02*
X4235333Y85697906D01*
X4235333Y85697906D02*
X4235333Y85545525D01*
X4235333Y85545525D02*
X4273429Y85469335D01*
X4273429Y85469335D02*
X4311524Y85431240D01*
X4311524Y85431240D02*
X4387714Y85393144D01*
X4387714Y85393144D02*
X4540095Y85393144D01*
X4540095Y85393144D02*
X4616286Y85431240D01*
X4616286Y85431240D02*
X4654381Y85469335D01*
X4654381Y85469335D02*
X4692476Y85545525D01*
X4692476Y85545525D02*
X4692476Y85697906D01*
X4692476Y85697906D02*
X4654381Y85774097D01*
X4654381Y85774097D02*
X4616286Y85812192D01*
X4616286Y85812192D02*
X4540095Y85850287D01*
X2533762Y75055335D02*
X2495666Y75017240D01*
X2495666Y75017240D02*
X2381381Y74979144D01*
X2381381Y74979144D02*
X2305190Y74979144D01*
X2305190Y74979144D02*
X2190904Y75017240D01*
X2190904Y75017240D02*
X2114714Y75093430D01*
X2114714Y75093430D02*
X2076619Y75169620D01*
X2076619Y75169620D02*
X2038523Y75322001D01*
X2038523Y75322001D02*
X2038523Y75436287D01*
X2038523Y75436287D02*
X2076619Y75588668D01*
X2076619Y75588668D02*
X2114714Y75664859D01*
X2114714Y75664859D02*
X2190904Y75741049D01*
X2190904Y75741049D02*
X2305190Y75779144D01*
X2305190Y75779144D02*
X2381381Y75779144D01*
X2381381Y75779144D02*
X2495666Y75741049D01*
X2495666Y75741049D02*
X2533762Y75702954D01*
X3295666Y74979144D02*
X2838523Y74979144D01*
X3067095Y74979144D02*
X3067095Y75779144D01*
X3067095Y75779144D02*
X2990904Y75664859D01*
X2990904Y75664859D02*
X2914714Y75588668D01*
X2914714Y75588668D02*
X2838523Y75550573D01*
X3562333Y75779144D02*
X4095667Y75779144D01*
X4095667Y75779144D02*
X3752809Y74979144D01*
X4819476Y74979144D02*
X4362333Y74979144D01*
X4590905Y74979144D02*
X4590905Y75779144D01*
X4590905Y75779144D02*
X4514714Y75664859D01*
X4514714Y75664859D02*
X4438524Y75588668D01*
X4438524Y75588668D02*
X4362333Y75550573D01*
X19075905Y82916069D02*
X19075905Y82268450D01*
X19075905Y82268450D02*
X19114000Y82192260D01*
X19114000Y82192260D02*
X19152095Y82154165D01*
X19152095Y82154165D02*
X19228286Y82116069D01*
X19228286Y82116069D02*
X19380667Y82116069D01*
X19380667Y82116069D02*
X19456857Y82154165D01*
X19456857Y82154165D02*
X19494952Y82192260D01*
X19494952Y82192260D02*
X19533048Y82268450D01*
X19533048Y82268450D02*
X19533048Y82916069D01*
X20333047Y82116069D02*
X19875904Y82116069D01*
X20104476Y82116069D02*
X20104476Y82916069D01*
X20104476Y82916069D02*
X20028285Y82801784D01*
X20028285Y82801784D02*
X19952095Y82725593D01*
X19952095Y82725593D02*
X19875904Y82687498D01*
X21018762Y82649403D02*
X21018762Y82116069D01*
X20828286Y82954165D02*
X20637809Y82382736D01*
X20637809Y82382736D02*
X21133048Y82382736D01*
X4865807Y94475428D02*
X4865807Y94208762D01*
X5284855Y94208762D02*
X4484855Y94208762D01*
X4484855Y94208762D02*
X4484855Y94589714D01*
X5056283Y94856380D02*
X5056283Y95237333D01*
X5284855Y94780190D02*
X4484855Y95046857D01*
X4484855Y95046857D02*
X5284855Y95313523D01*
X5284855Y95580190D02*
X4484855Y95580190D01*
X4484855Y95580190D02*
X5284855Y96037333D01*
X5284855Y96037333D02*
X4484855Y96037333D01*
X4561045Y96380189D02*
X4522950Y96418285D01*
X4522950Y96418285D02*
X4484855Y96494475D01*
X4484855Y96494475D02*
X4484855Y96684951D01*
X4484855Y96684951D02*
X4522950Y96761142D01*
X4522950Y96761142D02*
X4561045Y96799237D01*
X4561045Y96799237D02*
X4637236Y96837332D01*
X4637236Y96837332D02*
X4713426Y96837332D01*
X4713426Y96837332D02*
X4827712Y96799237D01*
X4827712Y96799237D02*
X5284855Y96342094D01*
X5284855Y96342094D02*
X5284855Y96837332D01*
X11197381Y12599074D02*
X11197381Y13399074D01*
X11197381Y13399074D02*
X11464047Y12827646D01*
X11464047Y12827646D02*
X11730714Y13399074D01*
X11730714Y13399074D02*
X11730714Y12599074D01*
X12530714Y12599074D02*
X12073571Y12599074D01*
X12302143Y12599074D02*
X12302143Y13399074D01*
X12302143Y13399074D02*
X12225952Y13284789D01*
X12225952Y13284789D02*
X12149762Y13208598D01*
X12149762Y13208598D02*
X12073571Y13170503D01*
X158991381Y86980144D02*
X158991381Y87780144D01*
X158991381Y87780144D02*
X159258047Y87208716D01*
X159258047Y87208716D02*
X159524714Y87780144D01*
X159524714Y87780144D02*
X159524714Y86980144D01*
X159867571Y87703954D02*
X159905667Y87742049D01*
X159905667Y87742049D02*
X159981857Y87780144D01*
X159981857Y87780144D02*
X160172333Y87780144D01*
X160172333Y87780144D02*
X160248524Y87742049D01*
X160248524Y87742049D02*
X160286619Y87703954D01*
X160286619Y87703954D02*
X160324714Y87627763D01*
X160324714Y87627763D02*
X160324714Y87551573D01*
X160324714Y87551573D02*
X160286619Y87437287D01*
X160286619Y87437287D02*
X159829476Y86980144D01*
X159829476Y86980144D02*
X160324714Y86980144D01*
X160549381Y24914914D02*
X160549381Y25714914D01*
X160549381Y25714914D02*
X160816047Y25143486D01*
X160816047Y25143486D02*
X161082714Y25714914D01*
X161082714Y25714914D02*
X161082714Y24914914D01*
X161387476Y25714914D02*
X161882714Y25714914D01*
X161882714Y25714914D02*
X161616048Y25410152D01*
X161616048Y25410152D02*
X161730333Y25410152D01*
X161730333Y25410152D02*
X161806524Y25372057D01*
X161806524Y25372057D02*
X161844619Y25333962D01*
X161844619Y25333962D02*
X161882714Y25257771D01*
X161882714Y25257771D02*
X161882714Y25067295D01*
X161882714Y25067295D02*
X161844619Y24991105D01*
X161844619Y24991105D02*
X161806524Y24953010D01*
X161806524Y24953010D02*
X161730333Y24914914D01*
X161730333Y24914914D02*
X161501762Y24914914D01*
X161501762Y24914914D02*
X161425571Y24953010D01*
X161425571Y24953010D02*
X161387476Y24991105D01*
X38553531Y21643771D02*
X38667817Y21605675D01*
X38667817Y21605675D02*
X38858293Y21605675D01*
X38858293Y21605675D02*
X38934484Y21643771D01*
X38934484Y21643771D02*
X38972579Y21681866D01*
X38972579Y21681866D02*
X39010674Y21758056D01*
X39010674Y21758056D02*
X39010674Y21834247D01*
X39010674Y21834247D02*
X38972579Y21910437D01*
X38972579Y21910437D02*
X38934484Y21948532D01*
X38934484Y21948532D02*
X38858293Y21986628D01*
X38858293Y21986628D02*
X38705912Y22024723D01*
X38705912Y22024723D02*
X38629722Y22062818D01*
X38629722Y22062818D02*
X38591627Y22100913D01*
X38591627Y22100913D02*
X38553531Y22177104D01*
X38553531Y22177104D02*
X38553531Y22253294D01*
X38553531Y22253294D02*
X38591627Y22329485D01*
X38591627Y22329485D02*
X38629722Y22367580D01*
X38629722Y22367580D02*
X38705912Y22405675D01*
X38705912Y22405675D02*
X38896389Y22405675D01*
X38896389Y22405675D02*
X39010674Y22367580D01*
X39772579Y21605675D02*
X39315436Y21605675D01*
X39544008Y21605675D02*
X39544008Y22405675D01*
X39544008Y22405675D02*
X39467817Y22291390D01*
X39467817Y22291390D02*
X39391627Y22215199D01*
X39391627Y22215199D02*
X39315436Y22177104D01*
X103199488Y21643771D02*
X103313774Y21605675D01*
X103313774Y21605675D02*
X103504250Y21605675D01*
X103504250Y21605675D02*
X103580441Y21643771D01*
X103580441Y21643771D02*
X103618536Y21681866D01*
X103618536Y21681866D02*
X103656631Y21758056D01*
X103656631Y21758056D02*
X103656631Y21834247D01*
X103656631Y21834247D02*
X103618536Y21910437D01*
X103618536Y21910437D02*
X103580441Y21948532D01*
X103580441Y21948532D02*
X103504250Y21986628D01*
X103504250Y21986628D02*
X103351869Y22024723D01*
X103351869Y22024723D02*
X103275679Y22062818D01*
X103275679Y22062818D02*
X103237584Y22100913D01*
X103237584Y22100913D02*
X103199488Y22177104D01*
X103199488Y22177104D02*
X103199488Y22253294D01*
X103199488Y22253294D02*
X103237584Y22329485D01*
X103237584Y22329485D02*
X103275679Y22367580D01*
X103275679Y22367580D02*
X103351869Y22405675D01*
X103351869Y22405675D02*
X103542346Y22405675D01*
X103542346Y22405675D02*
X103656631Y22367580D01*
X103961393Y22329485D02*
X103999489Y22367580D01*
X103999489Y22367580D02*
X104075679Y22405675D01*
X104075679Y22405675D02*
X104266155Y22405675D01*
X104266155Y22405675D02*
X104342346Y22367580D01*
X104342346Y22367580D02*
X104380441Y22329485D01*
X104380441Y22329485D02*
X104418536Y22253294D01*
X104418536Y22253294D02*
X104418536Y22177104D01*
X104418536Y22177104D02*
X104380441Y22062818D01*
X104380441Y22062818D02*
X103923298Y21605675D01*
X103923298Y21605675D02*
X104418536Y21605675D01*
X60499576Y77823740D02*
X60613862Y77785644D01*
X60613862Y77785644D02*
X60804338Y77785644D01*
X60804338Y77785644D02*
X60880529Y77823740D01*
X60880529Y77823740D02*
X60918624Y77861835D01*
X60918624Y77861835D02*
X60956719Y77938025D01*
X60956719Y77938025D02*
X60956719Y78014216D01*
X60956719Y78014216D02*
X60918624Y78090406D01*
X60918624Y78090406D02*
X60880529Y78128501D01*
X60880529Y78128501D02*
X60804338Y78166597D01*
X60804338Y78166597D02*
X60651957Y78204692D01*
X60651957Y78204692D02*
X60575767Y78242787D01*
X60575767Y78242787D02*
X60537672Y78280882D01*
X60537672Y78280882D02*
X60499576Y78357073D01*
X60499576Y78357073D02*
X60499576Y78433263D01*
X60499576Y78433263D02*
X60537672Y78509454D01*
X60537672Y78509454D02*
X60575767Y78547549D01*
X60575767Y78547549D02*
X60651957Y78585644D01*
X60651957Y78585644D02*
X60842434Y78585644D01*
X60842434Y78585644D02*
X60956719Y78547549D01*
X61223386Y78585644D02*
X61718624Y78585644D01*
X61718624Y78585644D02*
X61451958Y78280882D01*
X61451958Y78280882D02*
X61566243Y78280882D01*
X61566243Y78280882D02*
X61642434Y78242787D01*
X61642434Y78242787D02*
X61680529Y78204692D01*
X61680529Y78204692D02*
X61718624Y78128501D01*
X61718624Y78128501D02*
X61718624Y77938025D01*
X61718624Y77938025D02*
X61680529Y77861835D01*
X61680529Y77861835D02*
X61642434Y77823740D01*
X61642434Y77823740D02*
X61566243Y77785644D01*
X61566243Y77785644D02*
X61337672Y77785644D01*
X61337672Y77785644D02*
X61261481Y77823740D01*
X61261481Y77823740D02*
X61223386Y77861835D01*
X103499462Y77823745D02*
X103613748Y77785649D01*
X103613748Y77785649D02*
X103804224Y77785649D01*
X103804224Y77785649D02*
X103880415Y77823745D01*
X103880415Y77823745D02*
X103918510Y77861840D01*
X103918510Y77861840D02*
X103956605Y77938030D01*
X103956605Y77938030D02*
X103956605Y78014221D01*
X103956605Y78014221D02*
X103918510Y78090411D01*
X103918510Y78090411D02*
X103880415Y78128506D01*
X103880415Y78128506D02*
X103804224Y78166602D01*
X103804224Y78166602D02*
X103651843Y78204697D01*
X103651843Y78204697D02*
X103575653Y78242792D01*
X103575653Y78242792D02*
X103537558Y78280887D01*
X103537558Y78280887D02*
X103499462Y78357078D01*
X103499462Y78357078D02*
X103499462Y78433268D01*
X103499462Y78433268D02*
X103537558Y78509459D01*
X103537558Y78509459D02*
X103575653Y78547554D01*
X103575653Y78547554D02*
X103651843Y78585649D01*
X103651843Y78585649D02*
X103842320Y78585649D01*
X103842320Y78585649D02*
X103956605Y78547554D01*
X104642320Y78318983D02*
X104642320Y77785649D01*
X104451844Y78623745D02*
X104261367Y78052316D01*
X104261367Y78052316D02*
X104756606Y78052316D01*
X2533762Y80262335D02*
X2495666Y80224240D01*
X2495666Y80224240D02*
X2381381Y80186144D01*
X2381381Y80186144D02*
X2305190Y80186144D01*
X2305190Y80186144D02*
X2190904Y80224240D01*
X2190904Y80224240D02*
X2114714Y80300430D01*
X2114714Y80300430D02*
X2076619Y80376620D01*
X2076619Y80376620D02*
X2038523Y80529001D01*
X2038523Y80529001D02*
X2038523Y80643287D01*
X2038523Y80643287D02*
X2076619Y80795668D01*
X2076619Y80795668D02*
X2114714Y80871859D01*
X2114714Y80871859D02*
X2190904Y80948049D01*
X2190904Y80948049D02*
X2305190Y80986144D01*
X2305190Y80986144D02*
X2381381Y80986144D01*
X2381381Y80986144D02*
X2495666Y80948049D01*
X2495666Y80948049D02*
X2533762Y80909954D01*
X2838523Y80909954D02*
X2876619Y80948049D01*
X2876619Y80948049D02*
X2952809Y80986144D01*
X2952809Y80986144D02*
X3143285Y80986144D01*
X3143285Y80986144D02*
X3219476Y80948049D01*
X3219476Y80948049D02*
X3257571Y80909954D01*
X3257571Y80909954D02*
X3295666Y80833763D01*
X3295666Y80833763D02*
X3295666Y80757573D01*
X3295666Y80757573D02*
X3257571Y80643287D01*
X3257571Y80643287D02*
X2800428Y80186144D01*
X2800428Y80186144D02*
X3295666Y80186144D01*
X3790905Y80986144D02*
X3867095Y80986144D01*
X3867095Y80986144D02*
X3943286Y80948049D01*
X3943286Y80948049D02*
X3981381Y80909954D01*
X3981381Y80909954D02*
X4019476Y80833763D01*
X4019476Y80833763D02*
X4057571Y80681382D01*
X4057571Y80681382D02*
X4057571Y80490906D01*
X4057571Y80490906D02*
X4019476Y80338525D01*
X4019476Y80338525D02*
X3981381Y80262335D01*
X3981381Y80262335D02*
X3943286Y80224240D01*
X3943286Y80224240D02*
X3867095Y80186144D01*
X3867095Y80186144D02*
X3790905Y80186144D01*
X3790905Y80186144D02*
X3714714Y80224240D01*
X3714714Y80224240D02*
X3676619Y80262335D01*
X3676619Y80262335D02*
X3638524Y80338525D01*
X3638524Y80338525D02*
X3600428Y80490906D01*
X3600428Y80490906D02*
X3600428Y80681382D01*
X3600428Y80681382D02*
X3638524Y80833763D01*
X3638524Y80833763D02*
X3676619Y80909954D01*
X3676619Y80909954D02*
X3714714Y80948049D01*
X3714714Y80948049D02*
X3790905Y80986144D01*
X4324238Y80986144D02*
X4857572Y80986144D01*
X4857572Y80986144D02*
X4514714Y80186144D01*
X92322762Y9904335D02*
X92284666Y9866240D01*
X92284666Y9866240D02*
X92170381Y9828144D01*
X92170381Y9828144D02*
X92094190Y9828144D01*
X92094190Y9828144D02*
X91979904Y9866240D01*
X91979904Y9866240D02*
X91903714Y9942430D01*
X91903714Y9942430D02*
X91865619Y10018620D01*
X91865619Y10018620D02*
X91827523Y10171001D01*
X91827523Y10171001D02*
X91827523Y10285287D01*
X91827523Y10285287D02*
X91865619Y10437668D01*
X91865619Y10437668D02*
X91903714Y10513859D01*
X91903714Y10513859D02*
X91979904Y10590049D01*
X91979904Y10590049D02*
X92094190Y10628144D01*
X92094190Y10628144D02*
X92170381Y10628144D01*
X92170381Y10628144D02*
X92284666Y10590049D01*
X92284666Y10590049D02*
X92322762Y10551954D01*
X92627523Y10551954D02*
X92665619Y10590049D01*
X92665619Y10590049D02*
X92741809Y10628144D01*
X92741809Y10628144D02*
X92932285Y10628144D01*
X92932285Y10628144D02*
X93008476Y10590049D01*
X93008476Y10590049D02*
X93046571Y10551954D01*
X93046571Y10551954D02*
X93084666Y10475763D01*
X93084666Y10475763D02*
X93084666Y10399573D01*
X93084666Y10399573D02*
X93046571Y10285287D01*
X93046571Y10285287D02*
X92589428Y9828144D01*
X92589428Y9828144D02*
X93084666Y9828144D01*
X93579905Y10628144D02*
X93656095Y10628144D01*
X93656095Y10628144D02*
X93732286Y10590049D01*
X93732286Y10590049D02*
X93770381Y10551954D01*
X93770381Y10551954D02*
X93808476Y10475763D01*
X93808476Y10475763D02*
X93846571Y10323382D01*
X93846571Y10323382D02*
X93846571Y10132906D01*
X93846571Y10132906D02*
X93808476Y9980525D01*
X93808476Y9980525D02*
X93770381Y9904335D01*
X93770381Y9904335D02*
X93732286Y9866240D01*
X93732286Y9866240D02*
X93656095Y9828144D01*
X93656095Y9828144D02*
X93579905Y9828144D01*
X93579905Y9828144D02*
X93503714Y9866240D01*
X93503714Y9866240D02*
X93465619Y9904335D01*
X93465619Y9904335D02*
X93427524Y9980525D01*
X93427524Y9980525D02*
X93389428Y10132906D01*
X93389428Y10132906D02*
X93389428Y10323382D01*
X93389428Y10323382D02*
X93427524Y10475763D01*
X93427524Y10475763D02*
X93465619Y10551954D01*
X93465619Y10551954D02*
X93503714Y10590049D01*
X93503714Y10590049D02*
X93579905Y10628144D01*
X94227524Y9828144D02*
X94379905Y9828144D01*
X94379905Y9828144D02*
X94456095Y9866240D01*
X94456095Y9866240D02*
X94494191Y9904335D01*
X94494191Y9904335D02*
X94570381Y10018620D01*
X94570381Y10018620D02*
X94608476Y10171001D01*
X94608476Y10171001D02*
X94608476Y10475763D01*
X94608476Y10475763D02*
X94570381Y10551954D01*
X94570381Y10551954D02*
X94532286Y10590049D01*
X94532286Y10590049D02*
X94456095Y10628144D01*
X94456095Y10628144D02*
X94303714Y10628144D01*
X94303714Y10628144D02*
X94227524Y10590049D01*
X94227524Y10590049D02*
X94189429Y10551954D01*
X94189429Y10551954D02*
X94151333Y10475763D01*
X94151333Y10475763D02*
X94151333Y10285287D01*
X94151333Y10285287D02*
X94189429Y10209097D01*
X94189429Y10209097D02*
X94227524Y10171001D01*
X94227524Y10171001D02*
X94303714Y10132906D01*
X94303714Y10132906D02*
X94456095Y10132906D01*
X94456095Y10132906D02*
X94532286Y10171001D01*
X94532286Y10171001D02*
X94570381Y10209097D01*
X94570381Y10209097D02*
X94608476Y10285287D01*
X43771244Y19899431D02*
X43923625Y19899431D01*
X43923625Y19899431D02*
X43999815Y19861336D01*
X43999815Y19861336D02*
X44076006Y19785146D01*
X44076006Y19785146D02*
X44114101Y19632765D01*
X44114101Y19632765D02*
X44114101Y19366098D01*
X44114101Y19366098D02*
X44076006Y19213717D01*
X44076006Y19213717D02*
X43999815Y19137527D01*
X43999815Y19137527D02*
X43923625Y19099431D01*
X43923625Y19099431D02*
X43771244Y19099431D01*
X43771244Y19099431D02*
X43695053Y19137527D01*
X43695053Y19137527D02*
X43618863Y19213717D01*
X43618863Y19213717D02*
X43580767Y19366098D01*
X43580767Y19366098D02*
X43580767Y19632765D01*
X43580767Y19632765D02*
X43618863Y19785146D01*
X43618863Y19785146D02*
X43695053Y19861336D01*
X43695053Y19861336D02*
X43771244Y19899431D01*
X44914101Y19175622D02*
X44876005Y19137527D01*
X44876005Y19137527D02*
X44761720Y19099431D01*
X44761720Y19099431D02*
X44685529Y19099431D01*
X44685529Y19099431D02*
X44571243Y19137527D01*
X44571243Y19137527D02*
X44495053Y19213717D01*
X44495053Y19213717D02*
X44456958Y19289907D01*
X44456958Y19289907D02*
X44418862Y19442288D01*
X44418862Y19442288D02*
X44418862Y19556574D01*
X44418862Y19556574D02*
X44456958Y19708955D01*
X44456958Y19708955D02*
X44495053Y19785146D01*
X44495053Y19785146D02*
X44571243Y19861336D01*
X44571243Y19861336D02*
X44685529Y19899431D01*
X44685529Y19899431D02*
X44761720Y19899431D01*
X44761720Y19899431D02*
X44876005Y19861336D01*
X44876005Y19861336D02*
X44914101Y19823241D01*
X45256958Y19099431D02*
X45256958Y19899431D01*
X45256958Y19899431D02*
X45561720Y19899431D01*
X45561720Y19899431D02*
X45637910Y19861336D01*
X45637910Y19861336D02*
X45676005Y19823241D01*
X45676005Y19823241D02*
X45714101Y19747050D01*
X45714101Y19747050D02*
X45714101Y19632765D01*
X45714101Y19632765D02*
X45676005Y19556574D01*
X45676005Y19556574D02*
X45637910Y19518479D01*
X45637910Y19518479D02*
X45561720Y19480384D01*
X45561720Y19480384D02*
X45256958Y19480384D01*
X127381590Y12759421D02*
X127381590Y13559421D01*
X127381590Y13559421D02*
X127648256Y12987993D01*
X127648256Y12987993D02*
X127914923Y13559421D01*
X127914923Y13559421D02*
X127914923Y12759421D01*
X128295876Y12835612D02*
X128333971Y12797517D01*
X128333971Y12797517D02*
X128295876Y12759421D01*
X128295876Y12759421D02*
X128257780Y12797517D01*
X128257780Y12797517D02*
X128295876Y12835612D01*
X128295876Y12835612D02*
X128295876Y12759421D01*
X128638732Y13483231D02*
X128676828Y13521326D01*
X128676828Y13521326D02*
X128753018Y13559421D01*
X128753018Y13559421D02*
X128943494Y13559421D01*
X128943494Y13559421D02*
X129019685Y13521326D01*
X129019685Y13521326D02*
X129057780Y13483231D01*
X129057780Y13483231D02*
X129095875Y13407040D01*
X129095875Y13407040D02*
X129095875Y13330850D01*
X129095875Y13330850D02*
X129057780Y13216564D01*
X129057780Y13216564D02*
X128600637Y12759421D01*
X128600637Y12759421D02*
X129095875Y12759421D01*
X129438733Y13064183D02*
X130048257Y13064183D01*
X130848256Y12759421D02*
X130391113Y12759421D01*
X130619685Y12759421D02*
X130619685Y13559421D01*
X130619685Y13559421D02*
X130543494Y13445136D01*
X130543494Y13445136D02*
X130467304Y13368945D01*
X130467304Y13368945D02*
X130391113Y13330850D01*
X151574582Y12680452D02*
X151574582Y13480452D01*
X151574582Y13480452D02*
X151841248Y12909024D01*
X151841248Y12909024D02*
X152107915Y13480452D01*
X152107915Y13480452D02*
X152107915Y12680452D01*
X152488868Y12756643D02*
X152526963Y12718548D01*
X152526963Y12718548D02*
X152488868Y12680452D01*
X152488868Y12680452D02*
X152450772Y12718548D01*
X152450772Y12718548D02*
X152488868Y12756643D01*
X152488868Y12756643D02*
X152488868Y12680452D01*
X152831724Y13404262D02*
X152869820Y13442357D01*
X152869820Y13442357D02*
X152946010Y13480452D01*
X152946010Y13480452D02*
X153136486Y13480452D01*
X153136486Y13480452D02*
X153212677Y13442357D01*
X153212677Y13442357D02*
X153250772Y13404262D01*
X153250772Y13404262D02*
X153288867Y13328071D01*
X153288867Y13328071D02*
X153288867Y13251881D01*
X153288867Y13251881D02*
X153250772Y13137595D01*
X153250772Y13137595D02*
X152793629Y12680452D01*
X152793629Y12680452D02*
X153288867Y12680452D01*
X153631725Y12985214D02*
X154241249Y12985214D01*
X155041248Y12680452D02*
X154584105Y12680452D01*
X154812677Y12680452D02*
X154812677Y13480452D01*
X154812677Y13480452D02*
X154736486Y13366167D01*
X154736486Y13366167D02*
X154660296Y13289976D01*
X154660296Y13289976D02*
X154584105Y13251881D01*
X69837951Y90003240D02*
X69952237Y89965144D01*
X69952237Y89965144D02*
X70142713Y89965144D01*
X70142713Y89965144D02*
X70218904Y90003240D01*
X70218904Y90003240D02*
X70256999Y90041335D01*
X70256999Y90041335D02*
X70295094Y90117525D01*
X70295094Y90117525D02*
X70295094Y90193716D01*
X70295094Y90193716D02*
X70256999Y90269906D01*
X70256999Y90269906D02*
X70218904Y90308001D01*
X70218904Y90308001D02*
X70142713Y90346097D01*
X70142713Y90346097D02*
X69990332Y90384192D01*
X69990332Y90384192D02*
X69914142Y90422287D01*
X69914142Y90422287D02*
X69876047Y90460382D01*
X69876047Y90460382D02*
X69837951Y90536573D01*
X69837951Y90536573D02*
X69837951Y90612763D01*
X69837951Y90612763D02*
X69876047Y90688954D01*
X69876047Y90688954D02*
X69914142Y90727049D01*
X69914142Y90727049D02*
X69990332Y90765144D01*
X69990332Y90765144D02*
X70180809Y90765144D01*
X70180809Y90765144D02*
X70295094Y90727049D01*
X70599856Y90193716D02*
X70980809Y90193716D01*
X70523666Y89965144D02*
X70790333Y90765144D01*
X70790333Y90765144D02*
X71056999Y89965144D01*
X71209380Y90765144D02*
X71666523Y90765144D01*
X71437951Y89965144D02*
X71437951Y90765144D01*
X71895094Y90193716D02*
X72276047Y90193716D01*
X71818904Y89965144D02*
X72085571Y90765144D01*
X72085571Y90765144D02*
X72352237Y89965144D01*
X73037951Y89965144D02*
X72580808Y89965144D01*
X72809380Y89965144D02*
X72809380Y90765144D01*
X72809380Y90765144D02*
X72733189Y90650859D01*
X72733189Y90650859D02*
X72656999Y90574668D01*
X72656999Y90574668D02*
X72580808Y90536573D01*
X73190333Y89888954D02*
X73799856Y89888954D01*
X74371285Y90765144D02*
X73990333Y90765144D01*
X73990333Y90765144D02*
X73952237Y90384192D01*
X73952237Y90384192D02*
X73990333Y90422287D01*
X73990333Y90422287D02*
X74066523Y90460382D01*
X74066523Y90460382D02*
X74256999Y90460382D01*
X74256999Y90460382D02*
X74333190Y90422287D01*
X74333190Y90422287D02*
X74371285Y90384192D01*
X74371285Y90384192D02*
X74409380Y90308001D01*
X74409380Y90308001D02*
X74409380Y90117525D01*
X74409380Y90117525D02*
X74371285Y90041335D01*
X74371285Y90041335D02*
X74333190Y90003240D01*
X74333190Y90003240D02*
X74256999Y89965144D01*
X74256999Y89965144D02*
X74066523Y89965144D01*
X74066523Y89965144D02*
X73990333Y90003240D01*
X73990333Y90003240D02*
X73952237Y90041335D01*
X74752238Y90269906D02*
X75361762Y90269906D01*
X75704618Y90003240D02*
X75818904Y89965144D01*
X75818904Y89965144D02*
X76009380Y89965144D01*
X76009380Y89965144D02*
X76085571Y90003240D01*
X76085571Y90003240D02*
X76123666Y90041335D01*
X76123666Y90041335D02*
X76161761Y90117525D01*
X76161761Y90117525D02*
X76161761Y90193716D01*
X76161761Y90193716D02*
X76123666Y90269906D01*
X76123666Y90269906D02*
X76085571Y90308001D01*
X76085571Y90308001D02*
X76009380Y90346097D01*
X76009380Y90346097D02*
X75856999Y90384192D01*
X75856999Y90384192D02*
X75780809Y90422287D01*
X75780809Y90422287D02*
X75742714Y90460382D01*
X75742714Y90460382D02*
X75704618Y90536573D01*
X75704618Y90536573D02*
X75704618Y90612763D01*
X75704618Y90612763D02*
X75742714Y90688954D01*
X75742714Y90688954D02*
X75780809Y90727049D01*
X75780809Y90727049D02*
X75856999Y90765144D01*
X75856999Y90765144D02*
X76047476Y90765144D01*
X76047476Y90765144D02*
X76161761Y90727049D01*
X76466523Y90193716D02*
X76847476Y90193716D01*
X76390333Y89965144D02*
X76657000Y90765144D01*
X76657000Y90765144D02*
X76923666Y89965144D01*
X77076047Y90765144D02*
X77533190Y90765144D01*
X77304618Y89965144D02*
X77304618Y90765144D01*
X77761761Y90193716D02*
X78142714Y90193716D01*
X77685571Y89965144D02*
X77952238Y90765144D01*
X77952238Y90765144D02*
X78218904Y89965144D01*
X78447475Y90688954D02*
X78485571Y90727049D01*
X78485571Y90727049D02*
X78561761Y90765144D01*
X78561761Y90765144D02*
X78752237Y90765144D01*
X78752237Y90765144D02*
X78828428Y90727049D01*
X78828428Y90727049D02*
X78866523Y90688954D01*
X78866523Y90688954D02*
X78904618Y90612763D01*
X78904618Y90612763D02*
X78904618Y90536573D01*
X78904618Y90536573D02*
X78866523Y90422287D01*
X78866523Y90422287D02*
X78409380Y89965144D01*
X78409380Y89965144D02*
X78904618Y89965144D01*
X79057000Y89888954D02*
X79666523Y89888954D01*
X80276047Y89965144D02*
X79818904Y89965144D01*
X80047476Y89965144D02*
X80047476Y90765144D01*
X80047476Y90765144D02*
X79971285Y90650859D01*
X79971285Y90650859D02*
X79895095Y90574668D01*
X79895095Y90574668D02*
X79818904Y90536573D01*
X40132332Y90003240D02*
X40246618Y89965144D01*
X40246618Y89965144D02*
X40437094Y89965144D01*
X40437094Y89965144D02*
X40513285Y90003240D01*
X40513285Y90003240D02*
X40551380Y90041335D01*
X40551380Y90041335D02*
X40589475Y90117525D01*
X40589475Y90117525D02*
X40589475Y90193716D01*
X40589475Y90193716D02*
X40551380Y90269906D01*
X40551380Y90269906D02*
X40513285Y90308001D01*
X40513285Y90308001D02*
X40437094Y90346097D01*
X40437094Y90346097D02*
X40284713Y90384192D01*
X40284713Y90384192D02*
X40208523Y90422287D01*
X40208523Y90422287D02*
X40170428Y90460382D01*
X40170428Y90460382D02*
X40132332Y90536573D01*
X40132332Y90536573D02*
X40132332Y90612763D01*
X40132332Y90612763D02*
X40170428Y90688954D01*
X40170428Y90688954D02*
X40208523Y90727049D01*
X40208523Y90727049D02*
X40284713Y90765144D01*
X40284713Y90765144D02*
X40475190Y90765144D01*
X40475190Y90765144D02*
X40589475Y90727049D01*
X40894237Y90193716D02*
X41275190Y90193716D01*
X40818047Y89965144D02*
X41084714Y90765144D01*
X41084714Y90765144D02*
X41351380Y89965144D01*
X41503761Y90765144D02*
X41960904Y90765144D01*
X41732332Y89965144D02*
X41732332Y90765144D01*
X42189475Y90193716D02*
X42570428Y90193716D01*
X42113285Y89965144D02*
X42379952Y90765144D01*
X42379952Y90765144D02*
X42646618Y89965144D01*
X43332332Y89965144D02*
X42875189Y89965144D01*
X43103761Y89965144D02*
X43103761Y90765144D01*
X43103761Y90765144D02*
X43027570Y90650859D01*
X43027570Y90650859D02*
X42951380Y90574668D01*
X42951380Y90574668D02*
X42875189Y90536573D01*
X43484714Y89888954D02*
X44094237Y89888954D01*
X44703761Y89965144D02*
X44246618Y89965144D01*
X44475190Y89965144D02*
X44475190Y90765144D01*
X44475190Y90765144D02*
X44398999Y90650859D01*
X44398999Y90650859D02*
X44322809Y90574668D01*
X44322809Y90574668D02*
X44246618Y90536573D01*
X45008523Y90688954D02*
X45046619Y90727049D01*
X45046619Y90727049D02*
X45122809Y90765144D01*
X45122809Y90765144D02*
X45313285Y90765144D01*
X45313285Y90765144D02*
X45389476Y90727049D01*
X45389476Y90727049D02*
X45427571Y90688954D01*
X45427571Y90688954D02*
X45465666Y90612763D01*
X45465666Y90612763D02*
X45465666Y90536573D01*
X45465666Y90536573D02*
X45427571Y90422287D01*
X45427571Y90422287D02*
X44970428Y89965144D01*
X44970428Y89965144D02*
X45465666Y89965144D01*
X56261332Y90003240D02*
X56375618Y89965144D01*
X56375618Y89965144D02*
X56566094Y89965144D01*
X56566094Y89965144D02*
X56642285Y90003240D01*
X56642285Y90003240D02*
X56680380Y90041335D01*
X56680380Y90041335D02*
X56718475Y90117525D01*
X56718475Y90117525D02*
X56718475Y90193716D01*
X56718475Y90193716D02*
X56680380Y90269906D01*
X56680380Y90269906D02*
X56642285Y90308001D01*
X56642285Y90308001D02*
X56566094Y90346097D01*
X56566094Y90346097D02*
X56413713Y90384192D01*
X56413713Y90384192D02*
X56337523Y90422287D01*
X56337523Y90422287D02*
X56299428Y90460382D01*
X56299428Y90460382D02*
X56261332Y90536573D01*
X56261332Y90536573D02*
X56261332Y90612763D01*
X56261332Y90612763D02*
X56299428Y90688954D01*
X56299428Y90688954D02*
X56337523Y90727049D01*
X56337523Y90727049D02*
X56413713Y90765144D01*
X56413713Y90765144D02*
X56604190Y90765144D01*
X56604190Y90765144D02*
X56718475Y90727049D01*
X57023237Y90193716D02*
X57404190Y90193716D01*
X56947047Y89965144D02*
X57213714Y90765144D01*
X57213714Y90765144D02*
X57480380Y89965144D01*
X57632761Y90765144D02*
X58089904Y90765144D01*
X57861332Y89965144D02*
X57861332Y90765144D01*
X58318475Y90193716D02*
X58699428Y90193716D01*
X58242285Y89965144D02*
X58508952Y90765144D01*
X58508952Y90765144D02*
X58775618Y89965144D01*
X59461332Y89965144D02*
X59004189Y89965144D01*
X59232761Y89965144D02*
X59232761Y90765144D01*
X59232761Y90765144D02*
X59156570Y90650859D01*
X59156570Y90650859D02*
X59080380Y90574668D01*
X59080380Y90574668D02*
X59004189Y90536573D01*
X59613714Y89888954D02*
X60223237Y89888954D01*
X60337523Y90765144D02*
X60832761Y90765144D01*
X60832761Y90765144D02*
X60566095Y90460382D01*
X60566095Y90460382D02*
X60680380Y90460382D01*
X60680380Y90460382D02*
X60756571Y90422287D01*
X60756571Y90422287D02*
X60794666Y90384192D01*
X60794666Y90384192D02*
X60832761Y90308001D01*
X60832761Y90308001D02*
X60832761Y90117525D01*
X60832761Y90117525D02*
X60794666Y90041335D01*
X60794666Y90041335D02*
X60756571Y90003240D01*
X60756571Y90003240D02*
X60680380Y89965144D01*
X60680380Y89965144D02*
X60451809Y89965144D01*
X60451809Y89965144D02*
X60375618Y90003240D01*
X60375618Y90003240D02*
X60337523Y90041335D01*
X61518476Y90498478D02*
X61518476Y89965144D01*
X61328000Y90803240D02*
X61137523Y90231811D01*
X61137523Y90231811D02*
X61632762Y90231811D01*
X88519332Y90003240D02*
X88633618Y89965144D01*
X88633618Y89965144D02*
X88824094Y89965144D01*
X88824094Y89965144D02*
X88900285Y90003240D01*
X88900285Y90003240D02*
X88938380Y90041335D01*
X88938380Y90041335D02*
X88976475Y90117525D01*
X88976475Y90117525D02*
X88976475Y90193716D01*
X88976475Y90193716D02*
X88938380Y90269906D01*
X88938380Y90269906D02*
X88900285Y90308001D01*
X88900285Y90308001D02*
X88824094Y90346097D01*
X88824094Y90346097D02*
X88671713Y90384192D01*
X88671713Y90384192D02*
X88595523Y90422287D01*
X88595523Y90422287D02*
X88557428Y90460382D01*
X88557428Y90460382D02*
X88519332Y90536573D01*
X88519332Y90536573D02*
X88519332Y90612763D01*
X88519332Y90612763D02*
X88557428Y90688954D01*
X88557428Y90688954D02*
X88595523Y90727049D01*
X88595523Y90727049D02*
X88671713Y90765144D01*
X88671713Y90765144D02*
X88862190Y90765144D01*
X88862190Y90765144D02*
X88976475Y90727049D01*
X89281237Y90193716D02*
X89662190Y90193716D01*
X89205047Y89965144D02*
X89471714Y90765144D01*
X89471714Y90765144D02*
X89738380Y89965144D01*
X89890761Y90765144D02*
X90347904Y90765144D01*
X90119332Y89965144D02*
X90119332Y90765144D01*
X90576475Y90193716D02*
X90957428Y90193716D01*
X90500285Y89965144D02*
X90766952Y90765144D01*
X90766952Y90765144D02*
X91033618Y89965144D01*
X91262189Y90688954D02*
X91300285Y90727049D01*
X91300285Y90727049D02*
X91376475Y90765144D01*
X91376475Y90765144D02*
X91566951Y90765144D01*
X91566951Y90765144D02*
X91643142Y90727049D01*
X91643142Y90727049D02*
X91681237Y90688954D01*
X91681237Y90688954D02*
X91719332Y90612763D01*
X91719332Y90612763D02*
X91719332Y90536573D01*
X91719332Y90536573D02*
X91681237Y90422287D01*
X91681237Y90422287D02*
X91224094Y89965144D01*
X91224094Y89965144D02*
X91719332Y89965144D01*
X91871714Y89888954D02*
X92481237Y89888954D01*
X92633618Y90688954D02*
X92671714Y90727049D01*
X92671714Y90727049D02*
X92747904Y90765144D01*
X92747904Y90765144D02*
X92938380Y90765144D01*
X92938380Y90765144D02*
X93014571Y90727049D01*
X93014571Y90727049D02*
X93052666Y90688954D01*
X93052666Y90688954D02*
X93090761Y90612763D01*
X93090761Y90612763D02*
X93090761Y90536573D01*
X93090761Y90536573D02*
X93052666Y90422287D01*
X93052666Y90422287D02*
X92595523Y89965144D01*
X92595523Y89965144D02*
X93090761Y89965144D01*
X93357428Y90765144D02*
X93852666Y90765144D01*
X93852666Y90765144D02*
X93586000Y90460382D01*
X93586000Y90460382D02*
X93700285Y90460382D01*
X93700285Y90460382D02*
X93776476Y90422287D01*
X93776476Y90422287D02*
X93814571Y90384192D01*
X93814571Y90384192D02*
X93852666Y90308001D01*
X93852666Y90308001D02*
X93852666Y90117525D01*
X93852666Y90117525D02*
X93814571Y90041335D01*
X93814571Y90041335D02*
X93776476Y90003240D01*
X93776476Y90003240D02*
X93700285Y89965144D01*
X93700285Y89965144D02*
X93471714Y89965144D01*
X93471714Y89965144D02*
X93395523Y90003240D01*
X93395523Y90003240D02*
X93357428Y90041335D01*
X104648332Y90003240D02*
X104762618Y89965144D01*
X104762618Y89965144D02*
X104953094Y89965144D01*
X104953094Y89965144D02*
X105029285Y90003240D01*
X105029285Y90003240D02*
X105067380Y90041335D01*
X105067380Y90041335D02*
X105105475Y90117525D01*
X105105475Y90117525D02*
X105105475Y90193716D01*
X105105475Y90193716D02*
X105067380Y90269906D01*
X105067380Y90269906D02*
X105029285Y90308001D01*
X105029285Y90308001D02*
X104953094Y90346097D01*
X104953094Y90346097D02*
X104800713Y90384192D01*
X104800713Y90384192D02*
X104724523Y90422287D01*
X104724523Y90422287D02*
X104686428Y90460382D01*
X104686428Y90460382D02*
X104648332Y90536573D01*
X104648332Y90536573D02*
X104648332Y90612763D01*
X104648332Y90612763D02*
X104686428Y90688954D01*
X104686428Y90688954D02*
X104724523Y90727049D01*
X104724523Y90727049D02*
X104800713Y90765144D01*
X104800713Y90765144D02*
X104991190Y90765144D01*
X104991190Y90765144D02*
X105105475Y90727049D01*
X105410237Y90193716D02*
X105791190Y90193716D01*
X105334047Y89965144D02*
X105600714Y90765144D01*
X105600714Y90765144D02*
X105867380Y89965144D01*
X106019761Y90765144D02*
X106476904Y90765144D01*
X106248332Y89965144D02*
X106248332Y90765144D01*
X106705475Y90193716D02*
X107086428Y90193716D01*
X106629285Y89965144D02*
X106895952Y90765144D01*
X106895952Y90765144D02*
X107162618Y89965144D01*
X107391189Y90688954D02*
X107429285Y90727049D01*
X107429285Y90727049D02*
X107505475Y90765144D01*
X107505475Y90765144D02*
X107695951Y90765144D01*
X107695951Y90765144D02*
X107772142Y90727049D01*
X107772142Y90727049D02*
X107810237Y90688954D01*
X107810237Y90688954D02*
X107848332Y90612763D01*
X107848332Y90612763D02*
X107848332Y90536573D01*
X107848332Y90536573D02*
X107810237Y90422287D01*
X107810237Y90422287D02*
X107353094Y89965144D01*
X107353094Y89965144D02*
X107848332Y89965144D01*
X108000714Y89888954D02*
X108610237Y89888954D01*
X109143571Y90498478D02*
X109143571Y89965144D01*
X108953095Y90803240D02*
X108762618Y90231811D01*
X108762618Y90231811D02*
X109257857Y90231811D01*
X109943571Y90765144D02*
X109562619Y90765144D01*
X109562619Y90765144D02*
X109524523Y90384192D01*
X109524523Y90384192D02*
X109562619Y90422287D01*
X109562619Y90422287D02*
X109638809Y90460382D01*
X109638809Y90460382D02*
X109829285Y90460382D01*
X109829285Y90460382D02*
X109905476Y90422287D01*
X109905476Y90422287D02*
X109943571Y90384192D01*
X109943571Y90384192D02*
X109981666Y90308001D01*
X109981666Y90308001D02*
X109981666Y90117525D01*
X109981666Y90117525D02*
X109943571Y90041335D01*
X109943571Y90041335D02*
X109905476Y90003240D01*
X109905476Y90003240D02*
X109829285Y89965144D01*
X109829285Y89965144D02*
X109638809Y89965144D01*
X109638809Y89965144D02*
X109562619Y90003240D01*
X109562619Y90003240D02*
X109524523Y90041335D01*
X128485797Y95877846D02*
X128600083Y95839750D01*
X128600083Y95839750D02*
X128790559Y95839750D01*
X128790559Y95839750D02*
X128866750Y95877846D01*
X128866750Y95877846D02*
X128904845Y95915941D01*
X128904845Y95915941D02*
X128942940Y95992131D01*
X128942940Y95992131D02*
X128942940Y96068322D01*
X128942940Y96068322D02*
X128904845Y96144512D01*
X128904845Y96144512D02*
X128866750Y96182607D01*
X128866750Y96182607D02*
X128790559Y96220703D01*
X128790559Y96220703D02*
X128638178Y96258798D01*
X128638178Y96258798D02*
X128561988Y96296893D01*
X128561988Y96296893D02*
X128523893Y96334988D01*
X128523893Y96334988D02*
X128485797Y96411179D01*
X128485797Y96411179D02*
X128485797Y96487369D01*
X128485797Y96487369D02*
X128523893Y96563560D01*
X128523893Y96563560D02*
X128561988Y96601655D01*
X128561988Y96601655D02*
X128638178Y96639750D01*
X128638178Y96639750D02*
X128828655Y96639750D01*
X128828655Y96639750D02*
X128942940Y96601655D01*
X129666750Y96639750D02*
X129285798Y96639750D01*
X129285798Y96639750D02*
X129247702Y96258798D01*
X129247702Y96258798D02*
X129285798Y96296893D01*
X129285798Y96296893D02*
X129361988Y96334988D01*
X129361988Y96334988D02*
X129552464Y96334988D01*
X129552464Y96334988D02*
X129628655Y96296893D01*
X129628655Y96296893D02*
X129666750Y96258798D01*
X129666750Y96258798D02*
X129704845Y96182607D01*
X129704845Y96182607D02*
X129704845Y95992131D01*
X129704845Y95992131D02*
X129666750Y95915941D01*
X129666750Y95915941D02*
X129628655Y95877846D01*
X129628655Y95877846D02*
X129552464Y95839750D01*
X129552464Y95839750D02*
X129361988Y95839750D01*
X129361988Y95839750D02*
X129285798Y95877846D01*
X129285798Y95877846D02*
X129247702Y95915941D01*
X128485797Y75877846D02*
X128600083Y75839750D01*
X128600083Y75839750D02*
X128790559Y75839750D01*
X128790559Y75839750D02*
X128866750Y75877846D01*
X128866750Y75877846D02*
X128904845Y75915941D01*
X128904845Y75915941D02*
X128942940Y75992131D01*
X128942940Y75992131D02*
X128942940Y76068322D01*
X128942940Y76068322D02*
X128904845Y76144512D01*
X128904845Y76144512D02*
X128866750Y76182607D01*
X128866750Y76182607D02*
X128790559Y76220703D01*
X128790559Y76220703D02*
X128638178Y76258798D01*
X128638178Y76258798D02*
X128561988Y76296893D01*
X128561988Y76296893D02*
X128523893Y76334988D01*
X128523893Y76334988D02*
X128485797Y76411179D01*
X128485797Y76411179D02*
X128485797Y76487369D01*
X128485797Y76487369D02*
X128523893Y76563560D01*
X128523893Y76563560D02*
X128561988Y76601655D01*
X128561988Y76601655D02*
X128638178Y76639750D01*
X128638178Y76639750D02*
X128828655Y76639750D01*
X128828655Y76639750D02*
X128942940Y76601655D01*
X129628655Y76639750D02*
X129476274Y76639750D01*
X129476274Y76639750D02*
X129400083Y76601655D01*
X129400083Y76601655D02*
X129361988Y76563560D01*
X129361988Y76563560D02*
X129285798Y76449274D01*
X129285798Y76449274D02*
X129247702Y76296893D01*
X129247702Y76296893D02*
X129247702Y75992131D01*
X129247702Y75992131D02*
X129285798Y75915941D01*
X129285798Y75915941D02*
X129323893Y75877846D01*
X129323893Y75877846D02*
X129400083Y75839750D01*
X129400083Y75839750D02*
X129552464Y75839750D01*
X129552464Y75839750D02*
X129628655Y75877846D01*
X129628655Y75877846D02*
X129666750Y75915941D01*
X129666750Y75915941D02*
X129704845Y75992131D01*
X129704845Y75992131D02*
X129704845Y76182607D01*
X129704845Y76182607D02*
X129666750Y76258798D01*
X129666750Y76258798D02*
X129628655Y76296893D01*
X129628655Y76296893D02*
X129552464Y76334988D01*
X129552464Y76334988D02*
X129400083Y76334988D01*
X129400083Y76334988D02*
X129323893Y76296893D01*
X129323893Y76296893D02*
X129285798Y76258798D01*
X129285798Y76258798D02*
X129247702Y76182607D01*
X128485797Y57877846D02*
X128600083Y57839750D01*
X128600083Y57839750D02*
X128790559Y57839750D01*
X128790559Y57839750D02*
X128866750Y57877846D01*
X128866750Y57877846D02*
X128904845Y57915941D01*
X128904845Y57915941D02*
X128942940Y57992131D01*
X128942940Y57992131D02*
X128942940Y58068322D01*
X128942940Y58068322D02*
X128904845Y58144512D01*
X128904845Y58144512D02*
X128866750Y58182607D01*
X128866750Y58182607D02*
X128790559Y58220703D01*
X128790559Y58220703D02*
X128638178Y58258798D01*
X128638178Y58258798D02*
X128561988Y58296893D01*
X128561988Y58296893D02*
X128523893Y58334988D01*
X128523893Y58334988D02*
X128485797Y58411179D01*
X128485797Y58411179D02*
X128485797Y58487369D01*
X128485797Y58487369D02*
X128523893Y58563560D01*
X128523893Y58563560D02*
X128561988Y58601655D01*
X128561988Y58601655D02*
X128638178Y58639750D01*
X128638178Y58639750D02*
X128828655Y58639750D01*
X128828655Y58639750D02*
X128942940Y58601655D01*
X129209607Y58639750D02*
X129742941Y58639750D01*
X129742941Y58639750D02*
X129400083Y57839750D01*
X152679198Y95818697D02*
X152793484Y95780601D01*
X152793484Y95780601D02*
X152983960Y95780601D01*
X152983960Y95780601D02*
X153060151Y95818697D01*
X153060151Y95818697D02*
X153098246Y95856792D01*
X153098246Y95856792D02*
X153136341Y95932982D01*
X153136341Y95932982D02*
X153136341Y96009173D01*
X153136341Y96009173D02*
X153098246Y96085363D01*
X153098246Y96085363D02*
X153060151Y96123458D01*
X153060151Y96123458D02*
X152983960Y96161554D01*
X152983960Y96161554D02*
X152831579Y96199649D01*
X152831579Y96199649D02*
X152755389Y96237744D01*
X152755389Y96237744D02*
X152717294Y96275839D01*
X152717294Y96275839D02*
X152679198Y96352030D01*
X152679198Y96352030D02*
X152679198Y96428220D01*
X152679198Y96428220D02*
X152717294Y96504411D01*
X152717294Y96504411D02*
X152755389Y96542506D01*
X152755389Y96542506D02*
X152831579Y96580601D01*
X152831579Y96580601D02*
X153022056Y96580601D01*
X153022056Y96580601D02*
X153136341Y96542506D01*
X153593484Y96237744D02*
X153517294Y96275839D01*
X153517294Y96275839D02*
X153479199Y96313935D01*
X153479199Y96313935D02*
X153441103Y96390125D01*
X153441103Y96390125D02*
X153441103Y96428220D01*
X153441103Y96428220D02*
X153479199Y96504411D01*
X153479199Y96504411D02*
X153517294Y96542506D01*
X153517294Y96542506D02*
X153593484Y96580601D01*
X153593484Y96580601D02*
X153745865Y96580601D01*
X153745865Y96580601D02*
X153822056Y96542506D01*
X153822056Y96542506D02*
X153860151Y96504411D01*
X153860151Y96504411D02*
X153898246Y96428220D01*
X153898246Y96428220D02*
X153898246Y96390125D01*
X153898246Y96390125D02*
X153860151Y96313935D01*
X153860151Y96313935D02*
X153822056Y96275839D01*
X153822056Y96275839D02*
X153745865Y96237744D01*
X153745865Y96237744D02*
X153593484Y96237744D01*
X153593484Y96237744D02*
X153517294Y96199649D01*
X153517294Y96199649D02*
X153479199Y96161554D01*
X153479199Y96161554D02*
X153441103Y96085363D01*
X153441103Y96085363D02*
X153441103Y95932982D01*
X153441103Y95932982D02*
X153479199Y95856792D01*
X153479199Y95856792D02*
X153517294Y95818697D01*
X153517294Y95818697D02*
X153593484Y95780601D01*
X153593484Y95780601D02*
X153745865Y95780601D01*
X153745865Y95780601D02*
X153822056Y95818697D01*
X153822056Y95818697D02*
X153860151Y95856792D01*
X153860151Y95856792D02*
X153898246Y95932982D01*
X153898246Y95932982D02*
X153898246Y96085363D01*
X153898246Y96085363D02*
X153860151Y96161554D01*
X153860151Y96161554D02*
X153822056Y96199649D01*
X153822056Y96199649D02*
X153745865Y96237744D01*
X152679196Y75818697D02*
X152793482Y75780601D01*
X152793482Y75780601D02*
X152983958Y75780601D01*
X152983958Y75780601D02*
X153060149Y75818697D01*
X153060149Y75818697D02*
X153098244Y75856792D01*
X153098244Y75856792D02*
X153136339Y75932982D01*
X153136339Y75932982D02*
X153136339Y76009173D01*
X153136339Y76009173D02*
X153098244Y76085363D01*
X153098244Y76085363D02*
X153060149Y76123458D01*
X153060149Y76123458D02*
X152983958Y76161554D01*
X152983958Y76161554D02*
X152831577Y76199649D01*
X152831577Y76199649D02*
X152755387Y76237744D01*
X152755387Y76237744D02*
X152717292Y76275839D01*
X152717292Y76275839D02*
X152679196Y76352030D01*
X152679196Y76352030D02*
X152679196Y76428220D01*
X152679196Y76428220D02*
X152717292Y76504411D01*
X152717292Y76504411D02*
X152755387Y76542506D01*
X152755387Y76542506D02*
X152831577Y76580601D01*
X152831577Y76580601D02*
X153022054Y76580601D01*
X153022054Y76580601D02*
X153136339Y76542506D01*
X153517292Y75780601D02*
X153669673Y75780601D01*
X153669673Y75780601D02*
X153745863Y75818697D01*
X153745863Y75818697D02*
X153783959Y75856792D01*
X153783959Y75856792D02*
X153860149Y75971077D01*
X153860149Y75971077D02*
X153898244Y76123458D01*
X153898244Y76123458D02*
X153898244Y76428220D01*
X153898244Y76428220D02*
X153860149Y76504411D01*
X153860149Y76504411D02*
X153822054Y76542506D01*
X153822054Y76542506D02*
X153745863Y76580601D01*
X153745863Y76580601D02*
X153593482Y76580601D01*
X153593482Y76580601D02*
X153517292Y76542506D01*
X153517292Y76542506D02*
X153479197Y76504411D01*
X153479197Y76504411D02*
X153441101Y76428220D01*
X153441101Y76428220D02*
X153441101Y76237744D01*
X153441101Y76237744D02*
X153479197Y76161554D01*
X153479197Y76161554D02*
X153517292Y76123458D01*
X153517292Y76123458D02*
X153593482Y76085363D01*
X153593482Y76085363D02*
X153745863Y76085363D01*
X153745863Y76085363D02*
X153822054Y76123458D01*
X153822054Y76123458D02*
X153860149Y76161554D01*
X153860149Y76161554D02*
X153898244Y76237744D01*
X152298244Y57818697D02*
X152412530Y57780601D01*
X152412530Y57780601D02*
X152603006Y57780601D01*
X152603006Y57780601D02*
X152679197Y57818697D01*
X152679197Y57818697D02*
X152717292Y57856792D01*
X152717292Y57856792D02*
X152755387Y57932982D01*
X152755387Y57932982D02*
X152755387Y58009173D01*
X152755387Y58009173D02*
X152717292Y58085363D01*
X152717292Y58085363D02*
X152679197Y58123458D01*
X152679197Y58123458D02*
X152603006Y58161554D01*
X152603006Y58161554D02*
X152450625Y58199649D01*
X152450625Y58199649D02*
X152374435Y58237744D01*
X152374435Y58237744D02*
X152336340Y58275839D01*
X152336340Y58275839D02*
X152298244Y58352030D01*
X152298244Y58352030D02*
X152298244Y58428220D01*
X152298244Y58428220D02*
X152336340Y58504411D01*
X152336340Y58504411D02*
X152374435Y58542506D01*
X152374435Y58542506D02*
X152450625Y58580601D01*
X152450625Y58580601D02*
X152641102Y58580601D01*
X152641102Y58580601D02*
X152755387Y58542506D01*
X153517292Y57780601D02*
X153060149Y57780601D01*
X153288721Y57780601D02*
X153288721Y58580601D01*
X153288721Y58580601D02*
X153212530Y58466316D01*
X153212530Y58466316D02*
X153136340Y58390125D01*
X153136340Y58390125D02*
X153060149Y58352030D01*
X154012531Y58580601D02*
X154088721Y58580601D01*
X154088721Y58580601D02*
X154164912Y58542506D01*
X154164912Y58542506D02*
X154203007Y58504411D01*
X154203007Y58504411D02*
X154241102Y58428220D01*
X154241102Y58428220D02*
X154279197Y58275839D01*
X154279197Y58275839D02*
X154279197Y58085363D01*
X154279197Y58085363D02*
X154241102Y57932982D01*
X154241102Y57932982D02*
X154203007Y57856792D01*
X154203007Y57856792D02*
X154164912Y57818697D01*
X154164912Y57818697D02*
X154088721Y57780601D01*
X154088721Y57780601D02*
X154012531Y57780601D01*
X154012531Y57780601D02*
X153936340Y57818697D01*
X153936340Y57818697D02*
X153898245Y57856792D01*
X153898245Y57856792D02*
X153860150Y57932982D01*
X153860150Y57932982D02*
X153822054Y58085363D01*
X153822054Y58085363D02*
X153822054Y58275839D01*
X153822054Y58275839D02*
X153860150Y58428220D01*
X153860150Y58428220D02*
X153898245Y58504411D01*
X153898245Y58504411D02*
X153936340Y58542506D01*
X153936340Y58542506D02*
X154012531Y58580601D01*
M02*
